<svg width="1080" height="1920" viewBox="0 0 1080 1920" fill="none" xmlns="http://www.w3.org/2000/svg">
<path d="M1080 1920L1080 0L0 0L0 1920H1080Z" fill="#A5D4AD"/>
<path d="M1020 983.72V95C1020 75.67 1004.33 60 985 60H95.58C75.93 60 60 75.93 60 95.58V983.71C60 984.03 60.25 984.28 60.57 984.28C80.03 984.59 95.71 1000.46 95.71 1019.99C95.71 1039.52 80.03 1055.39 60.57 1055.7C60.25 1055.7 60 1055.96 60 1056.27V1824.99C60 1844.32 75.67 1859.99 95 1859.99H985C1004.33 1859.99 1020 1844.32 1020 1824.99V1056.27C1020 1055.95 1019.75 1055.7 1019.43 1055.7C999.97 1055.39 984.29 1039.52 984.29 1019.99C984.29 1000.46 999.97 984.59 1019.43 984.28C1019.75 984.28 1020 984.02 1020 983.71V983.72Z" fill="white"/>
<path d="M60.57 1055.71C60.25 1055.71 60 1055.97 60 1056.28V1825C60 1844.33 75.67 1860 95 1860H985C1004.33 1860 1020 1844.33 1020 1825V1056.28C1020 1055.96 1019.75 1055.71 1019.43 1055.71C999.97 1055.4 984.29 1039.53 984.29 1020H95.71C95.71 1039.53 80.03 1055.4 60.57 1055.71Z" fill="#E5F2E6"/>
<path d="M121 1020H160.9" stroke="black" stroke-width="6" stroke-miterlimit="10"/>
<path d="M187.51 1020H227.41" stroke="black" stroke-width="6" stroke-miterlimit="10"/>
<path d="M254.02 1020H293.92" stroke="black" stroke-width="6" stroke-miterlimit="10"/>
<path d="M320.52 1020H360.43" stroke="black" stroke-width="6" stroke-miterlimit="10"/>
<path d="M387.03 1020H426.94" stroke="black" stroke-width="6" stroke-miterlimit="10"/>
<path d="M453.54 1020H493.44" stroke="black" stroke-width="6" stroke-miterlimit="10"/>
<path d="M520.05 1020H559.95" stroke="black" stroke-width="6" stroke-miterlimit="10"/>
<path d="M586.56 1020H626.46" stroke="black" stroke-width="6" stroke-miterlimit="10"/>
<path d="M653.06 1020H692.97" stroke="black" stroke-width="6" stroke-miterlimit="10"/>
<path d="M719.57 1020H759.48" stroke="black" stroke-width="6" stroke-miterlimit="10"/>
<path d="M786.08 1020H825.98" stroke="black" stroke-width="6" stroke-miterlimit="10"/>
<path d="M852.59 1020H892.49" stroke="black" stroke-width="6" stroke-miterlimit="10"/>
<path d="M919.1 1020H959" stroke="black" stroke-width="6" stroke-miterlimit="10"/>
<path d="M1020 984.29V95C1020 75.67 1004.33 60 985 60H95C75.67 60 60 75.67 60 95V984.29C79.72 984.29 95.71 1000.28 95.71 1020C95.71 1039.72 79.72 1055.71 60 1055.71V1825C60 1844.33 75.67 1860 95 1860H985C1004.33 1860 1020 1844.33 1020 1825V1055.71C1000.28 1055.71 984.29 1039.72 984.29 1020C984.29 1000.28 1000.28 984.29 1020 984.29Z" stroke="black" stroke-width="6" stroke-miterlimit="10"/>
<path d="M912.649 525.666C908.779 525.666 905.539 522.646 905.319 518.736C900.589 435.626 868.789 358.856 813.369 296.746C810.669 293.716 810.929 289.066 813.959 286.366C816.989 283.666 821.629 283.926 824.339 286.956C881.999 351.576 915.069 431.436 919.999 517.896C920.229 521.946 917.129 525.426 913.079 525.656C912.939 525.656 912.799 525.666 912.659 525.666H912.649Z" fill="black"/>
<path d="M818.849 795.517C817.109 795.517 815.359 794.897 813.959 793.647C810.929 790.947 810.669 786.297 813.369 783.267C868.789 721.157 900.589 644.387 905.319 561.277C905.549 557.227 909.029 554.117 913.079 554.357C917.129 554.587 920.229 558.057 919.999 562.117C915.069 648.587 881.999 728.447 824.339 793.057C822.889 794.687 820.869 795.517 818.849 795.517Z" fill="black"/>
<path d="M167.36 525.666C167.22 525.666 167.08 525.666 166.94 525.656C162.89 525.426 159.79 521.956 160.02 517.896C164.95 431.426 198.02 351.566 255.68 286.956C258.38 283.926 263.03 283.666 266.06 286.366C269.09 289.066 269.35 293.716 266.65 296.746C211.23 358.856 179.43 435.616 174.7 518.736C174.48 522.646 171.24 525.666 167.37 525.666H167.36Z" fill="black"/>
<path d="M261.17 795.517C259.15 795.517 257.13 794.687 255.68 793.057C198.02 728.437 164.95 648.577 160.02 562.117C159.79 558.067 162.89 554.587 166.94 554.357C170.99 554.117 174.47 557.227 174.7 561.277C179.43 644.397 211.23 721.157 266.65 783.267C269.35 786.297 269.09 790.947 266.06 793.647C264.66 794.897 262.91 795.517 261.17 795.517Z" fill="black"/>
<path d="M788.169 268.511C786.429 268.511 784.679 267.891 783.279 266.641C721.169 211.221 644.399 179.421 561.289 174.691C557.239 174.461 554.139 170.991 554.369 166.931C554.599 162.881 558.039 159.791 562.129 160.011C648.599 164.941 728.459 198.011 793.069 255.671C796.099 258.371 796.359 263.021 793.659 266.051C792.209 267.681 790.189 268.511 788.169 268.511Z" fill="black"/>
<path d="M291.85 268.512C289.83 268.512 287.81 267.682 286.36 266.052C283.66 263.022 283.92 258.372 286.95 255.672C351.57 198.012 431.43 164.942 517.89 160.012C521.94 159.782 525.42 162.882 525.65 166.932C525.88 170.982 522.78 174.462 518.73 174.692C435.62 179.422 358.85 211.222 296.74 266.642C295.34 267.892 293.59 268.512 291.85 268.512Z" fill="black"/>
<path d="M561.69 920.006C557.82 920.006 554.58 916.986 554.36 913.076C554.13 909.026 557.23 905.546 561.28 905.316C644.4 900.586 721.16 868.786 783.27 813.366C786.3 810.666 790.95 810.926 793.65 813.956C796.35 816.986 796.09 821.636 793.06 824.336C728.44 881.996 648.58 915.066 562.12 919.996C561.98 919.996 561.84 920.006 561.7 920.006H561.69Z" fill="black"/>
<path d="M518.319 920.006C518.179 920.006 518.04 920.006 517.9 919.996C431.43 915.066 351.569 881.996 286.959 824.336C283.929 821.636 283.669 816.986 286.369 813.956C289.069 810.926 293.719 810.666 296.749 813.366C358.859 868.786 435.629 900.586 518.739 905.316C522.789 905.546 525.889 909.016 525.659 913.076C525.439 916.986 522.199 920.006 518.329 920.006H518.319Z" fill="black"/>
<path d="M875.38 526.189C872.37 526.189 869.85 523.839 869.68 520.799C865.41 445.789 836.71 376.519 786.7 320.459C784.6 318.099 784.8 314.489 787.16 312.389C789.51 310.289 793.13 310.489 795.23 312.849C846.98 370.849 876.68 442.539 881.1 520.149C881.28 523.299 878.87 525.999 875.72 526.179C875.61 526.179 875.5 526.179 875.39 526.179L875.38 526.189Z" fill="black"/>
<path d="M790.96 769.062C789.6 769.062 788.25 768.582 787.16 767.612C784.8 765.512 784.6 761.892 786.7 759.542C836.71 703.492 865.41 634.212 869.68 559.202C869.86 556.052 872.55 553.642 875.71 553.822C878.86 554.002 881.27 556.702 881.09 559.852C876.67 637.472 846.98 709.152 795.22 767.152C794.09 768.422 792.52 769.062 790.95 769.062H790.96Z" fill="black"/>
<path d="M204.63 526.187C204.52 526.187 204.41 526.187 204.3 526.187C201.15 526.007 198.74 523.307 198.92 520.157C203.34 442.537 233.03 370.857 284.79 312.857C286.89 310.497 290.51 310.297 292.86 312.397C295.22 314.497 295.42 318.117 293.32 320.467C243.31 376.517 214.61 445.797 210.34 520.807C210.17 523.847 207.65 526.197 204.64 526.197L204.63 526.187Z" fill="black"/>
<path d="M289.05 769.055C287.48 769.055 285.91 768.405 284.78 767.145C233.03 709.145 203.33 637.455 198.91 559.845C198.73 556.695 201.14 553.995 204.29 553.815C207.45 553.625 210.14 556.045 210.32 559.195C214.59 634.205 243.29 703.485 293.3 759.535C295.4 761.895 295.2 765.505 292.84 767.605C291.75 768.575 290.39 769.055 289.04 769.055H289.05Z" fill="black"/>
<path d="M763.35 294.756C761.99 294.756 760.64 294.276 759.55 293.306C703.5 243.296 634.22 214.596 559.21 210.326C556.06 210.146 553.65 207.446 553.83 204.296C554.01 201.146 556.7 198.736 559.86 198.916C637.48 203.336 709.16 233.026 767.16 284.786C769.52 286.886 769.72 290.506 767.62 292.856C766.49 294.126 764.92 294.766 763.35 294.766V294.756Z" fill="black"/>
<path d="M316.66 294.759C315.09 294.759 313.52 294.109 312.39 292.849C310.29 290.489 310.49 286.879 312.85 284.779C370.85 233.029 442.54 203.329 520.15 198.909C523.3 198.719 526 201.139 526.18 204.289C526.36 207.439 523.95 210.139 520.8 210.319C445.79 214.589 376.52 243.289 320.46 293.299C319.37 294.269 318.01 294.749 316.66 294.749V294.759Z" fill="black"/>
<path d="M559.53 881.102C556.52 881.102 554 878.752 553.83 875.712C553.65 872.562 556.06 869.862 559.21 869.682C634.22 865.412 703.49 836.712 759.55 786.702C761.9 784.602 765.52 784.802 767.62 787.162C769.72 789.522 769.52 793.132 767.16 795.232C709.16 846.982 637.47 876.682 559.86 881.102C559.75 881.102 559.64 881.102 559.53 881.102Z" fill="black"/>
<path d="M520.49 881.102C520.38 881.102 520.27 881.102 520.16 881.102C442.54 876.682 370.86 846.992 312.86 795.232C310.5 793.132 310.3 789.512 312.4 787.162C314.5 784.802 318.12 784.602 320.47 786.702C376.52 836.722 445.8 865.412 520.81 869.682C523.96 869.862 526.37 872.562 526.19 875.712C526.02 878.752 523.5 881.102 520.49 881.102Z" fill="black"/>
<path d="M841.85 526.514C839.7 526.514 837.9 524.834 837.78 522.664C833.92 454.914 808 392.344 762.83 341.714C761.33 340.034 761.48 337.454 763.16 335.944C764.84 334.444 767.42 334.584 768.93 336.274C815.35 388.294 841.98 452.584 845.94 522.194C846.07 524.444 844.35 526.374 842.09 526.504C842.01 526.504 841.93 526.504 841.85 526.504V526.514Z" fill="black"/>
<path d="M765.87 745.106C764.9 745.106 763.93 744.766 763.15 744.066C761.47 742.566 761.32 739.986 762.82 738.296C807.99 687.666 833.91 625.096 837.77 557.346C837.9 555.096 839.86 553.396 842.08 553.496C844.33 553.626 846.05 555.556 845.93 557.806C841.96 627.416 815.33 691.706 768.92 743.726C768.11 744.626 766.99 745.086 765.87 745.086V745.106Z" fill="black"/>
<path d="M238.17 526.516C238.09 526.516 238.01 526.516 237.93 526.516C235.68 526.386 233.96 524.456 234.08 522.206C238.05 452.596 264.68 388.306 311.09 336.286C312.59 334.606 315.17 334.456 316.86 335.956C318.54 337.456 318.69 340.036 317.19 341.726C272.02 392.356 246.1 454.926 242.24 522.676C242.12 524.846 240.32 526.526 238.17 526.526V526.516Z" fill="black"/>
<path d="M314.14 745.103C313.02 745.103 311.9 744.643 311.09 743.743C264.67 691.723 238.04 627.433 234.08 557.823C233.95 555.573 235.67 553.643 237.93 553.513C240.17 553.403 242.11 555.103 242.24 557.363C246.1 625.113 272.02 687.683 317.19 738.313C318.69 739.993 318.54 742.573 316.86 744.083C316.08 744.773 315.11 745.123 314.14 745.123V745.103Z" fill="black"/>
<path d="M741.02 318.225C740.05 318.225 739.08 317.885 738.3 317.185C687.67 272.015 625.1 246.095 557.35 242.235C555.1 242.105 553.38 240.175 553.5 237.925C553.63 235.675 555.55 233.965 557.81 234.075C627.42 238.045 691.71 264.675 743.74 311.085C745.42 312.585 745.57 315.165 744.07 316.855C743.26 317.755 742.14 318.215 741.02 318.215V318.225Z" fill="black"/>
<path d="M339 318.224C337.88 318.224 336.76 317.764 335.95 316.864C334.45 315.184 334.6 312.604 336.28 311.094C388.3 264.674 452.59 238.044 522.2 234.084C524.45 233.964 526.38 235.674 526.51 237.934C526.64 240.184 524.92 242.114 522.66 242.244C454.91 246.104 392.34 272.024 341.71 317.194C340.93 317.884 339.96 318.234 338.99 318.234L339 318.224Z" fill="black"/>
<path d="M557.57 845.933C555.42 845.933 553.62 844.253 553.5 842.083C553.37 839.833 555.09 837.903 557.35 837.773C625.1 833.913 687.67 807.993 738.3 762.823C739.98 761.323 742.56 761.473 744.07 763.153C745.57 764.833 745.42 767.413 743.74 768.923C691.72 815.343 627.43 841.973 557.81 845.933C557.73 845.933 557.65 845.933 557.57 845.933Z" fill="black"/>
<path d="M522.44 845.933C522.36 845.933 522.28 845.933 522.2 845.933C452.59 841.963 388.3 815.333 336.28 768.923C334.6 767.423 334.45 764.843 335.95 763.153C337.45 761.473 340.03 761.323 341.72 762.823C392.35 807.993 454.92 833.913 522.67 837.773C524.92 837.903 526.64 839.833 526.52 842.083C526.4 844.253 524.6 845.933 522.45 845.933H522.44Z" fill="black"/>
<path d="M320.65 546.174C320.65 544.604 321.79 543.274 323.34 543.024C324.64 542.814 326.27 542.524 327.98 542.124C332.4 541.084 337.59 539.114 343.41 536.274C349.29 533.404 354.92 529.414 359.17 523.674C366.34 513.974 367.86 501.404 368.19 496.894C368.26 495.974 367.53 495.194 366.6 495.194H317.09C315.33 495.194 313.91 493.764 313.91 492.014V470.694C313.91 468.934 315.34 467.514 317.09 467.514H367.07C367.95 467.514 368.66 466.804 368.66 465.924V447.184C368.66 446.304 367.95 445.594 367.07 445.594H328.62C326.86 445.594 325.44 444.164 325.44 442.414V421.094C325.44 419.334 326.87 417.914 328.62 417.914H428.96C430.72 417.914 432.14 419.344 432.14 421.094V442.414C432.14 444.174 430.71 445.594 428.96 445.594H398.52C397.64 445.594 396.93 446.304 396.93 447.184V465.924C396.93 466.804 397.64 467.514 398.52 467.514H438.58C440.34 467.514 441.76 468.944 441.76 470.694V492.014C441.76 493.774 440.33 495.194 438.58 495.194H398.39C397.54 495.194 396.84 495.864 396.8 496.714C396.57 501.754 395.15 518.444 386.18 532.854C380.73 541.614 373.65 548.264 366.54 553.544C359.41 558.844 352.26 562.934 345.27 565.704C338.24 568.494 332.34 570.444 327.75 571.514C326.66 571.764 325.49 571.994 324.4 572.184C322.45 572.534 320.66 571.034 320.66 569.044V546.164L320.65 546.174Z" fill="black"/>
<path d="M474.55 546.522C474.55 545.062 475.55 543.792 476.96 543.432C485.21 541.362 488.93 540.112 496.84 536.322C496.84 536.322 500.89 534.212 504.93 531.302C517.11 522.542 525.22 510.632 525.22 510.632C534.68 497.282 537.77 474.912 538.49 468.492C538.6 467.552 537.86 466.722 536.91 466.722H500.58C500.35 466.722 500.14 466.842 500.03 467.042L499.88 467.292C494.3 478.112 486.88 487.992 480.45 494.242C474 500.502 468.59 505.052 464.38 507.752L461.78 509.422C460.72 510.102 459.33 509.342 459.33 508.082V479.892C459.33 478.952 459.75 478.062 460.47 477.452C461.12 476.902 461.99 476.132 463.18 475.062C465.94 472.572 469.05 468.512 472.42 462.982C475.76 457.512 479.35 450.212 483.07 441.292C486.45 433.202 488.98 423.092 490.86 412.062C491.12 410.532 492.45 409.422 494 409.422H513.91C515.91 409.422 517.42 411.252 517.04 413.212C516.4 416.522 515.71 420.882 514.85 424.312C513.58 429.392 512.76 432.302 511.24 436.722C510.98 437.472 511.54 438.242 512.33 438.242H591.18C592.94 438.242 594.36 439.672 594.36 441.422V463.512C594.36 465.272 592.93 466.692 591.18 466.692H568.14C567.33 466.692 566.64 467.302 566.56 468.112C565.93 474.012 562.88 497.162 552.39 517.262C538.29 546.002 508.14 566.392 478.34 572.132C476.38 572.512 474.56 571.002 474.56 569.002V546.482L474.55 546.522Z" fill="black"/>
<path d="M675.9 411.035V468.875C675.9 469.755 676.61 470.465 677.49 470.465H764.52C765.4 470.465 766.11 469.755 766.11 468.875V411.035C766.11 410.155 765.4 409.445 764.52 409.445H677.49C676.61 409.445 675.9 410.155 675.9 411.035ZM738.46 452.745H702.3C701.42 452.745 700.71 452.035 700.71 451.155V446.875C700.71 445.995 701.42 445.285 702.3 445.285H738.46C739.34 445.285 740.05 445.995 740.05 446.875V451.155C740.05 452.035 739.34 452.745 738.46 452.745ZM738.46 434.455H702.3C701.42 434.455 700.71 433.745 700.71 432.865V428.755C700.71 427.875 701.42 427.165 702.3 427.165H738.46C739.34 427.165 740.05 427.875 740.05 428.755V432.865C740.05 433.745 739.34 434.455 738.46 434.455Z" fill="black"/>
<path d="M674.23 497.342H728.27C729.15 497.342 729.86 498.052 729.86 498.932V502.842C729.86 503.722 729.15 504.432 728.27 504.432H667.76C666 504.432 664.58 505.862 664.58 507.612V522.862C664.58 524.622 666.01 526.042 667.76 526.042H728.27C729.15 526.042 729.86 526.752 729.86 527.632V545.392C729.86 546.112 729.94 547.982 729.22 548.852C728.39 549.872 727.15 549.672 725.85 549.722C722.54 549.722 719.58 549.702 716.95 549.662C716.55 549.662 716.26 549.292 716.34 548.902C716.6 547.632 716.73 546.312 716.7 544.962C716.5 535.682 708.94 528.082 699.66 527.842C689.58 527.582 681.37 535.852 681.71 545.942C682.02 555.292 689.79 562.812 699.15 562.842C704.04 562.852 708.46 560.862 711.64 557.642C711.98 557.302 712.55 557.432 712.7 557.882C714.16 562.212 715.54 566.342 716.79 570.052C717.23 571.352 718.46 572.222 719.83 572.212C725.73 572.172 730.51 571.962 734.18 571.602C738.31 571.182 742.09 570.152 745.52 568.502C749.18 566.842 751.69 564.422 753.05 561.232C754.41 558.042 755.09 553.552 755.09 547.762V527.622C755.09 526.742 755.8 526.032 756.68 526.032H762.91C764.67 526.032 766.09 524.602 766.09 522.852V507.602C766.09 505.842 764.66 504.422 762.91 504.422H756.68C755.8 504.422 755.09 503.712 755.09 502.832V498.922C755.09 498.042 755.8 497.332 756.68 497.332H762.91C764.67 497.332 766.09 495.902 766.09 494.152V479.602C766.09 477.842 764.66 476.422 762.91 476.422H674.21C672.45 476.422 671.03 477.852 671.03 479.602V494.152C671.03 495.912 672.46 497.332 674.21 497.332L674.23 497.342Z" fill="black"/>
<path d="M668.83 409.445H650.26C649.4 409.445 648.58 409.795 647.98 410.405C635.23 423.355 618.29 434.575 612.13 438.485C610.78 439.335 610.28 441.065 610.95 442.505L620.7 463.575C621.63 465.575 624.26 466.055 625.83 464.505C646.12 444.465 664.45 419.805 670.12 411.965C670.88 410.915 670.12 409.445 668.83 409.445Z" fill="black"/>
<path d="M671.92 453.899V435.419C671.92 434.009 670.22 433.299 669.21 434.289C653.64 449.609 620.05 477.069 611.68 483.869C610.55 484.789 610.19 486.359 610.8 487.679L620.7 509.059C621.63 511.059 624.26 511.539 625.83 509.989C627.54 508.299 629.24 506.569 630.92 504.829C631.32 504.419 632.02 504.699 632.02 505.269V569.069C632.02 570.829 633.45 572.249 635.2 572.249H653.82C655.58 572.249 657 570.819 657 569.069V476.379C657 475.309 657.36 474.259 658.03 473.419C664.87 464.739 669.72 458.029 671.34 455.749C671.72 455.209 671.93 454.569 671.93 453.899H671.92Z" fill="black"/>
<path d="M653.271 623.338C640.851 623.338 634.811 628.288 634.811 638.478V655.608C634.811 665.678 640.851 670.568 653.271 670.568C659.141 670.568 663.481 669.488 666.561 667.278C670.001 664.808 671.741 660.878 671.741 655.598V638.468C671.741 628.278 665.701 623.328 653.281 623.328L653.271 623.338ZM646.091 639.308C646.091 633.938 648.841 632.918 653.271 632.918C657.701 632.918 660.451 633.958 660.451 639.308V654.688C660.451 659.958 657.601 660.988 653.271 660.988C648.941 660.988 646.091 659.988 646.091 654.688V639.308Z" fill="black"/>
<path d="M708.271 669.334H721.36L703.63 646.784L720.56 624.804H707.401L694.06 642.284V610.234H682.771V669.334H694.06V659.214L696.951 655.454L708.271 669.334Z" fill="black"/>
<path d="M754.82 624.805V653.295C754.82 659.045 751.88 660.895 746.83 660.895C743.56 660.895 740.28 660.355 740.28 653.885V624.815H729V656.775C729 665.745 733.71 670.485 742.62 670.485C749.3 670.485 753.88 666.865 755.58 662.805L757.39 669.345H766.11V624.815H754.83L754.82 624.805Z" fill="black"/>
<path d="M630.57 610.234H589.15V620.144V620.154H604.22V669.334H615.69V620.154H630.57V610.234Z" fill="black"/>
<path d="M459.69 669.334H472.78L455.05 646.784L471.98 624.804H458.82L445.48 642.284V610.234H434.2V669.334H445.48V659.214L448.37 655.454L459.69 669.334Z" fill="black"/>
<path d="M355.33 610.234H313.91V620.144V620.154H328.99V669.334H340.45V620.154H355.33V610.234Z" fill="black"/>
<path d="M421.8 658.896L421.2 659.046C417.62 659.966 413.29 660.896 409.41 660.896C404.86 660.896 401.69 658.826 401.69 652.836V640.976C401.69 634.906 404.86 632.826 409.41 632.826C413.36 632.826 417.88 633.706 421.23 634.406L421.81 634.526V625.196L421.5 625.126C417.69 624.236 412.05 623.336 407.53 623.336C402.01 623.336 397.97 624.406 395.17 626.596C391.97 629.096 390.42 633.856 390.42 639.346V654.646C390.42 664.776 396.02 670.566 407.54 670.566C411.41 670.566 417.27 669.496 421.53 668.316L421.82 668.236V658.886L421.8 658.896Z" fill="black"/>
<path d="M553.93 634.705V624.805H543.69V615.195H532.41V624.805H525.18V634.705H532.41V655.425C532.41 667.945 540.3 670.565 546.93 670.565C548.71 670.565 550.51 670.455 552.12 670.225V660.265C551.47 660.335 550.26 660.365 549.54 660.365C546.46 660.365 543.69 659.735 543.69 652.095V634.695H553.93V634.705Z" fill="black"/>
<path d="M489.74 650.742V650.562H515.17V641.482C515.17 635.572 513.55 630.243 510.36 627.343C507.42 624.673 502.78 623.312 497.26 623.312C485.08 623.312 478.46 629.223 478.46 639.593V654.453C478.46 664.703 483.84 670.552 496.32 670.552C500.98 670.552 506.29 669.563 511.97 668.403L512.36 668.323V659.052L511.71 659.203C507.14 660.253 504.62 661.143 500.29 661.143C494.08 661.143 489.74 658.623 489.74 652.203V650.722V650.742ZM489.74 639.722C489.74 634.072 493.8 632.742 497.17 632.742C500.54 632.742 504.07 634.072 504.07 639.722V643.232H489.74V642.713V639.722Z" fill="black"/>
<path d="M378.18 626.883H366.9V669.333H378.18V626.883Z" fill="black"/>
<path d="M372.54 622.224C376.422 622.224 379.57 619.077 379.57 615.194C379.57 611.312 376.422 608.164 372.54 608.164C368.657 608.164 365.51 611.312 365.51 615.194C365.51 619.077 368.657 622.224 372.54 622.224Z" fill="black"/>
<path d="M585.74 643.922H566.15V651.262H585.74V643.922Z" fill="black"/>
<path d="M778.857 1617C778.01 1617 777.284 1616.4 777.284 1615.43V1521.66C777.284 1520.93 777.889 1520.2 778.857 1520.2H823.143C824.111 1520.2 824.716 1520.81 824.716 1521.66V1531.09C824.716 1531.94 824.111 1532.55 823.143 1532.55H789.989V1562.43H822.054C822.901 1562.43 823.506 1563.04 823.506 1563.88V1573.08C823.506 1574.05 822.901 1574.77 822.054 1574.77H789.989V1615.43C789.989 1616.4 789.263 1617 788.416 1617H778.857Z" fill="black"/>
<path d="M710.204 1617C709.357 1617 708.631 1616.4 708.631 1615.43V1521.66C708.631 1520.93 709.236 1520.2 710.204 1520.2H754.49C755.458 1520.2 756.063 1520.81 756.063 1521.66V1531.09C756.063 1531.94 755.458 1532.55 754.49 1532.55H721.336V1562.43H753.401C754.248 1562.43 754.853 1563.04 754.853 1563.88V1573.08C754.853 1574.05 754.248 1574.77 753.401 1574.77H721.336V1615.43C721.336 1616.4 720.61 1617 719.763 1617H710.204Z" fill="black"/>
<path d="M640.647 1530.97C620.198 1530.97 603.742 1547.66 603.742 1568.48C603.742 1589.05 620.077 1606.23 640.526 1606.23C660.975 1606.23 677.673 1589.05 677.673 1568.6C677.673 1547.79 661.096 1530.97 640.647 1530.97ZM590.916 1568.48C590.916 1540.65 612.817 1518.38 640.647 1518.38C668.477 1518.38 690.499 1540.77 690.499 1568.6C690.499 1596.43 668.356 1618.81 640.526 1618.81C612.696 1618.81 590.916 1596.31 590.916 1568.48Z" fill="black"/>
<path d="M473.546 1521.89H568.41V1536.29H488.066V1627.77H473.546V1521.89ZM561.513 1521.89H576.154V1610.83C576.154 1614.7 575.67 1617.72 574.702 1619.9C573.734 1622.16 572 1623.89 569.499 1625.1C566.998 1626.31 563.852 1627.04 560.061 1627.28C556.35 1627.6 551.793 1627.77 546.388 1627.77C546.146 1626.39 545.743 1624.82 545.178 1623.05C544.613 1621.27 543.968 1619.5 543.242 1617.72C542.516 1616.03 541.79 1614.54 541.064 1613.25C543.403 1613.41 545.743 1613.53 548.082 1613.61C550.502 1613.61 552.64 1613.61 554.495 1613.61C556.35 1613.61 557.641 1613.61 558.367 1613.61C559.496 1613.53 560.303 1613.29 560.787 1612.88C561.271 1612.4 561.513 1611.63 561.513 1610.58V1521.89ZM481.411 1566.9H568.652V1581.18H481.411V1566.9ZM516.743 1529.76H531.263V1574.04H516.743V1529.76Z" fill="black"/>
<path d="M445.075 1568.48C445.075 1550.33 439.388 1530.72 424.263 1530.72C409.138 1530.72 403.451 1550.33 403.451 1568.48C403.451 1587.84 409.138 1606.47 424.263 1606.47C439.388 1606.47 445.075 1587.84 445.075 1568.48ZM390.746 1568.48C390.746 1544.28 400.063 1518.38 424.263 1518.38C448.463 1518.38 457.78 1544.28 457.78 1568.48C457.78 1595.1 448.463 1618.81 424.263 1618.81C400.063 1618.81 390.746 1595.1 390.746 1568.48Z" fill="black"/>
<path d="M365.905 1568.48C365.905 1550.33 360.218 1530.72 345.093 1530.72C329.968 1530.72 324.281 1550.33 324.281 1568.48C324.281 1587.84 329.968 1606.47 345.093 1606.47C360.218 1606.47 365.905 1587.84 365.905 1568.48ZM311.576 1568.48C311.576 1544.28 320.893 1518.38 345.093 1518.38C369.293 1518.38 378.61 1544.28 378.61 1568.48C378.61 1595.1 369.293 1618.81 345.093 1618.81C320.893 1618.81 311.576 1595.1 311.576 1568.48Z" fill="black"/>
<path d="M285.946 1520.2C286.793 1520.2 287.398 1520.81 287.398 1521.66V1615.43C287.398 1616.28 286.793 1617 285.946 1617H276.266C275.419 1617 274.814 1616.28 274.814 1615.43V1532.55H259.689C258.358 1532.55 257.753 1531.21 258.358 1530.37L264.408 1520.81C264.65 1520.45 265.134 1520.2 265.618 1520.2H285.946Z" fill="black"/>
<path d="M636.328 1411.5C636.168 1412.37 635.912 1413.49 635.56 1414.86C635.208 1416.24 634.696 1417.79 634.024 1419.52C633.512 1420.7 632.92 1421.94 632.248 1423.22C631.608 1424.46 630.952 1425.58 630.28 1426.58C630.696 1426.38 631.224 1426.22 631.864 1426.1C632.504 1425.94 633.16 1425.82 633.832 1425.76C634.536 1425.66 635.16 1425.62 635.704 1425.62C637.72 1425.62 639.384 1426.19 640.696 1427.34C642.04 1428.5 642.712 1430.21 642.712 1432.48C642.712 1433.12 642.712 1433.9 642.712 1434.83C642.744 1435.76 642.776 1436.74 642.808 1437.76C642.84 1438.75 642.872 1439.73 642.904 1440.69C642.936 1441.65 642.952 1442.51 642.952 1443.28H637.192C637.256 1442.74 637.288 1442.1 637.288 1441.36C637.32 1440.59 637.336 1439.79 637.336 1438.96C637.368 1438.13 637.384 1437.33 637.384 1436.56C637.416 1435.76 637.432 1435.04 637.432 1434.4C637.432 1432.86 637.016 1431.81 636.184 1431.23C635.384 1430.62 634.488 1430.32 633.496 1430.32C632.152 1430.32 630.792 1430.66 629.416 1431.33C628.072 1431.97 626.936 1432.74 626.008 1433.63C625.304 1434.34 624.584 1435.12 623.848 1435.98C623.144 1436.85 622.376 1437.82 621.544 1438.91L616.408 1435.07C618.488 1433.15 620.28 1431.3 621.784 1429.5C623.32 1427.71 624.616 1425.94 625.672 1424.18C626.728 1422.42 627.592 1420.66 628.264 1418.9C628.744 1417.62 629.128 1416.29 629.416 1414.91C629.736 1413.5 629.928 1412.19 629.992 1410.98L636.328 1411.5ZM618.28 1415.92C619.496 1416.11 620.904 1416.26 622.504 1416.35C624.104 1416.45 625.512 1416.5 626.728 1416.5C628.84 1416.5 631.144 1416.45 633.64 1416.35C636.168 1416.26 638.728 1416.1 641.32 1415.87C643.912 1415.62 646.376 1415.3 648.712 1414.91L648.664 1420.48C646.968 1420.7 645.128 1420.91 643.144 1421.1C641.192 1421.26 639.192 1421.41 637.144 1421.54C635.128 1421.63 633.192 1421.71 631.336 1421.78C629.48 1421.81 627.832 1421.82 626.392 1421.82C625.752 1421.82 624.952 1421.82 623.992 1421.82C623.064 1421.79 622.104 1421.76 621.112 1421.73C620.12 1421.66 619.176 1421.6 618.28 1421.54V1415.92ZM656.296 1429.55C655.784 1429.71 655.176 1429.92 654.472 1430.18C653.8 1430.4 653.112 1430.64 652.408 1430.9C651.736 1431.12 651.128 1431.34 650.584 1431.57C649.048 1432.18 647.224 1432.91 645.112 1433.78C643.032 1434.64 640.856 1435.65 638.584 1436.8C637.144 1437.57 635.928 1438.32 634.936 1439.06C633.944 1439.79 633.192 1440.54 632.68 1441.31C632.168 1442.05 631.912 1442.86 631.912 1443.76C631.912 1444.43 632.056 1444.99 632.344 1445.44C632.632 1445.86 633.064 1446.19 633.64 1446.45C634.216 1446.7 634.936 1446.88 635.8 1446.98C636.664 1447.07 637.688 1447.12 638.872 1447.12C640.92 1447.12 643.176 1447.01 645.64 1446.78C648.104 1446.53 650.392 1446.19 652.504 1445.78L652.312 1451.97C651.288 1452.1 649.992 1452.22 648.424 1452.35C646.856 1452.51 645.224 1452.62 643.528 1452.69C641.864 1452.75 640.264 1452.78 638.728 1452.78C636.232 1452.78 633.992 1452.54 632.008 1452.06C630.024 1451.58 628.456 1450.77 627.304 1449.62C626.184 1448.43 625.624 1446.82 625.624 1444.77C625.624 1443.1 625.992 1441.6 626.728 1440.26C627.496 1438.91 628.504 1437.7 629.752 1436.61C631 1435.52 632.36 1434.54 633.832 1433.68C635.336 1432.78 636.808 1431.97 638.248 1431.23C639.72 1430.46 641.048 1429.81 642.232 1429.26C643.416 1428.72 644.52 1428.24 645.544 1427.82C646.6 1427.38 647.608 1426.93 648.568 1426.48C649.496 1426.06 650.392 1425.66 651.256 1425.28C652.12 1424.86 653 1424.43 653.896 1423.98L656.296 1429.55Z" fill="black"/>
<path d="M608.152 1420.15C607.896 1420.59 607.624 1421.14 607.336 1421.78C607.048 1422.39 606.792 1422.99 606.568 1423.6C606.152 1425.01 605.56 1426.63 604.792 1428.45C604.056 1430.24 603.128 1432.11 602.008 1434.07C600.92 1435.99 599.656 1437.84 598.216 1439.63C595.912 1442.39 593.224 1444.88 590.152 1447.12C587.112 1449.36 583.336 1451.38 578.824 1453.17L573.16 1448.08C576.424 1447.12 579.24 1446.02 581.608 1444.77C583.976 1443.52 586.04 1442.19 587.8 1440.79C589.56 1439.35 591.128 1437.83 592.504 1436.23C593.624 1434.98 594.648 1433.57 595.576 1432C596.504 1430.4 597.305 1428.82 597.977 1427.25C598.649 1425.68 599.096 1424.31 599.32 1423.12H583.145L585.352 1417.7C585.8 1417.7 586.489 1417.7 587.417 1417.7C588.377 1417.7 589.448 1417.7 590.632 1417.7C591.848 1417.7 593.032 1417.7 594.184 1417.7C595.368 1417.7 596.392 1417.7 597.257 1417.7C598.153 1417.7 598.761 1417.7 599.081 1417.7C599.817 1417.7 600.552 1417.65 601.288 1417.55C602.056 1417.46 602.712 1417.31 603.257 1417.12L608.152 1420.15ZM592.504 1412.56C591.928 1413.39 591.368 1414.29 590.824 1415.25C590.28 1416.21 589.864 1416.95 589.576 1417.46C588.488 1419.38 587.144 1421.38 585.544 1423.46C583.976 1425.51 582.184 1427.51 580.168 1429.46C578.152 1431.38 576.008 1433.14 573.736 1434.74L568.312 1430.75C570.424 1429.44 572.28 1428.1 573.88 1426.72C575.512 1425.35 576.92 1423.99 578.104 1422.64C579.288 1421.27 580.296 1419.95 581.128 1418.71C581.992 1417.43 582.728 1416.29 583.336 1415.3C583.72 1414.69 584.12 1413.91 584.536 1412.95C584.952 1411.95 585.272 1411.06 585.496 1410.26L592.504 1412.56Z" fill="black"/>
<path d="M528.568 1413.52C529.4 1414.1 530.376 1414.8 531.496 1415.64C532.616 1416.47 533.768 1417.38 534.952 1418.37C536.168 1419.33 537.304 1420.28 538.36 1421.2C539.416 1422.13 540.28 1422.96 540.952 1423.7L536.056 1428.69C535.448 1428.02 534.648 1427.22 533.656 1426.29C532.664 1425.36 531.592 1424.4 530.44 1423.41C529.288 1422.42 528.152 1421.48 527.032 1420.58C525.912 1419.68 524.92 1418.93 524.056 1418.32L528.568 1413.52ZM522.568 1445.49C525.064 1445.14 527.416 1444.64 529.624 1444C531.832 1443.36 533.88 1442.63 535.768 1441.8C537.656 1440.96 539.384 1440.1 540.952 1439.2C543.672 1437.57 546.168 1435.72 548.44 1433.64C550.712 1431.56 552.696 1429.4 554.392 1427.16C556.088 1424.88 557.432 1422.68 558.424 1420.53L562.168 1427.3C560.952 1429.44 559.448 1431.59 557.656 1433.73C555.896 1435.88 553.896 1437.92 551.656 1439.88C549.416 1441.8 547 1443.52 544.408 1445.06C542.776 1446.05 541.016 1447 539.128 1447.89C537.24 1448.76 535.24 1449.52 533.128 1450.2C531.048 1450.9 528.872 1451.44 526.6 1451.83L522.568 1445.49Z" fill="black"/>
<path d="M507.544 1412.75C507.512 1413.42 507.464 1414.16 507.4 1414.96C507.368 1415.73 507.352 1416.59 507.352 1417.55C507.352 1418.38 507.352 1419.39 507.352 1420.57C507.352 1421.76 507.352 1422.94 507.352 1424.13C507.352 1425.28 507.352 1426.25 507.352 1427.05C507.352 1429.61 507.224 1431.85 506.968 1433.77C506.744 1435.69 506.392 1437.37 505.912 1438.81C505.432 1440.25 504.84 1441.53 504.136 1442.65C503.464 1443.74 502.68 1444.78 501.784 1445.77C500.728 1446.93 499.512 1447.97 498.136 1448.89C496.76 1449.79 495.368 1450.54 493.96 1451.15C492.584 1451.79 491.304 1452.3 490.12 1452.69L485.08 1447.41C487.48 1446.86 489.64 1446.11 491.56 1445.15C493.512 1444.16 495.208 1442.89 496.648 1441.36C497.48 1440.43 498.152 1439.5 498.664 1438.57C499.176 1437.65 499.56 1436.62 499.816 1435.5C500.104 1434.35 500.296 1433.05 500.392 1431.61C500.52 1430.17 500.584 1428.53 500.584 1426.67C500.584 1425.84 500.584 1424.85 500.584 1423.69C500.584 1422.54 500.584 1421.41 500.584 1420.29C500.584 1419.17 500.584 1418.25 500.584 1417.55C500.584 1416.59 500.552 1415.73 500.488 1414.96C500.456 1414.16 500.392 1413.42 500.296 1412.75H507.544ZM485.272 1413.13C485.24 1413.71 485.208 1414.29 485.176 1414.86C485.144 1415.41 485.128 1416.06 485.128 1416.83C485.128 1417.18 485.128 1417.76 485.128 1418.56C485.128 1419.36 485.128 1420.3 485.128 1421.39C485.128 1422.45 485.128 1423.57 485.128 1424.75C485.128 1425.9 485.128 1427.02 485.128 1428.11C485.128 1429.2 485.128 1430.19 485.128 1431.09C485.128 1431.95 485.128 1432.61 485.128 1433.05C485.128 1433.66 485.144 1434.37 485.176 1435.17C485.208 1435.97 485.24 1436.65 485.272 1437.23H478.312C478.344 1436.78 478.392 1436.14 478.456 1435.31C478.52 1434.48 478.552 1433.71 478.552 1433.01C478.552 1432.56 478.552 1431.9 478.552 1431.04C478.552 1430.17 478.552 1429.2 478.552 1428.11C478.552 1426.99 478.552 1425.85 478.552 1424.7C478.552 1423.52 478.552 1422.4 478.552 1421.34C478.552 1420.29 478.552 1419.36 478.552 1418.56C478.552 1417.76 478.552 1417.18 478.552 1416.83C478.552 1416.38 478.536 1415.81 478.504 1415.1C478.472 1414.37 478.424 1413.71 478.36 1413.13H485.272Z" fill="black"/>
<path d="M453.736 1414.29C454.184 1414.93 454.68 1415.68 455.224 1416.54C455.768 1417.41 456.28 1418.27 456.76 1419.14C457.272 1420 457.72 1420.8 458.104 1421.54L453.928 1423.41C453.48 1422.38 453.032 1421.47 452.584 1420.67C452.168 1419.87 451.736 1419.1 451.288 1418.37C450.84 1417.6 450.312 1416.8 449.704 1415.97L453.736 1414.29ZM460.024 1411.65C460.504 1412.29 461.016 1413.02 461.56 1413.86C462.136 1414.69 462.68 1415.54 463.192 1416.4C463.736 1417.23 464.184 1418.02 464.536 1418.75L460.504 1420.72C459.992 1419.7 459.496 1418.8 459.016 1418.03C458.568 1417.23 458.104 1416.48 457.624 1415.78C457.176 1415.04 456.648 1414.29 456.04 1413.52L460.024 1411.65ZM434.584 1446.11C434.584 1445.47 434.584 1444.46 434.584 1443.09C434.584 1441.68 434.584 1440.06 434.584 1438.24C434.584 1436.38 434.584 1434.46 434.584 1432.48C434.584 1430.46 434.584 1428.53 434.584 1426.67C434.584 1424.78 434.584 1423.12 434.584 1421.68C434.584 1420.24 434.584 1419.18 434.584 1418.51C434.584 1417.65 434.536 1416.67 434.44 1415.58C434.376 1414.5 434.264 1413.54 434.104 1412.7H441.592C441.496 1413.54 441.4 1414.46 441.304 1415.49C441.208 1416.51 441.16 1417.52 441.16 1418.51C441.16 1419.38 441.16 1420.58 441.16 1422.11C441.16 1423.65 441.16 1425.36 441.16 1427.25C441.16 1429.1 441.16 1431.01 441.16 1432.96C441.16 1434.91 441.16 1436.78 441.16 1438.58C441.16 1440.34 441.16 1441.89 441.16 1443.23C441.16 1444.54 441.16 1445.5 441.16 1446.11C441.16 1446.53 441.176 1447.15 441.208 1447.98C441.272 1448.78 441.336 1449.62 441.4 1450.48C441.496 1451.34 441.576 1452.11 441.64 1452.78H434.104C434.264 1451.86 434.376 1450.75 434.44 1449.47C434.536 1448.16 434.584 1447.04 434.584 1446.11ZM439.768 1425.14C441.368 1425.55 443.144 1426.1 445.096 1426.77C447.08 1427.41 449.08 1428.11 451.096 1428.88C453.112 1429.62 455.016 1430.35 456.808 1431.09C458.6 1431.79 460.072 1432.43 461.224 1433.01L458.536 1439.68C457.16 1438.94 455.656 1438.22 454.024 1437.52C452.392 1436.82 450.728 1436.13 449.032 1435.46C447.368 1434.75 445.736 1434.11 444.136 1433.54C442.536 1432.96 441.08 1432.46 439.768 1432.05V1425.14Z" fill="black"/>
<path d="M785.368 1343.12C785.048 1345.55 784.632 1348.14 784.12 1350.89C783.608 1353.65 782.92 1356.43 782.056 1359.25C781.128 1362.48 780.04 1365.26 778.792 1367.6C777.544 1369.93 776.168 1371.74 774.664 1373.02C773.192 1374.27 771.576 1374.89 769.816 1374.89C768.056 1374.89 766.424 1374.3 764.92 1373.12C763.448 1371.9 762.264 1370.24 761.368 1368.13C760.504 1366.01 760.072 1363.61 760.072 1360.93C760.072 1358.14 760.632 1355.52 761.752 1353.05C762.872 1350.59 764.424 1348.41 766.408 1346.53C768.424 1344.61 770.76 1343.1 773.416 1342.01C776.104 1340.93 779 1340.38 782.104 1340.38C785.08 1340.38 787.752 1340.86 790.12 1341.82C792.52 1342.78 794.568 1344.11 796.264 1345.81C797.96 1347.5 799.256 1349.49 800.152 1351.76C801.048 1354.03 801.496 1356.48 801.496 1359.1C801.496 1362.46 800.808 1365.47 799.432 1368.13C798.056 1370.78 796.008 1372.97 793.288 1374.7C790.6 1376.43 787.24 1377.61 783.208 1378.25L779.608 1372.54C780.536 1372.45 781.352 1372.33 782.056 1372.21C782.76 1372.08 783.432 1371.93 784.072 1371.77C785.608 1371.39 787.032 1370.85 788.344 1370.14C789.688 1369.41 790.856 1368.51 791.848 1367.45C792.84 1366.37 793.608 1365.1 794.152 1363.66C794.728 1362.22 795.016 1360.64 795.016 1358.91C795.016 1357.02 794.728 1355.29 794.152 1353.73C793.576 1352.16 792.728 1350.8 791.608 1349.65C790.488 1348.46 789.128 1347.57 787.528 1346.96C785.928 1346.32 784.088 1346 782.008 1346C779.448 1346 777.192 1346.46 775.24 1347.39C773.288 1348.29 771.64 1349.45 770.296 1350.89C768.952 1352.33 767.928 1353.89 767.224 1355.55C766.552 1357.21 766.216 1358.8 766.216 1360.3C766.216 1361.9 766.408 1363.25 766.792 1364.33C767.176 1365.39 767.64 1366.19 768.184 1366.73C768.76 1367.25 769.368 1367.5 770.008 1367.5C770.68 1367.5 771.336 1367.17 771.976 1366.49C772.648 1365.79 773.304 1364.73 773.944 1363.33C774.584 1361.92 775.224 1360.14 775.864 1358C776.6 1355.69 777.224 1353.23 777.736 1350.61C778.248 1347.98 778.616 1345.42 778.84 1342.93L785.368 1343.12Z" fill="black"/>
<path d="M711.256 1342.93H754.792V1348.4H711.256V1342.93ZM727.288 1354.69H745.672V1360.11H727.288V1354.69ZM743.512 1354.69H749.464C749.464 1354.69 749.448 1354.85 749.416 1355.17C749.416 1355.46 749.416 1355.79 749.416 1356.18C749.416 1356.56 749.384 1356.9 749.32 1357.18C749.032 1361.57 748.712 1365.15 748.36 1367.94C748.008 1370.72 747.608 1372.9 747.16 1374.46C746.712 1376 746.168 1377.12 745.528 1377.82C744.792 1378.62 744.024 1379.17 743.224 1379.46C742.424 1379.74 741.464 1379.95 740.344 1380.08C739.416 1380.18 738.2 1380.21 736.696 1380.18C735.192 1380.18 733.64 1380.14 732.04 1380.08C732.008 1379.25 731.8 1378.29 731.416 1377.2C731.032 1376.14 730.552 1375.22 729.976 1374.42C731.64 1374.58 733.24 1374.67 734.776 1374.7C736.312 1374.74 737.416 1374.75 738.088 1374.75C738.632 1374.75 739.08 1374.72 739.432 1374.66C739.816 1374.56 740.152 1374.38 740.44 1374.13C740.952 1373.71 741.384 1372.8 741.736 1371.39C742.12 1369.98 742.456 1367.98 742.744 1365.39C743.032 1362.8 743.288 1359.52 743.512 1355.55V1354.69ZM725.128 1346.19H731.56C731.432 1348.75 731.224 1351.34 730.936 1353.97C730.68 1356.56 730.232 1359.14 729.592 1361.7C728.952 1364.22 728.024 1366.64 726.808 1368.94C725.592 1371.25 723.992 1373.39 722.008 1375.38C720.024 1377.36 717.512 1379.12 714.472 1380.66C714.056 1379.86 713.448 1378.99 712.648 1378.06C711.88 1377.14 711.128 1376.37 710.392 1375.76C713.176 1374.48 715.448 1372.99 717.208 1371.3C719 1369.57 720.408 1367.71 721.432 1365.73C722.456 1363.71 723.208 1361.62 723.688 1359.44C724.2 1357.26 724.536 1355.06 724.696 1352.82C724.888 1350.58 725.032 1348.37 725.128 1346.19ZM729.736 1335.01H735.736V1345.09H729.736V1335.01Z" fill="black"/>
<path d="M689.368 1343.12C689.048 1345.55 688.632 1348.14 688.12 1350.89C687.608 1353.65 686.92 1356.43 686.056 1359.25C685.128 1362.48 684.04 1365.26 682.792 1367.6C681.544 1369.93 680.168 1371.74 678.664 1373.02C677.192 1374.27 675.576 1374.89 673.816 1374.89C672.056 1374.89 670.424 1374.3 668.92 1373.12C667.448 1371.9 666.264 1370.24 665.368 1368.13C664.504 1366.01 664.072 1363.61 664.072 1360.93C664.072 1358.14 664.632 1355.52 665.752 1353.05C666.872 1350.59 668.424 1348.41 670.408 1346.53C672.424 1344.61 674.76 1343.1 677.416 1342.01C680.104 1340.93 683 1340.38 686.104 1340.38C689.08 1340.38 691.752 1340.86 694.12 1341.82C696.52 1342.78 698.568 1344.11 700.264 1345.81C701.96 1347.5 703.256 1349.49 704.152 1351.76C705.048 1354.03 705.496 1356.48 705.496 1359.1C705.496 1362.46 704.808 1365.47 703.432 1368.13C702.056 1370.78 700.008 1372.97 697.288 1374.7C694.6 1376.43 691.24 1377.61 687.208 1378.25L683.608 1372.54C684.536 1372.45 685.352 1372.33 686.056 1372.21C686.76 1372.08 687.432 1371.93 688.072 1371.77C689.608 1371.39 691.032 1370.85 692.344 1370.14C693.688 1369.41 694.856 1368.51 695.848 1367.45C696.84 1366.37 697.608 1365.1 698.152 1363.66C698.728 1362.22 699.016 1360.64 699.016 1358.91C699.016 1357.02 698.728 1355.29 698.152 1353.73C697.576 1352.16 696.728 1350.8 695.608 1349.65C694.488 1348.46 693.128 1347.57 691.528 1346.96C689.928 1346.32 688.088 1346 686.008 1346C683.448 1346 681.192 1346.46 679.24 1347.39C677.288 1348.29 675.64 1349.45 674.296 1350.89C672.952 1352.33 671.928 1353.89 671.224 1355.55C670.552 1357.21 670.216 1358.8 670.216 1360.3C670.216 1361.9 670.408 1363.25 670.792 1364.33C671.176 1365.39 671.64 1366.19 672.184 1366.73C672.76 1367.25 673.368 1367.5 674.008 1367.5C674.68 1367.5 675.336 1367.17 675.976 1366.49C676.648 1365.79 677.304 1364.73 677.944 1363.33C678.584 1361.92 679.224 1360.14 679.864 1358C680.6 1355.69 681.224 1353.23 681.736 1350.61C682.248 1347.98 682.616 1345.42 682.84 1342.93L689.368 1343.12Z" fill="black"/>
<path d="M623.128 1338.41H652.552V1343.93H623.128V1338.41ZM623.128 1349.5H652.648V1354.88H623.128V1349.5ZM623.032 1360.83H652.84V1366.25H623.032V1360.83ZM619.816 1338.41H625.48V1355.69C625.48 1357.58 625.4 1359.65 625.24 1361.89C625.08 1364.13 624.76 1366.38 624.28 1368.65C623.832 1370.89 623.144 1373.04 622.216 1375.09C621.32 1377.13 620.136 1378.96 618.664 1380.56C618.376 1380.17 617.944 1379.74 617.368 1379.26C616.792 1378.78 616.2 1378.32 615.592 1377.87C615.016 1377.42 614.52 1377.07 614.104 1376.81C615.416 1375.37 616.456 1373.79 617.224 1372.06C617.992 1370.3 618.552 1368.49 618.904 1366.64C619.288 1364.75 619.528 1362.88 619.624 1361.02C619.752 1359.13 619.816 1357.34 619.816 1355.65V1338.41ZM650.536 1338.41H656.296V1373.5C656.296 1375.04 656.104 1376.22 655.72 1377.05C655.336 1377.92 654.648 1378.57 653.656 1379.02C652.696 1379.47 651.464 1379.76 649.96 1379.89C648.456 1380.01 646.6 1380.06 644.392 1380.03C644.296 1379.26 644.056 1378.33 643.672 1377.25C643.288 1376.16 642.904 1375.25 642.52 1374.51C643.448 1374.54 644.376 1374.57 645.304 1374.61C646.232 1374.61 647.048 1374.61 647.752 1374.61C648.488 1374.61 649.016 1374.61 649.336 1374.61C649.784 1374.61 650.087 1374.53 650.247 1374.37C650.439 1374.21 650.536 1373.9 650.536 1373.45V1338.41ZM634.6 1340.62H640.408V1379.69H634.6V1340.62Z" fill="black"/>
<path d="M567.112 1349.5H590.104V1354.83H567.112V1349.5ZM592.456 1341.05H598.024V1368.03H592.456V1341.05ZM576.28 1339.95H581.896V1380.22H576.28V1339.95ZM603.832 1336.11H609.544V1373.26C609.544 1374.96 609.336 1376.24 608.92 1377.1C608.536 1378 607.848 1378.69 606.856 1379.17C605.864 1379.61 604.568 1379.9 602.968 1380.03C601.368 1380.19 599.464 1380.27 597.256 1380.27C597.192 1379.73 597.048 1379.09 596.824 1378.35C596.6 1377.65 596.344 1376.93 596.056 1376.19C595.8 1375.49 595.528 1374.86 595.24 1374.32C596.808 1374.38 598.296 1374.43 599.704 1374.46C601.112 1374.46 602.056 1374.46 602.536 1374.46C602.984 1374.43 603.304 1374.33 603.496 1374.17C603.72 1373.98 603.832 1373.66 603.832 1373.21V1336.11ZM585.928 1335.39L590.008 1339.81C587.992 1340.61 585.752 1341.33 583.288 1341.97C580.824 1342.61 578.296 1343.17 575.704 1343.65C573.144 1344.13 570.648 1344.54 568.216 1344.89C568.12 1344.22 567.896 1343.45 567.544 1342.59C567.192 1341.69 566.856 1340.96 566.536 1340.38C568.264 1340.09 570.024 1339.77 571.816 1339.42C573.608 1339.07 575.352 1338.69 577.048 1338.27C578.776 1337.85 580.392 1337.41 581.896 1336.93C583.4 1336.45 584.744 1335.93 585.928 1335.39ZM576.232 1352L580.12 1353.73C579.512 1355.52 578.792 1357.37 577.96 1359.29C577.16 1361.18 576.28 1363.05 575.32 1364.91C574.36 1366.73 573.336 1368.46 572.248 1370.09C571.192 1371.69 570.088 1373.09 568.936 1374.27C568.744 1373.69 568.472 1373.07 568.12 1372.4C567.768 1371.73 567.4 1371.05 567.016 1370.38C566.664 1369.71 566.328 1369.12 566.008 1368.61C567.032 1367.61 568.04 1366.46 569.032 1365.15C570.056 1363.84 571.016 1362.45 571.912 1360.97C572.84 1359.47 573.672 1357.95 574.408 1356.41C575.144 1354.88 575.752 1353.41 576.232 1352ZM581.08 1356.85C581.528 1357.17 582.184 1357.68 583.048 1358.38C583.912 1359.05 584.84 1359.79 585.832 1360.59C586.824 1361.39 587.72 1362.14 588.52 1362.85C589.352 1363.52 589.944 1364 590.296 1364.29L586.984 1369.28C586.472 1368.61 585.832 1367.85 585.064 1367.02C584.296 1366.16 583.48 1365.28 582.616 1364.38C581.784 1363.49 580.968 1362.65 580.168 1361.89C579.368 1361.09 578.664 1360.41 578.056 1359.87L581.08 1356.85Z" fill="black"/>
<path d="M526.408 1341.58C528.168 1341.8 530.152 1341.96 532.36 1342.06C534.568 1342.16 536.936 1342.2 539.464 1342.2C541.064 1342.2 542.696 1342.17 544.36 1342.11C546.024 1342.04 547.64 1341.96 549.208 1341.87C550.776 1341.74 552.168 1341.63 553.384 1341.53V1347.92C552.264 1347.98 550.904 1348.06 549.304 1348.16C547.736 1348.25 546.088 1348.33 544.36 1348.4C542.664 1348.46 541.048 1348.49 539.512 1348.49C537.016 1348.49 534.696 1348.44 532.552 1348.35C530.408 1348.22 528.36 1348.09 526.408 1347.96V1341.58ZM530.44 1361.93C530.216 1362.76 530.024 1363.58 529.864 1364.38C529.704 1365.18 529.624 1365.98 529.624 1366.78C529.624 1368.35 530.392 1369.63 531.928 1370.62C533.496 1371.58 536.008 1372.06 539.464 1372.06C541.64 1372.06 543.736 1371.98 545.752 1371.82C547.8 1371.66 549.72 1371.45 551.512 1371.2C553.304 1370.91 554.904 1370.57 556.312 1370.19L556.36 1376.91C554.984 1377.23 553.416 1377.52 551.656 1377.77C549.928 1378.03 548.056 1378.22 546.04 1378.35C544.056 1378.51 541.944 1378.59 539.704 1378.59C536.024 1378.59 532.968 1378.17 530.536 1377.34C528.104 1376.54 526.264 1375.39 525.016 1373.88C523.8 1372.35 523.192 1370.48 523.192 1368.27C523.192 1366.89 523.304 1365.63 523.528 1364.48C523.752 1363.29 523.944 1362.25 524.104 1361.36L530.44 1361.93ZM554.632 1336.64C555.048 1337.21 555.48 1337.9 555.928 1338.7C556.408 1339.5 556.872 1340.3 557.32 1341.1C557.768 1341.9 558.152 1342.6 558.472 1343.21L554.584 1344.89C554.104 1343.9 553.512 1342.76 552.808 1341.48C552.136 1340.2 551.48 1339.1 550.84 1338.17L554.632 1336.64ZM560.344 1334.48C560.76 1335.08 561.208 1335.79 561.688 1336.59C562.168 1337.39 562.632 1338.19 563.08 1338.99C563.56 1339.76 563.944 1340.43 564.232 1341L560.392 1342.64C559.88 1341.64 559.272 1340.52 558.568 1339.28C557.864 1338 557.176 1336.91 556.504 1336.01L560.344 1334.48Z" fill="black"/>
<path d="M480.568 1339.52C481.4 1340.1 482.376 1340.8 483.496 1341.64C484.616 1342.47 485.768 1343.38 486.952 1344.37C488.168 1345.33 489.304 1346.28 490.36 1347.2C491.416 1348.13 492.28 1348.96 492.952 1349.7L488.056 1354.69C487.448 1354.02 486.648 1353.22 485.656 1352.29C484.664 1351.36 483.592 1350.4 482.44 1349.41C481.288 1348.42 480.152 1347.48 479.032 1346.58C477.912 1345.68 476.92 1344.93 476.056 1344.32L480.568 1339.52ZM474.568 1371.49C477.064 1371.14 479.416 1370.64 481.624 1370C483.832 1369.36 485.88 1368.63 487.768 1367.8C489.656 1366.96 491.384 1366.1 492.952 1365.2C495.672 1363.57 498.168 1361.72 500.44 1359.64C502.712 1357.56 504.696 1355.4 506.392 1353.16C508.088 1350.88 509.432 1348.68 510.424 1346.53L514.168 1353.3C512.952 1355.44 511.448 1357.59 509.656 1359.73C507.896 1361.88 505.896 1363.92 503.656 1365.88C501.416 1367.8 499 1369.52 496.408 1371.06C494.776 1372.05 493.016 1373 491.128 1373.89C489.24 1374.76 487.24 1375.52 485.128 1376.2C483.048 1376.9 480.872 1377.44 478.6 1377.83L474.568 1371.49Z" fill="black"/>
<path d="M423.976 1357.33C428.296 1356.21 432.2 1354.91 435.688 1353.44C439.208 1351.93 442.296 1350.37 444.952 1348.73C446.616 1347.71 448.28 1346.54 449.944 1345.23C451.64 1343.89 453.224 1342.51 454.696 1341.1C456.2 1339.69 457.464 1338.35 458.488 1337.07L463.672 1342.01C462.2 1343.45 460.584 1344.91 458.824 1346.38C457.096 1347.85 455.288 1349.26 453.4 1350.61C451.512 1351.95 449.64 1353.18 447.784 1354.3C445.96 1355.36 443.912 1356.45 441.64 1357.57C439.4 1358.69 437.032 1359.74 434.536 1360.73C432.04 1361.73 429.528 1362.61 427 1363.37L423.976 1357.33ZM443.944 1351.81L450.76 1350.22V1371.82C450.76 1372.53 450.776 1373.29 450.808 1374.13C450.84 1374.96 450.888 1375.73 450.952 1376.43C451.016 1377.17 451.096 1377.73 451.192 1378.11H443.608C443.672 1377.73 443.72 1377.17 443.752 1376.43C443.816 1375.73 443.864 1374.96 443.896 1374.13C443.928 1373.29 443.944 1372.53 443.944 1371.82V1351.81Z" fill="black"/>
<path d="M388.072 1371.39C388.072 1370.78 388.072 1369.79 388.072 1368.42C388.072 1367.01 388.072 1365.39 388.072 1363.57C388.072 1361.71 388.072 1359.78 388.072 1357.76C388.072 1355.74 388.072 1353.81 388.072 1351.95C388.072 1350.06 388.072 1348.4 388.072 1346.96C388.072 1345.52 388.072 1344.46 388.072 1343.79C388.072 1342.96 388.024 1342 387.928 1340.91C387.864 1339.82 387.752 1338.86 387.592 1338.03H395.08C394.984 1338.86 394.888 1339.79 394.792 1340.82C394.696 1341.81 394.648 1342.8 394.648 1343.79C394.648 1344.69 394.648 1345.9 394.648 1347.44C394.648 1348.98 394.648 1350.69 394.648 1352.58C394.648 1354.43 394.648 1356.34 394.648 1358.29C394.648 1360.21 394.648 1362.06 394.648 1363.86C394.648 1365.65 394.648 1367.22 394.648 1368.56C394.648 1369.87 394.648 1370.82 394.648 1371.39C394.648 1371.84 394.664 1372.48 394.696 1373.31C394.728 1374.11 394.792 1374.94 394.888 1375.81C394.984 1376.67 395.048 1377.44 395.08 1378.11H387.592C387.72 1377.15 387.832 1376.03 387.928 1374.75C388.024 1373.47 388.072 1372.35 388.072 1371.39ZM393.208 1350.46C394.808 1350.88 396.6 1351.42 398.584 1352.1C400.568 1352.74 402.568 1353.42 404.584 1354.16C406.6 1354.9 408.488 1355.63 410.248 1356.37C412.04 1357.07 413.528 1357.73 414.712 1358.34L411.976 1364.96C410.632 1364.26 409.144 1363.55 407.512 1362.85C405.88 1362.11 404.216 1361.41 402.52 1360.74C400.856 1360.06 399.208 1359.44 397.576 1358.86C395.976 1358.29 394.52 1357.78 393.208 1357.33V1350.46Z" fill="black"/>
<path d="M329.416 1353.77C329.992 1353.81 330.728 1353.85 331.624 1353.92C332.52 1353.95 333.448 1353.98 334.408 1354.01C335.4 1354.05 336.312 1354.06 337.144 1354.06C337.944 1354.06 338.936 1354.06 340.12 1354.06C341.304 1354.06 342.584 1354.06 343.96 1354.06C345.368 1354.06 346.808 1354.06 348.28 1354.06C349.784 1354.06 351.272 1354.06 352.744 1354.06C354.216 1354.06 355.608 1354.06 356.92 1354.06C358.232 1354.06 359.4 1354.06 360.424 1354.06C361.48 1354.06 362.312 1354.06 362.92 1354.06C364.04 1354.06 365.096 1354.03 366.088 1353.97C367.08 1353.87 367.896 1353.81 368.536 1353.77V1361.31C367.992 1361.28 367.176 1361.23 366.088 1361.17C365 1361.1 363.944 1361.07 362.92 1361.07C362.312 1361.07 361.48 1361.07 360.424 1361.07C359.368 1361.07 358.184 1361.07 356.872 1361.07C355.56 1361.07 354.168 1361.07 352.696 1361.07C351.256 1361.07 349.784 1361.07 348.28 1361.07C346.776 1361.07 345.32 1361.07 343.912 1361.07C342.536 1361.07 341.256 1361.07 340.072 1361.07C338.92 1361.07 337.944 1361.07 337.144 1361.07C335.768 1361.07 334.36 1361.1 332.92 1361.17C331.48 1361.2 330.312 1361.25 329.416 1361.31V1353.77Z" fill="black"/>
<path d="M279.976 1357.33C284.296 1356.21 288.2 1354.91 291.688 1353.44C295.208 1351.93 298.296 1350.37 300.952 1348.73C302.616 1347.71 304.28 1346.54 305.944 1345.23C307.64 1343.89 309.224 1342.51 310.696 1341.1C312.2 1339.69 313.464 1338.35 314.488 1337.07L319.672 1342.01C318.2 1343.45 316.584 1344.91 314.824 1346.38C313.096 1347.85 311.288 1349.26 309.4 1350.61C307.512 1351.95 305.64 1353.18 303.784 1354.3C301.96 1355.36 299.912 1356.45 297.64 1357.57C295.4 1358.69 293.032 1359.74 290.536 1360.73C288.04 1361.73 285.528 1362.61 283 1363.37L279.976 1357.33ZM299.944 1351.81L306.76 1350.22V1371.82C306.76 1372.53 306.776 1373.29 306.808 1374.13C306.84 1374.96 306.888 1375.73 306.952 1376.43C307.016 1377.17 307.096 1377.73 307.192 1378.11H299.608C299.672 1377.73 299.72 1377.17 299.752 1376.43C299.816 1375.73 299.864 1374.96 299.896 1374.13C299.928 1373.29 299.944 1372.53 299.944 1371.82V1351.81Z" fill="black"/>
<path d="M780.166 1712.77C780.742 1712.81 781.478 1712.85 782.374 1712.92C783.27 1712.95 784.198 1712.98 785.158 1713.01C786.15 1713.05 787.062 1713.06 787.894 1713.06C788.694 1713.06 789.686 1713.06 790.87 1713.06C792.054 1713.06 793.334 1713.06 794.71 1713.06C796.118 1713.06 797.558 1713.06 799.03 1713.06C800.534 1713.06 802.022 1713.06 803.494 1713.06C804.966 1713.06 806.358 1713.06 807.67 1713.06C808.982 1713.06 810.15 1713.06 811.174 1713.06C812.23 1713.06 813.062 1713.06 813.67 1713.06C814.79 1713.06 815.846 1713.03 816.838 1712.97C817.83 1712.87 818.646 1712.81 819.286 1712.77V1720.31C818.742 1720.28 817.926 1720.23 816.838 1720.17C815.75 1720.1 814.694 1720.07 813.67 1720.07C813.062 1720.07 812.23 1720.07 811.174 1720.07C810.118 1720.07 808.934 1720.07 807.622 1720.07C806.31 1720.07 804.918 1720.07 803.446 1720.07C802.006 1720.07 800.534 1720.07 799.03 1720.07C797.526 1720.07 796.07 1720.07 794.662 1720.07C793.286 1720.07 792.006 1720.07 790.822 1720.07C789.67 1720.07 788.694 1720.07 787.894 1720.07C786.518 1720.07 785.11 1720.1 783.67 1720.17C782.23 1720.2 781.062 1720.25 780.166 1720.31V1712.77Z" fill="black"/>
<path d="M765.142 1695.59C765.558 1696.13 765.99 1696.82 766.438 1697.65C766.918 1698.45 767.382 1699.25 767.83 1700.05C768.278 1700.85 768.646 1701.56 768.934 1702.17L765.094 1703.8C764.614 1702.81 764.022 1701.69 763.318 1700.44C762.646 1699.16 761.99 1698.05 761.35 1697.13L765.142 1695.59ZM770.806 1693.38C771.222 1693.99 771.67 1694.71 772.15 1695.54C772.662 1696.34 773.142 1697.14 773.59 1697.94C774.07 1698.71 774.438 1699.37 774.694 1699.91L770.902 1701.59C770.39 1700.57 769.782 1699.43 769.078 1698.18C768.374 1696.93 767.686 1695.86 767.014 1694.97L770.806 1693.38ZM747.19 1713.64C748.662 1714.5 750.278 1715.51 752.038 1716.66C753.798 1717.78 755.558 1718.95 757.318 1720.17C759.11 1721.38 760.79 1722.57 762.358 1723.72C763.958 1724.84 765.318 1725.86 766.438 1726.79L761.83 1732.21C760.774 1731.22 759.462 1730.1 757.894 1728.85C756.358 1727.61 754.694 1726.33 752.902 1725.01C751.11 1723.67 749.35 1722.39 747.622 1721.17C745.894 1719.96 744.326 1718.9 742.918 1718.01L747.19 1713.64ZM769.75 1705.48C769.494 1705.93 769.222 1706.47 768.934 1707.11C768.646 1707.72 768.39 1708.33 768.166 1708.93C767.686 1710.41 767.03 1712.04 766.198 1713.83C765.398 1715.62 764.438 1717.46 763.318 1719.35C762.198 1721.24 760.918 1723.08 759.478 1724.87C757.238 1727.65 754.518 1730.33 751.318 1732.89C748.118 1735.41 744.23 1737.56 739.654 1739.32L734.086 1734.47C737.414 1733.41 740.31 1732.2 742.774 1730.82C745.238 1729.41 747.382 1727.91 749.206 1726.31C751.03 1724.71 752.614 1723.11 753.958 1721.51C755.046 1720.23 756.07 1718.82 757.03 1717.29C757.99 1715.72 758.822 1714.17 759.526 1712.63C760.262 1711.09 760.774 1709.72 761.062 1708.5H744.838L747.046 1703.03H760.726C761.462 1703.03 762.198 1702.98 762.934 1702.89C763.702 1702.79 764.358 1702.65 764.902 1702.45L769.75 1705.48ZM753.91 1698.13C753.334 1698.97 752.758 1699.86 752.182 1700.82C751.638 1701.78 751.222 1702.52 750.934 1703.03C749.878 1704.92 748.502 1706.95 746.806 1709.13C745.142 1711.3 743.27 1713.41 741.19 1715.46C739.142 1717.51 736.966 1719.33 734.662 1720.93L729.478 1716.9C732.294 1715.17 734.678 1713.35 736.63 1711.43C738.614 1709.48 740.262 1707.61 741.574 1705.81C742.918 1703.99 743.99 1702.37 744.79 1700.97C745.174 1700.39 745.574 1699.62 745.99 1698.66C746.438 1697.67 746.758 1696.77 746.95 1695.97L753.91 1698.13Z" fill="black"/>
<path d="M684.166 1712.77C684.742 1712.81 685.478 1712.85 686.374 1712.92C687.27 1712.95 688.198 1712.98 689.158 1713.01C690.15 1713.05 691.062 1713.06 691.894 1713.06C692.694 1713.06 693.686 1713.06 694.87 1713.06C696.054 1713.06 697.334 1713.06 698.71 1713.06C700.118 1713.06 701.558 1713.06 703.03 1713.06C704.534 1713.06 706.022 1713.06 707.494 1713.06C708.966 1713.06 710.358 1713.06 711.67 1713.06C712.982 1713.06 714.15 1713.06 715.174 1713.06C716.23 1713.06 717.062 1713.06 717.67 1713.06C718.79 1713.06 719.846 1713.03 720.838 1712.97C721.83 1712.87 722.646 1712.81 723.286 1712.77V1720.31C722.742 1720.28 721.926 1720.23 720.838 1720.17C719.75 1720.1 718.694 1720.07 717.67 1720.07C717.062 1720.07 716.23 1720.07 715.174 1720.07C714.118 1720.07 712.934 1720.07 711.622 1720.07C710.31 1720.07 708.918 1720.07 707.446 1720.07C706.006 1720.07 704.534 1720.07 703.03 1720.07C701.526 1720.07 700.07 1720.07 698.662 1720.07C697.286 1720.07 696.006 1720.07 694.822 1720.07C693.67 1720.07 692.694 1720.07 691.894 1720.07C690.518 1720.07 689.11 1720.1 687.67 1720.17C686.23 1720.2 685.062 1720.25 684.166 1720.31V1712.77Z" fill="black"/>
<path d="M664.582 1696.55C664.486 1697.29 664.406 1698.09 664.342 1698.95C664.31 1699.82 664.294 1700.63 664.294 1701.4C664.326 1702.75 664.358 1704.2 664.39 1705.77C664.422 1707.34 664.454 1709 664.486 1710.76C664.55 1712.52 664.598 1714.33 664.63 1716.19C664.662 1718.01 664.694 1719.85 664.726 1721.71C664.758 1723.53 664.79 1725.34 664.822 1727.13C664.854 1728.89 664.886 1730.59 664.918 1732.22C664.95 1733.75 664.518 1734.94 663.622 1735.77C662.726 1736.63 661.366 1737.07 659.542 1737.07C658.102 1737.07 656.694 1737.03 655.318 1736.97C653.942 1736.94 652.566 1736.87 651.19 1736.78L650.662 1730.54C651.75 1730.73 652.886 1730.87 654.07 1730.97C655.254 1731.07 656.246 1731.11 657.046 1731.11C657.654 1731.11 658.086 1730.95 658.342 1730.63C658.598 1730.31 658.726 1729.8 658.726 1729.1C658.726 1728.01 658.726 1726.76 658.726 1725.35C658.726 1723.91 658.71 1722.39 658.678 1720.79C658.678 1719.16 658.662 1717.5 658.63 1715.8C658.598 1714.07 658.566 1712.36 658.534 1710.67C658.502 1708.97 658.454 1707.34 658.39 1705.77C658.358 1704.2 658.31 1702.75 658.246 1701.4C658.182 1700.35 658.102 1699.43 658.006 1698.67C657.942 1697.87 657.862 1697.16 657.766 1696.55H664.582ZM637.174 1704.52C637.878 1704.62 638.726 1704.7 639.718 1704.76C640.742 1704.83 641.67 1704.86 642.502 1704.86C642.982 1704.86 643.798 1704.86 644.95 1704.86C646.102 1704.86 647.462 1704.86 649.03 1704.86C650.63 1704.86 652.326 1704.86 654.118 1704.86C655.91 1704.86 657.686 1704.86 659.446 1704.86C661.206 1704.86 662.854 1704.86 664.39 1704.86C665.926 1704.86 667.222 1704.86 668.278 1704.86C669.334 1704.86 670.022 1704.86 670.342 1704.86C671.11 1704.86 671.99 1704.83 672.982 1704.76C673.974 1704.67 674.758 1704.57 675.334 1704.47V1710.86C674.566 1710.83 673.75 1710.79 672.886 1710.76C672.054 1710.73 671.318 1710.71 670.678 1710.71C670.39 1710.71 669.718 1710.71 668.662 1710.71C667.606 1710.71 666.294 1710.71 664.726 1710.71C663.19 1710.71 661.51 1710.71 659.686 1710.71C657.862 1710.71 656.022 1710.71 654.166 1710.71C652.342 1710.71 650.614 1710.71 648.982 1710.71C647.382 1710.71 646.022 1710.71 644.902 1710.71C643.782 1710.71 643.03 1710.71 642.646 1710.71C641.782 1710.71 640.87 1710.73 639.91 1710.76C638.95 1710.79 638.038 1710.84 637.174 1710.91V1704.52ZM634.63 1727.37C637.126 1726.19 639.51 1724.86 641.782 1723.39C644.054 1721.91 646.134 1720.38 648.022 1718.78C649.91 1717.18 651.574 1715.59 653.014 1714.03C654.486 1712.43 655.654 1710.92 656.518 1709.51L659.638 1709.56L659.686 1714.65C658.726 1716.12 657.494 1717.66 655.99 1719.26C654.486 1720.86 652.822 1722.46 650.998 1724.06C649.174 1725.66 647.238 1727.18 645.19 1728.62C643.142 1730.03 641.094 1731.27 639.046 1732.36L634.63 1727.37Z" fill="black"/>
<path d="M616.486 1699.29C616.934 1699.93 617.43 1700.68 617.974 1701.54C618.518 1702.41 619.03 1703.27 619.51 1704.14C620.022 1705 620.47 1705.8 620.854 1706.54L616.678 1708.41C616.23 1707.38 615.782 1706.47 615.334 1705.67C614.918 1704.87 614.486 1704.1 614.038 1703.37C613.59 1702.6 613.062 1701.8 612.454 1700.97L616.486 1699.29ZM622.773 1696.65C623.253 1697.29 623.766 1698.02 624.31 1698.86C624.886 1699.69 625.43 1700.54 625.942 1701.4C626.486 1702.23 626.934 1703.02 627.286 1703.75L623.254 1705.72C622.742 1704.7 622.246 1703.8 621.766 1703.03C621.318 1702.23 620.854 1701.48 620.374 1700.78C619.926 1700.04 619.398 1699.29 618.79 1698.52L622.773 1696.65ZM597.334 1731.11C597.334 1730.47 597.334 1729.46 597.334 1728.09C597.334 1726.68 597.334 1725.06 597.334 1723.24C597.334 1721.38 597.334 1719.46 597.334 1717.48C597.334 1715.46 597.334 1713.53 597.334 1711.67C597.334 1709.78 597.334 1708.12 597.334 1706.68C597.334 1705.24 597.334 1704.18 597.334 1703.51C597.334 1702.65 597.286 1701.67 597.19 1700.58C597.126 1699.5 597.014 1698.54 596.854 1697.7H604.342C604.246 1698.54 604.149 1699.46 604.053 1700.49C603.957 1701.51 603.91 1702.52 603.91 1703.51C603.91 1704.38 603.91 1705.58 603.91 1707.11C603.91 1708.65 603.91 1710.36 603.91 1712.25C603.91 1714.1 603.91 1716.01 603.91 1717.96C603.91 1719.91 603.91 1721.78 603.91 1723.58C603.91 1725.34 603.91 1726.89 603.91 1728.23C603.91 1729.54 603.91 1730.5 603.91 1731.11C603.91 1731.53 603.926 1732.15 603.958 1732.98C604.022 1733.78 604.086 1734.62 604.15 1735.48C604.246 1736.34 604.326 1737.11 604.39 1737.78H596.854C597.014 1736.86 597.126 1735.75 597.19 1734.47C597.286 1733.16 597.334 1732.04 597.334 1731.11ZM602.518 1710.14C604.118 1710.55 605.894 1711.1 607.846 1711.77C609.83 1712.41 611.83 1713.11 613.846 1713.88C615.862 1714.62 617.766 1715.35 619.558 1716.09C621.35 1716.79 622.822 1717.43 623.974 1718.01L621.286 1724.68C619.91 1723.94 618.405 1723.22 616.773 1722.52C615.141 1721.82 613.478 1721.13 611.782 1720.46C610.118 1719.75 608.485 1719.11 606.885 1718.54C605.285 1717.96 603.83 1717.46 602.518 1717.05V1710.14Z" fill="black"/>
<path d="M540.166 1712.77C540.742 1712.81 541.478 1712.85 542.374 1712.92C543.27 1712.95 544.198 1712.98 545.158 1713.01C546.15 1713.05 547.062 1713.06 547.894 1713.06C548.694 1713.06 549.686 1713.06 550.87 1713.06C552.054 1713.06 553.334 1713.06 554.71 1713.06C556.118 1713.06 557.558 1713.06 559.03 1713.06C560.534 1713.06 562.022 1713.06 563.494 1713.06C564.966 1713.06 566.358 1713.06 567.67 1713.06C568.982 1713.06 570.15 1713.06 571.174 1713.06C572.23 1713.06 573.062 1713.06 573.67 1713.06C574.79 1713.06 575.846 1713.03 576.838 1712.97C577.83 1712.87 578.646 1712.81 579.286 1712.77V1720.31C578.742 1720.28 577.926 1720.23 576.838 1720.17C575.75 1720.1 574.694 1720.07 573.67 1720.07C573.062 1720.07 572.23 1720.07 571.174 1720.07C570.118 1720.07 568.934 1720.07 567.622 1720.07C566.31 1720.07 564.918 1720.07 563.446 1720.07C562.006 1720.07 560.534 1720.07 559.03 1720.07C557.526 1720.07 556.07 1720.07 554.662 1720.07C553.286 1720.07 552.006 1720.07 550.822 1720.07C549.67 1720.07 548.694 1720.07 547.894 1720.07C546.518 1720.07 545.11 1720.1 543.67 1720.17C542.23 1720.2 541.062 1720.25 540.166 1720.31V1712.77Z" fill="black"/>
<path d="M530.422 1703.03C530.198 1703.48 529.99 1704.02 529.798 1704.66C529.638 1705.27 529.494 1705.85 529.366 1706.39C529.11 1707.54 528.774 1708.86 528.358 1710.33C527.942 1711.8 527.446 1713.32 526.87 1714.89C526.294 1716.46 525.606 1718.01 524.806 1719.54C524.038 1721.08 523.158 1722.52 522.166 1723.86C520.726 1725.75 519.046 1727.54 517.126 1729.24C515.206 1730.9 513.062 1732.41 510.694 1733.75C508.326 1735.06 505.718 1736.18 502.87 1737.11L497.638 1731.4C500.806 1730.63 503.542 1729.69 505.846 1728.57C508.182 1727.42 510.214 1726.14 511.942 1724.73C513.67 1723.29 515.174 1721.75 516.454 1720.12C517.51 1718.78 518.406 1717.32 519.142 1715.75C519.91 1714.18 520.534 1712.6 521.014 1711C521.526 1709.4 521.878 1707.93 522.07 1706.58C521.59 1706.58 520.79 1706.58 519.67 1706.58C518.582 1706.58 517.286 1706.58 515.782 1706.58C514.31 1706.58 512.758 1706.58 511.126 1706.58C509.526 1706.58 507.974 1706.58 506.47 1706.58C504.966 1706.58 503.606 1706.58 502.39 1706.58C501.206 1706.58 500.31 1706.58 499.702 1706.58C498.614 1706.58 497.542 1706.6 496.486 1706.63C495.462 1706.66 494.63 1706.71 493.99 1706.78V1700.01C494.502 1700.04 495.094 1700.09 495.766 1700.15C496.438 1700.22 497.142 1700.28 497.878 1700.34C498.614 1700.38 499.238 1700.39 499.75 1700.39C500.23 1700.39 500.95 1700.39 501.91 1700.39C502.87 1700.39 503.974 1700.39 505.222 1700.39C506.47 1700.39 507.766 1700.39 509.11 1700.39C510.486 1700.39 511.846 1700.39 513.19 1700.39C514.534 1700.39 515.798 1700.39 516.982 1700.39C518.166 1700.39 519.19 1700.39 520.054 1700.39C520.95 1700.39 521.574 1700.39 521.926 1700.39C522.406 1700.39 522.998 1700.38 523.702 1700.34C524.406 1700.28 525.062 1700.17 525.67 1700.01L530.422 1703.03Z" fill="black"/>
<path d="M479.983 1696.6C480.319 1696.6 480.559 1696.84 480.559 1697.18V1734.38C480.559 1734.71 480.319 1735 479.983 1735H476.143C475.807 1735 475.567 1734.71 475.567 1734.38V1701.5H469.567C469.039 1701.5 468.799 1700.97 469.039 1700.63L471.439 1696.84C471.535 1696.7 471.727 1696.6 471.919 1696.6H479.983Z" fill="black"/>
<path d="M436.494 1699.57H462.798V1704.08H436.494V1699.57ZM437.742 1706H461.79V1710.32H437.742V1706ZM435.534 1712.39H463.71V1717.09H435.534V1712.39ZM454.926 1694.15L460.686 1695.49C460.014 1696.58 459.374 1697.62 458.766 1698.61C458.158 1699.6 457.598 1700.45 457.086 1701.16L452.622 1699.86C453.038 1699.03 453.454 1698.07 453.87 1696.98C454.318 1695.89 454.67 1694.95 454.926 1694.15ZM439.518 1695.83L444.078 1694.29C444.622 1695.12 445.15 1696.04 445.662 1697.03C446.206 1698.02 446.59 1698.88 446.814 1699.62L442.014 1701.35C441.822 1700.61 441.486 1699.72 441.006 1698.66C440.526 1697.6 440.03 1696.66 439.518 1695.83ZM459.102 1717.96L463.47 1721.03C462.414 1722.15 461.278 1723.25 460.062 1724.34C458.878 1725.43 457.822 1726.36 456.894 1727.12L453.198 1724.34C453.806 1723.8 454.478 1723.16 455.214 1722.42C455.95 1721.68 456.654 1720.93 457.326 1720.16C458.03 1719.36 458.622 1718.63 459.102 1717.96ZM436.494 1720.74L440.382 1718.15C441.246 1719.01 442.142 1720 443.07 1721.12C443.998 1722.21 444.702 1723.17 445.182 1724L441.054 1726.88C440.606 1726.02 439.95 1725.01 439.086 1723.86C438.222 1722.68 437.358 1721.64 436.494 1720.74ZM433.662 1731.54C435.134 1730.9 436.862 1730.08 438.846 1729.09C440.83 1728.1 442.862 1727.06 444.942 1725.97L446.43 1730.63C444.734 1731.62 442.99 1732.63 441.198 1733.65C439.406 1734.64 437.742 1735.56 436.206 1736.39L433.662 1731.54ZM446.862 1702.64H452.43V1733.6C452.43 1734.88 452.286 1735.89 451.998 1736.63C451.742 1737.4 451.214 1737.99 450.414 1738.4C449.614 1738.85 448.638 1739.12 447.486 1739.22C446.366 1739.35 445.054 1739.41 443.55 1739.41C443.454 1738.64 443.262 1737.76 442.974 1736.77C442.686 1735.78 442.366 1734.95 442.014 1734.28C442.846 1734.31 443.662 1734.34 444.462 1734.37C445.294 1734.37 445.838 1734.37 446.094 1734.37C446.414 1734.37 446.622 1734.31 446.718 1734.18C446.814 1734.05 446.862 1733.84 446.862 1733.56V1702.64ZM452.094 1717.96C452.83 1720.1 453.774 1722.12 454.926 1724C456.078 1725.89 457.47 1727.56 459.102 1729C460.734 1730.44 462.574 1731.57 464.622 1732.4C464.238 1732.76 463.806 1733.22 463.326 1733.8C462.878 1734.34 462.43 1734.9 461.982 1735.48C461.566 1736.05 461.23 1736.58 460.974 1737.06C458.894 1735.94 457.038 1734.47 455.406 1732.64C453.806 1730.79 452.414 1728.69 451.23 1726.36C450.078 1724.02 449.118 1721.51 448.35 1718.82L452.094 1717.96ZM419.55 1704.18H435.438V1709.51H419.55V1704.18ZM425.406 1694.2H430.59V1739.27H425.406V1694.2ZM425.31 1707.83L428.478 1708.88C428.158 1710.8 427.742 1712.79 427.23 1714.84C426.718 1716.85 426.142 1718.85 425.502 1720.84C424.862 1722.79 424.158 1724.61 423.39 1726.31C422.654 1728 421.854 1729.46 420.99 1730.68C420.734 1729.94 420.334 1729.08 419.79 1728.08C419.278 1727.09 418.814 1726.28 418.398 1725.64C419.166 1724.58 419.902 1723.35 420.606 1721.94C421.31 1720.53 421.966 1719.03 422.574 1717.43C423.182 1715.83 423.71 1714.21 424.158 1712.58C424.638 1710.92 425.022 1709.33 425.31 1707.83ZM430.35 1711.28C430.606 1711.6 431.006 1712.18 431.55 1713.01C432.126 1713.81 432.734 1714.69 433.374 1715.65C434.014 1716.58 434.59 1717.46 435.102 1718.29C435.646 1719.09 436.014 1719.65 436.206 1719.97L433.23 1724.1C432.942 1723.43 432.574 1722.61 432.126 1721.65C431.678 1720.69 431.182 1719.7 430.638 1718.68C430.126 1717.65 429.63 1716.69 429.15 1715.8C428.702 1714.9 428.302 1714.16 427.95 1713.59L430.35 1711.28Z" fill="black"/>
<path d="M389.358 1695.35H395.982C395.918 1696.7 395.806 1698.42 395.646 1700.54C395.486 1702.65 395.182 1705 394.734 1707.59C394.318 1710.15 393.678 1712.84 392.814 1715.66C391.95 1718.47 390.766 1721.29 389.262 1724.1C387.79 1726.89 385.902 1729.56 383.598 1732.12C381.326 1734.65 378.558 1736.9 375.294 1738.89C374.782 1738.15 374.078 1737.37 373.182 1736.54C372.318 1735.7 371.406 1734.95 370.446 1734.28C373.646 1732.49 376.334 1730.44 378.51 1728.14C380.686 1725.83 382.462 1723.42 383.838 1720.89C385.214 1718.33 386.27 1715.77 387.006 1713.21C387.742 1710.62 388.27 1708.17 388.59 1705.86C388.91 1703.56 389.102 1701.5 389.166 1699.67C389.23 1697.85 389.294 1696.41 389.358 1695.35ZM395.742 1696.65C395.774 1697.26 395.838 1698.22 395.934 1699.53C396.03 1700.84 396.222 1702.41 396.51 1704.23C396.798 1706.06 397.23 1708.04 397.806 1710.18C398.414 1712.3 399.214 1714.47 400.206 1716.71C401.198 1718.95 402.43 1721.14 403.902 1723.29C405.374 1725.43 407.15 1727.42 409.23 1729.24C411.342 1731.06 413.806 1732.65 416.622 1733.99C415.694 1734.66 414.83 1735.45 414.03 1736.34C413.262 1737.24 412.638 1738.09 412.158 1738.89C409.214 1737.42 406.638 1735.67 404.43 1733.66C402.254 1731.61 400.382 1729.4 398.814 1727.03C397.278 1724.63 395.998 1722.2 394.974 1719.74C393.95 1717.27 393.118 1714.86 392.478 1712.49C391.87 1710.09 391.406 1707.86 391.086 1705.82C390.766 1703.77 390.542 1701.99 390.414 1700.49C390.318 1698.98 390.238 1697.9 390.174 1697.22L395.742 1696.65Z" fill="black"/>
<path d="M361.623 1696.6C361.959 1696.6 362.199 1696.84 362.199 1697.18V1734.38C362.199 1734.71 361.959 1735 361.623 1735H357.783C357.447 1735 357.207 1734.71 357.207 1734.38V1701.5H351.207C350.679 1701.5 350.439 1700.97 350.679 1700.63L353.079 1696.84C353.175 1696.7 353.367 1696.6 353.559 1696.6H361.623Z" fill="black"/>
<path d="M319.959 1696.02C319.927 1696.28 319.879 1696.68 319.815 1697.22C319.751 1697.74 319.687 1698.26 319.623 1698.81C319.591 1699.32 319.559 1699.78 319.527 1700.2C319.463 1701.13 319.399 1702.15 319.335 1703.27C319.303 1704.36 319.271 1705.5 319.239 1706.68C319.207 1707.83 319.175 1709 319.143 1710.18C319.143 1711.37 319.143 1712.52 319.143 1713.64C319.143 1714.95 319.159 1716.41 319.191 1718.01C319.223 1719.58 319.255 1721.14 319.287 1722.71C319.351 1724.25 319.383 1725.66 319.383 1726.94C319.415 1728.22 319.431 1729.21 319.431 1729.91C319.431 1731.9 319.207 1733.43 318.759 1734.52C318.343 1735.61 317.735 1736.36 316.935 1736.78C316.135 1737.22 315.207 1737.45 314.151 1737.45C312.999 1737.45 311.767 1737.21 310.455 1736.73C309.143 1736.28 307.911 1735.64 306.759 1734.81C305.639 1733.98 304.711 1733.02 303.975 1731.93C303.271 1730.81 302.919 1729.61 302.919 1728.33C302.919 1726.79 303.495 1725.27 304.647 1723.77C305.831 1722.23 307.383 1720.82 309.303 1719.54C311.255 1718.26 313.351 1717.24 315.591 1716.47C317.735 1715.67 319.943 1715.1 322.215 1714.74C324.487 1714.36 326.535 1714.17 328.359 1714.17C330.823 1714.17 333.047 1714.58 335.031 1715.42C337.015 1716.22 338.599 1717.4 339.783 1718.97C340.967 1720.54 341.559 1722.42 341.559 1724.63C341.559 1726.49 341.207 1728.2 340.503 1729.77C339.799 1731.34 338.663 1732.7 337.095 1733.85C335.559 1734.97 333.511 1735.85 330.951 1736.49C329.863 1736.71 328.775 1736.87 327.687 1736.97C326.631 1737.1 325.623 1737.19 324.663 1737.26L322.455 1731.06C323.543 1731.06 324.583 1731.05 325.575 1731.02C326.599 1730.95 327.527 1730.86 328.359 1730.73C329.671 1730.47 330.855 1730.09 331.911 1729.58C332.967 1729.06 333.799 1728.39 334.407 1727.56C335.015 1726.73 335.319 1725.74 335.319 1724.58C335.319 1723.5 335.015 1722.57 334.407 1721.8C333.831 1721.03 333.015 1720.44 331.959 1720.02C330.903 1719.61 329.671 1719.4 328.263 1719.4C326.247 1719.4 324.199 1719.61 322.119 1720.02C320.071 1720.44 318.103 1721.02 316.215 1721.75C314.807 1722.3 313.543 1722.94 312.423 1723.67C311.303 1724.38 310.423 1725.11 309.783 1725.88C309.143 1726.65 308.823 1727.38 308.823 1728.09C308.823 1728.47 308.935 1728.84 309.159 1729.19C309.415 1729.51 309.735 1729.8 310.119 1730.06C310.503 1730.31 310.887 1730.52 311.271 1730.68C311.687 1730.81 312.039 1730.87 312.327 1730.87C312.775 1730.87 313.143 1730.74 313.431 1730.49C313.719 1730.2 313.863 1729.66 313.863 1728.86C313.863 1727.99 313.831 1726.76 313.767 1725.16C313.735 1723.53 313.687 1721.72 313.623 1719.74C313.591 1717.75 313.575 1715.78 313.575 1713.83C313.575 1712.49 313.575 1711.13 313.575 1709.75C313.607 1708.38 313.623 1707.06 313.623 1705.82C313.623 1704.57 313.623 1703.46 313.623 1702.5C313.655 1701.54 313.671 1700.79 313.671 1700.25C313.671 1699.9 313.655 1699.45 313.623 1698.9C313.591 1698.36 313.543 1697.82 313.479 1697.27C313.447 1696.7 313.399 1696.28 313.335 1696.02H319.959ZM333.639 1701.21C334.855 1701.78 336.215 1702.49 337.719 1703.32C339.255 1704.15 340.711 1704.98 342.087 1705.82C343.495 1706.62 344.615 1707.34 345.447 1707.98L342.567 1712.87C341.959 1712.36 341.159 1711.78 340.167 1711.14C339.207 1710.5 338.151 1709.85 336.999 1709.18C335.879 1708.5 334.791 1707.88 333.735 1707.3C332.679 1706.7 331.767 1706.22 330.999 1705.86L333.639 1701.21ZM304.215 1703.85C305.623 1704.01 306.855 1704.12 307.911 1704.18C308.999 1704.22 309.975 1704.23 310.839 1704.23C312.087 1704.23 313.463 1704.18 314.967 1704.09C316.471 1703.96 318.007 1703.8 319.575 1703.61C321.143 1703.38 322.663 1703.13 324.135 1702.84C325.639 1702.55 326.999 1702.23 328.215 1701.88L328.359 1707.83C327.015 1708.15 325.559 1708.44 323.991 1708.7C322.423 1708.92 320.839 1709.13 319.239 1709.32C317.671 1709.51 316.167 1709.66 314.727 1709.75C313.319 1709.85 312.087 1709.9 311.031 1709.9C309.431 1709.9 308.119 1709.88 307.095 1709.85C306.071 1709.82 305.143 1709.75 304.311 1709.66L304.215 1703.85Z" fill="black"/>
<path d="M265.258 1735L261.754 1731.45L275.05 1718.05L261.658 1704.61L265.21 1701.01L278.65 1714.41L292.138 1701.06L295.738 1704.57L282.25 1718.05L295.546 1731.54L292.042 1735.09L278.65 1721.65L265.258 1735ZM264.346 1721.7C263.354 1721.7 262.49 1721.43 261.754 1720.89C261.018 1720.34 260.65 1719.41 260.65 1718.1C260.65 1716.79 261.018 1715.86 261.754 1715.32C262.49 1714.74 263.354 1714.45 264.346 1714.45C265.37 1714.45 266.25 1714.74 266.986 1715.32C267.722 1715.86 268.09 1716.79 268.09 1718.1C268.09 1719.41 267.722 1720.34 266.986 1720.89C266.25 1721.43 265.37 1721.7 264.346 1721.7ZM278.65 1736.1C277.786 1736.1 277.082 1735.93 276.538 1735.57C276.026 1735.25 275.642 1734.81 275.386 1734.23C275.162 1733.65 275.05 1733.03 275.05 1732.36C275.05 1731.69 275.162 1731.08 275.386 1730.53C275.642 1729.96 276.026 1729.51 276.538 1729.19C277.082 1728.84 277.786 1728.66 278.65 1728.66C279.514 1728.66 280.218 1728.84 280.762 1729.19C281.306 1729.51 281.69 1729.96 281.914 1730.53C282.17 1731.08 282.298 1731.69 282.298 1732.36C282.298 1733.03 282.17 1733.65 281.914 1734.23C281.69 1734.81 281.306 1735.25 280.762 1735.57C280.218 1735.93 279.514 1736.1 278.65 1736.1ZM278.65 1707.54C277.786 1707.54 277.082 1707.38 276.538 1707.06C276.026 1706.71 275.642 1706.25 275.386 1705.67C275.162 1705.09 275.05 1704.47 275.05 1703.8C275.05 1703.13 275.162 1702.52 275.386 1701.97C275.642 1701.4 276.026 1700.95 276.538 1700.63C277.082 1700.28 277.786 1700.1 278.65 1700.1C279.514 1700.1 280.218 1700.28 280.762 1700.63C281.306 1700.95 281.69 1701.4 281.914 1701.97C282.17 1702.52 282.298 1703.13 282.298 1703.8C282.298 1704.47 282.17 1705.09 281.914 1705.67C281.69 1706.25 281.306 1706.71 280.762 1707.06C280.218 1707.38 279.514 1707.54 278.65 1707.54ZM292.906 1721.7C291.914 1721.7 291.05 1721.43 290.314 1720.89C289.578 1720.34 289.21 1719.41 289.21 1718.1C289.21 1716.79 289.578 1715.86 290.314 1715.32C291.05 1714.74 291.914 1714.45 292.906 1714.45C293.93 1714.45 294.81 1714.74 295.546 1715.32C296.282 1715.86 296.65 1716.79 296.65 1718.1C296.65 1719.41 296.282 1720.34 295.546 1720.89C294.81 1721.43 293.93 1721.7 292.906 1721.7Z" fill="black"/>
<path d="M732.987 1166.52C733.792 1166.66 734.739 1166.75 735.827 1166.8C736.916 1166.85 737.839 1166.87 738.596 1166.87H771.114C771.966 1166.87 772.889 1166.85 773.883 1166.8C774.877 1166.75 775.8 1166.66 776.652 1166.52V1175.46C775.753 1175.37 774.806 1175.3 773.812 1175.25C772.818 1175.2 771.919 1175.18 771.114 1175.18H738.596C737.839 1175.18 736.916 1175.2 735.827 1175.25C734.739 1175.3 733.792 1175.37 732.987 1175.46V1166.52ZM749.672 1202.87V1171.41H758.973V1202.87H749.672ZM729.366 1197.61C730.266 1197.71 731.236 1197.8 732.277 1197.9C733.319 1197.99 734.289 1198.04 735.188 1198.04H774.451C775.445 1198.04 776.392 1197.99 777.291 1197.9C778.238 1197.76 779.09 1197.66 779.847 1197.61V1206.91C779.09 1206.77 778.143 1206.68 777.007 1206.63C775.919 1206.58 775.067 1206.56 774.451 1206.56H735.188C734.336 1206.56 733.39 1206.58 732.348 1206.63C731.307 1206.68 730.313 1206.77 729.366 1206.91V1197.61Z" fill="black"/>
<path d="M711.119 1157.72C710.788 1158.38 710.48 1159.18 710.196 1160.13C709.96 1161.03 709.747 1161.88 709.557 1162.69C709.179 1164.39 708.682 1166.33 708.066 1168.51C707.451 1170.68 706.717 1172.93 705.865 1175.25C705.013 1177.57 703.996 1179.87 702.812 1182.14C701.676 1184.41 700.375 1186.54 698.907 1188.53C696.777 1191.32 694.292 1193.97 691.452 1196.48C688.612 1198.94 685.441 1201.17 681.938 1203.16C678.436 1205.1 674.578 1206.75 670.365 1208.13L662.626 1199.68C667.312 1198.54 671.359 1197.14 674.767 1195.49C678.223 1193.78 681.228 1191.89 683.784 1189.81C686.34 1187.68 688.565 1185.41 690.458 1182.99C692.02 1181 693.346 1178.85 694.434 1176.53C695.57 1174.21 696.493 1171.87 697.203 1169.5C697.961 1167.13 698.481 1164.96 698.765 1162.97C698.055 1162.97 696.872 1162.97 695.215 1162.97C693.606 1162.97 691.689 1162.97 689.464 1162.97C687.287 1162.97 684.991 1162.97 682.577 1162.97C680.211 1162.97 677.915 1162.97 675.69 1162.97C673.466 1162.97 671.454 1162.97 669.655 1162.97C667.904 1162.97 666.579 1162.97 665.679 1162.97C664.07 1162.97 662.484 1162.99 660.922 1163.04C659.408 1163.09 658.177 1163.16 657.23 1163.25V1153.24C657.988 1153.29 658.863 1153.36 659.857 1153.46C660.851 1153.55 661.893 1153.64 662.981 1153.74C664.07 1153.79 664.993 1153.81 665.75 1153.81C666.46 1153.81 667.525 1153.81 668.945 1153.81C670.365 1153.81 671.998 1153.81 673.844 1153.81C675.69 1153.81 677.607 1153.81 679.595 1153.81C681.631 1153.81 683.642 1153.81 685.63 1153.81C687.618 1153.81 689.488 1153.81 691.239 1153.81C692.991 1153.81 694.505 1153.81 695.783 1153.81C697.109 1153.81 698.032 1153.81 698.552 1153.81C699.262 1153.81 700.138 1153.79 701.179 1153.74C702.221 1153.64 703.191 1153.48 704.09 1153.24L711.119 1157.72Z" fill="black"/>
<path d="M614.772 1148.05C614.677 1148.86 614.582 1149.9 614.488 1151.18C614.44 1152.46 614.393 1153.52 614.346 1154.37C614.156 1161.43 613.565 1167.7 612.571 1173.19C611.577 1178.63 610.157 1183.46 608.311 1187.67C606.465 1191.89 604.122 1195.67 601.282 1199.03C598.442 1202.35 595.057 1205.4 591.129 1208.19L582.893 1201.52C584.36 1200.67 585.922 1199.67 587.579 1198.54C589.283 1197.35 590.821 1196.03 592.194 1194.56C594.513 1192.29 596.477 1189.8 598.087 1187.1C599.696 1184.36 600.974 1181.38 601.921 1178.16C602.915 1174.89 603.648 1171.32 604.122 1167.44C604.595 1163.56 604.832 1159.27 604.832 1154.59C604.832 1154.07 604.808 1153.4 604.761 1152.6C604.713 1151.75 604.642 1150.92 604.548 1150.11C604.5 1149.31 604.429 1148.62 604.335 1148.05H614.772ZM638.912 1163.25C638.817 1163.82 638.699 1164.48 638.557 1165.24C638.462 1165.99 638.415 1166.59 638.415 1167.01C638.367 1168.53 638.273 1170.47 638.131 1172.83C638.036 1175.2 637.87 1177.76 637.634 1180.5C637.444 1183.2 637.184 1185.9 636.853 1188.6C636.569 1191.29 636.214 1193.8 635.788 1196.12C635.362 1198.39 634.841 1200.26 634.226 1201.73C633.468 1203.53 632.356 1204.88 630.889 1205.78C629.469 1206.72 627.528 1207.2 625.067 1207.2C623.031 1207.2 620.996 1207.13 618.961 1206.98C616.925 1206.89 615.032 1206.77 613.281 1206.63L612.216 1197.12C613.967 1197.45 615.718 1197.71 617.47 1197.9C619.221 1198.04 620.783 1198.11 622.156 1198.11C623.339 1198.11 624.215 1197.92 624.783 1197.54C625.351 1197.12 625.824 1196.48 626.203 1195.62C626.581 1194.68 626.936 1193.42 627.268 1191.86C627.599 1190.3 627.883 1188.55 628.12 1186.61C628.356 1184.67 628.546 1182.66 628.688 1180.57C628.877 1178.49 628.995 1176.48 629.043 1174.54C629.137 1172.55 629.185 1170.8 629.185 1169.28H594.537C593.353 1169.28 591.886 1169.31 590.135 1169.35C588.383 1169.35 586.727 1169.43 585.165 1169.57V1160.27C586.679 1160.41 588.289 1160.53 589.993 1160.62C591.697 1160.72 593.211 1160.76 594.537 1160.76H627.41C628.309 1160.76 629.208 1160.72 630.108 1160.62C631.054 1160.53 631.93 1160.41 632.735 1160.27L638.912 1163.25Z" fill="black"/>
<path d="M523.111 1151.04C524.342 1151.89 525.786 1152.93 527.442 1154.16C529.099 1155.39 530.803 1156.74 532.554 1158.21C534.353 1159.63 536.033 1161.03 537.595 1162.4C539.157 1163.77 540.435 1165 541.429 1166.09L534.187 1173.48C533.288 1172.48 532.105 1171.3 530.637 1169.93C529.17 1168.55 527.584 1167.13 525.88 1165.67C524.176 1164.2 522.496 1162.8 520.839 1161.48C519.183 1160.15 517.715 1159.04 516.437 1158.14L523.111 1151.04ZM514.236 1198.33C517.928 1197.8 521.407 1197.07 524.673 1196.12C527.939 1195.18 530.969 1194.09 533.761 1192.86C536.554 1191.63 539.11 1190.35 541.429 1189.02C545.453 1186.61 549.145 1183.86 552.505 1180.79C555.866 1177.71 558.801 1174.52 561.309 1171.2C563.818 1167.84 565.806 1164.58 567.273 1161.41L572.811 1171.42C571.013 1174.59 568.788 1177.76 566.137 1180.93C563.534 1184.1 560.576 1187.13 557.262 1190.02C553.949 1192.86 550.375 1195.41 546.541 1197.69C544.127 1199.15 541.524 1200.55 538.731 1201.88C535.939 1203.15 532.98 1204.29 529.856 1205.28C526.78 1206.32 523.561 1207.13 520.2 1207.7L514.236 1198.33Z" fill="black"/>
<path d="M472.772 1148.05C472.677 1148.86 472.582 1149.9 472.488 1151.18C472.44 1152.46 472.393 1153.52 472.346 1154.37C472.156 1161.43 471.565 1167.7 470.571 1173.19C469.577 1178.63 468.157 1183.46 466.311 1187.67C464.465 1191.89 462.122 1195.67 459.282 1199.03C456.442 1202.35 453.057 1205.4 449.129 1208.19L440.893 1201.52C442.36 1200.67 443.922 1199.67 445.579 1198.54C447.283 1197.35 448.821 1196.03 450.194 1194.56C452.513 1192.29 454.477 1189.8 456.087 1187.1C457.696 1184.36 458.974 1181.38 459.921 1178.16C460.915 1174.89 461.648 1171.32 462.122 1167.44C462.595 1163.56 462.832 1159.27 462.832 1154.59C462.832 1154.07 462.808 1153.4 462.761 1152.6C462.713 1151.75 462.642 1150.92 462.548 1150.11C462.5 1149.31 462.429 1148.62 462.335 1148.05H472.772ZM496.912 1163.25C496.817 1163.82 496.699 1164.48 496.557 1165.24C496.462 1165.99 496.415 1166.59 496.415 1167.01C496.367 1168.53 496.273 1170.47 496.131 1172.83C496.036 1175.2 495.87 1177.76 495.634 1180.5C495.444 1183.2 495.184 1185.9 494.853 1188.6C494.569 1191.29 494.214 1193.8 493.788 1196.12C493.362 1198.39 492.841 1200.26 492.226 1201.73C491.468 1203.53 490.356 1204.88 488.889 1205.78C487.469 1206.72 485.528 1207.2 483.067 1207.2C481.031 1207.2 478.996 1207.13 476.961 1206.98C474.925 1206.89 473.032 1206.77 471.281 1206.63L470.216 1197.12C471.967 1197.45 473.718 1197.71 475.47 1197.9C477.221 1198.04 478.783 1198.11 480.156 1198.11C481.339 1198.11 482.215 1197.92 482.783 1197.54C483.351 1197.12 483.824 1196.48 484.203 1195.62C484.581 1194.68 484.936 1193.42 485.268 1191.86C485.599 1190.3 485.883 1188.55 486.12 1186.61C486.356 1184.67 486.546 1182.66 486.688 1180.57C486.877 1178.49 486.995 1176.48 487.043 1174.54C487.137 1172.55 487.185 1170.8 487.185 1169.28H452.537C451.353 1169.28 449.886 1169.31 448.135 1169.35C446.383 1169.35 444.727 1169.43 443.165 1169.57V1160.27C444.679 1160.41 446.289 1160.53 447.993 1160.62C449.697 1160.72 451.211 1160.76 452.537 1160.76H485.41C486.309 1160.76 487.208 1160.72 488.108 1160.62C489.054 1160.53 489.93 1160.41 490.735 1160.27L496.912 1163.25Z" fill="black"/>
<path d="M421.013 1149.91C420.966 1150.9 420.895 1151.99 420.8 1153.17C420.753 1154.31 420.729 1155.59 420.729 1157.01C420.729 1158.24 420.729 1159.73 420.729 1161.48C420.729 1163.23 420.729 1164.98 420.729 1166.73C420.729 1168.44 420.729 1169.88 420.729 1171.06C420.729 1174.85 420.54 1178.16 420.161 1181C419.83 1183.84 419.309 1186.33 418.599 1188.46C417.889 1190.59 417.014 1192.48 415.972 1194.14C414.978 1195.75 413.819 1197.29 412.493 1198.75C410.931 1200.46 409.133 1202 407.097 1203.37C405.062 1204.69 403.003 1205.81 400.92 1206.71C398.885 1207.65 396.992 1208.41 395.24 1208.98L387.785 1201.17C391.335 1200.36 394.53 1199.25 397.37 1197.83C400.258 1196.36 402.766 1194.49 404.896 1192.22C406.127 1190.85 407.121 1189.48 407.878 1188.1C408.636 1186.73 409.204 1185.22 409.582 1183.56C410.008 1181.86 410.292 1179.94 410.434 1177.81C410.624 1175.68 410.718 1173.24 410.718 1170.5C410.718 1169.27 410.718 1167.8 410.718 1166.09C410.718 1164.39 410.718 1162.71 410.718 1161.05C410.718 1159.4 410.718 1158.05 410.718 1157.01C410.718 1155.59 410.671 1154.31 410.576 1153.17C410.529 1151.99 410.434 1150.9 410.292 1149.91H421.013ZM388.069 1150.47C388.022 1151.33 387.975 1152.18 387.927 1153.03C387.88 1153.83 387.856 1154.81 387.856 1155.94C387.856 1156.46 387.856 1157.31 387.856 1158.5C387.856 1159.68 387.856 1161.08 387.856 1162.69C387.856 1164.25 387.856 1165.9 387.856 1167.66C387.856 1169.36 387.856 1171.02 387.856 1172.63C387.856 1174.24 387.856 1175.7 387.856 1177.03C387.856 1178.31 387.856 1179.28 387.856 1179.94C387.856 1180.84 387.88 1181.88 387.927 1183.06C387.975 1184.25 388.022 1185.26 388.069 1186.12H377.774C377.822 1185.45 377.893 1184.51 377.987 1183.28C378.082 1182.05 378.129 1180.91 378.129 1179.87C378.129 1179.21 378.129 1178.24 378.129 1176.96C378.129 1175.68 378.129 1174.24 378.129 1172.63C378.129 1170.97 378.129 1169.29 378.129 1167.59C378.129 1165.83 378.129 1164.18 378.129 1162.62C378.129 1161.05 378.129 1159.68 378.129 1158.5C378.129 1157.31 378.129 1156.46 378.129 1155.94C378.129 1155.28 378.106 1154.43 378.058 1153.39C378.011 1152.3 377.94 1151.33 377.845 1150.47H388.069Z" fill="black"/>
<path d="M344.333 1161.55C344.333 1162.78 344.759 1163.85 345.611 1164.75C346.511 1165.6 347.576 1166.02 348.806 1166.02C350.084 1166.02 351.149 1165.6 352.001 1164.75C352.901 1163.85 353.35 1162.78 353.35 1161.55C353.35 1160.27 352.901 1159.21 352.001 1158.36C351.149 1157.46 350.084 1157.01 348.806 1157.01C347.576 1157.01 346.511 1157.46 345.611 1158.36C344.759 1159.21 344.333 1160.27 344.333 1161.55ZM339.647 1161.55C339.647 1159.8 340.05 1158.24 340.854 1156.86C341.706 1155.49 342.819 1154.4 344.191 1153.6C345.564 1152.75 347.102 1152.32 348.806 1152.32C350.558 1152.32 352.12 1152.75 353.492 1153.6C354.865 1154.4 355.954 1155.49 356.758 1156.86C357.61 1158.24 358.036 1159.8 358.036 1161.55C358.036 1163.21 357.61 1164.75 356.758 1166.17C355.954 1167.54 354.865 1168.65 353.492 1169.5C352.12 1170.31 350.558 1170.71 348.806 1170.71C347.102 1170.71 345.564 1170.31 344.191 1169.5C342.819 1168.65 341.706 1167.54 340.854 1166.17C340.05 1164.75 339.647 1163.21 339.647 1161.55ZM295.485 1184.77C296.574 1183.87 297.544 1183.02 298.396 1182.21C299.248 1181.41 300.242 1180.46 301.378 1179.37C302.183 1178.52 303.106 1177.5 304.147 1176.32C305.189 1175.13 306.301 1173.81 307.484 1172.34C308.715 1170.87 309.969 1169.38 311.247 1167.87C312.525 1166.31 313.78 1164.79 315.01 1163.33C317.093 1160.82 319.247 1159.44 321.471 1159.21C323.696 1158.92 326.181 1160.11 328.926 1162.76C330.536 1164.22 332.169 1165.81 333.825 1167.51C335.529 1169.22 337.186 1170.92 338.795 1172.63C340.452 1174.33 341.99 1175.96 343.41 1177.53C345.02 1179.18 346.818 1181.1 348.806 1183.28C350.842 1185.45 352.901 1187.68 354.983 1189.95C357.113 1192.22 359.078 1194.33 360.876 1196.27L353.066 1204.65C351.504 1202.66 349.824 1200.58 348.025 1198.4C346.227 1196.22 344.475 1194.12 342.771 1192.08C341.067 1190 339.505 1188.15 338.085 1186.54C337.091 1185.31 335.955 1184.01 334.677 1182.64C333.447 1181.22 332.216 1179.82 330.985 1178.45C329.755 1177.08 328.619 1175.84 327.577 1174.76C326.536 1173.67 325.708 1172.79 325.092 1172.13C323.909 1170.99 322.891 1170.47 322.039 1170.57C321.235 1170.61 320.312 1171.28 319.27 1172.56C318.608 1173.45 317.803 1174.52 316.856 1175.75C315.91 1176.98 314.939 1178.28 313.945 1179.66C312.951 1181.03 311.981 1182.35 311.034 1183.63C310.135 1184.91 309.33 1186.02 308.62 1186.97C307.816 1188.1 307.011 1189.26 306.206 1190.45C305.402 1191.58 304.668 1192.62 304.005 1193.57L295.485 1184.77Z" fill="black"/>
</svg>
