<svg width="1080" height="1920" viewBox="0 0 1080 1920" fill="none" xmlns="http://www.w3.org/2000/svg">
<path d="M1080 1920L1080 0L0 0L0 1920H1080Z" fill="#A5D4AD"/>
<path d="M1020 983.72V95C1020 75.67 1004.33 60 985 60H95.58C75.93 60 60 75.93 60 95.58V983.71C60 984.03 60.25 984.28 60.57 984.28C80.03 984.59 95.71 1000.46 95.71 1019.99C95.71 1039.52 80.03 1055.39 60.57 1055.7C60.25 1055.7 60 1055.96 60 1056.27V1824.99C60 1844.32 75.67 1859.99 95 1859.99H985C1004.33 1859.99 1020 1844.32 1020 1824.99V1056.27C1020 1055.95 1019.75 1055.7 1019.43 1055.7C999.97 1055.39 984.29 1039.52 984.29 1019.99C984.29 1000.46 999.97 984.59 1019.43 984.28C1019.75 984.28 1020 984.02 1020 983.71V983.72Z" fill="white"/>
<path d="M60.57 1055.71C60.25 1055.71 60 1055.97 60 1056.28V1825C60 1844.33 75.67 1860 95 1860H985C1004.33 1860 1020 1844.33 1020 1825V1056.28C1020 1055.96 1019.75 1055.71 1019.43 1055.71C999.97 1055.4 984.29 1039.53 984.29 1020H95.71C95.71 1039.53 80.03 1055.4 60.57 1055.71Z" fill="#E5F2E6"/>
<path d="M121 1020H160.9" stroke="black" stroke-width="6" stroke-miterlimit="10"/>
<path d="M187.51 1020H227.41" stroke="black" stroke-width="6" stroke-miterlimit="10"/>
<path d="M254.02 1020H293.92" stroke="black" stroke-width="6" stroke-miterlimit="10"/>
<path d="M320.52 1020H360.43" stroke="black" stroke-width="6" stroke-miterlimit="10"/>
<path d="M387.03 1020H426.94" stroke="black" stroke-width="6" stroke-miterlimit="10"/>
<path d="M453.54 1020H493.44" stroke="black" stroke-width="6" stroke-miterlimit="10"/>
<path d="M520.05 1020H559.95" stroke="black" stroke-width="6" stroke-miterlimit="10"/>
<path d="M586.56 1020H626.46" stroke="black" stroke-width="6" stroke-miterlimit="10"/>
<path d="M653.06 1020H692.97" stroke="black" stroke-width="6" stroke-miterlimit="10"/>
<path d="M719.57 1020H759.48" stroke="black" stroke-width="6" stroke-miterlimit="10"/>
<path d="M786.08 1020H825.98" stroke="black" stroke-width="6" stroke-miterlimit="10"/>
<path d="M852.59 1020H892.49" stroke="black" stroke-width="6" stroke-miterlimit="10"/>
<path d="M919.1 1020H959" stroke="black" stroke-width="6" stroke-miterlimit="10"/>
<path d="M1020 984.29V95C1020 75.67 1004.33 60 985 60H95C75.67 60 60 75.67 60 95V984.29C79.72 984.29 95.71 1000.28 95.71 1020C95.71 1039.72 79.72 1055.71 60 1055.71V1825C60 1844.33 75.67 1860 95 1860H985C1004.33 1860 1020 1844.33 1020 1825V1055.71C1000.28 1055.71 984.29 1039.72 984.29 1020C984.29 1000.28 1000.28 984.29 1020 984.29Z" stroke="black" stroke-width="6" stroke-miterlimit="10"/>
<path d="M912.649 525.666C908.779 525.666 905.539 522.646 905.319 518.736C900.589 435.626 868.789 358.856 813.369 296.746C810.669 293.716 810.929 289.066 813.959 286.366C816.989 283.666 821.629 283.926 824.339 286.956C881.999 351.576 915.069 431.436 919.999 517.896C920.229 521.946 917.129 525.426 913.079 525.656C912.939 525.656 912.799 525.666 912.659 525.666H912.649Z" fill="black"/>
<path d="M818.849 795.517C817.109 795.517 815.359 794.897 813.959 793.647C810.929 790.947 810.669 786.297 813.369 783.267C868.789 721.157 900.589 644.387 905.319 561.277C905.549 557.227 909.029 554.117 913.079 554.357C917.129 554.587 920.229 558.057 919.999 562.117C915.069 648.587 881.999 728.447 824.339 793.057C822.889 794.687 820.869 795.517 818.849 795.517Z" fill="black"/>
<path d="M167.36 525.666C167.22 525.666 167.08 525.666 166.94 525.656C162.89 525.426 159.79 521.956 160.02 517.896C164.95 431.426 198.02 351.566 255.68 286.956C258.38 283.926 263.03 283.666 266.06 286.366C269.09 289.066 269.35 293.716 266.65 296.746C211.23 358.856 179.43 435.616 174.7 518.736C174.48 522.646 171.24 525.666 167.37 525.666H167.36Z" fill="black"/>
<path d="M261.17 795.517C259.15 795.517 257.13 794.687 255.68 793.057C198.02 728.437 164.95 648.577 160.02 562.117C159.79 558.067 162.89 554.587 166.94 554.357C170.99 554.117 174.47 557.227 174.7 561.277C179.43 644.397 211.23 721.157 266.65 783.267C269.35 786.297 269.09 790.947 266.06 793.647C264.66 794.897 262.91 795.517 261.17 795.517Z" fill="black"/>
<path d="M788.169 268.511C786.429 268.511 784.679 267.891 783.279 266.641C721.169 211.221 644.399 179.421 561.289 174.691C557.239 174.461 554.139 170.991 554.369 166.931C554.599 162.881 558.039 159.791 562.129 160.011C648.599 164.941 728.459 198.011 793.069 255.671C796.099 258.371 796.359 263.021 793.659 266.051C792.209 267.681 790.189 268.511 788.169 268.511Z" fill="black"/>
<path d="M291.85 268.512C289.83 268.512 287.81 267.682 286.36 266.052C283.66 263.022 283.92 258.372 286.95 255.672C351.57 198.012 431.43 164.942 517.89 160.012C521.94 159.782 525.42 162.882 525.65 166.932C525.88 170.982 522.78 174.462 518.73 174.692C435.62 179.422 358.85 211.222 296.74 266.642C295.34 267.892 293.59 268.512 291.85 268.512Z" fill="black"/>
<path d="M561.69 920.006C557.82 920.006 554.58 916.986 554.36 913.076C554.13 909.026 557.23 905.546 561.28 905.316C644.4 900.586 721.16 868.786 783.27 813.366C786.3 810.666 790.95 810.926 793.65 813.956C796.35 816.986 796.09 821.636 793.06 824.336C728.44 881.996 648.58 915.066 562.12 919.996C561.98 919.996 561.84 920.006 561.7 920.006H561.69Z" fill="black"/>
<path d="M518.319 920.006C518.179 920.006 518.04 920.006 517.9 919.996C431.43 915.066 351.569 881.996 286.959 824.336C283.929 821.636 283.669 816.986 286.369 813.956C289.069 810.926 293.719 810.666 296.749 813.366C358.859 868.786 435.629 900.586 518.739 905.316C522.789 905.546 525.889 909.016 525.659 913.076C525.439 916.986 522.199 920.006 518.329 920.006H518.319Z" fill="black"/>
<path d="M875.38 526.189C872.37 526.189 869.85 523.839 869.68 520.799C865.41 445.789 836.71 376.519 786.7 320.459C784.6 318.099 784.8 314.489 787.16 312.389C789.51 310.289 793.13 310.489 795.23 312.849C846.98 370.849 876.68 442.539 881.1 520.149C881.28 523.299 878.87 525.999 875.72 526.179C875.61 526.179 875.5 526.179 875.39 526.179L875.38 526.189Z" fill="black"/>
<path d="M790.96 769.062C789.6 769.062 788.25 768.582 787.16 767.612C784.8 765.512 784.6 761.892 786.7 759.542C836.71 703.492 865.41 634.212 869.68 559.202C869.86 556.052 872.55 553.642 875.71 553.822C878.86 554.002 881.27 556.702 881.09 559.852C876.67 637.472 846.98 709.152 795.22 767.152C794.09 768.422 792.52 769.062 790.95 769.062H790.96Z" fill="black"/>
<path d="M204.63 526.187C204.52 526.187 204.41 526.187 204.3 526.187C201.15 526.007 198.74 523.307 198.92 520.157C203.34 442.537 233.03 370.857 284.79 312.857C286.89 310.497 290.51 310.297 292.86 312.397C295.22 314.497 295.42 318.117 293.32 320.467C243.31 376.517 214.61 445.797 210.34 520.807C210.17 523.847 207.65 526.197 204.64 526.197L204.63 526.187Z" fill="black"/>
<path d="M289.05 769.055C287.48 769.055 285.91 768.405 284.78 767.145C233.03 709.145 203.33 637.455 198.91 559.845C198.73 556.695 201.14 553.995 204.29 553.815C207.45 553.625 210.14 556.045 210.32 559.195C214.59 634.205 243.29 703.485 293.3 759.535C295.4 761.895 295.2 765.505 292.84 767.605C291.75 768.575 290.39 769.055 289.04 769.055H289.05Z" fill="black"/>
<path d="M763.35 294.756C761.99 294.756 760.64 294.276 759.55 293.306C703.5 243.296 634.22 214.596 559.21 210.326C556.06 210.146 553.65 207.446 553.83 204.296C554.01 201.146 556.7 198.736 559.86 198.916C637.48 203.336 709.16 233.026 767.16 284.786C769.52 286.886 769.72 290.506 767.62 292.856C766.49 294.126 764.92 294.766 763.35 294.766V294.756Z" fill="black"/>
<path d="M316.66 294.759C315.09 294.759 313.52 294.109 312.39 292.849C310.29 290.489 310.49 286.879 312.85 284.779C370.85 233.029 442.54 203.329 520.15 198.909C523.3 198.719 526 201.139 526.18 204.289C526.36 207.439 523.95 210.139 520.8 210.319C445.79 214.589 376.52 243.289 320.46 293.299C319.37 294.269 318.01 294.749 316.66 294.749V294.759Z" fill="black"/>
<path d="M559.53 881.102C556.52 881.102 554 878.752 553.83 875.712C553.65 872.562 556.06 869.862 559.21 869.682C634.22 865.412 703.49 836.712 759.55 786.702C761.9 784.602 765.52 784.802 767.62 787.162C769.72 789.522 769.52 793.132 767.16 795.232C709.16 846.982 637.47 876.682 559.86 881.102C559.75 881.102 559.64 881.102 559.53 881.102Z" fill="black"/>
<path d="M520.49 881.102C520.38 881.102 520.27 881.102 520.16 881.102C442.54 876.682 370.86 846.992 312.86 795.232C310.5 793.132 310.3 789.512 312.4 787.162C314.5 784.802 318.12 784.602 320.47 786.702C376.52 836.722 445.8 865.412 520.81 869.682C523.96 869.862 526.37 872.562 526.19 875.712C526.02 878.752 523.5 881.102 520.49 881.102Z" fill="black"/>
<path d="M841.85 526.514C839.7 526.514 837.9 524.834 837.78 522.664C833.92 454.914 808 392.344 762.83 341.714C761.33 340.034 761.48 337.454 763.16 335.944C764.84 334.444 767.42 334.584 768.93 336.274C815.35 388.294 841.98 452.584 845.94 522.194C846.07 524.444 844.35 526.374 842.09 526.504C842.01 526.504 841.93 526.504 841.85 526.504V526.514Z" fill="black"/>
<path d="M765.87 745.106C764.9 745.106 763.93 744.766 763.15 744.066C761.47 742.566 761.32 739.986 762.82 738.296C807.99 687.666 833.91 625.096 837.77 557.346C837.9 555.096 839.86 553.396 842.08 553.496C844.33 553.626 846.05 555.556 845.93 557.806C841.96 627.416 815.33 691.706 768.92 743.726C768.11 744.626 766.99 745.086 765.87 745.086V745.106Z" fill="black"/>
<path d="M238.17 526.516C238.09 526.516 238.01 526.516 237.93 526.516C235.68 526.386 233.96 524.456 234.08 522.206C238.05 452.596 264.68 388.306 311.09 336.286C312.59 334.606 315.17 334.456 316.86 335.956C318.54 337.456 318.69 340.036 317.19 341.726C272.02 392.356 246.1 454.926 242.24 522.676C242.12 524.846 240.32 526.526 238.17 526.526V526.516Z" fill="black"/>
<path d="M314.14 745.103C313.02 745.103 311.9 744.643 311.09 743.743C264.67 691.723 238.04 627.433 234.08 557.823C233.95 555.573 235.67 553.643 237.93 553.513C240.17 553.403 242.11 555.103 242.24 557.363C246.1 625.113 272.02 687.683 317.19 738.313C318.69 739.993 318.54 742.573 316.86 744.083C316.08 744.773 315.11 745.123 314.14 745.123V745.103Z" fill="black"/>
<path d="M741.02 318.225C740.05 318.225 739.08 317.885 738.3 317.185C687.67 272.015 625.1 246.095 557.35 242.235C555.1 242.105 553.38 240.175 553.5 237.925C553.63 235.675 555.55 233.965 557.81 234.075C627.42 238.045 691.71 264.675 743.74 311.085C745.42 312.585 745.57 315.165 744.07 316.855C743.26 317.755 742.14 318.215 741.02 318.215V318.225Z" fill="black"/>
<path d="M339 318.224C337.88 318.224 336.76 317.764 335.95 316.864C334.45 315.184 334.6 312.604 336.28 311.094C388.3 264.674 452.59 238.044 522.2 234.084C524.45 233.964 526.38 235.674 526.51 237.934C526.64 240.184 524.92 242.114 522.66 242.244C454.91 246.104 392.34 272.024 341.71 317.194C340.93 317.884 339.96 318.234 338.99 318.234L339 318.224Z" fill="black"/>
<path d="M557.57 845.933C555.42 845.933 553.62 844.253 553.5 842.083C553.37 839.833 555.09 837.903 557.35 837.773C625.1 833.913 687.67 807.993 738.3 762.823C739.98 761.323 742.56 761.473 744.07 763.153C745.57 764.833 745.42 767.413 743.74 768.923C691.72 815.343 627.43 841.973 557.81 845.933C557.73 845.933 557.65 845.933 557.57 845.933Z" fill="black"/>
<path d="M522.44 845.933C522.36 845.933 522.28 845.933 522.2 845.933C452.59 841.963 388.3 815.333 336.28 768.923C334.6 767.423 334.45 764.843 335.95 763.153C337.45 761.473 340.03 761.323 341.72 762.823C392.35 807.993 454.92 833.913 522.67 837.773C524.92 837.903 526.64 839.833 526.52 842.083C526.4 844.253 524.6 845.933 522.45 845.933H522.44Z" fill="black"/>
<path d="M320.65 546.174C320.65 544.604 321.79 543.274 323.34 543.024C324.64 542.814 326.27 542.524 327.98 542.124C332.4 541.084 337.59 539.114 343.41 536.274C349.29 533.404 354.92 529.414 359.17 523.674C366.34 513.974 367.86 501.404 368.19 496.894C368.26 495.974 367.53 495.194 366.6 495.194H317.09C315.33 495.194 313.91 493.764 313.91 492.014V470.694C313.91 468.934 315.34 467.514 317.09 467.514H367.07C367.95 467.514 368.66 466.804 368.66 465.924V447.184C368.66 446.304 367.95 445.594 367.07 445.594H328.62C326.86 445.594 325.44 444.164 325.44 442.414V421.094C325.44 419.334 326.87 417.914 328.62 417.914H428.96C430.72 417.914 432.14 419.344 432.14 421.094V442.414C432.14 444.174 430.71 445.594 428.96 445.594H398.52C397.64 445.594 396.93 446.304 396.93 447.184V465.924C396.93 466.804 397.64 467.514 398.52 467.514H438.58C440.34 467.514 441.76 468.944 441.76 470.694V492.014C441.76 493.774 440.33 495.194 438.58 495.194H398.39C397.54 495.194 396.84 495.864 396.8 496.714C396.57 501.754 395.15 518.444 386.18 532.854C380.73 541.614 373.65 548.264 366.54 553.544C359.41 558.844 352.26 562.934 345.27 565.704C338.24 568.494 332.34 570.444 327.75 571.514C326.66 571.764 325.49 571.994 324.4 572.184C322.45 572.534 320.66 571.034 320.66 569.044V546.164L320.65 546.174Z" fill="black"/>
<path d="M474.55 546.522C474.55 545.062 475.55 543.792 476.96 543.432C485.21 541.362 488.93 540.112 496.84 536.322C496.84 536.322 500.89 534.212 504.93 531.302C517.11 522.542 525.22 510.632 525.22 510.632C534.68 497.282 537.77 474.912 538.49 468.492C538.6 467.552 537.86 466.722 536.91 466.722H500.58C500.35 466.722 500.14 466.842 500.03 467.042L499.88 467.292C494.3 478.112 486.88 487.992 480.45 494.242C474 500.502 468.59 505.052 464.38 507.752L461.78 509.422C460.72 510.102 459.33 509.342 459.33 508.082V479.892C459.33 478.952 459.75 478.062 460.47 477.452C461.12 476.902 461.99 476.132 463.18 475.062C465.94 472.572 469.05 468.512 472.42 462.982C475.76 457.512 479.35 450.212 483.07 441.292C486.45 433.202 488.98 423.092 490.86 412.062C491.12 410.532 492.45 409.422 494 409.422H513.91C515.91 409.422 517.42 411.252 517.04 413.212C516.4 416.522 515.71 420.882 514.85 424.312C513.58 429.392 512.76 432.302 511.24 436.722C510.98 437.472 511.54 438.242 512.33 438.242H591.18C592.94 438.242 594.36 439.672 594.36 441.422V463.512C594.36 465.272 592.93 466.692 591.18 466.692H568.14C567.33 466.692 566.64 467.302 566.56 468.112C565.93 474.012 562.88 497.162 552.39 517.262C538.29 546.002 508.14 566.392 478.34 572.132C476.38 572.512 474.56 571.002 474.56 569.002V546.482L474.55 546.522Z" fill="black"/>
<path d="M675.9 411.035V468.875C675.9 469.755 676.61 470.465 677.49 470.465H764.52C765.4 470.465 766.11 469.755 766.11 468.875V411.035C766.11 410.155 765.4 409.445 764.52 409.445H677.49C676.61 409.445 675.9 410.155 675.9 411.035ZM738.46 452.745H702.3C701.42 452.745 700.71 452.035 700.71 451.155V446.875C700.71 445.995 701.42 445.285 702.3 445.285H738.46C739.34 445.285 740.05 445.995 740.05 446.875V451.155C740.05 452.035 739.34 452.745 738.46 452.745ZM738.46 434.455H702.3C701.42 434.455 700.71 433.745 700.71 432.865V428.755C700.71 427.875 701.42 427.165 702.3 427.165H738.46C739.34 427.165 740.05 427.875 740.05 428.755V432.865C740.05 433.745 739.34 434.455 738.46 434.455Z" fill="black"/>
<path d="M674.23 497.342H728.27C729.15 497.342 729.86 498.052 729.86 498.932V502.842C729.86 503.722 729.15 504.432 728.27 504.432H667.76C666 504.432 664.58 505.862 664.58 507.612V522.862C664.58 524.622 666.01 526.042 667.76 526.042H728.27C729.15 526.042 729.86 526.752 729.86 527.632V545.392C729.86 546.112 729.94 547.982 729.22 548.852C728.39 549.872 727.15 549.672 725.85 549.722C722.54 549.722 719.58 549.702 716.95 549.662C716.55 549.662 716.26 549.292 716.34 548.902C716.6 547.632 716.73 546.312 716.7 544.962C716.5 535.682 708.94 528.082 699.66 527.842C689.58 527.582 681.37 535.852 681.71 545.942C682.02 555.292 689.79 562.812 699.15 562.842C704.04 562.852 708.46 560.862 711.64 557.642C711.98 557.302 712.55 557.432 712.7 557.882C714.16 562.212 715.54 566.342 716.79 570.052C717.23 571.352 718.46 572.222 719.83 572.212C725.73 572.172 730.51 571.962 734.18 571.602C738.31 571.182 742.09 570.152 745.52 568.502C749.18 566.842 751.69 564.422 753.05 561.232C754.41 558.042 755.09 553.552 755.09 547.762V527.622C755.09 526.742 755.8 526.032 756.68 526.032H762.91C764.67 526.032 766.09 524.602 766.09 522.852V507.602C766.09 505.842 764.66 504.422 762.91 504.422H756.68C755.8 504.422 755.09 503.712 755.09 502.832V498.922C755.09 498.042 755.8 497.332 756.68 497.332H762.91C764.67 497.332 766.09 495.902 766.09 494.152V479.602C766.09 477.842 764.66 476.422 762.91 476.422H674.21C672.45 476.422 671.03 477.852 671.03 479.602V494.152C671.03 495.912 672.46 497.332 674.21 497.332L674.23 497.342Z" fill="black"/>
<path d="M668.83 409.445H650.26C649.4 409.445 648.58 409.795 647.98 410.405C635.23 423.355 618.29 434.575 612.13 438.485C610.78 439.335 610.28 441.065 610.95 442.505L620.7 463.575C621.63 465.575 624.26 466.055 625.83 464.505C646.12 444.465 664.45 419.805 670.12 411.965C670.88 410.915 670.12 409.445 668.83 409.445Z" fill="black"/>
<path d="M671.92 453.899V435.419C671.92 434.009 670.22 433.299 669.21 434.289C653.64 449.609 620.05 477.069 611.68 483.869C610.55 484.789 610.19 486.359 610.8 487.679L620.7 509.059C621.63 511.059 624.26 511.539 625.83 509.989C627.54 508.299 629.24 506.569 630.92 504.829C631.32 504.419 632.02 504.699 632.02 505.269V569.069C632.02 570.829 633.45 572.249 635.2 572.249H653.82C655.58 572.249 657 570.819 657 569.069V476.379C657 475.309 657.36 474.259 658.03 473.419C664.87 464.739 669.72 458.029 671.34 455.749C671.72 455.209 671.93 454.569 671.93 453.899H671.92Z" fill="black"/>
<path d="M653.271 623.338C640.851 623.338 634.811 628.288 634.811 638.478V655.608C634.811 665.678 640.851 670.568 653.271 670.568C659.141 670.568 663.481 669.488 666.561 667.278C670.001 664.808 671.741 660.878 671.741 655.598V638.468C671.741 628.278 665.701 623.328 653.281 623.328L653.271 623.338ZM646.091 639.308C646.091 633.938 648.841 632.918 653.271 632.918C657.701 632.918 660.451 633.958 660.451 639.308V654.688C660.451 659.958 657.601 660.988 653.271 660.988C648.941 660.988 646.091 659.988 646.091 654.688V639.308Z" fill="black"/>
<path d="M708.271 669.334H721.36L703.63 646.784L720.56 624.804H707.401L694.06 642.284V610.234H682.771V669.334H694.06V659.214L696.951 655.454L708.271 669.334Z" fill="black"/>
<path d="M754.82 624.805V653.295C754.82 659.045 751.88 660.895 746.83 660.895C743.56 660.895 740.28 660.355 740.28 653.885V624.815H729V656.775C729 665.745 733.71 670.485 742.62 670.485C749.3 670.485 753.88 666.865 755.58 662.805L757.39 669.345H766.11V624.815H754.83L754.82 624.805Z" fill="black"/>
<path d="M630.57 610.234H589.15V620.144V620.154H604.22V669.334H615.69V620.154H630.57V610.234Z" fill="black"/>
<path d="M459.69 669.334H472.78L455.05 646.784L471.98 624.804H458.82L445.48 642.284V610.234H434.2V669.334H445.48V659.214L448.37 655.454L459.69 669.334Z" fill="black"/>
<path d="M355.33 610.234H313.91V620.144V620.154H328.99V669.334H340.45V620.154H355.33V610.234Z" fill="black"/>
<path d="M421.8 658.896L421.2 659.046C417.62 659.966 413.29 660.896 409.41 660.896C404.86 660.896 401.69 658.826 401.69 652.836V640.976C401.69 634.906 404.86 632.826 409.41 632.826C413.36 632.826 417.88 633.706 421.23 634.406L421.81 634.526V625.196L421.5 625.126C417.69 624.236 412.05 623.336 407.53 623.336C402.01 623.336 397.97 624.406 395.17 626.596C391.97 629.096 390.42 633.856 390.42 639.346V654.646C390.42 664.776 396.02 670.566 407.54 670.566C411.41 670.566 417.27 669.496 421.53 668.316L421.82 668.236V658.886L421.8 658.896Z" fill="black"/>
<path d="M553.93 634.705V624.805H543.69V615.195H532.41V624.805H525.18V634.705H532.41V655.425C532.41 667.945 540.3 670.565 546.93 670.565C548.71 670.565 550.51 670.455 552.12 670.225V660.265C551.47 660.335 550.26 660.365 549.54 660.365C546.46 660.365 543.69 659.735 543.69 652.095V634.695H553.93V634.705Z" fill="black"/>
<path d="M489.74 650.742V650.562H515.17V641.482C515.17 635.572 513.55 630.243 510.36 627.343C507.42 624.673 502.78 623.312 497.26 623.312C485.08 623.312 478.46 629.223 478.46 639.593V654.453C478.46 664.703 483.84 670.552 496.32 670.552C500.98 670.552 506.29 669.563 511.97 668.403L512.36 668.323V659.052L511.71 659.203C507.14 660.253 504.62 661.143 500.29 661.143C494.08 661.143 489.74 658.623 489.74 652.203V650.722V650.742ZM489.74 639.722C489.74 634.072 493.8 632.742 497.17 632.742C500.54 632.742 504.07 634.072 504.07 639.722V643.232H489.74V642.713V639.722Z" fill="black"/>
<path d="M378.18 626.883H366.9V669.333H378.18V626.883Z" fill="black"/>
<path d="M372.54 622.224C376.422 622.224 379.57 619.077 379.57 615.194C379.57 611.312 376.422 608.164 372.54 608.164C368.657 608.164 365.51 611.312 365.51 615.194C365.51 619.077 368.657 622.224 372.54 622.224Z" fill="black"/>
<path d="M585.74 643.922H566.15V651.262H585.74V643.922Z" fill="black"/>
<path d="M778.857 1581C778.01 1581 777.284 1580.4 777.284 1579.43V1485.66C777.284 1484.93 777.889 1484.2 778.857 1484.2H823.143C824.111 1484.2 824.716 1484.81 824.716 1485.66V1495.09C824.716 1495.94 824.111 1496.55 823.143 1496.55H789.989V1526.43H822.054C822.901 1526.43 823.506 1527.04 823.506 1527.88V1537.08C823.506 1538.05 822.901 1538.77 822.054 1538.77H789.989V1579.43C789.989 1580.4 789.263 1581 788.416 1581H778.857Z" fill="black"/>
<path d="M710.204 1581C709.357 1581 708.631 1580.4 708.631 1579.43V1485.66C708.631 1484.93 709.236 1484.2 710.204 1484.2H754.49C755.458 1484.2 756.063 1484.81 756.063 1485.66V1495.09C756.063 1495.94 755.458 1496.55 754.49 1496.55H721.336V1526.43H753.401C754.248 1526.43 754.853 1527.04 754.853 1527.88V1537.08C754.853 1538.05 754.248 1538.77 753.401 1538.77H721.336V1579.43C721.336 1580.4 720.61 1581 719.763 1581H710.204Z" fill="black"/>
<path d="M640.647 1494.97C620.198 1494.97 603.742 1511.66 603.742 1532.48C603.742 1553.05 620.077 1570.23 640.526 1570.23C660.975 1570.23 677.673 1553.05 677.673 1532.6C677.673 1511.79 661.096 1494.97 640.647 1494.97ZM590.916 1532.48C590.916 1504.65 612.817 1482.38 640.647 1482.38C668.477 1482.38 690.499 1504.77 690.499 1532.6C690.499 1560.43 668.356 1582.81 640.526 1582.81C612.696 1582.81 590.916 1560.31 590.916 1532.48Z" fill="black"/>
<path d="M473.546 1485.89H568.41V1500.29H488.066V1591.77H473.546V1485.89ZM561.513 1485.89H576.154V1574.83C576.154 1578.7 575.67 1581.72 574.702 1583.9C573.734 1586.16 572 1587.89 569.499 1589.1C566.998 1590.31 563.852 1591.04 560.061 1591.28C556.35 1591.6 551.793 1591.77 546.388 1591.77C546.146 1590.39 545.743 1588.82 545.178 1587.05C544.613 1585.27 543.968 1583.5 543.242 1581.72C542.516 1580.03 541.79 1578.54 541.064 1577.25C543.403 1577.41 545.743 1577.53 548.082 1577.61C550.502 1577.61 552.64 1577.61 554.495 1577.61C556.35 1577.61 557.641 1577.61 558.367 1577.61C559.496 1577.53 560.303 1577.29 560.787 1576.88C561.271 1576.4 561.513 1575.63 561.513 1574.58V1485.89ZM481.411 1530.9H568.652V1545.18H481.411V1530.9ZM516.743 1493.76H531.263V1538.04H516.743V1493.76Z" fill="black"/>
<path d="M445.075 1532.48C445.075 1514.33 439.388 1494.72 424.263 1494.72C409.138 1494.72 403.451 1514.33 403.451 1532.48C403.451 1551.84 409.138 1570.47 424.263 1570.47C439.388 1570.47 445.075 1551.84 445.075 1532.48ZM390.746 1532.48C390.746 1508.28 400.063 1482.38 424.263 1482.38C448.463 1482.38 457.78 1508.28 457.78 1532.48C457.78 1559.1 448.463 1582.81 424.263 1582.81C400.063 1582.81 390.746 1559.1 390.746 1532.48Z" fill="black"/>
<path d="M365.905 1532.48C365.905 1514.33 360.218 1494.72 345.093 1494.72C329.968 1494.72 324.281 1514.33 324.281 1532.48C324.281 1551.84 329.968 1570.47 345.093 1570.47C360.218 1570.47 365.905 1551.84 365.905 1532.48ZM311.576 1532.48C311.576 1508.28 320.893 1482.38 345.093 1482.38C369.293 1482.38 378.61 1508.28 378.61 1532.48C378.61 1559.1 369.293 1582.81 345.093 1582.81C320.893 1582.81 311.576 1559.1 311.576 1532.48Z" fill="black"/>
<path d="M285.946 1484.2C286.793 1484.2 287.398 1484.81 287.398 1485.66V1579.43C287.398 1580.28 286.793 1581 285.946 1581H276.266C275.419 1581 274.814 1580.28 274.814 1579.43V1496.55H259.689C258.358 1496.55 257.753 1495.21 258.358 1494.37L264.408 1484.81C264.65 1484.45 265.134 1484.2 265.618 1484.2H285.946Z" fill="black"/>
<path d="M708.328 1364.5C708.168 1365.37 707.912 1366.49 707.56 1367.86C707.208 1369.24 706.696 1370.79 706.024 1372.52C705.512 1373.7 704.92 1374.94 704.248 1376.22C703.608 1377.46 702.952 1378.58 702.28 1379.58C702.696 1379.38 703.224 1379.22 703.864 1379.1C704.504 1378.94 705.16 1378.82 705.832 1378.76C706.536 1378.66 707.16 1378.62 707.704 1378.62C709.72 1378.62 711.384 1379.19 712.696 1380.34C714.04 1381.5 714.712 1383.21 714.712 1385.48C714.712 1386.12 714.712 1386.9 714.712 1387.83C714.744 1388.76 714.776 1389.74 714.808 1390.76C714.84 1391.75 714.872 1392.73 714.904 1393.69C714.936 1394.65 714.952 1395.51 714.952 1396.28H709.192C709.256 1395.74 709.288 1395.1 709.288 1394.36C709.32 1393.59 709.336 1392.79 709.336 1391.96C709.368 1391.13 709.384 1390.33 709.384 1389.56C709.416 1388.76 709.432 1388.04 709.432 1387.4C709.432 1385.86 709.016 1384.81 708.184 1384.23C707.384 1383.62 706.488 1383.32 705.496 1383.32C704.152 1383.32 702.792 1383.66 701.416 1384.33C700.072 1384.97 698.936 1385.74 698.008 1386.63C697.304 1387.34 696.584 1388.12 695.848 1388.98C695.144 1389.85 694.376 1390.82 693.544 1391.91L688.408 1388.07C690.488 1386.15 692.28 1384.3 693.784 1382.5C695.32 1380.71 696.616 1378.94 697.672 1377.18C698.728 1375.42 699.592 1373.66 700.264 1371.9C700.744 1370.62 701.128 1369.29 701.416 1367.91C701.736 1366.5 701.928 1365.19 701.992 1363.98L708.328 1364.5ZM690.28 1368.92C691.496 1369.11 692.904 1369.26 694.504 1369.35C696.104 1369.45 697.512 1369.5 698.728 1369.5C700.84 1369.5 703.144 1369.45 705.64 1369.35C708.168 1369.26 710.728 1369.1 713.32 1368.87C715.912 1368.62 718.376 1368.3 720.712 1367.91L720.664 1373.48C718.968 1373.7 717.128 1373.91 715.144 1374.1C713.192 1374.26 711.192 1374.41 709.144 1374.54C707.128 1374.63 705.192 1374.71 703.336 1374.78C701.48 1374.81 699.832 1374.82 698.392 1374.82C697.752 1374.82 696.952 1374.82 695.992 1374.82C695.064 1374.79 694.104 1374.76 693.112 1374.73C692.12 1374.66 691.176 1374.6 690.28 1374.54V1368.92ZM728.296 1382.55C727.784 1382.71 727.176 1382.92 726.472 1383.18C725.8 1383.4 725.112 1383.64 724.408 1383.9C723.736 1384.12 723.128 1384.34 722.584 1384.57C721.048 1385.18 719.224 1385.91 717.112 1386.78C715.032 1387.64 712.856 1388.65 710.584 1389.8C709.144 1390.57 707.928 1391.32 706.936 1392.06C705.944 1392.79 705.192 1393.54 704.68 1394.31C704.168 1395.05 703.912 1395.86 703.912 1396.76C703.912 1397.43 704.056 1397.99 704.344 1398.44C704.632 1398.86 705.064 1399.19 705.64 1399.45C706.216 1399.7 706.936 1399.88 707.8 1399.98C708.664 1400.07 709.688 1400.12 710.872 1400.12C712.92 1400.12 715.176 1400.01 717.64 1399.78C720.104 1399.53 722.392 1399.19 724.504 1398.78L724.312 1404.97C723.288 1405.1 721.992 1405.22 720.424 1405.35C718.856 1405.51 717.224 1405.62 715.528 1405.69C713.864 1405.75 712.264 1405.78 710.728 1405.78C708.232 1405.78 705.992 1405.54 704.008 1405.06C702.024 1404.58 700.456 1403.77 699.304 1402.62C698.184 1401.43 697.624 1399.82 697.624 1397.77C697.624 1396.1 697.992 1394.6 698.728 1393.26C699.496 1391.91 700.504 1390.7 701.752 1389.61C703 1388.52 704.36 1387.54 705.832 1386.68C707.336 1385.78 708.808 1384.97 710.248 1384.23C711.72 1383.46 713.048 1382.81 714.232 1382.26C715.416 1381.72 716.52 1381.24 717.544 1380.82C718.6 1380.38 719.608 1379.93 720.568 1379.48C721.496 1379.06 722.392 1378.66 723.256 1378.28C724.12 1377.86 725 1377.43 725.896 1376.98L728.296 1382.55Z" fill="black"/>
<path d="M680.152 1373.15C679.896 1373.59 679.624 1374.14 679.336 1374.78C679.048 1375.39 678.792 1375.99 678.568 1376.6C678.152 1378.01 677.56 1379.63 676.792 1381.45C676.056 1383.24 675.128 1385.11 674.008 1387.07C672.92 1388.99 671.656 1390.84 670.216 1392.63C667.912 1395.39 665.224 1397.88 662.152 1400.12C659.112 1402.36 655.336 1404.38 650.824 1406.17L645.16 1401.08C648.424 1400.12 651.24 1399.02 653.608 1397.77C655.976 1396.52 658.04 1395.19 659.8 1393.79C661.56 1392.35 663.128 1390.83 664.504 1389.23C665.624 1387.98 666.648 1386.57 667.576 1385C668.504 1383.4 669.305 1381.82 669.977 1380.25C670.649 1378.68 671.096 1377.31 671.32 1376.12H655.145L657.352 1370.7C657.8 1370.7 658.489 1370.7 659.417 1370.7C660.377 1370.7 661.448 1370.7 662.632 1370.7C663.848 1370.7 665.032 1370.7 666.184 1370.7C667.368 1370.7 668.392 1370.7 669.257 1370.7C670.153 1370.7 670.761 1370.7 671.081 1370.7C671.817 1370.7 672.552 1370.65 673.288 1370.55C674.056 1370.46 674.712 1370.31 675.257 1370.12L680.152 1373.15ZM664.504 1365.56C663.928 1366.39 663.368 1367.29 662.824 1368.25C662.28 1369.21 661.864 1369.95 661.576 1370.46C660.488 1372.38 659.144 1374.38 657.544 1376.46C655.976 1378.51 654.184 1380.51 652.168 1382.46C650.152 1384.38 648.008 1386.14 645.736 1387.74L640.312 1383.75C642.424 1382.44 644.28 1381.1 645.88 1379.72C647.512 1378.35 648.92 1376.99 650.104 1375.64C651.288 1374.27 652.296 1372.95 653.128 1371.71C653.992 1370.43 654.728 1369.29 655.336 1368.3C655.72 1367.69 656.12 1366.91 656.536 1365.95C656.952 1364.95 657.272 1364.06 657.496 1363.26L664.504 1365.56Z" fill="black"/>
<path d="M600.568 1366.52C601.4 1367.1 602.376 1367.8 603.496 1368.64C604.616 1369.47 605.768 1370.38 606.952 1371.37C608.168 1372.33 609.304 1373.28 610.36 1374.2C611.416 1375.13 612.28 1375.96 612.952 1376.7L608.056 1381.69C607.448 1381.02 606.648 1380.22 605.656 1379.29C604.664 1378.36 603.592 1377.4 602.44 1376.41C601.288 1375.42 600.152 1374.48 599.032 1373.58C597.912 1372.68 596.92 1371.93 596.056 1371.32L600.568 1366.52ZM594.568 1398.49C597.064 1398.14 599.416 1397.64 601.624 1397C603.832 1396.36 605.88 1395.63 607.768 1394.8C609.656 1393.96 611.384 1393.1 612.952 1392.2C615.672 1390.57 618.168 1388.72 620.44 1386.64C622.712 1384.56 624.696 1382.4 626.392 1380.16C628.088 1377.88 629.432 1375.68 630.424 1373.53L634.168 1380.3C632.952 1382.44 631.448 1384.59 629.656 1386.73C627.896 1388.88 625.896 1390.92 623.656 1392.88C621.416 1394.8 619 1396.52 616.408 1398.06C614.776 1399.05 613.016 1400 611.128 1400.89C609.24 1401.76 607.24 1402.52 605.128 1403.2C603.048 1403.9 600.872 1404.44 598.6 1404.83L594.568 1398.49Z" fill="black"/>
<path d="M579.545 1365.75C579.513 1366.42 579.464 1367.16 579.4 1367.96C579.368 1368.73 579.353 1369.59 579.353 1370.55C579.353 1371.38 579.353 1372.39 579.353 1373.57C579.353 1374.76 579.353 1375.94 579.353 1377.13C579.353 1378.28 579.353 1379.25 579.353 1380.05C579.353 1382.61 579.225 1384.85 578.969 1386.77C578.745 1388.69 578.393 1390.37 577.913 1391.81C577.433 1393.25 576.841 1394.53 576.137 1395.65C575.465 1396.74 574.681 1397.78 573.785 1398.77C572.729 1399.93 571.513 1400.97 570.137 1401.89C568.761 1402.79 567.369 1403.54 565.961 1404.15C564.585 1404.79 563.304 1405.3 562.12 1405.69L557.081 1400.41C559.481 1399.86 561.641 1399.11 563.561 1398.15C565.513 1397.16 567.208 1395.89 568.648 1394.36C569.48 1393.43 570.153 1392.5 570.665 1391.57C571.177 1390.65 571.56 1389.62 571.816 1388.5C572.104 1387.35 572.297 1386.05 572.393 1384.61C572.521 1383.17 572.585 1381.53 572.585 1379.67C572.585 1378.84 572.585 1377.85 572.585 1376.69C572.585 1375.54 572.585 1374.41 572.585 1373.29C572.585 1372.17 572.585 1371.25 572.585 1370.55C572.585 1369.59 572.553 1368.73 572.489 1367.96C572.457 1367.16 572.393 1366.42 572.297 1365.75H579.545ZM557.273 1366.13C557.241 1366.71 557.208 1367.29 557.176 1367.86C557.144 1368.41 557.129 1369.06 557.129 1369.83C557.129 1370.18 557.129 1370.76 557.129 1371.56C557.129 1372.36 557.129 1373.3 557.129 1374.39C557.129 1375.45 557.129 1376.57 557.129 1377.75C557.129 1378.9 557.129 1380.02 557.129 1381.11C557.129 1382.2 557.129 1383.19 557.129 1384.09C557.129 1384.95 557.129 1385.61 557.129 1386.05C557.129 1386.66 557.144 1387.37 557.176 1388.17C557.208 1388.97 557.241 1389.65 557.273 1390.23H550.312C550.345 1389.78 550.392 1389.14 550.456 1388.31C550.52 1387.48 550.553 1386.71 550.553 1386.01C550.553 1385.56 550.553 1384.9 550.553 1384.04C550.553 1383.17 550.553 1382.2 550.553 1381.11C550.553 1379.99 550.553 1378.85 550.553 1377.7C550.553 1376.52 550.553 1375.4 550.553 1374.34C550.553 1373.29 550.553 1372.36 550.553 1371.56C550.553 1370.76 550.553 1370.18 550.553 1369.83C550.553 1369.38 550.537 1368.81 550.505 1368.1C550.473 1367.37 550.425 1366.71 550.361 1366.13H557.273Z" fill="black"/>
<path d="M525.736 1367.29C526.184 1367.93 526.68 1368.68 527.224 1369.54C527.768 1370.41 528.28 1371.27 528.76 1372.14C529.272 1373 529.72 1373.8 530.104 1374.54L525.928 1376.41C525.48 1375.38 525.032 1374.47 524.584 1373.67C524.168 1372.87 523.736 1372.1 523.288 1371.37C522.84 1370.6 522.312 1369.8 521.704 1368.97L525.736 1367.29ZM532.024 1364.65C532.504 1365.29 533.016 1366.02 533.56 1366.86C534.136 1367.69 534.68 1368.54 535.192 1369.4C535.736 1370.23 536.184 1371.02 536.536 1371.75L532.504 1373.72C531.992 1372.7 531.496 1371.8 531.016 1371.03C530.568 1370.23 530.104 1369.48 529.624 1368.78C529.176 1368.04 528.648 1367.29 528.04 1366.52L532.024 1364.65ZM506.584 1399.11C506.584 1398.47 506.584 1397.46 506.584 1396.09C506.584 1394.68 506.584 1393.06 506.584 1391.24C506.584 1389.38 506.584 1387.46 506.584 1385.48C506.584 1383.46 506.584 1381.53 506.584 1379.67C506.584 1377.78 506.584 1376.12 506.584 1374.68C506.584 1373.24 506.584 1372.18 506.584 1371.51C506.584 1370.65 506.536 1369.67 506.44 1368.58C506.376 1367.5 506.264 1366.54 506.104 1365.7H513.592C513.496 1366.54 513.4 1367.46 513.304 1368.49C513.208 1369.51 513.16 1370.52 513.16 1371.51C513.16 1372.38 513.16 1373.58 513.16 1375.11C513.16 1376.65 513.16 1378.36 513.16 1380.25C513.16 1382.1 513.16 1384.01 513.16 1385.96C513.16 1387.91 513.16 1389.78 513.16 1391.58C513.16 1393.34 513.16 1394.89 513.16 1396.23C513.16 1397.54 513.16 1398.5 513.16 1399.11C513.16 1399.53 513.176 1400.15 513.208 1400.98C513.272 1401.78 513.336 1402.62 513.4 1403.48C513.496 1404.34 513.576 1405.11 513.64 1405.78H506.104C506.264 1404.86 506.376 1403.75 506.44 1402.47C506.536 1401.16 506.584 1400.04 506.584 1399.11ZM511.768 1378.14C513.368 1378.55 515.144 1379.1 517.096 1379.77C519.08 1380.41 521.08 1381.11 523.096 1381.88C525.112 1382.62 527.016 1383.35 528.808 1384.09C530.6 1384.79 532.072 1385.43 533.224 1386.01L530.536 1392.68C529.16 1391.94 527.656 1391.22 526.024 1390.52C524.392 1389.82 522.728 1389.13 521.032 1388.46C519.368 1387.75 517.736 1387.11 516.136 1386.54C514.536 1385.96 513.08 1385.46 511.768 1385.05V1378.14Z" fill="black"/>
<path d="M460.072 1398.39C460.072 1397.78 460.072 1396.79 460.072 1395.42C460.072 1394.01 460.072 1392.39 460.072 1390.57C460.072 1388.71 460.072 1386.78 460.072 1384.76C460.072 1382.74 460.072 1380.81 460.072 1378.95C460.072 1377.06 460.072 1375.4 460.072 1373.96C460.072 1372.52 460.072 1371.46 460.072 1370.79C460.072 1369.96 460.024 1369 459.928 1367.91C459.864 1366.82 459.752 1365.86 459.592 1365.03H467.08C466.984 1365.86 466.888 1366.79 466.792 1367.82C466.696 1368.81 466.648 1369.8 466.648 1370.79C466.648 1371.69 466.648 1372.9 466.648 1374.44C466.648 1375.98 466.648 1377.69 466.648 1379.58C466.648 1381.43 466.648 1383.34 466.648 1385.29C466.648 1387.21 466.648 1389.06 466.648 1390.86C466.648 1392.65 466.648 1394.22 466.648 1395.56C466.648 1396.87 466.648 1397.82 466.648 1398.39C466.648 1398.84 466.664 1399.48 466.696 1400.31C466.728 1401.11 466.792 1401.94 466.888 1402.81C466.984 1403.67 467.048 1404.44 467.08 1405.11H459.592C459.72 1404.15 459.832 1403.03 459.928 1401.75C460.024 1400.47 460.072 1399.35 460.072 1398.39ZM465.208 1377.46C466.808 1377.88 468.6 1378.42 470.584 1379.1C472.568 1379.74 474.568 1380.42 476.584 1381.16C478.6 1381.9 480.488 1382.63 482.248 1383.37C484.04 1384.07 485.528 1384.73 486.712 1385.34L483.976 1391.96C482.632 1391.26 481.144 1390.55 479.512 1389.85C477.88 1389.11 476.216 1388.41 474.52 1387.74C472.856 1387.06 471.208 1386.44 469.576 1385.86C467.976 1385.29 466.52 1384.78 465.208 1384.33V1377.46Z" fill="black"/>
<path d="M439.672 1371.03C439.448 1371.48 439.24 1372.02 439.048 1372.66C438.888 1373.27 438.744 1373.85 438.616 1374.39C438.36 1375.54 438.024 1376.86 437.608 1378.33C437.192 1379.8 436.696 1381.32 436.12 1382.89C435.544 1384.46 434.856 1386.01 434.056 1387.54C433.288 1389.08 432.408 1390.52 431.416 1391.86C429.976 1393.75 428.296 1395.54 426.376 1397.24C424.456 1398.9 422.312 1400.41 419.944 1401.75C417.576 1403.06 414.968 1404.18 412.12 1405.11L406.888 1399.4C410.056 1398.63 412.792 1397.69 415.096 1396.57C417.432 1395.42 419.464 1394.14 421.192 1392.73C422.92 1391.29 424.424 1389.75 425.704 1388.12C426.76 1386.78 427.656 1385.32 428.392 1383.75C429.16 1382.18 429.784 1380.6 430.264 1379C430.776 1377.4 431.128 1375.93 431.32 1374.58C430.84 1374.58 430.04 1374.58 428.92 1374.58C427.832 1374.58 426.536 1374.58 425.032 1374.58C423.56 1374.58 422.008 1374.58 420.376 1374.58C418.776 1374.58 417.224 1374.58 415.72 1374.58C414.216 1374.58 412.856 1374.58 411.64 1374.58C410.456 1374.58 409.56 1374.58 408.952 1374.58C407.864 1374.58 406.792 1374.6 405.736 1374.63C404.712 1374.66 403.88 1374.71 403.24 1374.78V1368.01C403.752 1368.04 404.344 1368.09 405.016 1368.15C405.688 1368.22 406.392 1368.28 407.128 1368.34C407.864 1368.38 408.488 1368.39 409 1368.39C409.48 1368.39 410.2 1368.39 411.16 1368.39C412.12 1368.39 413.224 1368.39 414.472 1368.39C415.72 1368.39 417.016 1368.39 418.36 1368.39C419.736 1368.39 421.096 1368.39 422.44 1368.39C423.784 1368.39 425.048 1368.39 426.232 1368.39C427.416 1368.39 428.44 1368.39 429.304 1368.39C430.2 1368.39 430.824 1368.39 431.176 1368.39C431.656 1368.39 432.248 1368.38 432.952 1368.34C433.656 1368.28 434.312 1368.17 434.92 1368.01L439.672 1371.03Z" fill="black"/>
<path d="M360.712 1400.22C364.584 1398.59 367.848 1396.64 370.504 1394.36C373.192 1392.09 375.4 1389.69 377.128 1387.16C378.92 1384.6 380.216 1382.04 381.016 1379.48C381.816 1376.92 382.408 1374.65 382.792 1372.67C383.048 1371.58 383.224 1370.49 383.32 1369.4C383.416 1368.32 383.448 1367.47 383.416 1366.86L391.192 1367.92C390.904 1368.84 390.632 1369.85 390.376 1370.94C390.12 1372 389.912 1372.86 389.752 1373.53C389.144 1376.35 388.312 1379.2 387.256 1382.08C386.232 1384.92 384.84 1387.69 383.08 1390.38C381.224 1393.29 378.936 1396.01 376.216 1398.54C373.496 1401.07 370.232 1403.26 366.424 1405.12L360.712 1400.22ZM359.704 1367.1C360.312 1367.93 361 1368.97 361.768 1370.22C362.536 1371.47 363.304 1372.78 364.072 1374.16C364.872 1375.5 365.608 1376.8 366.28 1378.04C366.984 1379.29 367.56 1380.33 368.008 1381.16L361.672 1384.76C361.096 1383.45 360.44 1382.12 359.704 1380.78C359 1379.4 358.28 1378.06 357.544 1376.75C356.808 1375.4 356.088 1374.19 355.384 1373.1C354.712 1371.98 354.104 1371.04 353.56 1370.27L359.704 1367.1Z" fill="black"/>
<path d="M747.219 1671.46C747.059 1672.04 746.883 1672.76 746.691 1673.62C746.499 1674.48 746.307 1675.4 746.115 1676.36C745.923 1677.28 745.747 1678.2 745.587 1679.09C745.459 1679.99 745.363 1680.77 745.299 1681.44C745.875 1680.48 746.563 1679.56 747.363 1678.66C748.163 1677.73 749.059 1676.9 750.051 1676.16C751.075 1675.4 752.179 1674.79 753.363 1674.34C754.579 1673.89 755.859 1673.67 757.203 1673.67C759.443 1673.67 761.459 1674.36 763.251 1675.73C765.043 1677.11 766.451 1679.08 767.475 1681.64C768.531 1684.2 769.059 1687.24 769.059 1690.76C769.059 1694.15 768.563 1697.12 767.571 1699.68C766.579 1702.21 765.155 1704.37 763.299 1706.16C761.443 1707.96 759.219 1709.41 756.627 1710.53C754.067 1711.68 751.203 1712.55 748.035 1713.12L744.387 1707.56C747.043 1707.14 749.475 1706.58 751.683 1705.88C753.923 1705.14 755.843 1704.15 757.443 1702.9C759.075 1701.65 760.323 1700.05 761.187 1698.1C762.083 1696.12 762.531 1693.68 762.531 1690.8C762.531 1688.34 762.275 1686.26 761.763 1684.56C761.251 1682.84 760.499 1681.52 759.507 1680.63C758.547 1679.73 757.395 1679.28 756.051 1679.28C754.643 1679.28 753.299 1679.75 752.019 1680.68C750.739 1681.6 749.587 1682.82 748.563 1684.32C747.571 1685.8 746.771 1687.4 746.163 1689.12C745.587 1690.85 745.267 1692.52 745.203 1694.12C745.171 1694.79 745.155 1695.52 745.155 1696.32C745.187 1697.12 745.283 1698.08 745.443 1699.2L739.539 1699.59C739.411 1698.66 739.267 1697.51 739.107 1696.13C738.979 1694.72 738.915 1693.2 738.915 1691.57C738.915 1690.45 738.947 1689.25 739.011 1687.97C739.107 1686.69 739.203 1685.4 739.299 1684.08C739.427 1682.74 739.571 1681.4 739.731 1680.05C739.923 1678.71 740.099 1677.43 740.259 1676.21C740.387 1675.28 740.483 1674.37 740.547 1673.48C740.611 1672.58 740.643 1671.81 740.643 1671.17L747.219 1671.46Z" fill="black"/>
<path d="M705.699 1671.36C705.571 1671.81 705.443 1672.26 705.315 1672.71C705.219 1673.12 705.123 1673.52 705.027 1673.91C704.739 1675.41 704.467 1677.14 704.211 1679.09C703.955 1681.01 703.747 1683.03 703.587 1685.14C703.427 1687.22 703.347 1689.27 703.347 1691.28C703.347 1693.78 703.475 1696.08 703.731 1698.19C703.987 1700.27 704.339 1702.21 704.787 1704C705.267 1705.76 705.779 1707.44 706.323 1709.04L700.803 1710.72C700.323 1709.28 699.859 1707.57 699.411 1705.59C698.995 1703.6 698.643 1701.47 698.355 1699.2C698.067 1696.9 697.923 1694.58 697.923 1692.24C697.923 1690.64 697.971 1689.04 698.067 1687.44C698.195 1685.81 698.323 1684.21 698.451 1682.64C698.579 1681.04 698.723 1679.52 698.883 1678.08C699.075 1676.61 699.235 1675.28 699.363 1674.1C699.395 1673.65 699.427 1673.17 699.459 1672.66C699.491 1672.11 699.491 1671.63 699.459 1671.22L705.699 1671.36ZM697.155 1676.69C700.195 1676.69 703.043 1676.63 705.699 1676.5C708.387 1676.37 710.963 1676.15 713.427 1675.83C715.923 1675.51 718.403 1675.04 720.867 1674.43L720.915 1680C719.251 1680.29 717.411 1680.56 715.395 1680.82C713.411 1681.04 711.331 1681.23 709.155 1681.39C707.011 1681.55 704.899 1681.68 702.819 1681.78C700.739 1681.84 698.787 1681.87 696.963 1681.87C696.131 1681.87 695.187 1681.86 694.131 1681.83C693.107 1681.79 692.083 1681.76 691.059 1681.73C690.067 1681.67 689.203 1681.62 688.467 1681.59L688.323 1676.02C688.867 1676.08 689.651 1676.18 690.675 1676.31C691.699 1676.4 692.787 1676.5 693.939 1676.59C695.123 1676.66 696.195 1676.69 697.155 1676.69ZM717.843 1683.7C717.747 1683.99 717.603 1684.39 717.411 1684.9C717.219 1685.41 717.027 1685.94 716.835 1686.48C716.675 1687.03 716.547 1687.46 716.451 1687.78C715.523 1690.66 714.387 1693.3 713.043 1695.7C711.731 1698.07 710.307 1700.15 708.771 1701.94C707.235 1703.7 705.715 1705.14 704.211 1706.26C702.643 1707.44 700.851 1708.48 698.835 1709.38C696.819 1710.24 694.787 1710.67 692.739 1710.67C691.587 1710.67 690.515 1710.43 689.523 1709.95C688.531 1709.47 687.731 1708.72 687.123 1707.7C686.547 1706.64 686.259 1705.31 686.259 1703.71C686.259 1701.99 686.611 1700.29 687.315 1698.63C688.019 1696.96 688.995 1695.38 690.243 1693.87C691.491 1692.37 692.947 1691.04 694.611 1689.89C696.275 1688.71 698.067 1687.78 699.987 1687.11C701.555 1686.53 703.267 1686.07 705.123 1685.71C707.011 1685.36 708.867 1685.19 710.691 1685.19C713.667 1685.19 716.323 1685.73 718.659 1686.82C721.027 1687.91 722.883 1689.39 724.227 1691.28C725.571 1693.17 726.243 1695.38 726.243 1697.91C726.243 1699.6 725.971 1701.27 725.427 1702.9C724.883 1704.5 723.987 1705.99 722.739 1707.36C721.523 1708.74 719.907 1709.92 717.891 1710.91C715.875 1711.91 713.395 1712.63 710.451 1713.07L707.283 1708.03C710.355 1707.68 712.851 1706.99 714.771 1705.97C716.691 1704.91 718.083 1703.65 718.947 1702.18C719.843 1700.71 720.291 1699.19 720.291 1697.62C720.291 1696.21 719.907 1694.95 719.139 1693.83C718.403 1692.71 717.283 1691.81 715.779 1691.14C714.307 1690.43 712.483 1690.08 710.307 1690.08C708.131 1690.08 706.179 1690.32 704.451 1690.8C702.755 1691.28 701.331 1691.79 700.179 1692.34C698.579 1693.11 697.155 1694.08 695.907 1695.27C694.659 1696.42 693.683 1697.63 692.979 1698.91C692.275 1700.19 691.923 1701.38 691.923 1702.47C691.923 1703.23 692.099 1703.83 692.451 1704.24C692.803 1704.63 693.363 1704.82 694.131 1704.82C695.283 1704.82 696.611 1704.45 698.115 1703.71C699.619 1702.95 701.107 1701.87 702.579 1700.5C704.307 1698.9 705.939 1696.98 707.475 1694.74C709.011 1692.5 710.275 1689.71 711.267 1686.39C711.363 1686.07 711.459 1685.65 711.555 1685.14C711.651 1684.63 711.731 1684.11 711.795 1683.6C711.891 1683.06 711.955 1682.63 711.987 1682.31L717.843 1683.7Z" fill="black"/>
<path d="M649.443 1676.64V1683.07H666.339V1676.64H649.443ZM643.875 1671.12H672.195V1688.54H643.875V1671.12ZM637.251 1692.57H655.635V1714.03H649.875V1698.09H642.723V1714.32H637.251V1692.57ZM659.667 1692.57H678.675V1714.08H672.915V1698.09H665.187V1714.32H659.667V1692.57ZM639.651 1706.35H652.275V1711.87H639.651V1706.35ZM662.307 1706.35H675.747V1711.87H662.307V1706.35Z" fill="black"/>
<path d="M588.818 1672.85H631.01V1678.08H588.818V1672.85ZM606.722 1669.2H612.626V1675.97H606.722V1669.2ZM590.402 1681.83H627.362V1686.82H595.874V1714.23H590.402V1681.83ZM624.386 1681.83H629.906V1708.08C629.906 1709.46 629.73 1710.56 629.378 1711.4C629.058 1712.23 628.434 1712.88 627.506 1713.36C626.546 1713.78 625.378 1714.04 624.002 1714.13C622.626 1714.26 620.994 1714.32 619.106 1714.32C619.01 1713.81 618.866 1713.22 618.674 1712.55C618.482 1711.88 618.258 1711.2 618.002 1710.53C617.746 1709.89 617.474 1709.33 617.186 1708.85C618.466 1708.88 619.698 1708.92 620.882 1708.95C622.098 1708.95 622.914 1708.95 623.33 1708.95C623.714 1708.95 623.986 1708.88 624.146 1708.76C624.306 1708.6 624.386 1708.34 624.386 1707.99V1681.83ZM602.498 1686.2H607.586C607.49 1688.08 607.17 1689.73 606.626 1691.14C606.082 1692.55 605.138 1693.72 603.794 1694.64C602.45 1695.57 600.498 1696.34 597.938 1696.95C597.746 1696.31 597.378 1695.59 596.834 1694.79C596.322 1693.99 595.826 1693.36 595.346 1692.92C597.33 1692.56 598.818 1692.12 599.81 1691.57C600.802 1691 601.474 1690.28 601.826 1689.41C602.21 1688.55 602.434 1687.48 602.498 1686.2ZM611.426 1686.15H616.37V1689.84C616.37 1690.36 616.434 1690.68 616.562 1690.8C616.69 1690.9 616.962 1690.95 617.378 1690.95C617.474 1690.95 617.634 1690.95 617.858 1690.95C618.082 1690.95 618.322 1690.95 618.578 1690.95C618.834 1690.95 619.074 1690.95 619.298 1690.95C619.554 1690.95 619.73 1690.95 619.826 1690.95C620.114 1690.95 620.322 1690.9 620.45 1690.8C620.61 1690.68 620.722 1690.42 620.786 1690.04C620.882 1689.65 620.946 1689.08 620.978 1688.31C621.426 1688.63 622.066 1688.95 622.898 1689.27C623.762 1689.56 624.514 1689.78 625.154 1689.94C624.93 1691.99 624.466 1693.36 623.762 1694.07C623.058 1694.77 621.97 1695.12 620.498 1695.12C620.274 1695.12 619.986 1695.12 619.634 1695.12C619.282 1695.12 618.898 1695.12 618.482 1695.12C618.098 1695.12 617.73 1695.12 617.378 1695.12C617.058 1695.12 616.802 1695.12 616.61 1695.12C615.202 1695.12 614.114 1694.96 613.346 1694.64C612.61 1694.29 612.098 1693.75 611.81 1693.01C611.554 1692.24 611.426 1691.2 611.426 1689.89V1686.15ZM600.578 1696.9H605.714V1712.07H600.578V1696.9ZM603.746 1696.9H619.538V1709.48H603.746V1705.2H614.354V1701.17H603.746V1696.9ZM597.41 1677.99L603.122 1677.03C603.57 1677.76 604.002 1678.61 604.418 1679.57C604.834 1680.5 605.138 1681.32 605.33 1682.02L599.33 1683.22C599.202 1682.52 598.946 1681.67 598.562 1680.68C598.21 1679.68 597.826 1678.79 597.41 1677.99ZM616.178 1676.98L622.562 1677.94C621.986 1678.96 621.442 1679.92 620.93 1680.82C620.45 1681.68 619.986 1682.42 619.538 1683.03L613.826 1682.07C614.242 1681.33 614.674 1680.48 615.122 1679.52C615.57 1678.56 615.922 1677.72 616.178 1676.98Z" fill="black"/>
<path d="M549.362 1676.2H561.122V1681.68H549.362V1676.2ZM569.426 1669.34H575.426V1714.22H569.426V1669.34ZM544.034 1690.46L546.962 1686.14C548.146 1686.78 549.394 1687.53 550.706 1688.4C552.05 1689.26 553.314 1690.12 554.498 1690.99C555.682 1691.85 556.642 1692.68 557.378 1693.48L554.258 1698.33C553.586 1697.53 552.674 1696.67 551.522 1695.74C550.37 1694.78 549.138 1693.84 547.826 1692.91C546.514 1691.98 545.25 1691.16 544.034 1690.46ZM549.938 1669.15L555.698 1670.35C554.866 1673.58 553.826 1676.68 552.578 1679.66C551.362 1682.64 549.97 1685.39 548.402 1687.92C546.866 1690.41 545.202 1692.59 543.41 1694.44C543.09 1694.09 542.626 1693.69 542.018 1693.24C541.442 1692.76 540.85 1692.3 540.242 1691.85C539.634 1691.37 539.09 1691 538.61 1690.75C540.402 1689.12 542.018 1687.18 543.458 1684.94C544.898 1682.7 546.162 1680.24 547.25 1677.55C548.338 1674.83 549.234 1672.03 549.938 1669.15ZM566.45 1680.86C567.41 1682.62 568.562 1684.36 569.906 1686.09C571.282 1687.79 572.802 1689.4 574.466 1690.94C576.13 1692.48 577.89 1693.87 579.746 1695.12C581.634 1696.36 583.538 1697.44 585.458 1698.33C585.042 1698.72 584.562 1699.21 584.018 1699.82C583.474 1700.4 582.962 1701 582.482 1701.64C582.002 1702.25 581.602 1702.81 581.282 1703.32C579.266 1702.27 577.314 1701 575.426 1699.53C573.57 1698.06 571.794 1696.43 570.098 1694.64C568.402 1692.84 566.834 1690.94 565.394 1688.92C563.986 1686.91 562.722 1684.83 561.602 1682.68L566.45 1680.86ZM559.49 1676.2H560.594L561.602 1676.01L565.394 1677.31C564.434 1683.48 562.978 1688.96 561.026 1693.72C559.106 1698.49 556.754 1702.56 553.97 1705.92C551.186 1709.24 548.066 1711.9 544.61 1713.88C544.29 1713.47 543.858 1712.97 543.314 1712.4C542.77 1711.85 542.194 1711.31 541.586 1710.76C541.01 1710.25 540.482 1709.85 540.002 1709.56C543.426 1707.77 546.466 1705.42 549.122 1702.51C551.778 1699.56 553.986 1696.01 555.746 1691.85C557.506 1687.69 558.754 1682.91 559.49 1677.5V1676.2Z" fill="black"/>
<path d="M504.675 1694.69L508.467 1691.86C510.963 1693.14 512.995 1694.59 514.563 1696.22C516.131 1697.82 517.299 1699.47 518.067 1701.17C518.835 1702.83 519.235 1704.43 519.267 1705.97C519.331 1707.5 519.075 1708.88 518.499 1710.1C517.923 1711.31 517.075 1712.27 515.955 1712.98C515.059 1713.55 514.195 1713.95 513.363 1714.18C512.563 1714.4 511.571 1714.51 510.387 1714.51C509.811 1714.51 509.187 1714.5 508.515 1714.46C507.875 1714.46 507.203 1714.45 506.499 1714.42C506.467 1713.68 506.323 1712.82 506.067 1711.82C505.811 1710.86 505.427 1710.02 504.915 1709.28C505.747 1709.38 506.563 1709.44 507.363 1709.47C508.163 1709.47 508.851 1709.47 509.427 1709.47C510.035 1709.47 510.579 1709.44 511.059 1709.38C511.571 1709.28 512.019 1709.07 512.403 1708.75C513.107 1708.3 513.539 1707.57 513.699 1706.54C513.891 1705.52 513.731 1704.34 513.219 1702.99C512.707 1701.65 511.747 1700.26 510.339 1698.82C508.963 1697.38 507.075 1696 504.675 1694.69ZM509.955 1695.12L513.795 1697.04C512.387 1698.22 510.659 1699.36 508.611 1700.45C506.595 1701.5 504.467 1702.45 502.227 1703.28C499.987 1704.11 497.811 1704.78 495.699 1705.3C495.347 1704.75 494.867 1704.1 494.259 1703.33C493.683 1702.56 493.155 1701.94 492.675 1701.46C494.755 1701.07 496.883 1700.56 499.059 1699.92C501.235 1699.28 503.283 1698.54 505.203 1697.71C507.155 1696.88 508.739 1696.02 509.955 1695.12ZM513.075 1699.49L517.155 1701.65C515.811 1702.86 514.259 1704.03 512.499 1705.15C510.771 1706.27 508.931 1707.33 506.979 1708.32C505.027 1709.31 503.027 1710.19 500.979 1710.96C498.963 1711.76 496.995 1712.43 495.075 1712.98C494.723 1712.37 494.227 1711.65 493.587 1710.82C492.947 1709.98 492.355 1709.31 491.811 1708.8C493.763 1708.35 495.747 1707.81 497.763 1707.17C499.779 1706.53 501.731 1705.81 503.619 1705.01C505.507 1704.18 507.267 1703.3 508.899 1702.37C510.531 1701.44 511.923 1700.48 513.075 1699.49ZM504.867 1672.22H518.931V1676.5H504.867V1672.22ZM512.979 1687.78L517.299 1689.79C515.507 1691.17 513.379 1692.43 510.915 1693.58C508.451 1694.7 505.875 1695.7 503.187 1696.56C500.531 1697.42 497.939 1698.16 495.411 1698.77C495.219 1698.42 494.947 1697.98 494.595 1697.47C494.243 1696.96 493.891 1696.45 493.539 1695.94C493.187 1695.42 492.851 1695.01 492.531 1694.69C495.059 1694.27 497.587 1693.73 500.115 1693.06C502.675 1692.38 505.075 1691.6 507.315 1690.7C509.587 1689.81 511.475 1688.83 512.979 1687.78ZM519.459 1688.74C520.323 1691.74 521.491 1694.53 522.963 1697.09C524.467 1699.62 526.323 1701.82 528.531 1703.71C530.739 1705.6 533.331 1707.06 536.307 1708.08C535.923 1708.43 535.491 1708.9 535.011 1709.47C534.531 1710.02 534.083 1710.59 533.667 1711.2C533.251 1711.81 532.899 1712.37 532.611 1712.88C529.411 1711.57 526.659 1709.81 524.355 1707.6C522.051 1705.39 520.099 1702.8 518.499 1699.82C516.931 1696.82 515.651 1693.47 514.659 1689.79L519.459 1688.74ZM530.643 1691.18L535.251 1694.59C534.067 1695.36 532.803 1696.13 531.459 1696.9C530.115 1697.66 528.787 1698.4 527.475 1699.1C526.163 1699.78 524.931 1700.35 523.779 1700.83L520.179 1697.86C521.267 1697.31 522.451 1696.67 523.731 1695.94C525.011 1695.17 526.259 1694.37 527.475 1693.54C528.691 1692.7 529.747 1691.92 530.643 1691.18ZM502.707 1683.22V1686.91H525.459V1683.22H502.707ZM497.331 1679.04H531.171V1691.09H497.331V1679.04ZM504.915 1669.01L510.867 1670.21C509.043 1672.9 506.899 1675.47 504.435 1677.94C501.971 1680.4 499.043 1682.66 495.651 1684.7C495.395 1684.22 495.043 1683.73 494.595 1683.22C494.147 1682.7 493.667 1682.21 493.155 1681.73C492.675 1681.25 492.227 1680.88 491.811 1680.62C493.891 1679.54 495.763 1678.34 497.427 1677.02C499.091 1675.71 500.547 1674.37 501.795 1672.99C503.075 1671.62 504.115 1670.29 504.915 1669.01ZM510.915 1681.3H516.579V1689.5H510.915V1681.3ZM516.627 1672.22H517.923L518.835 1671.98L522.771 1674.53C522.195 1675.46 521.507 1676.45 520.707 1677.5C519.939 1678.53 519.123 1679.52 518.259 1680.48C517.427 1681.44 516.627 1682.29 515.859 1683.02C515.315 1682.61 514.643 1682.14 513.843 1681.63C513.043 1681.09 512.323 1680.64 511.683 1680.29C512.355 1679.65 513.011 1678.91 513.651 1678.08C514.291 1677.22 514.883 1676.35 515.427 1675.49C515.971 1674.62 516.371 1673.89 516.627 1673.28V1672.22Z" fill="black"/>
<path d="M465.363 1679.91H488.307V1685.43H465.363V1679.91ZM444.099 1676.64H466.947V1681.97H444.099V1676.64ZM477.459 1669.2H483.171V1707.12C483.171 1708.76 482.995 1710.02 482.643 1710.92C482.291 1711.84 481.651 1712.55 480.723 1713.03C479.795 1713.54 478.611 1713.88 477.171 1714.04C475.731 1714.2 474.003 1714.28 471.987 1714.28C471.955 1713.7 471.843 1713.04 471.651 1712.31C471.459 1711.57 471.235 1710.82 470.979 1710.05C470.723 1709.32 470.467 1708.66 470.211 1708.08C471.555 1708.15 472.803 1708.18 473.955 1708.18C475.107 1708.18 475.891 1708.18 476.307 1708.18C476.723 1708.18 477.011 1708.12 477.171 1707.99C477.363 1707.83 477.459 1707.54 477.459 1707.12V1669.2ZM464.883 1691.48L469.491 1689.27C470.259 1690.32 470.995 1691.46 471.699 1692.68C472.435 1693.89 473.075 1695.09 473.619 1696.28C474.163 1697.43 474.563 1698.5 474.819 1699.49L469.827 1701.99C469.603 1701.06 469.235 1699.99 468.723 1698.77C468.243 1697.56 467.667 1696.31 466.995 1695.03C466.323 1693.75 465.619 1692.56 464.883 1691.48ZM445.011 1688.74L449.091 1685.43C450.499 1686.96 451.955 1688.6 453.459 1690.32C454.963 1692.05 456.419 1693.81 457.827 1695.6C459.267 1697.4 460.547 1699.14 461.667 1700.84C462.787 1702.5 463.699 1704.05 464.403 1705.49L459.843 1709.43C459.203 1707.99 458.339 1706.4 457.251 1704.68C456.163 1702.95 454.931 1701.16 453.555 1699.3C452.211 1697.44 450.803 1695.62 449.331 1693.83C447.891 1692 446.451 1690.31 445.011 1688.74ZM452.499 1669.25H458.019V1679.91H452.499V1669.25ZM457.731 1682.93L463.347 1683.7C462.547 1688.34 461.427 1692.56 459.987 1696.37C458.547 1700.15 456.739 1703.51 454.563 1706.45C452.387 1709.36 449.747 1711.86 446.643 1713.94C446.419 1713.56 446.067 1713.08 445.587 1712.5C445.139 1711.92 444.659 1711.35 444.147 1710.77C443.635 1710.23 443.171 1709.78 442.755 1709.43C445.699 1707.73 448.163 1705.6 450.147 1703.04C452.131 1700.45 453.731 1697.48 454.947 1694.12C456.195 1690.76 457.123 1687.03 457.731 1682.93Z" fill="black"/>
<path d="M421.826 1671.99H435.842V1677.36H427.442V1714.32H421.826V1671.99ZM396.578 1673.86H419.762V1678.85H396.578V1673.86ZM395.522 1687.25H420.386V1692.48H395.522V1687.25ZM405.362 1669.59H410.978V1676.98H405.362V1669.59ZM399.314 1680.15L404.066 1679.19C404.546 1680.24 404.962 1681.43 405.314 1682.74C405.666 1684.05 405.906 1685.2 406.034 1686.19L400.994 1687.35C400.962 1686.39 400.786 1685.23 400.466 1683.89C400.146 1682.51 399.762 1681.27 399.314 1680.15ZM412.226 1678.99L417.602 1680.15C417.09 1681.46 416.578 1682.77 416.066 1684.08C415.586 1685.36 415.138 1686.47 414.722 1687.39L410.21 1686.24C410.466 1685.57 410.722 1684.82 410.978 1683.99C411.234 1683.12 411.458 1682.26 411.65 1681.39C411.874 1680.5 412.066 1679.7 412.226 1678.99ZM400.274 1706.98H415.106V1711.97H400.274V1706.98ZM398.306 1695.65H418.226V1714.18H412.61V1700.64H403.634V1714.37H398.306V1695.65ZM434.354 1671.99H435.458L436.322 1671.75L440.546 1674.39C439.682 1676.72 438.738 1679.19 437.714 1681.78C436.722 1684.34 435.762 1686.64 434.834 1688.69C436.178 1690.13 437.186 1691.52 437.858 1692.87C438.562 1694.18 439.026 1695.43 439.25 1696.61C439.506 1697.79 439.634 1698.91 439.634 1699.97C439.634 1701.76 439.426 1703.25 439.01 1704.43C438.594 1705.62 437.922 1706.53 436.994 1707.17C436.098 1707.81 434.994 1708.21 433.682 1708.37C433.138 1708.43 432.53 1708.48 431.858 1708.51C431.218 1708.51 430.562 1708.51 429.89 1708.51C429.858 1707.71 429.714 1706.77 429.458 1705.68C429.234 1704.59 428.898 1703.65 428.45 1702.85C428.994 1702.91 429.49 1702.96 429.938 1702.99C430.386 1702.99 430.802 1702.98 431.186 1702.95C431.506 1702.91 431.81 1702.87 432.098 1702.8C432.418 1702.74 432.69 1702.63 432.914 1702.47C433.33 1702.21 433.618 1701.83 433.778 1701.31C433.97 1700.77 434.066 1700.08 434.066 1699.25C434.066 1697.91 433.73 1696.4 433.058 1694.74C432.418 1693.04 431.122 1691.27 429.17 1689.41C429.65 1688.26 430.13 1686.98 430.61 1685.57C431.122 1684.13 431.602 1682.69 432.05 1681.25C432.53 1679.78 432.962 1678.4 433.346 1677.12C433.762 1675.84 434.098 1674.79 434.354 1673.95V1671.99Z" fill="black"/>
<path d="M347.715 1688.16H392.163V1694.44H347.715V1688.16Z" fill="black"/>
<path d="M312.118 1710L308.614 1706.45L321.91 1693.05L308.518 1679.61L312.07 1676.01L325.51 1689.41L338.998 1676.06L342.598 1679.57L329.11 1693.05L342.406 1706.54L338.902 1710.09L325.51 1696.65L312.118 1710ZM311.206 1696.7C310.214 1696.7 309.35 1696.43 308.614 1695.89C307.878 1695.34 307.51 1694.41 307.51 1693.1C307.51 1691.79 307.878 1690.86 308.614 1690.32C309.35 1689.74 310.214 1689.45 311.206 1689.45C312.23 1689.45 313.11 1689.74 313.846 1690.32C314.582 1690.86 314.95 1691.79 314.95 1693.1C314.95 1694.41 314.582 1695.34 313.846 1695.89C313.11 1696.43 312.23 1696.7 311.206 1696.7ZM325.51 1711.1C324.646 1711.1 323.942 1710.93 323.398 1710.57C322.886 1710.25 322.502 1709.81 322.246 1709.23C322.022 1708.65 321.91 1708.03 321.91 1707.36C321.91 1706.69 322.022 1706.08 322.246 1705.53C322.502 1704.96 322.886 1704.51 323.398 1704.19C323.942 1703.84 324.646 1703.66 325.51 1703.66C326.374 1703.66 327.078 1703.84 327.622 1704.19C328.166 1704.51 328.55 1704.96 328.774 1705.53C329.03 1706.08 329.158 1706.69 329.158 1707.36C329.158 1708.03 329.03 1708.65 328.774 1709.23C328.55 1709.81 328.166 1710.25 327.622 1710.57C327.078 1710.93 326.374 1711.1 325.51 1711.1ZM325.51 1682.54C324.646 1682.54 323.942 1682.38 323.398 1682.06C322.886 1681.71 322.502 1681.25 322.246 1680.67C322.022 1680.09 321.91 1679.47 321.91 1678.8C321.91 1678.13 322.022 1677.52 322.246 1676.97C322.502 1676.4 322.886 1675.95 323.398 1675.63C323.942 1675.28 324.646 1675.1 325.51 1675.1C326.374 1675.1 327.078 1675.28 327.622 1675.63C328.166 1675.95 328.55 1676.4 328.774 1676.97C329.03 1677.52 329.158 1678.13 329.158 1678.8C329.158 1679.47 329.03 1680.09 328.774 1680.67C328.55 1681.25 328.166 1681.71 327.622 1682.06C327.078 1682.38 326.374 1682.54 325.51 1682.54ZM339.766 1696.7C338.774 1696.7 337.91 1696.43 337.174 1695.89C336.438 1695.34 336.07 1694.41 336.07 1693.1C336.07 1691.79 336.438 1690.86 337.174 1690.32C337.91 1689.74 338.774 1689.45 339.766 1689.45C340.79 1689.45 341.67 1689.74 342.406 1690.32C343.142 1690.86 343.51 1691.79 343.51 1693.1C343.51 1694.41 343.142 1695.34 342.406 1695.89C341.67 1696.43 340.79 1696.7 339.766 1696.7Z" fill="black"/>
<path d="M914.119 1178.47C913.646 1179.51 913.149 1180.69 912.628 1182.02C912.108 1183.3 911.587 1184.74 911.066 1186.35C910.64 1187.67 910.096 1189.38 909.433 1191.46C908.771 1193.5 908.037 1195.74 907.232 1198.21C906.428 1200.62 905.576 1203.13 904.676 1205.73C903.824 1208.29 902.996 1210.77 902.191 1213.19C901.387 1215.6 900.629 1217.8 899.919 1219.79C899.209 1221.73 898.594 1223.32 898.073 1224.55L887.565 1224.9C888.228 1223.39 888.962 1221.54 889.766 1219.36C890.571 1217.19 891.423 1214.82 892.322 1212.26C893.222 1209.66 894.097 1207.01 894.949 1204.31C895.849 1201.61 896.677 1199.01 897.434 1196.5C898.239 1193.99 898.949 1191.67 899.564 1189.54C900.227 1187.41 900.748 1185.69 901.126 1184.36C901.6 1182.52 901.955 1181 902.191 1179.82C902.475 1178.59 902.688 1177.36 902.83 1176.12L914.119 1178.47ZM926.828 1201.4C928.106 1203.29 929.479 1205.52 930.946 1208.08C932.414 1210.63 933.857 1213.31 935.277 1216.1C936.745 1218.84 938.094 1221.49 939.324 1224.05C940.555 1226.61 941.573 1228.9 942.377 1230.94L932.792 1235.2C931.988 1233.02 930.994 1230.56 929.81 1227.81C928.674 1225.07 927.42 1222.28 926.047 1219.44C924.722 1216.6 923.349 1213.92 921.929 1211.41C920.557 1208.86 919.231 1206.73 917.953 1205.02L926.828 1201.4ZM886.926 1221.78C888.536 1221.68 890.476 1221.57 892.748 1221.42C895.068 1221.23 897.553 1221.02 900.203 1220.78C902.854 1220.5 905.552 1220.22 908.297 1219.93C911.09 1219.65 913.812 1219.36 916.462 1219.08C919.16 1218.75 921.669 1218.44 923.988 1218.16C926.308 1217.87 928.272 1217.61 929.881 1217.38L932.011 1226.46C930.26 1226.7 928.154 1226.96 925.692 1227.25C923.278 1227.53 920.675 1227.84 917.882 1228.17C915.09 1228.45 912.25 1228.76 909.362 1229.09C906.475 1229.42 903.659 1229.73 900.913 1230.01C898.168 1230.3 895.636 1230.56 893.316 1230.8C890.997 1230.98 889.033 1231.17 887.423 1231.36C886.524 1231.46 885.459 1231.6 884.228 1231.79C883.045 1231.93 881.885 1232.07 880.749 1232.22L879.116 1221.85C880.3 1221.85 881.601 1221.85 883.021 1221.85C884.489 1221.85 885.79 1221.83 886.926 1221.78Z" fill="black"/>
<path d="M862.928 1180.03C862.313 1181.31 861.745 1182.65 861.224 1184.07C860.703 1185.49 860.23 1186.8 859.804 1187.98C858.81 1190.68 857.627 1193.59 856.254 1196.71C854.929 1199.84 853.438 1202.91 851.781 1205.94C850.172 1208.92 848.397 1211.62 846.456 1214.04C844.468 1216.55 842.054 1219.12 839.214 1221.78C836.421 1224.38 833.345 1226.82 829.984 1229.09C826.671 1231.31 823.192 1233.16 819.547 1234.63L811.453 1226.32C815.145 1225.04 818.648 1223.46 821.961 1221.56C825.274 1219.67 828.327 1217.54 831.12 1215.17C833.913 1212.81 836.35 1210.37 838.433 1207.86C840.705 1205.11 842.717 1202.01 844.468 1198.56C846.267 1195.06 847.781 1191.46 849.012 1187.77C850.29 1184.07 851.237 1180.55 851.852 1177.19L862.928 1180.03Z" fill="black"/>
<path d="M735.611 1178.04C736.842 1178.89 738.286 1179.93 739.942 1181.16C741.599 1182.39 743.303 1183.74 745.054 1185.21C746.853 1186.63 748.533 1188.03 750.095 1189.4C751.657 1190.77 752.935 1192 753.929 1193.09L746.687 1200.48C745.788 1199.48 744.605 1198.3 743.137 1196.93C741.67 1195.55 740.084 1194.13 738.38 1192.67C736.676 1191.2 734.996 1189.8 733.339 1188.48C731.683 1187.15 730.215 1186.04 728.937 1185.14L735.611 1178.04ZM726.736 1225.33C730.428 1224.8 733.907 1224.07 737.173 1223.12C740.439 1222.18 743.469 1221.09 746.261 1219.86C749.054 1218.63 751.61 1217.35 753.929 1216.02C757.953 1213.61 761.645 1210.86 765.005 1207.79C768.366 1204.71 771.301 1201.52 773.809 1198.2C776.318 1194.84 778.306 1191.58 779.773 1188.41L785.311 1198.42C783.513 1201.59 781.288 1204.76 778.637 1207.93C776.034 1211.1 773.076 1214.13 769.762 1217.02C766.449 1219.86 762.875 1222.41 759.041 1224.69C756.627 1226.15 754.024 1227.55 751.231 1228.88C748.439 1230.15 745.48 1231.29 742.356 1232.28C739.28 1233.32 736.061 1234.13 732.7 1234.7L726.736 1225.33Z" fill="black"/>
<path d="M715.163 1187.27C714.642 1187.84 714.169 1188.36 713.743 1188.83C713.364 1189.3 713.033 1189.78 712.749 1190.25C711.329 1192.52 709.648 1194.98 707.708 1197.63C705.767 1200.28 703.613 1202.96 701.247 1205.66C698.88 1208.35 696.371 1210.96 693.721 1213.47C691.117 1215.97 688.419 1218.25 685.627 1220.28L678.598 1213.68C680.964 1212.07 683.189 1210.29 685.272 1208.35C687.402 1206.37 689.366 1204.35 691.165 1202.32C693.011 1200.28 694.644 1198.3 696.064 1196.36C697.484 1194.41 698.667 1192.64 699.614 1191.03C698.667 1191.03 697.413 1191.03 695.851 1191.03C694.289 1191.03 692.466 1191.03 690.384 1191.03C688.348 1191.03 686.195 1191.03 683.923 1191.03C681.651 1191.03 679.379 1191.03 677.107 1191.03C674.882 1191.03 672.752 1191.03 670.717 1191.03C668.729 1191.03 666.977 1191.03 665.463 1191.03C663.995 1191.03 662.859 1191.03 662.055 1191.03C661.108 1191.03 660.09 1191.05 659.002 1191.1C657.96 1191.15 656.966 1191.22 656.02 1191.31C655.073 1191.41 654.363 1191.48 653.89 1191.53V1181.59C654.505 1181.63 655.286 1181.73 656.233 1181.87C657.227 1182.01 658.244 1182.11 659.286 1182.16C660.327 1182.2 661.25 1182.23 662.055 1182.23C662.67 1182.23 663.711 1182.23 665.179 1182.23C666.693 1182.23 668.468 1182.23 670.504 1182.23C672.539 1182.23 674.716 1182.23 677.036 1182.23C679.402 1182.23 681.769 1182.23 684.136 1182.23C686.55 1182.23 688.869 1182.23 691.094 1182.23C693.318 1182.23 695.306 1182.23 697.058 1182.23C698.856 1182.23 700.324 1182.23 701.46 1182.23C704.252 1182.23 706.453 1181.97 708.063 1181.45L715.163 1187.27ZM677.675 1221.28C676.633 1220.23 675.426 1219.1 674.054 1217.87C672.728 1216.59 671.332 1215.31 669.865 1214.03C668.445 1212.76 667.048 1211.57 665.676 1210.48C664.35 1209.35 663.143 1208.4 662.055 1207.64L669.581 1201.61C670.527 1202.32 671.64 1203.19 672.918 1204.24C674.243 1205.28 675.639 1206.41 677.107 1207.64C678.574 1208.87 680.065 1210.15 681.58 1211.48C683.094 1212.8 684.538 1214.11 685.911 1215.38C687.473 1216.9 689.082 1218.53 690.739 1220.28C692.443 1222.03 694.052 1223.74 695.567 1225.39C697.129 1227.05 698.454 1228.59 699.543 1230.01L691.236 1236.61C690.242 1235.29 688.964 1233.75 687.402 1232C685.887 1230.2 684.278 1228.35 682.574 1226.46C680.87 1224.57 679.237 1222.84 677.675 1221.28Z" fill="black"/>
<path d="M631.809 1173.85C632.424 1174.7 633.063 1175.72 633.726 1176.9C634.436 1178.09 635.122 1179.27 635.785 1180.45C636.447 1181.64 636.992 1182.68 637.418 1183.58L631.738 1185.99C631.028 1184.52 630.152 1182.87 629.111 1181.02C628.117 1179.13 627.146 1177.5 626.2 1176.12L631.809 1173.85ZM640.187 1170.66C640.802 1171.51 641.465 1172.55 642.175 1173.78C642.932 1174.96 643.642 1176.15 644.305 1177.33C645.015 1178.47 645.559 1179.46 645.938 1180.31L640.329 1182.73C639.571 1181.21 638.672 1179.53 637.631 1177.69C636.589 1175.84 635.572 1174.25 634.578 1172.93L640.187 1170.66ZM638.199 1189.47C637.773 1190.13 637.347 1190.94 636.921 1191.89C636.495 1192.78 636.14 1193.68 635.856 1194.58C635.24 1196.67 634.365 1199.06 633.229 1201.75C632.093 1204.4 630.72 1207.15 629.111 1209.99C627.501 1212.83 625.608 1215.6 623.431 1218.3C620.07 1222.37 616.118 1226.06 611.574 1229.37C607.077 1232.69 601.492 1235.67 594.818 1238.32L586.44 1230.79C591.268 1229.33 595.433 1227.69 598.936 1225.89C602.438 1224.05 605.491 1222.06 608.095 1219.93C610.698 1217.8 613.017 1215.55 615.053 1213.19C616.662 1211.34 618.153 1209.26 619.526 1206.94C620.946 1204.62 622.129 1202.3 623.076 1199.98C624.07 1197.66 624.756 1195.62 625.135 1193.87H601.208L604.474 1185.85C605.089 1185.85 606.107 1185.85 607.527 1185.85C608.947 1185.85 610.532 1185.85 612.284 1185.85C614.035 1185.85 615.763 1185.85 617.467 1185.85C619.218 1185.85 620.756 1185.85 622.082 1185.85C623.407 1185.85 624.283 1185.85 624.709 1185.85C625.845 1185.85 626.957 1185.78 628.046 1185.64C629.182 1185.45 630.128 1185.23 630.886 1185L638.199 1189.47ZM615.053 1178.25C614.201 1179.48 613.372 1180.81 612.568 1182.23C611.763 1183.65 611.148 1184.74 610.722 1185.5C609.112 1188.34 607.124 1191.29 604.758 1194.37C602.391 1197.4 599.717 1200.36 596.735 1203.25C593.8 1206.09 590.629 1208.69 587.221 1211.06L579.269 1205.09C582.393 1203.2 585.138 1201.23 587.505 1199.2C589.871 1197.16 591.93 1195.15 593.682 1193.16C595.433 1191.13 596.948 1189.19 598.226 1187.34C599.504 1185.45 600.569 1183.74 601.421 1182.23C601.989 1181.38 602.58 1180.24 603.196 1178.82C603.858 1177.35 604.332 1176.03 604.616 1174.85L615.053 1178.25Z" fill="black"/>
<path d="M512.032 1199.12C512.884 1199.17 513.973 1199.24 515.298 1199.34C516.624 1199.39 517.996 1199.43 519.416 1199.48C520.884 1199.53 522.233 1199.55 523.463 1199.55C524.647 1199.55 526.114 1199.55 527.865 1199.55C529.617 1199.55 531.51 1199.55 533.545 1199.55C535.628 1199.55 537.758 1199.55 539.935 1199.55C542.16 1199.55 544.361 1199.55 546.538 1199.55C548.716 1199.55 550.775 1199.55 552.715 1199.55C554.656 1199.55 556.384 1199.55 557.898 1199.55C559.46 1199.55 560.691 1199.55 561.59 1199.55C563.247 1199.55 564.809 1199.5 566.276 1199.41C567.744 1199.27 568.951 1199.17 569.897 1199.12V1210.27C569.093 1210.22 567.886 1210.15 566.276 1210.06C564.667 1209.96 563.105 1209.92 561.59 1209.92C560.691 1209.92 559.46 1209.92 557.898 1209.92C556.336 1209.92 554.585 1209.92 552.644 1209.92C550.704 1209.92 548.645 1209.92 546.467 1209.92C544.337 1209.92 542.16 1209.92 539.935 1209.92C537.711 1209.92 535.557 1209.92 533.474 1209.92C531.439 1209.92 529.546 1209.92 527.794 1209.92C526.09 1209.92 524.647 1209.92 523.463 1209.92C521.428 1209.92 519.345 1209.96 517.215 1210.06C515.085 1210.11 513.358 1210.18 512.032 1210.27V1199.12Z" fill="black"/>
<path d="M489.88 1175.34C490.495 1176.2 491.134 1177.21 491.797 1178.4C492.507 1179.58 493.193 1180.76 493.856 1181.95C494.518 1183.13 495.063 1184.17 495.489 1185.07L489.809 1187.56C489.051 1186.09 488.176 1184.43 487.182 1182.59C486.188 1180.69 485.217 1179.06 484.271 1177.69L489.88 1175.34ZM498.258 1172.15C498.873 1173.05 499.536 1174.11 500.246 1175.34C501.003 1176.53 501.713 1177.71 502.376 1178.89C503.038 1180.03 503.583 1181 504.009 1181.8L498.329 1184.22C497.619 1182.75 496.719 1181.09 495.631 1179.25C494.589 1177.4 493.595 1175.82 492.649 1174.49L498.258 1172.15ZM448.132 1209.92C448.936 1207.93 449.694 1205.85 450.404 1203.67C451.161 1201.45 451.824 1199.18 452.392 1196.86C452.96 1194.49 453.457 1192.15 453.883 1189.83C454.356 1187.51 454.687 1185.21 454.877 1182.94L465.243 1185.07C465.053 1185.73 464.84 1186.51 464.604 1187.41C464.367 1188.31 464.154 1189.19 463.965 1190.04C463.775 1190.89 463.633 1191.6 463.539 1192.17C463.302 1193.4 462.971 1194.89 462.545 1196.64C462.119 1198.39 461.622 1200.26 461.054 1202.25C460.486 1204.19 459.894 1206.16 459.279 1208.15C458.711 1210.09 458.119 1211.88 457.504 1213.54C456.652 1215.81 455.634 1218.18 454.451 1220.64C453.315 1223.1 452.084 1225.47 450.759 1227.74C449.481 1230.01 448.226 1232.05 446.996 1233.85L437.056 1229.66C439.328 1226.72 441.434 1223.48 443.375 1219.93C445.363 1216.38 446.948 1213.04 448.132 1209.92ZM483.206 1208.43C482.496 1206.54 481.715 1204.52 480.863 1202.39C480.011 1200.26 479.111 1198.13 478.165 1196C477.218 1193.87 476.295 1191.86 475.396 1189.97C474.496 1188.08 473.668 1186.44 472.911 1185.07L482.354 1182.02C483.064 1183.39 483.892 1185.05 484.839 1186.99C485.785 1188.93 486.732 1190.99 487.679 1193.16C488.625 1195.29 489.548 1197.42 490.448 1199.55C491.347 1201.68 492.152 1203.6 492.862 1205.31C493.477 1206.87 494.14 1208.71 494.85 1210.84C495.607 1212.97 496.364 1215.2 497.122 1217.52C497.926 1219.79 498.66 1222.01 499.323 1224.19C500.033 1226.37 500.624 1228.33 501.098 1230.08L490.59 1233.49C489.974 1230.7 489.264 1227.86 488.46 1224.97C487.655 1222.09 486.803 1219.25 485.904 1216.45C485.052 1213.66 484.152 1210.99 483.206 1208.43Z" fill="black"/>
<path d="M353.688 1204.38C360.078 1202.73 365.853 1200.81 371.012 1198.63C376.219 1196.41 380.787 1194.09 384.715 1191.67C387.177 1190.16 389.638 1188.43 392.099 1186.49C394.608 1184.5 396.951 1182.47 399.128 1180.39C401.353 1178.3 403.223 1176.32 404.737 1174.42L412.406 1181.73C410.228 1183.86 407.838 1186.02 405.234 1188.2C402.678 1190.37 400.004 1192.46 397.211 1194.44C394.419 1196.43 391.65 1198.25 388.904 1199.91C386.206 1201.47 383.177 1203.08 379.816 1204.74C376.503 1206.4 373 1207.96 369.308 1209.42C365.616 1210.89 361.901 1212.19 358.161 1213.33L353.688 1204.38ZM383.224 1196.22L393.306 1193.88V1225.83C393.306 1226.87 393.33 1228 393.377 1229.23C393.425 1230.46 393.496 1231.6 393.59 1232.64C393.685 1233.73 393.803 1234.56 393.945 1235.13H382.727C382.822 1234.56 382.893 1233.73 382.94 1232.64C383.035 1231.6 383.106 1230.46 383.153 1229.23C383.201 1228 383.224 1226.87 383.224 1225.83V1196.22Z" fill="black"/>
<path d="M294.119 1177.55C295.113 1177.69 296.296 1177.78 297.669 1177.83C299.042 1177.88 300.32 1177.9 301.503 1177.9C302.402 1177.9 303.775 1177.9 305.621 1177.9C307.514 1177.9 309.597 1177.9 311.869 1177.9C314.188 1177.9 316.484 1177.9 318.756 1177.9C321.028 1177.9 323.063 1177.9 324.862 1177.9C326.661 1177.9 327.986 1177.9 328.838 1177.9C329.927 1177.9 331.228 1177.88 332.743 1177.83C334.258 1177.78 335.512 1177.69 336.506 1177.55V1186.71C335.559 1186.61 334.329 1186.56 332.814 1186.56C331.347 1186.52 329.974 1186.49 328.696 1186.49C327.939 1186.49 326.637 1186.49 324.791 1186.49C322.992 1186.49 320.933 1186.49 318.614 1186.49C316.342 1186.49 314.046 1186.49 311.727 1186.49C309.455 1186.49 307.396 1186.49 305.55 1186.49C303.704 1186.49 302.355 1186.49 301.503 1186.49C300.367 1186.49 299.113 1186.52 297.74 1186.56C296.415 1186.61 295.208 1186.66 294.119 1186.71V1177.55ZM342.47 1198.14C342.233 1198.61 341.973 1199.13 341.689 1199.7C341.452 1200.27 341.263 1200.74 341.121 1201.12C340.032 1204.53 338.66 1207.93 337.003 1211.34C335.394 1214.7 333.264 1217.85 330.613 1220.79C327.063 1224.76 323.087 1228 318.685 1230.51C314.283 1232.97 309.81 1234.84 305.266 1236.12L298.237 1228.1C303.586 1226.96 308.343 1225.31 312.508 1223.13C316.673 1220.95 320.105 1218.47 322.803 1215.67C324.696 1213.73 326.211 1211.7 327.347 1209.57C328.53 1207.39 329.453 1205.33 330.116 1203.39C329.595 1203.39 328.696 1203.39 327.418 1203.39C326.14 1203.39 324.602 1203.39 322.803 1203.39C321.052 1203.39 319.158 1203.39 317.123 1203.39C315.088 1203.39 313.005 1203.39 310.875 1203.39C308.745 1203.39 306.71 1203.39 304.769 1203.39C302.828 1203.39 301.077 1203.39 299.515 1203.39C298 1203.39 296.77 1203.39 295.823 1203.39C294.971 1203.39 293.764 1203.41 292.202 1203.46C290.64 1203.51 289.102 1203.6 287.587 1203.75V1194.52C289.102 1194.61 290.569 1194.71 291.989 1194.8C293.456 1194.89 294.734 1194.94 295.823 1194.94C296.533 1194.94 297.598 1194.94 299.018 1194.94C300.485 1194.94 302.166 1194.94 304.059 1194.94C305.952 1194.94 307.964 1194.94 310.094 1194.94C312.271 1194.94 314.425 1194.94 316.555 1194.94C318.732 1194.94 320.791 1194.94 322.732 1194.94C324.673 1194.94 326.353 1194.94 327.773 1194.94C329.193 1194.94 330.258 1194.94 330.968 1194.94C332.104 1194.94 333.122 1194.87 334.021 1194.73C334.968 1194.59 335.678 1194.42 336.151 1194.23L342.47 1198.14Z" fill="black"/>
<path d="M218.433 1181.59C219.758 1181.74 221.249 1181.85 222.906 1181.95C224.562 1182 225.982 1182.02 227.166 1182.02H262.95C263.991 1182.02 265.127 1182.02 266.358 1182.02C267.636 1181.97 268.582 1181.93 269.198 1181.88C269.15 1182.68 269.103 1183.72 269.056 1185C269.008 1186.23 268.985 1187.37 268.985 1188.41V1225.19C268.985 1226.42 269.008 1227.86 269.056 1229.52C269.15 1231.18 269.221 1232.52 269.269 1233.57H258.974C259.021 1232.52 259.045 1231.39 259.045 1230.16C259.092 1228.88 259.116 1227.6 259.116 1226.32V1191.18H227.237C225.722 1191.18 224.113 1191.2 222.409 1191.25C220.752 1191.3 219.427 1191.37 218.433 1191.46V1181.59ZM217.51 1220.15C218.74 1220.24 220.113 1220.34 221.628 1220.43C223.19 1220.53 224.775 1220.57 226.385 1220.57H264.725V1229.87H226.669C225.296 1229.87 223.71 1229.92 221.912 1230.02C220.16 1230.11 218.693 1230.21 217.51 1230.3V1220.15Z" fill="black"/>
<path d="M148.357 1183.79C149.635 1183.93 151.031 1184.05 152.546 1184.14C154.108 1184.19 155.48 1184.22 156.664 1184.22C157.658 1184.22 158.983 1184.22 160.64 1184.22C162.296 1184.22 164.119 1184.22 166.107 1184.22C168.095 1184.22 170.106 1184.22 172.142 1184.22C174.224 1184.22 176.189 1184.22 178.035 1184.22C179.928 1184.22 181.585 1184.22 183.005 1184.22C184.425 1184.22 185.442 1184.22 186.058 1184.22C187.478 1184.22 188.898 1184.17 190.318 1184.07C191.738 1183.98 192.945 1183.88 193.939 1183.79V1194.08C192.945 1194.04 191.69 1193.99 190.176 1193.94C188.661 1193.85 187.288 1193.8 186.058 1193.8C185.442 1193.8 184.377 1193.8 182.863 1193.8C181.395 1193.8 179.668 1193.8 177.68 1193.8C175.692 1193.8 173.609 1193.8 171.432 1193.8C169.302 1193.8 167.243 1193.8 165.255 1193.8C163.267 1193.8 161.515 1193.8 160.001 1193.8C158.486 1193.8 157.397 1193.8 156.735 1193.8C155.362 1193.8 153.918 1193.82 152.404 1193.87C150.889 1193.92 149.54 1193.99 148.357 1194.08V1183.79ZM142.393 1218.51C143.813 1218.6 145.28 1218.7 146.795 1218.79C148.357 1218.89 149.848 1218.93 151.268 1218.93C151.883 1218.93 153.019 1218.93 154.676 1218.93C156.332 1218.93 158.273 1218.93 160.498 1218.93C162.77 1218.93 165.207 1218.93 167.811 1218.93C170.414 1218.93 172.994 1218.93 175.55 1218.93C178.153 1218.93 180.567 1218.93 182.792 1218.93C185.064 1218.93 187.004 1218.93 188.614 1218.93C190.27 1218.93 191.406 1218.93 192.022 1218.93C193.252 1218.93 194.554 1218.91 195.927 1218.86C197.347 1218.77 198.648 1218.65 199.832 1218.51V1229.37C198.601 1229.23 197.252 1229.13 195.785 1229.09C194.317 1228.99 193.063 1228.95 192.022 1228.95C191.406 1228.95 190.27 1228.95 188.614 1228.95C187.004 1228.95 185.064 1228.95 182.792 1228.95C180.567 1228.95 178.153 1228.95 175.55 1228.95C172.994 1228.95 170.414 1228.95 167.811 1228.95C165.207 1228.95 162.77 1228.95 160.498 1228.95C158.273 1228.95 156.332 1228.95 154.676 1228.95C153.019 1228.95 151.883 1228.95 151.268 1228.95C149.848 1228.95 148.333 1228.99 146.724 1229.09C145.162 1229.13 143.718 1229.23 142.393 1229.37V1218.51Z" fill="black"/>
</svg>
