<svg width="1080" height="1920" viewBox="0 0 1080 1920" fill="none" xmlns="http://www.w3.org/2000/svg">
<path d="M1080 1920L1080 0L0 0L0 1920H1080Z" fill="#A5D4AD"/>
<path d="M1020 983.72V95C1020 75.67 1004.33 60 985 60H95.58C75.93 60 60 75.93 60 95.58V983.71C60 984.03 60.25 984.28 60.57 984.28C80.03 984.59 95.71 1000.46 95.71 1019.99C95.71 1039.52 80.03 1055.39 60.57 1055.7C60.25 1055.7 60 1055.96 60 1056.27V1824.99C60 1844.32 75.67 1859.99 95 1859.99H985C1004.33 1859.99 1020 1844.32 1020 1824.99V1056.27C1020 1055.95 1019.75 1055.7 1019.43 1055.7C999.97 1055.39 984.29 1039.52 984.29 1019.99C984.29 1000.46 999.97 984.59 1019.43 984.28C1019.75 984.28 1020 984.02 1020 983.71V983.72Z" fill="white"/>
<path d="M60.57 1055.71C60.25 1055.71 60 1055.97 60 1056.28V1825C60 1844.33 75.67 1860 95 1860H985C1004.33 1860 1020 1844.33 1020 1825V1056.28C1020 1055.96 1019.75 1055.71 1019.43 1055.71C999.97 1055.4 984.29 1039.53 984.29 1020H95.71C95.71 1039.53 80.03 1055.4 60.57 1055.71Z" fill="#E5F2E6"/>
<path d="M121 1020H160.9" stroke="black" stroke-width="6" stroke-miterlimit="10"/>
<path d="M187.51 1020H227.41" stroke="black" stroke-width="6" stroke-miterlimit="10"/>
<path d="M254.02 1020H293.92" stroke="black" stroke-width="6" stroke-miterlimit="10"/>
<path d="M320.52 1020H360.43" stroke="black" stroke-width="6" stroke-miterlimit="10"/>
<path d="M387.03 1020H426.94" stroke="black" stroke-width="6" stroke-miterlimit="10"/>
<path d="M453.54 1020H493.44" stroke="black" stroke-width="6" stroke-miterlimit="10"/>
<path d="M520.05 1020H559.95" stroke="black" stroke-width="6" stroke-miterlimit="10"/>
<path d="M586.56 1020H626.46" stroke="black" stroke-width="6" stroke-miterlimit="10"/>
<path d="M653.06 1020H692.97" stroke="black" stroke-width="6" stroke-miterlimit="10"/>
<path d="M719.57 1020H759.48" stroke="black" stroke-width="6" stroke-miterlimit="10"/>
<path d="M786.08 1020H825.98" stroke="black" stroke-width="6" stroke-miterlimit="10"/>
<path d="M852.59 1020H892.49" stroke="black" stroke-width="6" stroke-miterlimit="10"/>
<path d="M919.1 1020H959" stroke="black" stroke-width="6" stroke-miterlimit="10"/>
<path d="M1020 984.29V95C1020 75.67 1004.33 60 985 60H95C75.67 60 60 75.67 60 95V984.29C79.72 984.29 95.71 1000.28 95.71 1020C95.71 1039.72 79.72 1055.71 60 1055.71V1825C60 1844.33 75.67 1860 95 1860H985C1004.33 1860 1020 1844.33 1020 1825V1055.71C1000.28 1055.71 984.29 1039.72 984.29 1020C984.29 1000.28 1000.28 984.29 1020 984.29Z" stroke="black" stroke-width="6" stroke-miterlimit="10"/>
<path d="M912.649 525.666C908.779 525.666 905.539 522.646 905.319 518.736C900.589 435.626 868.789 358.856 813.369 296.746C810.669 293.716 810.929 289.066 813.959 286.366C816.989 283.666 821.629 283.926 824.339 286.956C881.999 351.576 915.069 431.436 919.999 517.896C920.229 521.946 917.129 525.426 913.079 525.656C912.939 525.656 912.799 525.666 912.659 525.666H912.649Z" fill="black"/>
<path d="M818.849 795.517C817.109 795.517 815.359 794.897 813.959 793.647C810.929 790.947 810.669 786.297 813.369 783.267C868.789 721.157 900.589 644.387 905.319 561.277C905.549 557.227 909.029 554.117 913.079 554.357C917.129 554.587 920.229 558.057 919.999 562.117C915.069 648.587 881.999 728.447 824.339 793.057C822.889 794.687 820.869 795.517 818.849 795.517Z" fill="black"/>
<path d="M167.36 525.666C167.22 525.666 167.08 525.666 166.94 525.656C162.89 525.426 159.79 521.956 160.02 517.896C164.95 431.426 198.02 351.566 255.68 286.956C258.38 283.926 263.03 283.666 266.06 286.366C269.09 289.066 269.35 293.716 266.65 296.746C211.23 358.856 179.43 435.616 174.7 518.736C174.48 522.646 171.24 525.666 167.37 525.666H167.36Z" fill="black"/>
<path d="M261.17 795.517C259.15 795.517 257.13 794.687 255.68 793.057C198.02 728.437 164.95 648.577 160.02 562.117C159.79 558.067 162.89 554.587 166.94 554.357C170.99 554.117 174.47 557.227 174.7 561.277C179.43 644.397 211.23 721.157 266.65 783.267C269.35 786.297 269.09 790.947 266.06 793.647C264.66 794.897 262.91 795.517 261.17 795.517Z" fill="black"/>
<path d="M788.169 268.511C786.429 268.511 784.679 267.891 783.279 266.641C721.169 211.221 644.399 179.421 561.289 174.691C557.239 174.461 554.139 170.991 554.369 166.931C554.599 162.881 558.039 159.791 562.129 160.011C648.599 164.941 728.459 198.011 793.069 255.671C796.099 258.371 796.359 263.021 793.659 266.051C792.209 267.681 790.189 268.511 788.169 268.511Z" fill="black"/>
<path d="M291.85 268.512C289.83 268.512 287.81 267.682 286.36 266.052C283.66 263.022 283.92 258.372 286.95 255.672C351.57 198.012 431.43 164.942 517.89 160.012C521.94 159.782 525.42 162.882 525.65 166.932C525.88 170.982 522.78 174.462 518.73 174.692C435.62 179.422 358.85 211.222 296.74 266.642C295.34 267.892 293.59 268.512 291.85 268.512Z" fill="black"/>
<path d="M561.69 920.006C557.82 920.006 554.58 916.986 554.36 913.076C554.13 909.026 557.23 905.546 561.28 905.316C644.4 900.586 721.16 868.786 783.27 813.366C786.3 810.666 790.95 810.926 793.65 813.956C796.35 816.986 796.09 821.636 793.06 824.336C728.44 881.996 648.58 915.066 562.12 919.996C561.98 919.996 561.84 920.006 561.7 920.006H561.69Z" fill="black"/>
<path d="M518.319 920.006C518.179 920.006 518.04 920.006 517.9 919.996C431.43 915.066 351.569 881.996 286.959 824.336C283.929 821.636 283.669 816.986 286.369 813.956C289.069 810.926 293.719 810.666 296.749 813.366C358.859 868.786 435.629 900.586 518.739 905.316C522.789 905.546 525.889 909.016 525.659 913.076C525.439 916.986 522.199 920.006 518.329 920.006H518.319Z" fill="black"/>
<path d="M875.38 526.189C872.37 526.189 869.85 523.839 869.68 520.799C865.41 445.789 836.71 376.519 786.7 320.459C784.6 318.099 784.8 314.489 787.16 312.389C789.51 310.289 793.13 310.489 795.23 312.849C846.98 370.849 876.68 442.539 881.1 520.149C881.28 523.299 878.87 525.999 875.72 526.179C875.61 526.179 875.5 526.179 875.39 526.179L875.38 526.189Z" fill="black"/>
<path d="M790.96 769.062C789.6 769.062 788.25 768.582 787.16 767.612C784.8 765.512 784.6 761.892 786.7 759.542C836.71 703.492 865.41 634.212 869.68 559.202C869.86 556.052 872.55 553.642 875.71 553.822C878.86 554.002 881.27 556.702 881.09 559.852C876.67 637.472 846.98 709.152 795.22 767.152C794.09 768.422 792.52 769.062 790.95 769.062H790.96Z" fill="black"/>
<path d="M204.63 526.187C204.52 526.187 204.41 526.187 204.3 526.187C201.15 526.007 198.74 523.307 198.92 520.157C203.34 442.537 233.03 370.857 284.79 312.857C286.89 310.497 290.51 310.297 292.86 312.397C295.22 314.497 295.42 318.117 293.32 320.467C243.31 376.517 214.61 445.797 210.34 520.807C210.17 523.847 207.65 526.197 204.64 526.197L204.63 526.187Z" fill="black"/>
<path d="M289.05 769.055C287.48 769.055 285.91 768.405 284.78 767.145C233.03 709.145 203.33 637.455 198.91 559.845C198.73 556.695 201.14 553.995 204.29 553.815C207.45 553.625 210.14 556.045 210.32 559.195C214.59 634.205 243.29 703.485 293.3 759.535C295.4 761.895 295.2 765.505 292.84 767.605C291.75 768.575 290.39 769.055 289.04 769.055H289.05Z" fill="black"/>
<path d="M763.35 294.756C761.99 294.756 760.64 294.276 759.55 293.306C703.5 243.296 634.22 214.596 559.21 210.326C556.06 210.146 553.65 207.446 553.83 204.296C554.01 201.146 556.7 198.736 559.86 198.916C637.48 203.336 709.16 233.026 767.16 284.786C769.52 286.886 769.72 290.506 767.62 292.856C766.49 294.126 764.92 294.766 763.35 294.766V294.756Z" fill="black"/>
<path d="M316.66 294.759C315.09 294.759 313.52 294.109 312.39 292.849C310.29 290.489 310.49 286.879 312.85 284.779C370.85 233.029 442.54 203.329 520.15 198.909C523.3 198.719 526 201.139 526.18 204.289C526.36 207.439 523.95 210.139 520.8 210.319C445.79 214.589 376.52 243.289 320.46 293.299C319.37 294.269 318.01 294.749 316.66 294.749V294.759Z" fill="black"/>
<path d="M559.53 881.102C556.52 881.102 554 878.752 553.83 875.712C553.65 872.562 556.06 869.862 559.21 869.682C634.22 865.412 703.49 836.712 759.55 786.702C761.9 784.602 765.52 784.802 767.62 787.162C769.72 789.522 769.52 793.132 767.16 795.232C709.16 846.982 637.47 876.682 559.86 881.102C559.75 881.102 559.64 881.102 559.53 881.102Z" fill="black"/>
<path d="M520.49 881.102C520.38 881.102 520.27 881.102 520.16 881.102C442.54 876.682 370.86 846.992 312.86 795.232C310.5 793.132 310.3 789.512 312.4 787.162C314.5 784.802 318.12 784.602 320.47 786.702C376.52 836.722 445.8 865.412 520.81 869.682C523.96 869.862 526.37 872.562 526.19 875.712C526.02 878.752 523.5 881.102 520.49 881.102Z" fill="black"/>
<path d="M841.85 526.514C839.7 526.514 837.9 524.834 837.78 522.664C833.92 454.914 808 392.344 762.83 341.714C761.33 340.034 761.48 337.454 763.16 335.944C764.84 334.444 767.42 334.584 768.93 336.274C815.35 388.294 841.98 452.584 845.94 522.194C846.07 524.444 844.35 526.374 842.09 526.504C842.01 526.504 841.93 526.504 841.85 526.504V526.514Z" fill="black"/>
<path d="M765.87 745.106C764.9 745.106 763.93 744.766 763.15 744.066C761.47 742.566 761.32 739.986 762.82 738.296C807.99 687.666 833.91 625.096 837.77 557.346C837.9 555.096 839.86 553.396 842.08 553.496C844.33 553.626 846.05 555.556 845.93 557.806C841.96 627.416 815.33 691.706 768.92 743.726C768.11 744.626 766.99 745.086 765.87 745.086V745.106Z" fill="black"/>
<path d="M238.17 526.516C238.09 526.516 238.01 526.516 237.93 526.516C235.68 526.386 233.96 524.456 234.08 522.206C238.05 452.596 264.68 388.306 311.09 336.286C312.59 334.606 315.17 334.456 316.86 335.956C318.54 337.456 318.69 340.036 317.19 341.726C272.02 392.356 246.1 454.926 242.24 522.676C242.12 524.846 240.32 526.526 238.17 526.526V526.516Z" fill="black"/>
<path d="M314.14 745.103C313.02 745.103 311.9 744.643 311.09 743.743C264.67 691.723 238.04 627.433 234.08 557.823C233.95 555.573 235.67 553.643 237.93 553.513C240.17 553.403 242.11 555.103 242.24 557.363C246.1 625.113 272.02 687.683 317.19 738.313C318.69 739.993 318.54 742.573 316.86 744.083C316.08 744.773 315.11 745.123 314.14 745.123V745.103Z" fill="black"/>
<path d="M741.02 318.225C740.05 318.225 739.08 317.885 738.3 317.185C687.67 272.015 625.1 246.095 557.35 242.235C555.1 242.105 553.38 240.175 553.5 237.925C553.63 235.675 555.55 233.965 557.81 234.075C627.42 238.045 691.71 264.675 743.74 311.085C745.42 312.585 745.57 315.165 744.07 316.855C743.26 317.755 742.14 318.215 741.02 318.215V318.225Z" fill="black"/>
<path d="M339 318.224C337.88 318.224 336.76 317.764 335.95 316.864C334.45 315.184 334.6 312.604 336.28 311.094C388.3 264.674 452.59 238.044 522.2 234.084C524.45 233.964 526.38 235.674 526.51 237.934C526.64 240.184 524.92 242.114 522.66 242.244C454.91 246.104 392.34 272.024 341.71 317.194C340.93 317.884 339.96 318.234 338.99 318.234L339 318.224Z" fill="black"/>
<path d="M557.57 845.933C555.42 845.933 553.62 844.253 553.5 842.083C553.37 839.833 555.09 837.903 557.35 837.773C625.1 833.913 687.67 807.993 738.3 762.823C739.98 761.323 742.56 761.473 744.07 763.153C745.57 764.833 745.42 767.413 743.74 768.923C691.72 815.343 627.43 841.973 557.81 845.933C557.73 845.933 557.65 845.933 557.57 845.933Z" fill="black"/>
<path d="M522.44 845.933C522.36 845.933 522.28 845.933 522.2 845.933C452.59 841.963 388.3 815.333 336.28 768.923C334.6 767.423 334.45 764.843 335.95 763.153C337.45 761.473 340.03 761.323 341.72 762.823C392.35 807.993 454.92 833.913 522.67 837.773C524.92 837.903 526.64 839.833 526.52 842.083C526.4 844.253 524.6 845.933 522.45 845.933H522.44Z" fill="black"/>
<path d="M320.65 546.174C320.65 544.604 321.79 543.274 323.34 543.024C324.64 542.814 326.27 542.524 327.98 542.124C332.4 541.084 337.59 539.114 343.41 536.274C349.29 533.404 354.92 529.414 359.17 523.674C366.34 513.974 367.86 501.404 368.19 496.894C368.26 495.974 367.53 495.194 366.6 495.194H317.09C315.33 495.194 313.91 493.764 313.91 492.014V470.694C313.91 468.934 315.34 467.514 317.09 467.514H367.07C367.95 467.514 368.66 466.804 368.66 465.924V447.184C368.66 446.304 367.95 445.594 367.07 445.594H328.62C326.86 445.594 325.44 444.164 325.44 442.414V421.094C325.44 419.334 326.87 417.914 328.62 417.914H428.96C430.72 417.914 432.14 419.344 432.14 421.094V442.414C432.14 444.174 430.71 445.594 428.96 445.594H398.52C397.64 445.594 396.93 446.304 396.93 447.184V465.924C396.93 466.804 397.64 467.514 398.52 467.514H438.58C440.34 467.514 441.76 468.944 441.76 470.694V492.014C441.76 493.774 440.33 495.194 438.58 495.194H398.39C397.54 495.194 396.84 495.864 396.8 496.714C396.57 501.754 395.15 518.444 386.18 532.854C380.73 541.614 373.65 548.264 366.54 553.544C359.41 558.844 352.26 562.934 345.27 565.704C338.24 568.494 332.34 570.444 327.75 571.514C326.66 571.764 325.49 571.994 324.4 572.184C322.45 572.534 320.66 571.034 320.66 569.044V546.164L320.65 546.174Z" fill="black"/>
<path d="M474.55 546.522C474.55 545.062 475.55 543.792 476.96 543.432C485.21 541.362 488.93 540.112 496.84 536.322C496.84 536.322 500.89 534.212 504.93 531.302C517.11 522.542 525.22 510.632 525.22 510.632C534.68 497.282 537.77 474.912 538.49 468.492C538.6 467.552 537.86 466.722 536.91 466.722H500.58C500.35 466.722 500.14 466.842 500.03 467.042L499.88 467.292C494.3 478.112 486.88 487.992 480.45 494.242C474 500.502 468.59 505.052 464.38 507.752L461.78 509.422C460.72 510.102 459.33 509.342 459.33 508.082V479.892C459.33 478.952 459.75 478.062 460.47 477.452C461.12 476.902 461.99 476.132 463.18 475.062C465.94 472.572 469.05 468.512 472.42 462.982C475.76 457.512 479.35 450.212 483.07 441.292C486.45 433.202 488.98 423.092 490.86 412.062C491.12 410.532 492.45 409.422 494 409.422H513.91C515.91 409.422 517.42 411.252 517.04 413.212C516.4 416.522 515.71 420.882 514.85 424.312C513.58 429.392 512.76 432.302 511.24 436.722C510.98 437.472 511.54 438.242 512.33 438.242H591.18C592.94 438.242 594.36 439.672 594.36 441.422V463.512C594.36 465.272 592.93 466.692 591.18 466.692H568.14C567.33 466.692 566.64 467.302 566.56 468.112C565.93 474.012 562.88 497.162 552.39 517.262C538.29 546.002 508.14 566.392 478.34 572.132C476.38 572.512 474.56 571.002 474.56 569.002V546.482L474.55 546.522Z" fill="black"/>
<path d="M675.9 411.035V468.875C675.9 469.755 676.61 470.465 677.49 470.465H764.52C765.4 470.465 766.11 469.755 766.11 468.875V411.035C766.11 410.155 765.4 409.445 764.52 409.445H677.49C676.61 409.445 675.9 410.155 675.9 411.035ZM738.46 452.745H702.3C701.42 452.745 700.71 452.035 700.71 451.155V446.875C700.71 445.995 701.42 445.285 702.3 445.285H738.46C739.34 445.285 740.05 445.995 740.05 446.875V451.155C740.05 452.035 739.34 452.745 738.46 452.745ZM738.46 434.455H702.3C701.42 434.455 700.71 433.745 700.71 432.865V428.755C700.71 427.875 701.42 427.165 702.3 427.165H738.46C739.34 427.165 740.05 427.875 740.05 428.755V432.865C740.05 433.745 739.34 434.455 738.46 434.455Z" fill="black"/>
<path d="M674.23 497.342H728.27C729.15 497.342 729.86 498.052 729.86 498.932V502.842C729.86 503.722 729.15 504.432 728.27 504.432H667.76C666 504.432 664.58 505.862 664.58 507.612V522.862C664.58 524.622 666.01 526.042 667.76 526.042H728.27C729.15 526.042 729.86 526.752 729.86 527.632V545.392C729.86 546.112 729.94 547.982 729.22 548.852C728.39 549.872 727.15 549.672 725.85 549.722C722.54 549.722 719.58 549.702 716.95 549.662C716.55 549.662 716.26 549.292 716.34 548.902C716.6 547.632 716.73 546.312 716.7 544.962C716.5 535.682 708.94 528.082 699.66 527.842C689.58 527.582 681.37 535.852 681.71 545.942C682.02 555.292 689.79 562.812 699.15 562.842C704.04 562.852 708.46 560.862 711.64 557.642C711.98 557.302 712.55 557.432 712.7 557.882C714.16 562.212 715.54 566.342 716.79 570.052C717.23 571.352 718.46 572.222 719.83 572.212C725.73 572.172 730.51 571.962 734.18 571.602C738.31 571.182 742.09 570.152 745.52 568.502C749.18 566.842 751.69 564.422 753.05 561.232C754.41 558.042 755.09 553.552 755.09 547.762V527.622C755.09 526.742 755.8 526.032 756.68 526.032H762.91C764.67 526.032 766.09 524.602 766.09 522.852V507.602C766.09 505.842 764.66 504.422 762.91 504.422H756.68C755.8 504.422 755.09 503.712 755.09 502.832V498.922C755.09 498.042 755.8 497.332 756.68 497.332H762.91C764.67 497.332 766.09 495.902 766.09 494.152V479.602C766.09 477.842 764.66 476.422 762.91 476.422H674.21C672.45 476.422 671.03 477.852 671.03 479.602V494.152C671.03 495.912 672.46 497.332 674.21 497.332L674.23 497.342Z" fill="black"/>
<path d="M668.83 409.445H650.26C649.4 409.445 648.58 409.795 647.98 410.405C635.23 423.355 618.29 434.575 612.13 438.485C610.78 439.335 610.28 441.065 610.95 442.505L620.7 463.575C621.63 465.575 624.26 466.055 625.83 464.505C646.12 444.465 664.45 419.805 670.12 411.965C670.88 410.915 670.12 409.445 668.83 409.445Z" fill="black"/>
<path d="M671.92 453.899V435.419C671.92 434.009 670.22 433.299 669.21 434.289C653.64 449.609 620.05 477.069 611.68 483.869C610.55 484.789 610.19 486.359 610.8 487.679L620.7 509.059C621.63 511.059 624.26 511.539 625.83 509.989C627.54 508.299 629.24 506.569 630.92 504.829C631.32 504.419 632.02 504.699 632.02 505.269V569.069C632.02 570.829 633.45 572.249 635.2 572.249H653.82C655.58 572.249 657 570.819 657 569.069V476.379C657 475.309 657.36 474.259 658.03 473.419C664.87 464.739 669.72 458.029 671.34 455.749C671.72 455.209 671.93 454.569 671.93 453.899H671.92Z" fill="black"/>
<path d="M653.271 623.338C640.851 623.338 634.811 628.288 634.811 638.478V655.608C634.811 665.678 640.851 670.568 653.271 670.568C659.141 670.568 663.481 669.488 666.561 667.278C670.001 664.808 671.741 660.878 671.741 655.598V638.468C671.741 628.278 665.701 623.328 653.281 623.328L653.271 623.338ZM646.091 639.308C646.091 633.938 648.841 632.918 653.271 632.918C657.701 632.918 660.451 633.958 660.451 639.308V654.688C660.451 659.958 657.601 660.988 653.271 660.988C648.941 660.988 646.091 659.988 646.091 654.688V639.308Z" fill="black"/>
<path d="M708.271 669.334H721.36L703.63 646.784L720.56 624.804H707.401L694.06 642.284V610.234H682.771V669.334H694.06V659.214L696.951 655.454L708.271 669.334Z" fill="black"/>
<path d="M754.82 624.805V653.295C754.82 659.045 751.88 660.895 746.83 660.895C743.56 660.895 740.28 660.355 740.28 653.885V624.815H729V656.775C729 665.745 733.71 670.485 742.62 670.485C749.3 670.485 753.88 666.865 755.58 662.805L757.39 669.345H766.11V624.815H754.83L754.82 624.805Z" fill="black"/>
<path d="M630.57 610.234H589.15V620.144V620.154H604.22V669.334H615.69V620.154H630.57V610.234Z" fill="black"/>
<path d="M459.69 669.334H472.78L455.05 646.784L471.98 624.804H458.82L445.48 642.284V610.234H434.2V669.334H445.48V659.214L448.37 655.454L459.69 669.334Z" fill="black"/>
<path d="M355.33 610.234H313.91V620.144V620.154H328.99V669.334H340.45V620.154H355.33V610.234Z" fill="black"/>
<path d="M421.8 658.896L421.2 659.046C417.62 659.966 413.29 660.896 409.41 660.896C404.86 660.896 401.69 658.826 401.69 652.836V640.976C401.69 634.906 404.86 632.826 409.41 632.826C413.36 632.826 417.88 633.706 421.23 634.406L421.81 634.526V625.196L421.5 625.126C417.69 624.236 412.05 623.336 407.53 623.336C402.01 623.336 397.97 624.406 395.17 626.596C391.97 629.096 390.42 633.856 390.42 639.346V654.646C390.42 664.776 396.02 670.566 407.54 670.566C411.41 670.566 417.27 669.496 421.53 668.316L421.82 668.236V658.886L421.8 658.896Z" fill="black"/>
<path d="M553.93 634.705V624.805H543.69V615.195H532.41V624.805H525.18V634.705H532.41V655.425C532.41 667.945 540.3 670.565 546.93 670.565C548.71 670.565 550.51 670.455 552.12 670.225V660.265C551.47 660.335 550.26 660.365 549.54 660.365C546.46 660.365 543.69 659.735 543.69 652.095V634.695H553.93V634.705Z" fill="black"/>
<path d="M489.74 650.742V650.562H515.17V641.482C515.17 635.572 513.55 630.243 510.36 627.343C507.42 624.673 502.78 623.312 497.26 623.312C485.08 623.312 478.46 629.223 478.46 639.593V654.453C478.46 664.703 483.84 670.552 496.32 670.552C500.98 670.552 506.29 669.563 511.97 668.403L512.36 668.323V659.052L511.71 659.203C507.14 660.253 504.62 661.143 500.29 661.143C494.08 661.143 489.74 658.623 489.74 652.203V650.722V650.742ZM489.74 639.722C489.74 634.072 493.8 632.742 497.17 632.742C500.54 632.742 504.07 634.072 504.07 639.722V643.232H489.74V642.713V639.722Z" fill="black"/>
<path d="M378.18 626.883H366.9V669.333H378.18V626.883Z" fill="black"/>
<path d="M372.54 622.224C376.422 622.224 379.57 619.077 379.57 615.194C379.57 611.312 376.422 608.164 372.54 608.164C368.657 608.164 365.51 611.312 365.51 615.194C365.51 619.077 368.657 622.224 372.54 622.224Z" fill="black"/>
<path d="M585.74 643.922H566.15V651.262H585.74V643.922Z" fill="black"/>
<path d="M711.976 1521C711.129 1521 710.403 1520.4 710.403 1519.43V1425.66C710.403 1424.93 711.008 1424.2 711.976 1424.2H756.262C757.23 1424.2 757.835 1424.81 757.835 1425.66V1435.09C757.835 1435.94 757.23 1436.55 756.262 1436.55H723.108V1466.43H755.173C756.02 1466.43 756.625 1467.04 756.625 1467.88V1477.08C756.625 1478.05 756.02 1478.77 755.173 1478.77H723.108V1519.43C723.108 1520.4 722.382 1521 721.535 1521H711.976Z" fill="black"/>
<path d="M643.323 1521C642.476 1521 641.75 1520.4 641.75 1519.43V1425.66C641.75 1424.93 642.355 1424.2 643.323 1424.2H687.609C688.577 1424.2 689.182 1424.81 689.182 1425.66V1435.09C689.182 1435.94 688.577 1436.55 687.609 1436.55H654.455V1466.43H686.52C687.367 1466.43 687.972 1467.04 687.972 1467.88V1477.08C687.972 1478.05 687.367 1478.77 686.52 1478.77H654.455V1519.43C654.455 1520.4 653.729 1521 652.882 1521H643.323Z" fill="black"/>
<path d="M573.766 1434.97C553.317 1434.97 536.861 1451.66 536.861 1472.48C536.861 1493.05 553.196 1510.23 573.645 1510.23C594.094 1510.23 610.792 1493.05 610.792 1472.6C610.792 1451.79 594.215 1434.97 573.766 1434.97ZM524.035 1472.48C524.035 1444.65 545.936 1422.38 573.766 1422.38C601.596 1422.38 623.618 1444.77 623.618 1472.6C623.618 1500.43 601.475 1522.81 573.645 1522.81C545.815 1522.81 524.035 1500.31 524.035 1472.48Z" fill="black"/>
<path d="M435.74 1520.27C435.498 1520.76 435.014 1521 434.53 1521H423.398C422.309 1521 421.583 1519.79 422.188 1518.82L475.912 1424.92C476.154 1424.44 476.638 1424.2 477.243 1424.2H488.375C489.706 1424.2 490.19 1425.41 489.585 1426.38L435.74 1520.27ZM404.643 1447.43C404.643 1433.51 415.533 1422.38 429.448 1422.38C443.484 1422.38 454.374 1433.51 454.374 1447.55C454.374 1461.47 443.242 1472.6 429.448 1472.6C415.412 1472.6 404.643 1461.47 404.643 1447.43ZM417.348 1447.43C417.348 1454.33 422.672 1460.01 429.448 1460.01C436.224 1460.01 441.669 1454.33 441.669 1447.55C441.669 1440.65 436.224 1435.21 429.448 1435.21C422.793 1435.21 417.348 1440.65 417.348 1447.43ZM459.214 1497.52C459.214 1483.61 470.104 1472.48 484.019 1472.48C498.055 1472.48 508.945 1483.61 508.945 1497.64C508.945 1511.56 497.813 1522.69 484.019 1522.69C469.983 1522.69 459.214 1511.56 459.214 1497.52ZM471.919 1497.52C471.919 1504.42 477.243 1510.11 484.019 1510.11C490.795 1510.11 496.24 1504.42 496.24 1497.64C496.24 1490.75 490.795 1485.3 484.019 1485.3C477.364 1485.3 471.919 1490.75 471.919 1497.52Z" fill="black"/>
<path d="M385.013 1424.2C385.86 1424.2 386.465 1424.81 386.465 1425.66V1435.21C386.465 1436.06 385.86 1436.67 385.013 1436.67H355.005L349.439 1453.97H349.56C349.56 1453.97 352.101 1453.61 354.4 1453.73C372.913 1454.33 386.465 1467.76 386.465 1487.61C386.465 1506.73 372.55 1522.82 351.617 1522.82C338.67 1522.82 327.659 1516.77 321.246 1507.09L319.31 1504.18C318.947 1503.58 319.068 1502.49 319.673 1502.13L327.417 1496.32C328.022 1495.71 329.111 1495.84 329.716 1496.68L331.289 1499.22C336.129 1507.09 343.994 1510.48 351.617 1510.48C365.895 1510.48 373.76 1499.83 373.76 1487.49C373.76 1473.81 364.08 1465.95 353.069 1465.95C347.019 1465.95 343.631 1467.52 340.848 1469.58L339.88 1470.3C339.517 1470.55 339.154 1470.67 338.67 1470.55L333.467 1469.7C332.378 1469.58 332.015 1468.61 332.257 1467.76L345.567 1425.17C345.809 1424.57 346.293 1424.2 346.898 1424.2H385.013Z" fill="black"/>
<path d="M763.024 1631.46C762.864 1632.04 762.688 1632.76 762.496 1633.62C762.304 1634.48 762.112 1635.4 761.92 1636.36C761.728 1637.28 761.552 1638.2 761.392 1639.09C761.264 1639.99 761.168 1640.77 761.104 1641.44C761.68 1640.48 762.368 1639.56 763.168 1638.66C763.968 1637.73 764.864 1636.9 765.856 1636.16C766.88 1635.4 767.984 1634.79 769.168 1634.34C770.384 1633.89 771.664 1633.67 773.008 1633.67C775.248 1633.67 777.264 1634.36 779.056 1635.73C780.848 1637.11 782.256 1639.08 783.28 1641.64C784.336 1644.2 784.864 1647.24 784.864 1650.76C784.864 1654.15 784.368 1657.12 783.376 1659.68C782.384 1662.21 780.96 1664.37 779.104 1666.16C777.248 1667.96 775.024 1669.41 772.432 1670.53C769.872 1671.68 767.008 1672.55 763.84 1673.12L760.192 1667.56C762.848 1667.14 765.28 1666.58 767.488 1665.88C769.728 1665.14 771.648 1664.15 773.248 1662.9C774.88 1661.65 776.128 1660.05 776.992 1658.1C777.888 1656.12 778.336 1653.68 778.336 1650.8C778.336 1648.34 778.08 1646.26 777.568 1644.56C777.056 1642.84 776.304 1641.52 775.312 1640.63C774.352 1639.73 773.2 1639.28 771.856 1639.28C770.448 1639.28 769.104 1639.75 767.824 1640.68C766.544 1641.6 765.392 1642.82 764.368 1644.32C763.376 1645.8 762.576 1647.4 761.968 1649.12C761.392 1650.85 761.072 1652.52 761.008 1654.12C760.976 1654.79 760.96 1655.52 760.96 1656.32C760.992 1657.12 761.088 1658.08 761.248 1659.2L755.344 1659.59C755.216 1658.66 755.072 1657.51 754.912 1656.13C754.784 1654.72 754.72 1653.2 754.72 1651.57C754.72 1650.45 754.752 1649.25 754.816 1647.97C754.912 1646.69 755.008 1645.4 755.104 1644.08C755.232 1642.74 755.376 1641.4 755.536 1640.05C755.728 1638.71 755.904 1637.43 756.064 1636.21C756.192 1635.28 756.288 1634.37 756.352 1633.48C756.416 1632.58 756.448 1631.81 756.448 1631.17L763.024 1631.46Z" fill="black"/>
<path d="M721.503 1631.36C721.375 1631.81 721.247 1632.26 721.119 1632.71C721.023 1633.12 720.927 1633.52 720.831 1633.91C720.543 1635.41 720.271 1637.14 720.015 1639.09C719.759 1641.01 719.551 1643.03 719.391 1645.14C719.231 1647.22 719.151 1649.27 719.151 1651.28C719.151 1653.78 719.279 1656.08 719.535 1658.19C719.791 1660.27 720.143 1662.21 720.591 1664C721.071 1665.76 721.583 1667.44 722.127 1669.04L716.607 1670.72C716.127 1669.28 715.663 1667.57 715.215 1665.59C714.799 1663.6 714.447 1661.47 714.159 1659.2C713.871 1656.9 713.727 1654.58 713.727 1652.24C713.727 1650.64 713.775 1649.04 713.871 1647.44C713.999 1645.81 714.127 1644.21 714.255 1642.64C714.383 1641.04 714.527 1639.52 714.687 1638.08C714.879 1636.61 715.039 1635.28 715.167 1634.1C715.199 1633.65 715.231 1633.17 715.263 1632.66C715.295 1632.11 715.295 1631.63 715.263 1631.22L721.503 1631.36ZM712.959 1636.69C715.999 1636.69 718.847 1636.63 721.503 1636.5C724.191 1636.37 726.767 1636.15 729.231 1635.83C731.727 1635.51 734.207 1635.04 736.671 1634.43L736.719 1640C735.055 1640.29 733.215 1640.56 731.199 1640.82C729.215 1641.04 727.135 1641.23 724.959 1641.39C722.815 1641.55 720.703 1641.68 718.623 1641.78C716.543 1641.84 714.591 1641.87 712.767 1641.87C711.935 1641.87 710.991 1641.86 709.935 1641.83C708.911 1641.79 707.887 1641.76 706.863 1641.73C705.871 1641.67 705.007 1641.62 704.271 1641.59L704.127 1636.02C704.671 1636.08 705.455 1636.18 706.479 1636.31C707.503 1636.4 708.591 1636.5 709.743 1636.59C710.927 1636.66 711.999 1636.69 712.959 1636.69ZM733.647 1643.7C733.551 1643.99 733.407 1644.39 733.215 1644.9C733.023 1645.41 732.831 1645.94 732.639 1646.48C732.479 1647.03 732.351 1647.46 732.255 1647.78C731.327 1650.66 730.191 1653.3 728.847 1655.7C727.535 1658.07 726.111 1660.15 724.575 1661.94C723.039 1663.7 721.519 1665.14 720.015 1666.26C718.447 1667.44 716.655 1668.48 714.639 1669.38C712.623 1670.24 710.591 1670.67 708.543 1670.67C707.391 1670.67 706.319 1670.43 705.327 1669.95C704.335 1669.47 703.535 1668.72 702.927 1667.7C702.351 1666.64 702.063 1665.31 702.063 1663.71C702.063 1661.99 702.415 1660.29 703.119 1658.63C703.823 1656.96 704.799 1655.38 706.047 1653.87C707.295 1652.37 708.751 1651.04 710.415 1649.89C712.079 1648.71 713.871 1647.78 715.791 1647.11C717.359 1646.53 719.071 1646.07 720.927 1645.71C722.815 1645.36 724.671 1645.19 726.495 1645.19C729.471 1645.19 732.127 1645.73 734.463 1646.82C736.831 1647.91 738.687 1649.39 740.031 1651.28C741.375 1653.17 742.047 1655.38 742.047 1657.91C742.047 1659.6 741.775 1661.27 741.231 1662.9C740.687 1664.5 739.791 1665.99 738.543 1667.36C737.327 1668.74 735.711 1669.92 733.695 1670.91C731.679 1671.91 729.199 1672.63 726.255 1673.07L723.087 1668.03C726.159 1667.68 728.655 1666.99 730.575 1665.97C732.495 1664.91 733.887 1663.65 734.751 1662.18C735.647 1660.71 736.095 1659.19 736.095 1657.62C736.095 1656.21 735.711 1654.95 734.943 1653.83C734.207 1652.71 733.087 1651.81 731.583 1651.14C730.111 1650.43 728.287 1650.08 726.111 1650.08C723.935 1650.08 721.983 1650.32 720.255 1650.8C718.559 1651.28 717.135 1651.79 715.983 1652.34C714.383 1653.11 712.959 1654.08 711.711 1655.27C710.463 1656.42 709.487 1657.63 708.783 1658.91C708.079 1660.19 707.727 1661.38 707.727 1662.47C707.727 1663.23 707.903 1663.83 708.255 1664.24C708.607 1664.63 709.167 1664.82 709.935 1664.82C711.087 1664.82 712.415 1664.45 713.919 1663.71C715.423 1662.95 716.911 1661.87 718.383 1660.5C720.111 1658.9 721.743 1656.98 723.279 1654.74C724.815 1652.5 726.079 1649.71 727.071 1646.39C727.167 1646.07 727.263 1645.65 727.359 1645.14C727.455 1644.63 727.535 1644.11 727.599 1643.6C727.695 1643.06 727.759 1642.63 727.791 1642.31L733.647 1643.7Z" fill="black"/>
<path d="M665.248 1636.64V1643.07H682.144V1636.64H665.248ZM659.68 1631.12H688V1648.54H659.68V1631.12ZM653.056 1652.57H671.44V1674.03H665.68V1658.09H658.528V1674.32H653.056V1652.57ZM675.472 1652.57H694.48V1674.08H688.72V1658.09H680.992V1674.32H675.472V1652.57ZM655.456 1666.35H668.08V1671.87H655.456V1666.35ZM678.112 1666.35H691.552V1671.87H678.112V1666.35Z" fill="black"/>
<path d="M604.623 1632.85H646.815V1638.08H604.623V1632.85ZM622.527 1629.2H628.431V1635.97H622.527V1629.2ZM606.207 1641.83H643.167V1646.82H611.679V1674.23H606.207V1641.83ZM640.191 1641.83H645.711V1668.08C645.711 1669.46 645.535 1670.56 645.183 1671.4C644.863 1672.23 644.239 1672.88 643.311 1673.36C642.351 1673.78 641.183 1674.04 639.807 1674.13C638.431 1674.26 636.799 1674.32 634.911 1674.32C634.815 1673.81 634.671 1673.22 634.479 1672.55C634.287 1671.88 634.063 1671.2 633.807 1670.53C633.551 1669.89 633.279 1669.33 632.991 1668.85C634.271 1668.88 635.503 1668.92 636.687 1668.95C637.903 1668.95 638.719 1668.95 639.135 1668.95C639.519 1668.95 639.791 1668.88 639.951 1668.76C640.111 1668.6 640.191 1668.34 640.191 1667.99V1641.83ZM618.303 1646.2H623.391C623.295 1648.08 622.975 1649.73 622.431 1651.14C621.887 1652.55 620.943 1653.72 619.599 1654.64C618.255 1655.57 616.303 1656.34 613.743 1656.95C613.551 1656.31 613.183 1655.59 612.639 1654.79C612.127 1653.99 611.631 1653.36 611.151 1652.92C613.135 1652.56 614.623 1652.12 615.615 1651.57C616.607 1651 617.279 1650.28 617.631 1649.41C618.015 1648.55 618.239 1647.48 618.303 1646.2ZM627.231 1646.15H632.175V1649.84C632.175 1650.36 632.239 1650.68 632.367 1650.8C632.495 1650.9 632.767 1650.95 633.183 1650.95C633.279 1650.95 633.439 1650.95 633.663 1650.95C633.887 1650.95 634.127 1650.95 634.383 1650.95C634.639 1650.95 634.879 1650.95 635.103 1650.95C635.359 1650.95 635.535 1650.95 635.631 1650.95C635.919 1650.95 636.127 1650.9 636.255 1650.8C636.415 1650.68 636.527 1650.42 636.591 1650.04C636.687 1649.65 636.751 1649.08 636.783 1648.31C637.231 1648.63 637.871 1648.95 638.703 1649.27C639.567 1649.56 640.319 1649.78 640.959 1649.94C640.735 1651.99 640.271 1653.36 639.567 1654.07C638.863 1654.77 637.775 1655.12 636.303 1655.12C636.079 1655.12 635.791 1655.12 635.439 1655.12C635.087 1655.12 634.703 1655.12 634.287 1655.12C633.903 1655.12 633.535 1655.12 633.183 1655.12C632.863 1655.12 632.607 1655.12 632.415 1655.12C631.007 1655.12 629.919 1654.96 629.151 1654.64C628.415 1654.29 627.903 1653.75 627.615 1653.01C627.359 1652.24 627.231 1651.2 627.231 1649.89V1646.15ZM616.383 1656.9H621.519V1672.07H616.383V1656.9ZM619.551 1656.9H635.343V1669.48H619.551V1665.2H630.159V1661.17H619.551V1656.9ZM613.215 1637.99L618.927 1637.03C619.375 1637.76 619.807 1638.61 620.223 1639.57C620.639 1640.5 620.943 1641.32 621.135 1642.02L615.135 1643.22C615.007 1642.52 614.751 1641.67 614.367 1640.68C614.015 1639.68 613.631 1638.79 613.215 1637.99ZM631.983 1636.98L638.367 1637.94C637.791 1638.96 637.247 1639.92 636.735 1640.82C636.255 1641.68 635.791 1642.42 635.343 1643.03L629.631 1642.07C630.047 1641.33 630.479 1640.48 630.927 1639.52C631.375 1638.56 631.727 1637.72 631.983 1636.98Z" fill="black"/>
<path d="M565.167 1636.2H576.927V1641.68H565.167V1636.2ZM585.231 1629.34H591.231V1674.22H585.231V1629.34ZM559.839 1650.46L562.767 1646.14C563.951 1646.78 565.199 1647.53 566.511 1648.4C567.855 1649.26 569.119 1650.12 570.303 1650.99C571.487 1651.85 572.447 1652.68 573.183 1653.48L570.063 1658.33C569.391 1657.53 568.479 1656.67 567.327 1655.74C566.175 1654.78 564.943 1653.84 563.631 1652.91C562.319 1651.98 561.055 1651.16 559.839 1650.46ZM565.743 1629.15L571.503 1630.35C570.671 1633.58 569.631 1636.68 568.383 1639.66C567.167 1642.64 565.775 1645.39 564.207 1647.92C562.671 1650.41 561.007 1652.59 559.215 1654.44C558.895 1654.09 558.431 1653.69 557.823 1653.24C557.247 1652.76 556.655 1652.3 556.047 1651.85C555.439 1651.37 554.895 1651 554.415 1650.75C556.207 1649.12 557.823 1647.18 559.263 1644.94C560.703 1642.7 561.967 1640.24 563.055 1637.55C564.143 1634.83 565.039 1632.03 565.743 1629.15ZM582.255 1640.86C583.215 1642.62 584.367 1644.36 585.711 1646.09C587.087 1647.79 588.607 1649.4 590.271 1650.94C591.935 1652.48 593.695 1653.87 595.551 1655.12C597.439 1656.36 599.343 1657.44 601.263 1658.33C600.847 1658.72 600.367 1659.21 599.823 1659.82C599.279 1660.4 598.767 1661 598.287 1661.64C597.807 1662.25 597.407 1662.81 597.087 1663.32C595.071 1662.27 593.119 1661 591.231 1659.53C589.375 1658.06 587.599 1656.43 585.903 1654.64C584.207 1652.84 582.639 1650.94 581.199 1648.92C579.791 1646.91 578.527 1644.83 577.407 1642.68L582.255 1640.86ZM575.295 1636.2H576.399L577.407 1636.01L581.199 1637.31C580.239 1643.48 578.783 1648.96 576.831 1653.72C574.911 1658.49 572.559 1662.56 569.775 1665.92C566.991 1669.24 563.871 1671.9 560.415 1673.88C560.095 1673.47 559.663 1672.97 559.119 1672.4C558.575 1671.85 557.999 1671.31 557.391 1670.76C556.815 1670.25 556.287 1669.85 555.807 1669.56C559.231 1667.77 562.271 1665.42 564.927 1662.51C567.583 1659.56 569.791 1656.01 571.551 1651.85C573.311 1647.69 574.559 1642.91 575.295 1637.5V1636.2Z" fill="black"/>
<path d="M520.479 1654.69L524.271 1651.86C526.767 1653.14 528.799 1654.59 530.367 1656.22C531.935 1657.82 533.103 1659.47 533.871 1661.17C534.639 1662.83 535.039 1664.43 535.071 1665.97C535.135 1667.5 534.879 1668.88 534.303 1670.1C533.727 1671.31 532.879 1672.27 531.759 1672.98C530.863 1673.55 529.999 1673.95 529.167 1674.18C528.367 1674.4 527.375 1674.51 526.191 1674.51C525.615 1674.51 524.991 1674.5 524.319 1674.46C523.679 1674.46 523.007 1674.45 522.303 1674.42C522.271 1673.68 522.127 1672.82 521.871 1671.82C521.615 1670.86 521.231 1670.02 520.719 1669.28C521.551 1669.38 522.367 1669.44 523.167 1669.47C523.967 1669.47 524.655 1669.47 525.231 1669.47C525.839 1669.47 526.383 1669.44 526.863 1669.38C527.375 1669.28 527.823 1669.07 528.207 1668.75C528.911 1668.3 529.343 1667.57 529.503 1666.54C529.695 1665.52 529.535 1664.34 529.023 1662.99C528.511 1661.65 527.551 1660.26 526.143 1658.82C524.767 1657.38 522.879 1656 520.479 1654.69ZM525.759 1655.12L529.599 1657.04C528.191 1658.22 526.463 1659.36 524.415 1660.45C522.399 1661.5 520.271 1662.45 518.031 1663.28C515.791 1664.11 513.615 1664.78 511.503 1665.3C511.151 1664.75 510.671 1664.1 510.063 1663.33C509.487 1662.56 508.959 1661.94 508.479 1661.46C510.559 1661.07 512.687 1660.56 514.863 1659.92C517.039 1659.28 519.087 1658.54 521.007 1657.71C522.959 1656.88 524.543 1656.02 525.759 1655.12ZM528.879 1659.49L532.959 1661.65C531.615 1662.86 530.063 1664.03 528.303 1665.15C526.575 1666.27 524.735 1667.33 522.783 1668.32C520.831 1669.31 518.831 1670.19 516.783 1670.96C514.767 1671.76 512.799 1672.43 510.879 1672.98C510.527 1672.37 510.031 1671.65 509.391 1670.82C508.751 1669.98 508.159 1669.31 507.615 1668.8C509.567 1668.35 511.551 1667.81 513.567 1667.17C515.583 1666.53 517.535 1665.81 519.423 1665.01C521.311 1664.18 523.071 1663.3 524.703 1662.37C526.335 1661.44 527.727 1660.48 528.879 1659.49ZM520.671 1632.22H534.735V1636.5H520.671V1632.22ZM528.783 1647.78L533.103 1649.79C531.311 1651.17 529.183 1652.43 526.719 1653.58C524.255 1654.7 521.679 1655.7 518.991 1656.56C516.335 1657.42 513.743 1658.16 511.215 1658.77C511.023 1658.42 510.751 1657.98 510.399 1657.47C510.047 1656.96 509.695 1656.45 509.343 1655.94C508.991 1655.42 508.655 1655.01 508.335 1654.69C510.863 1654.27 513.391 1653.73 515.919 1653.06C518.479 1652.38 520.879 1651.6 523.119 1650.7C525.391 1649.81 527.279 1648.83 528.783 1647.78ZM535.263 1648.74C536.127 1651.74 537.295 1654.53 538.767 1657.09C540.271 1659.62 542.127 1661.82 544.335 1663.71C546.543 1665.6 549.135 1667.06 552.111 1668.08C551.727 1668.43 551.295 1668.9 550.815 1669.47C550.335 1670.02 549.887 1670.59 549.471 1671.2C549.055 1671.81 548.703 1672.37 548.415 1672.88C545.215 1671.57 542.463 1669.81 540.159 1667.6C537.855 1665.39 535.903 1662.8 534.303 1659.82C532.735 1656.82 531.455 1653.47 530.463 1649.79L535.263 1648.74ZM546.447 1651.18L551.055 1654.59C549.871 1655.36 548.607 1656.13 547.263 1656.9C545.919 1657.66 544.591 1658.4 543.279 1659.1C541.967 1659.78 540.735 1660.35 539.583 1660.83L535.983 1657.86C537.071 1657.31 538.255 1656.67 539.535 1655.94C540.815 1655.17 542.063 1654.37 543.279 1653.54C544.495 1652.7 545.551 1651.92 546.447 1651.18ZM518.511 1643.22V1646.91H541.263V1643.22H518.511ZM513.135 1639.04H546.975V1651.09H513.135V1639.04ZM520.719 1629.01L526.671 1630.21C524.847 1632.9 522.703 1635.47 520.239 1637.94C517.775 1640.4 514.847 1642.66 511.455 1644.7C511.199 1644.22 510.847 1643.73 510.399 1643.22C509.951 1642.7 509.471 1642.21 508.959 1641.73C508.479 1641.25 508.031 1640.88 507.615 1640.62C509.695 1639.54 511.567 1638.34 513.231 1637.02C514.895 1635.71 516.351 1634.37 517.599 1632.99C518.879 1631.62 519.919 1630.29 520.719 1629.01ZM526.719 1641.3H532.383V1649.5H526.719V1641.3ZM532.431 1632.22H533.727L534.639 1631.98L538.575 1634.53C537.999 1635.46 537.311 1636.45 536.511 1637.5C535.743 1638.53 534.927 1639.52 534.063 1640.48C533.231 1641.44 532.431 1642.29 531.663 1643.02C531.119 1642.61 530.447 1642.14 529.647 1641.63C528.847 1641.09 528.127 1640.64 527.487 1640.29C528.159 1639.65 528.815 1638.91 529.455 1638.08C530.095 1637.22 530.687 1636.35 531.231 1635.49C531.775 1634.62 532.175 1633.89 532.431 1633.28V1632.22Z" fill="black"/>
<path d="M481.168 1639.91H504.112V1645.43H481.168V1639.91ZM459.904 1636.64H482.752V1641.97H459.904V1636.64ZM493.264 1629.2H498.976V1667.12C498.976 1668.76 498.8 1670.02 498.448 1670.92C498.096 1671.84 497.456 1672.55 496.528 1673.03C495.6 1673.54 494.416 1673.88 492.976 1674.04C491.536 1674.2 489.808 1674.28 487.792 1674.28C487.76 1673.7 487.648 1673.04 487.456 1672.31C487.264 1671.57 487.04 1670.82 486.784 1670.05C486.528 1669.32 486.272 1668.66 486.016 1668.08C487.36 1668.15 488.608 1668.18 489.76 1668.18C490.912 1668.18 491.696 1668.18 492.112 1668.18C492.528 1668.18 492.816 1668.12 492.976 1667.99C493.168 1667.83 493.264 1667.54 493.264 1667.12V1629.2ZM480.688 1651.48L485.296 1649.27C486.064 1650.32 486.8 1651.46 487.504 1652.68C488.24 1653.89 488.88 1655.09 489.424 1656.28C489.968 1657.43 490.368 1658.5 490.624 1659.49L485.632 1661.99C485.408 1661.06 485.04 1659.99 484.528 1658.77C484.048 1657.56 483.472 1656.31 482.8 1655.03C482.128 1653.75 481.424 1652.56 480.688 1651.48ZM460.816 1648.74L464.896 1645.43C466.304 1646.96 467.76 1648.6 469.264 1650.32C470.768 1652.05 472.224 1653.81 473.632 1655.6C475.072 1657.4 476.352 1659.14 477.472 1660.84C478.592 1662.5 479.504 1664.05 480.208 1665.49L475.648 1669.43C475.008 1667.99 474.144 1666.4 473.056 1664.68C471.968 1662.95 470.736 1661.16 469.36 1659.3C468.016 1657.44 466.608 1655.62 465.136 1653.83C463.696 1652 462.256 1650.31 460.816 1648.74ZM468.304 1629.25H473.824V1639.91H468.304V1629.25ZM473.536 1642.93L479.152 1643.7C478.352 1648.34 477.232 1652.56 475.792 1656.37C474.352 1660.15 472.544 1663.51 470.368 1666.45C468.192 1669.36 465.552 1671.86 462.448 1673.94C462.224 1673.56 461.872 1673.08 461.392 1672.5C460.944 1671.92 460.464 1671.35 459.952 1670.77C459.44 1670.23 458.976 1669.78 458.56 1669.43C461.504 1667.73 463.968 1665.6 465.952 1663.04C467.936 1660.45 469.536 1657.48 470.752 1654.12C472 1650.76 472.928 1647.03 473.536 1642.93Z" fill="black"/>
<path d="M437.631 1631.99H451.647V1637.36H443.247V1674.32H437.631V1631.99ZM412.383 1633.86H435.567V1638.85H412.383V1633.86ZM411.327 1647.25H436.191V1652.48H411.327V1647.25ZM421.167 1629.59H426.783V1636.98H421.167V1629.59ZM415.119 1640.15L419.871 1639.19C420.351 1640.24 420.767 1641.43 421.119 1642.74C421.471 1644.05 421.711 1645.2 421.839 1646.19L416.799 1647.35C416.767 1646.39 416.591 1645.23 416.271 1643.89C415.951 1642.51 415.567 1641.27 415.119 1640.15ZM428.031 1638.99L433.407 1640.15C432.895 1641.46 432.383 1642.77 431.871 1644.08C431.391 1645.36 430.943 1646.47 430.527 1647.39L426.015 1646.24C426.271 1645.57 426.527 1644.82 426.783 1643.99C427.039 1643.12 427.263 1642.26 427.455 1641.39C427.679 1640.5 427.871 1639.7 428.031 1638.99ZM416.079 1666.98H430.911V1671.97H416.079V1666.98ZM414.111 1655.65H434.031V1674.18H428.415V1660.64H419.439V1674.37H414.111V1655.65ZM450.159 1631.99H451.263L452.127 1631.75L456.351 1634.39C455.487 1636.72 454.543 1639.19 453.519 1641.78C452.527 1644.34 451.567 1646.64 450.639 1648.69C451.983 1650.13 452.991 1651.52 453.663 1652.87C454.367 1654.18 454.831 1655.43 455.055 1656.61C455.311 1657.79 455.439 1658.91 455.439 1659.97C455.439 1661.76 455.231 1663.25 454.815 1664.43C454.399 1665.62 453.727 1666.53 452.799 1667.17C451.903 1667.81 450.799 1668.21 449.487 1668.37C448.943 1668.43 448.335 1668.48 447.663 1668.51C447.023 1668.51 446.367 1668.51 445.695 1668.51C445.663 1667.71 445.519 1666.77 445.263 1665.68C445.039 1664.59 444.703 1663.65 444.255 1662.85C444.799 1662.91 445.295 1662.96 445.743 1662.99C446.191 1662.99 446.607 1662.98 446.991 1662.95C447.311 1662.91 447.615 1662.87 447.903 1662.8C448.223 1662.74 448.495 1662.63 448.719 1662.47C449.135 1662.21 449.423 1661.83 449.583 1661.31C449.775 1660.77 449.871 1660.08 449.871 1659.25C449.871 1657.91 449.535 1656.4 448.863 1654.74C448.223 1653.04 446.927 1651.27 444.975 1649.41C445.455 1648.26 445.935 1646.98 446.415 1645.57C446.927 1644.13 447.407 1642.69 447.855 1641.25C448.335 1639.78 448.767 1638.4 449.151 1637.12C449.567 1635.84 449.903 1634.79 450.159 1633.95V1631.99Z" fill="black"/>
<path d="M363.52 1648.16H407.968V1654.44H363.52V1648.16Z" fill="black"/>
<path d="M327.922 1670L324.418 1666.45L337.714 1653.05L324.322 1639.61L327.874 1636.01L341.314 1649.41L354.802 1636.06L358.402 1639.57L344.914 1653.05L358.21 1666.54L354.706 1670.09L341.314 1656.65L327.922 1670ZM327.01 1656.7C326.018 1656.7 325.154 1656.43 324.418 1655.89C323.682 1655.34 323.314 1654.41 323.314 1653.1C323.314 1651.79 323.682 1650.86 324.418 1650.32C325.154 1649.74 326.018 1649.45 327.01 1649.45C328.034 1649.45 328.914 1649.74 329.65 1650.32C330.386 1650.86 330.754 1651.79 330.754 1653.1C330.754 1654.41 330.386 1655.34 329.65 1655.89C328.914 1656.43 328.034 1656.7 327.01 1656.7ZM341.314 1671.1C340.45 1671.1 339.746 1670.93 339.202 1670.57C338.69 1670.25 338.306 1669.81 338.05 1669.23C337.826 1668.65 337.714 1668.03 337.714 1667.36C337.714 1666.69 337.826 1666.08 338.05 1665.53C338.306 1664.96 338.69 1664.51 339.202 1664.19C339.746 1663.84 340.45 1663.66 341.314 1663.66C342.178 1663.66 342.882 1663.84 343.426 1664.19C343.97 1664.51 344.354 1664.96 344.578 1665.53C344.834 1666.08 344.962 1666.69 344.962 1667.36C344.962 1668.03 344.834 1668.65 344.578 1669.23C344.354 1669.81 343.97 1670.25 343.426 1670.57C342.882 1670.93 342.178 1671.1 341.314 1671.1ZM341.314 1642.54C340.45 1642.54 339.746 1642.38 339.202 1642.06C338.69 1641.71 338.306 1641.25 338.05 1640.67C337.826 1640.09 337.714 1639.47 337.714 1638.8C337.714 1638.13 337.826 1637.52 338.05 1636.97C338.306 1636.4 338.69 1635.95 339.202 1635.63C339.746 1635.28 340.45 1635.1 341.314 1635.1C342.178 1635.1 342.882 1635.28 343.426 1635.63C343.97 1635.95 344.354 1636.4 344.578 1636.97C344.834 1637.52 344.962 1638.13 344.962 1638.8C344.962 1639.47 344.834 1640.09 344.578 1640.67C344.354 1641.25 343.97 1641.71 343.426 1642.06C342.882 1642.38 342.178 1642.54 341.314 1642.54ZM355.57 1656.7C354.578 1656.7 353.714 1656.43 352.978 1655.89C352.242 1655.34 351.874 1654.41 351.874 1653.1C351.874 1651.79 352.242 1650.86 352.978 1650.32C353.714 1649.74 354.578 1649.45 355.57 1649.45C356.594 1649.45 357.474 1649.74 358.21 1650.32C358.946 1650.86 359.314 1651.79 359.314 1653.1C359.314 1654.41 358.946 1655.34 358.21 1655.89C357.474 1656.43 356.594 1656.7 355.57 1656.7Z" fill="black"/>
<path d="M848.227 1266.25H887.348V1274.48H848.227V1266.25ZM844.393 1245.8H891.892V1277.25H882.733V1253.96H853.126V1277.32H844.393V1245.8ZM858.309 1210.16L868.036 1213.35C866.474 1216.24 864.794 1219.2 862.995 1222.23C861.244 1225.21 859.469 1228.05 857.67 1230.75C855.871 1233.4 854.167 1235.76 852.558 1237.85L844.89 1234.72C846.499 1232.54 848.132 1230.06 849.789 1227.27C851.446 1224.43 853.008 1221.52 854.475 1218.53C855.99 1215.55 857.268 1212.76 858.309 1210.16ZM875.349 1222.79L882.094 1217.82C884.461 1219.72 886.875 1221.85 889.336 1224.21C891.845 1226.53 894.14 1228.9 896.223 1231.31C898.353 1233.68 900.033 1235.88 901.264 1237.92L893.88 1243.6C892.744 1241.56 891.158 1239.34 889.123 1236.92C887.135 1234.46 884.934 1232 882.52 1229.54C880.106 1227.08 877.716 1224.83 875.349 1222.79ZM836.796 1230.82C840.393 1230.72 844.393 1230.6 848.795 1230.46C853.244 1230.27 857.907 1230.08 862.782 1229.89C867.705 1229.7 872.698 1229.52 877.763 1229.33C882.828 1229.14 887.798 1228.95 892.673 1228.76L892.318 1236.99C887.395 1237.28 882.425 1237.54 877.408 1237.78C872.391 1237.96 867.468 1238.18 862.64 1238.41C857.859 1238.6 853.315 1238.79 849.008 1238.98C844.701 1239.12 840.796 1239.27 837.293 1239.41L836.796 1230.82Z" fill="black"/>
<path d="M765.37 1220.8H828.986V1228.97H765.37V1220.8ZM796.539 1231.52H805.13V1277.32H796.539V1231.52ZM776.729 1239.69H820.679V1247.78H785.25V1271H776.729V1239.69ZM816.987 1239.69H825.578V1261.91C825.578 1263.85 825.317 1265.41 824.797 1266.6C824.323 1267.73 823.376 1268.61 821.956 1269.22C820.631 1269.84 818.975 1270.22 816.987 1270.36C815.046 1270.5 812.727 1270.57 810.029 1270.57C809.887 1269.39 809.555 1268.07 809.034 1266.6C808.514 1265.13 807.969 1263.88 807.401 1262.83C808.49 1262.88 809.579 1262.91 810.667 1262.91C811.803 1262.91 812.798 1262.91 813.65 1262.91C814.549 1262.91 815.164 1262.91 815.495 1262.91C816.063 1262.91 816.442 1262.83 816.632 1262.69C816.868 1262.5 816.987 1262.17 816.987 1261.7V1239.69ZM788.161 1210.51L796.965 1212.5C795.261 1218.32 793.083 1224.07 790.432 1229.75C787.829 1235.43 784.658 1240.73 780.919 1245.65C777.179 1250.53 772.777 1254.72 767.713 1258.22C767.381 1257.51 766.908 1256.71 766.292 1255.81C765.724 1254.86 765.133 1253.94 764.518 1253.04C763.902 1252.14 763.334 1251.38 762.813 1250.76C766.174 1248.59 769.203 1245.98 771.901 1242.95C774.647 1239.88 777.061 1236.54 779.143 1232.94C781.226 1229.35 783.025 1225.65 784.539 1221.87C786.054 1218.03 787.261 1214.25 788.161 1210.51Z" fill="black"/>
<path d="M707.434 1236H731.573V1243.17H707.434V1236ZM733.065 1236H758.554V1243.17H733.065V1236ZM716.38 1227.48H723.977V1277.25H716.38V1227.48ZM740.804 1227.48H748.471V1277.25H740.804V1227.48ZM715.599 1240.47L720.852 1241.89C720.095 1245.25 719.125 1248.61 717.942 1251.97C716.806 1255.33 715.504 1258.43 714.036 1261.27C712.569 1264.11 710.936 1266.5 709.138 1268.44C708.57 1267.54 707.741 1266.53 706.653 1265.39C705.611 1264.21 704.665 1263.28 703.812 1262.62C705.517 1261.01 707.126 1259.02 708.641 1256.66C710.155 1254.29 711.504 1251.71 712.688 1248.92C713.918 1246.08 714.889 1243.26 715.599 1240.47ZM740.448 1240.47L745.276 1241.89C744.472 1245.2 743.454 1248.54 742.224 1251.9C740.993 1255.21 739.62 1258.31 738.106 1261.2C736.638 1264.09 735.053 1266.53 733.349 1268.51C732.733 1267.66 731.905 1266.67 730.864 1265.53C729.822 1264.4 728.899 1263.52 728.094 1262.9C729.798 1261.3 731.432 1259.28 732.994 1256.87C734.556 1254.41 735.975 1251.76 737.253 1248.92C738.531 1246.08 739.596 1243.26 740.448 1240.47ZM749.679 1239.97C750.436 1242.67 751.382 1245.39 752.518 1248.14C753.702 1250.88 754.98 1253.46 756.353 1255.88C757.773 1258.29 759.192 1260.35 760.612 1262.05C759.76 1262.67 758.766 1263.54 757.63 1264.68C756.542 1265.82 755.666 1266.88 755.004 1267.87C753.631 1265.84 752.306 1263.38 751.028 1260.49C749.797 1257.56 748.661 1254.46 747.62 1251.19C746.578 1247.88 745.702 1244.63 744.992 1241.46L749.679 1239.97ZM722.911 1243.66C723.385 1244.04 724.095 1244.66 725.042 1245.51C725.988 1246.36 726.982 1247.28 728.023 1248.28C729.065 1249.27 730.012 1250.2 730.864 1251.05C731.763 1251.9 732.426 1252.49 732.852 1252.82L728.591 1259.64C728.023 1258.83 727.313 1257.89 726.461 1256.8C725.657 1255.71 724.757 1254.6 723.763 1253.46C722.817 1252.33 721.917 1251.26 721.065 1250.27C720.213 1249.27 719.503 1248.44 718.935 1247.78L722.911 1243.66ZM723.906 1210.65H732.781V1223.36H723.906V1210.65ZM702.393 1217.96H758.625V1226.06H702.393V1217.96ZM697.281 1217.96H705.801V1237.56C705.801 1240.4 705.706 1243.55 705.516 1247C705.374 1250.46 705.067 1253.98 704.594 1257.58C704.12 1261.18 703.434 1264.68 702.534 1268.09C701.682 1271.45 700.523 1274.5 699.055 1277.25C698.535 1276.73 697.825 1276.11 696.925 1275.4C696.026 1274.74 695.103 1274.08 694.156 1273.41C693.257 1272.8 692.476 1272.35 691.813 1272.06C693.091 1269.6 694.086 1266.9 694.796 1263.97C695.553 1261.03 696.097 1258.03 696.429 1254.95C696.807 1251.88 697.044 1248.85 697.138 1245.86C697.233 1242.88 697.281 1240.11 697.281 1237.56V1217.96Z" fill="black"/>
<path d="M659.708 1213.56C660.608 1214.88 661.578 1216.45 662.619 1218.24C663.661 1220.04 664.513 1221.58 665.175 1222.86L659.424 1225.27C658.714 1223.85 657.886 1222.29 656.939 1220.59C655.993 1218.84 655.046 1217.27 654.099 1215.9L659.708 1213.56ZM668.938 1211.57C669.601 1212.42 670.264 1213.42 670.926 1214.55C671.636 1215.69 672.299 1216.8 672.914 1217.89C673.577 1218.98 674.098 1219.92 674.476 1220.73L668.867 1223.21C668.11 1221.7 667.234 1220.09 666.24 1218.39C665.294 1216.68 664.323 1215.17 663.329 1213.84L668.938 1211.57ZM646.289 1214.98C646.242 1215.31 646.171 1215.85 646.076 1216.61C645.982 1217.37 645.887 1218.17 645.792 1219.03C645.698 1219.83 645.65 1220.54 645.65 1221.16C645.65 1222.58 645.65 1224.14 645.65 1225.84C645.65 1227.55 645.65 1229.25 645.65 1230.95C645.65 1232.61 645.65 1234.12 645.65 1235.5C645.65 1236.44 645.65 1237.77 645.65 1239.47C645.65 1241.18 645.65 1243.09 645.65 1245.22C645.65 1247.35 645.65 1249.58 645.65 1251.9C645.65 1254.17 645.65 1256.39 645.65 1258.57C645.65 1260.7 645.65 1262.64 645.65 1264.39C645.65 1266.1 645.65 1267.45 645.65 1268.44C645.65 1270.48 645.035 1272.09 643.804 1273.27C642.621 1274.5 640.775 1275.12 638.266 1275.12C636.988 1275.12 635.687 1275.09 634.361 1275.04C633.036 1275 631.734 1274.93 630.456 1274.83C629.178 1274.74 627.924 1274.62 626.693 1274.48L625.841 1265.67C627.356 1265.96 628.823 1266.17 630.243 1266.31C631.711 1266.45 632.87 1266.52 633.722 1266.52C634.669 1266.52 635.332 1266.33 635.71 1265.96C636.089 1265.53 636.302 1264.87 636.349 1263.97C636.349 1263.54 636.349 1262.62 636.349 1261.2C636.397 1259.78 636.42 1258.1 636.42 1256.16C636.42 1254.22 636.42 1252.16 636.42 1249.98C636.42 1247.8 636.42 1245.72 636.42 1243.73C636.42 1241.75 636.42 1240.02 636.42 1238.55C636.42 1237.08 636.42 1236.07 636.42 1235.5C636.42 1234.65 636.42 1233.37 636.42 1231.66C636.42 1229.91 636.42 1228.07 636.42 1226.13C636.42 1224.18 636.42 1222.53 636.42 1221.16C636.42 1220.21 636.349 1219.1 636.207 1217.82C636.065 1216.49 635.923 1215.55 635.781 1214.98H646.289ZM611.499 1226.27C612.588 1226.41 613.724 1226.55 614.907 1226.69C616.091 1226.79 617.25 1226.84 618.386 1226.84C618.954 1226.84 620.09 1226.84 621.794 1226.84C623.546 1226.84 625.628 1226.84 628.042 1226.84C630.456 1226.84 633.036 1226.84 635.781 1226.84C638.574 1226.84 641.367 1226.84 644.159 1226.84C646.999 1226.84 649.626 1226.84 652.04 1226.84C654.502 1226.84 656.632 1226.84 658.43 1226.84C660.229 1226.84 661.483 1226.84 662.193 1226.84C663.187 1226.84 664.347 1226.79 665.672 1226.69C667.045 1226.6 668.228 1226.48 669.222 1226.34V1235.64C668.134 1235.54 666.95 1235.5 665.672 1235.5C664.394 1235.45 663.258 1235.43 662.264 1235.43C661.554 1235.43 660.3 1235.43 658.501 1235.43C656.75 1235.43 654.644 1235.43 652.182 1235.43C649.768 1235.43 647.165 1235.43 644.372 1235.43C641.58 1235.43 638.787 1235.43 635.994 1235.43C633.202 1235.43 630.598 1235.43 628.184 1235.43C625.77 1235.43 623.688 1235.43 621.936 1235.43C620.232 1235.43 619.049 1235.43 618.386 1235.43C617.345 1235.43 616.185 1235.45 614.907 1235.5C613.677 1235.54 612.541 1235.62 611.499 1235.71V1226.27ZM629.604 1245.51C628.8 1247.12 627.829 1248.85 626.693 1250.69C625.557 1252.54 624.327 1254.38 623.001 1256.23C621.723 1258.08 620.469 1259.8 619.238 1261.41C618.008 1262.97 616.895 1264.28 615.901 1265.32L608.233 1260.06C609.417 1258.97 610.624 1257.7 611.854 1256.23C613.132 1254.71 614.363 1253.13 615.546 1251.47C616.777 1249.82 617.889 1248.16 618.883 1246.5C619.925 1244.85 620.824 1243.26 621.581 1241.75L629.604 1245.51ZM660.134 1241.53C661.034 1242.67 662.028 1244.02 663.116 1245.58C664.252 1247.14 665.388 1248.82 666.524 1250.62C667.66 1252.37 668.725 1254.1 669.719 1255.8C670.713 1257.46 671.565 1258.93 672.275 1260.21L663.897 1264.75C663.14 1263.23 662.264 1261.6 661.27 1259.85C660.324 1258.1 659.33 1256.35 658.288 1254.6C657.247 1252.84 656.206 1251.21 655.164 1249.7C654.17 1248.14 653.247 1246.81 652.395 1245.72L660.134 1241.53Z" fill="black"/>
<path d="M550.226 1216.55C551.22 1216.69 552.404 1216.78 553.776 1216.83C555.149 1216.88 556.427 1216.9 557.61 1216.9C558.51 1216.9 559.882 1216.9 561.728 1216.9C563.622 1216.9 565.704 1216.9 567.976 1216.9C570.296 1216.9 572.591 1216.9 574.863 1216.9C577.135 1216.9 579.171 1216.9 580.969 1216.9C582.768 1216.9 584.093 1216.9 584.945 1216.9C586.034 1216.9 587.336 1216.88 588.85 1216.83C590.365 1216.78 591.619 1216.69 592.613 1216.55V1225.71C591.667 1225.61 590.436 1225.56 588.921 1225.56C587.454 1225.52 586.081 1225.49 584.803 1225.49C584.046 1225.49 582.744 1225.49 580.898 1225.49C579.1 1225.49 577.041 1225.49 574.721 1225.49C572.449 1225.49 570.154 1225.49 567.834 1225.49C565.562 1225.49 563.503 1225.49 561.657 1225.49C559.811 1225.49 558.462 1225.49 557.61 1225.49C556.474 1225.49 555.22 1225.52 553.847 1225.56C552.522 1225.61 551.315 1225.66 550.226 1225.71V1216.55ZM598.577 1237.14C598.341 1237.61 598.08 1238.13 597.796 1238.7C597.56 1239.27 597.37 1239.74 597.228 1240.12C596.14 1243.53 594.767 1246.93 593.11 1250.34C591.501 1253.7 589.371 1256.85 586.72 1259.79C583.17 1263.76 579.194 1267 574.792 1269.51C570.39 1271.97 565.917 1273.84 561.373 1275.12L554.344 1267.1C559.693 1265.96 564.45 1264.31 568.615 1262.13C572.781 1259.95 576.212 1257.47 578.91 1254.67C580.804 1252.73 582.318 1250.7 583.454 1248.57C584.638 1246.39 585.561 1244.33 586.223 1242.39C585.703 1242.39 584.803 1242.39 583.525 1242.39C582.247 1242.39 580.709 1242.39 578.91 1242.39C577.159 1242.39 575.266 1242.39 573.23 1242.39C571.195 1242.39 569.112 1242.39 566.982 1242.39C564.852 1242.39 562.817 1242.39 560.876 1242.39C558.936 1242.39 557.184 1242.39 555.622 1242.39C554.108 1242.39 552.877 1242.39 551.93 1242.39C551.078 1242.39 549.871 1242.41 548.309 1242.46C546.747 1242.51 545.209 1242.6 543.694 1242.75V1233.52C545.209 1233.61 546.676 1233.71 548.096 1233.8C549.564 1233.89 550.842 1233.94 551.93 1233.94C552.64 1233.94 553.705 1233.94 555.125 1233.94C556.593 1233.94 558.273 1233.94 560.166 1233.94C562.06 1233.94 564.071 1233.94 566.201 1233.94C568.379 1233.94 570.532 1233.94 572.662 1233.94C574.84 1233.94 576.899 1233.94 578.839 1233.94C580.78 1233.94 582.46 1233.94 583.88 1233.94C585.3 1233.94 586.365 1233.94 587.075 1233.94C588.211 1233.94 589.229 1233.87 590.128 1233.73C591.075 1233.59 591.785 1233.42 592.258 1233.23L598.577 1237.14Z" fill="black"/>
<path d="M472.339 1220.66C473.806 1220.71 475.179 1220.76 476.457 1220.81C477.782 1220.81 478.918 1220.81 479.865 1220.81C480.622 1220.81 481.782 1220.81 483.344 1220.81C484.953 1220.81 486.823 1220.81 488.953 1220.81C491.083 1220.81 493.355 1220.81 495.769 1220.81C498.183 1220.81 500.597 1220.81 503.011 1220.81C505.472 1220.81 507.768 1220.81 509.898 1220.81C512.028 1220.81 513.874 1220.81 515.436 1220.81C517.045 1220.81 518.205 1220.81 518.915 1220.81C519.814 1220.81 520.879 1220.81 522.11 1220.81C523.388 1220.76 524.666 1220.71 525.944 1220.66C525.896 1221.75 525.849 1222.91 525.802 1224.14C525.802 1225.33 525.802 1226.46 525.802 1227.55C525.802 1228.21 525.802 1229.26 525.802 1230.68C525.802 1232.05 525.802 1233.7 525.802 1235.65C525.802 1237.54 525.802 1239.57 525.802 1241.75C525.802 1243.88 525.802 1246.03 525.802 1248.21C525.802 1250.39 525.802 1252.45 525.802 1254.39C525.802 1256.28 525.802 1257.94 525.802 1259.36C525.802 1260.73 525.802 1261.73 525.802 1262.34C525.802 1263.05 525.802 1263.95 525.802 1265.04C525.849 1266.08 525.873 1267.15 525.873 1268.23C525.873 1269.28 525.873 1270.2 525.873 1271C525.92 1271.76 525.944 1272.16 525.944 1272.21H516.146C516.146 1272.12 516.146 1271.55 516.146 1270.51C516.193 1269.42 516.217 1268.14 516.217 1266.67C516.264 1265.2 516.288 1263.83 516.288 1262.55C516.288 1261.94 516.288 1260.9 516.288 1259.43C516.288 1257.96 516.288 1256.24 516.288 1254.25C516.288 1252.26 516.288 1250.15 516.288 1247.93C516.288 1245.7 516.288 1243.53 516.288 1241.4C516.288 1239.27 516.288 1237.33 516.288 1235.57C516.288 1233.82 516.288 1232.43 516.288 1231.39C516.288 1230.34 516.288 1229.82 516.288 1229.82H481.995C481.995 1229.82 481.995 1230.34 481.995 1231.39C481.995 1232.43 481.995 1233.82 481.995 1235.57C481.995 1237.28 481.995 1239.22 481.995 1241.4C481.995 1243.53 481.995 1245.7 481.995 1247.93C481.995 1250.11 481.995 1252.21 481.995 1254.25C481.995 1256.24 481.995 1257.96 481.995 1259.43C481.995 1260.9 481.995 1261.94 481.995 1262.55C481.995 1263.41 481.995 1264.38 481.995 1265.47C481.995 1266.51 481.995 1267.52 481.995 1268.52C482.042 1269.51 482.066 1270.34 482.066 1271C482.066 1271.71 482.066 1272.12 482.066 1272.21H472.268C472.268 1272.12 472.268 1271.71 472.268 1271C472.315 1270.29 472.339 1269.42 472.339 1268.38C472.386 1267.33 472.41 1266.27 472.41 1265.18C472.457 1264.09 472.481 1263.12 472.481 1262.27C472.481 1261.65 472.481 1260.66 472.481 1259.29C472.481 1257.87 472.481 1256.19 472.481 1254.25C472.481 1252.31 472.481 1250.27 472.481 1248.14C472.481 1245.96 472.481 1243.79 472.481 1241.61C472.481 1239.43 472.481 1237.4 472.481 1235.5C472.481 1233.56 472.481 1231.91 472.481 1230.53C472.481 1229.16 472.481 1228.17 472.481 1227.55C472.481 1226.56 472.481 1225.42 472.481 1224.14C472.481 1222.82 472.433 1221.66 472.339 1220.66ZM519.838 1259.29V1268.38H477.167V1259.29H519.838Z" fill="black"/>
<path d="M449.477 1218.96C449.477 1220.09 449.879 1221.06 450.684 1221.87C451.488 1222.63 452.435 1223 453.524 1223C454.66 1223 455.63 1222.63 456.435 1221.87C457.239 1221.06 457.642 1220.09 457.642 1218.96C457.642 1217.82 457.239 1216.85 456.435 1216.05C455.63 1215.24 454.66 1214.84 453.524 1214.84C452.435 1214.84 451.488 1215.24 450.684 1216.05C449.879 1216.85 449.477 1217.82 449.477 1218.96ZM445.075 1218.96C445.075 1217.4 445.453 1215.98 446.211 1214.7C447.015 1213.37 448.057 1212.33 449.335 1211.57C450.613 1210.82 452.009 1210.44 453.524 1210.44C455.086 1210.44 456.506 1210.82 457.784 1211.57C459.109 1212.33 460.15 1213.37 460.908 1214.7C461.665 1215.98 462.044 1217.4 462.044 1218.96C462.044 1220.47 461.665 1221.87 460.908 1223.15C460.15 1224.42 459.109 1225.47 457.784 1226.27C456.506 1227.03 455.086 1227.41 453.524 1227.41C452.009 1227.41 450.613 1227.03 449.335 1226.27C448.057 1225.47 447.015 1224.42 446.211 1223.15C445.453 1221.87 445.075 1220.47 445.075 1218.96ZM453.666 1224.57C453.334 1225.23 453.05 1226.03 452.814 1226.98C452.577 1227.88 452.34 1228.71 452.104 1229.47C451.725 1231.22 451.228 1233.18 450.613 1235.36C449.997 1237.49 449.264 1239.71 448.412 1242.03C447.56 1244.35 446.542 1246.65 445.359 1248.92C444.223 1251.19 442.921 1253.32 441.454 1255.31C439.324 1258.15 436.839 1260.8 433.999 1263.26C431.159 1265.72 427.987 1267.95 424.485 1269.94C420.982 1271.92 417.124 1273.6 412.912 1274.98L405.173 1266.46C409.906 1265.32 413.977 1263.92 417.385 1262.27C420.793 1260.61 423.751 1258.72 426.26 1256.59C428.816 1254.46 431.064 1252.19 433.005 1249.77C434.567 1247.78 435.892 1245.63 436.981 1243.31C438.117 1240.99 439.04 1238.67 439.75 1236.35C440.507 1233.99 441.028 1231.78 441.312 1229.75C440.602 1229.75 439.418 1229.75 437.762 1229.75C436.152 1229.75 434.235 1229.75 432.011 1229.75C429.833 1229.75 427.538 1229.75 425.124 1229.75C422.757 1229.75 420.461 1229.75 418.237 1229.75C416.012 1229.75 414 1229.75 412.202 1229.75C410.45 1229.75 409.149 1229.75 408.297 1229.75C406.64 1229.75 405.031 1229.77 403.469 1229.82C401.954 1229.87 400.747 1229.94 399.848 1230.03V1220.02C400.558 1220.12 401.41 1220.21 402.404 1220.31C403.445 1220.4 404.486 1220.47 405.528 1220.52C406.616 1220.57 407.539 1220.59 408.297 1220.59C409.054 1220.59 410.119 1220.59 411.492 1220.59C412.912 1220.59 414.545 1220.59 416.391 1220.59C418.237 1220.59 420.154 1220.59 422.142 1220.59C424.177 1220.59 426.189 1220.59 428.177 1220.59C430.212 1220.59 432.105 1220.59 433.857 1220.59C435.608 1220.59 437.123 1220.59 438.401 1220.59C439.679 1220.59 440.602 1220.59 441.17 1220.59C441.88 1220.59 442.732 1220.57 443.726 1220.52C444.767 1220.47 445.761 1220.31 446.708 1220.02L453.666 1224.57Z" fill="black"/>
<path d="M335.664 1216.55C336.847 1216.74 338.125 1216.88 339.498 1216.97C340.87 1217.02 342.125 1217.04 343.261 1217.04C344.16 1217.04 345.58 1217.04 347.521 1217.04C349.461 1217.04 351.639 1217.04 354.053 1217.04C356.467 1217.04 358.881 1217.04 361.295 1217.04C363.709 1217.04 365.839 1217.04 367.685 1217.04C369.578 1217.04 370.951 1217.04 371.803 1217.04C373.033 1217.04 374.311 1217.02 375.637 1216.97C376.962 1216.88 378.24 1216.74 379.471 1216.55V1225.71C378.24 1225.61 376.962 1225.54 375.637 1225.49C374.311 1225.45 373.033 1225.42 371.803 1225.42C370.951 1225.42 369.578 1225.42 367.685 1225.42C365.839 1225.42 363.709 1225.42 361.295 1225.42C358.881 1225.42 356.467 1225.42 354.053 1225.42C351.639 1225.42 349.461 1225.42 347.521 1225.42C345.627 1225.42 344.231 1225.42 343.332 1225.42C342.101 1225.42 340.776 1225.45 339.356 1225.49C337.983 1225.54 336.752 1225.61 335.664 1225.71V1216.55ZM327.428 1234.72C328.469 1234.82 329.581 1234.91 330.765 1235.01C331.995 1235.1 333.155 1235.15 334.244 1235.15C334.859 1235.15 336.09 1235.15 337.936 1235.15C339.782 1235.15 342.006 1235.15 344.61 1235.15C347.213 1235.15 350.006 1235.15 352.988 1235.15C356.017 1235.15 359.023 1235.15 362.005 1235.15C365.034 1235.15 367.85 1235.15 370.454 1235.15C373.057 1235.15 375.258 1235.15 377.057 1235.15C378.903 1235.15 380.133 1235.15 380.749 1235.15C381.506 1235.15 382.524 1235.13 383.802 1235.08C385.127 1234.98 386.263 1234.86 387.21 1234.72V1243.95C386.358 1243.86 385.316 1243.81 384.086 1243.81C382.855 1243.76 381.743 1243.74 380.749 1243.74C380.133 1243.74 378.903 1243.74 377.057 1243.74C375.258 1243.74 373.057 1243.74 370.454 1243.74C367.85 1243.74 365.034 1243.74 362.005 1243.74C359.023 1243.74 356.017 1243.74 352.988 1243.74C350.006 1243.74 347.213 1243.74 344.61 1243.74C342.006 1243.74 339.782 1243.74 337.936 1243.74C336.09 1243.74 334.859 1243.74 334.244 1243.74C333.202 1243.74 332.043 1243.76 330.765 1243.81C329.534 1243.86 328.422 1243.93 327.428 1244.02V1234.72ZM363.78 1239.62C363.78 1244.26 363.377 1248.43 362.573 1252.12C361.768 1255.76 360.608 1259.05 359.094 1261.99C358.242 1263.6 357.106 1265.25 355.686 1266.96C354.266 1268.66 352.633 1270.27 350.787 1271.78C348.941 1273.3 346.953 1274.58 344.823 1275.62L336.516 1269.58C339.024 1268.59 341.438 1267.17 343.758 1265.32C346.077 1263.48 347.947 1261.51 349.367 1259.43C351.165 1256.69 352.372 1253.66 352.988 1250.34C353.603 1247.03 353.911 1243.48 353.911 1239.69L363.78 1239.62Z" fill="black"/>
<path d="M309.607 1222.86C309.323 1223.29 308.897 1223.95 308.329 1224.85C307.808 1225.75 307.406 1226.58 307.122 1227.34C306.128 1229.56 304.897 1232.04 303.43 1234.79C302.01 1237.54 300.377 1240.3 298.531 1243.1C296.732 1245.84 294.815 1248.42 292.78 1250.84C290.129 1253.82 287.195 1256.78 283.976 1259.71C280.805 1262.6 277.444 1265.27 273.894 1267.73C270.391 1270.15 266.794 1272.23 263.102 1273.98L255.789 1266.31C259.623 1264.85 263.339 1263 266.936 1260.78C270.533 1258.55 273.87 1256.14 276.947 1253.53C280.024 1250.93 282.674 1248.4 284.899 1245.94C286.461 1244.14 287.928 1242.22 289.301 1240.19C290.721 1238.15 291.975 1236.14 293.064 1234.15C294.153 1232.12 294.957 1230.25 295.478 1228.54C295.005 1228.54 294.153 1228.54 292.922 1228.54C291.691 1228.54 290.248 1228.54 288.591 1228.54C286.982 1228.54 285.278 1228.54 283.479 1228.54C281.68 1228.54 279.953 1228.54 278.296 1228.54C276.687 1228.54 275.267 1228.54 274.036 1228.54C272.805 1228.54 271.93 1228.54 271.409 1228.54C270.415 1228.54 269.374 1228.59 268.285 1228.68C267.196 1228.73 266.155 1228.8 265.161 1228.9C264.214 1228.94 263.481 1228.99 262.96 1229.04V1218.96C263.67 1219 264.546 1219.08 265.587 1219.17C266.628 1219.26 267.67 1219.34 268.711 1219.38C269.8 1219.43 270.699 1219.45 271.409 1219.45C272.024 1219.45 272.995 1219.45 274.32 1219.45C275.645 1219.45 277.16 1219.45 278.864 1219.45C280.568 1219.45 282.319 1219.45 284.118 1219.45C285.964 1219.45 287.715 1219.45 289.372 1219.45C291.076 1219.45 292.543 1219.45 293.774 1219.45C295.005 1219.45 295.904 1219.45 296.472 1219.45C298.034 1219.45 299.454 1219.36 300.732 1219.17C302.057 1218.98 303.075 1218.77 303.785 1218.53L309.607 1222.86ZM293.703 1244.94C295.549 1246.41 297.513 1248.11 299.596 1250.06C301.679 1252 303.738 1254.01 305.773 1256.09C307.808 1258.17 309.678 1260.18 311.382 1262.13C313.133 1264.02 314.601 1265.68 315.784 1267.1L307.69 1274.12C305.939 1271.71 303.927 1269.2 301.655 1266.6C299.43 1263.99 297.064 1261.42 294.555 1258.86C292.094 1256.26 289.585 1253.79 287.029 1251.48L293.703 1244.94Z" fill="black"/>
<path d="M189.262 1221.45C190.209 1221.54 191.321 1221.63 192.599 1221.73C193.877 1221.82 195.013 1221.87 196.007 1221.87H234.631C235.72 1221.87 236.856 1221.82 238.039 1221.73C239.223 1221.63 240.311 1221.54 241.305 1221.45V1231.17C240.264 1231.08 239.152 1231.01 237.968 1230.96C236.785 1230.91 235.673 1230.89 234.631 1230.89H196.007C195.061 1230.89 193.925 1230.91 192.599 1230.96C191.274 1231.01 190.162 1231.08 189.262 1231.17V1221.45ZM209.71 1265.11V1226.91H219.65V1265.11H209.71ZM184.647 1259.29C185.783 1259.48 186.967 1259.62 188.197 1259.71C189.428 1259.81 190.588 1259.86 191.676 1259.86H238.465C239.743 1259.86 240.95 1259.81 242.086 1259.71C243.222 1259.57 244.24 1259.43 245.139 1259.29V1269.58C244.098 1269.44 242.938 1269.35 241.66 1269.3C240.382 1269.25 239.317 1269.23 238.465 1269.23H191.676C190.635 1269.23 189.499 1269.25 188.268 1269.3C187.038 1269.35 185.831 1269.44 184.647 1269.58V1259.29Z" fill="black"/>
</svg>
