<svg width="1080" height="1920" viewBox="0 0 1080 1920" fill="none" xmlns="http://www.w3.org/2000/svg">
<path d="M1080 1920L1080 0L0 0L0 1920H1080Z" fill="#A5D4AD"/>
<path d="M1020 983.72V95C1020 75.67 1004.33 60 985 60H95.58C75.93 60 60 75.93 60 95.58V983.71C60 984.03 60.25 984.28 60.57 984.28C80.03 984.59 95.71 1000.46 95.71 1019.99C95.71 1039.52 80.03 1055.39 60.57 1055.7C60.25 1055.7 60 1055.96 60 1056.27V1824.99C60 1844.32 75.67 1859.99 95 1859.99H985C1004.33 1859.99 1020 1844.32 1020 1824.99V1056.27C1020 1055.95 1019.75 1055.7 1019.43 1055.7C999.97 1055.39 984.29 1039.52 984.29 1019.99C984.29 1000.46 999.97 984.59 1019.43 984.28C1019.75 984.28 1020 984.02 1020 983.71V983.72Z" fill="white"/>
<path d="M60.57 1055.71C60.25 1055.71 60 1055.97 60 1056.28V1825C60 1844.33 75.67 1860 95 1860H985C1004.33 1860 1020 1844.33 1020 1825V1056.28C1020 1055.96 1019.75 1055.71 1019.43 1055.71C999.97 1055.4 984.29 1039.53 984.29 1020H95.71C95.71 1039.53 80.03 1055.4 60.57 1055.71Z" fill="#E5F2E6"/>
<path d="M121 1020H160.9" stroke="black" stroke-width="6" stroke-miterlimit="10"/>
<path d="M187.51 1020H227.41" stroke="black" stroke-width="6" stroke-miterlimit="10"/>
<path d="M254.02 1020H293.92" stroke="black" stroke-width="6" stroke-miterlimit="10"/>
<path d="M320.52 1020H360.43" stroke="black" stroke-width="6" stroke-miterlimit="10"/>
<path d="M387.029 1020H426.939" stroke="black" stroke-width="6" stroke-miterlimit="10"/>
<path d="M453.539 1020H493.439" stroke="black" stroke-width="6" stroke-miterlimit="10"/>
<path d="M520.051 1020H559.951" stroke="black" stroke-width="6" stroke-miterlimit="10"/>
<path d="M586.561 1020H626.461" stroke="black" stroke-width="6" stroke-miterlimit="10"/>
<path d="M653.061 1020H692.971" stroke="black" stroke-width="6" stroke-miterlimit="10"/>
<path d="M719.57 1020H759.48" stroke="black" stroke-width="6" stroke-miterlimit="10"/>
<path d="M786.08 1020H825.98" stroke="black" stroke-width="6" stroke-miterlimit="10"/>
<path d="M852.59 1020H892.49" stroke="black" stroke-width="6" stroke-miterlimit="10"/>
<path d="M919.1 1020H959" stroke="black" stroke-width="6" stroke-miterlimit="10"/>
<path d="M1020 984.29V95C1020 75.67 1004.33 60 985 60H95C75.67 60 60 75.67 60 95V984.29C79.72 984.29 95.71 1000.28 95.71 1020C95.71 1039.72 79.72 1055.71 60 1055.71V1825C60 1844.33 75.67 1860 95 1860H985C1004.33 1860 1020 1844.33 1020 1825V1055.71C1000.28 1055.71 984.29 1039.72 984.29 1020C984.29 1000.28 1000.28 984.29 1020 984.29Z" stroke="black" stroke-width="6" stroke-miterlimit="10"/>
<path d="M912.649 525.666C908.779 525.666 905.539 522.646 905.319 518.736C900.589 435.626 868.789 358.856 813.369 296.746C810.669 293.716 810.929 289.066 813.959 286.366C816.989 283.666 821.629 283.926 824.339 286.956C881.999 351.576 915.069 431.436 919.999 517.896C920.229 521.946 917.129 525.426 913.079 525.656C912.939 525.656 912.799 525.666 912.659 525.666H912.649Z" fill="black"/>
<path d="M818.849 795.517C817.109 795.517 815.359 794.897 813.959 793.647C810.929 790.947 810.669 786.297 813.369 783.267C868.789 721.157 900.589 644.387 905.319 561.277C905.549 557.227 909.029 554.117 913.079 554.357C917.129 554.587 920.229 558.057 919.999 562.117C915.069 648.587 881.999 728.447 824.339 793.057C822.889 794.687 820.869 795.517 818.849 795.517Z" fill="black"/>
<path d="M167.36 525.666C167.22 525.666 167.08 525.666 166.94 525.656C162.89 525.426 159.79 521.956 160.02 517.896C164.95 431.426 198.02 351.566 255.68 286.956C258.38 283.926 263.03 283.666 266.06 286.366C269.09 289.066 269.35 293.716 266.65 296.746C211.23 358.856 179.43 435.616 174.7 518.736C174.48 522.646 171.24 525.666 167.37 525.666H167.36Z" fill="black"/>
<path d="M261.17 795.517C259.15 795.517 257.13 794.687 255.68 793.057C198.02 728.437 164.95 648.577 160.02 562.117C159.79 558.067 162.89 554.587 166.94 554.357C170.99 554.117 174.47 557.227 174.7 561.277C179.43 644.397 211.23 721.157 266.65 783.267C269.35 786.297 269.09 790.947 266.06 793.647C264.66 794.897 262.91 795.517 261.17 795.517Z" fill="black"/>
<path d="M788.169 268.511C786.429 268.511 784.679 267.891 783.279 266.641C721.169 211.221 644.399 179.421 561.289 174.691C557.239 174.461 554.139 170.991 554.369 166.931C554.599 162.881 558.039 159.791 562.129 160.011C648.599 164.941 728.459 198.011 793.069 255.671C796.099 258.371 796.359 263.021 793.659 266.051C792.209 267.681 790.189 268.511 788.169 268.511Z" fill="black"/>
<path d="M291.85 268.512C289.83 268.512 287.81 267.682 286.36 266.052C283.66 263.022 283.92 258.372 286.95 255.672C351.57 198.012 431.43 164.942 517.89 160.012C521.94 159.782 525.42 162.882 525.65 166.932C525.88 170.982 522.78 174.462 518.73 174.692C435.62 179.422 358.85 211.222 296.74 266.642C295.34 267.892 293.59 268.512 291.85 268.512Z" fill="black"/>
<path d="M561.69 920.006C557.82 920.006 554.58 916.986 554.36 913.076C554.13 909.026 557.23 905.546 561.28 905.316C644.4 900.586 721.16 868.786 783.27 813.366C786.3 810.666 790.95 810.926 793.65 813.956C796.35 816.986 796.09 821.636 793.06 824.336C728.44 881.996 648.58 915.066 562.12 919.996C561.98 919.996 561.84 920.006 561.7 920.006H561.69Z" fill="black"/>
<path d="M518.319 920.006C518.179 920.006 518.04 920.006 517.9 919.996C431.43 915.066 351.569 881.996 286.959 824.336C283.929 821.636 283.669 816.986 286.369 813.956C289.069 810.926 293.719 810.666 296.749 813.366C358.859 868.786 435.629 900.586 518.739 905.316C522.789 905.546 525.889 909.016 525.659 913.076C525.439 916.986 522.199 920.006 518.329 920.006H518.319Z" fill="black"/>
<path d="M875.38 526.189C872.37 526.189 869.85 523.839 869.68 520.799C865.41 445.789 836.71 376.519 786.7 320.459C784.6 318.099 784.8 314.489 787.16 312.389C789.51 310.289 793.13 310.489 795.23 312.849C846.98 370.849 876.68 442.539 881.1 520.149C881.28 523.299 878.87 525.999 875.72 526.179C875.61 526.179 875.5 526.179 875.39 526.179L875.38 526.189Z" fill="black"/>
<path d="M790.96 769.062C789.6 769.062 788.25 768.582 787.16 767.612C784.8 765.512 784.6 761.892 786.7 759.542C836.71 703.492 865.41 634.212 869.68 559.202C869.86 556.052 872.55 553.642 875.71 553.822C878.86 554.002 881.27 556.702 881.09 559.852C876.67 637.472 846.98 709.152 795.22 767.152C794.09 768.422 792.52 769.062 790.95 769.062H790.96Z" fill="black"/>
<path d="M204.63 526.187C204.52 526.187 204.41 526.187 204.3 526.187C201.15 526.007 198.74 523.307 198.92 520.157C203.34 442.537 233.03 370.857 284.79 312.857C286.89 310.497 290.51 310.297 292.86 312.397C295.22 314.497 295.42 318.117 293.32 320.467C243.31 376.517 214.61 445.797 210.34 520.807C210.17 523.847 207.65 526.197 204.64 526.197L204.63 526.187Z" fill="black"/>
<path d="M289.05 769.055C287.48 769.055 285.91 768.405 284.78 767.145C233.03 709.145 203.33 637.455 198.91 559.845C198.73 556.695 201.14 553.995 204.29 553.815C207.45 553.625 210.14 556.045 210.32 559.195C214.59 634.205 243.29 703.485 293.3 759.535C295.4 761.895 295.2 765.505 292.84 767.605C291.75 768.575 290.39 769.055 289.04 769.055H289.05Z" fill="black"/>
<path d="M763.35 294.756C761.99 294.756 760.64 294.276 759.55 293.306C703.5 243.296 634.22 214.596 559.21 210.326C556.06 210.146 553.65 207.446 553.83 204.296C554.01 201.146 556.7 198.736 559.86 198.916C637.48 203.336 709.16 233.026 767.16 284.786C769.52 286.886 769.72 290.506 767.62 292.856C766.49 294.126 764.92 294.766 763.35 294.766V294.756Z" fill="black"/>
<path d="M316.659 294.759C315.089 294.759 313.519 294.109 312.389 292.849C310.289 290.489 310.489 286.879 312.849 284.779C370.849 233.029 442.539 203.329 520.149 198.909C523.299 198.719 525.999 201.139 526.179 204.289C526.359 207.439 523.949 210.139 520.799 210.319C445.789 214.589 376.519 243.289 320.459 293.299C319.369 294.269 318.009 294.749 316.659 294.749V294.759Z" fill="black"/>
<path d="M559.53 881.102C556.52 881.102 554 878.752 553.83 875.712C553.65 872.562 556.06 869.862 559.21 869.682C634.22 865.412 703.49 836.712 759.55 786.702C761.9 784.602 765.52 784.802 767.62 787.162C769.72 789.522 769.52 793.132 767.16 795.232C709.16 846.982 637.47 876.682 559.86 881.102C559.75 881.102 559.64 881.102 559.53 881.102Z" fill="black"/>
<path d="M520.489 881.102C520.379 881.102 520.269 881.102 520.159 881.102C442.539 876.682 370.859 846.992 312.859 795.232C310.499 793.132 310.299 789.512 312.399 787.162C314.499 784.802 318.119 784.602 320.469 786.702C376.519 836.722 445.799 865.412 520.809 869.682C523.959 869.862 526.369 872.562 526.189 875.712C526.019 878.752 523.499 881.102 520.489 881.102Z" fill="black"/>
<path d="M841.849 526.514C839.699 526.514 837.899 524.834 837.779 522.664C833.919 454.914 807.999 392.344 762.829 341.714C761.329 340.034 761.479 337.454 763.159 335.944C764.839 334.444 767.419 334.584 768.929 336.274C815.349 388.294 841.979 452.584 845.939 522.194C846.069 524.444 844.349 526.374 842.089 526.504C842.009 526.504 841.929 526.504 841.849 526.504V526.514Z" fill="black"/>
<path d="M765.869 745.106C764.899 745.106 763.929 744.766 763.149 744.066C761.469 742.566 761.319 739.986 762.819 738.296C807.989 687.666 833.909 625.096 837.769 557.346C837.899 555.096 839.859 553.396 842.079 553.496C844.329 553.626 846.049 555.556 845.929 557.806C841.959 627.416 815.329 691.706 768.919 743.726C768.109 744.626 766.989 745.086 765.869 745.086V745.106Z" fill="black"/>
<path d="M238.17 526.516C238.09 526.516 238.01 526.516 237.93 526.516C235.68 526.386 233.96 524.456 234.08 522.206C238.05 452.596 264.68 388.306 311.09 336.286C312.59 334.606 315.17 334.456 316.86 335.956C318.54 337.456 318.69 340.036 317.19 341.726C272.02 392.356 246.1 454.926 242.24 522.676C242.12 524.846 240.32 526.526 238.17 526.526V526.516Z" fill="black"/>
<path d="M314.139 745.103C313.019 745.103 311.899 744.643 311.089 743.743C264.669 691.723 238.039 627.433 234.079 557.823C233.949 555.573 235.669 553.643 237.929 553.513C240.169 553.403 242.109 555.103 242.239 557.363C246.099 625.113 272.019 687.683 317.189 738.313C318.689 739.993 318.539 742.573 316.859 744.083C316.079 744.773 315.109 745.123 314.139 745.123V745.103Z" fill="black"/>
<path d="M741.018 318.225C740.048 318.225 739.078 317.885 738.298 317.185C687.668 272.015 625.098 246.095 557.348 242.235C555.098 242.105 553.378 240.175 553.498 237.925C553.628 235.675 555.548 233.965 557.808 234.075C627.418 238.045 691.708 264.675 743.738 311.085C745.418 312.585 745.568 315.165 744.068 316.855C743.258 317.755 742.138 318.215 741.018 318.215V318.225Z" fill="black"/>
<path d="M338.998 318.224C337.878 318.224 336.758 317.764 335.948 316.864C334.448 315.184 334.598 312.604 336.278 311.094C388.298 264.674 452.588 238.044 522.198 234.084C524.448 233.964 526.378 235.674 526.508 237.934C526.638 240.184 524.918 242.114 522.658 242.244C454.908 246.104 392.338 272.024 341.708 317.194C340.928 317.884 339.958 318.234 338.988 318.234L338.998 318.224Z" fill="black"/>
<path d="M557.569 845.933C555.419 845.933 553.619 844.253 553.499 842.083C553.369 839.833 555.089 837.903 557.349 837.773C625.099 833.913 687.669 807.993 738.299 762.823C739.979 761.323 742.559 761.473 744.069 763.153C745.569 764.833 745.419 767.413 743.739 768.923C691.719 815.343 627.429 841.973 557.809 845.933C557.729 845.933 557.649 845.933 557.569 845.933Z" fill="black"/>
<path d="M522.438 845.933C522.358 845.933 522.278 845.933 522.198 845.933C452.588 841.963 388.298 815.333 336.278 768.923C334.598 767.423 334.448 764.843 335.948 763.153C337.448 761.473 340.028 761.323 341.718 762.823C392.348 807.993 454.918 833.913 522.668 837.773C524.918 837.903 526.638 839.833 526.518 842.083C526.398 844.253 524.598 845.933 522.448 845.933H522.438Z" fill="black"/>
<path d="M320.65 546.174C320.65 544.604 321.79 543.274 323.34 543.024C324.64 542.814 326.27 542.524 327.98 542.124C332.4 541.084 337.59 539.114 343.41 536.274C349.29 533.404 354.92 529.414 359.17 523.674C366.34 513.974 367.86 501.404 368.19 496.894C368.26 495.974 367.53 495.194 366.6 495.194H317.09C315.33 495.194 313.91 493.764 313.91 492.014V470.694C313.91 468.934 315.34 467.514 317.09 467.514H367.07C367.95 467.514 368.66 466.804 368.66 465.924V447.184C368.66 446.304 367.95 445.594 367.07 445.594H328.62C326.86 445.594 325.44 444.164 325.44 442.414V421.094C325.44 419.334 326.87 417.914 328.62 417.914H428.96C430.72 417.914 432.14 419.344 432.14 421.094V442.414C432.14 444.174 430.71 445.594 428.96 445.594H398.52C397.64 445.594 396.93 446.304 396.93 447.184V465.924C396.93 466.804 397.64 467.514 398.52 467.514H438.58C440.34 467.514 441.76 468.944 441.76 470.694V492.014C441.76 493.774 440.33 495.194 438.58 495.194H398.39C397.54 495.194 396.84 495.864 396.8 496.714C396.57 501.754 395.15 518.444 386.18 532.854C380.73 541.614 373.65 548.264 366.54 553.544C359.41 558.844 352.26 562.934 345.27 565.704C338.24 568.494 332.34 570.444 327.75 571.514C326.66 571.764 325.49 571.994 324.4 572.184C322.45 572.534 320.66 571.034 320.66 569.044V546.164L320.65 546.174Z" fill="black"/>
<path d="M474.55 546.522C474.55 545.062 475.55 543.792 476.96 543.432C485.21 541.362 488.93 540.112 496.84 536.322C496.84 536.322 500.89 534.212 504.93 531.302C517.11 522.542 525.22 510.632 525.22 510.632C534.68 497.282 537.77 474.912 538.49 468.492C538.6 467.552 537.86 466.722 536.91 466.722H500.58C500.35 466.722 500.14 466.842 500.03 467.042L499.88 467.292C494.3 478.112 486.88 487.992 480.45 494.242C474 500.502 468.59 505.052 464.38 507.752L461.78 509.422C460.72 510.102 459.33 509.342 459.33 508.082V479.892C459.33 478.952 459.75 478.062 460.47 477.452C461.12 476.902 461.99 476.132 463.18 475.062C465.94 472.572 469.05 468.512 472.42 462.982C475.76 457.512 479.35 450.212 483.07 441.292C486.45 433.202 488.98 423.092 490.86 412.062C491.12 410.532 492.45 409.422 494 409.422H513.91C515.91 409.422 517.42 411.252 517.04 413.212C516.4 416.522 515.71 420.882 514.85 424.312C513.58 429.392 512.76 432.302 511.24 436.722C510.98 437.472 511.54 438.242 512.33 438.242H591.18C592.94 438.242 594.36 439.672 594.36 441.422V463.512C594.36 465.272 592.93 466.692 591.18 466.692H568.14C567.33 466.692 566.64 467.302 566.56 468.112C565.93 474.012 562.88 497.162 552.39 517.262C538.29 546.002 508.14 566.392 478.34 572.132C476.38 572.512 474.56 571.002 474.56 569.002V546.482L474.55 546.522Z" fill="black"/>
<path d="M675.9 411.035V468.875C675.9 469.755 676.61 470.465 677.49 470.465H764.52C765.4 470.465 766.11 469.755 766.11 468.875V411.035C766.11 410.155 765.4 409.445 764.52 409.445H677.49C676.61 409.445 675.9 410.155 675.9 411.035ZM738.46 452.745H702.3C701.42 452.745 700.71 452.035 700.71 451.155V446.875C700.71 445.995 701.42 445.285 702.3 445.285H738.46C739.34 445.285 740.05 445.995 740.05 446.875V451.155C740.05 452.035 739.34 452.745 738.46 452.745ZM738.46 434.455H702.3C701.42 434.455 700.71 433.745 700.71 432.865V428.755C700.71 427.875 701.42 427.165 702.3 427.165H738.46C739.34 427.165 740.05 427.875 740.05 428.755V432.865C740.05 433.745 739.34 434.455 738.46 434.455Z" fill="black"/>
<path d="M674.23 497.342H728.27C729.15 497.342 729.86 498.052 729.86 498.932V502.842C729.86 503.722 729.15 504.432 728.27 504.432H667.76C666 504.432 664.58 505.862 664.58 507.612V522.862C664.58 524.622 666.01 526.042 667.76 526.042H728.27C729.15 526.042 729.86 526.752 729.86 527.632V545.392C729.86 546.112 729.94 547.982 729.22 548.852C728.39 549.872 727.15 549.672 725.85 549.722C722.54 549.722 719.58 549.702 716.95 549.662C716.55 549.662 716.26 549.292 716.34 548.902C716.6 547.632 716.73 546.312 716.7 544.962C716.5 535.682 708.94 528.082 699.66 527.842C689.58 527.582 681.37 535.852 681.71 545.942C682.02 555.292 689.79 562.812 699.15 562.842C704.04 562.852 708.46 560.862 711.64 557.642C711.98 557.302 712.55 557.432 712.7 557.882C714.16 562.212 715.54 566.342 716.79 570.052C717.23 571.352 718.46 572.222 719.83 572.212C725.73 572.172 730.51 571.962 734.18 571.602C738.31 571.182 742.09 570.152 745.52 568.502C749.18 566.842 751.69 564.422 753.05 561.232C754.41 558.042 755.09 553.552 755.09 547.762V527.622C755.09 526.742 755.8 526.032 756.68 526.032H762.91C764.67 526.032 766.09 524.602 766.09 522.852V507.602C766.09 505.842 764.66 504.422 762.91 504.422H756.68C755.8 504.422 755.09 503.712 755.09 502.832V498.922C755.09 498.042 755.8 497.332 756.68 497.332H762.91C764.67 497.332 766.09 495.902 766.09 494.152V479.602C766.09 477.842 764.66 476.422 762.91 476.422H674.21C672.45 476.422 671.03 477.852 671.03 479.602V494.152C671.03 495.912 672.46 497.332 674.21 497.332L674.23 497.342Z" fill="black"/>
<path d="M668.83 409.445H650.26C649.4 409.445 648.58 409.795 647.98 410.405C635.23 423.355 618.29 434.575 612.13 438.485C610.78 439.335 610.28 441.065 610.95 442.505L620.7 463.575C621.63 465.575 624.26 466.055 625.83 464.505C646.12 444.465 664.45 419.805 670.12 411.965C670.88 410.915 670.12 409.445 668.83 409.445Z" fill="black"/>
<path d="M671.92 453.899V435.419C671.92 434.009 670.22 433.299 669.21 434.289C653.64 449.609 620.05 477.069 611.68 483.869C610.55 484.789 610.19 486.359 610.8 487.679L620.7 509.059C621.63 511.059 624.26 511.539 625.83 509.989C627.54 508.299 629.24 506.569 630.92 504.829C631.32 504.419 632.02 504.699 632.02 505.269V569.069C632.02 570.829 633.45 572.249 635.2 572.249H653.82C655.58 572.249 657 570.819 657 569.069V476.379C657 475.309 657.36 474.259 658.03 473.419C664.87 464.739 669.72 458.029 671.34 455.749C671.72 455.209 671.93 454.569 671.93 453.899H671.92Z" fill="black"/>
<path d="M653.271 623.338C640.851 623.338 634.811 628.288 634.811 638.478V655.608C634.811 665.678 640.851 670.568 653.271 670.568C659.141 670.568 663.481 669.488 666.561 667.278C670.001 664.808 671.741 660.878 671.741 655.598V638.468C671.741 628.278 665.701 623.328 653.281 623.328L653.271 623.338ZM646.091 639.308C646.091 633.938 648.841 632.918 653.271 632.918C657.701 632.918 660.451 633.958 660.451 639.308V654.688C660.451 659.958 657.601 660.988 653.271 660.988C648.941 660.988 646.091 659.988 646.091 654.688V639.308Z" fill="black"/>
<path d="M708.27 669.334H721.359L703.63 646.784L720.56 624.804H707.4L694.06 642.284V610.234H682.77V669.334H694.06V659.214L696.95 655.454L708.27 669.334Z" fill="black"/>
<path d="M754.82 624.805V653.295C754.82 659.045 751.88 660.895 746.83 660.895C743.56 660.895 740.28 660.355 740.28 653.885V624.815H729V656.775C729 665.745 733.71 670.485 742.62 670.485C749.3 670.485 753.88 666.865 755.58 662.805L757.39 669.345H766.11V624.815H754.83L754.82 624.805Z" fill="black"/>
<path d="M630.57 610.234H589.15V620.144V620.154H604.22V669.334H615.69V620.154H630.57V610.234Z" fill="black"/>
<path d="M459.689 669.334H472.779L455.049 646.784L471.979 624.804H458.819L445.479 642.284V610.234H434.199V669.334H445.479V659.214L448.369 655.454L459.689 669.334Z" fill="black"/>
<path d="M355.33 610.234H313.91V620.144V620.154H328.99V669.334H340.45V620.154H355.33V610.234Z" fill="black"/>
<path d="M421.8 658.896L421.2 659.046C417.62 659.966 413.29 660.896 409.41 660.896C404.86 660.896 401.69 658.826 401.69 652.836V640.976C401.69 634.906 404.86 632.826 409.41 632.826C413.36 632.826 417.88 633.706 421.23 634.406L421.81 634.526V625.196L421.5 625.126C417.69 624.236 412.05 623.336 407.53 623.336C402.01 623.336 397.97 624.406 395.17 626.596C391.97 629.096 390.42 633.856 390.42 639.346V654.646C390.42 664.776 396.02 670.566 407.54 670.566C411.41 670.566 417.27 669.496 421.53 668.316L421.82 668.236V658.886L421.8 658.896Z" fill="black"/>
<path d="M553.93 634.705V624.805H543.69V615.195H532.41V624.805H525.18V634.705H532.41V655.425C532.41 667.945 540.3 670.565 546.93 670.565C548.71 670.565 550.51 670.455 552.12 670.225V660.265C551.47 660.335 550.26 660.365 549.54 660.365C546.46 660.365 543.69 659.735 543.69 652.095V634.695H553.93V634.705Z" fill="black"/>
<path d="M489.741 650.742V650.562H515.171V641.482C515.171 635.572 513.551 630.243 510.361 627.343C507.421 624.673 502.781 623.312 497.261 623.312C485.081 623.312 478.461 629.223 478.461 639.593V654.453C478.461 664.703 483.841 670.552 496.321 670.552C500.981 670.552 506.291 669.563 511.971 668.403L512.361 668.323V659.052L511.711 659.203C507.141 660.253 504.621 661.143 500.291 661.143C494.081 661.143 489.741 658.623 489.741 652.203V650.722V650.742ZM489.741 639.722C489.741 634.072 493.801 632.742 497.171 632.742C500.541 632.742 504.071 634.072 504.071 639.722V643.232H489.741V642.713V639.722Z" fill="black"/>
<path d="M378.18 626.883H366.9V669.333H378.18V626.883Z" fill="black"/>
<path d="M372.54 622.224C376.422 622.224 379.57 619.077 379.57 615.194C379.57 611.312 376.422 608.164 372.54 608.164C368.657 608.164 365.51 611.312 365.51 615.194C365.51 619.077 368.657 622.224 372.54 622.224Z" fill="black"/>
<path d="M585.74 643.922H566.15V651.262H585.74V643.922Z" fill="black"/>
<path d="M711.977 1508C711.13 1508 710.404 1507.4 710.404 1506.43V1412.66C710.404 1411.93 711.009 1411.2 711.977 1411.2H756.263C757.231 1411.2 757.836 1411.81 757.836 1412.66V1422.09C757.836 1422.94 757.231 1423.55 756.263 1423.55H723.109V1453.43H755.174C756.021 1453.43 756.626 1454.04 756.626 1454.88V1464.08C756.626 1465.05 756.021 1465.77 755.174 1465.77H723.109V1506.43C723.109 1507.4 722.383 1508 721.536 1508H711.977Z" fill="black"/>
<path d="M643.323 1508C642.476 1508 641.75 1507.4 641.75 1506.43V1412.66C641.75 1411.93 642.355 1411.2 643.323 1411.2H687.609C688.577 1411.2 689.182 1411.81 689.182 1412.66V1422.09C689.182 1422.94 688.577 1423.55 687.609 1423.55H654.455V1453.43H686.52C687.367 1453.43 687.972 1454.04 687.972 1454.88V1464.08C687.972 1465.05 687.367 1465.77 686.52 1465.77H654.455V1506.43C654.455 1507.4 653.729 1508 652.882 1508H643.323Z" fill="black"/>
<path d="M573.766 1421.97C553.317 1421.97 536.861 1438.66 536.861 1459.48C536.861 1480.05 553.196 1497.23 573.645 1497.23C594.094 1497.23 610.792 1480.05 610.792 1459.6C610.792 1438.79 594.215 1421.97 573.766 1421.97ZM524.035 1459.48C524.035 1431.65 545.936 1409.38 573.766 1409.38C601.596 1409.38 623.618 1431.77 623.618 1459.6C623.618 1487.43 601.475 1509.81 573.645 1509.81C545.815 1509.81 524.035 1487.31 524.035 1459.48Z" fill="black"/>
<path d="M435.74 1507.27C435.498 1507.76 435.014 1508 434.53 1508H423.398C422.309 1508 421.583 1506.79 422.188 1505.82L475.912 1411.92C476.154 1411.44 476.638 1411.2 477.243 1411.2H488.375C489.706 1411.2 490.19 1412.41 489.585 1413.38L435.74 1507.27ZM404.643 1434.43C404.643 1420.51 415.533 1409.38 429.448 1409.38C443.484 1409.38 454.374 1420.51 454.374 1434.55C454.374 1448.47 443.242 1459.6 429.448 1459.6C415.412 1459.6 404.643 1448.47 404.643 1434.43ZM417.348 1434.43C417.348 1441.33 422.672 1447.01 429.448 1447.01C436.224 1447.01 441.669 1441.33 441.669 1434.55C441.669 1427.65 436.224 1422.21 429.448 1422.21C422.793 1422.21 417.348 1427.65 417.348 1434.43ZM459.214 1484.52C459.214 1470.61 470.104 1459.48 484.019 1459.48C498.055 1459.48 508.945 1470.61 508.945 1484.64C508.945 1498.56 497.813 1509.69 484.019 1509.69C469.983 1509.69 459.214 1498.56 459.214 1484.52ZM471.919 1484.52C471.919 1491.42 477.243 1497.11 484.019 1497.11C490.795 1497.11 496.24 1491.42 496.24 1484.64C496.24 1477.75 490.795 1472.3 484.019 1472.3C477.364 1472.3 471.919 1477.75 471.919 1484.52Z" fill="black"/>
<path d="M385.013 1411.2C385.86 1411.2 386.465 1411.81 386.465 1412.66V1422.21C386.465 1423.06 385.86 1423.67 385.013 1423.67H355.005L349.439 1440.97H349.56C349.56 1440.97 352.101 1440.61 354.4 1440.73C372.913 1441.33 386.465 1454.76 386.465 1474.61C386.465 1493.73 372.55 1509.82 351.617 1509.82C338.67 1509.82 327.659 1503.77 321.246 1494.09L319.31 1491.18C318.947 1490.58 319.068 1489.49 319.673 1489.13L327.417 1483.32C328.022 1482.71 329.111 1482.84 329.716 1483.68L331.289 1486.22C336.129 1494.09 343.994 1497.48 351.617 1497.48C365.895 1497.48 373.76 1486.83 373.76 1474.49C373.76 1460.81 364.08 1452.95 353.069 1452.95C347.019 1452.95 343.631 1454.52 340.848 1456.58L339.88 1457.3C339.517 1457.55 339.154 1457.67 338.67 1457.55L333.467 1456.7C332.378 1456.58 332.015 1455.61 332.257 1454.76L345.567 1412.17C345.809 1411.57 346.293 1411.2 346.898 1411.2H385.013Z" fill="black"/>
<path d="M746.023 1645.46C745.863 1646.04 745.687 1646.76 745.495 1647.62C745.303 1648.48 745.111 1649.4 744.919 1650.36C744.727 1651.28 744.551 1652.2 744.391 1653.09C744.263 1653.99 744.167 1654.77 744.103 1655.44C744.679 1654.48 745.367 1653.56 746.167 1652.66C746.967 1651.73 747.863 1650.9 748.855 1650.16C749.879 1649.4 750.983 1648.79 752.167 1648.34C753.383 1647.89 754.663 1647.67 756.007 1647.67C758.247 1647.67 760.263 1648.36 762.055 1649.73C763.847 1651.11 765.255 1653.08 766.279 1655.64C767.335 1658.2 767.863 1661.24 767.863 1664.76C767.863 1668.15 767.367 1671.12 766.375 1673.68C765.383 1676.21 763.959 1678.37 762.103 1680.16C760.247 1681.96 758.023 1683.41 755.431 1684.53C752.871 1685.68 750.007 1686.55 746.839 1687.12L743.191 1681.56C745.847 1681.14 748.279 1680.58 750.487 1679.88C752.727 1679.14 754.647 1678.15 756.247 1676.9C757.879 1675.65 759.127 1674.05 759.991 1672.1C760.887 1670.12 761.335 1667.68 761.335 1664.8C761.335 1662.34 761.079 1660.26 760.567 1658.56C760.055 1656.84 759.303 1655.52 758.311 1654.63C757.351 1653.73 756.199 1653.28 754.855 1653.28C753.447 1653.28 752.103 1653.75 750.823 1654.68C749.543 1655.6 748.391 1656.82 747.367 1658.32C746.375 1659.8 745.575 1661.4 744.967 1663.12C744.391 1664.85 744.071 1666.52 744.007 1668.12C743.975 1668.79 743.959 1669.52 743.959 1670.32C743.991 1671.12 744.087 1672.08 744.247 1673.2L738.343 1673.59C738.215 1672.66 738.071 1671.51 737.911 1670.13C737.783 1668.72 737.719 1667.2 737.719 1665.57C737.719 1664.45 737.751 1663.25 737.815 1661.97C737.911 1660.69 738.007 1659.4 738.103 1658.08C738.231 1656.74 738.375 1655.4 738.535 1654.05C738.727 1652.71 738.903 1651.43 739.063 1650.21C739.191 1649.28 739.287 1648.37 739.351 1647.48C739.415 1646.58 739.447 1645.81 739.447 1645.17L746.023 1645.46Z" fill="black"/>
<path d="M704.503 1645.36C704.375 1645.81 704.246 1646.26 704.118 1646.71C704.022 1647.12 703.926 1647.52 703.83 1647.91C703.542 1649.41 703.27 1651.14 703.014 1653.09C702.758 1655.01 702.551 1657.03 702.391 1659.14C702.231 1661.22 702.15 1663.27 702.15 1665.28C702.15 1667.78 702.278 1670.08 702.534 1672.19C702.79 1674.27 703.142 1676.21 703.59 1678C704.07 1679.76 704.582 1681.44 705.126 1683.04L699.606 1684.72C699.126 1683.28 698.662 1681.57 698.214 1679.59C697.798 1677.6 697.446 1675.47 697.158 1673.2C696.87 1670.9 696.727 1668.58 696.727 1666.24C696.727 1664.64 696.774 1663.04 696.87 1661.44C696.998 1659.81 697.126 1658.21 697.254 1656.64C697.382 1655.04 697.526 1653.52 697.686 1652.08C697.878 1650.61 698.039 1649.28 698.167 1648.1C698.199 1647.65 698.23 1647.17 698.262 1646.66C698.294 1646.11 698.294 1645.63 698.262 1645.22L704.503 1645.36ZM695.958 1650.69C698.998 1650.69 701.847 1650.63 704.503 1650.5C707.191 1650.37 709.767 1650.15 712.23 1649.83C714.726 1649.51 717.207 1649.04 719.671 1648.43L719.718 1654C718.054 1654.29 716.214 1654.56 714.198 1654.82C712.214 1655.04 710.134 1655.23 707.958 1655.39C705.814 1655.55 703.702 1655.68 701.622 1655.78C699.542 1655.84 697.59 1655.87 695.766 1655.87C694.934 1655.87 693.99 1655.86 692.934 1655.83C691.91 1655.79 690.886 1655.76 689.862 1655.73C688.87 1655.67 688.006 1655.62 687.27 1655.59L687.126 1650.02C687.67 1650.08 688.454 1650.18 689.478 1650.31C690.502 1650.4 691.59 1650.5 692.742 1650.59C693.926 1650.66 694.998 1650.69 695.958 1650.69ZM716.646 1657.7C716.55 1657.99 716.406 1658.39 716.214 1658.9C716.022 1659.41 715.83 1659.94 715.638 1660.48C715.478 1661.03 715.35 1661.46 715.254 1661.78C714.326 1664.66 713.19 1667.3 711.846 1669.7C710.534 1672.07 709.11 1674.15 707.574 1675.94C706.038 1677.7 704.518 1679.14 703.014 1680.26C701.446 1681.44 699.654 1682.48 697.638 1683.38C695.622 1684.24 693.59 1684.67 691.542 1684.67C690.39 1684.67 689.318 1684.43 688.326 1683.95C687.334 1683.47 686.534 1682.72 685.926 1681.7C685.35 1680.64 685.062 1679.31 685.062 1677.71C685.062 1675.99 685.414 1674.29 686.118 1672.63C686.822 1670.96 687.798 1669.38 689.046 1667.87C690.294 1666.37 691.75 1665.04 693.414 1663.89C695.078 1662.71 696.87 1661.78 698.79 1661.11C700.358 1660.53 702.07 1660.07 703.926 1659.71C705.814 1659.36 707.67 1659.19 709.494 1659.19C712.47 1659.19 715.126 1659.73 717.462 1660.82C719.83 1661.91 721.686 1663.39 723.03 1665.28C724.374 1667.17 725.046 1669.38 725.046 1671.91C725.046 1673.6 724.774 1675.27 724.23 1676.9C723.686 1678.5 722.79 1679.99 721.542 1681.36C720.326 1682.74 718.71 1683.92 716.694 1684.91C714.678 1685.91 712.198 1686.63 709.254 1687.07L706.086 1682.03C709.158 1681.68 711.654 1680.99 713.574 1679.97C715.494 1678.91 716.886 1677.65 717.75 1676.18C718.646 1674.71 719.094 1673.19 719.094 1671.62C719.094 1670.21 718.71 1668.95 717.942 1667.83C717.206 1666.71 716.086 1665.81 714.582 1665.14C713.11 1664.43 711.287 1664.08 709.111 1664.08C706.935 1664.08 704.982 1664.32 703.254 1664.8C701.558 1665.28 700.134 1665.79 698.982 1666.34C697.382 1667.11 695.958 1668.08 694.71 1669.27C693.462 1670.42 692.487 1671.63 691.783 1672.91C691.079 1674.19 690.727 1675.38 690.727 1676.47C690.727 1677.23 690.902 1677.83 691.254 1678.24C691.606 1678.63 692.166 1678.82 692.934 1678.82C694.086 1678.82 695.414 1678.45 696.918 1677.71C698.422 1676.95 699.91 1675.87 701.382 1674.5C703.11 1672.9 704.743 1670.98 706.279 1668.74C707.815 1666.5 709.078 1663.71 710.07 1660.39C710.166 1660.07 710.262 1659.65 710.358 1659.14C710.454 1658.63 710.534 1658.11 710.598 1657.6C710.694 1657.06 710.758 1656.63 710.79 1656.31L716.646 1657.7Z" fill="black"/>
<path d="M648.247 1650.64V1657.07H665.143V1650.64H648.247ZM642.679 1645.12H670.999V1662.54H642.679V1645.12ZM636.055 1666.57H654.439V1688.03H648.679V1672.09H641.527V1688.32H636.055V1666.57ZM658.471 1666.57H677.479V1688.08H671.719V1672.09H663.991V1688.32H658.471V1666.57ZM638.455 1680.35H651.079V1685.87H638.455V1680.35ZM661.111 1680.35H674.551V1685.87H661.111V1680.35Z" fill="black"/>
<path d="M587.623 1646.85H629.815V1652.08H587.623V1646.85ZM605.527 1643.2H611.431V1649.97H605.527V1643.2ZM589.207 1655.83H626.167V1660.82H594.679V1688.23H589.207V1655.83ZM623.191 1655.83H628.711V1682.08C628.711 1683.46 628.535 1684.56 628.183 1685.4C627.863 1686.23 627.239 1686.88 626.311 1687.36C625.351 1687.78 624.183 1688.04 622.807 1688.13C621.431 1688.26 619.799 1688.32 617.911 1688.32C617.815 1687.81 617.671 1687.22 617.479 1686.55C617.287 1685.88 617.063 1685.2 616.807 1684.53C616.551 1683.89 616.279 1683.33 615.991 1682.85C617.271 1682.88 618.503 1682.92 619.687 1682.95C620.903 1682.95 621.719 1682.95 622.135 1682.95C622.519 1682.95 622.791 1682.88 622.951 1682.76C623.111 1682.6 623.191 1682.34 623.191 1681.99V1655.83ZM601.303 1660.2H606.391C606.295 1662.08 605.975 1663.73 605.431 1665.14C604.887 1666.55 603.943 1667.72 602.599 1668.64C601.255 1669.57 599.303 1670.34 596.743 1670.95C596.551 1670.31 596.183 1669.59 595.639 1668.79C595.127 1667.99 594.631 1667.36 594.151 1666.92C596.135 1666.56 597.623 1666.12 598.615 1665.57C599.607 1665 600.279 1664.28 600.631 1663.41C601.015 1662.55 601.239 1661.48 601.303 1660.2ZM610.231 1660.15H615.175V1663.84C615.175 1664.36 615.239 1664.68 615.367 1664.8C615.495 1664.9 615.767 1664.95 616.183 1664.95C616.279 1664.95 616.439 1664.95 616.663 1664.95C616.887 1664.95 617.127 1664.95 617.383 1664.95C617.639 1664.95 617.879 1664.95 618.103 1664.95C618.359 1664.95 618.535 1664.95 618.631 1664.95C618.919 1664.95 619.127 1664.9 619.255 1664.8C619.415 1664.68 619.527 1664.42 619.591 1664.04C619.687 1663.65 619.751 1663.08 619.783 1662.31C620.231 1662.63 620.871 1662.95 621.703 1663.27C622.567 1663.56 623.319 1663.78 623.959 1663.94C623.735 1665.99 623.271 1667.36 622.567 1668.07C621.863 1668.77 620.775 1669.12 619.303 1669.12C619.079 1669.12 618.791 1669.12 618.439 1669.12C618.087 1669.12 617.703 1669.12 617.287 1669.12C616.903 1669.12 616.535 1669.12 616.183 1669.12C615.863 1669.12 615.607 1669.12 615.415 1669.12C614.007 1669.12 612.919 1668.96 612.151 1668.64C611.415 1668.29 610.903 1667.75 610.615 1667.01C610.359 1666.24 610.231 1665.2 610.231 1663.89V1660.15ZM599.383 1670.9H604.519V1686.07H599.383V1670.9ZM602.551 1670.9H618.343V1683.48H602.551V1679.2H613.159V1675.17H602.551V1670.9ZM596.215 1651.99L601.927 1651.03C602.375 1651.76 602.807 1652.61 603.223 1653.57C603.639 1654.5 603.943 1655.32 604.135 1656.02L598.135 1657.22C598.007 1656.52 597.751 1655.67 597.367 1654.68C597.015 1653.68 596.631 1652.79 596.215 1651.99ZM614.983 1650.98L621.367 1651.94C620.791 1652.96 620.247 1653.92 619.735 1654.82C619.255 1655.68 618.791 1656.42 618.343 1657.03L612.631 1656.07C613.047 1655.33 613.479 1654.48 613.927 1653.52C614.375 1652.56 614.727 1651.72 614.983 1650.98Z" fill="black"/>
<path d="M548.168 1650.2H559.928V1655.68H548.168V1650.2ZM568.232 1643.34H574.232V1688.22H568.232V1643.34ZM542.84 1664.46L545.768 1660.14C546.952 1660.78 548.2 1661.53 549.512 1662.4C550.856 1663.26 552.12 1664.12 553.304 1664.99C554.488 1665.85 555.448 1666.68 556.184 1667.48L553.064 1672.33C552.392 1671.53 551.48 1670.67 550.328 1669.74C549.176 1668.78 547.944 1667.84 546.632 1666.91C545.32 1665.98 544.056 1665.16 542.84 1664.46ZM548.744 1643.15L554.504 1644.35C553.672 1647.58 552.632 1650.68 551.384 1653.66C550.168 1656.64 548.776 1659.39 547.208 1661.92C545.672 1664.41 544.008 1666.59 542.216 1668.44C541.896 1668.09 541.432 1667.69 540.824 1667.24C540.248 1666.76 539.656 1666.3 539.048 1665.85C538.44 1665.37 537.896 1665 537.416 1664.75C539.208 1663.12 540.824 1661.18 542.264 1658.94C543.704 1656.7 544.968 1654.24 546.056 1651.55C547.144 1648.83 548.04 1646.03 548.744 1643.15ZM565.256 1654.86C566.216 1656.62 567.368 1658.36 568.712 1660.09C570.088 1661.79 571.608 1663.4 573.272 1664.94C574.936 1666.48 576.696 1667.87 578.552 1669.12C580.44 1670.36 582.344 1671.44 584.264 1672.33C583.848 1672.72 583.368 1673.21 582.824 1673.82C582.28 1674.4 581.768 1675 581.288 1675.64C580.808 1676.25 580.408 1676.81 580.088 1677.32C578.072 1676.27 576.12 1675 574.232 1673.53C572.376 1672.06 570.6 1670.43 568.904 1668.64C567.208 1666.84 565.64 1664.94 564.2 1662.92C562.792 1660.91 561.528 1658.83 560.408 1656.68L565.256 1654.86ZM558.296 1650.2H559.4L560.408 1650.01L564.2 1651.31C563.24 1657.48 561.784 1662.96 559.832 1667.72C557.912 1672.49 555.56 1676.56 552.776 1679.92C549.992 1683.24 546.872 1685.9 543.416 1687.88C543.096 1687.47 542.664 1686.97 542.12 1686.4C541.576 1685.85 541 1685.31 540.392 1684.76C539.816 1684.25 539.288 1683.85 538.808 1683.56C542.232 1681.77 545.272 1679.42 547.928 1676.51C550.584 1673.56 552.792 1670.01 554.552 1665.85C556.312 1661.69 557.56 1656.91 558.296 1651.5V1650.2Z" fill="black"/>
<path d="M503.479 1668.69L507.271 1665.86C509.767 1667.14 511.799 1668.59 513.367 1670.22C514.935 1671.82 516.103 1673.47 516.871 1675.17C517.639 1676.83 518.039 1678.43 518.071 1679.97C518.135 1681.5 517.879 1682.88 517.303 1684.1C516.727 1685.31 515.879 1686.27 514.759 1686.98C513.863 1687.55 512.999 1687.95 512.167 1688.18C511.367 1688.4 510.375 1688.51 509.191 1688.51C508.615 1688.51 507.991 1688.5 507.319 1688.46C506.679 1688.46 506.007 1688.45 505.303 1688.42C505.271 1687.68 505.127 1686.82 504.871 1685.82C504.615 1684.86 504.231 1684.02 503.719 1683.28C504.551 1683.38 505.367 1683.44 506.167 1683.47C506.967 1683.47 507.655 1683.47 508.231 1683.47C508.839 1683.47 509.383 1683.44 509.863 1683.38C510.375 1683.28 510.823 1683.07 511.207 1682.75C511.911 1682.3 512.343 1681.57 512.503 1680.54C512.695 1679.52 512.535 1678.34 512.023 1676.99C511.511 1675.65 510.551 1674.26 509.143 1672.82C507.767 1671.38 505.879 1670 503.479 1668.69ZM508.759 1669.12L512.599 1671.04C511.191 1672.22 509.463 1673.36 507.415 1674.45C505.399 1675.5 503.271 1676.45 501.031 1677.28C498.791 1678.11 496.615 1678.78 494.503 1679.3C494.151 1678.75 493.671 1678.1 493.063 1677.33C492.487 1676.56 491.959 1675.94 491.479 1675.46C493.559 1675.07 495.687 1674.56 497.863 1673.92C500.039 1673.28 502.087 1672.54 504.007 1671.71C505.959 1670.88 507.543 1670.02 508.759 1669.12ZM511.879 1673.49L515.959 1675.65C514.615 1676.86 513.063 1678.03 511.303 1679.15C509.575 1680.27 507.735 1681.33 505.783 1682.32C503.831 1683.31 501.831 1684.19 499.783 1684.96C497.767 1685.76 495.799 1686.43 493.879 1686.98C493.527 1686.37 493.031 1685.65 492.391 1684.82C491.751 1683.98 491.159 1683.31 490.615 1682.8C492.567 1682.35 494.551 1681.81 496.567 1681.17C498.583 1680.53 500.535 1679.81 502.423 1679.01C504.311 1678.18 506.071 1677.3 507.703 1676.37C509.335 1675.44 510.727 1674.48 511.879 1673.49ZM503.671 1646.22H517.735V1650.5H503.671V1646.22ZM511.783 1661.78L516.103 1663.79C514.311 1665.17 512.183 1666.43 509.719 1667.58C507.255 1668.7 504.679 1669.7 501.991 1670.56C499.335 1671.42 496.743 1672.16 494.215 1672.77C494.023 1672.42 493.751 1671.98 493.399 1671.47C493.047 1670.96 492.695 1670.45 492.343 1669.94C491.991 1669.42 491.655 1669.01 491.335 1668.69C493.863 1668.27 496.391 1667.73 498.919 1667.06C501.479 1666.38 503.879 1665.6 506.119 1664.7C508.391 1663.81 510.279 1662.83 511.783 1661.78ZM518.263 1662.74C519.127 1665.74 520.295 1668.53 521.767 1671.09C523.271 1673.62 525.127 1675.82 527.335 1677.71C529.543 1679.6 532.135 1681.06 535.111 1682.08C534.727 1682.43 534.295 1682.9 533.815 1683.47C533.335 1684.02 532.887 1684.59 532.471 1685.2C532.055 1685.81 531.703 1686.37 531.415 1686.88C528.215 1685.57 525.463 1683.81 523.159 1681.6C520.855 1679.39 518.903 1676.8 517.303 1673.82C515.735 1670.82 514.455 1667.47 513.463 1663.79L518.263 1662.74ZM529.447 1665.18L534.055 1668.59C532.871 1669.36 531.607 1670.13 530.263 1670.9C528.919 1671.66 527.591 1672.4 526.279 1673.1C524.967 1673.78 523.735 1674.35 522.583 1674.83L518.983 1671.86C520.071 1671.31 521.255 1670.67 522.535 1669.94C523.815 1669.17 525.063 1668.37 526.279 1667.54C527.495 1666.7 528.551 1665.92 529.447 1665.18ZM501.511 1657.22V1660.91H524.263V1657.22H501.511ZM496.135 1653.04H529.975V1665.09H496.135V1653.04ZM503.719 1643.01L509.671 1644.21C507.847 1646.9 505.703 1649.47 503.239 1651.94C500.775 1654.4 497.847 1656.66 494.455 1658.7C494.199 1658.22 493.847 1657.73 493.399 1657.22C492.951 1656.7 492.471 1656.21 491.959 1655.73C491.479 1655.25 491.031 1654.88 490.615 1654.62C492.695 1653.54 494.567 1652.34 496.231 1651.02C497.895 1649.71 499.351 1648.37 500.599 1646.99C501.879 1645.62 502.919 1644.29 503.719 1643.01ZM509.719 1655.3H515.383V1663.5H509.719V1655.3ZM515.431 1646.22H516.727L517.639 1645.98L521.575 1648.53C520.999 1649.46 520.311 1650.45 519.511 1651.5C518.743 1652.53 517.927 1653.52 517.063 1654.48C516.231 1655.44 515.431 1656.29 514.663 1657.02C514.119 1656.61 513.447 1656.14 512.647 1655.63C511.847 1655.09 511.127 1654.64 510.487 1654.29C511.159 1653.65 511.815 1652.91 512.455 1652.08C513.095 1651.22 513.687 1650.35 514.231 1649.49C514.775 1648.62 515.175 1647.89 515.431 1647.28V1646.22Z" fill="black"/>
<path d="M464.167 1653.91H487.111V1659.43H464.167V1653.91ZM442.903 1650.64H465.751V1655.97H442.903V1650.64ZM476.263 1643.2H481.975V1681.12C481.975 1682.76 481.799 1684.02 481.447 1684.92C481.095 1685.84 480.455 1686.55 479.527 1687.03C478.599 1687.54 477.415 1687.88 475.975 1688.04C474.535 1688.2 472.807 1688.28 470.791 1688.28C470.759 1687.7 470.647 1687.04 470.455 1686.31C470.263 1685.57 470.039 1684.82 469.783 1684.05C469.527 1683.32 469.271 1682.66 469.015 1682.08C470.359 1682.15 471.607 1682.18 472.759 1682.18C473.911 1682.18 474.695 1682.18 475.111 1682.18C475.527 1682.18 475.815 1682.12 475.975 1681.99C476.167 1681.83 476.263 1681.54 476.263 1681.12V1643.2ZM463.687 1665.48L468.295 1663.27C469.063 1664.32 469.799 1665.46 470.503 1666.68C471.239 1667.89 471.879 1669.09 472.423 1670.28C472.967 1671.43 473.367 1672.5 473.623 1673.49L468.631 1675.99C468.407 1675.06 468.039 1673.99 467.527 1672.77C467.047 1671.56 466.471 1670.31 465.799 1669.03C465.127 1667.75 464.423 1666.56 463.687 1665.48ZM443.815 1662.74L447.895 1659.43C449.303 1660.96 450.759 1662.6 452.263 1664.32C453.767 1666.05 455.223 1667.81 456.631 1669.6C458.071 1671.4 459.351 1673.14 460.471 1674.84C461.591 1676.5 462.503 1678.05 463.207 1679.49L458.647 1683.43C458.007 1681.99 457.143 1680.4 456.055 1678.68C454.967 1676.95 453.735 1675.16 452.359 1673.3C451.015 1671.44 449.607 1669.62 448.135 1667.83C446.695 1666 445.255 1664.31 443.815 1662.74ZM451.303 1643.25H456.823V1653.91H451.303V1643.25ZM456.535 1656.93L462.151 1657.7C461.351 1662.34 460.231 1666.56 458.791 1670.37C457.351 1674.15 455.543 1677.51 453.367 1680.45C451.191 1683.36 448.551 1685.86 445.447 1687.94C445.223 1687.56 444.871 1687.08 444.391 1686.5C443.943 1685.92 443.463 1685.35 442.951 1684.77C442.439 1684.23 441.975 1683.78 441.559 1683.43C444.503 1681.73 446.967 1679.6 448.951 1677.04C450.935 1674.45 452.535 1671.48 453.751 1668.12C454.999 1664.76 455.927 1661.03 456.535 1656.93Z" fill="black"/>
<path d="M420.632 1645.99H434.648V1651.36H426.248V1688.32H420.632V1645.99ZM395.384 1647.86H418.568V1652.85H395.384V1647.86ZM394.328 1661.25H419.192V1666.48H394.328V1661.25ZM404.168 1643.59H409.784V1650.98H404.168V1643.59ZM398.12 1654.15L402.872 1653.19C403.352 1654.24 403.768 1655.43 404.12 1656.74C404.472 1658.05 404.712 1659.2 404.84 1660.19L399.8 1661.35C399.768 1660.39 399.592 1659.23 399.272 1657.89C398.952 1656.51 398.568 1655.27 398.12 1654.15ZM411.032 1652.99L416.408 1654.15C415.896 1655.46 415.384 1656.77 414.872 1658.08C414.392 1659.36 413.944 1660.47 413.528 1661.39L409.016 1660.24C409.272 1659.57 409.528 1658.82 409.784 1657.99C410.04 1657.12 410.264 1656.26 410.456 1655.39C410.68 1654.5 410.872 1653.7 411.032 1652.99ZM399.08 1680.98H413.912V1685.97H399.08V1680.98ZM397.112 1669.65H417.032V1688.18H411.416V1674.64H402.44V1688.37H397.112V1669.65ZM433.16 1645.99H434.264L435.128 1645.75L439.352 1648.39C438.488 1650.72 437.544 1653.19 436.52 1655.78C435.528 1658.34 434.568 1660.64 433.64 1662.69C434.984 1664.13 435.992 1665.52 436.664 1666.87C437.368 1668.18 437.832 1669.43 438.056 1670.61C438.312 1671.79 438.44 1672.91 438.44 1673.97C438.44 1675.76 438.232 1677.25 437.816 1678.43C437.4 1679.62 436.728 1680.53 435.8 1681.17C434.904 1681.81 433.8 1682.21 432.488 1682.37C431.944 1682.43 431.336 1682.48 430.664 1682.51C430.024 1682.51 429.368 1682.51 428.696 1682.51C428.664 1681.71 428.52 1680.77 428.264 1679.68C428.04 1678.59 427.704 1677.65 427.256 1676.85C427.8 1676.91 428.296 1676.96 428.744 1676.99C429.192 1676.99 429.608 1676.98 429.992 1676.95C430.312 1676.91 430.616 1676.87 430.904 1676.8C431.224 1676.74 431.496 1676.63 431.72 1676.47C432.136 1676.21 432.424 1675.83 432.584 1675.31C432.776 1674.77 432.872 1674.08 432.872 1673.25C432.872 1671.91 432.536 1670.4 431.864 1668.74C431.224 1667.04 429.928 1665.27 427.976 1663.41C428.456 1662.26 428.936 1660.98 429.416 1659.57C429.928 1658.13 430.408 1656.69 430.856 1655.25C431.336 1653.78 431.768 1652.4 432.152 1651.12C432.568 1649.84 432.904 1648.79 433.16 1647.95V1645.99Z" fill="black"/>
<path d="M346.52 1662.16H390.968V1668.44H346.52V1662.16Z" fill="black"/>
<path d="M310.922 1684L307.418 1680.45L320.714 1667.05L307.322 1653.61L310.874 1650.01L324.314 1663.41L337.802 1650.06L341.402 1653.57L327.914 1667.05L341.21 1680.54L337.706 1684.09L324.314 1670.65L310.922 1684ZM310.01 1670.7C309.018 1670.7 308.154 1670.43 307.418 1669.89C306.682 1669.34 306.314 1668.41 306.314 1667.1C306.314 1665.79 306.682 1664.86 307.418 1664.32C308.154 1663.74 309.018 1663.45 310.01 1663.45C311.034 1663.45 311.914 1663.74 312.65 1664.32C313.386 1664.86 313.754 1665.79 313.754 1667.1C313.754 1668.41 313.386 1669.34 312.65 1669.89C311.914 1670.43 311.034 1670.7 310.01 1670.7ZM324.314 1685.1C323.45 1685.1 322.746 1684.93 322.202 1684.57C321.69 1684.25 321.306 1683.81 321.05 1683.23C320.826 1682.65 320.714 1682.03 320.714 1681.36C320.714 1680.69 320.826 1680.08 321.05 1679.53C321.306 1678.96 321.69 1678.51 322.202 1678.19C322.746 1677.84 323.45 1677.66 324.314 1677.66C325.178 1677.66 325.882 1677.84 326.426 1678.19C326.97 1678.51 327.354 1678.96 327.578 1679.53C327.834 1680.08 327.962 1680.69 327.962 1681.36C327.962 1682.03 327.834 1682.65 327.578 1683.23C327.354 1683.81 326.97 1684.25 326.426 1684.57C325.882 1684.93 325.178 1685.1 324.314 1685.1ZM324.314 1656.54C323.45 1656.54 322.746 1656.38 322.202 1656.06C321.69 1655.71 321.306 1655.25 321.05 1654.67C320.826 1654.09 320.714 1653.47 320.714 1652.8C320.714 1652.13 320.826 1651.52 321.05 1650.97C321.306 1650.4 321.69 1649.95 322.202 1649.63C322.746 1649.28 323.45 1649.1 324.314 1649.1C325.178 1649.1 325.882 1649.28 326.426 1649.63C326.97 1649.95 327.354 1650.4 327.578 1650.97C327.834 1651.52 327.962 1652.13 327.962 1652.8C327.962 1653.47 327.834 1654.09 327.578 1654.67C327.354 1655.25 326.97 1655.71 326.426 1656.06C325.882 1656.38 325.178 1656.54 324.314 1656.54ZM338.57 1670.7C337.578 1670.7 336.714 1670.43 335.978 1669.89C335.242 1669.34 334.874 1668.41 334.874 1667.1C334.874 1665.79 335.242 1664.86 335.978 1664.32C336.714 1663.74 337.578 1663.45 338.57 1663.45C339.594 1663.45 340.474 1663.74 341.21 1664.32C341.946 1664.86 342.314 1665.79 342.314 1667.1C342.314 1668.41 341.946 1669.34 341.21 1669.89C340.474 1670.43 339.594 1670.7 338.57 1670.7Z" fill="black"/>
<path d="M707.214 1209.86C706.93 1210.29 706.504 1210.95 705.936 1211.85C705.416 1212.75 705.013 1213.58 704.729 1214.34C703.735 1216.56 702.505 1219.04 701.038 1221.79C699.618 1224.54 697.984 1227.3 696.138 1230.1C694.34 1232.84 692.423 1235.42 690.387 1237.84C687.737 1240.82 684.802 1243.78 681.583 1246.71C678.412 1249.6 675.051 1252.27 671.501 1254.73C667.999 1257.15 664.402 1259.23 660.71 1260.98L653.396 1253.31C657.23 1251.85 660.946 1250 664.543 1247.78C668.141 1245.55 671.478 1243.14 674.555 1240.53C677.631 1237.93 680.282 1235.4 682.507 1232.94C684.069 1231.14 685.536 1229.22 686.908 1227.19C688.328 1225.15 689.583 1223.14 690.671 1221.15C691.76 1219.12 692.565 1217.25 693.085 1215.54C692.612 1215.54 691.76 1215.54 690.529 1215.54C689.299 1215.54 687.855 1215.54 686.198 1215.54C684.589 1215.54 682.885 1215.54 681.086 1215.54C679.288 1215.54 677.56 1215.54 675.904 1215.54C674.294 1215.54 672.874 1215.54 671.643 1215.54C670.413 1215.54 669.537 1215.54 669.016 1215.54C668.022 1215.54 666.981 1215.59 665.892 1215.68C664.804 1215.73 663.762 1215.8 662.768 1215.9C661.822 1215.94 661.088 1215.99 660.567 1216.04V1205.96C661.277 1206 662.153 1206.08 663.194 1206.17C664.236 1206.26 665.277 1206.34 666.318 1206.38C667.407 1206.43 668.306 1206.45 669.016 1206.45C669.632 1206.45 670.602 1206.45 671.927 1206.45C673.253 1206.45 674.767 1206.45 676.471 1206.45C678.175 1206.45 679.927 1206.45 681.725 1206.45C683.571 1206.45 685.323 1206.45 686.979 1206.45C688.683 1206.45 690.151 1206.45 691.382 1206.45C692.612 1206.45 693.511 1206.45 694.079 1206.45C695.641 1206.45 697.061 1206.36 698.339 1206.17C699.665 1205.98 700.682 1205.77 701.392 1205.53L707.214 1209.86ZM691.31 1231.94C693.156 1233.41 695.121 1235.11 697.203 1237.06C699.286 1239 701.345 1241.01 703.38 1243.09C705.416 1245.17 707.286 1247.18 708.99 1249.13C710.741 1251.02 712.208 1252.68 713.391 1254.1L705.297 1261.12C703.546 1258.71 701.534 1256.2 699.262 1253.6C697.038 1250.99 694.671 1248.42 692.163 1245.86C689.701 1243.26 687.193 1240.79 684.637 1238.48L691.31 1231.94Z" fill="black"/>
<path d="M617.966 1199.99C617.872 1200.84 617.777 1201.89 617.682 1203.12C617.588 1204.3 617.54 1205.44 617.54 1206.52C617.54 1207.23 617.54 1208.09 617.54 1209.08C617.54 1210.03 617.54 1210.97 617.54 1211.92C617.54 1212.87 617.54 1213.72 617.54 1214.48H608.239C608.239 1213.72 608.239 1212.89 608.239 1211.99C608.239 1211.09 608.239 1210.17 608.239 1209.22C608.239 1208.28 608.239 1207.38 608.239 1206.52C608.239 1205.39 608.192 1204.23 608.097 1203.05C608.05 1201.86 607.955 1200.84 607.813 1199.99H617.966ZM637.846 1215.26C636.947 1216.16 635.977 1217.15 634.935 1218.24C633.941 1219.33 633.066 1220.3 632.308 1221.15C631.03 1222.62 629.516 1224.23 627.764 1225.98C626.06 1227.68 624.191 1229.41 622.155 1231.16C620.167 1232.91 618.085 1234.57 615.907 1236.13C613.351 1237.93 610.488 1239.66 607.316 1241.31C604.145 1242.92 600.784 1244.44 597.234 1245.86C593.684 1247.23 590.063 1248.46 586.371 1249.55L580.904 1241.17C587.768 1239.66 593.542 1237.79 598.228 1235.56C602.914 1233.34 606.796 1231.26 609.872 1229.32C611.671 1228.08 613.351 1226.85 614.913 1225.62C616.475 1224.39 617.848 1223.19 619.031 1222C620.215 1220.77 621.138 1219.68 621.8 1218.74C621.185 1218.74 620.191 1218.74 618.818 1218.74C617.446 1218.74 615.884 1218.74 614.132 1218.74C612.381 1218.74 610.559 1218.74 608.665 1218.74C606.772 1218.74 604.973 1218.74 603.269 1218.74C601.565 1218.74 600.074 1218.74 598.796 1218.74C597.518 1218.74 596.619 1218.74 596.098 1218.74C595.294 1218.74 594.3 1218.76 593.116 1218.81C591.933 1218.81 590.773 1218.83 589.637 1218.88C588.549 1218.88 587.626 1218.93 586.868 1219.02V1209.72C588.241 1209.91 589.779 1210.05 591.483 1210.15C593.235 1210.19 594.726 1210.22 595.956 1210.22C596.477 1210.22 597.471 1210.22 598.938 1210.22C600.453 1210.22 602.204 1210.22 604.192 1210.22C606.228 1210.22 608.358 1210.22 610.582 1210.22C612.807 1210.22 614.961 1210.22 617.043 1210.22C619.173 1210.22 621.019 1210.22 622.581 1210.22C624.191 1210.22 625.35 1210.22 626.06 1210.22C627.149 1210.22 628.19 1210.17 629.184 1210.07C630.226 1209.93 631.149 1209.74 631.953 1209.51L637.846 1215.26ZM617.398 1230.74C617.398 1232.01 617.398 1233.62 617.398 1235.56C617.398 1237.46 617.375 1239.47 617.327 1241.6C617.327 1243.73 617.327 1245.81 617.327 1247.85C617.327 1249.83 617.327 1251.54 617.327 1252.96C617.327 1253.9 617.351 1254.95 617.398 1256.08C617.446 1257.22 617.517 1258.31 617.611 1259.35C617.706 1260.39 617.777 1261.29 617.824 1262.05H607.6C607.695 1261.38 607.79 1260.51 607.884 1259.42C607.979 1258.38 608.05 1257.29 608.097 1256.15C608.145 1254.97 608.168 1253.9 608.168 1252.96C608.168 1251.63 608.168 1250.12 608.168 1248.41C608.168 1246.71 608.168 1245.01 608.168 1243.3C608.168 1241.55 608.168 1239.92 608.168 1238.4C608.168 1236.89 608.168 1235.59 608.168 1234.5L617.398 1230.74ZM638.84 1250.26C636.805 1248.6 634.888 1247.16 633.089 1245.93C631.291 1244.65 629.492 1243.47 627.693 1242.38C625.895 1241.24 623.954 1240.11 621.871 1238.97L627.764 1232.16C629.942 1233.34 631.882 1234.43 633.586 1235.42C635.29 1236.37 637.018 1237.39 638.769 1238.47C640.521 1239.56 642.532 1240.89 644.804 1242.45L638.84 1250.26Z" fill="black"/>
<path d="M513.598 1237.77C516.674 1237.11 519.798 1236.21 522.97 1235.07C526.188 1233.89 529.194 1232.63 531.987 1231.31C534.779 1229.94 537.122 1228.7 539.016 1227.62C541.335 1226.2 543.607 1224.61 545.832 1222.86C548.104 1221.06 550.186 1219.26 552.08 1217.46C553.973 1215.66 555.511 1213.98 556.695 1212.42L563.724 1219.31C562.351 1220.87 560.529 1222.6 558.257 1224.49C556.032 1226.34 553.618 1228.21 551.015 1230.1C548.411 1231.95 545.808 1233.63 543.205 1235.14C541.595 1236.14 539.749 1237.15 537.667 1238.19C535.584 1239.19 533.383 1240.18 531.064 1241.18C528.792 1242.12 526.496 1243.02 524.177 1243.87C521.905 1244.73 519.775 1245.48 517.787 1246.15L513.598 1237.77ZM538.164 1233.15L547.82 1231.31V1256.58C547.82 1257.39 547.82 1258.31 547.82 1259.35C547.867 1260.39 547.938 1261.34 548.033 1262.19C548.127 1263.09 548.222 1263.78 548.317 1264.25H537.809C537.903 1263.78 537.951 1263.09 537.951 1262.19C537.998 1261.34 538.045 1260.39 538.093 1259.35C538.14 1258.31 538.164 1257.39 538.164 1256.58V1233.15Z" fill="black"/>
<path d="M488.96 1199.21C489.575 1200.06 490.214 1201.08 490.877 1202.27C491.587 1203.45 492.273 1204.63 492.936 1205.82C493.599 1207 494.143 1208.04 494.569 1208.94L488.889 1211.35C488.132 1209.89 487.256 1208.23 486.262 1206.38C485.268 1204.49 484.298 1202.86 483.351 1201.48L488.96 1199.21ZM497.906 1196.59C498.521 1197.49 499.184 1198.53 499.894 1199.71C500.604 1200.89 501.29 1202.08 501.953 1203.26C502.663 1204.4 503.207 1205.39 503.586 1206.24L497.977 1208.66C497.22 1207.19 496.32 1205.53 495.279 1203.69C494.238 1201.84 493.244 1200.25 492.297 1198.93L497.906 1196.59ZM474.05 1200.92C473.861 1202.43 473.719 1203.64 473.624 1204.54C473.577 1205.44 473.553 1206.41 473.553 1207.45C473.553 1208.06 473.553 1209.01 473.553 1210.29C473.553 1211.57 473.553 1212.89 473.553 1214.26C473.553 1215.64 473.553 1216.77 473.553 1217.67H463.613C463.613 1216.63 463.613 1215.42 463.613 1214.05C463.613 1212.68 463.613 1211.4 463.613 1210.22C463.613 1208.99 463.613 1208.06 463.613 1207.45C463.613 1206.41 463.589 1205.44 463.542 1204.54C463.495 1203.64 463.353 1202.43 463.116 1200.92H474.05ZM497.906 1215.9C497.622 1216.66 497.362 1217.6 497.125 1218.74C496.888 1219.87 496.699 1220.8 496.557 1221.51C496.273 1223.21 495.918 1224.91 495.492 1226.62C495.066 1228.32 494.593 1230.03 494.072 1231.73C493.551 1233.39 492.936 1235.04 492.226 1236.7C491.563 1238.36 490.782 1240.01 489.883 1241.67C488.037 1245.13 485.647 1248.27 482.712 1251.11C479.777 1253.91 476.464 1256.3 472.772 1258.28C469.127 1260.27 465.175 1261.83 460.915 1262.97L453.531 1254.45C455.14 1254.17 456.844 1253.76 458.643 1253.24C460.489 1252.72 462.146 1252.18 463.613 1251.61C465.554 1250.9 467.494 1249.98 469.435 1248.84C471.423 1247.66 473.293 1246.29 475.044 1244.72C476.795 1243.16 478.357 1241.43 479.73 1239.54C480.913 1237.79 481.907 1235.92 482.712 1233.93C483.564 1231.9 484.25 1229.81 484.771 1227.68C485.292 1225.51 485.694 1223.38 485.978 1221.29H450.762C450.762 1221.91 450.762 1222.69 450.762 1223.64C450.762 1224.54 450.762 1225.51 450.762 1226.55C450.762 1227.59 450.762 1228.56 450.762 1229.46C450.762 1230.36 450.762 1231.09 450.762 1231.66C450.762 1232.46 450.786 1233.36 450.833 1234.36C450.88 1235.35 450.951 1236.2 451.046 1236.91H441.248C441.343 1236.01 441.414 1235.04 441.461 1234C441.508 1232.91 441.532 1231.9 441.532 1230.95C441.532 1230.38 441.532 1229.55 441.532 1228.46C441.532 1227.33 441.532 1226.15 441.532 1224.91C441.532 1223.64 441.532 1222.45 441.532 1221.36C441.532 1220.23 441.532 1219.33 441.532 1218.67C441.532 1217.86 441.508 1216.87 441.461 1215.68C441.461 1214.45 441.39 1213.41 441.248 1212.56C442.479 1212.66 443.638 1212.73 444.727 1212.77C445.863 1212.82 447.117 1212.84 448.49 1212.84H485.907C487.374 1212.84 488.558 1212.77 489.457 1212.63C490.356 1212.49 491.137 1212.32 491.8 1212.13L497.906 1215.9Z" fill="black"/>
<path d="M419.31 1199.71C419.925 1200.52 420.564 1201.53 421.227 1202.76C421.937 1203.95 422.623 1205.13 423.286 1206.31C423.948 1207.5 424.493 1208.54 424.919 1209.44L419.239 1211.85C418.529 1210.38 417.653 1208.73 416.612 1206.88C415.618 1204.99 414.647 1203.36 413.701 1201.98L419.31 1199.71ZM427.688 1196.45C428.303 1197.34 428.966 1198.41 429.676 1199.64C430.433 1200.82 431.143 1202.01 431.806 1203.19C432.516 1204.33 433.06 1205.3 433.439 1206.1L427.83 1208.59C427.072 1207.07 426.173 1205.39 425.132 1203.55C424.09 1201.7 423.073 1200.11 422.079 1198.79L427.688 1196.45ZM392.756 1226.41C394.933 1227.69 397.323 1229.18 399.927 1230.88C402.53 1232.54 405.133 1234.26 407.737 1236.06C410.387 1237.86 412.872 1239.61 415.192 1241.32C417.558 1242.97 419.57 1244.49 421.227 1245.86L414.411 1253.88C412.849 1252.42 410.908 1250.76 408.589 1248.91C406.317 1247.07 403.855 1245.17 401.205 1243.23C398.554 1241.25 395.951 1239.35 393.395 1237.55C390.839 1235.76 388.519 1234.19 386.437 1232.87L392.756 1226.41ZM426.126 1214.34C425.747 1215 425.345 1215.8 424.919 1216.75C424.493 1217.65 424.114 1218.55 423.783 1219.45C423.073 1221.63 422.102 1224.04 420.872 1226.69C419.688 1229.34 418.268 1232.06 416.612 1234.86C414.955 1237.65 413.062 1240.37 410.932 1243.02C407.618 1247.14 403.595 1251.09 398.862 1254.88C394.128 1258.62 388.377 1261.79 381.609 1264.39L373.373 1257.22C378.295 1255.66 382.579 1253.86 386.224 1251.83C389.868 1249.74 393.04 1247.52 395.738 1245.15C398.436 1242.78 400.779 1240.42 402.767 1238.05C404.376 1236.16 405.891 1234.08 407.311 1231.8C408.731 1229.48 409.961 1227.19 411.003 1224.92C412.091 1222.64 412.849 1220.61 413.275 1218.81H389.277L392.543 1210.72H412.778C413.866 1210.72 414.955 1210.65 416.044 1210.5C417.18 1210.36 418.15 1210.15 418.955 1209.86L426.126 1214.34ZM402.696 1203.47C401.844 1204.7 400.992 1206.03 400.14 1207.45C399.335 1208.87 398.72 1209.96 398.294 1210.72C396.732 1213.51 394.696 1216.51 392.188 1219.73C389.726 1222.95 386.957 1226.08 383.881 1229.11C380.851 1232.13 377.633 1234.83 374.225 1237.2L366.557 1231.24C370.722 1228.68 374.248 1225.98 377.136 1223.14C380.07 1220.25 382.508 1217.48 384.449 1214.83C386.437 1212.14 388.022 1209.75 389.206 1207.66C389.774 1206.81 390.365 1205.68 390.981 1204.26C391.643 1202.79 392.117 1201.46 392.401 1200.28L402.696 1203.47Z" fill="black"/>
</svg>
