<svg width="1080" height="1920" viewBox="0 0 1080 1920" fill="none" xmlns="http://www.w3.org/2000/svg">
<path d="M1080 1920L1080 0L0 0L0 1920H1080Z" fill="#A5D4AD"/>
<path d="M1020 983.72V95C1020 75.67 1004.33 60 985 60H95.58C75.93 60 60 75.93 60 95.58V983.71C60 984.03 60.25 984.28 60.57 984.28C80.03 984.59 95.71 1000.46 95.71 1019.99C95.71 1039.52 80.03 1055.39 60.57 1055.7C60.25 1055.7 60 1055.96 60 1056.27V1824.99C60 1844.32 75.67 1859.99 95 1859.99H985C1004.33 1859.99 1020 1844.32 1020 1824.99V1056.27C1020 1055.95 1019.75 1055.7 1019.43 1055.7C999.97 1055.39 984.29 1039.52 984.29 1019.99C984.29 1000.46 999.97 984.59 1019.43 984.28C1019.75 984.28 1020 984.02 1020 983.71V983.72Z" fill="white"/>
<path d="M60.57 1055.71C60.25 1055.71 60 1055.97 60 1056.28V1825C60 1844.33 75.67 1860 95 1860H985C1004.33 1860 1020 1844.33 1020 1825V1056.28C1020 1055.96 1019.75 1055.71 1019.43 1055.71C999.97 1055.4 984.29 1039.53 984.29 1020H95.71C95.71 1039.53 80.03 1055.4 60.57 1055.71Z" fill="#E5F2E6"/>
<path d="M121 1020H160.9" stroke="black" stroke-width="6" stroke-miterlimit="10"/>
<path d="M187.51 1020H227.41" stroke="black" stroke-width="6" stroke-miterlimit="10"/>
<path d="M254.02 1020H293.92" stroke="black" stroke-width="6" stroke-miterlimit="10"/>
<path d="M320.52 1020H360.43" stroke="black" stroke-width="6" stroke-miterlimit="10"/>
<path d="M387.029 1020H426.939" stroke="black" stroke-width="6" stroke-miterlimit="10"/>
<path d="M453.539 1020H493.439" stroke="black" stroke-width="6" stroke-miterlimit="10"/>
<path d="M520.051 1020H559.951" stroke="black" stroke-width="6" stroke-miterlimit="10"/>
<path d="M586.561 1020H626.461" stroke="black" stroke-width="6" stroke-miterlimit="10"/>
<path d="M653.061 1020H692.971" stroke="black" stroke-width="6" stroke-miterlimit="10"/>
<path d="M719.57 1020H759.48" stroke="black" stroke-width="6" stroke-miterlimit="10"/>
<path d="M786.08 1020H825.98" stroke="black" stroke-width="6" stroke-miterlimit="10"/>
<path d="M852.59 1020H892.49" stroke="black" stroke-width="6" stroke-miterlimit="10"/>
<path d="M919.1 1020H959" stroke="black" stroke-width="6" stroke-miterlimit="10"/>
<path d="M1020 984.29V95C1020 75.67 1004.33 60 985 60H95C75.67 60 60 75.67 60 95V984.29C79.72 984.29 95.71 1000.28 95.71 1020C95.71 1039.72 79.72 1055.71 60 1055.71V1825C60 1844.33 75.67 1860 95 1860H985C1004.33 1860 1020 1844.33 1020 1825V1055.71C1000.28 1055.71 984.29 1039.72 984.29 1020C984.29 1000.28 1000.28 984.29 1020 984.29Z" stroke="black" stroke-width="6" stroke-miterlimit="10"/>
<path d="M912.649 525.666C908.779 525.666 905.539 522.646 905.319 518.736C900.589 435.626 868.789 358.856 813.369 296.746C810.669 293.716 810.929 289.066 813.959 286.366C816.989 283.666 821.629 283.926 824.339 286.956C881.999 351.576 915.069 431.436 919.999 517.896C920.229 521.946 917.129 525.426 913.079 525.656C912.939 525.656 912.799 525.666 912.659 525.666H912.649Z" fill="black"/>
<path d="M818.849 795.517C817.109 795.517 815.359 794.897 813.959 793.647C810.929 790.947 810.669 786.297 813.369 783.267C868.789 721.157 900.589 644.387 905.319 561.277C905.549 557.227 909.029 554.117 913.079 554.357C917.129 554.587 920.229 558.057 919.999 562.117C915.069 648.587 881.999 728.447 824.339 793.057C822.889 794.687 820.869 795.517 818.849 795.517Z" fill="black"/>
<path d="M167.36 525.666C167.22 525.666 167.08 525.666 166.94 525.656C162.89 525.426 159.79 521.956 160.02 517.896C164.95 431.426 198.02 351.566 255.68 286.956C258.38 283.926 263.03 283.666 266.06 286.366C269.09 289.066 269.35 293.716 266.65 296.746C211.23 358.856 179.43 435.616 174.7 518.736C174.48 522.646 171.24 525.666 167.37 525.666H167.36Z" fill="black"/>
<path d="M261.17 795.517C259.15 795.517 257.13 794.687 255.68 793.057C198.02 728.437 164.95 648.577 160.02 562.117C159.79 558.067 162.89 554.587 166.94 554.357C170.99 554.117 174.47 557.227 174.7 561.277C179.43 644.397 211.23 721.157 266.65 783.267C269.35 786.297 269.09 790.947 266.06 793.647C264.66 794.897 262.91 795.517 261.17 795.517Z" fill="black"/>
<path d="M788.169 268.511C786.429 268.511 784.679 267.891 783.279 266.641C721.169 211.221 644.399 179.421 561.289 174.691C557.239 174.461 554.139 170.991 554.369 166.931C554.599 162.881 558.039 159.791 562.129 160.011C648.599 164.941 728.459 198.011 793.069 255.671C796.099 258.371 796.359 263.021 793.659 266.051C792.209 267.681 790.189 268.511 788.169 268.511Z" fill="black"/>
<path d="M291.85 268.512C289.83 268.512 287.81 267.682 286.36 266.052C283.66 263.022 283.92 258.372 286.95 255.672C351.57 198.012 431.43 164.942 517.89 160.012C521.94 159.782 525.42 162.882 525.65 166.932C525.88 170.982 522.78 174.462 518.73 174.692C435.62 179.422 358.85 211.222 296.74 266.642C295.34 267.892 293.59 268.512 291.85 268.512Z" fill="black"/>
<path d="M561.69 920.006C557.82 920.006 554.58 916.986 554.36 913.076C554.13 909.026 557.23 905.546 561.28 905.316C644.4 900.586 721.16 868.786 783.27 813.366C786.3 810.666 790.95 810.926 793.65 813.956C796.35 816.986 796.09 821.636 793.06 824.336C728.44 881.996 648.58 915.066 562.12 919.996C561.98 919.996 561.84 920.006 561.7 920.006H561.69Z" fill="black"/>
<path d="M518.319 920.006C518.179 920.006 518.04 920.006 517.9 919.996C431.43 915.066 351.569 881.996 286.959 824.336C283.929 821.636 283.669 816.986 286.369 813.956C289.069 810.926 293.719 810.666 296.749 813.366C358.859 868.786 435.629 900.586 518.739 905.316C522.789 905.546 525.889 909.016 525.659 913.076C525.439 916.986 522.199 920.006 518.329 920.006H518.319Z" fill="black"/>
<path d="M875.38 526.189C872.37 526.189 869.85 523.839 869.68 520.799C865.41 445.789 836.71 376.519 786.7 320.459C784.6 318.099 784.8 314.489 787.16 312.389C789.51 310.289 793.13 310.489 795.23 312.849C846.98 370.849 876.68 442.539 881.1 520.149C881.28 523.299 878.87 525.999 875.72 526.179C875.61 526.179 875.5 526.179 875.39 526.179L875.38 526.189Z" fill="black"/>
<path d="M790.96 769.062C789.6 769.062 788.25 768.582 787.16 767.612C784.8 765.512 784.6 761.892 786.7 759.542C836.71 703.492 865.41 634.212 869.68 559.202C869.86 556.052 872.55 553.642 875.71 553.822C878.86 554.002 881.27 556.702 881.09 559.852C876.67 637.472 846.98 709.152 795.22 767.152C794.09 768.422 792.52 769.062 790.95 769.062H790.96Z" fill="black"/>
<path d="M204.63 526.187C204.52 526.187 204.41 526.187 204.3 526.187C201.15 526.007 198.74 523.307 198.92 520.157C203.34 442.537 233.03 370.857 284.79 312.857C286.89 310.497 290.51 310.297 292.86 312.397C295.22 314.497 295.42 318.117 293.32 320.467C243.31 376.517 214.61 445.797 210.34 520.807C210.17 523.847 207.65 526.197 204.64 526.197L204.63 526.187Z" fill="black"/>
<path d="M289.05 769.055C287.48 769.055 285.91 768.405 284.78 767.145C233.03 709.145 203.33 637.455 198.91 559.845C198.73 556.695 201.14 553.995 204.29 553.815C207.45 553.625 210.14 556.045 210.32 559.195C214.59 634.205 243.29 703.485 293.3 759.535C295.4 761.895 295.2 765.505 292.84 767.605C291.75 768.575 290.39 769.055 289.04 769.055H289.05Z" fill="black"/>
<path d="M763.35 294.756C761.99 294.756 760.64 294.276 759.55 293.306C703.5 243.296 634.22 214.596 559.21 210.326C556.06 210.146 553.65 207.446 553.83 204.296C554.01 201.146 556.7 198.736 559.86 198.916C637.48 203.336 709.16 233.026 767.16 284.786C769.52 286.886 769.72 290.506 767.62 292.856C766.49 294.126 764.92 294.766 763.35 294.766V294.756Z" fill="black"/>
<path d="M316.659 294.759C315.089 294.759 313.519 294.109 312.389 292.849C310.289 290.489 310.489 286.879 312.849 284.779C370.849 233.029 442.539 203.329 520.149 198.909C523.299 198.719 525.999 201.139 526.179 204.289C526.359 207.439 523.949 210.139 520.799 210.319C445.789 214.589 376.519 243.289 320.459 293.299C319.369 294.269 318.009 294.749 316.659 294.749V294.759Z" fill="black"/>
<path d="M559.53 881.102C556.52 881.102 554 878.752 553.83 875.712C553.65 872.562 556.06 869.862 559.21 869.682C634.22 865.412 703.49 836.712 759.55 786.702C761.9 784.602 765.52 784.802 767.62 787.162C769.72 789.522 769.52 793.132 767.16 795.232C709.16 846.982 637.47 876.682 559.86 881.102C559.75 881.102 559.64 881.102 559.53 881.102Z" fill="black"/>
<path d="M520.489 881.102C520.379 881.102 520.269 881.102 520.159 881.102C442.539 876.682 370.859 846.992 312.859 795.232C310.499 793.132 310.299 789.512 312.399 787.162C314.499 784.802 318.119 784.602 320.469 786.702C376.519 836.722 445.799 865.412 520.809 869.682C523.959 869.862 526.369 872.562 526.189 875.712C526.019 878.752 523.499 881.102 520.489 881.102Z" fill="black"/>
<path d="M841.849 526.514C839.699 526.514 837.899 524.834 837.779 522.664C833.919 454.914 807.999 392.344 762.829 341.714C761.329 340.034 761.479 337.454 763.159 335.944C764.839 334.444 767.419 334.584 768.929 336.274C815.349 388.294 841.979 452.584 845.939 522.194C846.069 524.444 844.349 526.374 842.089 526.504C842.009 526.504 841.929 526.504 841.849 526.504V526.514Z" fill="black"/>
<path d="M765.869 745.106C764.899 745.106 763.929 744.766 763.149 744.066C761.469 742.566 761.319 739.986 762.819 738.296C807.989 687.666 833.909 625.096 837.769 557.346C837.899 555.096 839.859 553.396 842.079 553.496C844.329 553.626 846.049 555.556 845.929 557.806C841.959 627.416 815.329 691.706 768.919 743.726C768.109 744.626 766.989 745.086 765.869 745.086V745.106Z" fill="black"/>
<path d="M238.17 526.516C238.09 526.516 238.01 526.516 237.93 526.516C235.68 526.386 233.96 524.456 234.08 522.206C238.05 452.596 264.68 388.306 311.09 336.286C312.59 334.606 315.17 334.456 316.86 335.956C318.54 337.456 318.69 340.036 317.19 341.726C272.02 392.356 246.1 454.926 242.24 522.676C242.12 524.846 240.32 526.526 238.17 526.526V526.516Z" fill="black"/>
<path d="M314.139 745.103C313.019 745.103 311.899 744.643 311.089 743.743C264.669 691.723 238.039 627.433 234.079 557.823C233.949 555.573 235.669 553.643 237.929 553.513C240.169 553.403 242.109 555.103 242.239 557.363C246.099 625.113 272.019 687.683 317.189 738.313C318.689 739.993 318.539 742.573 316.859 744.083C316.079 744.773 315.109 745.123 314.139 745.123V745.103Z" fill="black"/>
<path d="M741.018 318.225C740.048 318.225 739.078 317.885 738.298 317.185C687.668 272.015 625.098 246.095 557.348 242.235C555.098 242.105 553.378 240.175 553.498 237.925C553.628 235.675 555.548 233.965 557.808 234.075C627.418 238.045 691.708 264.675 743.738 311.085C745.418 312.585 745.568 315.165 744.068 316.855C743.258 317.755 742.138 318.215 741.018 318.215V318.225Z" fill="black"/>
<path d="M338.998 318.224C337.878 318.224 336.758 317.764 335.948 316.864C334.448 315.184 334.598 312.604 336.278 311.094C388.298 264.674 452.588 238.044 522.198 234.084C524.448 233.964 526.378 235.674 526.508 237.934C526.638 240.184 524.918 242.114 522.658 242.244C454.908 246.104 392.338 272.024 341.708 317.194C340.928 317.884 339.958 318.234 338.988 318.234L338.998 318.224Z" fill="black"/>
<path d="M557.569 845.933C555.419 845.933 553.619 844.253 553.499 842.083C553.369 839.833 555.089 837.903 557.349 837.773C625.099 833.913 687.669 807.993 738.299 762.823C739.979 761.323 742.559 761.473 744.069 763.153C745.569 764.833 745.419 767.413 743.739 768.923C691.719 815.343 627.429 841.973 557.809 845.933C557.729 845.933 557.649 845.933 557.569 845.933Z" fill="black"/>
<path d="M522.438 845.933C522.358 845.933 522.278 845.933 522.198 845.933C452.588 841.963 388.298 815.333 336.278 768.923C334.598 767.423 334.448 764.843 335.948 763.153C337.448 761.473 340.028 761.323 341.718 762.823C392.348 807.993 454.918 833.913 522.668 837.773C524.918 837.903 526.638 839.833 526.518 842.083C526.398 844.253 524.598 845.933 522.448 845.933H522.438Z" fill="black"/>
<path d="M320.65 546.174C320.65 544.604 321.79 543.274 323.34 543.024C324.64 542.814 326.27 542.524 327.98 542.124C332.4 541.084 337.59 539.114 343.41 536.274C349.29 533.404 354.92 529.414 359.17 523.674C366.34 513.974 367.86 501.404 368.19 496.894C368.26 495.974 367.53 495.194 366.6 495.194H317.09C315.33 495.194 313.91 493.764 313.91 492.014V470.694C313.91 468.934 315.34 467.514 317.09 467.514H367.07C367.95 467.514 368.66 466.804 368.66 465.924V447.184C368.66 446.304 367.95 445.594 367.07 445.594H328.62C326.86 445.594 325.44 444.164 325.44 442.414V421.094C325.44 419.334 326.87 417.914 328.62 417.914H428.96C430.72 417.914 432.14 419.344 432.14 421.094V442.414C432.14 444.174 430.71 445.594 428.96 445.594H398.52C397.64 445.594 396.93 446.304 396.93 447.184V465.924C396.93 466.804 397.64 467.514 398.52 467.514H438.58C440.34 467.514 441.76 468.944 441.76 470.694V492.014C441.76 493.774 440.33 495.194 438.58 495.194H398.39C397.54 495.194 396.84 495.864 396.8 496.714C396.57 501.754 395.15 518.444 386.18 532.854C380.73 541.614 373.65 548.264 366.54 553.544C359.41 558.844 352.26 562.934 345.27 565.704C338.24 568.494 332.34 570.444 327.75 571.514C326.66 571.764 325.49 571.994 324.4 572.184C322.45 572.534 320.66 571.034 320.66 569.044V546.164L320.65 546.174Z" fill="black"/>
<path d="M474.55 546.522C474.55 545.062 475.55 543.792 476.96 543.432C485.21 541.362 488.93 540.112 496.84 536.322C496.84 536.322 500.89 534.212 504.93 531.302C517.11 522.542 525.22 510.632 525.22 510.632C534.68 497.282 537.77 474.912 538.49 468.492C538.6 467.552 537.86 466.722 536.91 466.722H500.58C500.35 466.722 500.14 466.842 500.03 467.042L499.88 467.292C494.3 478.112 486.88 487.992 480.45 494.242C474 500.502 468.59 505.052 464.38 507.752L461.78 509.422C460.72 510.102 459.33 509.342 459.33 508.082V479.892C459.33 478.952 459.75 478.062 460.47 477.452C461.12 476.902 461.99 476.132 463.18 475.062C465.94 472.572 469.05 468.512 472.42 462.982C475.76 457.512 479.35 450.212 483.07 441.292C486.45 433.202 488.98 423.092 490.86 412.062C491.12 410.532 492.45 409.422 494 409.422H513.91C515.91 409.422 517.42 411.252 517.04 413.212C516.4 416.522 515.71 420.882 514.85 424.312C513.58 429.392 512.76 432.302 511.24 436.722C510.98 437.472 511.54 438.242 512.33 438.242H591.18C592.94 438.242 594.36 439.672 594.36 441.422V463.512C594.36 465.272 592.93 466.692 591.18 466.692H568.14C567.33 466.692 566.64 467.302 566.56 468.112C565.93 474.012 562.88 497.162 552.39 517.262C538.29 546.002 508.14 566.392 478.34 572.132C476.38 572.512 474.56 571.002 474.56 569.002V546.482L474.55 546.522Z" fill="black"/>
<path d="M675.9 411.035V468.875C675.9 469.755 676.61 470.465 677.49 470.465H764.52C765.4 470.465 766.11 469.755 766.11 468.875V411.035C766.11 410.155 765.4 409.445 764.52 409.445H677.49C676.61 409.445 675.9 410.155 675.9 411.035ZM738.46 452.745H702.3C701.42 452.745 700.71 452.035 700.71 451.155V446.875C700.71 445.995 701.42 445.285 702.3 445.285H738.46C739.34 445.285 740.05 445.995 740.05 446.875V451.155C740.05 452.035 739.34 452.745 738.46 452.745ZM738.46 434.455H702.3C701.42 434.455 700.71 433.745 700.71 432.865V428.755C700.71 427.875 701.42 427.165 702.3 427.165H738.46C739.34 427.165 740.05 427.875 740.05 428.755V432.865C740.05 433.745 739.34 434.455 738.46 434.455Z" fill="black"/>
<path d="M674.23 497.342H728.27C729.15 497.342 729.86 498.052 729.86 498.932V502.842C729.86 503.722 729.15 504.432 728.27 504.432H667.76C666 504.432 664.58 505.862 664.58 507.612V522.862C664.58 524.622 666.01 526.042 667.76 526.042H728.27C729.15 526.042 729.86 526.752 729.86 527.632V545.392C729.86 546.112 729.94 547.982 729.22 548.852C728.39 549.872 727.15 549.672 725.85 549.722C722.54 549.722 719.58 549.702 716.95 549.662C716.55 549.662 716.26 549.292 716.34 548.902C716.6 547.632 716.73 546.312 716.7 544.962C716.5 535.682 708.94 528.082 699.66 527.842C689.58 527.582 681.37 535.852 681.71 545.942C682.02 555.292 689.79 562.812 699.15 562.842C704.04 562.852 708.46 560.862 711.64 557.642C711.98 557.302 712.55 557.432 712.7 557.882C714.16 562.212 715.54 566.342 716.79 570.052C717.23 571.352 718.46 572.222 719.83 572.212C725.73 572.172 730.51 571.962 734.18 571.602C738.31 571.182 742.09 570.152 745.52 568.502C749.18 566.842 751.69 564.422 753.05 561.232C754.41 558.042 755.09 553.552 755.09 547.762V527.622C755.09 526.742 755.8 526.032 756.68 526.032H762.91C764.67 526.032 766.09 524.602 766.09 522.852V507.602C766.09 505.842 764.66 504.422 762.91 504.422H756.68C755.8 504.422 755.09 503.712 755.09 502.832V498.922C755.09 498.042 755.8 497.332 756.68 497.332H762.91C764.67 497.332 766.09 495.902 766.09 494.152V479.602C766.09 477.842 764.66 476.422 762.91 476.422H674.21C672.45 476.422 671.03 477.852 671.03 479.602V494.152C671.03 495.912 672.46 497.332 674.21 497.332L674.23 497.342Z" fill="black"/>
<path d="M668.83 409.445H650.26C649.4 409.445 648.58 409.795 647.98 410.405C635.23 423.355 618.29 434.575 612.13 438.485C610.78 439.335 610.28 441.065 610.95 442.505L620.7 463.575C621.63 465.575 624.26 466.055 625.83 464.505C646.12 444.465 664.45 419.805 670.12 411.965C670.88 410.915 670.12 409.445 668.83 409.445Z" fill="black"/>
<path d="M671.92 453.899V435.419C671.92 434.009 670.22 433.299 669.21 434.289C653.64 449.609 620.05 477.069 611.68 483.869C610.55 484.789 610.19 486.359 610.8 487.679L620.7 509.059C621.63 511.059 624.26 511.539 625.83 509.989C627.54 508.299 629.24 506.569 630.92 504.829C631.32 504.419 632.02 504.699 632.02 505.269V569.069C632.02 570.829 633.45 572.249 635.2 572.249H653.82C655.58 572.249 657 570.819 657 569.069V476.379C657 475.309 657.36 474.259 658.03 473.419C664.87 464.739 669.72 458.029 671.34 455.749C671.72 455.209 671.93 454.569 671.93 453.899H671.92Z" fill="black"/>
<path d="M653.271 623.338C640.851 623.338 634.811 628.288 634.811 638.478V655.608C634.811 665.678 640.851 670.568 653.271 670.568C659.141 670.568 663.481 669.488 666.561 667.278C670.001 664.808 671.741 660.878 671.741 655.598V638.468C671.741 628.278 665.701 623.328 653.281 623.328L653.271 623.338ZM646.091 639.308C646.091 633.938 648.841 632.918 653.271 632.918C657.701 632.918 660.451 633.958 660.451 639.308V654.688C660.451 659.958 657.601 660.988 653.271 660.988C648.941 660.988 646.091 659.988 646.091 654.688V639.308Z" fill="black"/>
<path d="M708.27 669.334H721.359L703.63 646.784L720.56 624.804H707.4L694.06 642.284V610.234H682.77V669.334H694.06V659.214L696.95 655.454L708.27 669.334Z" fill="black"/>
<path d="M754.82 624.805V653.295C754.82 659.045 751.88 660.895 746.83 660.895C743.56 660.895 740.28 660.355 740.28 653.885V624.815H729V656.775C729 665.745 733.71 670.485 742.62 670.485C749.3 670.485 753.88 666.865 755.58 662.805L757.39 669.345H766.11V624.815H754.83L754.82 624.805Z" fill="black"/>
<path d="M630.57 610.234H589.15V620.144V620.154H604.22V669.334H615.69V620.154H630.57V610.234Z" fill="black"/>
<path d="M459.689 669.334H472.779L455.049 646.784L471.979 624.804H458.819L445.479 642.284V610.234H434.199V669.334H445.479V659.214L448.369 655.454L459.689 669.334Z" fill="black"/>
<path d="M355.33 610.234H313.91V620.144V620.154H328.99V669.334H340.45V620.154H355.33V610.234Z" fill="black"/>
<path d="M421.8 658.896L421.2 659.046C417.62 659.966 413.29 660.896 409.41 660.896C404.86 660.896 401.69 658.826 401.69 652.836V640.976C401.69 634.906 404.86 632.826 409.41 632.826C413.36 632.826 417.88 633.706 421.23 634.406L421.81 634.526V625.196L421.5 625.126C417.69 624.236 412.05 623.336 407.53 623.336C402.01 623.336 397.97 624.406 395.17 626.596C391.97 629.096 390.42 633.856 390.42 639.346V654.646C390.42 664.776 396.02 670.566 407.54 670.566C411.41 670.566 417.27 669.496 421.53 668.316L421.82 668.236V658.886L421.8 658.896Z" fill="black"/>
<path d="M553.93 634.705V624.805H543.69V615.195H532.41V624.805H525.18V634.705H532.41V655.425C532.41 667.945 540.3 670.565 546.93 670.565C548.71 670.565 550.51 670.455 552.12 670.225V660.265C551.47 660.335 550.26 660.365 549.54 660.365C546.46 660.365 543.69 659.735 543.69 652.095V634.695H553.93V634.705Z" fill="black"/>
<path d="M489.741 650.742V650.562H515.171V641.482C515.171 635.572 513.551 630.243 510.361 627.343C507.421 624.673 502.781 623.312 497.261 623.312C485.081 623.312 478.461 629.223 478.461 639.593V654.453C478.461 664.703 483.841 670.552 496.321 670.552C500.981 670.552 506.291 669.563 511.971 668.403L512.361 668.323V659.052L511.711 659.203C507.141 660.253 504.621 661.143 500.291 661.143C494.081 661.143 489.741 658.623 489.741 652.203V650.722V650.742ZM489.741 639.722C489.741 634.072 493.801 632.742 497.171 632.742C500.541 632.742 504.071 634.072 504.071 639.722V643.232H489.741V642.713V639.722Z" fill="black"/>
<path d="M378.18 626.883H366.9V669.333H378.18V626.883Z" fill="black"/>
<path d="M372.54 622.224C376.422 622.224 379.57 619.077 379.57 615.194C379.57 611.312 376.422 608.164 372.54 608.164C368.657 608.164 365.51 611.312 365.51 615.194C365.51 619.077 368.657 622.224 372.54 622.224Z" fill="black"/>
<path d="M585.74 643.922H566.15V651.262H585.74V643.922Z" fill="black"/>
<path d="M798.191 1616.2C797.791 1616.8 797.191 1617.73 796.391 1619C795.657 1620.27 795.091 1621.43 794.691 1622.5C793.291 1625.63 791.557 1629.13 789.491 1633C787.491 1636.87 785.191 1640.77 782.591 1644.7C780.057 1648.57 777.357 1652.2 774.491 1655.6C770.757 1659.8 766.624 1663.97 762.091 1668.1C757.624 1672.17 752.891 1675.93 747.891 1679.4C742.957 1682.8 737.891 1685.73 732.691 1688.2L722.391 1677.4C727.791 1675.33 733.024 1672.73 738.091 1669.6C743.157 1666.47 747.857 1663.07 752.191 1659.4C756.524 1655.73 760.257 1652.17 763.391 1648.7C765.591 1646.17 767.657 1643.47 769.591 1640.6C771.591 1637.73 773.357 1634.9 774.891 1632.1C776.424 1629.23 777.557 1626.6 778.291 1624.2C777.624 1624.2 776.424 1624.2 774.691 1624.2C772.957 1624.2 770.924 1624.2 768.591 1624.2C766.324 1624.2 763.924 1624.2 761.391 1624.2C758.857 1624.2 756.424 1624.2 754.091 1624.2C751.824 1624.2 749.824 1624.2 748.091 1624.2C746.357 1624.2 745.124 1624.2 744.391 1624.2C742.991 1624.2 741.524 1624.27 739.991 1624.4C738.457 1624.47 736.991 1624.57 735.591 1624.7C734.257 1624.77 733.224 1624.83 732.491 1624.9V1610.7C733.491 1610.77 734.724 1610.87 736.191 1611C737.657 1611.13 739.124 1611.23 740.591 1611.3C742.124 1611.37 743.391 1611.4 744.391 1611.4C745.257 1611.4 746.624 1611.4 748.491 1611.4C750.357 1611.4 752.491 1611.4 754.891 1611.4C757.291 1611.4 759.757 1611.4 762.291 1611.4C764.891 1611.4 767.357 1611.4 769.691 1611.4C772.091 1611.4 774.157 1611.4 775.891 1611.4C777.624 1611.4 778.891 1611.4 779.691 1611.4C781.891 1611.4 783.891 1611.27 785.691 1611C787.557 1610.73 788.991 1610.43 789.991 1610.1L798.191 1616.2ZM775.791 1647.3C778.391 1649.37 781.157 1651.77 784.091 1654.5C787.024 1657.23 789.924 1660.07 792.791 1663C795.657 1665.93 798.291 1668.77 800.691 1671.5C803.157 1674.17 805.224 1676.5 806.891 1678.5L795.491 1688.4C793.024 1685 790.191 1681.47 786.991 1677.8C783.857 1674.13 780.524 1670.5 776.991 1666.9C773.524 1663.23 769.991 1659.77 766.391 1656.5L775.791 1647.3Z" fill="black"/>
<path d="M688.591 1603C689.458 1604.2 690.391 1605.63 691.391 1607.3C692.391 1608.97 693.325 1610.63 694.191 1612.3C695.125 1613.97 695.925 1615.43 696.591 1616.7L688.491 1620.1C687.491 1618.03 686.258 1615.7 684.791 1613.1C683.391 1610.43 682.025 1608.13 680.691 1606.2L688.591 1603ZM700.391 1598.5C701.325 1599.77 702.291 1601.23 703.291 1602.9C704.291 1604.57 705.258 1606.23 706.191 1607.9C707.191 1609.5 707.958 1610.9 708.491 1612.1L700.591 1615.5C699.525 1613.37 698.258 1611 696.791 1608.4C695.325 1605.8 693.891 1603.57 692.491 1601.7L700.391 1598.5ZM645.491 1607.3C645.225 1608.83 645.025 1610.6 644.891 1612.6C644.758 1614.6 644.691 1616.3 644.691 1617.7C644.691 1618.7 644.691 1620.47 644.691 1623C644.691 1625.47 644.691 1628.4 644.691 1631.8C644.691 1635.2 644.691 1638.77 644.691 1642.5C644.691 1646.17 644.691 1649.73 644.691 1653.2C644.691 1656.6 644.691 1659.63 644.691 1662.3C644.691 1664.97 644.691 1666.93 644.691 1668.2C644.691 1670.33 645.225 1671.8 646.291 1672.6C647.358 1673.4 648.991 1674.03 651.191 1674.5C652.725 1674.7 654.491 1674.87 656.491 1675C658.491 1675.07 660.591 1675.1 662.791 1675.1C665.391 1675.1 668.258 1675.03 671.391 1674.9C674.591 1674.7 677.791 1674.47 680.991 1674.2C684.258 1673.93 687.325 1673.57 690.191 1673.1C693.058 1672.63 695.525 1672.13 697.591 1671.6V1686.2C694.458 1686.67 690.825 1687.03 686.691 1687.3C682.558 1687.63 678.325 1687.87 673.991 1688C669.725 1688.2 665.725 1688.3 661.991 1688.3C658.725 1688.3 655.625 1688.2 652.691 1688C649.825 1687.8 647.325 1687.53 645.191 1687.2C640.858 1686.33 637.491 1684.7 635.091 1682.3C632.691 1679.83 631.491 1676.47 631.491 1672.2C631.491 1670.27 631.491 1667.77 631.491 1664.7C631.491 1661.57 631.491 1658.13 631.491 1654.4C631.491 1650.6 631.491 1646.8 631.491 1643C631.491 1639.13 631.491 1635.5 631.491 1632.1C631.491 1628.63 631.491 1625.63 631.491 1623.1C631.491 1620.57 631.491 1618.77 631.491 1617.7C631.491 1616.97 631.458 1615.97 631.391 1614.7C631.325 1613.43 631.225 1612.13 631.091 1610.8C631.025 1609.47 630.891 1608.3 630.691 1607.3H645.491ZM638.891 1638C642.091 1637.33 645.491 1636.53 649.091 1635.6C652.691 1634.6 656.325 1633.53 659.991 1632.4C663.658 1631.27 667.125 1630.13 670.391 1629C673.725 1627.8 676.691 1626.63 679.291 1625.5C681.091 1624.83 682.858 1624.07 684.591 1623.2C686.391 1622.33 688.258 1621.3 690.191 1620.1L695.591 1632.8C693.658 1633.53 691.625 1634.37 689.491 1635.3C687.425 1636.17 685.558 1636.9 683.891 1637.5C680.958 1638.63 677.591 1639.83 673.791 1641.1C670.058 1642.37 666.158 1643.63 662.091 1644.9C658.025 1646.1 653.991 1647.23 649.991 1648.3C646.058 1649.37 642.391 1650.3 638.991 1651.1L638.891 1638Z" fill="black"/>
<path d="M523.99 1637.7C525.19 1637.77 526.724 1637.87 528.59 1638C530.457 1638.07 532.39 1638.14 534.39 1638.2C536.457 1638.27 538.357 1638.3 540.09 1638.3C541.757 1638.3 543.824 1638.3 546.29 1638.3C548.757 1638.3 551.424 1638.3 554.29 1638.3C557.224 1638.3 560.224 1638.3 563.29 1638.3C566.424 1638.3 569.524 1638.3 572.59 1638.3C575.657 1638.3 578.557 1638.3 581.29 1638.3C584.024 1638.3 586.457 1638.3 588.59 1638.3C590.79 1638.3 592.524 1638.3 593.79 1638.3C596.124 1638.3 598.324 1638.24 600.39 1638.1C602.457 1637.9 604.157 1637.77 605.49 1637.7V1653.4C604.357 1653.34 602.657 1653.24 600.39 1653.1C598.124 1652.97 595.924 1652.9 593.79 1652.9C592.524 1652.9 590.79 1652.9 588.59 1652.9C586.39 1652.9 583.924 1652.9 581.19 1652.9C578.457 1652.9 575.557 1652.9 572.49 1652.9C569.49 1652.9 566.424 1652.9 563.29 1652.9C560.157 1652.9 557.124 1652.9 554.19 1652.9C551.324 1652.9 548.657 1652.9 546.19 1652.9C543.79 1652.9 541.757 1652.9 540.09 1652.9C537.224 1652.9 534.29 1652.97 531.29 1653.1C528.29 1653.17 525.857 1653.27 523.99 1653.4V1637.7Z" fill="black"/>
<path d="M489.59 1639.8C489.59 1646 489.124 1651.63 488.19 1656.7C487.324 1661.7 485.79 1666.27 483.59 1670.4C481.39 1674.47 478.324 1678.13 474.39 1681.4C470.457 1684.67 465.49 1687.63 459.49 1690.3L448.79 1680.2C453.59 1678.53 457.724 1676.67 461.19 1674.6C464.724 1672.53 467.624 1670 469.89 1667C472.157 1663.93 473.824 1660.27 474.89 1656C476.024 1651.67 476.59 1646.43 476.59 1640.3V1613.7C476.59 1611.63 476.524 1609.83 476.39 1608.3C476.257 1606.7 476.124 1605.4 475.99 1604.4H490.29C490.157 1605.4 489.99 1606.7 489.79 1608.3C489.657 1609.83 489.59 1611.63 489.59 1613.7V1639.8ZM453.49 1605.3C453.357 1606.23 453.224 1607.5 453.09 1609.1C452.957 1610.63 452.89 1612.37 452.89 1614.3V1650.1C452.89 1651.57 452.924 1653 452.99 1654.4C453.057 1655.73 453.09 1656.93 453.09 1658C453.157 1659 453.224 1659.87 453.29 1660.6H439.29C439.424 1659.87 439.524 1659 439.59 1658C439.657 1656.93 439.724 1655.73 439.79 1654.4C439.857 1653 439.89 1651.57 439.89 1650.1V1614.3C439.89 1612.83 439.824 1611.33 439.69 1609.8C439.624 1608.27 439.49 1606.77 439.29 1605.3H453.49ZM420.49 1623.3C421.157 1623.37 422.024 1623.5 423.09 1623.7C424.157 1623.83 425.39 1623.97 426.79 1624.1C428.19 1624.17 429.724 1624.2 431.39 1624.2H496.99C499.657 1624.2 501.824 1624.13 503.49 1624C505.157 1623.87 506.657 1623.7 507.99 1623.5V1636.8C506.924 1636.67 505.49 1636.6 503.69 1636.6C501.89 1636.53 499.657 1636.5 496.99 1636.5H431.39C429.724 1636.5 428.19 1636.53 426.79 1636.6C425.457 1636.6 424.257 1636.63 423.19 1636.7C422.19 1636.77 421.29 1636.83 420.49 1636.9V1623.3Z" fill="black"/>
<path d="M347.191 1614.5V1627.9H382.391V1614.5H347.191ZM335.591 1603H394.591V1639.3H335.591V1603ZM321.791 1647.7H360.091V1692.4H348.091V1659.2H333.191V1693H321.791V1647.7ZM368.491 1647.7H408.091V1692.5H396.091V1659.2H379.991V1693H368.491V1647.7ZM326.791 1676.4H353.091V1687.9H326.791V1676.4ZM373.991 1676.4H401.991V1687.9H373.991V1676.4Z" fill="black"/>
<path d="M298.61 1604C299.31 1604 299.81 1604.5 299.81 1605.2V1682.7C299.81 1683.4 299.31 1684 298.61 1684H290.61C289.91 1684 289.41 1683.4 289.41 1682.7V1614.2H276.91C275.81 1614.2 275.31 1613.1 275.81 1612.4L280.81 1604.5C281.01 1604.2 281.41 1604 281.81 1604H298.61Z" fill="black"/>
<path d="M708.328 1467.5C708.168 1468.37 707.912 1469.49 707.56 1470.86C707.208 1472.24 706.696 1473.79 706.024 1475.52C705.512 1476.7 704.92 1477.94 704.248 1479.22C703.608 1480.46 702.952 1481.58 702.28 1482.58C702.696 1482.38 703.224 1482.22 703.864 1482.1C704.504 1481.94 705.16 1481.82 705.832 1481.76C706.536 1481.66 707.16 1481.62 707.704 1481.62C709.72 1481.62 711.384 1482.19 712.696 1483.34C714.04 1484.5 714.712 1486.21 714.712 1488.48C714.712 1489.12 714.712 1489.9 714.712 1490.83C714.744 1491.76 714.776 1492.74 714.808 1493.76C714.84 1494.75 714.872 1495.73 714.904 1496.69C714.936 1497.65 714.952 1498.51 714.952 1499.28H709.192C709.256 1498.74 709.288 1498.1 709.288 1497.36C709.32 1496.59 709.336 1495.79 709.336 1494.96C709.368 1494.13 709.384 1493.33 709.384 1492.56C709.416 1491.76 709.432 1491.04 709.432 1490.4C709.432 1488.86 709.016 1487.81 708.184 1487.23C707.384 1486.62 706.488 1486.32 705.496 1486.32C704.152 1486.32 702.792 1486.66 701.416 1487.33C700.072 1487.97 698.936 1488.74 698.008 1489.63C697.304 1490.34 696.584 1491.12 695.848 1491.98C695.144 1492.85 694.376 1493.82 693.544 1494.91L688.408 1491.07C690.488 1489.15 692.28 1487.3 693.784 1485.5C695.32 1483.71 696.616 1481.94 697.672 1480.18C698.728 1478.42 699.592 1476.66 700.264 1474.9C700.744 1473.62 701.128 1472.29 701.416 1470.91C701.736 1469.5 701.928 1468.19 701.992 1466.98L708.328 1467.5ZM690.28 1471.92C691.496 1472.11 692.904 1472.26 694.504 1472.35C696.104 1472.45 697.512 1472.5 698.728 1472.5C700.84 1472.5 703.144 1472.45 705.64 1472.35C708.168 1472.26 710.728 1472.1 713.32 1471.87C715.912 1471.62 718.376 1471.3 720.712 1470.91L720.664 1476.48C718.968 1476.7 717.128 1476.91 715.144 1477.1C713.192 1477.26 711.192 1477.41 709.144 1477.54C707.128 1477.63 705.192 1477.71 703.336 1477.78C701.48 1477.81 699.832 1477.82 698.392 1477.82C697.752 1477.82 696.952 1477.82 695.992 1477.82C695.064 1477.79 694.104 1477.76 693.112 1477.73C692.12 1477.66 691.176 1477.6 690.28 1477.54V1471.92ZM728.296 1485.55C727.784 1485.71 727.176 1485.92 726.472 1486.18C725.8 1486.4 725.112 1486.64 724.408 1486.9C723.736 1487.12 723.128 1487.34 722.584 1487.57C721.048 1488.18 719.224 1488.91 717.112 1489.78C715.032 1490.64 712.856 1491.65 710.584 1492.8C709.144 1493.57 707.928 1494.32 706.936 1495.06C705.944 1495.79 705.192 1496.54 704.68 1497.31C704.168 1498.05 703.912 1498.86 703.912 1499.76C703.912 1500.43 704.056 1500.99 704.344 1501.44C704.632 1501.86 705.064 1502.19 705.64 1502.45C706.216 1502.7 706.936 1502.88 707.8 1502.98C708.664 1503.07 709.688 1503.12 710.872 1503.12C712.92 1503.12 715.176 1503.01 717.64 1502.78C720.104 1502.53 722.392 1502.19 724.504 1501.78L724.312 1507.97C723.288 1508.1 721.992 1508.22 720.424 1508.35C718.856 1508.51 717.224 1508.62 715.528 1508.69C713.864 1508.75 712.264 1508.78 710.728 1508.78C708.232 1508.78 705.992 1508.54 704.008 1508.06C702.024 1507.58 700.456 1506.77 699.304 1505.62C698.184 1504.43 697.624 1502.82 697.624 1500.77C697.624 1499.1 697.992 1497.6 698.728 1496.26C699.496 1494.91 700.504 1493.7 701.752 1492.61C703 1491.52 704.36 1490.54 705.832 1489.68C707.336 1488.78 708.808 1487.97 710.248 1487.23C711.72 1486.46 713.048 1485.81 714.232 1485.26C715.416 1484.72 716.52 1484.24 717.544 1483.82C718.6 1483.38 719.608 1482.93 720.568 1482.48C721.496 1482.06 722.392 1481.66 723.256 1481.28C724.12 1480.86 725 1480.43 725.896 1479.98L728.296 1485.55Z" fill="black"/>
<path d="M652.072 1501.39C652.072 1500.78 652.072 1499.79 652.072 1498.42C652.072 1497.01 652.072 1495.39 652.072 1493.57C652.072 1491.71 652.072 1489.78 652.072 1487.76C652.072 1485.74 652.072 1483.81 652.072 1481.95C652.072 1480.06 652.072 1478.4 652.072 1476.96C652.072 1475.52 652.072 1474.46 652.072 1473.79C652.072 1472.96 652.024 1472 651.928 1470.91C651.864 1469.82 651.752 1468.86 651.592 1468.03H659.08C658.984 1468.86 658.888 1469.79 658.792 1470.82C658.696 1471.81 658.648 1472.8 658.648 1473.79C658.648 1474.69 658.648 1475.9 658.648 1477.44C658.648 1478.98 658.648 1480.69 658.648 1482.58C658.648 1484.43 658.648 1486.34 658.648 1488.29C658.648 1490.21 658.648 1492.06 658.648 1493.86C658.648 1495.65 658.648 1497.22 658.648 1498.56C658.648 1499.87 658.648 1500.82 658.648 1501.39C658.648 1501.84 658.664 1502.48 658.696 1503.31C658.728 1504.11 658.792 1504.94 658.888 1505.81C658.984 1506.67 659.048 1507.44 659.08 1508.11H651.592C651.72 1507.15 651.832 1506.03 651.928 1504.75C652.024 1503.47 652.072 1502.35 652.072 1501.39ZM657.208 1480.46C658.808 1480.88 660.6 1481.42 662.584 1482.1C664.568 1482.74 666.568 1483.42 668.584 1484.16C670.6 1484.9 672.488 1485.63 674.248 1486.37C676.04 1487.07 677.528 1487.73 678.712 1488.34L675.976 1494.96C674.632 1494.26 673.144 1493.55 671.512 1492.85C669.88 1492.11 668.216 1491.41 666.52 1490.74C664.856 1490.06 663.208 1489.44 661.576 1488.86C659.976 1488.29 658.52 1487.78 657.208 1487.33V1480.46Z" fill="black"/>
<path d="M632.152 1476.15C631.896 1476.59 631.624 1477.14 631.336 1477.78C631.048 1478.39 630.792 1478.99 630.568 1479.6C630.152 1481.01 629.56 1482.63 628.792 1484.45C628.056 1486.24 627.128 1488.11 626.008 1490.07C624.92 1491.99 623.656 1493.84 622.216 1495.63C619.912 1498.39 617.224 1500.88 614.152 1503.12C611.112 1505.36 607.336 1507.38 602.824 1509.17L597.16 1504.08C600.424 1503.12 603.24 1502.02 605.608 1500.77C607.976 1499.52 610.04 1498.19 611.8 1496.79C613.56 1495.35 615.128 1493.83 616.504 1492.23C617.624 1490.98 618.648 1489.57 619.576 1488C620.504 1486.4 621.305 1484.82 621.977 1483.25C622.649 1481.68 623.096 1480.31 623.32 1479.12H607.145L609.352 1473.7C609.8 1473.7 610.489 1473.7 611.417 1473.7C612.377 1473.7 613.448 1473.7 614.632 1473.7C615.848 1473.7 617.032 1473.7 618.184 1473.7C619.368 1473.7 620.392 1473.7 621.257 1473.7C622.153 1473.7 622.761 1473.7 623.081 1473.7C623.817 1473.7 624.552 1473.65 625.288 1473.55C626.056 1473.46 626.712 1473.31 627.257 1473.12L632.152 1476.15ZM616.504 1468.56C615.928 1469.39 615.368 1470.29 614.824 1471.25C614.28 1472.21 613.864 1472.95 613.576 1473.46C612.488 1475.38 611.144 1477.38 609.544 1479.46C607.976 1481.51 606.184 1483.51 604.168 1485.46C602.152 1487.38 600.008 1489.14 597.736 1490.74L592.312 1486.75C594.424 1485.44 596.28 1484.1 597.88 1482.72C599.512 1481.35 600.92 1479.99 602.104 1478.64C603.288 1477.27 604.296 1475.95 605.128 1474.71C605.992 1473.43 606.728 1472.29 607.336 1471.3C607.72 1470.69 608.12 1469.91 608.536 1468.95C608.952 1467.95 609.272 1467.06 609.496 1466.26L616.504 1468.56Z" fill="black"/>
<path d="M578.393 1466.59C578.809 1467.13 579.241 1467.82 579.689 1468.65C580.169 1469.45 580.633 1470.25 581.081 1471.05C581.529 1471.85 581.897 1472.56 582.185 1473.17L578.345 1474.8C577.865 1473.81 577.273 1472.69 576.569 1471.44C575.897 1470.16 575.241 1469.05 574.601 1468.13L578.393 1466.59ZM584.057 1464.38C584.473 1464.99 584.921 1465.71 585.401 1466.54C585.913 1467.34 586.393 1468.14 586.841 1468.94C587.321 1469.71 587.689 1470.37 587.945 1470.91L584.153 1472.59C583.641 1471.57 583.033 1470.43 582.329 1469.18C581.625 1467.93 580.937 1466.86 580.265 1465.97L584.057 1464.38ZM560.441 1484.64C561.913 1485.5 563.529 1486.51 565.289 1487.66C567.049 1488.78 568.809 1489.95 570.569 1491.17C572.361 1492.38 574.041 1493.57 575.609 1494.72C577.209 1495.84 578.569 1496.86 579.689 1497.79L575.081 1503.21C574.025 1502.22 572.713 1501.1 571.145 1499.85C569.609 1498.61 567.945 1497.33 566.153 1496.01C564.361 1494.67 562.601 1493.39 560.873 1492.17C559.145 1490.96 557.577 1489.9 556.169 1489.01L560.441 1484.64ZM583.001 1476.48C582.745 1476.93 582.473 1477.47 582.185 1478.11C581.897 1478.72 581.641 1479.33 581.417 1479.93C580.937 1481.41 580.281 1483.04 579.449 1484.83C578.649 1486.62 577.689 1488.46 576.569 1490.35C575.449 1492.24 574.169 1494.08 572.729 1495.87C570.489 1498.65 567.769 1501.33 564.569 1503.89C561.369 1506.41 557.481 1508.56 552.905 1510.32L547.337 1505.47C550.665 1504.41 553.561 1503.2 556.025 1501.82C558.489 1500.41 560.633 1498.91 562.457 1497.31C564.281 1495.71 565.865 1494.11 567.209 1492.51C568.297 1491.23 569.321 1489.82 570.281 1488.29C571.241 1486.72 572.073 1485.17 572.777 1483.63C573.513 1482.09 574.025 1480.72 574.313 1479.5H558.089L560.297 1474.03H573.977C574.713 1474.03 575.449 1473.98 576.185 1473.89C576.953 1473.79 577.609 1473.65 578.153 1473.45L583.001 1476.48ZM567.161 1469.13C566.585 1469.97 566.009 1470.86 565.433 1471.82C564.889 1472.78 564.473 1473.52 564.185 1474.03C563.129 1475.92 561.753 1477.95 560.057 1480.13C558.393 1482.3 556.521 1484.41 554.441 1486.46C552.393 1488.51 550.217 1490.33 547.913 1491.93L542.729 1487.9C545.545 1486.17 547.929 1484.35 549.881 1482.43C551.865 1480.48 553.513 1478.61 554.825 1476.81C556.169 1474.99 557.241 1473.37 558.041 1471.97C558.425 1471.39 558.825 1470.62 559.241 1469.66C559.689 1468.67 560.009 1467.77 560.201 1466.97L567.161 1469.13Z" fill="black"/>
<path d="M499.048 1471.97C500.04 1472 500.968 1472.03 501.832 1472.06C502.728 1472.06 503.496 1472.06 504.136 1472.06C504.648 1472.06 505.432 1472.06 506.488 1472.06C507.576 1472.06 508.84 1472.06 510.28 1472.06C511.72 1472.06 513.256 1472.06 514.888 1472.06C516.52 1472.06 518.152 1472.06 519.784 1472.06C521.448 1472.06 523 1472.06 524.44 1472.06C525.88 1472.06 527.128 1472.06 528.184 1472.06C529.272 1472.06 530.056 1472.06 530.536 1472.06C531.144 1472.06 531.864 1472.06 532.696 1472.06C533.56 1472.03 534.424 1472 535.288 1471.97C535.256 1472.7 535.224 1473.49 535.192 1474.32C535.192 1475.12 535.192 1475.89 535.192 1476.62C535.192 1477.07 535.192 1477.78 535.192 1478.74C535.192 1479.66 535.192 1480.78 535.192 1482.1C535.192 1483.38 535.192 1484.75 535.192 1486.22C535.192 1487.66 535.192 1489.12 535.192 1490.59C535.192 1492.06 535.192 1493.46 535.192 1494.77C535.192 1496.05 535.192 1497.17 535.192 1498.13C535.192 1499.06 535.192 1499.73 535.192 1500.14C535.192 1500.62 535.192 1501.23 535.192 1501.97C535.224 1502.67 535.24 1503.39 535.24 1504.13C535.24 1504.83 535.24 1505.46 535.24 1506C535.272 1506.51 535.288 1506.78 535.288 1506.82H528.664C528.664 1506.75 528.664 1506.37 528.664 1505.66C528.696 1504.93 528.712 1504.06 528.712 1503.07C528.744 1502.08 528.76 1501.15 528.76 1500.29C528.76 1499.87 528.76 1499.17 528.76 1498.18C528.76 1497.18 528.76 1496.02 528.76 1494.67C528.76 1493.33 528.76 1491.9 528.76 1490.4C528.76 1488.9 528.76 1487.42 528.76 1485.98C528.76 1484.54 528.76 1483.23 528.76 1482.05C528.76 1480.86 528.76 1479.92 528.76 1479.22C528.76 1478.51 528.76 1478.16 528.76 1478.16H505.576C505.576 1478.16 505.576 1478.51 505.576 1479.22C505.576 1479.92 505.576 1480.86 505.576 1482.05C505.576 1483.2 505.576 1484.51 505.576 1485.98C505.576 1487.42 505.576 1488.9 505.576 1490.4C505.576 1491.87 505.576 1493.3 505.576 1494.67C505.576 1496.02 505.576 1497.18 505.576 1498.18C505.576 1499.17 505.576 1499.87 505.576 1500.29C505.576 1500.86 505.576 1501.52 505.576 1502.26C505.576 1502.96 505.576 1503.65 505.576 1504.32C505.608 1504.99 505.624 1505.55 505.624 1506C505.624 1506.48 505.624 1506.75 505.624 1506.82H499C499 1506.75 499 1506.48 499 1506C499.032 1505.52 499.048 1504.93 499.048 1504.22C499.08 1503.52 499.096 1502.8 499.096 1502.06C499.128 1501.33 499.144 1500.67 499.144 1500.1C499.144 1499.68 499.144 1499.01 499.144 1498.08C499.144 1497.12 499.144 1495.98 499.144 1494.67C499.144 1493.36 499.144 1491.98 499.144 1490.54C499.144 1489.07 499.144 1487.6 499.144 1486.13C499.144 1484.66 499.144 1483.28 499.144 1482C499.144 1480.69 499.144 1479.57 499.144 1478.64C499.144 1477.71 499.144 1477.04 499.144 1476.62C499.144 1475.95 499.144 1475.18 499.144 1474.32C499.144 1473.42 499.112 1472.64 499.048 1471.97ZM531.16 1498.08V1504.22H502.312V1498.08H531.16Z" fill="black"/>
<path d="M483.591 1470.81C483.591 1471.58 483.863 1472.24 484.407 1472.78C484.951 1473.29 485.591 1473.55 486.327 1473.55C487.095 1473.55 487.751 1473.29 488.295 1472.78C488.839 1472.24 489.111 1471.58 489.111 1470.81C489.111 1470.05 488.839 1469.39 488.295 1468.85C487.751 1468.3 487.095 1468.03 486.327 1468.03C485.591 1468.03 484.951 1468.3 484.407 1468.85C483.863 1469.39 483.591 1470.05 483.591 1470.81ZM480.615 1470.81C480.615 1469.76 480.871 1468.8 481.383 1467.93C481.927 1467.04 482.631 1466.33 483.495 1465.82C484.359 1465.31 485.303 1465.05 486.327 1465.05C487.383 1465.05 488.343 1465.31 489.207 1465.82C490.103 1466.33 490.807 1467.04 491.319 1467.93C491.831 1468.8 492.087 1469.76 492.087 1470.81C492.087 1471.84 491.831 1472.78 491.319 1473.65C490.807 1474.51 490.103 1475.21 489.207 1475.76C488.343 1476.27 487.383 1476.53 486.327 1476.53C485.303 1476.53 484.359 1476.27 483.495 1475.76C482.631 1475.21 481.927 1474.51 481.383 1473.65C480.871 1472.78 480.615 1471.84 480.615 1470.81ZM486.423 1474.61C486.199 1475.05 486.007 1475.6 485.847 1476.24C485.687 1476.85 485.527 1477.41 485.367 1477.92C485.111 1479.1 484.775 1480.43 484.359 1481.9C483.943 1483.34 483.447 1484.85 482.871 1486.41C482.295 1487.98 481.607 1489.53 480.807 1491.07C480.039 1492.61 479.159 1494.05 478.167 1495.39C476.727 1497.31 475.047 1499.1 473.127 1500.77C471.207 1502.43 469.063 1503.93 466.695 1505.28C464.327 1506.62 461.719 1507.76 458.871 1508.69L453.639 1502.93C456.839 1502.16 459.591 1501.21 461.895 1500.09C464.199 1498.97 466.199 1497.69 467.895 1496.25C469.623 1494.81 471.143 1493.28 472.455 1491.65C473.511 1490.3 474.407 1488.85 475.143 1487.28C475.911 1485.71 476.535 1484.14 477.015 1482.57C477.527 1480.97 477.879 1479.49 478.071 1478.11C477.591 1478.11 476.791 1478.11 475.671 1478.11C474.583 1478.11 473.287 1478.11 471.783 1478.11C470.311 1478.11 468.759 1478.11 467.127 1478.11C465.527 1478.11 463.975 1478.11 462.471 1478.11C460.967 1478.11 459.607 1478.11 458.391 1478.11C457.207 1478.11 456.327 1478.11 455.751 1478.11C454.631 1478.11 453.543 1478.13 452.487 1478.16C451.463 1478.19 450.647 1478.24 450.039 1478.3V1471.53C450.519 1471.6 451.095 1471.66 451.767 1471.73C452.471 1471.79 453.175 1471.84 453.879 1471.87C454.615 1471.9 455.239 1471.92 455.751 1471.92C456.263 1471.92 456.983 1471.92 457.911 1471.92C458.871 1471.92 459.975 1471.92 461.223 1471.92C462.471 1471.92 463.767 1471.92 465.111 1471.92C466.487 1471.92 467.847 1471.92 469.191 1471.92C470.567 1471.92 471.847 1471.92 473.031 1471.92C474.215 1471.92 475.239 1471.92 476.103 1471.92C476.967 1471.92 477.591 1471.92 477.975 1471.92C478.455 1471.92 479.031 1471.9 479.703 1471.87C480.407 1471.84 481.079 1471.73 481.719 1471.53L486.423 1474.61Z" fill="black"/>
<path d="M405.161 1473.41C406.025 1473.5 406.969 1473.58 407.993 1473.65C409.049 1473.68 409.977 1473.69 410.777 1473.69C411.449 1473.69 412.345 1473.69 413.465 1473.69C414.585 1473.69 415.817 1473.69 417.161 1473.69C418.505 1473.69 419.865 1473.69 421.241 1473.69C422.649 1473.69 423.977 1473.69 425.225 1473.69C426.505 1473.69 427.625 1473.69 428.585 1473.69C429.545 1473.69 430.233 1473.69 430.649 1473.69C431.609 1473.69 432.569 1473.66 433.529 1473.6C434.489 1473.53 435.305 1473.47 435.977 1473.41V1480.37C435.305 1480.33 434.457 1480.3 433.433 1480.27C432.409 1480.21 431.481 1480.17 430.649 1480.17C430.233 1480.17 429.513 1480.17 428.489 1480.17C427.497 1480.17 426.329 1480.17 424.985 1480.17C423.641 1480.17 422.233 1480.17 420.761 1480.17C419.321 1480.17 417.929 1480.17 416.585 1480.17C415.241 1480.17 414.057 1480.17 413.033 1480.17C412.009 1480.17 411.273 1480.17 410.825 1480.17C409.897 1480.17 408.921 1480.19 407.897 1480.22C406.873 1480.25 405.961 1480.3 405.161 1480.37V1473.41ZM401.129 1496.88C402.089 1496.94 403.081 1497.01 404.105 1497.07C405.161 1497.13 406.169 1497.17 407.129 1497.17C407.545 1497.17 408.313 1497.17 409.433 1497.17C410.553 1497.17 411.865 1497.17 413.369 1497.17C414.905 1497.17 416.553 1497.17 418.313 1497.17C420.073 1497.17 421.817 1497.17 423.545 1497.17C425.305 1497.17 426.937 1497.17 428.441 1497.17C429.977 1497.17 431.289 1497.17 432.377 1497.17C433.497 1497.17 434.265 1497.17 434.681 1497.17C435.513 1497.17 436.393 1497.15 437.321 1497.12C438.281 1497.05 439.161 1496.97 439.961 1496.88V1504.22C439.129 1504.13 438.217 1504.06 437.225 1504.03C436.233 1503.97 435.385 1503.93 434.681 1503.93C434.265 1503.93 433.497 1503.93 432.377 1503.93C431.289 1503.93 429.977 1503.93 428.441 1503.93C426.937 1503.93 425.305 1503.93 423.545 1503.93C421.817 1503.93 420.073 1503.93 418.313 1503.93C416.553 1503.93 414.905 1503.93 413.369 1503.93C411.865 1503.93 410.553 1503.93 409.433 1503.93C408.313 1503.93 407.545 1503.93 407.129 1503.93C406.169 1503.93 405.145 1503.97 404.057 1504.03C403.001 1504.06 402.025 1504.13 401.129 1504.22V1496.88Z" fill="black"/>
<path d="M362.679 1468.41C363.927 1468.57 365.431 1468.81 367.191 1469.13C368.983 1469.42 370.871 1469.76 372.855 1470.14C374.871 1470.53 376.871 1470.96 378.855 1471.44C380.871 1471.89 382.727 1472.33 384.423 1472.78C386.151 1473.23 387.623 1473.66 388.839 1474.08L386.391 1480.08C385.271 1479.66 383.879 1479.23 382.215 1478.78C380.551 1478.3 378.743 1477.82 376.791 1477.34C374.839 1476.86 372.871 1476.41 370.887 1476C368.903 1475.58 366.999 1475.2 365.175 1474.85C363.383 1474.49 361.799 1474.24 360.423 1474.08L362.679 1468.41ZM360.471 1481.33C362.199 1481.61 364.183 1481.98 366.423 1482.43C368.663 1482.88 370.967 1483.37 373.335 1483.92C375.703 1484.43 377.959 1484.97 380.103 1485.55C382.247 1486.09 384.071 1486.64 385.575 1487.18L383.223 1493.18C381.847 1492.64 380.103 1492.08 377.991 1491.5C375.911 1490.93 373.687 1490.35 371.319 1489.77C368.983 1489.2 366.663 1488.69 364.359 1488.24C362.055 1487.76 360.023 1487.39 358.263 1487.13L360.471 1481.33ZM358.023 1495.05C359.655 1495.31 361.511 1495.65 363.591 1496.06C365.671 1496.48 367.831 1496.94 370.071 1497.45C372.343 1497.97 374.567 1498.49 376.743 1499.04C378.919 1499.58 380.935 1500.13 382.791 1500.67C384.679 1501.21 386.279 1501.74 387.591 1502.25L384.951 1508.25C383.671 1507.71 382.087 1507.15 380.199 1506.57C378.311 1506.03 376.263 1505.49 374.055 1504.94C371.847 1504.37 369.623 1503.84 367.383 1503.36C365.143 1502.85 362.999 1502.4 360.951 1502.01C358.935 1501.63 357.159 1501.33 355.623 1501.1L358.023 1495.05Z" fill="black"/>
<path d="M734.775 1417.7C735.511 1417.12 736.183 1416.54 736.791 1415.97C737.431 1415.36 738.119 1414.69 738.855 1413.95C739.399 1413.38 740.023 1412.67 740.727 1411.84C741.431 1410.98 742.183 1410.05 742.983 1409.06C743.783 1408.06 744.583 1407.07 745.383 1406.08C746.215 1405.06 746.999 1404.11 747.735 1403.25C749.431 1401.33 751.079 1400.3 752.679 1400.18C754.279 1400.02 755.959 1400.8 757.719 1402.53C758.807 1403.58 759.927 1404.78 761.079 1406.13C762.263 1407.47 763.415 1408.82 764.535 1410.16C765.655 1411.5 766.695 1412.69 767.655 1413.71C768.423 1414.58 769.239 1415.47 770.103 1416.4C770.999 1417.33 771.943 1418.3 772.935 1419.33C773.927 1420.35 774.967 1421.38 776.055 1422.4C777.143 1423.42 778.247 1424.45 779.367 1425.47L774.423 1431.23C773.303 1430.11 772.119 1428.9 770.871 1427.58C769.623 1426.27 768.391 1424.93 767.175 1423.55C765.991 1422.18 764.871 1420.91 763.815 1419.76C762.855 1418.58 761.831 1417.33 760.743 1416.02C759.687 1414.67 758.663 1413.39 757.671 1412.18C756.679 1410.96 755.799 1409.94 755.031 1409.1C754.487 1408.46 753.991 1408.06 753.543 1407.9C753.127 1407.74 752.711 1407.78 752.295 1408C751.911 1408.22 751.495 1408.64 751.047 1409.25C750.567 1409.86 750.007 1410.58 749.367 1411.41C748.759 1412.24 748.103 1413.14 747.399 1414.1C746.727 1415.02 746.071 1415.94 745.431 1416.83C744.791 1417.7 744.199 1418.46 743.655 1419.14C743.111 1419.94 742.567 1420.74 742.023 1421.54C741.511 1422.34 741.047 1423.06 740.631 1423.7L734.775 1417.7Z" fill="black"/>
<path d="M687.257 1398.93H730.793V1404.4H687.257V1398.93ZM703.289 1410.69H721.673V1416.11H703.289V1410.69ZM719.513 1410.69H725.465C725.465 1410.69 725.449 1410.85 725.417 1411.17C725.417 1411.46 725.417 1411.79 725.417 1412.18C725.417 1412.56 725.385 1412.9 725.321 1413.18C725.033 1417.57 724.713 1421.15 724.361 1423.94C724.009 1426.72 723.609 1428.9 723.161 1430.46C722.713 1432 722.169 1433.12 721.529 1433.82C720.793 1434.62 720.025 1435.17 719.225 1435.46C718.425 1435.74 717.465 1435.95 716.345 1436.08C715.417 1436.18 714.201 1436.21 712.697 1436.18C711.193 1436.18 709.641 1436.14 708.041 1436.08C708.009 1435.25 707.801 1434.29 707.417 1433.2C707.033 1432.14 706.553 1431.22 705.977 1430.42C707.641 1430.58 709.241 1430.67 710.777 1430.7C712.313 1430.74 713.417 1430.75 714.089 1430.75C714.633 1430.75 715.081 1430.72 715.433 1430.66C715.817 1430.56 716.153 1430.38 716.441 1430.13C716.953 1429.71 717.385 1428.8 717.737 1427.39C718.121 1425.98 718.457 1423.98 718.745 1421.39C719.033 1418.8 719.289 1415.52 719.513 1411.55V1410.69ZM701.129 1402.19H707.561C707.433 1404.75 707.225 1407.34 706.937 1409.97C706.681 1412.56 706.233 1415.14 705.593 1417.7C704.953 1420.22 704.025 1422.64 702.809 1424.94C701.593 1427.25 699.993 1429.39 698.009 1431.38C696.025 1433.36 693.513 1435.12 690.473 1436.66C690.057 1435.86 689.449 1434.99 688.649 1434.06C687.881 1433.14 687.129 1432.37 686.393 1431.76C689.177 1430.48 691.449 1428.99 693.209 1427.3C695.001 1425.57 696.409 1423.71 697.433 1421.73C698.457 1419.71 699.209 1417.62 699.689 1415.44C700.201 1413.26 700.537 1411.06 700.697 1408.82C700.889 1406.58 701.033 1404.37 701.129 1402.19ZM705.737 1391.01H711.737V1401.09H705.737V1391.01Z" fill="black"/>
<path d="M659.751 1393.69C659.559 1394.33 659.367 1395.12 659.175 1396.05C658.983 1396.97 658.839 1397.69 658.743 1398.21C658.519 1399.29 658.231 1400.62 657.879 1402.19C657.559 1403.76 657.191 1405.42 656.775 1407.18C656.391 1408.94 655.991 1410.62 655.575 1412.22C655.159 1413.92 654.647 1415.76 654.039 1417.74C653.431 1419.69 652.775 1421.69 652.071 1423.74C651.399 1425.76 650.711 1427.69 650.007 1429.55C649.303 1431.37 648.615 1433.01 647.943 1434.45L641.271 1432.19C641.975 1430.97 642.727 1429.5 643.527 1427.77C644.327 1426.01 645.095 1424.13 645.831 1422.11C646.599 1420.09 647.303 1418.09 647.943 1416.11C648.583 1414.13 649.127 1412.29 649.575 1410.59C649.895 1409.47 650.199 1408.32 650.487 1407.13C650.775 1405.95 651.031 1404.8 651.255 1403.68C651.479 1402.56 651.671 1401.52 651.831 1400.56C652.023 1399.57 652.167 1398.7 652.263 1397.97C652.359 1397.07 652.423 1396.17 652.455 1395.28C652.487 1394.38 652.471 1393.66 652.407 1393.12L659.751 1393.69ZM647.511 1400.85C649.463 1400.85 651.495 1400.75 653.607 1400.56C655.719 1400.37 657.847 1400.09 659.991 1399.74C662.135 1399.39 664.263 1398.97 666.375 1398.49V1404.49C664.391 1404.94 662.279 1405.33 660.039 1405.65C657.799 1405.97 655.591 1406.22 653.415 1406.41C651.239 1406.57 649.239 1406.65 647.415 1406.65C646.263 1406.65 645.223 1406.64 644.295 1406.61C643.367 1406.54 642.471 1406.49 641.607 1406.46L641.463 1400.46C642.711 1400.59 643.783 1400.69 644.679 1400.75C645.575 1400.81 646.519 1400.85 647.511 1400.85ZM662.583 1408.19C663.927 1408.06 665.415 1407.95 667.047 1407.85C668.679 1407.76 670.263 1407.71 671.799 1407.71C673.175 1407.71 674.567 1407.74 675.975 1407.81C677.415 1407.87 678.839 1407.98 680.247 1408.14L680.103 1413.9C678.919 1413.74 677.607 1413.61 676.167 1413.52C674.759 1413.39 673.319 1413.33 671.847 1413.33C670.215 1413.33 668.631 1413.37 667.095 1413.47C665.591 1413.53 664.087 1413.66 662.583 1413.85V1408.19ZM665.175 1420.29C664.983 1420.96 664.823 1421.66 664.695 1422.4C664.567 1423.1 664.503 1423.73 664.503 1424.27C664.503 1424.78 664.615 1425.26 664.839 1425.71C665.063 1426.16 665.415 1426.56 665.895 1426.91C666.375 1427.23 667.031 1427.49 667.863 1427.68C668.727 1427.87 669.799 1427.97 671.079 1427.97C672.711 1427.97 674.343 1427.89 675.975 1427.73C677.639 1427.53 679.335 1427.28 681.063 1426.96L680.823 1433.1C679.479 1433.26 677.991 1433.41 676.359 1433.53C674.727 1433.69 672.951 1433.77 671.031 1433.77C666.999 1433.77 663.911 1433.12 661.767 1431.81C659.655 1430.46 658.599 1428.57 658.599 1426.14C658.599 1425.05 658.695 1423.95 658.887 1422.83C659.079 1421.71 659.271 1420.67 659.463 1419.71L665.175 1420.29Z" fill="black"/>
<path d="M601.48 1397.68C601.352 1398.26 601.24 1398.91 601.144 1399.65C601.08 1400.39 601.016 1401.11 600.952 1401.81C600.92 1402.51 600.904 1403.09 600.904 1403.54C600.872 1404.59 600.856 1405.68 600.856 1406.8C600.888 1407.92 600.92 1409.07 600.952 1410.26C601.016 1411.41 601.096 1412.56 601.192 1413.71C601.416 1416.02 601.736 1418.05 602.152 1419.81C602.568 1421.57 603.112 1422.95 603.784 1423.94C604.456 1424.9 605.304 1425.38 606.328 1425.38C606.872 1425.38 607.4 1425.07 607.912 1424.47C608.456 1423.86 608.936 1423.07 609.352 1422.11C609.8 1421.12 610.184 1420.08 610.504 1418.99C610.856 1417.91 611.16 1416.88 611.416 1415.92L616.216 1421.78C615.16 1424.56 614.104 1426.79 613.048 1428.45C612.024 1430.08 610.952 1431.27 609.832 1432C608.712 1432.71 607.496 1433.06 606.184 1433.06C604.456 1433.06 602.808 1432.48 601.24 1431.33C599.704 1430.18 598.392 1428.32 597.304 1425.76C596.216 1423.17 595.448 1419.73 595 1415.44C594.84 1413.97 594.712 1412.42 594.616 1410.79C594.552 1409.15 594.504 1407.6 594.472 1406.13C594.472 1404.66 594.472 1403.44 594.472 1402.48C594.472 1401.81 594.44 1401.01 594.376 1400.08C594.312 1399.15 594.216 1398.32 594.088 1397.59L601.48 1397.68ZM625.48 1398.79C626.376 1399.87 627.24 1401.2 628.072 1402.77C628.904 1404.34 629.672 1406.02 630.376 1407.81C631.08 1409.6 631.704 1411.44 632.248 1413.33C632.792 1415.19 633.224 1417.01 633.544 1418.8C633.896 1420.56 634.12 1422.18 634.216 1423.65L627.88 1426.1C627.72 1424.15 627.432 1422.02 627.016 1419.71C626.6 1417.41 626.04 1415.09 625.336 1412.75C624.632 1410.42 623.784 1408.21 622.792 1406.13C621.832 1404.05 620.696 1402.26 619.384 1400.75L625.48 1398.79Z" fill="black"/>
<path d="M562.311 1394.22C562.119 1394.89 561.911 1395.69 561.687 1396.62C561.495 1397.52 561.351 1398.24 561.255 1398.78C561.031 1399.87 560.743 1401.2 560.391 1402.77C560.071 1404.33 559.719 1406 559.335 1407.76C558.951 1409.49 558.551 1411.17 558.135 1412.8C557.687 1414.46 557.159 1416.29 556.551 1418.27C555.975 1420.25 555.335 1422.25 554.631 1424.27C553.959 1426.29 553.271 1428.22 552.567 1430.08C551.863 1431.93 551.175 1433.58 550.503 1435.02L543.783 1432.77C544.519 1431.55 545.271 1430.06 546.039 1428.3C546.839 1426.54 547.623 1424.67 548.391 1422.69C549.159 1420.67 549.863 1418.67 550.503 1416.69C551.143 1414.67 551.687 1412.83 552.135 1411.17C552.423 1410.01 552.711 1408.85 552.999 1407.66C553.287 1406.48 553.543 1405.33 553.767 1404.21C554.023 1403.09 554.231 1402.05 554.391 1401.09C554.583 1400.09 554.727 1399.25 554.823 1398.54C554.919 1397.65 554.983 1396.75 555.015 1395.85C555.047 1394.96 555.031 1394.22 554.967 1393.65L562.311 1394.22ZM550.071 1401.42C552.023 1401.42 554.055 1401.33 556.167 1401.13C558.279 1400.94 560.407 1400.67 562.551 1400.32C564.695 1399.93 566.823 1399.5 568.935 1399.02V1405.02C566.951 1405.5 564.839 1405.9 562.599 1406.22C560.359 1406.54 558.151 1406.8 555.975 1406.99C553.799 1407.15 551.799 1407.23 549.975 1407.23C548.823 1407.23 547.783 1407.21 546.855 1407.18C545.927 1407.12 545.031 1407.07 544.167 1407.04L544.023 1401.04C545.271 1401.17 546.343 1401.26 547.239 1401.33C548.135 1401.39 549.079 1401.42 550.071 1401.42ZM565.143 1408.77C566.487 1408.61 567.975 1408.49 569.607 1408.43C571.239 1408.33 572.823 1408.29 574.359 1408.29C575.735 1408.29 577.127 1408.32 578.535 1408.38C579.975 1408.45 581.399 1408.56 582.807 1408.72L582.663 1414.48C581.479 1414.32 580.167 1414.17 578.727 1414.05C577.319 1413.92 575.879 1413.85 574.407 1413.85C572.743 1413.85 571.159 1413.9 569.655 1414C568.151 1414.06 566.647 1414.19 565.143 1414.38V1408.77ZM567.735 1420.81C567.543 1421.49 567.383 1422.19 567.255 1422.93C567.127 1423.66 567.063 1424.29 567.063 1424.8C567.063 1425.34 567.175 1425.84 567.399 1426.29C567.623 1426.73 567.975 1427.13 568.455 1427.49C568.935 1427.81 569.591 1428.06 570.423 1428.25C571.287 1428.41 572.359 1428.49 573.639 1428.49C575.239 1428.49 576.871 1428.41 578.535 1428.25C580.199 1428.09 581.895 1427.85 583.623 1427.53L583.383 1433.63C582.039 1433.82 580.551 1433.98 578.919 1434.11C577.287 1434.27 575.511 1434.35 573.591 1434.35C569.559 1434.35 566.471 1433.68 564.327 1432.33C562.215 1430.99 561.159 1429.12 561.159 1426.72C561.159 1425.6 561.239 1424.48 561.399 1423.36C561.591 1422.24 561.783 1421.21 561.975 1420.29L567.735 1420.81ZM577.671 1395.61C578.087 1396.19 578.519 1396.88 578.967 1397.68C579.447 1398.48 579.911 1399.28 580.359 1400.08C580.807 1400.88 581.175 1401.58 581.463 1402.19L577.623 1403.87C577.303 1403.2 576.935 1402.46 576.519 1401.66C576.103 1400.86 575.671 1400.06 575.223 1399.26C574.775 1398.46 574.327 1397.77 573.879 1397.2L577.671 1395.61ZM583.335 1393.45C583.783 1394.03 584.247 1394.73 584.727 1395.57C585.207 1396.37 585.671 1397.17 586.119 1397.97C586.599 1398.73 586.967 1399.41 587.223 1399.98L583.431 1401.61C582.919 1400.59 582.311 1399.45 581.607 1398.21C580.903 1396.96 580.215 1395.89 579.543 1394.99L583.335 1393.45Z" fill="black"/>
<path d="M515.751 1393.69C515.559 1394.33 515.367 1395.12 515.175 1396.05C514.983 1396.97 514.839 1397.69 514.743 1398.21C514.519 1399.29 514.231 1400.62 513.879 1402.19C513.559 1403.76 513.191 1405.42 512.775 1407.18C512.391 1408.94 511.991 1410.62 511.575 1412.22C511.159 1413.92 510.647 1415.76 510.039 1417.74C509.431 1419.69 508.775 1421.69 508.071 1423.74C507.399 1425.76 506.711 1427.69 506.007 1429.55C505.303 1431.37 504.615 1433.01 503.943 1434.45L497.271 1432.19C497.975 1430.97 498.727 1429.5 499.527 1427.77C500.327 1426.01 501.095 1424.13 501.831 1422.11C502.599 1420.09 503.303 1418.09 503.943 1416.11C504.583 1414.13 505.127 1412.29 505.575 1410.59C505.895 1409.47 506.199 1408.32 506.487 1407.13C506.775 1405.95 507.031 1404.8 507.255 1403.68C507.479 1402.56 507.671 1401.52 507.831 1400.56C508.023 1399.57 508.167 1398.7 508.263 1397.97C508.359 1397.07 508.423 1396.17 508.455 1395.28C508.487 1394.38 508.471 1393.66 508.407 1393.12L515.751 1393.69ZM503.511 1400.85C505.463 1400.85 507.495 1400.75 509.607 1400.56C511.719 1400.37 513.847 1400.09 515.991 1399.74C518.135 1399.39 520.263 1398.97 522.375 1398.49V1404.49C520.391 1404.94 518.279 1405.33 516.039 1405.65C513.799 1405.97 511.591 1406.22 509.415 1406.41C507.239 1406.57 505.239 1406.65 503.415 1406.65C502.263 1406.65 501.223 1406.64 500.295 1406.61C499.367 1406.54 498.471 1406.49 497.607 1406.46L497.463 1400.46C498.711 1400.59 499.783 1400.69 500.679 1400.75C501.575 1400.81 502.519 1400.85 503.511 1400.85ZM518.583 1408.19C519.927 1408.06 521.415 1407.95 523.047 1407.85C524.679 1407.76 526.263 1407.71 527.799 1407.71C529.175 1407.71 530.567 1407.74 531.975 1407.81C533.415 1407.87 534.839 1407.98 536.247 1408.14L536.103 1413.9C534.919 1413.74 533.607 1413.61 532.167 1413.52C530.759 1413.39 529.319 1413.33 527.847 1413.33C526.215 1413.33 524.631 1413.37 523.095 1413.47C521.591 1413.53 520.087 1413.66 518.583 1413.85V1408.19ZM521.175 1420.29C520.983 1420.96 520.823 1421.66 520.695 1422.4C520.567 1423.1 520.503 1423.73 520.503 1424.27C520.503 1424.78 520.615 1425.26 520.839 1425.71C521.063 1426.16 521.415 1426.56 521.895 1426.91C522.375 1427.23 523.031 1427.49 523.863 1427.68C524.727 1427.87 525.799 1427.97 527.079 1427.97C528.711 1427.97 530.343 1427.89 531.975 1427.73C533.639 1427.53 535.335 1427.28 537.063 1426.96L536.823 1433.1C535.479 1433.26 533.991 1433.41 532.359 1433.53C530.727 1433.69 528.951 1433.77 527.031 1433.77C522.999 1433.77 519.911 1433.12 517.767 1431.81C515.655 1430.46 514.599 1428.57 514.599 1426.14C514.599 1425.05 514.695 1423.95 514.887 1422.83C515.079 1421.71 515.271 1420.67 515.463 1419.71L521.175 1420.29Z" fill="black"/>
<path d="M457.48 1397.68C457.352 1398.26 457.24 1398.91 457.144 1399.65C457.08 1400.39 457.016 1401.11 456.952 1401.81C456.92 1402.51 456.904 1403.09 456.904 1403.54C456.872 1404.59 456.856 1405.68 456.856 1406.8C456.888 1407.92 456.92 1409.07 456.952 1410.26C457.016 1411.41 457.096 1412.56 457.192 1413.71C457.416 1416.02 457.736 1418.05 458.152 1419.81C458.568 1421.57 459.112 1422.95 459.784 1423.94C460.456 1424.9 461.304 1425.38 462.328 1425.38C462.872 1425.38 463.4 1425.07 463.912 1424.47C464.456 1423.86 464.936 1423.07 465.352 1422.11C465.8 1421.12 466.184 1420.08 466.504 1418.99C466.856 1417.91 467.16 1416.88 467.416 1415.92L472.216 1421.78C471.16 1424.56 470.104 1426.79 469.048 1428.45C468.024 1430.08 466.952 1431.27 465.832 1432C464.712 1432.71 463.496 1433.06 462.184 1433.06C460.456 1433.06 458.808 1432.48 457.24 1431.33C455.704 1430.18 454.392 1428.32 453.304 1425.76C452.216 1423.17 451.448 1419.73 451 1415.44C450.84 1413.97 450.712 1412.42 450.616 1410.79C450.552 1409.15 450.504 1407.6 450.472 1406.13C450.472 1404.66 450.472 1403.44 450.472 1402.48C450.472 1401.81 450.44 1401.01 450.376 1400.08C450.312 1399.15 450.216 1398.32 450.088 1397.59L457.48 1397.68ZM481.48 1398.79C482.376 1399.87 483.24 1401.2 484.072 1402.77C484.904 1404.34 485.672 1406.02 486.376 1407.81C487.08 1409.6 487.704 1411.44 488.248 1413.33C488.792 1415.19 489.224 1417.01 489.544 1418.8C489.896 1420.56 490.12 1422.18 490.216 1423.65L483.88 1426.1C483.72 1424.15 483.432 1422.02 483.016 1419.71C482.6 1417.41 482.04 1415.09 481.336 1412.75C480.632 1410.42 479.784 1408.21 478.792 1406.13C477.832 1404.05 476.696 1402.26 475.384 1400.75L481.48 1398.79Z" fill="black"/>
<path d="M407.993 1393.89H421.625V1399.75H407.993V1393.89ZM418.793 1393.89H424.745C424.745 1395.43 424.809 1397.17 424.937 1399.12C425.065 1401.04 425.337 1403.11 425.753 1405.31C426.169 1407.49 426.793 1409.73 427.625 1412.03C428.457 1414.34 429.561 1416.63 430.937 1418.9C432.345 1421.14 434.105 1423.3 436.217 1425.38C438.329 1427.46 440.857 1429.38 443.801 1431.14C443.385 1431.46 442.873 1431.92 442.265 1432.53C441.657 1433.14 441.065 1433.76 440.489 1434.4C439.945 1435.07 439.497 1435.67 439.145 1436.18C436.137 1434.32 433.529 1432.24 431.321 1429.94C429.113 1427.6 427.257 1425.14 425.753 1422.55C424.249 1419.92 423.033 1417.28 422.105 1414.63C421.177 1411.94 420.473 1409.33 419.993 1406.8C419.513 1404.24 419.193 1401.86 419.033 1399.65C418.873 1397.44 418.793 1395.52 418.793 1393.89ZM416.729 1404.45L423.305 1405.65C422.217 1410.39 420.761 1414.69 418.937 1418.56C417.113 1422.43 414.921 1425.84 412.361 1428.79C409.833 1431.73 406.905 1434.21 403.577 1436.23C403.225 1435.81 402.729 1435.3 402.089 1434.69C401.449 1434.11 400.777 1433.52 400.073 1432.91C399.401 1432.34 398.809 1431.87 398.297 1431.52C403.321 1428.99 407.321 1425.44 410.297 1420.87C413.273 1416.26 415.417 1410.79 416.729 1404.45Z" fill="black"/>
<path d="M368.969 1394.95H394.457V1398.98H368.969V1394.95ZM368.201 1406.51H395.369V1410.55H368.201V1406.51ZM367.961 1424.47H395.417V1428.55H367.961V1424.47ZM370.121 1400.75H393.737V1404.59H370.121V1400.75ZM374.201 1391.25H379.193V1408.29H374.201V1391.25ZM384.137 1391.25H389.225V1408.29H384.137V1391.25ZM379.193 1408.39H384.185V1425.62H379.193V1408.39ZM387.929 1412.37H393.161V1431.09C393.161 1432.27 393.017 1433.2 392.729 1433.87C392.473 1434.58 391.945 1435.12 391.145 1435.51C390.313 1435.89 389.321 1436.11 388.169 1436.18C387.049 1436.27 385.689 1436.32 384.089 1436.32C383.993 1435.62 383.801 1434.83 383.513 1433.97C383.225 1433.11 382.921 1432.35 382.601 1431.71C383.529 1431.75 384.441 1431.76 385.337 1431.76C386.265 1431.76 386.873 1431.76 387.161 1431.76C387.449 1431.76 387.641 1431.71 387.737 1431.62C387.865 1431.49 387.929 1431.3 387.929 1431.04V1412.37ZM370.505 1412.37H390.185V1416.4H375.641V1436.37H370.505V1412.37ZM373.049 1418.56H390.137V1422.16H373.049V1418.56ZM354.953 1424.47L359.945 1425.62C359.337 1427.63 358.521 1429.62 357.497 1431.57C356.473 1433.49 355.385 1435.11 354.233 1436.42C353.945 1436.13 353.529 1435.81 352.985 1435.46C352.441 1435.11 351.897 1434.75 351.353 1434.4C350.809 1434.05 350.345 1433.78 349.961 1433.59C351.049 1432.43 352.025 1431.04 352.889 1429.41C353.785 1427.78 354.473 1426.13 354.953 1424.47ZM360.569 1426.19L364.841 1424.37C365.641 1425.59 366.425 1426.93 367.193 1428.4C367.993 1429.84 368.601 1431.11 369.017 1432.19L364.553 1434.31C364.329 1433.57 363.993 1432.74 363.545 1431.81C363.129 1430.85 362.665 1429.89 362.153 1428.93C361.641 1427.94 361.113 1427.03 360.569 1426.19ZM357.545 1406.27V1410.79H362.297V1406.27H357.545ZM357.545 1415.01V1419.52H362.297V1415.01H357.545ZM357.545 1397.59V1402H362.297V1397.59H357.545ZM352.649 1393.03H367.337V1424.13H352.649V1393.03Z" fill="black"/>
<path d="M310.407 1397.58C312.167 1397.8 314.151 1397.96 316.359 1398.06C318.567 1398.16 320.935 1398.2 323.463 1398.2C325.063 1398.2 326.695 1398.17 328.359 1398.11C330.023 1398.04 331.639 1397.96 333.207 1397.87C334.775 1397.74 336.167 1397.63 337.383 1397.53V1403.92C336.263 1403.98 334.903 1404.06 333.303 1404.16C331.735 1404.25 330.087 1404.33 328.359 1404.4C326.663 1404.46 325.047 1404.49 323.511 1404.49C321.015 1404.49 318.695 1404.44 316.551 1404.35C314.407 1404.22 312.359 1404.09 310.407 1403.96V1397.58ZM314.439 1417.93C314.215 1418.76 314.023 1419.58 313.863 1420.38C313.703 1421.18 313.623 1421.98 313.623 1422.78C313.623 1424.35 314.391 1425.63 315.927 1426.62C317.495 1427.58 320.007 1428.06 323.463 1428.06C325.639 1428.06 327.735 1427.98 329.751 1427.82C331.799 1427.66 333.719 1427.45 335.511 1427.2C337.303 1426.91 338.903 1426.57 340.311 1426.19L340.359 1432.91C338.983 1433.23 337.415 1433.52 335.655 1433.77C333.927 1434.03 332.055 1434.22 330.039 1434.35C328.055 1434.51 325.943 1434.59 323.703 1434.59C320.023 1434.59 316.967 1434.17 314.535 1433.34C312.103 1432.54 310.263 1431.39 309.015 1429.88C307.799 1428.35 307.191 1426.48 307.191 1424.27C307.191 1422.89 307.303 1421.63 307.527 1420.48C307.751 1419.29 307.943 1418.25 308.103 1417.36L314.439 1417.93ZM338.631 1392.64C339.047 1393.21 339.479 1393.9 339.927 1394.7C340.407 1395.5 340.871 1396.3 341.319 1397.1C341.767 1397.9 342.151 1398.6 342.471 1399.21L338.583 1400.89C338.103 1399.9 337.511 1398.76 336.807 1397.48C336.135 1396.2 335.479 1395.1 334.839 1394.17L338.631 1392.64ZM344.343 1390.48C344.759 1391.08 345.207 1391.79 345.687 1392.59C346.167 1393.39 346.631 1394.19 347.079 1394.99C347.559 1395.76 347.943 1396.43 348.231 1397L344.391 1398.64C343.879 1397.64 343.271 1396.52 342.567 1395.28C341.863 1394 341.175 1392.91 340.503 1392.01L344.343 1390.48Z" fill="black"/>
<path d="M558.111 1194.04C559.342 1194.89 560.786 1195.93 562.442 1197.16C564.099 1198.39 565.803 1199.74 567.554 1201.21C569.353 1202.63 571.033 1204.03 572.595 1205.4C574.157 1206.77 575.435 1208 576.429 1209.09L569.187 1216.48C568.288 1215.48 567.105 1214.3 565.637 1212.93C564.17 1211.55 562.584 1210.13 560.88 1208.67C559.176 1207.2 557.496 1205.8 555.839 1204.48C554.183 1203.15 552.715 1202.04 551.437 1201.14L558.111 1194.04ZM549.236 1241.33C552.928 1240.8 556.407 1240.07 559.673 1239.12C562.939 1238.18 565.969 1237.09 568.761 1235.86C571.554 1234.63 574.11 1233.35 576.429 1232.02C580.453 1229.61 584.145 1226.86 587.505 1223.79C590.866 1220.71 593.801 1217.52 596.309 1214.2C598.818 1210.84 600.806 1207.58 602.273 1204.41L607.811 1214.42C606.013 1217.59 603.788 1220.76 601.137 1223.93C598.534 1227.1 595.576 1230.13 592.262 1233.02C588.949 1235.86 585.375 1238.41 581.541 1240.69C579.127 1242.15 576.524 1243.55 573.731 1244.88C570.939 1246.15 567.98 1247.29 564.856 1248.28C561.78 1249.32 558.561 1250.13 555.2 1250.7L549.236 1241.33Z" fill="black"/>
<path d="M500.459 1214.77C502.636 1216 505.003 1217.47 507.559 1219.17C510.162 1220.83 512.789 1222.56 515.44 1224.35C518.09 1226.15 520.575 1227.9 522.895 1229.61C525.261 1231.31 527.249 1232.83 528.859 1234.15L522.114 1242.18C520.552 1240.76 518.611 1239.12 516.292 1237.28C514.02 1235.38 511.558 1233.47 508.908 1231.53C506.257 1229.54 503.63 1227.64 501.027 1225.85C498.471 1224.05 496.175 1222.51 494.14 1221.23L500.459 1214.77ZM533.829 1202.7C533.403 1203.36 532.977 1204.14 532.551 1205.04C532.125 1205.94 531.77 1206.84 531.486 1207.74C530.776 1209.92 529.805 1212.36 528.575 1215.05C527.391 1217.7 525.971 1220.43 524.315 1223.22C522.658 1225.96 520.765 1228.66 518.635 1231.31C515.274 1235.48 511.227 1239.43 506.494 1243.17C501.808 1246.91 496.057 1250.08 489.241 1252.68L481.005 1245.51C485.975 1244 490.282 1242.2 493.927 1240.12C497.571 1238.03 500.719 1235.81 503.37 1233.44C506.068 1231.08 508.411 1228.71 510.399 1226.34C512.008 1224.5 513.523 1222.44 514.943 1220.17C516.41 1217.85 517.664 1215.55 518.706 1213.28C519.794 1210.96 520.552 1208.9 520.978 1207.1H496.98L500.246 1199.01H520.41C521.546 1199.01 522.658 1198.94 523.747 1198.79C524.883 1198.65 525.829 1198.46 526.587 1198.23L533.829 1202.7ZM510.399 1191.77C509.547 1193 508.695 1194.32 507.843 1195.74C507.038 1197.16 506.423 1198.25 505.997 1199.01C504.387 1201.85 502.352 1204.88 499.891 1208.1C497.429 1211.27 494.66 1214.37 491.584 1217.4C488.554 1220.43 485.336 1223.12 481.928 1225.49L474.26 1219.6C478.425 1216.99 481.951 1214.27 484.839 1211.43C487.773 1208.54 490.211 1205.78 492.152 1203.13C494.092 1200.43 495.654 1198.04 496.838 1195.95C497.406 1195.1 497.997 1193.97 498.613 1192.55C499.275 1191.08 499.772 1189.75 500.104 1188.57L510.399 1191.77Z" fill="black"/>
</svg>
