<svg width="1080" height="1920" viewBox="0 0 1080 1920" fill="none" xmlns="http://www.w3.org/2000/svg">
<path d="M1080 1920L1080 0L0 0L0 1920H1080Z" fill="#A5D4AD"/>
<path d="M1020 983.72V95C1020 75.67 1004.33 60 985 60H95.58C75.93 60 60 75.93 60 95.58V983.71C60 984.03 60.25 984.28 60.57 984.28C80.03 984.59 95.71 1000.46 95.71 1019.99C95.71 1039.52 80.03 1055.39 60.57 1055.7C60.25 1055.7 60 1055.96 60 1056.27V1824.99C60 1844.32 75.67 1859.99 95 1859.99H985C1004.33 1859.99 1020 1844.32 1020 1824.99V1056.27C1020 1055.95 1019.75 1055.7 1019.43 1055.7C999.97 1055.39 984.29 1039.52 984.29 1019.99C984.29 1000.46 999.97 984.59 1019.43 984.28C1019.75 984.28 1020 984.02 1020 983.71V983.72Z" fill="white"/>
<path d="M60.57 1055.71C60.25 1055.71 60 1055.97 60 1056.28V1825C60 1844.33 75.67 1860 95 1860H985C1004.33 1860 1020 1844.33 1020 1825V1056.28C1020 1055.96 1019.75 1055.71 1019.43 1055.71C999.97 1055.4 984.29 1039.53 984.29 1020H95.71C95.71 1039.53 80.03 1055.4 60.57 1055.71Z" fill="#E5F2E6"/>
<path d="M121 1020H160.9" stroke="black" stroke-width="6" stroke-miterlimit="10"/>
<path d="M187.51 1020H227.41" stroke="black" stroke-width="6" stroke-miterlimit="10"/>
<path d="M254.02 1020H293.92" stroke="black" stroke-width="6" stroke-miterlimit="10"/>
<path d="M320.52 1020H360.43" stroke="black" stroke-width="6" stroke-miterlimit="10"/>
<path d="M387.029 1020H426.939" stroke="black" stroke-width="6" stroke-miterlimit="10"/>
<path d="M453.539 1020H493.439" stroke="black" stroke-width="6" stroke-miterlimit="10"/>
<path d="M520.051 1020H559.951" stroke="black" stroke-width="6" stroke-miterlimit="10"/>
<path d="M586.561 1020H626.461" stroke="black" stroke-width="6" stroke-miterlimit="10"/>
<path d="M653.061 1020H692.971" stroke="black" stroke-width="6" stroke-miterlimit="10"/>
<path d="M719.57 1020H759.48" stroke="black" stroke-width="6" stroke-miterlimit="10"/>
<path d="M786.08 1020H825.98" stroke="black" stroke-width="6" stroke-miterlimit="10"/>
<path d="M852.59 1020H892.49" stroke="black" stroke-width="6" stroke-miterlimit="10"/>
<path d="M919.1 1020H959" stroke="black" stroke-width="6" stroke-miterlimit="10"/>
<path d="M1020 984.29V95C1020 75.67 1004.33 60 985 60H95C75.67 60 60 75.67 60 95V984.29C79.72 984.29 95.71 1000.28 95.71 1020C95.71 1039.72 79.72 1055.71 60 1055.71V1825C60 1844.33 75.67 1860 95 1860H985C1004.33 1860 1020 1844.33 1020 1825V1055.71C1000.28 1055.71 984.29 1039.72 984.29 1020C984.29 1000.28 1000.28 984.29 1020 984.29Z" stroke="black" stroke-width="6" stroke-miterlimit="10"/>
<path d="M912.649 525.666C908.779 525.666 905.539 522.646 905.319 518.736C900.589 435.626 868.789 358.856 813.369 296.746C810.669 293.716 810.929 289.066 813.959 286.366C816.989 283.666 821.629 283.926 824.339 286.956C881.999 351.576 915.069 431.436 919.999 517.896C920.229 521.946 917.129 525.426 913.079 525.656C912.939 525.656 912.799 525.666 912.659 525.666H912.649Z" fill="black"/>
<path d="M818.849 795.517C817.109 795.517 815.359 794.897 813.959 793.647C810.929 790.947 810.669 786.297 813.369 783.267C868.789 721.157 900.589 644.387 905.319 561.277C905.549 557.227 909.029 554.117 913.079 554.357C917.129 554.587 920.229 558.057 919.999 562.117C915.069 648.587 881.999 728.447 824.339 793.057C822.889 794.687 820.869 795.517 818.849 795.517Z" fill="black"/>
<path d="M167.36 525.666C167.22 525.666 167.08 525.666 166.94 525.656C162.89 525.426 159.79 521.956 160.02 517.896C164.95 431.426 198.02 351.566 255.68 286.956C258.38 283.926 263.03 283.666 266.06 286.366C269.09 289.066 269.35 293.716 266.65 296.746C211.23 358.856 179.43 435.616 174.7 518.736C174.48 522.646 171.24 525.666 167.37 525.666H167.36Z" fill="black"/>
<path d="M261.17 795.517C259.15 795.517 257.13 794.687 255.68 793.057C198.02 728.437 164.95 648.577 160.02 562.117C159.79 558.067 162.89 554.587 166.94 554.357C170.99 554.117 174.47 557.227 174.7 561.277C179.43 644.397 211.23 721.157 266.65 783.267C269.35 786.297 269.09 790.947 266.06 793.647C264.66 794.897 262.91 795.517 261.17 795.517Z" fill="black"/>
<path d="M788.169 268.511C786.429 268.511 784.679 267.891 783.279 266.641C721.169 211.221 644.399 179.421 561.289 174.691C557.239 174.461 554.139 170.991 554.369 166.931C554.599 162.881 558.039 159.791 562.129 160.011C648.599 164.941 728.459 198.011 793.069 255.671C796.099 258.371 796.359 263.021 793.659 266.051C792.209 267.681 790.189 268.511 788.169 268.511Z" fill="black"/>
<path d="M291.85 268.512C289.83 268.512 287.81 267.682 286.36 266.052C283.66 263.022 283.92 258.372 286.95 255.672C351.57 198.012 431.43 164.942 517.89 160.012C521.94 159.782 525.42 162.882 525.65 166.932C525.88 170.982 522.78 174.462 518.73 174.692C435.62 179.422 358.85 211.222 296.74 266.642C295.34 267.892 293.59 268.512 291.85 268.512Z" fill="black"/>
<path d="M561.69 920.006C557.82 920.006 554.58 916.986 554.36 913.076C554.13 909.026 557.23 905.546 561.28 905.316C644.4 900.586 721.16 868.786 783.27 813.366C786.3 810.666 790.95 810.926 793.65 813.956C796.35 816.986 796.09 821.636 793.06 824.336C728.44 881.996 648.58 915.066 562.12 919.996C561.98 919.996 561.84 920.006 561.7 920.006H561.69Z" fill="black"/>
<path d="M518.319 920.006C518.179 920.006 518.04 920.006 517.9 919.996C431.43 915.066 351.569 881.996 286.959 824.336C283.929 821.636 283.669 816.986 286.369 813.956C289.069 810.926 293.719 810.666 296.749 813.366C358.859 868.786 435.629 900.586 518.739 905.316C522.789 905.546 525.889 909.016 525.659 913.076C525.439 916.986 522.199 920.006 518.329 920.006H518.319Z" fill="black"/>
<path d="M875.38 526.189C872.37 526.189 869.85 523.839 869.68 520.799C865.41 445.789 836.71 376.519 786.7 320.459C784.6 318.099 784.8 314.489 787.16 312.389C789.51 310.289 793.13 310.489 795.23 312.849C846.98 370.849 876.68 442.539 881.1 520.149C881.28 523.299 878.87 525.999 875.72 526.179C875.61 526.179 875.5 526.179 875.39 526.179L875.38 526.189Z" fill="black"/>
<path d="M790.96 769.062C789.6 769.062 788.25 768.582 787.16 767.612C784.8 765.512 784.6 761.892 786.7 759.542C836.71 703.492 865.41 634.212 869.68 559.202C869.86 556.052 872.55 553.642 875.71 553.822C878.86 554.002 881.27 556.702 881.09 559.852C876.67 637.472 846.98 709.152 795.22 767.152C794.09 768.422 792.52 769.062 790.95 769.062H790.96Z" fill="black"/>
<path d="M204.63 526.187C204.52 526.187 204.41 526.187 204.3 526.187C201.15 526.007 198.74 523.307 198.92 520.157C203.34 442.537 233.03 370.857 284.79 312.857C286.89 310.497 290.51 310.297 292.86 312.397C295.22 314.497 295.42 318.117 293.32 320.467C243.31 376.517 214.61 445.797 210.34 520.807C210.17 523.847 207.65 526.197 204.64 526.197L204.63 526.187Z" fill="black"/>
<path d="M289.05 769.055C287.48 769.055 285.91 768.405 284.78 767.145C233.03 709.145 203.33 637.455 198.91 559.845C198.73 556.695 201.14 553.995 204.29 553.815C207.45 553.625 210.14 556.045 210.32 559.195C214.59 634.205 243.29 703.485 293.3 759.535C295.4 761.895 295.2 765.505 292.84 767.605C291.75 768.575 290.39 769.055 289.04 769.055H289.05Z" fill="black"/>
<path d="M763.35 294.756C761.99 294.756 760.64 294.276 759.55 293.306C703.5 243.296 634.22 214.596 559.21 210.326C556.06 210.146 553.65 207.446 553.83 204.296C554.01 201.146 556.7 198.736 559.86 198.916C637.48 203.336 709.16 233.026 767.16 284.786C769.52 286.886 769.72 290.506 767.62 292.856C766.49 294.126 764.92 294.766 763.35 294.766V294.756Z" fill="black"/>
<path d="M316.659 294.759C315.089 294.759 313.519 294.109 312.389 292.849C310.289 290.489 310.489 286.879 312.849 284.779C370.849 233.029 442.539 203.329 520.149 198.909C523.299 198.719 525.999 201.139 526.179 204.289C526.359 207.439 523.949 210.139 520.799 210.319C445.789 214.589 376.519 243.289 320.459 293.299C319.369 294.269 318.009 294.749 316.659 294.749V294.759Z" fill="black"/>
<path d="M559.53 881.102C556.52 881.102 554 878.752 553.83 875.712C553.65 872.562 556.06 869.862 559.21 869.682C634.22 865.412 703.49 836.712 759.55 786.702C761.9 784.602 765.52 784.802 767.62 787.162C769.72 789.522 769.52 793.132 767.16 795.232C709.16 846.982 637.47 876.682 559.86 881.102C559.75 881.102 559.64 881.102 559.53 881.102Z" fill="black"/>
<path d="M520.489 881.102C520.379 881.102 520.269 881.102 520.159 881.102C442.539 876.682 370.859 846.992 312.859 795.232C310.499 793.132 310.299 789.512 312.399 787.162C314.499 784.802 318.119 784.602 320.469 786.702C376.519 836.722 445.799 865.412 520.809 869.682C523.959 869.862 526.369 872.562 526.189 875.712C526.019 878.752 523.499 881.102 520.489 881.102Z" fill="black"/>
<path d="M841.849 526.514C839.699 526.514 837.899 524.834 837.779 522.664C833.919 454.914 807.999 392.344 762.829 341.714C761.329 340.034 761.479 337.454 763.159 335.944C764.839 334.444 767.419 334.584 768.929 336.274C815.349 388.294 841.979 452.584 845.939 522.194C846.069 524.444 844.349 526.374 842.089 526.504C842.009 526.504 841.929 526.504 841.849 526.504V526.514Z" fill="black"/>
<path d="M765.869 745.106C764.899 745.106 763.929 744.766 763.149 744.066C761.469 742.566 761.319 739.986 762.819 738.296C807.989 687.666 833.909 625.096 837.769 557.346C837.899 555.096 839.859 553.396 842.079 553.496C844.329 553.626 846.049 555.556 845.929 557.806C841.959 627.416 815.329 691.706 768.919 743.726C768.109 744.626 766.989 745.086 765.869 745.086V745.106Z" fill="black"/>
<path d="M238.17 526.516C238.09 526.516 238.01 526.516 237.93 526.516C235.68 526.386 233.96 524.456 234.08 522.206C238.05 452.596 264.68 388.306 311.09 336.286C312.59 334.606 315.17 334.456 316.86 335.956C318.54 337.456 318.69 340.036 317.19 341.726C272.02 392.356 246.1 454.926 242.24 522.676C242.12 524.846 240.32 526.526 238.17 526.526V526.516Z" fill="black"/>
<path d="M314.139 745.103C313.019 745.103 311.899 744.643 311.089 743.743C264.669 691.723 238.039 627.433 234.079 557.823C233.949 555.573 235.669 553.643 237.929 553.513C240.169 553.403 242.109 555.103 242.239 557.363C246.099 625.113 272.019 687.683 317.189 738.313C318.689 739.993 318.539 742.573 316.859 744.083C316.079 744.773 315.109 745.123 314.139 745.123V745.103Z" fill="black"/>
<path d="M741.018 318.225C740.048 318.225 739.078 317.885 738.298 317.185C687.668 272.015 625.098 246.095 557.348 242.235C555.098 242.105 553.378 240.175 553.498 237.925C553.628 235.675 555.548 233.965 557.808 234.075C627.418 238.045 691.708 264.675 743.738 311.085C745.418 312.585 745.568 315.165 744.068 316.855C743.258 317.755 742.138 318.215 741.018 318.215V318.225Z" fill="black"/>
<path d="M338.998 318.224C337.878 318.224 336.758 317.764 335.948 316.864C334.448 315.184 334.598 312.604 336.278 311.094C388.298 264.674 452.588 238.044 522.198 234.084C524.448 233.964 526.378 235.674 526.508 237.934C526.638 240.184 524.918 242.114 522.658 242.244C454.908 246.104 392.338 272.024 341.708 317.194C340.928 317.884 339.958 318.234 338.988 318.234L338.998 318.224Z" fill="black"/>
<path d="M557.569 845.933C555.419 845.933 553.619 844.253 553.499 842.083C553.369 839.833 555.089 837.903 557.349 837.773C625.099 833.913 687.669 807.993 738.299 762.823C739.979 761.323 742.559 761.473 744.069 763.153C745.569 764.833 745.419 767.413 743.739 768.923C691.719 815.343 627.429 841.973 557.809 845.933C557.729 845.933 557.649 845.933 557.569 845.933Z" fill="black"/>
<path d="M522.438 845.933C522.358 845.933 522.278 845.933 522.198 845.933C452.588 841.963 388.298 815.333 336.278 768.923C334.598 767.423 334.448 764.843 335.948 763.153C337.448 761.473 340.028 761.323 341.718 762.823C392.348 807.993 454.918 833.913 522.668 837.773C524.918 837.903 526.638 839.833 526.518 842.083C526.398 844.253 524.598 845.933 522.448 845.933H522.438Z" fill="black"/>
<path d="M320.65 546.174C320.65 544.604 321.79 543.274 323.34 543.024C324.64 542.814 326.27 542.524 327.98 542.124C332.4 541.084 337.59 539.114 343.41 536.274C349.29 533.404 354.92 529.414 359.17 523.674C366.34 513.974 367.86 501.404 368.19 496.894C368.26 495.974 367.53 495.194 366.6 495.194H317.09C315.33 495.194 313.91 493.764 313.91 492.014V470.694C313.91 468.934 315.34 467.514 317.09 467.514H367.07C367.95 467.514 368.66 466.804 368.66 465.924V447.184C368.66 446.304 367.95 445.594 367.07 445.594H328.62C326.86 445.594 325.44 444.164 325.44 442.414V421.094C325.44 419.334 326.87 417.914 328.62 417.914H428.96C430.72 417.914 432.14 419.344 432.14 421.094V442.414C432.14 444.174 430.71 445.594 428.96 445.594H398.52C397.64 445.594 396.93 446.304 396.93 447.184V465.924C396.93 466.804 397.64 467.514 398.52 467.514H438.58C440.34 467.514 441.76 468.944 441.76 470.694V492.014C441.76 493.774 440.33 495.194 438.58 495.194H398.39C397.54 495.194 396.84 495.864 396.8 496.714C396.57 501.754 395.15 518.444 386.18 532.854C380.73 541.614 373.65 548.264 366.54 553.544C359.41 558.844 352.26 562.934 345.27 565.704C338.24 568.494 332.34 570.444 327.75 571.514C326.66 571.764 325.49 571.994 324.4 572.184C322.45 572.534 320.66 571.034 320.66 569.044V546.164L320.65 546.174Z" fill="black"/>
<path d="M474.55 546.522C474.55 545.062 475.55 543.792 476.96 543.432C485.21 541.362 488.93 540.112 496.84 536.322C496.84 536.322 500.89 534.212 504.93 531.302C517.11 522.542 525.22 510.632 525.22 510.632C534.68 497.282 537.77 474.912 538.49 468.492C538.6 467.552 537.86 466.722 536.91 466.722H500.58C500.35 466.722 500.14 466.842 500.03 467.042L499.88 467.292C494.3 478.112 486.88 487.992 480.45 494.242C474 500.502 468.59 505.052 464.38 507.752L461.78 509.422C460.72 510.102 459.33 509.342 459.33 508.082V479.892C459.33 478.952 459.75 478.062 460.47 477.452C461.12 476.902 461.99 476.132 463.18 475.062C465.94 472.572 469.05 468.512 472.42 462.982C475.76 457.512 479.35 450.212 483.07 441.292C486.45 433.202 488.98 423.092 490.86 412.062C491.12 410.532 492.45 409.422 494 409.422H513.91C515.91 409.422 517.42 411.252 517.04 413.212C516.4 416.522 515.71 420.882 514.85 424.312C513.58 429.392 512.76 432.302 511.24 436.722C510.98 437.472 511.54 438.242 512.33 438.242H591.18C592.94 438.242 594.36 439.672 594.36 441.422V463.512C594.36 465.272 592.93 466.692 591.18 466.692H568.14C567.33 466.692 566.64 467.302 566.56 468.112C565.93 474.012 562.88 497.162 552.39 517.262C538.29 546.002 508.14 566.392 478.34 572.132C476.38 572.512 474.56 571.002 474.56 569.002V546.482L474.55 546.522Z" fill="black"/>
<path d="M675.9 411.035V468.875C675.9 469.755 676.61 470.465 677.49 470.465H764.52C765.4 470.465 766.11 469.755 766.11 468.875V411.035C766.11 410.155 765.4 409.445 764.52 409.445H677.49C676.61 409.445 675.9 410.155 675.9 411.035ZM738.46 452.745H702.3C701.42 452.745 700.71 452.035 700.71 451.155V446.875C700.71 445.995 701.42 445.285 702.3 445.285H738.46C739.34 445.285 740.05 445.995 740.05 446.875V451.155C740.05 452.035 739.34 452.745 738.46 452.745ZM738.46 434.455H702.3C701.42 434.455 700.71 433.745 700.71 432.865V428.755C700.71 427.875 701.42 427.165 702.3 427.165H738.46C739.34 427.165 740.05 427.875 740.05 428.755V432.865C740.05 433.745 739.34 434.455 738.46 434.455Z" fill="black"/>
<path d="M674.23 497.342H728.27C729.15 497.342 729.86 498.052 729.86 498.932V502.842C729.86 503.722 729.15 504.432 728.27 504.432H667.76C666 504.432 664.58 505.862 664.58 507.612V522.862C664.58 524.622 666.01 526.042 667.76 526.042H728.27C729.15 526.042 729.86 526.752 729.86 527.632V545.392C729.86 546.112 729.94 547.982 729.22 548.852C728.39 549.872 727.15 549.672 725.85 549.722C722.54 549.722 719.58 549.702 716.95 549.662C716.55 549.662 716.26 549.292 716.34 548.902C716.6 547.632 716.73 546.312 716.7 544.962C716.5 535.682 708.94 528.082 699.66 527.842C689.58 527.582 681.37 535.852 681.71 545.942C682.02 555.292 689.79 562.812 699.15 562.842C704.04 562.852 708.46 560.862 711.64 557.642C711.98 557.302 712.55 557.432 712.7 557.882C714.16 562.212 715.54 566.342 716.79 570.052C717.23 571.352 718.46 572.222 719.83 572.212C725.73 572.172 730.51 571.962 734.18 571.602C738.31 571.182 742.09 570.152 745.52 568.502C749.18 566.842 751.69 564.422 753.05 561.232C754.41 558.042 755.09 553.552 755.09 547.762V527.622C755.09 526.742 755.8 526.032 756.68 526.032H762.91C764.67 526.032 766.09 524.602 766.09 522.852V507.602C766.09 505.842 764.66 504.422 762.91 504.422H756.68C755.8 504.422 755.09 503.712 755.09 502.832V498.922C755.09 498.042 755.8 497.332 756.68 497.332H762.91C764.67 497.332 766.09 495.902 766.09 494.152V479.602C766.09 477.842 764.66 476.422 762.91 476.422H674.21C672.45 476.422 671.03 477.852 671.03 479.602V494.152C671.03 495.912 672.46 497.332 674.21 497.332L674.23 497.342Z" fill="black"/>
<path d="M668.83 409.445H650.26C649.4 409.445 648.58 409.795 647.98 410.405C635.23 423.355 618.29 434.575 612.13 438.485C610.78 439.335 610.28 441.065 610.95 442.505L620.7 463.575C621.63 465.575 624.26 466.055 625.83 464.505C646.12 444.465 664.45 419.805 670.12 411.965C670.88 410.915 670.12 409.445 668.83 409.445Z" fill="black"/>
<path d="M671.92 453.899V435.419C671.92 434.009 670.22 433.299 669.21 434.289C653.64 449.609 620.05 477.069 611.68 483.869C610.55 484.789 610.19 486.359 610.8 487.679L620.7 509.059C621.63 511.059 624.26 511.539 625.83 509.989C627.54 508.299 629.24 506.569 630.92 504.829C631.32 504.419 632.02 504.699 632.02 505.269V569.069C632.02 570.829 633.45 572.249 635.2 572.249H653.82C655.58 572.249 657 570.819 657 569.069V476.379C657 475.309 657.36 474.259 658.03 473.419C664.87 464.739 669.72 458.029 671.34 455.749C671.72 455.209 671.93 454.569 671.93 453.899H671.92Z" fill="black"/>
<path d="M653.271 623.338C640.851 623.338 634.811 628.288 634.811 638.478V655.608C634.811 665.678 640.851 670.568 653.271 670.568C659.141 670.568 663.481 669.488 666.561 667.278C670.001 664.808 671.741 660.878 671.741 655.598V638.468C671.741 628.278 665.701 623.328 653.281 623.328L653.271 623.338ZM646.091 639.308C646.091 633.938 648.841 632.918 653.271 632.918C657.701 632.918 660.451 633.958 660.451 639.308V654.688C660.451 659.958 657.601 660.988 653.271 660.988C648.941 660.988 646.091 659.988 646.091 654.688V639.308Z" fill="black"/>
<path d="M708.27 669.334H721.359L703.63 646.784L720.56 624.804H707.4L694.06 642.284V610.234H682.77V669.334H694.06V659.214L696.95 655.454L708.27 669.334Z" fill="black"/>
<path d="M754.82 624.805V653.295C754.82 659.045 751.88 660.895 746.83 660.895C743.56 660.895 740.28 660.355 740.28 653.885V624.815H729V656.775C729 665.745 733.71 670.485 742.62 670.485C749.3 670.485 753.88 666.865 755.58 662.805L757.39 669.345H766.11V624.815H754.83L754.82 624.805Z" fill="black"/>
<path d="M630.57 610.234H589.15V620.144V620.154H604.22V669.334H615.69V620.154H630.57V610.234Z" fill="black"/>
<path d="M459.689 669.334H472.779L455.049 646.784L471.979 624.804H458.819L445.479 642.284V610.234H434.199V669.334H445.479V659.214L448.369 655.454L459.689 669.334Z" fill="black"/>
<path d="M355.33 610.234H313.91V620.144V620.154H328.99V669.334H340.45V620.154H355.33V610.234Z" fill="black"/>
<path d="M421.8 658.896L421.2 659.046C417.62 659.966 413.29 660.896 409.41 660.896C404.86 660.896 401.69 658.826 401.69 652.836V640.976C401.69 634.906 404.86 632.826 409.41 632.826C413.36 632.826 417.88 633.706 421.23 634.406L421.81 634.526V625.196L421.5 625.126C417.69 624.236 412.05 623.336 407.53 623.336C402.01 623.336 397.97 624.406 395.17 626.596C391.97 629.096 390.42 633.856 390.42 639.346V654.646C390.42 664.776 396.02 670.566 407.54 670.566C411.41 670.566 417.27 669.496 421.53 668.316L421.82 668.236V658.886L421.8 658.896Z" fill="black"/>
<path d="M553.93 634.705V624.805H543.69V615.195H532.41V624.805H525.18V634.705H532.41V655.425C532.41 667.945 540.3 670.565 546.93 670.565C548.71 670.565 550.51 670.455 552.12 670.225V660.265C551.47 660.335 550.26 660.365 549.54 660.365C546.46 660.365 543.69 659.735 543.69 652.095V634.695H553.93V634.705Z" fill="black"/>
<path d="M489.741 650.742V650.562H515.171V641.482C515.171 635.572 513.551 630.243 510.361 627.343C507.421 624.673 502.781 623.312 497.261 623.312C485.081 623.312 478.461 629.223 478.461 639.593V654.453C478.461 664.703 483.841 670.552 496.321 670.552C500.981 670.552 506.291 669.563 511.971 668.403L512.361 668.323V659.052L511.711 659.203C507.141 660.253 504.621 661.143 500.291 661.143C494.081 661.143 489.741 658.623 489.741 652.203V650.722V650.742ZM489.741 639.722C489.741 634.072 493.801 632.742 497.171 632.742C500.541 632.742 504.071 634.072 504.071 639.722V643.232H489.741V642.713V639.722Z" fill="black"/>
<path d="M378.18 626.883H366.9V669.333H378.18V626.883Z" fill="black"/>
<path d="M372.54 622.224C376.422 622.224 379.57 619.077 379.57 615.194C379.57 611.312 376.422 608.164 372.54 608.164C368.657 608.164 365.51 611.312 365.51 615.194C365.51 619.077 368.657 622.224 372.54 622.224Z" fill="black"/>
<path d="M585.74 643.922H566.15V651.262H585.74V643.922Z" fill="black"/>
<path d="M739.981 1693C739.134 1693 738.408 1692.4 738.408 1691.43V1597.66C738.408 1596.93 739.013 1596.2 739.981 1596.2H784.267C785.235 1596.2 785.84 1596.81 785.84 1597.66V1607.09C785.84 1607.94 785.235 1608.55 784.267 1608.55H751.113V1638.43H783.178C784.025 1638.43 784.63 1639.04 784.63 1639.88V1649.08C784.63 1650.05 784.025 1650.77 783.178 1650.77H751.113V1691.43C751.113 1692.4 750.387 1693 749.54 1693H739.981Z" fill="black"/>
<path d="M671.329 1693C670.482 1693 669.756 1692.4 669.756 1691.43V1597.66C669.756 1596.93 670.361 1596.2 671.329 1596.2H715.615C716.583 1596.2 717.188 1596.81 717.188 1597.66V1607.09C717.188 1607.94 716.583 1608.55 715.615 1608.55H682.461V1638.43H714.526C715.373 1638.43 715.978 1639.04 715.978 1639.88V1649.08C715.978 1650.05 715.373 1650.77 714.526 1650.77H682.461V1691.43C682.461 1692.4 681.735 1693 680.888 1693H671.329Z" fill="black"/>
<path d="M601.772 1606.97C581.323 1606.97 564.867 1623.66 564.867 1644.48C564.867 1665.05 581.202 1682.23 601.651 1682.23C622.1 1682.23 638.798 1665.05 638.798 1644.6C638.798 1623.79 622.221 1606.97 601.772 1606.97ZM552.041 1644.48C552.041 1616.65 573.942 1594.38 601.772 1594.38C629.602 1594.38 651.624 1616.77 651.624 1644.6C651.624 1672.43 629.481 1694.81 601.651 1694.81C573.821 1694.81 552.041 1672.31 552.041 1644.48Z" fill="black"/>
<path d="M463.743 1692.27C463.501 1692.76 463.017 1693 462.533 1693H451.401C450.312 1693 449.586 1691.79 450.191 1690.82L503.915 1596.92C504.157 1596.44 504.641 1596.2 505.246 1596.2H516.378C517.709 1596.2 518.193 1597.41 517.588 1598.38L463.743 1692.27ZM432.646 1619.43C432.646 1605.51 443.536 1594.38 457.451 1594.38C471.487 1594.38 482.377 1605.51 482.377 1619.55C482.377 1633.47 471.245 1644.6 457.451 1644.6C443.415 1644.6 432.646 1633.47 432.646 1619.43ZM445.351 1619.43C445.351 1626.33 450.675 1632.01 457.451 1632.01C464.227 1632.01 469.672 1626.33 469.672 1619.55C469.672 1612.65 464.227 1607.21 457.451 1607.21C450.796 1607.21 445.351 1612.65 445.351 1619.43ZM487.217 1669.52C487.217 1655.61 498.107 1644.48 512.022 1644.48C526.058 1644.48 536.948 1655.61 536.948 1669.64C536.948 1683.56 525.816 1694.69 512.022 1694.69C497.986 1694.69 487.217 1683.56 487.217 1669.52ZM499.922 1669.52C499.922 1676.42 505.246 1682.11 512.022 1682.11C518.798 1682.11 524.243 1676.42 524.243 1669.64C524.243 1662.75 518.798 1657.3 512.022 1657.3C505.367 1657.3 499.922 1662.75 499.922 1669.52Z" fill="black"/>
<path d="M404.782 1644.48C404.782 1626.33 399.095 1606.72 383.97 1606.72C368.845 1606.72 363.158 1626.33 363.158 1644.48C363.158 1663.84 368.845 1682.47 383.97 1682.47C399.095 1682.47 404.782 1663.84 404.782 1644.48ZM350.453 1644.48C350.453 1620.28 359.77 1594.38 383.97 1594.38C408.17 1594.38 417.487 1620.28 417.487 1644.48C417.487 1671.1 408.17 1694.81 383.97 1694.81C359.77 1694.81 350.453 1671.1 350.453 1644.48Z" fill="black"/>
<path d="M324.821 1596.2C325.668 1596.2 326.273 1596.81 326.273 1597.66V1691.43C326.273 1692.28 325.668 1693 324.821 1693H315.141C314.294 1693 313.689 1692.28 313.689 1691.43V1608.55H298.564C297.233 1608.55 296.628 1607.21 297.233 1606.37L303.283 1596.81C303.525 1596.45 304.009 1596.2 304.493 1596.2H324.821Z" fill="black"/>
<path d="M663.4 1459.05C664.933 1459.25 666.65 1459.4 668.55 1459.5C670.483 1459.57 672.433 1459.6 674.4 1459.6C676.4 1459.57 678.316 1459.5 680.15 1459.4C681.983 1459.27 683.566 1459.13 684.9 1459V1465.45C683.366 1465.58 681.683 1465.7 679.85 1465.8C678.016 1465.87 676.133 1465.9 674.2 1465.9C672.266 1465.9 670.366 1465.87 668.5 1465.8C666.666 1465.7 664.966 1465.58 663.4 1465.45V1459.05ZM667.4 1480.4C667.2 1481.23 667.05 1481.98 666.95 1482.65C666.85 1483.28 666.8 1483.93 666.8 1484.6C666.8 1485.13 666.933 1485.63 667.2 1486.1C667.466 1486.53 667.866 1486.92 668.4 1487.25C668.966 1487.55 669.683 1487.78 670.55 1487.95C671.45 1488.08 672.533 1488.15 673.8 1488.15C676.033 1488.15 678.133 1488.05 680.1 1487.85C682.066 1487.62 684.15 1487.28 686.35 1486.85L686.45 1493.6C684.85 1493.9 683 1494.13 680.9 1494.3C678.833 1494.47 676.383 1494.55 673.55 1494.55C669.25 1494.55 666.05 1493.83 663.95 1492.4C661.85 1490.93 660.8 1488.92 660.8 1486.35C660.8 1485.38 660.866 1484.38 661 1483.35C661.166 1482.28 661.383 1481.12 661.65 1479.85L667.4 1480.4ZM655.7 1455.7C655.566 1456.03 655.416 1456.5 655.25 1457.1C655.083 1457.7 654.916 1458.28 654.75 1458.85C654.616 1459.42 654.516 1459.85 654.45 1460.15C654.35 1460.85 654.183 1461.77 653.95 1462.9C653.75 1464 653.533 1465.25 653.3 1466.65C653.1 1468.02 652.9 1469.42 652.7 1470.85C652.5 1472.28 652.333 1473.67 652.2 1475C652.1 1476.33 652.05 1477.5 652.05 1478.5C652.05 1478.97 652.05 1479.5 652.05 1480.1C652.083 1480.7 652.15 1481.25 652.25 1481.75C652.483 1481.18 652.733 1480.62 653 1480.05C653.266 1479.48 653.533 1478.92 653.8 1478.35C654.066 1477.75 654.3 1477.18 654.5 1476.65L657.6 1479.1C657.133 1480.47 656.65 1481.93 656.15 1483.5C655.683 1485.07 655.25 1486.55 654.85 1487.95C654.483 1489.32 654.2 1490.45 654 1491.35C653.933 1491.72 653.866 1492.13 653.8 1492.6C653.766 1493.07 653.75 1493.43 653.75 1493.7C653.75 1493.97 653.75 1494.28 653.75 1494.65C653.783 1495.05 653.816 1495.42 653.85 1495.75L648.05 1496.15C647.55 1494.42 647.1 1492.12 646.7 1489.25C646.3 1486.35 646.1 1483.2 646.1 1479.8C646.1 1477.93 646.183 1476.03 646.35 1474.1C646.516 1472.17 646.716 1470.32 646.95 1468.55C647.183 1466.75 647.4 1465.12 647.6 1463.65C647.833 1462.18 648.033 1460.97 648.2 1460C648.266 1459.3 648.35 1458.52 648.45 1457.65C648.583 1456.75 648.666 1455.9 648.7 1455.1L655.7 1455.7Z" fill="black"/>
<path d="M593.349 1459.55H638.699V1465.25H593.349V1459.55ZM610.049 1471.8H629.199V1477.45H610.049V1471.8ZM626.949 1471.8H633.149C633.149 1471.8 633.133 1471.96 633.099 1472.3C633.099 1472.6 633.099 1472.95 633.099 1473.35C633.099 1473.75 633.066 1474.1 632.999 1474.4C632.699 1478.96 632.366 1482.7 631.999 1485.6C631.633 1488.5 631.216 1490.76 630.749 1492.4C630.283 1494 629.716 1495.16 629.049 1495.9C628.283 1496.73 627.483 1497.3 626.649 1497.6C625.816 1497.9 624.816 1498.11 623.649 1498.25C622.683 1498.35 621.416 1498.38 619.849 1498.35C618.283 1498.35 616.666 1498.31 614.999 1498.25C614.966 1497.38 614.749 1496.38 614.349 1495.25C613.949 1494.15 613.449 1493.18 612.849 1492.35C614.583 1492.51 616.249 1492.61 617.849 1492.65C619.449 1492.68 620.599 1492.7 621.299 1492.7C621.866 1492.7 622.333 1492.66 622.699 1492.6C623.099 1492.5 623.449 1492.31 623.749 1492.05C624.283 1491.61 624.733 1490.66 625.099 1489.2C625.499 1487.73 625.849 1485.65 626.149 1482.95C626.449 1480.25 626.716 1476.83 626.949 1472.7V1471.8ZM607.799 1462.95H614.499C614.366 1465.61 614.149 1468.31 613.849 1471.05C613.583 1473.75 613.116 1476.43 612.449 1479.1C611.783 1481.73 610.816 1484.25 609.549 1486.65C608.283 1489.05 606.616 1491.28 604.549 1493.35C602.483 1495.41 599.866 1497.25 596.699 1498.85C596.266 1498.01 595.633 1497.11 594.799 1496.15C593.999 1495.18 593.216 1494.38 592.449 1493.75C595.349 1492.41 597.716 1490.86 599.549 1489.1C601.416 1487.3 602.883 1485.36 603.949 1483.3C605.016 1481.2 605.799 1479.01 606.299 1476.75C606.833 1474.48 607.183 1472.18 607.349 1469.85C607.549 1467.51 607.699 1465.21 607.799 1462.95ZM612.599 1451.3H618.849V1461.8H612.599V1451.3Z" fill="black"/>
<path d="M570.549 1459.75C570.216 1462.28 569.783 1464.98 569.249 1467.85C568.716 1470.72 567.999 1473.62 567.099 1476.55C566.133 1479.92 564.999 1482.82 563.699 1485.25C562.399 1487.68 560.966 1489.57 559.399 1490.9C557.866 1492.2 556.183 1492.85 554.349 1492.85C552.516 1492.85 550.816 1492.23 549.249 1491C547.716 1489.73 546.483 1488 545.549 1485.8C544.649 1483.6 544.199 1481.1 544.199 1478.3C544.199 1475.4 544.783 1472.67 545.949 1470.1C547.116 1467.53 548.733 1465.27 550.799 1463.3C552.899 1461.3 555.333 1459.73 558.099 1458.6C560.899 1457.47 563.916 1456.9 567.149 1456.9C570.249 1456.9 573.033 1457.4 575.499 1458.4C577.999 1459.4 580.133 1460.78 581.899 1462.55C583.666 1464.32 585.016 1466.38 585.949 1468.75C586.883 1471.12 587.349 1473.67 587.349 1476.4C587.349 1479.9 586.633 1483.03 585.199 1485.8C583.766 1488.57 581.633 1490.85 578.799 1492.65C575.999 1494.45 572.499 1495.68 568.299 1496.35L564.549 1490.4C565.516 1490.3 566.366 1490.18 567.099 1490.05C567.833 1489.92 568.533 1489.77 569.199 1489.6C570.799 1489.2 572.283 1488.63 573.649 1487.9C575.049 1487.13 576.266 1486.2 577.299 1485.1C578.333 1483.97 579.133 1482.65 579.699 1481.15C580.299 1479.65 580.599 1478 580.599 1476.2C580.599 1474.23 580.299 1472.43 579.699 1470.8C579.099 1469.17 578.216 1467.75 577.049 1466.55C575.883 1465.32 574.466 1464.38 572.799 1463.75C571.133 1463.08 569.216 1462.75 567.049 1462.75C564.383 1462.75 562.033 1463.23 559.999 1464.2C557.966 1465.13 556.249 1466.35 554.849 1467.85C553.449 1469.35 552.383 1470.97 551.649 1472.7C550.949 1474.43 550.599 1476.08 550.599 1477.65C550.599 1479.32 550.799 1480.72 551.199 1481.85C551.599 1482.95 552.083 1483.78 552.649 1484.35C553.249 1484.88 553.883 1485.15 554.549 1485.15C555.249 1485.15 555.933 1484.8 556.599 1484.1C557.299 1483.37 557.983 1482.27 558.649 1480.8C559.316 1479.33 559.983 1477.48 560.649 1475.25C561.416 1472.85 562.066 1470.28 562.599 1467.55C563.133 1464.82 563.516 1462.15 563.749 1459.55L570.549 1459.75Z" fill="black"/>
<path d="M502.45 1454.3H516.65V1460.4H502.45V1454.3ZM513.7 1454.3H519.9C519.9 1455.9 519.966 1457.71 520.1 1459.75C520.233 1461.75 520.516 1463.9 520.95 1466.2C521.383 1468.46 522.033 1470.8 522.9 1473.2C523.766 1475.6 524.916 1477.98 526.35 1480.35C527.816 1482.68 529.65 1484.93 531.85 1487.1C534.05 1489.26 536.683 1491.26 539.75 1493.1C539.316 1493.43 538.783 1493.91 538.15 1494.55C537.516 1495.18 536.9 1495.83 536.3 1496.5C535.733 1497.2 535.266 1497.81 534.9 1498.35C531.766 1496.41 529.05 1494.25 526.75 1491.85C524.45 1489.41 522.516 1486.85 520.95 1484.15C519.383 1481.41 518.116 1478.66 517.15 1475.9C516.183 1473.1 515.45 1470.38 514.95 1467.75C514.45 1465.08 514.116 1462.6 513.95 1460.3C513.783 1458 513.7 1456 513.7 1454.3ZM511.55 1465.3L518.4 1466.55C517.266 1471.48 515.75 1475.96 513.85 1480C511.95 1484.03 509.666 1487.58 507 1490.65C504.366 1493.71 501.316 1496.3 497.85 1498.4C497.483 1497.96 496.966 1497.43 496.3 1496.8C495.633 1496.2 494.933 1495.58 494.2 1494.95C493.5 1494.35 492.883 1493.86 492.35 1493.5C497.583 1490.86 501.75 1487.16 504.85 1482.4C507.95 1477.6 510.183 1471.9 511.55 1465.3Z" fill="black"/>
<path d="M461.8 1455.4H488.35V1459.6H461.8V1455.4ZM461 1467.45H489.3V1471.65H461V1467.45ZM460.75 1486.15H489.35V1490.4H460.75V1486.15ZM463 1461.45H487.6V1465.45H463V1461.45ZM467.25 1451.55H472.45V1469.3H467.25V1451.55ZM477.6 1451.55H482.9V1469.3H477.6V1451.55ZM472.45 1469.4H477.65V1487.35H472.45V1469.4ZM481.55 1473.55H487V1493.05C487 1494.28 486.85 1495.25 486.55 1495.95C486.283 1496.68 485.733 1497.25 484.9 1497.65C484.033 1498.05 483 1498.28 481.8 1498.35C480.633 1498.45 479.217 1498.5 477.55 1498.5C477.45 1497.76 477.25 1496.95 476.95 1496.05C476.65 1495.15 476.333 1494.36 476 1493.7C476.967 1493.73 477.917 1493.75 478.85 1493.75C479.817 1493.75 480.45 1493.75 480.75 1493.75C481.05 1493.75 481.25 1493.7 481.35 1493.6C481.483 1493.46 481.55 1493.26 481.55 1493V1473.55ZM463.4 1473.55H483.9V1477.75H468.75V1498.55H463.4V1473.55ZM466.05 1480H483.85V1483.75H466.05V1480ZM447.2 1486.15L452.4 1487.35C451.767 1489.45 450.917 1491.51 449.85 1493.55C448.783 1495.55 447.65 1497.23 446.45 1498.6C446.15 1498.3 445.717 1497.96 445.15 1497.6C444.583 1497.23 444.017 1496.86 443.45 1496.5C442.883 1496.13 442.4 1495.85 442 1495.65C443.133 1494.45 444.15 1493 445.05 1491.3C445.983 1489.6 446.7 1487.88 447.2 1486.15ZM453.05 1487.95L457.5 1486.05C458.333 1487.31 459.15 1488.71 459.95 1490.25C460.783 1491.75 461.417 1493.06 461.85 1494.2L457.2 1496.4C456.967 1495.63 456.617 1494.76 456.15 1493.8C455.717 1492.8 455.233 1491.8 454.7 1490.8C454.167 1489.76 453.617 1488.81 453.05 1487.95ZM449.9 1467.2V1471.9H454.85V1467.2H449.9ZM449.9 1476.3V1481H454.85V1476.3H449.9ZM449.9 1458.15V1462.75H454.85V1458.15H449.9ZM444.8 1453.4H460.1V1485.8H444.8V1453.4Z" fill="black"/>
<path d="M400.799 1458.15C402.633 1458.38 404.699 1458.55 406.999 1458.65C409.299 1458.75 411.766 1458.8 414.399 1458.8C416.066 1458.8 417.766 1458.77 419.499 1458.7C421.233 1458.63 422.916 1458.55 424.549 1458.45C426.183 1458.32 427.633 1458.2 428.899 1458.1V1464.75C427.733 1464.82 426.316 1464.9 424.649 1465C423.016 1465.1 421.299 1465.18 419.499 1465.25C417.733 1465.32 416.049 1465.35 414.449 1465.35C411.849 1465.35 409.433 1465.3 407.199 1465.2C404.966 1465.07 402.833 1464.93 400.799 1464.8V1458.15ZM404.999 1479.35C404.766 1480.22 404.566 1481.07 404.399 1481.9C404.233 1482.73 404.149 1483.57 404.149 1484.4C404.149 1486.03 404.949 1487.37 406.549 1488.4C408.183 1489.4 410.799 1489.9 414.399 1489.9C416.666 1489.9 418.849 1489.82 420.949 1489.65C423.083 1489.48 425.083 1489.27 426.949 1489C428.816 1488.7 430.483 1488.35 431.949 1487.95L431.999 1494.95C430.566 1495.28 428.933 1495.58 427.099 1495.85C425.299 1496.12 423.349 1496.32 421.249 1496.45C419.183 1496.62 416.983 1496.7 414.649 1496.7C410.816 1496.7 407.633 1496.27 405.099 1495.4C402.566 1494.57 400.649 1493.37 399.349 1491.8C398.083 1490.2 397.449 1488.25 397.449 1485.95C397.449 1484.52 397.566 1483.2 397.799 1482C398.033 1480.77 398.233 1479.68 398.399 1478.75L404.999 1479.35ZM430.199 1453C430.633 1453.6 431.083 1454.32 431.549 1455.15C432.049 1455.98 432.533 1456.82 432.999 1457.65C433.466 1458.48 433.866 1459.22 434.199 1459.85L430.149 1461.6C429.649 1460.57 429.033 1459.38 428.299 1458.05C427.599 1456.72 426.916 1455.57 426.249 1454.6L430.199 1453ZM436.149 1450.75C436.583 1451.38 437.049 1452.12 437.549 1452.95C438.049 1453.78 438.533 1454.62 438.999 1455.45C439.499 1456.25 439.899 1456.95 440.199 1457.55L436.199 1459.25C435.666 1458.22 435.033 1457.05 434.299 1455.75C433.566 1454.42 432.849 1453.28 432.149 1452.35L436.149 1450.75Z" fill="black"/>
<path d="M804.143 1376.9C803.976 1377.8 803.709 1378.97 803.343 1380.4C802.976 1381.83 802.443 1383.45 801.743 1385.25C801.209 1386.48 800.593 1387.77 799.893 1389.1C799.226 1390.4 798.543 1391.57 797.843 1392.6C798.276 1392.4 798.826 1392.23 799.493 1392.1C800.159 1391.93 800.843 1391.82 801.543 1391.75C802.276 1391.65 802.926 1391.6 803.493 1391.6C805.593 1391.6 807.326 1392.2 808.693 1393.4C810.093 1394.6 810.793 1396.38 810.793 1398.75C810.793 1399.42 810.793 1400.23 810.793 1401.2C810.826 1402.17 810.859 1403.18 810.893 1404.25C810.926 1405.28 810.959 1406.3 810.993 1407.3C811.026 1408.3 811.043 1409.2 811.043 1410H805.043C805.109 1409.43 805.143 1408.77 805.143 1408C805.176 1407.2 805.193 1406.37 805.193 1405.5C805.226 1404.63 805.243 1403.8 805.243 1403C805.276 1402.17 805.293 1401.42 805.293 1400.75C805.293 1399.15 804.859 1398.05 803.993 1397.45C803.159 1396.82 802.226 1396.5 801.193 1396.5C799.793 1396.5 798.376 1396.85 796.943 1397.55C795.543 1398.22 794.359 1399.02 793.393 1399.95C792.659 1400.68 791.909 1401.5 791.143 1402.4C790.409 1403.3 789.609 1404.32 788.743 1405.45L783.393 1401.45C785.559 1399.45 787.426 1397.52 788.993 1395.65C790.593 1393.78 791.943 1391.93 793.043 1390.1C794.143 1388.27 795.043 1386.43 795.743 1384.6C796.243 1383.27 796.643 1381.88 796.943 1380.45C797.276 1378.98 797.476 1377.62 797.543 1376.35L804.143 1376.9ZM785.343 1381.5C786.609 1381.7 788.076 1381.85 789.743 1381.95C791.409 1382.05 792.876 1382.1 794.143 1382.1C796.343 1382.1 798.743 1382.05 801.343 1381.95C803.976 1381.85 806.643 1381.68 809.343 1381.45C812.043 1381.18 814.609 1380.85 817.043 1380.45L816.993 1386.25C815.226 1386.48 813.309 1386.7 811.243 1386.9C809.209 1387.07 807.126 1387.22 804.993 1387.35C802.893 1387.45 800.876 1387.53 798.943 1387.6C797.009 1387.63 795.293 1387.65 793.793 1387.65C793.126 1387.65 792.293 1387.65 791.293 1387.65C790.326 1387.62 789.326 1387.58 788.293 1387.55C787.259 1387.48 786.276 1387.42 785.343 1387.35V1381.5ZM824.943 1395.7C824.409 1395.87 823.776 1396.08 823.043 1396.35C822.343 1396.58 821.626 1396.83 820.893 1397.1C820.193 1397.33 819.559 1397.57 818.993 1397.8C817.393 1398.43 815.493 1399.2 813.293 1400.1C811.126 1401 808.859 1402.05 806.493 1403.25C804.993 1404.05 803.726 1404.83 802.693 1405.6C801.659 1406.37 800.876 1407.15 800.343 1407.95C799.809 1408.72 799.543 1409.57 799.543 1410.5C799.543 1411.2 799.693 1411.78 799.993 1412.25C800.293 1412.68 800.743 1413.03 801.343 1413.3C801.943 1413.57 802.693 1413.75 803.593 1413.85C804.493 1413.95 805.559 1414 806.793 1414C808.926 1414 811.276 1413.88 813.843 1413.65C816.409 1413.38 818.793 1413.03 820.993 1412.6L820.793 1419.05C819.726 1419.18 818.376 1419.32 816.743 1419.45C815.109 1419.62 813.409 1419.73 811.643 1419.8C809.909 1419.87 808.243 1419.9 806.643 1419.9C804.043 1419.9 801.709 1419.65 799.643 1419.15C797.576 1418.65 795.943 1417.8 794.743 1416.6C793.576 1415.37 792.993 1413.68 792.993 1411.55C792.993 1409.82 793.376 1408.25 794.143 1406.85C794.943 1405.45 795.993 1404.18 797.293 1403.05C798.593 1401.92 800.009 1400.9 801.543 1400C803.109 1399.07 804.643 1398.22 806.143 1397.45C807.676 1396.65 809.059 1395.97 810.293 1395.4C811.526 1394.83 812.676 1394.33 813.743 1393.9C814.843 1393.43 815.893 1392.97 816.893 1392.5C817.859 1392.07 818.793 1391.65 819.693 1391.25C820.593 1390.82 821.509 1390.37 822.443 1389.9L824.943 1395.7Z" fill="black"/>
<path d="M746.044 1382.25V1388.95H763.644V1382.25H746.044ZM740.244 1376.5H769.744V1394.65H740.244V1376.5ZM733.344 1398.85H752.494V1421.2H746.494V1404.6H739.044V1421.5H733.344V1398.85ZM756.694 1398.85H776.494V1421.25H770.494V1404.6H762.444V1421.5H756.694V1398.85ZM735.844 1413.2H748.994V1418.95H735.844V1413.2ZM759.444 1413.2H773.444V1418.95H759.444V1413.2Z" fill="black"/>
<path d="M701.843 1398.9H707.843V1404.25H701.843V1398.9ZM701.693 1403.4L706.293 1405.4C705.06 1406.57 703.627 1407.65 701.993 1408.65C700.36 1409.62 698.593 1410.5 696.693 1411.3C694.827 1412.1 692.86 1412.8 690.793 1413.4C688.76 1414 686.71 1414.48 684.643 1414.85C684.277 1414.22 683.777 1413.48 683.143 1412.65C682.543 1411.78 681.977 1411.08 681.443 1410.55C683.41 1410.28 685.377 1409.93 687.343 1409.5C689.31 1409.03 691.193 1408.5 692.993 1407.9C694.793 1407.3 696.427 1406.63 697.893 1405.9C699.393 1405.13 700.66 1404.3 701.693 1403.4ZM708.343 1403.15C709.777 1406.92 712.143 1409.95 715.443 1412.25C718.777 1414.52 723.093 1416.03 728.393 1416.8C727.793 1417.37 727.177 1418.12 726.543 1419.05C725.943 1420.02 725.46 1420.87 725.093 1421.6C721.26 1420.87 717.943 1419.73 715.143 1418.2C712.377 1416.7 710.027 1414.8 708.093 1412.5C706.193 1410.17 704.643 1407.38 703.443 1404.15L708.343 1403.15ZM721.493 1405.7L725.743 1408.8C724.177 1409.87 722.477 1410.88 720.643 1411.85C718.843 1412.82 717.16 1413.63 715.593 1414.3L711.993 1411.35C713.027 1410.88 714.11 1410.33 715.243 1409.7C716.41 1409.03 717.543 1408.35 718.643 1407.65C719.743 1406.95 720.693 1406.3 721.493 1405.7ZM687.943 1416.1C689.71 1415.93 691.727 1415.72 693.993 1415.45C696.26 1415.15 698.643 1414.83 701.143 1414.5C703.677 1414.13 706.193 1413.78 708.693 1413.45L708.943 1418.15C705.41 1418.65 701.86 1419.15 698.293 1419.65C694.727 1420.15 691.577 1420.6 688.843 1421L687.943 1416.1ZM682.293 1401.55H727.443V1406.3H682.293V1401.55ZM709.393 1376.55H714.743V1393.25H709.393V1376.55ZM720.193 1374.9H725.593V1395C725.593 1396.27 725.427 1397.25 725.093 1397.95C724.793 1398.65 724.193 1399.2 723.293 1399.6C722.427 1399.97 721.36 1400.2 720.093 1400.3C718.827 1400.37 717.327 1400.4 715.593 1400.4C715.46 1399.67 715.21 1398.85 714.843 1397.95C714.51 1397.05 714.177 1396.28 713.843 1395.65C714.943 1395.68 716.027 1395.72 717.093 1395.75C718.16 1395.75 718.877 1395.73 719.243 1395.7C719.61 1395.67 719.86 1395.6 719.993 1395.5C720.127 1395.37 720.193 1395.15 720.193 1394.85V1374.9ZM692.543 1374.5H697.643V1400.35H692.543V1374.5ZM701.693 1389.35H706.493V1395.05C706.493 1395.98 706.377 1396.7 706.143 1397.2C705.943 1397.7 705.51 1398.12 704.843 1398.45C704.243 1398.72 703.527 1398.88 702.693 1398.95C701.893 1398.98 700.943 1399 699.843 1399C699.743 1398.43 699.543 1397.83 699.243 1397.2C698.943 1396.57 698.677 1396.02 698.443 1395.55C699.01 1395.58 699.543 1395.6 700.043 1395.6C700.577 1395.6 700.927 1395.6 701.093 1395.6C701.493 1395.6 701.693 1395.42 701.693 1395.05V1389.35ZM684.243 1389.35H703.643V1392.95H688.743V1399.2H684.243V1389.35ZM682.193 1383.55H707.243V1387.6H682.193V1383.55ZM687.643 1377.75H705.943V1381.6H686.143L687.643 1377.75ZM686.043 1374.6L690.493 1375.7C689.96 1377.23 689.293 1378.77 688.493 1380.3C687.727 1381.8 686.91 1383.07 686.043 1384.1C685.61 1383.73 684.977 1383.33 684.143 1382.9C683.343 1382.43 682.677 1382.07 682.143 1381.8C683.01 1380.87 683.777 1379.75 684.443 1378.45C685.11 1377.15 685.643 1375.87 686.043 1374.6ZM692.943 1411.35L696.093 1408.2L698.693 1409.05V1418.8H692.943V1411.35Z" fill="black"/>
<path d="M659.393 1382.75C659.06 1385.28 658.626 1387.98 658.093 1390.85C657.56 1393.72 656.843 1396.62 655.943 1399.55C654.976 1402.92 653.843 1405.82 652.543 1408.25C651.243 1410.68 649.81 1412.57 648.243 1413.9C646.71 1415.2 645.026 1415.85 643.193 1415.85C641.36 1415.85 639.66 1415.23 638.093 1414C636.56 1412.73 635.326 1411 634.393 1408.8C633.493 1406.6 633.043 1404.1 633.043 1401.3C633.043 1398.4 633.626 1395.67 634.793 1393.1C635.96 1390.53 637.576 1388.27 639.643 1386.3C641.743 1384.3 644.176 1382.73 646.943 1381.6C649.743 1380.47 652.76 1379.9 655.993 1379.9C659.093 1379.9 661.876 1380.4 664.343 1381.4C666.843 1382.4 668.976 1383.78 670.743 1385.55C672.51 1387.32 673.86 1389.38 674.793 1391.75C675.726 1394.12 676.193 1396.67 676.193 1399.4C676.193 1402.9 675.476 1406.03 674.043 1408.8C672.61 1411.57 670.476 1413.85 667.643 1415.65C664.843 1417.45 661.343 1418.68 657.143 1419.35L653.393 1413.4C654.36 1413.3 655.21 1413.18 655.943 1413.05C656.676 1412.92 657.376 1412.77 658.043 1412.6C659.643 1412.2 661.126 1411.63 662.493 1410.9C663.893 1410.13 665.11 1409.2 666.143 1408.1C667.176 1406.97 667.976 1405.65 668.543 1404.15C669.143 1402.65 669.443 1401 669.443 1399.2C669.443 1397.23 669.143 1395.43 668.543 1393.8C667.943 1392.17 667.06 1390.75 665.893 1389.55C664.726 1388.32 663.31 1387.38 661.643 1386.75C659.976 1386.08 658.06 1385.75 655.893 1385.75C653.226 1385.75 650.876 1386.23 648.843 1387.2C646.81 1388.13 645.093 1389.35 643.693 1390.85C642.293 1392.35 641.226 1393.97 640.493 1395.7C639.793 1397.43 639.443 1399.08 639.443 1400.65C639.443 1402.32 639.643 1403.72 640.043 1404.85C640.443 1405.95 640.926 1406.78 641.493 1407.35C642.093 1407.88 642.726 1408.15 643.393 1408.15C644.093 1408.15 644.776 1407.8 645.443 1407.1C646.143 1406.37 646.826 1405.27 647.493 1403.8C648.16 1402.33 648.826 1400.48 649.493 1398.25C650.26 1395.85 650.91 1393.28 651.443 1390.55C651.976 1387.82 652.36 1385.15 652.593 1382.55L659.393 1382.75Z" fill="black"/>
<path d="M591.794 1381.8H604.044V1387.5H591.794V1381.8ZM612.694 1374.65H618.944V1421.4H612.694V1374.65ZM586.244 1396.65L589.294 1392.15C590.527 1392.82 591.827 1393.6 593.194 1394.5C594.594 1395.4 595.91 1396.3 597.144 1397.2C598.377 1398.1 599.377 1398.97 600.144 1399.8L596.894 1404.85C596.194 1404.02 595.244 1403.12 594.044 1402.15C592.844 1401.15 591.56 1400.17 590.194 1399.2C588.827 1398.24 587.51 1397.39 586.244 1396.65ZM592.394 1374.45L598.394 1375.7C597.527 1379.07 596.444 1382.3 595.144 1385.4C593.877 1388.5 592.427 1391.37 590.794 1394C589.194 1396.6 587.46 1398.87 585.594 1400.8C585.26 1400.44 584.777 1400.02 584.144 1399.55C583.544 1399.05 582.927 1398.57 582.294 1398.1C581.66 1397.6 581.094 1397.22 580.594 1396.95C582.46 1395.25 584.144 1393.24 585.644 1390.9C587.144 1388.57 588.46 1386 589.594 1383.2C590.727 1380.37 591.66 1377.45 592.394 1374.45ZM609.594 1386.65C610.594 1388.49 611.794 1390.3 613.194 1392.1C614.627 1393.87 616.21 1395.55 617.944 1397.15C619.677 1398.75 621.51 1400.2 623.444 1401.5C625.41 1402.8 627.394 1403.92 629.394 1404.85C628.96 1405.25 628.46 1405.77 627.894 1406.4C627.327 1407 626.794 1407.64 626.294 1408.3C625.794 1408.94 625.377 1409.52 625.044 1410.05C622.944 1408.95 620.91 1407.64 618.944 1406.1C617.01 1404.57 615.16 1402.87 613.394 1401C611.627 1399.14 609.994 1397.15 608.494 1395.05C607.027 1392.95 605.71 1390.79 604.544 1388.55L609.594 1386.65ZM602.344 1381.8H603.494L604.544 1381.6L608.494 1382.95C607.494 1389.39 605.977 1395.09 603.944 1400.05C601.944 1405.02 599.494 1409.25 596.594 1412.75C593.694 1416.22 590.444 1418.99 586.844 1421.05C586.51 1420.62 586.06 1420.1 585.494 1419.5C584.927 1418.94 584.327 1418.37 583.694 1417.8C583.094 1417.27 582.544 1416.85 582.044 1416.55C585.61 1414.69 588.777 1412.24 591.544 1409.2C594.31 1406.14 596.61 1402.44 598.444 1398.1C600.277 1393.77 601.577 1388.79 602.344 1383.15V1381.8Z" fill="black"/>
<path d="M547.343 1383.15L552.893 1380.5C553.959 1381.7 555.009 1383.02 556.043 1384.45C557.076 1385.88 557.993 1387.3 558.793 1388.7C559.626 1390.07 560.293 1391.33 560.793 1392.5L554.893 1395.65C554.493 1394.52 553.893 1393.22 553.093 1391.75C552.293 1390.25 551.393 1388.75 550.393 1387.25C549.393 1385.75 548.376 1384.38 547.343 1383.15ZM531.143 1409.4C532.843 1408.83 534.809 1408.12 537.043 1407.25C539.309 1406.38 541.676 1405.45 544.143 1404.45C546.643 1403.45 549.109 1402.45 551.543 1401.45L552.943 1407.3C550.709 1408.3 548.443 1409.3 546.143 1410.3C543.843 1411.3 541.576 1412.27 539.343 1413.2C537.143 1414.13 535.093 1415 533.193 1415.8L531.143 1409.4ZM560.443 1404.95L565.043 1400.7C566.176 1401.9 567.393 1403.18 568.693 1404.55C570.026 1405.92 571.326 1407.32 572.593 1408.75C573.893 1410.15 575.093 1411.52 576.193 1412.85C577.293 1414.15 578.193 1415.35 578.893 1416.45L573.743 1421.45C573.109 1420.32 572.259 1419.05 571.193 1417.65C570.159 1416.28 569.026 1414.87 567.793 1413.4C566.593 1411.93 565.343 1410.48 564.043 1409.05C562.776 1407.58 561.576 1406.22 560.443 1404.95ZM567.243 1377.4L573.893 1378C573.293 1383.67 572.426 1388.78 571.293 1393.35C570.159 1397.88 568.643 1401.93 566.743 1405.5C564.843 1409.03 562.443 1412.13 559.543 1414.8C556.676 1417.47 553.193 1419.72 549.093 1421.55C548.793 1421.12 548.359 1420.57 547.793 1419.9C547.226 1419.23 546.626 1418.55 545.993 1417.85C545.359 1417.18 544.793 1416.65 544.293 1416.25C548.293 1414.72 551.643 1412.8 554.343 1410.5C557.076 1408.2 559.309 1405.47 561.043 1402.3C562.776 1399.1 564.126 1395.45 565.093 1391.35C566.059 1387.22 566.776 1382.57 567.243 1377.4ZM536.793 1377.6L543.093 1377.35L544.243 1409.85L537.943 1410.1L536.793 1377.6Z" fill="black"/>
<path d="M484.443 1393.85C485.043 1393.88 485.81 1393.93 486.743 1394C487.677 1394.03 488.643 1394.07 489.643 1394.1C490.677 1394.13 491.627 1394.15 492.493 1394.15C493.327 1394.15 494.36 1394.15 495.593 1394.15C496.827 1394.15 498.16 1394.15 499.593 1394.15C501.06 1394.15 502.56 1394.15 504.093 1394.15C505.66 1394.15 507.21 1394.15 508.743 1394.15C510.277 1394.15 511.727 1394.15 513.093 1394.15C514.46 1394.15 515.677 1394.15 516.743 1394.15C517.843 1394.15 518.71 1394.15 519.343 1394.15C520.51 1394.15 521.61 1394.12 522.643 1394.05C523.677 1393.95 524.527 1393.88 525.193 1393.85V1401.7C524.627 1401.67 523.777 1401.62 522.643 1401.55C521.51 1401.48 520.41 1401.45 519.343 1401.45C518.71 1401.45 517.843 1401.45 516.743 1401.45C515.643 1401.45 514.41 1401.45 513.043 1401.45C511.677 1401.45 510.227 1401.45 508.693 1401.45C507.193 1401.45 505.66 1401.45 504.093 1401.45C502.527 1401.45 501.01 1401.45 499.543 1401.45C498.11 1401.45 496.777 1401.45 495.543 1401.45C494.343 1401.45 493.327 1401.45 492.493 1401.45C491.06 1401.45 489.593 1401.48 488.093 1401.55C486.593 1401.58 485.377 1401.63 484.443 1401.7V1393.85Z" fill="black"/>
<path d="M467.793 1393.15C467.659 1393.48 467.559 1393.85 467.493 1394.25C467.426 1394.65 467.359 1394.98 467.293 1395.25C467.193 1395.95 467.043 1396.91 466.843 1398.15C466.676 1399.38 466.476 1400.75 466.243 1402.25C466.043 1403.71 465.826 1405.2 465.593 1406.7C465.359 1408.2 465.143 1409.56 464.943 1410.8C464.776 1412.03 464.626 1413.01 464.493 1413.75H457.643C457.776 1413.05 457.926 1412.16 458.093 1411.1C458.259 1410 458.443 1408.81 458.643 1407.55C458.876 1406.25 459.076 1404.95 459.243 1403.65C459.443 1402.35 459.609 1401.15 459.743 1400.05C459.876 1398.95 459.959 1398.06 459.993 1397.4C459.526 1397.4 458.809 1397.4 457.843 1397.4C456.909 1397.4 455.843 1397.4 454.643 1397.4C453.476 1397.4 452.309 1397.4 451.143 1397.4C450.009 1397.4 449.026 1397.4 448.193 1397.4C447.359 1397.4 446.793 1397.4 446.493 1397.4C445.693 1397.4 444.826 1397.43 443.893 1397.5C442.993 1397.53 442.193 1397.58 441.493 1397.65V1391.05C441.926 1391.11 442.443 1391.16 443.043 1391.2C443.643 1391.23 444.243 1391.26 444.843 1391.3C445.476 1391.33 446.009 1391.35 446.443 1391.35C446.943 1391.35 447.626 1391.35 448.493 1391.35C449.359 1391.35 450.309 1391.35 451.343 1391.35C452.376 1391.35 453.409 1391.35 454.443 1391.35C455.476 1391.35 456.409 1391.35 457.243 1391.35C458.109 1391.35 458.776 1391.35 459.243 1391.35C459.609 1391.35 460.043 1391.33 460.543 1391.3C461.043 1391.26 461.526 1391.21 461.993 1391.15C462.459 1391.05 462.776 1390.93 462.943 1390.8L467.793 1393.15ZM436.893 1411.3C437.559 1411.36 438.326 1411.43 439.193 1411.5C440.093 1411.53 440.976 1411.55 441.843 1411.55C442.343 1411.55 443.259 1411.55 444.593 1411.55C445.959 1411.55 447.559 1411.55 449.393 1411.55C451.259 1411.55 453.176 1411.55 455.143 1411.55C457.143 1411.55 459.043 1411.55 460.843 1411.55C462.676 1411.55 464.243 1411.55 465.543 1411.55C466.843 1411.55 467.676 1411.55 468.043 1411.55C468.676 1411.55 469.493 1411.53 470.493 1411.5C471.493 1411.46 472.309 1411.41 472.943 1411.35V1417.8C472.609 1417.76 472.143 1417.73 471.543 1417.7C470.976 1417.7 470.376 1417.68 469.743 1417.65C469.143 1417.65 468.609 1417.65 468.143 1417.65C467.743 1417.65 466.876 1417.65 465.543 1417.65C464.209 1417.65 462.626 1417.65 460.793 1417.65C458.959 1417.65 457.026 1417.65 454.993 1417.65C452.993 1417.65 451.059 1417.65 449.193 1417.65C447.359 1417.65 445.776 1417.65 444.443 1417.65C443.109 1417.65 442.243 1417.65 441.843 1417.65C440.976 1417.65 440.176 1417.65 439.443 1417.65C438.709 1417.68 437.859 1417.73 436.893 1417.8V1411.3Z" fill="black"/>
<path d="M388.343 1383.05C389.243 1383.15 390.226 1383.23 391.293 1383.3C392.393 1383.33 393.359 1383.35 394.193 1383.35C394.893 1383.35 395.826 1383.35 396.993 1383.35C398.159 1383.35 399.443 1383.35 400.843 1383.35C402.243 1383.35 403.659 1383.35 405.093 1383.35C406.559 1383.35 407.943 1383.35 409.243 1383.35C410.576 1383.35 411.743 1383.35 412.743 1383.35C413.743 1383.35 414.459 1383.35 414.893 1383.35C415.893 1383.35 416.893 1383.31 417.893 1383.25C418.893 1383.18 419.743 1383.11 420.443 1383.05V1390.3C419.743 1390.26 418.859 1390.23 417.793 1390.2C416.726 1390.13 415.759 1390.1 414.893 1390.1C414.459 1390.1 413.709 1390.1 412.643 1390.1C411.609 1390.1 410.393 1390.1 408.993 1390.1C407.593 1390.1 406.126 1390.1 404.593 1390.1C403.093 1390.1 401.643 1390.1 400.243 1390.1C398.843 1390.1 397.609 1390.1 396.543 1390.1C395.476 1390.1 394.709 1390.1 394.243 1390.1C393.276 1390.1 392.259 1390.11 391.193 1390.15C390.126 1390.18 389.176 1390.23 388.343 1390.3V1383.05ZM384.143 1407.5C385.143 1407.56 386.176 1407.63 387.243 1407.7C388.343 1407.76 389.393 1407.8 390.393 1407.8C390.826 1407.8 391.626 1407.8 392.793 1407.8C393.959 1407.8 395.326 1407.8 396.893 1407.8C398.493 1407.8 400.209 1407.8 402.043 1407.8C403.876 1407.8 405.693 1407.8 407.493 1407.8C409.326 1407.8 411.026 1407.8 412.593 1407.8C414.193 1407.8 415.559 1407.8 416.693 1407.8C417.859 1407.8 418.659 1407.8 419.093 1407.8C419.959 1407.8 420.876 1407.78 421.843 1407.75C422.843 1407.68 423.759 1407.6 424.593 1407.5V1415.15C423.726 1415.05 422.776 1414.98 421.743 1414.95C420.709 1414.88 419.826 1414.85 419.093 1414.85C418.659 1414.85 417.859 1414.85 416.693 1414.85C415.559 1414.85 414.193 1414.85 412.593 1414.85C411.026 1414.85 409.326 1414.85 407.493 1414.85C405.693 1414.85 403.876 1414.85 402.043 1414.85C400.209 1414.85 398.493 1414.85 396.893 1414.85C395.326 1414.85 393.959 1414.85 392.793 1414.85C391.626 1414.85 390.826 1414.85 390.393 1414.85C389.393 1414.85 388.326 1414.88 387.193 1414.95C386.093 1414.98 385.076 1415.05 384.143 1415.15V1407.5Z" fill="black"/>
<path d="M371.992 1380.25C371.659 1380.82 371.292 1381.57 370.892 1382.5C370.492 1383.4 370.159 1384.15 369.892 1384.75C369.292 1386.42 368.542 1388.23 367.642 1390.2C366.742 1392.13 365.726 1394.08 364.592 1396.05C363.459 1398.02 362.209 1399.9 360.842 1401.7C359.309 1403.73 357.559 1405.78 355.592 1407.85C353.659 1409.88 351.442 1411.88 348.942 1413.85C346.442 1415.82 343.576 1417.7 340.342 1419.5L334.742 1414.45C339.309 1412.25 343.242 1409.77 346.542 1407C349.842 1404.2 352.792 1401.07 355.392 1397.6C357.426 1395.03 359.042 1392.47 360.242 1389.9C361.476 1387.3 362.509 1384.75 363.342 1382.25C363.609 1381.58 363.842 1380.82 364.042 1379.95C364.276 1379.05 364.442 1378.28 364.542 1377.65L371.992 1380.25ZM344.492 1385.1C345.759 1385.87 347.092 1386.73 348.492 1387.7C349.926 1388.63 351.359 1389.6 352.792 1390.6C354.259 1391.6 355.642 1392.58 356.942 1393.55C358.276 1394.52 359.476 1395.4 360.542 1396.2C363.209 1398.3 365.809 1400.48 368.342 1402.75C370.876 1405.02 373.159 1407.23 375.192 1409.4L370.042 1415.1C367.842 1412.57 365.609 1410.23 363.342 1408.1C361.076 1405.93 358.626 1403.75 355.992 1401.55C355.092 1400.78 354.059 1399.95 352.892 1399.05C351.726 1398.15 350.459 1397.2 349.092 1396.2C347.759 1395.2 346.342 1394.2 344.842 1393.2C343.342 1392.17 341.809 1391.17 340.242 1390.2L344.492 1385.1Z" fill="black"/>
<path d="M327.532 1392.65C327.832 1392.85 327.882 1393.15 327.732 1393.45L325.982 1397C325.682 1397.6 325.332 1397.45 325.032 1397.25C323.882 1396.6 323.732 1396.35 322.782 1396.35C321.682 1396.35 320.832 1397.3 320.332 1398.5C319.782 1399.8 319.682 1401.85 319.682 1403.35V1416.35C319.682 1416.7 319.432 1417 319.082 1417H315.182C314.832 1417 314.582 1416.7 314.582 1416.35V1392.6C314.582 1392.25 314.882 1392 315.182 1392H319.132C319.482 1392 319.732 1392.25 319.732 1392.6V1393.65C319.982 1392.85 321.432 1391.25 323.332 1391.25C324.732 1391.25 326.232 1391.85 327.532 1392.65Z" fill="black"/>
<path d="M303.074 1404.4C303.074 1399.9 299.774 1396.2 295.374 1396.2C291.174 1396.2 287.774 1399.6 287.774 1404.45C287.774 1409.4 291.074 1412.7 295.324 1412.8C299.074 1412.9 303.074 1409.85 303.074 1404.4ZM282.574 1404.45C282.574 1396.75 288.324 1391.25 295.074 1391.25C298.524 1391.25 301.324 1392.65 302.924 1394.3V1392.75C302.924 1392.35 303.174 1392 303.524 1392H307.424C307.874 1392 308.074 1392.4 308.074 1392.75V1416.3C308.074 1416.65 307.874 1417 307.474 1417H303.524C303.174 1417 302.924 1416.65 302.924 1416.3V1414.6C301.874 1415.95 298.724 1417.75 295.074 1417.75C287.824 1417.75 282.574 1411.8 282.574 1404.45Z" fill="black"/>
<path d="M264.656 1411.7C270.306 1411.7 273.456 1409.8 273.456 1405.35C273.456 1400.9 269.906 1399.1 264.656 1399.1H263.656V1411.7H264.656ZM258.406 1416.25V1377.8C258.406 1377.4 258.756 1377 259.206 1377H263.656C272.056 1377 277.406 1380.85 277.406 1388C277.406 1391.65 275.356 1395.05 272.856 1396.5C276.006 1397.6 278.806 1401.2 278.806 1405.35C278.806 1412.55 274.456 1417 263.656 1417H259.106C258.706 1417 258.406 1416.65 258.406 1416.25ZM263.656 1394.35H264.656C269.906 1394.35 272.106 1391.65 272.106 1388C272.106 1383.05 268.206 1382.1 264.656 1382.1H263.656V1394.35Z" fill="black"/>
<path d="M832.384 1226.25H871.505V1234.48H832.384V1226.25ZM828.55 1205.8H876.049V1237.25H866.89V1213.96H837.283V1237.32H828.55V1205.8ZM842.466 1170.16L852.193 1173.35C850.631 1176.24 848.951 1179.2 847.152 1182.23C845.401 1185.21 843.626 1188.05 841.827 1190.75C840.028 1193.4 838.324 1195.76 836.715 1197.85L829.047 1194.72C830.656 1192.54 832.289 1190.06 833.946 1187.27C835.603 1184.43 837.165 1181.52 838.632 1178.53C840.147 1175.55 841.425 1172.76 842.466 1170.16ZM859.506 1182.79L866.251 1177.82C868.618 1179.72 871.032 1181.85 873.493 1184.21C876.002 1186.53 878.297 1188.9 880.38 1191.31C882.51 1193.68 884.19 1195.88 885.421 1197.92L878.037 1203.6C876.901 1201.56 875.315 1199.34 873.28 1196.92C871.292 1194.46 869.091 1192 866.677 1189.54C864.263 1187.08 861.873 1184.83 859.506 1182.79ZM820.953 1190.82C824.55 1190.72 828.55 1190.6 832.952 1190.46C837.401 1190.27 842.064 1190.08 846.939 1189.89C851.862 1189.7 856.855 1189.52 861.92 1189.33C866.985 1189.14 871.955 1188.95 876.83 1188.76L876.475 1196.99C871.552 1197.28 866.582 1197.54 861.565 1197.78C856.548 1197.96 851.625 1198.18 846.797 1198.41C842.016 1198.6 837.472 1198.79 833.165 1198.98C828.858 1199.12 824.953 1199.27 821.45 1199.41L820.953 1190.82Z" fill="black"/>
<path d="M749.527 1180.8H813.143V1188.97H749.527V1180.8ZM780.696 1191.52H789.287V1237.32H780.696V1191.52ZM760.887 1199.69H804.836V1207.78H769.407V1231H760.887V1199.69ZM801.144 1199.69H809.735V1221.91C809.735 1223.85 809.474 1225.41 808.954 1226.6C808.48 1227.73 807.534 1228.61 806.114 1229.22C804.788 1229.84 803.132 1230.22 801.144 1230.36C799.203 1230.5 796.884 1230.57 794.186 1230.57C794.044 1229.39 793.712 1228.07 793.192 1226.6C792.671 1225.13 792.127 1223.88 791.559 1222.83C792.647 1222.88 793.736 1222.91 794.825 1222.91C795.961 1222.91 796.955 1222.91 797.807 1222.91C798.706 1222.91 799.321 1222.91 799.653 1222.91C800.221 1222.91 800.599 1222.83 800.789 1222.69C801.025 1222.5 801.144 1222.17 801.144 1221.7V1199.69ZM772.318 1170.51L781.122 1172.5C779.418 1178.32 777.24 1184.07 774.59 1189.75C771.986 1195.43 768.815 1200.73 765.076 1205.65C761.336 1210.53 756.934 1214.72 751.87 1218.22C751.538 1217.51 751.065 1216.71 750.45 1215.81C749.882 1214.86 749.29 1213.94 748.675 1213.04C748.059 1212.14 747.491 1211.38 746.971 1210.76C750.331 1208.59 753.361 1205.98 756.059 1202.95C758.804 1199.88 761.218 1196.54 763.301 1192.94C765.383 1189.35 767.182 1185.65 768.697 1181.87C770.211 1178.03 771.418 1174.25 772.318 1170.51Z" fill="black"/>
<path d="M691.591 1196H715.731V1203.17H691.591V1196ZM717.222 1196H742.711V1203.17H717.222V1196ZM700.537 1187.48H708.134V1237.25H700.537V1187.48ZM724.961 1187.48H732.629V1237.25H724.961V1187.48ZM699.756 1200.47L705.01 1201.89C704.252 1205.25 703.282 1208.61 702.099 1211.97C700.963 1215.33 699.661 1218.43 698.194 1221.27C696.726 1224.11 695.093 1226.5 693.295 1228.44C692.727 1227.54 691.898 1226.53 690.81 1225.39C689.768 1224.21 688.822 1223.28 687.97 1222.62C689.674 1221.01 691.283 1219.02 692.798 1216.66C694.312 1214.29 695.661 1211.71 696.845 1208.92C698.075 1206.08 699.046 1203.26 699.756 1200.47ZM724.606 1200.47L729.434 1201.89C728.629 1205.2 727.611 1208.54 726.381 1211.9C725.15 1215.21 723.777 1218.31 722.263 1221.2C720.795 1224.09 719.21 1226.53 717.506 1228.51C716.89 1227.66 716.062 1226.67 715.021 1225.53C713.979 1224.4 713.056 1223.52 712.252 1222.9C713.956 1221.3 715.589 1219.28 717.151 1216.87C718.713 1214.41 720.133 1211.76 721.411 1208.92C722.689 1206.08 723.754 1203.26 724.606 1200.47ZM733.836 1199.97C734.593 1202.67 735.54 1205.39 736.676 1208.14C737.859 1210.88 739.137 1213.46 740.51 1215.88C741.93 1218.29 743.35 1220.35 744.77 1222.05C743.918 1222.67 742.924 1223.54 741.788 1224.68C740.699 1225.82 739.823 1226.88 739.161 1227.87C737.788 1225.84 736.463 1223.38 735.185 1220.49C733.954 1217.56 732.818 1214.46 731.777 1211.19C730.735 1207.88 729.86 1204.63 729.15 1201.46L733.836 1199.97ZM707.069 1203.66C707.542 1204.04 708.252 1204.66 709.199 1205.51C710.145 1206.36 711.139 1207.28 712.181 1208.28C713.222 1209.27 714.169 1210.2 715.021 1211.05C715.92 1211.9 716.583 1212.49 717.009 1212.82L712.749 1219.64C712.181 1218.83 711.471 1217.89 710.619 1216.8C709.814 1215.71 708.915 1214.6 707.921 1213.46C706.974 1212.33 706.075 1211.26 705.223 1210.27C704.371 1209.27 703.661 1208.44 703.093 1207.78L707.069 1203.66ZM708.063 1170.65H716.938V1183.36H708.063V1170.65ZM686.55 1177.96H742.782V1186.06H686.55V1177.96ZM681.438 1177.96H689.958V1197.56C689.958 1200.4 689.863 1203.55 689.674 1207C689.532 1210.46 689.224 1213.98 688.751 1217.58C688.277 1221.18 687.591 1224.68 686.692 1228.09C685.84 1231.45 684.68 1234.5 683.213 1237.25C682.692 1236.73 681.982 1236.11 681.083 1235.4C680.183 1234.74 679.26 1234.08 678.314 1233.41C677.414 1232.8 676.633 1232.35 675.971 1232.06C677.249 1229.6 678.243 1226.9 678.953 1223.97C679.71 1221.03 680.254 1218.03 680.586 1214.95C680.964 1211.88 681.201 1208.85 681.296 1205.86C681.39 1202.88 681.438 1200.11 681.438 1197.56V1177.96Z" fill="black"/>
<path d="M655.217 1215.16C655.004 1225.1 648.046 1232.06 638.035 1232.06C627.101 1232.06 620.072 1225.32 620.072 1214.88C620.072 1214.31 620.356 1213.96 620.995 1213.96H626.604C627.03 1213.96 627.456 1214.24 627.456 1214.81C627.598 1221.55 631.858 1224.82 638.035 1224.82C644.425 1224.82 647.762 1219.99 647.762 1214.95C647.762 1208.49 643.36 1204.94 637.112 1204.94H635.408C634.982 1204.94 634.556 1204.59 634.556 1204.09V1198.69C634.556 1198.27 634.84 1197.84 635.408 1197.84H636.828C643.36 1197.84 646.91 1193.15 646.626 1187.9C646.271 1181.79 641.514 1180.37 637.893 1180.37C632.568 1180.37 629.657 1183.5 629.302 1189.11L629.231 1190.17C629.231 1190.6 628.805 1190.95 628.379 1190.95H622.699C622.131 1190.95 621.776 1190.53 621.776 1190.03L621.847 1188.68C622.202 1181.65 626.249 1173.13 637.822 1173.13C646.697 1173.13 654.081 1178.81 654.081 1187.97C654.081 1194.79 651.383 1198.91 647.762 1201.11C653.371 1204.8 655.359 1210.12 655.217 1215.16Z" fill="black"/>
<path d="M611.188 1215.16C610.975 1225.1 604.017 1232.06 594.006 1232.06C583.072 1232.06 576.043 1225.32 576.043 1214.88C576.043 1214.31 576.327 1213.96 576.966 1213.96H582.575C583.001 1213.96 583.427 1214.24 583.427 1214.81C583.569 1221.55 587.829 1224.82 594.006 1224.82C600.396 1224.82 603.733 1219.99 603.733 1214.95C603.733 1208.49 599.331 1204.94 593.083 1204.94H591.379C590.953 1204.94 590.527 1204.59 590.527 1204.09V1198.69C590.527 1198.27 590.811 1197.84 591.379 1197.84H592.799C599.331 1197.84 602.881 1193.15 602.597 1187.9C602.242 1181.79 597.485 1180.37 593.864 1180.37C588.539 1180.37 585.628 1183.5 585.273 1189.11L585.202 1190.17C585.202 1190.6 584.776 1190.95 584.35 1190.95H578.67C578.102 1190.95 577.747 1190.53 577.747 1190.03L577.818 1188.68C578.173 1181.65 582.22 1173.13 593.793 1173.13C602.668 1173.13 610.052 1178.81 610.052 1187.97C610.052 1194.79 607.354 1198.91 603.733 1201.11C609.342 1204.8 611.33 1210.12 611.188 1215.16Z" fill="black"/>
<path d="M549.527 1180.52C543.847 1180.52 540.439 1184.99 540.439 1189.39C540.439 1193.58 544.415 1198.12 549.527 1198.12C554.923 1198.12 558.473 1193.58 558.473 1189.39C558.473 1184.99 555.207 1180.52 549.527 1180.52ZM531.848 1215.45C531.848 1209.98 534.617 1203.95 539.232 1201.39C535.256 1198.62 533.268 1194.01 533.268 1188.75C533.268 1180.02 540.865 1173.13 549.527 1173.13C558.047 1173.13 565.644 1180.02 565.644 1188.75C565.644 1194.01 563.94 1198.55 559.68 1201.32C564.508 1203.95 567.135 1209.91 567.135 1215.45C567.135 1224.61 559.041 1232.06 549.527 1232.06C539.871 1232.06 531.848 1224.68 531.848 1215.45ZM539.161 1215.09C539.161 1220.21 543.705 1224.82 549.527 1224.82C555.207 1224.82 559.751 1220.28 559.751 1215.09C559.751 1209.7 555.207 1205.22 549.527 1205.22C543.705 1205.22 539.161 1209.63 539.161 1215.09Z" fill="black"/>
<path d="M515.035 1174.2C515.532 1174.2 515.887 1174.56 515.887 1175.06V1230.08C515.887 1230.58 515.532 1231 515.035 1231H509.355C508.858 1231 508.503 1230.58 508.503 1230.08V1181.45H499.628C498.847 1181.45 498.492 1180.66 498.847 1180.17L502.397 1174.56C502.539 1174.35 502.823 1174.2 503.107 1174.2H515.035Z" fill="black"/>
<path d="M476.042 1182.93C475.663 1183.41 475.19 1184.02 474.622 1184.78C474.054 1185.49 473.604 1186.11 473.273 1186.63C472.184 1188.47 470.74 1190.6 468.942 1193.02C467.143 1195.38 465.155 1197.75 462.978 1200.12C460.8 1202.44 458.552 1204.42 456.233 1206.08L448.849 1200.19C450.269 1199.34 451.665 1198.34 453.038 1197.21C454.41 1196.07 455.665 1194.89 456.801 1193.66C457.984 1192.38 459.002 1191.17 459.854 1190.03C460.753 1188.9 461.439 1187.88 461.913 1186.98C461.297 1186.98 460.256 1186.98 458.789 1186.98C457.321 1186.98 455.57 1186.98 453.535 1186.98C451.499 1186.98 449.298 1186.98 446.932 1186.98C444.612 1186.98 442.293 1186.98 439.974 1186.98C437.654 1186.98 435.453 1186.98 433.371 1186.98C431.335 1186.98 429.56 1186.98 428.046 1186.98C426.578 1186.98 425.537 1186.98 424.922 1186.98C423.454 1186.98 422.058 1187.03 420.733 1187.12C419.407 1187.22 417.916 1187.34 416.26 1187.48V1177.61C417.632 1177.8 419.052 1177.96 420.52 1178.11C421.987 1178.25 423.454 1178.32 424.922 1178.32C425.537 1178.32 426.626 1178.32 428.188 1178.32C429.75 1178.32 431.596 1178.32 433.726 1178.32C435.903 1178.32 438.199 1178.32 440.613 1178.32C443.074 1178.32 445.512 1178.32 447.926 1178.32C450.387 1178.32 452.659 1178.32 454.742 1178.32C456.872 1178.32 458.67 1178.32 460.138 1178.32C461.652 1178.32 462.67 1178.32 463.191 1178.32C463.853 1178.32 464.658 1178.3 465.605 1178.25C466.551 1178.2 467.474 1178.13 468.374 1178.04C469.32 1177.94 470.007 1177.82 470.433 1177.68L476.042 1182.93ZM447.074 1192.52C447.074 1196.02 447.003 1199.41 446.861 1202.67C446.719 1205.94 446.316 1209.09 445.654 1212.12C445.038 1215.1 444.021 1217.94 442.601 1220.64C441.228 1223.33 439.311 1225.89 436.85 1228.3C434.388 1230.72 431.241 1232.94 427.407 1234.98L419.1 1228.23C420.236 1227.85 421.443 1227.36 422.721 1226.74C423.999 1226.08 425.277 1225.27 426.555 1224.33C428.827 1222.77 430.649 1221.11 432.022 1219.36C433.442 1217.61 434.53 1215.71 435.288 1213.68C436.045 1211.59 436.566 1209.35 436.85 1206.93C437.134 1204.47 437.276 1201.8 437.276 1198.91C437.276 1197.82 437.252 1196.78 437.205 1195.79C437.157 1194.74 437.015 1193.66 436.779 1192.52H447.074Z" fill="black"/>
<path d="M391.268 1172.5C391.883 1173.35 392.546 1174.37 393.256 1175.55C393.966 1176.74 394.628 1177.92 395.244 1179.1C395.906 1180.29 396.474 1181.33 396.948 1182.23L391.197 1184.71C390.487 1183.24 389.611 1181.59 388.57 1179.74C387.576 1177.85 386.605 1176.22 385.659 1174.84L391.268 1172.5ZM399.646 1169.3C400.308 1170.2 400.995 1171.27 401.705 1172.5C402.415 1173.68 403.101 1174.87 403.764 1176.05C404.474 1177.19 405.018 1178.16 405.397 1178.96L399.788 1181.45C399.03 1179.93 398.131 1178.25 397.09 1176.4C396.048 1174.56 395.031 1172.97 394.037 1171.65L399.646 1169.3ZM362.016 1181.59C361.826 1180.55 361.613 1179.6 361.377 1178.75C361.14 1177.9 360.88 1177.04 360.596 1176.19L370.607 1174.56C370.701 1175.27 370.796 1176.14 370.891 1177.19C371.033 1178.23 371.198 1179.17 371.388 1180.03C371.482 1180.74 371.695 1181.99 372.027 1183.79C372.358 1185.59 372.76 1187.76 373.234 1190.32C373.707 1192.88 374.228 1195.62 374.796 1198.56C375.411 1201.49 376.003 1204.47 376.571 1207.5C377.139 1210.53 377.683 1213.4 378.204 1216.09C378.772 1218.79 379.245 1221.18 379.624 1223.26C380.05 1225.35 380.357 1226.89 380.547 1227.88C380.783 1228.92 381.067 1230.06 381.399 1231.29C381.73 1232.52 382.061 1233.7 382.393 1234.84L372.169 1236.68C371.979 1235.36 371.814 1234.08 371.672 1232.85C371.577 1231.67 371.411 1230.55 371.175 1229.51C371.033 1228.57 370.772 1227.1 370.394 1225.11C370.062 1223.12 369.636 1220.8 369.116 1218.15C368.595 1215.5 368.051 1212.71 367.483 1209.77C366.915 1206.79 366.347 1203.81 365.779 1200.83C365.211 1197.85 364.666 1195.05 364.146 1192.45C363.672 1189.85 363.246 1187.6 362.868 1185.71C362.489 1183.77 362.205 1182.39 362.016 1181.59ZM342.633 1190.6C343.769 1190.51 344.881 1190.44 345.97 1190.39C347.058 1190.3 348.147 1190.2 349.236 1190.11C350.277 1189.97 351.744 1189.78 353.638 1189.54C355.531 1189.26 357.708 1188.92 360.17 1188.55C362.631 1188.17 365.163 1187.79 367.767 1187.41C370.417 1186.98 372.973 1186.58 375.435 1186.2C377.896 1185.78 380.073 1185.4 381.967 1185.07C383.907 1184.74 385.422 1184.48 386.511 1184.29C387.647 1184.05 388.83 1183.81 390.061 1183.58C391.291 1183.29 392.333 1183.01 393.185 1182.72L394.889 1192.1C394.131 1192.14 393.114 1192.26 391.836 1192.45C390.558 1192.64 389.398 1192.81 388.357 1192.95C387.079 1193.14 385.398 1193.4 383.316 1193.73C381.28 1194.01 379.008 1194.37 376.5 1194.79C373.991 1195.17 371.435 1195.57 368.832 1196C366.228 1196.43 363.743 1196.83 361.377 1197.21C359.01 1197.59 356.927 1197.94 355.129 1198.27C353.33 1198.56 351.981 1198.77 351.082 1198.91C349.946 1199.15 348.881 1199.39 347.887 1199.62C346.893 1199.81 345.78 1200.07 344.55 1200.4L342.633 1190.6ZM342.704 1211.48C343.65 1211.43 344.834 1211.34 346.254 1211.19C347.721 1211.01 348.999 1210.84 350.088 1210.7C351.366 1210.51 353.07 1210.25 355.2 1209.92C357.33 1209.59 359.72 1209.21 362.371 1208.78C365.069 1208.35 367.838 1207.91 370.678 1207.43C373.518 1206.96 376.287 1206.51 378.985 1206.08C381.683 1205.61 384.144 1205.18 386.369 1204.8C388.593 1204.43 390.392 1204.12 391.765 1203.88C393.137 1203.6 394.439 1203.31 395.67 1203.03C396.948 1202.75 398.06 1202.46 399.007 1202.18L400.924 1211.55C399.977 1211.6 398.817 1211.74 397.445 1211.98C396.119 1212.17 394.77 1212.38 393.398 1212.61C391.883 1212.85 389.99 1213.16 387.718 1213.54C385.446 1213.87 382.937 1214.27 380.192 1214.74C377.494 1215.17 374.725 1215.62 371.885 1216.09C369.045 1216.52 366.323 1216.97 363.72 1217.44C361.116 1217.87 358.773 1218.27 356.691 1218.65C354.608 1218.98 352.975 1219.27 351.792 1219.5C350.277 1219.79 348.904 1220.05 347.674 1220.28C346.49 1220.47 345.496 1220.69 344.692 1220.92L342.704 1211.48Z" fill="black"/>
<path d="M276.105 1181.45C277.052 1181.54 278.164 1181.63 279.442 1181.73C280.72 1181.82 281.856 1181.87 282.85 1181.87H321.474C322.563 1181.87 323.699 1181.82 324.882 1181.73C326.066 1181.63 327.154 1181.54 328.148 1181.45V1191.17C327.107 1191.08 325.995 1191.01 324.811 1190.96C323.628 1190.91 322.516 1190.89 321.474 1190.89H282.85C281.904 1190.89 280.768 1190.91 279.442 1190.96C278.117 1191.01 277.005 1191.08 276.105 1191.17V1181.45ZM296.553 1225.11V1186.91H306.493V1225.11H296.553ZM271.49 1219.29C272.626 1219.48 273.81 1219.62 275.04 1219.71C276.271 1219.81 277.431 1219.86 278.519 1219.86H325.308C326.586 1219.86 327.793 1219.81 328.929 1219.71C330.065 1219.57 331.083 1219.43 331.982 1219.29V1229.58C330.941 1229.44 329.781 1229.35 328.503 1229.3C327.225 1229.25 326.16 1229.23 325.308 1229.23H278.519C277.478 1229.23 276.342 1229.25 275.111 1229.3C273.881 1229.35 272.674 1229.44 271.49 1229.58V1219.29Z" fill="black"/>
<path d="M258.356 1183.72C258.024 1184.38 257.717 1185.18 257.433 1186.13C257.196 1187.03 256.983 1187.88 256.794 1188.69C256.415 1190.39 255.918 1192.33 255.303 1194.51C254.687 1196.68 253.954 1198.93 253.102 1201.25C252.25 1203.57 251.232 1205.87 250.049 1208.14C248.913 1210.41 247.611 1212.54 246.144 1214.53C244.014 1217.32 241.529 1219.97 238.689 1222.48C235.849 1224.94 232.677 1227.17 229.175 1229.16C225.672 1231.1 221.814 1232.75 217.602 1234.13L209.863 1225.68C214.549 1224.54 218.596 1223.14 222.004 1221.49C225.459 1219.78 228.465 1217.89 231.021 1215.81C233.577 1213.68 235.801 1211.41 237.695 1208.99C239.257 1207 240.582 1204.85 241.671 1202.53C242.807 1200.21 243.73 1197.87 244.44 1195.5C245.197 1193.13 245.718 1190.96 246.002 1188.97C245.292 1188.97 244.108 1188.97 242.452 1188.97C240.842 1188.97 238.925 1188.97 236.701 1188.97C234.523 1188.97 232.228 1188.97 229.814 1188.97C227.447 1188.97 225.151 1188.97 222.927 1188.97C220.702 1188.97 218.69 1188.97 216.892 1188.97C215.14 1188.97 213.815 1188.97 212.916 1188.97C211.306 1188.97 209.721 1188.99 208.159 1189.04C206.644 1189.09 205.413 1189.16 204.467 1189.25V1179.24C205.224 1179.29 206.1 1179.36 207.094 1179.46C208.088 1179.55 209.129 1179.64 210.218 1179.74C211.306 1179.79 212.229 1179.81 212.987 1179.81C213.697 1179.81 214.762 1179.81 216.182 1179.81C217.602 1179.81 219.235 1179.81 221.081 1179.81C222.927 1179.81 224.844 1179.81 226.832 1179.81C228.867 1179.81 230.879 1179.81 232.867 1179.81C234.855 1179.81 236.724 1179.81 238.476 1179.81C240.227 1179.81 241.742 1179.81 243.02 1179.81C244.345 1179.81 245.268 1179.81 245.789 1179.81C246.499 1179.81 247.374 1179.79 248.416 1179.74C249.457 1179.64 250.427 1179.48 251.327 1179.24L258.356 1183.72Z" fill="black"/>
</svg>
