<svg width="1080" height="1920" viewBox="0 0 1080 1920" fill="none" xmlns="http://www.w3.org/2000/svg">
<path d="M1080 1920L1080 0L0 0L0 1920H1080Z" fill="#A5D4AD"/>
<path d="M1020 983.72V95C1020 75.67 1004.33 60 985 60H95.58C75.93 60 60 75.93 60 95.58V983.71C60 984.03 60.25 984.28 60.57 984.28C80.03 984.59 95.71 1000.46 95.71 1019.99C95.71 1039.52 80.03 1055.39 60.57 1055.7C60.25 1055.7 60 1055.96 60 1056.27V1824.99C60 1844.32 75.67 1859.99 95 1859.99H985C1004.33 1859.99 1020 1844.32 1020 1824.99V1056.27C1020 1055.95 1019.75 1055.7 1019.43 1055.7C999.97 1055.39 984.29 1039.52 984.29 1019.99C984.29 1000.46 999.97 984.59 1019.43 984.28C1019.75 984.28 1020 984.02 1020 983.71V983.72Z" fill="white"/>
<path d="M60.57 1055.71C60.25 1055.71 60 1055.97 60 1056.28V1825C60 1844.33 75.67 1860 95 1860H985C1004.33 1860 1020 1844.33 1020 1825V1056.28C1020 1055.96 1019.75 1055.71 1019.43 1055.71C999.97 1055.4 984.29 1039.53 984.29 1020H95.71C95.71 1039.53 80.03 1055.4 60.57 1055.71Z" fill="#E5F2E6"/>
<path d="M121 1020H160.9" stroke="black" stroke-width="6" stroke-miterlimit="10"/>
<path d="M187.51 1020H227.41" stroke="black" stroke-width="6" stroke-miterlimit="10"/>
<path d="M254.02 1020H293.92" stroke="black" stroke-width="6" stroke-miterlimit="10"/>
<path d="M320.52 1020H360.43" stroke="black" stroke-width="6" stroke-miterlimit="10"/>
<path d="M387.03 1020H426.94" stroke="black" stroke-width="6" stroke-miterlimit="10"/>
<path d="M453.54 1020H493.44" stroke="black" stroke-width="6" stroke-miterlimit="10"/>
<path d="M520.05 1020H559.95" stroke="black" stroke-width="6" stroke-miterlimit="10"/>
<path d="M586.56 1020H626.46" stroke="black" stroke-width="6" stroke-miterlimit="10"/>
<path d="M653.06 1020H692.97" stroke="black" stroke-width="6" stroke-miterlimit="10"/>
<path d="M719.57 1020H759.48" stroke="black" stroke-width="6" stroke-miterlimit="10"/>
<path d="M786.08 1020H825.98" stroke="black" stroke-width="6" stroke-miterlimit="10"/>
<path d="M852.59 1020H892.49" stroke="black" stroke-width="6" stroke-miterlimit="10"/>
<path d="M919.1 1020H959" stroke="black" stroke-width="6" stroke-miterlimit="10"/>
<path d="M1020 984.29V95C1020 75.67 1004.33 60 985 60H95C75.67 60 60 75.67 60 95V984.29C79.72 984.29 95.71 1000.28 95.71 1020C95.71 1039.72 79.72 1055.71 60 1055.71V1825C60 1844.33 75.67 1860 95 1860H985C1004.33 1860 1020 1844.33 1020 1825V1055.71C1000.28 1055.71 984.29 1039.72 984.29 1020C984.29 1000.28 1000.28 984.29 1020 984.29Z" stroke="black" stroke-width="6" stroke-miterlimit="10"/>
<path d="M912.65 525.666C908.78 525.666 905.54 522.646 905.32 518.736C900.59 435.626 868.79 358.856 813.37 296.746C810.67 293.716 810.93 289.066 813.96 286.366C816.99 283.666 821.63 283.926 824.34 286.956C882 351.576 915.07 431.436 920 517.896C920.23 521.946 917.13 525.426 913.08 525.656C912.94 525.656 912.8 525.666 912.66 525.666H912.65Z" fill="black"/>
<path d="M818.85 795.517C817.11 795.517 815.36 794.897 813.96 793.647C810.93 790.947 810.67 786.297 813.37 783.267C868.79 721.157 900.59 644.387 905.32 561.277C905.55 557.227 909.03 554.117 913.08 554.357C917.13 554.587 920.23 558.057 920 562.117C915.07 648.587 882 728.447 824.34 793.057C822.89 794.687 820.87 795.517 818.85 795.517Z" fill="black"/>
<path d="M167.36 525.666C167.22 525.666 167.08 525.666 166.94 525.656C162.89 525.426 159.79 521.956 160.02 517.896C164.95 431.426 198.02 351.566 255.68 286.956C258.38 283.926 263.03 283.666 266.06 286.366C269.09 289.066 269.35 293.716 266.65 296.746C211.23 358.856 179.43 435.616 174.7 518.736C174.48 522.646 171.24 525.666 167.37 525.666H167.36Z" fill="black"/>
<path d="M261.17 795.517C259.15 795.517 257.13 794.687 255.68 793.057C198.02 728.437 164.95 648.577 160.02 562.117C159.79 558.067 162.89 554.587 166.94 554.357C170.99 554.117 174.47 557.227 174.7 561.277C179.43 644.397 211.23 721.157 266.65 783.267C269.35 786.297 269.09 790.947 266.06 793.647C264.66 794.897 262.91 795.517 261.17 795.517Z" fill="black"/>
<path d="M788.17 268.511C786.43 268.511 784.68 267.891 783.28 266.641C721.17 211.221 644.4 179.421 561.29 174.691C557.24 174.461 554.14 170.991 554.37 166.931C554.6 162.881 558.04 159.791 562.13 160.011C648.6 164.941 728.46 198.011 793.07 255.671C796.1 258.371 796.36 263.021 793.66 266.051C792.21 267.681 790.19 268.511 788.17 268.511Z" fill="black"/>
<path d="M291.85 268.512C289.83 268.512 287.81 267.682 286.36 266.052C283.66 263.022 283.92 258.372 286.95 255.672C351.57 198.012 431.43 164.942 517.89 160.012C521.94 159.782 525.42 162.882 525.65 166.932C525.88 170.982 522.78 174.462 518.73 174.692C435.62 179.422 358.85 211.222 296.74 266.642C295.34 267.892 293.59 268.512 291.85 268.512Z" fill="black"/>
<path d="M561.69 920.006C557.82 920.006 554.58 916.986 554.36 913.076C554.13 909.026 557.23 905.546 561.28 905.316C644.4 900.586 721.16 868.786 783.27 813.366C786.3 810.666 790.95 810.926 793.65 813.956C796.35 816.986 796.09 821.636 793.06 824.336C728.44 881.996 648.58 915.066 562.12 919.996C561.98 919.996 561.84 920.006 561.7 920.006H561.69Z" fill="black"/>
<path d="M518.32 920.006C518.18 920.006 518.04 920.006 517.9 919.996C431.43 915.066 351.57 881.996 286.96 824.336C283.93 821.636 283.67 816.986 286.37 813.956C289.07 810.926 293.72 810.666 296.75 813.366C358.86 868.786 435.63 900.586 518.74 905.316C522.79 905.546 525.89 909.016 525.66 913.076C525.44 916.986 522.2 920.006 518.33 920.006H518.32Z" fill="black"/>
<path d="M875.38 526.189C872.37 526.189 869.85 523.839 869.68 520.799C865.41 445.789 836.71 376.519 786.7 320.459C784.6 318.099 784.8 314.489 787.16 312.389C789.51 310.289 793.13 310.489 795.23 312.849C846.98 370.849 876.68 442.539 881.1 520.149C881.28 523.299 878.87 525.999 875.72 526.179C875.61 526.179 875.5 526.179 875.39 526.179L875.38 526.189Z" fill="black"/>
<path d="M790.96 769.062C789.6 769.062 788.25 768.582 787.16 767.612C784.8 765.512 784.6 761.892 786.7 759.542C836.71 703.492 865.41 634.212 869.68 559.202C869.86 556.052 872.55 553.642 875.71 553.822C878.86 554.002 881.27 556.702 881.09 559.852C876.67 637.472 846.98 709.152 795.22 767.152C794.09 768.422 792.52 769.062 790.95 769.062H790.96Z" fill="black"/>
<path d="M204.63 526.187C204.52 526.187 204.41 526.187 204.3 526.187C201.15 526.007 198.74 523.307 198.92 520.157C203.34 442.537 233.03 370.857 284.79 312.857C286.89 310.497 290.51 310.297 292.86 312.397C295.22 314.497 295.42 318.117 293.32 320.467C243.31 376.517 214.61 445.797 210.34 520.807C210.17 523.847 207.65 526.197 204.64 526.197L204.63 526.187Z" fill="black"/>
<path d="M289.05 769.055C287.48 769.055 285.91 768.405 284.78 767.145C233.03 709.145 203.33 637.455 198.91 559.845C198.73 556.695 201.14 553.995 204.29 553.815C207.45 553.625 210.14 556.045 210.32 559.195C214.59 634.205 243.29 703.485 293.3 759.535C295.4 761.895 295.2 765.505 292.84 767.605C291.75 768.575 290.39 769.055 289.04 769.055H289.05Z" fill="black"/>
<path d="M763.35 294.756C761.99 294.756 760.64 294.276 759.55 293.306C703.5 243.296 634.22 214.596 559.21 210.326C556.06 210.146 553.65 207.446 553.83 204.296C554.01 201.146 556.7 198.736 559.86 198.916C637.48 203.336 709.16 233.026 767.16 284.786C769.52 286.886 769.72 290.506 767.62 292.856C766.49 294.126 764.92 294.766 763.35 294.766V294.756Z" fill="black"/>
<path d="M316.66 294.759C315.09 294.759 313.52 294.109 312.39 292.849C310.29 290.489 310.49 286.879 312.85 284.779C370.85 233.029 442.54 203.329 520.15 198.909C523.3 198.719 526 201.139 526.18 204.289C526.36 207.439 523.95 210.139 520.8 210.319C445.79 214.589 376.52 243.289 320.46 293.299C319.37 294.269 318.01 294.749 316.66 294.749V294.759Z" fill="black"/>
<path d="M559.53 881.102C556.52 881.102 554 878.752 553.83 875.712C553.65 872.562 556.06 869.862 559.21 869.682C634.22 865.412 703.49 836.712 759.55 786.702C761.9 784.602 765.52 784.802 767.62 787.162C769.72 789.522 769.52 793.132 767.16 795.232C709.16 846.982 637.47 876.682 559.86 881.102C559.75 881.102 559.64 881.102 559.53 881.102Z" fill="black"/>
<path d="M520.49 881.102C520.38 881.102 520.27 881.102 520.16 881.102C442.54 876.682 370.86 846.992 312.86 795.232C310.5 793.132 310.3 789.512 312.4 787.162C314.5 784.802 318.12 784.602 320.47 786.702C376.52 836.722 445.8 865.412 520.81 869.682C523.96 869.862 526.37 872.562 526.19 875.712C526.02 878.752 523.5 881.102 520.49 881.102Z" fill="black"/>
<path d="M841.85 526.514C839.7 526.514 837.9 524.834 837.78 522.664C833.92 454.914 808 392.344 762.83 341.714C761.33 340.034 761.48 337.454 763.16 335.944C764.84 334.444 767.42 334.584 768.93 336.274C815.35 388.294 841.98 452.584 845.94 522.194C846.07 524.444 844.35 526.374 842.09 526.504C842.01 526.504 841.93 526.504 841.85 526.504V526.514Z" fill="black"/>
<path d="M765.87 745.106C764.9 745.106 763.93 744.766 763.15 744.066C761.47 742.566 761.32 739.986 762.82 738.296C807.99 687.666 833.91 625.096 837.77 557.346C837.9 555.096 839.86 553.396 842.08 553.496C844.33 553.626 846.05 555.556 845.93 557.806C841.96 627.416 815.33 691.706 768.92 743.726C768.11 744.626 766.99 745.086 765.87 745.086V745.106Z" fill="black"/>
<path d="M238.17 526.516C238.09 526.516 238.01 526.516 237.93 526.516C235.68 526.386 233.96 524.456 234.08 522.206C238.05 452.596 264.68 388.306 311.09 336.286C312.59 334.606 315.17 334.456 316.86 335.956C318.54 337.456 318.69 340.036 317.19 341.726C272.02 392.356 246.1 454.926 242.24 522.676C242.12 524.846 240.32 526.526 238.17 526.526V526.516Z" fill="black"/>
<path d="M314.14 745.103C313.02 745.103 311.9 744.643 311.09 743.743C264.67 691.723 238.04 627.433 234.08 557.823C233.95 555.573 235.67 553.643 237.93 553.513C240.17 553.403 242.11 555.103 242.24 557.363C246.1 625.113 272.02 687.683 317.19 738.313C318.69 739.993 318.54 742.573 316.86 744.083C316.08 744.773 315.11 745.123 314.14 745.123V745.103Z" fill="black"/>
<path d="M741.02 318.225C740.05 318.225 739.08 317.885 738.3 317.185C687.67 272.015 625.1 246.095 557.35 242.235C555.1 242.105 553.38 240.175 553.5 237.925C553.63 235.675 555.55 233.965 557.81 234.075C627.42 238.045 691.71 264.675 743.74 311.085C745.42 312.585 745.57 315.165 744.07 316.855C743.26 317.755 742.14 318.215 741.02 318.215V318.225Z" fill="black"/>
<path d="M339 318.224C337.88 318.224 336.76 317.764 335.95 316.864C334.45 315.184 334.6 312.604 336.28 311.094C388.3 264.674 452.59 238.044 522.2 234.084C524.45 233.964 526.38 235.674 526.51 237.934C526.64 240.184 524.92 242.114 522.66 242.244C454.91 246.104 392.34 272.024 341.71 317.194C340.93 317.884 339.96 318.234 338.99 318.234L339 318.224Z" fill="black"/>
<path d="M557.57 845.933C555.42 845.933 553.62 844.253 553.5 842.083C553.37 839.833 555.09 837.903 557.35 837.773C625.1 833.913 687.67 807.993 738.3 762.823C739.98 761.323 742.56 761.473 744.07 763.153C745.57 764.833 745.42 767.413 743.74 768.923C691.72 815.343 627.43 841.973 557.81 845.933C557.73 845.933 557.65 845.933 557.57 845.933Z" fill="black"/>
<path d="M522.44 845.933C522.36 845.933 522.28 845.933 522.2 845.933C452.59 841.963 388.3 815.333 336.28 768.923C334.6 767.423 334.45 764.843 335.95 763.153C337.45 761.473 340.03 761.323 341.72 762.823C392.35 807.993 454.92 833.913 522.67 837.773C524.92 837.903 526.64 839.833 526.52 842.083C526.4 844.253 524.6 845.933 522.45 845.933H522.44Z" fill="black"/>
<path d="M320.65 546.174C320.65 544.604 321.79 543.274 323.34 543.024C324.64 542.814 326.27 542.524 327.98 542.124C332.4 541.084 337.59 539.114 343.41 536.274C349.29 533.404 354.92 529.414 359.17 523.674C366.34 513.974 367.86 501.404 368.19 496.894C368.26 495.974 367.53 495.194 366.6 495.194H317.09C315.33 495.194 313.91 493.764 313.91 492.014V470.694C313.91 468.934 315.34 467.514 317.09 467.514H367.07C367.95 467.514 368.66 466.804 368.66 465.924V447.184C368.66 446.304 367.95 445.594 367.07 445.594H328.62C326.86 445.594 325.44 444.164 325.44 442.414V421.094C325.44 419.334 326.87 417.914 328.62 417.914H428.96C430.72 417.914 432.14 419.344 432.14 421.094V442.414C432.14 444.174 430.71 445.594 428.96 445.594H398.52C397.64 445.594 396.93 446.304 396.93 447.184V465.924C396.93 466.804 397.64 467.514 398.52 467.514H438.58C440.34 467.514 441.76 468.944 441.76 470.694V492.014C441.76 493.774 440.33 495.194 438.58 495.194H398.39C397.54 495.194 396.84 495.864 396.8 496.714C396.57 501.754 395.15 518.444 386.18 532.854C380.73 541.614 373.65 548.264 366.54 553.544C359.41 558.844 352.26 562.934 345.27 565.704C338.24 568.494 332.34 570.444 327.75 571.514C326.66 571.764 325.49 571.994 324.4 572.184C322.45 572.534 320.66 571.034 320.66 569.044V546.164L320.65 546.174Z" fill="black"/>
<path d="M474.55 546.522C474.55 545.062 475.55 543.792 476.96 543.432C485.21 541.362 488.93 540.112 496.84 536.322C496.84 536.322 500.89 534.212 504.93 531.302C517.11 522.542 525.22 510.632 525.22 510.632C534.68 497.282 537.77 474.912 538.49 468.492C538.6 467.552 537.86 466.722 536.91 466.722H500.58C500.35 466.722 500.14 466.842 500.03 467.042L499.88 467.292C494.3 478.112 486.88 487.992 480.45 494.242C474 500.502 468.59 505.052 464.38 507.752L461.78 509.422C460.72 510.102 459.33 509.342 459.33 508.082V479.892C459.33 478.952 459.75 478.062 460.47 477.452C461.12 476.902 461.99 476.132 463.18 475.062C465.94 472.572 469.05 468.512 472.42 462.982C475.76 457.512 479.35 450.212 483.07 441.292C486.45 433.202 488.98 423.092 490.86 412.062C491.12 410.532 492.45 409.422 494 409.422H513.91C515.91 409.422 517.42 411.252 517.04 413.212C516.4 416.522 515.71 420.882 514.85 424.312C513.58 429.392 512.76 432.302 511.24 436.722C510.98 437.472 511.54 438.242 512.33 438.242H591.18C592.94 438.242 594.36 439.672 594.36 441.422V463.512C594.36 465.272 592.93 466.692 591.18 466.692H568.14C567.33 466.692 566.64 467.302 566.56 468.112C565.93 474.012 562.88 497.162 552.39 517.262C538.29 546.002 508.14 566.392 478.34 572.132C476.38 572.512 474.56 571.002 474.56 569.002V546.482L474.55 546.522Z" fill="black"/>
<path d="M675.9 411.035V468.875C675.9 469.755 676.61 470.465 677.49 470.465H764.52C765.4 470.465 766.11 469.755 766.11 468.875V411.035C766.11 410.155 765.4 409.445 764.52 409.445H677.49C676.61 409.445 675.9 410.155 675.9 411.035ZM738.46 452.745H702.3C701.42 452.745 700.71 452.035 700.71 451.155V446.875C700.71 445.995 701.42 445.285 702.3 445.285H738.46C739.34 445.285 740.05 445.995 740.05 446.875V451.155C740.05 452.035 739.34 452.745 738.46 452.745ZM738.46 434.455H702.3C701.42 434.455 700.71 433.745 700.71 432.865V428.755C700.71 427.875 701.42 427.165 702.3 427.165H738.46C739.34 427.165 740.05 427.875 740.05 428.755V432.865C740.05 433.745 739.34 434.455 738.46 434.455Z" fill="black"/>
<path d="M674.23 497.342H728.27C729.15 497.342 729.86 498.052 729.86 498.932V502.842C729.86 503.722 729.15 504.432 728.27 504.432H667.76C666 504.432 664.58 505.862 664.58 507.612V522.862C664.58 524.622 666.01 526.042 667.76 526.042H728.27C729.15 526.042 729.86 526.752 729.86 527.632V545.392C729.86 546.112 729.94 547.982 729.22 548.852C728.39 549.872 727.15 549.672 725.85 549.722C722.54 549.722 719.58 549.702 716.95 549.662C716.55 549.662 716.26 549.292 716.34 548.902C716.6 547.632 716.73 546.312 716.7 544.962C716.5 535.682 708.94 528.082 699.66 527.842C689.58 527.582 681.37 535.852 681.71 545.942C682.02 555.292 689.79 562.812 699.15 562.842C704.04 562.852 708.46 560.862 711.64 557.642C711.98 557.302 712.55 557.432 712.7 557.882C714.16 562.212 715.54 566.342 716.79 570.052C717.23 571.352 718.46 572.222 719.83 572.212C725.73 572.172 730.51 571.962 734.18 571.602C738.31 571.182 742.09 570.152 745.52 568.502C749.18 566.842 751.69 564.422 753.05 561.232C754.41 558.042 755.09 553.552 755.09 547.762V527.622C755.09 526.742 755.8 526.032 756.68 526.032H762.91C764.67 526.032 766.09 524.602 766.09 522.852V507.602C766.09 505.842 764.66 504.422 762.91 504.422H756.68C755.8 504.422 755.09 503.712 755.09 502.832V498.922C755.09 498.042 755.8 497.332 756.68 497.332H762.91C764.67 497.332 766.09 495.902 766.09 494.152V479.602C766.09 477.842 764.66 476.422 762.91 476.422H674.21C672.45 476.422 671.03 477.852 671.03 479.602V494.152C671.03 495.912 672.46 497.332 674.21 497.332L674.23 497.342Z" fill="black"/>
<path d="M668.83 409.445H650.26C649.4 409.445 648.58 409.795 647.98 410.405C635.23 423.355 618.29 434.575 612.13 438.485C610.78 439.335 610.28 441.065 610.95 442.505L620.7 463.575C621.63 465.575 624.26 466.055 625.83 464.505C646.12 444.465 664.45 419.805 670.12 411.965C670.88 410.915 670.12 409.445 668.83 409.445Z" fill="black"/>
<path d="M671.92 453.899V435.419C671.92 434.009 670.22 433.299 669.21 434.289C653.64 449.609 620.05 477.069 611.68 483.869C610.55 484.789 610.19 486.359 610.8 487.679L620.7 509.059C621.63 511.059 624.26 511.539 625.83 509.989C627.54 508.299 629.24 506.569 630.92 504.829C631.32 504.419 632.02 504.699 632.02 505.269V569.069C632.02 570.829 633.45 572.249 635.2 572.249H653.82C655.58 572.249 657 570.819 657 569.069V476.379C657 475.309 657.36 474.259 658.03 473.419C664.87 464.739 669.72 458.029 671.34 455.749C671.72 455.209 671.93 454.569 671.93 453.899H671.92Z" fill="black"/>
<path d="M653.271 623.338C640.851 623.338 634.811 628.288 634.811 638.478V655.608C634.811 665.678 640.851 670.568 653.271 670.568C659.141 670.568 663.481 669.488 666.561 667.278C670.001 664.808 671.741 660.878 671.741 655.598V638.468C671.741 628.278 665.701 623.328 653.281 623.328L653.271 623.338ZM646.091 639.308C646.091 633.938 648.841 632.918 653.271 632.918C657.701 632.918 660.451 633.958 660.451 639.308V654.688C660.451 659.958 657.601 660.988 653.271 660.988C648.941 660.988 646.091 659.988 646.091 654.688V639.308Z" fill="black"/>
<path d="M708.271 669.334H721.36L703.63 646.784L720.56 624.804H707.401L694.06 642.284V610.234H682.771V669.334H694.06V659.214L696.951 655.454L708.271 669.334Z" fill="black"/>
<path d="M754.82 624.805V653.295C754.82 659.045 751.881 660.895 746.831 660.895C743.561 660.895 740.281 660.355 740.281 653.885V624.815H729V656.775C729 665.745 733.71 670.485 742.62 670.485C749.3 670.485 753.881 666.865 755.581 662.805L757.391 669.345H766.11V624.815H754.831L754.82 624.805Z" fill="black"/>
<path d="M630.57 610.234H589.15V620.144V620.154H604.22V669.334H615.69V620.154H630.57V610.234Z" fill="black"/>
<path d="M459.69 669.334H472.78L455.05 646.784L471.98 624.804H458.82L445.48 642.284V610.234H434.2V669.334H445.48V659.214L448.37 655.454L459.69 669.334Z" fill="black"/>
<path d="M355.33 610.234H313.91V620.144V620.154H328.99V669.334H340.45V620.154H355.33V610.234Z" fill="black"/>
<path d="M421.8 658.896L421.2 659.046C417.62 659.966 413.29 660.896 409.41 660.896C404.86 660.896 401.69 658.826 401.69 652.836V640.976C401.69 634.906 404.86 632.826 409.41 632.826C413.36 632.826 417.88 633.706 421.23 634.406L421.81 634.526V625.196L421.5 625.126C417.69 624.236 412.05 623.336 407.53 623.336C402.01 623.336 397.97 624.406 395.17 626.596C391.97 629.096 390.42 633.856 390.42 639.346V654.646C390.42 664.776 396.02 670.566 407.54 670.566C411.41 670.566 417.27 669.496 421.53 668.316L421.82 668.236V658.886L421.8 658.896Z" fill="black"/>
<path d="M553.93 634.705V624.805H543.69V615.195H532.41V624.805H525.18V634.705H532.41V655.425C532.41 667.945 540.3 670.565 546.93 670.565C548.71 670.565 550.51 670.455 552.12 670.225V660.265C551.47 660.335 550.26 660.365 549.54 660.365C546.46 660.365 543.69 659.735 543.69 652.095V634.695H553.93V634.705Z" fill="black"/>
<path d="M489.74 650.742V650.562H515.17V641.482C515.17 635.572 513.55 630.243 510.36 627.343C507.42 624.673 502.78 623.312 497.26 623.312C485.08 623.312 478.46 629.223 478.46 639.593V654.453C478.46 664.703 483.84 670.552 496.32 670.552C500.98 670.552 506.29 669.563 511.97 668.403L512.36 668.323V659.052L511.71 659.203C507.14 660.253 504.62 661.143 500.29 661.143C494.08 661.143 489.74 658.623 489.74 652.203V650.722V650.742ZM489.74 639.722C489.74 634.072 493.8 632.742 497.17 632.742C500.54 632.742 504.07 634.072 504.07 639.722V643.232H489.74V642.713V639.722Z" fill="black"/>
<path d="M378.18 626.883H366.9V669.333H378.18V626.883Z" fill="black"/>
<path d="M372.54 622.224C376.423 622.224 379.57 619.077 379.57 615.194C379.57 611.312 376.423 608.164 372.54 608.164C368.658 608.164 365.51 611.312 365.51 615.194C365.51 619.077 368.658 622.224 372.54 622.224Z" fill="black"/>
<path d="M585.74 643.922H566.15V651.262H585.74V643.922Z" fill="black"/>
<path d="M711.977 1677C711.13 1677 710.404 1676.4 710.404 1675.43V1581.66C710.404 1580.93 711.009 1580.2 711.977 1580.2H756.263C757.231 1580.2 757.836 1580.81 757.836 1581.66V1591.09C757.836 1591.94 757.231 1592.55 756.263 1592.55H723.109V1622.43H755.174C756.021 1622.43 756.626 1623.04 756.626 1623.88V1633.08C756.626 1634.05 756.021 1634.77 755.174 1634.77H723.109V1675.43C723.109 1676.4 722.383 1677 721.536 1677H711.977Z" fill="black"/>
<path d="M643.323 1677C642.476 1677 641.75 1676.4 641.75 1675.43V1581.66C641.75 1580.93 642.355 1580.2 643.323 1580.2H687.609C688.577 1580.2 689.182 1580.81 689.182 1581.66V1591.09C689.182 1591.94 688.577 1592.55 687.609 1592.55H654.455V1622.43H686.52C687.367 1622.43 687.972 1623.04 687.972 1623.88V1633.08C687.972 1634.05 687.367 1634.77 686.52 1634.77H654.455V1675.43C654.455 1676.4 653.729 1677 652.882 1677H643.323Z" fill="black"/>
<path d="M573.766 1590.97C553.317 1590.97 536.861 1607.66 536.861 1628.48C536.861 1649.05 553.196 1666.23 573.645 1666.23C594.094 1666.23 610.792 1649.05 610.792 1628.6C610.792 1607.79 594.215 1590.97 573.766 1590.97ZM524.035 1628.48C524.035 1600.65 545.936 1578.38 573.766 1578.38C601.596 1578.38 623.618 1600.77 623.618 1628.6C623.618 1656.43 601.475 1678.81 573.645 1678.81C545.815 1678.81 524.035 1656.31 524.035 1628.48Z" fill="black"/>
<path d="M435.74 1676.27C435.498 1676.76 435.014 1677 434.53 1677H423.398C422.309 1677 421.583 1675.79 422.188 1674.82L475.912 1580.92C476.154 1580.44 476.638 1580.2 477.243 1580.2H488.375C489.706 1580.2 490.19 1581.41 489.585 1582.38L435.74 1676.27ZM404.643 1603.43C404.643 1589.51 415.533 1578.38 429.448 1578.38C443.484 1578.38 454.374 1589.51 454.374 1603.55C454.374 1617.47 443.242 1628.6 429.448 1628.6C415.412 1628.6 404.643 1617.47 404.643 1603.43ZM417.348 1603.43C417.348 1610.33 422.672 1616.01 429.448 1616.01C436.224 1616.01 441.669 1610.33 441.669 1603.55C441.669 1596.65 436.224 1591.21 429.448 1591.21C422.793 1591.21 417.348 1596.65 417.348 1603.43ZM459.214 1653.52C459.214 1639.61 470.104 1628.48 484.019 1628.48C498.055 1628.48 508.945 1639.61 508.945 1653.64C508.945 1667.56 497.813 1678.69 484.019 1678.69C469.983 1678.69 459.214 1667.56 459.214 1653.52ZM471.919 1653.52C471.919 1660.42 477.243 1666.11 484.019 1666.11C490.795 1666.11 496.24 1660.42 496.24 1653.64C496.24 1646.75 490.795 1641.3 484.019 1641.3C477.364 1641.3 471.919 1646.75 471.919 1653.52Z" fill="black"/>
<path d="M385.013 1580.2C385.86 1580.2 386.465 1580.81 386.465 1581.66V1591.21C386.465 1592.06 385.86 1592.67 385.013 1592.67H355.005L349.439 1609.97H349.56C349.56 1609.97 352.101 1609.61 354.4 1609.73C372.913 1610.33 386.465 1623.76 386.465 1643.61C386.465 1662.73 372.55 1678.82 351.617 1678.82C338.67 1678.82 327.659 1672.77 321.246 1663.09L319.31 1660.18C318.947 1659.58 319.068 1658.49 319.673 1658.13L327.417 1652.32C328.022 1651.71 329.111 1651.84 329.716 1652.68L331.289 1655.22C336.129 1663.09 343.994 1666.48 351.617 1666.48C365.895 1666.48 373.76 1655.83 373.76 1643.49C373.76 1629.81 364.08 1621.95 353.069 1621.95C347.019 1621.95 343.631 1623.52 340.848 1625.58L339.88 1626.3C339.517 1626.55 339.154 1626.67 338.67 1626.55L333.467 1625.7C332.378 1625.58 332.015 1624.61 332.257 1623.76L345.567 1581.17C345.809 1580.57 346.293 1580.2 346.898 1580.2H385.013Z" fill="black"/>
<path d="M916.254 1433.45C917.726 1433.64 919.374 1433.78 921.198 1433.88C923.054 1433.94 924.926 1433.98 926.814 1433.98C928.734 1433.94 930.574 1433.88 932.334 1433.78C934.094 1433.66 935.614 1433.53 936.894 1433.4V1439.59C935.422 1439.72 933.806 1439.83 932.046 1439.93C930.286 1439.99 928.478 1440.02 926.622 1440.02C924.766 1440.02 922.942 1439.99 921.15 1439.93C919.39 1439.83 917.758 1439.72 916.254 1439.59V1433.45ZM920.094 1453.94C919.902 1454.74 919.758 1455.46 919.662 1456.1C919.566 1456.71 919.518 1457.34 919.518 1457.98C919.518 1458.49 919.646 1458.97 919.902 1459.42C920.158 1459.83 920.542 1460.2 921.054 1460.52C921.598 1460.81 922.286 1461.03 923.118 1461.19C923.982 1461.32 925.022 1461.38 926.238 1461.38C928.382 1461.38 930.398 1461.29 932.286 1461.1C934.174 1460.87 936.174 1460.55 938.286 1460.14L938.382 1466.62C936.846 1466.9 935.07 1467.13 933.054 1467.29C931.07 1467.45 928.718 1467.53 925.998 1467.53C921.87 1467.53 918.798 1466.84 916.782 1465.46C914.766 1464.06 913.758 1462.12 913.758 1459.66C913.758 1458.73 913.822 1457.77 913.95 1456.78C914.11 1455.75 914.318 1454.63 914.574 1453.42L920.094 1453.94ZM908.862 1430.23C908.734 1430.55 908.59 1431 908.43 1431.58C908.27 1432.15 908.11 1432.71 907.95 1433.26C907.822 1433.8 907.726 1434.22 907.662 1434.5C907.566 1435.18 907.406 1436.06 907.182 1437.14C906.99 1438.2 906.782 1439.4 906.558 1440.74C906.366 1442.06 906.174 1443.4 905.982 1444.78C905.79 1446.15 905.63 1447.48 905.502 1448.76C905.406 1450.04 905.358 1451.16 905.358 1452.12C905.358 1452.57 905.358 1453.08 905.358 1453.66C905.39 1454.23 905.454 1454.76 905.55 1455.24C905.774 1454.7 906.014 1454.15 906.27 1453.61C906.526 1453.06 906.782 1452.52 907.038 1451.98C907.294 1451.4 907.518 1450.86 907.71 1450.34L910.686 1452.7C910.238 1454.01 909.774 1455.42 909.294 1456.92C908.846 1458.42 908.43 1459.85 908.046 1461.19C907.694 1462.5 907.422 1463.59 907.23 1464.46C907.166 1464.81 907.102 1465.21 907.038 1465.66C907.006 1466.1 906.99 1466.46 906.99 1466.71C906.99 1466.97 906.99 1467.27 906.99 1467.62C907.022 1468.01 907.054 1468.36 907.086 1468.68L901.518 1469.06C901.038 1467.4 900.606 1465.19 900.222 1462.44C899.838 1459.66 899.646 1456.63 899.646 1453.37C899.646 1451.58 899.726 1449.75 899.886 1447.9C900.046 1446.04 900.238 1444.26 900.462 1442.57C900.686 1440.84 900.894 1439.27 901.086 1437.86C901.31 1436.46 901.502 1435.29 901.662 1434.36C901.726 1433.69 901.806 1432.94 901.902 1432.1C902.03 1431.24 902.11 1430.42 902.142 1429.66L908.862 1430.23Z" fill="black"/>
<path d="M849.006 1433.93H892.542V1439.4H849.006V1433.93ZM865.038 1445.69H883.422V1451.11H865.038V1445.69ZM881.262 1445.69H887.214C887.214 1445.69 887.198 1445.85 887.166 1446.17C887.166 1446.46 887.166 1446.79 887.166 1447.18C887.166 1447.56 887.134 1447.9 887.07 1448.18C886.782 1452.57 886.462 1456.15 886.11 1458.94C885.758 1461.72 885.358 1463.9 884.91 1465.46C884.462 1467 883.918 1468.12 883.278 1468.82C882.542 1469.62 881.774 1470.17 880.974 1470.46C880.174 1470.74 879.214 1470.95 878.094 1471.08C877.166 1471.18 875.95 1471.21 874.446 1471.18C872.942 1471.18 871.39 1471.14 869.79 1471.08C869.758 1470.25 869.55 1469.29 869.166 1468.2C868.782 1467.14 868.302 1466.22 867.726 1465.42C869.39 1465.58 870.99 1465.67 872.526 1465.7C874.062 1465.74 875.166 1465.75 875.838 1465.75C876.382 1465.75 876.83 1465.72 877.182 1465.66C877.566 1465.56 877.902 1465.38 878.19 1465.13C878.702 1464.71 879.134 1463.8 879.486 1462.39C879.87 1460.98 880.206 1458.98 880.494 1456.39C880.782 1453.8 881.038 1450.52 881.262 1446.55V1445.69ZM862.878 1437.19H869.31C869.182 1439.75 868.974 1442.34 868.686 1444.97C868.43 1447.56 867.982 1450.14 867.342 1452.7C866.702 1455.22 865.774 1457.64 864.558 1459.94C863.342 1462.25 861.742 1464.39 859.758 1466.38C857.774 1468.36 855.262 1470.12 852.222 1471.66C851.806 1470.86 851.198 1469.99 850.398 1469.06C849.63 1468.14 848.878 1467.37 848.142 1466.76C850.926 1465.48 853.198 1463.99 854.958 1462.3C856.75 1460.57 858.158 1458.71 859.182 1456.73C860.206 1454.71 860.958 1452.62 861.438 1450.44C861.95 1448.26 862.286 1446.06 862.446 1443.82C862.638 1441.58 862.782 1439.37 862.878 1437.19ZM867.486 1426.01H873.486V1436.09H867.486V1426.01Z" fill="black"/>
<path d="M827.118 1434.12C826.798 1436.55 826.382 1439.14 825.87 1441.89C825.358 1444.65 824.67 1447.43 823.806 1450.25C822.878 1453.48 821.79 1456.26 820.542 1458.6C819.294 1460.93 817.918 1462.74 816.414 1464.02C814.942 1465.27 813.326 1465.89 811.566 1465.89C809.806 1465.89 808.174 1465.3 806.67 1464.12C805.198 1462.9 804.014 1461.24 803.118 1459.13C802.254 1457.01 801.822 1454.61 801.822 1451.93C801.822 1449.14 802.382 1446.52 803.502 1444.05C804.622 1441.59 806.174 1439.41 808.158 1437.53C810.174 1435.61 812.51 1434.1 815.166 1433.01C817.854 1431.93 820.75 1431.38 823.854 1431.38C826.83 1431.38 829.502 1431.86 831.87 1432.82C834.27 1433.78 836.318 1435.11 838.014 1436.81C839.71 1438.5 841.006 1440.49 841.902 1442.76C842.798 1445.03 843.246 1447.48 843.246 1450.1C843.246 1453.46 842.558 1456.47 841.182 1459.13C839.806 1461.78 837.758 1463.97 835.038 1465.7C832.35 1467.43 828.99 1468.61 824.958 1469.25L821.358 1463.54C822.286 1463.45 823.102 1463.33 823.806 1463.21C824.51 1463.08 825.182 1462.93 825.822 1462.77C827.358 1462.39 828.782 1461.85 830.094 1461.14C831.438 1460.41 832.606 1459.51 833.598 1458.45C834.59 1457.37 835.358 1456.1 835.902 1454.66C836.478 1453.22 836.766 1451.64 836.766 1449.91C836.766 1448.02 836.478 1446.29 835.902 1444.73C835.326 1443.16 834.478 1441.8 833.358 1440.65C832.238 1439.46 830.878 1438.57 829.278 1437.96C827.678 1437.32 825.838 1437 823.758 1437C821.198 1437 818.942 1437.46 816.99 1438.39C815.038 1439.29 813.39 1440.45 812.046 1441.89C810.702 1443.33 809.678 1444.89 808.974 1446.55C808.302 1448.21 807.966 1449.8 807.966 1451.3C807.966 1452.9 808.158 1454.25 808.542 1455.33C808.926 1456.39 809.39 1457.19 809.934 1457.73C810.51 1458.25 811.118 1458.5 811.758 1458.5C812.43 1458.5 813.086 1458.17 813.726 1457.49C814.398 1456.79 815.054 1455.73 815.694 1454.33C816.334 1452.92 816.974 1451.14 817.614 1449C818.35 1446.69 818.974 1444.23 819.486 1441.61C819.998 1438.98 820.366 1436.42 820.59 1433.93L827.118 1434.12Z" fill="black"/>
<path d="M783.966 1436.91L790.11 1438.73C788.094 1444.49 785.486 1449.48 782.286 1453.71C779.086 1457.93 775.278 1461.5 770.862 1464.41C766.478 1467.29 761.406 1469.64 755.646 1471.47C755.454 1470.96 755.134 1470.35 754.686 1469.64C754.238 1468.94 753.774 1468.24 753.294 1467.53C752.846 1466.86 752.414 1466.3 751.998 1465.85C757.534 1464.38 762.382 1462.38 766.542 1459.85C770.702 1457.32 774.222 1454.19 777.102 1450.44C779.982 1446.67 782.27 1442.16 783.966 1436.91ZM765.39 1437.29C767.022 1442.06 769.278 1446.33 772.158 1450.11C775.038 1453.88 778.59 1457.08 782.814 1459.71C787.07 1462.33 792.03 1464.28 797.694 1465.56C797.246 1466.01 796.75 1466.59 796.206 1467.29C795.694 1468 795.198 1468.7 794.718 1469.4C794.238 1470.14 793.854 1470.78 793.566 1471.32C787.582 1469.79 782.43 1467.55 778.11 1464.6C773.79 1461.63 770.126 1458.01 767.118 1453.76C764.142 1449.5 761.646 1444.59 759.63 1439.02L765.39 1437.29ZM752.862 1433.84H796.83V1439.45H752.862V1433.84ZM771.774 1426.2H777.678V1437.24H771.774V1426.2Z" fill="black"/>
<path d="M724.83 1430.57L728.574 1426.1C729.886 1426.71 731.262 1427.43 732.702 1428.26C734.174 1429.09 735.55 1429.94 736.83 1430.81C738.142 1431.67 739.214 1432.5 740.046 1433.3L735.87 1438.29C735.134 1437.46 734.142 1436.58 732.894 1435.65C731.678 1434.73 730.35 1433.81 728.91 1432.92C727.502 1432.02 726.142 1431.24 724.83 1430.57ZM721.614 1450.05H746.574V1455.53H721.614V1450.05ZM718.206 1464.26H749.358V1469.73H718.206V1464.26ZM719.934 1436.66H748.35V1442.13H719.934V1436.66ZM730.878 1438.49H736.878V1466.71H730.878V1438.49ZM707.262 1430.66L710.382 1426.44C711.438 1426.79 712.542 1427.25 713.694 1427.83C714.846 1428.37 715.95 1428.97 717.006 1429.61C718.062 1430.21 718.926 1430.81 719.598 1431.38L716.19 1436.09C715.582 1435.48 714.766 1434.85 713.742 1434.21C712.75 1433.54 711.678 1432.9 710.526 1432.29C709.406 1431.65 708.318 1431.11 707.262 1430.66ZM704.046 1443.77L707.022 1439.4C708.078 1439.75 709.198 1440.18 710.382 1440.69C711.566 1441.17 712.686 1441.72 713.742 1442.33C714.83 1442.9 715.726 1443.45 716.43 1443.96L713.214 1448.81C712.606 1448.23 711.774 1447.64 710.718 1447.03C709.662 1446.42 708.558 1445.83 707.406 1445.25C706.254 1444.65 705.134 1444.15 704.046 1443.77ZM706.11 1466.85C706.974 1465.64 707.934 1464.21 708.99 1462.58C710.046 1460.92 711.118 1459.16 712.206 1457.3C713.294 1455.41 714.302 1453.54 715.23 1451.69L719.454 1455.53C718.622 1457.19 717.726 1458.9 716.766 1460.66C715.838 1462.42 714.878 1464.15 713.886 1465.85C712.926 1467.54 711.966 1469.17 711.006 1470.74L706.11 1466.85Z" fill="black"/>
<path d="M664.158 1432.58C665.918 1432.8 667.902 1432.96 670.11 1433.06C672.318 1433.16 674.686 1433.2 677.214 1433.2C678.814 1433.2 680.446 1433.17 682.11 1433.11C683.774 1433.04 685.39 1432.96 686.958 1432.87C688.526 1432.74 689.918 1432.63 691.134 1432.53V1438.92C690.014 1438.98 688.654 1439.06 687.054 1439.16C685.486 1439.25 683.838 1439.33 682.11 1439.4C680.414 1439.46 678.798 1439.49 677.262 1439.49C674.766 1439.49 672.446 1439.44 670.302 1439.35C668.158 1439.22 666.11 1439.09 664.158 1438.96V1432.58ZM668.19 1452.93C667.966 1453.76 667.774 1454.58 667.614 1455.38C667.454 1456.18 667.374 1456.98 667.374 1457.78C667.374 1459.35 668.142 1460.63 669.678 1461.62C671.246 1462.58 673.758 1463.06 677.214 1463.06C679.39 1463.06 681.486 1462.98 683.502 1462.82C685.55 1462.66 687.47 1462.45 689.262 1462.2C691.054 1461.91 692.654 1461.57 694.062 1461.19L694.11 1467.91C692.734 1468.23 691.166 1468.52 689.406 1468.77C687.678 1469.03 685.806 1469.22 683.79 1469.35C681.806 1469.51 679.694 1469.59 677.454 1469.59C673.774 1469.59 670.718 1469.17 668.286 1468.34C665.854 1467.54 664.014 1466.39 662.766 1464.88C661.55 1463.35 660.942 1461.48 660.942 1459.27C660.942 1457.89 661.054 1456.63 661.278 1455.48C661.502 1454.29 661.694 1453.25 661.854 1452.36L668.19 1452.93ZM692.382 1427.64C692.798 1428.21 693.23 1428.9 693.678 1429.7C694.158 1430.5 694.622 1431.3 695.07 1432.1C695.518 1432.9 695.902 1433.6 696.222 1434.21L692.334 1435.89C691.854 1434.9 691.262 1433.76 690.558 1432.48C689.886 1431.2 689.23 1430.1 688.59 1429.17L692.382 1427.64ZM698.094 1425.48C698.51 1426.08 698.958 1426.79 699.438 1427.59C699.918 1428.39 700.382 1429.19 700.83 1429.99C701.31 1430.76 701.694 1431.43 701.982 1432L698.142 1433.64C697.63 1432.64 697.022 1431.52 696.318 1430.28C695.614 1429 694.926 1427.91 694.254 1427.01L698.094 1425.48Z" fill="black"/>
<path d="M628.59 1450.82C627.534 1449.73 626.494 1448.89 625.47 1448.28C624.446 1447.67 623.102 1447.37 621.438 1447.37C619.902 1447.37 618.462 1447.91 617.118 1449C615.806 1450.05 614.702 1451.43 613.806 1453.13L608.526 1450.25C610.158 1447.27 612.094 1445.06 614.334 1443.62C616.574 1442.15 618.99 1441.41 621.582 1441.41C623.886 1441.41 625.934 1441.85 627.726 1442.71C629.55 1443.57 631.278 1444.9 632.91 1446.69C633.966 1447.78 635.006 1448.63 636.03 1449.24C637.086 1449.85 638.43 1450.15 640.062 1450.15C641.598 1450.15 643.022 1449.62 644.334 1448.57C645.678 1447.48 646.798 1446.09 647.694 1444.39L652.974 1447.27C651.342 1450.25 649.406 1452.47 647.166 1453.94C644.926 1455.38 642.51 1456.1 639.918 1456.1C637.646 1456.1 635.598 1455.67 633.774 1454.81C631.95 1453.94 630.222 1452.61 628.59 1450.82Z" fill="black"/>
<path d="M581.358 1440.64H601.326V1446.45H581.358V1440.64ZM560.814 1463.11H604.734V1468.92H560.814V1463.11ZM578.094 1426.82H584.286V1466.32H578.094V1426.82Z" fill="black"/>
<path d="M527.55 1434.51L532.878 1431.96C533.902 1433.11 534.91 1434.38 535.902 1435.75C536.894 1437.13 537.774 1438.49 538.542 1439.83C539.342 1441.15 539.982 1442.36 540.462 1443.48L534.798 1446.51C534.414 1445.42 533.838 1444.17 533.07 1442.76C532.302 1441.32 531.438 1439.88 530.478 1438.44C529.518 1437 528.542 1435.69 527.55 1434.51ZM511.998 1459.71C513.63 1459.16 515.518 1458.47 517.662 1457.64C519.838 1456.81 522.11 1455.91 524.478 1454.95C526.878 1453.99 529.246 1453.03 531.582 1452.07L532.926 1457.69C530.782 1458.65 528.606 1459.61 526.398 1460.57C524.19 1461.53 522.014 1462.46 519.87 1463.35C517.758 1464.25 515.79 1465.08 513.966 1465.85L511.998 1459.71ZM540.126 1455.43L544.542 1451.35C545.63 1452.51 546.798 1453.74 548.046 1455.05C549.326 1456.36 550.574 1457.71 551.79 1459.08C553.038 1460.43 554.19 1461.74 555.246 1463.02C556.302 1464.27 557.166 1465.42 557.838 1466.47L552.894 1471.27C552.286 1470.19 551.47 1468.97 550.446 1467.63C549.454 1466.31 548.366 1464.95 547.182 1463.55C546.03 1462.14 544.83 1460.75 543.582 1459.37C542.366 1457.96 541.214 1456.65 540.126 1455.43ZM546.654 1428.99L553.038 1429.56C552.462 1435 551.63 1439.91 550.542 1444.3C549.454 1448.65 547.998 1452.54 546.174 1455.96C544.35 1459.35 542.046 1462.33 539.262 1464.89C536.51 1467.45 533.166 1469.61 529.23 1471.37C528.942 1470.95 528.526 1470.43 527.982 1469.79C527.438 1469.15 526.862 1468.49 526.254 1467.82C525.646 1467.18 525.102 1466.67 524.622 1466.28C528.462 1464.81 531.678 1462.97 534.27 1460.76C536.894 1458.55 539.038 1455.93 540.702 1452.89C542.366 1449.82 543.662 1446.31 544.59 1442.38C545.518 1438.41 546.206 1433.95 546.654 1428.99ZM517.422 1429.18L523.47 1428.94L524.574 1460.14L518.526 1460.38L517.422 1429.18Z" fill="black"/>
<path d="M478.926 1448.76C478.926 1452.18 478.494 1455.32 477.63 1458.17C476.766 1461.01 475.614 1463.57 474.174 1465.85C472.766 1468.12 471.198 1470.1 469.47 1471.8L464.91 1469.78C466.51 1468.05 467.95 1466.15 469.23 1464.07C470.542 1461.99 471.582 1459.69 472.35 1457.16C473.118 1454.6 473.502 1451.8 473.502 1448.76C473.502 1445.69 473.118 1442.89 472.35 1440.36C471.582 1437.83 470.542 1435.53 469.23 1433.45C467.95 1431.33 466.51 1429.43 464.91 1427.73L469.47 1425.72C471.198 1427.41 472.766 1429.4 474.174 1431.67C475.614 1433.94 476.766 1436.5 477.63 1439.35C478.494 1442.2 478.926 1445.33 478.926 1448.76Z" fill="black"/>
<path d="M434.142 1428.22H444.318V1433.69H434.142V1428.22ZM441.39 1428.22H447.438C447.63 1431.64 447.982 1434.9 448.494 1438.01C449.006 1441.11 449.774 1443.99 450.798 1446.65C451.822 1449.27 453.166 1451.59 454.83 1453.61C456.494 1455.62 458.59 1457.27 461.118 1458.55C460.638 1458.87 460.11 1459.29 459.534 1459.8C458.99 1460.31 458.446 1460.86 457.902 1461.43C457.39 1461.98 456.958 1462.49 456.606 1462.97C454.046 1461.43 451.902 1459.56 450.174 1457.35C448.446 1455.11 447.038 1452.6 445.95 1449.82C444.894 1447.03 444.078 1444.04 443.502 1440.84C442.958 1437.64 442.574 1434.3 442.35 1430.81H441.39V1428.22ZM441.246 1438.25L447.15 1439.06C446.126 1444.47 444.51 1449.19 442.302 1453.22C440.094 1457.26 437.23 1460.52 433.71 1463.02C433.422 1462.63 433.006 1462.17 432.462 1461.62C431.95 1461.08 431.39 1460.54 430.782 1459.99C430.206 1459.42 429.694 1458.97 429.246 1458.65C432.606 1456.63 435.246 1453.88 437.166 1450.39C439.118 1446.9 440.478 1442.86 441.246 1438.25ZM428.046 1444.92V1462.63H422.43V1450.25H416.862V1444.92H428.046ZM428.046 1460.14C429.038 1461.7 430.43 1462.86 432.222 1463.59C434.014 1464.33 436.158 1464.74 438.654 1464.84C440.062 1464.9 441.726 1464.95 443.646 1464.98C445.598 1464.98 447.646 1464.97 449.79 1464.94C451.934 1464.9 454.03 1464.84 456.078 1464.74C458.158 1464.65 459.998 1464.54 461.598 1464.41C461.406 1464.86 461.182 1465.43 460.926 1466.14C460.67 1466.84 460.43 1467.56 460.206 1468.3C460.014 1469.03 459.87 1469.69 459.774 1470.26C458.334 1470.36 456.686 1470.42 454.83 1470.46C452.974 1470.52 451.07 1470.55 449.118 1470.55C447.166 1470.58 445.278 1470.58 443.454 1470.55C441.63 1470.52 439.998 1470.47 438.558 1470.41C435.614 1470.28 433.102 1469.82 431.022 1469.02C428.942 1468.25 427.102 1466.94 425.502 1465.08C424.446 1465.98 423.358 1466.9 422.238 1467.86C421.15 1468.82 419.95 1469.82 418.638 1470.84L415.806 1464.84C416.926 1464.17 418.094 1463.43 419.31 1462.63C420.526 1461.83 421.694 1461 422.814 1460.14H428.046ZM416.91 1430.81L421.182 1427.35C422.174 1427.99 423.182 1428.74 424.206 1429.61C425.23 1430.44 426.19 1431.3 427.086 1432.2C427.982 1433.06 428.702 1433.86 429.246 1434.6L424.686 1438.44C424.206 1437.67 423.534 1436.84 422.67 1435.94C421.838 1435.05 420.91 1434.15 419.886 1433.26C418.862 1432.33 417.87 1431.51 416.91 1430.81Z" fill="black"/>
<path d="M387.966 1428.36L392.718 1426.29C393.614 1427.54 394.478 1428.93 395.31 1430.47C396.174 1431.97 396.766 1433.3 397.086 1434.45L392.046 1436.71C391.726 1435.59 391.166 1434.24 390.366 1432.68C389.598 1431.11 388.798 1429.67 387.966 1428.36ZM405.582 1426.15L411.486 1428.12C410.622 1429.62 409.758 1431.09 408.894 1432.53C408.03 1433.97 407.214 1435.22 406.446 1436.28L401.598 1434.45C402.078 1433.68 402.558 1432.82 403.038 1431.86C403.55 1430.9 404.03 1429.92 404.478 1428.93C404.926 1427.94 405.294 1427.01 405.582 1426.15ZM391.998 1451.3H397.662C397.502 1453.48 397.23 1455.56 396.846 1457.54C396.462 1459.52 395.87 1461.38 395.07 1463.11C394.27 1464.8 393.15 1466.34 391.71 1467.72C390.302 1469.12 388.462 1470.34 386.19 1471.36C385.902 1470.66 385.406 1469.86 384.702 1468.96C384.03 1468.07 383.39 1467.35 382.782 1466.8C384.702 1466.04 386.238 1465.11 387.39 1464.02C388.574 1462.93 389.47 1461.73 390.078 1460.42C390.718 1459.08 391.166 1457.65 391.422 1456.15C391.678 1454.61 391.87 1453 391.998 1451.3ZM400.158 1450.58H405.726V1463.88C405.726 1464.61 405.758 1465.08 405.822 1465.27C405.918 1465.43 406.126 1465.51 406.446 1465.51C406.542 1465.51 406.686 1465.51 406.878 1465.51C407.102 1465.51 407.326 1465.51 407.55 1465.51C407.774 1465.51 407.918 1465.51 407.982 1465.51C408.238 1465.51 408.43 1465.38 408.558 1465.12C408.686 1464.87 408.782 1464.34 408.846 1463.54C408.91 1462.71 408.958 1461.44 408.99 1459.75C409.342 1460.07 409.806 1460.37 410.382 1460.66C410.99 1460.95 411.614 1461.2 412.254 1461.43C412.894 1461.65 413.438 1461.83 413.886 1461.96C413.758 1464.23 413.486 1465.99 413.07 1467.24C412.686 1468.52 412.126 1469.41 411.39 1469.92C410.686 1470.44 409.758 1470.69 408.606 1470.69C408.414 1470.69 408.174 1470.69 407.886 1470.69C407.63 1470.69 407.342 1470.69 407.022 1470.69C406.734 1470.69 406.446 1470.69 406.158 1470.69C405.87 1470.69 405.63 1470.69 405.438 1470.69C403.998 1470.69 402.894 1470.47 402.126 1470.02C401.39 1469.6 400.878 1468.9 400.59 1467.91C400.302 1466.95 400.158 1465.62 400.158 1463.92V1450.58ZM393.534 1440.84V1447.36H405.438V1440.84H393.534ZM388.062 1435.8H411.15V1452.4H388.062V1435.8ZM375.63 1430.71H381.198V1471.27H375.63V1430.71ZM368.718 1439.73H386.334V1445.06H368.718V1439.73ZM375.918 1441.89L379.278 1443.33C378.83 1445.06 378.286 1446.85 377.646 1448.71C377.006 1450.56 376.302 1452.4 375.534 1454.23C374.766 1456.02 373.95 1457.72 373.086 1459.32C372.222 1460.92 371.326 1462.31 370.398 1463.49C370.11 1462.66 369.694 1461.73 369.15 1460.71C368.638 1459.65 368.158 1458.76 367.71 1458.02C368.542 1457.06 369.358 1455.94 370.158 1454.66C370.99 1453.35 371.774 1451.96 372.51 1450.48C373.246 1449.01 373.902 1447.54 374.478 1446.07C375.054 1444.6 375.534 1443.2 375.918 1441.89ZM383.07 1426.72L386.958 1431.14C385.326 1431.75 383.534 1432.31 381.582 1432.82C379.63 1433.33 377.63 1433.78 375.582 1434.16C373.566 1434.52 371.63 1434.82 369.774 1435.08C369.646 1434.44 369.422 1433.7 369.102 1432.87C368.782 1432 368.462 1431.27 368.142 1430.66C369.902 1430.37 371.694 1430.04 373.518 1429.65C375.374 1429.24 377.118 1428.77 378.75 1428.26C380.414 1427.75 381.854 1427.24 383.07 1426.72ZM381.102 1446.4C381.39 1446.63 381.822 1447.04 382.398 1447.65C383.006 1448.23 383.646 1448.87 384.318 1449.57C385.022 1450.28 385.646 1450.93 386.19 1451.54C386.734 1452.12 387.134 1452.53 387.39 1452.79L384.078 1457.35C383.79 1456.74 383.406 1456.05 382.926 1455.28C382.478 1454.52 381.982 1453.72 381.438 1452.88C380.926 1452.05 380.414 1451.27 379.902 1450.53C379.39 1449.76 378.942 1449.14 378.558 1448.66L381.102 1446.4Z" fill="black"/>
<path d="M350.574 1448.76C350.574 1445.33 351.006 1442.2 351.87 1439.35C352.734 1436.5 353.886 1433.94 355.326 1431.67C356.766 1429.4 358.334 1427.41 360.03 1425.72L364.59 1427.73C362.99 1429.43 361.534 1431.33 360.222 1433.45C358.942 1435.53 357.918 1437.83 357.15 1440.36C356.382 1442.89 355.998 1445.69 355.998 1448.76C355.998 1451.8 356.382 1454.6 357.15 1457.16C357.918 1459.69 358.942 1461.99 360.222 1464.07C361.534 1466.15 362.99 1468.05 364.59 1469.78L360.03 1471.8C358.334 1470.1 356.766 1468.12 355.326 1465.85C353.886 1463.57 352.734 1461.01 351.87 1458.17C351.006 1455.32 350.574 1452.18 350.574 1448.76Z" fill="black"/>
<path d="M274.59 1429.27H312.222V1434.99H280.35V1471.27H274.59V1429.27ZM309.486 1429.27H315.294V1464.55C315.294 1466.09 315.102 1467.29 314.718 1468.15C314.334 1469.05 313.646 1469.74 312.654 1470.22C311.662 1470.7 310.414 1470.99 308.91 1471.08C307.438 1471.21 305.63 1471.27 303.486 1471.27C303.39 1470.73 303.23 1470.11 303.006 1469.4C302.782 1468.7 302.526 1467.99 302.238 1467.29C301.95 1466.62 301.662 1466.03 301.374 1465.51C302.302 1465.58 303.23 1465.63 304.158 1465.66C305.118 1465.66 305.966 1465.66 306.702 1465.66C307.438 1465.66 307.95 1465.66 308.238 1465.66C308.686 1465.63 309.006 1465.53 309.198 1465.37C309.39 1465.18 309.486 1464.87 309.486 1464.46V1429.27ZM277.71 1447.13H312.318V1452.79H277.71V1447.13ZM291.726 1432.39H297.486V1449.96H291.726V1432.39Z" fill="black"/>
<path d="M263.296 1447.75C263.296 1440.55 261.04 1432.78 255.04 1432.78C249.04 1432.78 246.784 1440.55 246.784 1447.75C246.784 1455.43 249.04 1462.83 255.04 1462.83C261.04 1462.83 263.296 1455.43 263.296 1447.75ZM241.744 1447.75C241.744 1438.15 245.44 1427.88 255.04 1427.88C264.64 1427.88 268.336 1438.15 268.336 1447.75C268.336 1458.31 264.64 1467.72 255.04 1467.72C245.44 1467.72 241.744 1458.31 241.744 1447.75Z" fill="black"/>
<path d="M231.889 1447.75C231.889 1440.55 229.633 1432.78 223.633 1432.78C217.633 1432.78 215.377 1440.55 215.377 1447.75C215.377 1455.43 217.633 1462.83 223.633 1462.83C229.633 1462.83 231.889 1455.43 231.889 1447.75ZM210.337 1447.75C210.337 1438.15 214.033 1427.88 223.633 1427.88C233.233 1427.88 236.929 1438.15 236.929 1447.75C236.929 1458.31 233.233 1467.72 223.633 1467.72C214.033 1467.72 210.337 1458.31 210.337 1447.75Z" fill="black"/>
<path d="M200.483 1447.75C200.483 1440.55 198.227 1432.78 192.227 1432.78C186.227 1432.78 183.971 1440.55 183.971 1447.75C183.971 1455.43 186.227 1462.83 192.227 1462.83C198.227 1462.83 200.483 1455.43 200.483 1447.75ZM178.931 1447.75C178.931 1438.15 182.627 1427.88 192.227 1427.88C201.827 1427.88 205.523 1438.15 205.523 1447.75C205.523 1458.31 201.827 1467.72 192.227 1467.72C182.627 1467.72 178.931 1458.31 178.931 1447.75Z" fill="black"/>
<path d="M169.041 1473.52C168.993 1473.62 168.945 1473.72 168.849 1473.76C168.753 1473.81 168.609 1473.86 168.513 1473.86C168.417 1473.86 168.321 1473.81 168.225 1473.76L166.497 1472.76C166.257 1472.61 166.161 1472.37 166.209 1472.13L167.505 1466.76C166.977 1466.18 166.689 1465.46 166.689 1464.6C166.689 1462.82 168.033 1461.48 169.809 1461.48C171.585 1461.48 172.929 1462.82 172.929 1464.6C172.929 1465.17 172.785 1465.7 172.545 1466.18L169.041 1473.52Z" fill="black"/>
<path d="M154.842 1428.6C155.178 1428.6 155.418 1428.84 155.418 1429.18V1466.38C155.418 1466.71 155.178 1467 154.842 1467H151.002C150.666 1467 150.426 1466.71 150.426 1466.38V1433.5H144.426C143.898 1433.5 143.658 1432.97 143.898 1432.63L146.298 1428.84C146.394 1428.7 146.586 1428.6 146.778 1428.6H154.842Z" fill="black"/>
<path d="M653.11 1210.12C653.962 1210.17 655.051 1210.24 656.376 1210.34C657.702 1210.39 659.074 1210.43 660.494 1210.48C661.962 1210.53 663.311 1210.55 664.541 1210.55C665.725 1210.55 667.192 1210.55 668.943 1210.55C670.695 1210.55 672.588 1210.55 674.623 1210.55C676.706 1210.55 678.836 1210.55 681.013 1210.55C683.238 1210.55 685.439 1210.55 687.616 1210.55C689.794 1210.55 691.853 1210.55 693.793 1210.55C695.734 1210.55 697.462 1210.55 698.976 1210.55C700.538 1210.55 701.769 1210.55 702.668 1210.55C704.325 1210.55 705.887 1210.5 707.354 1210.41C708.822 1210.27 710.029 1210.17 710.975 1210.12V1221.27C710.171 1221.22 708.964 1221.15 707.354 1221.06C705.745 1220.96 704.183 1220.92 702.668 1220.92C701.769 1220.92 700.538 1220.92 698.976 1220.92C697.414 1220.92 695.663 1220.92 693.722 1220.92C691.782 1220.92 689.723 1220.92 687.545 1220.92C685.415 1220.92 683.238 1220.92 681.013 1220.92C678.789 1220.92 676.635 1220.92 674.552 1220.92C672.517 1220.92 670.624 1220.92 668.872 1220.92C667.168 1220.92 665.725 1220.92 664.541 1220.92C662.506 1220.92 660.423 1220.96 658.293 1221.06C656.163 1221.11 654.436 1221.18 653.11 1221.27V1210.12Z" fill="black"/>
<path d="M595.813 1187.41C597.659 1187.64 599.884 1188 602.487 1188.47C605.138 1188.9 607.931 1189.39 610.865 1189.96C613.847 1190.53 616.806 1191.17 619.74 1191.88C622.722 1192.54 625.468 1193.2 627.976 1193.87C630.532 1194.53 632.71 1195.17 634.508 1195.78L630.887 1204.66C629.231 1204.04 627.172 1203.4 624.71 1202.74C622.249 1202.03 619.575 1201.32 616.687 1200.61C613.8 1199.9 610.889 1199.24 607.954 1198.62C605.02 1198.01 602.203 1197.44 599.505 1196.92C596.855 1196.4 594.512 1196.02 592.476 1195.78L595.813 1187.41ZM592.547 1206.51C595.103 1206.93 598.038 1207.48 601.351 1208.14C604.665 1208.8 608.073 1209.53 611.575 1210.34C615.078 1211.1 618.415 1211.9 621.586 1212.75C624.758 1213.56 627.456 1214.36 629.68 1215.17L626.201 1224.04C624.166 1223.24 621.586 1222.41 618.462 1221.56C615.386 1220.71 612.096 1219.85 608.593 1219C605.138 1218.15 601.706 1217.39 598.298 1216.73C594.89 1216.02 591.885 1215.47 589.281 1215.1L592.547 1206.51ZM588.926 1226.81C591.34 1227.19 594.086 1227.69 597.162 1228.3C600.239 1228.92 603.434 1229.6 606.747 1230.36C610.108 1231.12 613.398 1231.9 616.616 1232.7C619.835 1233.51 622.817 1234.31 625.562 1235.12C628.355 1235.92 630.722 1236.7 632.662 1237.46L628.757 1246.34C626.864 1245.53 624.521 1244.7 621.728 1243.85C618.936 1243.05 615.906 1242.24 612.64 1241.44C609.374 1240.59 606.085 1239.8 602.771 1239.09C599.458 1238.34 596.287 1237.67 593.257 1237.11C590.275 1236.54 587.648 1236.09 585.376 1235.76L588.926 1226.81Z" fill="black"/>
<path d="M538.607 1187.4C538.181 1188.3 537.755 1189.3 537.329 1190.39C536.903 1191.47 536.548 1192.4 536.264 1193.16C535.838 1194.34 535.317 1195.66 534.702 1197.13C534.134 1198.6 533.519 1200.09 532.856 1201.6C532.241 1203.07 531.602 1204.42 530.939 1205.65C530.04 1207.45 528.904 1209.39 527.531 1211.47C526.206 1213.51 524.786 1215.47 523.271 1217.37C521.756 1219.21 520.194 1220.82 518.585 1222.19L509.71 1216.8C510.988 1215.9 512.195 1214.83 513.331 1213.6C514.514 1212.37 515.627 1211.09 516.668 1209.77C517.757 1208.44 518.751 1207.14 519.65 1205.86C520.549 1204.54 521.33 1203.31 521.993 1202.17C522.94 1200.56 523.744 1198.88 524.407 1197.13C525.117 1195.38 525.685 1193.84 526.111 1192.52C526.537 1191.33 526.868 1190.1 527.105 1188.82C527.389 1187.5 527.555 1186.29 527.602 1185.2L538.607 1187.4ZM527.389 1198.34C528.194 1198.34 529.377 1198.34 530.939 1198.34C532.501 1198.34 534.323 1198.34 536.406 1198.34C538.489 1198.34 540.666 1198.34 542.938 1198.34C545.257 1198.34 547.553 1198.34 549.825 1198.34C552.144 1198.34 554.298 1198.34 556.286 1198.34C558.321 1198.34 560.073 1198.34 561.54 1198.34C563.055 1198.34 564.167 1198.34 564.877 1198.34C565.824 1198.34 567.007 1198.31 568.427 1198.27C569.847 1198.17 571.125 1198.03 572.261 1197.84V1207.57C570.936 1207.43 569.563 1207.36 568.143 1207.36C566.77 1207.31 565.682 1207.28 564.877 1207.28C564.072 1207.28 562.723 1207.28 560.83 1207.28C558.937 1207.28 556.736 1207.28 554.227 1207.28C551.718 1207.28 549.068 1207.28 546.275 1207.28C543.53 1207.28 540.855 1207.28 538.252 1207.28C535.649 1207.28 533.329 1207.28 531.294 1207.28C529.259 1207.28 527.697 1207.28 526.608 1207.28L527.389 1198.34ZM555.079 1203.45C554.984 1208.7 554.44 1213.53 553.446 1217.93C552.452 1222.29 551.032 1226.24 549.186 1229.79C547.387 1233.34 545.163 1236.56 542.512 1239.45C539.861 1242.29 536.832 1244.77 533.424 1246.9L523.839 1240.44C525.117 1239.92 526.348 1239.33 527.531 1238.67C528.714 1237.96 529.732 1237.25 530.584 1236.54C532.619 1234.97 534.489 1233.2 536.193 1231.21C537.944 1229.18 539.483 1226.83 540.808 1224.18C542.181 1221.48 543.246 1218.43 544.003 1215.02C544.808 1211.62 545.234 1207.76 545.281 1203.45H555.079Z" fill="black"/>
<path d="M471.441 1241.44C471.583 1240.73 471.701 1239.93 471.796 1239.03C471.938 1238.08 472.009 1237.13 472.009 1236.19C472.009 1235.67 472.009 1234.62 472.009 1233.06C472.009 1231.5 472.009 1229.61 472.009 1227.38C472.009 1225.16 472.009 1222.77 472.009 1220.21C472.009 1217.61 472.009 1214.98 472.009 1212.33C472.009 1209.68 472.009 1207.19 472.009 1204.88C472.009 1202.51 472.009 1200.45 472.009 1198.7C472.009 1196.9 472.009 1195.6 472.009 1194.79C472.009 1193.18 471.914 1191.79 471.725 1190.6C471.583 1189.42 471.488 1188.78 471.441 1188.69H482.02C481.973 1188.78 481.878 1189.44 481.736 1190.68C481.594 1191.86 481.523 1193.26 481.523 1194.86C481.523 1195.67 481.523 1196.88 481.523 1198.49C481.523 1200.05 481.523 1201.87 481.523 1203.95C481.523 1205.99 481.523 1208.17 481.523 1210.48C481.523 1212.8 481.523 1215.1 481.523 1217.37C481.523 1219.6 481.523 1221.73 481.523 1223.76C481.523 1225.75 481.523 1227.45 481.523 1228.87C481.523 1230.29 481.523 1231.33 481.523 1232C483.464 1231.15 485.475 1229.99 487.558 1228.52C489.641 1227.05 491.676 1225.35 493.664 1223.41C495.699 1221.42 497.498 1219.29 499.06 1217.02L504.527 1224.83C502.586 1227.38 500.22 1229.89 497.427 1232.35C494.682 1234.81 491.842 1237.06 488.907 1239.1C485.972 1241.13 483.156 1242.84 480.458 1244.21C479.701 1244.64 479.085 1245.01 478.612 1245.35C478.139 1245.72 477.736 1246.06 477.405 1246.34L471.441 1241.44ZM438.568 1240.38C441.692 1238.2 444.248 1235.57 446.236 1232.49C448.224 1229.42 449.691 1226.39 450.638 1223.41C451.159 1221.84 451.537 1219.93 451.774 1217.66C452.058 1215.34 452.271 1212.87 452.413 1210.27C452.555 1207.62 452.626 1205.02 452.626 1202.46C452.673 1199.86 452.697 1197.47 452.697 1195.29C452.697 1193.87 452.626 1192.66 452.484 1191.67C452.389 1190.63 452.247 1189.66 452.058 1188.76H462.495C462.448 1188.85 462.377 1189.26 462.282 1189.97C462.235 1190.63 462.164 1191.43 462.069 1192.38C462.022 1193.28 461.998 1194.23 461.998 1195.22C461.998 1197.3 461.974 1199.74 461.927 1202.53C461.88 1205.28 461.785 1208.09 461.643 1210.98C461.501 1213.87 461.288 1216.61 461.004 1219.22C460.72 1221.77 460.341 1223.95 459.868 1225.75C458.779 1229.77 457.146 1233.51 454.969 1236.97C452.839 1240.38 450.259 1243.43 447.23 1246.13L438.568 1240.38Z" fill="black"/>
<path d="M433.226 1194.93C432.848 1195.41 432.374 1196.02 431.806 1196.78C431.238 1197.49 430.789 1198.11 430.457 1198.63C429.369 1200.47 427.925 1202.6 426.126 1205.02C424.328 1207.38 422.34 1209.75 420.162 1212.12C417.985 1214.44 415.737 1216.42 413.417 1218.08L406.033 1212.19C407.453 1211.34 408.85 1210.34 410.222 1209.21C411.595 1208.07 412.849 1206.89 413.985 1205.66C415.169 1204.38 416.186 1203.17 417.038 1202.03C417.938 1200.9 418.624 1199.88 419.097 1198.98C418.482 1198.98 417.441 1198.98 415.973 1198.98C414.506 1198.98 412.755 1198.98 410.719 1198.98C408.684 1198.98 406.483 1198.98 404.116 1198.98C401.797 1198.98 399.478 1198.98 397.158 1198.98C394.839 1198.98 392.638 1198.98 390.555 1198.98C388.52 1198.98 386.745 1198.98 385.23 1198.98C383.763 1198.98 382.722 1198.98 382.106 1198.98C380.639 1198.98 379.243 1199.03 377.917 1199.12C376.592 1199.22 375.101 1199.34 373.444 1199.48V1189.61C374.817 1189.8 376.237 1189.96 377.704 1190.11C379.172 1190.25 380.639 1190.32 382.106 1190.32C382.722 1190.32 383.81 1190.32 385.372 1190.32C386.934 1190.32 388.78 1190.32 390.91 1190.32C393.088 1190.32 395.383 1190.32 397.797 1190.32C400.259 1190.32 402.696 1190.32 405.11 1190.32C407.572 1190.32 409.844 1190.32 411.926 1190.32C414.056 1190.32 415.855 1190.32 417.322 1190.32C418.837 1190.32 419.855 1190.32 420.375 1190.32C421.038 1190.32 421.843 1190.3 422.789 1190.25C423.736 1190.2 424.659 1190.13 425.558 1190.04C426.505 1189.94 427.191 1189.82 427.617 1189.68L433.226 1194.93ZM404.258 1204.52C404.258 1208.02 404.187 1211.41 404.045 1214.67C403.903 1217.94 403.501 1221.09 402.838 1224.12C402.223 1227.1 401.205 1229.94 399.785 1232.64C398.413 1235.33 396.496 1237.89 394.034 1240.3C391.573 1242.72 388.425 1244.94 384.591 1246.98L376.284 1240.23C377.42 1239.85 378.627 1239.36 379.905 1238.74C381.183 1238.08 382.461 1237.27 383.739 1236.33C386.011 1234.77 387.834 1233.11 389.206 1231.36C390.626 1229.61 391.715 1227.71 392.472 1225.68C393.23 1223.59 393.75 1221.35 394.034 1218.93C394.318 1216.47 394.46 1213.8 394.46 1210.91C394.46 1209.82 394.437 1208.78 394.389 1207.79C394.342 1206.74 394.2 1205.66 393.963 1204.52H404.258Z" fill="black"/>
</svg>
