<svg width="1080" height="1920" viewBox="0 0 1080 1920" fill="none" xmlns="http://www.w3.org/2000/svg">
<path d="M1080 1920L1080 0L0 0L0 1920H1080Z" fill="#A5D4AD"/>
<path d="M1020 983.72V95C1020 75.67 1004.33 60 985 60H95.58C75.93 60 60 75.93 60 95.58V983.71C60 984.03 60.25 984.28 60.57 984.28C80.03 984.59 95.71 1000.46 95.71 1019.99C95.71 1039.52 80.03 1055.39 60.57 1055.7C60.25 1055.7 60 1055.96 60 1056.27V1824.99C60 1844.32 75.67 1859.99 95 1859.99H985C1004.33 1859.99 1020 1844.32 1020 1824.99V1056.27C1020 1055.95 1019.75 1055.7 1019.43 1055.7C999.97 1055.39 984.29 1039.52 984.29 1019.99C984.29 1000.46 999.97 984.59 1019.43 984.28C1019.75 984.28 1020 984.02 1020 983.71V983.72Z" fill="white"/>
<path d="M60.57 1055.71C60.25 1055.71 60 1055.97 60 1056.28V1825C60 1844.33 75.67 1860 95 1860H985C1004.33 1860 1020 1844.33 1020 1825V1056.28C1020 1055.96 1019.75 1055.71 1019.43 1055.71C999.97 1055.4 984.29 1039.53 984.29 1020H95.71C95.71 1039.53 80.03 1055.4 60.57 1055.71Z" fill="#E5F2E6"/>
<path d="M121 1020H160.9" stroke="black" stroke-width="6" stroke-miterlimit="10"/>
<path d="M187.51 1020H227.41" stroke="black" stroke-width="6" stroke-miterlimit="10"/>
<path d="M254.02 1020H293.92" stroke="black" stroke-width="6" stroke-miterlimit="10"/>
<path d="M320.52 1020H360.43" stroke="black" stroke-width="6" stroke-miterlimit="10"/>
<path d="M387.029 1020H426.939" stroke="black" stroke-width="6" stroke-miterlimit="10"/>
<path d="M453.539 1020H493.439" stroke="black" stroke-width="6" stroke-miterlimit="10"/>
<path d="M520.051 1020H559.951" stroke="black" stroke-width="6" stroke-miterlimit="10"/>
<path d="M586.561 1020H626.461" stroke="black" stroke-width="6" stroke-miterlimit="10"/>
<path d="M653.061 1020H692.971" stroke="black" stroke-width="6" stroke-miterlimit="10"/>
<path d="M719.57 1020H759.48" stroke="black" stroke-width="6" stroke-miterlimit="10"/>
<path d="M786.08 1020H825.98" stroke="black" stroke-width="6" stroke-miterlimit="10"/>
<path d="M852.59 1020H892.49" stroke="black" stroke-width="6" stroke-miterlimit="10"/>
<path d="M919.1 1020H959" stroke="black" stroke-width="6" stroke-miterlimit="10"/>
<path d="M1020 984.29V95C1020 75.67 1004.33 60 985 60H95C75.67 60 60 75.67 60 95V984.29C79.72 984.29 95.71 1000.28 95.71 1020C95.71 1039.72 79.72 1055.71 60 1055.71V1825C60 1844.33 75.67 1860 95 1860H985C1004.33 1860 1020 1844.33 1020 1825V1055.71C1000.28 1055.71 984.29 1039.72 984.29 1020C984.29 1000.28 1000.28 984.29 1020 984.29Z" stroke="black" stroke-width="6" stroke-miterlimit="10"/>
<path d="M912.649 525.666C908.779 525.666 905.539 522.646 905.319 518.736C900.589 435.626 868.789 358.856 813.369 296.746C810.669 293.716 810.929 289.066 813.959 286.366C816.989 283.666 821.629 283.926 824.339 286.956C881.999 351.576 915.069 431.436 919.999 517.896C920.229 521.946 917.129 525.426 913.079 525.656C912.939 525.656 912.799 525.666 912.659 525.666H912.649Z" fill="black"/>
<path d="M818.849 795.517C817.109 795.517 815.359 794.897 813.959 793.647C810.929 790.947 810.669 786.297 813.369 783.267C868.789 721.157 900.589 644.387 905.319 561.277C905.549 557.227 909.029 554.117 913.079 554.357C917.129 554.587 920.229 558.057 919.999 562.117C915.069 648.587 881.999 728.447 824.339 793.057C822.889 794.687 820.869 795.517 818.849 795.517Z" fill="black"/>
<path d="M167.36 525.666C167.22 525.666 167.08 525.666 166.94 525.656C162.89 525.426 159.79 521.956 160.02 517.896C164.95 431.426 198.02 351.566 255.68 286.956C258.38 283.926 263.03 283.666 266.06 286.366C269.09 289.066 269.35 293.716 266.65 296.746C211.23 358.856 179.43 435.616 174.7 518.736C174.48 522.646 171.24 525.666 167.37 525.666H167.36Z" fill="black"/>
<path d="M261.17 795.517C259.15 795.517 257.13 794.687 255.68 793.057C198.02 728.437 164.95 648.577 160.02 562.117C159.79 558.067 162.89 554.587 166.94 554.357C170.99 554.117 174.47 557.227 174.7 561.277C179.43 644.397 211.23 721.157 266.65 783.267C269.35 786.297 269.09 790.947 266.06 793.647C264.66 794.897 262.91 795.517 261.17 795.517Z" fill="black"/>
<path d="M788.169 268.511C786.429 268.511 784.679 267.891 783.279 266.641C721.169 211.221 644.399 179.421 561.289 174.691C557.239 174.461 554.139 170.991 554.369 166.931C554.599 162.881 558.039 159.791 562.129 160.011C648.599 164.941 728.459 198.011 793.069 255.671C796.099 258.371 796.359 263.021 793.659 266.051C792.209 267.681 790.189 268.511 788.169 268.511Z" fill="black"/>
<path d="M291.85 268.512C289.83 268.512 287.81 267.682 286.36 266.052C283.66 263.022 283.92 258.372 286.95 255.672C351.57 198.012 431.43 164.942 517.89 160.012C521.94 159.782 525.42 162.882 525.65 166.932C525.88 170.982 522.78 174.462 518.73 174.692C435.62 179.422 358.85 211.222 296.74 266.642C295.34 267.892 293.59 268.512 291.85 268.512Z" fill="black"/>
<path d="M561.69 920.006C557.82 920.006 554.58 916.986 554.36 913.076C554.13 909.026 557.23 905.546 561.28 905.316C644.4 900.586 721.16 868.786 783.27 813.366C786.3 810.666 790.95 810.926 793.65 813.956C796.35 816.986 796.09 821.636 793.06 824.336C728.44 881.996 648.58 915.066 562.12 919.996C561.98 919.996 561.84 920.006 561.7 920.006H561.69Z" fill="black"/>
<path d="M518.319 920.006C518.179 920.006 518.04 920.006 517.9 919.996C431.43 915.066 351.569 881.996 286.959 824.336C283.929 821.636 283.669 816.986 286.369 813.956C289.069 810.926 293.719 810.666 296.749 813.366C358.859 868.786 435.629 900.586 518.739 905.316C522.789 905.546 525.889 909.016 525.659 913.076C525.439 916.986 522.199 920.006 518.329 920.006H518.319Z" fill="black"/>
<path d="M875.38 526.189C872.37 526.189 869.85 523.839 869.68 520.799C865.41 445.789 836.71 376.519 786.7 320.459C784.6 318.099 784.8 314.489 787.16 312.389C789.51 310.289 793.13 310.489 795.23 312.849C846.98 370.849 876.68 442.539 881.1 520.149C881.28 523.299 878.87 525.999 875.72 526.179C875.61 526.179 875.5 526.179 875.39 526.179L875.38 526.189Z" fill="black"/>
<path d="M790.96 769.062C789.6 769.062 788.25 768.582 787.16 767.612C784.8 765.512 784.6 761.892 786.7 759.542C836.71 703.492 865.41 634.212 869.68 559.202C869.86 556.052 872.55 553.642 875.71 553.822C878.86 554.002 881.27 556.702 881.09 559.852C876.67 637.472 846.98 709.152 795.22 767.152C794.09 768.422 792.52 769.062 790.95 769.062H790.96Z" fill="black"/>
<path d="M204.63 526.187C204.52 526.187 204.41 526.187 204.3 526.187C201.15 526.007 198.74 523.307 198.92 520.157C203.34 442.537 233.03 370.857 284.79 312.857C286.89 310.497 290.51 310.297 292.86 312.397C295.22 314.497 295.42 318.117 293.32 320.467C243.31 376.517 214.61 445.797 210.34 520.807C210.17 523.847 207.65 526.197 204.64 526.197L204.63 526.187Z" fill="black"/>
<path d="M289.05 769.055C287.48 769.055 285.91 768.405 284.78 767.145C233.03 709.145 203.33 637.455 198.91 559.845C198.73 556.695 201.14 553.995 204.29 553.815C207.45 553.625 210.14 556.045 210.32 559.195C214.59 634.205 243.29 703.485 293.3 759.535C295.4 761.895 295.2 765.505 292.84 767.605C291.75 768.575 290.39 769.055 289.04 769.055H289.05Z" fill="black"/>
<path d="M763.35 294.756C761.99 294.756 760.64 294.276 759.55 293.306C703.5 243.296 634.22 214.596 559.21 210.326C556.06 210.146 553.65 207.446 553.83 204.296C554.01 201.146 556.7 198.736 559.86 198.916C637.48 203.336 709.16 233.026 767.16 284.786C769.52 286.886 769.72 290.506 767.62 292.856C766.49 294.126 764.92 294.766 763.35 294.766V294.756Z" fill="black"/>
<path d="M316.659 294.759C315.089 294.759 313.519 294.109 312.389 292.849C310.289 290.489 310.489 286.879 312.849 284.779C370.849 233.029 442.539 203.329 520.149 198.909C523.299 198.719 525.999 201.139 526.179 204.289C526.359 207.439 523.949 210.139 520.799 210.319C445.789 214.589 376.519 243.289 320.459 293.299C319.369 294.269 318.009 294.749 316.659 294.749V294.759Z" fill="black"/>
<path d="M559.53 881.102C556.52 881.102 554 878.752 553.83 875.712C553.65 872.562 556.06 869.862 559.21 869.682C634.22 865.412 703.49 836.712 759.55 786.702C761.9 784.602 765.52 784.802 767.62 787.162C769.72 789.522 769.52 793.132 767.16 795.232C709.16 846.982 637.47 876.682 559.86 881.102C559.75 881.102 559.64 881.102 559.53 881.102Z" fill="black"/>
<path d="M520.489 881.102C520.379 881.102 520.269 881.102 520.159 881.102C442.539 876.682 370.859 846.992 312.859 795.232C310.499 793.132 310.299 789.512 312.399 787.162C314.499 784.802 318.119 784.602 320.469 786.702C376.519 836.722 445.799 865.412 520.809 869.682C523.959 869.862 526.369 872.562 526.189 875.712C526.019 878.752 523.499 881.102 520.489 881.102Z" fill="black"/>
<path d="M841.849 526.514C839.699 526.514 837.899 524.834 837.779 522.664C833.919 454.914 807.999 392.344 762.829 341.714C761.329 340.034 761.479 337.454 763.159 335.944C764.839 334.444 767.419 334.584 768.929 336.274C815.349 388.294 841.979 452.584 845.939 522.194C846.069 524.444 844.349 526.374 842.089 526.504C842.009 526.504 841.929 526.504 841.849 526.504V526.514Z" fill="black"/>
<path d="M765.869 745.106C764.899 745.106 763.929 744.766 763.149 744.066C761.469 742.566 761.319 739.986 762.819 738.296C807.989 687.666 833.909 625.096 837.769 557.346C837.899 555.096 839.859 553.396 842.079 553.496C844.329 553.626 846.049 555.556 845.929 557.806C841.959 627.416 815.329 691.706 768.919 743.726C768.109 744.626 766.989 745.086 765.869 745.086V745.106Z" fill="black"/>
<path d="M238.17 526.516C238.09 526.516 238.01 526.516 237.93 526.516C235.68 526.386 233.96 524.456 234.08 522.206C238.05 452.596 264.68 388.306 311.09 336.286C312.59 334.606 315.17 334.456 316.86 335.956C318.54 337.456 318.69 340.036 317.19 341.726C272.02 392.356 246.1 454.926 242.24 522.676C242.12 524.846 240.32 526.526 238.17 526.526V526.516Z" fill="black"/>
<path d="M314.139 745.103C313.019 745.103 311.899 744.643 311.089 743.743C264.669 691.723 238.039 627.433 234.079 557.823C233.949 555.573 235.669 553.643 237.929 553.513C240.169 553.403 242.109 555.103 242.239 557.363C246.099 625.113 272.019 687.683 317.189 738.313C318.689 739.993 318.539 742.573 316.859 744.083C316.079 744.773 315.109 745.123 314.139 745.123V745.103Z" fill="black"/>
<path d="M741.018 318.225C740.048 318.225 739.078 317.885 738.298 317.185C687.668 272.015 625.098 246.095 557.348 242.235C555.098 242.105 553.378 240.175 553.498 237.925C553.628 235.675 555.548 233.965 557.808 234.075C627.418 238.045 691.708 264.675 743.738 311.085C745.418 312.585 745.568 315.165 744.068 316.855C743.258 317.755 742.138 318.215 741.018 318.215V318.225Z" fill="black"/>
<path d="M338.998 318.224C337.878 318.224 336.758 317.764 335.948 316.864C334.448 315.184 334.598 312.604 336.278 311.094C388.298 264.674 452.588 238.044 522.198 234.084C524.448 233.964 526.378 235.674 526.508 237.934C526.638 240.184 524.918 242.114 522.658 242.244C454.908 246.104 392.338 272.024 341.708 317.194C340.928 317.884 339.958 318.234 338.988 318.234L338.998 318.224Z" fill="black"/>
<path d="M557.569 845.933C555.419 845.933 553.619 844.253 553.499 842.083C553.369 839.833 555.089 837.903 557.349 837.773C625.099 833.913 687.669 807.993 738.299 762.823C739.979 761.323 742.559 761.473 744.069 763.153C745.569 764.833 745.419 767.413 743.739 768.923C691.719 815.343 627.429 841.973 557.809 845.933C557.729 845.933 557.649 845.933 557.569 845.933Z" fill="black"/>
<path d="M522.438 845.933C522.358 845.933 522.278 845.933 522.198 845.933C452.588 841.963 388.298 815.333 336.278 768.923C334.598 767.423 334.448 764.843 335.948 763.153C337.448 761.473 340.028 761.323 341.718 762.823C392.348 807.993 454.918 833.913 522.668 837.773C524.918 837.903 526.638 839.833 526.518 842.083C526.398 844.253 524.598 845.933 522.448 845.933H522.438Z" fill="black"/>
<path d="M320.65 546.174C320.65 544.604 321.79 543.274 323.34 543.024C324.64 542.814 326.27 542.524 327.98 542.124C332.4 541.084 337.59 539.114 343.41 536.274C349.29 533.404 354.92 529.414 359.17 523.674C366.34 513.974 367.86 501.404 368.19 496.894C368.26 495.974 367.53 495.194 366.6 495.194H317.09C315.33 495.194 313.91 493.764 313.91 492.014V470.694C313.91 468.934 315.34 467.514 317.09 467.514H367.07C367.95 467.514 368.66 466.804 368.66 465.924V447.184C368.66 446.304 367.95 445.594 367.07 445.594H328.62C326.86 445.594 325.44 444.164 325.44 442.414V421.094C325.44 419.334 326.87 417.914 328.62 417.914H428.96C430.72 417.914 432.14 419.344 432.14 421.094V442.414C432.14 444.174 430.71 445.594 428.96 445.594H398.52C397.64 445.594 396.93 446.304 396.93 447.184V465.924C396.93 466.804 397.64 467.514 398.52 467.514H438.58C440.34 467.514 441.76 468.944 441.76 470.694V492.014C441.76 493.774 440.33 495.194 438.58 495.194H398.39C397.54 495.194 396.84 495.864 396.8 496.714C396.57 501.754 395.15 518.444 386.18 532.854C380.73 541.614 373.65 548.264 366.54 553.544C359.41 558.844 352.26 562.934 345.27 565.704C338.24 568.494 332.34 570.444 327.75 571.514C326.66 571.764 325.49 571.994 324.4 572.184C322.45 572.534 320.66 571.034 320.66 569.044V546.164L320.65 546.174Z" fill="black"/>
<path d="M474.55 546.522C474.55 545.062 475.55 543.792 476.96 543.432C485.21 541.362 488.93 540.112 496.84 536.322C496.84 536.322 500.89 534.212 504.93 531.302C517.11 522.542 525.22 510.632 525.22 510.632C534.68 497.282 537.77 474.912 538.49 468.492C538.6 467.552 537.86 466.722 536.91 466.722H500.58C500.35 466.722 500.14 466.842 500.03 467.042L499.88 467.292C494.3 478.112 486.88 487.992 480.45 494.242C474 500.502 468.59 505.052 464.38 507.752L461.78 509.422C460.72 510.102 459.33 509.342 459.33 508.082V479.892C459.33 478.952 459.75 478.062 460.47 477.452C461.12 476.902 461.99 476.132 463.18 475.062C465.94 472.572 469.05 468.512 472.42 462.982C475.76 457.512 479.35 450.212 483.07 441.292C486.45 433.202 488.98 423.092 490.86 412.062C491.12 410.532 492.45 409.422 494 409.422H513.91C515.91 409.422 517.42 411.252 517.04 413.212C516.4 416.522 515.71 420.882 514.85 424.312C513.58 429.392 512.76 432.302 511.24 436.722C510.98 437.472 511.54 438.242 512.33 438.242H591.18C592.94 438.242 594.36 439.672 594.36 441.422V463.512C594.36 465.272 592.93 466.692 591.18 466.692H568.14C567.33 466.692 566.64 467.302 566.56 468.112C565.93 474.012 562.88 497.162 552.39 517.262C538.29 546.002 508.14 566.392 478.34 572.132C476.38 572.512 474.56 571.002 474.56 569.002V546.482L474.55 546.522Z" fill="black"/>
<path d="M675.9 411.035V468.875C675.9 469.755 676.61 470.465 677.49 470.465H764.52C765.4 470.465 766.11 469.755 766.11 468.875V411.035C766.11 410.155 765.4 409.445 764.52 409.445H677.49C676.61 409.445 675.9 410.155 675.9 411.035ZM738.46 452.745H702.3C701.42 452.745 700.71 452.035 700.71 451.155V446.875C700.71 445.995 701.42 445.285 702.3 445.285H738.46C739.34 445.285 740.05 445.995 740.05 446.875V451.155C740.05 452.035 739.34 452.745 738.46 452.745ZM738.46 434.455H702.3C701.42 434.455 700.71 433.745 700.71 432.865V428.755C700.71 427.875 701.42 427.165 702.3 427.165H738.46C739.34 427.165 740.05 427.875 740.05 428.755V432.865C740.05 433.745 739.34 434.455 738.46 434.455Z" fill="black"/>
<path d="M674.23 497.342H728.27C729.15 497.342 729.86 498.052 729.86 498.932V502.842C729.86 503.722 729.15 504.432 728.27 504.432H667.76C666 504.432 664.58 505.862 664.58 507.612V522.862C664.58 524.622 666.01 526.042 667.76 526.042H728.27C729.15 526.042 729.86 526.752 729.86 527.632V545.392C729.86 546.112 729.94 547.982 729.22 548.852C728.39 549.872 727.15 549.672 725.85 549.722C722.54 549.722 719.58 549.702 716.95 549.662C716.55 549.662 716.26 549.292 716.34 548.902C716.6 547.632 716.73 546.312 716.7 544.962C716.5 535.682 708.94 528.082 699.66 527.842C689.58 527.582 681.37 535.852 681.71 545.942C682.02 555.292 689.79 562.812 699.15 562.842C704.04 562.852 708.46 560.862 711.64 557.642C711.98 557.302 712.55 557.432 712.7 557.882C714.16 562.212 715.54 566.342 716.79 570.052C717.23 571.352 718.46 572.222 719.83 572.212C725.73 572.172 730.51 571.962 734.18 571.602C738.31 571.182 742.09 570.152 745.52 568.502C749.18 566.842 751.69 564.422 753.05 561.232C754.41 558.042 755.09 553.552 755.09 547.762V527.622C755.09 526.742 755.8 526.032 756.68 526.032H762.91C764.67 526.032 766.09 524.602 766.09 522.852V507.602C766.09 505.842 764.66 504.422 762.91 504.422H756.68C755.8 504.422 755.09 503.712 755.09 502.832V498.922C755.09 498.042 755.8 497.332 756.68 497.332H762.91C764.67 497.332 766.09 495.902 766.09 494.152V479.602C766.09 477.842 764.66 476.422 762.91 476.422H674.21C672.45 476.422 671.03 477.852 671.03 479.602V494.152C671.03 495.912 672.46 497.332 674.21 497.332L674.23 497.342Z" fill="black"/>
<path d="M668.83 409.445H650.26C649.4 409.445 648.58 409.795 647.98 410.405C635.23 423.355 618.29 434.575 612.13 438.485C610.78 439.335 610.28 441.065 610.95 442.505L620.7 463.575C621.63 465.575 624.26 466.055 625.83 464.505C646.12 444.465 664.45 419.805 670.12 411.965C670.88 410.915 670.12 409.445 668.83 409.445Z" fill="black"/>
<path d="M671.92 453.899V435.419C671.92 434.009 670.22 433.299 669.21 434.289C653.64 449.609 620.05 477.069 611.68 483.869C610.55 484.789 610.19 486.359 610.8 487.679L620.7 509.059C621.63 511.059 624.26 511.539 625.83 509.989C627.54 508.299 629.24 506.569 630.92 504.829C631.32 504.419 632.02 504.699 632.02 505.269V569.069C632.02 570.829 633.45 572.249 635.2 572.249H653.82C655.58 572.249 657 570.819 657 569.069V476.379C657 475.309 657.36 474.259 658.03 473.419C664.87 464.739 669.72 458.029 671.34 455.749C671.72 455.209 671.93 454.569 671.93 453.899H671.92Z" fill="black"/>
<path d="M653.271 623.338C640.851 623.338 634.811 628.288 634.811 638.478V655.608C634.811 665.678 640.851 670.568 653.271 670.568C659.141 670.568 663.481 669.488 666.561 667.278C670.001 664.808 671.741 660.878 671.741 655.598V638.468C671.741 628.278 665.701 623.328 653.281 623.328L653.271 623.338ZM646.091 639.308C646.091 633.938 648.841 632.918 653.271 632.918C657.701 632.918 660.451 633.958 660.451 639.308V654.688C660.451 659.958 657.601 660.988 653.271 660.988C648.941 660.988 646.091 659.988 646.091 654.688V639.308Z" fill="black"/>
<path d="M708.27 669.334H721.359L703.63 646.784L720.56 624.804H707.4L694.06 642.284V610.234H682.77V669.334H694.06V659.214L696.95 655.454L708.27 669.334Z" fill="black"/>
<path d="M754.82 624.805V653.295C754.82 659.045 751.88 660.895 746.83 660.895C743.56 660.895 740.28 660.355 740.28 653.885V624.815H729V656.775C729 665.745 733.71 670.485 742.62 670.485C749.3 670.485 753.88 666.865 755.58 662.805L757.39 669.345H766.11V624.815H754.83L754.82 624.805Z" fill="black"/>
<path d="M630.57 610.234H589.15V620.144V620.154H604.22V669.334H615.69V620.154H630.57V610.234Z" fill="black"/>
<path d="M459.689 669.334H472.779L455.049 646.784L471.979 624.804H458.819L445.479 642.284V610.234H434.199V669.334H445.479V659.214L448.369 655.454L459.689 669.334Z" fill="black"/>
<path d="M355.33 610.234H313.91V620.144V620.154H328.99V669.334H340.45V620.154H355.33V610.234Z" fill="black"/>
<path d="M421.8 658.896L421.2 659.046C417.62 659.966 413.29 660.896 409.41 660.896C404.86 660.896 401.69 658.826 401.69 652.836V640.976C401.69 634.906 404.86 632.826 409.41 632.826C413.36 632.826 417.88 633.706 421.23 634.406L421.81 634.526V625.196L421.5 625.126C417.69 624.236 412.05 623.336 407.53 623.336C402.01 623.336 397.97 624.406 395.17 626.596C391.97 629.096 390.42 633.856 390.42 639.346V654.646C390.42 664.776 396.02 670.566 407.54 670.566C411.41 670.566 417.27 669.496 421.53 668.316L421.82 668.236V658.886L421.8 658.896Z" fill="black"/>
<path d="M553.93 634.705V624.805H543.69V615.195H532.41V624.805H525.18V634.705H532.41V655.425C532.41 667.945 540.3 670.565 546.93 670.565C548.71 670.565 550.51 670.455 552.12 670.225V660.265C551.47 660.335 550.26 660.365 549.54 660.365C546.46 660.365 543.69 659.735 543.69 652.095V634.695H553.93V634.705Z" fill="black"/>
<path d="M489.741 650.742V650.562H515.171V641.482C515.171 635.572 513.551 630.243 510.361 627.343C507.421 624.673 502.781 623.312 497.261 623.312C485.081 623.312 478.461 629.223 478.461 639.593V654.453C478.461 664.703 483.841 670.552 496.321 670.552C500.981 670.552 506.291 669.563 511.971 668.403L512.361 668.323V659.052L511.711 659.203C507.141 660.253 504.621 661.143 500.291 661.143C494.081 661.143 489.741 658.623 489.741 652.203V650.722V650.742ZM489.741 639.722C489.741 634.072 493.801 632.742 497.171 632.742C500.541 632.742 504.071 634.072 504.071 639.722V643.232H489.741V642.713V639.722Z" fill="black"/>
<path d="M378.18 626.883H366.9V669.333H378.18V626.883Z" fill="black"/>
<path d="M372.54 622.224C376.422 622.224 379.57 619.077 379.57 615.194C379.57 611.312 376.422 608.164 372.54 608.164C368.657 608.164 365.51 611.312 365.51 615.194C365.51 619.077 368.657 622.224 372.54 622.224Z" fill="black"/>
<path d="M585.74 643.922H566.15V651.262H585.74V643.922Z" fill="black"/>
<path d="M778.858 1723C778.011 1723 777.285 1722.4 777.285 1721.43V1627.66C777.285 1626.93 777.89 1626.2 778.858 1626.2H823.144C824.112 1626.2 824.717 1626.81 824.717 1627.66V1637.09C824.717 1637.94 824.112 1638.55 823.144 1638.55H789.99V1668.43H822.055C822.902 1668.43 823.507 1669.04 823.507 1669.88V1679.08C823.507 1680.05 822.902 1680.77 822.055 1680.77H789.99V1721.43C789.99 1722.4 789.264 1723 788.417 1723H778.858Z" fill="black"/>
<path d="M710.204 1723C709.357 1723 708.631 1722.4 708.631 1721.43V1627.66C708.631 1626.93 709.236 1626.2 710.204 1626.2H754.49C755.458 1626.2 756.063 1626.81 756.063 1627.66V1637.09C756.063 1637.94 755.458 1638.55 754.49 1638.55H721.336V1668.43H753.401C754.248 1668.43 754.853 1669.04 754.853 1669.88V1679.08C754.853 1680.05 754.248 1680.77 753.401 1680.77H721.336V1721.43C721.336 1722.4 720.61 1723 719.763 1723H710.204Z" fill="black"/>
<path d="M640.647 1636.97C620.198 1636.97 603.742 1653.66 603.742 1674.48C603.742 1695.05 620.077 1712.23 640.526 1712.23C660.975 1712.23 677.673 1695.05 677.673 1674.6C677.673 1653.79 661.096 1636.97 640.647 1636.97ZM590.916 1674.48C590.916 1646.65 612.817 1624.38 640.647 1624.38C668.477 1624.38 690.499 1646.77 690.499 1674.6C690.499 1702.43 668.356 1724.81 640.526 1724.81C612.696 1724.81 590.916 1702.31 590.916 1674.48Z" fill="black"/>
<path d="M473.547 1627.89H568.411V1642.29H488.067V1733.77H473.547V1627.89ZM561.514 1627.89H576.155V1716.83C576.155 1720.7 575.671 1723.72 574.703 1725.9C573.735 1728.16 572.001 1729.89 569.5 1731.1C566.999 1732.31 563.853 1733.04 560.062 1733.28C556.351 1733.6 551.794 1733.77 546.389 1733.77C546.147 1732.39 545.744 1730.82 545.179 1729.05C544.614 1727.27 543.969 1725.5 543.243 1723.72C542.517 1722.03 541.791 1720.54 541.065 1719.25C543.404 1719.41 545.744 1719.53 548.083 1719.61C550.503 1719.61 552.641 1719.61 554.496 1719.61C556.351 1719.61 557.642 1719.61 558.368 1719.61C559.497 1719.53 560.304 1719.29 560.788 1718.88C561.272 1718.4 561.514 1717.63 561.514 1716.58V1627.89ZM481.412 1672.9H568.653V1687.18H481.412V1672.9ZM516.744 1635.76H531.264V1680.04H516.744V1635.76Z" fill="black"/>
<path d="M445.075 1674.48C445.075 1656.33 439.388 1636.72 424.263 1636.72C409.138 1636.72 403.451 1656.33 403.451 1674.48C403.451 1693.84 409.138 1712.47 424.263 1712.47C439.388 1712.47 445.075 1693.84 445.075 1674.48ZM390.746 1674.48C390.746 1650.28 400.063 1624.38 424.263 1624.38C448.463 1624.38 457.78 1650.28 457.78 1674.48C457.78 1701.1 448.463 1724.81 424.263 1724.81C400.063 1724.81 390.746 1701.1 390.746 1674.48Z" fill="black"/>
<path d="M365.905 1674.48C365.905 1656.33 360.218 1636.72 345.093 1636.72C329.968 1636.72 324.281 1656.33 324.281 1674.48C324.281 1693.84 329.968 1712.47 345.093 1712.47C360.218 1712.47 365.905 1693.84 365.905 1674.48ZM311.576 1674.48C311.576 1650.28 320.893 1624.38 345.093 1624.38C369.293 1624.38 378.61 1650.28 378.61 1674.48C378.61 1701.1 369.293 1724.81 345.093 1724.81C320.893 1724.81 311.576 1701.1 311.576 1674.48Z" fill="black"/>
<path d="M285.946 1626.2C286.793 1626.2 287.398 1626.81 287.398 1627.66V1721.43C287.398 1722.28 286.793 1723 285.946 1723H276.266C275.419 1723 274.814 1722.28 274.814 1721.43V1638.55H259.689C258.358 1638.55 257.753 1637.21 258.358 1636.37L264.408 1626.81C264.65 1626.45 265.134 1626.2 265.618 1626.2H285.946Z" fill="black"/>
<path d="M714.543 1503.9C714.376 1504.8 714.11 1505.97 713.743 1507.4C713.376 1508.83 712.843 1510.45 712.143 1512.25C711.61 1513.48 710.993 1514.77 710.293 1516.1C709.626 1517.4 708.943 1518.57 708.243 1519.6C708.676 1519.4 709.226 1519.23 709.893 1519.1C710.56 1518.93 711.243 1518.82 711.943 1518.75C712.676 1518.65 713.326 1518.6 713.893 1518.6C715.993 1518.6 717.726 1519.2 719.093 1520.4C720.493 1521.6 721.193 1523.38 721.193 1525.75C721.193 1526.42 721.193 1527.23 721.193 1528.2C721.226 1529.17 721.26 1530.18 721.293 1531.25C721.326 1532.28 721.36 1533.3 721.393 1534.3C721.426 1535.3 721.443 1536.2 721.443 1537H715.443C715.51 1536.43 715.543 1535.77 715.543 1535C715.576 1534.2 715.593 1533.37 715.593 1532.5C715.626 1531.63 715.643 1530.8 715.643 1530C715.676 1529.17 715.693 1528.42 715.693 1527.75C715.693 1526.15 715.26 1525.05 714.393 1524.45C713.56 1523.82 712.626 1523.5 711.593 1523.5C710.193 1523.5 708.776 1523.85 707.343 1524.55C705.943 1525.22 704.76 1526.02 703.793 1526.95C703.06 1527.68 702.31 1528.5 701.543 1529.4C700.81 1530.3 700.01 1531.32 699.143 1532.45L693.793 1528.45C695.96 1526.45 697.826 1524.52 699.393 1522.65C700.993 1520.78 702.343 1518.93 703.443 1517.1C704.543 1515.27 705.443 1513.43 706.143 1511.6C706.643 1510.27 707.043 1508.88 707.343 1507.45C707.676 1505.98 707.876 1504.62 707.943 1503.35L714.543 1503.9ZM695.743 1508.5C697.01 1508.7 698.476 1508.85 700.143 1508.95C701.81 1509.05 703.276 1509.1 704.543 1509.1C706.743 1509.1 709.143 1509.05 711.743 1508.95C714.376 1508.85 717.043 1508.68 719.743 1508.45C722.443 1508.18 725.01 1507.85 727.443 1507.45L727.393 1513.25C725.626 1513.48 723.71 1513.7 721.643 1513.9C719.61 1514.07 717.526 1514.22 715.393 1514.35C713.293 1514.45 711.276 1514.53 709.343 1514.6C707.41 1514.63 705.693 1514.65 704.193 1514.65C703.526 1514.65 702.693 1514.65 701.693 1514.65C700.726 1514.62 699.726 1514.58 698.693 1514.55C697.66 1514.48 696.676 1514.42 695.743 1514.35V1508.5ZM735.343 1522.7C734.81 1522.87 734.176 1523.08 733.443 1523.35C732.743 1523.58 732.026 1523.83 731.293 1524.1C730.593 1524.33 729.96 1524.57 729.393 1524.8C727.793 1525.43 725.893 1526.2 723.693 1527.1C721.526 1528 719.26 1529.05 716.893 1530.25C715.393 1531.05 714.126 1531.83 713.093 1532.6C712.06 1533.37 711.276 1534.15 710.743 1534.95C710.21 1535.72 709.943 1536.57 709.943 1537.5C709.943 1538.2 710.093 1538.78 710.393 1539.25C710.693 1539.68 711.143 1540.03 711.743 1540.3C712.343 1540.57 713.093 1540.75 713.993 1540.85C714.893 1540.95 715.96 1541 717.193 1541C719.326 1541 721.676 1540.88 724.243 1540.65C726.81 1540.38 729.193 1540.03 731.393 1539.6L731.193 1546.05C730.126 1546.18 728.776 1546.32 727.143 1546.45C725.51 1546.62 723.81 1546.73 722.043 1546.8C720.31 1546.87 718.643 1546.9 717.043 1546.9C714.443 1546.9 712.11 1546.65 710.043 1546.15C707.976 1545.65 706.343 1544.8 705.143 1543.6C703.976 1542.37 703.393 1540.68 703.393 1538.55C703.393 1536.82 703.776 1535.25 704.543 1533.85C705.343 1532.45 706.393 1531.18 707.693 1530.05C708.993 1528.92 710.41 1527.9 711.943 1527C713.51 1526.07 715.043 1525.22 716.543 1524.45C718.076 1523.65 719.46 1522.97 720.693 1522.4C721.926 1521.83 723.076 1521.33 724.143 1520.9C725.243 1520.43 726.293 1519.97 727.293 1519.5C728.26 1519.07 729.193 1518.65 730.093 1518.25C730.993 1517.82 731.91 1517.37 732.843 1516.9L735.343 1522.7Z" fill="black"/>
<path d="M667.994 1506.3C667.66 1507.03 667.31 1507.87 666.944 1508.8C666.577 1509.7 666.21 1510.72 665.844 1511.85C665.544 1512.78 665.16 1513.98 664.694 1515.45C664.227 1516.88 663.71 1518.47 663.144 1520.2C662.577 1521.9 661.977 1523.67 661.344 1525.5C660.744 1527.3 660.16 1529.05 659.594 1530.75C659.027 1532.45 658.494 1534 657.994 1535.4C657.494 1536.77 657.06 1537.88 656.694 1538.75L649.294 1539C649.76 1537.93 650.277 1536.63 650.844 1535.1C651.41 1533.57 652.01 1531.9 652.644 1530.1C653.277 1528.27 653.894 1526.4 654.494 1524.5C655.127 1522.6 655.71 1520.77 656.244 1519C656.81 1517.23 657.31 1515.6 657.744 1514.1C658.21 1512.6 658.577 1511.38 658.844 1510.45C659.177 1509.15 659.427 1508.08 659.594 1507.25C659.794 1506.38 659.944 1505.52 660.044 1504.65L667.994 1506.3ZM676.944 1522.45C677.844 1523.78 678.81 1525.35 679.844 1527.15C680.877 1528.95 681.894 1530.83 682.894 1532.8C683.927 1534.73 684.877 1536.6 685.744 1538.4C686.61 1540.2 687.327 1541.82 687.894 1543.25L681.144 1546.25C680.577 1544.72 679.877 1542.98 679.044 1541.05C678.244 1539.12 677.36 1537.15 676.394 1535.15C675.46 1533.15 674.494 1531.27 673.494 1529.5C672.527 1527.7 671.594 1526.2 670.694 1525L676.944 1522.45ZM648.844 1536.8C649.977 1536.73 651.344 1536.65 652.944 1536.55C654.577 1536.42 656.327 1536.27 658.194 1536.1C660.06 1535.9 661.96 1535.7 663.894 1535.5C665.86 1535.3 667.777 1535.1 669.644 1534.9C671.544 1534.67 673.31 1534.45 674.944 1534.25C676.577 1534.05 677.96 1533.87 679.094 1533.7L680.594 1540.1C679.36 1540.27 677.877 1540.45 676.144 1540.65C674.444 1540.85 672.61 1541.07 670.644 1541.3C668.677 1541.5 666.677 1541.72 664.644 1541.95C662.61 1542.18 660.627 1542.4 658.694 1542.6C656.76 1542.8 654.977 1542.98 653.344 1543.15C651.71 1543.28 650.327 1543.42 649.194 1543.55C648.56 1543.62 647.81 1543.72 646.944 1543.85C646.11 1543.95 645.294 1544.05 644.494 1544.15L643.344 1536.85C644.177 1536.85 645.094 1536.85 646.094 1536.85C647.127 1536.85 648.044 1536.83 648.844 1536.8Z" fill="black"/>
<path d="M596.357 1520.85C596.957 1520.88 597.724 1520.93 598.657 1521C599.591 1521.03 600.557 1521.07 601.557 1521.1C602.591 1521.13 603.541 1521.15 604.407 1521.15C605.241 1521.15 606.274 1521.15 607.507 1521.15C608.741 1521.15 610.074 1521.15 611.507 1521.15C612.974 1521.15 614.474 1521.15 616.007 1521.15C617.574 1521.15 619.124 1521.15 620.657 1521.15C622.191 1521.15 623.641 1521.15 625.007 1521.15C626.374 1521.15 627.591 1521.15 628.657 1521.15C629.757 1521.15 630.624 1521.15 631.257 1521.15C632.424 1521.15 633.524 1521.12 634.557 1521.05C635.591 1520.95 636.441 1520.88 637.107 1520.85V1528.7C636.541 1528.67 635.691 1528.62 634.557 1528.55C633.424 1528.48 632.324 1528.45 631.257 1528.45C630.624 1528.45 629.757 1528.45 628.657 1528.45C627.557 1528.45 626.324 1528.45 624.957 1528.45C623.591 1528.45 622.141 1528.45 620.607 1528.45C619.107 1528.45 617.574 1528.45 616.007 1528.45C614.441 1528.45 612.924 1528.45 611.457 1528.45C610.024 1528.45 608.691 1528.45 607.457 1528.45C606.257 1528.45 605.241 1528.45 604.407 1528.45C602.974 1528.45 601.507 1528.48 600.007 1528.55C598.507 1528.58 597.291 1528.63 596.357 1528.7V1520.85Z" fill="black"/>
<path d="M581.907 1505.2C581.874 1505.9 581.824 1506.67 581.757 1507.5C581.724 1508.3 581.707 1509.2 581.707 1510.2C581.707 1511.07 581.707 1512.12 581.707 1513.35C581.707 1514.59 581.707 1515.82 581.707 1517.05C581.707 1518.25 581.707 1519.27 581.707 1520.1C581.707 1522.77 581.574 1525.1 581.307 1527.1C581.074 1529.1 580.707 1530.85 580.207 1532.35C579.707 1533.85 579.09 1535.19 578.357 1536.35C577.657 1537.49 576.84 1538.57 575.907 1539.6C574.807 1540.8 573.54 1541.89 572.107 1542.85C570.674 1543.79 569.224 1544.57 567.757 1545.2C566.324 1545.87 564.99 1546.4 563.757 1546.8L558.507 1541.3C561.007 1540.74 563.257 1539.95 565.257 1538.95C567.29 1537.92 569.057 1536.6 570.557 1535C571.424 1534.04 572.124 1533.07 572.657 1532.1C573.19 1531.14 573.59 1530.07 573.857 1528.9C574.157 1527.7 574.357 1526.35 574.457 1524.85C574.59 1523.35 574.657 1521.64 574.657 1519.7C574.657 1518.84 574.657 1517.8 574.657 1516.6C574.657 1515.4 574.657 1514.22 574.657 1513.05C574.657 1511.89 574.657 1510.94 574.657 1510.2C574.657 1509.2 574.624 1508.3 574.557 1507.5C574.524 1506.67 574.457 1505.9 574.357 1505.2H581.907ZM558.707 1505.6C558.674 1506.2 558.64 1506.8 558.607 1507.4C558.574 1507.97 558.557 1508.65 558.557 1509.45C558.557 1509.82 558.557 1510.42 558.557 1511.25C558.557 1512.09 558.557 1513.07 558.557 1514.2C558.557 1515.3 558.557 1516.47 558.557 1517.7C558.557 1518.9 558.557 1520.07 558.557 1521.2C558.557 1522.34 558.557 1523.37 558.557 1524.3C558.557 1525.2 558.557 1525.89 558.557 1526.35C558.557 1526.99 558.574 1527.72 558.607 1528.55C558.64 1529.39 558.674 1530.1 558.707 1530.7H551.457C551.49 1530.24 551.54 1529.57 551.607 1528.7C551.674 1527.84 551.707 1527.04 551.707 1526.3C551.707 1525.84 551.707 1525.15 551.707 1524.25C551.707 1523.35 551.707 1522.34 551.707 1521.2C551.707 1520.04 551.707 1518.85 551.707 1517.65C551.707 1516.42 551.707 1515.25 551.707 1514.15C551.707 1513.05 551.707 1512.09 551.707 1511.25C551.707 1510.42 551.707 1509.82 551.707 1509.45C551.707 1508.99 551.69 1508.39 551.657 1507.65C551.624 1506.89 551.574 1506.2 551.507 1505.6H558.707Z" fill="black"/>
<path d="M536.707 1512.9C536.44 1513.37 536.157 1513.93 535.857 1514.6C535.557 1515.23 535.29 1515.87 535.057 1516.5C534.624 1517.97 534.007 1519.65 533.207 1521.55C532.44 1523.42 531.474 1525.37 530.307 1527.4C529.174 1529.4 527.857 1531.33 526.357 1533.2C523.957 1536.07 521.157 1538.67 517.957 1541C514.79 1543.33 510.857 1545.43 506.157 1547.3L500.257 1542C503.657 1541 506.59 1539.85 509.057 1538.55C511.524 1537.25 513.674 1535.87 515.507 1534.4C517.34 1532.9 518.974 1531.32 520.407 1529.65C521.574 1528.35 522.64 1526.88 523.607 1525.25C524.574 1523.58 525.407 1521.93 526.107 1520.3C526.807 1518.67 527.274 1517.23 527.507 1516H510.657L512.957 1510.35C513.424 1510.35 514.14 1510.35 515.107 1510.35C516.107 1510.35 517.224 1510.35 518.457 1510.35C519.724 1510.35 520.957 1510.35 522.157 1510.35C523.39 1510.35 524.457 1510.35 525.357 1510.35C526.29 1510.35 526.924 1510.35 527.257 1510.35C528.024 1510.35 528.79 1510.3 529.557 1510.2C530.357 1510.1 531.04 1509.95 531.607 1509.75L536.707 1512.9ZM520.407 1505C519.807 1505.87 519.224 1506.8 518.657 1507.8C518.09 1508.8 517.657 1509.57 517.357 1510.1C516.224 1512.1 514.824 1514.18 513.157 1516.35C511.524 1518.48 509.657 1520.57 507.557 1522.6C505.457 1524.6 503.224 1526.43 500.857 1528.1L495.207 1523.95C497.407 1522.58 499.34 1521.18 501.007 1519.75C502.707 1518.32 504.174 1516.9 505.407 1515.5C506.64 1514.07 507.69 1512.7 508.557 1511.4C509.457 1510.07 510.224 1508.88 510.857 1507.85C511.257 1507.22 511.674 1506.4 512.107 1505.4C512.54 1504.37 512.874 1503.43 513.107 1502.6L520.407 1505Z" fill="black"/>
<path d="M457.457 1539.2C457.457 1538.57 457.457 1537.54 457.457 1536.1C457.457 1534.64 457.457 1532.95 457.457 1531.05C457.457 1529.12 457.457 1527.1 457.457 1525C457.457 1522.9 457.457 1520.89 457.457 1518.95C457.457 1516.99 457.457 1515.25 457.457 1513.75C457.457 1512.25 457.457 1511.15 457.457 1510.45C457.457 1509.59 457.407 1508.59 457.307 1507.45C457.24 1506.32 457.124 1505.32 456.957 1504.45H464.757C464.657 1505.32 464.557 1506.29 464.457 1507.35C464.357 1508.39 464.307 1509.42 464.307 1510.45C464.307 1511.39 464.307 1512.65 464.307 1514.25C464.307 1515.85 464.307 1517.64 464.307 1519.6C464.307 1521.54 464.307 1523.52 464.307 1525.55C464.307 1527.55 464.307 1529.49 464.307 1531.35C464.307 1533.22 464.307 1534.85 464.307 1536.25C464.307 1537.62 464.307 1538.6 464.307 1539.2C464.307 1539.67 464.324 1540.34 464.357 1541.2C464.39 1542.04 464.457 1542.9 464.557 1543.8C464.657 1544.7 464.724 1545.5 464.757 1546.2H456.957C457.09 1545.2 457.207 1544.04 457.307 1542.7C457.407 1541.37 457.457 1540.2 457.457 1539.2ZM462.807 1517.4C464.474 1517.84 466.34 1518.4 468.407 1519.1C470.474 1519.77 472.557 1520.49 474.657 1521.25C476.757 1522.02 478.724 1522.79 480.557 1523.55C482.424 1524.29 483.974 1524.97 485.207 1525.6L482.357 1532.5C480.957 1531.77 479.407 1531.04 477.707 1530.3C476.007 1529.54 474.274 1528.8 472.507 1528.1C470.774 1527.4 469.057 1526.75 467.357 1526.15C465.69 1525.55 464.174 1525.02 462.807 1524.55V1517.4Z" fill="black"/>
<path d="M436.208 1510.7C435.974 1511.16 435.758 1511.73 435.558 1512.4C435.391 1513.03 435.241 1513.63 435.108 1514.2C434.841 1515.4 434.491 1516.76 434.058 1518.3C433.624 1519.83 433.108 1521.41 432.508 1523.05C431.908 1524.68 431.191 1526.3 430.358 1527.9C429.558 1529.5 428.641 1531 427.608 1532.4C426.108 1534.36 424.358 1536.23 422.358 1538C420.358 1539.73 418.124 1541.3 415.658 1542.7C413.191 1544.06 410.474 1545.23 407.508 1546.2L402.058 1540.25C405.358 1539.45 408.208 1538.46 410.608 1537.3C413.041 1536.1 415.158 1534.76 416.958 1533.3C418.758 1531.8 420.324 1530.2 421.658 1528.5C422.758 1527.1 423.691 1525.58 424.458 1523.95C425.258 1522.31 425.908 1520.66 426.408 1519C426.941 1517.33 427.308 1515.8 427.508 1514.4C427.008 1514.4 426.174 1514.4 425.008 1514.4C423.874 1514.4 422.524 1514.4 420.958 1514.4C419.424 1514.4 417.808 1514.4 416.108 1514.4C414.441 1514.4 412.824 1514.4 411.258 1514.4C409.691 1514.4 408.274 1514.4 407.008 1514.4C405.774 1514.4 404.841 1514.4 404.208 1514.4C403.074 1514.4 401.958 1514.41 400.858 1514.45C399.791 1514.48 398.924 1514.53 398.258 1514.6V1507.55C398.791 1507.58 399.408 1507.63 400.108 1507.7C400.808 1507.76 401.541 1507.83 402.308 1507.9C403.074 1507.93 403.724 1507.95 404.258 1507.95C404.758 1507.95 405.508 1507.95 406.508 1507.95C407.508 1507.95 408.658 1507.95 409.958 1507.95C411.258 1507.95 412.608 1507.95 414.008 1507.95C415.441 1507.95 416.858 1507.95 418.258 1507.95C419.658 1507.95 420.974 1507.95 422.208 1507.95C423.441 1507.95 424.508 1507.95 425.408 1507.95C426.341 1507.95 426.991 1507.95 427.358 1507.95C427.858 1507.95 428.474 1507.93 429.208 1507.9C429.941 1507.83 430.624 1507.71 431.258 1507.55L436.208 1510.7Z" fill="black"/>
<path d="M353.958 1541.1C357.991 1539.4 361.391 1537.37 364.158 1535C366.958 1532.63 369.258 1530.13 371.058 1527.5C372.924 1524.83 374.274 1522.17 375.108 1519.5C375.941 1516.83 376.558 1514.47 376.958 1512.4C377.224 1511.27 377.408 1510.13 377.508 1509C377.608 1507.87 377.641 1506.98 377.608 1506.35L385.708 1507.45C385.408 1508.42 385.124 1509.47 384.858 1510.6C384.591 1511.7 384.374 1512.6 384.208 1513.3C383.574 1516.23 382.708 1519.2 381.608 1522.2C380.541 1525.17 379.091 1528.05 377.258 1530.85C375.324 1533.88 372.941 1536.72 370.108 1539.35C367.274 1541.98 363.874 1544.27 359.908 1546.2L353.958 1541.1ZM352.908 1506.6C353.541 1507.47 354.258 1508.55 355.058 1509.85C355.858 1511.15 356.658 1512.52 357.458 1513.95C358.291 1515.35 359.058 1516.7 359.758 1518C360.491 1519.3 361.091 1520.38 361.558 1521.25L354.958 1525C354.358 1523.63 353.674 1522.25 352.908 1520.85C352.174 1519.42 351.424 1518.02 350.658 1516.65C349.891 1515.25 349.141 1513.98 348.408 1512.85C347.708 1511.68 347.074 1510.7 346.508 1509.9L352.908 1506.6Z" fill="black"/>
<path d="M844.061 1432.75C843.728 1435.28 843.294 1437.98 842.761 1440.85C842.228 1443.72 841.511 1446.62 840.611 1449.55C839.644 1452.92 838.511 1455.82 837.211 1458.25C835.911 1460.68 834.478 1462.57 832.911 1463.9C831.378 1465.2 829.694 1465.85 827.861 1465.85C826.028 1465.85 824.328 1465.23 822.761 1464C821.228 1462.73 819.994 1461 819.061 1458.8C818.161 1456.6 817.711 1454.1 817.711 1451.3C817.711 1448.4 818.294 1445.67 819.461 1443.1C820.628 1440.53 822.244 1438.27 824.311 1436.3C826.411 1434.3 828.844 1432.73 831.611 1431.6C834.411 1430.47 837.428 1429.9 840.661 1429.9C843.761 1429.9 846.544 1430.4 849.011 1431.4C851.511 1432.4 853.644 1433.78 855.411 1435.55C857.178 1437.32 858.528 1439.38 859.461 1441.75C860.394 1444.12 860.861 1446.67 860.861 1449.4C860.861 1452.9 860.144 1456.03 858.711 1458.8C857.278 1461.57 855.144 1463.85 852.311 1465.65C849.511 1467.45 846.011 1468.68 841.811 1469.35L838.061 1463.4C839.028 1463.3 839.878 1463.18 840.611 1463.05C841.344 1462.92 842.044 1462.77 842.711 1462.6C844.311 1462.2 845.794 1461.63 847.161 1460.9C848.561 1460.13 849.778 1459.2 850.811 1458.1C851.844 1456.97 852.644 1455.65 853.211 1454.15C853.811 1452.65 854.111 1451 854.111 1449.2C854.111 1447.23 853.811 1445.43 853.211 1443.8C852.611 1442.17 851.728 1440.75 850.561 1439.55C849.394 1438.32 847.978 1437.38 846.311 1436.75C844.644 1436.08 842.728 1435.75 840.561 1435.75C837.894 1435.75 835.544 1436.23 833.511 1437.2C831.478 1438.13 829.761 1439.35 828.361 1440.85C826.961 1442.35 825.894 1443.97 825.161 1445.7C824.461 1447.43 824.111 1449.08 824.111 1450.65C824.111 1452.32 824.311 1453.72 824.711 1454.85C825.111 1455.95 825.594 1456.78 826.161 1457.35C826.761 1457.88 827.394 1458.15 828.061 1458.15C828.761 1458.15 829.444 1457.8 830.111 1457.1C830.811 1456.37 831.494 1455.27 832.161 1453.8C832.828 1452.33 833.494 1450.48 834.161 1448.25C834.928 1445.85 835.578 1443.28 836.111 1440.55C836.644 1437.82 837.028 1435.15 837.261 1432.55L844.061 1432.75Z" fill="black"/>
<path d="M766.861 1432.55H812.211V1438.25H766.861V1432.55ZM783.561 1444.8H802.711V1450.45H783.561V1444.8ZM800.461 1444.8H806.661C806.661 1444.8 806.644 1444.96 806.611 1445.3C806.611 1445.6 806.611 1445.95 806.611 1446.35C806.611 1446.75 806.578 1447.1 806.511 1447.4C806.211 1451.96 805.878 1455.7 805.511 1458.6C805.144 1461.5 804.728 1463.76 804.261 1465.4C803.794 1467 803.228 1468.16 802.561 1468.9C801.794 1469.73 800.994 1470.3 800.161 1470.6C799.328 1470.9 798.328 1471.11 797.161 1471.25C796.194 1471.35 794.928 1471.38 793.361 1471.35C791.794 1471.35 790.178 1471.31 788.511 1471.25C788.478 1470.38 788.261 1469.38 787.861 1468.25C787.461 1467.15 786.961 1466.18 786.361 1465.35C788.094 1465.51 789.761 1465.61 791.361 1465.65C792.961 1465.68 794.111 1465.7 794.811 1465.7C795.378 1465.7 795.844 1465.66 796.211 1465.6C796.611 1465.5 796.961 1465.31 797.261 1465.05C797.794 1464.61 798.244 1463.66 798.611 1462.2C799.011 1460.73 799.361 1458.65 799.661 1455.95C799.961 1453.25 800.228 1449.83 800.461 1445.7V1444.8ZM781.311 1435.95H788.011C787.878 1438.61 787.661 1441.31 787.361 1444.05C787.094 1446.75 786.628 1449.43 785.961 1452.1C785.294 1454.73 784.328 1457.25 783.061 1459.65C781.794 1462.05 780.128 1464.28 778.061 1466.35C775.994 1468.41 773.378 1470.25 770.211 1471.85C769.778 1471.01 769.144 1470.11 768.311 1469.15C767.511 1468.18 766.728 1467.38 765.961 1466.75C768.861 1465.41 771.228 1463.86 773.061 1462.1C774.928 1460.3 776.394 1458.36 777.461 1456.3C778.528 1454.2 779.311 1452.01 779.811 1449.75C780.344 1447.48 780.694 1445.18 780.861 1442.85C781.061 1440.51 781.211 1438.21 781.311 1435.95ZM786.111 1424.3H792.361V1434.8H786.111V1424.3Z" fill="black"/>
<path d="M744.061 1432.75C743.728 1435.28 743.294 1437.98 742.761 1440.85C742.228 1443.72 741.511 1446.62 740.611 1449.55C739.644 1452.92 738.511 1455.82 737.211 1458.25C735.911 1460.68 734.478 1462.57 732.911 1463.9C731.378 1465.2 729.694 1465.85 727.861 1465.85C726.028 1465.85 724.328 1465.23 722.761 1464C721.228 1462.73 719.994 1461 719.061 1458.8C718.161 1456.6 717.711 1454.1 717.711 1451.3C717.711 1448.4 718.294 1445.67 719.461 1443.1C720.628 1440.53 722.244 1438.27 724.311 1436.3C726.411 1434.3 728.844 1432.73 731.611 1431.6C734.411 1430.47 737.428 1429.9 740.661 1429.9C743.761 1429.9 746.544 1430.4 749.011 1431.4C751.511 1432.4 753.644 1433.78 755.411 1435.55C757.178 1437.32 758.528 1439.38 759.461 1441.75C760.394 1444.12 760.861 1446.67 760.861 1449.4C760.861 1452.9 760.144 1456.03 758.711 1458.8C757.278 1461.57 755.144 1463.85 752.311 1465.65C749.511 1467.45 746.011 1468.68 741.811 1469.35L738.061 1463.4C739.028 1463.3 739.878 1463.18 740.611 1463.05C741.344 1462.92 742.044 1462.77 742.711 1462.6C744.311 1462.2 745.794 1461.63 747.161 1460.9C748.561 1460.13 749.778 1459.2 750.811 1458.1C751.844 1456.97 752.644 1455.65 753.211 1454.15C753.811 1452.65 754.111 1451 754.111 1449.2C754.111 1447.23 753.811 1445.43 753.211 1443.8C752.611 1442.17 751.728 1440.75 750.561 1439.55C749.394 1438.32 747.978 1437.38 746.311 1436.75C744.644 1436.08 742.728 1435.75 740.561 1435.75C737.894 1435.75 735.544 1436.23 733.511 1437.2C731.478 1438.13 729.761 1439.35 728.361 1440.85C726.961 1442.35 725.894 1443.97 725.161 1445.7C724.461 1447.43 724.111 1449.08 724.111 1450.65C724.111 1452.32 724.311 1453.72 724.711 1454.85C725.111 1455.95 725.594 1456.78 726.161 1457.35C726.761 1457.88 727.394 1458.15 728.061 1458.15C728.761 1458.15 729.444 1457.8 730.111 1457.1C730.811 1456.37 731.494 1455.27 732.161 1453.8C732.828 1452.33 733.494 1450.48 734.161 1448.25C734.928 1445.85 735.578 1443.28 736.111 1440.55C736.644 1437.82 737.028 1435.15 737.261 1432.55L744.061 1432.75Z" fill="black"/>
<path d="M699.111 1435.65L705.511 1437.55C703.411 1443.55 700.694 1448.75 697.361 1453.15C694.027 1457.55 690.061 1461.27 685.461 1464.3C680.894 1467.3 675.611 1469.75 669.611 1471.65C669.411 1471.12 669.077 1470.48 668.611 1469.75C668.144 1469.02 667.661 1468.28 667.161 1467.55C666.694 1466.85 666.244 1466.27 665.811 1465.8C671.577 1464.27 676.627 1462.18 680.961 1459.55C685.294 1456.92 688.961 1453.65 691.961 1449.75C694.961 1445.82 697.344 1441.12 699.111 1435.65ZM679.761 1436.05C681.461 1441.02 683.811 1445.47 686.811 1449.4C689.811 1453.33 693.511 1456.67 697.911 1459.4C702.344 1462.13 707.511 1464.17 713.411 1465.5C712.944 1465.97 712.427 1466.57 711.861 1467.3C711.327 1468.03 710.811 1468.77 710.311 1469.5C709.811 1470.27 709.411 1470.93 709.111 1471.5C702.877 1469.9 697.511 1467.57 693.011 1464.5C688.511 1461.4 684.694 1457.63 681.561 1453.2C678.461 1448.77 675.861 1443.65 673.761 1437.85L679.761 1436.05ZM666.711 1432.45H712.511V1438.3H666.711V1432.45ZM686.411 1424.5H692.561V1436H686.411V1424.5Z" fill="black"/>
<path d="M637.511 1429.05L641.411 1424.4C642.778 1425.03 644.211 1425.78 645.711 1426.65C647.245 1427.52 648.678 1428.4 650.011 1429.3C651.378 1430.2 652.495 1431.07 653.361 1431.9L649.011 1437.1C648.245 1436.23 647.211 1435.32 645.911 1434.35C644.645 1433.38 643.261 1432.43 641.761 1431.5C640.295 1430.57 638.878 1429.75 637.511 1429.05ZM634.161 1449.35H660.161V1455.05H634.161V1449.35ZM630.611 1464.15H663.061V1469.85H630.611V1464.15ZM632.411 1435.4H662.011V1441.1H632.411V1435.4ZM643.811 1437.3H650.061V1466.7H643.811V1437.3ZM619.211 1429.15L622.461 1424.75C623.561 1425.12 624.711 1425.6 625.911 1426.2C627.111 1426.77 628.261 1427.38 629.361 1428.05C630.461 1428.68 631.361 1429.3 632.061 1429.9L628.511 1434.8C627.878 1434.17 627.028 1433.52 625.961 1432.85C624.928 1432.15 623.811 1431.48 622.611 1430.85C621.445 1430.18 620.311 1429.62 619.211 1429.15ZM615.861 1442.8L618.961 1438.25C620.061 1438.62 621.228 1439.07 622.461 1439.6C623.695 1440.1 624.861 1440.67 625.961 1441.3C627.095 1441.9 628.028 1442.47 628.761 1443L625.411 1448.05C624.778 1447.45 623.911 1446.83 622.811 1446.2C621.711 1445.57 620.561 1444.95 619.361 1444.35C618.161 1443.72 616.995 1443.2 615.861 1442.8ZM618.011 1466.85C618.911 1465.58 619.911 1464.1 621.011 1462.4C622.111 1460.67 623.228 1458.83 624.361 1456.9C625.495 1454.93 626.545 1452.98 627.511 1451.05L631.911 1455.05C631.045 1456.78 630.111 1458.57 629.111 1460.4C628.145 1462.23 627.145 1464.03 626.111 1465.8C625.111 1467.57 624.111 1469.27 623.111 1470.9L618.011 1466.85Z" fill="black"/>
<path d="M574.311 1431.15C576.144 1431.38 578.211 1431.55 580.511 1431.65C582.811 1431.75 585.278 1431.8 587.911 1431.8C589.578 1431.8 591.278 1431.77 593.011 1431.7C594.744 1431.63 596.428 1431.55 598.061 1431.45C599.694 1431.32 601.144 1431.2 602.411 1431.1V1437.75C601.244 1437.82 599.828 1437.9 598.161 1438C596.528 1438.1 594.811 1438.18 593.011 1438.25C591.244 1438.32 589.561 1438.35 587.961 1438.35C585.361 1438.35 582.944 1438.3 580.711 1438.2C578.478 1438.07 576.344 1437.93 574.311 1437.8V1431.15ZM578.511 1452.35C578.278 1453.22 578.078 1454.07 577.911 1454.9C577.744 1455.73 577.661 1456.57 577.661 1457.4C577.661 1459.03 578.461 1460.37 580.061 1461.4C581.694 1462.4 584.311 1462.9 587.911 1462.9C590.178 1462.9 592.361 1462.82 594.461 1462.65C596.594 1462.48 598.594 1462.27 600.461 1462C602.328 1461.7 603.994 1461.35 605.461 1460.95L605.511 1467.95C604.078 1468.28 602.444 1468.58 600.611 1468.85C598.811 1469.12 596.861 1469.32 594.761 1469.45C592.694 1469.62 590.494 1469.7 588.161 1469.7C584.328 1469.7 581.144 1469.27 578.611 1468.4C576.078 1467.57 574.161 1466.37 572.861 1464.8C571.594 1463.2 570.961 1461.25 570.961 1458.95C570.961 1457.52 571.078 1456.2 571.311 1455C571.544 1453.77 571.744 1452.68 571.911 1451.75L578.511 1452.35ZM603.711 1426C604.144 1426.6 604.594 1427.32 605.061 1428.15C605.561 1428.98 606.044 1429.82 606.511 1430.65C606.978 1431.48 607.378 1432.22 607.711 1432.85L603.661 1434.6C603.161 1433.57 602.544 1432.38 601.811 1431.05C601.111 1429.72 600.428 1428.57 599.761 1427.6L603.711 1426ZM609.661 1423.75C610.094 1424.38 610.561 1425.12 611.061 1425.95C611.561 1426.78 612.044 1427.62 612.511 1428.45C613.011 1429.25 613.411 1429.95 613.711 1430.55L609.711 1432.25C609.178 1431.22 608.544 1430.05 607.811 1428.75C607.078 1427.42 606.361 1426.28 605.661 1425.35L609.661 1423.75Z" fill="black"/>
<path d="M538.811 1426.9C538.644 1427.8 538.377 1428.97 538.011 1430.4C537.644 1431.83 537.111 1433.45 536.411 1435.25C535.877 1436.48 535.261 1437.77 534.561 1439.1C533.894 1440.4 533.211 1441.57 532.511 1442.6C532.944 1442.4 533.494 1442.23 534.161 1442.1C534.827 1441.93 535.511 1441.82 536.211 1441.75C536.944 1441.65 537.594 1441.6 538.161 1441.6C540.261 1441.6 541.994 1442.2 543.361 1443.4C544.761 1444.6 545.461 1446.38 545.461 1448.75C545.461 1449.42 545.461 1450.23 545.461 1451.2C545.494 1452.17 545.527 1453.18 545.561 1454.25C545.594 1455.28 545.627 1456.3 545.661 1457.3C545.694 1458.3 545.711 1459.2 545.711 1460H539.711C539.777 1459.43 539.811 1458.77 539.811 1458C539.844 1457.2 539.861 1456.37 539.861 1455.5C539.894 1454.63 539.911 1453.8 539.911 1453C539.944 1452.17 539.961 1451.42 539.961 1450.75C539.961 1449.15 539.527 1448.05 538.661 1447.45C537.827 1446.82 536.894 1446.5 535.861 1446.5C534.461 1446.5 533.044 1446.85 531.611 1447.55C530.211 1448.22 529.027 1449.02 528.061 1449.95C527.327 1450.68 526.577 1451.5 525.811 1452.4C525.077 1453.3 524.277 1454.32 523.411 1455.45L518.061 1451.45C520.227 1449.45 522.094 1447.52 523.661 1445.65C525.261 1443.78 526.611 1441.93 527.711 1440.1C528.811 1438.27 529.711 1436.43 530.411 1434.6C530.911 1433.27 531.311 1431.88 531.611 1430.45C531.944 1428.98 532.144 1427.62 532.211 1426.35L538.811 1426.9ZM520.011 1431.5C521.277 1431.7 522.744 1431.85 524.411 1431.95C526.077 1432.05 527.544 1432.1 528.811 1432.1C531.011 1432.1 533.411 1432.05 536.011 1431.95C538.644 1431.85 541.311 1431.68 544.011 1431.45C546.711 1431.18 549.277 1430.85 551.711 1430.45L551.661 1436.25C549.894 1436.48 547.977 1436.7 545.911 1436.9C543.877 1437.07 541.794 1437.22 539.661 1437.35C537.561 1437.45 535.544 1437.53 533.611 1437.6C531.677 1437.63 529.961 1437.65 528.461 1437.65C527.794 1437.65 526.961 1437.65 525.961 1437.65C524.994 1437.62 523.994 1437.58 522.961 1437.55C521.927 1437.48 520.944 1437.42 520.011 1437.35V1431.5ZM559.611 1445.7C559.077 1445.87 558.444 1446.08 557.711 1446.35C557.011 1446.58 556.294 1446.83 555.561 1447.1C554.861 1447.33 554.227 1447.57 553.661 1447.8C552.061 1448.43 550.161 1449.2 547.961 1450.1C545.794 1451 543.527 1452.05 541.161 1453.25C539.661 1454.05 538.394 1454.83 537.361 1455.6C536.327 1456.37 535.544 1457.15 535.011 1457.95C534.477 1458.72 534.211 1459.57 534.211 1460.5C534.211 1461.2 534.361 1461.78 534.661 1462.25C534.961 1462.68 535.411 1463.03 536.011 1463.3C536.611 1463.57 537.361 1463.75 538.261 1463.85C539.161 1463.95 540.227 1464 541.461 1464C543.594 1464 545.944 1463.88 548.511 1463.65C551.077 1463.38 553.461 1463.03 555.661 1462.6L555.461 1469.05C554.394 1469.18 553.044 1469.32 551.411 1469.45C549.777 1469.62 548.077 1469.73 546.311 1469.8C544.577 1469.87 542.911 1469.9 541.311 1469.9C538.711 1469.9 536.377 1469.65 534.311 1469.15C532.244 1468.65 530.611 1467.8 529.411 1466.6C528.244 1465.37 527.661 1463.68 527.661 1461.55C527.661 1459.82 528.044 1458.25 528.811 1456.85C529.611 1455.45 530.661 1454.18 531.961 1453.05C533.261 1451.92 534.677 1450.9 536.211 1450C537.777 1449.07 539.311 1448.22 540.811 1447.45C542.344 1446.65 543.727 1445.97 544.961 1445.4C546.194 1444.83 547.344 1444.33 548.411 1443.9C549.511 1443.43 550.561 1442.97 551.561 1442.5C552.527 1442.07 553.461 1441.65 554.361 1441.25C555.261 1440.82 556.177 1440.37 557.111 1439.9L559.611 1445.7Z" fill="black"/>
<path d="M469.111 1443.85C469.711 1443.88 470.478 1443.93 471.411 1444C472.345 1444.03 473.311 1444.07 474.311 1444.1C475.345 1444.13 476.295 1444.15 477.161 1444.15C477.995 1444.15 479.028 1444.15 480.261 1444.15C481.495 1444.15 482.828 1444.15 484.261 1444.15C485.728 1444.15 487.228 1444.15 488.761 1444.15C490.328 1444.15 491.878 1444.15 493.411 1444.15C494.945 1444.15 496.395 1444.15 497.761 1444.15C499.128 1444.15 500.345 1444.15 501.411 1444.15C502.511 1444.15 503.378 1444.15 504.011 1444.15C505.178 1444.15 506.278 1444.12 507.311 1444.05C508.345 1443.95 509.195 1443.88 509.861 1443.85V1451.7C509.295 1451.67 508.445 1451.62 507.311 1451.55C506.178 1451.48 505.078 1451.45 504.011 1451.45C503.378 1451.45 502.511 1451.45 501.411 1451.45C500.311 1451.45 499.078 1451.45 497.711 1451.45C496.345 1451.45 494.895 1451.45 493.361 1451.45C491.861 1451.45 490.328 1451.45 488.761 1451.45C487.195 1451.45 485.678 1451.45 484.211 1451.45C482.778 1451.45 481.445 1451.45 480.211 1451.45C479.011 1451.45 477.995 1451.45 477.161 1451.45C475.728 1451.45 474.261 1451.48 472.761 1451.55C471.261 1451.58 470.045 1451.63 469.111 1451.7V1443.85Z" fill="black"/>
<path d="M424.262 1465C424.562 1464.37 424.745 1463.82 424.812 1463.35C424.878 1462.89 424.912 1462.35 424.912 1461.75C424.912 1461.12 424.912 1460.15 424.912 1458.85C424.912 1457.55 424.912 1456.05 424.912 1454.35C424.912 1452.62 424.912 1450.8 424.912 1448.9C424.912 1447 424.912 1445.14 424.912 1443.3C424.912 1441.47 424.912 1439.8 424.912 1438.3C424.912 1436.8 424.912 1435.59 424.912 1434.65C424.912 1434.02 424.878 1433.35 424.812 1432.65C424.778 1431.95 424.712 1431.29 424.612 1430.65C424.545 1429.99 424.462 1429.42 424.362 1428.95H432.212C432.078 1429.92 431.962 1430.87 431.862 1431.8C431.762 1432.74 431.712 1433.69 431.712 1434.65C431.712 1435.45 431.712 1436.45 431.712 1437.65C431.712 1438.82 431.712 1440.12 431.712 1441.55C431.712 1442.99 431.712 1444.47 431.712 1446C431.712 1447.54 431.712 1449.05 431.712 1450.55C431.712 1452.05 431.712 1453.47 431.712 1454.8C431.712 1456.14 431.712 1457.3 431.712 1458.3C431.712 1459.3 431.712 1460.09 431.712 1460.65C433.745 1460.05 435.912 1459.24 438.212 1458.2C440.545 1457.14 442.878 1455.89 445.212 1454.45C447.578 1452.99 449.795 1451.39 451.862 1449.65C453.962 1447.92 455.812 1446.07 457.412 1444.1L460.962 1449.75C457.562 1453.85 453.345 1457.4 448.312 1460.4C443.312 1463.37 437.862 1465.82 431.962 1467.75C431.628 1467.89 431.195 1468.05 430.662 1468.25C430.128 1468.45 429.578 1468.74 429.012 1469.1L424.262 1465Z" fill="black"/>
<path d="M391.11 1426.9C391.044 1427.47 390.977 1428.2 390.91 1429.1C390.877 1430 390.843 1430.75 390.81 1431.35C390.677 1436.32 390.26 1440.73 389.56 1444.6C388.86 1448.43 387.86 1451.83 386.56 1454.8C385.26 1457.77 383.61 1460.43 381.61 1462.8C379.61 1465.13 377.227 1467.28 374.46 1469.25L368.66 1464.55C369.693 1463.95 370.793 1463.25 371.96 1462.45C373.16 1461.62 374.243 1460.68 375.21 1459.65C376.843 1458.05 378.227 1456.3 379.36 1454.4C380.494 1452.47 381.393 1450.37 382.06 1448.1C382.76 1445.8 383.277 1443.28 383.61 1440.55C383.944 1437.82 384.11 1434.8 384.11 1431.5C384.11 1431.13 384.093 1430.67 384.06 1430.1C384.027 1429.5 383.977 1428.92 383.91 1428.35C383.877 1427.78 383.827 1427.3 383.76 1426.9H391.11ZM408.11 1437.6C408.044 1438 407.96 1438.47 407.86 1439C407.794 1439.53 407.76 1439.95 407.76 1440.25C407.727 1441.32 407.66 1442.68 407.56 1444.35C407.493 1446.02 407.377 1447.82 407.21 1449.75C407.077 1451.65 406.894 1453.55 406.66 1455.45C406.46 1457.35 406.21 1459.12 405.91 1460.75C405.61 1462.35 405.243 1463.67 404.81 1464.7C404.277 1465.97 403.493 1466.92 402.46 1467.55C401.46 1468.22 400.094 1468.55 398.36 1468.55C396.927 1468.55 395.493 1468.5 394.06 1468.4C392.627 1468.33 391.293 1468.25 390.06 1468.15L389.31 1461.45C390.543 1461.68 391.777 1461.87 393.01 1462C394.243 1462.1 395.343 1462.15 396.31 1462.15C397.143 1462.15 397.76 1462.02 398.16 1461.75C398.56 1461.45 398.893 1461 399.16 1460.4C399.427 1459.73 399.677 1458.85 399.91 1457.75C400.143 1456.65 400.343 1455.42 400.51 1454.05C400.677 1452.68 400.81 1451.27 400.91 1449.8C401.044 1448.33 401.127 1446.92 401.16 1445.55C401.227 1444.15 401.26 1442.92 401.26 1441.85H376.86C376.027 1441.85 374.993 1441.87 373.76 1441.9C372.527 1441.9 371.36 1441.95 370.26 1442.05V1435.5C371.327 1435.6 372.46 1435.68 373.66 1435.75C374.86 1435.82 375.927 1435.85 376.86 1435.85H400.01C400.643 1435.85 401.277 1435.82 401.91 1435.75C402.577 1435.68 403.193 1435.6 403.76 1435.5L408.11 1437.6Z" fill="black"/>
<path d="M354.712 1430.35C354.712 1431.15 354.995 1431.83 355.562 1432.4C356.128 1432.93 356.795 1433.2 357.562 1433.2C358.362 1433.2 359.045 1432.93 359.612 1432.4C360.178 1431.83 360.462 1431.15 360.462 1430.35C360.462 1429.55 360.178 1428.87 359.612 1428.3C359.045 1427.73 358.362 1427.45 357.562 1427.45C356.795 1427.45 356.128 1427.73 355.562 1428.3C354.995 1428.87 354.712 1429.55 354.712 1430.35ZM351.612 1430.35C351.612 1429.25 351.878 1428.25 352.412 1427.35C352.978 1426.42 353.712 1425.68 354.612 1425.15C355.512 1424.62 356.495 1424.35 357.562 1424.35C358.662 1424.35 359.662 1424.62 360.562 1425.15C361.495 1425.68 362.228 1426.42 362.762 1427.35C363.295 1428.25 363.562 1429.25 363.562 1430.35C363.562 1431.42 363.295 1432.4 362.762 1433.3C362.228 1434.2 361.495 1434.93 360.562 1435.5C359.662 1436.03 358.662 1436.3 357.562 1436.3C356.495 1436.3 355.512 1436.03 354.612 1435.5C353.712 1434.93 352.978 1434.2 352.412 1433.3C351.878 1432.4 351.612 1431.42 351.612 1430.35ZM357.662 1434.3C357.428 1434.77 357.228 1435.33 357.062 1436C356.895 1436.63 356.728 1437.22 356.562 1437.75C356.295 1438.98 355.945 1440.37 355.512 1441.9C355.078 1443.4 354.562 1444.97 353.962 1446.6C353.362 1448.23 352.645 1449.85 351.812 1451.45C351.012 1453.05 350.095 1454.55 349.062 1455.95C347.562 1457.95 345.812 1459.82 343.812 1461.55C341.812 1463.28 339.578 1464.85 337.112 1466.25C334.645 1467.65 331.928 1468.83 328.962 1469.8L323.512 1463.8C326.845 1463 329.712 1462.02 332.112 1460.85C334.512 1459.68 336.595 1458.35 338.362 1456.85C340.162 1455.35 341.745 1453.75 343.112 1452.05C344.212 1450.65 345.145 1449.13 345.912 1447.5C346.712 1445.87 347.362 1444.23 347.862 1442.6C348.395 1440.93 348.762 1439.38 348.962 1437.95C348.462 1437.95 347.628 1437.95 346.462 1437.95C345.328 1437.95 343.978 1437.95 342.412 1437.95C340.878 1437.95 339.262 1437.95 337.562 1437.95C335.895 1437.95 334.278 1437.95 332.712 1437.95C331.145 1437.95 329.728 1437.95 328.462 1437.95C327.228 1437.95 326.312 1437.95 325.712 1437.95C324.545 1437.95 323.412 1437.97 322.312 1438C321.245 1438.03 320.395 1438.08 319.762 1438.15V1431.1C320.262 1431.17 320.862 1431.23 321.562 1431.3C322.295 1431.37 323.028 1431.42 323.762 1431.45C324.528 1431.48 325.178 1431.5 325.712 1431.5C326.245 1431.5 326.995 1431.5 327.962 1431.5C328.962 1431.5 330.112 1431.5 331.412 1431.5C332.712 1431.5 334.062 1431.5 335.462 1431.5C336.895 1431.5 338.312 1431.5 339.712 1431.5C341.145 1431.5 342.478 1431.5 343.712 1431.5C344.945 1431.5 346.012 1431.5 346.912 1431.5C347.812 1431.5 348.462 1431.5 348.862 1431.5C349.362 1431.5 349.962 1431.48 350.662 1431.45C351.395 1431.42 352.095 1431.3 352.762 1431.1L357.662 1434.3Z" fill="black"/>
<path d="M272.09 1443.85C272.69 1443.88 273.457 1443.93 274.39 1444C275.323 1444.03 276.29 1444.07 277.29 1444.1C278.323 1444.13 279.273 1444.15 280.14 1444.15C280.973 1444.15 282.007 1444.15 283.24 1444.15C284.473 1444.15 285.807 1444.15 287.24 1444.15C288.707 1444.15 290.207 1444.15 291.74 1444.15C293.307 1444.15 294.857 1444.15 296.39 1444.15C297.923 1444.15 299.373 1444.15 300.74 1444.15C302.107 1444.15 303.323 1444.15 304.39 1444.15C305.49 1444.15 306.357 1444.15 306.99 1444.15C308.157 1444.15 309.257 1444.12 310.29 1444.05C311.323 1443.95 312.173 1443.88 312.84 1443.85V1451.7C312.273 1451.67 311.423 1451.62 310.29 1451.55C309.157 1451.48 308.057 1451.45 306.99 1451.45C306.357 1451.45 305.49 1451.45 304.39 1451.45C303.29 1451.45 302.057 1451.45 300.69 1451.45C299.323 1451.45 297.873 1451.45 296.34 1451.45C294.84 1451.45 293.307 1451.45 291.74 1451.45C290.173 1451.45 288.657 1451.45 287.19 1451.45C285.757 1451.45 284.423 1451.45 283.19 1451.45C281.99 1451.45 280.973 1451.45 280.14 1451.45C278.707 1451.45 277.24 1451.48 275.74 1451.55C274.24 1451.58 273.023 1451.63 272.09 1451.7V1443.85Z" fill="black"/>
<path d="M259.189 1433.1C258.989 1433.4 258.689 1433.86 258.289 1434.5C257.922 1435.13 257.639 1435.71 257.439 1436.25C256.739 1437.81 255.872 1439.56 254.839 1441.5C253.839 1443.43 252.689 1445.38 251.389 1447.35C250.122 1449.28 248.772 1451.1 247.339 1452.8C245.472 1454.9 243.406 1456.98 241.139 1459.05C238.906 1461.08 236.539 1462.96 234.039 1464.7C231.572 1466.4 229.039 1467.86 226.439 1469.1L221.289 1463.7C223.989 1462.66 226.606 1461.36 229.139 1459.8C231.672 1458.23 234.022 1456.53 236.189 1454.7C238.356 1452.86 240.222 1451.08 241.789 1449.35C242.889 1448.08 243.922 1446.73 244.889 1445.3C245.889 1443.86 246.772 1442.45 247.539 1441.05C248.306 1439.61 248.872 1438.3 249.239 1437.1C248.906 1437.1 248.306 1437.1 247.439 1437.1C246.572 1437.1 245.556 1437.1 244.389 1437.1C243.256 1437.1 242.056 1437.1 240.789 1437.1C239.522 1437.1 238.306 1437.1 237.139 1437.1C236.006 1437.1 235.006 1437.1 234.139 1437.1C233.272 1437.1 232.656 1437.1 232.289 1437.1C231.589 1437.1 230.856 1437.13 230.089 1437.2C229.322 1437.23 228.589 1437.28 227.889 1437.35C227.222 1437.38 226.706 1437.41 226.339 1437.45V1430.35C226.839 1430.38 227.456 1430.43 228.189 1430.5C228.922 1430.56 229.656 1430.61 230.389 1430.65C231.156 1430.68 231.789 1430.7 232.289 1430.7C232.722 1430.7 233.406 1430.7 234.339 1430.7C235.272 1430.7 236.339 1430.7 237.539 1430.7C238.739 1430.7 239.972 1430.7 241.239 1430.7C242.539 1430.7 243.772 1430.7 244.939 1430.7C246.139 1430.7 247.172 1430.7 248.039 1430.7C248.906 1430.7 249.539 1430.7 249.939 1430.7C251.039 1430.7 252.039 1430.63 252.939 1430.5C253.872 1430.36 254.589 1430.21 255.089 1430.05L259.189 1433.1ZM247.989 1448.65C249.289 1449.68 250.672 1450.88 252.139 1452.25C253.606 1453.61 255.056 1455.03 256.489 1456.5C257.922 1457.96 259.239 1459.38 260.439 1460.75C261.672 1462.08 262.706 1463.25 263.539 1464.25L257.839 1469.2C256.606 1467.5 255.189 1465.73 253.589 1463.9C252.022 1462.06 250.356 1460.25 248.589 1458.45C246.856 1456.61 245.089 1454.88 243.289 1453.25L247.989 1448.65Z" fill="black"/>
<path d="M688.113 1252.99C687.971 1254.51 687.852 1255.74 687.758 1256.68C687.663 1257.58 687.616 1258.53 687.616 1259.52C687.616 1260.14 687.616 1261.09 687.616 1262.36C687.616 1263.64 687.616 1264.97 687.616 1266.34C687.616 1267.71 687.616 1268.85 687.616 1269.75H677.747C677.747 1268.75 677.747 1267.57 677.747 1266.2C677.747 1264.83 677.747 1263.52 677.747 1262.29C677.747 1261.06 677.747 1260.14 677.747 1259.52C677.747 1258.53 677.699 1257.58 677.605 1256.68C677.557 1255.74 677.415 1254.51 677.179 1252.99H688.113ZM712.04 1267.97C711.756 1268.73 711.472 1269.7 711.188 1270.88C710.951 1272.02 710.762 1272.94 710.62 1273.65C710.336 1275.31 709.981 1276.99 709.555 1278.69C709.176 1280.4 708.703 1282.1 708.135 1283.81C707.614 1285.51 706.999 1287.19 706.289 1288.85C705.626 1290.5 704.869 1292.14 704.017 1293.75C702.123 1297.2 699.709 1300.35 696.775 1303.19C693.887 1306.03 690.598 1308.44 686.906 1310.43C683.214 1312.37 679.261 1313.91 675.049 1315.05L667.665 1306.53C669.274 1306.24 670.978 1305.86 672.777 1305.39C674.575 1304.87 676.208 1304.33 677.676 1303.76C679.664 1303 681.628 1302.05 683.569 1300.92C685.557 1299.73 687.426 1298.36 689.178 1296.8C690.929 1295.24 692.467 1293.51 693.793 1291.62C694.976 1289.86 695.994 1288 696.846 1286.01C697.698 1283.97 698.384 1281.89 698.905 1279.76C699.425 1277.58 699.828 1275.45 700.112 1273.37H664.896C664.896 1273.98 664.896 1274.77 664.896 1275.71C664.896 1276.61 664.896 1277.61 664.896 1278.69C664.896 1279.74 664.896 1280.71 664.896 1281.61C664.896 1282.46 664.896 1283.17 664.896 1283.74C664.896 1284.54 664.919 1285.44 664.967 1286.43C665.014 1287.43 665.061 1288.28 665.109 1288.99H655.311C655.405 1288.09 655.476 1287.12 655.524 1286.08C655.618 1284.99 655.666 1283.97 655.666 1283.03C655.666 1282.46 655.666 1281.63 655.666 1280.54C655.666 1279.45 655.666 1278.29 655.666 1277.06C655.666 1275.78 655.666 1274.58 655.666 1273.44C655.666 1272.3 655.666 1271.4 655.666 1270.74C655.666 1269.94 655.642 1268.94 655.595 1267.76C655.547 1266.53 655.453 1265.49 655.311 1264.64C656.541 1264.78 657.725 1264.87 658.861 1264.92C659.997 1264.97 661.227 1264.99 662.553 1264.99H699.97C701.437 1264.99 702.62 1264.92 703.52 1264.78C704.466 1264.59 705.247 1264.4 705.863 1264.21L712.04 1267.97Z" fill="black"/>
<path d="M591.623 1270.88C592.238 1270.93 593.066 1271 594.108 1271.1C595.149 1271.14 596.238 1271.19 597.374 1271.24C598.51 1271.24 599.527 1271.24 600.427 1271.24C601.563 1271.24 603.03 1271.24 604.829 1271.24C606.627 1271.24 608.568 1271.24 610.651 1271.24C612.781 1271.24 614.887 1271.24 616.97 1271.24C619.052 1271.24 620.993 1271.24 622.792 1271.24C624.59 1271.24 626.081 1271.24 627.265 1271.24C628.117 1271.24 629.087 1271.24 630.176 1271.24C631.312 1271.19 632.164 1271.14 632.732 1271.1C632.684 1271.57 632.661 1272.3 632.661 1273.3C632.661 1274.24 632.661 1275.1 632.661 1275.85C632.661 1276.37 632.661 1277.46 632.661 1279.12C632.661 1280.73 632.661 1282.72 632.661 1285.08C632.661 1287.45 632.661 1289.96 632.661 1292.61C632.661 1295.26 632.661 1297.86 632.661 1300.42C632.661 1302.93 632.661 1305.18 632.661 1307.16C632.661 1309.1 632.661 1310.55 632.661 1311.49C632.661 1312.06 632.661 1312.84 632.661 1313.84C632.708 1314.88 632.732 1315.71 632.732 1316.32H623.786C623.833 1315.71 623.857 1314.86 623.857 1313.77C623.857 1312.68 623.857 1311.78 623.857 1311.07C623.857 1309.84 623.857 1308.28 623.857 1306.38C623.857 1304.44 623.857 1302.36 623.857 1300.13C623.857 1297.86 623.857 1295.59 623.857 1293.32C623.857 1291 623.857 1288.85 623.857 1286.86C623.857 1284.87 623.857 1283.21 623.857 1281.89C623.857 1280.52 623.857 1279.62 623.857 1279.19C623.431 1279.19 622.673 1279.19 621.585 1279.19C620.496 1279.19 619.242 1279.19 617.822 1279.19C616.402 1279.19 614.863 1279.19 613.207 1279.19C611.597 1279.19 609.988 1279.19 608.379 1279.19C606.817 1279.19 605.326 1279.19 603.906 1279.19C602.533 1279.19 601.373 1279.19 600.427 1279.19C599.527 1279.19 598.51 1279.21 597.374 1279.26C596.238 1279.26 595.125 1279.28 594.037 1279.33C592.995 1279.38 592.191 1279.43 591.623 1279.47V1270.88ZM593.469 1287.57C594.415 1287.62 595.599 1287.66 597.019 1287.71C598.486 1287.76 599.882 1287.78 601.208 1287.78C601.776 1287.78 602.77 1287.78 604.19 1287.78C605.657 1287.78 607.337 1287.78 609.231 1287.78C611.171 1287.78 613.159 1287.78 615.195 1287.78C617.23 1287.78 619.147 1287.78 620.946 1287.78C622.792 1287.78 624.354 1287.78 625.632 1287.78C626.91 1287.78 627.691 1287.78 627.975 1287.78V1295.8C627.643 1295.8 626.839 1295.8 625.561 1295.8C624.33 1295.8 622.792 1295.8 620.946 1295.8C619.147 1295.8 617.23 1295.8 615.195 1295.8C613.159 1295.8 611.171 1295.8 609.231 1295.8C607.337 1295.8 605.681 1295.8 604.261 1295.8C602.841 1295.8 601.823 1295.8 601.208 1295.8C599.882 1295.8 598.462 1295.83 596.948 1295.87C595.48 1295.87 594.321 1295.9 593.469 1295.95V1287.57ZM590.842 1304.96C591.457 1305.01 592.309 1305.08 593.398 1305.18C594.486 1305.22 595.693 1305.25 597.019 1305.25C597.729 1305.25 598.912 1305.25 600.569 1305.25C602.225 1305.25 604.119 1305.25 606.249 1305.25C608.426 1305.25 610.674 1305.25 612.994 1305.25C615.313 1305.25 617.514 1305.25 619.597 1305.25C621.727 1305.25 623.549 1305.25 625.064 1305.25C626.578 1305.25 627.572 1305.25 628.046 1305.25V1313.48C627.43 1313.48 626.342 1313.48 624.78 1313.48C623.218 1313.48 621.372 1313.48 619.242 1313.48C617.159 1313.48 614.982 1313.48 612.71 1313.48C610.438 1313.48 608.237 1313.48 606.107 1313.48C603.977 1313.48 602.083 1313.48 600.427 1313.48C598.817 1313.48 597.658 1313.48 596.948 1313.48C595.954 1313.48 594.841 1313.51 593.611 1313.55C592.38 1313.6 591.457 1313.65 590.842 1313.7V1304.96Z" fill="black"/>
<path d="M531.344 1260.3C531.155 1259.26 530.918 1258.31 530.634 1257.46C530.397 1256.61 530.161 1255.76 529.924 1254.91L539.935 1253.27C540.03 1253.98 540.124 1254.88 540.219 1255.97C540.361 1257.01 540.527 1257.96 540.716 1258.81C540.811 1259.47 541.024 1260.7 541.355 1262.5C541.686 1264.3 542.089 1266.48 542.562 1269.04C543.035 1271.59 543.556 1274.36 544.124 1277.34C544.739 1280.28 545.331 1283.26 545.899 1286.29C546.467 1289.27 547.011 1292.11 547.532 1294.81C548.1 1297.51 548.573 1299.9 548.952 1301.98C549.378 1304.06 549.686 1305.6 549.875 1306.59C550.112 1307.64 550.396 1308.77 550.727 1310C551.058 1311.23 551.39 1312.42 551.721 1313.55L541.426 1315.4C541.237 1314.07 541.095 1312.8 541 1311.56C540.905 1310.38 540.74 1309.27 540.503 1308.23C540.314 1307.28 540.03 1305.84 539.651 1303.9C539.32 1301.91 538.894 1299.59 538.373 1296.94C537.9 1294.29 537.379 1291.47 536.811 1288.49C536.243 1285.51 535.675 1282.53 535.107 1279.54C534.539 1276.56 533.995 1273.77 533.474 1271.17C533.001 1268.56 532.575 1266.31 532.196 1264.42C531.817 1262.48 531.533 1261.11 531.344 1260.3ZM511.961 1269.32C513.097 1269.27 514.209 1269.22 515.298 1269.18C516.387 1269.08 517.475 1268.96 518.564 1268.82C519.605 1268.68 521.073 1268.49 522.966 1268.25C524.859 1267.97 527.037 1267.66 529.498 1267.33C531.959 1266.95 534.492 1266.55 537.095 1266.12C539.746 1265.7 542.302 1265.3 544.763 1264.92C547.224 1264.49 549.402 1264.11 551.295 1263.78C553.236 1263.45 554.75 1263.19 555.839 1263C556.975 1262.76 558.158 1262.53 559.389 1262.29C560.62 1262.01 561.661 1261.75 562.513 1261.51L564.217 1270.81C563.46 1270.86 562.442 1270.98 561.164 1271.17C559.886 1271.35 558.726 1271.52 557.685 1271.66C556.407 1271.85 554.727 1272.11 552.644 1272.44C550.609 1272.77 548.337 1273.15 545.828 1273.58C543.319 1273.96 540.763 1274.36 538.16 1274.79C535.557 1275.17 533.072 1275.57 530.705 1275.99C528.338 1276.37 526.256 1276.7 524.457 1276.99C522.658 1277.27 521.309 1277.48 520.41 1277.63C519.274 1277.86 518.209 1278.1 517.215 1278.34C516.221 1278.53 515.109 1278.79 513.878 1279.12L511.961 1269.32ZM512.032 1290.19C512.979 1290.15 514.162 1290.05 515.582 1289.91C517.049 1289.72 518.327 1289.55 519.416 1289.41C520.694 1289.22 522.398 1288.96 524.528 1288.63C526.658 1288.3 529.048 1287.92 531.699 1287.5C534.397 1287.07 537.166 1286.64 540.006 1286.22C542.846 1285.74 545.615 1285.27 548.313 1284.8C551.011 1284.32 553.472 1283.9 555.697 1283.52C557.922 1283.14 559.72 1282.83 561.093 1282.6C562.466 1282.31 563.767 1282.03 564.998 1281.74C566.276 1281.46 567.388 1281.18 568.335 1280.89L570.252 1290.26C569.305 1290.31 568.146 1290.45 566.773 1290.69C565.448 1290.88 564.099 1291.09 562.726 1291.33C561.211 1291.57 559.318 1291.87 557.046 1292.25C554.774 1292.63 552.265 1293.06 549.52 1293.53C546.822 1293.96 544.053 1294.41 541.213 1294.88C538.373 1295.31 535.651 1295.76 533.048 1296.23C530.445 1296.65 528.102 1297.03 526.019 1297.36C523.936 1297.7 522.303 1297.98 521.12 1298.22C519.605 1298.5 518.233 1298.76 517.002 1299C515.819 1299.23 514.825 1299.47 514.02 1299.71L512.032 1290.19Z" fill="black"/>
<path d="M475.113 1252.99C474.971 1254.51 474.852 1255.74 474.758 1256.68C474.663 1257.58 474.616 1258.53 474.616 1259.52C474.616 1260.14 474.616 1261.09 474.616 1262.36C474.616 1263.64 474.616 1264.97 474.616 1266.34C474.616 1267.71 474.616 1268.85 474.616 1269.75H464.747C464.747 1268.75 464.747 1267.57 464.747 1266.2C464.747 1264.83 464.747 1263.52 464.747 1262.29C464.747 1261.06 464.747 1260.14 464.747 1259.52C464.747 1258.53 464.699 1257.58 464.605 1256.68C464.557 1255.74 464.415 1254.51 464.179 1252.99H475.113ZM499.04 1267.97C498.756 1268.73 498.472 1269.7 498.188 1270.88C497.951 1272.02 497.762 1272.94 497.62 1273.65C497.336 1275.31 496.981 1276.99 496.555 1278.69C496.176 1280.4 495.703 1282.1 495.135 1283.81C494.614 1285.51 493.999 1287.19 493.289 1288.85C492.626 1290.5 491.869 1292.14 491.017 1293.75C489.123 1297.2 486.709 1300.35 483.775 1303.19C480.887 1306.03 477.598 1308.44 473.906 1310.43C470.214 1312.37 466.261 1313.91 462.049 1315.05L454.665 1306.53C456.274 1306.24 457.978 1305.86 459.777 1305.39C461.575 1304.87 463.208 1304.33 464.676 1303.76C466.664 1303 468.628 1302.05 470.569 1300.92C472.557 1299.73 474.426 1298.36 476.178 1296.8C477.929 1295.24 479.467 1293.51 480.793 1291.62C481.976 1289.86 482.994 1288 483.846 1286.01C484.698 1283.97 485.384 1281.89 485.905 1279.76C486.425 1277.58 486.828 1275.45 487.112 1273.37H451.896C451.896 1273.98 451.896 1274.77 451.896 1275.71C451.896 1276.61 451.896 1277.61 451.896 1278.69C451.896 1279.74 451.896 1280.71 451.896 1281.61C451.896 1282.46 451.896 1283.17 451.896 1283.74C451.896 1284.54 451.919 1285.44 451.967 1286.43C452.014 1287.43 452.061 1288.28 452.109 1288.99H442.311C442.405 1288.09 442.476 1287.12 442.524 1286.08C442.618 1284.99 442.666 1283.97 442.666 1283.03C442.666 1282.46 442.666 1281.63 442.666 1280.54C442.666 1279.45 442.666 1278.29 442.666 1277.06C442.666 1275.78 442.666 1274.58 442.666 1273.44C442.666 1272.3 442.666 1271.4 442.666 1270.74C442.666 1269.94 442.642 1268.94 442.595 1267.76C442.547 1266.53 442.453 1265.49 442.311 1264.64C443.541 1264.78 444.725 1264.87 445.861 1264.92C446.997 1264.97 448.227 1264.99 449.553 1264.99H486.97C488.437 1264.99 489.62 1264.92 490.52 1264.78C491.466 1264.59 492.247 1264.4 492.863 1264.21L499.04 1267.97Z" fill="black"/>
<path d="M385.794 1304.18C385.794 1303.28 385.794 1301.81 385.794 1299.78C385.794 1297.7 385.794 1295.31 385.794 1292.61C385.794 1289.86 385.794 1287 385.794 1284.02C385.794 1281.03 385.794 1278.17 385.794 1275.43C385.794 1272.63 385.794 1270.17 385.794 1268.04C385.794 1265.91 385.794 1264.35 385.794 1263.36C385.794 1262.13 385.723 1260.71 385.581 1259.1C385.486 1257.49 385.321 1256.07 385.084 1254.84H396.16C396.018 1256.07 395.876 1257.44 395.734 1258.95C395.592 1260.42 395.521 1261.89 395.521 1263.36C395.521 1264.68 395.521 1266.48 395.521 1268.75C395.521 1271.02 395.521 1273.56 395.521 1276.35C395.521 1279.09 395.521 1281.91 395.521 1284.8C395.521 1287.64 395.521 1290.38 395.521 1293.03C395.521 1295.68 395.521 1298 395.521 1299.99C395.521 1301.93 395.521 1303.33 395.521 1304.18C395.521 1304.84 395.545 1305.79 395.592 1307.02C395.639 1308.2 395.734 1309.43 395.876 1310.71C396.018 1311.99 396.113 1313.13 396.16 1314.12H385.084C385.273 1312.7 385.439 1311.04 385.581 1309.15C385.723 1307.26 385.794 1305.6 385.794 1304.18ZM393.391 1273.22C395.758 1273.84 398.408 1274.64 401.343 1275.64C404.278 1276.59 407.236 1277.6 410.218 1278.69C413.2 1279.78 415.993 1280.87 418.596 1281.96C421.247 1283 423.448 1283.97 425.199 1284.87L421.152 1294.67C419.164 1293.63 416.963 1292.58 414.549 1291.54C412.135 1290.45 409.674 1289.41 407.165 1288.42C404.704 1287.42 402.266 1286.5 399.852 1285.65C397.485 1284.8 395.332 1284.04 393.391 1283.38V1273.22Z" fill="black"/>
<path d="M838.293 1169.12C839.145 1169.17 840.234 1169.24 841.559 1169.34C842.884 1169.39 844.257 1169.43 845.677 1169.48C847.144 1169.53 848.493 1169.55 849.724 1169.55C850.907 1169.55 852.375 1169.55 854.126 1169.55C855.877 1169.55 857.771 1169.55 859.806 1169.55C861.889 1169.55 864.019 1169.55 866.196 1169.55C868.421 1169.55 870.622 1169.55 872.799 1169.55C874.976 1169.55 877.035 1169.55 878.976 1169.55C880.917 1169.55 882.644 1169.55 884.159 1169.55C885.721 1169.55 886.952 1169.55 887.851 1169.55C889.508 1169.55 891.07 1169.5 892.537 1169.41C894.004 1169.27 895.211 1169.17 896.158 1169.12V1180.27C895.353 1180.22 894.146 1180.15 892.537 1180.06C890.928 1179.96 889.366 1179.92 887.851 1179.92C886.952 1179.92 885.721 1179.92 884.159 1179.92C882.597 1179.92 880.846 1179.92 878.905 1179.92C876.964 1179.92 874.905 1179.92 872.728 1179.92C870.598 1179.92 868.421 1179.92 866.196 1179.92C863.971 1179.92 861.818 1179.92 859.735 1179.92C857.7 1179.92 855.806 1179.92 854.055 1179.92C852.351 1179.92 850.907 1179.92 849.724 1179.92C847.689 1179.92 845.606 1179.96 843.476 1180.06C841.346 1180.11 839.618 1180.18 838.293 1180.27V1169.12Z" fill="black"/>
<path d="M772.831 1153.79C774.109 1153.93 775.505 1154.05 777.02 1154.14C778.582 1154.19 779.955 1154.22 781.138 1154.22C782.132 1154.22 783.458 1154.22 785.114 1154.22C786.771 1154.22 788.593 1154.22 790.581 1154.22C792.569 1154.22 794.581 1154.22 796.616 1154.22C798.699 1154.22 800.663 1154.22 802.509 1154.22C804.402 1154.22 806.059 1154.22 807.479 1154.22C808.899 1154.22 809.917 1154.22 810.532 1154.22C811.952 1154.22 813.372 1154.17 814.792 1154.07C816.212 1153.98 817.419 1153.88 818.413 1153.79V1164.08C817.419 1164.04 816.165 1163.99 814.65 1163.94C813.135 1163.85 811.763 1163.8 810.532 1163.8C809.917 1163.8 808.852 1163.8 807.337 1163.8C805.87 1163.8 804.142 1163.8 802.154 1163.8C800.166 1163.8 798.084 1163.8 795.906 1163.8C793.776 1163.8 791.717 1163.8 789.729 1163.8C787.741 1163.8 785.99 1163.8 784.475 1163.8C782.96 1163.8 781.872 1163.8 781.209 1163.8C779.837 1163.8 778.393 1163.82 776.878 1163.87C775.364 1163.92 774.015 1163.99 772.831 1164.08V1153.79ZM766.867 1188.51C768.287 1188.6 769.754 1188.7 771.269 1188.79C772.831 1188.89 774.322 1188.93 775.742 1188.93C776.358 1188.93 777.493 1188.93 779.15 1188.93C780.807 1188.93 782.748 1188.93 784.972 1188.93C787.244 1188.93 789.682 1188.93 792.285 1188.93C794.888 1188.93 797.468 1188.93 800.024 1188.93C802.628 1188.93 805.042 1188.93 807.266 1188.93C809.538 1188.93 811.479 1188.93 813.088 1188.93C814.745 1188.93 815.881 1188.93 816.496 1188.93C817.727 1188.93 819.029 1188.91 820.401 1188.86C821.821 1188.77 823.123 1188.65 824.306 1188.51V1199.37C823.075 1199.23 821.726 1199.13 820.259 1199.09C818.792 1198.99 817.537 1198.95 816.496 1198.95C815.881 1198.95 814.745 1198.95 813.088 1198.95C811.479 1198.95 809.538 1198.95 807.266 1198.95C805.042 1198.95 802.628 1198.95 800.024 1198.95C797.468 1198.95 794.888 1198.95 792.285 1198.95C789.682 1198.95 787.244 1198.95 784.972 1198.95C782.748 1198.95 780.807 1198.95 779.15 1198.95C777.493 1198.95 776.358 1198.95 775.742 1198.95C774.322 1198.95 772.808 1198.99 771.198 1199.09C769.636 1199.13 768.193 1199.23 766.867 1199.37V1188.51Z" fill="black"/>
<path d="M746.631 1150.95C746.631 1152.09 747.034 1153.06 747.838 1153.86C748.643 1154.62 749.613 1155 750.749 1155C751.885 1155 752.856 1154.62 753.66 1153.86C754.465 1153.06 754.867 1152.09 754.867 1150.95C754.867 1149.81 754.465 1148.84 753.66 1148.04C752.856 1147.23 751.885 1146.83 750.749 1146.83C749.613 1146.83 748.643 1147.23 747.838 1148.04C747.034 1148.84 746.631 1149.81 746.631 1150.95ZM742.229 1150.95C742.229 1149.39 742.608 1147.97 743.365 1146.69C744.17 1145.36 745.211 1144.32 746.489 1143.57C747.767 1142.81 749.187 1142.43 750.749 1142.43C752.311 1142.43 753.731 1142.81 755.009 1143.57C756.287 1144.32 757.305 1145.36 758.062 1146.69C758.867 1147.97 759.269 1149.39 759.269 1150.95C759.269 1152.46 758.867 1153.86 758.062 1155.14C757.305 1156.42 756.287 1157.46 755.009 1158.26C753.731 1159.02 752.311 1159.4 750.749 1159.4C749.187 1159.4 747.767 1159.02 746.489 1158.26C745.211 1157.46 744.17 1156.42 743.365 1155.14C742.608 1153.86 742.229 1152.46 742.229 1150.95ZM703.392 1179.92C704.197 1177.93 704.954 1175.85 705.664 1173.67C706.422 1171.45 707.084 1169.17 707.652 1166.85C708.22 1164.49 708.717 1162.14 709.143 1159.82C709.617 1157.51 709.948 1155.21 710.137 1152.94L720.503 1155.07C720.314 1155.73 720.101 1156.51 719.864 1157.41C719.628 1158.31 719.415 1159.19 719.225 1160.04C719.036 1160.89 718.894 1161.6 718.799 1162.17C718.563 1163.4 718.231 1164.89 717.805 1166.64C717.379 1168.39 716.882 1170.26 716.314 1172.25C715.746 1174.19 715.155 1176.15 714.539 1178.14C713.971 1180.08 713.38 1181.88 712.764 1183.54C711.912 1185.81 710.895 1188.18 709.711 1190.64C708.575 1193.1 707.345 1195.47 706.019 1197.74C704.741 1200.01 703.487 1202.05 702.256 1203.84L692.316 1199.66C694.588 1196.72 696.695 1193.48 698.635 1189.93C700.623 1186.38 702.209 1183.04 703.392 1179.92ZM738.466 1178.43C737.756 1176.53 736.975 1174.52 736.123 1172.39C735.271 1170.26 734.372 1168.13 733.425 1166C732.479 1163.87 731.556 1161.86 730.656 1159.97C729.757 1158.07 728.929 1156.44 728.171 1155.07L737.614 1152.01C738.324 1153.39 739.153 1155.04 740.099 1156.98C741.046 1158.93 741.993 1160.98 742.939 1163.16C743.886 1165.29 744.809 1167.42 745.708 1169.55C746.608 1171.68 747.412 1173.6 748.122 1175.3C748.738 1176.86 749.4 1178.71 750.11 1180.84C750.868 1182.97 751.625 1185.2 752.382 1187.51C753.187 1189.79 753.921 1192.01 754.583 1194.19C755.293 1196.37 755.885 1198.33 756.358 1200.08L745.85 1203.49C745.235 1200.7 744.525 1197.86 743.72 1194.97C742.916 1192.08 742.064 1189.24 741.164 1186.45C740.312 1183.66 739.413 1180.98 738.466 1178.43Z" fill="black"/>
<path d="M635.871 1148.04C637.102 1148.89 638.545 1149.93 640.202 1151.16C641.859 1152.39 643.563 1153.74 645.314 1155.21C647.113 1156.63 648.793 1158.03 650.355 1159.4C651.917 1160.77 653.195 1162 654.189 1163.09L646.947 1170.48C646.048 1169.48 644.864 1168.3 643.397 1166.93C641.93 1165.55 640.344 1164.13 638.64 1162.67C636.936 1161.2 635.256 1159.8 633.599 1158.48C631.942 1157.15 630.475 1156.04 629.197 1155.14L635.871 1148.04ZM626.996 1195.33C630.688 1194.8 634.167 1194.07 637.433 1193.12C640.699 1192.18 643.728 1191.09 646.521 1189.86C649.314 1188.63 651.87 1187.35 654.189 1186.02C658.212 1183.61 661.904 1180.86 665.265 1177.79C668.626 1174.71 671.56 1171.52 674.069 1168.2C676.578 1164.84 678.566 1161.58 680.033 1158.41L685.571 1168.42C683.772 1171.59 681.548 1174.76 678.897 1177.93C676.294 1181.1 673.335 1184.13 670.022 1187.02C666.709 1189.86 663.135 1192.41 659.301 1194.69C656.887 1196.15 654.284 1197.55 651.491 1198.88C648.698 1200.15 645.74 1201.29 642.616 1202.28C639.539 1203.32 636.321 1204.13 632.96 1204.7L626.996 1195.33Z" fill="black"/>
<path d="M585.531 1145.05C585.437 1145.86 585.342 1146.9 585.247 1148.18C585.2 1149.46 585.153 1150.52 585.105 1151.37C584.916 1158.43 584.324 1164.7 583.33 1170.19C582.336 1175.63 580.916 1180.46 579.07 1184.67C577.224 1188.89 574.881 1192.67 572.041 1196.03C569.201 1199.35 565.817 1202.4 561.888 1205.19L553.652 1198.52C555.12 1197.67 556.682 1196.67 558.338 1195.54C560.042 1194.35 561.581 1193.03 562.953 1191.56C565.273 1189.29 567.237 1186.8 568.846 1184.1C570.456 1181.36 571.734 1178.38 572.68 1175.16C573.674 1171.89 574.408 1168.32 574.881 1164.44C575.355 1160.56 575.591 1156.27 575.591 1151.59C575.591 1151.07 575.568 1150.4 575.52 1149.6C575.473 1148.75 575.402 1147.92 575.307 1147.11C575.26 1146.31 575.189 1145.62 575.094 1145.05H585.531ZM609.671 1160.25C609.577 1160.82 609.458 1161.48 609.316 1162.24C609.222 1162.99 609.174 1163.59 609.174 1164.01C609.127 1165.53 609.032 1167.47 608.89 1169.83C608.796 1172.2 608.63 1174.76 608.393 1177.5C608.204 1180.2 607.944 1182.9 607.612 1185.6C607.328 1188.29 606.973 1190.8 606.547 1193.12C606.121 1195.39 605.601 1197.26 604.985 1198.73C604.228 1200.53 603.116 1201.88 601.648 1202.78C600.228 1203.72 598.288 1204.2 595.826 1204.2C593.791 1204.2 591.756 1204.13 589.72 1203.98C587.685 1203.89 585.792 1203.77 584.04 1203.63L582.975 1194.12C584.727 1194.45 586.478 1194.71 588.229 1194.9C589.981 1195.04 591.543 1195.11 592.915 1195.11C594.099 1195.11 594.974 1194.92 595.542 1194.54C596.11 1194.12 596.584 1193.48 596.962 1192.62C597.341 1191.68 597.696 1190.42 598.027 1188.86C598.359 1187.3 598.643 1185.55 598.879 1183.61C599.116 1181.67 599.305 1179.66 599.447 1177.57C599.637 1175.49 599.755 1173.48 599.802 1171.54C599.897 1169.55 599.944 1167.8 599.944 1166.28H565.296C564.113 1166.28 562.646 1166.31 560.894 1166.35C559.143 1166.35 557.486 1166.43 555.924 1166.57V1157.27C557.439 1157.41 559.048 1157.53 560.752 1157.62C562.456 1157.72 563.971 1157.76 565.296 1157.76H598.169C599.069 1157.76 599.968 1157.72 600.867 1157.62C601.814 1157.53 602.69 1157.41 603.494 1157.27L609.671 1160.25Z" fill="black"/>
<path d="M483.293 1169.12C484.145 1169.17 485.234 1169.24 486.559 1169.34C487.884 1169.39 489.257 1169.43 490.677 1169.48C492.144 1169.53 493.493 1169.55 494.724 1169.55C495.907 1169.55 497.375 1169.55 499.126 1169.55C500.877 1169.55 502.771 1169.55 504.806 1169.55C506.889 1169.55 509.019 1169.55 511.196 1169.55C513.421 1169.55 515.622 1169.55 517.799 1169.55C519.976 1169.55 522.035 1169.55 523.976 1169.55C525.917 1169.55 527.644 1169.55 529.159 1169.55C530.721 1169.55 531.952 1169.55 532.851 1169.55C534.508 1169.55 536.07 1169.5 537.537 1169.41C539.004 1169.27 540.211 1169.17 541.158 1169.12V1180.27C540.353 1180.22 539.146 1180.15 537.537 1180.06C535.928 1179.96 534.366 1179.92 532.851 1179.92C531.952 1179.92 530.721 1179.92 529.159 1179.92C527.597 1179.92 525.846 1179.92 523.905 1179.92C521.964 1179.92 519.905 1179.92 517.728 1179.92C515.598 1179.92 513.421 1179.92 511.196 1179.92C508.971 1179.92 506.818 1179.92 504.735 1179.92C502.7 1179.92 500.806 1179.92 499.055 1179.92C497.351 1179.92 495.907 1179.92 494.724 1179.92C492.689 1179.92 490.606 1179.96 488.476 1180.06C486.346 1180.11 484.618 1180.18 483.293 1180.27V1169.12Z" fill="black"/>
<path d="M414.706 1151.66C416.173 1151.71 417.546 1151.76 418.824 1151.81C420.149 1151.81 421.285 1151.81 422.232 1151.81C422.989 1151.81 424.149 1151.81 425.711 1151.81C427.32 1151.81 429.19 1151.81 431.32 1151.81C433.45 1151.81 435.722 1151.81 438.136 1151.81C440.55 1151.81 442.964 1151.81 445.378 1151.81C447.839 1151.81 450.135 1151.81 452.265 1151.81C454.395 1151.81 456.241 1151.81 457.803 1151.81C459.412 1151.81 460.572 1151.81 461.282 1151.81C462.181 1151.81 463.246 1151.81 464.477 1151.81C465.755 1151.76 467.033 1151.71 468.311 1151.66C468.263 1152.75 468.216 1153.91 468.169 1155.14C468.169 1156.33 468.169 1157.46 468.169 1158.55C468.169 1159.21 468.169 1160.26 468.169 1161.68C468.169 1163.05 468.169 1164.7 468.169 1166.65C468.169 1168.54 468.169 1170.57 468.169 1172.75C468.169 1174.88 468.169 1177.03 468.169 1179.21C468.169 1181.39 468.169 1183.45 468.169 1185.39C468.169 1187.28 468.169 1188.94 468.169 1190.36C468.169 1191.73 468.169 1192.73 468.169 1193.34C468.169 1194.05 468.169 1194.95 468.169 1196.04C468.216 1197.08 468.24 1198.15 468.24 1199.23C468.24 1200.28 468.24 1201.2 468.24 1202C468.287 1202.76 468.311 1203.16 468.311 1203.21H458.513C458.513 1203.12 458.513 1202.55 458.513 1201.51C458.56 1200.42 458.584 1199.14 458.584 1197.67C458.631 1196.2 458.655 1194.83 458.655 1193.55C458.655 1192.94 458.655 1191.9 458.655 1190.43C458.655 1188.96 458.655 1187.24 458.655 1185.25C458.655 1183.26 458.655 1181.15 458.655 1178.93C458.655 1176.7 458.655 1174.53 458.655 1172.4C458.655 1170.27 458.655 1168.33 458.655 1166.57C458.655 1164.82 458.655 1163.43 458.655 1162.39C458.655 1161.34 458.655 1160.82 458.655 1160.82H424.362C424.362 1160.82 424.362 1161.34 424.362 1162.39C424.362 1163.43 424.362 1164.82 424.362 1166.57C424.362 1168.28 424.362 1170.22 424.362 1172.4C424.362 1174.53 424.362 1176.7 424.362 1178.93C424.362 1181.11 424.362 1183.21 424.362 1185.25C424.362 1187.24 424.362 1188.96 424.362 1190.43C424.362 1191.9 424.362 1192.94 424.362 1193.55C424.362 1194.41 424.362 1195.38 424.362 1196.47C424.362 1197.51 424.362 1198.52 424.362 1199.52C424.409 1200.51 424.433 1201.34 424.433 1202C424.433 1202.71 424.433 1203.12 424.433 1203.21H414.635C414.635 1203.12 414.635 1202.71 414.635 1202C414.682 1201.29 414.706 1200.42 414.706 1199.38C414.753 1198.33 414.777 1197.27 414.777 1196.18C414.824 1195.09 414.848 1194.12 414.848 1193.27C414.848 1192.65 414.848 1191.66 414.848 1190.29C414.848 1188.87 414.848 1187.19 414.848 1185.25C414.848 1183.31 414.848 1181.27 414.848 1179.14C414.848 1176.96 414.848 1174.79 414.848 1172.61C414.848 1170.43 414.848 1168.4 414.848 1166.5C414.848 1164.56 414.848 1162.91 414.848 1161.53C414.848 1160.16 414.848 1159.17 414.848 1158.55C414.848 1157.56 414.848 1156.42 414.848 1155.14C414.848 1153.82 414.8 1152.66 414.706 1151.66ZM462.205 1190.29V1199.38H419.534V1190.29H462.205Z" fill="black"/>
<path d="M344.629 1152.45C345.575 1152.54 346.688 1152.63 347.966 1152.73C349.244 1152.82 350.38 1152.87 351.374 1152.87H389.998C391.086 1152.87 392.222 1152.82 393.406 1152.73C394.589 1152.63 395.678 1152.54 396.672 1152.45V1162.17C395.63 1162.08 394.518 1162.01 393.335 1161.96C392.151 1161.91 391.039 1161.89 389.998 1161.89H351.374C350.427 1161.89 349.291 1161.91 347.966 1161.96C346.64 1162.01 345.528 1162.08 344.629 1162.17V1152.45ZM365.077 1196.11V1157.91H375.017V1196.11H365.077ZM340.014 1190.29C341.15 1190.48 342.333 1190.62 343.564 1190.71C344.794 1190.81 345.954 1190.86 347.043 1190.86H393.832C395.11 1190.86 396.317 1190.81 397.453 1190.71C398.589 1190.57 399.606 1190.43 400.506 1190.29V1200.58C399.464 1200.44 398.305 1200.35 397.027 1200.3C395.749 1200.25 394.684 1200.23 393.832 1200.23H347.043C346.001 1200.23 344.865 1200.25 343.635 1200.3C342.404 1200.35 341.197 1200.44 340.014 1200.58V1190.29Z" fill="black"/>
<path d="M268.855 1174.38C275.245 1172.73 281.02 1170.81 286.179 1168.63C291.386 1166.41 295.954 1164.09 299.882 1161.67C302.344 1160.16 304.805 1158.43 307.266 1156.49C309.775 1154.5 312.118 1152.47 314.295 1150.39C316.52 1148.3 318.39 1146.32 319.904 1144.42L327.572 1151.73C325.395 1153.86 323.005 1156.02 320.401 1158.2C317.845 1160.37 315.171 1162.46 312.378 1164.44C309.586 1166.43 306.817 1168.25 304.071 1169.91C301.373 1171.47 298.344 1173.08 294.983 1174.74C291.67 1176.4 288.167 1177.96 284.475 1179.42C280.783 1180.89 277.068 1182.19 273.328 1183.33L268.855 1174.38ZM298.391 1166.22L308.473 1163.88V1195.83C308.473 1196.87 308.497 1198 308.544 1199.23C308.592 1200.46 308.663 1201.6 308.757 1202.64C308.852 1203.73 308.97 1204.56 309.112 1205.13H297.894C297.989 1204.56 298.06 1203.73 298.107 1202.64C298.202 1201.6 298.273 1200.46 298.32 1199.23C298.368 1198 298.391 1196.87 298.391 1195.83V1166.22Z" fill="black"/>
<path d="M237.246 1146.76C237.72 1147.66 238.169 1148.7 238.595 1149.89C239.069 1151.07 239.518 1152.23 239.944 1153.37C240.37 1154.5 240.725 1155.54 241.009 1156.49L236.11 1158.05C235.779 1157.06 235.4 1155.99 234.974 1154.86C234.596 1153.72 234.193 1152.59 233.767 1151.45C233.389 1150.31 232.963 1149.27 232.489 1148.33L237.246 1146.76ZM244.559 1144.49C245.033 1145.44 245.506 1146.5 245.979 1147.69C246.453 1148.82 246.902 1149.96 247.328 1151.1C247.802 1152.23 248.18 1153.25 248.464 1154.15L243.565 1155.71C243.092 1154.2 242.524 1152.56 241.861 1150.81C241.199 1149.06 240.489 1147.47 239.731 1146.05L244.559 1144.49ZM231.14 1171.69C231.14 1176.09 230.809 1180.09 230.146 1183.68C229.531 1187.23 228.442 1190.48 226.88 1193.41C225.318 1196.3 223.141 1198.93 220.348 1201.29C217.556 1203.61 214.029 1205.72 209.769 1207.61L202.172 1200.44C205.58 1199.21 208.539 1197.86 211.047 1196.39C213.556 1194.93 215.591 1193.13 217.153 1191C218.763 1188.87 219.946 1186.29 220.703 1183.26C221.508 1180.18 221.91 1176.44 221.91 1172.04V1153.15C221.91 1151.73 221.863 1150.46 221.768 1149.32C221.674 1148.18 221.579 1147.26 221.484 1146.55H231.637C231.543 1147.26 231.424 1148.18 231.282 1149.32C231.188 1150.46 231.14 1151.73 231.14 1153.15V1171.69ZM205.509 1147.19C205.415 1147.85 205.32 1148.75 205.225 1149.89C205.131 1150.98 205.083 1152.23 205.083 1153.65V1179C205.083 1180.04 205.107 1181.06 205.154 1182.05C205.202 1183 205.249 1183.85 205.296 1184.61C205.344 1185.36 205.367 1185.98 205.367 1186.45H195.427C195.522 1185.98 195.593 1185.39 195.64 1184.68C195.688 1183.92 195.735 1183.05 195.782 1182.05C195.83 1181.06 195.853 1180.04 195.853 1179V1153.58C195.853 1152.54 195.806 1151.5 195.711 1150.46C195.664 1149.37 195.569 1148.28 195.427 1147.19H205.509ZM182.15 1159.97C182.576 1160.06 183.168 1160.16 183.925 1160.25C184.683 1160.35 185.558 1160.44 186.552 1160.54C187.546 1160.59 188.635 1160.61 189.818 1160.61H236.394C238.288 1160.61 239.826 1160.56 241.009 1160.47C242.193 1160.37 243.258 1160.25 244.204 1160.11V1169.56C243.447 1169.51 242.429 1169.46 241.151 1169.41C239.873 1169.37 238.311 1169.34 236.465 1169.34H189.818C188.635 1169.34 187.546 1169.37 186.552 1169.41C185.606 1169.41 184.754 1169.44 183.996 1169.48C183.286 1169.53 182.671 1169.58 182.15 1169.63V1159.97Z" fill="black"/>
</svg>
