<svg width="1080" height="1920" viewBox="0 0 1080 1920" fill="none" xmlns="http://www.w3.org/2000/svg">
<path d="M1080 1920L1080 0L0 0L0 1920H1080Z" fill="#A5D4AD"/>
<path d="M1020 983.72V95C1020 75.67 1004.33 60 985 60H95.58C75.93 60 60 75.93 60 95.58V983.71C60 984.03 60.25 984.28 60.57 984.28C80.03 984.59 95.71 1000.46 95.71 1019.99C95.71 1039.52 80.03 1055.39 60.57 1055.7C60.25 1055.7 60 1055.96 60 1056.27V1824.99C60 1844.32 75.67 1859.99 95 1859.99H985C1004.33 1859.99 1020 1844.32 1020 1824.99V1056.27C1020 1055.95 1019.75 1055.7 1019.43 1055.7C999.97 1055.39 984.29 1039.52 984.29 1019.99C984.29 1000.46 999.97 984.59 1019.43 984.28C1019.75 984.28 1020 984.02 1020 983.71V983.72Z" fill="white"/>
<path d="M60.57 1055.71C60.25 1055.71 60 1055.97 60 1056.28V1825C60 1844.33 75.67 1860 95 1860H985C1004.33 1860 1020 1844.33 1020 1825V1056.28C1020 1055.96 1019.75 1055.71 1019.43 1055.71C999.97 1055.4 984.29 1039.53 984.29 1020H95.71C95.71 1039.53 80.03 1055.4 60.57 1055.71Z" fill="#E5F2E6"/>
<path d="M121 1020H160.9" stroke="black" stroke-width="6" stroke-miterlimit="10"/>
<path d="M187.51 1020H227.41" stroke="black" stroke-width="6" stroke-miterlimit="10"/>
<path d="M254.02 1020H293.92" stroke="black" stroke-width="6" stroke-miterlimit="10"/>
<path d="M320.52 1020H360.43" stroke="black" stroke-width="6" stroke-miterlimit="10"/>
<path d="M387.029 1020H426.939" stroke="black" stroke-width="6" stroke-miterlimit="10"/>
<path d="M453.539 1020H493.439" stroke="black" stroke-width="6" stroke-miterlimit="10"/>
<path d="M520.051 1020H559.951" stroke="black" stroke-width="6" stroke-miterlimit="10"/>
<path d="M586.561 1020H626.461" stroke="black" stroke-width="6" stroke-miterlimit="10"/>
<path d="M653.061 1020H692.971" stroke="black" stroke-width="6" stroke-miterlimit="10"/>
<path d="M719.57 1020H759.48" stroke="black" stroke-width="6" stroke-miterlimit="10"/>
<path d="M786.08 1020H825.98" stroke="black" stroke-width="6" stroke-miterlimit="10"/>
<path d="M852.59 1020H892.49" stroke="black" stroke-width="6" stroke-miterlimit="10"/>
<path d="M919.1 1020H959" stroke="black" stroke-width="6" stroke-miterlimit="10"/>
<path d="M1020 984.29V95C1020 75.67 1004.33 60 985 60H95C75.67 60 60 75.67 60 95V984.29C79.72 984.29 95.71 1000.28 95.71 1020C95.71 1039.72 79.72 1055.71 60 1055.71V1825C60 1844.33 75.67 1860 95 1860H985C1004.33 1860 1020 1844.33 1020 1825V1055.71C1000.28 1055.71 984.29 1039.72 984.29 1020C984.29 1000.28 1000.28 984.29 1020 984.29Z" stroke="black" stroke-width="6" stroke-miterlimit="10"/>
<path d="M912.649 525.666C908.779 525.666 905.539 522.646 905.319 518.736C900.589 435.626 868.789 358.856 813.369 296.746C810.669 293.716 810.929 289.066 813.959 286.366C816.989 283.666 821.629 283.926 824.339 286.956C881.999 351.576 915.069 431.436 919.999 517.896C920.229 521.946 917.129 525.426 913.079 525.656C912.939 525.656 912.799 525.666 912.659 525.666H912.649Z" fill="black"/>
<path d="M818.849 795.517C817.109 795.517 815.359 794.897 813.959 793.647C810.929 790.947 810.669 786.297 813.369 783.267C868.789 721.157 900.589 644.387 905.319 561.277C905.549 557.227 909.029 554.117 913.079 554.357C917.129 554.587 920.229 558.057 919.999 562.117C915.069 648.587 881.999 728.447 824.339 793.057C822.889 794.687 820.869 795.517 818.849 795.517Z" fill="black"/>
<path d="M167.36 525.666C167.22 525.666 167.08 525.666 166.94 525.656C162.89 525.426 159.79 521.956 160.02 517.896C164.95 431.426 198.02 351.566 255.68 286.956C258.38 283.926 263.03 283.666 266.06 286.366C269.09 289.066 269.35 293.716 266.65 296.746C211.23 358.856 179.43 435.616 174.7 518.736C174.48 522.646 171.24 525.666 167.37 525.666H167.36Z" fill="black"/>
<path d="M261.17 795.517C259.15 795.517 257.13 794.687 255.68 793.057C198.02 728.437 164.95 648.577 160.02 562.117C159.79 558.067 162.89 554.587 166.94 554.357C170.99 554.117 174.47 557.227 174.7 561.277C179.43 644.397 211.23 721.157 266.65 783.267C269.35 786.297 269.09 790.947 266.06 793.647C264.66 794.897 262.91 795.517 261.17 795.517Z" fill="black"/>
<path d="M788.169 268.511C786.429 268.511 784.679 267.891 783.279 266.641C721.169 211.221 644.399 179.421 561.289 174.691C557.239 174.461 554.139 170.991 554.369 166.931C554.599 162.881 558.039 159.791 562.129 160.011C648.599 164.941 728.459 198.011 793.069 255.671C796.099 258.371 796.359 263.021 793.659 266.051C792.209 267.681 790.189 268.511 788.169 268.511Z" fill="black"/>
<path d="M291.85 268.512C289.83 268.512 287.81 267.682 286.36 266.052C283.66 263.022 283.92 258.372 286.95 255.672C351.57 198.012 431.43 164.942 517.89 160.012C521.94 159.782 525.42 162.882 525.65 166.932C525.88 170.982 522.78 174.462 518.73 174.692C435.62 179.422 358.85 211.222 296.74 266.642C295.34 267.892 293.59 268.512 291.85 268.512Z" fill="black"/>
<path d="M561.69 920.006C557.82 920.006 554.58 916.986 554.36 913.076C554.13 909.026 557.23 905.546 561.28 905.316C644.4 900.586 721.16 868.786 783.27 813.366C786.3 810.666 790.95 810.926 793.65 813.956C796.35 816.986 796.09 821.636 793.06 824.336C728.44 881.996 648.58 915.066 562.12 919.996C561.98 919.996 561.84 920.006 561.7 920.006H561.69Z" fill="black"/>
<path d="M518.319 920.006C518.179 920.006 518.04 920.006 517.9 919.996C431.43 915.066 351.569 881.996 286.959 824.336C283.929 821.636 283.669 816.986 286.369 813.956C289.069 810.926 293.719 810.666 296.749 813.366C358.859 868.786 435.629 900.586 518.739 905.316C522.789 905.546 525.889 909.016 525.659 913.076C525.439 916.986 522.199 920.006 518.329 920.006H518.319Z" fill="black"/>
<path d="M875.38 526.189C872.37 526.189 869.85 523.839 869.68 520.799C865.41 445.789 836.71 376.519 786.7 320.459C784.6 318.099 784.8 314.489 787.16 312.389C789.51 310.289 793.13 310.489 795.23 312.849C846.98 370.849 876.68 442.539 881.1 520.149C881.28 523.299 878.87 525.999 875.72 526.179C875.61 526.179 875.5 526.179 875.39 526.179L875.38 526.189Z" fill="black"/>
<path d="M790.96 769.062C789.6 769.062 788.25 768.582 787.16 767.612C784.8 765.512 784.6 761.892 786.7 759.542C836.71 703.492 865.41 634.212 869.68 559.202C869.86 556.052 872.55 553.642 875.71 553.822C878.86 554.002 881.27 556.702 881.09 559.852C876.67 637.472 846.98 709.152 795.22 767.152C794.09 768.422 792.52 769.062 790.95 769.062H790.96Z" fill="black"/>
<path d="M204.63 526.187C204.52 526.187 204.41 526.187 204.3 526.187C201.15 526.007 198.74 523.307 198.92 520.157C203.34 442.537 233.03 370.857 284.79 312.857C286.89 310.497 290.51 310.297 292.86 312.397C295.22 314.497 295.42 318.117 293.32 320.467C243.31 376.517 214.61 445.797 210.34 520.807C210.17 523.847 207.65 526.197 204.64 526.197L204.63 526.187Z" fill="black"/>
<path d="M289.05 769.055C287.48 769.055 285.91 768.405 284.78 767.145C233.03 709.145 203.33 637.455 198.91 559.845C198.73 556.695 201.14 553.995 204.29 553.815C207.45 553.625 210.14 556.045 210.32 559.195C214.59 634.205 243.29 703.485 293.3 759.535C295.4 761.895 295.2 765.505 292.84 767.605C291.75 768.575 290.39 769.055 289.04 769.055H289.05Z" fill="black"/>
<path d="M763.35 294.756C761.99 294.756 760.64 294.276 759.55 293.306C703.5 243.296 634.22 214.596 559.21 210.326C556.06 210.146 553.65 207.446 553.83 204.296C554.01 201.146 556.7 198.736 559.86 198.916C637.48 203.336 709.16 233.026 767.16 284.786C769.52 286.886 769.72 290.506 767.62 292.856C766.49 294.126 764.92 294.766 763.35 294.766V294.756Z" fill="black"/>
<path d="M316.659 294.759C315.089 294.759 313.519 294.109 312.389 292.849C310.289 290.489 310.489 286.879 312.849 284.779C370.849 233.029 442.539 203.329 520.149 198.909C523.299 198.719 525.999 201.139 526.179 204.289C526.359 207.439 523.949 210.139 520.799 210.319C445.789 214.589 376.519 243.289 320.459 293.299C319.369 294.269 318.009 294.749 316.659 294.749V294.759Z" fill="black"/>
<path d="M559.53 881.102C556.52 881.102 554 878.752 553.83 875.712C553.65 872.562 556.06 869.862 559.21 869.682C634.22 865.412 703.49 836.712 759.55 786.702C761.9 784.602 765.52 784.802 767.62 787.162C769.72 789.522 769.52 793.132 767.16 795.232C709.16 846.982 637.47 876.682 559.86 881.102C559.75 881.102 559.64 881.102 559.53 881.102Z" fill="black"/>
<path d="M520.489 881.102C520.379 881.102 520.269 881.102 520.159 881.102C442.539 876.682 370.859 846.992 312.859 795.232C310.499 793.132 310.299 789.512 312.399 787.162C314.499 784.802 318.119 784.602 320.469 786.702C376.519 836.722 445.799 865.412 520.809 869.682C523.959 869.862 526.369 872.562 526.189 875.712C526.019 878.752 523.499 881.102 520.489 881.102Z" fill="black"/>
<path d="M841.849 526.514C839.699 526.514 837.899 524.834 837.779 522.664C833.919 454.914 807.999 392.344 762.829 341.714C761.329 340.034 761.479 337.454 763.159 335.944C764.839 334.444 767.419 334.584 768.929 336.274C815.349 388.294 841.979 452.584 845.939 522.194C846.069 524.444 844.349 526.374 842.089 526.504C842.009 526.504 841.929 526.504 841.849 526.504V526.514Z" fill="black"/>
<path d="M765.869 745.106C764.899 745.106 763.929 744.766 763.149 744.066C761.469 742.566 761.319 739.986 762.819 738.296C807.989 687.666 833.909 625.096 837.769 557.346C837.899 555.096 839.859 553.396 842.079 553.496C844.329 553.626 846.049 555.556 845.929 557.806C841.959 627.416 815.329 691.706 768.919 743.726C768.109 744.626 766.989 745.086 765.869 745.086V745.106Z" fill="black"/>
<path d="M238.17 526.516C238.09 526.516 238.01 526.516 237.93 526.516C235.68 526.386 233.96 524.456 234.08 522.206C238.05 452.596 264.68 388.306 311.09 336.286C312.59 334.606 315.17 334.456 316.86 335.956C318.54 337.456 318.69 340.036 317.19 341.726C272.02 392.356 246.1 454.926 242.24 522.676C242.12 524.846 240.32 526.526 238.17 526.526V526.516Z" fill="black"/>
<path d="M314.139 745.103C313.019 745.103 311.899 744.643 311.089 743.743C264.669 691.723 238.039 627.433 234.079 557.823C233.949 555.573 235.669 553.643 237.929 553.513C240.169 553.403 242.109 555.103 242.239 557.363C246.099 625.113 272.019 687.683 317.189 738.313C318.689 739.993 318.539 742.573 316.859 744.083C316.079 744.773 315.109 745.123 314.139 745.123V745.103Z" fill="black"/>
<path d="M741.018 318.225C740.048 318.225 739.078 317.885 738.298 317.185C687.668 272.015 625.098 246.095 557.348 242.235C555.098 242.105 553.378 240.175 553.498 237.925C553.628 235.675 555.548 233.965 557.808 234.075C627.418 238.045 691.708 264.675 743.738 311.085C745.418 312.585 745.568 315.165 744.068 316.855C743.258 317.755 742.138 318.215 741.018 318.215V318.225Z" fill="black"/>
<path d="M338.998 318.224C337.878 318.224 336.758 317.764 335.948 316.864C334.448 315.184 334.598 312.604 336.278 311.094C388.298 264.674 452.588 238.044 522.198 234.084C524.448 233.964 526.378 235.674 526.508 237.934C526.638 240.184 524.918 242.114 522.658 242.244C454.908 246.104 392.338 272.024 341.708 317.194C340.928 317.884 339.958 318.234 338.988 318.234L338.998 318.224Z" fill="black"/>
<path d="M557.569 845.933C555.419 845.933 553.619 844.253 553.499 842.083C553.369 839.833 555.089 837.903 557.349 837.773C625.099 833.913 687.669 807.993 738.299 762.823C739.979 761.323 742.559 761.473 744.069 763.153C745.569 764.833 745.419 767.413 743.739 768.923C691.719 815.343 627.429 841.973 557.809 845.933C557.729 845.933 557.649 845.933 557.569 845.933Z" fill="black"/>
<path d="M522.438 845.933C522.358 845.933 522.278 845.933 522.198 845.933C452.588 841.963 388.298 815.333 336.278 768.923C334.598 767.423 334.448 764.843 335.948 763.153C337.448 761.473 340.028 761.323 341.718 762.823C392.348 807.993 454.918 833.913 522.668 837.773C524.918 837.903 526.638 839.833 526.518 842.083C526.398 844.253 524.598 845.933 522.448 845.933H522.438Z" fill="black"/>
<path d="M320.65 546.174C320.65 544.604 321.79 543.274 323.34 543.024C324.64 542.814 326.27 542.524 327.98 542.124C332.4 541.084 337.59 539.114 343.41 536.274C349.29 533.404 354.92 529.414 359.17 523.674C366.34 513.974 367.86 501.404 368.19 496.894C368.26 495.974 367.53 495.194 366.6 495.194H317.09C315.33 495.194 313.91 493.764 313.91 492.014V470.694C313.91 468.934 315.34 467.514 317.09 467.514H367.07C367.95 467.514 368.66 466.804 368.66 465.924V447.184C368.66 446.304 367.95 445.594 367.07 445.594H328.62C326.86 445.594 325.44 444.164 325.44 442.414V421.094C325.44 419.334 326.87 417.914 328.62 417.914H428.96C430.72 417.914 432.14 419.344 432.14 421.094V442.414C432.14 444.174 430.71 445.594 428.96 445.594H398.52C397.64 445.594 396.93 446.304 396.93 447.184V465.924C396.93 466.804 397.64 467.514 398.52 467.514H438.58C440.34 467.514 441.76 468.944 441.76 470.694V492.014C441.76 493.774 440.33 495.194 438.58 495.194H398.39C397.54 495.194 396.84 495.864 396.8 496.714C396.57 501.754 395.15 518.444 386.18 532.854C380.73 541.614 373.65 548.264 366.54 553.544C359.41 558.844 352.26 562.934 345.27 565.704C338.24 568.494 332.34 570.444 327.75 571.514C326.66 571.764 325.49 571.994 324.4 572.184C322.45 572.534 320.66 571.034 320.66 569.044V546.164L320.65 546.174Z" fill="black"/>
<path d="M474.55 546.522C474.55 545.062 475.55 543.792 476.96 543.432C485.21 541.362 488.93 540.112 496.84 536.322C496.84 536.322 500.89 534.212 504.93 531.302C517.11 522.542 525.22 510.632 525.22 510.632C534.68 497.282 537.77 474.912 538.49 468.492C538.6 467.552 537.86 466.722 536.91 466.722H500.58C500.35 466.722 500.14 466.842 500.03 467.042L499.88 467.292C494.3 478.112 486.88 487.992 480.45 494.242C474 500.502 468.59 505.052 464.38 507.752L461.78 509.422C460.72 510.102 459.33 509.342 459.33 508.082V479.892C459.33 478.952 459.75 478.062 460.47 477.452C461.12 476.902 461.99 476.132 463.18 475.062C465.94 472.572 469.05 468.512 472.42 462.982C475.76 457.512 479.35 450.212 483.07 441.292C486.45 433.202 488.98 423.092 490.86 412.062C491.12 410.532 492.45 409.422 494 409.422H513.91C515.91 409.422 517.42 411.252 517.04 413.212C516.4 416.522 515.71 420.882 514.85 424.312C513.58 429.392 512.76 432.302 511.24 436.722C510.98 437.472 511.54 438.242 512.33 438.242H591.18C592.94 438.242 594.36 439.672 594.36 441.422V463.512C594.36 465.272 592.93 466.692 591.18 466.692H568.14C567.33 466.692 566.64 467.302 566.56 468.112C565.93 474.012 562.88 497.162 552.39 517.262C538.29 546.002 508.14 566.392 478.34 572.132C476.38 572.512 474.56 571.002 474.56 569.002V546.482L474.55 546.522Z" fill="black"/>
<path d="M675.9 411.035V468.875C675.9 469.755 676.61 470.465 677.49 470.465H764.52C765.4 470.465 766.11 469.755 766.11 468.875V411.035C766.11 410.155 765.4 409.445 764.52 409.445H677.49C676.61 409.445 675.9 410.155 675.9 411.035ZM738.46 452.745H702.3C701.42 452.745 700.71 452.035 700.71 451.155V446.875C700.71 445.995 701.42 445.285 702.3 445.285H738.46C739.34 445.285 740.05 445.995 740.05 446.875V451.155C740.05 452.035 739.34 452.745 738.46 452.745ZM738.46 434.455H702.3C701.42 434.455 700.71 433.745 700.71 432.865V428.755C700.71 427.875 701.42 427.165 702.3 427.165H738.46C739.34 427.165 740.05 427.875 740.05 428.755V432.865C740.05 433.745 739.34 434.455 738.46 434.455Z" fill="black"/>
<path d="M674.23 497.342H728.27C729.15 497.342 729.86 498.052 729.86 498.932V502.842C729.86 503.722 729.15 504.432 728.27 504.432H667.76C666 504.432 664.58 505.862 664.58 507.612V522.862C664.58 524.622 666.01 526.042 667.76 526.042H728.27C729.15 526.042 729.86 526.752 729.86 527.632V545.392C729.86 546.112 729.94 547.982 729.22 548.852C728.39 549.872 727.15 549.672 725.85 549.722C722.54 549.722 719.58 549.702 716.95 549.662C716.55 549.662 716.26 549.292 716.34 548.902C716.6 547.632 716.73 546.312 716.7 544.962C716.5 535.682 708.94 528.082 699.66 527.842C689.58 527.582 681.37 535.852 681.71 545.942C682.02 555.292 689.79 562.812 699.15 562.842C704.04 562.852 708.46 560.862 711.64 557.642C711.98 557.302 712.55 557.432 712.7 557.882C714.16 562.212 715.54 566.342 716.79 570.052C717.23 571.352 718.46 572.222 719.83 572.212C725.73 572.172 730.51 571.962 734.18 571.602C738.31 571.182 742.09 570.152 745.52 568.502C749.18 566.842 751.69 564.422 753.05 561.232C754.41 558.042 755.09 553.552 755.09 547.762V527.622C755.09 526.742 755.8 526.032 756.68 526.032H762.91C764.67 526.032 766.09 524.602 766.09 522.852V507.602C766.09 505.842 764.66 504.422 762.91 504.422H756.68C755.8 504.422 755.09 503.712 755.09 502.832V498.922C755.09 498.042 755.8 497.332 756.68 497.332H762.91C764.67 497.332 766.09 495.902 766.09 494.152V479.602C766.09 477.842 764.66 476.422 762.91 476.422H674.21C672.45 476.422 671.03 477.852 671.03 479.602V494.152C671.03 495.912 672.46 497.332 674.21 497.332L674.23 497.342Z" fill="black"/>
<path d="M668.83 409.445H650.26C649.4 409.445 648.58 409.795 647.98 410.405C635.23 423.355 618.29 434.575 612.13 438.485C610.78 439.335 610.28 441.065 610.95 442.505L620.7 463.575C621.63 465.575 624.26 466.055 625.83 464.505C646.12 444.465 664.45 419.805 670.12 411.965C670.88 410.915 670.12 409.445 668.83 409.445Z" fill="black"/>
<path d="M671.92 453.899V435.419C671.92 434.009 670.22 433.299 669.21 434.289C653.64 449.609 620.05 477.069 611.68 483.869C610.55 484.789 610.19 486.359 610.8 487.679L620.7 509.059C621.63 511.059 624.26 511.539 625.83 509.989C627.54 508.299 629.24 506.569 630.92 504.829C631.32 504.419 632.02 504.699 632.02 505.269V569.069C632.02 570.829 633.45 572.249 635.2 572.249H653.82C655.58 572.249 657 570.819 657 569.069V476.379C657 475.309 657.36 474.259 658.03 473.419C664.87 464.739 669.72 458.029 671.34 455.749C671.72 455.209 671.93 454.569 671.93 453.899H671.92Z" fill="black"/>
<path d="M653.271 623.338C640.851 623.338 634.811 628.288 634.811 638.478V655.608C634.811 665.678 640.851 670.568 653.271 670.568C659.141 670.568 663.481 669.488 666.561 667.278C670.001 664.808 671.741 660.878 671.741 655.598V638.468C671.741 628.278 665.701 623.328 653.281 623.328L653.271 623.338ZM646.091 639.308C646.091 633.938 648.841 632.918 653.271 632.918C657.701 632.918 660.451 633.958 660.451 639.308V654.688C660.451 659.958 657.601 660.988 653.271 660.988C648.941 660.988 646.091 659.988 646.091 654.688V639.308Z" fill="black"/>
<path d="M708.27 669.334H721.359L703.63 646.784L720.56 624.804H707.4L694.06 642.284V610.234H682.77V669.334H694.06V659.214L696.95 655.454L708.27 669.334Z" fill="black"/>
<path d="M754.82 624.805V653.295C754.82 659.045 751.88 660.895 746.83 660.895C743.56 660.895 740.28 660.355 740.28 653.885V624.815H729V656.775C729 665.745 733.71 670.485 742.62 670.485C749.3 670.485 753.88 666.865 755.58 662.805L757.39 669.345H766.11V624.815H754.83L754.82 624.805Z" fill="black"/>
<path d="M630.57 610.234H589.15V620.144V620.154H604.22V669.334H615.69V620.154H630.57V610.234Z" fill="black"/>
<path d="M459.689 669.334H472.779L455.049 646.784L471.979 624.804H458.819L445.479 642.284V610.234H434.199V669.334H445.479V659.214L448.369 655.454L459.689 669.334Z" fill="black"/>
<path d="M355.33 610.234H313.91V620.144V620.154H328.99V669.334H340.45V620.154H355.33V610.234Z" fill="black"/>
<path d="M421.8 658.896L421.2 659.046C417.62 659.966 413.29 660.896 409.41 660.896C404.86 660.896 401.69 658.826 401.69 652.836V640.976C401.69 634.906 404.86 632.826 409.41 632.826C413.36 632.826 417.88 633.706 421.23 634.406L421.81 634.526V625.196L421.5 625.126C417.69 624.236 412.05 623.336 407.53 623.336C402.01 623.336 397.97 624.406 395.17 626.596C391.97 629.096 390.42 633.856 390.42 639.346V654.646C390.42 664.776 396.02 670.566 407.54 670.566C411.41 670.566 417.27 669.496 421.53 668.316L421.82 668.236V658.886L421.8 658.896Z" fill="black"/>
<path d="M553.93 634.705V624.805H543.69V615.195H532.41V624.805H525.18V634.705H532.41V655.425C532.41 667.945 540.3 670.565 546.93 670.565C548.71 670.565 550.51 670.455 552.12 670.225V660.265C551.47 660.335 550.26 660.365 549.54 660.365C546.46 660.365 543.69 659.735 543.69 652.095V634.695H553.93V634.705Z" fill="black"/>
<path d="M489.741 650.742V650.562H515.171V641.482C515.171 635.572 513.551 630.243 510.361 627.343C507.421 624.673 502.781 623.312 497.261 623.312C485.081 623.312 478.461 629.223 478.461 639.593V654.453C478.461 664.703 483.841 670.552 496.321 670.552C500.981 670.552 506.291 669.563 511.971 668.403L512.361 668.323V659.052L511.711 659.203C507.141 660.253 504.621 661.143 500.291 661.143C494.081 661.143 489.741 658.623 489.741 652.203V650.722V650.742ZM489.741 639.722C489.741 634.072 493.801 632.742 497.171 632.742C500.541 632.742 504.071 634.072 504.071 639.722V643.232H489.741V642.713V639.722Z" fill="black"/>
<path d="M378.18 626.883H366.9V669.333H378.18V626.883Z" fill="black"/>
<path d="M372.54 622.224C376.422 622.224 379.57 619.077 379.57 615.194C379.57 611.312 376.422 608.164 372.54 608.164C368.657 608.164 365.51 611.312 365.51 615.194C365.51 619.077 368.657 622.224 372.54 622.224Z" fill="black"/>
<path d="M585.74 643.922H566.15V651.262H585.74V643.922Z" fill="black"/>
<path d="M798.191 1620.2C797.791 1620.8 797.191 1621.73 796.391 1623C795.657 1624.27 795.091 1625.43 794.691 1626.5C793.291 1629.63 791.557 1633.13 789.491 1637C787.491 1640.87 785.191 1644.77 782.591 1648.7C780.057 1652.57 777.357 1656.2 774.491 1659.6C770.757 1663.8 766.624 1667.97 762.091 1672.1C757.624 1676.17 752.891 1679.93 747.891 1683.4C742.957 1686.8 737.891 1689.73 732.691 1692.2L722.391 1681.4C727.791 1679.33 733.024 1676.73 738.091 1673.6C743.157 1670.47 747.857 1667.07 752.191 1663.4C756.524 1659.73 760.257 1656.17 763.391 1652.7C765.591 1650.17 767.657 1647.47 769.591 1644.6C771.591 1641.73 773.357 1638.9 774.891 1636.1C776.424 1633.23 777.557 1630.6 778.291 1628.2C777.624 1628.2 776.424 1628.2 774.691 1628.2C772.957 1628.2 770.924 1628.2 768.591 1628.2C766.324 1628.2 763.924 1628.2 761.391 1628.2C758.857 1628.2 756.424 1628.2 754.091 1628.2C751.824 1628.2 749.824 1628.2 748.091 1628.2C746.357 1628.2 745.124 1628.2 744.391 1628.2C742.991 1628.2 741.524 1628.27 739.991 1628.4C738.457 1628.47 736.991 1628.57 735.591 1628.7C734.257 1628.77 733.224 1628.83 732.491 1628.9V1614.7C733.491 1614.77 734.724 1614.87 736.191 1615C737.657 1615.13 739.124 1615.23 740.591 1615.3C742.124 1615.37 743.391 1615.4 744.391 1615.4C745.257 1615.4 746.624 1615.4 748.491 1615.4C750.357 1615.4 752.491 1615.4 754.891 1615.4C757.291 1615.4 759.757 1615.4 762.291 1615.4C764.891 1615.4 767.357 1615.4 769.691 1615.4C772.091 1615.4 774.157 1615.4 775.891 1615.4C777.624 1615.4 778.891 1615.4 779.691 1615.4C781.891 1615.4 783.891 1615.27 785.691 1615C787.557 1614.73 788.991 1614.43 789.991 1614.1L798.191 1620.2ZM775.791 1651.3C778.391 1653.37 781.157 1655.77 784.091 1658.5C787.024 1661.23 789.924 1664.07 792.791 1667C795.657 1669.93 798.291 1672.77 800.691 1675.5C803.157 1678.17 805.224 1680.5 806.891 1682.5L795.491 1692.4C793.024 1689 790.191 1685.47 786.991 1681.8C783.857 1678.13 780.524 1674.5 776.991 1670.9C773.524 1667.23 769.991 1663.77 766.391 1660.5L775.791 1651.3Z" fill="black"/>
<path d="M688.591 1607C689.458 1608.2 690.391 1609.63 691.391 1611.3C692.391 1612.97 693.325 1614.63 694.191 1616.3C695.125 1617.97 695.925 1619.43 696.591 1620.7L688.491 1624.1C687.491 1622.03 686.258 1619.7 684.791 1617.1C683.391 1614.43 682.025 1612.13 680.691 1610.2L688.591 1607ZM700.391 1602.5C701.325 1603.77 702.291 1605.23 703.291 1606.9C704.291 1608.57 705.258 1610.23 706.191 1611.9C707.191 1613.5 707.958 1614.9 708.491 1616.1L700.591 1619.5C699.525 1617.37 698.258 1615 696.791 1612.4C695.325 1609.8 693.891 1607.57 692.491 1605.7L700.391 1602.5ZM645.491 1611.3C645.225 1612.83 645.025 1614.6 644.891 1616.6C644.758 1618.6 644.691 1620.3 644.691 1621.7C644.691 1622.7 644.691 1624.47 644.691 1627C644.691 1629.47 644.691 1632.4 644.691 1635.8C644.691 1639.2 644.691 1642.77 644.691 1646.5C644.691 1650.17 644.691 1653.73 644.691 1657.2C644.691 1660.6 644.691 1663.63 644.691 1666.3C644.691 1668.97 644.691 1670.93 644.691 1672.2C644.691 1674.33 645.225 1675.8 646.291 1676.6C647.358 1677.4 648.991 1678.03 651.191 1678.5C652.725 1678.7 654.491 1678.87 656.491 1679C658.491 1679.07 660.591 1679.1 662.791 1679.1C665.391 1679.1 668.258 1679.03 671.391 1678.9C674.591 1678.7 677.791 1678.47 680.991 1678.2C684.258 1677.93 687.325 1677.57 690.191 1677.1C693.058 1676.63 695.525 1676.13 697.591 1675.6V1690.2C694.458 1690.67 690.825 1691.03 686.691 1691.3C682.558 1691.63 678.325 1691.87 673.991 1692C669.725 1692.2 665.725 1692.3 661.991 1692.3C658.725 1692.3 655.625 1692.2 652.691 1692C649.825 1691.8 647.325 1691.53 645.191 1691.2C640.858 1690.33 637.491 1688.7 635.091 1686.3C632.691 1683.83 631.491 1680.47 631.491 1676.2C631.491 1674.27 631.491 1671.77 631.491 1668.7C631.491 1665.57 631.491 1662.13 631.491 1658.4C631.491 1654.6 631.491 1650.8 631.491 1647C631.491 1643.13 631.491 1639.5 631.491 1636.1C631.491 1632.63 631.491 1629.63 631.491 1627.1C631.491 1624.57 631.491 1622.77 631.491 1621.7C631.491 1620.97 631.458 1619.97 631.391 1618.7C631.325 1617.43 631.225 1616.13 631.091 1614.8C631.025 1613.47 630.891 1612.3 630.691 1611.3H645.491ZM638.891 1642C642.091 1641.33 645.491 1640.53 649.091 1639.6C652.691 1638.6 656.325 1637.53 659.991 1636.4C663.658 1635.27 667.125 1634.13 670.391 1633C673.725 1631.8 676.691 1630.63 679.291 1629.5C681.091 1628.83 682.858 1628.07 684.591 1627.2C686.391 1626.33 688.258 1625.3 690.191 1624.1L695.591 1636.8C693.658 1637.53 691.625 1638.37 689.491 1639.3C687.425 1640.17 685.558 1640.9 683.891 1641.5C680.958 1642.63 677.591 1643.83 673.791 1645.1C670.058 1646.37 666.158 1647.63 662.091 1648.9C658.025 1650.1 653.991 1651.23 649.991 1652.3C646.058 1653.37 642.391 1654.3 638.991 1655.1L638.891 1642Z" fill="black"/>
<path d="M523.99 1641.7C525.19 1641.77 526.724 1641.87 528.59 1642C530.457 1642.07 532.39 1642.14 534.39 1642.2C536.457 1642.27 538.357 1642.3 540.09 1642.3C541.757 1642.3 543.824 1642.3 546.29 1642.3C548.757 1642.3 551.424 1642.3 554.29 1642.3C557.224 1642.3 560.224 1642.3 563.29 1642.3C566.424 1642.3 569.524 1642.3 572.59 1642.3C575.657 1642.3 578.557 1642.3 581.29 1642.3C584.024 1642.3 586.457 1642.3 588.59 1642.3C590.79 1642.3 592.524 1642.3 593.79 1642.3C596.124 1642.3 598.324 1642.24 600.39 1642.1C602.457 1641.9 604.157 1641.77 605.49 1641.7V1657.4C604.357 1657.34 602.657 1657.24 600.39 1657.1C598.124 1656.97 595.924 1656.9 593.79 1656.9C592.524 1656.9 590.79 1656.9 588.59 1656.9C586.39 1656.9 583.924 1656.9 581.19 1656.9C578.457 1656.9 575.557 1656.9 572.49 1656.9C569.49 1656.9 566.424 1656.9 563.29 1656.9C560.157 1656.9 557.124 1656.9 554.19 1656.9C551.324 1656.9 548.657 1656.9 546.19 1656.9C543.79 1656.9 541.757 1656.9 540.09 1656.9C537.224 1656.9 534.29 1656.97 531.29 1657.1C528.29 1657.17 525.857 1657.27 523.99 1657.4V1641.7Z" fill="black"/>
<path d="M489.59 1643.8C489.59 1650 489.124 1655.63 488.19 1660.7C487.324 1665.7 485.79 1670.27 483.59 1674.4C481.39 1678.47 478.324 1682.13 474.39 1685.4C470.457 1688.67 465.49 1691.63 459.49 1694.3L448.79 1684.2C453.59 1682.53 457.724 1680.67 461.19 1678.6C464.724 1676.53 467.624 1674 469.89 1671C472.157 1667.93 473.824 1664.27 474.89 1660C476.024 1655.67 476.59 1650.43 476.59 1644.3V1617.7C476.59 1615.63 476.524 1613.83 476.39 1612.3C476.257 1610.7 476.124 1609.4 475.99 1608.4H490.29C490.157 1609.4 489.99 1610.7 489.79 1612.3C489.657 1613.83 489.59 1615.63 489.59 1617.7V1643.8ZM453.49 1609.3C453.357 1610.23 453.224 1611.5 453.09 1613.1C452.957 1614.63 452.89 1616.37 452.89 1618.3V1654.1C452.89 1655.57 452.924 1657 452.99 1658.4C453.057 1659.73 453.09 1660.93 453.09 1662C453.157 1663 453.224 1663.87 453.29 1664.6H439.29C439.424 1663.87 439.524 1663 439.59 1662C439.657 1660.93 439.724 1659.73 439.79 1658.4C439.857 1657 439.89 1655.57 439.89 1654.1V1618.3C439.89 1616.83 439.824 1615.33 439.69 1613.8C439.624 1612.27 439.49 1610.77 439.29 1609.3H453.49ZM420.49 1627.3C421.157 1627.37 422.024 1627.5 423.09 1627.7C424.157 1627.83 425.39 1627.97 426.79 1628.1C428.19 1628.17 429.724 1628.2 431.39 1628.2H496.99C499.657 1628.2 501.824 1628.13 503.49 1628C505.157 1627.87 506.657 1627.7 507.99 1627.5V1640.8C506.924 1640.67 505.49 1640.6 503.69 1640.6C501.89 1640.53 499.657 1640.5 496.99 1640.5H431.39C429.724 1640.5 428.19 1640.53 426.79 1640.6C425.457 1640.6 424.257 1640.63 423.19 1640.7C422.19 1640.77 421.29 1640.83 420.49 1640.9V1627.3Z" fill="black"/>
<path d="M347.191 1618.5V1631.9H382.391V1618.5H347.191ZM335.591 1607H394.591V1643.3H335.591V1607ZM321.791 1651.7H360.091V1696.4H348.091V1663.2H333.191V1697H321.791V1651.7ZM368.491 1651.7H408.091V1696.5H396.091V1663.2H379.991V1697H368.491V1651.7ZM326.791 1680.4H353.091V1691.9H326.791V1680.4ZM373.991 1680.4H401.991V1691.9H373.991V1680.4Z" fill="black"/>
<path d="M298.61 1608C299.31 1608 299.81 1608.5 299.81 1609.2V1686.7C299.81 1687.4 299.31 1688 298.61 1688H290.61C289.91 1688 289.41 1687.4 289.41 1686.7V1618.2H276.91C275.81 1618.2 275.31 1617.1 275.81 1616.4L280.81 1608.5C281.01 1608.2 281.41 1608 281.81 1608H298.61Z" fill="black"/>
<path d="M765.301 1468.9C765.134 1469.8 764.867 1470.97 764.501 1472.4C764.134 1473.83 763.601 1475.45 762.901 1477.25C762.367 1478.48 761.751 1479.77 761.051 1481.1C760.384 1482.4 759.701 1483.57 759.001 1484.6C759.434 1484.4 759.984 1484.23 760.651 1484.1C761.317 1483.93 762.001 1483.82 762.701 1483.75C763.434 1483.65 764.084 1483.6 764.651 1483.6C766.751 1483.6 768.484 1484.2 769.851 1485.4C771.251 1486.6 771.951 1488.38 771.951 1490.75C771.951 1491.42 771.951 1492.23 771.951 1493.2C771.984 1494.17 772.017 1495.18 772.051 1496.25C772.084 1497.28 772.117 1498.3 772.151 1499.3C772.184 1500.3 772.201 1501.2 772.201 1502H766.201C766.267 1501.43 766.301 1500.77 766.301 1500C766.334 1499.2 766.351 1498.37 766.351 1497.5C766.384 1496.63 766.401 1495.8 766.401 1495C766.434 1494.17 766.451 1493.42 766.451 1492.75C766.451 1491.15 766.017 1490.05 765.151 1489.45C764.317 1488.82 763.384 1488.5 762.351 1488.5C760.951 1488.5 759.534 1488.85 758.101 1489.55C756.701 1490.22 755.517 1491.02 754.551 1491.95C753.817 1492.68 753.067 1493.5 752.301 1494.4C751.567 1495.3 750.767 1496.32 749.901 1497.45L744.551 1493.45C746.717 1491.45 748.584 1489.52 750.151 1487.65C751.751 1485.78 753.101 1483.93 754.201 1482.1C755.301 1480.27 756.201 1478.43 756.901 1476.6C757.401 1475.27 757.801 1473.88 758.101 1472.45C758.434 1470.98 758.634 1469.62 758.701 1468.35L765.301 1468.9ZM746.501 1473.5C747.767 1473.7 749.234 1473.85 750.901 1473.95C752.567 1474.05 754.034 1474.1 755.301 1474.1C757.501 1474.1 759.901 1474.05 762.501 1473.95C765.134 1473.85 767.801 1473.68 770.501 1473.45C773.201 1473.18 775.767 1472.85 778.201 1472.45L778.151 1478.25C776.384 1478.48 774.467 1478.7 772.401 1478.9C770.367 1479.07 768.284 1479.22 766.151 1479.35C764.051 1479.45 762.034 1479.53 760.101 1479.6C758.167 1479.63 756.451 1479.65 754.951 1479.65C754.284 1479.65 753.451 1479.65 752.451 1479.65C751.484 1479.62 750.484 1479.58 749.451 1479.55C748.417 1479.48 747.434 1479.42 746.501 1479.35V1473.5ZM786.101 1487.7C785.567 1487.87 784.934 1488.08 784.201 1488.35C783.501 1488.58 782.784 1488.83 782.051 1489.1C781.351 1489.33 780.717 1489.57 780.151 1489.8C778.551 1490.43 776.651 1491.2 774.451 1492.1C772.284 1493 770.017 1494.05 767.651 1495.25C766.151 1496.05 764.884 1496.83 763.851 1497.6C762.817 1498.37 762.034 1499.15 761.501 1499.95C760.967 1500.72 760.701 1501.57 760.701 1502.5C760.701 1503.2 760.851 1503.78 761.151 1504.25C761.451 1504.68 761.901 1505.03 762.501 1505.3C763.101 1505.57 763.851 1505.75 764.751 1505.85C765.651 1505.95 766.717 1506 767.951 1506C770.084 1506 772.434 1505.88 775.001 1505.65C777.567 1505.38 779.951 1505.03 782.151 1504.6L781.951 1511.05C780.884 1511.18 779.534 1511.32 777.901 1511.45C776.267 1511.62 774.567 1511.73 772.801 1511.8C771.067 1511.87 769.401 1511.9 767.801 1511.9C765.201 1511.9 762.867 1511.65 760.801 1511.15C758.734 1510.65 757.101 1509.8 755.901 1508.6C754.734 1507.37 754.151 1505.68 754.151 1503.55C754.151 1501.82 754.534 1500.25 755.301 1498.85C756.101 1497.45 757.151 1496.18 758.451 1495.05C759.751 1493.92 761.167 1492.9 762.701 1492C764.267 1491.07 765.801 1490.22 767.301 1489.45C768.834 1488.65 770.217 1487.97 771.451 1487.4C772.684 1486.83 773.834 1486.33 774.901 1485.9C776.001 1485.43 777.051 1484.97 778.051 1484.5C779.017 1484.07 779.951 1483.65 780.851 1483.25C781.751 1482.82 782.667 1482.37 783.601 1481.9L786.101 1487.7Z" fill="black"/>
<path d="M707.701 1468.75C708.901 1469.12 710.401 1469.5 712.201 1469.9C714.001 1470.3 715.884 1470.7 717.851 1471.1C719.817 1471.47 721.667 1471.78 723.401 1472.05C725.167 1472.32 726.601 1472.52 727.701 1472.65L726.201 1478.75C725.201 1478.62 723.984 1478.43 722.551 1478.2C721.151 1477.93 719.651 1477.65 718.051 1477.35C716.484 1477.05 714.934 1476.75 713.401 1476.45C711.867 1476.12 710.467 1475.8 709.201 1475.5C707.934 1475.2 706.901 1474.95 706.101 1474.75L707.701 1468.75ZM708.001 1478.8C707.834 1479.47 707.651 1480.33 707.451 1481.4C707.284 1482.43 707.117 1483.52 706.951 1484.65C706.784 1485.78 706.617 1486.87 706.451 1487.9C706.317 1488.93 706.201 1489.8 706.101 1490.5C708.367 1488.87 710.734 1487.67 713.201 1486.9C715.701 1486.13 718.251 1485.75 720.851 1485.75C723.784 1485.75 726.284 1486.28 728.351 1487.35C730.417 1488.42 731.984 1489.82 733.051 1491.55C734.151 1493.28 734.701 1495.17 734.701 1497.2C734.701 1499.47 734.217 1501.57 733.251 1503.5C732.284 1505.43 730.701 1507.08 728.501 1508.45C726.301 1509.82 723.417 1510.78 719.851 1511.35C716.284 1511.92 711.901 1511.98 706.701 1511.55L704.801 1505C709.801 1505.67 714.001 1505.77 717.401 1505.3C720.801 1504.8 723.367 1503.83 725.101 1502.4C726.867 1500.93 727.751 1499.15 727.751 1497.05C727.751 1495.95 727.434 1494.98 726.801 1494.15C726.167 1493.28 725.284 1492.62 724.151 1492.15C723.017 1491.65 721.734 1491.4 720.301 1491.4C717.501 1491.4 714.867 1491.92 712.401 1492.95C709.967 1493.95 707.967 1495.4 706.401 1497.3C705.967 1497.83 705.601 1498.33 705.301 1498.8C705.034 1499.23 704.784 1499.7 704.551 1500.2L698.801 1498.75C699.001 1497.78 699.201 1496.65 699.401 1495.35C699.601 1494.02 699.801 1492.6 700.001 1491.1C700.201 1489.57 700.384 1488.03 700.551 1486.5C700.717 1484.97 700.867 1483.45 701.001 1481.95C701.134 1480.45 701.234 1479.08 701.301 1477.85L708.001 1478.8Z" fill="black"/>
<path d="M681.049 1478.15C681.049 1478.95 681.333 1479.65 681.899 1480.25C682.499 1480.82 683.199 1481.1 683.999 1481.1C684.799 1481.1 685.483 1480.82 686.049 1480.25C686.616 1479.65 686.899 1478.95 686.899 1478.15C686.899 1477.35 686.616 1476.67 686.049 1476.1C685.483 1475.5 684.799 1475.2 683.999 1475.2C683.199 1475.2 682.499 1475.5 681.899 1476.1C681.333 1476.67 681.049 1477.35 681.049 1478.15ZM677.899 1478.15C677.899 1477.05 678.166 1476.05 678.699 1475.15C679.266 1474.22 680.016 1473.48 680.949 1472.95C681.883 1472.38 682.899 1472.1 683.999 1472.1C685.099 1472.1 686.099 1472.38 686.999 1472.95C687.933 1473.48 688.666 1474.22 689.199 1475.15C689.766 1476.05 690.049 1477.05 690.049 1478.15C690.049 1479.28 689.766 1480.32 689.199 1481.25C688.666 1482.15 687.933 1482.87 686.999 1483.4C686.099 1483.93 685.099 1484.2 683.999 1484.2C682.899 1484.2 681.883 1483.93 680.949 1483.4C680.016 1482.87 679.266 1482.15 678.699 1481.25C678.166 1480.32 677.899 1479.28 677.899 1478.15ZM663.699 1481.3C664.299 1480.9 664.883 1480.48 665.449 1480.05C666.016 1479.62 666.483 1479.27 666.849 1479C666.116 1478.53 665.199 1478 664.099 1477.4C663.033 1476.8 661.866 1476.22 660.599 1475.65C659.366 1475.08 658.116 1474.58 656.849 1474.15L660.549 1469.5C661.916 1470 663.366 1470.58 664.899 1471.25C666.466 1471.88 667.999 1472.57 669.499 1473.3C670.999 1474.03 672.316 1474.75 673.449 1475.45L674.949 1479.35C674.616 1479.65 674.149 1480.05 673.549 1480.55C672.949 1481.02 672.283 1481.53 671.549 1482.1C670.849 1482.63 670.166 1483.17 669.499 1483.7C668.833 1484.2 668.233 1484.62 667.699 1484.95L663.699 1481.3ZM655.199 1504.35C656.566 1504.75 657.883 1505.05 659.149 1505.25C660.449 1505.45 661.699 1505.55 662.899 1505.55C663.733 1505.55 664.483 1505.45 665.149 1505.25C665.816 1505.02 666.316 1504.67 666.649 1504.2C667.016 1503.7 667.199 1503.07 667.199 1502.3C667.199 1501.57 667.016 1500.75 666.649 1499.85C666.283 1498.92 665.799 1498 665.199 1497.1C664.599 1496.2 663.966 1495.35 663.299 1494.55C662.666 1493.75 662.066 1493.07 661.499 1492.5C660.899 1491.9 660.183 1491.25 659.349 1490.55C658.549 1489.85 657.733 1489.18 656.899 1488.55L661.799 1484.5C662.533 1485.23 663.233 1485.93 663.899 1486.6C664.566 1487.23 665.216 1487.88 665.849 1488.55C667.649 1490.32 669.166 1492.02 670.399 1493.65C671.633 1495.25 672.566 1496.83 673.199 1498.4C673.833 1499.93 674.149 1501.47 674.149 1503C674.149 1504.67 673.866 1506.07 673.299 1507.2C672.766 1508.3 672.033 1509.18 671.099 1509.85C670.166 1510.52 669.099 1510.98 667.899 1511.25C666.733 1511.55 665.499 1511.7 664.199 1511.7C662.833 1511.7 661.449 1511.63 660.049 1511.5C658.649 1511.37 657.333 1511.18 656.099 1510.95L655.199 1504.35ZM682.899 1508.2C682.599 1506.93 682.166 1505.57 681.599 1504.1C681.066 1502.63 680.449 1501.17 679.749 1499.7C679.049 1498.2 678.299 1496.77 677.499 1495.4C676.699 1494.03 675.866 1492.82 674.999 1491.75L680.399 1488.85C681.199 1489.82 682.016 1490.98 682.849 1492.35C683.683 1493.68 684.483 1495.1 685.249 1496.6C686.049 1498.1 686.766 1499.58 687.399 1501.05C688.066 1502.48 688.583 1503.78 688.949 1504.95L682.899 1508.2ZM658.199 1498.7C657.299 1499.7 656.199 1500.78 654.899 1501.95C653.599 1503.12 652.149 1504.32 650.549 1505.55C648.949 1506.78 647.266 1507.93 645.499 1509L641.699 1503.65C642.766 1503.05 643.883 1502.37 645.049 1501.6C646.249 1500.8 647.416 1499.95 648.549 1499.05C649.716 1498.15 650.799 1497.27 651.799 1496.4C652.799 1495.5 653.683 1494.65 654.449 1493.85L658.199 1498.7Z" fill="black"/>
<path d="M619 1487.7C619.966 1491.13 621.333 1494.2 623.1 1496.9C624.866 1499.6 627.116 1501.87 629.85 1503.7C632.616 1505.5 635.966 1506.83 639.9 1507.7C639.433 1508.13 638.933 1508.7 638.4 1509.4C637.9 1510.1 637.4 1510.82 636.9 1511.55C636.433 1512.28 636.05 1512.95 635.75 1513.55C631.483 1512.35 627.9 1510.65 625 1508.45C622.1 1506.25 619.7 1503.52 617.8 1500.25C615.933 1496.98 614.383 1493.2 613.15 1488.9L619 1487.7ZM595.3 1485.2H636.9V1491.35H595.3V1485.2ZM593.75 1469.85H638.25V1476H593.75V1469.85ZM612.35 1471.5H618.75V1483.8C618.75 1485.9 618.6 1488.1 618.3 1490.4C618 1492.67 617.416 1494.92 616.55 1497.15C615.683 1499.35 614.416 1501.47 612.75 1503.5C611.083 1505.53 608.883 1507.4 606.15 1509.1C603.45 1510.83 600.1 1512.33 596.1 1513.6C595.866 1513.07 595.533 1512.47 595.1 1511.8C594.666 1511.13 594.2 1510.47 593.7 1509.8C593.233 1509.17 592.783 1508.63 592.35 1508.2C595.916 1507.17 598.9 1505.93 601.3 1504.5C603.733 1503.03 605.683 1501.45 607.15 1499.75C608.616 1498.05 609.716 1496.3 610.45 1494.5C611.183 1492.7 611.683 1490.88 611.95 1489.05C612.216 1487.18 612.35 1485.42 612.35 1483.75V1471.5Z" fill="black"/>
<path d="M543.749 1469.55H588.399V1474.8H543.749V1469.55ZM554.699 1466.5H560.799V1477.8H554.699V1466.5ZM571.349 1466.5H577.449V1477.15H571.349V1466.5ZM543.749 1495.3H588.399V1500.55H543.749V1495.3ZM562.799 1491.9H569.049V1513.5H562.799V1491.9ZM561.149 1497.7L566.049 1499.85C564.516 1501.72 562.683 1503.45 560.549 1505.05C558.416 1506.65 556.133 1508.07 553.699 1509.3C551.266 1510.57 548.799 1511.6 546.299 1512.4C545.999 1511.87 545.616 1511.27 545.149 1510.6C544.683 1509.97 544.183 1509.35 543.649 1508.75C543.149 1508.12 542.666 1507.58 542.199 1507.15C544.033 1506.72 545.849 1506.18 547.649 1505.55C549.483 1504.88 551.233 1504.13 552.899 1503.3C554.599 1502.47 556.149 1501.58 557.549 1500.65C558.949 1499.68 560.149 1498.7 561.149 1497.7ZM570.699 1498.1C571.999 1499.47 573.649 1500.73 575.649 1501.9C577.683 1503.07 579.883 1504.1 582.249 1505C584.649 1505.87 587.066 1506.55 589.499 1507.05C589.033 1507.48 588.549 1508.02 588.049 1508.65C587.549 1509.25 587.066 1509.87 586.599 1510.5C586.166 1511.17 585.783 1511.77 585.449 1512.3C582.983 1511.6 580.549 1510.63 578.149 1509.4C575.749 1508.2 573.533 1506.8 571.499 1505.2C569.466 1503.6 567.699 1501.87 566.199 1500L570.699 1498.1ZM581.299 1476.35L586.099 1481C583.333 1481.63 580.333 1482.18 577.099 1482.65C573.866 1483.08 570.499 1483.43 566.999 1483.7C563.499 1483.97 559.999 1484.17 556.499 1484.3C552.999 1484.43 549.599 1484.5 546.299 1484.5C546.233 1483.8 546.066 1482.93 545.799 1481.9C545.533 1480.87 545.249 1480.03 544.949 1479.4C548.183 1479.33 551.483 1479.23 554.849 1479.1C558.249 1478.97 561.566 1478.77 564.799 1478.5C568.033 1478.23 571.049 1477.93 573.849 1477.6C576.683 1477.23 579.166 1476.82 581.299 1476.35ZM547.149 1486.85L552.149 1484.85C553.049 1485.92 553.899 1487.12 554.699 1488.45C555.533 1489.78 556.116 1490.97 556.449 1492L551.149 1494.15C550.849 1493.15 550.316 1491.97 549.549 1490.6C548.783 1489.23 547.983 1487.98 547.149 1486.85ZM561.099 1485.75L566.299 1484.05C566.933 1485.02 567.533 1486.1 568.099 1487.3C568.666 1488.47 569.033 1489.5 569.199 1490.4L563.649 1492.25C563.516 1491.38 563.199 1490.33 562.699 1489.1C562.233 1487.87 561.699 1486.75 561.099 1485.75ZM579.949 1482.85L586.149 1485C585.083 1486.67 583.983 1488.32 582.849 1489.95C581.716 1491.58 580.699 1492.95 579.799 1494.05L575.049 1492.1C575.616 1491.27 576.199 1490.32 576.799 1489.25C577.433 1488.15 578.016 1487.05 578.549 1485.95C579.116 1484.82 579.583 1483.78 579.949 1482.85Z" fill="black"/>
<path d="M498.95 1481.75V1485.5H511.25V1481.75H498.95ZM498.95 1473.65V1477.3H511.25V1473.65H498.95ZM494.05 1468.85H516.35V1490.25H494.05V1468.85ZM494.15 1494.35H516.4V1499.75H494.15V1494.35ZM492.5 1506.15C494.567 1505.95 496.95 1505.73 499.65 1505.5C502.35 1505.23 505.2 1504.93 508.2 1504.6C511.2 1504.26 514.2 1503.93 517.2 1503.6L517.35 1508.9C514.517 1509.26 511.65 1509.63 508.75 1510C505.883 1510.36 503.117 1510.71 500.45 1511.05C497.783 1511.41 495.367 1511.73 493.2 1512L492.5 1506.15ZM518 1468.85H535.25V1474.2H518V1468.85ZM517.45 1485.25H536V1490.95H517.45V1485.25ZM532.55 1468.85H534L535.3 1468.55L539.1 1471.25C538.233 1472.61 537.233 1474.01 536.1 1475.45C535 1476.88 533.817 1478.25 532.55 1479.55C531.283 1480.81 529.983 1481.91 528.65 1482.85C528.283 1482.31 527.75 1481.71 527.05 1481.05C526.383 1480.38 525.833 1479.85 525.4 1479.45C526.333 1478.61 527.267 1477.65 528.2 1476.55C529.133 1475.41 529.967 1474.28 530.7 1473.15C531.467 1471.98 532.083 1470.93 532.55 1470V1468.85ZM518.75 1479.8L522.45 1476.1C523.983 1476.76 525.533 1477.55 527.1 1478.45C528.7 1479.35 530.2 1480.26 531.6 1481.2C533.033 1482.13 534.233 1483 535.2 1483.8L531.45 1488C530.517 1487.13 529.333 1486.2 527.9 1485.2C526.5 1484.2 525 1483.23 523.4 1482.3C521.8 1481.33 520.25 1480.5 518.75 1479.8ZM534.2 1485.25H535.05L535.9 1485.1L540 1485.95C539.533 1488.18 538.983 1490.46 538.35 1492.8C537.75 1495.13 537.15 1497.11 536.55 1498.75L531.7 1497.7C532 1496.73 532.3 1495.6 532.6 1494.3C532.9 1492.96 533.183 1491.58 533.45 1490.15C533.75 1488.71 534 1487.36 534.2 1486.1V1485.25ZM524.05 1488.1H530V1507C530 1508.43 529.833 1509.58 529.5 1510.45C529.167 1511.31 528.517 1511.98 527.55 1512.45C526.583 1512.91 525.417 1513.2 524.05 1513.3C522.683 1513.4 521.083 1513.45 519.25 1513.45C519.183 1512.61 518.967 1511.63 518.6 1510.5C518.267 1509.36 517.9 1508.38 517.5 1507.55C518.633 1507.61 519.75 1507.66 520.85 1507.7C521.983 1507.7 522.733 1507.68 523.1 1507.65C523.467 1507.65 523.717 1507.6 523.85 1507.5C523.983 1507.36 524.05 1507.15 524.05 1506.85V1488.1ZM502.65 1470.55H507.65V1487.35H508.05V1506H502.25V1487.35H502.65V1470.55Z" fill="black"/>
<path d="M445.15 1476.25C446.217 1476.38 447.35 1476.48 448.55 1476.55C449.783 1476.58 450.867 1476.6 451.8 1476.6C453.867 1476.6 455.95 1476.48 458.05 1476.25C460.183 1476.01 462.233 1475.71 464.2 1475.35C466.167 1474.95 467.95 1474.5 469.55 1474L469.75 1479.8C468.317 1480.16 466.6 1480.55 464.6 1480.95C462.633 1481.31 460.55 1481.63 458.35 1481.9C456.15 1482.13 453.983 1482.25 451.85 1482.25C450.85 1482.25 449.833 1482.23 448.8 1482.2C447.767 1482.16 446.7 1482.11 445.6 1482.05L445.15 1476.25ZM464.6 1468.75C464.4 1469.58 464.133 1470.66 463.8 1472C463.467 1473.33 463.083 1474.73 462.65 1476.2C462.25 1477.66 461.817 1479.11 461.35 1480.55C460.617 1482.95 459.65 1485.5 458.45 1488.2C457.25 1490.9 455.95 1493.53 454.55 1496.1C453.15 1498.66 451.733 1500.95 450.3 1502.95L444.25 1499.85C445.383 1498.45 446.5 1496.9 447.6 1495.2C448.7 1493.5 449.733 1491.75 450.7 1489.95C451.667 1488.15 452.533 1486.41 453.3 1484.75C454.1 1483.05 454.733 1481.51 455.2 1480.15C455.833 1478.38 456.383 1476.41 456.85 1474.25C457.35 1472.05 457.633 1469.98 457.7 1468.05L464.6 1468.75ZM476.3 1484.3C476.233 1485.36 476.2 1486.43 476.2 1487.5C476.233 1488.53 476.267 1489.6 476.3 1490.7C476.333 1491.46 476.367 1492.45 476.4 1493.65C476.467 1494.81 476.533 1496.06 476.6 1497.4C476.667 1498.7 476.717 1499.95 476.75 1501.15C476.817 1502.31 476.85 1503.25 476.85 1503.95C476.85 1505.48 476.533 1506.88 475.9 1508.15C475.267 1509.38 474.25 1510.36 472.85 1511.1C471.483 1511.83 469.6 1512.2 467.2 1512.2C465.133 1512.2 463.267 1511.88 461.6 1511.25C459.933 1510.65 458.6 1509.75 457.6 1508.55C456.6 1507.31 456.1 1505.78 456.1 1503.95C456.1 1502.31 456.533 1500.85 457.4 1499.55C458.267 1498.21 459.517 1497.18 461.15 1496.45C462.817 1495.68 464.817 1495.3 467.15 1495.3C470.083 1495.3 472.783 1495.71 475.25 1496.55C477.717 1497.35 479.933 1498.38 481.9 1499.65C483.867 1500.91 485.55 1502.18 486.95 1503.45L483.6 1508.8C482.7 1508 481.667 1507.1 480.5 1506.1C479.367 1505.1 478.083 1504.16 476.65 1503.3C475.25 1502.43 473.717 1501.71 472.05 1501.15C470.417 1500.58 468.65 1500.3 466.75 1500.3C465.317 1500.3 464.167 1500.58 463.3 1501.15C462.433 1501.71 462 1502.45 462 1503.35C462 1504.28 462.367 1505.03 463.1 1505.6C463.867 1506.16 464.933 1506.45 466.3 1506.45C467.433 1506.45 468.333 1506.26 469 1505.9C469.667 1505.5 470.133 1504.95 470.4 1504.25C470.667 1503.51 470.8 1502.7 470.8 1501.8C470.8 1501.03 470.767 1499.95 470.7 1498.55C470.633 1497.15 470.55 1495.6 470.45 1493.9C470.383 1492.2 470.317 1490.5 470.25 1488.8C470.183 1487.1 470.117 1485.6 470.05 1484.3H476.3ZM484.9 1486.95C483.933 1486.15 482.733 1485.3 481.3 1484.4C479.867 1483.5 478.383 1482.65 476.85 1481.85C475.35 1481.01 474.033 1480.35 472.9 1479.85L476.1 1474.9C477 1475.3 478.017 1475.8 479.15 1476.4C480.317 1476.96 481.483 1477.56 482.65 1478.2C483.85 1478.83 484.95 1479.46 485.95 1480.1C486.983 1480.7 487.817 1481.23 488.45 1481.7L484.9 1486.95Z" fill="black"/>
<path d="M399.201 1473.1C402.867 1473.53 406.234 1473.8 409.301 1473.9C412.401 1473.97 415.267 1473.9 417.901 1473.7C420.201 1473.5 422.401 1473.2 424.501 1472.8C426.601 1472.4 428.667 1471.88 430.701 1471.25L431.501 1477C429.701 1477.5 427.751 1477.93 425.651 1478.3C423.551 1478.67 421.401 1478.95 419.201 1479.15C416.634 1479.35 413.667 1479.45 410.301 1479.45C406.967 1479.42 403.384 1479.22 399.551 1478.85L399.201 1473.1ZM398.301 1483.6C401.334 1483.87 404.234 1484.05 407.001 1484.15C409.767 1484.25 412.367 1484.25 414.801 1484.15C417.234 1484.05 419.451 1483.92 421.451 1483.75C424.151 1483.52 426.467 1483.18 428.401 1482.75C430.334 1482.28 432.017 1481.85 433.451 1481.45L434.451 1487.35C432.951 1487.72 431.301 1488.07 429.501 1488.4C427.701 1488.73 425.784 1489.02 423.751 1489.25C421.617 1489.45 419.167 1489.62 416.401 1489.75C413.667 1489.85 410.784 1489.88 407.751 1489.85C404.717 1489.78 401.684 1489.67 398.651 1489.5L398.301 1483.6ZM415.001 1474.5C414.767 1473.57 414.501 1472.65 414.201 1471.75C413.901 1470.82 413.567 1469.87 413.201 1468.9L419.951 1468.15C420.151 1469.72 420.401 1471.27 420.701 1472.8C421.034 1474.3 421.401 1475.75 421.801 1477.15C422.234 1478.55 422.651 1479.9 423.051 1481.2C423.451 1482.33 423.967 1483.63 424.601 1485.1C425.267 1486.53 425.984 1487.98 426.751 1489.45C427.517 1490.88 428.284 1492.18 429.051 1493.35C429.384 1493.82 429.717 1494.27 430.051 1494.7C430.417 1495.1 430.834 1495.5 431.301 1495.9L428.251 1500.5C427.317 1500.3 426.151 1500.1 424.751 1499.9C423.384 1499.7 421.951 1499.52 420.451 1499.35C418.984 1499.18 417.634 1499.03 416.401 1498.9L416.901 1494.15C417.934 1494.25 419.051 1494.35 420.251 1494.45C421.484 1494.55 422.467 1494.65 423.201 1494.75C421.867 1492.52 420.717 1490.33 419.751 1488.2C418.817 1486.07 418.034 1484.08 417.401 1482.25C417.001 1481.08 416.667 1480.08 416.401 1479.25C416.134 1478.38 415.884 1477.58 415.651 1476.85C415.451 1476.08 415.234 1475.3 415.001 1474.5ZM407.901 1495.2C407.301 1496.03 406.784 1496.9 406.351 1497.8C405.917 1498.67 405.701 1499.65 405.701 1500.75C405.701 1502.58 406.551 1503.92 408.251 1504.75C409.984 1505.55 412.501 1505.95 415.801 1505.95C418.167 1505.95 420.401 1505.85 422.501 1505.65C424.634 1505.45 426.584 1505.18 428.351 1504.85L428.001 1511.2C426.267 1511.5 424.317 1511.73 422.151 1511.9C419.984 1512.07 417.884 1512.15 415.851 1512.15C412.517 1512.15 409.634 1511.8 407.201 1511.1C404.801 1510.4 402.934 1509.32 401.601 1507.85C400.267 1506.35 399.584 1504.42 399.551 1502.05C399.517 1500.45 399.717 1499.02 400.151 1497.75C400.617 1496.45 401.134 1495.2 401.701 1494L407.901 1495.2Z" fill="black"/>
<path d="M363.6 1469.05H383.95V1474.55H363.6V1469.05ZM361.9 1486.4H389.55V1492.1H361.9V1486.4ZM372.5 1480.6H378.5V1506.8C378.5 1508.3 378.316 1509.48 377.95 1510.35C377.583 1511.22 376.916 1511.88 375.95 1512.35C374.95 1512.82 373.75 1513.12 372.35 1513.25C370.983 1513.42 369.383 1513.48 367.55 1513.45C367.416 1512.62 367.133 1511.63 366.7 1510.5C366.266 1509.37 365.833 1508.38 365.4 1507.55C366.666 1507.58 367.883 1507.62 369.05 1507.65C370.216 1507.68 371.016 1507.68 371.45 1507.65C371.85 1507.65 372.116 1507.58 372.25 1507.45C372.416 1507.32 372.5 1507.08 372.5 1506.75V1480.6ZM381.75 1469.05H383.25L384.45 1468.7L388.35 1471.65C387.383 1473.12 386.283 1474.65 385.05 1476.25C383.85 1477.82 382.583 1479.33 381.25 1480.8C379.916 1482.23 378.6 1483.5 377.3 1484.6C376.9 1484.07 376.35 1483.45 375.65 1482.75C374.95 1482.05 374.35 1481.5 373.85 1481.1C374.85 1480.17 375.866 1479.05 376.9 1477.75C377.933 1476.45 378.866 1475.13 379.7 1473.8C380.566 1472.47 381.25 1471.3 381.75 1470.3V1469.05ZM342.85 1476.45H359.05V1482.05H342.85V1476.45ZM349.6 1466.5L355.2 1467.1C354.733 1469.77 354.2 1472.57 353.6 1475.5C353.033 1478.43 352.433 1481.37 351.8 1484.3C351.166 1487.2 350.533 1490.02 349.9 1492.75C349.266 1495.45 348.65 1497.92 348.05 1500.15L343.15 1497.6C343.716 1495.63 344.283 1493.38 344.85 1490.85C345.45 1488.32 346.033 1485.65 346.6 1482.85C347.166 1480.02 347.7 1477.22 348.2 1474.45C348.733 1471.65 349.2 1469 349.6 1466.5ZM345.8 1496.75L349.05 1492.5C350.783 1493.6 352.6 1494.83 354.5 1496.2C356.433 1497.57 358.216 1498.95 359.85 1500.35C361.516 1501.75 362.833 1503.08 363.8 1504.35L360.2 1509.2C359.266 1507.93 358 1506.57 356.4 1505.1C354.8 1503.6 353.066 1502.12 351.2 1500.65C349.366 1499.18 347.566 1497.88 345.8 1496.75ZM356.95 1476.45H357.95L359 1476.35L362.55 1476.95C362.183 1483.45 361.366 1489.07 360.1 1493.8C358.866 1498.5 357.133 1502.47 354.9 1505.7C352.7 1508.93 349.933 1511.58 346.6 1513.65C346.233 1512.92 345.7 1512.07 345 1511.1C344.3 1510.17 343.633 1509.43 343 1508.9C345.833 1507.4 348.233 1505.2 350.2 1502.3C352.166 1499.4 353.7 1495.87 354.8 1491.7C355.933 1487.53 356.65 1482.83 356.95 1477.6V1476.45Z" fill="black"/>
<path d="M312.801 1468.4C312.767 1468.67 312.717 1469.08 312.651 1469.65C312.584 1470.18 312.517 1470.73 312.451 1471.3C312.417 1471.83 312.384 1472.32 312.351 1472.75C312.284 1473.72 312.217 1474.78 312.151 1475.95C312.117 1477.08 312.084 1478.27 312.051 1479.5C312.017 1480.7 311.984 1481.92 311.951 1483.15C311.951 1484.38 311.951 1485.58 311.951 1486.75C311.951 1488.12 311.967 1489.63 312.001 1491.3C312.034 1492.93 312.067 1494.57 312.101 1496.2C312.167 1497.8 312.201 1499.27 312.201 1500.6C312.234 1501.93 312.251 1502.97 312.251 1503.7C312.251 1505.77 312.017 1507.37 311.551 1508.5C311.117 1509.63 310.484 1510.42 309.651 1510.85C308.817 1511.32 307.851 1511.55 306.751 1511.55C305.551 1511.55 304.267 1511.3 302.901 1510.8C301.534 1510.33 300.251 1509.67 299.051 1508.8C297.884 1507.93 296.917 1506.93 296.151 1505.8C295.417 1504.63 295.051 1503.38 295.051 1502.05C295.051 1500.45 295.651 1498.87 296.851 1497.3C298.084 1495.7 299.701 1494.23 301.701 1492.9C303.734 1491.57 305.917 1490.5 308.251 1489.7C310.484 1488.87 312.784 1488.27 315.151 1487.9C317.517 1487.5 319.651 1487.3 321.551 1487.3C324.117 1487.3 326.434 1487.73 328.501 1488.6C330.567 1489.43 332.217 1490.67 333.451 1492.3C334.684 1493.93 335.301 1495.9 335.301 1498.2C335.301 1500.13 334.934 1501.92 334.201 1503.55C333.467 1505.18 332.284 1506.6 330.651 1507.8C329.051 1508.97 326.917 1509.88 324.251 1510.55C323.117 1510.78 321.984 1510.95 320.851 1511.05C319.751 1511.18 318.701 1511.28 317.701 1511.35L315.401 1504.9C316.534 1504.9 317.617 1504.88 318.651 1504.85C319.717 1504.78 320.684 1504.68 321.551 1504.55C322.917 1504.28 324.151 1503.88 325.251 1503.35C326.351 1502.82 327.217 1502.12 327.851 1501.25C328.484 1500.38 328.801 1499.35 328.801 1498.15C328.801 1497.02 328.484 1496.05 327.851 1495.25C327.251 1494.45 326.401 1493.83 325.301 1493.4C324.201 1492.97 322.917 1492.75 321.451 1492.75C319.351 1492.75 317.217 1492.97 315.051 1493.4C312.917 1493.83 310.867 1494.43 308.901 1495.2C307.434 1495.77 306.117 1496.43 304.951 1497.2C303.784 1497.93 302.867 1498.7 302.201 1499.5C301.534 1500.3 301.201 1501.07 301.201 1501.8C301.201 1502.2 301.317 1502.58 301.551 1502.95C301.817 1503.28 302.151 1503.58 302.551 1503.85C302.951 1504.12 303.351 1504.33 303.751 1504.5C304.184 1504.63 304.551 1504.7 304.851 1504.7C305.317 1504.7 305.701 1504.57 306.001 1504.3C306.301 1504 306.451 1503.43 306.451 1502.6C306.451 1501.7 306.417 1500.42 306.351 1498.75C306.317 1497.05 306.267 1495.17 306.201 1493.1C306.167 1491.03 306.151 1488.98 306.151 1486.95C306.151 1485.55 306.151 1484.13 306.151 1482.7C306.184 1481.27 306.201 1479.9 306.201 1478.6C306.201 1477.3 306.201 1476.15 306.201 1475.15C306.234 1474.15 306.251 1473.37 306.251 1472.8C306.251 1472.43 306.234 1471.97 306.201 1471.4C306.167 1470.83 306.117 1470.27 306.051 1469.7C306.017 1469.1 305.967 1468.67 305.901 1468.4H312.801ZM327.051 1473.8C328.317 1474.4 329.734 1475.13 331.301 1476C332.901 1476.87 334.417 1477.73 335.851 1478.6C337.317 1479.43 338.484 1480.18 339.351 1480.85L336.351 1485.95C335.717 1485.42 334.884 1484.82 333.851 1484.15C332.851 1483.48 331.751 1482.8 330.551 1482.1C329.384 1481.4 328.251 1480.75 327.151 1480.15C326.051 1479.52 325.101 1479.02 324.301 1478.65L327.051 1473.8ZM296.401 1476.55C297.867 1476.72 299.151 1476.83 300.251 1476.9C301.384 1476.93 302.401 1476.95 303.301 1476.95C304.601 1476.95 306.034 1476.9 307.601 1476.8C309.167 1476.67 310.767 1476.5 312.401 1476.3C314.034 1476.07 315.617 1475.8 317.151 1475.5C318.717 1475.2 320.134 1474.87 321.401 1474.5L321.551 1480.7C320.151 1481.03 318.634 1481.33 317.001 1481.6C315.367 1481.83 313.717 1482.05 312.051 1482.25C310.417 1482.45 308.851 1482.6 307.351 1482.7C305.884 1482.8 304.601 1482.85 303.501 1482.85C301.834 1482.85 300.467 1482.83 299.401 1482.8C298.334 1482.77 297.367 1482.7 296.501 1482.6L296.401 1476.55Z" fill="black"/>
<path d="M720.947 1326.02C720.947 1331.08 720.308 1335.72 719.03 1339.93C717.752 1344.15 716.048 1347.93 713.918 1351.29C711.835 1354.65 709.516 1357.59 706.96 1360.1L700.215 1357.12C702.582 1354.56 704.711 1351.74 706.605 1348.67C708.545 1345.59 710.084 1342.18 711.22 1338.44C712.356 1334.66 712.924 1330.51 712.924 1326.02C712.924 1321.47 712.356 1317.33 711.22 1313.59C710.084 1309.85 708.545 1306.45 706.605 1303.37C704.711 1300.24 702.582 1297.43 700.215 1294.92L706.96 1291.94C709.516 1294.45 711.835 1297.38 713.918 1300.74C716.048 1304.1 717.752 1307.89 719.03 1312.1C720.308 1316.31 720.947 1320.95 720.947 1326.02Z" fill="black"/>
<path d="M665.425 1299.47C664.952 1300.51 664.455 1301.69 663.934 1303.02C663.413 1304.3 662.893 1305.74 662.372 1307.35C661.946 1308.67 661.402 1310.38 660.739 1312.46C660.076 1314.5 659.343 1316.74 658.538 1319.21C657.733 1321.62 656.881 1324.13 655.982 1326.73C655.13 1329.29 654.302 1331.77 653.497 1334.19C652.692 1336.6 651.935 1338.8 651.225 1340.79C650.515 1342.73 649.9 1344.32 649.379 1345.55L638.871 1345.9C639.534 1344.39 640.267 1342.54 641.072 1340.36C641.877 1338.19 642.729 1335.82 643.628 1333.26C644.527 1330.66 645.403 1328.01 646.255 1325.31C647.154 1322.61 647.983 1320.01 648.74 1317.5C649.545 1314.99 650.255 1312.67 650.87 1310.54C651.533 1308.41 652.053 1306.69 652.432 1305.36C652.905 1303.51 653.26 1302 653.497 1300.82C653.781 1299.59 653.994 1298.36 654.136 1297.12L665.425 1299.47ZM678.134 1322.4C679.412 1324.29 680.785 1326.52 682.252 1329.07C683.719 1331.63 685.163 1334.31 686.583 1337.1C688.05 1339.84 689.399 1342.49 690.63 1345.05C691.861 1347.61 692.878 1349.9 693.683 1351.94L684.098 1356.2C683.293 1354.02 682.299 1351.56 681.116 1348.81C679.98 1346.07 678.726 1343.27 677.353 1340.43C676.028 1337.59 674.655 1334.92 673.235 1332.41C671.862 1329.86 670.537 1327.73 669.259 1326.02L678.134 1322.4ZM638.232 1342.78C639.841 1342.68 641.782 1342.57 644.054 1342.42C646.373 1342.23 648.858 1342.02 651.509 1341.78C654.16 1341.5 656.858 1341.22 659.603 1340.93C662.396 1340.65 665.117 1340.36 667.768 1340.08C670.466 1339.75 672.975 1339.44 675.294 1339.16C677.613 1338.87 679.578 1338.61 681.187 1338.38L683.317 1347.46C681.566 1347.7 679.459 1347.96 676.998 1348.24C674.584 1348.53 671.981 1348.84 669.188 1349.17C666.395 1349.45 663.555 1349.76 660.668 1350.09C657.781 1350.42 654.964 1350.73 652.219 1351.01C649.474 1351.3 646.941 1351.56 644.622 1351.79C642.303 1351.98 640.338 1352.17 638.729 1352.36C637.83 1352.46 636.765 1352.6 635.534 1352.79C634.351 1352.93 633.191 1353.07 632.055 1353.21L630.422 1342.85C631.605 1342.85 632.907 1342.85 634.327 1342.85C635.794 1342.85 637.096 1342.83 638.232 1342.78Z" fill="black"/>
<path d="M595.632 1294.99C595.49 1296.51 595.372 1297.74 595.277 1298.68C595.182 1299.58 595.135 1300.53 595.135 1301.52C595.135 1302.14 595.135 1303.09 595.135 1304.36C595.135 1305.64 595.135 1306.97 595.135 1308.34C595.135 1309.71 595.135 1310.85 595.135 1311.75H585.266C585.266 1310.75 585.266 1309.57 585.266 1308.2C585.266 1306.83 585.266 1305.52 585.266 1304.29C585.266 1303.06 585.266 1302.14 585.266 1301.52C585.266 1300.53 585.219 1299.58 585.124 1298.68C585.077 1297.74 584.935 1296.51 584.698 1294.99H595.632ZM619.559 1309.97C619.275 1310.73 618.991 1311.7 618.707 1312.88C618.47 1314.02 618.281 1314.94 618.139 1315.65C617.855 1317.31 617.5 1318.99 617.074 1320.69C616.695 1322.4 616.222 1324.1 615.654 1325.81C615.133 1327.51 614.518 1329.19 613.808 1330.85C613.145 1332.5 612.388 1334.14 611.536 1335.75C609.643 1339.2 607.229 1342.35 604.294 1345.19C601.407 1348.03 598.117 1350.44 594.425 1352.43C590.733 1354.37 586.781 1355.91 582.568 1357.05L575.184 1348.53C576.793 1348.24 578.497 1347.86 580.296 1347.39C582.095 1346.87 583.728 1346.33 585.195 1345.76C587.183 1345 589.147 1344.05 591.088 1342.92C593.076 1341.73 594.946 1340.36 596.697 1338.8C598.448 1337.24 599.987 1335.51 601.312 1333.62C602.495 1331.86 603.513 1330 604.365 1328.01C605.217 1325.97 605.903 1323.89 606.424 1321.76C606.945 1319.58 607.347 1317.45 607.631 1315.37H572.415C572.415 1315.98 572.415 1316.77 572.415 1317.71C572.415 1318.61 572.415 1319.61 572.415 1320.69C572.415 1321.74 572.415 1322.71 572.415 1323.61C572.415 1324.46 572.415 1325.17 572.415 1325.74C572.415 1326.54 572.439 1327.44 572.486 1328.43C572.533 1329.43 572.581 1330.28 572.628 1330.99H562.83C562.925 1330.09 562.996 1329.12 563.043 1328.08C563.138 1326.99 563.185 1325.97 563.185 1325.03C563.185 1324.46 563.185 1323.63 563.185 1322.54C563.185 1321.45 563.185 1320.29 563.185 1319.06C563.185 1317.78 563.185 1316.58 563.185 1315.44C563.185 1314.3 563.185 1313.4 563.185 1312.74C563.185 1311.94 563.161 1310.94 563.114 1309.76C563.067 1308.53 562.972 1307.49 562.83 1306.64C564.061 1306.78 565.244 1306.87 566.38 1306.92C567.516 1306.97 568.747 1306.99 570.072 1306.99H607.489C608.956 1306.99 610.14 1306.92 611.039 1306.78C611.986 1306.59 612.767 1306.4 613.382 1306.21L619.559 1309.97Z" fill="black"/>
<path d="M531.094 1326.02C531.094 1320.95 531.733 1316.31 533.011 1312.1C534.289 1307.89 535.993 1304.1 538.123 1300.74C540.253 1297.38 542.572 1294.45 545.081 1291.94L551.826 1294.92C549.459 1297.43 547.305 1300.24 545.365 1303.37C543.471 1306.45 541.957 1309.85 540.821 1313.59C539.685 1317.33 539.117 1321.47 539.117 1326.02C539.117 1330.51 539.685 1334.66 540.821 1338.44C541.957 1342.18 543.471 1345.59 545.365 1348.67C547.305 1351.74 549.459 1354.56 551.826 1357.12L545.081 1360.1C542.572 1357.59 540.253 1354.65 538.123 1351.29C535.993 1347.93 534.289 1344.15 533.011 1339.93C531.733 1335.72 531.094 1331.08 531.094 1326.02Z" fill="black"/>
<path d="M459.156 1354.07H459.085C446.376 1354 439.631 1345.12 439.631 1332.7V1297.06C439.631 1296.56 439.986 1296.2 440.412 1296.2H446.234C446.731 1296.2 447.015 1296.49 447.015 1297.06V1332.56C447.015 1341.86 451.133 1346.54 459.156 1346.54C467.179 1346.54 471.297 1341.86 471.297 1332.56V1297.06C471.297 1296.56 471.581 1296.2 472.078 1296.2H477.9C478.326 1296.2 478.681 1296.56 478.681 1297.06V1332.7C478.681 1345.12 471.723 1354.07 459.227 1354.07H459.156Z" fill="black"/>
<path d="M415.459 1295.7C415.601 1295.35 415.885 1295.13 416.24 1295.13H419.222C419.648 1295.13 419.932 1295.27 420.003 1295.7L430.724 1351.93C430.866 1352.57 430.511 1353 430.014 1353H423.908C423.482 1353 423.127 1352.78 423.056 1352.36L416.169 1313.73L401.543 1353.49C401.401 1353.85 401.117 1354.06 400.691 1354.06H398.206C397.78 1354.06 397.496 1353.85 397.354 1353.49L383.012 1313.73L375.841 1352.36C375.77 1352.71 375.486 1353 374.989 1353H369.096C368.528 1353 368.102 1352.64 368.244 1351.93L379.107 1295.77C379.249 1295.35 379.533 1295.13 379.959 1295.13H382.941C383.367 1295.13 383.58 1295.35 383.722 1295.7L399.484 1338.94L415.459 1295.7Z" fill="black"/>
<path d="M339.83 1354.07H339.759C327.05 1354 320.305 1345.12 320.305 1332.7V1297.06C320.305 1296.56 320.66 1296.2 321.086 1296.2H326.908C327.405 1296.2 327.689 1296.49 327.689 1297.06V1332.56C327.689 1341.86 331.807 1346.54 339.83 1346.54C347.853 1346.54 351.971 1341.86 351.971 1332.56V1297.06C351.971 1296.56 352.255 1296.2 352.752 1296.2H358.574C359 1296.2 359.355 1296.56 359.355 1297.06V1332.7C359.355 1345.12 352.397 1354.07 339.901 1354.07H339.83Z" fill="black"/>
<path d="M778.35 1186.35C778.302 1186.73 778.231 1187.32 778.137 1188.13C778.042 1188.88 777.947 1189.66 777.853 1190.47C777.805 1191.23 777.758 1191.91 777.711 1192.53C777.616 1193.9 777.521 1195.42 777.427 1197.07C777.379 1198.68 777.332 1200.36 777.285 1202.11C777.237 1203.82 777.19 1205.55 777.143 1207.3C777.143 1209.05 777.143 1210.75 777.143 1212.41C777.143 1214.35 777.166 1216.5 777.214 1218.87C777.261 1221.19 777.308 1223.51 777.355 1225.83C777.45 1228.1 777.498 1230.18 777.498 1232.08C777.545 1233.97 777.569 1235.44 777.569 1236.48C777.569 1239.41 777.237 1241.68 776.575 1243.29C775.959 1244.9 775.06 1246.02 773.877 1246.63C772.693 1247.29 771.321 1247.62 769.759 1247.62C768.055 1247.62 766.232 1247.27 764.292 1246.56C762.351 1245.9 760.529 1244.95 758.825 1243.72C757.168 1242.49 755.795 1241.07 754.707 1239.46C753.665 1237.8 753.145 1236.03 753.145 1234.13C753.145 1231.86 753.997 1229.61 755.701 1227.39C757.452 1225.12 759.748 1223.03 762.588 1221.14C765.475 1219.25 768.575 1217.73 771.889 1216.6C775.06 1215.41 778.326 1214.56 781.687 1214.04C785.047 1213.47 788.077 1213.19 790.775 1213.19C794.419 1213.19 797.709 1213.8 800.644 1215.04C803.578 1216.22 805.921 1217.97 807.673 1220.29C809.424 1222.61 810.3 1225.4 810.3 1228.67C810.3 1231.41 809.779 1233.95 808.738 1236.26C807.696 1238.58 806.016 1240.6 803.697 1242.3C801.425 1243.96 798.395 1245.26 794.609 1246.2C792.999 1246.54 791.39 1246.77 789.781 1246.91C788.219 1247.1 786.728 1247.25 785.308 1247.34L782.042 1238.18C783.651 1238.18 785.189 1238.16 786.657 1238.11C788.171 1238.02 789.544 1237.87 790.775 1237.68C792.715 1237.31 794.467 1236.74 796.029 1235.98C797.591 1235.22 798.821 1234.23 799.721 1233C800.62 1231.77 801.07 1230.3 801.07 1228.6C801.07 1226.99 800.62 1225.61 799.721 1224.48C798.869 1223.34 797.662 1222.47 796.1 1221.85C794.538 1221.24 792.715 1220.93 790.633 1220.93C787.651 1220.93 784.621 1221.24 781.545 1221.85C778.515 1222.47 775.604 1223.32 772.812 1224.41C770.729 1225.21 768.859 1226.16 767.203 1227.25C765.546 1228.29 764.244 1229.38 763.298 1230.51C762.351 1231.65 761.878 1232.74 761.878 1233.78C761.878 1234.35 762.043 1234.89 762.375 1235.41C762.753 1235.89 763.227 1236.31 763.795 1236.69C764.363 1237.07 764.931 1237.38 765.499 1237.61C766.114 1237.8 766.635 1237.9 767.061 1237.9C767.723 1237.9 768.268 1237.71 768.694 1237.33C769.12 1236.9 769.333 1236.1 769.333 1234.92C769.333 1233.64 769.285 1231.82 769.191 1229.45C769.143 1227.03 769.072 1224.36 768.978 1221.43C768.93 1218.49 768.907 1215.58 768.907 1212.69C768.907 1210.7 768.907 1208.69 768.907 1206.66C768.954 1204.62 768.978 1202.68 768.978 1200.84C768.978 1198.99 768.978 1197.36 768.978 1195.94C769.025 1194.52 769.049 1193.4 769.049 1192.6C769.049 1192.08 769.025 1191.42 768.978 1190.61C768.93 1189.81 768.859 1189 768.764 1188.2C768.717 1187.35 768.646 1186.73 768.552 1186.35H778.35ZM798.585 1194.02C800.383 1194.87 802.395 1195.91 804.62 1197.14C806.892 1198.37 809.045 1199.6 811.081 1200.84C813.163 1202.02 814.82 1203.08 816.051 1204.03L811.791 1211.27C810.891 1210.52 809.708 1209.66 808.241 1208.72C806.821 1207.77 805.259 1206.8 803.555 1205.81C801.898 1204.81 800.289 1203.89 798.727 1203.04C797.165 1202.14 795.816 1201.43 794.68 1200.91L798.585 1194.02ZM755.062 1197.92C757.144 1198.16 758.967 1198.33 760.529 1198.42C762.138 1198.47 763.582 1198.49 764.86 1198.49C766.706 1198.49 768.741 1198.42 770.966 1198.28C773.19 1198.09 775.462 1197.85 777.782 1197.57C780.101 1197.24 782.349 1196.86 784.527 1196.43C786.751 1196.01 788.763 1195.53 790.562 1195.01L790.775 1203.82C788.787 1204.29 786.633 1204.72 784.314 1205.1C781.994 1205.43 779.651 1205.73 777.285 1206.02C774.965 1206.3 772.741 1206.52 770.611 1206.66C768.528 1206.8 766.706 1206.87 765.144 1206.87C762.777 1206.87 760.836 1206.85 759.322 1206.8C757.807 1206.75 756.434 1206.66 755.204 1206.52L755.062 1197.92Z" fill="black"/>
<path d="M709.195 1187.91C708.958 1188.81 708.722 1189.8 708.485 1190.89C708.296 1191.93 708.106 1192.9 707.917 1193.8C707.728 1194.84 707.491 1196.03 707.207 1197.35C706.923 1198.63 706.639 1199.93 706.355 1201.26C706.118 1202.53 705.858 1203.79 705.574 1205.02C705.101 1207.06 704.509 1209.42 703.799 1212.12C703.089 1214.82 702.261 1217.73 701.314 1220.85C700.367 1223.93 699.302 1227.03 698.119 1230.15C696.936 1233.28 695.681 1236.33 694.356 1239.31C693.031 1242.25 691.611 1244.9 690.096 1247.26L680.866 1243.57C682.523 1241.35 684.061 1238.86 685.481 1236.12C686.948 1233.33 688.274 1230.46 689.457 1227.53C690.64 1224.59 691.682 1221.7 692.581 1218.86C693.528 1216.02 694.332 1213.37 694.995 1210.91C695.658 1208.45 696.178 1206.35 696.557 1204.59C697.22 1201.38 697.74 1198.27 698.119 1195.29C698.498 1192.31 698.663 1189.49 698.616 1186.84L709.195 1187.91ZM733.619 1194.58C734.755 1196.1 735.915 1198.01 737.098 1200.33C738.329 1202.61 739.512 1205.02 740.648 1207.58C741.831 1210.13 742.896 1212.59 743.843 1214.96C744.837 1217.33 745.594 1219.34 746.115 1220.99L737.098 1225.18C736.625 1223.2 735.962 1220.99 735.11 1218.58C734.305 1216.12 733.359 1213.63 732.27 1211.13C731.229 1208.57 730.093 1206.16 728.862 1203.88C727.679 1201.61 726.448 1199.72 725.17 1198.2L733.619 1194.58ZM680.369 1202.46C681.647 1202.56 682.901 1202.61 684.132 1202.61C685.363 1202.56 686.641 1202.51 687.966 1202.46C689.102 1202.42 690.498 1202.35 692.155 1202.25C693.859 1202.11 695.634 1201.97 697.48 1201.82C699.373 1201.68 701.267 1201.54 703.16 1201.4C705.053 1201.21 706.805 1201.07 708.414 1200.97C710.023 1200.88 711.349 1200.83 712.39 1200.83C714.899 1200.83 717.1 1201.26 718.993 1202.11C720.934 1202.91 722.448 1204.31 723.537 1206.3C724.673 1208.29 725.241 1210.98 725.241 1214.39C725.241 1217.18 725.099 1220.21 724.815 1223.48C724.578 1226.75 724.176 1229.87 723.608 1232.85C723.04 1235.83 722.235 1238.37 721.194 1240.45C720.058 1242.91 718.496 1244.61 716.508 1245.56C714.567 1246.51 712.248 1246.98 709.55 1246.98C708.177 1246.98 706.71 1246.86 705.148 1246.63C703.633 1246.44 702.261 1246.22 701.03 1245.99L699.468 1236.61C700.415 1236.85 701.432 1237.09 702.521 1237.32C703.657 1237.56 704.722 1237.75 705.716 1237.89C706.757 1238.03 707.586 1238.11 708.201 1238.11C709.384 1238.11 710.426 1237.89 711.325 1237.47C712.224 1236.99 712.958 1236.19 713.526 1235.05C714.189 1233.68 714.709 1231.91 715.088 1229.73C715.514 1227.55 715.822 1225.21 716.011 1222.7C716.248 1220.14 716.366 1217.71 716.366 1215.39C716.366 1213.49 716.106 1212.1 715.585 1211.2C715.064 1210.3 714.283 1209.71 713.242 1209.42C712.248 1209.09 710.994 1208.92 709.479 1208.92C708.438 1208.92 706.97 1209.02 705.077 1209.21C703.231 1209.35 701.267 1209.54 699.184 1209.78C697.101 1209.97 695.137 1210.18 693.291 1210.42C691.492 1210.65 690.096 1210.82 689.102 1210.91C688.108 1211.1 686.806 1211.32 685.197 1211.55C683.635 1211.74 682.31 1211.93 681.221 1212.12L680.369 1202.46Z" fill="black"/>
<path d="M639.048 1187.34C638.764 1188.29 638.48 1189.45 638.196 1190.82C637.912 1192.2 637.699 1193.26 637.557 1194.02C637.226 1195.63 636.8 1197.59 636.279 1199.91C635.806 1202.23 635.261 1204.69 634.646 1207.3C634.078 1209.9 633.486 1212.38 632.871 1214.75C632.256 1217.26 631.498 1219.98 630.599 1222.92C629.7 1225.8 628.729 1228.76 627.688 1231.79C626.694 1234.77 625.676 1237.64 624.635 1240.38C623.594 1243.08 622.576 1245.49 621.582 1247.62L611.713 1244.29C612.754 1242.49 613.867 1240.31 615.05 1237.75C616.233 1235.15 617.369 1232.36 618.458 1229.38C619.594 1226.39 620.635 1223.44 621.582 1220.5C622.529 1217.57 623.333 1214.84 623.996 1212.34C624.469 1210.68 624.919 1208.98 625.345 1207.22C625.771 1205.47 626.15 1203.77 626.481 1202.11C626.812 1200.46 627.096 1198.92 627.333 1197.5C627.617 1196.03 627.83 1194.75 627.972 1193.66C628.114 1192.34 628.209 1191.01 628.256 1189.69C628.303 1188.36 628.28 1187.3 628.185 1186.49L639.048 1187.34ZM620.943 1197.92C623.83 1197.92 626.836 1197.78 629.96 1197.5C633.084 1197.21 636.232 1196.81 639.403 1196.29C642.574 1195.77 645.722 1195.15 648.846 1194.44V1203.32C645.911 1203.98 642.787 1204.55 639.474 1205.02C636.161 1205.5 632.895 1205.88 629.676 1206.16C626.457 1206.4 623.499 1206.51 620.801 1206.51C619.097 1206.51 617.559 1206.49 616.186 1206.44C614.813 1206.35 613.488 1206.28 612.21 1206.23L611.997 1197.36C613.843 1197.54 615.429 1197.69 616.754 1197.78C618.079 1197.88 619.476 1197.92 620.943 1197.92ZM643.237 1208.79C645.225 1208.6 647.426 1208.43 649.84 1208.29C652.254 1208.15 654.597 1208.08 656.869 1208.08C658.904 1208.08 660.963 1208.12 663.046 1208.22C665.176 1208.31 667.282 1208.48 669.365 1208.72L669.152 1217.24C667.401 1217 665.46 1216.81 663.33 1216.67C661.247 1216.48 659.117 1216.38 656.94 1216.38C654.526 1216.38 652.183 1216.45 649.911 1216.6C647.686 1216.69 645.462 1216.88 643.237 1217.16V1208.79ZM647.071 1226.68C646.787 1227.67 646.55 1228.71 646.361 1229.8C646.172 1230.84 646.077 1231.77 646.077 1232.57C646.077 1233.33 646.243 1234.04 646.574 1234.7C646.905 1235.36 647.426 1235.96 648.136 1236.48C648.846 1236.95 649.816 1237.33 651.047 1237.61C652.325 1237.9 653.911 1238.04 655.804 1238.04C658.218 1238.04 660.632 1237.92 663.046 1237.68C665.507 1237.4 668.016 1237.02 670.572 1236.55L670.217 1245.64C668.229 1245.87 666.028 1246.08 663.614 1246.27C661.2 1246.51 658.573 1246.63 655.733 1246.63C649.769 1246.63 645.201 1245.66 642.03 1243.72C638.906 1241.73 637.344 1238.94 637.344 1235.34C637.344 1233.73 637.486 1232.1 637.77 1230.44C638.054 1228.78 638.338 1227.25 638.622 1225.83L647.071 1226.68Z" fill="black"/>
<path d="M581.679 1192.17V1196.93H590.341V1192.17H581.679ZM565.278 1192.17V1196.93H573.869V1192.17H565.278ZM549.232 1192.17V1196.93H557.539V1192.17H549.232ZM541.067 1186.06H598.932V1203.03H541.067V1186.06ZM549.019 1227.6H556.758V1250.39H549.019V1227.6ZM583.809 1215.39H591.264V1244.35H583.809V1215.39ZM557.681 1219.79L563.645 1217.66C564.734 1219.65 565.775 1221.82 566.769 1224.19C567.763 1226.56 568.449 1228.62 568.828 1230.37L562.509 1232.78C562.225 1231.08 561.61 1229.02 560.663 1226.6C559.764 1224.14 558.77 1221.87 557.681 1219.79ZM537.943 1212.9L542.274 1207.72C543.599 1208.57 544.972 1209.54 546.392 1210.63C547.859 1211.67 549.232 1212.73 550.51 1213.82C551.835 1214.86 552.877 1215.86 553.634 1216.81L549.019 1222.63C548.309 1221.68 547.339 1220.64 546.108 1219.5C544.877 1218.32 543.528 1217.16 542.061 1216.02C540.641 1214.84 539.268 1213.8 537.943 1212.9ZM557.113 1234.56L563.29 1232.35C564.331 1234.11 565.325 1236.09 566.272 1238.32C567.219 1240.5 567.881 1242.34 568.26 1243.86L561.728 1246.41C561.397 1244.85 560.781 1242.96 559.882 1240.73C559.03 1238.51 558.107 1236.45 557.113 1234.56ZM549.658 1201.26L556.474 1204.31C555.054 1206.25 553.563 1208.19 552.001 1210.13C550.486 1212.07 549.09 1213.73 547.812 1215.1L542.274 1212.4C543.126 1211.41 544.002 1210.27 544.901 1209C545.848 1207.72 546.723 1206.39 547.528 1205.02C548.38 1203.65 549.09 1202.39 549.658 1201.26ZM559.101 1206.87L565.704 1210.2C563.953 1212.33 562.036 1214.51 559.953 1216.73C557.87 1218.96 555.788 1221.09 553.705 1223.12C551.67 1225.11 549.729 1226.89 547.883 1228.45L542.558 1225.4C544.404 1223.79 546.345 1221.92 548.38 1219.79C550.415 1217.66 552.38 1215.48 554.273 1213.26C556.166 1210.98 557.776 1208.85 559.101 1206.87ZM537.304 1224.12C540.759 1224.07 544.854 1224 549.587 1223.91C554.32 1223.81 559.148 1223.69 564.071 1223.55L563.929 1230.01C559.29 1230.25 554.675 1230.46 550.084 1230.65C545.54 1230.84 541.446 1231.01 537.801 1231.15L537.304 1224.12ZM541.351 1232.64L548.38 1234.2C547.765 1236.85 546.913 1239.48 545.824 1242.08C544.783 1244.68 543.694 1246.89 542.558 1248.68C542.085 1248.35 541.446 1247.95 540.641 1247.48C539.884 1247.05 539.103 1246.63 538.298 1246.2C537.493 1245.82 536.783 1245.51 536.168 1245.28C537.351 1243.67 538.369 1241.73 539.221 1239.45C540.12 1237.18 540.83 1234.91 541.351 1232.64ZM573.869 1202.75L581.395 1204.59C580.022 1208.24 578.247 1211.74 576.07 1215.1C573.94 1218.41 571.692 1221.23 569.325 1223.55C568.852 1223.08 568.236 1222.56 567.479 1221.99C566.722 1221.37 565.941 1220.78 565.136 1220.21C564.331 1219.6 563.645 1219.1 563.077 1218.72C565.396 1216.78 567.479 1214.39 569.325 1211.55C571.218 1208.71 572.733 1205.78 573.869 1202.75ZM587.146 1203.46L595.027 1205.3C593.986 1207.34 592.897 1209.37 591.761 1211.41C590.625 1213.4 589.607 1215.13 588.708 1216.59L582.531 1214.75C583.383 1213.14 584.235 1211.29 585.087 1209.21C585.939 1207.08 586.625 1205.16 587.146 1203.46ZM577.774 1210.84H601.772V1217.59H577.774V1250.39H570.035V1214.82L573.94 1210.84H577.774ZM574.082 1221.42H599.855V1227.46H574.082V1221.42ZM574.082 1231.29H599.855V1237.32H574.082V1231.29ZM573.656 1241.23H602.766V1248.05H573.656V1241.23Z" fill="black"/>
<path d="M467.157 1187.98H499.462V1194.09H467.157V1187.98ZM478.02 1226.46C479.44 1229.68 481.191 1232.28 483.274 1234.27C485.357 1236.21 487.7 1237.68 490.303 1238.67C492.906 1239.62 495.746 1240.26 498.823 1240.59C501.9 1240.92 505.189 1241.09 508.692 1241.09C509.591 1241.09 510.822 1241.09 512.384 1241.09C513.993 1241.09 515.745 1241.09 517.638 1241.09C519.579 1241.09 521.519 1241.09 523.46 1241.09C525.448 1241.04 527.27 1241.02 528.927 1241.02C530.631 1240.97 532.027 1240.92 533.116 1240.87C532.69 1241.49 532.264 1242.32 531.838 1243.36C531.412 1244.35 531.033 1245.37 530.702 1246.41C530.371 1247.45 530.11 1248.4 529.921 1249.25H525.732H508.621C504.314 1249.25 500.314 1248.99 496.622 1248.47C492.93 1248 489.569 1247.03 486.54 1245.56C483.558 1244.14 480.884 1242.08 478.517 1239.38C476.198 1236.64 474.21 1233.02 472.553 1228.52L478.02 1226.46ZM477.594 1216.73L484.836 1218.79C483.179 1222.3 481.049 1225.61 478.446 1228.73C475.843 1231.81 473.097 1234.37 470.21 1236.4C469.879 1235.98 469.382 1235.41 468.719 1234.7C468.056 1233.94 467.37 1233.21 466.66 1232.5C465.997 1231.79 465.406 1231.22 464.885 1230.79C467.536 1229.18 469.997 1227.15 472.269 1224.69C474.541 1222.18 476.316 1219.53 477.594 1216.73ZM471.275 1194.65L476.6 1195.65C475.985 1198.35 475.062 1200.9 473.831 1203.32C472.6 1205.68 471.18 1207.67 469.571 1209.28C469.05 1208.85 468.317 1208.33 467.37 1207.72C466.471 1207.05 465.666 1206.56 464.956 1206.23C466.565 1204.81 467.891 1203.1 468.932 1201.11C469.973 1199.08 470.754 1196.93 471.275 1194.65ZM477.665 1221.21H491.865V1227.17H474.541L477.665 1221.21ZM489.664 1221.21H491.297L492.646 1220.92L497.545 1223.41C495.983 1228.19 493.782 1232.35 490.942 1235.9C488.149 1239.41 484.907 1242.37 481.215 1244.78C477.57 1247.19 473.665 1249.09 469.5 1250.46C469.216 1249.84 468.79 1249.11 468.222 1248.26C467.654 1247.41 467.062 1246.58 466.447 1245.77C465.832 1244.97 465.264 1244.33 464.743 1243.86C468.672 1242.72 472.293 1241.21 475.606 1239.31C478.967 1237.37 481.854 1235.01 484.268 1232.21C486.682 1229.42 488.481 1226.18 489.664 1222.49V1221.21ZM479.582 1183.65H487.108V1217.73H479.582V1183.65ZM471.559 1202.32L474.896 1198.91C475.701 1199.58 476.505 1200.29 477.31 1201.04C478.115 1201.75 478.73 1202.39 479.156 1202.96L475.677 1206.79C475.251 1206.18 474.636 1205.45 473.831 1204.59C473.026 1203.74 472.269 1202.98 471.559 1202.32ZM490.729 1194.8L495.77 1195.72C495.391 1197.8 494.776 1199.77 493.924 1201.61C493.119 1203.46 492.149 1205.02 491.013 1206.3C490.492 1205.92 489.759 1205.52 488.812 1205.09C487.865 1204.62 487.061 1204.24 486.398 1203.95C487.581 1202.72 488.504 1201.33 489.167 1199.77C489.877 1198.2 490.398 1196.55 490.729 1194.8ZM490.445 1202.18L493.782 1198.56C494.918 1199.32 496.054 1200.14 497.19 1201.04C498.326 1201.94 499.225 1202.72 499.888 1203.39L496.409 1207.58C495.746 1206.87 494.847 1205.99 493.711 1204.95C492.575 1203.86 491.486 1202.94 490.445 1202.18ZM480.86 1203.1L485.972 1205.16C484.694 1207.15 483.132 1209.14 481.286 1211.13C479.44 1213.11 477.476 1214.94 475.393 1216.59C473.31 1218.25 471.228 1219.62 469.145 1220.71C468.624 1219.91 467.914 1219.01 467.015 1218.01C466.163 1216.97 465.382 1216.17 464.672 1215.6C466.66 1214.75 468.672 1213.66 470.707 1212.33C472.79 1210.96 474.707 1209.49 476.458 1207.93C478.257 1206.37 479.724 1204.76 480.86 1203.1ZM481.499 1208.85L485.262 1204.38C486.824 1205.28 488.481 1206.3 490.232 1207.43C492.031 1208.52 493.758 1209.63 495.415 1210.77C497.072 1211.86 498.421 1212.85 499.462 1213.75L495.486 1218.86C494.492 1217.92 493.19 1216.85 491.581 1215.67C489.972 1214.49 488.291 1213.3 486.54 1212.12C484.789 1210.94 483.108 1209.85 481.499 1208.85ZM501.308 1191.81H529.779V1199.34H501.308V1191.81ZM500.172 1207.43H531.128V1215.1H500.172V1207.43ZM511.106 1183.72H519.413V1205.66C519.413 1208.88 519.2 1212.02 518.774 1215.1C518.348 1218.13 517.543 1221.07 516.36 1223.91C515.224 1226.7 513.544 1229.35 511.319 1231.86C509.142 1234.37 506.278 1236.69 502.728 1238.82C502.113 1237.82 501.237 1236.78 500.101 1235.69C498.965 1234.6 497.924 1233.68 496.977 1232.92C500.101 1231.03 502.586 1229.02 504.432 1226.89C506.325 1224.71 507.745 1222.46 508.692 1220.14C509.639 1217.82 510.278 1215.43 510.609 1212.97C510.94 1210.51 511.106 1208.05 511.106 1205.59V1183.72ZM518.916 1210.98C520.052 1215.43 521.803 1219.5 524.17 1223.2C526.537 1226.89 529.495 1229.7 533.045 1231.64C532.43 1232.17 531.743 1232.83 530.986 1233.63C530.229 1234.44 529.519 1235.29 528.856 1236.19C528.241 1237.04 527.72 1237.85 527.294 1238.6C523.318 1236.05 520.076 1232.5 517.567 1227.95C515.058 1223.36 513.094 1218.27 511.674 1212.69L518.916 1210.98Z" fill="black"/>
<path d="M432.154 1213.75C433.526 1218.63 435.467 1222.98 437.976 1226.82C440.484 1230.65 443.679 1233.87 447.561 1236.47C451.489 1239.03 456.246 1240.92 461.832 1242.15C461.169 1242.77 460.459 1243.57 459.702 1244.57C458.992 1245.56 458.282 1246.58 457.572 1247.62C456.909 1248.66 456.365 1249.61 455.939 1250.46C449.88 1248.76 444.792 1246.34 440.674 1243.22C436.556 1240.09 433.148 1236.21 430.45 1231.57C427.799 1226.94 425.598 1221.56 423.847 1215.46L432.154 1213.75ZM398.5 1210.2H457.572V1218.94H398.5V1210.2ZM396.299 1188.41H459.489V1197.14H396.299V1188.41ZM422.711 1190.75H431.799V1208.22C431.799 1211.2 431.586 1214.32 431.16 1217.59C430.734 1220.81 429.905 1224 428.675 1227.17C427.444 1230.3 425.645 1233.3 423.279 1236.19C420.912 1239.08 417.788 1241.73 413.907 1244.14C410.073 1246.6 405.316 1248.73 399.636 1250.53C399.304 1249.77 398.831 1248.92 398.216 1247.98C397.6 1247.03 396.938 1246.08 396.228 1245.14C395.565 1244.24 394.926 1243.48 394.311 1242.86C399.375 1241.4 403.612 1239.64 407.02 1237.61C410.475 1235.53 413.244 1233.28 415.327 1230.86C417.409 1228.45 418.971 1225.97 420.013 1223.41C421.054 1220.85 421.764 1218.27 422.143 1215.67C422.521 1213.02 422.711 1210.51 422.711 1208.14V1190.75Z" fill="black"/>
<path d="M338.504 1201.33L344.184 1196.57C345.652 1197.24 347.19 1198.02 348.799 1198.92C350.409 1199.81 351.923 1200.74 353.343 1201.68C354.811 1202.63 355.994 1203.53 356.893 1204.38L350.929 1209.64C350.077 1208.78 348.941 1207.86 347.521 1206.87C346.101 1205.87 344.61 1204.88 343.048 1203.89C341.486 1202.89 339.972 1202.04 338.504 1201.33ZM370.525 1189.05H372.087L373.507 1188.62L378.974 1191.89C376.702 1196.15 373.791 1199.96 370.241 1203.32C366.691 1206.63 362.692 1209.52 358.242 1211.98C353.84 1214.44 349.154 1216.55 344.184 1218.3C339.214 1220 334.173 1221.38 329.061 1222.42C328.683 1221.33 328.115 1220.07 327.357 1218.65C326.647 1217.19 325.914 1216 325.156 1215.1C329.937 1214.35 334.647 1213.26 339.285 1211.84C343.924 1210.37 348.279 1208.6 352.349 1206.51C356.42 1204.43 360.017 1202.04 363.141 1199.34C366.265 1196.6 368.727 1193.57 370.525 1190.25V1189.05ZM348.018 1189.05H372.442V1196H348.018V1189.05ZM351.994 1183.44L361.295 1185.43C357.651 1189.54 353.391 1193.28 348.515 1196.64C343.687 1200 337.984 1203.01 331.404 1205.66C330.978 1205 330.434 1204.26 329.771 1203.46C329.156 1202.65 328.47 1201.87 327.712 1201.12C327.002 1200.36 326.34 1199.77 325.724 1199.34C329.89 1198.02 333.653 1196.48 337.013 1194.73C340.374 1192.98 343.309 1191.15 345.817 1189.26C348.326 1187.32 350.385 1185.38 351.994 1183.44ZM348.16 1228.24L354.337 1223.41C355.805 1224.22 357.343 1225.11 358.952 1226.11C360.562 1227.1 362.1 1228.14 363.567 1229.23C365.035 1230.27 366.218 1231.24 367.117 1232.14L360.514 1237.4C359.71 1236.5 358.597 1235.5 357.177 1234.42C355.805 1233.33 354.314 1232.24 352.704 1231.15C351.142 1230.06 349.628 1229.09 348.16 1228.24ZM379.471 1214.89H381.175L382.666 1214.54L388.275 1217.45C386.098 1222.75 383.234 1227.29 379.684 1231.08C376.182 1234.87 372.087 1238.04 367.401 1240.59C362.763 1243.15 357.674 1245.21 352.136 1246.77C346.646 1248.33 340.847 1249.54 334.741 1250.39C334.41 1249.25 333.889 1247.93 333.179 1246.41C332.469 1244.9 331.759 1243.65 331.049 1242.65C336.682 1242.08 342.054 1241.16 347.166 1239.88C352.278 1238.6 356.964 1236.92 361.224 1234.84C365.484 1232.71 369.153 1230.11 372.229 1227.03C375.353 1223.91 377.767 1220.26 379.471 1216.1V1214.89ZM358.526 1214.89H381.743V1221.99H358.526V1214.89ZM363.496 1208L372.797 1210.13C368.869 1214.82 364.088 1219.06 358.455 1222.84C352.87 1226.58 346.125 1229.87 338.22 1232.71C337.936 1232 337.487 1231.24 336.871 1230.44C336.256 1229.59 335.617 1228.76 334.954 1227.95C334.292 1227.15 333.653 1226.51 333.037 1226.04C338.007 1224.52 342.433 1222.82 346.314 1220.93C350.243 1218.98 353.627 1216.93 356.467 1214.75C359.355 1212.52 361.698 1210.28 363.496 1208Z" fill="black"/>
<path d="M274.462 1191.25H318.766V1197.92H274.462V1191.25ZM273.042 1226.89H319.405V1233.71H273.042V1226.89ZM252.523 1201.54H275.74V1209.28H252.523V1201.54ZM260.262 1183.65H268.64V1250.32H260.262V1183.65ZM292.496 1183.65H300.59V1220.57H292.496V1183.65ZM301.016 1222.27H309.11V1242.65C309.11 1244.45 308.897 1245.85 308.471 1246.84C308.045 1247.88 307.17 1248.69 305.844 1249.25C304.566 1249.78 303.028 1250.08 301.229 1250.18C299.478 1250.32 297.395 1250.39 294.981 1250.39C294.839 1249.35 294.532 1248.17 294.058 1246.84C293.632 1245.56 293.183 1244.43 292.709 1243.43C294.129 1243.48 295.526 1243.5 296.898 1243.5C298.318 1243.5 299.289 1243.5 299.809 1243.5C300.283 1243.46 300.59 1243.36 300.732 1243.22C300.922 1243.08 301.016 1242.82 301.016 1242.44V1222.27ZM279.361 1236.62L285.041 1232.57C286.651 1233.8 288.307 1235.27 290.011 1236.97C291.763 1238.63 293.088 1240.14 293.987 1241.52L287.881 1246.06C287.361 1245.16 286.627 1244.17 285.68 1243.08C284.734 1241.99 283.692 1240.88 282.556 1239.74C281.468 1238.56 280.403 1237.52 279.361 1236.62ZM302.933 1187.84L306.696 1183.44C308.258 1184.1 309.939 1184.95 311.737 1185.99C313.583 1187.03 315.027 1187.96 316.068 1188.76L312.163 1193.66C311.169 1192.81 309.773 1191.84 307.974 1190.75C306.176 1189.61 304.495 1188.64 302.933 1187.84ZM285.325 1214.75V1218.09H308.329V1214.75H285.325ZM285.325 1206.3V1209.57H308.329V1206.3H285.325ZM277.728 1200.83H316.21V1223.55H277.728V1200.83Z" fill="black"/>
</svg>
