<svg width="1080" height="1920" viewBox="0 0 1080 1920" fill="none" xmlns="http://www.w3.org/2000/svg">
<path d="M1080 1920L1080 0L0 0L0 1920H1080Z" fill="#A5D4AD"/>
<path d="M1020 983.72V95C1020 75.67 1004.33 60 985 60H95.58C75.93 60 60 75.93 60 95.58V983.71C60 984.03 60.25 984.28 60.57 984.28C80.03 984.59 95.71 1000.46 95.71 1019.99C95.71 1039.52 80.03 1055.39 60.57 1055.7C60.25 1055.7 60 1055.96 60 1056.27V1824.99C60 1844.32 75.67 1859.99 95 1859.99H985C1004.33 1859.99 1020 1844.32 1020 1824.99V1056.27C1020 1055.95 1019.75 1055.7 1019.43 1055.7C999.97 1055.39 984.29 1039.52 984.29 1019.99C984.29 1000.46 999.97 984.59 1019.43 984.28C1019.75 984.28 1020 984.02 1020 983.71V983.72Z" fill="white"/>
<path d="M60.57 1055.71C60.25 1055.71 60 1055.97 60 1056.28V1825C60 1844.33 75.67 1860 95 1860H985C1004.33 1860 1020 1844.33 1020 1825V1056.28C1020 1055.96 1019.75 1055.71 1019.43 1055.71C999.97 1055.4 984.29 1039.53 984.29 1020H95.71C95.71 1039.53 80.03 1055.4 60.57 1055.71Z" fill="#E5F2E6"/>
<path d="M121 1020H160.9" stroke="black" stroke-width="6" stroke-miterlimit="10"/>
<path d="M187.51 1020H227.41" stroke="black" stroke-width="6" stroke-miterlimit="10"/>
<path d="M254.02 1020H293.92" stroke="black" stroke-width="6" stroke-miterlimit="10"/>
<path d="M320.52 1020H360.43" stroke="black" stroke-width="6" stroke-miterlimit="10"/>
<path d="M387.029 1020H426.939" stroke="black" stroke-width="6" stroke-miterlimit="10"/>
<path d="M453.539 1020H493.439" stroke="black" stroke-width="6" stroke-miterlimit="10"/>
<path d="M520.051 1020H559.951" stroke="black" stroke-width="6" stroke-miterlimit="10"/>
<path d="M586.561 1020H626.461" stroke="black" stroke-width="6" stroke-miterlimit="10"/>
<path d="M653.061 1020H692.971" stroke="black" stroke-width="6" stroke-miterlimit="10"/>
<path d="M719.57 1020H759.48" stroke="black" stroke-width="6" stroke-miterlimit="10"/>
<path d="M786.08 1020H825.98" stroke="black" stroke-width="6" stroke-miterlimit="10"/>
<path d="M852.59 1020H892.49" stroke="black" stroke-width="6" stroke-miterlimit="10"/>
<path d="M919.1 1020H959" stroke="black" stroke-width="6" stroke-miterlimit="10"/>
<path d="M1020 984.29V95C1020 75.67 1004.33 60 985 60H95C75.67 60 60 75.67 60 95V984.29C79.72 984.29 95.71 1000.28 95.71 1020C95.71 1039.72 79.72 1055.71 60 1055.71V1825C60 1844.33 75.67 1860 95 1860H985C1004.33 1860 1020 1844.33 1020 1825V1055.71C1000.28 1055.71 984.29 1039.72 984.29 1020C984.29 1000.28 1000.28 984.29 1020 984.29Z" stroke="black" stroke-width="6" stroke-miterlimit="10"/>
<path d="M912.649 525.666C908.779 525.666 905.539 522.646 905.319 518.736C900.589 435.626 868.789 358.856 813.369 296.746C810.669 293.716 810.929 289.066 813.959 286.366C816.989 283.666 821.629 283.926 824.339 286.956C881.999 351.576 915.069 431.436 919.999 517.896C920.229 521.946 917.129 525.426 913.079 525.656C912.939 525.656 912.799 525.666 912.659 525.666H912.649Z" fill="black"/>
<path d="M818.849 795.517C817.109 795.517 815.359 794.897 813.959 793.647C810.929 790.947 810.669 786.297 813.369 783.267C868.789 721.157 900.589 644.387 905.319 561.277C905.549 557.227 909.029 554.117 913.079 554.357C917.129 554.587 920.229 558.057 919.999 562.117C915.069 648.587 881.999 728.447 824.339 793.057C822.889 794.687 820.869 795.517 818.849 795.517Z" fill="black"/>
<path d="M167.36 525.666C167.22 525.666 167.08 525.666 166.94 525.656C162.89 525.426 159.79 521.956 160.02 517.896C164.95 431.426 198.02 351.566 255.68 286.956C258.38 283.926 263.03 283.666 266.06 286.366C269.09 289.066 269.35 293.716 266.65 296.746C211.23 358.856 179.43 435.616 174.7 518.736C174.48 522.646 171.24 525.666 167.37 525.666H167.36Z" fill="black"/>
<path d="M261.17 795.517C259.15 795.517 257.13 794.687 255.68 793.057C198.02 728.437 164.95 648.577 160.02 562.117C159.79 558.067 162.89 554.587 166.94 554.357C170.99 554.117 174.47 557.227 174.7 561.277C179.43 644.397 211.23 721.157 266.65 783.267C269.35 786.297 269.09 790.947 266.06 793.647C264.66 794.897 262.91 795.517 261.17 795.517Z" fill="black"/>
<path d="M788.169 268.511C786.429 268.511 784.679 267.891 783.279 266.641C721.169 211.221 644.399 179.421 561.289 174.691C557.239 174.461 554.139 170.991 554.369 166.931C554.599 162.881 558.039 159.791 562.129 160.011C648.599 164.941 728.459 198.011 793.069 255.671C796.099 258.371 796.359 263.021 793.659 266.051C792.209 267.681 790.189 268.511 788.169 268.511Z" fill="black"/>
<path d="M291.85 268.512C289.83 268.512 287.81 267.682 286.36 266.052C283.66 263.022 283.92 258.372 286.95 255.672C351.57 198.012 431.43 164.942 517.89 160.012C521.94 159.782 525.42 162.882 525.65 166.932C525.88 170.982 522.78 174.462 518.73 174.692C435.62 179.422 358.85 211.222 296.74 266.642C295.34 267.892 293.59 268.512 291.85 268.512Z" fill="black"/>
<path d="M561.69 920.006C557.82 920.006 554.58 916.986 554.36 913.076C554.13 909.026 557.23 905.546 561.28 905.316C644.4 900.586 721.16 868.786 783.27 813.366C786.3 810.666 790.95 810.926 793.65 813.956C796.35 816.986 796.09 821.636 793.06 824.336C728.44 881.996 648.58 915.066 562.12 919.996C561.98 919.996 561.84 920.006 561.7 920.006H561.69Z" fill="black"/>
<path d="M518.319 920.006C518.179 920.006 518.04 920.006 517.9 919.996C431.43 915.066 351.569 881.996 286.959 824.336C283.929 821.636 283.669 816.986 286.369 813.956C289.069 810.926 293.719 810.666 296.749 813.366C358.859 868.786 435.629 900.586 518.739 905.316C522.789 905.546 525.889 909.016 525.659 913.076C525.439 916.986 522.199 920.006 518.329 920.006H518.319Z" fill="black"/>
<path d="M875.38 526.189C872.37 526.189 869.85 523.839 869.68 520.799C865.41 445.789 836.71 376.519 786.7 320.459C784.6 318.099 784.8 314.489 787.16 312.389C789.51 310.289 793.13 310.489 795.23 312.849C846.98 370.849 876.68 442.539 881.1 520.149C881.28 523.299 878.87 525.999 875.72 526.179C875.61 526.179 875.5 526.179 875.39 526.179L875.38 526.189Z" fill="black"/>
<path d="M790.96 769.062C789.6 769.062 788.25 768.582 787.16 767.612C784.8 765.512 784.6 761.892 786.7 759.542C836.71 703.492 865.41 634.212 869.68 559.202C869.86 556.052 872.55 553.642 875.71 553.822C878.86 554.002 881.27 556.702 881.09 559.852C876.67 637.472 846.98 709.152 795.22 767.152C794.09 768.422 792.52 769.062 790.95 769.062H790.96Z" fill="black"/>
<path d="M204.63 526.187C204.52 526.187 204.41 526.187 204.3 526.187C201.15 526.007 198.74 523.307 198.92 520.157C203.34 442.537 233.03 370.857 284.79 312.857C286.89 310.497 290.51 310.297 292.86 312.397C295.22 314.497 295.42 318.117 293.32 320.467C243.31 376.517 214.61 445.797 210.34 520.807C210.17 523.847 207.65 526.197 204.64 526.197L204.63 526.187Z" fill="black"/>
<path d="M289.05 769.055C287.48 769.055 285.91 768.405 284.78 767.145C233.03 709.145 203.33 637.455 198.91 559.845C198.73 556.695 201.14 553.995 204.29 553.815C207.45 553.625 210.14 556.045 210.32 559.195C214.59 634.205 243.29 703.485 293.3 759.535C295.4 761.895 295.2 765.505 292.84 767.605C291.75 768.575 290.39 769.055 289.04 769.055H289.05Z" fill="black"/>
<path d="M763.35 294.756C761.99 294.756 760.64 294.276 759.55 293.306C703.5 243.296 634.22 214.596 559.21 210.326C556.06 210.146 553.65 207.446 553.83 204.296C554.01 201.146 556.7 198.736 559.86 198.916C637.48 203.336 709.16 233.026 767.16 284.786C769.52 286.886 769.72 290.506 767.62 292.856C766.49 294.126 764.92 294.766 763.35 294.766V294.756Z" fill="black"/>
<path d="M316.659 294.759C315.089 294.759 313.519 294.109 312.389 292.849C310.289 290.489 310.489 286.879 312.849 284.779C370.849 233.029 442.539 203.329 520.149 198.909C523.299 198.719 525.999 201.139 526.179 204.289C526.359 207.439 523.949 210.139 520.799 210.319C445.789 214.589 376.519 243.289 320.459 293.299C319.369 294.269 318.009 294.749 316.659 294.749V294.759Z" fill="black"/>
<path d="M559.53 881.102C556.52 881.102 554 878.752 553.83 875.712C553.65 872.562 556.06 869.862 559.21 869.682C634.22 865.412 703.49 836.712 759.55 786.702C761.9 784.602 765.52 784.802 767.62 787.162C769.72 789.522 769.52 793.132 767.16 795.232C709.16 846.982 637.47 876.682 559.86 881.102C559.75 881.102 559.64 881.102 559.53 881.102Z" fill="black"/>
<path d="M520.489 881.102C520.379 881.102 520.269 881.102 520.159 881.102C442.539 876.682 370.859 846.992 312.859 795.232C310.499 793.132 310.299 789.512 312.399 787.162C314.499 784.802 318.119 784.602 320.469 786.702C376.519 836.722 445.799 865.412 520.809 869.682C523.959 869.862 526.369 872.562 526.189 875.712C526.019 878.752 523.499 881.102 520.489 881.102Z" fill="black"/>
<path d="M841.849 526.514C839.699 526.514 837.899 524.834 837.779 522.664C833.919 454.914 807.999 392.344 762.829 341.714C761.329 340.034 761.479 337.454 763.159 335.944C764.839 334.444 767.419 334.584 768.929 336.274C815.349 388.294 841.979 452.584 845.939 522.194C846.069 524.444 844.349 526.374 842.089 526.504C842.009 526.504 841.929 526.504 841.849 526.504V526.514Z" fill="black"/>
<path d="M765.869 745.106C764.899 745.106 763.929 744.766 763.149 744.066C761.469 742.566 761.319 739.986 762.819 738.296C807.989 687.666 833.909 625.096 837.769 557.346C837.899 555.096 839.859 553.396 842.079 553.496C844.329 553.626 846.049 555.556 845.929 557.806C841.959 627.416 815.329 691.706 768.919 743.726C768.109 744.626 766.989 745.086 765.869 745.086V745.106Z" fill="black"/>
<path d="M238.17 526.516C238.09 526.516 238.01 526.516 237.93 526.516C235.68 526.386 233.96 524.456 234.08 522.206C238.05 452.596 264.68 388.306 311.09 336.286C312.59 334.606 315.17 334.456 316.86 335.956C318.54 337.456 318.69 340.036 317.19 341.726C272.02 392.356 246.1 454.926 242.24 522.676C242.12 524.846 240.32 526.526 238.17 526.526V526.516Z" fill="black"/>
<path d="M314.139 745.103C313.019 745.103 311.899 744.643 311.089 743.743C264.669 691.723 238.039 627.433 234.079 557.823C233.949 555.573 235.669 553.643 237.929 553.513C240.169 553.403 242.109 555.103 242.239 557.363C246.099 625.113 272.019 687.683 317.189 738.313C318.689 739.993 318.539 742.573 316.859 744.083C316.079 744.773 315.109 745.123 314.139 745.123V745.103Z" fill="black"/>
<path d="M741.018 318.225C740.048 318.225 739.078 317.885 738.298 317.185C687.668 272.015 625.098 246.095 557.348 242.235C555.098 242.105 553.378 240.175 553.498 237.925C553.628 235.675 555.548 233.965 557.808 234.075C627.418 238.045 691.708 264.675 743.738 311.085C745.418 312.585 745.568 315.165 744.068 316.855C743.258 317.755 742.138 318.215 741.018 318.215V318.225Z" fill="black"/>
<path d="M338.998 318.224C337.878 318.224 336.758 317.764 335.948 316.864C334.448 315.184 334.598 312.604 336.278 311.094C388.298 264.674 452.588 238.044 522.198 234.084C524.448 233.964 526.378 235.674 526.508 237.934C526.638 240.184 524.918 242.114 522.658 242.244C454.908 246.104 392.338 272.024 341.708 317.194C340.928 317.884 339.958 318.234 338.988 318.234L338.998 318.224Z" fill="black"/>
<path d="M557.569 845.933C555.419 845.933 553.619 844.253 553.499 842.083C553.369 839.833 555.089 837.903 557.349 837.773C625.099 833.913 687.669 807.993 738.299 762.823C739.979 761.323 742.559 761.473 744.069 763.153C745.569 764.833 745.419 767.413 743.739 768.923C691.719 815.343 627.429 841.973 557.809 845.933C557.729 845.933 557.649 845.933 557.569 845.933Z" fill="black"/>
<path d="M522.438 845.933C522.358 845.933 522.278 845.933 522.198 845.933C452.588 841.963 388.298 815.333 336.278 768.923C334.598 767.423 334.448 764.843 335.948 763.153C337.448 761.473 340.028 761.323 341.718 762.823C392.348 807.993 454.918 833.913 522.668 837.773C524.918 837.903 526.638 839.833 526.518 842.083C526.398 844.253 524.598 845.933 522.448 845.933H522.438Z" fill="black"/>
<path d="M320.65 546.174C320.65 544.604 321.79 543.274 323.34 543.024C324.64 542.814 326.27 542.524 327.98 542.124C332.4 541.084 337.59 539.114 343.41 536.274C349.29 533.404 354.92 529.414 359.17 523.674C366.34 513.974 367.86 501.404 368.19 496.894C368.26 495.974 367.53 495.194 366.6 495.194H317.09C315.33 495.194 313.91 493.764 313.91 492.014V470.694C313.91 468.934 315.34 467.514 317.09 467.514H367.07C367.95 467.514 368.66 466.804 368.66 465.924V447.184C368.66 446.304 367.95 445.594 367.07 445.594H328.62C326.86 445.594 325.44 444.164 325.44 442.414V421.094C325.44 419.334 326.87 417.914 328.62 417.914H428.96C430.72 417.914 432.14 419.344 432.14 421.094V442.414C432.14 444.174 430.71 445.594 428.96 445.594H398.52C397.64 445.594 396.93 446.304 396.93 447.184V465.924C396.93 466.804 397.64 467.514 398.52 467.514H438.58C440.34 467.514 441.76 468.944 441.76 470.694V492.014C441.76 493.774 440.33 495.194 438.58 495.194H398.39C397.54 495.194 396.84 495.864 396.8 496.714C396.57 501.754 395.15 518.444 386.18 532.854C380.73 541.614 373.65 548.264 366.54 553.544C359.41 558.844 352.26 562.934 345.27 565.704C338.24 568.494 332.34 570.444 327.75 571.514C326.66 571.764 325.49 571.994 324.4 572.184C322.45 572.534 320.66 571.034 320.66 569.044V546.164L320.65 546.174Z" fill="black"/>
<path d="M474.55 546.522C474.55 545.062 475.55 543.792 476.96 543.432C485.21 541.362 488.93 540.112 496.84 536.322C496.84 536.322 500.89 534.212 504.93 531.302C517.11 522.542 525.22 510.632 525.22 510.632C534.68 497.282 537.77 474.912 538.49 468.492C538.6 467.552 537.86 466.722 536.91 466.722H500.58C500.35 466.722 500.14 466.842 500.03 467.042L499.88 467.292C494.3 478.112 486.88 487.992 480.45 494.242C474 500.502 468.59 505.052 464.38 507.752L461.78 509.422C460.72 510.102 459.33 509.342 459.33 508.082V479.892C459.33 478.952 459.75 478.062 460.47 477.452C461.12 476.902 461.99 476.132 463.18 475.062C465.94 472.572 469.05 468.512 472.42 462.982C475.76 457.512 479.35 450.212 483.07 441.292C486.45 433.202 488.98 423.092 490.86 412.062C491.12 410.532 492.45 409.422 494 409.422H513.91C515.91 409.422 517.42 411.252 517.04 413.212C516.4 416.522 515.71 420.882 514.85 424.312C513.58 429.392 512.76 432.302 511.24 436.722C510.98 437.472 511.54 438.242 512.33 438.242H591.18C592.94 438.242 594.36 439.672 594.36 441.422V463.512C594.36 465.272 592.93 466.692 591.18 466.692H568.14C567.33 466.692 566.64 467.302 566.56 468.112C565.93 474.012 562.88 497.162 552.39 517.262C538.29 546.002 508.14 566.392 478.34 572.132C476.38 572.512 474.56 571.002 474.56 569.002V546.482L474.55 546.522Z" fill="black"/>
<path d="M675.9 411.035V468.875C675.9 469.755 676.61 470.465 677.49 470.465H764.52C765.4 470.465 766.11 469.755 766.11 468.875V411.035C766.11 410.155 765.4 409.445 764.52 409.445H677.49C676.61 409.445 675.9 410.155 675.9 411.035ZM738.46 452.745H702.3C701.42 452.745 700.71 452.035 700.71 451.155V446.875C700.71 445.995 701.42 445.285 702.3 445.285H738.46C739.34 445.285 740.05 445.995 740.05 446.875V451.155C740.05 452.035 739.34 452.745 738.46 452.745ZM738.46 434.455H702.3C701.42 434.455 700.71 433.745 700.71 432.865V428.755C700.71 427.875 701.42 427.165 702.3 427.165H738.46C739.34 427.165 740.05 427.875 740.05 428.755V432.865C740.05 433.745 739.34 434.455 738.46 434.455Z" fill="black"/>
<path d="M674.23 497.342H728.27C729.15 497.342 729.86 498.052 729.86 498.932V502.842C729.86 503.722 729.15 504.432 728.27 504.432H667.76C666 504.432 664.58 505.862 664.58 507.612V522.862C664.58 524.622 666.01 526.042 667.76 526.042H728.27C729.15 526.042 729.86 526.752 729.86 527.632V545.392C729.86 546.112 729.94 547.982 729.22 548.852C728.39 549.872 727.15 549.672 725.85 549.722C722.54 549.722 719.58 549.702 716.95 549.662C716.55 549.662 716.26 549.292 716.34 548.902C716.6 547.632 716.73 546.312 716.7 544.962C716.5 535.682 708.94 528.082 699.66 527.842C689.58 527.582 681.37 535.852 681.71 545.942C682.02 555.292 689.79 562.812 699.15 562.842C704.04 562.852 708.46 560.862 711.64 557.642C711.98 557.302 712.55 557.432 712.7 557.882C714.16 562.212 715.54 566.342 716.79 570.052C717.23 571.352 718.46 572.222 719.83 572.212C725.73 572.172 730.51 571.962 734.18 571.602C738.31 571.182 742.09 570.152 745.52 568.502C749.18 566.842 751.69 564.422 753.05 561.232C754.41 558.042 755.09 553.552 755.09 547.762V527.622C755.09 526.742 755.8 526.032 756.68 526.032H762.91C764.67 526.032 766.09 524.602 766.09 522.852V507.602C766.09 505.842 764.66 504.422 762.91 504.422H756.68C755.8 504.422 755.09 503.712 755.09 502.832V498.922C755.09 498.042 755.8 497.332 756.68 497.332H762.91C764.67 497.332 766.09 495.902 766.09 494.152V479.602C766.09 477.842 764.66 476.422 762.91 476.422H674.21C672.45 476.422 671.03 477.852 671.03 479.602V494.152C671.03 495.912 672.46 497.332 674.21 497.332L674.23 497.342Z" fill="black"/>
<path d="M668.83 409.445H650.26C649.4 409.445 648.58 409.795 647.98 410.405C635.23 423.355 618.29 434.575 612.13 438.485C610.78 439.335 610.28 441.065 610.95 442.505L620.7 463.575C621.63 465.575 624.26 466.055 625.83 464.505C646.12 444.465 664.45 419.805 670.12 411.965C670.88 410.915 670.12 409.445 668.83 409.445Z" fill="black"/>
<path d="M671.92 453.899V435.419C671.92 434.009 670.22 433.299 669.21 434.289C653.64 449.609 620.05 477.069 611.68 483.869C610.55 484.789 610.19 486.359 610.8 487.679L620.7 509.059C621.63 511.059 624.26 511.539 625.83 509.989C627.54 508.299 629.24 506.569 630.92 504.829C631.32 504.419 632.02 504.699 632.02 505.269V569.069C632.02 570.829 633.45 572.249 635.2 572.249H653.82C655.58 572.249 657 570.819 657 569.069V476.379C657 475.309 657.36 474.259 658.03 473.419C664.87 464.739 669.72 458.029 671.34 455.749C671.72 455.209 671.93 454.569 671.93 453.899H671.92Z" fill="black"/>
<path d="M653.271 623.338C640.851 623.338 634.811 628.288 634.811 638.478V655.608C634.811 665.678 640.851 670.568 653.271 670.568C659.141 670.568 663.481 669.488 666.561 667.278C670.001 664.808 671.741 660.878 671.741 655.598V638.468C671.741 628.278 665.701 623.328 653.281 623.328L653.271 623.338ZM646.091 639.308C646.091 633.938 648.841 632.918 653.271 632.918C657.701 632.918 660.451 633.958 660.451 639.308V654.688C660.451 659.958 657.601 660.988 653.271 660.988C648.941 660.988 646.091 659.988 646.091 654.688V639.308Z" fill="black"/>
<path d="M708.27 669.334H721.359L703.63 646.784L720.56 624.804H707.4L694.06 642.284V610.234H682.77V669.334H694.06V659.214L696.95 655.454L708.27 669.334Z" fill="black"/>
<path d="M754.82 624.805V653.295C754.82 659.045 751.88 660.895 746.83 660.895C743.56 660.895 740.28 660.355 740.28 653.885V624.815H729V656.775C729 665.745 733.71 670.485 742.62 670.485C749.3 670.485 753.88 666.865 755.58 662.805L757.39 669.345H766.11V624.815H754.83L754.82 624.805Z" fill="black"/>
<path d="M630.57 610.234H589.15V620.144V620.154H604.22V669.334H615.69V620.154H630.57V610.234Z" fill="black"/>
<path d="M459.689 669.334H472.779L455.049 646.784L471.979 624.804H458.819L445.479 642.284V610.234H434.199V669.334H445.479V659.214L448.369 655.454L459.689 669.334Z" fill="black"/>
<path d="M355.33 610.234H313.91V620.144V620.154H328.99V669.334H340.45V620.154H355.33V610.234Z" fill="black"/>
<path d="M421.8 658.896L421.2 659.046C417.62 659.966 413.29 660.896 409.41 660.896C404.86 660.896 401.69 658.826 401.69 652.836V640.976C401.69 634.906 404.86 632.826 409.41 632.826C413.36 632.826 417.88 633.706 421.23 634.406L421.81 634.526V625.196L421.5 625.126C417.69 624.236 412.05 623.336 407.53 623.336C402.01 623.336 397.97 624.406 395.17 626.596C391.97 629.096 390.42 633.856 390.42 639.346V654.646C390.42 664.776 396.02 670.566 407.54 670.566C411.41 670.566 417.27 669.496 421.53 668.316L421.82 668.236V658.886L421.8 658.896Z" fill="black"/>
<path d="M553.93 634.705V624.805H543.69V615.195H532.41V624.805H525.18V634.705H532.41V655.425C532.41 667.945 540.3 670.565 546.93 670.565C548.71 670.565 550.51 670.455 552.12 670.225V660.265C551.47 660.335 550.26 660.365 549.54 660.365C546.46 660.365 543.69 659.735 543.69 652.095V634.695H553.93V634.705Z" fill="black"/>
<path d="M489.741 650.742V650.562H515.171V641.482C515.171 635.572 513.551 630.243 510.361 627.343C507.421 624.673 502.781 623.312 497.261 623.312C485.081 623.312 478.461 629.223 478.461 639.593V654.453C478.461 664.703 483.841 670.552 496.321 670.552C500.981 670.552 506.291 669.563 511.971 668.403L512.361 668.323V659.052L511.711 659.203C507.141 660.253 504.621 661.143 500.291 661.143C494.081 661.143 489.741 658.623 489.741 652.203V650.722V650.742ZM489.741 639.722C489.741 634.072 493.801 632.742 497.171 632.742C500.541 632.742 504.071 634.072 504.071 639.722V643.232H489.741V642.713V639.722Z" fill="black"/>
<path d="M378.18 626.883H366.9V669.333H378.18V626.883Z" fill="black"/>
<path d="M372.54 622.224C376.422 622.224 379.57 619.077 379.57 615.194C379.57 611.312 376.422 608.164 372.54 608.164C368.657 608.164 365.51 611.312 365.51 615.194C365.51 619.077 368.657 622.224 372.54 622.224Z" fill="black"/>
<path d="M585.74 643.922H566.15V651.262H585.74V643.922Z" fill="black"/>
<path d="M724.9 1684.2C724.5 1684.8 723.9 1685.73 723.1 1687C722.366 1688.27 721.8 1689.43 721.4 1690.5C720 1693.63 718.266 1697.13 716.2 1701C714.2 1704.87 711.9 1708.77 709.3 1712.7C706.766 1716.57 704.066 1720.2 701.2 1723.6C697.466 1727.8 693.333 1731.97 688.8 1736.1C684.333 1740.17 679.6 1743.93 674.6 1747.4C669.666 1750.8 664.6 1753.73 659.4 1756.2L649.1 1745.4C654.5 1743.33 659.733 1740.73 664.8 1737.6C669.866 1734.47 674.566 1731.07 678.9 1727.4C683.233 1723.73 686.966 1720.17 690.1 1716.7C692.3 1714.17 694.366 1711.47 696.3 1708.6C698.3 1705.73 700.066 1702.9 701.6 1700.1C703.133 1697.23 704.266 1694.6 705 1692.2C704.333 1692.2 703.133 1692.2 701.4 1692.2C699.666 1692.2 697.633 1692.2 695.3 1692.2C693.033 1692.2 690.633 1692.2 688.1 1692.2C685.566 1692.2 683.133 1692.2 680.8 1692.2C678.533 1692.2 676.533 1692.2 674.8 1692.2C673.066 1692.2 671.833 1692.2 671.1 1692.2C669.7 1692.2 668.233 1692.27 666.7 1692.4C665.166 1692.47 663.7 1692.57 662.3 1692.7C660.966 1692.77 659.933 1692.83 659.2 1692.9V1678.7C660.2 1678.77 661.433 1678.87 662.9 1679C664.366 1679.13 665.833 1679.23 667.3 1679.3C668.833 1679.37 670.1 1679.4 671.1 1679.4C671.966 1679.4 673.333 1679.4 675.2 1679.4C677.066 1679.4 679.2 1679.4 681.6 1679.4C684 1679.4 686.466 1679.4 689 1679.4C691.6 1679.4 694.066 1679.4 696.4 1679.4C698.8 1679.4 700.866 1679.4 702.6 1679.4C704.333 1679.4 705.6 1679.4 706.4 1679.4C708.6 1679.4 710.6 1679.27 712.4 1679C714.266 1678.73 715.7 1678.43 716.7 1678.1L724.9 1684.2ZM702.5 1715.3C705.1 1717.37 707.866 1719.77 710.8 1722.5C713.733 1725.23 716.633 1728.07 719.5 1731C722.366 1733.93 725 1736.77 727.4 1739.5C729.866 1742.17 731.933 1744.5 733.6 1746.5L722.2 1756.4C719.733 1753 716.9 1749.47 713.7 1745.8C710.566 1742.13 707.233 1738.5 703.7 1734.9C700.233 1731.23 696.7 1727.77 693.1 1724.5L702.5 1715.3Z" fill="black"/>
<path d="M615.3 1671C616.167 1672.2 617.1 1673.63 618.1 1675.3C619.1 1676.97 620.034 1678.63 620.9 1680.3C621.834 1681.97 622.634 1683.43 623.3 1684.7L615.2 1688.1C614.2 1686.03 612.967 1683.7 611.5 1681.1C610.1 1678.43 608.734 1676.13 607.4 1674.2L615.3 1671ZM627.1 1666.5C628.034 1667.77 629 1669.23 630 1670.9C631 1672.57 631.967 1674.23 632.9 1675.9C633.9 1677.5 634.667 1678.9 635.2 1680.1L627.3 1683.5C626.234 1681.37 624.967 1679 623.5 1676.4C622.034 1673.8 620.6 1671.57 619.2 1669.7L627.1 1666.5ZM572.2 1675.3C571.934 1676.83 571.734 1678.6 571.6 1680.6C571.467 1682.6 571.4 1684.3 571.4 1685.7C571.4 1686.7 571.4 1688.47 571.4 1691C571.4 1693.47 571.4 1696.4 571.4 1699.8C571.4 1703.2 571.4 1706.77 571.4 1710.5C571.4 1714.17 571.4 1717.73 571.4 1721.2C571.4 1724.6 571.4 1727.63 571.4 1730.3C571.4 1732.97 571.4 1734.93 571.4 1736.2C571.4 1738.33 571.934 1739.8 573 1740.6C574.067 1741.4 575.7 1742.03 577.9 1742.5C579.434 1742.7 581.2 1742.87 583.2 1743C585.2 1743.07 587.3 1743.1 589.5 1743.1C592.1 1743.1 594.967 1743.03 598.1 1742.9C601.3 1742.7 604.5 1742.47 607.7 1742.2C610.967 1741.93 614.034 1741.57 616.9 1741.1C619.767 1740.63 622.234 1740.13 624.3 1739.6V1754.2C621.167 1754.67 617.534 1755.03 613.4 1755.3C609.267 1755.63 605.034 1755.87 600.7 1756C596.434 1756.2 592.434 1756.3 588.7 1756.3C585.434 1756.3 582.334 1756.2 579.4 1756C576.534 1755.8 574.034 1755.53 571.9 1755.2C567.567 1754.33 564.2 1752.7 561.8 1750.3C559.4 1747.83 558.2 1744.47 558.2 1740.2C558.2 1738.27 558.2 1735.77 558.2 1732.7C558.2 1729.57 558.2 1726.13 558.2 1722.4C558.2 1718.6 558.2 1714.8 558.2 1711C558.2 1707.13 558.2 1703.5 558.2 1700.1C558.2 1696.63 558.2 1693.63 558.2 1691.1C558.2 1688.57 558.2 1686.77 558.2 1685.7C558.2 1684.97 558.167 1683.97 558.1 1682.7C558.034 1681.43 557.934 1680.13 557.8 1678.8C557.734 1677.47 557.6 1676.3 557.4 1675.3H572.2ZM565.6 1706C568.8 1705.33 572.2 1704.53 575.8 1703.6C579.4 1702.6 583.034 1701.53 586.7 1700.4C590.367 1699.27 593.834 1698.13 597.1 1697C600.434 1695.8 603.4 1694.63 606 1693.5C607.8 1692.83 609.567 1692.07 611.3 1691.2C613.1 1690.33 614.967 1689.3 616.9 1688.1L622.3 1700.8C620.367 1701.53 618.334 1702.37 616.2 1703.3C614.134 1704.17 612.267 1704.9 610.6 1705.5C607.667 1706.63 604.3 1707.83 600.5 1709.1C596.767 1710.37 592.867 1711.63 588.8 1712.9C584.734 1714.1 580.7 1715.23 576.7 1716.3C572.767 1717.37 569.1 1718.3 565.7 1719.1L565.6 1706Z" fill="black"/>
<path d="M450.699 1705.7C451.899 1705.77 453.433 1705.87 455.299 1706C457.166 1706.07 459.099 1706.14 461.099 1706.2C463.166 1706.27 465.066 1706.3 466.799 1706.3C468.466 1706.3 470.533 1706.3 472.999 1706.3C475.466 1706.3 478.133 1706.3 480.999 1706.3C483.933 1706.3 486.933 1706.3 489.999 1706.3C493.133 1706.3 496.233 1706.3 499.299 1706.3C502.366 1706.3 505.266 1706.3 507.999 1706.3C510.733 1706.3 513.166 1706.3 515.299 1706.3C517.499 1706.3 519.233 1706.3 520.499 1706.3C522.833 1706.3 525.033 1706.24 527.099 1706.1C529.166 1705.9 530.866 1705.77 532.199 1705.7V1721.4C531.066 1721.34 529.366 1721.24 527.099 1721.1C524.833 1720.97 522.633 1720.9 520.499 1720.9C519.233 1720.9 517.499 1720.9 515.299 1720.9C513.099 1720.9 510.633 1720.9 507.899 1720.9C505.166 1720.9 502.266 1720.9 499.199 1720.9C496.199 1720.9 493.133 1720.9 489.999 1720.9C486.866 1720.9 483.833 1720.9 480.899 1720.9C478.033 1720.9 475.366 1720.9 472.899 1720.9C470.499 1720.9 468.466 1720.9 466.799 1720.9C463.933 1720.9 460.999 1720.97 457.999 1721.1C454.999 1721.17 452.566 1721.27 450.699 1721.4V1705.7Z" fill="black"/>
<path d="M416.299 1707.8C416.299 1714 415.833 1719.63 414.899 1724.7C414.033 1729.7 412.499 1734.27 410.299 1738.4C408.099 1742.47 405.033 1746.13 401.099 1749.4C397.166 1752.67 392.199 1755.63 386.199 1758.3L375.499 1748.2C380.299 1746.53 384.433 1744.67 387.899 1742.6C391.433 1740.53 394.333 1738 396.599 1735C398.866 1731.93 400.533 1728.27 401.599 1724C402.733 1719.67 403.299 1714.43 403.299 1708.3V1681.7C403.299 1679.63 403.233 1677.83 403.099 1676.3C402.966 1674.7 402.833 1673.4 402.699 1672.4H416.999C416.866 1673.4 416.699 1674.7 416.499 1676.3C416.366 1677.83 416.299 1679.63 416.299 1681.7V1707.8ZM380.199 1673.3C380.066 1674.23 379.933 1675.5 379.799 1677.1C379.666 1678.63 379.599 1680.37 379.599 1682.3V1718.1C379.599 1719.57 379.633 1721 379.699 1722.4C379.766 1723.73 379.799 1724.93 379.799 1726C379.866 1727 379.933 1727.87 379.999 1728.6H365.999C366.133 1727.87 366.233 1727 366.299 1726C366.366 1724.93 366.433 1723.73 366.499 1722.4C366.566 1721 366.599 1719.57 366.599 1718.1V1682.3C366.599 1680.83 366.533 1679.33 366.399 1677.8C366.333 1676.27 366.199 1674.77 365.999 1673.3H380.199ZM347.199 1691.3C347.866 1691.37 348.733 1691.5 349.799 1691.7C350.866 1691.83 352.099 1691.97 353.499 1692.1C354.899 1692.17 356.433 1692.2 358.099 1692.2H423.699C426.366 1692.2 428.533 1692.13 430.199 1692C431.866 1691.87 433.366 1691.7 434.699 1691.5V1704.8C433.633 1704.67 432.199 1704.6 430.399 1704.6C428.599 1704.53 426.366 1704.5 423.699 1704.5H358.099C356.433 1704.5 354.899 1704.53 353.499 1704.6C352.166 1704.6 350.966 1704.63 349.899 1704.7C348.899 1704.77 347.999 1704.83 347.199 1704.9V1691.3Z" fill="black"/>
<path d="M754.691 1559.8C754.158 1560.74 753.591 1561.87 752.991 1563.2C752.391 1564.47 751.858 1565.74 751.391 1567C750.525 1569.94 749.291 1573.3 747.691 1577.1C746.158 1580.84 744.225 1584.74 741.891 1588.8C739.625 1592.8 736.991 1596.67 733.991 1600.4C729.191 1606.14 723.591 1611.34 717.191 1616C710.858 1620.67 702.991 1624.87 693.591 1628.6L681.791 1618C688.591 1616 694.458 1613.7 699.391 1611.1C704.325 1608.5 708.625 1605.74 712.291 1602.8C715.958 1599.8 719.225 1596.64 722.091 1593.3C724.425 1590.7 726.558 1587.77 728.491 1584.5C730.425 1581.17 732.091 1577.87 733.491 1574.6C734.891 1571.34 735.825 1568.47 736.291 1566H702.591L707.191 1554.7C708.125 1554.7 709.558 1554.7 711.491 1554.7C713.491 1554.7 715.725 1554.7 718.191 1554.7C720.725 1554.7 723.191 1554.7 725.591 1554.7C728.058 1554.7 730.191 1554.7 731.991 1554.7C733.858 1554.7 735.125 1554.7 735.791 1554.7C737.325 1554.7 738.858 1554.6 740.391 1554.4C741.991 1554.2 743.358 1553.9 744.491 1553.5L754.691 1559.8ZM722.091 1544C720.891 1545.74 719.725 1547.6 718.591 1549.6C717.458 1551.6 716.591 1553.14 715.991 1554.2C713.725 1558.2 710.925 1562.37 707.591 1566.7C704.325 1570.97 700.591 1575.14 696.391 1579.2C692.191 1583.2 687.725 1586.87 682.991 1590.2L671.691 1581.9C676.091 1579.17 679.958 1576.37 683.291 1573.5C686.691 1570.64 689.625 1567.8 692.091 1565C694.558 1562.14 696.658 1559.4 698.391 1556.8C700.191 1554.14 701.725 1551.77 702.991 1549.7C703.791 1548.44 704.625 1546.8 705.491 1544.8C706.358 1542.74 707.025 1540.87 707.491 1539.2L722.091 1544Z" fill="black"/>
<path d="M588.891 1546C590.624 1547.2 592.657 1548.67 594.991 1550.4C597.324 1552.13 599.724 1554.03 602.191 1556.1C604.724 1558.1 607.091 1560.07 609.291 1562C611.491 1563.93 613.291 1565.67 614.691 1567.2L604.491 1577.6C603.224 1576.2 601.557 1574.53 599.491 1572.6C597.424 1570.67 595.191 1568.67 592.791 1566.6C590.391 1564.53 588.024 1562.57 585.691 1560.7C583.357 1558.83 581.291 1557.27 579.491 1556L588.891 1546ZM576.391 1612.6C581.591 1611.87 586.491 1610.83 591.091 1609.5C595.691 1608.17 599.957 1606.63 603.891 1604.9C607.824 1603.17 611.424 1601.37 614.691 1599.5C620.357 1596.1 625.557 1592.23 630.291 1587.9C635.024 1583.57 639.157 1579.07 642.691 1574.4C646.224 1569.67 649.024 1565.07 651.091 1560.6L658.891 1574.7C656.357 1579.17 653.224 1583.63 649.491 1588.1C645.824 1592.57 641.657 1596.83 636.991 1600.9C632.324 1604.9 627.291 1608.5 621.891 1611.7C618.491 1613.77 614.824 1615.73 610.891 1617.6C606.957 1619.4 602.791 1621 598.391 1622.4C594.057 1623.87 589.524 1625 584.791 1625.8L576.391 1612.6Z" fill="black"/>
<path d="M545.091 1544.4C545.025 1545.8 544.925 1547.33 544.791 1549C544.725 1550.6 544.691 1552.4 544.691 1554.4C544.691 1556.13 544.691 1558.23 544.691 1560.7C544.691 1563.17 544.691 1565.63 544.691 1568.1C544.691 1570.5 544.691 1572.53 544.691 1574.2C544.691 1579.53 544.425 1584.2 543.891 1588.2C543.425 1592.2 542.691 1595.7 541.691 1598.7C540.691 1601.7 539.458 1604.37 537.991 1606.7C536.591 1608.97 534.958 1611.13 533.091 1613.2C530.891 1615.6 528.358 1617.77 525.491 1619.7C522.625 1621.57 519.725 1623.13 516.791 1624.4C513.925 1625.73 511.258 1626.8 508.791 1627.6L498.291 1616.6C503.291 1615.47 507.791 1613.9 511.791 1611.9C515.858 1609.83 519.391 1607.2 522.391 1604C524.125 1602.07 525.525 1600.13 526.591 1598.2C527.658 1596.27 528.458 1594.13 528.991 1591.8C529.591 1589.4 529.991 1586.7 530.191 1583.7C530.458 1580.7 530.591 1577.27 530.591 1573.4C530.591 1571.67 530.591 1569.6 530.591 1567.2C530.591 1564.8 530.591 1562.43 530.591 1560.1C530.591 1557.77 530.591 1555.87 530.591 1554.4C530.591 1552.4 530.525 1550.6 530.391 1549C530.325 1547.33 530.191 1545.8 529.991 1544.4H545.091ZM498.691 1545.2C498.625 1546.4 498.558 1547.6 498.491 1548.8C498.425 1549.93 498.391 1551.3 498.391 1552.9C498.391 1553.63 498.391 1554.83 498.391 1556.5C498.391 1558.17 498.391 1560.13 498.391 1562.4C498.391 1564.6 498.391 1566.93 498.391 1569.4C498.391 1571.8 498.391 1574.13 498.391 1576.4C498.391 1578.67 498.391 1580.73 498.391 1582.6C498.391 1584.4 498.391 1585.77 498.391 1586.7C498.391 1587.97 498.425 1589.43 498.491 1591.1C498.558 1592.77 498.625 1594.2 498.691 1595.4H484.191C484.258 1594.47 484.358 1593.13 484.491 1591.4C484.625 1589.67 484.691 1588.07 484.691 1586.6C484.691 1585.67 484.691 1584.3 484.691 1582.5C484.691 1580.7 484.691 1578.67 484.691 1576.4C484.691 1574.07 484.691 1571.7 484.691 1569.3C484.691 1566.83 484.691 1564.5 484.691 1562.3C484.691 1560.1 484.691 1558.17 484.691 1556.5C484.691 1554.83 484.691 1553.63 484.691 1552.9C484.691 1551.97 484.658 1550.77 484.591 1549.3C484.525 1547.77 484.425 1546.4 484.291 1545.2H498.691Z" fill="black"/>
<path d="M432.992 1547.6C433.925 1548.93 434.958 1550.5 436.092 1552.3C437.225 1554.1 438.292 1555.9 439.292 1557.7C440.358 1559.5 441.292 1561.17 442.092 1562.7L433.392 1566.6C432.458 1564.47 431.525 1562.57 430.592 1560.9C429.725 1559.23 428.825 1557.63 427.892 1556.1C426.958 1554.5 425.858 1552.83 424.592 1551.1L432.992 1547.6ZM446.092 1542.1C447.092 1543.43 448.158 1544.97 449.292 1546.7C450.492 1548.43 451.625 1550.2 452.692 1552C453.825 1553.73 454.758 1555.37 455.492 1556.9L447.092 1561C446.025 1558.87 444.992 1557 443.992 1555.4C443.058 1553.73 442.092 1552.17 441.092 1550.7C440.158 1549.17 439.058 1547.6 437.792 1546L446.092 1542.1ZM393.092 1613.9C393.092 1612.57 393.092 1610.47 393.092 1607.6C393.092 1604.67 393.092 1601.3 393.092 1597.5C393.092 1593.63 393.092 1589.63 393.092 1585.5C393.092 1581.3 393.092 1577.27 393.092 1573.4C393.092 1569.47 393.092 1566 393.092 1563C393.092 1560 393.092 1557.8 393.092 1556.4C393.092 1554.6 392.992 1552.57 392.792 1550.3C392.658 1548.03 392.425 1546.03 392.092 1544.3H407.692C407.492 1546.03 407.292 1547.97 407.092 1550.1C406.892 1552.23 406.792 1554.33 406.792 1556.4C406.792 1558.2 406.792 1560.7 406.792 1563.9C406.792 1567.1 406.792 1570.67 406.792 1574.6C406.792 1578.47 406.792 1582.43 406.792 1586.5C406.792 1590.57 406.792 1594.47 406.792 1598.2C406.792 1601.87 406.792 1605.1 406.792 1607.9C406.792 1610.63 406.792 1612.63 406.792 1613.9C406.792 1614.77 406.825 1616.07 406.892 1617.8C407.025 1619.47 407.158 1621.2 407.292 1623C407.492 1624.8 407.658 1626.4 407.792 1627.8H392.092C392.425 1625.87 392.658 1623.57 392.792 1620.9C392.992 1618.17 393.092 1615.83 393.092 1613.9ZM403.892 1570.2C407.225 1571.07 410.925 1572.2 414.992 1573.6C419.125 1574.93 423.292 1576.4 427.492 1578C431.692 1579.53 435.658 1581.07 439.392 1582.6C443.125 1584.07 446.192 1585.4 448.592 1586.6L442.992 1600.5C440.125 1598.97 436.992 1597.47 433.592 1596C430.192 1594.53 426.725 1593.1 423.192 1591.7C419.725 1590.23 416.325 1588.9 412.992 1587.7C409.658 1586.5 406.625 1585.47 403.892 1584.6V1570.2Z" fill="black"/>
<path d="M348.61 1542C349.31 1542 349.81 1542.5 349.81 1543.2V1620.7C349.81 1621.4 349.31 1622 348.61 1622H340.61C339.91 1622 339.41 1621.4 339.41 1620.7V1552.2H326.91C325.81 1552.2 325.31 1551.1 325.81 1550.4L330.81 1542.5C331.01 1542.2 331.41 1542 331.81 1542H348.61Z" fill="black"/>
<path d="M715.301 1402.9C715.134 1403.8 714.867 1404.97 714.501 1406.4C714.134 1407.83 713.601 1409.45 712.901 1411.25C712.367 1412.48 711.751 1413.77 711.051 1415.1C710.384 1416.4 709.701 1417.57 709.001 1418.6C709.434 1418.4 709.984 1418.23 710.651 1418.1C711.317 1417.93 712.001 1417.82 712.701 1417.75C713.434 1417.65 714.084 1417.6 714.651 1417.6C716.751 1417.6 718.484 1418.2 719.851 1419.4C721.251 1420.6 721.951 1422.38 721.951 1424.75C721.951 1425.42 721.951 1426.23 721.951 1427.2C721.984 1428.17 722.017 1429.18 722.051 1430.25C722.084 1431.28 722.117 1432.3 722.151 1433.3C722.184 1434.3 722.201 1435.2 722.201 1436H716.201C716.267 1435.43 716.301 1434.77 716.301 1434C716.334 1433.2 716.351 1432.37 716.351 1431.5C716.384 1430.63 716.401 1429.8 716.401 1429C716.434 1428.17 716.451 1427.42 716.451 1426.75C716.451 1425.15 716.017 1424.05 715.151 1423.45C714.317 1422.82 713.384 1422.5 712.351 1422.5C710.951 1422.5 709.534 1422.85 708.101 1423.55C706.701 1424.22 705.517 1425.02 704.551 1425.95C703.817 1426.68 703.067 1427.5 702.301 1428.4C701.567 1429.3 700.767 1430.32 699.901 1431.45L694.551 1427.45C696.717 1425.45 698.584 1423.52 700.151 1421.65C701.751 1419.78 703.101 1417.93 704.201 1416.1C705.301 1414.27 706.201 1412.43 706.901 1410.6C707.401 1409.27 707.801 1407.88 708.101 1406.45C708.434 1404.98 708.634 1403.62 708.701 1402.35L715.301 1402.9ZM696.501 1407.5C697.767 1407.7 699.234 1407.85 700.901 1407.95C702.567 1408.05 704.034 1408.1 705.301 1408.1C707.501 1408.1 709.901 1408.05 712.501 1407.95C715.134 1407.85 717.801 1407.68 720.501 1407.45C723.201 1407.18 725.767 1406.85 728.201 1406.45L728.151 1412.25C726.384 1412.48 724.467 1412.7 722.401 1412.9C720.367 1413.07 718.284 1413.22 716.151 1413.35C714.051 1413.45 712.034 1413.53 710.101 1413.6C708.167 1413.63 706.451 1413.65 704.951 1413.65C704.284 1413.65 703.451 1413.65 702.451 1413.65C701.484 1413.62 700.484 1413.58 699.451 1413.55C698.417 1413.48 697.434 1413.42 696.501 1413.35V1407.5ZM736.101 1421.7C735.567 1421.87 734.934 1422.08 734.201 1422.35C733.501 1422.58 732.784 1422.83 732.051 1423.1C731.351 1423.33 730.717 1423.57 730.151 1423.8C728.551 1424.43 726.651 1425.2 724.451 1426.1C722.284 1427 720.017 1428.05 717.651 1429.25C716.151 1430.05 714.884 1430.83 713.851 1431.6C712.817 1432.37 712.034 1433.15 711.501 1433.95C710.967 1434.72 710.701 1435.57 710.701 1436.5C710.701 1437.2 710.851 1437.78 711.151 1438.25C711.451 1438.68 711.901 1439.03 712.501 1439.3C713.101 1439.57 713.851 1439.75 714.751 1439.85C715.651 1439.95 716.717 1440 717.951 1440C720.084 1440 722.434 1439.88 725.001 1439.65C727.567 1439.38 729.951 1439.03 732.151 1438.6L731.951 1445.05C730.884 1445.18 729.534 1445.32 727.901 1445.45C726.267 1445.62 724.567 1445.73 722.801 1445.8C721.067 1445.87 719.401 1445.9 717.801 1445.9C715.201 1445.9 712.867 1445.65 710.801 1445.15C708.734 1444.65 707.101 1443.8 705.901 1442.6C704.734 1441.37 704.151 1439.68 704.151 1437.55C704.151 1435.82 704.534 1434.25 705.301 1432.85C706.101 1431.45 707.151 1430.18 708.451 1429.05C709.751 1427.92 711.167 1426.9 712.701 1426C714.267 1425.07 715.801 1424.22 717.301 1423.45C718.834 1422.65 720.217 1421.97 721.451 1421.4C722.684 1420.83 723.834 1420.33 724.901 1419.9C726.001 1419.43 727.051 1418.97 728.051 1418.5C729.017 1418.07 729.951 1417.65 730.851 1417.25C731.751 1416.82 732.667 1416.37 733.601 1415.9L736.101 1421.7Z" fill="black"/>
<path d="M685.949 1411.9C685.683 1412.37 685.399 1412.93 685.099 1413.6C684.799 1414.23 684.533 1414.87 684.299 1415.5C683.866 1416.97 683.249 1418.65 682.449 1420.55C681.683 1422.42 680.716 1424.37 679.549 1426.4C678.416 1428.4 677.099 1430.33 675.599 1432.2C673.199 1435.07 670.399 1437.67 667.199 1440C664.033 1442.33 660.099 1444.43 655.399 1446.3L649.499 1441C652.899 1440 655.833 1438.85 658.299 1437.55C660.766 1436.25 662.916 1434.87 664.749 1433.4C666.583 1431.9 668.216 1430.32 669.649 1428.65C670.816 1427.35 671.883 1425.88 672.849 1424.25C673.816 1422.58 674.649 1420.93 675.349 1419.3C676.049 1417.67 676.516 1416.23 676.749 1415H659.899L662.199 1409.35C662.666 1409.35 663.383 1409.35 664.349 1409.35C665.349 1409.35 666.466 1409.35 667.699 1409.35C668.966 1409.35 670.199 1409.35 671.399 1409.35C672.633 1409.35 673.699 1409.35 674.599 1409.35C675.533 1409.35 676.166 1409.35 676.499 1409.35C677.266 1409.35 678.033 1409.3 678.799 1409.2C679.599 1409.1 680.283 1408.95 680.849 1408.75L685.949 1411.9ZM669.649 1404C669.049 1404.87 668.466 1405.8 667.899 1406.8C667.333 1407.8 666.899 1408.57 666.599 1409.1C665.466 1411.1 664.066 1413.18 662.399 1415.35C660.766 1417.48 658.899 1419.57 656.799 1421.6C654.699 1423.6 652.466 1425.43 650.099 1427.1L644.449 1422.95C646.649 1421.58 648.583 1420.18 650.249 1418.75C651.949 1417.32 653.416 1415.9 654.649 1414.5C655.883 1413.07 656.933 1411.7 657.799 1410.4C658.699 1409.07 659.466 1407.88 660.099 1406.85C660.499 1406.22 660.916 1405.4 661.349 1404.4C661.783 1403.37 662.116 1402.43 662.349 1401.6L669.649 1404Z" fill="black"/>
<path d="M603.051 1405C603.917 1405.6 604.934 1406.33 606.101 1407.2C607.267 1408.07 608.467 1409.02 609.701 1410.05C610.967 1411.05 612.151 1412.03 613.251 1413C614.351 1413.97 615.251 1414.83 615.951 1415.6L610.851 1420.8C610.217 1420.1 609.384 1419.27 608.351 1418.3C607.317 1417.33 606.201 1416.33 605.001 1415.3C603.801 1414.27 602.617 1413.28 601.451 1412.35C600.284 1411.42 599.251 1410.63 598.351 1410L603.051 1405ZM596.801 1438.3C599.401 1437.93 601.851 1437.42 604.151 1436.75C606.451 1436.08 608.584 1435.32 610.551 1434.45C612.517 1433.58 614.317 1432.68 615.951 1431.75C618.784 1430.05 621.384 1428.12 623.751 1425.95C626.117 1423.78 628.184 1421.53 629.951 1419.2C631.717 1416.83 633.117 1414.53 634.151 1412.3L638.051 1419.35C636.784 1421.58 635.217 1423.82 633.351 1426.05C631.517 1428.28 629.434 1430.42 627.101 1432.45C624.767 1434.45 622.251 1436.25 619.551 1437.85C617.851 1438.88 616.017 1439.87 614.051 1440.8C612.084 1441.7 610.001 1442.5 607.801 1443.2C605.634 1443.93 603.367 1444.5 601.001 1444.9L596.801 1438.3Z" fill="black"/>
<path d="M581.149 1404.2C581.116 1404.9 581.066 1405.67 580.999 1406.5C580.966 1407.3 580.949 1408.2 580.949 1409.2C580.949 1410.07 580.949 1411.12 580.949 1412.35C580.949 1413.59 580.949 1414.82 580.949 1416.05C580.949 1417.25 580.949 1418.27 580.949 1419.1C580.949 1421.77 580.816 1424.1 580.549 1426.1C580.316 1428.1 579.949 1429.85 579.449 1431.35C578.949 1432.85 578.333 1434.19 577.599 1435.35C576.899 1436.49 576.083 1437.57 575.149 1438.6C574.049 1439.8 572.783 1440.89 571.349 1441.85C569.916 1442.79 568.466 1443.57 566.999 1444.2C565.566 1444.87 564.233 1445.4 562.999 1445.8L557.749 1440.3C560.249 1439.74 562.499 1438.95 564.499 1437.95C566.533 1436.92 568.299 1435.6 569.799 1434C570.666 1433.04 571.366 1432.07 571.899 1431.1C572.433 1430.14 572.833 1429.07 573.099 1427.9C573.399 1426.7 573.599 1425.35 573.699 1423.85C573.833 1422.35 573.899 1420.64 573.899 1418.7C573.899 1417.84 573.899 1416.8 573.899 1415.6C573.899 1414.4 573.899 1413.22 573.899 1412.05C573.899 1410.89 573.899 1409.94 573.899 1409.2C573.899 1408.2 573.866 1407.3 573.799 1406.5C573.766 1405.67 573.699 1404.9 573.599 1404.2H581.149ZM557.949 1404.6C557.916 1405.2 557.883 1405.8 557.849 1406.4C557.816 1406.97 557.799 1407.65 557.799 1408.45C557.799 1408.82 557.799 1409.42 557.799 1410.25C557.799 1411.09 557.799 1412.07 557.799 1413.2C557.799 1414.3 557.799 1415.47 557.799 1416.7C557.799 1417.9 557.799 1419.07 557.799 1420.2C557.799 1421.34 557.799 1422.37 557.799 1423.3C557.799 1424.2 557.799 1424.89 557.799 1425.35C557.799 1425.99 557.816 1426.72 557.849 1427.55C557.883 1428.39 557.916 1429.1 557.949 1429.7H550.699C550.733 1429.24 550.783 1428.57 550.849 1427.7C550.916 1426.84 550.949 1426.04 550.949 1425.3C550.949 1424.84 550.949 1424.15 550.949 1423.25C550.949 1422.35 550.949 1421.34 550.949 1420.2C550.949 1419.04 550.949 1417.85 550.949 1416.65C550.949 1415.42 550.949 1414.25 550.949 1413.15C550.949 1412.05 550.949 1411.09 550.949 1410.25C550.949 1409.42 550.949 1408.82 550.949 1408.45C550.949 1407.99 550.933 1407.39 550.899 1406.65C550.866 1405.89 550.816 1405.2 550.749 1404.6H557.949Z" fill="black"/>
<path d="M525.1 1405.8C525.567 1406.46 526.084 1407.25 526.65 1408.15C527.217 1409.05 527.75 1409.95 528.25 1410.85C528.784 1411.75 529.25 1412.58 529.65 1413.35L525.3 1415.3C524.834 1414.23 524.367 1413.28 523.9 1412.45C523.467 1411.61 523.017 1410.81 522.55 1410.05C522.084 1409.25 521.534 1408.41 520.9 1407.55L525.1 1405.8ZM531.65 1403.05C532.15 1403.71 532.684 1404.48 533.25 1405.35C533.85 1406.21 534.417 1407.1 534.95 1408C535.517 1408.86 535.984 1409.68 536.35 1410.45L532.15 1412.5C531.617 1411.43 531.1 1410.5 530.6 1409.7C530.134 1408.86 529.65 1408.08 529.15 1407.35C528.684 1406.58 528.134 1405.8 527.5 1405L531.65 1403.05ZM505.15 1438.95C505.15 1438.28 505.15 1437.23 505.15 1435.8C505.15 1434.33 505.15 1432.65 505.15 1430.75C505.15 1428.81 505.15 1426.81 505.15 1424.75C505.15 1422.65 505.15 1420.63 505.15 1418.7C505.15 1416.73 505.15 1415 505.15 1413.5C505.15 1412 505.15 1410.9 505.15 1410.2C505.15 1409.3 505.1 1408.28 505 1407.15C504.934 1406.01 504.817 1405.01 504.65 1404.15H512.45C512.35 1405.01 512.25 1405.98 512.15 1407.05C512.05 1408.11 512 1409.16 512 1410.2C512 1411.1 512 1412.35 512 1413.95C512 1415.55 512 1417.33 512 1419.3C512 1421.23 512 1423.21 512 1425.25C512 1427.28 512 1429.23 512 1431.1C512 1432.93 512 1434.55 512 1435.95C512 1437.31 512 1438.31 512 1438.95C512 1439.38 512.017 1440.03 512.05 1440.9C512.117 1441.73 512.184 1442.6 512.25 1443.5C512.35 1444.4 512.434 1445.2 512.5 1445.9H504.65C504.817 1444.93 504.934 1443.78 505 1442.45C505.1 1441.08 505.15 1439.91 505.15 1438.95ZM510.55 1417.1C512.217 1417.53 514.067 1418.1 516.1 1418.8C518.167 1419.46 520.25 1420.2 522.35 1421C524.45 1421.76 526.434 1422.53 528.3 1423.3C530.167 1424.03 531.7 1424.7 532.9 1425.3L530.1 1432.25C528.667 1431.48 527.1 1430.73 525.4 1430C523.7 1429.26 521.967 1428.55 520.2 1427.85C518.467 1427.11 516.767 1426.45 515.1 1425.85C513.434 1425.25 511.917 1424.73 510.55 1424.3V1417.1Z" fill="black"/>
<path d="M456.699 1438.2C456.699 1437.57 456.699 1436.54 456.699 1435.1C456.699 1433.64 456.699 1431.95 456.699 1430.05C456.699 1428.12 456.699 1426.1 456.699 1424C456.699 1421.9 456.699 1419.89 456.699 1417.95C456.699 1415.99 456.699 1414.25 456.699 1412.75C456.699 1411.25 456.699 1410.15 456.699 1409.45C456.699 1408.59 456.649 1407.59 456.549 1406.45C456.483 1405.32 456.366 1404.32 456.199 1403.45H463.999C463.899 1404.32 463.799 1405.29 463.699 1406.35C463.599 1407.39 463.549 1408.42 463.549 1409.45C463.549 1410.39 463.549 1411.65 463.549 1413.25C463.549 1414.85 463.549 1416.64 463.549 1418.6C463.549 1420.54 463.549 1422.52 463.549 1424.55C463.549 1426.55 463.549 1428.49 463.549 1430.35C463.549 1432.22 463.549 1433.85 463.549 1435.25C463.549 1436.62 463.549 1437.6 463.549 1438.2C463.549 1438.67 463.566 1439.34 463.599 1440.2C463.633 1441.04 463.699 1441.9 463.799 1442.8C463.899 1443.7 463.966 1444.5 463.999 1445.2H456.199C456.333 1444.2 456.449 1443.04 456.549 1441.7C456.649 1440.37 456.699 1439.2 456.699 1438.2ZM462.049 1416.4C463.716 1416.84 465.583 1417.4 467.649 1418.1C469.716 1418.77 471.799 1419.49 473.899 1420.25C475.999 1421.02 477.966 1421.79 479.799 1422.55C481.666 1423.29 483.216 1423.97 484.449 1424.6L481.599 1431.5C480.199 1430.77 478.649 1430.04 476.949 1429.3C475.249 1428.54 473.516 1427.8 471.749 1427.1C470.016 1426.4 468.299 1425.75 466.599 1425.15C464.933 1424.55 463.416 1424.02 462.049 1423.55V1416.4Z" fill="black"/>
<path d="M435.45 1409.7C435.217 1410.16 435 1410.73 434.8 1411.4C434.633 1412.03 434.483 1412.63 434.35 1413.2C434.083 1414.4 433.733 1415.76 433.3 1417.3C432.867 1418.83 432.35 1420.41 431.75 1422.05C431.15 1423.68 430.433 1425.3 429.6 1426.9C428.8 1428.5 427.883 1430 426.85 1431.4C425.35 1433.36 423.6 1435.23 421.6 1437C419.6 1438.73 417.367 1440.3 414.9 1441.7C412.433 1443.06 409.717 1444.23 406.75 1445.2L401.3 1439.25C404.6 1438.45 407.45 1437.46 409.85 1436.3C412.283 1435.1 414.4 1433.76 416.2 1432.3C418 1430.8 419.567 1429.2 420.9 1427.5C422 1426.1 422.933 1424.58 423.7 1422.95C424.5 1421.31 425.15 1419.66 425.65 1418C426.183 1416.33 426.55 1414.8 426.75 1413.4C426.25 1413.4 425.417 1413.4 424.25 1413.4C423.117 1413.4 421.767 1413.4 420.2 1413.4C418.667 1413.4 417.05 1413.4 415.35 1413.4C413.683 1413.4 412.067 1413.4 410.5 1413.4C408.933 1413.4 407.517 1413.4 406.25 1413.4C405.017 1413.4 404.083 1413.4 403.45 1413.4C402.317 1413.4 401.2 1413.41 400.1 1413.45C399.033 1413.48 398.167 1413.53 397.5 1413.6V1406.55C398.033 1406.58 398.65 1406.63 399.35 1406.7C400.05 1406.76 400.783 1406.83 401.55 1406.9C402.317 1406.93 402.967 1406.95 403.5 1406.95C404 1406.95 404.75 1406.95 405.75 1406.95C406.75 1406.95 407.9 1406.95 409.2 1406.95C410.5 1406.95 411.85 1406.95 413.25 1406.95C414.683 1406.95 416.1 1406.95 417.5 1406.95C418.9 1406.95 420.217 1406.95 421.45 1406.95C422.683 1406.95 423.75 1406.95 424.65 1406.95C425.583 1406.95 426.233 1406.95 426.6 1406.95C427.1 1406.95 427.717 1406.93 428.45 1406.9C429.183 1406.83 429.867 1406.71 430.5 1406.55L435.45 1409.7Z" fill="black"/>
<path d="M353.2 1440.1C357.233 1438.4 360.633 1436.37 363.4 1434C366.2 1431.63 368.5 1429.13 370.3 1426.5C372.167 1423.83 373.517 1421.17 374.35 1418.5C375.183 1415.83 375.8 1413.47 376.2 1411.4C376.467 1410.27 376.65 1409.13 376.75 1408C376.85 1406.87 376.883 1405.98 376.85 1405.35L384.95 1406.45C384.65 1407.42 384.367 1408.47 384.1 1409.6C383.833 1410.7 383.617 1411.6 383.45 1412.3C382.817 1415.23 381.95 1418.2 380.85 1421.2C379.783 1424.17 378.333 1427.05 376.5 1429.85C374.567 1432.88 372.183 1435.72 369.35 1438.35C366.517 1440.98 363.117 1443.27 359.15 1445.2L353.2 1440.1ZM352.15 1405.6C352.783 1406.47 353.5 1407.55 354.3 1408.85C355.1 1410.15 355.9 1411.52 356.7 1412.95C357.533 1414.35 358.3 1415.7 359 1417C359.733 1418.3 360.333 1419.38 360.8 1420.25L354.2 1424C353.6 1422.63 352.917 1421.25 352.15 1419.85C351.417 1418.42 350.667 1417.02 349.9 1415.65C349.133 1414.25 348.383 1412.98 347.65 1411.85C346.95 1410.68 346.317 1409.7 345.75 1408.9L352.15 1405.6Z" fill="black"/>
<path d="M763.4 1331.05C764.933 1331.25 766.65 1331.4 768.55 1331.5C770.483 1331.57 772.433 1331.6 774.4 1331.6C776.4 1331.57 778.316 1331.5 780.15 1331.4C781.983 1331.27 783.566 1331.13 784.9 1331V1337.45C783.366 1337.58 781.683 1337.7 779.85 1337.8C778.016 1337.87 776.133 1337.9 774.2 1337.9C772.266 1337.9 770.366 1337.87 768.5 1337.8C766.666 1337.7 764.966 1337.58 763.4 1337.45V1331.05ZM767.4 1352.4C767.2 1353.23 767.05 1353.98 766.95 1354.65C766.85 1355.28 766.8 1355.93 766.8 1356.6C766.8 1357.13 766.933 1357.63 767.2 1358.1C767.466 1358.53 767.866 1358.92 768.4 1359.25C768.966 1359.55 769.683 1359.78 770.55 1359.95C771.45 1360.08 772.533 1360.15 773.8 1360.15C776.033 1360.15 778.133 1360.05 780.1 1359.85C782.066 1359.62 784.15 1359.28 786.35 1358.85L786.45 1365.6C784.85 1365.9 783 1366.13 780.9 1366.3C778.833 1366.47 776.383 1366.55 773.55 1366.55C769.25 1366.55 766.05 1365.83 763.95 1364.4C761.85 1362.93 760.8 1360.92 760.8 1358.35C760.8 1357.38 760.866 1356.38 761 1355.35C761.166 1354.28 761.383 1353.12 761.65 1351.85L767.4 1352.4ZM755.7 1327.7C755.566 1328.03 755.416 1328.5 755.25 1329.1C755.083 1329.7 754.916 1330.28 754.75 1330.85C754.616 1331.42 754.516 1331.85 754.45 1332.15C754.35 1332.85 754.183 1333.77 753.95 1334.9C753.75 1336 753.533 1337.25 753.3 1338.65C753.1 1340.02 752.9 1341.42 752.7 1342.85C752.5 1344.28 752.333 1345.67 752.2 1347C752.1 1348.33 752.05 1349.5 752.05 1350.5C752.05 1350.97 752.05 1351.5 752.05 1352.1C752.083 1352.7 752.15 1353.25 752.25 1353.75C752.483 1353.18 752.733 1352.62 753 1352.05C753.266 1351.48 753.533 1350.92 753.8 1350.35C754.066 1349.75 754.3 1349.18 754.5 1348.65L757.6 1351.1C757.133 1352.47 756.65 1353.93 756.15 1355.5C755.683 1357.07 755.25 1358.55 754.85 1359.95C754.483 1361.32 754.2 1362.45 754 1363.35C753.933 1363.72 753.866 1364.13 753.8 1364.6C753.766 1365.07 753.75 1365.43 753.75 1365.7C753.75 1365.97 753.75 1366.28 753.75 1366.65C753.783 1367.05 753.816 1367.42 753.85 1367.75L748.05 1368.15C747.55 1366.42 747.1 1364.12 746.7 1361.25C746.3 1358.35 746.1 1355.2 746.1 1351.8C746.1 1349.93 746.183 1348.03 746.35 1346.1C746.516 1344.17 746.716 1342.32 746.95 1340.55C747.183 1338.75 747.4 1337.12 747.6 1335.65C747.833 1334.18 748.033 1332.97 748.2 1332C748.266 1331.3 748.35 1330.52 748.45 1329.65C748.583 1328.75 748.666 1327.9 748.7 1327.1L755.7 1327.7Z" fill="black"/>
<path d="M693.349 1331.55H738.699V1337.25H693.349V1331.55ZM710.049 1343.8H729.199V1349.45H710.049V1343.8ZM726.949 1343.8H733.149C733.149 1343.8 733.133 1343.96 733.099 1344.3C733.099 1344.6 733.099 1344.95 733.099 1345.35C733.099 1345.75 733.066 1346.1 732.999 1346.4C732.699 1350.96 732.366 1354.7 731.999 1357.6C731.633 1360.5 731.216 1362.76 730.749 1364.4C730.283 1366 729.716 1367.16 729.049 1367.9C728.283 1368.73 727.483 1369.3 726.649 1369.6C725.816 1369.9 724.816 1370.11 723.649 1370.25C722.683 1370.35 721.416 1370.38 719.849 1370.35C718.283 1370.35 716.666 1370.31 714.999 1370.25C714.966 1369.38 714.749 1368.38 714.349 1367.25C713.949 1366.15 713.449 1365.18 712.849 1364.35C714.583 1364.51 716.249 1364.61 717.849 1364.65C719.449 1364.68 720.599 1364.7 721.299 1364.7C721.866 1364.7 722.333 1364.66 722.699 1364.6C723.099 1364.5 723.449 1364.31 723.749 1364.05C724.283 1363.61 724.733 1362.66 725.099 1361.2C725.499 1359.73 725.849 1357.65 726.149 1354.95C726.449 1352.25 726.716 1348.83 726.949 1344.7V1343.8ZM707.799 1334.95H714.499C714.366 1337.61 714.149 1340.31 713.849 1343.05C713.583 1345.75 713.116 1348.43 712.449 1351.1C711.783 1353.73 710.816 1356.25 709.549 1358.65C708.283 1361.05 706.616 1363.28 704.549 1365.35C702.483 1367.41 699.866 1369.25 696.699 1370.85C696.266 1370.01 695.633 1369.11 694.799 1368.15C693.999 1367.18 693.216 1366.38 692.449 1365.75C695.349 1364.41 697.716 1362.86 699.549 1361.1C701.416 1359.3 702.883 1357.36 703.949 1355.3C705.016 1353.2 705.799 1351.01 706.299 1348.75C706.833 1346.48 707.183 1344.18 707.349 1341.85C707.549 1339.51 707.699 1337.21 707.799 1334.95ZM712.599 1323.3H718.849V1333.8H712.599V1323.3Z" fill="black"/>
<path d="M670.549 1331.75C670.216 1334.28 669.783 1336.98 669.249 1339.85C668.716 1342.72 667.999 1345.62 667.099 1348.55C666.133 1351.92 664.999 1354.82 663.699 1357.25C662.399 1359.68 660.966 1361.57 659.399 1362.9C657.866 1364.2 656.183 1364.85 654.349 1364.85C652.516 1364.85 650.816 1364.23 649.249 1363C647.716 1361.73 646.483 1360 645.549 1357.8C644.649 1355.6 644.199 1353.1 644.199 1350.3C644.199 1347.4 644.783 1344.67 645.949 1342.1C647.116 1339.53 648.733 1337.27 650.799 1335.3C652.899 1333.3 655.333 1331.73 658.099 1330.6C660.899 1329.47 663.916 1328.9 667.149 1328.9C670.249 1328.9 673.033 1329.4 675.499 1330.4C677.999 1331.4 680.133 1332.78 681.899 1334.55C683.666 1336.32 685.016 1338.38 685.949 1340.75C686.883 1343.12 687.349 1345.67 687.349 1348.4C687.349 1351.9 686.633 1355.03 685.199 1357.8C683.766 1360.57 681.633 1362.85 678.799 1364.65C675.999 1366.45 672.499 1367.68 668.299 1368.35L664.549 1362.4C665.516 1362.3 666.366 1362.18 667.099 1362.05C667.833 1361.92 668.533 1361.77 669.199 1361.6C670.799 1361.2 672.283 1360.63 673.649 1359.9C675.049 1359.13 676.266 1358.2 677.299 1357.1C678.333 1355.97 679.133 1354.65 679.699 1353.15C680.299 1351.65 680.599 1350 680.599 1348.2C680.599 1346.23 680.299 1344.43 679.699 1342.8C679.099 1341.17 678.216 1339.75 677.049 1338.55C675.883 1337.32 674.466 1336.38 672.799 1335.75C671.133 1335.08 669.216 1334.75 667.049 1334.75C664.383 1334.75 662.033 1335.23 659.999 1336.2C657.966 1337.13 656.249 1338.35 654.849 1339.85C653.449 1341.35 652.383 1342.97 651.649 1344.7C650.949 1346.43 650.599 1348.08 650.599 1349.65C650.599 1351.32 650.799 1352.72 651.199 1353.85C651.599 1354.95 652.083 1355.78 652.649 1356.35C653.249 1356.88 653.883 1357.15 654.549 1357.15C655.249 1357.15 655.933 1356.8 656.599 1356.1C657.299 1355.37 657.983 1354.27 658.649 1352.8C659.316 1351.33 659.983 1349.48 660.649 1347.25C661.416 1344.85 662.066 1342.28 662.599 1339.55C663.133 1336.82 663.516 1334.15 663.749 1331.55L670.549 1331.75Z" fill="black"/>
<path d="M625.601 1334.65L632.001 1336.55C629.901 1342.55 627.184 1347.75 623.851 1352.15C620.517 1356.55 616.551 1360.27 611.951 1363.3C607.384 1366.3 602.101 1368.75 596.101 1370.65C595.901 1370.12 595.567 1369.48 595.101 1368.75C594.634 1368.02 594.151 1367.28 593.651 1366.55C593.184 1365.85 592.734 1365.27 592.301 1364.8C598.067 1363.27 603.117 1361.18 607.451 1358.55C611.784 1355.92 615.451 1352.65 618.451 1348.75C621.451 1344.82 623.834 1340.12 625.601 1334.65ZM606.251 1335.05C607.951 1340.02 610.301 1344.47 613.301 1348.4C616.301 1352.33 620.001 1355.67 624.401 1358.4C628.834 1361.13 634.001 1363.17 639.901 1364.5C639.434 1364.97 638.917 1365.57 638.351 1366.3C637.817 1367.03 637.301 1367.77 636.801 1368.5C636.301 1369.27 635.901 1369.93 635.601 1370.5C629.367 1368.9 624.001 1366.57 619.501 1363.5C615.001 1360.4 611.184 1356.63 608.051 1352.2C604.951 1347.77 602.351 1342.65 600.251 1336.85L606.251 1335.05ZM593.201 1331.45H639.001V1337.3H593.201V1331.45ZM612.901 1323.5H619.051V1335H612.901V1323.5Z" fill="black"/>
<path d="M564 1328.05L567.9 1323.4C569.266 1324.03 570.7 1324.78 572.2 1325.65C573.733 1326.52 575.166 1327.4 576.5 1328.3C577.866 1329.2 578.983 1330.07 579.85 1330.9L575.5 1336.1C574.733 1335.23 573.7 1334.32 572.4 1333.35C571.133 1332.38 569.75 1331.43 568.25 1330.5C566.783 1329.57 565.366 1328.75 564 1328.05ZM560.65 1348.35H586.65V1354.05H560.65V1348.35ZM557.1 1363.15H589.55V1368.85H557.1V1363.15ZM558.9 1334.4H588.5V1340.1H558.9V1334.4ZM570.3 1336.3H576.55V1365.7H570.3V1336.3ZM545.7 1328.15L548.95 1323.75C550.05 1324.12 551.2 1324.6 552.4 1325.2C553.6 1325.77 554.75 1326.38 555.85 1327.05C556.95 1327.68 557.85 1328.3 558.55 1328.9L555 1333.8C554.366 1333.17 553.516 1332.52 552.45 1331.85C551.416 1331.15 550.3 1330.48 549.1 1329.85C547.933 1329.18 546.8 1328.62 545.7 1328.15ZM542.35 1341.8L545.45 1337.25C546.55 1337.62 547.716 1338.07 548.95 1338.6C550.183 1339.1 551.35 1339.67 552.45 1340.3C553.583 1340.9 554.516 1341.47 555.25 1342L551.9 1347.05C551.266 1346.45 550.4 1345.83 549.3 1345.2C548.2 1344.57 547.05 1343.95 545.85 1343.35C544.65 1342.72 543.483 1342.2 542.35 1341.8ZM544.5 1365.85C545.4 1364.58 546.4 1363.1 547.5 1361.4C548.6 1359.67 549.716 1357.83 550.85 1355.9C551.983 1353.93 553.033 1351.98 554 1350.05L558.4 1354.05C557.533 1355.78 556.6 1357.57 555.6 1359.4C554.633 1361.23 553.633 1363.03 552.6 1364.8C551.6 1366.57 550.6 1368.27 549.6 1369.9L544.5 1365.85Z" fill="black"/>
<path d="M500.799 1330.15C502.633 1330.38 504.699 1330.55 506.999 1330.65C509.299 1330.75 511.766 1330.8 514.399 1330.8C516.066 1330.8 517.766 1330.77 519.499 1330.7C521.233 1330.63 522.916 1330.55 524.549 1330.45C526.183 1330.32 527.633 1330.2 528.899 1330.1V1336.75C527.733 1336.82 526.316 1336.9 524.649 1337C523.016 1337.1 521.299 1337.18 519.499 1337.25C517.733 1337.32 516.049 1337.35 514.449 1337.35C511.849 1337.35 509.433 1337.3 507.199 1337.2C504.966 1337.07 502.833 1336.93 500.799 1336.8V1330.15ZM504.999 1351.35C504.766 1352.22 504.566 1353.07 504.399 1353.9C504.233 1354.73 504.149 1355.57 504.149 1356.4C504.149 1358.03 504.949 1359.37 506.549 1360.4C508.183 1361.4 510.799 1361.9 514.399 1361.9C516.666 1361.9 518.849 1361.82 520.949 1361.65C523.083 1361.48 525.083 1361.27 526.949 1361C528.816 1360.7 530.483 1360.35 531.949 1359.95L531.999 1366.95C530.566 1367.28 528.933 1367.58 527.099 1367.85C525.299 1368.12 523.349 1368.32 521.249 1368.45C519.183 1368.62 516.983 1368.7 514.649 1368.7C510.816 1368.7 507.633 1368.27 505.099 1367.4C502.566 1366.57 500.649 1365.37 499.349 1363.8C498.083 1362.2 497.449 1360.25 497.449 1357.95C497.449 1356.52 497.566 1355.2 497.799 1354C498.033 1352.77 498.233 1351.68 498.399 1350.75L504.999 1351.35ZM530.199 1325C530.633 1325.6 531.083 1326.32 531.549 1327.15C532.049 1327.98 532.533 1328.82 532.999 1329.65C533.466 1330.48 533.866 1331.22 534.199 1331.85L530.149 1333.6C529.649 1332.57 529.033 1331.38 528.299 1330.05C527.599 1328.72 526.916 1327.57 526.249 1326.6L530.199 1325ZM536.149 1322.75C536.583 1323.38 537.049 1324.12 537.549 1324.95C538.049 1325.78 538.533 1326.62 538.999 1327.45C539.499 1328.25 539.899 1328.95 540.199 1329.55L536.199 1331.25C535.666 1330.22 535.033 1329.05 534.299 1327.75C533.566 1326.42 532.849 1325.28 532.149 1324.35L536.149 1322.75Z" fill="black"/>
<path d="M465.301 1325.9C465.134 1326.8 464.867 1327.97 464.501 1329.4C464.134 1330.83 463.601 1332.45 462.901 1334.25C462.367 1335.48 461.751 1336.77 461.051 1338.1C460.384 1339.4 459.701 1340.57 459.001 1341.6C459.434 1341.4 459.984 1341.23 460.651 1341.1C461.317 1340.93 462.001 1340.82 462.701 1340.75C463.434 1340.65 464.084 1340.6 464.651 1340.6C466.751 1340.6 468.484 1341.2 469.851 1342.4C471.251 1343.6 471.951 1345.38 471.951 1347.75C471.951 1348.42 471.951 1349.23 471.951 1350.2C471.984 1351.17 472.017 1352.18 472.051 1353.25C472.084 1354.28 472.117 1355.3 472.151 1356.3C472.184 1357.3 472.201 1358.2 472.201 1359H466.201C466.267 1358.43 466.301 1357.77 466.301 1357C466.334 1356.2 466.351 1355.37 466.351 1354.5C466.384 1353.63 466.401 1352.8 466.401 1352C466.434 1351.17 466.451 1350.42 466.451 1349.75C466.451 1348.15 466.017 1347.05 465.151 1346.45C464.317 1345.82 463.384 1345.5 462.351 1345.5C460.951 1345.5 459.534 1345.85 458.101 1346.55C456.701 1347.22 455.517 1348.02 454.551 1348.95C453.817 1349.68 453.067 1350.5 452.301 1351.4C451.567 1352.3 450.767 1353.32 449.901 1354.45L444.551 1350.45C446.717 1348.45 448.584 1346.52 450.151 1344.65C451.751 1342.78 453.101 1340.93 454.201 1339.1C455.301 1337.27 456.201 1335.43 456.901 1333.6C457.401 1332.27 457.801 1330.88 458.101 1329.45C458.434 1327.98 458.634 1326.62 458.701 1325.35L465.301 1325.9ZM446.501 1330.5C447.767 1330.7 449.234 1330.85 450.901 1330.95C452.567 1331.05 454.034 1331.1 455.301 1331.1C457.501 1331.1 459.901 1331.05 462.501 1330.95C465.134 1330.85 467.801 1330.68 470.501 1330.45C473.201 1330.18 475.767 1329.85 478.201 1329.45L478.151 1335.25C476.384 1335.48 474.467 1335.7 472.401 1335.9C470.367 1336.07 468.284 1336.22 466.151 1336.35C464.051 1336.45 462.034 1336.53 460.101 1336.6C458.167 1336.63 456.451 1336.65 454.951 1336.65C454.284 1336.65 453.451 1336.65 452.451 1336.65C451.484 1336.62 450.484 1336.58 449.451 1336.55C448.417 1336.48 447.434 1336.42 446.501 1336.35V1330.5ZM486.101 1344.7C485.567 1344.87 484.934 1345.08 484.201 1345.35C483.501 1345.58 482.784 1345.83 482.051 1346.1C481.351 1346.33 480.717 1346.57 480.151 1346.8C478.551 1347.43 476.651 1348.2 474.451 1349.1C472.284 1350 470.017 1351.05 467.651 1352.25C466.151 1353.05 464.884 1353.83 463.851 1354.6C462.817 1355.37 462.034 1356.15 461.501 1356.95C460.967 1357.72 460.701 1358.57 460.701 1359.5C460.701 1360.2 460.851 1360.78 461.151 1361.25C461.451 1361.68 461.901 1362.03 462.501 1362.3C463.101 1362.57 463.851 1362.75 464.751 1362.85C465.651 1362.95 466.717 1363 467.951 1363C470.084 1363 472.434 1362.88 475.001 1362.65C477.567 1362.38 479.951 1362.03 482.151 1361.6L481.951 1368.05C480.884 1368.18 479.534 1368.32 477.901 1368.45C476.267 1368.62 474.567 1368.73 472.801 1368.8C471.067 1368.87 469.401 1368.9 467.801 1368.9C465.201 1368.9 462.867 1368.65 460.801 1368.15C458.734 1367.65 457.101 1366.8 455.901 1365.6C454.734 1364.37 454.151 1362.68 454.151 1360.55C454.151 1358.82 454.534 1357.25 455.301 1355.85C456.101 1354.45 457.151 1353.18 458.451 1352.05C459.751 1350.92 461.167 1349.9 462.701 1349C464.267 1348.07 465.801 1347.22 467.301 1346.45C468.834 1345.65 470.217 1344.97 471.451 1344.4C472.684 1343.83 473.834 1343.33 474.901 1342.9C476.001 1342.43 477.051 1341.97 478.051 1341.5C479.017 1341.07 479.951 1340.65 480.851 1340.25C481.751 1339.82 482.667 1339.37 483.601 1338.9L486.101 1344.7Z" fill="black"/>
<path d="M412.75 1323.5H418.85V1364.75C418.85 1366.22 418.65 1367.32 418.25 1368.05C417.85 1368.78 417.167 1369.37 416.2 1369.8C415.234 1370.17 414.034 1370.4 412.6 1370.5C411.2 1370.6 409.434 1370.65 407.3 1370.65C407.167 1369.95 406.9 1369.13 406.5 1368.2C406.1 1367.3 405.7 1366.53 405.3 1365.9C406.134 1365.93 406.967 1365.97 407.8 1366C408.634 1366 409.384 1366 410.05 1366C410.75 1366 411.234 1366 411.5 1366C411.967 1365.97 412.284 1365.87 412.45 1365.7C412.65 1365.53 412.75 1365.22 412.75 1364.75V1323.5ZM394.05 1326.8H438.05V1331.5H394.05V1326.8ZM404.9 1337.35V1339.7H426.95V1337.35H404.9ZM399.15 1333.55H433.1V1343.5H399.15V1333.55ZM397.95 1345.75H433.95V1365.3H427.85V1349.8H397.95V1345.75ZM392.9 1351.95H439.2V1356.5H392.9V1351.95ZM397.55 1358.8H431.15V1363.15H397.55V1358.8Z" fill="black"/>
<path d="M365.8 1328.65C364.367 1330.32 362.584 1332 360.45 1333.7C358.317 1335.4 355.984 1337.02 353.45 1338.55C350.917 1340.05 348.317 1341.38 345.65 1342.55C345.417 1342.08 345.1 1341.55 344.7 1340.95C344.3 1340.32 343.884 1339.72 343.45 1339.15C343.017 1338.55 342.584 1338.03 342.15 1337.6C344.917 1336.53 347.6 1335.22 350.2 1333.65C352.8 1332.08 355.167 1330.42 357.3 1328.65C359.434 1326.85 361.167 1325.08 362.5 1323.35H368.55C369.95 1324.95 371.484 1326.45 373.15 1327.85C374.85 1329.22 376.617 1330.48 378.45 1331.65C380.284 1332.82 382.167 1333.87 384.1 1334.8C386.067 1335.7 388.034 1336.47 390 1337.1C389.3 1337.83 388.617 1338.68 387.95 1339.65C387.284 1340.62 386.7 1341.53 386.2 1342.4C383.8 1341.37 381.317 1340.12 378.75 1338.65C376.184 1337.15 373.767 1335.53 371.5 1333.8C369.234 1332.07 367.334 1330.35 365.8 1328.65ZM354.8 1344.55H376.8V1348.85H354.8V1344.55ZM362.8 1333.45H369V1340.2H362.8V1333.45ZM345.85 1364.5C347.75 1364.33 349.884 1364.17 352.25 1364C354.65 1363.8 357.167 1363.6 359.8 1363.4C362.434 1363.17 365.05 1362.93 367.65 1362.7L367.75 1368C365.284 1368.23 362.784 1368.47 360.25 1368.7C357.75 1368.97 355.334 1369.2 353 1369.4C350.7 1369.63 348.584 1369.83 346.65 1370L345.85 1364.5ZM367.55 1354.45C369.35 1357.48 372.067 1359.9 375.7 1361.7C379.367 1363.47 383.8 1364.65 389 1365.25C388.6 1365.68 388.167 1366.2 387.7 1366.8C387.234 1367.43 386.8 1368.07 386.4 1368.7C386 1369.37 385.667 1369.97 385.4 1370.5C381.7 1369.9 378.4 1368.97 375.5 1367.7C372.6 1366.43 370.084 1364.83 367.95 1362.9C365.817 1360.93 364 1358.57 362.5 1355.8L367.55 1354.45ZM382.3 1353.4L386.65 1357C385.384 1357.87 384.034 1358.73 382.6 1359.6C381.167 1360.43 379.734 1361.22 378.3 1361.95C376.867 1362.65 375.517 1363.28 374.25 1363.85L370.7 1360.6C371.934 1360 373.25 1359.3 374.65 1358.5C376.05 1357.67 377.434 1356.82 378.8 1355.95C380.167 1355.05 381.334 1354.2 382.3 1353.4ZM354.8 1337.25H380.85V1356.25H354.8V1351.6H374.75V1341.95H354.8V1337.25ZM351.05 1337.25H357V1365.2L351.05 1365.8V1337.25Z" fill="black"/>
<path d="M312.801 1325.4C312.767 1325.67 312.717 1326.08 312.651 1326.65C312.584 1327.18 312.517 1327.73 312.451 1328.3C312.417 1328.83 312.384 1329.32 312.351 1329.75C312.284 1330.72 312.217 1331.78 312.151 1332.95C312.117 1334.08 312.084 1335.27 312.051 1336.5C312.017 1337.7 311.984 1338.92 311.951 1340.15C311.951 1341.38 311.951 1342.58 311.951 1343.75C311.951 1345.12 311.967 1346.63 312.001 1348.3C312.034 1349.93 312.067 1351.57 312.101 1353.2C312.167 1354.8 312.201 1356.27 312.201 1357.6C312.234 1358.93 312.251 1359.97 312.251 1360.7C312.251 1362.77 312.017 1364.37 311.551 1365.5C311.117 1366.63 310.484 1367.42 309.651 1367.85C308.817 1368.32 307.851 1368.55 306.751 1368.55C305.551 1368.55 304.267 1368.3 302.901 1367.8C301.534 1367.33 300.251 1366.67 299.051 1365.8C297.884 1364.93 296.917 1363.93 296.151 1362.8C295.417 1361.63 295.051 1360.38 295.051 1359.05C295.051 1357.45 295.651 1355.87 296.851 1354.3C298.084 1352.7 299.701 1351.23 301.701 1349.9C303.734 1348.57 305.917 1347.5 308.251 1346.7C310.484 1345.87 312.784 1345.27 315.151 1344.9C317.517 1344.5 319.651 1344.3 321.551 1344.3C324.117 1344.3 326.434 1344.73 328.501 1345.6C330.567 1346.43 332.217 1347.67 333.451 1349.3C334.684 1350.93 335.301 1352.9 335.301 1355.2C335.301 1357.13 334.934 1358.92 334.201 1360.55C333.467 1362.18 332.284 1363.6 330.651 1364.8C329.051 1365.97 326.917 1366.88 324.251 1367.55C323.117 1367.78 321.984 1367.95 320.851 1368.05C319.751 1368.18 318.701 1368.28 317.701 1368.35L315.401 1361.9C316.534 1361.9 317.617 1361.88 318.651 1361.85C319.717 1361.78 320.684 1361.68 321.551 1361.55C322.917 1361.28 324.151 1360.88 325.251 1360.35C326.351 1359.82 327.217 1359.12 327.851 1358.25C328.484 1357.38 328.801 1356.35 328.801 1355.15C328.801 1354.02 328.484 1353.05 327.851 1352.25C327.251 1351.45 326.401 1350.83 325.301 1350.4C324.201 1349.97 322.917 1349.75 321.451 1349.75C319.351 1349.75 317.217 1349.97 315.051 1350.4C312.917 1350.83 310.867 1351.43 308.901 1352.2C307.434 1352.77 306.117 1353.43 304.951 1354.2C303.784 1354.93 302.867 1355.7 302.201 1356.5C301.534 1357.3 301.201 1358.07 301.201 1358.8C301.201 1359.2 301.317 1359.58 301.551 1359.95C301.817 1360.28 302.151 1360.58 302.551 1360.85C302.951 1361.12 303.351 1361.33 303.751 1361.5C304.184 1361.63 304.551 1361.7 304.851 1361.7C305.317 1361.7 305.701 1361.57 306.001 1361.3C306.301 1361 306.451 1360.43 306.451 1359.6C306.451 1358.7 306.417 1357.42 306.351 1355.75C306.317 1354.05 306.267 1352.17 306.201 1350.1C306.167 1348.03 306.151 1345.98 306.151 1343.95C306.151 1342.55 306.151 1341.13 306.151 1339.7C306.184 1338.27 306.201 1336.9 306.201 1335.6C306.201 1334.3 306.201 1333.15 306.201 1332.15C306.234 1331.15 306.251 1330.37 306.251 1329.8C306.251 1329.43 306.234 1328.97 306.201 1328.4C306.167 1327.83 306.117 1327.27 306.051 1326.7C306.017 1326.1 305.967 1325.67 305.901 1325.4H312.801ZM327.051 1330.8C328.317 1331.4 329.734 1332.13 331.301 1333C332.901 1333.87 334.417 1334.73 335.851 1335.6C337.317 1336.43 338.484 1337.18 339.351 1337.85L336.351 1342.95C335.717 1342.42 334.884 1341.82 333.851 1341.15C332.851 1340.48 331.751 1339.8 330.551 1339.1C329.384 1338.4 328.251 1337.75 327.151 1337.15C326.051 1336.52 325.101 1336.02 324.301 1335.65L327.051 1330.8ZM296.401 1333.55C297.867 1333.72 299.151 1333.83 300.251 1333.9C301.384 1333.93 302.401 1333.95 303.301 1333.95C304.601 1333.95 306.034 1333.9 307.601 1333.8C309.167 1333.67 310.767 1333.5 312.401 1333.3C314.034 1333.07 315.617 1332.8 317.151 1332.5C318.717 1332.2 320.134 1331.87 321.401 1331.5L321.551 1337.7C320.151 1338.03 318.634 1338.33 317.001 1338.6C315.367 1338.83 313.717 1339.05 312.051 1339.25C310.417 1339.45 308.851 1339.6 307.351 1339.7C305.884 1339.8 304.601 1339.85 303.501 1339.85C301.834 1339.85 300.467 1339.83 299.401 1339.8C298.334 1339.77 297.367 1339.7 296.501 1339.6L296.401 1333.55Z" fill="black"/>
<path d="M742.144 1138.61C741.102 1139.27 739.99 1139.91 738.807 1140.53C737.671 1141.14 736.44 1141.78 735.115 1142.44C734.026 1143.01 732.677 1143.67 731.068 1144.43C729.506 1145.19 727.802 1146.04 725.956 1146.99C724.157 1147.89 722.335 1148.86 720.489 1149.9C718.643 1150.89 716.915 1151.91 715.306 1152.95C712.371 1154.89 709.981 1156.9 708.135 1158.99C706.336 1161.07 705.437 1163.36 705.437 1165.87C705.437 1168.38 706.667 1170.32 709.129 1171.69C711.59 1173.02 715.282 1173.68 720.205 1173.68C722.666 1173.68 725.269 1173.59 728.015 1173.4C730.807 1173.16 733.553 1172.85 736.251 1172.48C738.949 1172.05 741.339 1171.58 743.422 1171.06L743.28 1181.28C741.292 1181.61 739.114 1181.92 736.748 1182.2C734.428 1182.49 731.896 1182.7 729.151 1182.84C726.453 1182.98 723.565 1183.05 720.489 1183.05C716.939 1183.05 713.649 1182.77 710.62 1182.2C707.638 1181.68 705.011 1180.81 702.739 1179.58C700.514 1178.34 698.763 1176.69 697.485 1174.61C696.254 1172.52 695.639 1169.97 695.639 1166.94C695.639 1163.91 696.301 1161.16 697.627 1158.7C698.952 1156.24 700.751 1153.97 703.023 1151.89C705.342 1149.8 707.874 1147.84 710.62 1145.99C712.324 1144.86 714.122 1143.77 716.016 1142.73C717.909 1141.64 719.755 1140.6 721.554 1139.6C723.4 1138.61 725.104 1137.71 726.666 1136.9C728.275 1136.05 729.6 1135.32 730.642 1134.7C732.014 1133.9 733.221 1133.16 734.263 1132.5C735.304 1131.84 736.298 1131.13 737.245 1130.37L742.144 1138.61ZM706.431 1123.41C707.614 1126.54 708.845 1129.54 710.123 1132.43C711.448 1135.32 712.75 1138.02 714.028 1140.53C715.353 1143.03 716.56 1145.28 717.649 1147.27L709.626 1152.03C708.348 1149.85 707.022 1147.41 705.65 1144.71C704.277 1142.02 702.904 1139.18 701.532 1136.19C700.159 1133.16 698.834 1130.11 697.556 1127.04L706.431 1123.41Z" fill="black"/>
<path d="M630.459 1129.24C630.27 1130.09 630.104 1131.06 629.962 1132.15C629.868 1133.24 629.773 1134.3 629.678 1135.34C629.631 1136.38 629.607 1137.24 629.607 1137.9C629.56 1139.46 629.536 1141.07 629.536 1142.73C629.584 1144.38 629.631 1146.09 629.678 1147.84C629.773 1149.54 629.891 1151.25 630.033 1152.95C630.365 1156.36 630.838 1159.36 631.453 1161.97C632.069 1164.57 632.873 1166.61 633.867 1168.07C634.861 1169.49 636.116 1170.2 637.63 1170.2C638.435 1170.2 639.216 1169.75 639.973 1168.85C640.778 1167.95 641.488 1166.79 642.103 1165.37C642.766 1163.91 643.334 1162.37 643.807 1160.76C644.328 1159.15 644.778 1157.64 645.156 1156.22L652.256 1164.88C650.694 1169 649.132 1172.29 647.57 1174.75C646.056 1177.16 644.47 1178.91 642.813 1180C641.157 1181.04 639.358 1181.56 637.417 1181.56C634.861 1181.56 632.424 1180.71 630.104 1179.01C627.832 1177.3 625.892 1174.56 624.282 1170.77C622.673 1166.94 621.537 1161.85 620.874 1155.51C620.638 1153.33 620.448 1151.03 620.306 1148.62C620.212 1146.2 620.141 1143.91 620.093 1141.73C620.093 1139.55 620.093 1137.76 620.093 1136.34C620.093 1135.34 620.046 1134.16 619.951 1132.79C619.857 1131.41 619.715 1130.18 619.525 1129.09L630.459 1129.24ZM665.959 1130.87C667.285 1132.48 668.563 1134.44 669.793 1136.76C671.024 1139.08 672.16 1141.57 673.201 1144.22C674.243 1146.87 675.166 1149.59 675.97 1152.38C676.775 1155.13 677.414 1157.83 677.887 1160.48C678.408 1163.08 678.739 1165.47 678.881 1167.65L669.509 1171.27C669.273 1168.38 668.847 1165.23 668.231 1161.82C667.616 1158.42 666.788 1154.99 665.746 1151.53C664.705 1148.07 663.451 1144.81 661.983 1141.73C660.563 1138.66 658.883 1136 656.942 1133.78L665.959 1130.87Z" fill="black"/>
<path d="M564.714 1122.84C566.418 1123.36 568.548 1123.91 571.104 1124.48C573.66 1125.04 576.335 1125.61 579.127 1126.18C581.92 1126.7 584.547 1127.15 587.008 1127.53C589.517 1127.91 591.552 1128.19 593.114 1128.38L590.984 1137.04C589.564 1136.85 587.836 1136.59 585.801 1136.26C583.813 1135.88 581.683 1135.48 579.411 1135.06C577.186 1134.63 574.986 1134.2 572.808 1133.78C570.631 1133.3 568.643 1132.85 566.844 1132.43C565.045 1132 563.578 1131.65 562.442 1131.36L564.714 1122.84ZM565.14 1137.11C564.904 1138.06 564.643 1139.29 564.359 1140.81C564.123 1142.27 563.886 1143.81 563.649 1145.42C563.413 1147.03 563.176 1148.57 562.939 1150.04C562.75 1151.5 562.584 1152.73 562.442 1153.73C565.661 1151.41 569.022 1149.71 572.524 1148.62C576.074 1147.53 579.695 1146.98 583.387 1146.98C587.552 1146.98 591.103 1147.74 594.037 1149.26C596.972 1150.77 599.196 1152.76 600.711 1155.22C602.273 1157.68 603.054 1160.36 603.054 1163.24C603.054 1166.46 602.368 1169.44 600.995 1172.19C599.622 1174.93 597.374 1177.28 594.25 1179.22C591.126 1181.16 587.032 1182.53 581.967 1183.34C576.902 1184.14 570.678 1184.24 563.294 1183.62L560.596 1174.32C567.696 1175.27 573.66 1175.41 578.488 1174.74C583.316 1174.03 586.961 1172.66 589.422 1170.63C591.931 1168.54 593.185 1166.01 593.185 1163.03C593.185 1161.47 592.735 1160.1 591.836 1158.91C590.937 1157.68 589.682 1156.73 588.073 1156.07C586.464 1155.36 584.642 1155.01 582.606 1155.01C578.63 1155.01 574.891 1155.74 571.388 1157.21C567.933 1158.63 565.093 1160.69 562.868 1163.38C562.253 1164.14 561.732 1164.85 561.306 1165.51C560.928 1166.13 560.572 1166.79 560.241 1167.5L552.076 1165.44C552.36 1164.07 552.644 1162.46 552.928 1160.62C553.212 1158.72 553.496 1156.71 553.78 1154.58C554.064 1152.4 554.325 1150.23 554.561 1148.05C554.798 1145.87 555.011 1143.72 555.2 1141.59C555.389 1139.46 555.532 1137.52 555.626 1135.77L565.14 1137.11Z" fill="black"/>
<path d="M498.4 1122.56C498.211 1123.6 498.045 1124.83 497.903 1126.25C497.761 1127.63 497.69 1129.38 497.69 1131.51C497.69 1132.36 497.69 1133.73 497.69 1135.63C497.69 1137.47 497.69 1139.51 497.69 1141.73C497.69 1143.91 497.69 1146.04 497.69 1148.12C497.69 1150.16 497.69 1151.77 497.69 1152.95L489.17 1149.61C489.17 1148.38 489.17 1146.94 489.17 1145.28C489.17 1143.63 489.17 1141.92 489.17 1140.17C489.17 1138.37 489.17 1136.72 489.17 1135.2C489.17 1133.64 489.17 1132.41 489.17 1131.51C489.17 1129.28 489.123 1127.51 489.028 1126.18C488.934 1124.81 488.744 1123.6 488.46 1122.56H498.4ZM522.256 1129.09C523.345 1129.8 524.576 1130.73 525.948 1131.86C527.368 1133 528.788 1134.23 530.208 1135.56C531.676 1136.83 533.025 1138.11 534.255 1139.39C535.486 1140.62 536.504 1141.71 537.308 1142.66L530.918 1149.19C529.64 1147.58 528.102 1145.87 526.303 1144.08C524.552 1142.28 522.777 1140.57 520.978 1138.96C519.227 1137.31 517.665 1135.98 516.292 1134.99L522.256 1129.09ZM475.609 1131.15C477.55 1131.39 479.514 1131.6 481.502 1131.79C483.538 1131.98 485.384 1132.08 487.04 1132.08C490.59 1132.08 494.353 1131.84 498.329 1131.37C502.305 1130.85 506.329 1130.04 510.399 1128.95V1137.47C507.654 1138.09 504.838 1138.58 501.95 1138.96C499.11 1139.34 496.436 1139.63 493.927 1139.82C491.466 1139.96 489.383 1140.03 487.679 1140.03C486.165 1140.03 484.437 1139.98 482.496 1139.89C480.556 1139.79 478.426 1139.65 476.106 1139.46L475.609 1131.15ZM496.128 1164.1C496.128 1164.57 496.105 1165.21 496.057 1166.01C496.057 1166.77 496.057 1167.58 496.057 1168.43C496.057 1169.28 496.057 1170.06 496.057 1170.77C496.057 1171.53 496.128 1172.22 496.27 1172.83C496.46 1173.4 496.838 1173.87 497.406 1174.25C498.022 1174.63 498.945 1174.91 500.175 1175.1C501.453 1175.29 503.134 1175.39 505.216 1175.39C506.447 1175.39 507.725 1175.34 509.05 1175.24C510.376 1175.15 511.654 1175.01 512.884 1174.82C514.162 1174.63 515.227 1174.39 516.079 1174.11C517.925 1173.59 519.251 1172.74 520.055 1171.55C520.907 1170.32 521.333 1168.81 521.333 1167.01C521.333 1165.59 521.286 1164.19 521.191 1162.82C521.144 1161.4 521.002 1159.86 520.765 1158.2L530.634 1161.19C530.634 1162.42 530.634 1163.48 530.634 1164.38C530.634 1165.23 530.634 1166.06 530.634 1166.87C530.634 1167.62 530.587 1168.5 530.492 1169.49C530.398 1171.62 530.043 1173.52 529.427 1175.17C528.812 1176.78 527.771 1178.18 526.303 1179.36C524.836 1180.55 522.73 1181.56 519.984 1182.42C518.943 1182.75 517.499 1183.03 515.653 1183.27C513.855 1183.5 511.961 1183.67 509.973 1183.76C508.033 1183.91 506.234 1183.98 504.577 1183.98C501.264 1183.98 498.542 1183.79 496.412 1183.41C494.282 1183.03 492.578 1182.49 491.3 1181.78C490.07 1181.11 489.17 1180.36 488.602 1179.5C488.082 1178.61 487.727 1177.68 487.537 1176.74C487.395 1175.74 487.324 1174.75 487.324 1173.75C487.324 1172.52 487.324 1171.29 487.324 1170.06C487.372 1168.78 487.419 1167.65 487.466 1166.65L496.128 1164.1ZM499.749 1155.93C499.749 1158.02 499.489 1160.05 498.968 1162.04C498.495 1163.98 497.714 1165.73 496.625 1167.29C495.537 1168.81 494.14 1170.04 492.436 1170.98C490.732 1171.88 488.65 1172.33 486.188 1172.33C484.484 1172.33 482.828 1171.91 481.218 1171.06C479.609 1170.16 478.284 1168.78 477.242 1166.94C476.248 1165.04 475.751 1162.58 475.751 1159.55C475.751 1156.76 476.296 1154.25 477.384 1152.03C478.52 1149.8 480.082 1148.05 482.07 1146.77C484.058 1145.5 486.33 1144.86 488.886 1144.86C492.531 1144.86 495.253 1145.9 497.051 1147.98C498.85 1150.02 499.749 1152.67 499.749 1155.93ZM487.111 1163.81C488.2 1163.81 489.076 1163.48 489.738 1162.82C490.401 1162.11 490.874 1161.19 491.158 1160.05C491.49 1158.87 491.655 1157.64 491.655 1156.36C491.655 1154.94 491.348 1153.85 490.732 1153.09C490.117 1152.34 489.312 1151.96 488.318 1151.96C487.419 1151.96 486.567 1152.24 485.762 1152.81C484.958 1153.38 484.319 1154.18 483.845 1155.22C483.419 1156.26 483.206 1157.49 483.206 1158.91C483.206 1160.48 483.585 1161.68 484.342 1162.54C485.147 1163.39 486.07 1163.81 487.111 1163.81Z" fill="black"/>
<path d="M417.459 1129.24C417.27 1130.09 417.104 1131.06 416.962 1132.15C416.868 1133.24 416.773 1134.3 416.678 1135.34C416.631 1136.38 416.607 1137.24 416.607 1137.9C416.56 1139.46 416.536 1141.07 416.536 1142.73C416.584 1144.38 416.631 1146.09 416.678 1147.84C416.773 1149.54 416.891 1151.25 417.033 1152.95C417.365 1156.36 417.838 1159.36 418.453 1161.97C419.069 1164.57 419.873 1166.61 420.867 1168.07C421.861 1169.49 423.116 1170.2 424.63 1170.2C425.435 1170.2 426.216 1169.75 426.973 1168.85C427.778 1167.95 428.488 1166.79 429.103 1165.37C429.766 1163.91 430.334 1162.37 430.807 1160.76C431.328 1159.15 431.778 1157.64 432.156 1156.22L439.256 1164.88C437.694 1169 436.132 1172.29 434.57 1174.75C433.056 1177.16 431.47 1178.91 429.813 1180C428.157 1181.04 426.358 1181.56 424.417 1181.56C421.861 1181.56 419.424 1180.71 417.104 1179.01C414.832 1177.3 412.892 1174.56 411.282 1170.77C409.673 1166.94 408.537 1161.85 407.874 1155.51C407.638 1153.33 407.448 1151.03 407.306 1148.62C407.212 1146.2 407.141 1143.91 407.093 1141.73C407.093 1139.55 407.093 1137.76 407.093 1136.34C407.093 1135.34 407.046 1134.16 406.951 1132.79C406.857 1131.41 406.715 1130.18 406.525 1129.09L417.459 1129.24ZM452.959 1130.87C454.285 1132.48 455.563 1134.44 456.793 1136.76C458.024 1139.08 459.16 1141.57 460.201 1144.22C461.243 1146.87 462.166 1149.59 462.97 1152.38C463.775 1155.13 464.414 1157.83 464.887 1160.48C465.408 1163.08 465.739 1165.47 465.881 1167.65L456.509 1171.27C456.273 1168.38 455.847 1165.23 455.231 1161.82C454.616 1158.42 453.788 1154.99 452.746 1151.53C451.705 1148.07 450.451 1144.81 448.983 1141.73C447.563 1138.66 445.883 1136 443.942 1133.78L452.959 1130.87Z" fill="black"/>
<path d="M351.714 1122.84C353.418 1123.36 355.548 1123.91 358.104 1124.48C360.66 1125.04 363.335 1125.61 366.127 1126.18C368.92 1126.7 371.547 1127.15 374.008 1127.53C376.517 1127.91 378.552 1128.19 380.114 1128.38L377.984 1137.04C376.564 1136.85 374.837 1136.59 372.801 1136.26C370.813 1135.88 368.683 1135.48 366.411 1135.06C364.187 1134.63 361.986 1134.2 359.808 1133.78C357.631 1133.3 355.643 1132.85 353.844 1132.43C352.046 1132 350.578 1131.65 349.442 1131.36L351.714 1122.84ZM352.14 1137.11C351.904 1138.06 351.643 1139.29 351.359 1140.81C351.123 1142.27 350.886 1143.81 350.649 1145.42C350.413 1147.03 350.176 1148.57 349.939 1150.04C349.75 1151.5 349.584 1152.73 349.442 1153.73C352.661 1151.41 356.022 1149.71 359.524 1148.62C363.074 1147.53 366.695 1146.98 370.387 1146.98C374.553 1146.98 378.103 1147.74 381.037 1149.26C383.972 1150.77 386.197 1152.76 387.711 1155.22C389.273 1157.68 390.054 1160.36 390.054 1163.24C390.054 1166.46 389.368 1169.44 387.995 1172.19C386.623 1174.93 384.374 1177.28 381.25 1179.22C378.126 1181.16 374.032 1182.53 368.967 1183.34C363.903 1184.14 357.678 1184.24 350.294 1183.62L347.596 1174.32C354.696 1175.27 360.66 1175.41 365.488 1174.74C370.316 1174.03 373.961 1172.66 376.422 1170.63C378.931 1168.54 380.185 1166.01 380.185 1163.03C380.185 1161.47 379.736 1160.1 378.836 1158.91C377.937 1157.68 376.683 1156.73 375.073 1156.07C373.464 1155.36 371.642 1155.01 369.606 1155.01C365.63 1155.01 361.891 1155.74 358.388 1157.21C354.933 1158.63 352.093 1160.69 349.868 1163.38C349.253 1164.14 348.732 1164.85 348.306 1165.51C347.928 1166.13 347.573 1166.79 347.241 1167.5L339.076 1165.44C339.36 1164.07 339.644 1162.46 339.928 1160.62C340.212 1158.72 340.496 1156.71 340.78 1154.58C341.064 1152.4 341.325 1150.23 341.561 1148.05C341.798 1145.87 342.011 1143.72 342.2 1141.59C342.39 1139.46 342.532 1137.52 342.626 1135.77L352.14 1137.11Z" fill="black"/>
</svg>
