<svg width="1080" height="1920" viewBox="0 0 1080 1920" fill="none" xmlns="http://www.w3.org/2000/svg">
<path d="M1080 1920L1080 0L0 0L0 1920H1080Z" fill="#A5D4AD"/>
<path d="M1020 983.72V95C1020 75.67 1004.33 60 985 60H95.58C75.93 60 60 75.93 60 95.58V983.71C60 984.03 60.25 984.28 60.57 984.28C80.03 984.59 95.71 1000.46 95.71 1019.99C95.71 1039.52 80.03 1055.39 60.57 1055.7C60.25 1055.7 60 1055.96 60 1056.27V1824.99C60 1844.32 75.67 1859.99 95 1859.99H985C1004.33 1859.99 1020 1844.32 1020 1824.99V1056.27C1020 1055.95 1019.75 1055.7 1019.43 1055.7C999.97 1055.39 984.29 1039.52 984.29 1019.99C984.29 1000.46 999.97 984.59 1019.43 984.28C1019.75 984.28 1020 984.02 1020 983.71V983.72Z" fill="white"/>
<path d="M60.57 1055.71C60.25 1055.71 60 1055.97 60 1056.28V1825C60 1844.33 75.67 1860 95 1860H985C1004.33 1860 1020 1844.33 1020 1825V1056.28C1020 1055.96 1019.75 1055.71 1019.43 1055.71C999.97 1055.4 984.29 1039.53 984.29 1020H95.71C95.71 1039.53 80.03 1055.4 60.57 1055.71Z" fill="#E5F2E6"/>
<path d="M121 1020H160.9" stroke="black" stroke-width="6" stroke-miterlimit="10"/>
<path d="M187.51 1020H227.41" stroke="black" stroke-width="6" stroke-miterlimit="10"/>
<path d="M254.02 1020H293.92" stroke="black" stroke-width="6" stroke-miterlimit="10"/>
<path d="M320.52 1020H360.43" stroke="black" stroke-width="6" stroke-miterlimit="10"/>
<path d="M387.029 1020H426.939" stroke="black" stroke-width="6" stroke-miterlimit="10"/>
<path d="M453.539 1020H493.439" stroke="black" stroke-width="6" stroke-miterlimit="10"/>
<path d="M520.051 1020H559.951" stroke="black" stroke-width="6" stroke-miterlimit="10"/>
<path d="M586.561 1020H626.461" stroke="black" stroke-width="6" stroke-miterlimit="10"/>
<path d="M653.061 1020H692.971" stroke="black" stroke-width="6" stroke-miterlimit="10"/>
<path d="M719.57 1020H759.48" stroke="black" stroke-width="6" stroke-miterlimit="10"/>
<path d="M786.08 1020H825.98" stroke="black" stroke-width="6" stroke-miterlimit="10"/>
<path d="M852.59 1020H892.49" stroke="black" stroke-width="6" stroke-miterlimit="10"/>
<path d="M919.1 1020H959" stroke="black" stroke-width="6" stroke-miterlimit="10"/>
<path d="M1020 984.29V95C1020 75.67 1004.33 60 985 60H95C75.67 60 60 75.67 60 95V984.29C79.72 984.29 95.71 1000.28 95.71 1020C95.71 1039.72 79.72 1055.71 60 1055.71V1825C60 1844.33 75.67 1860 95 1860H985C1004.33 1860 1020 1844.33 1020 1825V1055.71C1000.28 1055.71 984.29 1039.72 984.29 1020C984.29 1000.28 1000.28 984.29 1020 984.29Z" stroke="black" stroke-width="6" stroke-miterlimit="10"/>
<path d="M912.649 525.666C908.779 525.666 905.539 522.646 905.319 518.736C900.589 435.626 868.789 358.856 813.369 296.746C810.669 293.716 810.929 289.066 813.959 286.366C816.989 283.666 821.629 283.926 824.339 286.956C881.999 351.576 915.069 431.436 919.999 517.896C920.229 521.946 917.129 525.426 913.079 525.656C912.939 525.656 912.799 525.666 912.659 525.666H912.649Z" fill="black"/>
<path d="M818.849 795.517C817.109 795.517 815.359 794.897 813.959 793.647C810.929 790.947 810.669 786.297 813.369 783.267C868.789 721.157 900.589 644.387 905.319 561.277C905.549 557.227 909.029 554.117 913.079 554.357C917.129 554.587 920.229 558.057 919.999 562.117C915.069 648.587 881.999 728.447 824.339 793.057C822.889 794.687 820.869 795.517 818.849 795.517Z" fill="black"/>
<path d="M167.36 525.666C167.22 525.666 167.08 525.666 166.94 525.656C162.89 525.426 159.79 521.956 160.02 517.896C164.95 431.426 198.02 351.566 255.68 286.956C258.38 283.926 263.03 283.666 266.06 286.366C269.09 289.066 269.35 293.716 266.65 296.746C211.23 358.856 179.43 435.616 174.7 518.736C174.48 522.646 171.24 525.666 167.37 525.666H167.36Z" fill="black"/>
<path d="M261.17 795.517C259.15 795.517 257.13 794.687 255.68 793.057C198.02 728.437 164.95 648.577 160.02 562.117C159.79 558.067 162.89 554.587 166.94 554.357C170.99 554.117 174.47 557.227 174.7 561.277C179.43 644.397 211.23 721.157 266.65 783.267C269.35 786.297 269.09 790.947 266.06 793.647C264.66 794.897 262.91 795.517 261.17 795.517Z" fill="black"/>
<path d="M788.169 268.511C786.429 268.511 784.679 267.891 783.279 266.641C721.169 211.221 644.399 179.421 561.289 174.691C557.239 174.461 554.139 170.991 554.369 166.931C554.599 162.881 558.039 159.791 562.129 160.011C648.599 164.941 728.459 198.011 793.069 255.671C796.099 258.371 796.359 263.021 793.659 266.051C792.209 267.681 790.189 268.511 788.169 268.511Z" fill="black"/>
<path d="M291.85 268.512C289.83 268.512 287.81 267.682 286.36 266.052C283.66 263.022 283.92 258.372 286.95 255.672C351.57 198.012 431.43 164.942 517.89 160.012C521.94 159.782 525.42 162.882 525.65 166.932C525.88 170.982 522.78 174.462 518.73 174.692C435.62 179.422 358.85 211.222 296.74 266.642C295.34 267.892 293.59 268.512 291.85 268.512Z" fill="black"/>
<path d="M561.69 920.006C557.82 920.006 554.58 916.986 554.36 913.076C554.13 909.026 557.23 905.546 561.28 905.316C644.4 900.586 721.16 868.786 783.27 813.366C786.3 810.666 790.95 810.926 793.65 813.956C796.35 816.986 796.09 821.636 793.06 824.336C728.44 881.996 648.58 915.066 562.12 919.996C561.98 919.996 561.84 920.006 561.7 920.006H561.69Z" fill="black"/>
<path d="M518.319 920.006C518.179 920.006 518.04 920.006 517.9 919.996C431.43 915.066 351.569 881.996 286.959 824.336C283.929 821.636 283.669 816.986 286.369 813.956C289.069 810.926 293.719 810.666 296.749 813.366C358.859 868.786 435.629 900.586 518.739 905.316C522.789 905.546 525.889 909.016 525.659 913.076C525.439 916.986 522.199 920.006 518.329 920.006H518.319Z" fill="black"/>
<path d="M875.38 526.189C872.37 526.189 869.85 523.839 869.68 520.799C865.41 445.789 836.71 376.519 786.7 320.459C784.6 318.099 784.8 314.489 787.16 312.389C789.51 310.289 793.13 310.489 795.23 312.849C846.98 370.849 876.68 442.539 881.1 520.149C881.28 523.299 878.87 525.999 875.72 526.179C875.61 526.179 875.5 526.179 875.39 526.179L875.38 526.189Z" fill="black"/>
<path d="M790.96 769.062C789.6 769.062 788.25 768.582 787.16 767.612C784.8 765.512 784.6 761.892 786.7 759.542C836.71 703.492 865.41 634.212 869.68 559.202C869.86 556.052 872.55 553.642 875.71 553.822C878.86 554.002 881.27 556.702 881.09 559.852C876.67 637.472 846.98 709.152 795.22 767.152C794.09 768.422 792.52 769.062 790.95 769.062H790.96Z" fill="black"/>
<path d="M204.63 526.187C204.52 526.187 204.41 526.187 204.3 526.187C201.15 526.007 198.74 523.307 198.92 520.157C203.34 442.537 233.03 370.857 284.79 312.857C286.89 310.497 290.51 310.297 292.86 312.397C295.22 314.497 295.42 318.117 293.32 320.467C243.31 376.517 214.61 445.797 210.34 520.807C210.17 523.847 207.65 526.197 204.64 526.197L204.63 526.187Z" fill="black"/>
<path d="M289.05 769.055C287.48 769.055 285.91 768.405 284.78 767.145C233.03 709.145 203.33 637.455 198.91 559.845C198.73 556.695 201.14 553.995 204.29 553.815C207.45 553.625 210.14 556.045 210.32 559.195C214.59 634.205 243.29 703.485 293.3 759.535C295.4 761.895 295.2 765.505 292.84 767.605C291.75 768.575 290.39 769.055 289.04 769.055H289.05Z" fill="black"/>
<path d="M763.35 294.756C761.99 294.756 760.64 294.276 759.55 293.306C703.5 243.296 634.22 214.596 559.21 210.326C556.06 210.146 553.65 207.446 553.83 204.296C554.01 201.146 556.7 198.736 559.86 198.916C637.48 203.336 709.16 233.026 767.16 284.786C769.52 286.886 769.72 290.506 767.62 292.856C766.49 294.126 764.92 294.766 763.35 294.766V294.756Z" fill="black"/>
<path d="M316.659 294.759C315.089 294.759 313.519 294.109 312.389 292.849C310.289 290.489 310.489 286.879 312.849 284.779C370.849 233.029 442.539 203.329 520.149 198.909C523.299 198.719 525.999 201.139 526.179 204.289C526.359 207.439 523.949 210.139 520.799 210.319C445.789 214.589 376.519 243.289 320.459 293.299C319.369 294.269 318.009 294.749 316.659 294.749V294.759Z" fill="black"/>
<path d="M559.53 881.102C556.52 881.102 554 878.752 553.83 875.712C553.65 872.562 556.06 869.862 559.21 869.682C634.22 865.412 703.49 836.712 759.55 786.702C761.9 784.602 765.52 784.802 767.62 787.162C769.72 789.522 769.52 793.132 767.16 795.232C709.16 846.982 637.47 876.682 559.86 881.102C559.75 881.102 559.64 881.102 559.53 881.102Z" fill="black"/>
<path d="M520.489 881.102C520.379 881.102 520.269 881.102 520.159 881.102C442.539 876.682 370.859 846.992 312.859 795.232C310.499 793.132 310.299 789.512 312.399 787.162C314.499 784.802 318.119 784.602 320.469 786.702C376.519 836.722 445.799 865.412 520.809 869.682C523.959 869.862 526.369 872.562 526.189 875.712C526.019 878.752 523.499 881.102 520.489 881.102Z" fill="black"/>
<path d="M841.849 526.514C839.699 526.514 837.899 524.834 837.779 522.664C833.919 454.914 807.999 392.344 762.829 341.714C761.329 340.034 761.479 337.454 763.159 335.944C764.839 334.444 767.419 334.584 768.929 336.274C815.349 388.294 841.979 452.584 845.939 522.194C846.069 524.444 844.349 526.374 842.089 526.504C842.009 526.504 841.929 526.504 841.849 526.504V526.514Z" fill="black"/>
<path d="M765.869 745.106C764.899 745.106 763.929 744.766 763.149 744.066C761.469 742.566 761.319 739.986 762.819 738.296C807.989 687.666 833.909 625.096 837.769 557.346C837.899 555.096 839.859 553.396 842.079 553.496C844.329 553.626 846.049 555.556 845.929 557.806C841.959 627.416 815.329 691.706 768.919 743.726C768.109 744.626 766.989 745.086 765.869 745.086V745.106Z" fill="black"/>
<path d="M238.17 526.516C238.09 526.516 238.01 526.516 237.93 526.516C235.68 526.386 233.96 524.456 234.08 522.206C238.05 452.596 264.68 388.306 311.09 336.286C312.59 334.606 315.17 334.456 316.86 335.956C318.54 337.456 318.69 340.036 317.19 341.726C272.02 392.356 246.1 454.926 242.24 522.676C242.12 524.846 240.32 526.526 238.17 526.526V526.516Z" fill="black"/>
<path d="M314.139 745.103C313.019 745.103 311.899 744.643 311.089 743.743C264.669 691.723 238.039 627.433 234.079 557.823C233.949 555.573 235.669 553.643 237.929 553.513C240.169 553.403 242.109 555.103 242.239 557.363C246.099 625.113 272.019 687.683 317.189 738.313C318.689 739.993 318.539 742.573 316.859 744.083C316.079 744.773 315.109 745.123 314.139 745.123V745.103Z" fill="black"/>
<path d="M741.018 318.225C740.048 318.225 739.078 317.885 738.298 317.185C687.668 272.015 625.098 246.095 557.348 242.235C555.098 242.105 553.378 240.175 553.498 237.925C553.628 235.675 555.548 233.965 557.808 234.075C627.418 238.045 691.708 264.675 743.738 311.085C745.418 312.585 745.568 315.165 744.068 316.855C743.258 317.755 742.138 318.215 741.018 318.215V318.225Z" fill="black"/>
<path d="M338.998 318.224C337.878 318.224 336.758 317.764 335.948 316.864C334.448 315.184 334.598 312.604 336.278 311.094C388.298 264.674 452.588 238.044 522.198 234.084C524.448 233.964 526.378 235.674 526.508 237.934C526.638 240.184 524.918 242.114 522.658 242.244C454.908 246.104 392.338 272.024 341.708 317.194C340.928 317.884 339.958 318.234 338.988 318.234L338.998 318.224Z" fill="black"/>
<path d="M557.569 845.933C555.419 845.933 553.619 844.253 553.499 842.083C553.369 839.833 555.089 837.903 557.349 837.773C625.099 833.913 687.669 807.993 738.299 762.823C739.979 761.323 742.559 761.473 744.069 763.153C745.569 764.833 745.419 767.413 743.739 768.923C691.719 815.343 627.429 841.973 557.809 845.933C557.729 845.933 557.649 845.933 557.569 845.933Z" fill="black"/>
<path d="M522.438 845.933C522.358 845.933 522.278 845.933 522.198 845.933C452.588 841.963 388.298 815.333 336.278 768.923C334.598 767.423 334.448 764.843 335.948 763.153C337.448 761.473 340.028 761.323 341.718 762.823C392.348 807.993 454.918 833.913 522.668 837.773C524.918 837.903 526.638 839.833 526.518 842.083C526.398 844.253 524.598 845.933 522.448 845.933H522.438Z" fill="black"/>
<path d="M320.65 546.174C320.65 544.604 321.79 543.274 323.34 543.024C324.64 542.814 326.27 542.524 327.98 542.124C332.4 541.084 337.59 539.114 343.41 536.274C349.29 533.404 354.92 529.414 359.17 523.674C366.34 513.974 367.86 501.404 368.19 496.894C368.26 495.974 367.53 495.194 366.6 495.194H317.09C315.33 495.194 313.91 493.764 313.91 492.014V470.694C313.91 468.934 315.34 467.514 317.09 467.514H367.07C367.95 467.514 368.66 466.804 368.66 465.924V447.184C368.66 446.304 367.95 445.594 367.07 445.594H328.62C326.86 445.594 325.44 444.164 325.44 442.414V421.094C325.44 419.334 326.87 417.914 328.62 417.914H428.96C430.72 417.914 432.14 419.344 432.14 421.094V442.414C432.14 444.174 430.71 445.594 428.96 445.594H398.52C397.64 445.594 396.93 446.304 396.93 447.184V465.924C396.93 466.804 397.64 467.514 398.52 467.514H438.58C440.34 467.514 441.76 468.944 441.76 470.694V492.014C441.76 493.774 440.33 495.194 438.58 495.194H398.39C397.54 495.194 396.84 495.864 396.8 496.714C396.57 501.754 395.15 518.444 386.18 532.854C380.73 541.614 373.65 548.264 366.54 553.544C359.41 558.844 352.26 562.934 345.27 565.704C338.24 568.494 332.34 570.444 327.75 571.514C326.66 571.764 325.49 571.994 324.4 572.184C322.45 572.534 320.66 571.034 320.66 569.044V546.164L320.65 546.174Z" fill="black"/>
<path d="M474.55 546.522C474.55 545.062 475.55 543.792 476.96 543.432C485.21 541.362 488.93 540.112 496.84 536.322C496.84 536.322 500.89 534.212 504.93 531.302C517.11 522.542 525.22 510.632 525.22 510.632C534.68 497.282 537.77 474.912 538.49 468.492C538.6 467.552 537.86 466.722 536.91 466.722H500.58C500.35 466.722 500.14 466.842 500.03 467.042L499.88 467.292C494.3 478.112 486.88 487.992 480.45 494.242C474 500.502 468.59 505.052 464.38 507.752L461.78 509.422C460.72 510.102 459.33 509.342 459.33 508.082V479.892C459.33 478.952 459.75 478.062 460.47 477.452C461.12 476.902 461.99 476.132 463.18 475.062C465.94 472.572 469.05 468.512 472.42 462.982C475.76 457.512 479.35 450.212 483.07 441.292C486.45 433.202 488.98 423.092 490.86 412.062C491.12 410.532 492.45 409.422 494 409.422H513.91C515.91 409.422 517.42 411.252 517.04 413.212C516.4 416.522 515.71 420.882 514.85 424.312C513.58 429.392 512.76 432.302 511.24 436.722C510.98 437.472 511.54 438.242 512.33 438.242H591.18C592.94 438.242 594.36 439.672 594.36 441.422V463.512C594.36 465.272 592.93 466.692 591.18 466.692H568.14C567.33 466.692 566.64 467.302 566.56 468.112C565.93 474.012 562.88 497.162 552.39 517.262C538.29 546.002 508.14 566.392 478.34 572.132C476.38 572.512 474.56 571.002 474.56 569.002V546.482L474.55 546.522Z" fill="black"/>
<path d="M675.9 411.035V468.875C675.9 469.755 676.61 470.465 677.49 470.465H764.52C765.4 470.465 766.11 469.755 766.11 468.875V411.035C766.11 410.155 765.4 409.445 764.52 409.445H677.49C676.61 409.445 675.9 410.155 675.9 411.035ZM738.46 452.745H702.3C701.42 452.745 700.71 452.035 700.71 451.155V446.875C700.71 445.995 701.42 445.285 702.3 445.285H738.46C739.34 445.285 740.05 445.995 740.05 446.875V451.155C740.05 452.035 739.34 452.745 738.46 452.745ZM738.46 434.455H702.3C701.42 434.455 700.71 433.745 700.71 432.865V428.755C700.71 427.875 701.42 427.165 702.3 427.165H738.46C739.34 427.165 740.05 427.875 740.05 428.755V432.865C740.05 433.745 739.34 434.455 738.46 434.455Z" fill="black"/>
<path d="M674.23 497.342H728.27C729.15 497.342 729.86 498.052 729.86 498.932V502.842C729.86 503.722 729.15 504.432 728.27 504.432H667.76C666 504.432 664.58 505.862 664.58 507.612V522.862C664.58 524.622 666.01 526.042 667.76 526.042H728.27C729.15 526.042 729.86 526.752 729.86 527.632V545.392C729.86 546.112 729.94 547.982 729.22 548.852C728.39 549.872 727.15 549.672 725.85 549.722C722.54 549.722 719.58 549.702 716.95 549.662C716.55 549.662 716.26 549.292 716.34 548.902C716.6 547.632 716.73 546.312 716.7 544.962C716.5 535.682 708.94 528.082 699.66 527.842C689.58 527.582 681.37 535.852 681.71 545.942C682.02 555.292 689.79 562.812 699.15 562.842C704.04 562.852 708.46 560.862 711.64 557.642C711.98 557.302 712.55 557.432 712.7 557.882C714.16 562.212 715.54 566.342 716.79 570.052C717.23 571.352 718.46 572.222 719.83 572.212C725.73 572.172 730.51 571.962 734.18 571.602C738.31 571.182 742.09 570.152 745.52 568.502C749.18 566.842 751.69 564.422 753.05 561.232C754.41 558.042 755.09 553.552 755.09 547.762V527.622C755.09 526.742 755.8 526.032 756.68 526.032H762.91C764.67 526.032 766.09 524.602 766.09 522.852V507.602C766.09 505.842 764.66 504.422 762.91 504.422H756.68C755.8 504.422 755.09 503.712 755.09 502.832V498.922C755.09 498.042 755.8 497.332 756.68 497.332H762.91C764.67 497.332 766.09 495.902 766.09 494.152V479.602C766.09 477.842 764.66 476.422 762.91 476.422H674.21C672.45 476.422 671.03 477.852 671.03 479.602V494.152C671.03 495.912 672.46 497.332 674.21 497.332L674.23 497.342Z" fill="black"/>
<path d="M668.83 409.445H650.26C649.4 409.445 648.58 409.795 647.98 410.405C635.23 423.355 618.29 434.575 612.13 438.485C610.78 439.335 610.28 441.065 610.95 442.505L620.7 463.575C621.63 465.575 624.26 466.055 625.83 464.505C646.12 444.465 664.45 419.805 670.12 411.965C670.88 410.915 670.12 409.445 668.83 409.445Z" fill="black"/>
<path d="M671.92 453.899V435.419C671.92 434.009 670.22 433.299 669.21 434.289C653.64 449.609 620.05 477.069 611.68 483.869C610.55 484.789 610.19 486.359 610.8 487.679L620.7 509.059C621.63 511.059 624.26 511.539 625.83 509.989C627.54 508.299 629.24 506.569 630.92 504.829C631.32 504.419 632.02 504.699 632.02 505.269V569.069C632.02 570.829 633.45 572.249 635.2 572.249H653.82C655.58 572.249 657 570.819 657 569.069V476.379C657 475.309 657.36 474.259 658.03 473.419C664.87 464.739 669.72 458.029 671.34 455.749C671.72 455.209 671.93 454.569 671.93 453.899H671.92Z" fill="black"/>
<path d="M653.271 623.338C640.851 623.338 634.811 628.288 634.811 638.478V655.608C634.811 665.678 640.851 670.568 653.271 670.568C659.141 670.568 663.481 669.488 666.561 667.278C670.001 664.808 671.741 660.878 671.741 655.598V638.468C671.741 628.278 665.701 623.328 653.281 623.328L653.271 623.338ZM646.091 639.308C646.091 633.938 648.841 632.918 653.271 632.918C657.701 632.918 660.451 633.958 660.451 639.308V654.688C660.451 659.958 657.601 660.988 653.271 660.988C648.941 660.988 646.091 659.988 646.091 654.688V639.308Z" fill="black"/>
<path d="M708.27 669.334H721.359L703.63 646.784L720.56 624.804H707.4L694.06 642.284V610.234H682.77V669.334H694.06V659.214L696.95 655.454L708.27 669.334Z" fill="black"/>
<path d="M754.82 624.805V653.295C754.82 659.045 751.88 660.895 746.83 660.895C743.56 660.895 740.28 660.355 740.28 653.885V624.815H729V656.775C729 665.745 733.71 670.485 742.62 670.485C749.3 670.485 753.88 666.865 755.58 662.805L757.39 669.345H766.11V624.815H754.83L754.82 624.805Z" fill="black"/>
<path d="M630.57 610.234H589.15V620.144V620.154H604.22V669.334H615.69V620.154H630.57V610.234Z" fill="black"/>
<path d="M459.689 669.334H472.779L455.049 646.784L471.979 624.804H458.819L445.479 642.284V610.234H434.199V669.334H445.479V659.214L448.369 655.454L459.689 669.334Z" fill="black"/>
<path d="M355.33 610.234H313.91V620.144V620.154H328.99V669.334H340.45V620.154H355.33V610.234Z" fill="black"/>
<path d="M421.8 658.896L421.2 659.046C417.62 659.966 413.29 660.896 409.41 660.896C404.86 660.896 401.69 658.826 401.69 652.836V640.976C401.69 634.906 404.86 632.826 409.41 632.826C413.36 632.826 417.88 633.706 421.23 634.406L421.81 634.526V625.196L421.5 625.126C417.69 624.236 412.05 623.336 407.53 623.336C402.01 623.336 397.97 624.406 395.17 626.596C391.97 629.096 390.42 633.856 390.42 639.346V654.646C390.42 664.776 396.02 670.566 407.54 670.566C411.41 670.566 417.27 669.496 421.53 668.316L421.82 668.236V658.886L421.8 658.896Z" fill="black"/>
<path d="M553.93 634.705V624.805H543.69V615.195H532.41V624.805H525.18V634.705H532.41V655.425C532.41 667.945 540.3 670.565 546.93 670.565C548.71 670.565 550.51 670.455 552.12 670.225V660.265C551.47 660.335 550.26 660.365 549.54 660.365C546.46 660.365 543.69 659.735 543.69 652.095V634.695H553.93V634.705Z" fill="black"/>
<path d="M489.741 650.742V650.562H515.171V641.482C515.171 635.572 513.551 630.243 510.361 627.343C507.421 624.673 502.781 623.312 497.261 623.312C485.081 623.312 478.461 629.223 478.461 639.593V654.453C478.461 664.703 483.841 670.552 496.321 670.552C500.981 670.552 506.291 669.563 511.971 668.403L512.361 668.323V659.052L511.711 659.203C507.141 660.253 504.621 661.143 500.291 661.143C494.081 661.143 489.741 658.623 489.741 652.203V650.722V650.742ZM489.741 639.722C489.741 634.072 493.801 632.742 497.171 632.742C500.541 632.742 504.071 634.072 504.071 639.722V643.232H489.741V642.713V639.722Z" fill="black"/>
<path d="M378.18 626.883H366.9V669.333H378.18V626.883Z" fill="black"/>
<path d="M372.54 622.224C376.422 622.224 379.57 619.077 379.57 615.194C379.57 611.312 376.422 608.164 372.54 608.164C368.657 608.164 365.51 611.312 365.51 615.194C365.51 619.077 368.657 622.224 372.54 622.224Z" fill="black"/>
<path d="M585.74 643.922H566.15V651.262H585.74V643.922Z" fill="black"/>
<path d="M798.191 1580.2C797.791 1580.8 797.191 1581.73 796.391 1583C795.657 1584.27 795.091 1585.43 794.691 1586.5C793.291 1589.63 791.557 1593.13 789.491 1597C787.491 1600.87 785.191 1604.77 782.591 1608.7C780.057 1612.57 777.357 1616.2 774.491 1619.6C770.757 1623.8 766.624 1627.97 762.091 1632.1C757.624 1636.17 752.891 1639.93 747.891 1643.4C742.957 1646.8 737.891 1649.73 732.691 1652.2L722.391 1641.4C727.791 1639.33 733.024 1636.73 738.091 1633.6C743.157 1630.47 747.857 1627.07 752.191 1623.4C756.524 1619.73 760.257 1616.17 763.391 1612.7C765.591 1610.17 767.657 1607.47 769.591 1604.6C771.591 1601.73 773.357 1598.9 774.891 1596.1C776.424 1593.23 777.557 1590.6 778.291 1588.2C777.624 1588.2 776.424 1588.2 774.691 1588.2C772.957 1588.2 770.924 1588.2 768.591 1588.2C766.324 1588.2 763.924 1588.2 761.391 1588.2C758.857 1588.2 756.424 1588.2 754.091 1588.2C751.824 1588.2 749.824 1588.2 748.091 1588.2C746.357 1588.2 745.124 1588.2 744.391 1588.2C742.991 1588.2 741.524 1588.27 739.991 1588.4C738.457 1588.47 736.991 1588.57 735.591 1588.7C734.257 1588.77 733.224 1588.83 732.491 1588.9V1574.7C733.491 1574.77 734.724 1574.87 736.191 1575C737.657 1575.13 739.124 1575.23 740.591 1575.3C742.124 1575.37 743.391 1575.4 744.391 1575.4C745.257 1575.4 746.624 1575.4 748.491 1575.4C750.357 1575.4 752.491 1575.4 754.891 1575.4C757.291 1575.4 759.757 1575.4 762.291 1575.4C764.891 1575.4 767.357 1575.4 769.691 1575.4C772.091 1575.4 774.157 1575.4 775.891 1575.4C777.624 1575.4 778.891 1575.4 779.691 1575.4C781.891 1575.4 783.891 1575.27 785.691 1575C787.557 1574.73 788.991 1574.43 789.991 1574.1L798.191 1580.2ZM775.791 1611.3C778.391 1613.37 781.157 1615.77 784.091 1618.5C787.024 1621.23 789.924 1624.07 792.791 1627C795.657 1629.93 798.291 1632.77 800.691 1635.5C803.157 1638.17 805.224 1640.5 806.891 1642.5L795.491 1652.4C793.024 1649 790.191 1645.47 786.991 1641.8C783.857 1638.13 780.524 1634.5 776.991 1630.9C773.524 1627.23 769.991 1623.77 766.391 1620.5L775.791 1611.3Z" fill="black"/>
<path d="M688.591 1567C689.458 1568.2 690.391 1569.63 691.391 1571.3C692.391 1572.97 693.325 1574.63 694.191 1576.3C695.125 1577.97 695.925 1579.43 696.591 1580.7L688.491 1584.1C687.491 1582.03 686.258 1579.7 684.791 1577.1C683.391 1574.43 682.025 1572.13 680.691 1570.2L688.591 1567ZM700.391 1562.5C701.325 1563.77 702.291 1565.23 703.291 1566.9C704.291 1568.57 705.258 1570.23 706.191 1571.9C707.191 1573.5 707.958 1574.9 708.491 1576.1L700.591 1579.5C699.525 1577.37 698.258 1575 696.791 1572.4C695.325 1569.8 693.891 1567.57 692.491 1565.7L700.391 1562.5ZM645.491 1571.3C645.225 1572.83 645.025 1574.6 644.891 1576.6C644.758 1578.6 644.691 1580.3 644.691 1581.7C644.691 1582.7 644.691 1584.47 644.691 1587C644.691 1589.47 644.691 1592.4 644.691 1595.8C644.691 1599.2 644.691 1602.77 644.691 1606.5C644.691 1610.17 644.691 1613.73 644.691 1617.2C644.691 1620.6 644.691 1623.63 644.691 1626.3C644.691 1628.97 644.691 1630.93 644.691 1632.2C644.691 1634.33 645.225 1635.8 646.291 1636.6C647.358 1637.4 648.991 1638.03 651.191 1638.5C652.725 1638.7 654.491 1638.87 656.491 1639C658.491 1639.07 660.591 1639.1 662.791 1639.1C665.391 1639.1 668.258 1639.03 671.391 1638.9C674.591 1638.7 677.791 1638.47 680.991 1638.2C684.258 1637.93 687.325 1637.57 690.191 1637.1C693.058 1636.63 695.525 1636.13 697.591 1635.6V1650.2C694.458 1650.67 690.825 1651.03 686.691 1651.3C682.558 1651.63 678.325 1651.87 673.991 1652C669.725 1652.2 665.725 1652.3 661.991 1652.3C658.725 1652.3 655.625 1652.2 652.691 1652C649.825 1651.8 647.325 1651.53 645.191 1651.2C640.858 1650.33 637.491 1648.7 635.091 1646.3C632.691 1643.83 631.491 1640.47 631.491 1636.2C631.491 1634.27 631.491 1631.77 631.491 1628.7C631.491 1625.57 631.491 1622.13 631.491 1618.4C631.491 1614.6 631.491 1610.8 631.491 1607C631.491 1603.13 631.491 1599.5 631.491 1596.1C631.491 1592.63 631.491 1589.63 631.491 1587.1C631.491 1584.57 631.491 1582.77 631.491 1581.7C631.491 1580.97 631.458 1579.97 631.391 1578.7C631.325 1577.43 631.225 1576.13 631.091 1574.8C631.025 1573.47 630.891 1572.3 630.691 1571.3H645.491ZM638.891 1602C642.091 1601.33 645.491 1600.53 649.091 1599.6C652.691 1598.6 656.325 1597.53 659.991 1596.4C663.658 1595.27 667.125 1594.13 670.391 1593C673.725 1591.8 676.691 1590.63 679.291 1589.5C681.091 1588.83 682.858 1588.07 684.591 1587.2C686.391 1586.33 688.258 1585.3 690.191 1584.1L695.591 1596.8C693.658 1597.53 691.625 1598.37 689.491 1599.3C687.425 1600.17 685.558 1600.9 683.891 1601.5C680.958 1602.63 677.591 1603.83 673.791 1605.1C670.058 1606.37 666.158 1607.63 662.091 1608.9C658.025 1610.1 653.991 1611.23 649.991 1612.3C646.058 1613.37 642.391 1614.3 638.991 1615.1L638.891 1602Z" fill="black"/>
<path d="M523.99 1601.7C525.19 1601.77 526.724 1601.87 528.59 1602C530.457 1602.07 532.39 1602.14 534.39 1602.2C536.457 1602.27 538.357 1602.3 540.09 1602.3C541.757 1602.3 543.824 1602.3 546.29 1602.3C548.757 1602.3 551.424 1602.3 554.29 1602.3C557.224 1602.3 560.224 1602.3 563.29 1602.3C566.424 1602.3 569.524 1602.3 572.59 1602.3C575.657 1602.3 578.557 1602.3 581.29 1602.3C584.024 1602.3 586.457 1602.3 588.59 1602.3C590.79 1602.3 592.524 1602.3 593.79 1602.3C596.124 1602.3 598.324 1602.24 600.39 1602.1C602.457 1601.9 604.157 1601.77 605.49 1601.7V1617.4C604.357 1617.34 602.657 1617.24 600.39 1617.1C598.124 1616.97 595.924 1616.9 593.79 1616.9C592.524 1616.9 590.79 1616.9 588.59 1616.9C586.39 1616.9 583.924 1616.9 581.19 1616.9C578.457 1616.9 575.557 1616.9 572.49 1616.9C569.49 1616.9 566.424 1616.9 563.29 1616.9C560.157 1616.9 557.124 1616.9 554.19 1616.9C551.324 1616.9 548.657 1616.9 546.19 1616.9C543.79 1616.9 541.757 1616.9 540.09 1616.9C537.224 1616.9 534.29 1616.97 531.29 1617.1C528.29 1617.17 525.857 1617.27 523.99 1617.4V1601.7Z" fill="black"/>
<path d="M489.59 1603.8C489.59 1610 489.124 1615.63 488.19 1620.7C487.324 1625.7 485.79 1630.27 483.59 1634.4C481.39 1638.47 478.324 1642.13 474.39 1645.4C470.457 1648.67 465.49 1651.63 459.49 1654.3L448.79 1644.2C453.59 1642.53 457.724 1640.67 461.19 1638.6C464.724 1636.53 467.624 1634 469.89 1631C472.157 1627.93 473.824 1624.27 474.89 1620C476.024 1615.67 476.59 1610.43 476.59 1604.3V1577.7C476.59 1575.63 476.524 1573.83 476.39 1572.3C476.257 1570.7 476.124 1569.4 475.99 1568.4H490.29C490.157 1569.4 489.99 1570.7 489.79 1572.3C489.657 1573.83 489.59 1575.63 489.59 1577.7V1603.8ZM453.49 1569.3C453.357 1570.23 453.224 1571.5 453.09 1573.1C452.957 1574.63 452.89 1576.37 452.89 1578.3V1614.1C452.89 1615.57 452.924 1617 452.99 1618.4C453.057 1619.73 453.09 1620.93 453.09 1622C453.157 1623 453.224 1623.87 453.29 1624.6H439.29C439.424 1623.87 439.524 1623 439.59 1622C439.657 1620.93 439.724 1619.73 439.79 1618.4C439.857 1617 439.89 1615.57 439.89 1614.1V1578.3C439.89 1576.83 439.824 1575.33 439.69 1573.8C439.624 1572.27 439.49 1570.77 439.29 1569.3H453.49ZM420.49 1587.3C421.157 1587.37 422.024 1587.5 423.09 1587.7C424.157 1587.83 425.39 1587.97 426.79 1588.1C428.19 1588.17 429.724 1588.2 431.39 1588.2H496.99C499.657 1588.2 501.824 1588.13 503.49 1588C505.157 1587.87 506.657 1587.7 507.99 1587.5V1600.8C506.924 1600.67 505.49 1600.6 503.69 1600.6C501.89 1600.53 499.657 1600.5 496.99 1600.5H431.39C429.724 1600.5 428.19 1600.53 426.79 1600.6C425.457 1600.6 424.257 1600.63 423.19 1600.7C422.19 1600.77 421.29 1600.83 420.49 1600.9V1587.3Z" fill="black"/>
<path d="M347.191 1578.5V1591.9H382.391V1578.5H347.191ZM335.591 1567H394.591V1603.3H335.591V1567ZM321.791 1611.7H360.091V1656.4H348.091V1623.2H333.191V1657H321.791V1611.7ZM368.491 1611.7H408.091V1656.5H396.091V1623.2H379.991V1657H368.491V1611.7ZM326.791 1640.4H353.091V1651.9H326.791V1640.4ZM373.991 1640.4H401.991V1651.9H373.991V1640.4Z" fill="black"/>
<path d="M298.61 1568C299.31 1568 299.81 1568.5 299.81 1569.2V1646.7C299.81 1647.4 299.31 1648 298.61 1648H290.61C289.91 1648 289.41 1647.4 289.41 1646.7V1578.2H276.91C275.81 1578.2 275.31 1577.1 275.81 1576.4L280.81 1568.5C281.01 1568.2 281.41 1568 281.81 1568H298.61Z" fill="black"/>
<path d="M800.262 1428.9C800.095 1429.8 799.828 1430.97 799.462 1432.4C799.095 1433.83 798.562 1435.45 797.862 1437.25C797.328 1438.48 796.712 1439.77 796.012 1441.1C795.345 1442.4 794.662 1443.57 793.962 1444.6C794.395 1444.4 794.945 1444.23 795.612 1444.1C796.278 1443.93 796.962 1443.82 797.662 1443.75C798.395 1443.65 799.045 1443.6 799.612 1443.6C801.712 1443.6 803.445 1444.2 804.812 1445.4C806.212 1446.6 806.912 1448.38 806.912 1450.75C806.912 1451.42 806.912 1452.23 806.912 1453.2C806.945 1454.17 806.978 1455.18 807.012 1456.25C807.045 1457.28 807.078 1458.3 807.112 1459.3C807.145 1460.3 807.162 1461.2 807.162 1462H801.162C801.228 1461.43 801.262 1460.77 801.262 1460C801.295 1459.2 801.312 1458.37 801.312 1457.5C801.345 1456.63 801.362 1455.8 801.362 1455C801.395 1454.17 801.412 1453.42 801.412 1452.75C801.412 1451.15 800.978 1450.05 800.112 1449.45C799.278 1448.82 798.345 1448.5 797.312 1448.5C795.912 1448.5 794.495 1448.85 793.062 1449.55C791.662 1450.22 790.478 1451.02 789.512 1451.95C788.778 1452.68 788.028 1453.5 787.262 1454.4C786.528 1455.3 785.728 1456.32 784.862 1457.45L779.512 1453.45C781.678 1451.45 783.545 1449.52 785.112 1447.65C786.712 1445.78 788.062 1443.93 789.162 1442.1C790.262 1440.27 791.162 1438.43 791.862 1436.6C792.362 1435.27 792.762 1433.88 793.062 1432.45C793.395 1430.98 793.595 1429.62 793.662 1428.35L800.262 1428.9ZM781.462 1433.5C782.728 1433.7 784.195 1433.85 785.862 1433.95C787.528 1434.05 788.995 1434.1 790.262 1434.1C792.462 1434.1 794.862 1434.05 797.462 1433.95C800.095 1433.85 802.762 1433.68 805.462 1433.45C808.162 1433.18 810.728 1432.85 813.162 1432.45L813.112 1438.25C811.345 1438.48 809.428 1438.7 807.362 1438.9C805.328 1439.07 803.245 1439.22 801.112 1439.35C799.012 1439.45 796.995 1439.53 795.062 1439.6C793.128 1439.63 791.412 1439.65 789.912 1439.65C789.245 1439.65 788.412 1439.65 787.412 1439.65C786.445 1439.62 785.445 1439.58 784.412 1439.55C783.378 1439.48 782.395 1439.42 781.462 1439.35V1433.5ZM821.062 1447.7C820.528 1447.87 819.895 1448.08 819.162 1448.35C818.462 1448.58 817.745 1448.83 817.012 1449.1C816.312 1449.33 815.678 1449.57 815.112 1449.8C813.512 1450.43 811.612 1451.2 809.412 1452.1C807.245 1453 804.978 1454.05 802.612 1455.25C801.112 1456.05 799.845 1456.83 798.812 1457.6C797.778 1458.37 796.995 1459.15 796.462 1459.95C795.928 1460.72 795.662 1461.57 795.662 1462.5C795.662 1463.2 795.812 1463.78 796.112 1464.25C796.412 1464.68 796.862 1465.03 797.462 1465.3C798.062 1465.57 798.812 1465.75 799.712 1465.85C800.612 1465.95 801.678 1466 802.912 1466C805.045 1466 807.395 1465.88 809.962 1465.65C812.528 1465.38 814.912 1465.03 817.112 1464.6L816.912 1471.05C815.845 1471.18 814.495 1471.32 812.862 1471.45C811.228 1471.62 809.528 1471.73 807.762 1471.8C806.028 1471.87 804.362 1471.9 802.762 1471.9C800.162 1471.9 797.828 1471.65 795.762 1471.15C793.695 1470.65 792.062 1469.8 790.862 1468.6C789.695 1467.37 789.112 1465.68 789.112 1463.55C789.112 1461.82 789.495 1460.25 790.262 1458.85C791.062 1457.45 792.112 1456.18 793.412 1455.05C794.712 1453.92 796.128 1452.9 797.662 1452C799.228 1451.07 800.762 1450.22 802.262 1449.45C803.795 1448.65 805.178 1447.97 806.412 1447.4C807.645 1446.83 808.795 1446.33 809.862 1445.9C810.962 1445.43 812.012 1444.97 813.012 1444.5C813.978 1444.07 814.912 1443.65 815.812 1443.25C816.712 1442.82 817.628 1442.37 818.562 1441.9L821.062 1447.7Z" fill="black"/>
<path d="M770.91 1437.9C770.643 1438.37 770.36 1438.93 770.06 1439.6C769.76 1440.23 769.493 1440.87 769.26 1441.5C768.827 1442.97 768.21 1444.65 767.41 1446.55C766.643 1448.42 765.677 1450.37 764.51 1452.4C763.377 1454.4 762.06 1456.33 760.56 1458.2C758.16 1461.07 755.36 1463.67 752.16 1466C748.993 1468.33 745.06 1470.43 740.36 1472.3L734.46 1467C737.86 1466 740.793 1464.85 743.26 1463.55C745.727 1462.25 747.877 1460.87 749.71 1459.4C751.543 1457.9 753.177 1456.32 754.61 1454.65C755.777 1453.35 756.843 1451.88 757.81 1450.25C758.777 1448.58 759.61 1446.93 760.31 1445.3C761.01 1443.67 761.477 1442.23 761.71 1441H744.86L747.16 1435.35C747.627 1435.35 748.343 1435.35 749.31 1435.35C750.31 1435.35 751.427 1435.35 752.66 1435.35C753.927 1435.35 755.16 1435.35 756.36 1435.35C757.593 1435.35 758.66 1435.35 759.56 1435.35C760.493 1435.35 761.127 1435.35 761.46 1435.35C762.227 1435.35 762.993 1435.3 763.76 1435.2C764.56 1435.1 765.243 1434.95 765.81 1434.75L770.91 1437.9ZM754.61 1430C754.01 1430.87 753.427 1431.8 752.86 1432.8C752.293 1433.8 751.86 1434.57 751.56 1435.1C750.427 1437.1 749.027 1439.18 747.36 1441.35C745.727 1443.48 743.86 1445.57 741.76 1447.6C739.66 1449.6 737.427 1451.43 735.06 1453.1L729.41 1448.95C731.61 1447.58 733.543 1446.18 735.21 1444.75C736.91 1443.32 738.377 1441.9 739.61 1440.5C740.843 1439.07 741.893 1437.7 742.76 1436.4C743.66 1435.07 744.427 1433.88 745.06 1432.85C745.46 1432.22 745.877 1431.4 746.31 1430.4C746.743 1429.37 747.077 1428.43 747.31 1427.6L754.61 1430Z" fill="black"/>
<path d="M688.012 1431C688.878 1431.6 689.895 1432.33 691.062 1433.2C692.228 1434.07 693.428 1435.02 694.662 1436.05C695.928 1437.05 697.112 1438.03 698.212 1439C699.312 1439.97 700.212 1440.83 700.912 1441.6L695.812 1446.8C695.178 1446.1 694.345 1445.27 693.312 1444.3C692.278 1443.33 691.162 1442.33 689.962 1441.3C688.762 1440.27 687.578 1439.28 686.412 1438.35C685.245 1437.42 684.212 1436.63 683.312 1436L688.012 1431ZM681.762 1464.3C684.362 1463.93 686.812 1463.42 689.112 1462.75C691.412 1462.08 693.545 1461.32 695.512 1460.45C697.478 1459.58 699.278 1458.68 700.912 1457.75C703.745 1456.05 706.345 1454.12 708.712 1451.95C711.078 1449.78 713.145 1447.53 714.912 1445.2C716.678 1442.83 718.078 1440.53 719.112 1438.3L723.012 1445.35C721.745 1447.58 720.178 1449.82 718.312 1452.05C716.478 1454.28 714.395 1456.42 712.062 1458.45C709.728 1460.45 707.212 1462.25 704.512 1463.85C702.812 1464.88 700.978 1465.87 699.012 1466.8C697.045 1467.7 694.962 1468.5 692.762 1469.2C690.595 1469.93 688.328 1470.5 685.962 1470.9L681.762 1464.3Z" fill="black"/>
<path d="M666.11 1430.2C666.077 1430.9 666.027 1431.67 665.96 1432.5C665.927 1433.3 665.91 1434.2 665.91 1435.2C665.91 1436.07 665.91 1437.12 665.91 1438.35C665.91 1439.59 665.91 1440.82 665.91 1442.05C665.91 1443.25 665.91 1444.27 665.91 1445.1C665.91 1447.77 665.777 1450.1 665.51 1452.1C665.277 1454.1 664.91 1455.85 664.41 1457.35C663.91 1458.85 663.293 1460.19 662.56 1461.35C661.86 1462.49 661.043 1463.57 660.11 1464.6C659.01 1465.8 657.743 1466.89 656.31 1467.85C654.877 1468.79 653.427 1469.57 651.96 1470.2C650.527 1470.87 649.193 1471.4 647.96 1471.8L642.71 1466.3C645.21 1465.74 647.46 1464.95 649.46 1463.95C651.493 1462.92 653.26 1461.6 654.76 1460C655.627 1459.04 656.327 1458.07 656.86 1457.1C657.393 1456.14 657.793 1455.07 658.06 1453.9C658.36 1452.7 658.56 1451.35 658.66 1449.85C658.793 1448.35 658.86 1446.64 658.86 1444.7C658.86 1443.84 658.86 1442.8 658.86 1441.6C658.86 1440.4 658.86 1439.22 658.86 1438.05C658.86 1436.89 658.86 1435.94 658.86 1435.2C658.86 1434.2 658.827 1433.3 658.76 1432.5C658.727 1431.67 658.66 1430.9 658.56 1430.2H666.11ZM642.91 1430.6C642.877 1431.2 642.843 1431.8 642.81 1432.4C642.777 1432.97 642.76 1433.65 642.76 1434.45C642.76 1434.82 642.76 1435.42 642.76 1436.25C642.76 1437.09 642.76 1438.07 642.76 1439.2C642.76 1440.3 642.76 1441.47 642.76 1442.7C642.76 1443.9 642.76 1445.07 642.76 1446.2C642.76 1447.34 642.76 1448.37 642.76 1449.3C642.76 1450.2 642.76 1450.89 642.76 1451.35C642.76 1451.99 642.777 1452.72 642.81 1453.55C642.843 1454.39 642.877 1455.1 642.91 1455.7H635.66C635.693 1455.24 635.743 1454.57 635.81 1453.7C635.877 1452.84 635.91 1452.04 635.91 1451.3C635.91 1450.84 635.91 1450.15 635.91 1449.25C635.91 1448.35 635.91 1447.34 635.91 1446.2C635.91 1445.04 635.91 1443.85 635.91 1442.65C635.91 1441.42 635.91 1440.25 635.91 1439.15C635.91 1438.05 635.91 1437.09 635.91 1436.25C635.91 1435.42 635.91 1434.82 635.91 1434.45C635.91 1433.99 635.893 1433.39 635.86 1432.65C635.827 1431.89 635.777 1431.2 635.71 1430.6H642.91Z" fill="black"/>
<path d="M610.061 1431.8C610.528 1432.46 611.045 1433.25 611.611 1434.15C612.178 1435.05 612.711 1435.95 613.211 1436.85C613.745 1437.75 614.211 1438.58 614.611 1439.35L610.261 1441.3C609.795 1440.23 609.328 1439.28 608.861 1438.45C608.428 1437.61 607.978 1436.81 607.511 1436.05C607.045 1435.25 606.495 1434.41 605.861 1433.55L610.061 1431.8ZM616.611 1429.05C617.111 1429.71 617.645 1430.48 618.211 1431.35C618.811 1432.21 619.378 1433.1 619.911 1434C620.478 1434.86 620.945 1435.68 621.311 1436.45L617.111 1438.5C616.578 1437.43 616.061 1436.5 615.561 1435.7C615.095 1434.86 614.611 1434.08 614.111 1433.35C613.645 1432.58 613.095 1431.8 612.461 1431L616.611 1429.05ZM590.111 1464.95C590.111 1464.28 590.111 1463.23 590.111 1461.8C590.111 1460.33 590.111 1458.65 590.111 1456.75C590.111 1454.81 590.111 1452.81 590.111 1450.75C590.111 1448.65 590.111 1446.63 590.111 1444.7C590.111 1442.73 590.111 1441 590.111 1439.5C590.111 1438 590.111 1436.9 590.111 1436.2C590.111 1435.3 590.061 1434.28 589.961 1433.15C589.895 1432.01 589.778 1431.01 589.611 1430.15H597.411C597.311 1431.01 597.211 1431.98 597.111 1433.05C597.011 1434.11 596.961 1435.16 596.961 1436.2C596.961 1437.1 596.961 1438.35 596.961 1439.95C596.961 1441.55 596.961 1443.33 596.961 1445.3C596.961 1447.23 596.961 1449.21 596.961 1451.25C596.961 1453.28 596.961 1455.23 596.961 1457.1C596.961 1458.93 596.961 1460.55 596.961 1461.95C596.961 1463.31 596.961 1464.31 596.961 1464.95C596.961 1465.38 596.978 1466.03 597.011 1466.9C597.078 1467.73 597.145 1468.6 597.211 1469.5C597.311 1470.4 597.395 1471.2 597.461 1471.9H589.611C589.778 1470.93 589.895 1469.78 589.961 1468.45C590.061 1467.08 590.111 1465.91 590.111 1464.95ZM595.511 1443.1C597.178 1443.53 599.028 1444.1 601.061 1444.8C603.128 1445.46 605.211 1446.2 607.311 1447C609.411 1447.76 611.395 1448.53 613.261 1449.3C615.128 1450.03 616.661 1450.7 617.861 1451.3L615.061 1458.25C613.628 1457.48 612.061 1456.73 610.361 1456C608.661 1455.26 606.928 1454.55 605.161 1453.85C603.428 1453.11 601.728 1452.45 600.061 1451.85C598.395 1451.25 596.878 1450.73 595.511 1450.3V1443.1Z" fill="black"/>
<path d="M541.66 1464.2C541.66 1463.57 541.66 1462.54 541.66 1461.1C541.66 1459.64 541.66 1457.95 541.66 1456.05C541.66 1454.12 541.66 1452.1 541.66 1450C541.66 1447.9 541.66 1445.89 541.66 1443.95C541.66 1441.99 541.66 1440.25 541.66 1438.75C541.66 1437.25 541.66 1436.15 541.66 1435.45C541.66 1434.59 541.61 1433.59 541.51 1432.45C541.443 1431.32 541.327 1430.32 541.16 1429.45H548.96C548.86 1430.32 548.76 1431.29 548.66 1432.35C548.56 1433.39 548.51 1434.42 548.51 1435.45C548.51 1436.39 548.51 1437.65 548.51 1439.25C548.51 1440.85 548.51 1442.64 548.51 1444.6C548.51 1446.54 548.51 1448.52 548.51 1450.55C548.51 1452.55 548.51 1454.49 548.51 1456.35C548.51 1458.22 548.51 1459.85 548.51 1461.25C548.51 1462.62 548.51 1463.6 548.51 1464.2C548.51 1464.67 548.527 1465.34 548.56 1466.2C548.593 1467.04 548.66 1467.9 548.76 1468.8C548.86 1469.7 548.927 1470.5 548.96 1471.2H541.16C541.293 1470.2 541.41 1469.04 541.51 1467.7C541.61 1466.37 541.66 1465.2 541.66 1464.2ZM547.01 1442.4C548.677 1442.84 550.543 1443.4 552.61 1444.1C554.677 1444.77 556.76 1445.49 558.86 1446.25C560.96 1447.02 562.927 1447.79 564.76 1448.55C566.627 1449.29 568.177 1449.97 569.41 1450.6L566.56 1457.5C565.16 1456.77 563.61 1456.04 561.91 1455.3C560.21 1454.54 558.477 1453.8 556.71 1453.1C554.977 1452.4 553.26 1451.75 551.56 1451.15C549.893 1450.55 548.377 1450.02 547.01 1449.55V1442.4Z" fill="black"/>
<path d="M520.411 1435.7C520.178 1436.16 519.961 1436.73 519.761 1437.4C519.594 1438.03 519.444 1438.63 519.311 1439.2C519.044 1440.4 518.694 1441.76 518.261 1443.3C517.828 1444.83 517.311 1446.41 516.711 1448.05C516.111 1449.68 515.394 1451.3 514.561 1452.9C513.761 1454.5 512.844 1456 511.811 1457.4C510.311 1459.36 508.561 1461.23 506.561 1463C504.561 1464.73 502.328 1466.3 499.861 1467.7C497.394 1469.06 494.678 1470.23 491.711 1471.2L486.261 1465.25C489.561 1464.45 492.411 1463.46 494.811 1462.3C497.244 1461.1 499.361 1459.76 501.161 1458.3C502.961 1456.8 504.528 1455.2 505.861 1453.5C506.961 1452.1 507.894 1450.58 508.661 1448.95C509.461 1447.31 510.111 1445.66 510.611 1444C511.144 1442.33 511.511 1440.8 511.711 1439.4C511.211 1439.4 510.378 1439.4 509.211 1439.4C508.078 1439.4 506.728 1439.4 505.161 1439.4C503.628 1439.4 502.011 1439.4 500.311 1439.4C498.644 1439.4 497.028 1439.4 495.461 1439.4C493.894 1439.4 492.478 1439.4 491.211 1439.4C489.978 1439.4 489.044 1439.4 488.411 1439.4C487.278 1439.4 486.161 1439.41 485.061 1439.45C483.994 1439.48 483.128 1439.53 482.461 1439.6V1432.55C482.994 1432.58 483.611 1432.63 484.311 1432.7C485.011 1432.76 485.744 1432.83 486.511 1432.9C487.278 1432.93 487.928 1432.95 488.461 1432.95C488.961 1432.95 489.711 1432.95 490.711 1432.95C491.711 1432.95 492.861 1432.95 494.161 1432.95C495.461 1432.95 496.811 1432.95 498.211 1432.95C499.644 1432.95 501.061 1432.95 502.461 1432.95C503.861 1432.95 505.178 1432.95 506.411 1432.95C507.644 1432.95 508.711 1432.95 509.611 1432.95C510.544 1432.95 511.194 1432.95 511.561 1432.95C512.061 1432.95 512.678 1432.93 513.411 1432.9C514.144 1432.83 514.828 1432.71 515.461 1432.55L520.411 1435.7Z" fill="black"/>
<path d="M438.161 1466.1C442.194 1464.4 445.594 1462.37 448.361 1460C451.161 1457.63 453.461 1455.13 455.261 1452.5C457.128 1449.83 458.478 1447.17 459.311 1444.5C460.144 1441.83 460.761 1439.47 461.161 1437.4C461.428 1436.27 461.611 1435.13 461.711 1434C461.811 1432.87 461.844 1431.98 461.811 1431.35L469.911 1432.45C469.611 1433.42 469.328 1434.47 469.061 1435.6C468.794 1436.7 468.578 1437.6 468.411 1438.3C467.778 1441.23 466.911 1444.2 465.811 1447.2C464.744 1450.17 463.294 1453.05 461.461 1455.85C459.528 1458.88 457.144 1461.72 454.311 1464.35C451.478 1466.98 448.078 1469.27 444.111 1471.2L438.161 1466.1ZM437.111 1431.6C437.744 1432.47 438.461 1433.55 439.261 1434.85C440.061 1436.15 440.861 1437.52 441.661 1438.95C442.494 1440.35 443.261 1441.7 443.961 1443C444.694 1444.3 445.294 1445.38 445.761 1446.25L439.161 1450C438.561 1448.63 437.878 1447.25 437.111 1445.85C436.378 1444.42 435.628 1443.02 434.861 1441.65C434.094 1440.25 433.344 1438.98 432.611 1437.85C431.911 1436.68 431.278 1435.7 430.711 1434.9L437.111 1431.6Z" fill="black"/>
<path d="M413.639 1444.65C413.939 1444.85 413.989 1445.15 413.839 1445.45L412.089 1449C411.789 1449.6 411.439 1449.45 411.139 1449.25C409.989 1448.6 409.839 1448.35 408.889 1448.35C407.789 1448.35 406.939 1449.3 406.439 1450.5C405.889 1451.8 405.789 1453.85 405.789 1455.35V1468.35C405.789 1468.7 405.539 1469 405.189 1469H401.289C400.939 1469 400.689 1468.7 400.689 1468.35V1444.6C400.689 1444.25 400.989 1444 401.289 1444H405.239C405.589 1444 405.839 1444.25 405.839 1444.6V1445.65C406.089 1444.85 407.539 1443.25 409.439 1443.25C410.839 1443.25 412.339 1443.85 413.639 1444.65Z" fill="black"/>
<path d="M381.149 1464.75C385.799 1464.75 389.249 1461.25 389.249 1456.4C389.249 1451.65 385.749 1448.15 381.149 1448.15C376.599 1448.15 373.199 1451.8 373.199 1456.4C373.199 1461.05 376.499 1464.75 381.149 1464.75ZM368.049 1456.4C368.049 1449.05 373.799 1443.25 381.149 1443.25C388.649 1443.25 394.399 1448.95 394.399 1456.45C394.399 1463.95 388.799 1469.75 381.149 1469.75C373.749 1469.75 368.049 1463.95 368.049 1456.4Z" fill="black"/>
<path d="M310.59 1429.5H351.64V1435.4H310.59V1429.5ZM308.34 1465.9H353.89V1471.75H308.34V1465.9ZM327.34 1431.6H333.94V1469.6H327.34V1431.6ZM337.14 1456.35L341.44 1452.85C342.34 1453.72 343.34 1454.68 344.44 1455.75C345.54 1456.78 346.59 1457.8 347.59 1458.8C348.623 1459.8 349.457 1460.68 350.09 1461.45L345.49 1465.45C344.923 1464.65 344.14 1463.73 343.14 1462.7C342.173 1461.63 341.157 1460.55 340.09 1459.45C339.023 1458.32 338.04 1457.28 337.14 1456.35ZM312.94 1446.4H349.34V1452.25H312.94V1446.4Z" fill="black"/>
<path d="M275.589 1445.95H304.289V1451.65H275.589V1445.95ZM277.189 1434.05H302.739V1439.75H277.189V1434.05ZM286.339 1426.95H292.389V1473.35H286.339V1426.95ZM285.789 1449.45L290.489 1450.9C289.489 1453.6 288.255 1456.2 286.789 1458.7C285.322 1461.17 283.672 1463.4 281.839 1465.4C280.005 1467.37 278.022 1469.04 275.889 1470.4C275.589 1469.94 275.205 1469.42 274.739 1468.85C274.272 1468.25 273.772 1467.67 273.239 1467.1C272.739 1466.54 272.272 1466.05 271.839 1465.65C273.839 1464.59 275.739 1463.2 277.539 1461.5C279.339 1459.8 280.939 1457.92 282.339 1455.85C283.772 1453.79 284.922 1451.65 285.789 1449.45ZM292.889 1449.3C293.722 1451.37 294.755 1453.44 295.989 1455.5C297.255 1457.54 298.655 1459.42 300.189 1461.15C301.722 1462.89 303.305 1464.35 304.939 1465.55C304.505 1465.92 304.005 1466.4 303.439 1467C302.872 1467.57 302.322 1468.17 301.789 1468.8C301.289 1469.4 300.855 1469.97 300.489 1470.5C298.822 1469 297.239 1467.2 295.739 1465.1C294.239 1463 292.872 1460.72 291.639 1458.25C290.405 1455.79 289.339 1453.27 288.439 1450.7L292.889 1449.3ZM262.239 1430.85H274.239V1460.9H262.239V1455.05H268.839V1436.65H262.239V1430.85ZM259.139 1430.85H264.639V1464.9H259.139V1430.85Z" fill="black"/>
<path d="M816.894 1256.02C816.894 1261.08 816.255 1265.72 814.977 1269.93C813.699 1274.15 811.995 1277.93 809.865 1281.29C807.782 1284.65 805.463 1287.59 802.907 1290.1L796.162 1287.12C798.529 1284.56 800.659 1281.74 802.552 1278.67C804.493 1275.59 806.031 1272.18 807.167 1268.44C808.303 1264.66 808.871 1260.51 808.871 1256.02C808.871 1251.47 808.303 1247.33 807.167 1243.59C806.031 1239.85 804.493 1236.45 802.552 1233.37C800.659 1230.24 798.529 1227.43 796.162 1224.92L802.907 1221.94C805.463 1224.45 807.782 1227.38 809.865 1230.74C811.995 1234.1 813.699 1237.89 814.977 1242.1C816.255 1246.31 816.894 1250.95 816.894 1256.02Z" fill="black"/>
<path d="M773.796 1228.47C774.459 1229.46 775.169 1230.62 775.926 1231.95C776.731 1233.23 777.512 1234.53 778.269 1235.85C779.027 1237.13 779.689 1238.34 780.257 1239.48L774.08 1242.1C773.37 1240.59 772.708 1239.24 772.092 1238.06C771.477 1236.82 770.814 1235.64 770.104 1234.51C769.442 1233.32 768.684 1232.14 767.832 1230.96L773.796 1228.47ZM783.523 1225.06C784.281 1225.96 785.062 1227.05 785.866 1228.33C786.671 1229.61 787.452 1230.88 788.209 1232.16C788.967 1233.44 789.629 1234.6 790.197 1235.64L784.162 1238.34C783.405 1236.87 782.671 1235.55 781.961 1234.36C781.299 1233.18 780.612 1232.04 779.902 1230.96C779.192 1229.87 778.388 1228.73 777.488 1227.55L783.523 1225.06ZM742.911 1227.12C744.095 1227.74 745.42 1228.49 746.887 1229.39C748.355 1230.29 749.846 1231.24 751.36 1232.23C752.875 1233.18 754.319 1234.1 755.691 1235C757.064 1235.85 758.2 1236.61 759.099 1237.27L753.845 1245.08C752.851 1244.42 751.668 1243.64 750.295 1242.74C748.97 1241.84 747.55 1240.92 746.035 1239.97C744.568 1239.03 743.101 1238.13 741.633 1237.27C740.213 1236.38 738.935 1235.59 737.799 1234.93L742.911 1227.12ZM729.776 1277.53C732.427 1277.06 735.125 1276.47 737.87 1275.76C740.616 1275.05 743.337 1274.19 746.035 1273.2C748.733 1272.16 751.36 1270.93 753.916 1269.51C757.94 1267.24 761.679 1264.68 765.134 1261.84C768.637 1259 771.785 1255.99 774.577 1252.82C777.37 1249.6 779.689 1246.29 781.535 1242.88L787.002 1252.54C783.736 1257.46 779.666 1262.12 774.79 1266.53C769.962 1270.88 764.637 1274.74 758.815 1278.1C756.401 1279.42 753.751 1280.7 750.863 1281.93C747.976 1283.12 745.136 1284.13 742.343 1284.99C739.598 1285.84 737.184 1286.45 735.101 1286.83L729.776 1277.53ZM731.977 1243.31C733.161 1243.92 734.51 1244.68 736.024 1245.58C737.539 1246.48 739.054 1247.4 740.568 1248.35C742.083 1249.25 743.503 1250.15 744.828 1251.05C746.201 1251.9 747.337 1252.66 748.236 1253.32L743.053 1261.27C742.012 1260.56 740.805 1259.76 739.432 1258.86C738.107 1257.96 736.687 1257.04 735.172 1256.09C733.705 1255.14 732.238 1254.24 730.77 1253.39C729.35 1252.49 728.049 1251.73 726.865 1251.12L731.977 1243.31Z" fill="black"/>
<path d="M655.369 1255.38C661.759 1253.73 667.534 1251.81 672.693 1249.63C677.9 1247.41 682.467 1245.09 686.396 1242.67C688.857 1241.16 691.319 1239.43 693.78 1237.49C696.289 1235.5 698.632 1233.47 700.809 1231.39C703.034 1229.3 704.903 1227.32 706.418 1225.42L714.086 1232.73C711.909 1234.86 709.518 1237.02 706.915 1239.2C704.359 1241.37 701.685 1243.46 698.892 1245.44C696.099 1247.43 693.33 1249.25 690.585 1250.91C687.887 1252.47 684.858 1254.08 681.497 1255.74C678.184 1257.4 674.681 1258.96 670.989 1260.42C667.297 1261.89 663.581 1263.19 659.842 1264.33L655.369 1255.38ZM684.905 1247.22L694.987 1244.88V1276.83C694.987 1277.87 695.011 1279 695.058 1280.23C695.105 1281.46 695.176 1282.6 695.271 1283.64C695.366 1284.73 695.484 1285.56 695.626 1286.13H684.408C684.503 1285.56 684.574 1284.73 684.621 1283.64C684.716 1282.6 684.787 1281.46 684.834 1280.23C684.881 1279 684.905 1277.87 684.905 1276.83V1247.22Z" fill="black"/>
<path d="M593.812 1280.16C594.239 1279.26 594.499 1278.48 594.594 1277.82C594.688 1277.15 594.736 1276.4 594.736 1275.54C594.736 1274.65 594.736 1273.27 594.736 1271.43C594.736 1269.58 594.736 1267.45 594.736 1265.04C594.736 1262.58 594.736 1260 594.736 1257.3C594.736 1254.6 594.736 1251.95 594.736 1249.35C594.736 1246.74 594.736 1244.38 594.736 1242.25C594.736 1240.12 594.736 1238.39 594.736 1237.06C594.736 1236.16 594.688 1235.22 594.594 1234.22C594.546 1233.23 594.452 1232.28 594.31 1231.38C594.215 1230.44 594.096 1229.63 593.954 1228.97H605.102C604.912 1230.34 604.746 1231.69 604.604 1233.02C604.462 1234.34 604.392 1235.69 604.392 1237.06C604.392 1238.2 604.392 1239.62 604.392 1241.32C604.392 1242.98 604.392 1244.83 604.392 1246.86C604.392 1248.9 604.392 1251 604.392 1253.18C604.392 1255.36 604.392 1257.51 604.392 1259.64C604.392 1261.77 604.392 1263.78 604.392 1265.68C604.392 1267.57 604.392 1269.23 604.392 1270.65C604.392 1272.07 604.392 1273.18 604.392 1273.98C607.279 1273.13 610.355 1271.97 613.621 1270.5C616.935 1268.99 620.248 1267.21 623.561 1265.18C626.922 1263.1 630.07 1260.82 633.005 1258.36C635.987 1255.9 638.613 1253.27 640.885 1250.48L645.927 1258.5C641.099 1264.33 635.111 1269.37 627.964 1273.63C620.863 1277.84 613.124 1281.32 604.746 1284.06C604.273 1284.25 603.658 1284.49 602.901 1284.77C602.143 1285.06 601.362 1285.46 600.557 1285.98L593.812 1280.16Z" fill="black"/>
<path d="M556.039 1256.02C556.039 1250.95 556.678 1246.31 557.956 1242.1C559.234 1237.89 560.938 1234.1 563.068 1230.74C565.198 1227.38 567.517 1224.45 570.026 1221.94L576.771 1224.92C574.404 1227.43 572.251 1230.24 570.31 1233.37C568.417 1236.45 566.902 1239.85 565.766 1243.59C564.63 1247.33 564.062 1251.47 564.062 1256.02C564.062 1260.51 564.63 1264.66 565.766 1268.44C566.902 1272.18 568.417 1275.59 570.31 1278.67C572.251 1281.74 574.404 1284.56 576.771 1287.12L570.026 1290.1C567.517 1287.59 565.198 1284.65 563.068 1281.29C560.938 1277.93 559.234 1274.15 557.956 1269.93C556.678 1265.72 556.039 1261.08 556.039 1256.02Z" fill="black"/>
<path d="M498.219 1260.71C497.651 1257.3 494.101 1253.47 489.202 1253.47C484.942 1253.47 480.966 1255.95 479.617 1260.71H498.219ZM471.523 1265.18C471.523 1254.6 478.623 1246.44 489.202 1246.44C495.166 1246.44 506.1 1250.41 506.1 1265.18V1266.74C506.1 1267.24 505.745 1267.6 505.248 1267.6H479.191C479.191 1270.08 481.605 1277.04 489.131 1277.04C492.326 1277.04 495.592 1276.33 498.503 1271.64L498.858 1271.07C499.071 1270.72 499.497 1270.51 499.994 1270.79L504.68 1273.49C505.177 1273.84 505.319 1274.06 504.964 1274.7L504.68 1275.19C500.278 1282.93 493.746 1284.07 489.06 1284.07C478.552 1284.07 471.523 1276.12 471.523 1265.18Z" fill="black"/>
<path d="M457.707 1265.18C457.707 1257.94 452.95 1253.47 446.773 1253.47C441.306 1253.47 436.265 1258.08 436.265 1265.18C436.265 1272.35 441.164 1276.97 446.702 1276.97C452.879 1276.97 457.707 1272.78 457.707 1265.18ZM428.881 1265.18C428.881 1254.46 436.549 1246.44 446.276 1246.44C453.234 1246.44 456.642 1249.92 457.494 1250.63V1248.35C457.494 1247.86 457.849 1247.5 458.346 1247.5H463.955C464.452 1247.5 464.807 1247.86 464.807 1248.35V1282.08C464.807 1294.29 459.411 1302.88 446.844 1302.88C434.845 1302.88 429.591 1295.14 428.952 1288.26C428.881 1287.48 429.378 1287.26 429.662 1287.26H435.484C435.839 1287.26 436.123 1287.33 436.265 1287.97C437.614 1293.79 441.732 1295.85 446.915 1295.85C453.802 1295.85 457.494 1291.74 457.494 1282.36V1279.95C457.068 1280.16 453.731 1284.07 446.347 1284.07C435.839 1284.07 428.881 1275.33 428.881 1265.18Z" fill="black"/>
<path d="M416.112 1265.11C416.112 1258.72 411.426 1253.47 405.178 1253.47C399.214 1253.47 394.386 1258.29 394.386 1265.18C394.386 1272.21 399.072 1276.9 405.107 1277.04C410.432 1277.18 416.112 1272.85 416.112 1265.11ZM387.002 1265.18C387.002 1254.25 395.167 1246.44 404.752 1246.44C409.651 1246.44 413.627 1248.43 415.899 1250.77V1248.57C415.899 1248 416.254 1247.5 416.751 1247.5H422.289C422.928 1247.5 423.212 1248.07 423.212 1248.57V1282.01C423.212 1282.51 422.928 1283 422.36 1283H416.751C416.254 1283 415.899 1282.51 415.899 1282.01V1279.59C414.408 1281.51 409.935 1284.07 404.752 1284.07C394.457 1284.07 387.002 1275.62 387.002 1265.18Z" fill="black"/>
<path d="M382.682 1248.43C383.108 1248.71 383.179 1249.14 382.966 1249.56L380.481 1254.6C380.055 1255.45 379.558 1255.24 379.132 1254.96C377.499 1254.03 377.286 1253.68 375.937 1253.68C374.375 1253.68 373.168 1255.03 372.458 1256.73C371.677 1258.58 371.535 1261.49 371.535 1263.62V1282.08C371.535 1282.58 371.18 1283 370.683 1283H365.145C364.648 1283 364.293 1282.58 364.293 1282.08V1248.35C364.293 1247.86 364.719 1247.5 365.145 1247.5H370.754C371.251 1247.5 371.606 1247.86 371.606 1248.35V1249.85C371.961 1248.71 374.02 1246.44 376.718 1246.44C378.706 1246.44 380.836 1247.29 382.682 1248.43Z" fill="black"/>
<path d="M292.156 1268.73H357.121V1275.48H292.156V1268.73ZM293.363 1229.75H355.488V1236.28H293.363V1229.75ZM304.794 1253.54H344.483V1258.08H304.794V1253.54ZM333.691 1263.97H342.14V1281.01C342.14 1283 341.88 1284.54 341.359 1285.63C340.886 1286.77 339.916 1287.62 338.448 1288.19C336.981 1288.75 335.253 1289.08 333.265 1289.18C331.325 1289.32 329.029 1289.39 326.378 1289.39C326.236 1288.26 325.881 1286.98 325.313 1285.56C324.793 1284.14 324.248 1282.88 323.68 1281.8C324.864 1281.84 326.023 1281.89 327.159 1281.94C328.343 1281.94 329.384 1281.94 330.283 1281.94C331.23 1281.94 331.893 1281.94 332.271 1281.94C332.792 1281.89 333.147 1281.8 333.336 1281.65C333.573 1281.51 333.691 1281.23 333.691 1280.8V1263.97ZM304.226 1278.17L309.338 1273.28C310.711 1274.03 312.155 1274.91 313.669 1275.9C315.184 1276.9 316.604 1277.91 317.929 1278.96C319.255 1280 320.343 1280.97 321.195 1281.87L315.728 1287.33C314.971 1286.43 313.953 1285.44 312.675 1284.35C311.397 1283.26 310.001 1282.17 308.486 1281.09C307.019 1280 305.599 1279.03 304.226 1278.17ZM305.362 1225L312.249 1222.23C313.196 1223.17 314.143 1224.29 315.089 1225.56C316.083 1226.79 316.864 1227.88 317.432 1228.83L310.119 1231.88C309.693 1230.94 309.007 1229.82 308.06 1228.55C307.161 1227.22 306.262 1226.04 305.362 1225ZM306.64 1243.95V1260.5H342.779V1243.95H306.64ZM298.972 1238.91H350.873V1265.47H298.972V1238.91ZM335.892 1222.65L344.838 1224.85C343.608 1226.37 342.401 1227.79 341.217 1229.11C340.081 1230.44 339.04 1231.6 338.093 1232.59L331.703 1230.39C332.461 1229.26 333.218 1227.95 333.975 1226.49C334.78 1225.02 335.419 1223.74 335.892 1222.65ZM326.591 1233.02H333.762V1245.09C333.762 1245.89 333.881 1246.41 334.117 1246.65C334.401 1246.84 334.946 1246.93 335.75 1246.93C335.892 1246.93 336.2 1246.93 336.673 1246.93C337.194 1246.93 337.738 1246.93 338.306 1246.93C338.922 1246.93 339.466 1246.93 339.939 1246.93C340.46 1246.93 340.839 1246.93 341.075 1246.93C341.643 1246.93 342.046 1246.89 342.282 1246.79C342.519 1246.7 342.685 1246.56 342.779 1246.37C343.489 1246.7 344.389 1247.01 345.477 1247.29C346.566 1247.57 347.513 1247.79 348.317 1247.93C348.128 1249.16 347.536 1250.03 346.542 1250.56C345.596 1251.03 344.081 1251.27 341.998 1251.27C341.667 1251.27 341.146 1251.27 340.436 1251.27C339.774 1251.27 339.064 1251.27 338.306 1251.27C337.549 1251.27 336.815 1251.27 336.105 1251.27C335.395 1251.27 334.875 1251.27 334.543 1251.27C332.413 1251.27 330.757 1251.1 329.573 1250.77C328.437 1250.39 327.656 1249.75 327.23 1248.85C326.804 1247.95 326.591 1246.67 326.591 1245.02V1233.02ZM314.805 1232.88H321.905V1242.04C321.905 1243.74 321.55 1245.35 320.84 1246.86C320.178 1248.38 319.018 1249.73 317.361 1250.91C315.705 1252.09 313.433 1253.11 310.545 1253.96C310.167 1253.21 309.575 1252.33 308.77 1251.34C307.966 1250.3 307.232 1249.44 306.569 1248.78C308.936 1248.45 310.711 1247.95 311.894 1247.29C313.078 1246.58 313.859 1245.77 314.237 1244.88C314.616 1243.98 314.805 1243.03 314.805 1242.04V1232.88Z" fill="black"/>
<path d="M251.687 1225.35H285.625V1231.74H251.687V1225.35ZM264.183 1248H273.058V1253.39H264.183V1248ZM264.254 1258.79H273.058V1264.11H264.254V1258.79ZM257.296 1269.58H281.365V1275.61H257.296V1269.58ZM262.337 1241.18H267.023V1272.21H262.337V1241.18ZM270.36 1241.18H275.046V1272.28H270.36V1241.18ZM265.035 1228.12L273.555 1228.47C273.081 1230.7 272.537 1232.9 271.922 1235.07C271.354 1237.25 270.809 1239.12 270.289 1240.68L263.97 1239.9C264.159 1238.77 264.325 1237.51 264.467 1236.14C264.656 1234.72 264.798 1233.32 264.893 1231.95C264.987 1230.58 265.035 1229.3 265.035 1228.12ZM252.965 1236.78H284.844V1277.18H278.383V1242.81H259.213V1277.32H252.965V1236.78ZM222.151 1227.26H250.906V1233.51H222.151V1227.26ZM222.861 1236.56H250.054V1242.74H222.861V1236.56ZM221.015 1246.01H251.829V1252.61H221.015V1246.01ZM232.446 1260.99C233.676 1265.15 235.286 1268.51 237.274 1271.07C239.309 1273.63 241.652 1275.59 244.303 1276.96C247.001 1278.29 250.006 1279.19 253.32 1279.66C256.633 1280.13 260.23 1280.37 264.112 1280.37C264.916 1280.37 266.076 1280.37 267.591 1280.37C269.153 1280.37 270.88 1280.37 272.774 1280.37C274.714 1280.37 276.655 1280.37 278.596 1280.37C280.536 1280.37 282.335 1280.37 283.992 1280.37C285.648 1280.32 286.997 1280.28 288.039 1280.23C287.613 1280.84 287.187 1281.63 286.761 1282.57C286.382 1283.52 286.027 1284.49 285.696 1285.48C285.412 1286.48 285.199 1287.38 285.057 1288.18H281.01H263.828C259.094 1288.18 254.763 1287.85 250.835 1287.19C246.906 1286.52 243.38 1285.29 240.256 1283.5C237.132 1281.74 234.386 1279.24 232.02 1275.97C229.653 1272.7 227.665 1268.42 226.056 1263.12L232.446 1260.99ZM232.801 1222.65H240.469V1249.98H232.801V1222.65ZM231.31 1249.77L238.623 1251.76C237.061 1255.92 235.002 1259.92 232.446 1263.76C229.89 1267.59 227.168 1270.76 224.281 1273.27C223.949 1272.75 223.452 1272.11 222.79 1271.35C222.174 1270.55 221.535 1269.77 220.873 1269.01C220.257 1268.21 219.666 1267.59 219.098 1267.17C221.748 1265.08 224.139 1262.53 226.269 1259.5C228.399 1256.42 230.079 1253.18 231.31 1249.77ZM232.304 1256.02H245.51V1262.34H229.109L232.304 1256.02ZM242.741 1256.02H244.303L245.723 1255.81L250.551 1258.01C249.178 1263.4 247.214 1268.18 244.658 1272.35C242.102 1276.47 239.12 1279.97 235.712 1282.86C232.304 1285.7 228.588 1287.97 224.565 1289.67C224.281 1289.01 223.831 1288.25 223.216 1287.4C222.648 1286.6 222.032 1285.79 221.37 1284.99C220.754 1284.18 220.163 1283.57 219.595 1283.14C223.381 1281.72 226.813 1279.83 229.89 1277.46C233.014 1275.09 235.688 1272.25 237.913 1268.94C240.137 1265.58 241.747 1261.72 242.741 1257.37V1256.02Z" fill="black"/>
</svg>
