<svg width="1080" height="1920" viewBox="0 0 1080 1920" fill="none" xmlns="http://www.w3.org/2000/svg">
<path d="M1080 1920L1080 0L0 0L0 1920H1080Z" fill="#A5D4AD"/>
<path d="M1020 983.72V95C1020 75.67 1004.33 60 985 60H95.58C75.93 60 60 75.93 60 95.58V983.71C60 984.03 60.25 984.28 60.57 984.28C80.03 984.59 95.71 1000.46 95.71 1019.99C95.71 1039.52 80.03 1055.39 60.57 1055.7C60.25 1055.7 60 1055.96 60 1056.27V1824.99C60 1844.32 75.67 1859.99 95 1859.99H985C1004.33 1859.99 1020 1844.32 1020 1824.99V1056.27C1020 1055.95 1019.75 1055.7 1019.43 1055.7C999.97 1055.39 984.29 1039.52 984.29 1019.99C984.29 1000.46 999.97 984.59 1019.43 984.28C1019.75 984.28 1020 984.02 1020 983.71V983.72Z" fill="white"/>
<path d="M60.57 1055.71C60.25 1055.71 60 1055.97 60 1056.28V1825C60 1844.33 75.67 1860 95 1860H985C1004.33 1860 1020 1844.33 1020 1825V1056.28C1020 1055.96 1019.75 1055.71 1019.43 1055.71C999.97 1055.4 984.29 1039.53 984.29 1020H95.71C95.71 1039.53 80.03 1055.4 60.57 1055.71Z" fill="#E5F2E6"/>
<path d="M121 1020H160.9" stroke="black" stroke-width="6" stroke-miterlimit="10"/>
<path d="M187.51 1020H227.41" stroke="black" stroke-width="6" stroke-miterlimit="10"/>
<path d="M254.02 1020H293.92" stroke="black" stroke-width="6" stroke-miterlimit="10"/>
<path d="M320.52 1020H360.43" stroke="black" stroke-width="6" stroke-miterlimit="10"/>
<path d="M387.029 1020H426.939" stroke="black" stroke-width="6" stroke-miterlimit="10"/>
<path d="M453.539 1020H493.439" stroke="black" stroke-width="6" stroke-miterlimit="10"/>
<path d="M520.051 1020H559.951" stroke="black" stroke-width="6" stroke-miterlimit="10"/>
<path d="M586.561 1020H626.461" stroke="black" stroke-width="6" stroke-miterlimit="10"/>
<path d="M653.061 1020H692.971" stroke="black" stroke-width="6" stroke-miterlimit="10"/>
<path d="M719.57 1020H759.48" stroke="black" stroke-width="6" stroke-miterlimit="10"/>
<path d="M786.08 1020H825.98" stroke="black" stroke-width="6" stroke-miterlimit="10"/>
<path d="M852.59 1020H892.49" stroke="black" stroke-width="6" stroke-miterlimit="10"/>
<path d="M919.1 1020H959" stroke="black" stroke-width="6" stroke-miterlimit="10"/>
<path d="M1020 984.29V95C1020 75.67 1004.33 60 985 60H95C75.67 60 60 75.67 60 95V984.29C79.72 984.29 95.71 1000.28 95.71 1020C95.71 1039.72 79.72 1055.71 60 1055.71V1825C60 1844.33 75.67 1860 95 1860H985C1004.33 1860 1020 1844.33 1020 1825V1055.71C1000.28 1055.71 984.29 1039.72 984.29 1020C984.29 1000.28 1000.28 984.29 1020 984.29Z" stroke="black" stroke-width="6" stroke-miterlimit="10"/>
<path d="M912.649 525.666C908.779 525.666 905.539 522.646 905.319 518.736C900.589 435.626 868.789 358.856 813.369 296.746C810.669 293.716 810.929 289.066 813.959 286.366C816.989 283.666 821.629 283.926 824.339 286.956C881.999 351.576 915.069 431.436 919.999 517.896C920.229 521.946 917.129 525.426 913.079 525.656C912.939 525.656 912.799 525.666 912.659 525.666H912.649Z" fill="black"/>
<path d="M818.849 795.517C817.109 795.517 815.359 794.897 813.959 793.647C810.929 790.947 810.669 786.297 813.369 783.267C868.789 721.157 900.589 644.387 905.319 561.277C905.549 557.227 909.029 554.117 913.079 554.357C917.129 554.587 920.229 558.057 919.999 562.117C915.069 648.587 881.999 728.447 824.339 793.057C822.889 794.687 820.869 795.517 818.849 795.517Z" fill="black"/>
<path d="M167.36 525.666C167.22 525.666 167.08 525.666 166.94 525.656C162.89 525.426 159.79 521.956 160.02 517.896C164.95 431.426 198.02 351.566 255.68 286.956C258.38 283.926 263.03 283.666 266.06 286.366C269.09 289.066 269.35 293.716 266.65 296.746C211.23 358.856 179.43 435.616 174.7 518.736C174.48 522.646 171.24 525.666 167.37 525.666H167.36Z" fill="black"/>
<path d="M261.17 795.517C259.15 795.517 257.13 794.687 255.68 793.057C198.02 728.437 164.95 648.577 160.02 562.117C159.79 558.067 162.89 554.587 166.94 554.357C170.99 554.117 174.47 557.227 174.7 561.277C179.43 644.397 211.23 721.157 266.65 783.267C269.35 786.297 269.09 790.947 266.06 793.647C264.66 794.897 262.91 795.517 261.17 795.517Z" fill="black"/>
<path d="M788.169 268.511C786.429 268.511 784.679 267.891 783.279 266.641C721.169 211.221 644.399 179.421 561.289 174.691C557.239 174.461 554.139 170.991 554.369 166.931C554.599 162.881 558.039 159.791 562.129 160.011C648.599 164.941 728.459 198.011 793.069 255.671C796.099 258.371 796.359 263.021 793.659 266.051C792.209 267.681 790.189 268.511 788.169 268.511Z" fill="black"/>
<path d="M291.85 268.512C289.83 268.512 287.81 267.682 286.36 266.052C283.66 263.022 283.92 258.372 286.95 255.672C351.57 198.012 431.43 164.942 517.89 160.012C521.94 159.782 525.42 162.882 525.65 166.932C525.88 170.982 522.78 174.462 518.73 174.692C435.62 179.422 358.85 211.222 296.74 266.642C295.34 267.892 293.59 268.512 291.85 268.512Z" fill="black"/>
<path d="M561.69 920.006C557.82 920.006 554.58 916.986 554.36 913.076C554.13 909.026 557.23 905.546 561.28 905.316C644.4 900.586 721.16 868.786 783.27 813.366C786.3 810.666 790.95 810.926 793.65 813.956C796.35 816.986 796.09 821.636 793.06 824.336C728.44 881.996 648.58 915.066 562.12 919.996C561.98 919.996 561.84 920.006 561.7 920.006H561.69Z" fill="black"/>
<path d="M518.319 920.006C518.179 920.006 518.04 920.006 517.9 919.996C431.43 915.066 351.569 881.996 286.959 824.336C283.929 821.636 283.669 816.986 286.369 813.956C289.069 810.926 293.719 810.666 296.749 813.366C358.859 868.786 435.629 900.586 518.739 905.316C522.789 905.546 525.889 909.016 525.659 913.076C525.439 916.986 522.199 920.006 518.329 920.006H518.319Z" fill="black"/>
<path d="M875.38 526.189C872.37 526.189 869.85 523.839 869.68 520.799C865.41 445.789 836.71 376.519 786.7 320.459C784.6 318.099 784.8 314.489 787.16 312.389C789.51 310.289 793.13 310.489 795.23 312.849C846.98 370.849 876.68 442.539 881.1 520.149C881.28 523.299 878.87 525.999 875.72 526.179C875.61 526.179 875.5 526.179 875.39 526.179L875.38 526.189Z" fill="black"/>
<path d="M790.96 769.062C789.6 769.062 788.25 768.582 787.16 767.612C784.8 765.512 784.6 761.892 786.7 759.542C836.71 703.492 865.41 634.212 869.68 559.202C869.86 556.052 872.55 553.642 875.71 553.822C878.86 554.002 881.27 556.702 881.09 559.852C876.67 637.472 846.98 709.152 795.22 767.152C794.09 768.422 792.52 769.062 790.95 769.062H790.96Z" fill="black"/>
<path d="M204.63 526.187C204.52 526.187 204.41 526.187 204.3 526.187C201.15 526.007 198.74 523.307 198.92 520.157C203.34 442.537 233.03 370.857 284.79 312.857C286.89 310.497 290.51 310.297 292.86 312.397C295.22 314.497 295.42 318.117 293.32 320.467C243.31 376.517 214.61 445.797 210.34 520.807C210.17 523.847 207.65 526.197 204.64 526.197L204.63 526.187Z" fill="black"/>
<path d="M289.05 769.055C287.48 769.055 285.91 768.405 284.78 767.145C233.03 709.145 203.33 637.455 198.91 559.845C198.73 556.695 201.14 553.995 204.29 553.815C207.45 553.625 210.14 556.045 210.32 559.195C214.59 634.205 243.29 703.485 293.3 759.535C295.4 761.895 295.2 765.505 292.84 767.605C291.75 768.575 290.39 769.055 289.04 769.055H289.05Z" fill="black"/>
<path d="M763.35 294.756C761.99 294.756 760.64 294.276 759.55 293.306C703.5 243.296 634.22 214.596 559.21 210.326C556.06 210.146 553.65 207.446 553.83 204.296C554.01 201.146 556.7 198.736 559.86 198.916C637.48 203.336 709.16 233.026 767.16 284.786C769.52 286.886 769.72 290.506 767.62 292.856C766.49 294.126 764.92 294.766 763.35 294.766V294.756Z" fill="black"/>
<path d="M316.659 294.759C315.089 294.759 313.519 294.109 312.389 292.849C310.289 290.489 310.489 286.879 312.849 284.779C370.849 233.029 442.539 203.329 520.149 198.909C523.299 198.719 525.999 201.139 526.179 204.289C526.359 207.439 523.949 210.139 520.799 210.319C445.789 214.589 376.519 243.289 320.459 293.299C319.369 294.269 318.009 294.749 316.659 294.749V294.759Z" fill="black"/>
<path d="M559.53 881.102C556.52 881.102 554 878.752 553.83 875.712C553.65 872.562 556.06 869.862 559.21 869.682C634.22 865.412 703.49 836.712 759.55 786.702C761.9 784.602 765.52 784.802 767.62 787.162C769.72 789.522 769.52 793.132 767.16 795.232C709.16 846.982 637.47 876.682 559.86 881.102C559.75 881.102 559.64 881.102 559.53 881.102Z" fill="black"/>
<path d="M520.489 881.102C520.379 881.102 520.269 881.102 520.159 881.102C442.539 876.682 370.859 846.992 312.859 795.232C310.499 793.132 310.299 789.512 312.399 787.162C314.499 784.802 318.119 784.602 320.469 786.702C376.519 836.722 445.799 865.412 520.809 869.682C523.959 869.862 526.369 872.562 526.189 875.712C526.019 878.752 523.499 881.102 520.489 881.102Z" fill="black"/>
<path d="M841.849 526.514C839.699 526.514 837.899 524.834 837.779 522.664C833.919 454.914 807.999 392.344 762.829 341.714C761.329 340.034 761.479 337.454 763.159 335.944C764.839 334.444 767.419 334.584 768.929 336.274C815.349 388.294 841.979 452.584 845.939 522.194C846.069 524.444 844.349 526.374 842.089 526.504C842.009 526.504 841.929 526.504 841.849 526.504V526.514Z" fill="black"/>
<path d="M765.869 745.106C764.899 745.106 763.929 744.766 763.149 744.066C761.469 742.566 761.319 739.986 762.819 738.296C807.989 687.666 833.909 625.096 837.769 557.346C837.899 555.096 839.859 553.396 842.079 553.496C844.329 553.626 846.049 555.556 845.929 557.806C841.959 627.416 815.329 691.706 768.919 743.726C768.109 744.626 766.989 745.086 765.869 745.086V745.106Z" fill="black"/>
<path d="M238.17 526.516C238.09 526.516 238.01 526.516 237.93 526.516C235.68 526.386 233.96 524.456 234.08 522.206C238.05 452.596 264.68 388.306 311.09 336.286C312.59 334.606 315.17 334.456 316.86 335.956C318.54 337.456 318.69 340.036 317.19 341.726C272.02 392.356 246.1 454.926 242.24 522.676C242.12 524.846 240.32 526.526 238.17 526.526V526.516Z" fill="black"/>
<path d="M314.139 745.103C313.019 745.103 311.899 744.643 311.089 743.743C264.669 691.723 238.039 627.433 234.079 557.823C233.949 555.573 235.669 553.643 237.929 553.513C240.169 553.403 242.109 555.103 242.239 557.363C246.099 625.113 272.019 687.683 317.189 738.313C318.689 739.993 318.539 742.573 316.859 744.083C316.079 744.773 315.109 745.123 314.139 745.123V745.103Z" fill="black"/>
<path d="M741.018 318.225C740.048 318.225 739.078 317.885 738.298 317.185C687.668 272.015 625.098 246.095 557.348 242.235C555.098 242.105 553.378 240.175 553.498 237.925C553.628 235.675 555.548 233.965 557.808 234.075C627.418 238.045 691.708 264.675 743.738 311.085C745.418 312.585 745.568 315.165 744.068 316.855C743.258 317.755 742.138 318.215 741.018 318.215V318.225Z" fill="black"/>
<path d="M338.998 318.224C337.878 318.224 336.758 317.764 335.948 316.864C334.448 315.184 334.598 312.604 336.278 311.094C388.298 264.674 452.588 238.044 522.198 234.084C524.448 233.964 526.378 235.674 526.508 237.934C526.638 240.184 524.918 242.114 522.658 242.244C454.908 246.104 392.338 272.024 341.708 317.194C340.928 317.884 339.958 318.234 338.988 318.234L338.998 318.224Z" fill="black"/>
<path d="M557.569 845.933C555.419 845.933 553.619 844.253 553.499 842.083C553.369 839.833 555.089 837.903 557.349 837.773C625.099 833.913 687.669 807.993 738.299 762.823C739.979 761.323 742.559 761.473 744.069 763.153C745.569 764.833 745.419 767.413 743.739 768.923C691.719 815.343 627.429 841.973 557.809 845.933C557.729 845.933 557.649 845.933 557.569 845.933Z" fill="black"/>
<path d="M522.438 845.933C522.358 845.933 522.278 845.933 522.198 845.933C452.588 841.963 388.298 815.333 336.278 768.923C334.598 767.423 334.448 764.843 335.948 763.153C337.448 761.473 340.028 761.323 341.718 762.823C392.348 807.993 454.918 833.913 522.668 837.773C524.918 837.903 526.638 839.833 526.518 842.083C526.398 844.253 524.598 845.933 522.448 845.933H522.438Z" fill="black"/>
<path d="M320.65 546.174C320.65 544.604 321.79 543.274 323.34 543.024C324.64 542.814 326.27 542.524 327.98 542.124C332.4 541.084 337.59 539.114 343.41 536.274C349.29 533.404 354.92 529.414 359.17 523.674C366.34 513.974 367.86 501.404 368.19 496.894C368.26 495.974 367.53 495.194 366.6 495.194H317.09C315.33 495.194 313.91 493.764 313.91 492.014V470.694C313.91 468.934 315.34 467.514 317.09 467.514H367.07C367.95 467.514 368.66 466.804 368.66 465.924V447.184C368.66 446.304 367.95 445.594 367.07 445.594H328.62C326.86 445.594 325.44 444.164 325.44 442.414V421.094C325.44 419.334 326.87 417.914 328.62 417.914H428.96C430.72 417.914 432.14 419.344 432.14 421.094V442.414C432.14 444.174 430.71 445.594 428.96 445.594H398.52C397.64 445.594 396.93 446.304 396.93 447.184V465.924C396.93 466.804 397.64 467.514 398.52 467.514H438.58C440.34 467.514 441.76 468.944 441.76 470.694V492.014C441.76 493.774 440.33 495.194 438.58 495.194H398.39C397.54 495.194 396.84 495.864 396.8 496.714C396.57 501.754 395.15 518.444 386.18 532.854C380.73 541.614 373.65 548.264 366.54 553.544C359.41 558.844 352.26 562.934 345.27 565.704C338.24 568.494 332.34 570.444 327.75 571.514C326.66 571.764 325.49 571.994 324.4 572.184C322.45 572.534 320.66 571.034 320.66 569.044V546.164L320.65 546.174Z" fill="black"/>
<path d="M474.55 546.522C474.55 545.062 475.55 543.792 476.96 543.432C485.21 541.362 488.93 540.112 496.84 536.322C496.84 536.322 500.89 534.212 504.93 531.302C517.11 522.542 525.22 510.632 525.22 510.632C534.68 497.282 537.77 474.912 538.49 468.492C538.6 467.552 537.86 466.722 536.91 466.722H500.58C500.35 466.722 500.14 466.842 500.03 467.042L499.88 467.292C494.3 478.112 486.88 487.992 480.45 494.242C474 500.502 468.59 505.052 464.38 507.752L461.78 509.422C460.72 510.102 459.33 509.342 459.33 508.082V479.892C459.33 478.952 459.75 478.062 460.47 477.452C461.12 476.902 461.99 476.132 463.18 475.062C465.94 472.572 469.05 468.512 472.42 462.982C475.76 457.512 479.35 450.212 483.07 441.292C486.45 433.202 488.98 423.092 490.86 412.062C491.12 410.532 492.45 409.422 494 409.422H513.91C515.91 409.422 517.42 411.252 517.04 413.212C516.4 416.522 515.71 420.882 514.85 424.312C513.58 429.392 512.76 432.302 511.24 436.722C510.98 437.472 511.54 438.242 512.33 438.242H591.18C592.94 438.242 594.36 439.672 594.36 441.422V463.512C594.36 465.272 592.93 466.692 591.18 466.692H568.14C567.33 466.692 566.64 467.302 566.56 468.112C565.93 474.012 562.88 497.162 552.39 517.262C538.29 546.002 508.14 566.392 478.34 572.132C476.38 572.512 474.56 571.002 474.56 569.002V546.482L474.55 546.522Z" fill="black"/>
<path d="M675.9 411.035V468.875C675.9 469.755 676.61 470.465 677.49 470.465H764.52C765.4 470.465 766.11 469.755 766.11 468.875V411.035C766.11 410.155 765.4 409.445 764.52 409.445H677.49C676.61 409.445 675.9 410.155 675.9 411.035ZM738.46 452.745H702.3C701.42 452.745 700.71 452.035 700.71 451.155V446.875C700.71 445.995 701.42 445.285 702.3 445.285H738.46C739.34 445.285 740.05 445.995 740.05 446.875V451.155C740.05 452.035 739.34 452.745 738.46 452.745ZM738.46 434.455H702.3C701.42 434.455 700.71 433.745 700.71 432.865V428.755C700.71 427.875 701.42 427.165 702.3 427.165H738.46C739.34 427.165 740.05 427.875 740.05 428.755V432.865C740.05 433.745 739.34 434.455 738.46 434.455Z" fill="black"/>
<path d="M674.23 497.342H728.27C729.15 497.342 729.86 498.052 729.86 498.932V502.842C729.86 503.722 729.15 504.432 728.27 504.432H667.76C666 504.432 664.58 505.862 664.58 507.612V522.862C664.58 524.622 666.01 526.042 667.76 526.042H728.27C729.15 526.042 729.86 526.752 729.86 527.632V545.392C729.86 546.112 729.94 547.982 729.22 548.852C728.39 549.872 727.15 549.672 725.85 549.722C722.54 549.722 719.58 549.702 716.95 549.662C716.55 549.662 716.26 549.292 716.34 548.902C716.6 547.632 716.73 546.312 716.7 544.962C716.5 535.682 708.94 528.082 699.66 527.842C689.58 527.582 681.37 535.852 681.71 545.942C682.02 555.292 689.79 562.812 699.15 562.842C704.04 562.852 708.46 560.862 711.64 557.642C711.98 557.302 712.55 557.432 712.7 557.882C714.16 562.212 715.54 566.342 716.79 570.052C717.23 571.352 718.46 572.222 719.83 572.212C725.73 572.172 730.51 571.962 734.18 571.602C738.31 571.182 742.09 570.152 745.52 568.502C749.18 566.842 751.69 564.422 753.05 561.232C754.41 558.042 755.09 553.552 755.09 547.762V527.622C755.09 526.742 755.8 526.032 756.68 526.032H762.91C764.67 526.032 766.09 524.602 766.09 522.852V507.602C766.09 505.842 764.66 504.422 762.91 504.422H756.68C755.8 504.422 755.09 503.712 755.09 502.832V498.922C755.09 498.042 755.8 497.332 756.68 497.332H762.91C764.67 497.332 766.09 495.902 766.09 494.152V479.602C766.09 477.842 764.66 476.422 762.91 476.422H674.21C672.45 476.422 671.03 477.852 671.03 479.602V494.152C671.03 495.912 672.46 497.332 674.21 497.332L674.23 497.342Z" fill="black"/>
<path d="M668.83 409.445H650.26C649.4 409.445 648.58 409.795 647.98 410.405C635.23 423.355 618.29 434.575 612.13 438.485C610.78 439.335 610.28 441.065 610.95 442.505L620.7 463.575C621.63 465.575 624.26 466.055 625.83 464.505C646.12 444.465 664.45 419.805 670.12 411.965C670.88 410.915 670.12 409.445 668.83 409.445Z" fill="black"/>
<path d="M671.92 453.899V435.419C671.92 434.009 670.22 433.299 669.21 434.289C653.64 449.609 620.05 477.069 611.68 483.869C610.55 484.789 610.19 486.359 610.8 487.679L620.7 509.059C621.63 511.059 624.26 511.539 625.83 509.989C627.54 508.299 629.24 506.569 630.92 504.829C631.32 504.419 632.02 504.699 632.02 505.269V569.069C632.02 570.829 633.45 572.249 635.2 572.249H653.82C655.58 572.249 657 570.819 657 569.069V476.379C657 475.309 657.36 474.259 658.03 473.419C664.87 464.739 669.72 458.029 671.34 455.749C671.72 455.209 671.93 454.569 671.93 453.899H671.92Z" fill="black"/>
<path d="M653.271 623.338C640.851 623.338 634.811 628.288 634.811 638.478V655.608C634.811 665.678 640.851 670.568 653.271 670.568C659.141 670.568 663.481 669.488 666.561 667.278C670.001 664.808 671.741 660.878 671.741 655.598V638.468C671.741 628.278 665.701 623.328 653.281 623.328L653.271 623.338ZM646.091 639.308C646.091 633.938 648.841 632.918 653.271 632.918C657.701 632.918 660.451 633.958 660.451 639.308V654.688C660.451 659.958 657.601 660.988 653.271 660.988C648.941 660.988 646.091 659.988 646.091 654.688V639.308Z" fill="black"/>
<path d="M708.27 669.334H721.359L703.63 646.784L720.56 624.804H707.4L694.06 642.284V610.234H682.77V669.334H694.06V659.214L696.95 655.454L708.27 669.334Z" fill="black"/>
<path d="M754.82 624.805V653.295C754.82 659.045 751.88 660.895 746.83 660.895C743.56 660.895 740.28 660.355 740.28 653.885V624.815H729V656.775C729 665.745 733.71 670.485 742.62 670.485C749.3 670.485 753.88 666.865 755.58 662.805L757.39 669.345H766.11V624.815H754.83L754.82 624.805Z" fill="black"/>
<path d="M630.57 610.234H589.15V620.144V620.154H604.22V669.334H615.69V620.154H630.57V610.234Z" fill="black"/>
<path d="M459.689 669.334H472.779L455.049 646.784L471.979 624.804H458.819L445.479 642.284V610.234H434.199V669.334H445.479V659.214L448.369 655.454L459.689 669.334Z" fill="black"/>
<path d="M355.33 610.234H313.91V620.144V620.154H328.99V669.334H340.45V620.154H355.33V610.234Z" fill="black"/>
<path d="M421.8 658.896L421.2 659.046C417.62 659.966 413.29 660.896 409.41 660.896C404.86 660.896 401.69 658.826 401.69 652.836V640.976C401.69 634.906 404.86 632.826 409.41 632.826C413.36 632.826 417.88 633.706 421.23 634.406L421.81 634.526V625.196L421.5 625.126C417.69 624.236 412.05 623.336 407.53 623.336C402.01 623.336 397.97 624.406 395.17 626.596C391.97 629.096 390.42 633.856 390.42 639.346V654.646C390.42 664.776 396.02 670.566 407.54 670.566C411.41 670.566 417.27 669.496 421.53 668.316L421.82 668.236V658.886L421.8 658.896Z" fill="black"/>
<path d="M553.93 634.705V624.805H543.69V615.195H532.41V624.805H525.18V634.705H532.41V655.425C532.41 667.945 540.3 670.565 546.93 670.565C548.71 670.565 550.51 670.455 552.12 670.225V660.265C551.47 660.335 550.26 660.365 549.54 660.365C546.46 660.365 543.69 659.735 543.69 652.095V634.695H553.93V634.705Z" fill="black"/>
<path d="M489.741 650.742V650.562H515.171V641.482C515.171 635.572 513.551 630.243 510.361 627.343C507.421 624.673 502.781 623.312 497.261 623.312C485.081 623.312 478.461 629.223 478.461 639.593V654.453C478.461 664.703 483.841 670.552 496.321 670.552C500.981 670.552 506.291 669.563 511.971 668.403L512.361 668.323V659.052L511.711 659.203C507.141 660.253 504.621 661.143 500.291 661.143C494.081 661.143 489.741 658.623 489.741 652.203V650.722V650.742ZM489.741 639.722C489.741 634.072 493.801 632.742 497.171 632.742C500.541 632.742 504.071 634.072 504.071 639.722V643.232H489.741V642.713V639.722Z" fill="black"/>
<path d="M378.18 626.883H366.9V669.333H378.18V626.883Z" fill="black"/>
<path d="M372.54 622.224C376.422 622.224 379.57 619.077 379.57 615.194C379.57 611.312 376.422 608.164 372.54 608.164C368.657 608.164 365.51 611.312 365.51 615.194C365.51 619.077 368.657 622.224 372.54 622.224Z" fill="black"/>
<path d="M585.74 643.922H566.15V651.262H585.74V643.922Z" fill="black"/>
<path d="M778.858 1693C778.011 1693 777.285 1692.4 777.285 1691.43V1597.66C777.285 1596.93 777.89 1596.2 778.858 1596.2H823.144C824.112 1596.2 824.717 1596.81 824.717 1597.66V1607.09C824.717 1607.94 824.112 1608.55 823.144 1608.55H789.99V1638.43H822.055C822.902 1638.43 823.507 1639.04 823.507 1639.88V1649.08C823.507 1650.05 822.902 1650.77 822.055 1650.77H789.99V1691.43C789.99 1692.4 789.264 1693 788.417 1693H778.858Z" fill="black"/>
<path d="M710.204 1693C709.357 1693 708.631 1692.4 708.631 1691.43V1597.66C708.631 1596.93 709.236 1596.2 710.204 1596.2H754.49C755.458 1596.2 756.063 1596.81 756.063 1597.66V1607.09C756.063 1607.94 755.458 1608.55 754.49 1608.55H721.336V1638.43H753.401C754.248 1638.43 754.853 1639.04 754.853 1639.88V1649.08C754.853 1650.05 754.248 1650.77 753.401 1650.77H721.336V1691.43C721.336 1692.4 720.61 1693 719.763 1693H710.204Z" fill="black"/>
<path d="M640.647 1606.97C620.198 1606.97 603.742 1623.66 603.742 1644.48C603.742 1665.05 620.077 1682.23 640.526 1682.23C660.975 1682.23 677.673 1665.05 677.673 1644.6C677.673 1623.79 661.096 1606.97 640.647 1606.97ZM590.916 1644.48C590.916 1616.65 612.817 1594.38 640.647 1594.38C668.477 1594.38 690.499 1616.77 690.499 1644.6C690.499 1672.43 668.356 1694.81 640.526 1694.81C612.696 1694.81 590.916 1672.31 590.916 1644.48Z" fill="black"/>
<path d="M473.547 1597.89H568.411V1612.29H488.067V1703.77H473.547V1597.89ZM561.514 1597.89H576.155V1686.83C576.155 1690.7 575.671 1693.72 574.703 1695.9C573.735 1698.16 572.001 1699.89 569.5 1701.1C566.999 1702.31 563.853 1703.04 560.062 1703.28C556.351 1703.6 551.794 1703.77 546.389 1703.77C546.147 1702.39 545.744 1700.82 545.179 1699.05C544.614 1697.27 543.969 1695.5 543.243 1693.72C542.517 1692.03 541.791 1690.54 541.065 1689.25C543.404 1689.41 545.744 1689.53 548.083 1689.61C550.503 1689.61 552.641 1689.61 554.496 1689.61C556.351 1689.61 557.642 1689.61 558.368 1689.61C559.497 1689.53 560.304 1689.29 560.788 1688.88C561.272 1688.4 561.514 1687.63 561.514 1686.58V1597.89ZM481.412 1642.9H568.653V1657.18H481.412V1642.9ZM516.744 1605.76H531.264V1650.04H516.744V1605.76Z" fill="black"/>
<path d="M445.075 1644.48C445.075 1626.33 439.388 1606.72 424.263 1606.72C409.138 1606.72 403.451 1626.33 403.451 1644.48C403.451 1663.84 409.138 1682.47 424.263 1682.47C439.388 1682.47 445.075 1663.84 445.075 1644.48ZM390.746 1644.48C390.746 1620.28 400.063 1594.38 424.263 1594.38C448.463 1594.38 457.78 1620.28 457.78 1644.48C457.78 1671.1 448.463 1694.81 424.263 1694.81C400.063 1694.81 390.746 1671.1 390.746 1644.48Z" fill="black"/>
<path d="M365.905 1644.48C365.905 1626.33 360.218 1606.72 345.093 1606.72C329.968 1606.72 324.281 1626.33 324.281 1644.48C324.281 1663.84 329.968 1682.47 345.093 1682.47C360.218 1682.47 365.905 1663.84 365.905 1644.48ZM311.576 1644.48C311.576 1620.28 320.893 1594.38 345.093 1594.38C369.293 1594.38 378.61 1620.28 378.61 1644.48C378.61 1671.1 369.293 1694.81 345.093 1694.81C320.893 1694.81 311.576 1671.1 311.576 1644.48Z" fill="black"/>
<path d="M285.946 1596.2C286.793 1596.2 287.398 1596.81 287.398 1597.66V1691.43C287.398 1692.28 286.793 1693 285.946 1693H276.266C275.419 1693 274.814 1692.28 274.814 1691.43V1608.55H259.689C258.358 1608.55 257.753 1607.21 258.358 1606.37L264.408 1596.81C264.65 1596.45 265.134 1596.2 265.618 1596.2H285.946Z" fill="black"/>
<path d="M788.4 1459.05C789.933 1459.25 791.65 1459.4 793.55 1459.5C795.483 1459.57 797.433 1459.6 799.4 1459.6C801.4 1459.57 803.316 1459.5 805.15 1459.4C806.983 1459.27 808.566 1459.13 809.9 1459V1465.45C808.366 1465.58 806.683 1465.7 804.85 1465.8C803.016 1465.87 801.133 1465.9 799.2 1465.9C797.266 1465.9 795.366 1465.87 793.5 1465.8C791.666 1465.7 789.966 1465.58 788.4 1465.45V1459.05ZM792.4 1480.4C792.2 1481.23 792.05 1481.98 791.95 1482.65C791.85 1483.28 791.8 1483.93 791.8 1484.6C791.8 1485.13 791.933 1485.63 792.2 1486.1C792.466 1486.53 792.866 1486.92 793.4 1487.25C793.966 1487.55 794.683 1487.78 795.55 1487.95C796.45 1488.08 797.533 1488.15 798.8 1488.15C801.033 1488.15 803.133 1488.05 805.1 1487.85C807.066 1487.62 809.15 1487.28 811.35 1486.85L811.45 1493.6C809.85 1493.9 808 1494.13 805.9 1494.3C803.833 1494.47 801.383 1494.55 798.55 1494.55C794.25 1494.55 791.05 1493.83 788.95 1492.4C786.85 1490.93 785.8 1488.92 785.8 1486.35C785.8 1485.38 785.866 1484.38 786 1483.35C786.166 1482.28 786.383 1481.12 786.65 1479.85L792.4 1480.4ZM780.7 1455.7C780.566 1456.03 780.416 1456.5 780.25 1457.1C780.083 1457.7 779.916 1458.28 779.75 1458.85C779.616 1459.42 779.516 1459.85 779.45 1460.15C779.35 1460.85 779.183 1461.77 778.95 1462.9C778.75 1464 778.533 1465.25 778.3 1466.65C778.1 1468.02 777.9 1469.42 777.7 1470.85C777.5 1472.28 777.333 1473.67 777.2 1475C777.1 1476.33 777.05 1477.5 777.05 1478.5C777.05 1478.97 777.05 1479.5 777.05 1480.1C777.083 1480.7 777.15 1481.25 777.25 1481.75C777.483 1481.18 777.733 1480.62 778 1480.05C778.266 1479.48 778.533 1478.92 778.8 1478.35C779.066 1477.75 779.3 1477.18 779.5 1476.65L782.6 1479.1C782.133 1480.47 781.65 1481.93 781.15 1483.5C780.683 1485.07 780.25 1486.55 779.85 1487.95C779.483 1489.32 779.2 1490.45 779 1491.35C778.933 1491.72 778.866 1492.13 778.8 1492.6C778.766 1493.07 778.75 1493.43 778.75 1493.7C778.75 1493.97 778.75 1494.28 778.75 1494.65C778.783 1495.05 778.816 1495.42 778.85 1495.75L773.05 1496.15C772.55 1494.42 772.1 1492.12 771.7 1489.25C771.3 1486.35 771.1 1483.2 771.1 1479.8C771.1 1477.93 771.183 1476.03 771.35 1474.1C771.516 1472.17 771.716 1470.32 771.95 1468.55C772.183 1466.75 772.4 1465.12 772.6 1463.65C772.833 1462.18 773.033 1460.97 773.2 1460C773.266 1459.3 773.35 1458.52 773.45 1457.65C773.583 1456.75 773.666 1455.9 773.7 1455.1L780.7 1455.7Z" fill="black"/>
<path d="M718.349 1459.55H763.699V1465.25H718.349V1459.55ZM735.049 1471.8H754.199V1477.45H735.049V1471.8ZM751.949 1471.8H758.149C758.149 1471.8 758.133 1471.96 758.099 1472.3C758.099 1472.6 758.099 1472.95 758.099 1473.35C758.099 1473.75 758.066 1474.1 757.999 1474.4C757.699 1478.96 757.366 1482.7 756.999 1485.6C756.633 1488.5 756.216 1490.76 755.749 1492.4C755.283 1494 754.716 1495.16 754.049 1495.9C753.283 1496.73 752.483 1497.3 751.649 1497.6C750.816 1497.9 749.816 1498.11 748.649 1498.25C747.683 1498.35 746.416 1498.38 744.849 1498.35C743.283 1498.35 741.666 1498.31 739.999 1498.25C739.966 1497.38 739.749 1496.38 739.349 1495.25C738.949 1494.15 738.449 1493.18 737.849 1492.35C739.583 1492.51 741.249 1492.61 742.849 1492.65C744.449 1492.68 745.599 1492.7 746.299 1492.7C746.866 1492.7 747.333 1492.66 747.699 1492.6C748.099 1492.5 748.449 1492.31 748.749 1492.05C749.283 1491.61 749.733 1490.66 750.099 1489.2C750.499 1487.73 750.849 1485.65 751.149 1482.95C751.449 1480.25 751.716 1476.83 751.949 1472.7V1471.8ZM732.799 1462.95H739.499C739.366 1465.61 739.149 1468.31 738.849 1471.05C738.583 1473.75 738.116 1476.43 737.449 1479.1C736.783 1481.73 735.816 1484.25 734.549 1486.65C733.283 1489.05 731.616 1491.28 729.549 1493.35C727.483 1495.41 724.866 1497.25 721.699 1498.85C721.266 1498.01 720.633 1497.11 719.799 1496.15C718.999 1495.18 718.216 1494.38 717.449 1493.75C720.349 1492.41 722.716 1490.86 724.549 1489.1C726.416 1487.3 727.883 1485.36 728.949 1483.3C730.016 1481.2 730.799 1479.01 731.299 1476.75C731.833 1474.48 732.183 1472.18 732.349 1469.85C732.549 1467.51 732.699 1465.21 732.799 1462.95ZM737.599 1451.3H743.849V1461.8H737.599V1451.3Z" fill="black"/>
<path d="M695.549 1459.75C695.216 1462.28 694.783 1464.98 694.249 1467.85C693.716 1470.72 692.999 1473.62 692.099 1476.55C691.133 1479.92 689.999 1482.82 688.699 1485.25C687.399 1487.68 685.966 1489.57 684.399 1490.9C682.866 1492.2 681.183 1492.85 679.349 1492.85C677.516 1492.85 675.816 1492.23 674.249 1491C672.716 1489.73 671.483 1488 670.549 1485.8C669.649 1483.6 669.199 1481.1 669.199 1478.3C669.199 1475.4 669.783 1472.67 670.949 1470.1C672.116 1467.53 673.733 1465.27 675.799 1463.3C677.899 1461.3 680.333 1459.73 683.099 1458.6C685.899 1457.47 688.916 1456.9 692.149 1456.9C695.249 1456.9 698.033 1457.4 700.499 1458.4C702.999 1459.4 705.133 1460.78 706.899 1462.55C708.666 1464.32 710.016 1466.38 710.949 1468.75C711.883 1471.12 712.349 1473.67 712.349 1476.4C712.349 1479.9 711.633 1483.03 710.199 1485.8C708.766 1488.57 706.633 1490.85 703.799 1492.65C700.999 1494.45 697.499 1495.68 693.299 1496.35L689.549 1490.4C690.516 1490.3 691.366 1490.18 692.099 1490.05C692.833 1489.92 693.533 1489.77 694.199 1489.6C695.799 1489.2 697.283 1488.63 698.649 1487.9C700.049 1487.13 701.266 1486.2 702.299 1485.1C703.333 1483.97 704.133 1482.65 704.699 1481.15C705.299 1479.65 705.599 1478 705.599 1476.2C705.599 1474.23 705.299 1472.43 704.699 1470.8C704.099 1469.17 703.216 1467.75 702.049 1466.55C700.883 1465.32 699.466 1464.38 697.799 1463.75C696.133 1463.08 694.216 1462.75 692.049 1462.75C689.383 1462.75 687.033 1463.23 684.999 1464.2C682.966 1465.13 681.249 1466.35 679.849 1467.85C678.449 1469.35 677.383 1470.97 676.649 1472.7C675.949 1474.43 675.599 1476.08 675.599 1477.65C675.599 1479.32 675.799 1480.72 676.199 1481.85C676.599 1482.95 677.083 1483.78 677.649 1484.35C678.249 1484.88 678.883 1485.15 679.549 1485.15C680.249 1485.15 680.933 1484.8 681.599 1484.1C682.299 1483.37 682.983 1482.27 683.649 1480.8C684.316 1479.33 684.983 1477.48 685.649 1475.25C686.416 1472.85 687.066 1470.28 687.599 1467.55C688.133 1464.82 688.516 1462.15 688.749 1459.55L695.549 1459.75Z" fill="black"/>
<path d="M650.601 1462.65L657.001 1464.55C654.901 1470.55 652.184 1475.75 648.851 1480.15C645.517 1484.55 641.551 1488.27 636.951 1491.3C632.384 1494.3 627.101 1496.75 621.101 1498.65C620.901 1498.12 620.567 1497.48 620.101 1496.75C619.634 1496.02 619.151 1495.28 618.651 1494.55C618.184 1493.85 617.734 1493.27 617.301 1492.8C623.067 1491.27 628.117 1489.18 632.451 1486.55C636.784 1483.92 640.451 1480.65 643.451 1476.75C646.451 1472.82 648.834 1468.12 650.601 1462.65ZM631.251 1463.05C632.951 1468.02 635.301 1472.47 638.301 1476.4C641.301 1480.33 645.001 1483.67 649.401 1486.4C653.834 1489.13 659.001 1491.17 664.901 1492.5C664.434 1492.97 663.917 1493.57 663.351 1494.3C662.817 1495.03 662.301 1495.77 661.801 1496.5C661.301 1497.27 660.901 1497.93 660.601 1498.5C654.367 1496.9 649.001 1494.57 644.501 1491.5C640.001 1488.4 636.184 1484.63 633.051 1480.2C629.951 1475.77 627.351 1470.65 625.251 1464.85L631.251 1463.05ZM618.201 1459.45H664.001V1465.3H618.201V1459.45ZM637.901 1451.5H644.051V1463H637.901V1451.5Z" fill="black"/>
<path d="M589 1456.05L592.9 1451.4C594.266 1452.03 595.7 1452.78 597.2 1453.65C598.733 1454.52 600.166 1455.4 601.5 1456.3C602.866 1457.2 603.983 1458.07 604.85 1458.9L600.5 1464.1C599.733 1463.23 598.7 1462.32 597.4 1461.35C596.133 1460.38 594.75 1459.43 593.25 1458.5C591.783 1457.57 590.366 1456.75 589 1456.05ZM585.65 1476.35H611.65V1482.05H585.65V1476.35ZM582.1 1491.15H614.55V1496.85H582.1V1491.15ZM583.9 1462.4H613.5V1468.1H583.9V1462.4ZM595.3 1464.3H601.55V1493.7H595.3V1464.3ZM570.7 1456.15L573.95 1451.75C575.05 1452.12 576.2 1452.6 577.4 1453.2C578.6 1453.77 579.75 1454.38 580.85 1455.05C581.95 1455.68 582.85 1456.3 583.55 1456.9L580 1461.8C579.366 1461.17 578.516 1460.52 577.45 1459.85C576.416 1459.15 575.3 1458.48 574.1 1457.85C572.933 1457.18 571.8 1456.62 570.7 1456.15ZM567.35 1469.8L570.45 1465.25C571.55 1465.62 572.716 1466.07 573.95 1466.6C575.183 1467.1 576.35 1467.67 577.45 1468.3C578.583 1468.9 579.516 1469.47 580.25 1470L576.9 1475.05C576.266 1474.45 575.4 1473.83 574.3 1473.2C573.2 1472.57 572.05 1471.95 570.85 1471.35C569.65 1470.72 568.483 1470.2 567.35 1469.8ZM569.5 1493.85C570.4 1492.58 571.4 1491.1 572.5 1489.4C573.6 1487.67 574.716 1485.83 575.85 1483.9C576.983 1481.93 578.033 1479.98 579 1478.05L583.4 1482.05C582.533 1483.78 581.6 1485.57 580.6 1487.4C579.633 1489.23 578.633 1491.03 577.6 1492.8C576.6 1494.57 575.6 1496.27 574.6 1497.9L569.5 1493.85Z" fill="black"/>
<path d="M525.799 1458.15C527.633 1458.38 529.699 1458.55 531.999 1458.65C534.299 1458.75 536.766 1458.8 539.399 1458.8C541.066 1458.8 542.766 1458.77 544.499 1458.7C546.233 1458.63 547.916 1458.55 549.549 1458.45C551.183 1458.32 552.633 1458.2 553.899 1458.1V1464.75C552.733 1464.82 551.316 1464.9 549.649 1465C548.016 1465.1 546.299 1465.18 544.499 1465.25C542.733 1465.32 541.049 1465.35 539.449 1465.35C536.849 1465.35 534.433 1465.3 532.199 1465.2C529.966 1465.07 527.833 1464.93 525.799 1464.8V1458.15ZM529.999 1479.35C529.766 1480.22 529.566 1481.07 529.399 1481.9C529.233 1482.73 529.149 1483.57 529.149 1484.4C529.149 1486.03 529.949 1487.37 531.549 1488.4C533.183 1489.4 535.799 1489.9 539.399 1489.9C541.666 1489.9 543.849 1489.82 545.949 1489.65C548.083 1489.48 550.083 1489.27 551.949 1489C553.816 1488.7 555.483 1488.35 556.949 1487.95L556.999 1494.95C555.566 1495.28 553.933 1495.58 552.099 1495.85C550.299 1496.12 548.349 1496.32 546.249 1496.45C544.183 1496.62 541.983 1496.7 539.649 1496.7C535.816 1496.7 532.633 1496.27 530.099 1495.4C527.566 1494.57 525.649 1493.37 524.349 1491.8C523.083 1490.2 522.449 1488.25 522.449 1485.95C522.449 1484.52 522.566 1483.2 522.799 1482C523.033 1480.77 523.233 1479.68 523.399 1478.75L529.999 1479.35ZM555.199 1453C555.633 1453.6 556.083 1454.32 556.549 1455.15C557.049 1455.98 557.533 1456.82 557.999 1457.65C558.466 1458.48 558.866 1459.22 559.199 1459.85L555.149 1461.6C554.649 1460.57 554.033 1459.38 553.299 1458.05C552.599 1456.72 551.916 1455.57 551.249 1454.6L555.199 1453ZM561.149 1450.75C561.583 1451.38 562.049 1452.12 562.549 1452.95C563.049 1453.78 563.533 1454.62 563.999 1455.45C564.499 1456.25 564.899 1456.95 565.199 1457.55L561.199 1459.25C560.666 1458.22 560.033 1457.05 559.299 1455.75C558.566 1454.42 557.849 1453.28 557.149 1452.35L561.149 1450.75Z" fill="black"/>
<path d="M490.301 1453.9C490.134 1454.8 489.867 1455.97 489.501 1457.4C489.134 1458.83 488.601 1460.45 487.901 1462.25C487.367 1463.48 486.751 1464.77 486.051 1466.1C485.384 1467.4 484.701 1468.57 484.001 1469.6C484.434 1469.4 484.984 1469.23 485.651 1469.1C486.317 1468.93 487.001 1468.82 487.701 1468.75C488.434 1468.65 489.084 1468.6 489.651 1468.6C491.751 1468.6 493.484 1469.2 494.851 1470.4C496.251 1471.6 496.951 1473.38 496.951 1475.75C496.951 1476.42 496.951 1477.23 496.951 1478.2C496.984 1479.17 497.017 1480.18 497.051 1481.25C497.084 1482.28 497.117 1483.3 497.151 1484.3C497.184 1485.3 497.201 1486.2 497.201 1487H491.201C491.267 1486.43 491.301 1485.77 491.301 1485C491.334 1484.2 491.351 1483.37 491.351 1482.5C491.384 1481.63 491.401 1480.8 491.401 1480C491.434 1479.17 491.451 1478.42 491.451 1477.75C491.451 1476.15 491.017 1475.05 490.151 1474.45C489.317 1473.82 488.384 1473.5 487.351 1473.5C485.951 1473.5 484.534 1473.85 483.101 1474.55C481.701 1475.22 480.517 1476.02 479.551 1476.95C478.817 1477.68 478.067 1478.5 477.301 1479.4C476.567 1480.3 475.767 1481.32 474.901 1482.45L469.551 1478.45C471.717 1476.45 473.584 1474.52 475.151 1472.65C476.751 1470.78 478.101 1468.93 479.201 1467.1C480.301 1465.27 481.201 1463.43 481.901 1461.6C482.401 1460.27 482.801 1458.88 483.101 1457.45C483.434 1455.98 483.634 1454.62 483.701 1453.35L490.301 1453.9ZM471.501 1458.5C472.767 1458.7 474.234 1458.85 475.901 1458.95C477.567 1459.05 479.034 1459.1 480.301 1459.1C482.501 1459.1 484.901 1459.05 487.501 1458.95C490.134 1458.85 492.801 1458.68 495.501 1458.45C498.201 1458.18 500.767 1457.85 503.201 1457.45L503.151 1463.25C501.384 1463.48 499.467 1463.7 497.401 1463.9C495.367 1464.07 493.284 1464.22 491.151 1464.35C489.051 1464.45 487.034 1464.53 485.101 1464.6C483.167 1464.63 481.451 1464.65 479.951 1464.65C479.284 1464.65 478.451 1464.65 477.451 1464.65C476.484 1464.62 475.484 1464.58 474.451 1464.55C473.417 1464.48 472.434 1464.42 471.501 1464.35V1458.5ZM511.101 1472.7C510.567 1472.87 509.934 1473.08 509.201 1473.35C508.501 1473.58 507.784 1473.83 507.051 1474.1C506.351 1474.33 505.717 1474.57 505.151 1474.8C503.551 1475.43 501.651 1476.2 499.451 1477.1C497.284 1478 495.017 1479.05 492.651 1480.25C491.151 1481.05 489.884 1481.83 488.851 1482.6C487.817 1483.37 487.034 1484.15 486.501 1484.95C485.967 1485.72 485.701 1486.57 485.701 1487.5C485.701 1488.2 485.851 1488.78 486.151 1489.25C486.451 1489.68 486.901 1490.03 487.501 1490.3C488.101 1490.57 488.851 1490.75 489.751 1490.85C490.651 1490.95 491.717 1491 492.951 1491C495.084 1491 497.434 1490.88 500.001 1490.65C502.567 1490.38 504.951 1490.03 507.151 1489.6L506.951 1496.05C505.884 1496.18 504.534 1496.32 502.901 1496.45C501.267 1496.62 499.567 1496.73 497.801 1496.8C496.067 1496.87 494.401 1496.9 492.801 1496.9C490.201 1496.9 487.867 1496.65 485.801 1496.15C483.734 1495.65 482.101 1494.8 480.901 1493.6C479.734 1492.37 479.151 1490.68 479.151 1488.55C479.151 1486.82 479.534 1485.25 480.301 1483.85C481.101 1482.45 482.151 1481.18 483.451 1480.05C484.751 1478.92 486.167 1477.9 487.701 1477C489.267 1476.07 490.801 1475.22 492.301 1474.45C493.834 1473.65 495.217 1472.97 496.451 1472.4C497.684 1471.83 498.834 1471.33 499.901 1470.9C501.001 1470.43 502.051 1469.97 503.051 1469.5C504.017 1469.07 504.951 1468.65 505.851 1468.25C506.751 1467.82 507.667 1467.37 508.601 1466.9L511.101 1472.7Z" fill="black"/>
<path d="M460.949 1462.9C460.683 1463.37 460.399 1463.93 460.099 1464.6C459.799 1465.23 459.533 1465.87 459.299 1466.5C458.866 1467.97 458.249 1469.65 457.449 1471.55C456.683 1473.42 455.716 1475.37 454.549 1477.4C453.416 1479.4 452.099 1481.33 450.599 1483.2C448.199 1486.07 445.399 1488.67 442.199 1491C439.033 1493.33 435.099 1495.43 430.399 1497.3L424.499 1492C427.899 1491 430.833 1489.85 433.299 1488.55C435.766 1487.25 437.916 1485.87 439.749 1484.4C441.583 1482.9 443.216 1481.32 444.649 1479.65C445.816 1478.35 446.883 1476.88 447.849 1475.25C448.816 1473.58 449.649 1471.93 450.349 1470.3C451.049 1468.67 451.516 1467.23 451.749 1466H434.899L437.199 1460.35C437.666 1460.35 438.383 1460.35 439.349 1460.35C440.349 1460.35 441.466 1460.35 442.699 1460.35C443.966 1460.35 445.199 1460.35 446.399 1460.35C447.633 1460.35 448.699 1460.35 449.599 1460.35C450.533 1460.35 451.166 1460.35 451.499 1460.35C452.266 1460.35 453.033 1460.3 453.799 1460.2C454.599 1460.1 455.283 1459.95 455.849 1459.75L460.949 1462.9ZM444.649 1455C444.049 1455.87 443.466 1456.8 442.899 1457.8C442.333 1458.8 441.899 1459.57 441.599 1460.1C440.466 1462.1 439.066 1464.18 437.399 1466.35C435.766 1468.48 433.899 1470.57 431.799 1472.6C429.699 1474.6 427.466 1476.43 425.099 1478.1L419.449 1473.95C421.649 1472.58 423.583 1471.18 425.249 1469.75C426.949 1468.32 428.416 1466.9 429.649 1465.5C430.883 1464.07 431.933 1462.7 432.799 1461.4C433.699 1460.07 434.466 1458.88 435.099 1457.85C435.499 1457.22 435.916 1456.4 436.349 1455.4C436.783 1454.37 437.116 1453.43 437.349 1452.6L444.649 1455Z" fill="black"/>
<path d="M378.051 1456C378.917 1456.6 379.934 1457.33 381.101 1458.2C382.267 1459.07 383.467 1460.02 384.701 1461.05C385.967 1462.05 387.151 1463.03 388.251 1464C389.351 1464.97 390.251 1465.83 390.951 1466.6L385.851 1471.8C385.217 1471.1 384.384 1470.27 383.351 1469.3C382.317 1468.33 381.201 1467.33 380.001 1466.3C378.801 1465.27 377.617 1464.28 376.451 1463.35C375.284 1462.42 374.251 1461.63 373.351 1461L378.051 1456ZM371.801 1489.3C374.401 1488.93 376.851 1488.42 379.151 1487.75C381.451 1487.08 383.584 1486.32 385.551 1485.45C387.517 1484.58 389.317 1483.68 390.951 1482.75C393.784 1481.05 396.384 1479.12 398.751 1476.95C401.117 1474.78 403.184 1472.53 404.951 1470.2C406.717 1467.83 408.117 1465.53 409.151 1463.3L413.051 1470.35C411.784 1472.58 410.217 1474.82 408.351 1477.05C406.517 1479.28 404.434 1481.42 402.101 1483.45C399.767 1485.45 397.251 1487.25 394.551 1488.85C392.851 1489.88 391.017 1490.87 389.051 1491.8C387.084 1492.7 385.001 1493.5 382.801 1494.2C380.634 1494.93 378.367 1495.5 376.001 1495.9L371.801 1489.3Z" fill="black"/>
<path d="M356.149 1455.2C356.116 1455.9 356.066 1456.67 355.999 1457.5C355.966 1458.3 355.949 1459.2 355.949 1460.2C355.949 1461.07 355.949 1462.12 355.949 1463.35C355.949 1464.59 355.949 1465.82 355.949 1467.05C355.949 1468.25 355.949 1469.27 355.949 1470.1C355.949 1472.77 355.816 1475.1 355.549 1477.1C355.316 1479.1 354.949 1480.85 354.449 1482.35C353.949 1483.85 353.333 1485.19 352.599 1486.35C351.899 1487.49 351.083 1488.57 350.149 1489.6C349.049 1490.8 347.783 1491.89 346.349 1492.85C344.916 1493.79 343.466 1494.57 341.999 1495.2C340.566 1495.87 339.233 1496.4 337.999 1496.8L332.749 1491.3C335.249 1490.74 337.499 1489.95 339.499 1488.95C341.533 1487.92 343.299 1486.6 344.799 1485C345.666 1484.04 346.366 1483.07 346.899 1482.1C347.433 1481.14 347.833 1480.07 348.099 1478.9C348.399 1477.7 348.599 1476.35 348.699 1474.85C348.833 1473.35 348.899 1471.64 348.899 1469.7C348.899 1468.84 348.899 1467.8 348.899 1466.6C348.899 1465.4 348.899 1464.22 348.899 1463.05C348.899 1461.89 348.899 1460.94 348.899 1460.2C348.899 1459.2 348.866 1458.3 348.799 1457.5C348.766 1456.67 348.699 1455.9 348.599 1455.2H356.149ZM332.949 1455.6C332.916 1456.2 332.883 1456.8 332.849 1457.4C332.816 1457.97 332.799 1458.65 332.799 1459.45C332.799 1459.82 332.799 1460.42 332.799 1461.25C332.799 1462.09 332.799 1463.07 332.799 1464.2C332.799 1465.3 332.799 1466.47 332.799 1467.7C332.799 1468.9 332.799 1470.07 332.799 1471.2C332.799 1472.34 332.799 1473.37 332.799 1474.3C332.799 1475.2 332.799 1475.89 332.799 1476.35C332.799 1476.99 332.816 1477.72 332.849 1478.55C332.883 1479.39 332.916 1480.1 332.949 1480.7H325.699C325.733 1480.24 325.783 1479.57 325.849 1478.7C325.916 1477.84 325.949 1477.04 325.949 1476.3C325.949 1475.84 325.949 1475.15 325.949 1474.25C325.949 1473.35 325.949 1472.34 325.949 1471.2C325.949 1470.04 325.949 1468.85 325.949 1467.65C325.949 1466.42 325.949 1465.25 325.949 1464.15C325.949 1463.05 325.949 1462.09 325.949 1461.25C325.949 1460.42 325.949 1459.82 325.949 1459.45C325.949 1458.99 325.933 1458.39 325.899 1457.65C325.866 1456.89 325.816 1456.2 325.749 1455.6H332.949Z" fill="black"/>
<path d="M300.1 1456.8C300.567 1457.46 301.084 1458.25 301.65 1459.15C302.217 1460.05 302.75 1460.95 303.25 1461.85C303.784 1462.75 304.25 1463.58 304.65 1464.35L300.3 1466.3C299.834 1465.23 299.367 1464.28 298.9 1463.45C298.467 1462.61 298.017 1461.81 297.55 1461.05C297.084 1460.25 296.534 1459.41 295.9 1458.55L300.1 1456.8ZM306.65 1454.05C307.15 1454.71 307.684 1455.48 308.25 1456.35C308.85 1457.21 309.417 1458.1 309.95 1459C310.517 1459.86 310.984 1460.68 311.35 1461.45L307.15 1463.5C306.617 1462.43 306.1 1461.5 305.6 1460.7C305.134 1459.86 304.65 1459.08 304.15 1458.35C303.684 1457.58 303.134 1456.8 302.5 1456L306.65 1454.05ZM280.15 1489.95C280.15 1489.28 280.15 1488.23 280.15 1486.8C280.15 1485.33 280.15 1483.65 280.15 1481.75C280.15 1479.81 280.15 1477.81 280.15 1475.75C280.15 1473.65 280.15 1471.63 280.15 1469.7C280.15 1467.73 280.15 1466 280.15 1464.5C280.15 1463 280.15 1461.9 280.15 1461.2C280.15 1460.3 280.1 1459.28 280 1458.15C279.934 1457.01 279.817 1456.01 279.65 1455.15H287.45C287.35 1456.01 287.25 1456.98 287.15 1458.05C287.05 1459.11 287 1460.16 287 1461.2C287 1462.1 287 1463.35 287 1464.95C287 1466.55 287 1468.33 287 1470.3C287 1472.23 287 1474.21 287 1476.25C287 1478.28 287 1480.23 287 1482.1C287 1483.93 287 1485.55 287 1486.95C287 1488.31 287 1489.31 287 1489.95C287 1490.38 287.017 1491.03 287.05 1491.9C287.117 1492.73 287.184 1493.6 287.25 1494.5C287.35 1495.4 287.434 1496.2 287.5 1496.9H279.65C279.817 1495.93 279.934 1494.78 280 1493.45C280.1 1492.08 280.15 1490.91 280.15 1489.95ZM285.55 1468.1C287.217 1468.53 289.067 1469.1 291.1 1469.8C293.167 1470.46 295.25 1471.2 297.35 1472C299.45 1472.76 301.434 1473.53 303.3 1474.3C305.167 1475.03 306.7 1475.7 307.9 1476.3L305.1 1483.25C303.667 1482.48 302.1 1481.73 300.4 1481C298.7 1480.26 296.967 1479.55 295.2 1478.85C293.467 1478.11 291.767 1477.45 290.1 1476.85C288.434 1476.25 286.917 1475.73 285.55 1475.3V1468.1Z" fill="black"/>
<path d="M712.911 1382.05C714.445 1382.25 716.161 1382.4 718.061 1382.5C719.995 1382.57 721.945 1382.6 723.911 1382.6C725.911 1382.57 727.828 1382.5 729.661 1382.4C731.495 1382.27 733.078 1382.13 734.411 1382V1388.45C732.878 1388.58 731.195 1388.7 729.361 1388.8C727.528 1388.87 725.645 1388.9 723.711 1388.9C721.778 1388.9 719.878 1388.87 718.011 1388.8C716.178 1388.7 714.478 1388.58 712.911 1388.45V1382.05ZM716.911 1403.4C716.711 1404.23 716.561 1404.98 716.461 1405.65C716.361 1406.28 716.311 1406.93 716.311 1407.6C716.311 1408.13 716.445 1408.63 716.711 1409.1C716.978 1409.53 717.378 1409.92 717.911 1410.25C718.478 1410.55 719.195 1410.78 720.061 1410.95C720.961 1411.08 722.045 1411.15 723.311 1411.15C725.545 1411.15 727.645 1411.05 729.611 1410.85C731.578 1410.62 733.661 1410.28 735.861 1409.85L735.961 1416.6C734.361 1416.9 732.511 1417.13 730.411 1417.3C728.345 1417.47 725.895 1417.55 723.061 1417.55C718.761 1417.55 715.561 1416.83 713.461 1415.4C711.361 1413.93 710.311 1411.92 710.311 1409.35C710.311 1408.38 710.378 1407.38 710.511 1406.35C710.678 1405.28 710.895 1404.12 711.161 1402.85L716.911 1403.4ZM705.211 1378.7C705.078 1379.03 704.928 1379.5 704.761 1380.1C704.595 1380.7 704.428 1381.28 704.261 1381.85C704.128 1382.42 704.028 1382.85 703.961 1383.15C703.861 1383.85 703.695 1384.77 703.461 1385.9C703.261 1387 703.045 1388.25 702.811 1389.65C702.611 1391.02 702.411 1392.42 702.211 1393.85C702.011 1395.28 701.845 1396.67 701.711 1398C701.611 1399.33 701.561 1400.5 701.561 1401.5C701.561 1401.97 701.561 1402.5 701.561 1403.1C701.595 1403.7 701.661 1404.25 701.761 1404.75C701.995 1404.18 702.245 1403.62 702.511 1403.05C702.778 1402.48 703.045 1401.92 703.311 1401.35C703.578 1400.75 703.811 1400.18 704.011 1399.65L707.111 1402.1C706.645 1403.47 706.161 1404.93 705.661 1406.5C705.195 1408.07 704.761 1409.55 704.361 1410.95C703.995 1412.32 703.711 1413.45 703.511 1414.35C703.445 1414.72 703.378 1415.13 703.311 1415.6C703.278 1416.07 703.261 1416.43 703.261 1416.7C703.261 1416.97 703.261 1417.28 703.261 1417.65C703.295 1418.05 703.328 1418.42 703.361 1418.75L697.561 1419.15C697.061 1417.42 696.611 1415.12 696.211 1412.25C695.811 1409.35 695.611 1406.2 695.611 1402.8C695.611 1400.93 695.695 1399.03 695.861 1397.1C696.028 1395.17 696.228 1393.32 696.461 1391.55C696.695 1389.75 696.911 1388.12 697.111 1386.65C697.345 1385.18 697.545 1383.97 697.711 1383C697.778 1382.3 697.861 1381.52 697.961 1380.65C698.095 1379.75 698.178 1378.9 698.211 1378.1L705.211 1378.7Z" fill="black"/>
<path d="M661.662 1379.55H680.062V1384.55H661.662V1379.55ZM667.962 1406H682.812V1410.75H667.962V1406ZM667.812 1414.5H683.012V1419.45H667.812V1414.5ZM660.062 1388.8H688.912V1393.9H660.062V1388.8ZM668.562 1374.55H674.112V1391.85H668.562V1374.55ZM649.462 1374.55L654.662 1376.4C653.995 1377.7 653.295 1379.03 652.562 1380.4C651.829 1381.73 651.112 1383.03 650.412 1384.3C649.712 1385.53 649.045 1386.61 648.412 1387.55L644.412 1385.9C645.012 1384.86 645.629 1383.7 646.262 1382.4C646.895 1381.1 647.495 1379.75 648.062 1378.35C648.662 1376.95 649.129 1375.68 649.462 1374.55ZM655.112 1380.5L660.012 1382.7C658.779 1384.56 657.445 1386.53 656.012 1388.6C654.579 1390.66 653.145 1392.65 651.712 1394.55C650.279 1396.45 648.912 1398.11 647.612 1399.55L644.162 1397.65C645.095 1396.51 646.062 1395.25 647.062 1393.85C648.095 1392.41 649.095 1390.93 650.062 1389.4C651.062 1387.83 651.995 1386.28 652.862 1384.75C653.729 1383.21 654.479 1381.8 655.112 1380.5ZM641.762 1386.25L644.712 1382.2C645.545 1383 646.412 1383.86 647.312 1384.8C648.212 1385.73 649.045 1386.66 649.812 1387.6C650.579 1388.53 651.145 1389.4 651.512 1390.2L648.312 1394.75C647.945 1393.95 647.395 1393.05 646.662 1392.05C645.962 1391.05 645.179 1390.05 644.312 1389.05C643.445 1388.01 642.595 1387.08 641.762 1386.25ZM653.412 1392.45L657.612 1390.75C658.279 1391.81 658.895 1392.98 659.462 1394.25C660.062 1395.51 660.595 1396.76 661.062 1398C661.529 1399.2 661.862 1400.28 662.062 1401.25L657.512 1403.25C657.379 1402.31 657.095 1401.23 656.662 1400C656.229 1398.73 655.729 1397.45 655.162 1396.15C654.629 1394.85 654.045 1393.61 653.412 1392.45ZM641.612 1396.45C643.845 1396.35 646.479 1396.21 649.512 1396.05C652.545 1395.85 655.629 1395.65 658.762 1395.45L658.862 1400.35C655.929 1400.58 652.995 1400.81 650.062 1401.05C647.162 1401.25 644.545 1401.45 642.212 1401.65L641.612 1396.45ZM654.812 1405L658.962 1403.75C659.562 1405.11 660.095 1406.63 660.562 1408.3C661.062 1409.96 661.379 1411.38 661.512 1412.55L657.062 1414C656.962 1412.8 656.695 1411.36 656.262 1409.7C655.862 1408 655.379 1406.43 654.812 1405ZM643.762 1403.9L648.562 1404.75C648.295 1407.15 647.895 1409.51 647.362 1411.85C646.862 1414.15 646.262 1416.1 645.562 1417.7C645.229 1417.46 644.795 1417.21 644.262 1416.95C643.729 1416.68 643.179 1416.43 642.612 1416.2C642.045 1415.93 641.562 1415.73 641.162 1415.6C641.895 1414.1 642.462 1412.3 642.862 1410.2C643.262 1408.1 643.562 1406 643.762 1403.9ZM649.212 1399.15H654.412V1421.5H649.212V1399.15ZM683.262 1375.5L688.512 1377.2C686.079 1383.66 682.662 1389.31 678.262 1394.15C673.895 1398.95 668.479 1402.96 662.012 1406.2C661.779 1405.76 661.445 1405.28 661.012 1404.75C660.612 1404.21 660.179 1403.7 659.712 1403.2C659.245 1402.7 658.812 1402.3 658.412 1402C664.512 1399.16 669.662 1395.46 673.862 1390.9C678.095 1386.33 681.229 1381.2 683.262 1375.5ZM670.212 1397.5H682.962V1402.4H670.212V1421.45H664.762V1400.55L667.662 1397.5H670.212ZM680.412 1397.5H686.162V1421.5H680.412V1397.5Z" fill="black"/>
<path d="M592.412 1394.25H638.712V1400.8H592.412V1394.25Z" fill="black"/>
<path d="M582.162 1387.85C581.429 1388.32 580.645 1388.77 579.812 1389.2C579.012 1389.63 578.145 1390.08 577.212 1390.55C576.445 1390.95 575.495 1391.42 574.362 1391.95C573.262 1392.48 572.062 1393.08 570.762 1393.75C569.495 1394.38 568.212 1395.07 566.912 1395.8C565.612 1396.5 564.395 1397.22 563.262 1397.95C561.195 1399.32 559.512 1400.73 558.212 1402.2C556.945 1403.67 556.312 1405.28 556.312 1407.05C556.312 1408.82 557.179 1410.18 558.912 1411.15C560.645 1412.08 563.245 1412.55 566.712 1412.55C568.445 1412.55 570.279 1412.48 572.212 1412.35C574.179 1412.18 576.112 1411.97 578.012 1411.7C579.912 1411.4 581.595 1411.07 583.062 1410.7L582.962 1417.9C581.562 1418.13 580.029 1418.35 578.362 1418.55C576.729 1418.75 574.945 1418.9 573.012 1419C571.112 1419.1 569.079 1419.15 566.912 1419.15C564.412 1419.15 562.095 1418.95 559.962 1418.55C557.862 1418.18 556.012 1417.57 554.412 1416.7C552.845 1415.83 551.612 1414.67 550.712 1413.2C549.845 1411.73 549.412 1409.93 549.412 1407.8C549.412 1405.67 549.879 1403.73 550.812 1402C551.745 1400.27 553.012 1398.67 554.612 1397.2C556.245 1395.73 558.029 1394.35 559.962 1393.05C561.162 1392.25 562.429 1391.48 563.762 1390.75C565.095 1389.98 566.395 1389.25 567.662 1388.55C568.962 1387.85 570.162 1387.22 571.262 1386.65C572.395 1386.05 573.329 1385.53 574.062 1385.1C575.029 1384.53 575.879 1384.02 576.612 1383.55C577.345 1383.08 578.045 1382.58 578.712 1382.05L582.162 1387.85ZM557.012 1377.15C557.845 1379.35 558.712 1381.47 559.612 1383.5C560.545 1385.53 561.462 1387.43 562.362 1389.2C563.295 1390.97 564.145 1392.55 564.912 1393.95L559.262 1397.3C558.362 1395.77 557.429 1394.05 556.462 1392.15C555.495 1390.25 554.529 1388.25 553.562 1386.15C552.595 1384.02 551.662 1381.87 550.762 1379.7L557.012 1377.15Z" fill="black"/>
<path d="M514.161 1378.05C514.495 1378.65 514.895 1379.53 515.361 1380.7C515.861 1381.83 516.361 1383.08 516.861 1384.45C517.395 1385.78 517.895 1387.08 518.361 1388.35C518.828 1389.58 519.178 1390.61 519.411 1391.45L513.111 1393.65C512.911 1392.85 512.578 1391.85 512.111 1390.65C511.678 1389.41 511.211 1388.15 510.711 1386.85C510.211 1385.51 509.711 1384.25 509.211 1383.05C508.711 1381.85 508.278 1380.86 507.911 1380.1L514.161 1378.05ZM537.011 1382.05C536.711 1382.65 536.445 1383.3 536.211 1384C536.011 1384.7 535.845 1385.35 535.711 1385.95C535.245 1387.75 534.611 1389.76 533.811 1392C533.045 1394.23 532.111 1396.46 531.011 1398.7C529.945 1400.9 528.711 1402.91 527.311 1404.75C525.578 1407.05 523.628 1409.15 521.461 1411.05C519.328 1412.91 517.095 1414.55 514.761 1415.95C512.428 1417.35 510.061 1418.5 507.661 1419.4L502.061 1413.8C504.361 1413.13 506.695 1412.2 509.061 1411C511.461 1409.8 513.761 1408.35 515.961 1406.65C518.195 1404.95 520.145 1403.03 521.811 1400.9C523.078 1399.3 524.228 1397.35 525.261 1395.05C526.328 1392.75 527.228 1390.3 527.961 1387.7C528.728 1385.06 529.245 1382.46 529.511 1379.9L537.011 1382.05ZM500.261 1381.15C500.628 1381.91 501.078 1382.91 501.611 1384.15C502.178 1385.38 502.745 1386.68 503.311 1388.05C503.878 1389.41 504.395 1390.73 504.861 1392C505.361 1393.23 505.761 1394.28 506.061 1395.15L499.611 1397.5C499.411 1396.83 499.128 1396.01 498.761 1395.05C498.428 1394.08 498.028 1393.03 497.561 1391.9C497.128 1390.76 496.678 1389.65 496.211 1388.55C495.745 1387.45 495.311 1386.45 494.911 1385.55C494.511 1384.65 494.161 1383.91 493.861 1383.35L500.261 1381.15Z" fill="black"/>
<path d="M446.088 1393.85C446.688 1393.88 447.455 1393.93 448.388 1394C449.321 1394.03 450.288 1394.07 451.288 1394.1C452.321 1394.13 453.271 1394.15 454.138 1394.15C454.971 1394.15 456.005 1394.15 457.238 1394.15C458.471 1394.15 459.805 1394.15 461.238 1394.15C462.705 1394.15 464.205 1394.15 465.738 1394.15C467.305 1394.15 468.855 1394.15 470.388 1394.15C471.921 1394.15 473.371 1394.15 474.738 1394.15C476.105 1394.15 477.321 1394.15 478.388 1394.15C479.488 1394.15 480.355 1394.15 480.988 1394.15C482.155 1394.15 483.255 1394.12 484.288 1394.05C485.321 1393.95 486.171 1393.88 486.838 1393.85V1401.7C486.271 1401.67 485.421 1401.62 484.288 1401.55C483.155 1401.48 482.055 1401.45 480.988 1401.45C480.355 1401.45 479.488 1401.45 478.388 1401.45C477.288 1401.45 476.055 1401.45 474.688 1401.45C473.321 1401.45 471.871 1401.45 470.338 1401.45C468.838 1401.45 467.305 1401.45 465.738 1401.45C464.171 1401.45 462.655 1401.45 461.188 1401.45C459.755 1401.45 458.421 1401.45 457.188 1401.45C455.988 1401.45 454.971 1401.45 454.138 1401.45C452.705 1401.45 451.238 1401.48 449.738 1401.55C448.238 1401.58 447.021 1401.63 446.088 1401.7V1393.85Z" fill="black"/>
<path d="M394.588 1397.55C399.088 1396.39 403.155 1395.04 406.788 1393.5C410.455 1391.94 413.671 1390.3 416.438 1388.6C418.171 1387.54 419.905 1386.32 421.638 1384.95C423.405 1383.55 425.055 1382.12 426.588 1380.65C428.155 1379.19 429.471 1377.79 430.538 1376.45L435.938 1381.6C434.405 1383.1 432.721 1384.62 430.888 1386.15C429.088 1387.69 427.205 1389.15 425.238 1390.55C423.271 1391.95 421.321 1393.24 419.388 1394.4C417.488 1395.5 415.355 1396.64 412.988 1397.8C410.655 1398.97 408.188 1400.07 405.588 1401.1C402.988 1402.14 400.371 1403.05 397.738 1403.85L394.588 1397.55ZM415.388 1391.8L422.488 1390.15V1412.65C422.488 1413.39 422.505 1414.19 422.538 1415.05C422.571 1415.92 422.621 1416.72 422.688 1417.45C422.755 1418.22 422.838 1418.8 422.938 1419.2H415.038C415.105 1418.8 415.155 1418.22 415.188 1417.45C415.255 1416.72 415.305 1415.92 415.338 1415.05C415.371 1414.19 415.388 1413.39 415.388 1412.65V1391.8Z" fill="black"/>
<path d="M383.189 1383.1C382.989 1383.4 382.689 1383.86 382.289 1384.5C381.922 1385.13 381.639 1385.71 381.439 1386.25C380.739 1387.81 379.872 1389.56 378.839 1391.5C377.839 1393.43 376.689 1395.38 375.389 1397.35C374.122 1399.28 372.772 1401.1 371.339 1402.8C369.472 1404.9 367.406 1406.98 365.139 1409.05C362.906 1411.08 360.539 1412.96 358.039 1414.7C355.572 1416.4 353.039 1417.86 350.439 1419.1L345.289 1413.7C347.989 1412.66 350.606 1411.36 353.139 1409.8C355.672 1408.23 358.022 1406.53 360.189 1404.7C362.356 1402.86 364.222 1401.08 365.789 1399.35C366.889 1398.08 367.922 1396.73 368.889 1395.3C369.889 1393.86 370.772 1392.45 371.539 1391.05C372.306 1389.61 372.872 1388.3 373.239 1387.1C372.906 1387.1 372.306 1387.1 371.439 1387.1C370.572 1387.1 369.556 1387.1 368.389 1387.1C367.256 1387.1 366.056 1387.1 364.789 1387.1C363.522 1387.1 362.306 1387.1 361.139 1387.1C360.006 1387.1 359.006 1387.1 358.139 1387.1C357.272 1387.1 356.656 1387.1 356.289 1387.1C355.589 1387.1 354.856 1387.13 354.089 1387.2C353.322 1387.23 352.589 1387.28 351.889 1387.35C351.222 1387.38 350.706 1387.41 350.339 1387.45V1380.35C350.839 1380.38 351.456 1380.43 352.189 1380.5C352.922 1380.56 353.656 1380.61 354.389 1380.65C355.156 1380.68 355.789 1380.7 356.289 1380.7C356.722 1380.7 357.406 1380.7 358.339 1380.7C359.272 1380.7 360.339 1380.7 361.539 1380.7C362.739 1380.7 363.972 1380.7 365.239 1380.7C366.539 1380.7 367.772 1380.7 368.939 1380.7C370.139 1380.7 371.172 1380.7 372.039 1380.7C372.906 1380.7 373.539 1380.7 373.939 1380.7C375.039 1380.7 376.039 1380.63 376.939 1380.5C377.872 1380.36 378.589 1380.21 379.089 1380.05L383.189 1383.1ZM371.989 1398.65C373.289 1399.68 374.672 1400.88 376.139 1402.25C377.606 1403.61 379.056 1405.03 380.489 1406.5C381.922 1407.96 383.239 1409.38 384.439 1410.75C385.672 1412.08 386.706 1413.25 387.539 1414.25L381.839 1419.2C380.606 1417.5 379.189 1415.73 377.589 1413.9C376.022 1412.06 374.356 1410.25 372.589 1408.45C370.856 1406.61 369.089 1404.88 367.289 1403.25L371.989 1398.65Z" fill="black"/>
<path d="M683.713 1229.44C683.855 1228.73 683.973 1227.93 684.068 1227.03C684.21 1226.08 684.281 1225.13 684.281 1224.19C684.281 1223.67 684.281 1222.62 684.281 1221.06C684.281 1219.5 684.281 1217.61 684.281 1215.38C684.281 1213.16 684.281 1210.77 684.281 1208.21C684.281 1205.61 684.281 1202.98 684.281 1200.33C684.281 1197.68 684.281 1195.19 684.281 1192.88C684.281 1190.51 684.281 1188.45 684.281 1186.7C684.281 1184.9 684.281 1183.6 684.281 1182.79C684.281 1181.18 684.186 1179.79 683.997 1178.6C683.855 1177.42 683.76 1176.78 683.713 1176.69H694.292C694.245 1176.78 694.15 1177.44 694.008 1178.68C693.866 1179.86 693.795 1181.26 693.795 1182.86C693.795 1183.67 693.795 1184.88 693.795 1186.49C693.795 1188.05 693.795 1189.87 693.795 1191.95C693.795 1193.99 693.795 1196.17 693.795 1198.48C693.795 1200.8 693.795 1203.1 693.795 1205.37C693.795 1207.6 693.795 1209.73 693.795 1211.76C693.795 1213.75 693.795 1215.45 693.795 1216.87C693.795 1218.29 693.795 1219.33 693.795 1220C695.736 1219.15 697.747 1217.99 699.83 1216.52C701.913 1215.05 703.948 1213.35 705.936 1211.41C707.971 1209.42 709.77 1207.29 711.332 1205.02L716.799 1212.83C714.858 1215.38 712.492 1217.89 709.699 1220.35C706.954 1222.81 704.114 1225.06 701.179 1227.1C698.244 1229.13 695.428 1230.84 692.73 1232.21C691.973 1232.64 691.357 1233.01 690.884 1233.35C690.411 1233.72 690.008 1234.06 689.677 1234.34L683.713 1229.44ZM650.84 1228.38C653.964 1226.2 656.52 1223.57 658.508 1220.49C660.496 1217.42 661.963 1214.39 662.91 1211.41C663.431 1209.84 663.809 1207.93 664.046 1205.66C664.33 1203.34 664.543 1200.87 664.685 1198.27C664.827 1195.62 664.898 1193.02 664.898 1190.46C664.945 1187.86 664.969 1185.47 664.969 1183.29C664.969 1181.87 664.898 1180.66 664.756 1179.67C664.661 1178.63 664.519 1177.66 664.33 1176.76H674.767C674.72 1176.85 674.649 1177.26 674.554 1177.97C674.507 1178.63 674.436 1179.43 674.341 1180.38C674.294 1181.28 674.27 1182.23 674.27 1183.22C674.27 1185.3 674.246 1187.74 674.199 1190.53C674.152 1193.28 674.057 1196.09 673.915 1198.98C673.773 1201.87 673.56 1204.61 673.276 1207.22C672.992 1209.77 672.613 1211.95 672.14 1213.75C671.051 1217.77 669.418 1221.51 667.241 1224.97C665.111 1228.38 662.531 1231.43 659.502 1234.13L650.84 1228.38Z" fill="black"/>
<path d="M599.294 1224.18C599.294 1223.28 599.294 1221.81 599.294 1219.78C599.294 1217.7 599.294 1215.31 599.294 1212.61C599.294 1209.86 599.294 1207 599.294 1204.02C599.294 1201.03 599.294 1198.17 599.294 1195.43C599.294 1192.63 599.294 1190.17 599.294 1188.04C599.294 1185.91 599.294 1184.35 599.294 1183.36C599.294 1182.13 599.223 1180.71 599.081 1179.1C598.986 1177.49 598.821 1176.07 598.584 1174.84H609.66C609.518 1176.07 609.376 1177.44 609.234 1178.95C609.092 1180.42 609.021 1181.89 609.021 1183.36C609.021 1184.68 609.021 1186.48 609.021 1188.75C609.021 1191.02 609.021 1193.56 609.021 1196.35C609.021 1199.09 609.021 1201.91 609.021 1204.8C609.021 1207.64 609.021 1210.38 609.021 1213.03C609.021 1215.68 609.021 1218 609.021 1219.99C609.021 1221.93 609.021 1223.33 609.021 1224.18C609.021 1224.84 609.045 1225.79 609.092 1227.02C609.139 1228.2 609.234 1229.43 609.376 1230.71C609.518 1231.99 609.613 1233.13 609.66 1234.12H598.584C598.773 1232.7 598.939 1231.04 599.081 1229.15C599.223 1227.26 599.294 1225.6 599.294 1224.18ZM606.891 1193.22C609.258 1193.84 611.908 1194.64 614.843 1195.64C617.778 1196.59 620.736 1197.6 623.718 1198.69C626.7 1199.78 629.493 1200.87 632.096 1201.96C634.747 1203 636.948 1203.97 638.699 1204.87L634.652 1214.67C632.664 1213.63 630.463 1212.58 628.049 1211.54C625.635 1210.45 623.174 1209.41 620.665 1208.42C618.204 1207.42 615.766 1206.5 613.352 1205.65C610.985 1204.8 608.832 1204.04 606.891 1203.38V1193.22Z" fill="black"/>
<path d="M512.531 1198.12C513.383 1198.17 514.472 1198.24 515.797 1198.34C517.123 1198.39 518.495 1198.43 519.915 1198.48C521.383 1198.53 522.732 1198.55 523.962 1198.55C525.146 1198.55 526.613 1198.55 528.364 1198.55C530.116 1198.55 532.009 1198.55 534.044 1198.55C536.127 1198.55 538.257 1198.55 540.434 1198.55C542.659 1198.55 544.86 1198.55 547.037 1198.55C549.215 1198.55 551.274 1198.55 553.214 1198.55C555.155 1198.55 556.883 1198.55 558.397 1198.55C559.959 1198.55 561.19 1198.55 562.089 1198.55C563.746 1198.55 565.308 1198.5 566.775 1198.41C568.243 1198.27 569.45 1198.17 570.396 1198.12V1209.27C569.592 1209.22 568.385 1209.15 566.775 1209.06C565.166 1208.96 563.604 1208.92 562.089 1208.92C561.19 1208.92 559.959 1208.92 558.397 1208.92C556.835 1208.92 555.084 1208.92 553.143 1208.92C551.203 1208.92 549.144 1208.92 546.966 1208.92C544.836 1208.92 542.659 1208.92 540.434 1208.92C538.21 1208.92 536.056 1208.92 533.973 1208.92C531.938 1208.92 530.045 1208.92 528.293 1208.92C526.589 1208.92 525.146 1208.92 523.962 1208.92C521.927 1208.92 519.844 1208.96 517.714 1209.06C515.584 1209.11 513.857 1209.18 512.531 1209.27V1198.12Z" fill="black"/>
<path d="M494.213 1179.03C493.598 1180.31 493.03 1181.65 492.509 1183.07C491.989 1184.49 491.515 1185.8 491.089 1186.98C490.095 1189.68 488.912 1192.59 487.539 1195.71C486.214 1198.84 484.723 1201.91 483.066 1204.94C481.457 1207.92 479.682 1210.62 477.741 1213.04C475.753 1215.55 473.339 1218.12 470.499 1220.78C467.707 1223.38 464.63 1225.82 461.269 1228.09C457.956 1230.31 454.477 1232.16 450.832 1233.63L442.738 1225.32C446.43 1224.04 449.933 1222.46 453.246 1220.56C456.56 1218.67 459.613 1216.54 462.405 1214.17C465.198 1211.81 467.636 1209.37 469.718 1206.86C471.99 1204.11 474.002 1201.01 475.753 1197.56C477.552 1194.06 479.067 1190.46 480.297 1186.77C481.575 1183.07 482.522 1179.55 483.137 1176.19L494.213 1179.03Z" fill="black"/>
<path d="M399.713 1229.44C399.855 1228.73 399.973 1227.93 400.068 1227.03C400.21 1226.08 400.281 1225.13 400.281 1224.19C400.281 1223.67 400.281 1222.62 400.281 1221.06C400.281 1219.5 400.281 1217.61 400.281 1215.38C400.281 1213.16 400.281 1210.77 400.281 1208.21C400.281 1205.61 400.281 1202.98 400.281 1200.33C400.281 1197.68 400.281 1195.19 400.281 1192.88C400.281 1190.51 400.281 1188.45 400.281 1186.7C400.281 1184.9 400.281 1183.6 400.281 1182.79C400.281 1181.18 400.186 1179.79 399.997 1178.6C399.855 1177.42 399.76 1176.78 399.713 1176.69H410.292C410.245 1176.78 410.15 1177.44 410.008 1178.68C409.866 1179.86 409.795 1181.26 409.795 1182.86C409.795 1183.67 409.795 1184.88 409.795 1186.49C409.795 1188.05 409.795 1189.87 409.795 1191.95C409.795 1193.99 409.795 1196.17 409.795 1198.48C409.795 1200.8 409.795 1203.1 409.795 1205.37C409.795 1207.6 409.795 1209.73 409.795 1211.76C409.795 1213.75 409.795 1215.45 409.795 1216.87C409.795 1218.29 409.795 1219.33 409.795 1220C411.736 1219.15 413.747 1217.99 415.83 1216.52C417.913 1215.05 419.948 1213.35 421.936 1211.41C423.971 1209.42 425.77 1207.29 427.332 1205.02L432.799 1212.83C430.858 1215.38 428.492 1217.89 425.699 1220.35C422.954 1222.81 420.114 1225.06 417.179 1227.1C414.244 1229.13 411.428 1230.84 408.73 1232.21C407.973 1232.64 407.357 1233.01 406.884 1233.35C406.411 1233.72 406.008 1234.06 405.677 1234.34L399.713 1229.44ZM366.84 1228.38C369.964 1226.2 372.52 1223.57 374.508 1220.49C376.496 1217.42 377.963 1214.39 378.91 1211.41C379.431 1209.84 379.809 1207.93 380.046 1205.66C380.33 1203.34 380.543 1200.87 380.685 1198.27C380.827 1195.62 380.898 1193.02 380.898 1190.46C380.945 1187.86 380.969 1185.47 380.969 1183.29C380.969 1181.87 380.898 1180.66 380.756 1179.67C380.661 1178.63 380.519 1177.66 380.33 1176.76H390.767C390.72 1176.85 390.649 1177.26 390.554 1177.97C390.507 1178.63 390.436 1179.43 390.341 1180.38C390.294 1181.28 390.27 1182.23 390.27 1183.22C390.27 1185.3 390.246 1187.74 390.199 1190.53C390.152 1193.28 390.057 1196.09 389.915 1198.98C389.773 1201.87 389.56 1204.61 389.276 1207.22C388.992 1209.77 388.613 1211.95 388.14 1213.75C387.051 1217.77 385.418 1221.51 383.241 1224.97C381.111 1228.38 378.531 1231.43 375.502 1234.13L366.84 1228.38Z" fill="black"/>
</svg>
