<svg width="1080" height="1920" viewBox="0 0 1080 1920" fill="none" xmlns="http://www.w3.org/2000/svg">
<path d="M1080 1920L1080 0L0 0L0 1920H1080Z" fill="#A5D4AD"/>
<path d="M1020 983.72V95C1020 75.67 1004.33 60 985 60H95.58C75.93 60 60 75.93 60 95.58V983.71C60 984.03 60.25 984.28 60.57 984.28C80.03 984.59 95.71 1000.46 95.71 1019.99C95.71 1039.52 80.03 1055.39 60.57 1055.7C60.25 1055.7 60 1055.96 60 1056.27V1824.99C60 1844.32 75.67 1859.99 95 1859.99H985C1004.33 1859.99 1020 1844.32 1020 1824.99V1056.27C1020 1055.95 1019.75 1055.7 1019.43 1055.7C999.97 1055.39 984.29 1039.52 984.29 1019.99C984.29 1000.46 999.97 984.59 1019.43 984.28C1019.75 984.28 1020 984.02 1020 983.71V983.72Z" fill="white"/>
<path d="M60.57 1055.71C60.25 1055.71 60 1055.97 60 1056.28V1825C60 1844.33 75.67 1860 95 1860H985C1004.33 1860 1020 1844.33 1020 1825V1056.28C1020 1055.96 1019.75 1055.71 1019.43 1055.71C999.97 1055.4 984.29 1039.53 984.29 1020H95.71C95.71 1039.53 80.03 1055.4 60.57 1055.71Z" fill="#E5F2E6"/>
<path d="M121 1020H160.9" stroke="black" stroke-width="6" stroke-miterlimit="10"/>
<path d="M187.51 1020H227.41" stroke="black" stroke-width="6" stroke-miterlimit="10"/>
<path d="M254.02 1020H293.92" stroke="black" stroke-width="6" stroke-miterlimit="10"/>
<path d="M320.52 1020H360.43" stroke="black" stroke-width="6" stroke-miterlimit="10"/>
<path d="M387.029 1020H426.939" stroke="black" stroke-width="6" stroke-miterlimit="10"/>
<path d="M453.539 1020H493.439" stroke="black" stroke-width="6" stroke-miterlimit="10"/>
<path d="M520.051 1020H559.951" stroke="black" stroke-width="6" stroke-miterlimit="10"/>
<path d="M586.561 1020H626.461" stroke="black" stroke-width="6" stroke-miterlimit="10"/>
<path d="M653.061 1020H692.971" stroke="black" stroke-width="6" stroke-miterlimit="10"/>
<path d="M719.57 1020H759.48" stroke="black" stroke-width="6" stroke-miterlimit="10"/>
<path d="M786.08 1020H825.98" stroke="black" stroke-width="6" stroke-miterlimit="10"/>
<path d="M852.59 1020H892.49" stroke="black" stroke-width="6" stroke-miterlimit="10"/>
<path d="M919.1 1020H959" stroke="black" stroke-width="6" stroke-miterlimit="10"/>
<path d="M1020 984.29V95C1020 75.67 1004.33 60 985 60H95C75.67 60 60 75.67 60 95V984.29C79.72 984.29 95.71 1000.28 95.71 1020C95.71 1039.72 79.72 1055.71 60 1055.71V1825C60 1844.33 75.67 1860 95 1860H985C1004.33 1860 1020 1844.33 1020 1825V1055.71C1000.28 1055.71 984.29 1039.72 984.29 1020C984.29 1000.28 1000.28 984.29 1020 984.29Z" stroke="black" stroke-width="6" stroke-miterlimit="10"/>
<path d="M912.649 525.666C908.779 525.666 905.539 522.646 905.319 518.736C900.589 435.626 868.789 358.856 813.369 296.746C810.669 293.716 810.929 289.066 813.959 286.366C816.989 283.666 821.629 283.926 824.339 286.956C881.999 351.576 915.069 431.436 919.999 517.896C920.229 521.946 917.129 525.426 913.079 525.656C912.939 525.656 912.799 525.666 912.659 525.666H912.649Z" fill="black"/>
<path d="M818.849 795.517C817.109 795.517 815.359 794.897 813.959 793.647C810.929 790.947 810.669 786.297 813.369 783.267C868.789 721.157 900.589 644.387 905.319 561.277C905.549 557.227 909.029 554.117 913.079 554.357C917.129 554.587 920.229 558.057 919.999 562.117C915.069 648.587 881.999 728.447 824.339 793.057C822.889 794.687 820.869 795.517 818.849 795.517Z" fill="black"/>
<path d="M167.36 525.666C167.22 525.666 167.08 525.666 166.94 525.656C162.89 525.426 159.79 521.956 160.02 517.896C164.95 431.426 198.02 351.566 255.68 286.956C258.38 283.926 263.03 283.666 266.06 286.366C269.09 289.066 269.35 293.716 266.65 296.746C211.23 358.856 179.43 435.616 174.7 518.736C174.48 522.646 171.24 525.666 167.37 525.666H167.36Z" fill="black"/>
<path d="M261.17 795.517C259.15 795.517 257.13 794.687 255.68 793.057C198.02 728.437 164.95 648.577 160.02 562.117C159.79 558.067 162.89 554.587 166.94 554.357C170.99 554.117 174.47 557.227 174.7 561.277C179.43 644.397 211.23 721.157 266.65 783.267C269.35 786.297 269.09 790.947 266.06 793.647C264.66 794.897 262.91 795.517 261.17 795.517Z" fill="black"/>
<path d="M788.169 268.511C786.429 268.511 784.679 267.891 783.279 266.641C721.169 211.221 644.399 179.421 561.289 174.691C557.239 174.461 554.139 170.991 554.369 166.931C554.599 162.881 558.039 159.791 562.129 160.011C648.599 164.941 728.459 198.011 793.069 255.671C796.099 258.371 796.359 263.021 793.659 266.051C792.209 267.681 790.189 268.511 788.169 268.511Z" fill="black"/>
<path d="M291.85 268.512C289.83 268.512 287.81 267.682 286.36 266.052C283.66 263.022 283.92 258.372 286.95 255.672C351.57 198.012 431.43 164.942 517.89 160.012C521.94 159.782 525.42 162.882 525.65 166.932C525.88 170.982 522.78 174.462 518.73 174.692C435.62 179.422 358.85 211.222 296.74 266.642C295.34 267.892 293.59 268.512 291.85 268.512Z" fill="black"/>
<path d="M561.69 920.006C557.82 920.006 554.58 916.986 554.36 913.076C554.13 909.026 557.23 905.546 561.28 905.316C644.4 900.586 721.16 868.786 783.27 813.366C786.3 810.666 790.95 810.926 793.65 813.956C796.35 816.986 796.09 821.636 793.06 824.336C728.44 881.996 648.58 915.066 562.12 919.996C561.98 919.996 561.84 920.006 561.7 920.006H561.69Z" fill="black"/>
<path d="M518.319 920.006C518.179 920.006 518.04 920.006 517.9 919.996C431.43 915.066 351.569 881.996 286.959 824.336C283.929 821.636 283.669 816.986 286.369 813.956C289.069 810.926 293.719 810.666 296.749 813.366C358.859 868.786 435.629 900.586 518.739 905.316C522.789 905.546 525.889 909.016 525.659 913.076C525.439 916.986 522.199 920.006 518.329 920.006H518.319Z" fill="black"/>
<path d="M875.38 526.189C872.37 526.189 869.85 523.839 869.68 520.799C865.41 445.789 836.71 376.519 786.7 320.459C784.6 318.099 784.8 314.489 787.16 312.389C789.51 310.289 793.13 310.489 795.23 312.849C846.98 370.849 876.68 442.539 881.1 520.149C881.28 523.299 878.87 525.999 875.72 526.179C875.61 526.179 875.5 526.179 875.39 526.179L875.38 526.189Z" fill="black"/>
<path d="M790.96 769.062C789.6 769.062 788.25 768.582 787.16 767.612C784.8 765.512 784.6 761.892 786.7 759.542C836.71 703.492 865.41 634.212 869.68 559.202C869.86 556.052 872.55 553.642 875.71 553.822C878.86 554.002 881.27 556.702 881.09 559.852C876.67 637.472 846.98 709.152 795.22 767.152C794.09 768.422 792.52 769.062 790.95 769.062H790.96Z" fill="black"/>
<path d="M204.63 526.187C204.52 526.187 204.41 526.187 204.3 526.187C201.15 526.007 198.74 523.307 198.92 520.157C203.34 442.537 233.03 370.857 284.79 312.857C286.89 310.497 290.51 310.297 292.86 312.397C295.22 314.497 295.42 318.117 293.32 320.467C243.31 376.517 214.61 445.797 210.34 520.807C210.17 523.847 207.65 526.197 204.64 526.197L204.63 526.187Z" fill="black"/>
<path d="M289.05 769.055C287.48 769.055 285.91 768.405 284.78 767.145C233.03 709.145 203.33 637.455 198.91 559.845C198.73 556.695 201.14 553.995 204.29 553.815C207.45 553.625 210.14 556.045 210.32 559.195C214.59 634.205 243.29 703.485 293.3 759.535C295.4 761.895 295.2 765.505 292.84 767.605C291.75 768.575 290.39 769.055 289.04 769.055H289.05Z" fill="black"/>
<path d="M763.35 294.756C761.99 294.756 760.64 294.276 759.55 293.306C703.5 243.296 634.22 214.596 559.21 210.326C556.06 210.146 553.65 207.446 553.83 204.296C554.01 201.146 556.7 198.736 559.86 198.916C637.48 203.336 709.16 233.026 767.16 284.786C769.52 286.886 769.72 290.506 767.62 292.856C766.49 294.126 764.92 294.766 763.35 294.766V294.756Z" fill="black"/>
<path d="M316.659 294.759C315.089 294.759 313.519 294.109 312.389 292.849C310.289 290.489 310.489 286.879 312.849 284.779C370.849 233.029 442.539 203.329 520.149 198.909C523.299 198.719 525.999 201.139 526.179 204.289C526.359 207.439 523.949 210.139 520.799 210.319C445.789 214.589 376.519 243.289 320.459 293.299C319.369 294.269 318.009 294.749 316.659 294.749V294.759Z" fill="black"/>
<path d="M559.53 881.102C556.52 881.102 554 878.752 553.83 875.712C553.65 872.562 556.06 869.862 559.21 869.682C634.22 865.412 703.49 836.712 759.55 786.702C761.9 784.602 765.52 784.802 767.62 787.162C769.72 789.522 769.52 793.132 767.16 795.232C709.16 846.982 637.47 876.682 559.86 881.102C559.75 881.102 559.64 881.102 559.53 881.102Z" fill="black"/>
<path d="M520.489 881.102C520.379 881.102 520.269 881.102 520.159 881.102C442.539 876.682 370.859 846.992 312.859 795.232C310.499 793.132 310.299 789.512 312.399 787.162C314.499 784.802 318.119 784.602 320.469 786.702C376.519 836.722 445.799 865.412 520.809 869.682C523.959 869.862 526.369 872.562 526.189 875.712C526.019 878.752 523.499 881.102 520.489 881.102Z" fill="black"/>
<path d="M841.849 526.514C839.699 526.514 837.899 524.834 837.779 522.664C833.919 454.914 807.999 392.344 762.829 341.714C761.329 340.034 761.479 337.454 763.159 335.944C764.839 334.444 767.419 334.584 768.929 336.274C815.349 388.294 841.979 452.584 845.939 522.194C846.069 524.444 844.349 526.374 842.089 526.504C842.009 526.504 841.929 526.504 841.849 526.504V526.514Z" fill="black"/>
<path d="M765.869 745.106C764.899 745.106 763.929 744.766 763.149 744.066C761.469 742.566 761.319 739.986 762.819 738.296C807.989 687.666 833.909 625.096 837.769 557.346C837.899 555.096 839.859 553.396 842.079 553.496C844.329 553.626 846.049 555.556 845.929 557.806C841.959 627.416 815.329 691.706 768.919 743.726C768.109 744.626 766.989 745.086 765.869 745.086V745.106Z" fill="black"/>
<path d="M238.17 526.516C238.09 526.516 238.01 526.516 237.93 526.516C235.68 526.386 233.96 524.456 234.08 522.206C238.05 452.596 264.68 388.306 311.09 336.286C312.59 334.606 315.17 334.456 316.86 335.956C318.54 337.456 318.69 340.036 317.19 341.726C272.02 392.356 246.1 454.926 242.24 522.676C242.12 524.846 240.32 526.526 238.17 526.526V526.516Z" fill="black"/>
<path d="M314.139 745.103C313.019 745.103 311.899 744.643 311.089 743.743C264.669 691.723 238.039 627.433 234.079 557.823C233.949 555.573 235.669 553.643 237.929 553.513C240.169 553.403 242.109 555.103 242.239 557.363C246.099 625.113 272.019 687.683 317.189 738.313C318.689 739.993 318.539 742.573 316.859 744.083C316.079 744.773 315.109 745.123 314.139 745.123V745.103Z" fill="black"/>
<path d="M741.018 318.225C740.048 318.225 739.078 317.885 738.298 317.185C687.668 272.015 625.098 246.095 557.348 242.235C555.098 242.105 553.378 240.175 553.498 237.925C553.628 235.675 555.548 233.965 557.808 234.075C627.418 238.045 691.708 264.675 743.738 311.085C745.418 312.585 745.568 315.165 744.068 316.855C743.258 317.755 742.138 318.215 741.018 318.215V318.225Z" fill="black"/>
<path d="M338.998 318.224C337.878 318.224 336.758 317.764 335.948 316.864C334.448 315.184 334.598 312.604 336.278 311.094C388.298 264.674 452.588 238.044 522.198 234.084C524.448 233.964 526.378 235.674 526.508 237.934C526.638 240.184 524.918 242.114 522.658 242.244C454.908 246.104 392.338 272.024 341.708 317.194C340.928 317.884 339.958 318.234 338.988 318.234L338.998 318.224Z" fill="black"/>
<path d="M557.569 845.933C555.419 845.933 553.619 844.253 553.499 842.083C553.369 839.833 555.089 837.903 557.349 837.773C625.099 833.913 687.669 807.993 738.299 762.823C739.979 761.323 742.559 761.473 744.069 763.153C745.569 764.833 745.419 767.413 743.739 768.923C691.719 815.343 627.429 841.973 557.809 845.933C557.729 845.933 557.649 845.933 557.569 845.933Z" fill="black"/>
<path d="M522.438 845.933C522.358 845.933 522.278 845.933 522.198 845.933C452.588 841.963 388.298 815.333 336.278 768.923C334.598 767.423 334.448 764.843 335.948 763.153C337.448 761.473 340.028 761.323 341.718 762.823C392.348 807.993 454.918 833.913 522.668 837.773C524.918 837.903 526.638 839.833 526.518 842.083C526.398 844.253 524.598 845.933 522.448 845.933H522.438Z" fill="black"/>
<path d="M320.65 546.174C320.65 544.604 321.79 543.274 323.34 543.024C324.64 542.814 326.27 542.524 327.98 542.124C332.4 541.084 337.59 539.114 343.41 536.274C349.29 533.404 354.92 529.414 359.17 523.674C366.34 513.974 367.86 501.404 368.19 496.894C368.26 495.974 367.53 495.194 366.6 495.194H317.09C315.33 495.194 313.91 493.764 313.91 492.014V470.694C313.91 468.934 315.34 467.514 317.09 467.514H367.07C367.95 467.514 368.66 466.804 368.66 465.924V447.184C368.66 446.304 367.95 445.594 367.07 445.594H328.62C326.86 445.594 325.44 444.164 325.44 442.414V421.094C325.44 419.334 326.87 417.914 328.62 417.914H428.96C430.72 417.914 432.14 419.344 432.14 421.094V442.414C432.14 444.174 430.71 445.594 428.96 445.594H398.52C397.64 445.594 396.93 446.304 396.93 447.184V465.924C396.93 466.804 397.64 467.514 398.52 467.514H438.58C440.34 467.514 441.76 468.944 441.76 470.694V492.014C441.76 493.774 440.33 495.194 438.58 495.194H398.39C397.54 495.194 396.84 495.864 396.8 496.714C396.57 501.754 395.15 518.444 386.18 532.854C380.73 541.614 373.65 548.264 366.54 553.544C359.41 558.844 352.26 562.934 345.27 565.704C338.24 568.494 332.34 570.444 327.75 571.514C326.66 571.764 325.49 571.994 324.4 572.184C322.45 572.534 320.66 571.034 320.66 569.044V546.164L320.65 546.174Z" fill="black"/>
<path d="M474.55 546.522C474.55 545.062 475.55 543.792 476.96 543.432C485.21 541.362 488.93 540.112 496.84 536.322C496.84 536.322 500.89 534.212 504.93 531.302C517.11 522.542 525.22 510.632 525.22 510.632C534.68 497.282 537.77 474.912 538.49 468.492C538.6 467.552 537.86 466.722 536.91 466.722H500.58C500.35 466.722 500.14 466.842 500.03 467.042L499.88 467.292C494.3 478.112 486.88 487.992 480.45 494.242C474 500.502 468.59 505.052 464.38 507.752L461.78 509.422C460.72 510.102 459.33 509.342 459.33 508.082V479.892C459.33 478.952 459.75 478.062 460.47 477.452C461.12 476.902 461.99 476.132 463.18 475.062C465.94 472.572 469.05 468.512 472.42 462.982C475.76 457.512 479.35 450.212 483.07 441.292C486.45 433.202 488.98 423.092 490.86 412.062C491.12 410.532 492.45 409.422 494 409.422H513.91C515.91 409.422 517.42 411.252 517.04 413.212C516.4 416.522 515.71 420.882 514.85 424.312C513.58 429.392 512.76 432.302 511.24 436.722C510.98 437.472 511.54 438.242 512.33 438.242H591.18C592.94 438.242 594.36 439.672 594.36 441.422V463.512C594.36 465.272 592.93 466.692 591.18 466.692H568.14C567.33 466.692 566.64 467.302 566.56 468.112C565.93 474.012 562.88 497.162 552.39 517.262C538.29 546.002 508.14 566.392 478.34 572.132C476.38 572.512 474.56 571.002 474.56 569.002V546.482L474.55 546.522Z" fill="black"/>
<path d="M675.9 411.035V468.875C675.9 469.755 676.61 470.465 677.49 470.465H764.52C765.4 470.465 766.11 469.755 766.11 468.875V411.035C766.11 410.155 765.4 409.445 764.52 409.445H677.49C676.61 409.445 675.9 410.155 675.9 411.035ZM738.46 452.745H702.3C701.42 452.745 700.71 452.035 700.71 451.155V446.875C700.71 445.995 701.42 445.285 702.3 445.285H738.46C739.34 445.285 740.05 445.995 740.05 446.875V451.155C740.05 452.035 739.34 452.745 738.46 452.745ZM738.46 434.455H702.3C701.42 434.455 700.71 433.745 700.71 432.865V428.755C700.71 427.875 701.42 427.165 702.3 427.165H738.46C739.34 427.165 740.05 427.875 740.05 428.755V432.865C740.05 433.745 739.34 434.455 738.46 434.455Z" fill="black"/>
<path d="M674.23 497.342H728.27C729.15 497.342 729.86 498.052 729.86 498.932V502.842C729.86 503.722 729.15 504.432 728.27 504.432H667.76C666 504.432 664.58 505.862 664.58 507.612V522.862C664.58 524.622 666.01 526.042 667.76 526.042H728.27C729.15 526.042 729.86 526.752 729.86 527.632V545.392C729.86 546.112 729.94 547.982 729.22 548.852C728.39 549.872 727.15 549.672 725.85 549.722C722.54 549.722 719.58 549.702 716.95 549.662C716.55 549.662 716.26 549.292 716.34 548.902C716.6 547.632 716.73 546.312 716.7 544.962C716.5 535.682 708.94 528.082 699.66 527.842C689.58 527.582 681.37 535.852 681.71 545.942C682.02 555.292 689.79 562.812 699.15 562.842C704.04 562.852 708.46 560.862 711.64 557.642C711.98 557.302 712.55 557.432 712.7 557.882C714.16 562.212 715.54 566.342 716.79 570.052C717.23 571.352 718.46 572.222 719.83 572.212C725.73 572.172 730.51 571.962 734.18 571.602C738.31 571.182 742.09 570.152 745.52 568.502C749.18 566.842 751.69 564.422 753.05 561.232C754.41 558.042 755.09 553.552 755.09 547.762V527.622C755.09 526.742 755.8 526.032 756.68 526.032H762.91C764.67 526.032 766.09 524.602 766.09 522.852V507.602C766.09 505.842 764.66 504.422 762.91 504.422H756.68C755.8 504.422 755.09 503.712 755.09 502.832V498.922C755.09 498.042 755.8 497.332 756.68 497.332H762.91C764.67 497.332 766.09 495.902 766.09 494.152V479.602C766.09 477.842 764.66 476.422 762.91 476.422H674.21C672.45 476.422 671.03 477.852 671.03 479.602V494.152C671.03 495.912 672.46 497.332 674.21 497.332L674.23 497.342Z" fill="black"/>
<path d="M668.83 409.445H650.26C649.4 409.445 648.58 409.795 647.98 410.405C635.23 423.355 618.29 434.575 612.13 438.485C610.78 439.335 610.28 441.065 610.95 442.505L620.7 463.575C621.63 465.575 624.26 466.055 625.83 464.505C646.12 444.465 664.45 419.805 670.12 411.965C670.88 410.915 670.12 409.445 668.83 409.445Z" fill="black"/>
<path d="M671.92 453.899V435.419C671.92 434.009 670.22 433.299 669.21 434.289C653.64 449.609 620.05 477.069 611.68 483.869C610.55 484.789 610.19 486.359 610.8 487.679L620.7 509.059C621.63 511.059 624.26 511.539 625.83 509.989C627.54 508.299 629.24 506.569 630.92 504.829C631.32 504.419 632.02 504.699 632.02 505.269V569.069C632.02 570.829 633.45 572.249 635.2 572.249H653.82C655.58 572.249 657 570.819 657 569.069V476.379C657 475.309 657.36 474.259 658.03 473.419C664.87 464.739 669.72 458.029 671.34 455.749C671.72 455.209 671.93 454.569 671.93 453.899H671.92Z" fill="black"/>
<path d="M653.271 623.338C640.851 623.338 634.811 628.288 634.811 638.478V655.608C634.811 665.678 640.851 670.568 653.271 670.568C659.141 670.568 663.481 669.488 666.561 667.278C670.001 664.808 671.741 660.878 671.741 655.598V638.468C671.741 628.278 665.701 623.328 653.281 623.328L653.271 623.338ZM646.091 639.308C646.091 633.938 648.841 632.918 653.271 632.918C657.701 632.918 660.451 633.958 660.451 639.308V654.688C660.451 659.958 657.601 660.988 653.271 660.988C648.941 660.988 646.091 659.988 646.091 654.688V639.308Z" fill="black"/>
<path d="M708.27 669.334H721.359L703.63 646.784L720.56 624.804H707.4L694.06 642.284V610.234H682.77V669.334H694.06V659.214L696.95 655.454L708.27 669.334Z" fill="black"/>
<path d="M754.82 624.805V653.295C754.82 659.045 751.88 660.895 746.83 660.895C743.56 660.895 740.28 660.355 740.28 653.885V624.815H729V656.775C729 665.745 733.71 670.485 742.62 670.485C749.3 670.485 753.88 666.865 755.58 662.805L757.39 669.345H766.11V624.815H754.83L754.82 624.805Z" fill="black"/>
<path d="M630.57 610.234H589.15V620.144V620.154H604.22V669.334H615.69V620.154H630.57V610.234Z" fill="black"/>
<path d="M459.689 669.334H472.779L455.049 646.784L471.979 624.804H458.819L445.479 642.284V610.234H434.199V669.334H445.479V659.214L448.369 655.454L459.689 669.334Z" fill="black"/>
<path d="M355.33 610.234H313.91V620.144V620.154H328.99V669.334H340.45V620.154H355.33V610.234Z" fill="black"/>
<path d="M421.8 658.896L421.2 659.046C417.62 659.966 413.29 660.896 409.41 660.896C404.86 660.896 401.69 658.826 401.69 652.836V640.976C401.69 634.906 404.86 632.826 409.41 632.826C413.36 632.826 417.88 633.706 421.23 634.406L421.81 634.526V625.196L421.5 625.126C417.69 624.236 412.05 623.336 407.53 623.336C402.01 623.336 397.97 624.406 395.17 626.596C391.97 629.096 390.42 633.856 390.42 639.346V654.646C390.42 664.776 396.02 670.566 407.54 670.566C411.41 670.566 417.27 669.496 421.53 668.316L421.82 668.236V658.886L421.8 658.896Z" fill="black"/>
<path d="M553.93 634.705V624.805H543.69V615.195H532.41V624.805H525.18V634.705H532.41V655.425C532.41 667.945 540.3 670.565 546.93 670.565C548.71 670.565 550.51 670.455 552.12 670.225V660.265C551.47 660.335 550.26 660.365 549.54 660.365C546.46 660.365 543.69 659.735 543.69 652.095V634.695H553.93V634.705Z" fill="black"/>
<path d="M489.741 650.742V650.562H515.171V641.482C515.171 635.572 513.551 630.243 510.361 627.343C507.421 624.673 502.781 623.312 497.261 623.312C485.081 623.312 478.461 629.223 478.461 639.593V654.453C478.461 664.703 483.841 670.552 496.321 670.552C500.981 670.552 506.291 669.563 511.971 668.403L512.361 668.323V659.052L511.711 659.203C507.141 660.253 504.621 661.143 500.291 661.143C494.081 661.143 489.741 658.623 489.741 652.203V650.722V650.742ZM489.741 639.722C489.741 634.072 493.801 632.742 497.171 632.742C500.541 632.742 504.071 634.072 504.071 639.722V643.232H489.741V642.713V639.722Z" fill="black"/>
<path d="M378.18 626.883H366.9V669.333H378.18V626.883Z" fill="black"/>
<path d="M372.54 622.224C376.422 622.224 379.57 619.077 379.57 615.194C379.57 611.312 376.422 608.164 372.54 608.164C368.657 608.164 365.51 611.312 365.51 615.194C365.51 619.077 368.657 622.224 372.54 622.224Z" fill="black"/>
<path d="M585.74 643.922H566.15V651.262H585.74V643.922Z" fill="black"/>
<path d="M724.9 1563.2C724.5 1563.8 723.9 1564.73 723.1 1566C722.366 1567.27 721.8 1568.43 721.4 1569.5C720 1572.63 718.266 1576.13 716.2 1580C714.2 1583.87 711.9 1587.77 709.3 1591.7C706.766 1595.57 704.066 1599.2 701.2 1602.6C697.466 1606.8 693.333 1610.97 688.8 1615.1C684.333 1619.17 679.6 1622.93 674.6 1626.4C669.666 1629.8 664.6 1632.73 659.4 1635.2L649.1 1624.4C654.5 1622.33 659.733 1619.73 664.8 1616.6C669.866 1613.47 674.566 1610.07 678.9 1606.4C683.233 1602.73 686.966 1599.17 690.1 1595.7C692.3 1593.17 694.366 1590.47 696.3 1587.6C698.3 1584.73 700.066 1581.9 701.6 1579.1C703.133 1576.23 704.266 1573.6 705 1571.2C704.333 1571.2 703.133 1571.2 701.4 1571.2C699.666 1571.2 697.633 1571.2 695.3 1571.2C693.033 1571.2 690.633 1571.2 688.1 1571.2C685.566 1571.2 683.133 1571.2 680.8 1571.2C678.533 1571.2 676.533 1571.2 674.8 1571.2C673.066 1571.2 671.833 1571.2 671.1 1571.2C669.7 1571.2 668.233 1571.27 666.7 1571.4C665.166 1571.47 663.7 1571.57 662.3 1571.7C660.966 1571.77 659.933 1571.83 659.2 1571.9V1557.7C660.2 1557.77 661.433 1557.87 662.9 1558C664.366 1558.13 665.833 1558.23 667.3 1558.3C668.833 1558.37 670.1 1558.4 671.1 1558.4C671.966 1558.4 673.333 1558.4 675.2 1558.4C677.066 1558.4 679.2 1558.4 681.6 1558.4C684 1558.4 686.466 1558.4 689 1558.4C691.6 1558.4 694.066 1558.4 696.4 1558.4C698.8 1558.4 700.866 1558.4 702.6 1558.4C704.333 1558.4 705.6 1558.4 706.4 1558.4C708.6 1558.4 710.6 1558.27 712.4 1558C714.266 1557.73 715.7 1557.43 716.7 1557.1L724.9 1563.2ZM702.5 1594.3C705.1 1596.37 707.866 1598.77 710.8 1601.5C713.733 1604.23 716.633 1607.07 719.5 1610C722.366 1612.93 725 1615.77 727.4 1618.5C729.866 1621.17 731.933 1623.5 733.6 1625.5L722.2 1635.4C719.733 1632 716.9 1628.47 713.7 1624.8C710.566 1621.13 707.233 1617.5 703.7 1613.9C700.233 1610.23 696.7 1606.77 693.1 1603.5L702.5 1594.3Z" fill="black"/>
<path d="M615.3 1550C616.167 1551.2 617.1 1552.63 618.1 1554.3C619.1 1555.97 620.034 1557.63 620.9 1559.3C621.834 1560.97 622.634 1562.43 623.3 1563.7L615.2 1567.1C614.2 1565.03 612.967 1562.7 611.5 1560.1C610.1 1557.43 608.734 1555.13 607.4 1553.2L615.3 1550ZM627.1 1545.5C628.034 1546.77 629 1548.23 630 1549.9C631 1551.57 631.967 1553.23 632.9 1554.9C633.9 1556.5 634.667 1557.9 635.2 1559.1L627.3 1562.5C626.234 1560.37 624.967 1558 623.5 1555.4C622.034 1552.8 620.6 1550.57 619.2 1548.7L627.1 1545.5ZM572.2 1554.3C571.934 1555.83 571.734 1557.6 571.6 1559.6C571.467 1561.6 571.4 1563.3 571.4 1564.7C571.4 1565.7 571.4 1567.47 571.4 1570C571.4 1572.47 571.4 1575.4 571.4 1578.8C571.4 1582.2 571.4 1585.77 571.4 1589.5C571.4 1593.17 571.4 1596.73 571.4 1600.2C571.4 1603.6 571.4 1606.63 571.4 1609.3C571.4 1611.97 571.4 1613.93 571.4 1615.2C571.4 1617.33 571.934 1618.8 573 1619.6C574.067 1620.4 575.7 1621.03 577.9 1621.5C579.434 1621.7 581.2 1621.87 583.2 1622C585.2 1622.07 587.3 1622.1 589.5 1622.1C592.1 1622.1 594.967 1622.03 598.1 1621.9C601.3 1621.7 604.5 1621.47 607.7 1621.2C610.967 1620.93 614.034 1620.57 616.9 1620.1C619.767 1619.63 622.234 1619.13 624.3 1618.6V1633.2C621.167 1633.67 617.534 1634.03 613.4 1634.3C609.267 1634.63 605.034 1634.87 600.7 1635C596.434 1635.2 592.434 1635.3 588.7 1635.3C585.434 1635.3 582.334 1635.2 579.4 1635C576.534 1634.8 574.034 1634.53 571.9 1634.2C567.567 1633.33 564.2 1631.7 561.8 1629.3C559.4 1626.83 558.2 1623.47 558.2 1619.2C558.2 1617.27 558.2 1614.77 558.2 1611.7C558.2 1608.57 558.2 1605.13 558.2 1601.4C558.2 1597.6 558.2 1593.8 558.2 1590C558.2 1586.13 558.2 1582.5 558.2 1579.1C558.2 1575.63 558.2 1572.63 558.2 1570.1C558.2 1567.57 558.2 1565.77 558.2 1564.7C558.2 1563.97 558.167 1562.97 558.1 1561.7C558.034 1560.43 557.934 1559.13 557.8 1557.8C557.734 1556.47 557.6 1555.3 557.4 1554.3H572.2ZM565.6 1585C568.8 1584.33 572.2 1583.53 575.8 1582.6C579.4 1581.6 583.034 1580.53 586.7 1579.4C590.367 1578.27 593.834 1577.13 597.1 1576C600.434 1574.8 603.4 1573.63 606 1572.5C607.8 1571.83 609.567 1571.07 611.3 1570.2C613.1 1569.33 614.967 1568.3 616.9 1567.1L622.3 1579.8C620.367 1580.53 618.334 1581.37 616.2 1582.3C614.134 1583.17 612.267 1583.9 610.6 1584.5C607.667 1585.63 604.3 1586.83 600.5 1588.1C596.767 1589.37 592.867 1590.63 588.8 1591.9C584.734 1593.1 580.7 1594.23 576.7 1595.3C572.767 1596.37 569.1 1597.3 565.7 1598.1L565.6 1585Z" fill="black"/>
<path d="M450.699 1584.7C451.899 1584.77 453.433 1584.87 455.299 1585C457.166 1585.07 459.099 1585.14 461.099 1585.2C463.166 1585.27 465.066 1585.3 466.799 1585.3C468.466 1585.3 470.533 1585.3 472.999 1585.3C475.466 1585.3 478.133 1585.3 480.999 1585.3C483.933 1585.3 486.933 1585.3 489.999 1585.3C493.133 1585.3 496.233 1585.3 499.299 1585.3C502.366 1585.3 505.266 1585.3 507.999 1585.3C510.733 1585.3 513.166 1585.3 515.299 1585.3C517.499 1585.3 519.233 1585.3 520.499 1585.3C522.833 1585.3 525.033 1585.24 527.099 1585.1C529.166 1584.9 530.866 1584.77 532.199 1584.7V1600.4C531.066 1600.34 529.366 1600.24 527.099 1600.1C524.833 1599.97 522.633 1599.9 520.499 1599.9C519.233 1599.9 517.499 1599.9 515.299 1599.9C513.099 1599.9 510.633 1599.9 507.899 1599.9C505.166 1599.9 502.266 1599.9 499.199 1599.9C496.199 1599.9 493.133 1599.9 489.999 1599.9C486.866 1599.9 483.833 1599.9 480.899 1599.9C478.033 1599.9 475.366 1599.9 472.899 1599.9C470.499 1599.9 468.466 1599.9 466.799 1599.9C463.933 1599.9 460.999 1599.97 457.999 1600.1C454.999 1600.17 452.566 1600.27 450.699 1600.4V1584.7Z" fill="black"/>
<path d="M416.299 1586.8C416.299 1593 415.833 1598.63 414.899 1603.7C414.033 1608.7 412.499 1613.27 410.299 1617.4C408.099 1621.47 405.033 1625.13 401.099 1628.4C397.166 1631.67 392.199 1634.63 386.199 1637.3L375.499 1627.2C380.299 1625.53 384.433 1623.67 387.899 1621.6C391.433 1619.53 394.333 1617 396.599 1614C398.866 1610.93 400.533 1607.27 401.599 1603C402.733 1598.67 403.299 1593.43 403.299 1587.3V1560.7C403.299 1558.63 403.233 1556.83 403.099 1555.3C402.966 1553.7 402.833 1552.4 402.699 1551.4H416.999C416.866 1552.4 416.699 1553.7 416.499 1555.3C416.366 1556.83 416.299 1558.63 416.299 1560.7V1586.8ZM380.199 1552.3C380.066 1553.23 379.933 1554.5 379.799 1556.1C379.666 1557.63 379.599 1559.37 379.599 1561.3V1597.1C379.599 1598.57 379.633 1600 379.699 1601.4C379.766 1602.73 379.799 1603.93 379.799 1605C379.866 1606 379.933 1606.87 379.999 1607.6H365.999C366.133 1606.87 366.233 1606 366.299 1605C366.366 1603.93 366.433 1602.73 366.499 1601.4C366.566 1600 366.599 1598.57 366.599 1597.1V1561.3C366.599 1559.83 366.533 1558.33 366.399 1556.8C366.333 1555.27 366.199 1553.77 365.999 1552.3H380.199ZM347.199 1570.3C347.866 1570.37 348.733 1570.5 349.799 1570.7C350.866 1570.83 352.099 1570.97 353.499 1571.1C354.899 1571.17 356.433 1571.2 358.099 1571.2H423.699C426.366 1571.2 428.533 1571.13 430.199 1571C431.866 1570.87 433.366 1570.7 434.699 1570.5V1583.8C433.633 1583.67 432.199 1583.6 430.399 1583.6C428.599 1583.53 426.366 1583.5 423.699 1583.5H358.099C356.433 1583.5 354.899 1583.53 353.499 1583.6C352.166 1583.6 350.966 1583.63 349.899 1583.7C348.899 1583.77 347.999 1583.83 347.199 1583.9V1570.3Z" fill="black"/>
<path d="M754.691 1438.8C754.158 1439.74 753.591 1440.87 752.991 1442.2C752.391 1443.47 751.858 1444.74 751.391 1446C750.525 1448.94 749.291 1452.3 747.691 1456.1C746.158 1459.84 744.225 1463.74 741.891 1467.8C739.625 1471.8 736.991 1475.67 733.991 1479.4C729.191 1485.14 723.591 1490.34 717.191 1495C710.858 1499.67 702.991 1503.87 693.591 1507.6L681.791 1497C688.591 1495 694.458 1492.7 699.391 1490.1C704.325 1487.5 708.625 1484.74 712.291 1481.8C715.958 1478.8 719.225 1475.64 722.091 1472.3C724.425 1469.7 726.558 1466.77 728.491 1463.5C730.425 1460.17 732.091 1456.87 733.491 1453.6C734.891 1450.34 735.825 1447.47 736.291 1445H702.591L707.191 1433.7C708.125 1433.7 709.558 1433.7 711.491 1433.7C713.491 1433.7 715.725 1433.7 718.191 1433.7C720.725 1433.7 723.191 1433.7 725.591 1433.7C728.058 1433.7 730.191 1433.7 731.991 1433.7C733.858 1433.7 735.125 1433.7 735.791 1433.7C737.325 1433.7 738.858 1433.6 740.391 1433.4C741.991 1433.2 743.358 1432.9 744.491 1432.5L754.691 1438.8ZM722.091 1423C720.891 1424.74 719.725 1426.6 718.591 1428.6C717.458 1430.6 716.591 1432.14 715.991 1433.2C713.725 1437.2 710.925 1441.37 707.591 1445.7C704.325 1449.97 700.591 1454.14 696.391 1458.2C692.191 1462.2 687.725 1465.87 682.991 1469.2L671.691 1460.9C676.091 1458.17 679.958 1455.37 683.291 1452.5C686.691 1449.64 689.625 1446.8 692.091 1444C694.558 1441.14 696.658 1438.4 698.391 1435.8C700.191 1433.14 701.725 1430.77 702.991 1428.7C703.791 1427.44 704.625 1425.8 705.491 1423.8C706.358 1421.74 707.025 1419.87 707.491 1418.2L722.091 1423Z" fill="black"/>
<path d="M588.891 1425C590.624 1426.2 592.657 1427.67 594.991 1429.4C597.324 1431.13 599.724 1433.03 602.191 1435.1C604.724 1437.1 607.091 1439.07 609.291 1441C611.491 1442.93 613.291 1444.67 614.691 1446.2L604.491 1456.6C603.224 1455.2 601.557 1453.53 599.491 1451.6C597.424 1449.67 595.191 1447.67 592.791 1445.6C590.391 1443.53 588.024 1441.57 585.691 1439.7C583.357 1437.83 581.291 1436.27 579.491 1435L588.891 1425ZM576.391 1491.6C581.591 1490.87 586.491 1489.83 591.091 1488.5C595.691 1487.17 599.957 1485.63 603.891 1483.9C607.824 1482.17 611.424 1480.37 614.691 1478.5C620.357 1475.1 625.557 1471.23 630.291 1466.9C635.024 1462.57 639.157 1458.07 642.691 1453.4C646.224 1448.67 649.024 1444.07 651.091 1439.6L658.891 1453.7C656.357 1458.17 653.224 1462.63 649.491 1467.1C645.824 1471.57 641.657 1475.83 636.991 1479.9C632.324 1483.9 627.291 1487.5 621.891 1490.7C618.491 1492.77 614.824 1494.73 610.891 1496.6C606.957 1498.4 602.791 1500 598.391 1501.4C594.057 1502.87 589.524 1504 584.791 1504.8L576.391 1491.6Z" fill="black"/>
<path d="M545.091 1423.4C545.025 1424.8 544.925 1426.33 544.791 1428C544.725 1429.6 544.691 1431.4 544.691 1433.4C544.691 1435.13 544.691 1437.23 544.691 1439.7C544.691 1442.17 544.691 1444.63 544.691 1447.1C544.691 1449.5 544.691 1451.53 544.691 1453.2C544.691 1458.53 544.425 1463.2 543.891 1467.2C543.425 1471.2 542.691 1474.7 541.691 1477.7C540.691 1480.7 539.458 1483.37 537.991 1485.7C536.591 1487.97 534.958 1490.13 533.091 1492.2C530.891 1494.6 528.358 1496.77 525.491 1498.7C522.625 1500.57 519.725 1502.13 516.791 1503.4C513.925 1504.73 511.258 1505.8 508.791 1506.6L498.291 1495.6C503.291 1494.47 507.791 1492.9 511.791 1490.9C515.858 1488.83 519.391 1486.2 522.391 1483C524.125 1481.07 525.525 1479.13 526.591 1477.2C527.658 1475.27 528.458 1473.13 528.991 1470.8C529.591 1468.4 529.991 1465.7 530.191 1462.7C530.458 1459.7 530.591 1456.27 530.591 1452.4C530.591 1450.67 530.591 1448.6 530.591 1446.2C530.591 1443.8 530.591 1441.43 530.591 1439.1C530.591 1436.77 530.591 1434.87 530.591 1433.4C530.591 1431.4 530.525 1429.6 530.391 1428C530.325 1426.33 530.191 1424.8 529.991 1423.4H545.091ZM498.691 1424.2C498.625 1425.4 498.558 1426.6 498.491 1427.8C498.425 1428.93 498.391 1430.3 498.391 1431.9C498.391 1432.63 498.391 1433.83 498.391 1435.5C498.391 1437.17 498.391 1439.13 498.391 1441.4C498.391 1443.6 498.391 1445.93 498.391 1448.4C498.391 1450.8 498.391 1453.13 498.391 1455.4C498.391 1457.67 498.391 1459.73 498.391 1461.6C498.391 1463.4 498.391 1464.77 498.391 1465.7C498.391 1466.97 498.425 1468.43 498.491 1470.1C498.558 1471.77 498.625 1473.2 498.691 1474.4H484.191C484.258 1473.47 484.358 1472.13 484.491 1470.4C484.625 1468.67 484.691 1467.07 484.691 1465.6C484.691 1464.67 484.691 1463.3 484.691 1461.5C484.691 1459.7 484.691 1457.67 484.691 1455.4C484.691 1453.07 484.691 1450.7 484.691 1448.3C484.691 1445.83 484.691 1443.5 484.691 1441.3C484.691 1439.1 484.691 1437.17 484.691 1435.5C484.691 1433.83 484.691 1432.63 484.691 1431.9C484.691 1430.97 484.658 1429.77 484.591 1428.3C484.525 1426.77 484.425 1425.4 484.291 1424.2H498.691Z" fill="black"/>
<path d="M432.992 1426.6C433.925 1427.93 434.958 1429.5 436.092 1431.3C437.225 1433.1 438.292 1434.9 439.292 1436.7C440.358 1438.5 441.292 1440.17 442.092 1441.7L433.392 1445.6C432.458 1443.47 431.525 1441.57 430.592 1439.9C429.725 1438.23 428.825 1436.63 427.892 1435.1C426.958 1433.5 425.858 1431.83 424.592 1430.1L432.992 1426.6ZM446.092 1421.1C447.092 1422.43 448.158 1423.97 449.292 1425.7C450.492 1427.43 451.625 1429.2 452.692 1431C453.825 1432.73 454.758 1434.37 455.492 1435.9L447.092 1440C446.025 1437.87 444.992 1436 443.992 1434.4C443.058 1432.73 442.092 1431.17 441.092 1429.7C440.158 1428.17 439.058 1426.6 437.792 1425L446.092 1421.1ZM393.092 1492.9C393.092 1491.57 393.092 1489.47 393.092 1486.6C393.092 1483.67 393.092 1480.3 393.092 1476.5C393.092 1472.63 393.092 1468.63 393.092 1464.5C393.092 1460.3 393.092 1456.27 393.092 1452.4C393.092 1448.47 393.092 1445 393.092 1442C393.092 1439 393.092 1436.8 393.092 1435.4C393.092 1433.6 392.992 1431.57 392.792 1429.3C392.658 1427.03 392.425 1425.03 392.092 1423.3H407.692C407.492 1425.03 407.292 1426.97 407.092 1429.1C406.892 1431.23 406.792 1433.33 406.792 1435.4C406.792 1437.2 406.792 1439.7 406.792 1442.9C406.792 1446.1 406.792 1449.67 406.792 1453.6C406.792 1457.47 406.792 1461.43 406.792 1465.5C406.792 1469.57 406.792 1473.47 406.792 1477.2C406.792 1480.87 406.792 1484.1 406.792 1486.9C406.792 1489.63 406.792 1491.63 406.792 1492.9C406.792 1493.77 406.825 1495.07 406.892 1496.8C407.025 1498.47 407.158 1500.2 407.292 1502C407.492 1503.8 407.658 1505.4 407.792 1506.8H392.092C392.425 1504.87 392.658 1502.57 392.792 1499.9C392.992 1497.17 393.092 1494.83 393.092 1492.9ZM403.892 1449.2C407.225 1450.07 410.925 1451.2 414.992 1452.6C419.125 1453.93 423.292 1455.4 427.492 1457C431.692 1458.53 435.658 1460.07 439.392 1461.6C443.125 1463.07 446.192 1464.4 448.592 1465.6L442.992 1479.5C440.125 1477.97 436.992 1476.47 433.592 1475C430.192 1473.53 426.725 1472.1 423.192 1470.7C419.725 1469.23 416.325 1467.9 412.992 1466.7C409.658 1465.5 406.625 1464.47 403.892 1463.6V1449.2Z" fill="black"/>
<path d="M348.61 1421C349.31 1421 349.81 1421.5 349.81 1422.2V1499.7C349.81 1500.4 349.31 1501 348.61 1501H340.61C339.91 1501 339.41 1500.4 339.41 1499.7V1431.2H326.91C325.81 1431.2 325.31 1430.1 325.81 1429.4L330.81 1421.5C331.01 1421.2 331.41 1421 331.81 1421H348.61Z" fill="black"/>
<path d="M763.4 1318.05C764.933 1318.25 766.65 1318.4 768.55 1318.5C770.483 1318.57 772.433 1318.6 774.4 1318.6C776.4 1318.57 778.316 1318.5 780.15 1318.4C781.983 1318.27 783.566 1318.13 784.9 1318V1324.45C783.366 1324.58 781.683 1324.7 779.85 1324.8C778.016 1324.87 776.133 1324.9 774.2 1324.9C772.266 1324.9 770.366 1324.87 768.5 1324.8C766.666 1324.7 764.966 1324.58 763.4 1324.45V1318.05ZM767.4 1339.4C767.2 1340.23 767.05 1340.98 766.95 1341.65C766.85 1342.28 766.8 1342.93 766.8 1343.6C766.8 1344.13 766.933 1344.63 767.2 1345.1C767.466 1345.53 767.866 1345.92 768.4 1346.25C768.966 1346.55 769.683 1346.78 770.55 1346.95C771.45 1347.08 772.533 1347.15 773.8 1347.15C776.033 1347.15 778.133 1347.05 780.1 1346.85C782.066 1346.62 784.15 1346.28 786.35 1345.85L786.45 1352.6C784.85 1352.9 783 1353.13 780.9 1353.3C778.833 1353.47 776.383 1353.55 773.55 1353.55C769.25 1353.55 766.05 1352.83 763.95 1351.4C761.85 1349.93 760.8 1347.92 760.8 1345.35C760.8 1344.38 760.866 1343.38 761 1342.35C761.166 1341.28 761.383 1340.12 761.65 1338.85L767.4 1339.4ZM755.7 1314.7C755.566 1315.03 755.416 1315.5 755.25 1316.1C755.083 1316.7 754.916 1317.28 754.75 1317.85C754.616 1318.42 754.516 1318.85 754.45 1319.15C754.35 1319.85 754.183 1320.77 753.95 1321.9C753.75 1323 753.533 1324.25 753.3 1325.65C753.1 1327.02 752.9 1328.42 752.7 1329.85C752.5 1331.28 752.333 1332.67 752.2 1334C752.1 1335.33 752.05 1336.5 752.05 1337.5C752.05 1337.97 752.05 1338.5 752.05 1339.1C752.083 1339.7 752.15 1340.25 752.25 1340.75C752.483 1340.18 752.733 1339.62 753 1339.05C753.266 1338.48 753.533 1337.92 753.8 1337.35C754.066 1336.75 754.3 1336.18 754.5 1335.65L757.6 1338.1C757.133 1339.47 756.65 1340.93 756.15 1342.5C755.683 1344.07 755.25 1345.55 754.85 1346.95C754.483 1348.32 754.2 1349.45 754 1350.35C753.933 1350.72 753.866 1351.13 753.8 1351.6C753.766 1352.07 753.75 1352.43 753.75 1352.7C753.75 1352.97 753.75 1353.28 753.75 1353.65C753.783 1354.05 753.816 1354.42 753.85 1354.75L748.05 1355.15C747.55 1353.42 747.1 1351.12 746.7 1348.25C746.3 1345.35 746.1 1342.2 746.1 1338.8C746.1 1336.93 746.183 1335.03 746.35 1333.1C746.516 1331.17 746.716 1329.32 746.95 1327.55C747.183 1325.75 747.4 1324.12 747.6 1322.65C747.833 1321.18 748.033 1319.97 748.2 1319C748.266 1318.3 748.35 1317.52 748.45 1316.65C748.583 1315.75 748.666 1314.9 748.7 1314.1L755.7 1314.7Z" fill="black"/>
<path d="M693.349 1318.55H738.699V1324.25H693.349V1318.55ZM710.049 1330.8H729.199V1336.45H710.049V1330.8ZM726.949 1330.8H733.149C733.149 1330.8 733.133 1330.96 733.099 1331.3C733.099 1331.6 733.099 1331.95 733.099 1332.35C733.099 1332.75 733.066 1333.1 732.999 1333.4C732.699 1337.96 732.366 1341.7 731.999 1344.6C731.633 1347.5 731.216 1349.76 730.749 1351.4C730.283 1353 729.716 1354.16 729.049 1354.9C728.283 1355.73 727.483 1356.3 726.649 1356.6C725.816 1356.9 724.816 1357.11 723.649 1357.25C722.683 1357.35 721.416 1357.38 719.849 1357.35C718.283 1357.35 716.666 1357.31 714.999 1357.25C714.966 1356.38 714.749 1355.38 714.349 1354.25C713.949 1353.15 713.449 1352.18 712.849 1351.35C714.583 1351.51 716.249 1351.61 717.849 1351.65C719.449 1351.68 720.599 1351.7 721.299 1351.7C721.866 1351.7 722.333 1351.66 722.699 1351.6C723.099 1351.5 723.449 1351.31 723.749 1351.05C724.283 1350.61 724.733 1349.66 725.099 1348.2C725.499 1346.73 725.849 1344.65 726.149 1341.95C726.449 1339.25 726.716 1335.83 726.949 1331.7V1330.8ZM707.799 1321.95H714.499C714.366 1324.61 714.149 1327.31 713.849 1330.05C713.583 1332.75 713.116 1335.43 712.449 1338.1C711.783 1340.73 710.816 1343.25 709.549 1345.65C708.283 1348.05 706.616 1350.28 704.549 1352.35C702.483 1354.41 699.866 1356.25 696.699 1357.85C696.266 1357.01 695.633 1356.11 694.799 1355.15C693.999 1354.18 693.216 1353.38 692.449 1352.75C695.349 1351.41 697.716 1349.86 699.549 1348.1C701.416 1346.3 702.883 1344.36 703.949 1342.3C705.016 1340.2 705.799 1338.01 706.299 1335.75C706.833 1333.48 707.183 1331.18 707.349 1328.85C707.549 1326.51 707.699 1324.21 707.799 1321.95ZM712.599 1310.3H718.849V1320.8H712.599V1310.3Z" fill="black"/>
<path d="M670.549 1318.75C670.216 1321.28 669.783 1323.98 669.249 1326.85C668.716 1329.72 667.999 1332.62 667.099 1335.55C666.133 1338.92 664.999 1341.82 663.699 1344.25C662.399 1346.68 660.966 1348.57 659.399 1349.9C657.866 1351.2 656.183 1351.85 654.349 1351.85C652.516 1351.85 650.816 1351.23 649.249 1350C647.716 1348.73 646.483 1347 645.549 1344.8C644.649 1342.6 644.199 1340.1 644.199 1337.3C644.199 1334.4 644.783 1331.67 645.949 1329.1C647.116 1326.53 648.733 1324.27 650.799 1322.3C652.899 1320.3 655.333 1318.73 658.099 1317.6C660.899 1316.47 663.916 1315.9 667.149 1315.9C670.249 1315.9 673.033 1316.4 675.499 1317.4C677.999 1318.4 680.133 1319.78 681.899 1321.55C683.666 1323.32 685.016 1325.38 685.949 1327.75C686.883 1330.12 687.349 1332.67 687.349 1335.4C687.349 1338.9 686.633 1342.03 685.199 1344.8C683.766 1347.57 681.633 1349.85 678.799 1351.65C675.999 1353.45 672.499 1354.68 668.299 1355.35L664.549 1349.4C665.516 1349.3 666.366 1349.18 667.099 1349.05C667.833 1348.92 668.533 1348.77 669.199 1348.6C670.799 1348.2 672.283 1347.63 673.649 1346.9C675.049 1346.13 676.266 1345.2 677.299 1344.1C678.333 1342.97 679.133 1341.65 679.699 1340.15C680.299 1338.65 680.599 1337 680.599 1335.2C680.599 1333.23 680.299 1331.43 679.699 1329.8C679.099 1328.17 678.216 1326.75 677.049 1325.55C675.883 1324.32 674.466 1323.38 672.799 1322.75C671.133 1322.08 669.216 1321.75 667.049 1321.75C664.383 1321.75 662.033 1322.23 659.999 1323.2C657.966 1324.13 656.249 1325.35 654.849 1326.85C653.449 1328.35 652.383 1329.97 651.649 1331.7C650.949 1333.43 650.599 1335.08 650.599 1336.65C650.599 1338.32 650.799 1339.72 651.199 1340.85C651.599 1341.95 652.083 1342.78 652.649 1343.35C653.249 1343.88 653.883 1344.15 654.549 1344.15C655.249 1344.15 655.933 1343.8 656.599 1343.1C657.299 1342.37 657.983 1341.27 658.649 1339.8C659.316 1338.33 659.983 1336.48 660.649 1334.25C661.416 1331.85 662.066 1329.28 662.599 1326.55C663.133 1323.82 663.516 1321.15 663.749 1318.55L670.549 1318.75Z" fill="black"/>
<path d="M625.601 1321.65L632.001 1323.55C629.901 1329.55 627.184 1334.75 623.851 1339.15C620.517 1343.55 616.551 1347.27 611.951 1350.3C607.384 1353.3 602.101 1355.75 596.101 1357.65C595.901 1357.12 595.567 1356.48 595.101 1355.75C594.634 1355.02 594.151 1354.28 593.651 1353.55C593.184 1352.85 592.734 1352.27 592.301 1351.8C598.067 1350.27 603.117 1348.18 607.451 1345.55C611.784 1342.92 615.451 1339.65 618.451 1335.75C621.451 1331.82 623.834 1327.12 625.601 1321.65ZM606.251 1322.05C607.951 1327.02 610.301 1331.47 613.301 1335.4C616.301 1339.33 620.001 1342.67 624.401 1345.4C628.834 1348.13 634.001 1350.17 639.901 1351.5C639.434 1351.97 638.917 1352.57 638.351 1353.3C637.817 1354.03 637.301 1354.77 636.801 1355.5C636.301 1356.27 635.901 1356.93 635.601 1357.5C629.367 1355.9 624.001 1353.57 619.501 1350.5C615.001 1347.4 611.184 1343.63 608.051 1339.2C604.951 1334.77 602.351 1329.65 600.251 1323.85L606.251 1322.05ZM593.201 1318.45H639.001V1324.3H593.201V1318.45ZM612.901 1310.5H619.051V1322H612.901V1310.5Z" fill="black"/>
<path d="M564 1315.05L567.9 1310.4C569.266 1311.03 570.7 1311.78 572.2 1312.65C573.733 1313.52 575.166 1314.4 576.5 1315.3C577.866 1316.2 578.983 1317.07 579.85 1317.9L575.5 1323.1C574.733 1322.23 573.7 1321.32 572.4 1320.35C571.133 1319.38 569.75 1318.43 568.25 1317.5C566.783 1316.57 565.366 1315.75 564 1315.05ZM560.65 1335.35H586.65V1341.05H560.65V1335.35ZM557.1 1350.15H589.55V1355.85H557.1V1350.15ZM558.9 1321.4H588.5V1327.1H558.9V1321.4ZM570.3 1323.3H576.55V1352.7H570.3V1323.3ZM545.7 1315.15L548.95 1310.75C550.05 1311.12 551.2 1311.6 552.4 1312.2C553.6 1312.77 554.75 1313.38 555.85 1314.05C556.95 1314.68 557.85 1315.3 558.55 1315.9L555 1320.8C554.366 1320.17 553.516 1319.52 552.45 1318.85C551.416 1318.15 550.3 1317.48 549.1 1316.85C547.933 1316.18 546.8 1315.62 545.7 1315.15ZM542.35 1328.8L545.45 1324.25C546.55 1324.62 547.716 1325.07 548.95 1325.6C550.183 1326.1 551.35 1326.67 552.45 1327.3C553.583 1327.9 554.516 1328.47 555.25 1329L551.9 1334.05C551.266 1333.45 550.4 1332.83 549.3 1332.2C548.2 1331.57 547.05 1330.95 545.85 1330.35C544.65 1329.72 543.483 1329.2 542.35 1328.8ZM544.5 1352.85C545.4 1351.58 546.4 1350.1 547.5 1348.4C548.6 1346.67 549.716 1344.83 550.85 1342.9C551.983 1340.93 553.033 1338.98 554 1337.05L558.4 1341.05C557.533 1342.78 556.6 1344.57 555.6 1346.4C554.633 1348.23 553.633 1350.03 552.6 1351.8C551.6 1353.57 550.6 1355.27 549.6 1356.9L544.5 1352.85Z" fill="black"/>
<path d="M500.799 1317.15C502.633 1317.38 504.699 1317.55 506.999 1317.65C509.299 1317.75 511.766 1317.8 514.399 1317.8C516.066 1317.8 517.766 1317.77 519.499 1317.7C521.233 1317.63 522.916 1317.55 524.549 1317.45C526.183 1317.32 527.633 1317.2 528.899 1317.1V1323.75C527.733 1323.82 526.316 1323.9 524.649 1324C523.016 1324.1 521.299 1324.18 519.499 1324.25C517.733 1324.32 516.049 1324.35 514.449 1324.35C511.849 1324.35 509.433 1324.3 507.199 1324.2C504.966 1324.07 502.833 1323.93 500.799 1323.8V1317.15ZM504.999 1338.35C504.766 1339.22 504.566 1340.07 504.399 1340.9C504.233 1341.73 504.149 1342.57 504.149 1343.4C504.149 1345.03 504.949 1346.37 506.549 1347.4C508.183 1348.4 510.799 1348.9 514.399 1348.9C516.666 1348.9 518.849 1348.82 520.949 1348.65C523.083 1348.48 525.083 1348.27 526.949 1348C528.816 1347.7 530.483 1347.35 531.949 1346.95L531.999 1353.95C530.566 1354.28 528.933 1354.58 527.099 1354.85C525.299 1355.12 523.349 1355.32 521.249 1355.45C519.183 1355.62 516.983 1355.7 514.649 1355.7C510.816 1355.7 507.633 1355.27 505.099 1354.4C502.566 1353.57 500.649 1352.37 499.349 1350.8C498.083 1349.2 497.449 1347.25 497.449 1344.95C497.449 1343.52 497.566 1342.2 497.799 1341C498.033 1339.77 498.233 1338.68 498.399 1337.75L504.999 1338.35ZM530.199 1312C530.633 1312.6 531.083 1313.32 531.549 1314.15C532.049 1314.98 532.533 1315.82 532.999 1316.65C533.466 1317.48 533.866 1318.22 534.199 1318.85L530.149 1320.6C529.649 1319.57 529.033 1318.38 528.299 1317.05C527.599 1315.72 526.916 1314.57 526.249 1313.6L530.199 1312ZM536.149 1309.75C536.583 1310.38 537.049 1311.12 537.549 1311.95C538.049 1312.78 538.533 1313.62 538.999 1314.45C539.499 1315.25 539.899 1315.95 540.199 1316.55L536.199 1318.25C535.666 1317.22 535.033 1316.05 534.299 1314.75C533.566 1313.42 532.849 1312.28 532.149 1311.35L536.149 1309.75Z" fill="black"/>
<path d="M465.301 1312.9C465.134 1313.8 464.867 1314.97 464.501 1316.4C464.134 1317.83 463.601 1319.45 462.901 1321.25C462.367 1322.48 461.751 1323.77 461.051 1325.1C460.384 1326.4 459.701 1327.57 459.001 1328.6C459.434 1328.4 459.984 1328.23 460.651 1328.1C461.317 1327.93 462.001 1327.82 462.701 1327.75C463.434 1327.65 464.084 1327.6 464.651 1327.6C466.751 1327.6 468.484 1328.2 469.851 1329.4C471.251 1330.6 471.951 1332.38 471.951 1334.75C471.951 1335.42 471.951 1336.23 471.951 1337.2C471.984 1338.17 472.017 1339.18 472.051 1340.25C472.084 1341.28 472.117 1342.3 472.151 1343.3C472.184 1344.3 472.201 1345.2 472.201 1346H466.201C466.267 1345.43 466.301 1344.77 466.301 1344C466.334 1343.2 466.351 1342.37 466.351 1341.5C466.384 1340.63 466.401 1339.8 466.401 1339C466.434 1338.17 466.451 1337.42 466.451 1336.75C466.451 1335.15 466.017 1334.05 465.151 1333.45C464.317 1332.82 463.384 1332.5 462.351 1332.5C460.951 1332.5 459.534 1332.85 458.101 1333.55C456.701 1334.22 455.517 1335.02 454.551 1335.95C453.817 1336.68 453.067 1337.5 452.301 1338.4C451.567 1339.3 450.767 1340.32 449.901 1341.45L444.551 1337.45C446.717 1335.45 448.584 1333.52 450.151 1331.65C451.751 1329.78 453.101 1327.93 454.201 1326.1C455.301 1324.27 456.201 1322.43 456.901 1320.6C457.401 1319.27 457.801 1317.88 458.101 1316.45C458.434 1314.98 458.634 1313.62 458.701 1312.35L465.301 1312.9ZM446.501 1317.5C447.767 1317.7 449.234 1317.85 450.901 1317.95C452.567 1318.05 454.034 1318.1 455.301 1318.1C457.501 1318.1 459.901 1318.05 462.501 1317.95C465.134 1317.85 467.801 1317.68 470.501 1317.45C473.201 1317.18 475.767 1316.85 478.201 1316.45L478.151 1322.25C476.384 1322.48 474.467 1322.7 472.401 1322.9C470.367 1323.07 468.284 1323.22 466.151 1323.35C464.051 1323.45 462.034 1323.53 460.101 1323.6C458.167 1323.63 456.451 1323.65 454.951 1323.65C454.284 1323.65 453.451 1323.65 452.451 1323.65C451.484 1323.62 450.484 1323.58 449.451 1323.55C448.417 1323.48 447.434 1323.42 446.501 1323.35V1317.5ZM486.101 1331.7C485.567 1331.87 484.934 1332.08 484.201 1332.35C483.501 1332.58 482.784 1332.83 482.051 1333.1C481.351 1333.33 480.717 1333.57 480.151 1333.8C478.551 1334.43 476.651 1335.2 474.451 1336.1C472.284 1337 470.017 1338.05 467.651 1339.25C466.151 1340.05 464.884 1340.83 463.851 1341.6C462.817 1342.37 462.034 1343.15 461.501 1343.95C460.967 1344.72 460.701 1345.57 460.701 1346.5C460.701 1347.2 460.851 1347.78 461.151 1348.25C461.451 1348.68 461.901 1349.03 462.501 1349.3C463.101 1349.57 463.851 1349.75 464.751 1349.85C465.651 1349.95 466.717 1350 467.951 1350C470.084 1350 472.434 1349.88 475.001 1349.65C477.567 1349.38 479.951 1349.03 482.151 1348.6L481.951 1355.05C480.884 1355.18 479.534 1355.32 477.901 1355.45C476.267 1355.62 474.567 1355.73 472.801 1355.8C471.067 1355.87 469.401 1355.9 467.801 1355.9C465.201 1355.9 462.867 1355.65 460.801 1355.15C458.734 1354.65 457.101 1353.8 455.901 1352.6C454.734 1351.37 454.151 1349.68 454.151 1347.55C454.151 1345.82 454.534 1344.25 455.301 1342.85C456.101 1341.45 457.151 1340.18 458.451 1339.05C459.751 1337.92 461.167 1336.9 462.701 1336C464.267 1335.07 465.801 1334.22 467.301 1333.45C468.834 1332.65 470.217 1331.97 471.451 1331.4C472.684 1330.83 473.834 1330.33 474.901 1329.9C476.001 1329.43 477.051 1328.97 478.051 1328.5C479.017 1328.07 479.951 1327.65 480.851 1327.25C481.751 1326.82 482.667 1326.37 483.601 1325.9L486.101 1331.7Z" fill="black"/>
<path d="M412.75 1310.5H418.85V1351.75C418.85 1353.22 418.65 1354.32 418.25 1355.05C417.85 1355.78 417.167 1356.37 416.2 1356.8C415.234 1357.17 414.034 1357.4 412.6 1357.5C411.2 1357.6 409.434 1357.65 407.3 1357.65C407.167 1356.95 406.9 1356.13 406.5 1355.2C406.1 1354.3 405.7 1353.53 405.3 1352.9C406.134 1352.93 406.967 1352.97 407.8 1353C408.634 1353 409.384 1353 410.05 1353C410.75 1353 411.234 1353 411.5 1353C411.967 1352.97 412.284 1352.87 412.45 1352.7C412.65 1352.53 412.75 1352.22 412.75 1351.75V1310.5ZM394.05 1313.8H438.05V1318.5H394.05V1313.8ZM404.9 1324.35V1326.7H426.95V1324.35H404.9ZM399.15 1320.55H433.1V1330.5H399.15V1320.55ZM397.95 1332.75H433.95V1352.3H427.85V1336.8H397.95V1332.75ZM392.9 1338.95H439.2V1343.5H392.9V1338.95ZM397.55 1345.8H431.15V1350.15H397.55V1345.8Z" fill="black"/>
<path d="M365.8 1315.65C364.367 1317.32 362.584 1319 360.45 1320.7C358.317 1322.4 355.984 1324.02 353.45 1325.55C350.917 1327.05 348.317 1328.38 345.65 1329.55C345.417 1329.08 345.1 1328.55 344.7 1327.95C344.3 1327.32 343.884 1326.72 343.45 1326.15C343.017 1325.55 342.584 1325.03 342.15 1324.6C344.917 1323.53 347.6 1322.22 350.2 1320.65C352.8 1319.08 355.167 1317.42 357.3 1315.65C359.434 1313.85 361.167 1312.08 362.5 1310.35H368.55C369.95 1311.95 371.484 1313.45 373.15 1314.85C374.85 1316.22 376.617 1317.48 378.45 1318.65C380.284 1319.82 382.167 1320.87 384.1 1321.8C386.067 1322.7 388.034 1323.47 390 1324.1C389.3 1324.83 388.617 1325.68 387.95 1326.65C387.284 1327.62 386.7 1328.53 386.2 1329.4C383.8 1328.37 381.317 1327.12 378.75 1325.65C376.184 1324.15 373.767 1322.53 371.5 1320.8C369.234 1319.07 367.334 1317.35 365.8 1315.65ZM354.8 1331.55H376.8V1335.85H354.8V1331.55ZM362.8 1320.45H369V1327.2H362.8V1320.45ZM345.85 1351.5C347.75 1351.33 349.884 1351.17 352.25 1351C354.65 1350.8 357.167 1350.6 359.8 1350.4C362.434 1350.17 365.05 1349.93 367.65 1349.7L367.75 1355C365.284 1355.23 362.784 1355.47 360.25 1355.7C357.75 1355.97 355.334 1356.2 353 1356.4C350.7 1356.63 348.584 1356.83 346.65 1357L345.85 1351.5ZM367.55 1341.45C369.35 1344.48 372.067 1346.9 375.7 1348.7C379.367 1350.47 383.8 1351.65 389 1352.25C388.6 1352.68 388.167 1353.2 387.7 1353.8C387.234 1354.43 386.8 1355.07 386.4 1355.7C386 1356.37 385.667 1356.97 385.4 1357.5C381.7 1356.9 378.4 1355.97 375.5 1354.7C372.6 1353.43 370.084 1351.83 367.95 1349.9C365.817 1347.93 364 1345.57 362.5 1342.8L367.55 1341.45ZM382.3 1340.4L386.65 1344C385.384 1344.87 384.034 1345.73 382.6 1346.6C381.167 1347.43 379.734 1348.22 378.3 1348.95C376.867 1349.65 375.517 1350.28 374.25 1350.85L370.7 1347.6C371.934 1347 373.25 1346.3 374.65 1345.5C376.05 1344.67 377.434 1343.82 378.8 1342.95C380.167 1342.05 381.334 1341.2 382.3 1340.4ZM354.8 1324.25H380.85V1343.25H354.8V1338.6H374.75V1328.95H354.8V1324.25ZM351.05 1324.25H357V1352.2L351.05 1352.8V1324.25Z" fill="black"/>
<path d="M312.801 1312.4C312.767 1312.67 312.717 1313.08 312.651 1313.65C312.584 1314.18 312.517 1314.73 312.451 1315.3C312.417 1315.83 312.384 1316.32 312.351 1316.75C312.284 1317.72 312.217 1318.78 312.151 1319.95C312.117 1321.08 312.084 1322.27 312.051 1323.5C312.017 1324.7 311.984 1325.92 311.951 1327.15C311.951 1328.38 311.951 1329.58 311.951 1330.75C311.951 1332.12 311.967 1333.63 312.001 1335.3C312.034 1336.93 312.067 1338.57 312.101 1340.2C312.167 1341.8 312.201 1343.27 312.201 1344.6C312.234 1345.93 312.251 1346.97 312.251 1347.7C312.251 1349.77 312.017 1351.37 311.551 1352.5C311.117 1353.63 310.484 1354.42 309.651 1354.85C308.817 1355.32 307.851 1355.55 306.751 1355.55C305.551 1355.55 304.267 1355.3 302.901 1354.8C301.534 1354.33 300.251 1353.67 299.051 1352.8C297.884 1351.93 296.917 1350.93 296.151 1349.8C295.417 1348.63 295.051 1347.38 295.051 1346.05C295.051 1344.45 295.651 1342.87 296.851 1341.3C298.084 1339.7 299.701 1338.23 301.701 1336.9C303.734 1335.57 305.917 1334.5 308.251 1333.7C310.484 1332.87 312.784 1332.27 315.151 1331.9C317.517 1331.5 319.651 1331.3 321.551 1331.3C324.117 1331.3 326.434 1331.73 328.501 1332.6C330.567 1333.43 332.217 1334.67 333.451 1336.3C334.684 1337.93 335.301 1339.9 335.301 1342.2C335.301 1344.13 334.934 1345.92 334.201 1347.55C333.467 1349.18 332.284 1350.6 330.651 1351.8C329.051 1352.97 326.917 1353.88 324.251 1354.55C323.117 1354.78 321.984 1354.95 320.851 1355.05C319.751 1355.18 318.701 1355.28 317.701 1355.35L315.401 1348.9C316.534 1348.9 317.617 1348.88 318.651 1348.85C319.717 1348.78 320.684 1348.68 321.551 1348.55C322.917 1348.28 324.151 1347.88 325.251 1347.35C326.351 1346.82 327.217 1346.12 327.851 1345.25C328.484 1344.38 328.801 1343.35 328.801 1342.15C328.801 1341.02 328.484 1340.05 327.851 1339.25C327.251 1338.45 326.401 1337.83 325.301 1337.4C324.201 1336.97 322.917 1336.75 321.451 1336.75C319.351 1336.75 317.217 1336.97 315.051 1337.4C312.917 1337.83 310.867 1338.43 308.901 1339.2C307.434 1339.77 306.117 1340.43 304.951 1341.2C303.784 1341.93 302.867 1342.7 302.201 1343.5C301.534 1344.3 301.201 1345.07 301.201 1345.8C301.201 1346.2 301.317 1346.58 301.551 1346.95C301.817 1347.28 302.151 1347.58 302.551 1347.85C302.951 1348.12 303.351 1348.33 303.751 1348.5C304.184 1348.63 304.551 1348.7 304.851 1348.7C305.317 1348.7 305.701 1348.57 306.001 1348.3C306.301 1348 306.451 1347.43 306.451 1346.6C306.451 1345.7 306.417 1344.42 306.351 1342.75C306.317 1341.05 306.267 1339.17 306.201 1337.1C306.167 1335.03 306.151 1332.98 306.151 1330.95C306.151 1329.55 306.151 1328.13 306.151 1326.7C306.184 1325.27 306.201 1323.9 306.201 1322.6C306.201 1321.3 306.201 1320.15 306.201 1319.15C306.234 1318.15 306.251 1317.37 306.251 1316.8C306.251 1316.43 306.234 1315.97 306.201 1315.4C306.167 1314.83 306.117 1314.27 306.051 1313.7C306.017 1313.1 305.967 1312.67 305.901 1312.4H312.801ZM327.051 1317.8C328.317 1318.4 329.734 1319.13 331.301 1320C332.901 1320.87 334.417 1321.73 335.851 1322.6C337.317 1323.43 338.484 1324.18 339.351 1324.85L336.351 1329.95C335.717 1329.42 334.884 1328.82 333.851 1328.15C332.851 1327.48 331.751 1326.8 330.551 1326.1C329.384 1325.4 328.251 1324.75 327.151 1324.15C326.051 1323.52 325.101 1323.02 324.301 1322.65L327.051 1317.8ZM296.401 1320.55C297.867 1320.72 299.151 1320.83 300.251 1320.9C301.384 1320.93 302.401 1320.95 303.301 1320.95C304.601 1320.95 306.034 1320.9 307.601 1320.8C309.167 1320.67 310.767 1320.5 312.401 1320.3C314.034 1320.07 315.617 1319.8 317.151 1319.5C318.717 1319.2 320.134 1318.87 321.401 1318.5L321.551 1324.7C320.151 1325.03 318.634 1325.33 317.001 1325.6C315.367 1325.83 313.717 1326.05 312.051 1326.25C310.417 1326.45 308.851 1326.6 307.351 1326.7C305.884 1326.8 304.601 1326.85 303.501 1326.85C301.834 1326.85 300.467 1326.83 299.401 1326.8C298.334 1326.77 297.367 1326.7 296.501 1326.6L296.401 1320.55Z" fill="black"/>
<path d="M748.209 1707.95C747.409 1708.51 746.625 1709.11 745.859 1709.75C745.092 1710.35 744.425 1710.9 743.859 1711.4C743.025 1712.03 742.025 1712.81 740.859 1713.75C739.725 1714.65 738.525 1715.6 737.259 1716.6C736.025 1717.56 734.825 1718.51 733.659 1719.45C732.492 1720.38 731.492 1721.21 730.659 1721.95C729.792 1722.71 729.209 1723.35 728.909 1723.85C728.609 1724.31 728.609 1724.78 728.909 1725.25C729.242 1725.71 729.859 1726.35 730.759 1727.15C731.492 1727.78 732.425 1728.56 733.559 1729.5C734.725 1730.43 735.975 1731.46 737.309 1732.6C738.675 1733.7 740.059 1734.85 741.459 1736.05C742.892 1737.21 744.259 1738.38 745.559 1739.55C746.892 1740.68 748.075 1741.75 749.109 1742.75L743.259 1748.1C741.859 1746.53 740.409 1744.98 738.909 1743.45C738.142 1742.68 737.142 1741.75 735.909 1740.65C734.709 1739.51 733.392 1738.33 731.959 1737.1C730.559 1735.86 729.159 1734.65 727.759 1733.45C726.359 1732.21 725.092 1731.11 723.959 1730.15C722.292 1728.75 721.209 1727.46 720.709 1726.3C720.242 1725.13 720.309 1723.98 720.909 1722.85C721.542 1721.68 722.692 1720.41 724.359 1719.05C725.359 1718.28 726.492 1717.38 727.759 1716.35C729.025 1715.28 730.325 1714.2 731.659 1713.1C732.992 1711.96 734.259 1710.88 735.459 1709.85C736.659 1708.78 737.675 1707.85 738.509 1707.05C739.242 1706.31 739.975 1705.56 740.709 1704.8C741.442 1704.03 741.992 1703.36 742.359 1702.8L748.209 1707.95Z" fill="black"/>
<path d="M684.609 1715.95H704.109V1720.9H684.609V1715.95ZM681.609 1725.45H707.759V1730.5H681.609V1725.45ZM694.159 1706.9C693.259 1708.37 692.109 1709.88 690.709 1711.45C689.342 1713.02 687.825 1714.52 686.159 1715.95C684.525 1717.38 682.809 1718.63 681.009 1719.7C680.709 1718.97 680.259 1718.13 679.659 1717.2C679.092 1716.27 678.559 1715.5 678.059 1714.9C679.892 1713.9 681.642 1712.65 683.309 1711.15C685.009 1709.65 686.559 1708.07 687.959 1706.4C689.359 1704.73 690.492 1703.13 691.359 1701.6H696.609C697.809 1703.33 699.175 1705.02 700.709 1706.65C702.242 1708.28 703.859 1709.78 705.559 1711.15C707.292 1712.52 709.009 1713.62 710.709 1714.45C710.175 1715.12 709.609 1715.93 709.009 1716.9C708.409 1717.83 707.909 1718.72 707.509 1719.55C705.875 1718.58 704.209 1717.4 702.509 1716C700.842 1714.57 699.292 1713.07 697.859 1711.5C696.425 1709.9 695.192 1708.37 694.159 1706.9ZM691.459 1718.55H697.109V1742.3C697.109 1743.63 696.975 1744.7 696.709 1745.5C696.442 1746.33 695.875 1746.98 695.009 1747.45C694.209 1747.88 693.242 1748.17 692.109 1748.3C690.975 1748.43 689.659 1748.5 688.159 1748.5C688.025 1747.73 687.775 1746.8 687.409 1745.7C687.042 1744.63 686.659 1743.72 686.259 1742.95C687.225 1742.98 688.125 1743 688.959 1743C689.792 1743 690.359 1743 690.659 1743C690.959 1742.97 691.159 1742.9 691.259 1742.8C691.392 1742.7 691.459 1742.52 691.459 1742.25V1718.55ZM683.509 1732.4L688.759 1733.65C687.959 1735.98 686.909 1738.23 685.609 1740.4C684.309 1742.57 682.942 1744.37 681.509 1745.8C681.209 1745.5 680.792 1745.13 680.259 1744.7C679.759 1744.27 679.242 1743.83 678.709 1743.4C678.175 1742.97 677.692 1742.63 677.259 1742.4C678.625 1741.17 679.842 1739.67 680.909 1737.9C682.009 1736.13 682.875 1734.3 683.509 1732.4ZM698.759 1734.3L703.359 1732.15C704.225 1733.28 705.075 1734.5 705.909 1735.8C706.775 1737.1 707.542 1738.4 708.209 1739.7C708.909 1740.97 709.425 1742.12 709.759 1743.15L704.809 1745.6C704.542 1744.6 704.075 1743.45 703.409 1742.15C702.742 1740.85 702.009 1739.52 701.209 1738.15C700.409 1736.75 699.592 1735.47 698.759 1734.3ZM665.059 1703.65H676.859V1709.05H670.309V1748.5H665.059V1703.65ZM675.059 1703.65H676.009L676.859 1703.45L680.759 1705.7C680.359 1707.1 679.909 1708.62 679.409 1710.25C678.909 1711.88 678.392 1713.48 677.859 1715.05C677.359 1716.62 676.875 1718.05 676.409 1719.35C677.942 1721.25 678.942 1723.05 679.409 1724.75C679.875 1726.45 680.109 1728.03 680.109 1729.5C680.109 1731.1 679.925 1732.43 679.559 1733.5C679.225 1734.57 678.659 1735.38 677.859 1735.95C677.459 1736.22 677.009 1736.43 676.509 1736.6C676.042 1736.77 675.542 1736.9 675.009 1737C674.075 1737.1 672.975 1737.13 671.709 1737.1C671.675 1736.4 671.542 1735.55 671.309 1734.55C671.109 1733.55 670.809 1732.7 670.409 1732C670.875 1732.03 671.275 1732.05 671.609 1732.05C671.975 1732.05 672.309 1732.05 672.609 1732.05C673.209 1732.02 673.675 1731.87 674.009 1731.6C674.309 1731.37 674.509 1731.02 674.609 1730.55C674.742 1730.05 674.809 1729.45 674.809 1728.75C674.809 1727.58 674.575 1726.25 674.109 1724.75C673.675 1723.25 672.759 1721.67 671.359 1720C671.692 1718.87 672.025 1717.63 672.359 1716.3C672.725 1714.93 673.075 1713.57 673.409 1712.2C673.775 1710.83 674.092 1709.57 674.359 1708.4C674.659 1707.2 674.892 1706.2 675.059 1705.4V1703.65Z" fill="black"/>
<path d="M635.809 1703.9C635.642 1704.8 635.375 1705.97 635.009 1707.4C634.642 1708.83 634.109 1710.45 633.409 1712.25C632.875 1713.48 632.259 1714.77 631.559 1716.1C630.892 1717.4 630.209 1718.57 629.509 1719.6C629.942 1719.4 630.492 1719.23 631.159 1719.1C631.825 1718.93 632.509 1718.82 633.209 1718.75C633.942 1718.65 634.592 1718.6 635.159 1718.6C637.259 1718.6 638.992 1719.2 640.359 1720.4C641.759 1721.6 642.459 1723.38 642.459 1725.75C642.459 1726.42 642.459 1727.23 642.459 1728.2C642.492 1729.17 642.525 1730.18 642.559 1731.25C642.592 1732.28 642.625 1733.3 642.659 1734.3C642.692 1735.3 642.709 1736.2 642.709 1737H636.709C636.775 1736.43 636.809 1735.77 636.809 1735C636.842 1734.2 636.859 1733.37 636.859 1732.5C636.892 1731.63 636.909 1730.8 636.909 1730C636.942 1729.17 636.959 1728.42 636.959 1727.75C636.959 1726.15 636.525 1725.05 635.659 1724.45C634.825 1723.82 633.892 1723.5 632.859 1723.5C631.459 1723.5 630.042 1723.85 628.609 1724.55C627.209 1725.22 626.025 1726.02 625.059 1726.95C624.325 1727.68 623.575 1728.5 622.809 1729.4C622.075 1730.3 621.275 1731.32 620.409 1732.45L615.059 1728.45C617.225 1726.45 619.092 1724.52 620.659 1722.65C622.259 1720.78 623.609 1718.93 624.709 1717.1C625.809 1715.27 626.709 1713.43 627.409 1711.6C627.909 1710.27 628.309 1708.88 628.609 1707.45C628.942 1705.98 629.142 1704.62 629.209 1703.35L635.809 1703.9ZM617.009 1708.5C618.275 1708.7 619.742 1708.85 621.409 1708.95C623.075 1709.05 624.542 1709.1 625.809 1709.1C628.009 1709.1 630.409 1709.05 633.009 1708.95C635.642 1708.85 638.309 1708.68 641.009 1708.45C643.709 1708.18 646.275 1707.85 648.709 1707.45L648.659 1713.25C646.892 1713.48 644.975 1713.7 642.909 1713.9C640.875 1714.07 638.792 1714.22 636.659 1714.35C634.559 1714.45 632.542 1714.53 630.609 1714.6C628.675 1714.63 626.959 1714.65 625.459 1714.65C624.792 1714.65 623.959 1714.65 622.959 1714.65C621.992 1714.62 620.992 1714.58 619.959 1714.55C618.925 1714.48 617.942 1714.42 617.009 1714.35V1708.5ZM656.609 1722.7C656.075 1722.87 655.442 1723.08 654.709 1723.35C654.009 1723.58 653.292 1723.83 652.559 1724.1C651.859 1724.33 651.225 1724.57 650.659 1724.8C649.059 1725.43 647.159 1726.2 644.959 1727.1C642.792 1728 640.525 1729.05 638.159 1730.25C636.659 1731.05 635.392 1731.83 634.359 1732.6C633.325 1733.37 632.542 1734.15 632.009 1734.95C631.475 1735.72 631.209 1736.57 631.209 1737.5C631.209 1738.2 631.359 1738.78 631.659 1739.25C631.959 1739.68 632.409 1740.03 633.009 1740.3C633.609 1740.57 634.359 1740.75 635.259 1740.85C636.159 1740.95 637.225 1741 638.459 1741C640.592 1741 642.942 1740.88 645.509 1740.65C648.075 1740.38 650.459 1740.03 652.659 1739.6L652.459 1746.05C651.392 1746.18 650.042 1746.32 648.409 1746.45C646.775 1746.62 645.075 1746.73 643.309 1746.8C641.575 1746.87 639.909 1746.9 638.309 1746.9C635.709 1746.9 633.375 1746.65 631.309 1746.15C629.242 1745.65 627.609 1744.8 626.409 1743.6C625.242 1742.37 624.659 1740.68 624.659 1738.55C624.659 1736.82 625.042 1735.25 625.809 1733.85C626.609 1732.45 627.659 1731.18 628.959 1730.05C630.259 1728.92 631.675 1727.9 633.209 1727C634.775 1726.07 636.309 1725.22 637.809 1724.45C639.342 1723.65 640.725 1722.97 641.959 1722.4C643.192 1721.83 644.342 1721.33 645.409 1720.9C646.509 1720.43 647.559 1719.97 648.559 1719.5C649.525 1719.07 650.459 1718.65 651.359 1718.25C652.259 1717.82 653.175 1717.37 654.109 1716.9L656.609 1722.7Z" fill="black"/>
<path d="M586.658 1742.9C586.758 1742.4 586.841 1741.83 586.908 1741.2C587.008 1740.53 587.058 1739.87 587.058 1739.2C587.058 1738.83 587.058 1738.1 587.058 1737C587.058 1735.9 587.058 1734.57 587.058 1733C587.058 1731.43 587.058 1729.75 587.058 1727.95C587.058 1726.12 587.058 1724.27 587.058 1722.4C587.058 1720.53 587.058 1718.78 587.058 1717.15C587.058 1715.48 587.058 1714.03 587.058 1712.8C587.058 1711.53 587.058 1710.62 587.058 1710.05C587.058 1708.92 586.991 1707.93 586.858 1707.1C586.758 1706.27 586.691 1705.82 586.658 1705.75H594.108C594.074 1705.82 594.008 1706.28 593.908 1707.15C593.808 1707.98 593.758 1708.97 593.758 1710.1C593.758 1710.67 593.758 1711.52 593.758 1712.65C593.758 1713.75 593.758 1715.03 593.758 1716.5C593.758 1717.93 593.758 1719.47 593.758 1721.1C593.758 1722.73 593.758 1724.35 593.758 1725.95C593.758 1727.52 593.758 1729.02 593.758 1730.45C593.758 1731.85 593.758 1733.05 593.758 1734.05C593.758 1735.05 593.758 1735.78 593.758 1736.25C595.124 1735.65 596.541 1734.83 598.008 1733.8C599.474 1732.77 600.908 1731.57 602.308 1730.2C603.741 1728.8 605.008 1727.3 606.108 1725.7L609.958 1731.2C608.591 1733 606.924 1734.77 604.958 1736.5C603.024 1738.23 601.024 1739.82 598.958 1741.25C596.891 1742.68 594.908 1743.88 593.008 1744.85C592.474 1745.15 592.041 1745.42 591.708 1745.65C591.374 1745.92 591.091 1746.15 590.858 1746.35L586.658 1742.9ZM563.508 1742.15C565.708 1740.62 567.508 1738.77 568.908 1736.6C570.308 1734.43 571.341 1732.3 572.008 1730.2C572.374 1729.1 572.641 1727.75 572.808 1726.15C573.008 1724.52 573.158 1722.78 573.258 1720.95C573.358 1719.08 573.408 1717.25 573.408 1715.45C573.441 1713.62 573.458 1711.93 573.458 1710.4C573.458 1709.4 573.408 1708.55 573.308 1707.85C573.241 1707.12 573.141 1706.43 573.008 1705.8H580.358C580.324 1705.87 580.274 1706.15 580.208 1706.65C580.174 1707.12 580.124 1707.68 580.058 1708.35C580.024 1708.98 580.008 1709.65 580.008 1710.35C580.008 1711.82 579.991 1713.53 579.958 1715.5C579.924 1717.43 579.858 1719.42 579.758 1721.45C579.658 1723.48 579.508 1725.42 579.308 1727.25C579.108 1729.05 578.841 1730.58 578.508 1731.85C577.741 1734.68 576.591 1737.32 575.058 1739.75C573.558 1742.15 571.741 1744.3 569.608 1746.2L563.508 1742.15Z" fill="black"/>
<path d="M516.107 1720.85C516.707 1720.88 517.474 1720.93 518.407 1721C519.341 1721.03 520.307 1721.07 521.307 1721.1C522.341 1721.13 523.291 1721.15 524.157 1721.15C524.991 1721.15 526.024 1721.15 527.257 1721.15C528.491 1721.15 529.824 1721.15 531.257 1721.15C532.724 1721.15 534.224 1721.15 535.757 1721.15C537.324 1721.15 538.874 1721.15 540.407 1721.15C541.941 1721.15 543.391 1721.15 544.757 1721.15C546.124 1721.15 547.341 1721.15 548.407 1721.15C549.507 1721.15 550.374 1721.15 551.007 1721.15C552.174 1721.15 553.274 1721.12 554.307 1721.05C555.341 1720.95 556.191 1720.88 556.857 1720.85V1728.7C556.291 1728.67 555.441 1728.62 554.307 1728.55C553.174 1728.48 552.074 1728.45 551.007 1728.45C550.374 1728.45 549.507 1728.45 548.407 1728.45C547.307 1728.45 546.074 1728.45 544.707 1728.45C543.341 1728.45 541.891 1728.45 540.357 1728.45C538.857 1728.45 537.324 1728.45 535.757 1728.45C534.191 1728.45 532.674 1728.45 531.207 1728.45C529.774 1728.45 528.441 1728.45 527.207 1728.45C526.007 1728.45 524.991 1728.45 524.157 1728.45C522.724 1728.45 521.257 1728.48 519.757 1728.55C518.257 1728.58 517.041 1728.63 516.107 1728.7V1720.85Z" fill="black"/>
<path d="M469.357 1708.5C470.29 1708.6 471.34 1708.68 472.507 1708.75C473.674 1708.78 474.674 1708.8 475.507 1708.8H500.707C501.44 1708.8 502.24 1708.8 503.107 1708.8C504.007 1708.77 504.674 1708.73 505.107 1708.7C505.074 1709.27 505.04 1710 505.007 1710.9C504.974 1711.77 504.957 1712.57 504.957 1713.3V1739.2C504.957 1740.07 504.974 1741.08 505.007 1742.25C505.074 1743.42 505.124 1744.37 505.157 1745.1H497.907C497.94 1744.37 497.957 1743.57 497.957 1742.7C497.99 1741.8 498.007 1740.9 498.007 1740V1715.25H475.557C474.49 1715.25 473.357 1715.27 472.157 1715.3C470.99 1715.33 470.057 1715.38 469.357 1715.45V1708.5ZM468.707 1735.65C469.574 1735.72 470.54 1735.78 471.607 1735.85C472.707 1735.92 473.824 1735.95 474.957 1735.95H501.957V1742.5H475.157C474.19 1742.5 473.074 1742.53 471.807 1742.6C470.574 1742.67 469.54 1742.73 468.707 1742.8V1735.65Z" fill="black"/>
<path d="M437.634 1742.9C437.734 1742.4 437.818 1741.83 437.884 1741.2C437.984 1740.53 438.034 1739.87 438.034 1739.2C438.034 1738.83 438.034 1738.1 438.034 1737C438.034 1735.9 438.034 1734.57 438.034 1733C438.034 1731.43 438.034 1729.75 438.034 1727.95C438.034 1726.12 438.034 1724.27 438.034 1722.4C438.034 1720.53 438.034 1718.78 438.034 1717.15C438.034 1715.48 438.034 1714.03 438.034 1712.8C438.034 1711.53 438.034 1710.62 438.034 1710.05C438.034 1708.92 437.968 1707.93 437.834 1707.1C437.734 1706.27 437.668 1705.82 437.634 1705.75H445.084C445.051 1705.82 444.984 1706.28 444.884 1707.15C444.784 1707.98 444.734 1708.97 444.734 1710.1C444.734 1710.67 444.734 1711.52 444.734 1712.65C444.734 1713.75 444.734 1715.03 444.734 1716.5C444.734 1717.93 444.734 1719.47 444.734 1721.1C444.734 1722.73 444.734 1724.35 444.734 1725.95C444.734 1727.52 444.734 1729.02 444.734 1730.45C444.734 1731.85 444.734 1733.05 444.734 1734.05C444.734 1735.05 444.734 1735.78 444.734 1736.25C446.101 1735.65 447.518 1734.83 448.984 1733.8C450.451 1732.77 451.884 1731.57 453.284 1730.2C454.718 1728.8 455.984 1727.3 457.084 1725.7L460.934 1731.2C459.568 1733 457.901 1734.77 455.934 1736.5C454.001 1738.23 452.001 1739.82 449.934 1741.25C447.868 1742.68 445.884 1743.88 443.984 1744.85C443.451 1745.15 443.018 1745.42 442.684 1745.65C442.351 1745.92 442.068 1746.15 441.834 1746.35L437.634 1742.9ZM414.484 1742.15C416.684 1740.62 418.484 1738.77 419.884 1736.6C421.284 1734.43 422.318 1732.3 422.984 1730.2C423.351 1729.1 423.618 1727.75 423.784 1726.15C423.984 1724.52 424.134 1722.78 424.234 1720.95C424.334 1719.08 424.384 1717.25 424.384 1715.45C424.418 1713.62 424.434 1711.93 424.434 1710.4C424.434 1709.4 424.384 1708.55 424.284 1707.85C424.218 1707.12 424.118 1706.43 423.984 1705.8H431.334C431.301 1705.87 431.251 1706.15 431.184 1706.65C431.151 1707.12 431.101 1707.68 431.034 1708.35C431.001 1708.98 430.984 1709.65 430.984 1710.35C430.984 1711.82 430.968 1713.53 430.934 1715.5C430.901 1717.43 430.834 1719.42 430.734 1721.45C430.634 1723.48 430.484 1725.42 430.284 1727.25C430.084 1729.05 429.818 1730.58 429.484 1731.85C428.718 1734.68 427.568 1737.32 426.034 1739.75C424.534 1742.15 422.718 1744.3 420.584 1746.2L414.484 1742.15Z" fill="black"/>
<path d="M410.723 1710.15C410.456 1710.48 410.123 1710.92 409.723 1711.45C409.323 1711.95 409.006 1712.38 408.773 1712.75C408.006 1714.05 406.99 1715.55 405.723 1717.25C404.456 1718.92 403.056 1720.58 401.523 1722.25C399.99 1723.88 398.406 1725.28 396.773 1726.45L391.573 1722.3C392.573 1721.7 393.556 1721 394.523 1720.2C395.49 1719.4 396.373 1718.57 397.173 1717.7C398.006 1716.8 398.723 1715.95 399.323 1715.15C399.956 1714.35 400.44 1713.63 400.773 1713C400.34 1713 399.606 1713 398.573 1713C397.54 1713 396.306 1713 394.873 1713C393.44 1713 391.89 1713 390.223 1713C388.59 1713 386.956 1713 385.323 1713C383.69 1713 382.14 1713 380.673 1713C379.24 1713 377.99 1713 376.923 1713C375.89 1713 375.156 1713 374.723 1713C373.69 1713 372.706 1713.03 371.773 1713.1C370.84 1713.17 369.79 1713.25 368.623 1713.35V1706.4C369.59 1706.53 370.59 1706.65 371.623 1706.75C372.656 1706.85 373.69 1706.9 374.723 1706.9C375.156 1706.9 375.923 1706.9 377.023 1706.9C378.123 1706.9 379.423 1706.9 380.923 1706.9C382.456 1706.9 384.073 1706.9 385.773 1706.9C387.506 1706.9 389.223 1706.9 390.923 1706.9C392.656 1706.9 394.256 1706.9 395.723 1706.9C397.223 1706.9 398.49 1706.9 399.523 1706.9C400.59 1706.9 401.306 1706.9 401.673 1706.9C402.14 1706.9 402.706 1706.88 403.373 1706.85C404.04 1706.82 404.69 1706.77 405.323 1706.7C405.99 1706.63 406.473 1706.55 406.773 1706.45L410.723 1710.15ZM390.323 1716.9C390.323 1719.37 390.273 1721.75 390.173 1724.05C390.073 1726.35 389.79 1728.57 389.323 1730.7C388.89 1732.8 388.173 1734.8 387.173 1736.7C386.206 1738.6 384.856 1740.4 383.123 1742.1C381.39 1743.8 379.173 1745.37 376.473 1746.8L370.623 1742.05C371.423 1741.78 372.273 1741.43 373.173 1741C374.073 1740.53 374.973 1739.97 375.873 1739.3C377.473 1738.2 378.756 1737.03 379.723 1735.8C380.723 1734.57 381.49 1733.23 382.023 1731.8C382.556 1730.33 382.923 1728.75 383.123 1727.05C383.323 1725.32 383.423 1723.43 383.423 1721.4C383.423 1720.63 383.406 1719.9 383.373 1719.2C383.34 1718.47 383.24 1717.7 383.073 1716.9H390.323Z" fill="black"/>
<path d="M327.792 1744L324.142 1740.3L337.992 1726.35L324.042 1712.35L327.742 1708.6L341.742 1722.55L355.792 1708.65L359.542 1712.3L345.492 1726.35L359.342 1740.4L355.692 1744.1L341.742 1730.1L327.792 1744ZM326.842 1730.15C325.809 1730.15 324.909 1729.87 324.142 1729.3C323.376 1728.73 322.992 1727.77 322.992 1726.4C322.992 1725.03 323.376 1724.07 324.142 1723.5C324.909 1722.9 325.809 1722.6 326.842 1722.6C327.909 1722.6 328.826 1722.9 329.592 1723.5C330.359 1724.07 330.742 1725.03 330.742 1726.4C330.742 1727.77 330.359 1728.73 329.592 1729.3C328.826 1729.87 327.909 1730.15 326.842 1730.15ZM341.742 1745.15C340.842 1745.15 340.109 1744.97 339.542 1744.6C339.009 1744.27 338.609 1743.8 338.342 1743.2C338.109 1742.6 337.992 1741.95 337.992 1741.25C337.992 1740.55 338.109 1739.92 338.342 1739.35C338.609 1738.75 339.009 1738.28 339.542 1737.95C340.109 1737.58 340.842 1737.4 341.742 1737.4C342.642 1737.4 343.376 1737.58 343.942 1737.95C344.509 1738.28 344.909 1738.75 345.142 1739.35C345.409 1739.92 345.542 1740.55 345.542 1741.25C345.542 1741.95 345.409 1742.6 345.142 1743.2C344.909 1743.8 344.509 1744.27 343.942 1744.6C343.376 1744.97 342.642 1745.15 341.742 1745.15ZM341.742 1715.4C340.842 1715.4 340.109 1715.23 339.542 1714.9C339.009 1714.53 338.609 1714.05 338.342 1713.45C338.109 1712.85 337.992 1712.2 337.992 1711.5C337.992 1710.8 338.109 1710.17 338.342 1709.6C338.609 1709 339.009 1708.53 339.542 1708.2C340.109 1707.83 340.842 1707.65 341.742 1707.65C342.642 1707.65 343.376 1707.83 343.942 1708.2C344.509 1708.53 344.909 1709 345.142 1709.6C345.409 1710.17 345.542 1710.8 345.542 1711.5C345.542 1712.2 345.409 1712.85 345.142 1713.45C344.909 1714.05 344.509 1714.53 343.942 1714.9C343.376 1715.23 342.642 1715.4 341.742 1715.4ZM356.592 1730.15C355.559 1730.15 354.659 1729.87 353.892 1729.3C353.126 1728.73 352.742 1727.77 352.742 1726.4C352.742 1725.03 353.126 1724.07 353.892 1723.5C354.659 1722.9 355.559 1722.6 356.592 1722.6C357.659 1722.6 358.576 1722.9 359.342 1723.5C360.109 1724.07 360.492 1725.03 360.492 1726.4C360.492 1727.77 360.109 1728.73 359.342 1729.3C358.576 1729.87 357.659 1730.15 356.592 1730.15Z" fill="black"/>
<path d="M803.986 1158.52C804.791 1158.66 805.738 1158.75 806.826 1158.8C807.915 1158.85 808.838 1158.87 809.595 1158.87H842.113C842.965 1158.87 843.888 1158.85 844.882 1158.8C845.876 1158.75 846.799 1158.66 847.651 1158.52V1167.46C846.752 1167.37 845.805 1167.3 844.811 1167.25C843.817 1167.2 842.918 1167.18 842.113 1167.18H809.595C808.838 1167.18 807.915 1167.2 806.826 1167.25C805.738 1167.3 804.791 1167.37 803.986 1167.46V1158.52ZM820.671 1194.87V1163.41H829.972V1194.87H820.671ZM800.365 1189.61C801.265 1189.71 802.235 1189.8 803.276 1189.9C804.318 1189.99 805.288 1190.04 806.187 1190.04H845.45C846.444 1190.04 847.391 1189.99 848.29 1189.9C849.237 1189.76 850.089 1189.66 850.846 1189.61V1198.91C850.089 1198.77 849.142 1198.68 848.006 1198.63C846.918 1198.58 846.066 1198.56 845.45 1198.56H806.187C805.335 1198.56 804.389 1198.58 803.347 1198.63C802.306 1198.68 801.312 1198.77 800.365 1198.91V1189.61Z" fill="black"/>
<path d="M782.119 1149.72C781.788 1150.38 781.48 1151.18 781.196 1152.13C780.96 1153.03 780.747 1153.88 780.557 1154.69C780.179 1156.39 779.682 1158.33 779.066 1160.51C778.451 1162.68 777.717 1164.93 776.865 1167.25C776.013 1169.57 774.996 1171.87 773.812 1174.14C772.676 1176.41 771.375 1178.54 769.907 1180.53C767.777 1183.32 765.292 1185.97 762.452 1188.48C759.612 1190.94 756.441 1193.17 752.938 1195.16C749.436 1197.1 745.578 1198.75 741.365 1200.13L733.626 1191.68C738.312 1190.54 742.359 1189.14 745.767 1187.49C749.223 1185.78 752.228 1183.89 754.784 1181.81C757.34 1179.68 759.565 1177.41 761.458 1174.99C763.02 1173 764.346 1170.85 765.434 1168.53C766.57 1166.21 767.493 1163.87 768.203 1161.5C768.961 1159.13 769.481 1156.96 769.765 1154.97C769.055 1154.97 767.872 1154.97 766.215 1154.97C764.606 1154.97 762.689 1154.97 760.464 1154.97C758.287 1154.97 755.991 1154.97 753.577 1154.97C751.211 1154.97 748.915 1154.97 746.69 1154.97C744.466 1154.97 742.454 1154.97 740.655 1154.97C738.904 1154.97 737.579 1154.97 736.679 1154.97C735.07 1154.97 733.484 1154.99 731.922 1155.04C730.408 1155.09 729.177 1155.16 728.23 1155.25V1145.24C728.988 1145.29 729.863 1145.36 730.857 1145.46C731.851 1145.55 732.893 1145.64 733.981 1145.74C735.07 1145.79 735.993 1145.81 736.75 1145.81C737.46 1145.81 738.525 1145.81 739.945 1145.81C741.365 1145.81 742.998 1145.81 744.844 1145.81C746.69 1145.81 748.607 1145.81 750.595 1145.81C752.631 1145.81 754.642 1145.81 756.63 1145.81C758.618 1145.81 760.488 1145.81 762.239 1145.81C763.991 1145.81 765.505 1145.81 766.783 1145.81C768.109 1145.81 769.032 1145.81 769.552 1145.81C770.262 1145.81 771.138 1145.79 772.179 1145.74C773.221 1145.64 774.191 1145.48 775.09 1145.24L782.119 1149.72Z" fill="black"/>
<path d="M685.772 1140.05C685.677 1140.86 685.582 1141.9 685.488 1143.18C685.44 1144.46 685.393 1145.52 685.346 1146.37C685.156 1153.43 684.565 1159.7 683.571 1165.19C682.577 1170.63 681.157 1175.46 679.311 1179.67C677.465 1183.89 675.122 1187.67 672.282 1191.03C669.442 1194.35 666.057 1197.4 662.129 1200.19L653.893 1193.52C655.36 1192.67 656.922 1191.67 658.579 1190.54C660.283 1189.35 661.821 1188.03 663.194 1186.56C665.513 1184.29 667.477 1181.8 669.087 1179.1C670.696 1176.36 671.974 1173.38 672.921 1170.16C673.915 1166.89 674.648 1163.32 675.122 1159.44C675.595 1155.56 675.832 1151.27 675.832 1146.59C675.832 1146.07 675.808 1145.4 675.761 1144.6C675.713 1143.75 675.642 1142.92 675.548 1142.11C675.5 1141.31 675.429 1140.62 675.335 1140.05H685.772ZM709.912 1155.25C709.817 1155.82 709.699 1156.48 709.557 1157.24C709.462 1157.99 709.415 1158.59 709.415 1159.01C709.367 1160.53 709.273 1162.47 709.131 1164.83C709.036 1167.2 708.87 1169.76 708.634 1172.5C708.444 1175.2 708.184 1177.9 707.853 1180.6C707.569 1183.29 707.214 1185.8 706.788 1188.12C706.362 1190.39 705.841 1192.26 705.226 1193.73C704.468 1195.53 703.356 1196.88 701.889 1197.78C700.469 1198.72 698.528 1199.2 696.067 1199.2C694.031 1199.2 691.996 1199.13 689.961 1198.98C687.925 1198.89 686.032 1198.77 684.281 1198.63L683.216 1189.12C684.967 1189.45 686.718 1189.71 688.47 1189.9C690.221 1190.04 691.783 1190.11 693.156 1190.11C694.339 1190.11 695.215 1189.92 695.783 1189.54C696.351 1189.12 696.824 1188.48 697.203 1187.62C697.581 1186.68 697.936 1185.42 698.268 1183.86C698.599 1182.3 698.883 1180.55 699.12 1178.61C699.356 1176.67 699.546 1174.66 699.688 1172.57C699.877 1170.49 699.995 1168.48 700.043 1166.54C700.137 1164.55 700.185 1162.8 700.185 1161.28H665.537C664.353 1161.28 662.886 1161.31 661.135 1161.35C659.383 1161.35 657.727 1161.43 656.165 1161.57V1152.27C657.679 1152.41 659.289 1152.53 660.993 1152.62C662.697 1152.72 664.211 1152.76 665.537 1152.76H698.41C699.309 1152.76 700.208 1152.72 701.108 1152.62C702.054 1152.53 702.93 1152.41 703.735 1152.27L709.912 1155.25Z" fill="black"/>
<path d="M631.529 1137.93C632.144 1138.83 632.807 1139.89 633.517 1141.13C634.274 1142.31 634.984 1143.49 635.647 1144.68C636.309 1145.86 636.83 1146.85 637.209 1147.66L631.458 1150.07C630.748 1148.65 629.872 1147.02 628.831 1145.17C627.837 1143.33 626.866 1141.69 625.92 1140.27L631.529 1137.93ZM640.475 1135.45C641.137 1136.34 641.824 1137.39 642.534 1138.57C643.244 1139.75 643.93 1140.94 644.593 1142.12C645.303 1143.26 645.847 1144.25 646.226 1145.1L640.617 1147.52C639.859 1146.05 638.96 1144.39 637.919 1142.55C636.877 1140.7 635.86 1139.11 634.866 1137.79L640.475 1135.45ZM634.795 1150.57C634.511 1150.99 634.085 1151.66 633.517 1152.56C632.996 1153.46 632.594 1154.28 632.31 1155.04C631.316 1157.27 630.085 1159.75 628.618 1162.5C627.198 1165.24 625.565 1168.01 623.719 1170.8C621.92 1173.6 620.003 1176.18 617.968 1178.54C615.317 1181.57 612.382 1184.53 609.164 1187.42C605.992 1190.3 602.632 1192.98 599.082 1195.44C595.579 1197.85 591.982 1199.94 588.29 1201.69L580.977 1194.02C584.811 1192.55 588.526 1190.71 592.124 1188.48C595.721 1186.26 599.058 1183.84 602.135 1181.24C605.211 1178.64 607.862 1176.1 610.087 1173.64C611.649 1171.89 613.116 1170 614.489 1167.96C615.909 1165.88 617.163 1163.85 618.252 1161.86C619.34 1159.82 620.145 1157.98 620.666 1156.32C620.192 1156.32 619.34 1156.32 618.11 1156.32C616.879 1156.32 615.435 1156.32 613.779 1156.32C612.169 1156.32 610.465 1156.32 608.667 1156.32C606.868 1156.32 605.14 1156.32 603.484 1156.32C601.874 1156.32 600.454 1156.32 599.224 1156.32C597.993 1156.32 597.117 1156.32 596.597 1156.32C595.603 1156.32 594.561 1156.34 593.473 1156.39C592.384 1156.44 591.343 1156.51 590.349 1156.6C589.402 1156.7 588.668 1156.75 588.148 1156.75V1146.66C588.858 1146.71 589.733 1146.78 590.775 1146.88C591.816 1146.97 592.857 1147.04 593.899 1147.09C594.987 1147.14 595.887 1147.16 596.597 1147.16C597.212 1147.16 598.182 1147.16 599.508 1147.16C600.833 1147.16 602.348 1147.16 604.052 1147.16C605.756 1147.16 607.507 1147.16 609.306 1147.16C611.152 1147.16 612.903 1147.16 614.56 1147.16C616.264 1147.16 617.731 1147.16 618.962 1147.16C620.192 1147.16 621.092 1147.16 621.66 1147.16C623.222 1147.16 624.642 1147.09 625.92 1146.95C627.245 1146.76 628.263 1146.54 628.973 1146.31L634.795 1150.57ZM618.891 1172.65C620.737 1174.12 622.701 1175.82 624.784 1177.76C626.866 1179.7 628.925 1181.71 630.961 1183.8C632.996 1185.88 634.866 1187.89 636.57 1189.83C638.321 1191.72 639.788 1193.38 640.972 1194.8L632.878 1201.9C631.126 1199.44 629.115 1196.91 626.843 1194.3C624.618 1191.7 622.251 1189.12 619.743 1186.57C617.281 1183.96 614.773 1181.5 612.217 1179.18L618.891 1172.65Z" fill="black"/>
<path d="M541.713 1195.44C541.855 1194.73 541.973 1193.93 542.068 1193.03C542.21 1192.08 542.281 1191.13 542.281 1190.19C542.281 1189.67 542.281 1188.62 542.281 1187.06C542.281 1185.5 542.281 1183.61 542.281 1181.38C542.281 1179.16 542.281 1176.77 542.281 1174.21C542.281 1171.61 542.281 1168.98 542.281 1166.33C542.281 1163.68 542.281 1161.19 542.281 1158.88C542.281 1156.51 542.281 1154.45 542.281 1152.7C542.281 1150.9 542.281 1149.6 542.281 1148.79C542.281 1147.18 542.186 1145.79 541.997 1144.6C541.855 1143.42 541.76 1142.78 541.713 1142.69H552.292C552.245 1142.78 552.15 1143.44 552.008 1144.68C551.866 1145.86 551.795 1147.26 551.795 1148.86C551.795 1149.67 551.795 1150.88 551.795 1152.49C551.795 1154.05 551.795 1155.87 551.795 1157.95C551.795 1159.99 551.795 1162.17 551.795 1164.48C551.795 1166.8 551.795 1169.1 551.795 1171.37C551.795 1173.6 551.795 1175.73 551.795 1177.76C551.795 1179.75 551.795 1181.45 551.795 1182.87C551.795 1184.29 551.795 1185.33 551.795 1186C553.736 1185.15 555.747 1183.99 557.83 1182.52C559.913 1181.05 561.948 1179.35 563.936 1177.41C565.971 1175.42 567.77 1173.29 569.332 1171.02L574.799 1178.83C572.858 1181.38 570.492 1183.89 567.699 1186.35C564.954 1188.81 562.114 1191.06 559.179 1193.1C556.244 1195.13 553.428 1196.84 550.73 1198.21C549.973 1198.64 549.357 1199.01 548.884 1199.35C548.411 1199.72 548.008 1200.06 547.677 1200.34L541.713 1195.44ZM508.84 1194.38C511.964 1192.2 514.52 1189.57 516.508 1186.49C518.496 1183.42 519.963 1180.39 520.91 1177.41C521.431 1175.84 521.809 1173.93 522.046 1171.66C522.33 1169.34 522.543 1166.87 522.685 1164.27C522.827 1161.62 522.898 1159.02 522.898 1156.46C522.945 1153.86 522.969 1151.47 522.969 1149.29C522.969 1147.87 522.898 1146.66 522.756 1145.67C522.661 1144.63 522.519 1143.66 522.33 1142.76H532.767C532.72 1142.85 532.649 1143.26 532.554 1143.97C532.507 1144.63 532.436 1145.43 532.341 1146.38C532.294 1147.28 532.27 1148.23 532.27 1149.22C532.27 1151.3 532.246 1153.74 532.199 1156.53C532.152 1159.28 532.057 1162.09 531.915 1164.98C531.773 1167.87 531.56 1170.61 531.276 1173.22C530.992 1175.77 530.613 1177.95 530.14 1179.75C529.051 1183.77 527.418 1187.51 525.241 1190.97C523.111 1194.38 520.531 1197.43 517.502 1200.13L508.84 1194.38Z" fill="black"/>
<path d="M459.567 1141.05C459.377 1142.14 459.235 1143.4 459.141 1144.82C459.093 1146.24 459.07 1147.44 459.07 1148.44C459.07 1149.15 459.07 1150.4 459.07 1152.2C459.07 1154 459.07 1156.11 459.07 1158.52C459.07 1160.89 459.07 1163.4 459.07 1166.05C459.07 1168.65 459.07 1171.18 459.07 1173.64C459.07 1176.06 459.07 1178.21 459.07 1180.1C459.07 1182 459.07 1183.39 459.07 1184.29C459.07 1185.81 459.425 1186.85 460.135 1187.42C460.892 1187.99 462.075 1188.44 463.685 1188.77C464.726 1188.91 465.957 1189.03 467.377 1189.12C468.797 1189.17 470.288 1189.19 471.85 1189.19C473.696 1189.19 475.731 1189.15 477.956 1189.05C480.228 1188.91 482.5 1188.74 484.772 1188.55C487.091 1188.36 489.268 1188.1 491.304 1187.77C493.386 1187.44 495.161 1187.09 496.629 1186.71V1197.14C494.404 1197.43 491.801 1197.67 488.819 1197.85C485.884 1198.09 482.878 1198.26 479.802 1198.35C476.772 1198.49 473.932 1198.56 471.282 1198.56C469.01 1198.56 466.832 1198.49 464.75 1198.35C462.667 1198.21 460.868 1198.02 459.354 1197.78C456.277 1197.22 453.887 1196.06 452.183 1194.3C450.479 1192.55 449.627 1190.16 449.627 1187.13C449.627 1185.76 449.627 1183.99 449.627 1181.81C449.627 1179.58 449.627 1177.15 449.627 1174.5C449.627 1171.8 449.627 1169.1 449.627 1166.4C449.627 1163.66 449.627 1161.08 449.627 1158.66C449.627 1156.2 449.627 1154.07 449.627 1152.27C449.627 1150.47 449.627 1149.2 449.627 1148.44C449.627 1147.73 449.603 1146.92 449.556 1146.02C449.508 1145.13 449.437 1144.23 449.343 1143.33C449.248 1142.38 449.153 1141.62 449.059 1141.05H459.567ZM454.881 1162.85C457.153 1162.38 459.59 1161.79 462.194 1161.08C464.797 1160.37 467.4 1159.61 470.004 1158.8C472.654 1158 475.163 1157.17 477.53 1156.32C479.896 1155.47 482.003 1154.66 483.849 1153.91C485.127 1153.39 486.381 1152.82 487.612 1152.2C488.89 1151.59 490.215 1150.88 491.588 1150.07L495.422 1159.02C494.049 1159.59 492.605 1160.18 491.091 1160.79C489.623 1161.41 488.298 1161.95 487.115 1162.43C485.032 1163.23 482.642 1164.08 479.944 1164.98C477.246 1165.88 474.429 1166.78 471.495 1167.68C468.607 1168.53 465.72 1169.36 462.833 1170.16C459.993 1170.92 457.366 1171.58 454.952 1172.15L454.881 1162.85Z" fill="black"/>
<path d="M379.62 1192.25H418.741V1200.48H379.62V1192.25ZM375.786 1171.8H423.285V1203.25H414.126V1179.96H384.519V1203.32H375.786V1171.8ZM389.702 1136.16L399.429 1139.35C397.867 1142.24 396.187 1145.2 394.388 1148.23C392.637 1151.21 390.862 1154.05 389.063 1156.75C387.265 1159.4 385.561 1161.76 383.951 1163.85L376.283 1160.72C377.893 1158.54 379.526 1156.06 381.182 1153.27C382.839 1150.43 384.401 1147.52 385.868 1144.53C387.383 1141.55 388.661 1138.76 389.702 1136.16ZM406.742 1148.79L413.487 1143.82C415.854 1145.72 418.268 1147.85 420.729 1150.21C423.238 1152.53 425.534 1154.9 427.616 1157.31C429.746 1159.68 431.427 1161.88 432.657 1163.92L425.273 1169.6C424.137 1167.56 422.552 1165.34 420.516 1162.92C418.528 1160.46 416.327 1158 413.913 1155.54C411.499 1153.08 409.109 1150.83 406.742 1148.79ZM368.189 1156.82C371.787 1156.72 375.786 1156.6 380.188 1156.46C384.638 1156.27 389.3 1156.08 394.175 1155.89C399.098 1155.7 404.092 1155.52 409.156 1155.33C414.221 1155.14 419.191 1154.95 424.066 1154.76L423.711 1162.99C418.789 1163.28 413.819 1163.54 408.801 1163.78C403.784 1163.96 398.861 1164.18 394.033 1164.41C389.253 1164.6 384.709 1164.79 380.401 1164.98C376.094 1165.12 372.189 1165.27 368.686 1165.41L368.189 1156.82Z" fill="black"/>
<path d="M296.763 1146.8H360.379V1154.97H296.763V1146.8ZM327.932 1157.52H336.523V1203.32H327.932V1157.52ZM308.123 1165.69H352.072V1173.78H316.643V1197H308.123V1165.69ZM348.38 1165.69H356.971V1187.91C356.971 1189.85 356.711 1191.41 356.19 1192.6C355.717 1193.73 354.77 1194.61 353.35 1195.22C352.025 1195.84 350.368 1196.22 348.38 1196.36C346.439 1196.5 344.12 1196.57 341.422 1196.57C341.28 1195.39 340.949 1194.07 340.428 1192.6C339.907 1191.13 339.363 1189.88 338.795 1188.83C339.884 1188.88 340.972 1188.91 342.061 1188.91C343.197 1188.91 344.191 1188.91 345.043 1188.91C345.942 1188.91 346.558 1188.91 346.889 1188.91C347.457 1188.91 347.836 1188.83 348.025 1188.69C348.262 1188.5 348.38 1188.17 348.38 1187.7V1165.69ZM319.554 1136.51L328.358 1138.5C326.654 1144.32 324.477 1150.07 321.826 1155.75C319.223 1161.43 316.051 1166.73 312.312 1171.65C308.573 1176.53 304.171 1180.72 299.106 1184.22C298.775 1183.51 298.301 1182.71 297.686 1181.81C297.118 1180.86 296.526 1179.94 295.911 1179.04C295.296 1178.14 294.728 1177.38 294.207 1176.76C297.568 1174.59 300.597 1171.98 303.295 1168.95C306.04 1165.88 308.454 1162.54 310.537 1158.94C312.62 1155.35 314.418 1151.65 315.933 1147.87C317.448 1144.03 318.655 1140.25 319.554 1136.51Z" fill="black"/>
<path d="M238.827 1162H262.967V1169.17H238.827V1162ZM264.458 1162H289.947V1169.17H264.458V1162ZM247.773 1153.48H255.37V1203.25H247.773V1153.48ZM272.197 1153.48H279.865V1203.25H272.197V1153.48ZM246.992 1166.47L252.246 1167.89C251.489 1171.25 250.518 1174.61 249.335 1177.97C248.199 1181.33 246.897 1184.43 245.43 1187.27C243.963 1190.11 242.33 1192.5 240.531 1194.44C239.963 1193.54 239.135 1192.53 238.046 1191.39C237.005 1190.21 236.058 1189.28 235.206 1188.62C236.91 1187.01 238.519 1185.02 240.034 1182.66C241.549 1180.29 242.898 1177.71 244.081 1174.92C245.312 1172.08 246.282 1169.26 246.992 1166.47ZM271.842 1166.47L276.67 1167.89C275.865 1171.2 274.848 1174.54 273.617 1177.9C272.386 1181.21 271.014 1184.31 269.499 1187.2C268.032 1190.09 266.446 1192.53 264.742 1194.51C264.127 1193.66 263.298 1192.67 262.257 1191.53C261.216 1190.4 260.293 1189.52 259.488 1188.9C261.192 1187.3 262.825 1185.28 264.387 1182.87C265.949 1180.41 267.369 1177.76 268.647 1174.92C269.925 1172.08 270.99 1169.26 271.842 1166.47ZM281.072 1165.97C281.829 1168.67 282.776 1171.39 283.912 1174.14C285.095 1176.88 286.373 1179.46 287.746 1181.88C289.166 1184.29 290.586 1186.35 292.006 1188.05C291.154 1188.67 290.16 1189.54 289.024 1190.68C287.935 1191.82 287.06 1192.88 286.397 1193.87C285.024 1191.84 283.699 1189.38 282.421 1186.49C281.19 1183.56 280.054 1180.46 279.013 1177.19C277.972 1173.88 277.096 1170.63 276.386 1167.46L281.072 1165.97ZM254.305 1169.66C254.778 1170.04 255.488 1170.66 256.435 1171.51C257.382 1172.36 258.376 1173.28 259.417 1174.28C260.458 1175.27 261.405 1176.2 262.257 1177.05C263.156 1177.9 263.819 1178.49 264.245 1178.82L259.985 1185.64C259.417 1184.83 258.707 1183.89 257.855 1182.8C257.05 1181.71 256.151 1180.6 255.157 1179.46C254.21 1178.33 253.311 1177.26 252.459 1176.27C251.607 1175.27 250.897 1174.44 250.329 1173.78L254.305 1169.66ZM255.299 1136.65H264.174V1149.36H255.299V1136.65ZM233.786 1143.96H290.018V1152.06H233.786V1143.96ZM228.674 1143.96H237.194V1163.56C237.194 1166.4 237.099 1169.55 236.91 1173C236.768 1176.46 236.46 1179.98 235.987 1183.58C235.514 1187.18 234.827 1190.68 233.928 1194.09C233.076 1197.45 231.916 1200.5 230.449 1203.25C229.928 1202.73 229.218 1202.11 228.319 1201.4C227.42 1200.74 226.497 1200.08 225.55 1199.41C224.651 1198.8 223.87 1198.35 223.207 1198.06C224.485 1195.6 225.479 1192.9 226.189 1189.97C226.946 1187.03 227.491 1184.03 227.822 1180.95C228.201 1177.88 228.437 1174.85 228.532 1171.86C228.627 1168.88 228.674 1166.11 228.674 1163.56V1143.96Z" fill="black"/>
</svg>
