<svg width="1080" height="1920" viewBox="0 0 1080 1920" fill="none" xmlns="http://www.w3.org/2000/svg">
<path d="M1080 1920L1080 0L0 0L0 1920H1080Z" fill="#A5D4AD"/>
<path d="M1020 983.72V95C1020 75.67 1004.33 60 985 60H95.58C75.93 60 60 75.93 60 95.58V983.71C60 984.03 60.25 984.28 60.57 984.28C80.03 984.59 95.71 1000.46 95.71 1019.99C95.71 1039.52 80.03 1055.39 60.57 1055.7C60.25 1055.7 60 1055.96 60 1056.27V1824.99C60 1844.32 75.67 1859.99 95 1859.99H985C1004.33 1859.99 1020 1844.32 1020 1824.99V1056.27C1020 1055.95 1019.75 1055.7 1019.43 1055.7C999.97 1055.39 984.29 1039.52 984.29 1019.99C984.29 1000.46 999.97 984.59 1019.43 984.28C1019.75 984.28 1020 984.02 1020 983.71V983.72Z" fill="white"/>
<path d="M60.57 1055.71C60.25 1055.71 60 1055.97 60 1056.28V1825C60 1844.33 75.67 1860 95 1860H985C1004.33 1860 1020 1844.33 1020 1825V1056.28C1020 1055.96 1019.75 1055.71 1019.43 1055.71C999.97 1055.4 984.29 1039.53 984.29 1020H95.71C95.71 1039.53 80.03 1055.4 60.57 1055.71Z" fill="#E5F2E6"/>
<path d="M121 1020H160.9" stroke="black" stroke-width="6" stroke-miterlimit="10"/>
<path d="M187.51 1020H227.41" stroke="black" stroke-width="6" stroke-miterlimit="10"/>
<path d="M254.02 1020H293.92" stroke="black" stroke-width="6" stroke-miterlimit="10"/>
<path d="M320.52 1020H360.43" stroke="black" stroke-width="6" stroke-miterlimit="10"/>
<path d="M387.029 1020H426.939" stroke="black" stroke-width="6" stroke-miterlimit="10"/>
<path d="M453.539 1020H493.439" stroke="black" stroke-width="6" stroke-miterlimit="10"/>
<path d="M520.051 1020H559.951" stroke="black" stroke-width="6" stroke-miterlimit="10"/>
<path d="M586.561 1020H626.461" stroke="black" stroke-width="6" stroke-miterlimit="10"/>
<path d="M653.061 1020H692.971" stroke="black" stroke-width="6" stroke-miterlimit="10"/>
<path d="M719.57 1020H759.48" stroke="black" stroke-width="6" stroke-miterlimit="10"/>
<path d="M786.08 1020H825.98" stroke="black" stroke-width="6" stroke-miterlimit="10"/>
<path d="M852.59 1020H892.49" stroke="black" stroke-width="6" stroke-miterlimit="10"/>
<path d="M919.1 1020H959" stroke="black" stroke-width="6" stroke-miterlimit="10"/>
<path d="M1020 984.29V95C1020 75.67 1004.33 60 985 60H95C75.67 60 60 75.67 60 95V984.29C79.72 984.29 95.71 1000.28 95.71 1020C95.71 1039.72 79.72 1055.71 60 1055.71V1825C60 1844.33 75.67 1860 95 1860H985C1004.33 1860 1020 1844.33 1020 1825V1055.71C1000.28 1055.71 984.29 1039.72 984.29 1020C984.29 1000.28 1000.28 984.29 1020 984.29Z" stroke="black" stroke-width="6" stroke-miterlimit="10"/>
<path d="M912.649 525.666C908.779 525.666 905.539 522.646 905.319 518.736C900.589 435.626 868.789 358.856 813.369 296.746C810.669 293.716 810.929 289.066 813.959 286.366C816.989 283.666 821.629 283.926 824.339 286.956C881.999 351.576 915.069 431.436 919.999 517.896C920.229 521.946 917.129 525.426 913.079 525.656C912.939 525.656 912.799 525.666 912.659 525.666H912.649Z" fill="black"/>
<path d="M818.849 795.517C817.109 795.517 815.359 794.897 813.959 793.647C810.929 790.947 810.669 786.297 813.369 783.267C868.789 721.157 900.589 644.387 905.319 561.277C905.549 557.227 909.029 554.117 913.079 554.357C917.129 554.587 920.229 558.057 919.999 562.117C915.069 648.587 881.999 728.447 824.339 793.057C822.889 794.687 820.869 795.517 818.849 795.517Z" fill="black"/>
<path d="M167.36 525.666C167.22 525.666 167.08 525.666 166.94 525.656C162.89 525.426 159.79 521.956 160.02 517.896C164.95 431.426 198.02 351.566 255.68 286.956C258.38 283.926 263.03 283.666 266.06 286.366C269.09 289.066 269.35 293.716 266.65 296.746C211.23 358.856 179.43 435.616 174.7 518.736C174.48 522.646 171.24 525.666 167.37 525.666H167.36Z" fill="black"/>
<path d="M261.17 795.517C259.15 795.517 257.13 794.687 255.68 793.057C198.02 728.437 164.95 648.577 160.02 562.117C159.79 558.067 162.89 554.587 166.94 554.357C170.99 554.117 174.47 557.227 174.7 561.277C179.43 644.397 211.23 721.157 266.65 783.267C269.35 786.297 269.09 790.947 266.06 793.647C264.66 794.897 262.91 795.517 261.17 795.517Z" fill="black"/>
<path d="M788.169 268.511C786.429 268.511 784.679 267.891 783.279 266.641C721.169 211.221 644.399 179.421 561.289 174.691C557.239 174.461 554.139 170.991 554.369 166.931C554.599 162.881 558.039 159.791 562.129 160.011C648.599 164.941 728.459 198.011 793.069 255.671C796.099 258.371 796.359 263.021 793.659 266.051C792.209 267.681 790.189 268.511 788.169 268.511Z" fill="black"/>
<path d="M291.85 268.512C289.83 268.512 287.81 267.682 286.36 266.052C283.66 263.022 283.92 258.372 286.95 255.672C351.57 198.012 431.43 164.942 517.89 160.012C521.94 159.782 525.42 162.882 525.65 166.932C525.88 170.982 522.78 174.462 518.73 174.692C435.62 179.422 358.85 211.222 296.74 266.642C295.34 267.892 293.59 268.512 291.85 268.512Z" fill="black"/>
<path d="M561.69 920.006C557.82 920.006 554.58 916.986 554.36 913.076C554.13 909.026 557.23 905.546 561.28 905.316C644.4 900.586 721.16 868.786 783.27 813.366C786.3 810.666 790.95 810.926 793.65 813.956C796.35 816.986 796.09 821.636 793.06 824.336C728.44 881.996 648.58 915.066 562.12 919.996C561.98 919.996 561.84 920.006 561.7 920.006H561.69Z" fill="black"/>
<path d="M518.319 920.006C518.179 920.006 518.04 920.006 517.9 919.996C431.43 915.066 351.569 881.996 286.959 824.336C283.929 821.636 283.669 816.986 286.369 813.956C289.069 810.926 293.719 810.666 296.749 813.366C358.859 868.786 435.629 900.586 518.739 905.316C522.789 905.546 525.889 909.016 525.659 913.076C525.439 916.986 522.199 920.006 518.329 920.006H518.319Z" fill="black"/>
<path d="M875.38 526.189C872.37 526.189 869.85 523.839 869.68 520.799C865.41 445.789 836.71 376.519 786.7 320.459C784.6 318.099 784.8 314.489 787.16 312.389C789.51 310.289 793.13 310.489 795.23 312.849C846.98 370.849 876.68 442.539 881.1 520.149C881.28 523.299 878.87 525.999 875.72 526.179C875.61 526.179 875.5 526.179 875.39 526.179L875.38 526.189Z" fill="black"/>
<path d="M790.96 769.062C789.6 769.062 788.25 768.582 787.16 767.612C784.8 765.512 784.6 761.892 786.7 759.542C836.71 703.492 865.41 634.212 869.68 559.202C869.86 556.052 872.55 553.642 875.71 553.822C878.86 554.002 881.27 556.702 881.09 559.852C876.67 637.472 846.98 709.152 795.22 767.152C794.09 768.422 792.52 769.062 790.95 769.062H790.96Z" fill="black"/>
<path d="M204.63 526.187C204.52 526.187 204.41 526.187 204.3 526.187C201.15 526.007 198.74 523.307 198.92 520.157C203.34 442.537 233.03 370.857 284.79 312.857C286.89 310.497 290.51 310.297 292.86 312.397C295.22 314.497 295.42 318.117 293.32 320.467C243.31 376.517 214.61 445.797 210.34 520.807C210.17 523.847 207.65 526.197 204.64 526.197L204.63 526.187Z" fill="black"/>
<path d="M289.05 769.055C287.48 769.055 285.91 768.405 284.78 767.145C233.03 709.145 203.33 637.455 198.91 559.845C198.73 556.695 201.14 553.995 204.29 553.815C207.45 553.625 210.14 556.045 210.32 559.195C214.59 634.205 243.29 703.485 293.3 759.535C295.4 761.895 295.2 765.505 292.84 767.605C291.75 768.575 290.39 769.055 289.04 769.055H289.05Z" fill="black"/>
<path d="M763.35 294.756C761.99 294.756 760.64 294.276 759.55 293.306C703.5 243.296 634.22 214.596 559.21 210.326C556.06 210.146 553.65 207.446 553.83 204.296C554.01 201.146 556.7 198.736 559.86 198.916C637.48 203.336 709.16 233.026 767.16 284.786C769.52 286.886 769.72 290.506 767.62 292.856C766.49 294.126 764.92 294.766 763.35 294.766V294.756Z" fill="black"/>
<path d="M316.659 294.759C315.089 294.759 313.519 294.109 312.389 292.849C310.289 290.489 310.489 286.879 312.849 284.779C370.849 233.029 442.539 203.329 520.149 198.909C523.299 198.719 525.999 201.139 526.179 204.289C526.359 207.439 523.949 210.139 520.799 210.319C445.789 214.589 376.519 243.289 320.459 293.299C319.369 294.269 318.009 294.749 316.659 294.749V294.759Z" fill="black"/>
<path d="M559.53 881.102C556.52 881.102 554 878.752 553.83 875.712C553.65 872.562 556.06 869.862 559.21 869.682C634.22 865.412 703.49 836.712 759.55 786.702C761.9 784.602 765.52 784.802 767.62 787.162C769.72 789.522 769.52 793.132 767.16 795.232C709.16 846.982 637.47 876.682 559.86 881.102C559.75 881.102 559.64 881.102 559.53 881.102Z" fill="black"/>
<path d="M520.489 881.102C520.379 881.102 520.269 881.102 520.159 881.102C442.539 876.682 370.859 846.992 312.859 795.232C310.499 793.132 310.299 789.512 312.399 787.162C314.499 784.802 318.119 784.602 320.469 786.702C376.519 836.722 445.799 865.412 520.809 869.682C523.959 869.862 526.369 872.562 526.189 875.712C526.019 878.752 523.499 881.102 520.489 881.102Z" fill="black"/>
<path d="M841.849 526.514C839.699 526.514 837.899 524.834 837.779 522.664C833.919 454.914 807.999 392.344 762.829 341.714C761.329 340.034 761.479 337.454 763.159 335.944C764.839 334.444 767.419 334.584 768.929 336.274C815.349 388.294 841.979 452.584 845.939 522.194C846.069 524.444 844.349 526.374 842.089 526.504C842.009 526.504 841.929 526.504 841.849 526.504V526.514Z" fill="black"/>
<path d="M765.869 745.106C764.899 745.106 763.929 744.766 763.149 744.066C761.469 742.566 761.319 739.986 762.819 738.296C807.989 687.666 833.909 625.096 837.769 557.346C837.899 555.096 839.859 553.396 842.079 553.496C844.329 553.626 846.049 555.556 845.929 557.806C841.959 627.416 815.329 691.706 768.919 743.726C768.109 744.626 766.989 745.086 765.869 745.086V745.106Z" fill="black"/>
<path d="M238.17 526.516C238.09 526.516 238.01 526.516 237.93 526.516C235.68 526.386 233.96 524.456 234.08 522.206C238.05 452.596 264.68 388.306 311.09 336.286C312.59 334.606 315.17 334.456 316.86 335.956C318.54 337.456 318.69 340.036 317.19 341.726C272.02 392.356 246.1 454.926 242.24 522.676C242.12 524.846 240.32 526.526 238.17 526.526V526.516Z" fill="black"/>
<path d="M314.139 745.103C313.019 745.103 311.899 744.643 311.089 743.743C264.669 691.723 238.039 627.433 234.079 557.823C233.949 555.573 235.669 553.643 237.929 553.513C240.169 553.403 242.109 555.103 242.239 557.363C246.099 625.113 272.019 687.683 317.189 738.313C318.689 739.993 318.539 742.573 316.859 744.083C316.079 744.773 315.109 745.123 314.139 745.123V745.103Z" fill="black"/>
<path d="M741.018 318.225C740.048 318.225 739.078 317.885 738.298 317.185C687.668 272.015 625.098 246.095 557.348 242.235C555.098 242.105 553.378 240.175 553.498 237.925C553.628 235.675 555.548 233.965 557.808 234.075C627.418 238.045 691.708 264.675 743.738 311.085C745.418 312.585 745.568 315.165 744.068 316.855C743.258 317.755 742.138 318.215 741.018 318.215V318.225Z" fill="black"/>
<path d="M338.998 318.224C337.878 318.224 336.758 317.764 335.948 316.864C334.448 315.184 334.598 312.604 336.278 311.094C388.298 264.674 452.588 238.044 522.198 234.084C524.448 233.964 526.378 235.674 526.508 237.934C526.638 240.184 524.918 242.114 522.658 242.244C454.908 246.104 392.338 272.024 341.708 317.194C340.928 317.884 339.958 318.234 338.988 318.234L338.998 318.224Z" fill="black"/>
<path d="M557.569 845.933C555.419 845.933 553.619 844.253 553.499 842.083C553.369 839.833 555.089 837.903 557.349 837.773C625.099 833.913 687.669 807.993 738.299 762.823C739.979 761.323 742.559 761.473 744.069 763.153C745.569 764.833 745.419 767.413 743.739 768.923C691.719 815.343 627.429 841.973 557.809 845.933C557.729 845.933 557.649 845.933 557.569 845.933Z" fill="black"/>
<path d="M522.438 845.933C522.358 845.933 522.278 845.933 522.198 845.933C452.588 841.963 388.298 815.333 336.278 768.923C334.598 767.423 334.448 764.843 335.948 763.153C337.448 761.473 340.028 761.323 341.718 762.823C392.348 807.993 454.918 833.913 522.668 837.773C524.918 837.903 526.638 839.833 526.518 842.083C526.398 844.253 524.598 845.933 522.448 845.933H522.438Z" fill="black"/>
<path d="M320.65 546.174C320.65 544.604 321.79 543.274 323.34 543.024C324.64 542.814 326.27 542.524 327.98 542.124C332.4 541.084 337.59 539.114 343.41 536.274C349.29 533.404 354.92 529.414 359.17 523.674C366.34 513.974 367.86 501.404 368.19 496.894C368.26 495.974 367.53 495.194 366.6 495.194H317.09C315.33 495.194 313.91 493.764 313.91 492.014V470.694C313.91 468.934 315.34 467.514 317.09 467.514H367.07C367.95 467.514 368.66 466.804 368.66 465.924V447.184C368.66 446.304 367.95 445.594 367.07 445.594H328.62C326.86 445.594 325.44 444.164 325.44 442.414V421.094C325.44 419.334 326.87 417.914 328.62 417.914H428.96C430.72 417.914 432.14 419.344 432.14 421.094V442.414C432.14 444.174 430.71 445.594 428.96 445.594H398.52C397.64 445.594 396.93 446.304 396.93 447.184V465.924C396.93 466.804 397.64 467.514 398.52 467.514H438.58C440.34 467.514 441.76 468.944 441.76 470.694V492.014C441.76 493.774 440.33 495.194 438.58 495.194H398.39C397.54 495.194 396.84 495.864 396.8 496.714C396.57 501.754 395.15 518.444 386.18 532.854C380.73 541.614 373.65 548.264 366.54 553.544C359.41 558.844 352.26 562.934 345.27 565.704C338.24 568.494 332.34 570.444 327.75 571.514C326.66 571.764 325.49 571.994 324.4 572.184C322.45 572.534 320.66 571.034 320.66 569.044V546.164L320.65 546.174Z" fill="black"/>
<path d="M474.55 546.522C474.55 545.062 475.55 543.792 476.96 543.432C485.21 541.362 488.93 540.112 496.84 536.322C496.84 536.322 500.89 534.212 504.93 531.302C517.11 522.542 525.22 510.632 525.22 510.632C534.68 497.282 537.77 474.912 538.49 468.492C538.6 467.552 537.86 466.722 536.91 466.722H500.58C500.35 466.722 500.14 466.842 500.03 467.042L499.88 467.292C494.3 478.112 486.88 487.992 480.45 494.242C474 500.502 468.59 505.052 464.38 507.752L461.78 509.422C460.72 510.102 459.33 509.342 459.33 508.082V479.892C459.33 478.952 459.75 478.062 460.47 477.452C461.12 476.902 461.99 476.132 463.18 475.062C465.94 472.572 469.05 468.512 472.42 462.982C475.76 457.512 479.35 450.212 483.07 441.292C486.45 433.202 488.98 423.092 490.86 412.062C491.12 410.532 492.45 409.422 494 409.422H513.91C515.91 409.422 517.42 411.252 517.04 413.212C516.4 416.522 515.71 420.882 514.85 424.312C513.58 429.392 512.76 432.302 511.24 436.722C510.98 437.472 511.54 438.242 512.33 438.242H591.18C592.94 438.242 594.36 439.672 594.36 441.422V463.512C594.36 465.272 592.93 466.692 591.18 466.692H568.14C567.33 466.692 566.64 467.302 566.56 468.112C565.93 474.012 562.88 497.162 552.39 517.262C538.29 546.002 508.14 566.392 478.34 572.132C476.38 572.512 474.56 571.002 474.56 569.002V546.482L474.55 546.522Z" fill="black"/>
<path d="M675.9 411.035V468.875C675.9 469.755 676.61 470.465 677.49 470.465H764.52C765.4 470.465 766.11 469.755 766.11 468.875V411.035C766.11 410.155 765.4 409.445 764.52 409.445H677.49C676.61 409.445 675.9 410.155 675.9 411.035ZM738.46 452.745H702.3C701.42 452.745 700.71 452.035 700.71 451.155V446.875C700.71 445.995 701.42 445.285 702.3 445.285H738.46C739.34 445.285 740.05 445.995 740.05 446.875V451.155C740.05 452.035 739.34 452.745 738.46 452.745ZM738.46 434.455H702.3C701.42 434.455 700.71 433.745 700.71 432.865V428.755C700.71 427.875 701.42 427.165 702.3 427.165H738.46C739.34 427.165 740.05 427.875 740.05 428.755V432.865C740.05 433.745 739.34 434.455 738.46 434.455Z" fill="black"/>
<path d="M674.23 497.342H728.27C729.15 497.342 729.86 498.052 729.86 498.932V502.842C729.86 503.722 729.15 504.432 728.27 504.432H667.76C666 504.432 664.58 505.862 664.58 507.612V522.862C664.58 524.622 666.01 526.042 667.76 526.042H728.27C729.15 526.042 729.86 526.752 729.86 527.632V545.392C729.86 546.112 729.94 547.982 729.22 548.852C728.39 549.872 727.15 549.672 725.85 549.722C722.54 549.722 719.58 549.702 716.95 549.662C716.55 549.662 716.26 549.292 716.34 548.902C716.6 547.632 716.73 546.312 716.7 544.962C716.5 535.682 708.94 528.082 699.66 527.842C689.58 527.582 681.37 535.852 681.71 545.942C682.02 555.292 689.79 562.812 699.15 562.842C704.04 562.852 708.46 560.862 711.64 557.642C711.98 557.302 712.55 557.432 712.7 557.882C714.16 562.212 715.54 566.342 716.79 570.052C717.23 571.352 718.46 572.222 719.83 572.212C725.73 572.172 730.51 571.962 734.18 571.602C738.31 571.182 742.09 570.152 745.52 568.502C749.18 566.842 751.69 564.422 753.05 561.232C754.41 558.042 755.09 553.552 755.09 547.762V527.622C755.09 526.742 755.8 526.032 756.68 526.032H762.91C764.67 526.032 766.09 524.602 766.09 522.852V507.602C766.09 505.842 764.66 504.422 762.91 504.422H756.68C755.8 504.422 755.09 503.712 755.09 502.832V498.922C755.09 498.042 755.8 497.332 756.68 497.332H762.91C764.67 497.332 766.09 495.902 766.09 494.152V479.602C766.09 477.842 764.66 476.422 762.91 476.422H674.21C672.45 476.422 671.03 477.852 671.03 479.602V494.152C671.03 495.912 672.46 497.332 674.21 497.332L674.23 497.342Z" fill="black"/>
<path d="M668.83 409.445H650.26C649.4 409.445 648.58 409.795 647.98 410.405C635.23 423.355 618.29 434.575 612.13 438.485C610.78 439.335 610.28 441.065 610.95 442.505L620.7 463.575C621.63 465.575 624.26 466.055 625.83 464.505C646.12 444.465 664.45 419.805 670.12 411.965C670.88 410.915 670.12 409.445 668.83 409.445Z" fill="black"/>
<path d="M671.92 453.899V435.419C671.92 434.009 670.22 433.299 669.21 434.289C653.64 449.609 620.05 477.069 611.68 483.869C610.55 484.789 610.19 486.359 610.8 487.679L620.7 509.059C621.63 511.059 624.26 511.539 625.83 509.989C627.54 508.299 629.24 506.569 630.92 504.829C631.32 504.419 632.02 504.699 632.02 505.269V569.069C632.02 570.829 633.45 572.249 635.2 572.249H653.82C655.58 572.249 657 570.819 657 569.069V476.379C657 475.309 657.36 474.259 658.03 473.419C664.87 464.739 669.72 458.029 671.34 455.749C671.72 455.209 671.93 454.569 671.93 453.899H671.92Z" fill="black"/>
<path d="M653.271 623.338C640.851 623.338 634.811 628.288 634.811 638.478V655.608C634.811 665.678 640.851 670.568 653.271 670.568C659.141 670.568 663.481 669.488 666.561 667.278C670.001 664.808 671.741 660.878 671.741 655.598V638.468C671.741 628.278 665.701 623.328 653.281 623.328L653.271 623.338ZM646.091 639.308C646.091 633.938 648.841 632.918 653.271 632.918C657.701 632.918 660.451 633.958 660.451 639.308V654.688C660.451 659.958 657.601 660.988 653.271 660.988C648.941 660.988 646.091 659.988 646.091 654.688V639.308Z" fill="black"/>
<path d="M708.27 669.334H721.359L703.63 646.784L720.56 624.804H707.4L694.06 642.284V610.234H682.77V669.334H694.06V659.214L696.95 655.454L708.27 669.334Z" fill="black"/>
<path d="M754.82 624.805V653.295C754.82 659.045 751.88 660.895 746.83 660.895C743.56 660.895 740.28 660.355 740.28 653.885V624.815H729V656.775C729 665.745 733.71 670.485 742.62 670.485C749.3 670.485 753.88 666.865 755.58 662.805L757.39 669.345H766.11V624.815H754.83L754.82 624.805Z" fill="black"/>
<path d="M630.57 610.234H589.15V620.144V620.154H604.22V669.334H615.69V620.154H630.57V610.234Z" fill="black"/>
<path d="M459.689 669.334H472.779L455.049 646.784L471.979 624.804H458.819L445.479 642.284V610.234H434.199V669.334H445.479V659.214L448.369 655.454L459.689 669.334Z" fill="black"/>
<path d="M355.33 610.234H313.91V620.144V620.154H328.99V669.334H340.45V620.154H355.33V610.234Z" fill="black"/>
<path d="M421.8 658.896L421.2 659.046C417.62 659.966 413.29 660.896 409.41 660.896C404.86 660.896 401.69 658.826 401.69 652.836V640.976C401.69 634.906 404.86 632.826 409.41 632.826C413.36 632.826 417.88 633.706 421.23 634.406L421.81 634.526V625.196L421.5 625.126C417.69 624.236 412.05 623.336 407.53 623.336C402.01 623.336 397.97 624.406 395.17 626.596C391.97 629.096 390.42 633.856 390.42 639.346V654.646C390.42 664.776 396.02 670.566 407.54 670.566C411.41 670.566 417.27 669.496 421.53 668.316L421.82 668.236V658.886L421.8 658.896Z" fill="black"/>
<path d="M553.93 634.705V624.805H543.69V615.195H532.41V624.805H525.18V634.705H532.41V655.425C532.41 667.945 540.3 670.565 546.93 670.565C548.71 670.565 550.51 670.455 552.12 670.225V660.265C551.47 660.335 550.26 660.365 549.54 660.365C546.46 660.365 543.69 659.735 543.69 652.095V634.695H553.93V634.705Z" fill="black"/>
<path d="M489.741 650.742V650.562H515.171V641.482C515.171 635.572 513.551 630.243 510.361 627.343C507.421 624.673 502.781 623.312 497.261 623.312C485.081 623.312 478.461 629.223 478.461 639.593V654.453C478.461 664.703 483.841 670.552 496.321 670.552C500.981 670.552 506.291 669.563 511.971 668.403L512.361 668.323V659.052L511.711 659.203C507.141 660.253 504.621 661.143 500.291 661.143C494.081 661.143 489.741 658.623 489.741 652.203V650.722V650.742ZM489.741 639.722C489.741 634.072 493.801 632.742 497.171 632.742C500.541 632.742 504.071 634.072 504.071 639.722V643.232H489.741V642.713V639.722Z" fill="black"/>
<path d="M378.18 626.883H366.9V669.333H378.18V626.883Z" fill="black"/>
<path d="M372.54 622.224C376.422 622.224 379.57 619.077 379.57 615.194C379.57 611.312 376.422 608.164 372.54 608.164C368.657 608.164 365.51 611.312 365.51 615.194C365.51 619.077 368.657 622.224 372.54 622.224Z" fill="black"/>
<path d="M585.74 643.922H566.15V651.262H585.74V643.922Z" fill="black"/>
<path d="M724.9 1652.2C724.5 1652.8 723.9 1653.73 723.1 1655C722.366 1656.27 721.8 1657.43 721.4 1658.5C720 1661.63 718.266 1665.13 716.2 1669C714.2 1672.87 711.9 1676.77 709.3 1680.7C706.766 1684.57 704.066 1688.2 701.2 1691.6C697.466 1695.8 693.333 1699.97 688.8 1704.1C684.333 1708.17 679.6 1711.93 674.6 1715.4C669.666 1718.8 664.6 1721.73 659.4 1724.2L649.1 1713.4C654.5 1711.33 659.733 1708.73 664.8 1705.6C669.866 1702.47 674.566 1699.07 678.9 1695.4C683.233 1691.73 686.966 1688.17 690.1 1684.7C692.3 1682.17 694.366 1679.47 696.3 1676.6C698.3 1673.73 700.066 1670.9 701.6 1668.1C703.133 1665.23 704.266 1662.6 705 1660.2C704.333 1660.2 703.133 1660.2 701.4 1660.2C699.666 1660.2 697.633 1660.2 695.3 1660.2C693.033 1660.2 690.633 1660.2 688.1 1660.2C685.566 1660.2 683.133 1660.2 680.8 1660.2C678.533 1660.2 676.533 1660.2 674.8 1660.2C673.066 1660.2 671.833 1660.2 671.1 1660.2C669.7 1660.2 668.233 1660.27 666.7 1660.4C665.166 1660.47 663.7 1660.57 662.3 1660.7C660.966 1660.77 659.933 1660.83 659.2 1660.9V1646.7C660.2 1646.77 661.433 1646.87 662.9 1647C664.366 1647.13 665.833 1647.23 667.3 1647.3C668.833 1647.37 670.1 1647.4 671.1 1647.4C671.966 1647.4 673.333 1647.4 675.2 1647.4C677.066 1647.4 679.2 1647.4 681.6 1647.4C684 1647.4 686.466 1647.4 689 1647.4C691.6 1647.4 694.066 1647.4 696.4 1647.4C698.8 1647.4 700.866 1647.4 702.6 1647.4C704.333 1647.4 705.6 1647.4 706.4 1647.4C708.6 1647.4 710.6 1647.27 712.4 1647C714.266 1646.73 715.7 1646.43 716.7 1646.1L724.9 1652.2ZM702.5 1683.3C705.1 1685.37 707.866 1687.77 710.8 1690.5C713.733 1693.23 716.633 1696.07 719.5 1699C722.366 1701.93 725 1704.77 727.4 1707.5C729.866 1710.17 731.933 1712.5 733.6 1714.5L722.2 1724.4C719.733 1721 716.9 1717.47 713.7 1713.8C710.566 1710.13 707.233 1706.5 703.7 1702.9C700.233 1699.23 696.7 1695.77 693.1 1692.5L702.5 1683.3Z" fill="black"/>
<path d="M615.3 1639C616.167 1640.2 617.1 1641.63 618.1 1643.3C619.1 1644.97 620.034 1646.63 620.9 1648.3C621.834 1649.97 622.634 1651.43 623.3 1652.7L615.2 1656.1C614.2 1654.03 612.967 1651.7 611.5 1649.1C610.1 1646.43 608.734 1644.13 607.4 1642.2L615.3 1639ZM627.1 1634.5C628.034 1635.77 629 1637.23 630 1638.9C631 1640.57 631.967 1642.23 632.9 1643.9C633.9 1645.5 634.667 1646.9 635.2 1648.1L627.3 1651.5C626.234 1649.37 624.967 1647 623.5 1644.4C622.034 1641.8 620.6 1639.57 619.2 1637.7L627.1 1634.5ZM572.2 1643.3C571.934 1644.83 571.734 1646.6 571.6 1648.6C571.467 1650.6 571.4 1652.3 571.4 1653.7C571.4 1654.7 571.4 1656.47 571.4 1659C571.4 1661.47 571.4 1664.4 571.4 1667.8C571.4 1671.2 571.4 1674.77 571.4 1678.5C571.4 1682.17 571.4 1685.73 571.4 1689.2C571.4 1692.6 571.4 1695.63 571.4 1698.3C571.4 1700.97 571.4 1702.93 571.4 1704.2C571.4 1706.33 571.934 1707.8 573 1708.6C574.067 1709.4 575.7 1710.03 577.9 1710.5C579.434 1710.7 581.2 1710.87 583.2 1711C585.2 1711.07 587.3 1711.1 589.5 1711.1C592.1 1711.1 594.967 1711.03 598.1 1710.9C601.3 1710.7 604.5 1710.47 607.7 1710.2C610.967 1709.93 614.034 1709.57 616.9 1709.1C619.767 1708.63 622.234 1708.13 624.3 1707.6V1722.2C621.167 1722.67 617.534 1723.03 613.4 1723.3C609.267 1723.63 605.034 1723.87 600.7 1724C596.434 1724.2 592.434 1724.3 588.7 1724.3C585.434 1724.3 582.334 1724.2 579.4 1724C576.534 1723.8 574.034 1723.53 571.9 1723.2C567.567 1722.33 564.2 1720.7 561.8 1718.3C559.4 1715.83 558.2 1712.47 558.2 1708.2C558.2 1706.27 558.2 1703.77 558.2 1700.7C558.2 1697.57 558.2 1694.13 558.2 1690.4C558.2 1686.6 558.2 1682.8 558.2 1679C558.2 1675.13 558.2 1671.5 558.2 1668.1C558.2 1664.63 558.2 1661.63 558.2 1659.1C558.2 1656.57 558.2 1654.77 558.2 1653.7C558.2 1652.97 558.167 1651.97 558.1 1650.7C558.034 1649.43 557.934 1648.13 557.8 1646.8C557.734 1645.47 557.6 1644.3 557.4 1643.3H572.2ZM565.6 1674C568.8 1673.33 572.2 1672.53 575.8 1671.6C579.4 1670.6 583.034 1669.53 586.7 1668.4C590.367 1667.27 593.834 1666.13 597.1 1665C600.434 1663.8 603.4 1662.63 606 1661.5C607.8 1660.83 609.567 1660.07 611.3 1659.2C613.1 1658.33 614.967 1657.3 616.9 1656.1L622.3 1668.8C620.367 1669.53 618.334 1670.37 616.2 1671.3C614.134 1672.17 612.267 1672.9 610.6 1673.5C607.667 1674.63 604.3 1675.83 600.5 1677.1C596.767 1678.37 592.867 1679.63 588.8 1680.9C584.734 1682.1 580.7 1683.23 576.7 1684.3C572.767 1685.37 569.1 1686.3 565.7 1687.1L565.6 1674Z" fill="black"/>
<path d="M450.699 1673.7C451.899 1673.77 453.433 1673.87 455.299 1674C457.166 1674.07 459.099 1674.14 461.099 1674.2C463.166 1674.27 465.066 1674.3 466.799 1674.3C468.466 1674.3 470.533 1674.3 472.999 1674.3C475.466 1674.3 478.133 1674.3 480.999 1674.3C483.933 1674.3 486.933 1674.3 489.999 1674.3C493.133 1674.3 496.233 1674.3 499.299 1674.3C502.366 1674.3 505.266 1674.3 507.999 1674.3C510.733 1674.3 513.166 1674.3 515.299 1674.3C517.499 1674.3 519.233 1674.3 520.499 1674.3C522.833 1674.3 525.033 1674.24 527.099 1674.1C529.166 1673.9 530.866 1673.77 532.199 1673.7V1689.4C531.066 1689.34 529.366 1689.24 527.099 1689.1C524.833 1688.97 522.633 1688.9 520.499 1688.9C519.233 1688.9 517.499 1688.9 515.299 1688.9C513.099 1688.9 510.633 1688.9 507.899 1688.9C505.166 1688.9 502.266 1688.9 499.199 1688.9C496.199 1688.9 493.133 1688.9 489.999 1688.9C486.866 1688.9 483.833 1688.9 480.899 1688.9C478.033 1688.9 475.366 1688.9 472.899 1688.9C470.499 1688.9 468.466 1688.9 466.799 1688.9C463.933 1688.9 460.999 1688.97 457.999 1689.1C454.999 1689.17 452.566 1689.27 450.699 1689.4V1673.7Z" fill="black"/>
<path d="M416.299 1675.8C416.299 1682 415.833 1687.63 414.899 1692.7C414.033 1697.7 412.499 1702.27 410.299 1706.4C408.099 1710.47 405.033 1714.13 401.099 1717.4C397.166 1720.67 392.199 1723.63 386.199 1726.3L375.499 1716.2C380.299 1714.53 384.433 1712.67 387.899 1710.6C391.433 1708.53 394.333 1706 396.599 1703C398.866 1699.93 400.533 1696.27 401.599 1692C402.733 1687.67 403.299 1682.43 403.299 1676.3V1649.7C403.299 1647.63 403.233 1645.83 403.099 1644.3C402.966 1642.7 402.833 1641.4 402.699 1640.4H416.999C416.866 1641.4 416.699 1642.7 416.499 1644.3C416.366 1645.83 416.299 1647.63 416.299 1649.7V1675.8ZM380.199 1641.3C380.066 1642.23 379.933 1643.5 379.799 1645.1C379.666 1646.63 379.599 1648.37 379.599 1650.3V1686.1C379.599 1687.57 379.633 1689 379.699 1690.4C379.766 1691.73 379.799 1692.93 379.799 1694C379.866 1695 379.933 1695.87 379.999 1696.6H365.999C366.133 1695.87 366.233 1695 366.299 1694C366.366 1692.93 366.433 1691.73 366.499 1690.4C366.566 1689 366.599 1687.57 366.599 1686.1V1650.3C366.599 1648.83 366.533 1647.33 366.399 1645.8C366.333 1644.27 366.199 1642.77 365.999 1641.3H380.199ZM347.199 1659.3C347.866 1659.37 348.733 1659.5 349.799 1659.7C350.866 1659.83 352.099 1659.97 353.499 1660.1C354.899 1660.17 356.433 1660.2 358.099 1660.2H423.699C426.366 1660.2 428.533 1660.13 430.199 1660C431.866 1659.87 433.366 1659.7 434.699 1659.5V1672.8C433.633 1672.67 432.199 1672.6 430.399 1672.6C428.599 1672.53 426.366 1672.5 423.699 1672.5H358.099C356.433 1672.5 354.899 1672.53 353.499 1672.6C352.166 1672.6 350.966 1672.63 349.899 1672.7C348.899 1672.77 347.999 1672.83 347.199 1672.9V1659.3Z" fill="black"/>
<path d="M754.691 1527.8C754.158 1528.74 753.591 1529.87 752.991 1531.2C752.391 1532.47 751.858 1533.74 751.391 1535C750.525 1537.94 749.291 1541.3 747.691 1545.1C746.158 1548.84 744.225 1552.74 741.891 1556.8C739.625 1560.8 736.991 1564.67 733.991 1568.4C729.191 1574.14 723.591 1579.34 717.191 1584C710.858 1588.67 702.991 1592.87 693.591 1596.6L681.791 1586C688.591 1584 694.458 1581.7 699.391 1579.1C704.325 1576.5 708.625 1573.74 712.291 1570.8C715.958 1567.8 719.225 1564.64 722.091 1561.3C724.425 1558.7 726.558 1555.77 728.491 1552.5C730.425 1549.17 732.091 1545.87 733.491 1542.6C734.891 1539.34 735.825 1536.47 736.291 1534H702.591L707.191 1522.7C708.125 1522.7 709.558 1522.7 711.491 1522.7C713.491 1522.7 715.725 1522.7 718.191 1522.7C720.725 1522.7 723.191 1522.7 725.591 1522.7C728.058 1522.7 730.191 1522.7 731.991 1522.7C733.858 1522.7 735.125 1522.7 735.791 1522.7C737.325 1522.7 738.858 1522.6 740.391 1522.4C741.991 1522.2 743.358 1521.9 744.491 1521.5L754.691 1527.8ZM722.091 1512C720.891 1513.74 719.725 1515.6 718.591 1517.6C717.458 1519.6 716.591 1521.14 715.991 1522.2C713.725 1526.2 710.925 1530.37 707.591 1534.7C704.325 1538.97 700.591 1543.14 696.391 1547.2C692.191 1551.2 687.725 1554.87 682.991 1558.2L671.691 1549.9C676.091 1547.17 679.958 1544.37 683.291 1541.5C686.691 1538.64 689.625 1535.8 692.091 1533C694.558 1530.14 696.658 1527.4 698.391 1524.8C700.191 1522.14 701.725 1519.77 702.991 1517.7C703.791 1516.44 704.625 1514.8 705.491 1512.8C706.358 1510.74 707.025 1508.87 707.491 1507.2L722.091 1512Z" fill="black"/>
<path d="M588.891 1514C590.624 1515.2 592.657 1516.67 594.991 1518.4C597.324 1520.13 599.724 1522.03 602.191 1524.1C604.724 1526.1 607.091 1528.07 609.291 1530C611.491 1531.93 613.291 1533.67 614.691 1535.2L604.491 1545.6C603.224 1544.2 601.557 1542.53 599.491 1540.6C597.424 1538.67 595.191 1536.67 592.791 1534.6C590.391 1532.53 588.024 1530.57 585.691 1528.7C583.357 1526.83 581.291 1525.27 579.491 1524L588.891 1514ZM576.391 1580.6C581.591 1579.87 586.491 1578.83 591.091 1577.5C595.691 1576.17 599.957 1574.63 603.891 1572.9C607.824 1571.17 611.424 1569.37 614.691 1567.5C620.357 1564.1 625.557 1560.23 630.291 1555.9C635.024 1551.57 639.157 1547.07 642.691 1542.4C646.224 1537.67 649.024 1533.07 651.091 1528.6L658.891 1542.7C656.357 1547.17 653.224 1551.63 649.491 1556.1C645.824 1560.57 641.657 1564.83 636.991 1568.9C632.324 1572.9 627.291 1576.5 621.891 1579.7C618.491 1581.77 614.824 1583.73 610.891 1585.6C606.957 1587.4 602.791 1589 598.391 1590.4C594.057 1591.87 589.524 1593 584.791 1593.8L576.391 1580.6Z" fill="black"/>
<path d="M545.091 1512.4C545.025 1513.8 544.925 1515.33 544.791 1517C544.725 1518.6 544.691 1520.4 544.691 1522.4C544.691 1524.13 544.691 1526.23 544.691 1528.7C544.691 1531.17 544.691 1533.63 544.691 1536.1C544.691 1538.5 544.691 1540.53 544.691 1542.2C544.691 1547.53 544.425 1552.2 543.891 1556.2C543.425 1560.2 542.691 1563.7 541.691 1566.7C540.691 1569.7 539.458 1572.37 537.991 1574.7C536.591 1576.97 534.958 1579.13 533.091 1581.2C530.891 1583.6 528.358 1585.77 525.491 1587.7C522.625 1589.57 519.725 1591.13 516.791 1592.4C513.925 1593.73 511.258 1594.8 508.791 1595.6L498.291 1584.6C503.291 1583.47 507.791 1581.9 511.791 1579.9C515.858 1577.83 519.391 1575.2 522.391 1572C524.125 1570.07 525.525 1568.13 526.591 1566.2C527.658 1564.27 528.458 1562.13 528.991 1559.8C529.591 1557.4 529.991 1554.7 530.191 1551.7C530.458 1548.7 530.591 1545.27 530.591 1541.4C530.591 1539.67 530.591 1537.6 530.591 1535.2C530.591 1532.8 530.591 1530.43 530.591 1528.1C530.591 1525.77 530.591 1523.87 530.591 1522.4C530.591 1520.4 530.525 1518.6 530.391 1517C530.325 1515.33 530.191 1513.8 529.991 1512.4H545.091ZM498.691 1513.2C498.625 1514.4 498.558 1515.6 498.491 1516.8C498.425 1517.93 498.391 1519.3 498.391 1520.9C498.391 1521.63 498.391 1522.83 498.391 1524.5C498.391 1526.17 498.391 1528.13 498.391 1530.4C498.391 1532.6 498.391 1534.93 498.391 1537.4C498.391 1539.8 498.391 1542.13 498.391 1544.4C498.391 1546.67 498.391 1548.73 498.391 1550.6C498.391 1552.4 498.391 1553.77 498.391 1554.7C498.391 1555.97 498.425 1557.43 498.491 1559.1C498.558 1560.77 498.625 1562.2 498.691 1563.4H484.191C484.258 1562.47 484.358 1561.13 484.491 1559.4C484.625 1557.67 484.691 1556.07 484.691 1554.6C484.691 1553.67 484.691 1552.3 484.691 1550.5C484.691 1548.7 484.691 1546.67 484.691 1544.4C484.691 1542.07 484.691 1539.7 484.691 1537.3C484.691 1534.83 484.691 1532.5 484.691 1530.3C484.691 1528.1 484.691 1526.17 484.691 1524.5C484.691 1522.83 484.691 1521.63 484.691 1520.9C484.691 1519.97 484.658 1518.77 484.591 1517.3C484.525 1515.77 484.425 1514.4 484.291 1513.2H498.691Z" fill="black"/>
<path d="M432.992 1515.6C433.925 1516.93 434.958 1518.5 436.092 1520.3C437.225 1522.1 438.292 1523.9 439.292 1525.7C440.358 1527.5 441.292 1529.17 442.092 1530.7L433.392 1534.6C432.458 1532.47 431.525 1530.57 430.592 1528.9C429.725 1527.23 428.825 1525.63 427.892 1524.1C426.958 1522.5 425.858 1520.83 424.592 1519.1L432.992 1515.6ZM446.092 1510.1C447.092 1511.43 448.158 1512.97 449.292 1514.7C450.492 1516.43 451.625 1518.2 452.692 1520C453.825 1521.73 454.758 1523.37 455.492 1524.9L447.092 1529C446.025 1526.87 444.992 1525 443.992 1523.4C443.058 1521.73 442.092 1520.17 441.092 1518.7C440.158 1517.17 439.058 1515.6 437.792 1514L446.092 1510.1ZM393.092 1581.9C393.092 1580.57 393.092 1578.47 393.092 1575.6C393.092 1572.67 393.092 1569.3 393.092 1565.5C393.092 1561.63 393.092 1557.63 393.092 1553.5C393.092 1549.3 393.092 1545.27 393.092 1541.4C393.092 1537.47 393.092 1534 393.092 1531C393.092 1528 393.092 1525.8 393.092 1524.4C393.092 1522.6 392.992 1520.57 392.792 1518.3C392.658 1516.03 392.425 1514.03 392.092 1512.3H407.692C407.492 1514.03 407.292 1515.97 407.092 1518.1C406.892 1520.23 406.792 1522.33 406.792 1524.4C406.792 1526.2 406.792 1528.7 406.792 1531.9C406.792 1535.1 406.792 1538.67 406.792 1542.6C406.792 1546.47 406.792 1550.43 406.792 1554.5C406.792 1558.57 406.792 1562.47 406.792 1566.2C406.792 1569.87 406.792 1573.1 406.792 1575.9C406.792 1578.63 406.792 1580.63 406.792 1581.9C406.792 1582.77 406.825 1584.07 406.892 1585.8C407.025 1587.47 407.158 1589.2 407.292 1591C407.492 1592.8 407.658 1594.4 407.792 1595.8H392.092C392.425 1593.87 392.658 1591.57 392.792 1588.9C392.992 1586.17 393.092 1583.83 393.092 1581.9ZM403.892 1538.2C407.225 1539.07 410.925 1540.2 414.992 1541.6C419.125 1542.93 423.292 1544.4 427.492 1546C431.692 1547.53 435.658 1549.07 439.392 1550.6C443.125 1552.07 446.192 1553.4 448.592 1554.6L442.992 1568.5C440.125 1566.97 436.992 1565.47 433.592 1564C430.192 1562.53 426.725 1561.1 423.192 1559.7C419.725 1558.23 416.325 1556.9 412.992 1555.7C409.658 1554.5 406.625 1553.47 403.892 1552.6V1538.2Z" fill="black"/>
<path d="M348.61 1510C349.31 1510 349.81 1510.5 349.81 1511.2V1588.7C349.81 1589.4 349.31 1590 348.61 1590H340.61C339.91 1590 339.41 1589.4 339.41 1588.7V1520.2H326.91C325.81 1520.2 325.31 1519.1 325.81 1518.4L330.81 1510.5C331.01 1510.2 331.41 1510 331.81 1510H348.61Z" fill="black"/>
<path d="M754.504 1366.45C755.976 1366.64 757.624 1366.78 759.448 1366.88C761.304 1366.94 763.176 1366.98 765.064 1366.98C766.984 1366.94 768.825 1366.88 770.585 1366.78C772.345 1366.66 773.865 1366.53 775.145 1366.4V1372.59C773.673 1372.72 772.056 1372.83 770.296 1372.93C768.536 1372.99 766.728 1373.02 764.872 1373.02C763.016 1373.02 761.192 1372.99 759.4 1372.93C757.64 1372.83 756.008 1372.72 754.504 1372.59V1366.45ZM758.344 1386.94C758.152 1387.74 758.008 1388.46 757.912 1389.1C757.816 1389.71 757.768 1390.34 757.768 1390.98C757.768 1391.49 757.896 1391.97 758.152 1392.42C758.408 1392.83 758.793 1393.2 759.305 1393.52C759.849 1393.81 760.536 1394.03 761.368 1394.19C762.233 1394.32 763.272 1394.38 764.488 1394.38C766.632 1394.38 768.648 1394.29 770.536 1394.1C772.424 1393.87 774.424 1393.55 776.536 1393.14L776.632 1399.62C775.096 1399.9 773.321 1400.13 771.305 1400.29C769.321 1400.45 766.968 1400.53 764.248 1400.53C760.12 1400.53 757.049 1399.84 755.033 1398.46C753.017 1397.06 752.008 1395.12 752.008 1392.66C752.008 1391.73 752.073 1390.77 752.201 1389.78C752.361 1388.75 752.568 1387.63 752.824 1386.42L758.344 1386.94ZM747.112 1363.23C746.984 1363.55 746.84 1364 746.68 1364.58C746.52 1365.15 746.361 1365.71 746.201 1366.26C746.073 1366.8 745.976 1367.22 745.912 1367.5C745.816 1368.18 745.656 1369.06 745.432 1370.14C745.24 1371.2 745.033 1372.4 744.809 1373.74C744.617 1375.06 744.424 1376.4 744.232 1377.78C744.04 1379.15 743.881 1380.48 743.753 1381.76C743.657 1383.04 743.608 1384.16 743.608 1385.12C743.608 1385.57 743.608 1386.08 743.608 1386.66C743.64 1387.23 743.704 1387.76 743.8 1388.24C744.024 1387.7 744.264 1387.15 744.52 1386.61C744.776 1386.06 745.032 1385.52 745.288 1384.98C745.544 1384.4 745.768 1383.86 745.96 1383.34L748.936 1385.7C748.488 1387.01 748.024 1388.42 747.544 1389.92C747.096 1391.42 746.68 1392.85 746.296 1394.19C745.944 1395.5 745.672 1396.59 745.48 1397.46C745.416 1397.81 745.352 1398.21 745.288 1398.66C745.256 1399.1 745.24 1399.46 745.24 1399.71C745.24 1399.97 745.24 1400.27 745.24 1400.62C745.272 1401.01 745.304 1401.36 745.336 1401.68L739.768 1402.06C739.288 1400.4 738.857 1398.19 738.473 1395.44C738.089 1392.66 737.896 1389.63 737.896 1386.37C737.896 1384.58 737.976 1382.75 738.136 1380.9C738.296 1379.04 738.488 1377.26 738.712 1375.57C738.936 1373.84 739.144 1372.27 739.336 1370.86C739.56 1369.46 739.752 1368.29 739.912 1367.36C739.976 1366.69 740.056 1365.94 740.152 1365.1C740.28 1364.24 740.36 1363.42 740.392 1362.66L747.112 1363.23Z" fill="black"/>
<path d="M687.257 1366.93H730.793V1372.4H687.257V1366.93ZM703.289 1378.69H721.673V1384.11H703.289V1378.69ZM719.513 1378.69H725.465C725.465 1378.69 725.449 1378.85 725.417 1379.17C725.417 1379.46 725.417 1379.79 725.417 1380.18C725.417 1380.56 725.385 1380.9 725.321 1381.18C725.033 1385.57 724.713 1389.15 724.361 1391.94C724.009 1394.72 723.609 1396.9 723.161 1398.46C722.713 1400 722.169 1401.12 721.529 1401.82C720.793 1402.62 720.025 1403.17 719.225 1403.46C718.425 1403.74 717.465 1403.95 716.345 1404.08C715.417 1404.18 714.201 1404.21 712.697 1404.18C711.193 1404.18 709.641 1404.14 708.041 1404.08C708.009 1403.25 707.801 1402.29 707.417 1401.2C707.033 1400.14 706.553 1399.22 705.977 1398.42C707.641 1398.58 709.241 1398.67 710.777 1398.7C712.313 1398.74 713.417 1398.75 714.089 1398.75C714.633 1398.75 715.081 1398.72 715.433 1398.66C715.817 1398.56 716.153 1398.38 716.441 1398.13C716.953 1397.71 717.385 1396.8 717.737 1395.39C718.121 1393.98 718.457 1391.98 718.745 1389.39C719.033 1386.8 719.289 1383.52 719.513 1379.55V1378.69ZM701.129 1370.19H707.561C707.433 1372.75 707.225 1375.34 706.937 1377.97C706.681 1380.56 706.233 1383.14 705.593 1385.7C704.953 1388.22 704.025 1390.64 702.809 1392.94C701.593 1395.25 699.993 1397.39 698.009 1399.38C696.025 1401.36 693.513 1403.12 690.473 1404.66C690.057 1403.86 689.449 1402.99 688.649 1402.06C687.881 1401.14 687.129 1400.37 686.393 1399.76C689.177 1398.48 691.449 1396.99 693.209 1395.3C695.001 1393.57 696.409 1391.71 697.433 1389.73C698.457 1387.71 699.209 1385.62 699.689 1383.44C700.201 1381.26 700.537 1379.06 700.697 1376.82C700.889 1374.58 701.033 1372.37 701.129 1370.19ZM705.737 1359.01H711.737V1369.09H705.737V1359.01Z" fill="black"/>
<path d="M665.368 1367.12C665.048 1369.55 664.632 1372.14 664.12 1374.89C663.608 1377.65 662.92 1380.43 662.056 1383.25C661.128 1386.48 660.04 1389.26 658.792 1391.6C657.544 1393.93 656.168 1395.74 654.664 1397.02C653.192 1398.27 651.576 1398.89 649.816 1398.89C648.056 1398.89 646.424 1398.3 644.92 1397.12C643.448 1395.9 642.264 1394.24 641.368 1392.13C640.504 1390.01 640.072 1387.61 640.072 1384.93C640.072 1382.14 640.632 1379.52 641.752 1377.05C642.872 1374.59 644.424 1372.41 646.408 1370.53C648.424 1368.61 650.76 1367.1 653.416 1366.01C656.104 1364.93 659 1364.38 662.104 1364.38C665.08 1364.38 667.752 1364.86 670.12 1365.82C672.52 1366.78 674.568 1368.11 676.264 1369.81C677.96 1371.5 679.256 1373.49 680.152 1375.76C681.048 1378.03 681.496 1380.48 681.496 1383.1C681.496 1386.46 680.808 1389.47 679.432 1392.13C678.056 1394.78 676.008 1396.97 673.288 1398.7C670.6 1400.43 667.24 1401.61 663.208 1402.25L659.608 1396.54C660.536 1396.45 661.352 1396.33 662.056 1396.21C662.76 1396.08 663.432 1395.93 664.072 1395.77C665.608 1395.39 667.032 1394.85 668.344 1394.14C669.688 1393.41 670.856 1392.51 671.848 1391.45C672.84 1390.37 673.608 1389.1 674.152 1387.66C674.728 1386.22 675.016 1384.64 675.016 1382.91C675.016 1381.02 674.728 1379.29 674.152 1377.73C673.576 1376.16 672.728 1374.8 671.608 1373.65C670.488 1372.46 669.128 1371.57 667.528 1370.96C665.928 1370.32 664.088 1370 662.008 1370C659.448 1370 657.192 1370.46 655.24 1371.39C653.288 1372.29 651.64 1373.45 650.296 1374.89C648.952 1376.33 647.928 1377.89 647.224 1379.55C646.552 1381.21 646.216 1382.8 646.216 1384.3C646.216 1385.9 646.408 1387.25 646.792 1388.33C647.176 1389.39 647.64 1390.19 648.184 1390.73C648.76 1391.25 649.368 1391.5 650.008 1391.5C650.68 1391.5 651.336 1391.17 651.976 1390.49C652.648 1389.79 653.304 1388.73 653.944 1387.33C654.584 1385.92 655.224 1384.14 655.864 1382C656.6 1379.69 657.224 1377.23 657.736 1374.61C658.248 1371.98 658.616 1369.42 658.84 1366.93L665.368 1367.12Z" fill="black"/>
<path d="M622.216 1369.91L628.36 1371.73C626.344 1377.49 623.736 1382.48 620.536 1386.71C617.336 1390.93 613.528 1394.5 609.112 1397.41C604.728 1400.29 599.656 1402.64 593.896 1404.47C593.704 1403.96 593.384 1403.35 592.936 1402.64C592.488 1401.94 592.024 1401.24 591.544 1400.53C591.096 1399.86 590.664 1399.3 590.248 1398.85C595.784 1397.38 600.632 1395.38 604.792 1392.85C608.952 1390.32 612.472 1387.19 615.352 1383.44C618.232 1379.67 620.52 1375.16 622.216 1369.91ZM603.64 1370.29C605.272 1375.06 607.528 1379.33 610.408 1383.11C613.288 1386.88 616.84 1390.08 621.064 1392.71C625.32 1395.33 630.28 1397.28 635.944 1398.56C635.496 1399.01 635 1399.59 634.456 1400.29C633.944 1401 633.448 1401.7 632.968 1402.4C632.488 1403.14 632.104 1403.78 631.816 1404.32C625.832 1402.79 620.68 1400.55 616.36 1397.6C612.04 1394.63 608.376 1391.01 605.368 1386.76C602.392 1382.5 599.896 1377.59 597.88 1372.02L603.64 1370.29ZM591.112 1366.84H635.08V1372.45H591.112V1366.84ZM610.024 1359.2H615.928V1370.24H610.024V1359.2Z" fill="black"/>
<path d="M563.081 1363.57L566.825 1359.1C568.137 1359.71 569.513 1360.43 570.953 1361.26C572.425 1362.09 573.801 1362.94 575.081 1363.81C576.393 1364.67 577.465 1365.5 578.297 1366.3L574.121 1371.29C573.385 1370.46 572.393 1369.58 571.145 1368.65C569.929 1367.73 568.601 1366.81 567.161 1365.92C565.753 1365.02 564.393 1364.24 563.081 1363.57ZM559.865 1383.05H584.825V1388.53H559.865V1383.05ZM556.457 1397.26H587.609V1402.73H556.457V1397.26ZM558.185 1369.66H586.601V1375.13H558.185V1369.66ZM569.129 1371.49H575.129V1399.71H569.129V1371.49ZM545.513 1363.66L548.633 1359.44C549.689 1359.79 550.793 1360.25 551.945 1360.83C553.097 1361.37 554.201 1361.97 555.257 1362.61C556.313 1363.21 557.177 1363.81 557.849 1364.38L554.441 1369.09C553.833 1368.48 553.017 1367.85 551.993 1367.21C551.001 1366.54 549.929 1365.9 548.777 1365.29C547.657 1364.65 546.569 1364.11 545.513 1363.66ZM542.297 1376.77L545.273 1372.4C546.329 1372.75 547.449 1373.18 548.633 1373.69C549.817 1374.17 550.937 1374.72 551.993 1375.33C553.081 1375.9 553.977 1376.45 554.681 1376.96L551.465 1381.81C550.857 1381.23 550.025 1380.64 548.969 1380.03C547.913 1379.42 546.809 1378.83 545.657 1378.25C544.505 1377.65 543.385 1377.15 542.297 1376.77ZM544.361 1399.85C545.225 1398.64 546.185 1397.21 547.241 1395.58C548.297 1393.92 549.369 1392.16 550.457 1390.3C551.545 1388.41 552.553 1386.54 553.481 1384.69L557.705 1388.53C556.873 1390.19 555.977 1391.9 555.017 1393.66C554.089 1395.42 553.129 1397.15 552.137 1398.85C551.177 1400.54 550.217 1402.17 549.257 1403.74L544.361 1399.85Z" fill="black"/>
<path d="M502.407 1365.58C504.167 1365.8 506.151 1365.96 508.359 1366.06C510.567 1366.16 512.935 1366.2 515.463 1366.2C517.063 1366.2 518.695 1366.17 520.359 1366.11C522.023 1366.04 523.639 1365.96 525.207 1365.87C526.775 1365.74 528.167 1365.63 529.383 1365.53V1371.92C528.263 1371.98 526.903 1372.06 525.303 1372.16C523.735 1372.25 522.087 1372.33 520.359 1372.4C518.663 1372.46 517.047 1372.49 515.511 1372.49C513.015 1372.49 510.695 1372.44 508.551 1372.35C506.407 1372.22 504.359 1372.09 502.407 1371.96V1365.58ZM506.439 1385.93C506.215 1386.76 506.023 1387.58 505.863 1388.38C505.703 1389.18 505.623 1389.98 505.623 1390.78C505.623 1392.35 506.391 1393.63 507.927 1394.62C509.495 1395.58 512.007 1396.06 515.463 1396.06C517.639 1396.06 519.735 1395.98 521.751 1395.82C523.799 1395.66 525.719 1395.45 527.511 1395.2C529.303 1394.91 530.903 1394.57 532.311 1394.19L532.359 1400.91C530.983 1401.23 529.415 1401.52 527.655 1401.77C525.927 1402.03 524.055 1402.22 522.039 1402.35C520.055 1402.51 517.943 1402.59 515.703 1402.59C512.023 1402.59 508.967 1402.17 506.535 1401.34C504.103 1400.54 502.263 1399.39 501.015 1397.88C499.799 1396.35 499.191 1394.48 499.191 1392.27C499.191 1390.89 499.303 1389.63 499.527 1388.48C499.751 1387.29 499.943 1386.25 500.103 1385.36L506.439 1385.93ZM530.631 1360.64C531.047 1361.21 531.479 1361.9 531.927 1362.7C532.407 1363.5 532.871 1364.3 533.319 1365.1C533.767 1365.9 534.151 1366.6 534.471 1367.21L530.583 1368.89C530.103 1367.9 529.511 1366.76 528.807 1365.48C528.135 1364.2 527.479 1363.1 526.839 1362.17L530.631 1360.64ZM536.343 1358.48C536.759 1359.08 537.207 1359.79 537.687 1360.59C538.167 1361.39 538.631 1362.19 539.079 1362.99C539.559 1363.76 539.943 1364.43 540.231 1365L536.391 1366.64C535.879 1365.64 535.271 1364.52 534.567 1363.28C533.863 1362 533.175 1360.91 532.503 1360.01L536.343 1358.48Z" fill="black"/>
<path d="M468.328 1361.5C468.168 1362.37 467.912 1363.49 467.56 1364.86C467.208 1366.24 466.696 1367.79 466.024 1369.52C465.512 1370.7 464.92 1371.94 464.248 1373.22C463.608 1374.46 462.952 1375.58 462.28 1376.58C462.696 1376.38 463.224 1376.22 463.864 1376.1C464.504 1375.94 465.16 1375.82 465.832 1375.76C466.536 1375.66 467.16 1375.62 467.704 1375.62C469.72 1375.62 471.384 1376.19 472.696 1377.34C474.04 1378.5 474.712 1380.21 474.712 1382.48C474.712 1383.12 474.712 1383.9 474.712 1384.83C474.744 1385.76 474.776 1386.74 474.808 1387.76C474.84 1388.75 474.872 1389.73 474.904 1390.69C474.936 1391.65 474.952 1392.51 474.952 1393.28H469.192C469.256 1392.74 469.288 1392.1 469.288 1391.36C469.32 1390.59 469.336 1389.79 469.336 1388.96C469.368 1388.13 469.384 1387.33 469.384 1386.56C469.416 1385.76 469.432 1385.04 469.432 1384.4C469.432 1382.86 469.016 1381.81 468.184 1381.23C467.384 1380.62 466.488 1380.32 465.496 1380.32C464.152 1380.32 462.792 1380.66 461.416 1381.33C460.072 1381.97 458.936 1382.74 458.008 1383.63C457.304 1384.34 456.584 1385.12 455.848 1385.98C455.144 1386.85 454.376 1387.82 453.544 1388.91L448.408 1385.07C450.488 1383.15 452.28 1381.3 453.784 1379.5C455.32 1377.71 456.616 1375.94 457.672 1374.18C458.728 1372.42 459.592 1370.66 460.264 1368.9C460.744 1367.62 461.128 1366.29 461.416 1364.91C461.736 1363.5 461.928 1362.19 461.992 1360.98L468.328 1361.5ZM450.28 1365.92C451.496 1366.11 452.904 1366.26 454.504 1366.35C456.104 1366.45 457.512 1366.5 458.728 1366.5C460.84 1366.5 463.144 1366.45 465.64 1366.35C468.168 1366.26 470.728 1366.1 473.32 1365.87C475.912 1365.62 478.376 1365.3 480.712 1364.91L480.664 1370.48C478.968 1370.7 477.128 1370.91 475.144 1371.1C473.192 1371.26 471.192 1371.41 469.144 1371.54C467.128 1371.63 465.192 1371.71 463.336 1371.78C461.48 1371.81 459.832 1371.82 458.392 1371.82C457.752 1371.82 456.952 1371.82 455.992 1371.82C455.064 1371.79 454.104 1371.76 453.112 1371.73C452.12 1371.66 451.176 1371.6 450.28 1371.54V1365.92ZM488.296 1379.55C487.784 1379.71 487.176 1379.92 486.472 1380.18C485.8 1380.4 485.112 1380.64 484.408 1380.9C483.736 1381.12 483.128 1381.34 482.584 1381.57C481.048 1382.18 479.224 1382.91 477.112 1383.78C475.032 1384.64 472.856 1385.65 470.584 1386.8C469.144 1387.57 467.928 1388.32 466.936 1389.06C465.944 1389.79 465.192 1390.54 464.68 1391.31C464.168 1392.05 463.912 1392.86 463.912 1393.76C463.912 1394.43 464.056 1394.99 464.344 1395.44C464.632 1395.86 465.064 1396.19 465.64 1396.45C466.216 1396.7 466.936 1396.88 467.8 1396.98C468.664 1397.07 469.688 1397.12 470.872 1397.12C472.92 1397.12 475.176 1397.01 477.64 1396.78C480.104 1396.53 482.392 1396.19 484.504 1395.78L484.312 1401.97C483.288 1402.1 481.992 1402.22 480.424 1402.35C478.856 1402.51 477.224 1402.62 475.528 1402.69C473.864 1402.75 472.264 1402.78 470.728 1402.78C468.232 1402.78 465.992 1402.54 464.008 1402.06C462.024 1401.58 460.456 1400.77 459.304 1399.62C458.184 1398.43 457.624 1396.82 457.624 1394.77C457.624 1393.1 457.992 1391.6 458.728 1390.26C459.496 1388.91 460.504 1387.7 461.752 1386.61C463 1385.52 464.36 1384.54 465.832 1383.68C467.336 1382.78 468.808 1381.97 470.248 1381.23C471.72 1380.46 473.048 1379.81 474.232 1379.26C475.416 1378.72 476.52 1378.24 477.544 1377.82C478.6 1377.38 479.608 1376.93 480.568 1376.48C481.496 1376.06 482.392 1375.66 483.256 1375.28C484.12 1374.86 485 1374.43 485.896 1373.98L488.296 1379.55Z" fill="black"/>
<path d="M417.88 1359.2H423.736V1398.8C423.736 1400.21 423.544 1401.27 423.16 1401.97C422.776 1402.68 422.12 1403.24 421.192 1403.65C420.264 1404 419.112 1404.23 417.736 1404.32C416.392 1404.42 414.696 1404.47 412.648 1404.47C412.52 1403.8 412.264 1403.01 411.88 1402.12C411.496 1401.25 411.112 1400.52 410.728 1399.91C411.528 1399.94 412.328 1399.97 413.128 1400C413.928 1400 414.648 1400 415.288 1400C415.96 1400 416.424 1400 416.68 1400C417.128 1399.97 417.432 1399.88 417.592 1399.72C417.784 1399.56 417.88 1399.25 417.88 1398.8V1359.2ZM399.928 1362.37H442.168V1366.88H399.928V1362.37ZM410.344 1372.5V1374.76H431.512V1372.5H410.344ZM404.824 1368.85H437.416V1378.4H404.824V1368.85ZM403.672 1380.56H438.232V1399.33H432.376V1384.45H403.672V1380.56ZM398.824 1386.52H443.272V1390.88H398.824V1386.52ZM403.288 1393.09H435.544V1397.27H403.288V1393.09Z" fill="black"/>
<path d="M372.808 1364.14C371.432 1365.74 369.72 1367.36 367.672 1368.99C365.624 1370.62 363.384 1372.17 360.952 1373.65C358.52 1375.09 356.024 1376.37 353.464 1377.49C353.24 1377.04 352.936 1376.53 352.552 1375.95C352.168 1375.34 351.768 1374.77 351.352 1374.22C350.936 1373.65 350.52 1373.15 350.104 1372.73C352.76 1371.71 355.336 1370.45 357.832 1368.94C360.328 1367.44 362.6 1365.84 364.648 1364.14C366.696 1362.41 368.36 1360.72 369.64 1359.05H375.448C376.792 1360.59 378.264 1362.03 379.864 1363.37C381.496 1364.69 383.192 1365.9 384.952 1367.02C386.712 1368.14 388.52 1369.15 390.376 1370.05C392.264 1370.91 394.152 1371.65 396.04 1372.25C395.368 1372.96 394.712 1373.77 394.072 1374.7C393.432 1375.63 392.872 1376.51 392.392 1377.34C390.088 1376.35 387.704 1375.15 385.24 1373.74C382.776 1372.3 380.456 1370.75 378.28 1369.09C376.104 1367.42 374.28 1365.77 372.808 1364.14ZM362.248 1379.41H383.368V1383.53H362.248V1379.41ZM369.928 1368.75H375.88V1375.23H369.928V1368.75ZM353.656 1398.56C355.48 1398.4 357.528 1398.24 359.8 1398.08C362.104 1397.89 364.52 1397.69 367.048 1397.5C369.576 1397.28 372.088 1397.05 374.584 1396.83L374.68 1401.92C372.312 1402.14 369.912 1402.37 367.48 1402.59C365.08 1402.85 362.76 1403.07 360.52 1403.26C358.312 1403.49 356.28 1403.68 354.424 1403.84L353.656 1398.56ZM374.488 1388.91C376.216 1391.82 378.824 1394.14 382.312 1395.87C385.832 1397.57 390.088 1398.7 395.08 1399.28C394.696 1399.69 394.28 1400.19 393.832 1400.77C393.384 1401.37 392.968 1401.98 392.584 1402.59C392.2 1403.23 391.88 1403.81 391.624 1404.32C388.072 1403.74 384.904 1402.85 382.12 1401.63C379.336 1400.41 376.92 1398.88 374.872 1397.02C372.824 1395.13 371.08 1392.86 369.64 1390.21L374.488 1388.91ZM388.648 1387.9L392.824 1391.36C391.608 1392.19 390.312 1393.02 388.936 1393.85C387.56 1394.65 386.184 1395.41 384.808 1396.11C383.432 1396.78 382.136 1397.39 380.92 1397.93L377.512 1394.81C378.696 1394.24 379.96 1393.57 381.304 1392.8C382.648 1392 383.976 1391.18 385.288 1390.35C386.6 1389.49 387.72 1388.67 388.648 1387.9ZM362.248 1372.4H387.256V1390.64H362.248V1386.17H381.4V1376.91H362.248V1372.4ZM358.648 1372.4H364.36V1399.23L358.648 1399.81V1372.4Z" fill="black"/>
<path d="M321.929 1361.02C321.897 1361.28 321.849 1361.68 321.785 1362.22C321.721 1362.74 321.657 1363.26 321.593 1363.81C321.561 1364.32 321.529 1364.78 321.497 1365.2C321.433 1366.13 321.369 1367.15 321.305 1368.27C321.273 1369.36 321.241 1370.5 321.209 1371.68C321.177 1372.83 321.145 1374 321.113 1375.18C321.113 1376.37 321.113 1377.52 321.113 1378.64C321.113 1379.95 321.129 1381.41 321.161 1383.01C321.193 1384.58 321.225 1386.14 321.257 1387.71C321.321 1389.25 321.353 1390.66 321.353 1391.94C321.385 1393.22 321.401 1394.21 321.401 1394.91C321.401 1396.9 321.177 1398.43 320.729 1399.52C320.313 1400.61 319.705 1401.36 318.905 1401.78C318.105 1402.22 317.177 1402.45 316.121 1402.45C314.969 1402.45 313.737 1402.21 312.425 1401.73C311.113 1401.28 309.881 1400.64 308.729 1399.81C307.609 1398.98 306.681 1398.02 305.945 1396.93C305.241 1395.81 304.889 1394.61 304.889 1393.33C304.889 1391.79 305.465 1390.27 306.617 1388.77C307.801 1387.23 309.353 1385.82 311.273 1384.54C313.225 1383.26 315.321 1382.24 317.561 1381.47C319.705 1380.67 321.913 1380.1 324.185 1379.74C326.457 1379.36 328.505 1379.17 330.329 1379.17C332.793 1379.17 335.017 1379.58 337.001 1380.42C338.985 1381.22 340.569 1382.4 341.753 1383.97C342.937 1385.54 343.529 1387.42 343.529 1389.63C343.529 1391.49 343.177 1393.2 342.473 1394.77C341.769 1396.34 340.633 1397.7 339.065 1398.85C337.529 1399.97 335.481 1400.85 332.921 1401.49C331.833 1401.71 330.745 1401.87 329.657 1401.97C328.601 1402.1 327.593 1402.19 326.633 1402.26L324.425 1396.06C325.513 1396.06 326.553 1396.05 327.545 1396.02C328.569 1395.95 329.497 1395.86 330.329 1395.73C331.641 1395.47 332.825 1395.09 333.881 1394.58C334.937 1394.06 335.769 1393.39 336.377 1392.56C336.985 1391.73 337.289 1390.74 337.289 1389.58C337.289 1388.5 336.985 1387.57 336.377 1386.8C335.801 1386.03 334.985 1385.44 333.929 1385.02C332.873 1384.61 331.641 1384.4 330.233 1384.4C328.217 1384.4 326.169 1384.61 324.089 1385.02C322.041 1385.44 320.073 1386.02 318.185 1386.75C316.777 1387.3 315.513 1387.94 314.393 1388.67C313.273 1389.38 312.393 1390.11 311.753 1390.88C311.113 1391.65 310.793 1392.38 310.793 1393.09C310.793 1393.47 310.905 1393.84 311.129 1394.19C311.385 1394.51 311.705 1394.8 312.089 1395.06C312.473 1395.31 312.857 1395.52 313.241 1395.68C313.657 1395.81 314.009 1395.87 314.297 1395.87C314.745 1395.87 315.113 1395.74 315.401 1395.49C315.689 1395.2 315.833 1394.66 315.833 1393.86C315.833 1392.99 315.801 1391.76 315.737 1390.16C315.705 1388.53 315.657 1386.72 315.593 1384.74C315.561 1382.75 315.545 1380.78 315.545 1378.83C315.545 1377.49 315.545 1376.13 315.545 1374.75C315.577 1373.38 315.593 1372.06 315.593 1370.82C315.593 1369.57 315.593 1368.46 315.593 1367.5C315.625 1366.54 315.641 1365.79 315.641 1365.25C315.641 1364.9 315.625 1364.45 315.593 1363.9C315.561 1363.36 315.513 1362.82 315.449 1362.27C315.417 1361.7 315.369 1361.28 315.305 1361.02H321.929ZM335.609 1366.21C336.825 1366.78 338.185 1367.49 339.689 1368.32C341.225 1369.15 342.681 1369.98 344.057 1370.82C345.465 1371.62 346.585 1372.34 347.417 1372.98L344.537 1377.87C343.929 1377.36 343.129 1376.78 342.137 1376.14C341.177 1375.5 340.121 1374.85 338.969 1374.18C337.849 1373.5 336.761 1372.88 335.705 1372.3C334.649 1371.7 333.737 1371.22 332.969 1370.86L335.609 1366.21ZM306.185 1368.85C307.593 1369.01 308.825 1369.12 309.881 1369.18C310.969 1369.22 311.945 1369.23 312.809 1369.23C314.057 1369.23 315.433 1369.18 316.937 1369.09C318.441 1368.96 319.977 1368.8 321.545 1368.61C323.113 1368.38 324.633 1368.13 326.105 1367.84C327.609 1367.55 328.969 1367.23 330.185 1366.88L330.329 1372.83C328.985 1373.15 327.529 1373.44 325.961 1373.7C324.393 1373.92 322.809 1374.13 321.209 1374.32C319.641 1374.51 318.137 1374.66 316.697 1374.75C315.289 1374.85 314.057 1374.9 313.001 1374.9C311.401 1374.9 310.089 1374.88 309.065 1374.85C308.041 1374.82 307.113 1374.75 306.281 1374.66L306.185 1368.85Z" fill="black"/>
<path d="M629.111 1175.04C630.342 1175.89 631.786 1176.93 633.442 1178.16C635.099 1179.39 636.803 1180.74 638.554 1182.21C640.353 1183.63 642.033 1185.03 643.595 1186.4C645.157 1187.77 646.435 1189 647.429 1190.09L640.187 1197.48C639.288 1196.48 638.105 1195.3 636.637 1193.93C635.17 1192.55 633.584 1191.13 631.88 1189.67C630.176 1188.2 628.496 1186.8 626.839 1185.48C625.183 1184.15 623.715 1183.04 622.437 1182.14L629.111 1175.04ZM620.236 1222.33C623.928 1221.8 627.407 1221.07 630.673 1220.12C633.939 1219.18 636.969 1218.09 639.761 1216.86C642.554 1215.63 645.11 1214.35 647.429 1213.02C651.453 1210.61 655.145 1207.86 658.505 1204.79C661.866 1201.71 664.801 1198.52 667.309 1195.2C669.818 1191.84 671.806 1188.58 673.273 1185.41L678.811 1195.42C677.013 1198.59 674.788 1201.76 672.137 1204.93C669.534 1208.1 666.576 1211.13 663.262 1214.02C659.949 1216.86 656.375 1219.41 652.541 1221.69C650.127 1223.15 647.524 1224.55 644.731 1225.88C641.939 1227.15 638.98 1228.29 635.856 1229.28C632.78 1230.32 629.561 1231.13 626.2 1231.7L620.236 1222.33Z" fill="black"/>
<path d="M600.852 1176.82C600.379 1177.62 599.858 1178.69 599.29 1180.01C598.722 1181.29 598.249 1182.36 597.87 1183.21C597.018 1185.57 595.953 1188.15 594.675 1190.95C593.397 1193.69 591.953 1196.46 590.344 1199.25C588.735 1202.05 586.96 1204.72 585.019 1207.28C582.842 1210.16 580.357 1213.07 577.564 1216.01C574.819 1218.9 571.671 1221.74 568.121 1224.53C564.571 1227.32 560.5 1230 555.909 1232.55L547.957 1225.38C554.442 1222.26 560.027 1218.73 564.713 1214.8C569.399 1210.83 573.588 1206.38 577.28 1201.45C580.167 1197.81 582.463 1194.16 584.167 1190.52C585.918 1186.83 587.386 1183.21 588.569 1179.66C588.948 1178.71 589.279 1177.62 589.563 1176.39C589.894 1175.11 590.131 1174.02 590.273 1173.12L600.852 1176.82ZM561.802 1183.7C563.601 1184.79 565.494 1186.02 567.482 1187.4C569.517 1188.72 571.553 1190.09 573.588 1191.51C575.671 1192.93 577.635 1194.33 579.481 1195.7C581.374 1197.08 583.078 1198.33 584.593 1199.47C588.38 1202.45 592.072 1205.55 595.669 1208.77C599.266 1211.99 602.509 1215.13 605.396 1218.21L598.083 1226.3C594.959 1222.71 591.788 1219.39 588.569 1216.36C585.35 1213.29 581.871 1210.19 578.132 1207.06C576.854 1205.97 575.387 1204.79 573.73 1203.51C572.073 1202.24 570.275 1200.89 568.334 1199.47C566.441 1198.05 564.429 1196.63 562.299 1195.21C560.169 1193.74 557.992 1192.32 555.767 1190.95L561.802 1183.7Z" fill="black"/>
<path d="M505.713 1227.44C505.855 1226.73 505.973 1225.93 506.068 1225.03C506.21 1224.08 506.281 1223.13 506.281 1222.19C506.281 1221.67 506.281 1220.62 506.281 1219.06C506.281 1217.5 506.281 1215.61 506.281 1213.38C506.281 1211.16 506.281 1208.77 506.281 1206.21C506.281 1203.61 506.281 1200.98 506.281 1198.33C506.281 1195.68 506.281 1193.19 506.281 1190.88C506.281 1188.51 506.281 1186.45 506.281 1184.7C506.281 1182.9 506.281 1181.6 506.281 1180.79C506.281 1179.18 506.186 1177.79 505.997 1176.6C505.855 1175.42 505.76 1174.78 505.713 1174.69H516.292C516.245 1174.78 516.15 1175.44 516.008 1176.68C515.866 1177.86 515.795 1179.26 515.795 1180.86C515.795 1181.67 515.795 1182.88 515.795 1184.49C515.795 1186.05 515.795 1187.87 515.795 1189.95C515.795 1191.99 515.795 1194.17 515.795 1196.48C515.795 1198.8 515.795 1201.1 515.795 1203.37C515.795 1205.6 515.795 1207.73 515.795 1209.76C515.795 1211.75 515.795 1213.45 515.795 1214.87C515.795 1216.29 515.795 1217.33 515.795 1218C517.736 1217.15 519.747 1215.99 521.83 1214.52C523.913 1213.05 525.948 1211.35 527.936 1209.41C529.971 1207.42 531.77 1205.29 533.332 1203.02L538.799 1210.83C536.858 1213.38 534.492 1215.89 531.699 1218.35C528.954 1220.81 526.114 1223.06 523.179 1225.1C520.244 1227.13 517.428 1228.84 514.73 1230.21C513.973 1230.64 513.357 1231.01 512.884 1231.35C512.411 1231.72 512.008 1232.06 511.677 1232.34L505.713 1227.44ZM472.84 1226.38C475.964 1224.2 478.52 1221.57 480.508 1218.49C482.496 1215.42 483.963 1212.39 484.91 1209.41C485.431 1207.84 485.809 1205.93 486.046 1203.66C486.33 1201.34 486.543 1198.87 486.685 1196.27C486.827 1193.62 486.898 1191.02 486.898 1188.46C486.945 1185.86 486.969 1183.47 486.969 1181.29C486.969 1179.87 486.898 1178.66 486.756 1177.67C486.661 1176.63 486.519 1175.66 486.33 1174.76H496.767C496.72 1174.85 496.649 1175.26 496.554 1175.97C496.507 1176.63 496.436 1177.43 496.341 1178.38C496.294 1179.28 496.27 1180.23 496.27 1181.22C496.27 1183.3 496.246 1185.74 496.199 1188.53C496.152 1191.28 496.057 1194.09 495.915 1196.98C495.773 1199.87 495.56 1202.61 495.276 1205.22C494.992 1207.77 494.613 1209.95 494.14 1211.75C493.051 1215.77 491.418 1219.51 489.241 1222.97C487.111 1226.38 484.531 1229.43 481.502 1232.13L472.84 1226.38Z" fill="black"/>
<path d="M436.772 1172.05C436.677 1172.86 436.582 1173.9 436.488 1175.18C436.44 1176.46 436.393 1177.52 436.346 1178.37C436.156 1185.43 435.565 1191.7 434.571 1197.19C433.577 1202.63 432.157 1207.46 430.311 1211.67C428.465 1215.89 426.122 1219.67 423.282 1223.03C420.442 1226.35 417.057 1229.4 413.129 1232.19L404.893 1225.52C406.36 1224.67 407.922 1223.67 409.579 1222.54C411.283 1221.35 412.821 1220.03 414.194 1218.56C416.513 1216.29 418.477 1213.8 420.087 1211.1C421.696 1208.36 422.974 1205.38 423.921 1202.16C424.915 1198.89 425.648 1195.32 426.122 1191.44C426.595 1187.56 426.832 1183.27 426.832 1178.59C426.832 1178.07 426.808 1177.4 426.761 1176.6C426.713 1175.75 426.642 1174.92 426.548 1174.11C426.5 1173.31 426.429 1172.62 426.335 1172.05H436.772ZM460.912 1187.25C460.817 1187.82 460.699 1188.48 460.557 1189.24C460.462 1189.99 460.415 1190.59 460.415 1191.01C460.367 1192.53 460.273 1194.47 460.131 1196.83C460.036 1199.2 459.87 1201.76 459.634 1204.5C459.444 1207.2 459.184 1209.9 458.853 1212.6C458.569 1215.29 458.214 1217.8 457.788 1220.12C457.362 1222.39 456.841 1224.26 456.226 1225.73C455.468 1227.53 454.356 1228.88 452.889 1229.78C451.469 1230.72 449.528 1231.2 447.067 1231.2C445.031 1231.2 442.996 1231.13 440.961 1230.98C438.925 1230.89 437.032 1230.77 435.281 1230.63L434.216 1221.12C435.967 1221.45 437.718 1221.71 439.47 1221.9C441.221 1222.04 442.783 1222.11 444.156 1222.11C445.339 1222.11 446.215 1221.92 446.783 1221.54C447.351 1221.12 447.824 1220.48 448.203 1219.62C448.581 1218.68 448.936 1217.42 449.268 1215.86C449.599 1214.3 449.883 1212.55 450.12 1210.61C450.356 1208.67 450.546 1206.66 450.688 1204.57C450.877 1202.49 450.995 1200.48 451.043 1198.54C451.137 1196.55 451.185 1194.8 451.185 1193.28H416.537C415.353 1193.28 413.886 1193.31 412.135 1193.35C410.383 1193.35 408.727 1193.43 407.165 1193.57V1184.27C408.679 1184.41 410.289 1184.53 411.993 1184.62C413.697 1184.72 415.211 1184.76 416.537 1184.76H449.41C450.309 1184.76 451.208 1184.72 452.108 1184.62C453.054 1184.53 453.93 1184.41 454.735 1184.27L460.912 1187.25Z" fill="black"/>
</svg>
