<svg width="1080" height="1920" viewBox="0 0 1080 1920" fill="none" xmlns="http://www.w3.org/2000/svg">
<path d="M1080 1920L1080 0L0 0L0 1920H1080Z" fill="#A5D4AD"/>
<path d="M1020 983.72V95C1020 75.67 1004.33 60 985 60H95.58C75.93 60 60 75.93 60 95.58V983.71C60 984.03 60.25 984.28 60.57 984.28C80.03 984.59 95.71 1000.46 95.71 1019.99C95.71 1039.52 80.03 1055.39 60.57 1055.7C60.25 1055.7 60 1055.96 60 1056.27V1824.99C60 1844.32 75.67 1859.99 95 1859.99H985C1004.33 1859.99 1020 1844.32 1020 1824.99V1056.27C1020 1055.95 1019.75 1055.7 1019.43 1055.7C999.97 1055.39 984.29 1039.52 984.29 1019.99C984.29 1000.46 999.97 984.59 1019.43 984.28C1019.75 984.28 1020 984.02 1020 983.71V983.72Z" fill="white"/>
<path d="M60.57 1055.71C60.25 1055.71 60 1055.97 60 1056.28V1825C60 1844.33 75.67 1860 95 1860H985C1004.33 1860 1020 1844.33 1020 1825V1056.28C1020 1055.96 1019.75 1055.71 1019.43 1055.71C999.97 1055.4 984.29 1039.53 984.29 1020H95.71C95.71 1039.53 80.03 1055.4 60.57 1055.71Z" fill="#E5F2E6"/>
<path d="M121 1020H160.9" stroke="black" stroke-width="6" stroke-miterlimit="10"/>
<path d="M187.512 1020H227.412" stroke="black" stroke-width="6" stroke-miterlimit="10"/>
<path d="M254.02 1020H293.92" stroke="black" stroke-width="6" stroke-miterlimit="10"/>
<path d="M320.52 1020H360.43" stroke="black" stroke-width="6" stroke-miterlimit="10"/>
<path d="M387.031 1020H426.941" stroke="black" stroke-width="6" stroke-miterlimit="10"/>
<path d="M453.539 1020H493.439" stroke="black" stroke-width="6" stroke-miterlimit="10"/>
<path d="M520.051 1020H559.951" stroke="black" stroke-width="6" stroke-miterlimit="10"/>
<path d="M586.559 1020H626.459" stroke="black" stroke-width="6" stroke-miterlimit="10"/>
<path d="M653.059 1020H692.969" stroke="black" stroke-width="6" stroke-miterlimit="10"/>
<path d="M719.57 1020H759.48" stroke="black" stroke-width="6" stroke-miterlimit="10"/>
<path d="M786.078 1020H825.978" stroke="black" stroke-width="6" stroke-miterlimit="10"/>
<path d="M852.59 1020H892.49" stroke="black" stroke-width="6" stroke-miterlimit="10"/>
<path d="M919.102 1020H959.002" stroke="black" stroke-width="6" stroke-miterlimit="10"/>
<path d="M1020 984.29V95C1020 75.67 1004.33 60 985 60H95C75.67 60 60 75.67 60 95V984.29C79.72 984.29 95.71 1000.28 95.71 1020C95.71 1039.72 79.72 1055.71 60 1055.71V1825C60 1844.33 75.67 1860 95 1860H985C1004.33 1860 1020 1844.33 1020 1825V1055.71C1000.28 1055.71 984.29 1039.72 984.29 1020C984.29 1000.28 1000.28 984.29 1020 984.29Z" stroke="black" stroke-width="6" stroke-miterlimit="10"/>
<path d="M912.649 525.666C908.779 525.666 905.539 522.646 905.319 518.736C900.589 435.626 868.789 358.856 813.369 296.746C810.669 293.716 810.929 289.066 813.959 286.366C816.989 283.666 821.629 283.926 824.339 286.956C881.999 351.576 915.069 431.436 919.999 517.896C920.229 521.946 917.129 525.426 913.079 525.656C912.939 525.656 912.799 525.666 912.659 525.666H912.649Z" fill="black"/>
<path d="M818.849 795.517C817.109 795.517 815.359 794.897 813.959 793.647C810.929 790.947 810.669 786.297 813.369 783.267C868.789 721.157 900.589 644.387 905.319 561.277C905.549 557.227 909.029 554.117 913.079 554.357C917.129 554.587 920.229 558.057 919.999 562.117C915.069 648.587 881.999 728.447 824.339 793.057C822.889 794.687 820.869 795.517 818.849 795.517Z" fill="black"/>
<path d="M167.36 525.666C167.22 525.666 167.08 525.666 166.94 525.656C162.89 525.426 159.79 521.956 160.02 517.896C164.95 431.426 198.02 351.566 255.68 286.956C258.38 283.926 263.03 283.666 266.06 286.366C269.09 289.066 269.35 293.716 266.65 296.746C211.23 358.856 179.43 435.616 174.7 518.736C174.48 522.646 171.24 525.666 167.37 525.666H167.36Z" fill="black"/>
<path d="M261.17 795.517C259.15 795.517 257.13 794.687 255.68 793.057C198.02 728.437 164.95 648.577 160.02 562.117C159.79 558.067 162.89 554.587 166.94 554.357C170.99 554.117 174.47 557.227 174.7 561.277C179.43 644.397 211.23 721.157 266.65 783.267C269.35 786.297 269.09 790.947 266.06 793.647C264.66 794.897 262.91 795.517 261.17 795.517Z" fill="black"/>
<path d="M788.171 268.511C786.431 268.511 784.681 267.891 783.281 266.641C721.171 211.221 644.401 179.421 561.291 174.691C557.241 174.461 554.141 170.991 554.371 166.931C554.601 162.881 558.041 159.791 562.131 160.011C648.601 164.941 728.461 198.011 793.071 255.671C796.101 258.371 796.361 263.021 793.661 266.051C792.211 267.681 790.191 268.511 788.171 268.511Z" fill="black"/>
<path d="M291.852 268.512C289.832 268.512 287.812 267.682 286.362 266.052C283.662 263.022 283.922 258.372 286.952 255.672C351.572 198.012 431.432 164.942 517.892 160.012C521.942 159.782 525.422 162.882 525.652 166.932C525.882 170.982 522.782 174.462 518.732 174.692C435.622 179.422 358.852 211.222 296.742 266.642C295.342 267.892 293.592 268.512 291.852 268.512Z" fill="black"/>
<path d="M561.69 920.006C557.82 920.006 554.58 916.986 554.36 913.076C554.13 909.026 557.23 905.546 561.28 905.316C644.4 900.586 721.16 868.786 783.27 813.366C786.3 810.666 790.95 810.926 793.65 813.956C796.35 816.986 796.09 821.636 793.06 824.336C728.44 881.996 648.58 915.066 562.12 919.996C561.98 919.996 561.84 920.006 561.7 920.006H561.69Z" fill="black"/>
<path d="M518.319 920.006C518.179 920.006 518.04 920.006 517.9 919.996C431.43 915.066 351.569 881.996 286.959 824.336C283.929 821.636 283.669 816.986 286.369 813.956C289.069 810.926 293.719 810.666 296.749 813.366C358.859 868.786 435.629 900.586 518.739 905.316C522.789 905.546 525.889 909.016 525.659 913.076C525.439 916.986 522.199 920.006 518.329 920.006H518.319Z" fill="black"/>
<path d="M875.378 526.189C872.368 526.189 869.848 523.839 869.678 520.799C865.408 445.789 836.708 376.519 786.698 320.459C784.598 318.099 784.798 314.489 787.158 312.389C789.508 310.289 793.128 310.489 795.228 312.849C846.978 370.849 876.678 442.539 881.098 520.149C881.278 523.299 878.868 525.999 875.718 526.179C875.608 526.179 875.498 526.179 875.388 526.179L875.378 526.189Z" fill="black"/>
<path d="M790.958 769.062C789.598 769.062 788.248 768.582 787.158 767.612C784.798 765.512 784.598 761.892 786.698 759.542C836.708 703.492 865.408 634.212 869.678 559.202C869.858 556.052 872.548 553.642 875.708 553.822C878.858 554.002 881.268 556.702 881.088 559.852C876.668 637.472 846.978 709.152 795.218 767.152C794.088 768.422 792.518 769.062 790.948 769.062H790.958Z" fill="black"/>
<path d="M204.63 526.187C204.52 526.187 204.41 526.187 204.3 526.187C201.15 526.007 198.74 523.307 198.92 520.157C203.34 442.537 233.03 370.857 284.79 312.857C286.89 310.497 290.51 310.297 292.86 312.397C295.22 314.497 295.42 318.117 293.32 320.467C243.31 376.517 214.61 445.797 210.34 520.807C210.17 523.847 207.65 526.197 204.64 526.197L204.63 526.187Z" fill="black"/>
<path d="M289.048 769.055C287.478 769.055 285.908 768.405 284.778 767.145C233.028 709.145 203.328 637.455 198.908 559.845C198.728 556.695 201.138 553.995 204.288 553.815C207.448 553.625 210.138 556.045 210.318 559.195C214.588 634.205 243.288 703.485 293.298 759.535C295.398 761.895 295.198 765.505 292.838 767.605C291.748 768.575 290.388 769.055 289.038 769.055H289.048Z" fill="black"/>
<path d="M763.35 294.756C761.99 294.756 760.64 294.276 759.55 293.306C703.5 243.296 634.22 214.596 559.21 210.326C556.06 210.146 553.65 207.446 553.83 204.296C554.01 201.146 556.7 198.736 559.86 198.916C637.48 203.336 709.16 233.026 767.16 284.786C769.52 286.886 769.72 290.506 767.62 292.856C766.49 294.126 764.92 294.766 763.35 294.766V294.756Z" fill="black"/>
<path d="M316.659 294.759C315.089 294.759 313.519 294.109 312.389 292.849C310.289 290.489 310.489 286.879 312.849 284.779C370.849 233.029 442.539 203.329 520.149 198.909C523.299 198.719 525.999 201.139 526.179 204.289C526.359 207.439 523.949 210.139 520.799 210.319C445.789 214.589 376.519 243.289 320.459 293.299C319.369 294.269 318.009 294.749 316.659 294.749V294.759Z" fill="black"/>
<path d="M559.526 881.102C556.516 881.102 553.996 878.752 553.826 875.712C553.646 872.562 556.056 869.862 559.206 869.682C634.216 865.412 703.486 836.712 759.546 786.702C761.896 784.602 765.516 784.802 767.616 787.162C769.716 789.522 769.516 793.132 767.156 795.232C709.156 846.982 637.466 876.682 559.856 881.102C559.746 881.102 559.636 881.102 559.526 881.102Z" fill="black"/>
<path d="M520.487 881.102C520.377 881.102 520.267 881.102 520.157 881.102C442.537 876.682 370.857 846.992 312.857 795.232C310.497 793.132 310.297 789.512 312.397 787.162C314.497 784.802 318.117 784.602 320.467 786.702C376.517 836.722 445.797 865.412 520.807 869.682C523.957 869.862 526.367 872.562 526.187 875.712C526.017 878.752 523.497 881.102 520.487 881.102Z" fill="black"/>
<path d="M841.851 526.514C839.701 526.514 837.901 524.834 837.781 522.664C833.921 454.914 808.001 392.344 762.831 341.714C761.331 340.034 761.481 337.454 763.161 335.944C764.841 334.444 767.421 334.584 768.931 336.274C815.351 388.294 841.981 452.584 845.941 522.194C846.071 524.444 844.351 526.374 842.091 526.504C842.011 526.504 841.931 526.504 841.851 526.504V526.514Z" fill="black"/>
<path d="M765.869 745.106C764.899 745.106 763.929 744.766 763.149 744.066C761.469 742.566 761.319 739.986 762.819 738.296C807.989 687.666 833.909 625.096 837.769 557.346C837.899 555.096 839.859 553.396 842.079 553.496C844.329 553.626 846.049 555.556 845.929 557.806C841.959 627.416 815.329 691.706 768.919 743.726C768.109 744.626 766.989 745.086 765.869 745.086V745.106Z" fill="black"/>
<path d="M238.17 526.516C238.09 526.516 238.01 526.516 237.93 526.516C235.68 526.386 233.96 524.456 234.08 522.206C238.05 452.596 264.68 388.306 311.09 336.286C312.59 334.606 315.17 334.456 316.86 335.956C318.54 337.456 318.69 340.036 317.19 341.726C272.02 392.356 246.1 454.926 242.24 522.676C242.12 524.846 240.32 526.526 238.17 526.526V526.516Z" fill="black"/>
<path d="M314.141 745.103C313.021 745.103 311.901 744.643 311.091 743.743C264.671 691.723 238.041 627.433 234.081 557.823C233.951 555.573 235.671 553.643 237.931 553.513C240.171 553.403 242.111 555.103 242.241 557.363C246.101 625.113 272.021 687.683 317.191 738.313C318.691 739.993 318.541 742.573 316.861 744.083C316.081 744.773 315.111 745.123 314.141 745.123V745.103Z" fill="black"/>
<path d="M741.022 318.225C740.052 318.225 739.082 317.885 738.302 317.185C687.672 272.015 625.102 246.095 557.352 242.235C555.102 242.105 553.382 240.175 553.502 237.925C553.632 235.675 555.552 233.965 557.812 234.075C627.422 238.045 691.712 264.675 743.742 311.085C745.422 312.585 745.572 315.165 744.072 316.855C743.262 317.755 742.142 318.215 741.022 318.215V318.225Z" fill="black"/>
<path d="M339.002 318.224C337.882 318.224 336.762 317.764 335.952 316.864C334.452 315.184 334.602 312.604 336.282 311.094C388.302 264.674 452.592 238.044 522.202 234.084C524.452 233.964 526.382 235.674 526.512 237.934C526.642 240.184 524.922 242.114 522.662 242.244C454.912 246.104 392.342 272.024 341.712 317.194C340.932 317.884 339.962 318.234 338.992 318.234L339.002 318.224Z" fill="black"/>
<path d="M557.573 845.933C555.423 845.933 553.623 844.253 553.503 842.083C553.373 839.833 555.093 837.903 557.353 837.773C625.103 833.913 687.673 807.993 738.303 762.823C739.983 761.323 742.563 761.473 744.073 763.153C745.573 764.833 745.423 767.413 743.743 768.923C691.723 815.343 627.433 841.973 557.813 845.933C557.733 845.933 557.653 845.933 557.573 845.933Z" fill="black"/>
<path d="M522.442 845.933C522.362 845.933 522.282 845.933 522.202 845.933C452.592 841.963 388.302 815.333 336.282 768.923C334.602 767.423 334.452 764.843 335.952 763.153C337.452 761.473 340.032 761.323 341.722 762.823C392.352 807.993 454.922 833.913 522.672 837.773C524.922 837.903 526.642 839.833 526.522 842.083C526.402 844.253 524.602 845.933 522.452 845.933H522.442Z" fill="black"/>
<path d="M320.65 546.174C320.65 544.604 321.79 543.274 323.34 543.024C324.64 542.814 326.27 542.524 327.98 542.124C332.4 541.084 337.59 539.114 343.41 536.274C349.29 533.404 354.92 529.414 359.17 523.674C366.34 513.974 367.86 501.404 368.19 496.894C368.26 495.974 367.53 495.194 366.6 495.194H317.09C315.33 495.194 313.91 493.764 313.91 492.014V470.694C313.91 468.934 315.34 467.514 317.09 467.514H367.07C367.95 467.514 368.66 466.804 368.66 465.924V447.184C368.66 446.304 367.95 445.594 367.07 445.594H328.62C326.86 445.594 325.44 444.164 325.44 442.414V421.094C325.44 419.334 326.87 417.914 328.62 417.914H428.96C430.72 417.914 432.14 419.344 432.14 421.094V442.414C432.14 444.174 430.71 445.594 428.96 445.594H398.52C397.64 445.594 396.93 446.304 396.93 447.184V465.924C396.93 466.804 397.64 467.514 398.52 467.514H438.58C440.34 467.514 441.76 468.944 441.76 470.694V492.014C441.76 493.774 440.33 495.194 438.58 495.194H398.39C397.54 495.194 396.84 495.864 396.8 496.714C396.57 501.754 395.15 518.444 386.18 532.854C380.73 541.614 373.65 548.264 366.54 553.544C359.41 558.844 352.26 562.934 345.27 565.704C338.24 568.494 332.34 570.444 327.75 571.514C326.66 571.764 325.49 571.994 324.4 572.184C322.45 572.534 320.66 571.034 320.66 569.044V546.164L320.65 546.174Z" fill="black"/>
<path d="M474.552 546.522C474.552 545.062 475.552 543.792 476.962 543.432C485.212 541.362 488.932 540.112 496.842 536.322C496.842 536.322 500.892 534.212 504.932 531.302C517.112 522.542 525.222 510.632 525.222 510.632C534.682 497.282 537.772 474.912 538.492 468.492C538.602 467.552 537.862 466.722 536.912 466.722H500.582C500.352 466.722 500.142 466.842 500.032 467.042L499.882 467.292C494.302 478.112 486.882 487.992 480.452 494.242C474.002 500.502 468.592 505.052 464.382 507.752L461.782 509.422C460.722 510.102 459.332 509.342 459.332 508.082V479.892C459.332 478.952 459.752 478.062 460.472 477.452C461.122 476.902 461.992 476.132 463.182 475.062C465.942 472.572 469.052 468.512 472.422 462.982C475.762 457.512 479.352 450.212 483.072 441.292C486.452 433.202 488.982 423.092 490.862 412.062C491.122 410.532 492.452 409.422 494.002 409.422H513.912C515.912 409.422 517.422 411.252 517.042 413.212C516.402 416.522 515.712 420.882 514.852 424.312C513.582 429.392 512.762 432.302 511.242 436.722C510.982 437.472 511.542 438.242 512.332 438.242H591.182C592.942 438.242 594.362 439.672 594.362 441.422V463.512C594.362 465.272 592.932 466.692 591.182 466.692H568.142C567.332 466.692 566.642 467.302 566.562 468.112C565.932 474.012 562.882 497.162 552.392 517.262C538.292 546.002 508.142 566.392 478.342 572.132C476.382 572.512 474.562 571.002 474.562 569.002V546.482L474.552 546.522Z" fill="black"/>
<path d="M675.902 411.035V468.875C675.902 469.755 676.612 470.465 677.492 470.465H764.522C765.402 470.465 766.112 469.755 766.112 468.875V411.035C766.112 410.155 765.402 409.445 764.522 409.445H677.492C676.612 409.445 675.902 410.155 675.902 411.035ZM738.462 452.745H702.302C701.422 452.745 700.712 452.035 700.712 451.155V446.875C700.712 445.995 701.422 445.285 702.302 445.285H738.462C739.342 445.285 740.052 445.995 740.052 446.875V451.155C740.052 452.035 739.342 452.745 738.462 452.745ZM738.462 434.455H702.302C701.422 434.455 700.712 433.745 700.712 432.865V428.755C700.712 427.875 701.422 427.165 702.302 427.165H738.462C739.342 427.165 740.052 427.875 740.052 428.755V432.865C740.052 433.745 739.342 434.455 738.462 434.455Z" fill="black"/>
<path d="M674.232 497.342H728.272C729.152 497.342 729.862 498.052 729.862 498.932V502.842C729.862 503.722 729.152 504.432 728.272 504.432H667.762C666.002 504.432 664.582 505.862 664.582 507.612V522.862C664.582 524.622 666.012 526.042 667.762 526.042H728.272C729.152 526.042 729.862 526.752 729.862 527.632V545.392C729.862 546.112 729.942 547.982 729.222 548.852C728.392 549.872 727.152 549.672 725.852 549.722C722.542 549.722 719.582 549.702 716.952 549.662C716.552 549.662 716.262 549.292 716.342 548.902C716.602 547.632 716.732 546.312 716.702 544.962C716.502 535.682 708.942 528.082 699.662 527.842C689.582 527.582 681.372 535.852 681.712 545.942C682.022 555.292 689.792 562.812 699.152 562.842C704.042 562.852 708.462 560.862 711.642 557.642C711.982 557.302 712.552 557.432 712.702 557.882C714.162 562.212 715.542 566.342 716.792 570.052C717.232 571.352 718.462 572.222 719.832 572.212C725.732 572.172 730.512 571.962 734.182 571.602C738.312 571.182 742.092 570.152 745.522 568.502C749.182 566.842 751.692 564.422 753.052 561.232C754.412 558.042 755.092 553.552 755.092 547.762V527.622C755.092 526.742 755.802 526.032 756.682 526.032H762.912C764.672 526.032 766.092 524.602 766.092 522.852V507.602C766.092 505.842 764.662 504.422 762.912 504.422H756.682C755.802 504.422 755.092 503.712 755.092 502.832V498.922C755.092 498.042 755.802 497.332 756.682 497.332H762.912C764.672 497.332 766.092 495.902 766.092 494.152V479.602C766.092 477.842 764.662 476.422 762.912 476.422H674.212C672.452 476.422 671.032 477.852 671.032 479.602V494.152C671.032 495.912 672.462 497.332 674.212 497.332L674.232 497.342Z" fill="black"/>
<path d="M668.832 409.445H650.262C649.402 409.445 648.582 409.795 647.982 410.405C635.232 423.355 618.292 434.575 612.132 438.485C610.782 439.335 610.282 441.065 610.952 442.505L620.702 463.575C621.632 465.575 624.262 466.055 625.832 464.505C646.122 444.465 664.452 419.805 670.122 411.965C670.882 410.915 670.122 409.445 668.832 409.445Z" fill="black"/>
<path d="M671.922 453.899V435.419C671.922 434.009 670.222 433.299 669.212 434.289C653.642 449.609 620.052 477.069 611.682 483.869C610.552 484.789 610.192 486.359 610.802 487.679L620.702 509.059C621.632 511.059 624.262 511.539 625.832 509.989C627.542 508.299 629.242 506.569 630.922 504.829C631.322 504.419 632.022 504.699 632.022 505.269V569.069C632.022 570.829 633.452 572.249 635.202 572.249H653.822C655.582 572.249 657.002 570.819 657.002 569.069V476.379C657.002 475.309 657.362 474.259 658.032 473.419C664.872 464.739 669.722 458.029 671.342 455.749C671.722 455.209 671.932 454.569 671.932 453.899H671.922Z" fill="black"/>
<path d="M653.269 623.338C640.849 623.338 634.809 628.288 634.809 638.478V655.608C634.809 665.678 640.849 670.568 653.269 670.568C659.139 670.568 663.479 669.488 666.559 667.278C669.999 664.808 671.739 660.878 671.739 655.598V638.468C671.739 628.278 665.699 623.328 653.279 623.328L653.269 623.338ZM646.089 639.308C646.089 633.938 648.839 632.918 653.269 632.918C657.699 632.918 660.449 633.958 660.449 639.308V654.688C660.449 659.958 657.599 660.988 653.269 660.988C648.939 660.988 646.089 659.988 646.089 654.688V639.308Z" fill="black"/>
<path d="M708.27 669.334H721.359L703.63 646.784L720.56 624.804H707.4L694.06 642.284V610.234H682.77V669.334H694.06V659.214L696.95 655.454L708.27 669.334Z" fill="black"/>
<path d="M754.82 624.805V653.295C754.82 659.045 751.88 660.895 746.83 660.895C743.56 660.895 740.28 660.355 740.28 653.885V624.815H729V656.775C729 665.745 733.71 670.485 742.62 670.485C749.3 670.485 753.88 666.865 755.58 662.805L757.39 669.345H766.11V624.815H754.83L754.82 624.805Z" fill="black"/>
<path d="M630.568 610.234H589.148V620.144V620.154H604.218V669.334H615.688V620.154H630.568V610.234Z" fill="black"/>
<path d="M459.689 669.334H472.779L455.049 646.784L471.979 624.804H458.819L445.479 642.284V610.234H434.199V669.334H445.479V659.214L448.369 655.454L459.689 669.334Z" fill="black"/>
<path d="M355.33 610.234H313.91V620.144V620.154H328.99V669.334H340.45V620.154H355.33V610.234Z" fill="black"/>
<path d="M421.802 658.896L421.202 659.046C417.622 659.966 413.292 660.896 409.412 660.896C404.862 660.896 401.692 658.826 401.692 652.836V640.976C401.692 634.906 404.862 632.826 409.412 632.826C413.362 632.826 417.882 633.706 421.232 634.406L421.812 634.526V625.196L421.502 625.126C417.692 624.236 412.052 623.336 407.532 623.336C402.012 623.336 397.972 624.406 395.172 626.596C391.972 629.096 390.422 633.856 390.422 639.346V654.646C390.422 664.776 396.022 670.566 407.542 670.566C411.412 670.566 417.272 669.496 421.532 668.316L421.822 668.236V658.886L421.802 658.896Z" fill="black"/>
<path d="M553.93 634.705V624.805H543.69V615.195H532.41V624.805H525.18V634.705H532.41V655.425C532.41 667.945 540.3 670.565 546.93 670.565C548.71 670.565 550.51 670.455 552.12 670.225V660.265C551.47 660.335 550.26 660.365 549.54 660.365C546.46 660.365 543.69 659.735 543.69 652.095V634.695H553.93V634.705Z" fill="black"/>
<path d="M489.741 650.742V650.562H515.171V641.482C515.171 635.572 513.551 630.243 510.361 627.343C507.421 624.673 502.781 623.312 497.261 623.312C485.081 623.312 478.461 629.223 478.461 639.593V654.453C478.461 664.703 483.841 670.552 496.321 670.552C500.981 670.552 506.291 669.563 511.971 668.403L512.361 668.323V659.052L511.711 659.203C507.141 660.253 504.621 661.143 500.291 661.143C494.081 661.143 489.741 658.623 489.741 652.203V650.722V650.742ZM489.741 639.722C489.741 634.072 493.801 632.742 497.171 632.742C500.541 632.742 504.071 634.072 504.071 639.722V643.232H489.741V642.713V639.722Z" fill="black"/>
<path d="M378.178 626.883H366.898V669.333H378.178V626.883Z" fill="black"/>
<path d="M372.542 622.224C376.424 622.224 379.572 619.077 379.572 615.194C379.572 611.312 376.424 608.164 372.542 608.164C368.659 608.164 365.512 611.312 365.512 615.194C365.512 619.077 368.659 622.224 372.542 622.224Z" fill="black"/>
<path d="M585.738 643.922H566.148V651.262H585.738V643.922Z" fill="black"/>
<path d="M739.983 1677C739.136 1677 738.41 1676.4 738.41 1675.43V1581.66C738.41 1580.93 739.015 1580.2 739.983 1580.2H784.269C785.237 1580.2 785.842 1580.81 785.842 1581.66V1591.09C785.842 1591.94 785.237 1592.55 784.269 1592.55H751.115V1622.43H783.18C784.027 1622.43 784.632 1623.04 784.632 1623.88V1633.08C784.632 1634.05 784.027 1634.77 783.18 1634.77H751.115V1675.43C751.115 1676.4 750.389 1677 749.542 1677H739.983Z" fill="black"/>
<path d="M671.327 1677C670.48 1677 669.754 1676.4 669.754 1675.43V1581.66C669.754 1580.93 670.359 1580.2 671.327 1580.2H715.613C716.581 1580.2 717.186 1580.81 717.186 1581.66V1591.09C717.186 1591.94 716.581 1592.55 715.613 1592.55H682.459V1622.43H714.524C715.371 1622.43 715.976 1623.04 715.976 1623.88V1633.08C715.976 1634.05 715.371 1634.77 714.524 1634.77H682.459V1675.43C682.459 1676.4 681.733 1677 680.886 1677H671.327Z" fill="black"/>
<path d="M601.77 1590.97C581.321 1590.97 564.865 1607.66 564.865 1628.48C564.865 1649.05 581.2 1666.23 601.649 1666.23C622.098 1666.23 638.796 1649.05 638.796 1628.6C638.796 1607.79 622.219 1590.97 601.77 1590.97ZM552.039 1628.48C552.039 1600.65 573.94 1578.38 601.77 1578.38C629.6 1578.38 651.622 1600.77 651.622 1628.6C651.622 1656.43 629.479 1678.81 601.649 1678.81C573.819 1678.81 552.039 1656.31 552.039 1628.48Z" fill="black"/>
<path d="M463.745 1676.27C463.503 1676.76 463.019 1677 462.535 1677H451.403C450.314 1677 449.588 1675.79 450.193 1674.82L503.917 1580.92C504.159 1580.44 504.643 1580.2 505.248 1580.2H516.38C517.711 1580.2 518.195 1581.41 517.59 1582.38L463.745 1676.27ZM432.648 1603.43C432.648 1589.51 443.538 1578.38 457.453 1578.38C471.489 1578.38 482.379 1589.51 482.379 1603.55C482.379 1617.47 471.247 1628.6 457.453 1628.6C443.417 1628.6 432.648 1617.47 432.648 1603.43ZM445.353 1603.43C445.353 1610.33 450.677 1616.01 457.453 1616.01C464.229 1616.01 469.674 1610.33 469.674 1603.55C469.674 1596.65 464.229 1591.21 457.453 1591.21C450.798 1591.21 445.353 1596.65 445.353 1603.43ZM487.219 1653.52C487.219 1639.61 498.109 1628.48 512.024 1628.48C526.06 1628.48 536.95 1639.61 536.95 1653.64C536.95 1667.56 525.818 1678.69 512.024 1678.69C497.988 1678.69 487.219 1667.56 487.219 1653.52ZM499.924 1653.52C499.924 1660.42 505.248 1666.11 512.024 1666.11C518.8 1666.11 524.245 1660.42 524.245 1653.64C524.245 1646.75 518.8 1641.3 512.024 1641.3C505.369 1641.3 499.924 1646.75 499.924 1653.52Z" fill="black"/>
<path d="M404.782 1628.48C404.782 1610.33 399.095 1590.72 383.97 1590.72C368.845 1590.72 363.158 1610.33 363.158 1628.48C363.158 1647.84 368.845 1666.47 383.97 1666.47C399.095 1666.47 404.782 1647.84 404.782 1628.48ZM350.453 1628.48C350.453 1604.28 359.77 1578.38 383.97 1578.38C408.17 1578.38 417.487 1604.28 417.487 1628.48C417.487 1655.1 408.17 1678.81 383.97 1678.81C359.77 1678.81 350.453 1655.1 350.453 1628.48Z" fill="black"/>
<path d="M324.823 1580.2C325.67 1580.2 326.275 1580.81 326.275 1581.66V1675.43C326.275 1676.28 325.67 1677 324.823 1677H315.143C314.296 1677 313.691 1676.28 313.691 1675.43V1592.55H298.566C297.235 1592.55 296.63 1591.21 297.235 1590.37L303.285 1580.81C303.527 1580.45 304.011 1580.2 304.495 1580.2H324.823Z" fill="black"/>
<path d="M754.503 1433.45C755.975 1433.64 757.623 1433.78 759.447 1433.88C761.303 1433.94 763.175 1433.98 765.063 1433.98C766.983 1433.94 768.823 1433.88 770.583 1433.78C772.343 1433.66 773.863 1433.53 775.143 1433.4V1439.59C773.671 1439.72 772.055 1439.83 770.295 1439.93C768.535 1439.99 766.727 1440.02 764.871 1440.02C763.015 1440.02 761.191 1439.99 759.399 1439.93C757.639 1439.83 756.007 1439.72 754.503 1439.59V1433.45ZM758.343 1453.94C758.151 1454.74 758.007 1455.46 757.911 1456.1C757.815 1456.71 757.767 1457.34 757.767 1457.98C757.767 1458.49 757.895 1458.97 758.151 1459.42C758.407 1459.83 758.791 1460.2 759.303 1460.52C759.847 1460.81 760.535 1461.03 761.367 1461.19C762.231 1461.32 763.271 1461.38 764.487 1461.38C766.631 1461.38 768.647 1461.29 770.535 1461.1C772.423 1460.87 774.423 1460.55 776.535 1460.14L776.631 1466.62C775.095 1466.9 773.319 1467.13 771.303 1467.29C769.319 1467.45 766.967 1467.53 764.247 1467.53C760.119 1467.53 757.047 1466.84 755.031 1465.46C753.015 1464.06 752.007 1462.12 752.007 1459.66C752.007 1458.73 752.071 1457.77 752.199 1456.78C752.359 1455.75 752.567 1454.63 752.823 1453.42L758.343 1453.94ZM747.111 1430.23C746.983 1430.55 746.839 1431 746.679 1431.58C746.519 1432.15 746.359 1432.71 746.199 1433.26C746.071 1433.8 745.975 1434.22 745.911 1434.5C745.815 1435.18 745.655 1436.06 745.431 1437.14C745.239 1438.2 745.031 1439.4 744.807 1440.74C744.615 1442.06 744.423 1443.4 744.231 1444.78C744.039 1446.15 743.879 1447.48 743.751 1448.76C743.655 1450.04 743.607 1451.16 743.607 1452.12C743.607 1452.57 743.607 1453.08 743.607 1453.66C743.639 1454.23 743.703 1454.76 743.799 1455.24C744.023 1454.7 744.263 1454.15 744.519 1453.61C744.775 1453.06 745.031 1452.52 745.287 1451.98C745.543 1451.4 745.767 1450.86 745.959 1450.34L748.935 1452.7C748.487 1454.01 748.023 1455.42 747.543 1456.92C747.095 1458.42 746.679 1459.85 746.295 1461.19C745.943 1462.5 745.671 1463.59 745.479 1464.46C745.415 1464.81 745.351 1465.21 745.287 1465.66C745.255 1466.1 745.239 1466.46 745.239 1466.71C745.239 1466.97 745.239 1467.27 745.239 1467.62C745.271 1468.01 745.303 1468.36 745.335 1468.68L739.767 1469.06C739.287 1467.4 738.855 1465.19 738.471 1462.44C738.087 1459.66 737.895 1456.63 737.895 1453.37C737.895 1451.58 737.975 1449.75 738.135 1447.9C738.295 1446.04 738.487 1444.26 738.711 1442.57C738.935 1440.84 739.143 1439.27 739.335 1437.86C739.559 1436.46 739.751 1435.29 739.911 1434.36C739.975 1433.69 740.055 1432.94 740.151 1432.1C740.279 1431.24 740.359 1430.42 740.391 1429.66L747.111 1430.23Z" fill="black"/>
<path d="M687.255 1433.93H730.791V1439.4H687.255V1433.93ZM703.287 1445.69H721.671V1451.11H703.287V1445.69ZM719.511 1445.69H725.463C725.463 1445.69 725.447 1445.85 725.415 1446.17C725.415 1446.46 725.415 1446.79 725.415 1447.18C725.415 1447.56 725.383 1447.9 725.319 1448.18C725.031 1452.57 724.711 1456.15 724.359 1458.94C724.007 1461.72 723.607 1463.9 723.159 1465.46C722.711 1467 722.167 1468.12 721.527 1468.82C720.791 1469.62 720.023 1470.17 719.223 1470.46C718.423 1470.74 717.463 1470.95 716.343 1471.08C715.415 1471.18 714.199 1471.21 712.695 1471.18C711.191 1471.18 709.639 1471.14 708.039 1471.08C708.007 1470.25 707.799 1469.29 707.415 1468.2C707.031 1467.14 706.551 1466.22 705.975 1465.42C707.639 1465.58 709.239 1465.67 710.775 1465.7C712.311 1465.74 713.415 1465.75 714.087 1465.75C714.631 1465.75 715.079 1465.72 715.431 1465.66C715.815 1465.56 716.151 1465.38 716.439 1465.13C716.951 1464.71 717.383 1463.8 717.735 1462.39C718.119 1460.98 718.455 1458.98 718.743 1456.39C719.031 1453.8 719.287 1450.52 719.511 1446.55V1445.69ZM701.127 1437.19H707.559C707.431 1439.75 707.223 1442.34 706.935 1444.97C706.679 1447.56 706.231 1450.14 705.591 1452.7C704.951 1455.22 704.023 1457.64 702.807 1459.94C701.591 1462.25 699.991 1464.39 698.007 1466.38C696.023 1468.36 693.511 1470.12 690.471 1471.66C690.055 1470.86 689.447 1469.99 688.647 1469.06C687.879 1468.14 687.127 1467.37 686.391 1466.76C689.175 1465.48 691.447 1463.99 693.207 1462.3C694.999 1460.57 696.407 1458.71 697.431 1456.73C698.455 1454.71 699.207 1452.62 699.687 1450.44C700.199 1448.26 700.535 1446.06 700.695 1443.82C700.887 1441.58 701.031 1439.37 701.127 1437.19ZM705.735 1426.01H711.735V1436.09H705.735V1426.01Z" fill="black"/>
<path d="M665.366 1434.12C665.046 1436.55 664.63 1439.14 664.118 1441.89C663.606 1444.65 662.918 1447.43 662.054 1450.25C661.126 1453.48 660.038 1456.26 658.79 1458.6C657.542 1460.93 656.166 1462.74 654.662 1464.02C653.19 1465.27 651.574 1465.89 649.814 1465.89C648.054 1465.89 646.422 1465.3 644.918 1464.12C643.446 1462.9 642.262 1461.24 641.366 1459.13C640.502 1457.01 640.07 1454.61 640.07 1451.93C640.07 1449.14 640.63 1446.52 641.75 1444.05C642.87 1441.59 644.422 1439.41 646.406 1437.53C648.422 1435.61 650.758 1434.1 653.414 1433.01C656.102 1431.93 658.998 1431.38 662.102 1431.38C665.078 1431.38 667.75 1431.86 670.118 1432.82C672.518 1433.78 674.566 1435.11 676.262 1436.81C677.958 1438.5 679.254 1440.49 680.15 1442.76C681.046 1445.03 681.494 1447.48 681.494 1450.1C681.494 1453.46 680.806 1456.47 679.43 1459.13C678.054 1461.78 676.006 1463.97 673.286 1465.7C670.598 1467.43 667.238 1468.61 663.206 1469.25L659.606 1463.54C660.534 1463.45 661.35 1463.33 662.054 1463.21C662.758 1463.08 663.43 1462.93 664.07 1462.77C665.606 1462.39 667.03 1461.85 668.342 1461.14C669.686 1460.41 670.854 1459.51 671.846 1458.45C672.838 1457.37 673.606 1456.1 674.15 1454.66C674.726 1453.22 675.014 1451.64 675.014 1449.91C675.014 1448.02 674.726 1446.29 674.15 1444.73C673.574 1443.16 672.726 1441.8 671.606 1440.65C670.486 1439.46 669.126 1438.57 667.526 1437.96C665.926 1437.32 664.086 1437 662.006 1437C659.446 1437 657.19 1437.46 655.238 1438.39C653.286 1439.29 651.638 1440.45 650.294 1441.89C648.95 1443.33 647.926 1444.89 647.222 1446.55C646.55 1448.21 646.214 1449.8 646.214 1451.3C646.214 1452.9 646.406 1454.25 646.79 1455.33C647.174 1456.39 647.638 1457.19 648.182 1457.73C648.758 1458.25 649.366 1458.5 650.006 1458.5C650.678 1458.5 651.334 1458.17 651.974 1457.49C652.646 1456.79 653.302 1455.73 653.942 1454.33C654.582 1452.92 655.222 1451.14 655.862 1449C656.598 1446.69 657.222 1444.23 657.734 1441.61C658.246 1438.98 658.614 1436.42 658.838 1433.93L665.366 1434.12Z" fill="black"/>
<path d="M622.214 1436.91L628.358 1438.73C626.342 1444.49 623.734 1449.48 620.534 1453.71C617.334 1457.93 613.526 1461.5 609.11 1464.41C604.726 1467.29 599.654 1469.64 593.894 1471.47C593.702 1470.96 593.382 1470.35 592.934 1469.64C592.486 1468.94 592.022 1468.24 591.542 1467.53C591.094 1466.86 590.662 1466.3 590.246 1465.85C595.782 1464.38 600.63 1462.38 604.79 1459.85C608.95 1457.32 612.47 1454.19 615.35 1450.44C618.23 1446.67 620.518 1442.16 622.214 1436.91ZM603.638 1437.29C605.27 1442.06 607.526 1446.33 610.406 1450.11C613.286 1453.88 616.838 1457.08 621.062 1459.71C625.318 1462.33 630.278 1464.28 635.942 1465.56C635.494 1466.01 634.998 1466.59 634.454 1467.29C633.942 1468 633.446 1468.7 632.966 1469.4C632.486 1470.14 632.102 1470.78 631.814 1471.32C625.83 1469.79 620.678 1467.55 616.358 1464.6C612.038 1461.63 608.374 1458.01 605.366 1453.76C602.39 1449.5 599.894 1444.59 597.878 1439.02L603.638 1437.29ZM591.11 1433.84H635.078V1439.45H591.11V1433.84ZM610.022 1426.2H615.926V1437.24H610.022V1426.2Z" fill="black"/>
<path d="M563.081 1430.57L566.825 1426.1C568.137 1426.71 569.513 1427.43 570.953 1428.26C572.425 1429.09 573.801 1429.94 575.081 1430.81C576.393 1431.67 577.465 1432.5 578.297 1433.3L574.121 1438.29C573.385 1437.46 572.393 1436.58 571.145 1435.65C569.929 1434.73 568.601 1433.81 567.161 1432.92C565.753 1432.02 564.393 1431.24 563.081 1430.57ZM559.865 1450.05H584.825V1455.53H559.865V1450.05ZM556.457 1464.26H587.609V1469.73H556.457V1464.26ZM558.185 1436.66H586.601V1442.13H558.185V1436.66ZM569.129 1438.49H575.129V1466.71H569.129V1438.49ZM545.513 1430.66L548.633 1426.44C549.689 1426.79 550.793 1427.25 551.945 1427.83C553.097 1428.37 554.201 1428.97 555.257 1429.61C556.313 1430.21 557.177 1430.81 557.849 1431.38L554.441 1436.09C553.833 1435.48 553.017 1434.85 551.993 1434.21C551.001 1433.54 549.929 1432.9 548.777 1432.29C547.657 1431.65 546.569 1431.11 545.513 1430.66ZM542.297 1443.77L545.273 1439.4C546.329 1439.75 547.449 1440.18 548.633 1440.69C549.817 1441.17 550.937 1441.72 551.993 1442.33C553.081 1442.9 553.977 1443.45 554.681 1443.96L551.465 1448.81C550.857 1448.23 550.025 1447.64 548.969 1447.03C547.913 1446.42 546.809 1445.83 545.657 1445.25C544.505 1444.65 543.385 1444.15 542.297 1443.77ZM544.361 1466.85C545.225 1465.64 546.185 1464.21 547.241 1462.58C548.297 1460.92 549.369 1459.16 550.457 1457.3C551.545 1455.41 552.553 1453.54 553.481 1451.69L557.705 1455.53C556.873 1457.19 555.977 1458.9 555.017 1460.66C554.089 1462.42 553.129 1464.15 552.137 1465.85C551.177 1467.54 550.217 1469.17 549.257 1470.74L544.361 1466.85Z" fill="black"/>
<path d="M502.407 1432.58C504.167 1432.8 506.151 1432.96 508.359 1433.06C510.567 1433.16 512.935 1433.2 515.463 1433.2C517.063 1433.2 518.695 1433.17 520.359 1433.11C522.023 1433.04 523.639 1432.96 525.207 1432.87C526.775 1432.74 528.167 1432.63 529.383 1432.53V1438.92C528.263 1438.98 526.903 1439.06 525.303 1439.16C523.735 1439.25 522.087 1439.33 520.359 1439.4C518.663 1439.46 517.047 1439.49 515.511 1439.49C513.015 1439.49 510.695 1439.44 508.551 1439.35C506.407 1439.22 504.359 1439.09 502.407 1438.96V1432.58ZM506.439 1452.93C506.215 1453.76 506.023 1454.58 505.863 1455.38C505.703 1456.18 505.623 1456.98 505.623 1457.78C505.623 1459.35 506.391 1460.63 507.927 1461.62C509.495 1462.58 512.007 1463.06 515.463 1463.06C517.639 1463.06 519.735 1462.98 521.751 1462.82C523.799 1462.66 525.719 1462.45 527.511 1462.2C529.303 1461.91 530.903 1461.57 532.311 1461.19L532.359 1467.91C530.983 1468.23 529.415 1468.52 527.655 1468.77C525.927 1469.03 524.055 1469.22 522.039 1469.35C520.055 1469.51 517.943 1469.59 515.703 1469.59C512.023 1469.59 508.967 1469.17 506.535 1468.34C504.103 1467.54 502.263 1466.39 501.015 1464.88C499.799 1463.35 499.191 1461.48 499.191 1459.27C499.191 1457.89 499.303 1456.63 499.527 1455.48C499.751 1454.29 499.943 1453.25 500.103 1452.36L506.439 1452.93ZM530.631 1427.64C531.047 1428.21 531.479 1428.9 531.927 1429.7C532.407 1430.5 532.871 1431.3 533.319 1432.1C533.767 1432.9 534.151 1433.6 534.471 1434.21L530.583 1435.89C530.103 1434.9 529.511 1433.76 528.807 1432.48C528.135 1431.2 527.479 1430.1 526.839 1429.17L530.631 1427.64ZM536.343 1425.48C536.759 1426.08 537.207 1426.79 537.687 1427.59C538.167 1428.39 538.631 1429.19 539.079 1429.99C539.559 1430.76 539.943 1431.43 540.231 1432L536.391 1433.64C535.879 1432.64 535.271 1431.52 534.567 1430.28C533.863 1429 533.175 1427.91 532.503 1427.01L536.343 1425.48Z" fill="black"/>
<path d="M468.326 1428.5C468.166 1429.37 467.91 1430.49 467.558 1431.86C467.206 1433.24 466.694 1434.79 466.022 1436.52C465.51 1437.7 464.918 1438.94 464.246 1440.22C463.606 1441.46 462.95 1442.58 462.278 1443.58C462.694 1443.38 463.222 1443.22 463.862 1443.1C464.502 1442.94 465.158 1442.82 465.83 1442.76C466.534 1442.66 467.158 1442.62 467.702 1442.62C469.718 1442.62 471.382 1443.19 472.694 1444.34C474.038 1445.5 474.71 1447.21 474.71 1449.48C474.71 1450.12 474.71 1450.9 474.71 1451.83C474.742 1452.76 474.774 1453.74 474.806 1454.76C474.838 1455.75 474.87 1456.73 474.902 1457.69C474.934 1458.65 474.95 1459.51 474.95 1460.28H469.19C469.254 1459.74 469.286 1459.1 469.286 1458.36C469.318 1457.59 469.334 1456.79 469.334 1455.96C469.366 1455.13 469.382 1454.33 469.382 1453.56C469.414 1452.76 469.43 1452.04 469.43 1451.4C469.43 1449.86 469.014 1448.81 468.182 1448.23C467.382 1447.62 466.486 1447.32 465.494 1447.32C464.15 1447.32 462.79 1447.66 461.414 1448.33C460.07 1448.97 458.934 1449.74 458.006 1450.63C457.302 1451.34 456.582 1452.12 455.846 1452.98C455.142 1453.85 454.374 1454.82 453.542 1455.91L448.406 1452.07C450.486 1450.15 452.278 1448.3 453.782 1446.5C455.318 1444.71 456.614 1442.94 457.67 1441.18C458.726 1439.42 459.59 1437.66 460.262 1435.9C460.742 1434.62 461.126 1433.29 461.414 1431.91C461.734 1430.5 461.926 1429.19 461.99 1427.98L468.326 1428.5ZM450.278 1432.92C451.494 1433.11 452.902 1433.26 454.502 1433.35C456.102 1433.45 457.51 1433.5 458.726 1433.5C460.838 1433.5 463.142 1433.45 465.638 1433.35C468.166 1433.26 470.726 1433.1 473.318 1432.87C475.91 1432.62 478.374 1432.3 480.71 1431.91L480.662 1437.48C478.966 1437.7 477.126 1437.91 475.142 1438.1C473.19 1438.26 471.19 1438.41 469.142 1438.54C467.126 1438.63 465.19 1438.71 463.334 1438.78C461.478 1438.81 459.83 1438.82 458.39 1438.82C457.75 1438.82 456.95 1438.82 455.99 1438.82C455.062 1438.79 454.102 1438.76 453.11 1438.73C452.118 1438.66 451.174 1438.6 450.278 1438.54V1432.92ZM488.294 1446.55C487.782 1446.71 487.174 1446.92 486.47 1447.18C485.798 1447.4 485.11 1447.64 484.406 1447.9C483.734 1448.12 483.126 1448.34 482.582 1448.57C481.046 1449.18 479.222 1449.91 477.11 1450.78C475.03 1451.64 472.854 1452.65 470.582 1453.8C469.142 1454.57 467.926 1455.32 466.934 1456.06C465.942 1456.79 465.19 1457.54 464.678 1458.31C464.166 1459.05 463.91 1459.86 463.91 1460.76C463.91 1461.43 464.054 1461.99 464.342 1462.44C464.63 1462.86 465.062 1463.19 465.638 1463.45C466.214 1463.7 466.934 1463.88 467.798 1463.98C468.662 1464.07 469.686 1464.12 470.87 1464.12C472.918 1464.12 475.174 1464.01 477.638 1463.78C480.102 1463.53 482.39 1463.19 484.502 1462.78L484.31 1468.97C483.286 1469.1 481.99 1469.22 480.422 1469.35C478.854 1469.51 477.222 1469.62 475.526 1469.69C473.862 1469.75 472.262 1469.78 470.726 1469.78C468.23 1469.78 465.99 1469.54 464.006 1469.06C462.022 1468.58 460.454 1467.77 459.302 1466.62C458.182 1465.43 457.622 1463.82 457.622 1461.77C457.622 1460.1 457.99 1458.6 458.726 1457.26C459.494 1455.91 460.502 1454.7 461.75 1453.61C462.998 1452.52 464.358 1451.54 465.83 1450.68C467.334 1449.78 468.806 1448.97 470.246 1448.23C471.718 1447.46 473.046 1446.81 474.23 1446.26C475.414 1445.72 476.518 1445.24 477.542 1444.82C478.598 1444.38 479.606 1443.93 480.566 1443.48C481.494 1443.06 482.39 1442.66 483.254 1442.28C484.118 1441.86 484.998 1441.43 485.894 1440.98L488.294 1446.55Z" fill="black"/>
<path d="M417.88 1426.2H423.736V1465.8C423.736 1467.21 423.544 1468.27 423.16 1468.97C422.776 1469.68 422.12 1470.24 421.192 1470.65C420.264 1471 419.112 1471.23 417.736 1471.32C416.392 1471.42 414.696 1471.47 412.648 1471.47C412.52 1470.8 412.264 1470.01 411.88 1469.12C411.496 1468.25 411.112 1467.52 410.728 1466.91C411.528 1466.94 412.328 1466.97 413.128 1467C413.928 1467 414.648 1467 415.288 1467C415.96 1467 416.424 1467 416.68 1467C417.128 1466.97 417.432 1466.88 417.592 1466.72C417.784 1466.56 417.88 1466.25 417.88 1465.8V1426.2ZM399.928 1429.37H442.168V1433.88H399.928V1429.37ZM410.344 1439.5V1441.76H431.512V1439.5H410.344ZM404.824 1435.85H437.416V1445.4H404.824V1435.85ZM403.672 1447.56H438.232V1466.33H432.376V1451.45H403.672V1447.56ZM398.824 1453.52H443.272V1457.88H398.824V1453.52ZM403.288 1460.09H435.544V1464.27H403.288V1460.09Z" fill="black"/>
<path d="M372.809 1431.14C371.433 1432.74 369.721 1434.36 367.673 1435.99C365.625 1437.62 363.385 1439.17 360.953 1440.65C358.521 1442.09 356.025 1443.37 353.465 1444.49C353.241 1444.04 352.937 1443.53 352.553 1442.95C352.169 1442.34 351.769 1441.77 351.353 1441.22C350.937 1440.65 350.521 1440.15 350.105 1439.73C352.761 1438.71 355.337 1437.45 357.833 1435.94C360.329 1434.44 362.601 1432.84 364.649 1431.14C366.697 1429.41 368.361 1427.72 369.641 1426.05H375.449C376.793 1427.59 378.265 1429.03 379.865 1430.37C381.497 1431.69 383.193 1432.9 384.953 1434.02C386.713 1435.14 388.521 1436.15 390.377 1437.05C392.265 1437.91 394.153 1438.65 396.041 1439.25C395.369 1439.96 394.713 1440.77 394.073 1441.7C393.433 1442.63 392.873 1443.51 392.393 1444.34C390.089 1443.35 387.705 1442.15 385.241 1440.74C382.777 1439.3 380.457 1437.75 378.281 1436.09C376.105 1434.42 374.281 1432.77 372.809 1431.14ZM362.249 1446.41H383.369V1450.53H362.249V1446.41ZM369.929 1435.75H375.881V1442.23H369.929V1435.75ZM353.657 1465.56C355.481 1465.4 357.529 1465.24 359.801 1465.08C362.105 1464.89 364.521 1464.69 367.049 1464.5C369.577 1464.28 372.089 1464.05 374.585 1463.83L374.681 1468.92C372.313 1469.14 369.913 1469.37 367.481 1469.59C365.081 1469.85 362.761 1470.07 360.521 1470.26C358.313 1470.49 356.281 1470.68 354.425 1470.84L353.657 1465.56ZM374.489 1455.91C376.217 1458.82 378.825 1461.14 382.313 1462.87C385.833 1464.57 390.089 1465.7 395.081 1466.28C394.697 1466.69 394.281 1467.19 393.833 1467.77C393.385 1468.37 392.969 1468.98 392.585 1469.59C392.201 1470.23 391.881 1470.81 391.625 1471.32C388.073 1470.74 384.905 1469.85 382.121 1468.63C379.337 1467.41 376.921 1465.88 374.873 1464.02C372.825 1462.13 371.081 1459.86 369.641 1457.21L374.489 1455.91ZM388.649 1454.9L392.825 1458.36C391.609 1459.19 390.313 1460.02 388.937 1460.85C387.561 1461.65 386.185 1462.41 384.809 1463.11C383.433 1463.78 382.137 1464.39 380.921 1464.93L377.513 1461.81C378.697 1461.24 379.961 1460.57 381.305 1459.8C382.649 1459 383.977 1458.18 385.289 1457.35C386.601 1456.49 387.721 1455.67 388.649 1454.9ZM362.249 1439.4H387.257V1457.64H362.249V1453.17H381.401V1443.91H362.249V1439.4ZM358.649 1439.4H364.361V1466.23L358.649 1466.81V1439.4Z" fill="black"/>
<path d="M321.927 1428.02C321.895 1428.28 321.847 1428.68 321.783 1429.22C321.719 1429.74 321.655 1430.26 321.591 1430.81C321.559 1431.32 321.527 1431.78 321.495 1432.2C321.431 1433.13 321.367 1434.15 321.303 1435.27C321.271 1436.36 321.239 1437.5 321.207 1438.68C321.175 1439.83 321.143 1441 321.111 1442.18C321.111 1443.37 321.111 1444.52 321.111 1445.64C321.111 1446.95 321.127 1448.41 321.159 1450.01C321.191 1451.58 321.223 1453.14 321.255 1454.71C321.319 1456.25 321.351 1457.66 321.351 1458.94C321.383 1460.22 321.399 1461.21 321.399 1461.91C321.399 1463.9 321.175 1465.43 320.727 1466.52C320.311 1467.61 319.703 1468.36 318.903 1468.78C318.103 1469.22 317.175 1469.45 316.119 1469.45C314.967 1469.45 313.735 1469.21 312.423 1468.73C311.111 1468.28 309.879 1467.64 308.727 1466.81C307.607 1465.98 306.679 1465.02 305.943 1463.93C305.239 1462.81 304.887 1461.61 304.887 1460.33C304.887 1458.79 305.463 1457.27 306.615 1455.77C307.799 1454.23 309.351 1452.82 311.271 1451.54C313.223 1450.26 315.319 1449.24 317.559 1448.47C319.703 1447.67 321.911 1447.1 324.183 1446.74C326.455 1446.36 328.503 1446.17 330.327 1446.17C332.791 1446.17 335.015 1446.58 336.999 1447.42C338.983 1448.22 340.567 1449.4 341.751 1450.97C342.935 1452.54 343.527 1454.42 343.527 1456.63C343.527 1458.49 343.175 1460.2 342.471 1461.77C341.767 1463.34 340.631 1464.7 339.063 1465.85C337.527 1466.97 335.479 1467.85 332.919 1468.49C331.831 1468.71 330.743 1468.87 329.655 1468.97C328.599 1469.1 327.591 1469.19 326.631 1469.26L324.423 1463.06C325.511 1463.06 326.551 1463.05 327.543 1463.02C328.567 1462.95 329.495 1462.86 330.327 1462.73C331.639 1462.47 332.823 1462.09 333.879 1461.58C334.935 1461.06 335.767 1460.39 336.375 1459.56C336.983 1458.73 337.287 1457.74 337.287 1456.58C337.287 1455.5 336.983 1454.57 336.375 1453.8C335.799 1453.03 334.983 1452.44 333.927 1452.02C332.871 1451.61 331.639 1451.4 330.231 1451.4C328.215 1451.4 326.167 1451.61 324.087 1452.02C322.039 1452.44 320.071 1453.02 318.183 1453.75C316.775 1454.3 315.511 1454.94 314.391 1455.67C313.271 1456.38 312.391 1457.11 311.751 1457.88C311.111 1458.65 310.791 1459.38 310.791 1460.09C310.791 1460.47 310.903 1460.84 311.127 1461.19C311.383 1461.51 311.703 1461.8 312.087 1462.06C312.471 1462.31 312.855 1462.52 313.239 1462.68C313.655 1462.81 314.007 1462.87 314.295 1462.87C314.743 1462.87 315.111 1462.74 315.399 1462.49C315.687 1462.2 315.831 1461.66 315.831 1460.86C315.831 1459.99 315.799 1458.76 315.735 1457.16C315.703 1455.53 315.655 1453.72 315.591 1451.74C315.559 1449.75 315.543 1447.78 315.543 1445.83C315.543 1444.49 315.543 1443.13 315.543 1441.75C315.575 1440.38 315.591 1439.06 315.591 1437.82C315.591 1436.57 315.591 1435.46 315.591 1434.5C315.623 1433.54 315.639 1432.79 315.639 1432.25C315.639 1431.9 315.623 1431.45 315.591 1430.9C315.559 1430.36 315.511 1429.82 315.447 1429.27C315.415 1428.7 315.367 1428.28 315.303 1428.02H321.927ZM335.607 1433.21C336.823 1433.78 338.183 1434.49 339.687 1435.32C341.223 1436.15 342.679 1436.98 344.055 1437.82C345.463 1438.62 346.583 1439.34 347.415 1439.98L344.535 1444.87C343.927 1444.36 343.127 1443.78 342.135 1443.14C341.175 1442.5 340.119 1441.85 338.967 1441.18C337.847 1440.5 336.759 1439.88 335.703 1439.3C334.647 1438.7 333.735 1438.22 332.967 1437.86L335.607 1433.21ZM306.183 1435.85C307.591 1436.01 308.823 1436.12 309.879 1436.18C310.967 1436.22 311.943 1436.23 312.807 1436.23C314.055 1436.23 315.431 1436.18 316.935 1436.09C318.439 1435.96 319.975 1435.8 321.543 1435.61C323.111 1435.38 324.631 1435.13 326.103 1434.84C327.607 1434.55 328.967 1434.23 330.183 1433.88L330.327 1439.83C328.983 1440.15 327.527 1440.44 325.959 1440.7C324.391 1440.92 322.807 1441.13 321.207 1441.32C319.639 1441.51 318.135 1441.66 316.695 1441.75C315.287 1441.85 314.055 1441.9 312.999 1441.9C311.399 1441.9 310.087 1441.88 309.063 1441.85C308.039 1441.82 307.111 1441.75 306.279 1441.66L306.183 1435.85Z" fill="black"/>
<path d="M803.786 1192.66C805.253 1192.71 806.626 1192.76 807.904 1192.81C809.229 1192.81 810.365 1192.81 811.312 1192.81C812.069 1192.81 813.229 1192.81 814.791 1192.81C816.4 1192.81 818.27 1192.81 820.4 1192.81C822.53 1192.81 824.802 1192.81 827.216 1192.81C829.63 1192.81 832.044 1192.81 834.458 1192.81C836.919 1192.81 839.215 1192.81 841.345 1192.81C843.475 1192.81 845.321 1192.81 846.883 1192.81C848.492 1192.81 849.652 1192.81 850.362 1192.81C851.261 1192.81 852.326 1192.81 853.557 1192.81C854.835 1192.76 856.113 1192.71 857.391 1192.66C857.344 1193.75 857.296 1194.91 857.249 1196.14C857.249 1197.33 857.249 1198.46 857.249 1199.55C857.249 1200.21 857.249 1201.26 857.249 1202.68C857.249 1204.05 857.249 1205.7 857.249 1207.65C857.249 1209.54 857.249 1211.57 857.249 1213.75C857.249 1215.88 857.249 1218.03 857.249 1220.21C857.249 1222.39 857.249 1224.45 857.249 1226.39C857.249 1228.28 857.249 1229.94 857.249 1231.36C857.249 1232.73 857.249 1233.73 857.249 1234.34C857.249 1235.05 857.249 1235.95 857.249 1237.04C857.296 1238.08 857.32 1239.15 857.32 1240.23C857.32 1241.28 857.32 1242.2 857.32 1243C857.367 1243.76 857.391 1244.16 857.391 1244.21H847.593C847.593 1244.12 847.593 1243.55 847.593 1242.51C847.64 1241.42 847.664 1240.14 847.664 1238.67C847.711 1237.2 847.735 1235.83 847.735 1234.55C847.735 1233.94 847.735 1232.9 847.735 1231.43C847.735 1229.96 847.735 1228.24 847.735 1226.25C847.735 1224.26 847.735 1222.15 847.735 1219.93C847.735 1217.7 847.735 1215.53 847.735 1213.4C847.735 1211.27 847.735 1209.33 847.735 1207.57C847.735 1205.82 847.735 1204.43 847.735 1203.39C847.735 1202.34 847.735 1201.82 847.735 1201.82H813.442C813.442 1201.82 813.442 1202.34 813.442 1203.39C813.442 1204.43 813.442 1205.82 813.442 1207.57C813.442 1209.28 813.442 1211.22 813.442 1213.4C813.442 1215.53 813.442 1217.7 813.442 1219.93C813.442 1222.11 813.442 1224.21 813.442 1226.25C813.442 1228.24 813.442 1229.96 813.442 1231.43C813.442 1232.9 813.442 1233.94 813.442 1234.55C813.442 1235.41 813.442 1236.38 813.442 1237.47C813.442 1238.51 813.442 1239.52 813.442 1240.52C813.489 1241.51 813.513 1242.34 813.513 1243C813.513 1243.71 813.513 1244.12 813.513 1244.21H803.715C803.715 1244.12 803.715 1243.71 803.715 1243C803.762 1242.29 803.786 1241.42 803.786 1240.38C803.833 1239.33 803.857 1238.27 803.857 1237.18C803.904 1236.09 803.928 1235.12 803.928 1234.27C803.928 1233.65 803.928 1232.66 803.928 1231.29C803.928 1229.87 803.928 1228.19 803.928 1226.25C803.928 1224.31 803.928 1222.27 803.928 1220.14C803.928 1217.96 803.928 1215.79 803.928 1213.61C803.928 1211.43 803.928 1209.4 803.928 1207.5C803.928 1205.56 803.928 1203.91 803.928 1202.53C803.928 1201.16 803.928 1200.17 803.928 1199.55C803.928 1198.56 803.928 1197.42 803.928 1196.14C803.928 1194.82 803.88 1193.66 803.786 1192.66ZM851.285 1231.29V1240.38H808.614V1231.29H851.285Z" fill="black"/>
<path d="M746.132 1236.18C746.132 1235.28 746.132 1233.81 746.132 1231.78C746.132 1229.7 746.132 1227.31 746.132 1224.61C746.132 1221.86 746.132 1219 746.132 1216.02C746.132 1213.03 746.132 1210.17 746.132 1207.43C746.132 1204.63 746.132 1202.17 746.132 1200.04C746.132 1197.91 746.132 1196.35 746.132 1195.36C746.132 1194.13 746.061 1192.71 745.919 1191.1C745.824 1189.49 745.659 1188.07 745.422 1186.84H756.498C756.356 1188.07 756.214 1189.44 756.072 1190.95C755.93 1192.42 755.859 1193.89 755.859 1195.36C755.859 1196.68 755.859 1198.48 755.859 1200.75C755.859 1203.02 755.859 1205.56 755.859 1208.35C755.859 1211.09 755.859 1213.91 755.859 1216.8C755.859 1219.64 755.859 1222.38 755.859 1225.03C755.859 1227.68 755.859 1230 755.859 1231.99C755.859 1233.93 755.859 1235.33 755.859 1236.18C755.859 1236.84 755.883 1237.79 755.93 1239.02C755.977 1240.2 756.072 1241.43 756.214 1242.71C756.356 1243.99 756.451 1245.13 756.498 1246.12H745.422C745.611 1244.7 745.777 1243.04 745.919 1241.15C746.061 1239.26 746.132 1237.6 746.132 1236.18ZM753.729 1205.22C756.096 1205.84 758.746 1206.64 761.681 1207.64C764.616 1208.59 767.574 1209.6 770.556 1210.69C773.538 1211.78 776.331 1212.87 778.934 1213.96C781.585 1215 783.786 1215.97 785.537 1216.87L781.49 1226.67C779.502 1225.63 777.301 1224.58 774.887 1223.54C772.473 1222.45 770.012 1221.41 767.503 1220.42C765.042 1219.42 762.604 1218.5 760.19 1217.65C757.823 1216.8 755.67 1216.04 753.729 1215.38V1205.22Z" fill="black"/>
<path d="M712.052 1194.86C711.768 1195.29 711.342 1195.95 710.774 1196.85C710.254 1197.75 709.851 1198.58 709.567 1199.34C708.573 1201.56 707.343 1204.04 705.875 1206.79C704.455 1209.54 702.822 1212.3 700.976 1215.1C699.178 1217.84 697.261 1220.42 695.225 1222.84C692.575 1225.82 689.64 1228.78 686.421 1231.71C683.25 1234.6 679.889 1237.27 676.339 1239.73C672.837 1242.15 669.239 1244.23 665.547 1245.98L658.234 1238.31C662.068 1236.85 665.784 1235 669.381 1232.78C672.979 1230.55 676.316 1228.14 679.392 1225.53C682.469 1222.93 685.12 1220.4 687.344 1217.94C688.906 1216.14 690.374 1214.22 691.746 1212.19C693.166 1210.15 694.421 1208.14 695.509 1206.15C696.598 1204.12 697.403 1202.25 697.923 1200.54C697.45 1200.54 696.598 1200.54 695.367 1200.54C694.137 1200.54 692.693 1200.54 691.036 1200.54C689.427 1200.54 687.723 1200.54 685.924 1200.54C684.126 1200.54 682.398 1200.54 680.741 1200.54C679.132 1200.54 677.712 1200.54 676.481 1200.54C675.251 1200.54 674.375 1200.54 673.854 1200.54C672.86 1200.54 671.819 1200.59 670.73 1200.68C669.642 1200.73 668.6 1200.8 667.606 1200.9C666.66 1200.94 665.926 1200.99 665.405 1201.04V1190.96C666.115 1191 666.991 1191.08 668.032 1191.17C669.074 1191.26 670.115 1191.34 671.156 1191.38C672.245 1191.43 673.144 1191.45 673.854 1191.45C674.47 1191.45 675.44 1191.45 676.765 1191.45C678.091 1191.45 679.605 1191.45 681.309 1191.45C683.013 1191.45 684.765 1191.45 686.563 1191.45C688.409 1191.45 690.161 1191.45 691.817 1191.45C693.521 1191.45 694.989 1191.45 696.219 1191.45C697.45 1191.45 698.349 1191.45 698.917 1191.45C700.479 1191.45 701.899 1191.36 703.177 1191.17C704.503 1190.98 705.52 1190.77 706.23 1190.53L712.052 1194.86ZM696.148 1216.94C697.994 1218.41 699.959 1220.11 702.041 1222.06C704.124 1224 706.183 1226.01 708.218 1228.09C710.254 1230.17 712.123 1232.18 713.827 1234.13C715.579 1236.02 717.046 1237.68 718.229 1239.1L710.135 1246.12C708.384 1243.71 706.372 1241.2 704.1 1238.6C701.876 1235.99 699.509 1233.42 697 1230.86C694.539 1228.26 692.03 1225.79 689.474 1223.48L696.148 1216.94Z" fill="black"/>
<path d="M634.238 1185.49C634.853 1186.34 635.516 1187.36 636.226 1188.54C636.936 1189.73 637.599 1190.91 638.214 1192.09C638.877 1193.28 639.445 1194.32 639.918 1195.22L634.167 1197.63C633.457 1196.17 632.581 1194.51 631.54 1192.66C630.546 1190.77 629.576 1189.14 628.629 1187.76L634.238 1185.49ZM642.616 1182.3C643.279 1183.2 643.965 1184.24 644.675 1185.42C645.385 1186.6 646.071 1187.79 646.734 1188.97C647.444 1190.11 647.988 1191.1 648.367 1191.95L642.758 1194.37C642.001 1192.85 641.101 1191.17 640.06 1189.33C639.019 1187.48 638.001 1185.89 637.007 1184.57L642.616 1182.3ZM603.637 1188.54C603.448 1189.63 603.306 1190.89 603.211 1192.31C603.116 1193.73 603.069 1194.93 603.069 1195.93C603.069 1196.64 603.069 1197.89 603.069 1199.69C603.069 1201.44 603.069 1203.53 603.069 1205.94C603.069 1208.35 603.069 1210.89 603.069 1213.54C603.069 1216.14 603.069 1218.67 603.069 1221.13C603.069 1223.55 603.069 1225.7 603.069 1227.59C603.069 1229.49 603.069 1230.88 603.069 1231.78C603.069 1233.3 603.448 1234.34 604.205 1234.91C604.962 1235.48 606.122 1235.93 607.684 1236.26C608.773 1236.4 610.027 1236.52 611.447 1236.61C612.867 1236.66 614.358 1236.68 615.92 1236.68C617.766 1236.68 619.801 1236.64 622.026 1236.54C624.298 1236.4 626.57 1236.23 628.842 1236.04C631.161 1235.85 633.339 1235.59 635.374 1235.26C637.409 1234.93 639.161 1234.58 640.628 1234.2V1244.56C638.403 1244.9 635.824 1245.16 632.889 1245.34C629.954 1245.58 626.949 1245.75 623.872 1245.84C620.843 1245.98 618.003 1246.05 615.352 1246.05C613.033 1246.05 610.832 1245.98 608.749 1245.84C606.714 1245.7 604.939 1245.51 603.424 1245.27C600.347 1244.66 597.957 1243.5 596.253 1241.79C594.549 1240.04 593.697 1237.65 593.697 1234.62C593.697 1233.25 593.697 1231.48 593.697 1229.3C593.697 1227.07 593.697 1224.64 593.697 1221.99C593.697 1219.29 593.697 1216.59 593.697 1213.89C593.697 1211.15 593.697 1208.57 593.697 1206.15C593.697 1203.69 593.697 1201.56 593.697 1199.76C593.697 1197.96 593.697 1196.69 593.697 1195.93C593.697 1195.41 593.673 1194.7 593.626 1193.8C593.579 1192.9 593.508 1191.98 593.413 1191.03C593.366 1190.08 593.271 1189.25 593.129 1188.54H603.637ZM598.951 1210.34C601.223 1209.87 603.637 1209.3 606.193 1208.64C608.749 1207.93 611.329 1207.17 613.932 1206.37C616.535 1205.56 618.997 1204.76 621.316 1203.95C623.683 1203.1 625.789 1202.27 627.635 1201.47C628.913 1200.99 630.167 1200.45 631.398 1199.83C632.676 1199.22 634.001 1198.48 635.374 1197.63L639.208 1206.65C637.835 1207.17 636.392 1207.76 634.877 1208.42C633.41 1209.04 632.084 1209.56 630.901 1209.99C628.818 1210.79 626.428 1211.64 623.73 1212.54C621.079 1213.44 618.31 1214.34 615.423 1215.24C612.536 1216.09 609.672 1216.9 606.832 1217.65C604.039 1218.41 601.436 1219.07 599.022 1219.64L598.951 1210.34Z" fill="black"/>
<path d="M513.734 1189.04C514.965 1189.89 516.409 1190.93 518.065 1192.16C519.722 1193.39 521.426 1194.74 523.177 1196.21C524.976 1197.63 526.656 1199.03 528.218 1200.4C529.78 1201.77 531.058 1203 532.052 1204.09L524.81 1211.48C523.911 1210.48 522.728 1209.3 521.26 1207.93C519.793 1206.55 518.207 1205.13 516.503 1203.67C514.799 1202.2 513.119 1200.8 511.462 1199.48C509.806 1198.15 508.338 1197.04 507.06 1196.14L513.734 1189.04ZM504.859 1236.33C508.551 1235.8 512.03 1235.07 515.296 1234.12C518.562 1233.18 521.592 1232.09 524.384 1230.86C527.177 1229.63 529.733 1228.35 532.052 1227.02C536.076 1224.61 539.768 1221.86 543.128 1218.79C546.489 1215.71 549.424 1212.52 551.932 1209.2C554.441 1205.84 556.429 1202.58 557.896 1199.41L563.434 1209.42C561.636 1212.59 559.411 1215.76 556.76 1218.93C554.157 1222.1 551.199 1225.13 547.885 1228.02C544.572 1230.86 540.998 1233.41 537.164 1235.69C534.75 1237.15 532.147 1238.55 529.354 1239.88C526.562 1241.15 523.603 1242.29 520.479 1243.28C517.403 1244.32 514.184 1245.13 510.823 1245.7L504.859 1236.33Z" fill="black"/>
<path d="M435.691 1210.12C436.543 1210.17 437.632 1210.24 438.957 1210.34C440.283 1210.39 441.655 1210.43 443.075 1210.48C444.543 1210.53 445.892 1210.55 447.122 1210.55C448.306 1210.55 449.773 1210.55 451.524 1210.55C453.276 1210.55 455.169 1210.55 457.204 1210.55C459.287 1210.55 461.417 1210.55 463.594 1210.55C465.819 1210.55 468.02 1210.55 470.197 1210.55C472.375 1210.55 474.434 1210.55 476.374 1210.55C478.315 1210.55 480.043 1210.55 481.557 1210.55C483.119 1210.55 484.35 1210.55 485.249 1210.55C486.906 1210.55 488.468 1210.5 489.935 1210.41C491.403 1210.27 492.61 1210.17 493.556 1210.12V1221.27C492.752 1221.22 491.545 1221.15 489.935 1221.06C488.326 1220.96 486.764 1220.92 485.249 1220.92C484.35 1220.92 483.119 1220.92 481.557 1220.92C479.995 1220.92 478.244 1220.92 476.303 1220.92C474.363 1220.92 472.304 1220.92 470.126 1220.92C467.996 1220.92 465.819 1220.92 463.594 1220.92C461.37 1220.92 459.216 1220.92 457.133 1220.92C455.098 1220.92 453.205 1220.92 451.453 1220.92C449.749 1220.92 448.306 1220.92 447.122 1220.92C445.087 1220.92 443.004 1220.96 440.874 1221.06C438.744 1221.11 437.017 1221.18 435.691 1221.27V1210.12Z" fill="black"/>
<path d="M422.205 1195.43C422.11 1195.76 421.968 1196.26 421.779 1196.92C421.589 1197.54 421.424 1198.15 421.282 1198.77C421.14 1199.38 421.021 1199.86 420.927 1200.19C420.501 1202.65 419.98 1205.4 419.365 1208.43C418.797 1211.41 417.968 1214.46 416.88 1217.58C415.838 1220.71 414.371 1223.69 412.478 1226.53C409.543 1231.17 405.733 1235.24 401.047 1238.74C396.408 1242.2 391.249 1244.92 385.569 1246.91L377.617 1238.81C380.835 1238.01 384.078 1236.85 387.344 1235.33C390.657 1233.77 393.757 1231.86 396.645 1229.58C399.532 1227.26 401.899 1224.64 403.745 1221.7C404.975 1219.76 406.017 1217.63 406.869 1215.31C407.721 1212.99 408.431 1210.58 408.999 1208.07C409.567 1205.51 409.969 1202.96 410.206 1200.4C409.59 1200.4 408.596 1200.4 407.224 1200.4C405.851 1200.4 404.242 1200.4 402.396 1200.4C400.55 1200.4 398.585 1200.4 396.503 1200.4C394.42 1200.4 392.337 1200.4 390.255 1200.4C388.172 1200.4 386.184 1200.4 384.291 1200.4C382.445 1200.4 380.788 1200.4 379.321 1200.4C377.901 1200.4 376.836 1200.4 376.126 1200.4C376.126 1200.88 376.126 1201.49 376.126 1202.25C376.126 1202.96 376.126 1203.79 376.126 1204.73C376.126 1205.63 376.126 1206.56 376.126 1207.5C376.126 1208.4 376.126 1209.28 376.126 1210.13C376.126 1210.93 376.126 1211.64 376.126 1212.26C376.126 1212.78 376.126 1213.61 376.126 1214.74C376.173 1215.83 376.268 1216.95 376.41 1218.08H365.973C366.067 1216.95 366.138 1215.93 366.186 1215.03C366.28 1214.13 366.328 1213.21 366.328 1212.26C366.328 1211.55 366.328 1210.53 366.328 1209.21C366.328 1207.88 366.328 1206.46 366.328 1204.95C366.328 1203.38 366.328 1201.92 366.328 1200.54C366.328 1199.17 366.328 1198.08 366.328 1197.28C366.328 1196.28 366.28 1195.29 366.186 1194.3C366.138 1193.26 366.067 1192.26 365.973 1191.31C367.109 1191.36 368.434 1191.43 369.949 1191.53C371.463 1191.57 373.049 1191.6 374.706 1191.6C375.084 1191.6 375.889 1191.6 377.12 1191.6C378.398 1191.6 379.936 1191.6 381.735 1191.6C383.533 1191.6 385.498 1191.6 387.628 1191.6C389.758 1191.6 391.888 1191.6 394.018 1191.6C396.195 1191.6 398.254 1191.6 400.195 1191.6C402.135 1191.6 403.839 1191.6 405.307 1191.6C406.774 1191.6 407.886 1191.6 408.644 1191.6C409.827 1191.6 410.987 1191.55 412.123 1191.46C413.306 1191.36 414.371 1191.24 415.318 1191.1L422.205 1195.43Z" fill="black"/>
<path d="M293.691 1210.12C294.543 1210.17 295.632 1210.24 296.957 1210.34C298.283 1210.39 299.655 1210.43 301.075 1210.48C302.543 1210.53 303.892 1210.55 305.122 1210.55C306.306 1210.55 307.773 1210.55 309.524 1210.55C311.276 1210.55 313.169 1210.55 315.204 1210.55C317.287 1210.55 319.417 1210.55 321.594 1210.55C323.819 1210.55 326.02 1210.55 328.197 1210.55C330.375 1210.55 332.434 1210.55 334.374 1210.55C336.315 1210.55 338.043 1210.55 339.557 1210.55C341.119 1210.55 342.35 1210.55 343.249 1210.55C344.906 1210.55 346.468 1210.5 347.935 1210.41C349.403 1210.27 350.61 1210.17 351.556 1210.12V1221.27C350.752 1221.22 349.545 1221.15 347.935 1221.06C346.326 1220.96 344.764 1220.92 343.249 1220.92C342.35 1220.92 341.119 1220.92 339.557 1220.92C337.995 1220.92 336.244 1220.92 334.303 1220.92C332.363 1220.92 330.304 1220.92 328.126 1220.92C325.996 1220.92 323.819 1220.92 321.594 1220.92C319.37 1220.92 317.216 1220.92 315.133 1220.92C313.098 1220.92 311.205 1220.92 309.453 1220.92C307.749 1220.92 306.306 1220.92 305.122 1220.92C303.087 1220.92 301.004 1220.96 298.874 1221.06C296.744 1221.11 295.017 1221.18 293.691 1221.27V1210.12Z" fill="black"/>
<path d="M269.268 1211.62C269.268 1216.02 268.937 1220.02 268.274 1223.62C267.659 1227.17 266.57 1230.41 265.008 1233.34C263.446 1236.23 261.269 1238.84 258.476 1241.15C255.683 1243.47 252.157 1245.58 247.897 1247.47L240.3 1240.3C243.708 1239.12 246.643 1237.79 249.104 1236.33C251.613 1234.86 253.672 1233.06 255.281 1230.93C256.89 1228.75 258.074 1226.15 258.831 1223.12C259.636 1220.04 260.038 1216.33 260.038 1211.97V1193.09C260.038 1191.62 259.991 1190.34 259.896 1189.25C259.801 1188.12 259.707 1187.19 259.612 1186.48H269.765C269.67 1187.19 269.552 1188.12 269.41 1189.25C269.315 1190.34 269.268 1191.62 269.268 1193.09V1211.62ZM243.637 1187.12C243.542 1187.79 243.448 1188.69 243.353 1189.82C243.258 1190.91 243.211 1192.14 243.211 1193.51V1218.93C243.211 1219.97 243.235 1220.99 243.282 1221.98C243.329 1222.93 243.353 1223.78 243.353 1224.54C243.4 1225.25 243.448 1225.87 243.495 1226.39H233.555C233.65 1225.87 233.721 1225.25 233.768 1224.54C233.815 1223.78 233.863 1222.93 233.91 1221.98C233.957 1220.99 233.981 1219.97 233.981 1218.93V1193.51C233.981 1192.47 233.934 1191.41 233.839 1190.32C233.792 1189.23 233.697 1188.16 233.555 1187.12H243.637ZM220.207 1199.9C220.68 1199.95 221.296 1200.05 222.053 1200.19C222.81 1200.28 223.686 1200.38 224.68 1200.47C225.674 1200.52 226.763 1200.54 227.946 1200.54H274.522C276.415 1200.54 277.954 1200.5 279.137 1200.4C280.32 1200.31 281.385 1200.19 282.332 1200.05V1209.49C281.575 1209.39 280.557 1209.35 279.279 1209.35C278.001 1209.3 276.415 1209.28 274.522 1209.28H227.946C226.763 1209.28 225.674 1209.3 224.68 1209.35C223.733 1209.35 222.881 1209.37 222.124 1209.42C221.414 1209.46 220.775 1209.51 220.207 1209.56V1199.9Z" fill="black"/>
</svg>
