<svg width="1080" height="1920" viewBox="0 0 1080 1920" fill="none" xmlns="http://www.w3.org/2000/svg">
<path d="M1080 1920L1080 0L0 0L0 1920H1080Z" fill="#A5D4AD"/>
<path d="M1020 983.72V95C1020 75.67 1004.33 60 985 60H95.58C75.93 60 60 75.93 60 95.58V983.71C60 984.03 60.25 984.28 60.57 984.28C80.03 984.59 95.71 1000.46 95.71 1019.99C95.71 1039.52 80.03 1055.39 60.57 1055.7C60.25 1055.7 60 1055.96 60 1056.27V1824.99C60 1844.32 75.67 1859.99 95 1859.99H985C1004.33 1859.99 1020 1844.32 1020 1824.99V1056.27C1020 1055.95 1019.75 1055.7 1019.43 1055.7C999.97 1055.39 984.29 1039.52 984.29 1019.99C984.29 1000.46 999.97 984.59 1019.43 984.28C1019.75 984.28 1020 984.02 1020 983.71V983.72Z" fill="white"/>
<path d="M60.57 1055.71C60.25 1055.71 60 1055.97 60 1056.28V1825C60 1844.33 75.67 1860 95 1860H985C1004.33 1860 1020 1844.33 1020 1825V1056.28C1020 1055.96 1019.75 1055.71 1019.43 1055.71C999.97 1055.4 984.29 1039.53 984.29 1020H95.71C95.71 1039.53 80.03 1055.4 60.57 1055.71Z" fill="#E5F2E6"/>
<path d="M121 1020H160.9" stroke="black" stroke-width="6" stroke-miterlimit="10"/>
<path d="M187.51 1020H227.41" stroke="black" stroke-width="6" stroke-miterlimit="10"/>
<path d="M254.02 1020H293.92" stroke="black" stroke-width="6" stroke-miterlimit="10"/>
<path d="M320.52 1020H360.43" stroke="black" stroke-width="6" stroke-miterlimit="10"/>
<path d="M387.03 1020H426.94" stroke="black" stroke-width="6" stroke-miterlimit="10"/>
<path d="M453.54 1020H493.44" stroke="black" stroke-width="6" stroke-miterlimit="10"/>
<path d="M520.05 1020H559.95" stroke="black" stroke-width="6" stroke-miterlimit="10"/>
<path d="M586.56 1020H626.46" stroke="black" stroke-width="6" stroke-miterlimit="10"/>
<path d="M653.06 1020H692.97" stroke="black" stroke-width="6" stroke-miterlimit="10"/>
<path d="M719.57 1020H759.48" stroke="black" stroke-width="6" stroke-miterlimit="10"/>
<path d="M786.08 1020H825.98" stroke="black" stroke-width="6" stroke-miterlimit="10"/>
<path d="M852.59 1020H892.49" stroke="black" stroke-width="6" stroke-miterlimit="10"/>
<path d="M919.1 1020H959" stroke="black" stroke-width="6" stroke-miterlimit="10"/>
<path d="M1020 984.29V95C1020 75.67 1004.33 60 985 60H95C75.67 60 60 75.67 60 95V984.29C79.72 984.29 95.71 1000.28 95.71 1020C95.71 1039.72 79.72 1055.71 60 1055.71V1825C60 1844.33 75.67 1860 95 1860H985C1004.33 1860 1020 1844.33 1020 1825V1055.71C1000.28 1055.71 984.29 1039.72 984.29 1020C984.29 1000.28 1000.28 984.29 1020 984.29Z" stroke="black" stroke-width="6" stroke-miterlimit="10"/>
<path d="M912.65 525.666C908.78 525.666 905.54 522.646 905.32 518.736C900.59 435.626 868.79 358.856 813.37 296.746C810.67 293.716 810.93 289.066 813.96 286.366C816.99 283.666 821.63 283.926 824.34 286.956C882 351.576 915.07 431.436 920 517.896C920.23 521.946 917.13 525.426 913.08 525.656C912.94 525.656 912.8 525.666 912.66 525.666H912.65Z" fill="black"/>
<path d="M818.85 795.517C817.11 795.517 815.36 794.897 813.96 793.647C810.93 790.947 810.67 786.297 813.37 783.267C868.79 721.157 900.59 644.387 905.32 561.277C905.55 557.227 909.03 554.117 913.08 554.357C917.13 554.587 920.23 558.057 920 562.117C915.07 648.587 882 728.447 824.34 793.057C822.89 794.687 820.87 795.517 818.85 795.517Z" fill="black"/>
<path d="M167.36 525.666C167.22 525.666 167.08 525.666 166.94 525.656C162.89 525.426 159.79 521.956 160.02 517.896C164.95 431.426 198.02 351.566 255.68 286.956C258.38 283.926 263.03 283.666 266.06 286.366C269.09 289.066 269.35 293.716 266.65 296.746C211.23 358.856 179.43 435.616 174.7 518.736C174.48 522.646 171.24 525.666 167.37 525.666H167.36Z" fill="black"/>
<path d="M261.17 795.517C259.15 795.517 257.13 794.687 255.68 793.057C198.02 728.437 164.95 648.577 160.02 562.117C159.79 558.067 162.89 554.587 166.94 554.357C170.99 554.117 174.47 557.227 174.7 561.277C179.43 644.397 211.23 721.157 266.65 783.267C269.35 786.297 269.09 790.947 266.06 793.647C264.66 794.897 262.91 795.517 261.17 795.517Z" fill="black"/>
<path d="M788.169 268.511C786.429 268.511 784.679 267.891 783.279 266.641C721.169 211.221 644.399 179.421 561.289 174.691C557.239 174.461 554.139 170.991 554.369 166.931C554.599 162.881 558.039 159.791 562.129 160.011C648.599 164.941 728.459 198.011 793.069 255.671C796.099 258.371 796.359 263.021 793.659 266.051C792.209 267.681 790.189 268.511 788.169 268.511Z" fill="black"/>
<path d="M291.85 268.512C289.83 268.512 287.81 267.682 286.36 266.052C283.66 263.022 283.92 258.372 286.95 255.672C351.57 198.012 431.43 164.942 517.89 160.012C521.94 159.782 525.42 162.882 525.65 166.932C525.88 170.982 522.78 174.462 518.73 174.692C435.62 179.422 358.85 211.222 296.74 266.642C295.34 267.892 293.59 268.512 291.85 268.512Z" fill="black"/>
<path d="M561.69 920.006C557.82 920.006 554.58 916.986 554.36 913.076C554.13 909.026 557.23 905.546 561.28 905.316C644.4 900.586 721.16 868.786 783.27 813.366C786.3 810.666 790.95 810.926 793.65 813.956C796.35 816.986 796.09 821.636 793.06 824.336C728.44 881.996 648.58 915.066 562.12 919.996C561.98 919.996 561.84 920.006 561.7 920.006H561.69Z" fill="black"/>
<path d="M518.32 920.006C518.18 920.006 518.04 920.006 517.9 919.996C431.43 915.066 351.57 881.996 286.96 824.336C283.93 821.636 283.67 816.986 286.37 813.956C289.07 810.926 293.72 810.666 296.75 813.366C358.86 868.786 435.63 900.586 518.74 905.316C522.79 905.546 525.89 909.016 525.66 913.076C525.44 916.986 522.2 920.006 518.33 920.006H518.32Z" fill="black"/>
<path d="M875.38 526.189C872.37 526.189 869.85 523.839 869.68 520.799C865.41 445.789 836.71 376.519 786.7 320.459C784.6 318.099 784.8 314.489 787.16 312.389C789.51 310.289 793.13 310.489 795.23 312.849C846.98 370.849 876.68 442.539 881.1 520.149C881.28 523.299 878.87 525.999 875.72 526.179C875.61 526.179 875.5 526.179 875.39 526.179L875.38 526.189Z" fill="black"/>
<path d="M790.96 769.062C789.6 769.062 788.25 768.582 787.16 767.612C784.8 765.512 784.6 761.892 786.7 759.542C836.71 703.492 865.41 634.212 869.68 559.202C869.86 556.052 872.55 553.642 875.71 553.822C878.86 554.002 881.27 556.702 881.09 559.852C876.67 637.472 846.98 709.152 795.22 767.152C794.09 768.422 792.52 769.062 790.95 769.062H790.96Z" fill="black"/>
<path d="M204.63 526.187C204.52 526.187 204.41 526.187 204.3 526.187C201.15 526.007 198.74 523.307 198.92 520.157C203.34 442.537 233.03 370.857 284.79 312.857C286.89 310.497 290.51 310.297 292.86 312.397C295.22 314.497 295.42 318.117 293.32 320.467C243.31 376.517 214.61 445.797 210.34 520.807C210.17 523.847 207.65 526.197 204.64 526.197L204.63 526.187Z" fill="black"/>
<path d="M289.05 769.055C287.48 769.055 285.91 768.405 284.78 767.145C233.03 709.145 203.33 637.455 198.91 559.845C198.73 556.695 201.14 553.995 204.29 553.815C207.45 553.625 210.14 556.045 210.32 559.195C214.59 634.205 243.29 703.485 293.3 759.535C295.4 761.895 295.2 765.505 292.84 767.605C291.75 768.575 290.39 769.055 289.04 769.055H289.05Z" fill="black"/>
<path d="M763.35 294.756C761.99 294.756 760.64 294.276 759.55 293.306C703.5 243.296 634.22 214.596 559.21 210.326C556.06 210.146 553.65 207.446 553.83 204.296C554.01 201.146 556.7 198.736 559.86 198.916C637.48 203.336 709.16 233.026 767.16 284.786C769.52 286.886 769.72 290.506 767.62 292.856C766.49 294.126 764.92 294.766 763.35 294.766V294.756Z" fill="black"/>
<path d="M316.66 294.759C315.09 294.759 313.52 294.109 312.39 292.849C310.29 290.489 310.49 286.879 312.85 284.779C370.85 233.029 442.54 203.329 520.15 198.909C523.3 198.719 526 201.139 526.18 204.289C526.36 207.439 523.95 210.139 520.8 210.319C445.79 214.589 376.52 243.289 320.46 293.299C319.37 294.269 318.01 294.749 316.66 294.749V294.759Z" fill="black"/>
<path d="M559.53 881.102C556.52 881.102 554 878.752 553.83 875.712C553.65 872.562 556.06 869.862 559.21 869.682C634.22 865.412 703.49 836.712 759.55 786.702C761.9 784.602 765.52 784.802 767.62 787.162C769.72 789.522 769.52 793.132 767.16 795.232C709.16 846.982 637.47 876.682 559.86 881.102C559.75 881.102 559.64 881.102 559.53 881.102Z" fill="black"/>
<path d="M520.49 881.102C520.38 881.102 520.27 881.102 520.16 881.102C442.54 876.682 370.86 846.992 312.86 795.232C310.5 793.132 310.3 789.512 312.4 787.162C314.5 784.802 318.12 784.602 320.47 786.702C376.52 836.722 445.8 865.412 520.81 869.682C523.96 869.862 526.37 872.562 526.19 875.712C526.02 878.752 523.5 881.102 520.49 881.102Z" fill="black"/>
<path d="M841.849 526.514C839.699 526.514 837.899 524.834 837.779 522.664C833.919 454.914 807.999 392.344 762.829 341.714C761.329 340.034 761.479 337.454 763.159 335.944C764.839 334.444 767.419 334.584 768.929 336.274C815.349 388.294 841.979 452.584 845.939 522.194C846.069 524.444 844.349 526.374 842.089 526.504C842.009 526.504 841.929 526.504 841.849 526.504V526.514Z" fill="black"/>
<path d="M765.869 745.106C764.899 745.106 763.929 744.766 763.149 744.066C761.469 742.566 761.319 739.986 762.819 738.296C807.989 687.666 833.909 625.096 837.769 557.346C837.899 555.096 839.859 553.396 842.079 553.496C844.329 553.626 846.049 555.556 845.929 557.806C841.959 627.416 815.329 691.706 768.919 743.726C768.109 744.626 766.989 745.086 765.869 745.086V745.106Z" fill="black"/>
<path d="M238.17 526.516C238.09 526.516 238.01 526.516 237.93 526.516C235.68 526.386 233.96 524.456 234.08 522.206C238.05 452.596 264.68 388.306 311.09 336.286C312.59 334.606 315.17 334.456 316.86 335.956C318.54 337.456 318.69 340.036 317.19 341.726C272.02 392.356 246.1 454.926 242.24 522.676C242.12 524.846 240.32 526.526 238.17 526.526V526.516Z" fill="black"/>
<path d="M314.14 745.103C313.02 745.103 311.9 744.643 311.09 743.743C264.67 691.723 238.04 627.433 234.08 557.823C233.95 555.573 235.67 553.643 237.93 553.513C240.17 553.403 242.11 555.103 242.24 557.363C246.1 625.113 272.02 687.683 317.19 738.313C318.69 739.993 318.54 742.573 316.86 744.083C316.08 744.773 315.11 745.123 314.14 745.123V745.103Z" fill="black"/>
<path d="M741.02 318.225C740.05 318.225 739.08 317.885 738.3 317.185C687.67 272.015 625.1 246.095 557.35 242.235C555.1 242.105 553.38 240.175 553.5 237.925C553.63 235.675 555.55 233.965 557.81 234.075C627.42 238.045 691.71 264.675 743.74 311.085C745.42 312.585 745.57 315.165 744.07 316.855C743.26 317.755 742.14 318.215 741.02 318.215V318.225Z" fill="black"/>
<path d="M339 318.224C337.88 318.224 336.76 317.764 335.95 316.864C334.45 315.184 334.6 312.604 336.28 311.094C388.3 264.674 452.59 238.044 522.2 234.084C524.45 233.964 526.38 235.674 526.51 237.934C526.64 240.184 524.92 242.114 522.66 242.244C454.91 246.104 392.34 272.024 341.71 317.194C340.93 317.884 339.96 318.234 338.99 318.234L339 318.224Z" fill="black"/>
<path d="M557.57 845.933C555.42 845.933 553.62 844.253 553.5 842.083C553.37 839.833 555.09 837.903 557.35 837.773C625.1 833.913 687.67 807.993 738.3 762.823C739.98 761.323 742.56 761.473 744.07 763.153C745.57 764.833 745.42 767.413 743.74 768.923C691.72 815.343 627.43 841.973 557.81 845.933C557.73 845.933 557.65 845.933 557.57 845.933Z" fill="black"/>
<path d="M522.44 845.933C522.36 845.933 522.28 845.933 522.2 845.933C452.59 841.963 388.3 815.333 336.28 768.923C334.6 767.423 334.45 764.843 335.95 763.153C337.45 761.473 340.03 761.323 341.72 762.823C392.35 807.993 454.92 833.913 522.67 837.773C524.92 837.903 526.64 839.833 526.52 842.083C526.4 844.253 524.6 845.933 522.45 845.933H522.44Z" fill="black"/>
<path d="M320.65 546.174C320.65 544.604 321.79 543.274 323.34 543.024C324.64 542.814 326.27 542.524 327.98 542.124C332.4 541.084 337.59 539.114 343.41 536.274C349.29 533.404 354.92 529.414 359.17 523.674C366.34 513.974 367.86 501.404 368.19 496.894C368.26 495.974 367.53 495.194 366.6 495.194H317.09C315.33 495.194 313.91 493.764 313.91 492.014V470.694C313.91 468.934 315.34 467.514 317.09 467.514H367.07C367.95 467.514 368.66 466.804 368.66 465.924V447.184C368.66 446.304 367.95 445.594 367.07 445.594H328.62C326.86 445.594 325.44 444.164 325.44 442.414V421.094C325.44 419.334 326.87 417.914 328.62 417.914H428.96C430.72 417.914 432.14 419.344 432.14 421.094V442.414C432.14 444.174 430.71 445.594 428.96 445.594H398.52C397.64 445.594 396.93 446.304 396.93 447.184V465.924C396.93 466.804 397.64 467.514 398.52 467.514H438.58C440.34 467.514 441.76 468.944 441.76 470.694V492.014C441.76 493.774 440.33 495.194 438.58 495.194H398.39C397.54 495.194 396.84 495.864 396.8 496.714C396.57 501.754 395.15 518.444 386.18 532.854C380.73 541.614 373.65 548.264 366.54 553.544C359.41 558.844 352.26 562.934 345.27 565.704C338.24 568.494 332.34 570.444 327.75 571.514C326.66 571.764 325.49 571.994 324.4 572.184C322.45 572.534 320.66 571.034 320.66 569.044V546.164L320.65 546.174Z" fill="black"/>
<path d="M474.55 546.522C474.55 545.062 475.55 543.792 476.96 543.432C485.21 541.362 488.93 540.112 496.84 536.322C496.84 536.322 500.89 534.212 504.93 531.302C517.11 522.542 525.22 510.632 525.22 510.632C534.68 497.282 537.77 474.912 538.49 468.492C538.6 467.552 537.86 466.722 536.91 466.722H500.58C500.35 466.722 500.14 466.842 500.03 467.042L499.88 467.292C494.3 478.112 486.88 487.992 480.45 494.242C474 500.502 468.59 505.052 464.38 507.752L461.78 509.422C460.72 510.102 459.33 509.342 459.33 508.082V479.892C459.33 478.952 459.75 478.062 460.47 477.452C461.12 476.902 461.99 476.132 463.18 475.062C465.94 472.572 469.05 468.512 472.42 462.982C475.76 457.512 479.35 450.212 483.07 441.292C486.45 433.202 488.98 423.092 490.86 412.062C491.12 410.532 492.45 409.422 494 409.422H513.91C515.91 409.422 517.42 411.252 517.04 413.212C516.4 416.522 515.71 420.882 514.85 424.312C513.58 429.392 512.76 432.302 511.24 436.722C510.98 437.472 511.54 438.242 512.33 438.242H591.18C592.94 438.242 594.36 439.672 594.36 441.422V463.512C594.36 465.272 592.93 466.692 591.18 466.692H568.14C567.33 466.692 566.64 467.302 566.56 468.112C565.93 474.012 562.88 497.162 552.39 517.262C538.29 546.002 508.14 566.392 478.34 572.132C476.38 572.512 474.56 571.002 474.56 569.002V546.482L474.55 546.522Z" fill="black"/>
<path d="M675.899 411.035V468.875C675.899 469.755 676.609 470.465 677.489 470.465H764.519C765.399 470.465 766.109 469.755 766.109 468.875V411.035C766.109 410.155 765.399 409.445 764.519 409.445H677.489C676.609 409.445 675.899 410.155 675.899 411.035ZM738.459 452.745H702.299C701.419 452.745 700.709 452.035 700.709 451.155V446.875C700.709 445.995 701.419 445.285 702.299 445.285H738.459C739.339 445.285 740.049 445.995 740.049 446.875V451.155C740.049 452.035 739.339 452.745 738.459 452.745ZM738.459 434.455H702.299C701.419 434.455 700.709 433.745 700.709 432.865V428.755C700.709 427.875 701.419 427.165 702.299 427.165H738.459C739.339 427.165 740.049 427.875 740.049 428.755V432.865C740.049 433.745 739.339 434.455 738.459 434.455Z" fill="black"/>
<path d="M674.23 497.342H728.27C729.15 497.342 729.86 498.052 729.86 498.932V502.842C729.86 503.722 729.15 504.432 728.27 504.432H667.76C666 504.432 664.58 505.862 664.58 507.612V522.862C664.58 524.622 666.01 526.042 667.76 526.042H728.27C729.15 526.042 729.86 526.752 729.86 527.632V545.392C729.86 546.112 729.94 547.982 729.22 548.852C728.39 549.872 727.15 549.672 725.85 549.722C722.54 549.722 719.58 549.702 716.95 549.662C716.55 549.662 716.26 549.292 716.34 548.902C716.6 547.632 716.73 546.312 716.7 544.962C716.5 535.682 708.94 528.082 699.66 527.842C689.58 527.582 681.37 535.852 681.71 545.942C682.02 555.292 689.79 562.812 699.15 562.842C704.04 562.852 708.46 560.862 711.64 557.642C711.98 557.302 712.55 557.432 712.7 557.882C714.16 562.212 715.54 566.342 716.79 570.052C717.23 571.352 718.46 572.222 719.83 572.212C725.73 572.172 730.51 571.962 734.18 571.602C738.31 571.182 742.09 570.152 745.52 568.502C749.18 566.842 751.69 564.422 753.05 561.232C754.41 558.042 755.09 553.552 755.09 547.762V527.622C755.09 526.742 755.8 526.032 756.68 526.032H762.91C764.67 526.032 766.09 524.602 766.09 522.852V507.602C766.09 505.842 764.66 504.422 762.91 504.422H756.68C755.8 504.422 755.09 503.712 755.09 502.832V498.922C755.09 498.042 755.8 497.332 756.68 497.332H762.91C764.67 497.332 766.09 495.902 766.09 494.152V479.602C766.09 477.842 764.66 476.422 762.91 476.422H674.21C672.45 476.422 671.03 477.852 671.03 479.602V494.152C671.03 495.912 672.46 497.332 674.21 497.332L674.23 497.342Z" fill="black"/>
<path d="M668.83 409.445H650.26C649.4 409.445 648.58 409.795 647.98 410.405C635.23 423.355 618.29 434.575 612.13 438.485C610.78 439.335 610.28 441.065 610.95 442.505L620.7 463.575C621.63 465.575 624.26 466.055 625.83 464.505C646.12 444.465 664.45 419.805 670.12 411.965C670.88 410.915 670.12 409.445 668.83 409.445Z" fill="black"/>
<path d="M671.92 453.899V435.419C671.92 434.009 670.22 433.299 669.21 434.289C653.64 449.609 620.05 477.069 611.68 483.869C610.55 484.789 610.19 486.359 610.8 487.679L620.7 509.059C621.63 511.059 624.26 511.539 625.83 509.989C627.54 508.299 629.24 506.569 630.92 504.829C631.32 504.419 632.02 504.699 632.02 505.269V569.069C632.02 570.829 633.45 572.249 635.2 572.249H653.82C655.58 572.249 657 570.819 657 569.069V476.379C657 475.309 657.36 474.259 658.03 473.419C664.87 464.739 669.72 458.029 671.34 455.749C671.72 455.209 671.93 454.569 671.93 453.899H671.92Z" fill="black"/>
<path d="M653.27 623.338C640.85 623.338 634.81 628.288 634.81 638.478V655.608C634.81 665.678 640.85 670.568 653.27 670.568C659.14 670.568 663.48 669.488 666.56 667.278C670 664.808 671.74 660.878 671.74 655.598V638.468C671.74 628.278 665.7 623.328 653.28 623.328L653.27 623.338ZM646.09 639.308C646.09 633.938 648.84 632.918 653.27 632.918C657.7 632.918 660.45 633.958 660.45 639.308V654.688C660.45 659.958 657.6 660.988 653.27 660.988C648.94 660.988 646.09 659.988 646.09 654.688V639.308Z" fill="black"/>
<path d="M708.27 669.334H721.36L703.63 646.784L720.56 624.804H707.4L694.06 642.284V610.234H682.77V669.334H694.06V659.214L696.95 655.454L708.27 669.334Z" fill="black"/>
<path d="M754.82 624.805V653.295C754.82 659.045 751.88 660.895 746.83 660.895C743.56 660.895 740.28 660.355 740.28 653.885V624.815H729V656.775C729 665.745 733.71 670.485 742.62 670.485C749.3 670.485 753.88 666.865 755.58 662.805L757.39 669.345H766.11V624.815H754.83L754.82 624.805Z" fill="black"/>
<path d="M630.57 610.234H589.15V620.144V620.154H604.22V669.334H615.69V620.154H630.57V610.234Z" fill="black"/>
<path d="M459.69 669.334H472.78L455.05 646.784L471.98 624.804H458.82L445.48 642.284V610.234H434.2V669.334H445.48V659.214L448.37 655.454L459.69 669.334Z" fill="black"/>
<path d="M355.33 610.234H313.91V620.144V620.154H328.99V669.334H340.45V620.154H355.33V610.234Z" fill="black"/>
<path d="M421.8 658.896L421.2 659.046C417.62 659.966 413.29 660.896 409.41 660.896C404.86 660.896 401.69 658.826 401.69 652.836V640.976C401.69 634.906 404.86 632.826 409.41 632.826C413.36 632.826 417.88 633.706 421.23 634.406L421.81 634.526V625.196L421.5 625.126C417.69 624.236 412.05 623.336 407.53 623.336C402.01 623.336 397.97 624.406 395.17 626.596C391.97 629.096 390.42 633.856 390.42 639.346V654.646C390.42 664.776 396.02 670.566 407.54 670.566C411.41 670.566 417.27 669.496 421.53 668.316L421.82 668.236V658.886L421.8 658.896Z" fill="black"/>
<path d="M553.93 634.705V624.805H543.69V615.195H532.41V624.805H525.18V634.705H532.41V655.425C532.41 667.945 540.3 670.565 546.93 670.565C548.71 670.565 550.51 670.455 552.12 670.225V660.265C551.47 660.335 550.26 660.365 549.54 660.365C546.46 660.365 543.69 659.735 543.69 652.095V634.695H553.93V634.705Z" fill="black"/>
<path d="M489.739 650.742V650.562H515.169V641.482C515.169 635.572 513.549 630.243 510.359 627.343C507.419 624.673 502.779 623.312 497.259 623.312C485.079 623.312 478.459 629.223 478.459 639.593V654.453C478.459 664.703 483.839 670.552 496.319 670.552C500.979 670.552 506.289 669.563 511.969 668.403L512.359 668.323V659.052L511.709 659.203C507.139 660.253 504.619 661.143 500.289 661.143C494.079 661.143 489.739 658.623 489.739 652.203V650.722V650.742ZM489.739 639.722C489.739 634.072 493.799 632.742 497.169 632.742C500.539 632.742 504.069 634.072 504.069 639.722V643.232H489.739V642.713V639.722Z" fill="black"/>
<path d="M378.179 626.883H366.899V669.333H378.179V626.883Z" fill="black"/>
<path d="M372.54 622.224C376.422 622.224 379.57 619.077 379.57 615.194C379.57 611.312 376.422 608.164 372.54 608.164C368.657 608.164 365.51 611.312 365.51 615.194C365.51 619.077 368.657 622.224 372.54 622.224Z" fill="black"/>
<path d="M585.74 643.922H566.15V651.262H585.74V643.922Z" fill="black"/>
<path d="M724.9 1653.2C724.5 1653.8 723.9 1654.73 723.1 1656C722.367 1657.27 721.8 1658.43 721.4 1659.5C720 1662.63 718.267 1666.13 716.2 1670C714.2 1673.87 711.9 1677.77 709.3 1681.7C706.767 1685.57 704.067 1689.2 701.2 1692.6C697.467 1696.8 693.333 1700.97 688.8 1705.1C684.333 1709.17 679.6 1712.93 674.6 1716.4C669.667 1719.8 664.6 1722.73 659.4 1725.2L649.1 1714.4C654.5 1712.33 659.733 1709.73 664.8 1706.6C669.867 1703.47 674.567 1700.07 678.9 1696.4C683.233 1692.73 686.967 1689.17 690.1 1685.7C692.3 1683.17 694.367 1680.47 696.3 1677.6C698.3 1674.73 700.067 1671.9 701.6 1669.1C703.133 1666.23 704.267 1663.6 705 1661.2C704.333 1661.2 703.133 1661.2 701.4 1661.2C699.667 1661.2 697.633 1661.2 695.3 1661.2C693.033 1661.2 690.633 1661.2 688.1 1661.2C685.567 1661.2 683.133 1661.2 680.8 1661.2C678.533 1661.2 676.533 1661.2 674.8 1661.2C673.067 1661.2 671.833 1661.2 671.1 1661.2C669.7 1661.2 668.233 1661.27 666.7 1661.4C665.167 1661.47 663.7 1661.57 662.3 1661.7C660.967 1661.77 659.933 1661.83 659.2 1661.9V1647.7C660.2 1647.77 661.433 1647.87 662.9 1648C664.367 1648.13 665.833 1648.23 667.3 1648.3C668.833 1648.37 670.1 1648.4 671.1 1648.4C671.967 1648.4 673.333 1648.4 675.2 1648.4C677.067 1648.4 679.2 1648.4 681.6 1648.4C684 1648.4 686.467 1648.4 689 1648.4C691.6 1648.4 694.067 1648.4 696.4 1648.4C698.8 1648.4 700.867 1648.4 702.6 1648.4C704.333 1648.4 705.6 1648.4 706.4 1648.4C708.6 1648.4 710.6 1648.27 712.4 1648C714.267 1647.73 715.7 1647.43 716.7 1647.1L724.9 1653.2ZM702.5 1684.3C705.1 1686.37 707.867 1688.77 710.8 1691.5C713.733 1694.23 716.633 1697.07 719.5 1700C722.367 1702.93 725 1705.77 727.4 1708.5C729.867 1711.17 731.933 1713.5 733.6 1715.5L722.2 1725.4C719.733 1722 716.9 1718.47 713.7 1714.8C710.567 1711.13 707.233 1707.5 703.7 1703.9C700.233 1700.23 696.7 1696.77 693.1 1693.5L702.5 1684.3Z" fill="black"/>
<path d="M615.3 1640C616.167 1641.2 617.1 1642.63 618.1 1644.3C619.1 1645.97 620.033 1647.63 620.9 1649.3C621.833 1650.97 622.633 1652.43 623.3 1653.7L615.2 1657.1C614.2 1655.03 612.967 1652.7 611.5 1650.1C610.1 1647.43 608.733 1645.13 607.4 1643.2L615.3 1640ZM627.1 1635.5C628.033 1636.77 629 1638.23 630 1639.9C631 1641.57 631.967 1643.23 632.9 1644.9C633.9 1646.5 634.667 1647.9 635.2 1649.1L627.3 1652.5C626.233 1650.37 624.967 1648 623.5 1645.4C622.033 1642.8 620.6 1640.57 619.2 1638.7L627.1 1635.5ZM572.2 1644.3C571.933 1645.83 571.733 1647.6 571.6 1649.6C571.467 1651.6 571.4 1653.3 571.4 1654.7C571.4 1655.7 571.4 1657.47 571.4 1660C571.4 1662.47 571.4 1665.4 571.4 1668.8C571.4 1672.2 571.4 1675.77 571.4 1679.5C571.4 1683.17 571.4 1686.73 571.4 1690.2C571.4 1693.6 571.4 1696.63 571.4 1699.3C571.4 1701.97 571.4 1703.93 571.4 1705.2C571.4 1707.33 571.933 1708.8 573 1709.6C574.067 1710.4 575.7 1711.03 577.9 1711.5C579.433 1711.7 581.2 1711.87 583.2 1712C585.2 1712.07 587.3 1712.1 589.5 1712.1C592.1 1712.1 594.967 1712.03 598.1 1711.9C601.3 1711.7 604.5 1711.47 607.7 1711.2C610.967 1710.93 614.033 1710.57 616.9 1710.1C619.767 1709.63 622.233 1709.13 624.3 1708.6V1723.2C621.167 1723.67 617.533 1724.03 613.4 1724.3C609.267 1724.63 605.033 1724.87 600.7 1725C596.433 1725.2 592.433 1725.3 588.7 1725.3C585.433 1725.3 582.333 1725.2 579.4 1725C576.533 1724.8 574.033 1724.53 571.9 1724.2C567.567 1723.33 564.2 1721.7 561.8 1719.3C559.4 1716.83 558.2 1713.47 558.2 1709.2C558.2 1707.27 558.2 1704.77 558.2 1701.7C558.2 1698.57 558.2 1695.13 558.2 1691.4C558.2 1687.6 558.2 1683.8 558.2 1680C558.2 1676.13 558.2 1672.5 558.2 1669.1C558.2 1665.63 558.2 1662.63 558.2 1660.1C558.2 1657.57 558.2 1655.77 558.2 1654.7C558.2 1653.97 558.167 1652.97 558.1 1651.7C558.033 1650.43 557.933 1649.13 557.8 1647.8C557.733 1646.47 557.6 1645.3 557.4 1644.3H572.2ZM565.6 1675C568.8 1674.33 572.2 1673.53 575.8 1672.6C579.4 1671.6 583.033 1670.53 586.7 1669.4C590.367 1668.27 593.833 1667.13 597.1 1666C600.433 1664.8 603.4 1663.63 606 1662.5C607.8 1661.83 609.567 1661.07 611.3 1660.2C613.1 1659.33 614.967 1658.3 616.9 1657.1L622.3 1669.8C620.367 1670.53 618.333 1671.37 616.2 1672.3C614.133 1673.17 612.267 1673.9 610.6 1674.5C607.667 1675.63 604.3 1676.83 600.5 1678.1C596.767 1679.37 592.867 1680.63 588.8 1681.9C584.733 1683.1 580.7 1684.23 576.7 1685.3C572.767 1686.37 569.1 1687.3 565.7 1688.1L565.6 1675Z" fill="black"/>
<path d="M450.7 1674.7C451.9 1674.77 453.434 1674.87 455.3 1675C457.167 1675.07 459.1 1675.14 461.1 1675.2C463.167 1675.27 465.067 1675.3 466.8 1675.3C468.467 1675.3 470.534 1675.3 473 1675.3C475.467 1675.3 478.134 1675.3 481 1675.3C483.934 1675.3 486.934 1675.3 490 1675.3C493.134 1675.3 496.234 1675.3 499.3 1675.3C502.367 1675.3 505.267 1675.3 508 1675.3C510.734 1675.3 513.167 1675.3 515.3 1675.3C517.5 1675.3 519.234 1675.3 520.5 1675.3C522.834 1675.3 525.034 1675.24 527.1 1675.1C529.167 1674.9 530.867 1674.77 532.2 1674.7V1690.4C531.067 1690.34 529.367 1690.24 527.1 1690.1C524.834 1689.97 522.634 1689.9 520.5 1689.9C519.234 1689.9 517.5 1689.9 515.3 1689.9C513.1 1689.9 510.634 1689.9 507.9 1689.9C505.167 1689.9 502.267 1689.9 499.2 1689.9C496.2 1689.9 493.134 1689.9 490 1689.9C486.867 1689.9 483.834 1689.9 480.9 1689.9C478.034 1689.9 475.367 1689.9 472.9 1689.9C470.5 1689.9 468.467 1689.9 466.8 1689.9C463.934 1689.9 461 1689.97 458 1690.1C455 1690.17 452.567 1690.27 450.7 1690.4V1674.7Z" fill="black"/>
<path d="M416.3 1676.8C416.3 1683 415.834 1688.63 414.9 1693.7C414.034 1698.7 412.5 1703.27 410.3 1707.4C408.1 1711.47 405.034 1715.13 401.1 1718.4C397.167 1721.67 392.2 1724.63 386.2 1727.3L375.5 1717.2C380.3 1715.53 384.434 1713.67 387.9 1711.6C391.434 1709.53 394.334 1707 396.6 1704C398.867 1700.93 400.534 1697.27 401.6 1693C402.734 1688.67 403.3 1683.43 403.3 1677.3V1650.7C403.3 1648.63 403.234 1646.83 403.1 1645.3C402.967 1643.7 402.834 1642.4 402.7 1641.4H417C416.867 1642.4 416.7 1643.7 416.5 1645.3C416.367 1646.83 416.3 1648.63 416.3 1650.7V1676.8ZM380.2 1642.3C380.067 1643.23 379.934 1644.5 379.8 1646.1C379.667 1647.63 379.6 1649.37 379.6 1651.3V1687.1C379.6 1688.57 379.634 1690 379.7 1691.4C379.767 1692.73 379.8 1693.93 379.8 1695C379.867 1696 379.934 1696.87 380 1697.6H366C366.134 1696.87 366.234 1696 366.3 1695C366.367 1693.93 366.434 1692.73 366.5 1691.4C366.567 1690 366.6 1688.57 366.6 1687.1V1651.3C366.6 1649.83 366.534 1648.33 366.4 1646.8C366.334 1645.27 366.2 1643.77 366 1642.3H380.2ZM347.2 1660.3C347.867 1660.37 348.734 1660.5 349.8 1660.7C350.867 1660.83 352.1 1660.97 353.5 1661.1C354.9 1661.17 356.434 1661.2 358.1 1661.2H423.7C426.367 1661.2 428.534 1661.13 430.2 1661C431.867 1660.87 433.367 1660.7 434.7 1660.5V1673.8C433.634 1673.67 432.2 1673.6 430.4 1673.6C428.6 1673.53 426.367 1673.5 423.7 1673.5H358.1C356.434 1673.5 354.9 1673.53 353.5 1673.6C352.167 1673.6 350.967 1673.63 349.9 1673.7C348.9 1673.77 348 1673.83 347.2 1673.9V1660.3Z" fill="black"/>
<path d="M754.691 1528.8C754.158 1529.74 753.591 1530.87 752.991 1532.2C752.391 1533.47 751.858 1534.74 751.391 1536C750.524 1538.94 749.291 1542.3 747.691 1546.1C746.158 1549.84 744.224 1553.74 741.891 1557.8C739.624 1561.8 736.991 1565.67 733.991 1569.4C729.191 1575.14 723.591 1580.34 717.191 1585C710.858 1589.67 702.991 1593.87 693.591 1597.6L681.791 1587C688.591 1585 694.458 1582.7 699.391 1580.1C704.324 1577.5 708.624 1574.74 712.291 1571.8C715.958 1568.8 719.224 1565.64 722.091 1562.3C724.424 1559.7 726.558 1556.77 728.491 1553.5C730.424 1550.17 732.091 1546.87 733.491 1543.6C734.891 1540.34 735.824 1537.47 736.291 1535H702.591L707.191 1523.7C708.124 1523.7 709.558 1523.7 711.491 1523.7C713.491 1523.7 715.724 1523.7 718.191 1523.7C720.724 1523.7 723.191 1523.7 725.591 1523.7C728.058 1523.7 730.191 1523.7 731.991 1523.7C733.858 1523.7 735.124 1523.7 735.791 1523.7C737.324 1523.7 738.858 1523.6 740.391 1523.4C741.991 1523.2 743.358 1522.9 744.491 1522.5L754.691 1528.8ZM722.091 1513C720.891 1514.74 719.724 1516.6 718.591 1518.6C717.458 1520.6 716.591 1522.14 715.991 1523.2C713.724 1527.2 710.924 1531.37 707.591 1535.7C704.324 1539.97 700.591 1544.14 696.391 1548.2C692.191 1552.2 687.724 1555.87 682.991 1559.2L671.691 1550.9C676.091 1548.17 679.958 1545.37 683.291 1542.5C686.691 1539.64 689.624 1536.8 692.091 1534C694.558 1531.14 696.658 1528.4 698.391 1525.8C700.191 1523.14 701.724 1520.77 702.991 1518.7C703.791 1517.44 704.624 1515.8 705.491 1513.8C706.358 1511.74 707.024 1509.87 707.491 1508.2L722.091 1513Z" fill="black"/>
<path d="M588.891 1515C590.624 1516.2 592.658 1517.67 594.991 1519.4C597.324 1521.13 599.724 1523.03 602.191 1525.1C604.724 1527.1 607.091 1529.07 609.291 1531C611.491 1532.93 613.291 1534.67 614.691 1536.2L604.491 1546.6C603.224 1545.2 601.558 1543.53 599.491 1541.6C597.424 1539.67 595.191 1537.67 592.791 1535.6C590.391 1533.53 588.024 1531.57 585.691 1529.7C583.358 1527.83 581.291 1526.27 579.491 1525L588.891 1515ZM576.391 1581.6C581.591 1580.87 586.491 1579.83 591.091 1578.5C595.691 1577.17 599.958 1575.63 603.891 1573.9C607.824 1572.17 611.424 1570.37 614.691 1568.5C620.358 1565.1 625.558 1561.23 630.291 1556.9C635.024 1552.57 639.158 1548.07 642.691 1543.4C646.224 1538.67 649.024 1534.07 651.091 1529.6L658.891 1543.7C656.358 1548.17 653.224 1552.63 649.491 1557.1C645.824 1561.57 641.658 1565.83 636.991 1569.9C632.324 1573.9 627.291 1577.5 621.891 1580.7C618.491 1582.77 614.824 1584.73 610.891 1586.6C606.958 1588.4 602.791 1590 598.391 1591.4C594.058 1592.87 589.524 1594 584.791 1594.8L576.391 1581.6Z" fill="black"/>
<path d="M545.091 1513.4C545.024 1514.8 544.924 1516.33 544.791 1518C544.724 1519.6 544.691 1521.4 544.691 1523.4C544.691 1525.13 544.691 1527.23 544.691 1529.7C544.691 1532.17 544.691 1534.63 544.691 1537.1C544.691 1539.5 544.691 1541.53 544.691 1543.2C544.691 1548.53 544.424 1553.2 543.891 1557.2C543.424 1561.2 542.691 1564.7 541.691 1567.7C540.691 1570.7 539.458 1573.37 537.991 1575.7C536.591 1577.97 534.958 1580.13 533.091 1582.2C530.891 1584.6 528.358 1586.77 525.491 1588.7C522.624 1590.57 519.724 1592.13 516.791 1593.4C513.924 1594.73 511.258 1595.8 508.791 1596.6L498.291 1585.6C503.291 1584.47 507.791 1582.9 511.791 1580.9C515.858 1578.83 519.391 1576.2 522.391 1573C524.124 1571.07 525.524 1569.13 526.591 1567.2C527.658 1565.27 528.458 1563.13 528.991 1560.8C529.591 1558.4 529.991 1555.7 530.191 1552.7C530.458 1549.7 530.591 1546.27 530.591 1542.4C530.591 1540.67 530.591 1538.6 530.591 1536.2C530.591 1533.8 530.591 1531.43 530.591 1529.1C530.591 1526.77 530.591 1524.87 530.591 1523.4C530.591 1521.4 530.524 1519.6 530.391 1518C530.324 1516.33 530.191 1514.8 529.991 1513.4H545.091ZM498.691 1514.2C498.624 1515.4 498.558 1516.6 498.491 1517.8C498.424 1518.93 498.391 1520.3 498.391 1521.9C498.391 1522.63 498.391 1523.83 498.391 1525.5C498.391 1527.17 498.391 1529.13 498.391 1531.4C498.391 1533.6 498.391 1535.93 498.391 1538.4C498.391 1540.8 498.391 1543.13 498.391 1545.4C498.391 1547.67 498.391 1549.73 498.391 1551.6C498.391 1553.4 498.391 1554.77 498.391 1555.7C498.391 1556.97 498.424 1558.43 498.491 1560.1C498.558 1561.77 498.624 1563.2 498.691 1564.4H484.191C484.258 1563.47 484.358 1562.13 484.491 1560.4C484.624 1558.67 484.691 1557.07 484.691 1555.6C484.691 1554.67 484.691 1553.3 484.691 1551.5C484.691 1549.7 484.691 1547.67 484.691 1545.4C484.691 1543.07 484.691 1540.7 484.691 1538.3C484.691 1535.83 484.691 1533.5 484.691 1531.3C484.691 1529.1 484.691 1527.17 484.691 1525.5C484.691 1523.83 484.691 1522.63 484.691 1521.9C484.691 1520.97 484.658 1519.77 484.591 1518.3C484.524 1516.77 484.424 1515.4 484.291 1514.2H498.691Z" fill="black"/>
<path d="M432.991 1516.6C433.924 1517.93 434.957 1519.5 436.091 1521.3C437.224 1523.1 438.291 1524.9 439.291 1526.7C440.357 1528.5 441.291 1530.17 442.091 1531.7L433.391 1535.6C432.457 1533.47 431.524 1531.57 430.591 1529.9C429.724 1528.23 428.824 1526.63 427.891 1525.1C426.957 1523.5 425.857 1521.83 424.591 1520.1L432.991 1516.6ZM446.091 1511.1C447.091 1512.43 448.157 1513.97 449.291 1515.7C450.491 1517.43 451.624 1519.2 452.691 1521C453.824 1522.73 454.757 1524.37 455.491 1525.9L447.091 1530C446.024 1527.87 444.991 1526 443.991 1524.4C443.057 1522.73 442.091 1521.17 441.091 1519.7C440.157 1518.17 439.057 1516.6 437.791 1515L446.091 1511.1ZM393.091 1582.9C393.091 1581.57 393.091 1579.47 393.091 1576.6C393.091 1573.67 393.091 1570.3 393.091 1566.5C393.091 1562.63 393.091 1558.63 393.091 1554.5C393.091 1550.3 393.091 1546.27 393.091 1542.4C393.091 1538.47 393.091 1535 393.091 1532C393.091 1529 393.091 1526.8 393.091 1525.4C393.091 1523.6 392.991 1521.57 392.791 1519.3C392.657 1517.03 392.424 1515.03 392.091 1513.3H407.691C407.491 1515.03 407.291 1516.97 407.091 1519.1C406.891 1521.23 406.791 1523.33 406.791 1525.4C406.791 1527.2 406.791 1529.7 406.791 1532.9C406.791 1536.1 406.791 1539.67 406.791 1543.6C406.791 1547.47 406.791 1551.43 406.791 1555.5C406.791 1559.57 406.791 1563.47 406.791 1567.2C406.791 1570.87 406.791 1574.1 406.791 1576.9C406.791 1579.63 406.791 1581.63 406.791 1582.9C406.791 1583.77 406.824 1585.07 406.891 1586.8C407.024 1588.47 407.157 1590.2 407.291 1592C407.491 1593.8 407.657 1595.4 407.791 1596.8H392.091C392.424 1594.87 392.657 1592.57 392.791 1589.9C392.991 1587.17 393.091 1584.83 393.091 1582.9ZM403.891 1539.2C407.224 1540.07 410.924 1541.2 414.991 1542.6C419.124 1543.93 423.291 1545.4 427.491 1547C431.691 1548.53 435.657 1550.07 439.391 1551.6C443.124 1553.07 446.191 1554.4 448.591 1555.6L442.991 1569.5C440.124 1567.97 436.991 1566.47 433.591 1565C430.191 1563.53 426.724 1562.1 423.191 1560.7C419.724 1559.23 416.324 1557.9 412.991 1556.7C409.657 1555.5 406.624 1554.47 403.891 1553.6V1539.2Z" fill="black"/>
<path d="M348.609 1511C349.309 1511 349.809 1511.5 349.809 1512.2V1589.7C349.809 1590.4 349.309 1591 348.609 1591H340.609C339.909 1591 339.409 1590.4 339.409 1589.7V1521.2H326.909C325.809 1521.2 325.309 1520.1 325.809 1519.4L330.809 1511.5C331.009 1511.2 331.409 1511 331.809 1511H348.609Z" fill="black"/>
<path d="M708.328 1405.5C708.168 1406.37 707.912 1407.49 707.56 1408.86C707.208 1410.24 706.696 1411.79 706.024 1413.52C705.512 1414.7 704.92 1415.94 704.248 1417.22C703.608 1418.46 702.952 1419.58 702.28 1420.58C702.696 1420.38 703.224 1420.22 703.864 1420.1C704.504 1419.94 705.16 1419.82 705.832 1419.76C706.536 1419.66 707.16 1419.62 707.704 1419.62C709.72 1419.62 711.384 1420.19 712.696 1421.34C714.04 1422.5 714.712 1424.21 714.712 1426.48C714.712 1427.12 714.712 1427.9 714.712 1428.83C714.744 1429.76 714.776 1430.74 714.808 1431.76C714.84 1432.75 714.872 1433.73 714.904 1434.69C714.936 1435.65 714.952 1436.51 714.952 1437.28H709.192C709.256 1436.74 709.288 1436.1 709.288 1435.36C709.32 1434.59 709.336 1433.79 709.336 1432.96C709.368 1432.13 709.384 1431.33 709.384 1430.56C709.416 1429.76 709.432 1429.04 709.432 1428.4C709.432 1426.86 709.016 1425.81 708.184 1425.23C707.384 1424.62 706.488 1424.32 705.496 1424.32C704.152 1424.32 702.792 1424.66 701.416 1425.33C700.072 1425.97 698.936 1426.74 698.008 1427.63C697.304 1428.34 696.584 1429.12 695.848 1429.98C695.144 1430.85 694.376 1431.82 693.544 1432.91L688.408 1429.07C690.488 1427.15 692.28 1425.3 693.784 1423.5C695.32 1421.71 696.616 1419.94 697.672 1418.18C698.728 1416.42 699.592 1414.66 700.264 1412.9C700.744 1411.62 701.128 1410.29 701.416 1408.91C701.736 1407.5 701.928 1406.19 701.992 1404.98L708.328 1405.5ZM690.28 1409.92C691.496 1410.11 692.904 1410.26 694.504 1410.35C696.104 1410.45 697.512 1410.5 698.728 1410.5C700.84 1410.5 703.144 1410.45 705.64 1410.35C708.168 1410.26 710.728 1410.1 713.32 1409.87C715.912 1409.62 718.376 1409.3 720.712 1408.91L720.664 1414.48C718.968 1414.7 717.128 1414.91 715.144 1415.1C713.192 1415.26 711.192 1415.41 709.144 1415.54C707.128 1415.63 705.192 1415.71 703.336 1415.78C701.48 1415.81 699.832 1415.82 698.392 1415.82C697.752 1415.82 696.952 1415.82 695.992 1415.82C695.064 1415.79 694.104 1415.76 693.112 1415.73C692.12 1415.66 691.176 1415.6 690.28 1415.54V1409.92ZM728.296 1423.55C727.784 1423.71 727.176 1423.92 726.472 1424.18C725.8 1424.4 725.112 1424.64 724.408 1424.9C723.736 1425.12 723.128 1425.34 722.584 1425.57C721.048 1426.18 719.224 1426.91 717.112 1427.78C715.032 1428.64 712.856 1429.65 710.584 1430.8C709.144 1431.57 707.928 1432.32 706.936 1433.06C705.944 1433.79 705.192 1434.54 704.68 1435.31C704.168 1436.05 703.912 1436.86 703.912 1437.76C703.912 1438.43 704.056 1438.99 704.344 1439.44C704.632 1439.86 705.064 1440.19 705.64 1440.45C706.216 1440.7 706.936 1440.88 707.8 1440.98C708.664 1441.07 709.688 1441.12 710.872 1441.12C712.92 1441.12 715.176 1441.01 717.64 1440.78C720.104 1440.53 722.392 1440.19 724.504 1439.78L724.312 1445.97C723.288 1446.1 721.992 1446.22 720.424 1446.35C718.856 1446.51 717.224 1446.62 715.528 1446.69C713.864 1446.75 712.264 1446.78 710.728 1446.78C708.232 1446.78 705.992 1446.54 704.008 1446.06C702.024 1445.58 700.456 1444.77 699.304 1443.62C698.184 1442.43 697.624 1440.82 697.624 1438.77C697.624 1437.1 697.992 1435.6 698.728 1434.26C699.496 1432.91 700.504 1431.7 701.752 1430.61C703 1429.52 704.36 1428.54 705.832 1427.68C707.336 1426.78 708.808 1425.97 710.248 1425.23C711.72 1424.46 713.048 1423.81 714.232 1423.26C715.416 1422.72 716.52 1422.24 717.544 1421.82C718.6 1421.38 719.608 1420.93 720.568 1420.48C721.496 1420.06 722.392 1419.66 723.256 1419.28C724.12 1418.86 725 1418.43 725.896 1417.98L728.296 1423.55Z" fill="black"/>
<path d="M680.152 1414.15C679.896 1414.59 679.624 1415.14 679.336 1415.78C679.048 1416.39 678.792 1416.99 678.568 1417.6C678.152 1419.01 677.56 1420.63 676.792 1422.45C676.056 1424.24 675.128 1426.11 674.008 1428.07C672.92 1429.99 671.656 1431.84 670.216 1433.63C667.912 1436.39 665.224 1438.88 662.152 1441.12C659.112 1443.36 655.336 1445.38 650.824 1447.17L645.16 1442.08C648.424 1441.12 651.24 1440.02 653.608 1438.77C655.976 1437.52 658.04 1436.19 659.8 1434.79C661.56 1433.35 663.128 1431.83 664.504 1430.23C665.624 1428.98 666.648 1427.57 667.576 1426C668.504 1424.4 669.304 1422.82 669.976 1421.25C670.648 1419.68 671.096 1418.31 671.32 1417.12H655.144L657.352 1411.7C657.8 1411.7 658.488 1411.7 659.416 1411.7C660.376 1411.7 661.448 1411.7 662.632 1411.7C663.848 1411.7 665.032 1411.7 666.184 1411.7C667.368 1411.7 668.392 1411.7 669.256 1411.7C670.152 1411.7 670.76 1411.7 671.08 1411.7C671.816 1411.7 672.552 1411.65 673.288 1411.55C674.056 1411.46 674.712 1411.31 675.256 1411.12L680.152 1414.15ZM664.504 1406.56C663.928 1407.39 663.368 1408.29 662.824 1409.25C662.28 1410.21 661.864 1410.95 661.576 1411.46C660.488 1413.38 659.144 1415.38 657.544 1417.46C655.976 1419.51 654.184 1421.51 652.168 1423.46C650.152 1425.38 648.008 1427.14 645.736 1428.74L640.312 1424.75C642.424 1423.44 644.28 1422.1 645.88 1420.72C647.512 1419.35 648.92 1417.99 650.104 1416.64C651.288 1415.27 652.296 1413.95 653.128 1412.71C653.992 1411.43 654.728 1410.29 655.336 1409.3C655.72 1408.69 656.12 1407.91 656.536 1406.95C656.952 1405.95 657.272 1405.06 657.496 1404.26L664.504 1406.56Z" fill="black"/>
<path d="M600.568 1407.52C601.4 1408.1 602.376 1408.8 603.496 1409.64C604.616 1410.47 605.768 1411.38 606.952 1412.37C608.168 1413.33 609.304 1414.28 610.36 1415.2C611.416 1416.13 612.28 1416.96 612.952 1417.7L608.056 1422.69C607.448 1422.02 606.648 1421.22 605.656 1420.29C604.664 1419.36 603.592 1418.4 602.44 1417.41C601.288 1416.42 600.152 1415.48 599.032 1414.58C597.912 1413.68 596.92 1412.93 596.056 1412.32L600.568 1407.52ZM594.568 1439.49C597.064 1439.14 599.416 1438.64 601.624 1438C603.832 1437.36 605.88 1436.63 607.768 1435.8C609.656 1434.96 611.384 1434.1 612.952 1433.2C615.672 1431.57 618.168 1429.72 620.44 1427.64C622.712 1425.56 624.696 1423.4 626.392 1421.16C628.088 1418.88 629.432 1416.68 630.424 1414.53L634.168 1421.3C632.952 1423.44 631.448 1425.59 629.656 1427.73C627.896 1429.88 625.896 1431.92 623.656 1433.88C621.416 1435.8 619 1437.52 616.408 1439.06C614.776 1440.05 613.016 1441 611.128 1441.89C609.24 1442.76 607.24 1443.52 605.128 1444.2C603.048 1444.9 600.872 1445.44 598.6 1445.83L594.568 1439.49Z" fill="black"/>
<path d="M579.544 1406.75C579.512 1407.42 579.464 1408.16 579.4 1408.96C579.368 1409.73 579.352 1410.59 579.352 1411.55C579.352 1412.38 579.352 1413.39 579.352 1414.57C579.352 1415.76 579.352 1416.94 579.352 1418.13C579.352 1419.28 579.352 1420.25 579.352 1421.05C579.352 1423.61 579.224 1425.85 578.968 1427.77C578.744 1429.69 578.392 1431.37 577.912 1432.81C577.432 1434.25 576.84 1435.53 576.136 1436.65C575.464 1437.74 574.68 1438.78 573.784 1439.77C572.728 1440.93 571.512 1441.97 570.136 1442.89C568.76 1443.79 567.368 1444.54 565.96 1445.15C564.584 1445.79 563.304 1446.3 562.12 1446.69L557.08 1441.41C559.48 1440.86 561.64 1440.11 563.56 1439.15C565.512 1438.16 567.208 1436.89 568.648 1435.36C569.48 1434.43 570.152 1433.5 570.664 1432.57C571.176 1431.65 571.56 1430.62 571.816 1429.5C572.104 1428.35 572.296 1427.05 572.392 1425.61C572.52 1424.17 572.584 1422.53 572.584 1420.67C572.584 1419.84 572.584 1418.85 572.584 1417.69C572.584 1416.54 572.584 1415.41 572.584 1414.29C572.584 1413.17 572.584 1412.25 572.584 1411.55C572.584 1410.59 572.552 1409.73 572.488 1408.96C572.456 1408.16 572.392 1407.42 572.296 1406.75H579.544ZM557.272 1407.13C557.24 1407.71 557.208 1408.29 557.176 1408.86C557.144 1409.41 557.128 1410.06 557.128 1410.83C557.128 1411.18 557.128 1411.76 557.128 1412.56C557.128 1413.36 557.128 1414.3 557.128 1415.39C557.128 1416.45 557.128 1417.57 557.128 1418.75C557.128 1419.9 557.128 1421.02 557.128 1422.11C557.128 1423.2 557.128 1424.19 557.128 1425.09C557.128 1425.95 557.128 1426.61 557.128 1427.05C557.128 1427.66 557.144 1428.37 557.176 1429.17C557.208 1429.97 557.24 1430.65 557.272 1431.23H550.312C550.344 1430.78 550.392 1430.14 550.456 1429.31C550.52 1428.48 550.552 1427.71 550.552 1427.01C550.552 1426.56 550.552 1425.9 550.552 1425.04C550.552 1424.17 550.552 1423.2 550.552 1422.11C550.552 1420.99 550.552 1419.85 550.552 1418.7C550.552 1417.52 550.552 1416.4 550.552 1415.34C550.552 1414.29 550.552 1413.36 550.552 1412.56C550.552 1411.76 550.552 1411.18 550.552 1410.83C550.552 1410.38 550.536 1409.81 550.504 1409.1C550.472 1408.37 550.424 1407.71 550.36 1407.13H557.272Z" fill="black"/>
<path d="M525.736 1408.29C526.184 1408.93 526.68 1409.68 527.224 1410.54C527.768 1411.41 528.28 1412.27 528.76 1413.14C529.272 1414 529.72 1414.8 530.104 1415.54L525.928 1417.41C525.48 1416.38 525.032 1415.47 524.584 1414.67C524.168 1413.87 523.736 1413.1 523.288 1412.37C522.84 1411.6 522.312 1410.8 521.704 1409.97L525.736 1408.29ZM532.024 1405.65C532.504 1406.29 533.016 1407.02 533.56 1407.86C534.136 1408.69 534.68 1409.54 535.192 1410.4C535.736 1411.23 536.184 1412.02 536.536 1412.75L532.504 1414.72C531.992 1413.7 531.496 1412.8 531.016 1412.03C530.568 1411.23 530.104 1410.48 529.624 1409.78C529.176 1409.04 528.648 1408.29 528.04 1407.52L532.024 1405.65ZM506.584 1440.11C506.584 1439.47 506.584 1438.46 506.584 1437.09C506.584 1435.68 506.584 1434.06 506.584 1432.24C506.584 1430.38 506.584 1428.46 506.584 1426.48C506.584 1424.46 506.584 1422.53 506.584 1420.67C506.584 1418.78 506.584 1417.12 506.584 1415.68C506.584 1414.24 506.584 1413.18 506.584 1412.51C506.584 1411.65 506.536 1410.67 506.44 1409.58C506.376 1408.5 506.264 1407.54 506.104 1406.7H513.592C513.496 1407.54 513.4 1408.46 513.304 1409.49C513.208 1410.51 513.16 1411.52 513.16 1412.51C513.16 1413.38 513.16 1414.58 513.16 1416.11C513.16 1417.65 513.16 1419.36 513.16 1421.25C513.16 1423.1 513.16 1425.01 513.16 1426.96C513.16 1428.91 513.16 1430.78 513.16 1432.58C513.16 1434.34 513.16 1435.89 513.16 1437.23C513.16 1438.54 513.16 1439.5 513.16 1440.11C513.16 1440.53 513.176 1441.15 513.208 1441.98C513.272 1442.78 513.336 1443.62 513.4 1444.48C513.496 1445.34 513.576 1446.11 513.64 1446.78H506.104C506.264 1445.86 506.376 1444.75 506.44 1443.47C506.536 1442.16 506.584 1441.04 506.584 1440.11ZM511.768 1419.14C513.368 1419.55 515.144 1420.1 517.096 1420.77C519.08 1421.41 521.08 1422.11 523.096 1422.88C525.112 1423.62 527.016 1424.35 528.808 1425.09C530.6 1425.79 532.072 1426.43 533.224 1427.01L530.536 1433.68C529.16 1432.94 527.656 1432.22 526.024 1431.52C524.392 1430.82 522.728 1430.13 521.032 1429.46C519.368 1428.75 517.736 1428.11 516.136 1427.54C514.536 1426.96 513.08 1426.46 511.768 1426.05V1419.14Z" fill="black"/>
<path d="M460.072 1439.39C460.072 1438.78 460.072 1437.79 460.072 1436.42C460.072 1435.01 460.072 1433.39 460.072 1431.57C460.072 1429.71 460.072 1427.78 460.072 1425.76C460.072 1423.74 460.072 1421.81 460.072 1419.95C460.072 1418.06 460.072 1416.4 460.072 1414.96C460.072 1413.52 460.072 1412.46 460.072 1411.79C460.072 1410.96 460.024 1410 459.928 1408.91C459.864 1407.82 459.752 1406.86 459.592 1406.03H467.08C466.984 1406.86 466.888 1407.79 466.792 1408.82C466.696 1409.81 466.648 1410.8 466.648 1411.79C466.648 1412.69 466.648 1413.9 466.648 1415.44C466.648 1416.98 466.648 1418.69 466.648 1420.58C466.648 1422.43 466.648 1424.34 466.648 1426.29C466.648 1428.21 466.648 1430.06 466.648 1431.86C466.648 1433.65 466.648 1435.22 466.648 1436.56C466.648 1437.87 466.648 1438.82 466.648 1439.39C466.648 1439.84 466.664 1440.48 466.696 1441.31C466.728 1442.11 466.792 1442.94 466.888 1443.81C466.984 1444.67 467.048 1445.44 467.08 1446.11H459.592C459.72 1445.15 459.832 1444.03 459.928 1442.75C460.024 1441.47 460.072 1440.35 460.072 1439.39ZM465.208 1418.46C466.808 1418.88 468.6 1419.42 470.584 1420.1C472.568 1420.74 474.568 1421.42 476.584 1422.16C478.6 1422.9 480.488 1423.63 482.248 1424.37C484.04 1425.07 485.528 1425.73 486.712 1426.34L483.976 1432.96C482.632 1432.26 481.144 1431.55 479.512 1430.85C477.88 1430.11 476.216 1429.41 474.52 1428.74C472.856 1428.06 471.208 1427.44 469.576 1426.86C467.976 1426.29 466.52 1425.78 465.208 1425.33V1418.46Z" fill="black"/>
<path d="M439.672 1412.03C439.448 1412.48 439.24 1413.02 439.048 1413.66C438.888 1414.27 438.744 1414.85 438.616 1415.39C438.36 1416.54 438.024 1417.86 437.608 1419.33C437.192 1420.8 436.696 1422.32 436.12 1423.89C435.544 1425.46 434.856 1427.01 434.056 1428.54C433.288 1430.08 432.408 1431.52 431.416 1432.86C429.976 1434.75 428.296 1436.54 426.376 1438.24C424.456 1439.9 422.312 1441.41 419.944 1442.75C417.576 1444.06 414.968 1445.18 412.12 1446.11L406.888 1440.4C410.056 1439.63 412.792 1438.69 415.096 1437.57C417.432 1436.42 419.464 1435.14 421.192 1433.73C422.92 1432.29 424.424 1430.75 425.704 1429.12C426.76 1427.78 427.656 1426.32 428.392 1424.75C429.16 1423.18 429.784 1421.6 430.264 1420C430.776 1418.4 431.128 1416.93 431.32 1415.58C430.84 1415.58 430.04 1415.58 428.92 1415.58C427.832 1415.58 426.536 1415.58 425.032 1415.58C423.56 1415.58 422.008 1415.58 420.376 1415.58C418.776 1415.58 417.224 1415.58 415.72 1415.58C414.216 1415.58 412.856 1415.58 411.64 1415.58C410.456 1415.58 409.56 1415.58 408.952 1415.58C407.864 1415.58 406.792 1415.6 405.736 1415.63C404.712 1415.66 403.88 1415.71 403.24 1415.78V1409.01C403.752 1409.04 404.344 1409.09 405.016 1409.15C405.688 1409.22 406.392 1409.28 407.128 1409.34C407.864 1409.38 408.488 1409.39 409 1409.39C409.48 1409.39 410.2 1409.39 411.16 1409.39C412.12 1409.39 413.224 1409.39 414.472 1409.39C415.72 1409.39 417.016 1409.39 418.36 1409.39C419.736 1409.39 421.096 1409.39 422.44 1409.39C423.784 1409.39 425.048 1409.39 426.232 1409.39C427.416 1409.39 428.44 1409.39 429.304 1409.39C430.2 1409.39 430.824 1409.39 431.176 1409.39C431.656 1409.39 432.248 1409.38 432.952 1409.34C433.656 1409.28 434.312 1409.17 434.92 1409.01L439.672 1412.03Z" fill="black"/>
<path d="M360.712 1441.22C364.584 1439.59 367.848 1437.64 370.504 1435.36C373.192 1433.09 375.4 1430.69 377.128 1428.16C378.92 1425.6 380.216 1423.04 381.016 1420.48C381.816 1417.92 382.408 1415.65 382.792 1413.67C383.048 1412.58 383.224 1411.49 383.32 1410.4C383.416 1409.32 383.448 1408.47 383.416 1407.86L391.192 1408.92C390.904 1409.84 390.632 1410.85 390.376 1411.94C390.12 1413 389.912 1413.86 389.752 1414.53C389.144 1417.35 388.312 1420.2 387.256 1423.08C386.232 1425.92 384.84 1428.69 383.08 1431.38C381.224 1434.29 378.936 1437.01 376.216 1439.54C373.496 1442.07 370.232 1444.26 366.424 1446.12L360.712 1441.22ZM359.704 1408.1C360.312 1408.93 361 1409.97 361.768 1411.22C362.536 1412.47 363.304 1413.78 364.072 1415.16C364.872 1416.5 365.608 1417.8 366.28 1419.04C366.984 1420.29 367.56 1421.33 368.008 1422.16L361.672 1425.76C361.096 1424.45 360.44 1423.12 359.704 1421.78C359 1420.4 358.28 1419.06 357.544 1417.75C356.808 1416.4 356.088 1415.19 355.384 1414.1C354.712 1412.98 354.104 1412.04 353.56 1411.27L359.704 1408.1Z" fill="black"/>
<path d="M944.348 1336.45C945.82 1336.64 947.468 1336.78 949.292 1336.88C951.148 1336.94 953.02 1336.98 954.908 1336.98C956.828 1336.94 958.668 1336.88 960.428 1336.78C962.188 1336.66 963.708 1336.53 964.988 1336.4V1342.59C963.516 1342.72 961.9 1342.83 960.14 1342.93C958.38 1342.99 956.572 1343.02 954.716 1343.02C952.86 1343.02 951.036 1342.99 949.244 1342.93C947.484 1342.83 945.852 1342.72 944.348 1342.59V1336.45ZM948.188 1356.94C947.996 1357.74 947.852 1358.46 947.756 1359.1C947.66 1359.71 947.612 1360.34 947.612 1360.98C947.612 1361.49 947.74 1361.97 947.996 1362.42C948.252 1362.83 948.636 1363.2 949.148 1363.52C949.692 1363.81 950.38 1364.03 951.212 1364.19C952.076 1364.32 953.116 1364.38 954.332 1364.38C956.476 1364.38 958.492 1364.29 960.38 1364.1C962.268 1363.87 964.268 1363.55 966.38 1363.14L966.476 1369.62C964.94 1369.9 963.164 1370.13 961.148 1370.29C959.164 1370.45 956.812 1370.53 954.092 1370.53C949.964 1370.53 946.892 1369.84 944.876 1368.46C942.86 1367.06 941.852 1365.12 941.852 1362.66C941.852 1361.73 941.916 1360.77 942.044 1359.78C942.204 1358.75 942.412 1357.63 942.668 1356.42L948.188 1356.94ZM936.956 1333.23C936.828 1333.55 936.684 1334 936.524 1334.58C936.364 1335.15 936.204 1335.71 936.044 1336.26C935.916 1336.8 935.82 1337.22 935.756 1337.5C935.66 1338.18 935.5 1339.06 935.276 1340.14C935.084 1341.2 934.876 1342.4 934.652 1343.74C934.46 1345.06 934.268 1346.4 934.076 1347.78C933.884 1349.15 933.724 1350.48 933.596 1351.76C933.5 1353.04 933.452 1354.16 933.452 1355.12C933.452 1355.57 933.452 1356.08 933.452 1356.66C933.484 1357.23 933.548 1357.76 933.644 1358.24C933.868 1357.7 934.108 1357.15 934.364 1356.61C934.62 1356.06 934.876 1355.52 935.132 1354.98C935.388 1354.4 935.612 1353.86 935.804 1353.34L938.78 1355.7C938.332 1357.01 937.868 1358.42 937.388 1359.92C936.94 1361.42 936.524 1362.85 936.14 1364.19C935.788 1365.5 935.516 1366.59 935.324 1367.46C935.26 1367.81 935.196 1368.21 935.132 1368.66C935.1 1369.1 935.084 1369.46 935.084 1369.71C935.084 1369.97 935.084 1370.27 935.084 1370.62C935.116 1371.01 935.148 1371.36 935.18 1371.68L929.612 1372.06C929.132 1370.4 928.7 1368.19 928.316 1365.44C927.932 1362.66 927.74 1359.63 927.74 1356.37C927.74 1354.58 927.82 1352.75 927.98 1350.9C928.14 1349.04 928.332 1347.26 928.556 1345.57C928.78 1343.84 928.988 1342.27 929.18 1340.86C929.404 1339.46 929.596 1338.29 929.756 1337.36C929.82 1336.69 929.9 1335.94 929.996 1335.1C930.124 1334.24 930.204 1333.42 930.236 1332.66L936.956 1333.23Z" fill="black"/>
<path d="M877.1 1336.93H920.636V1342.4H877.1V1336.93ZM893.132 1348.69H911.516V1354.11H893.132V1348.69ZM909.356 1348.69H915.308C915.308 1348.69 915.292 1348.85 915.26 1349.17C915.26 1349.46 915.26 1349.79 915.26 1350.18C915.26 1350.56 915.228 1350.9 915.164 1351.18C914.876 1355.57 914.556 1359.15 914.204 1361.94C913.852 1364.72 913.452 1366.9 913.004 1368.46C912.556 1370 912.012 1371.12 911.372 1371.82C910.636 1372.62 909.868 1373.17 909.068 1373.46C908.268 1373.74 907.308 1373.95 906.188 1374.08C905.26 1374.18 904.044 1374.21 902.54 1374.18C901.036 1374.18 899.484 1374.14 897.884 1374.08C897.852 1373.25 897.644 1372.29 897.26 1371.2C896.876 1370.14 896.396 1369.22 895.82 1368.42C897.484 1368.58 899.084 1368.67 900.62 1368.7C902.156 1368.74 903.26 1368.75 903.932 1368.75C904.476 1368.75 904.924 1368.72 905.276 1368.66C905.66 1368.56 905.996 1368.38 906.284 1368.13C906.796 1367.71 907.228 1366.8 907.58 1365.39C907.964 1363.98 908.3 1361.98 908.588 1359.39C908.876 1356.8 909.132 1353.52 909.356 1349.55V1348.69ZM890.972 1340.19H897.404C897.276 1342.75 897.068 1345.34 896.78 1347.97C896.524 1350.56 896.076 1353.14 895.436 1355.7C894.796 1358.22 893.868 1360.64 892.652 1362.94C891.436 1365.25 889.836 1367.39 887.852 1369.38C885.868 1371.36 883.356 1373.12 880.316 1374.66C879.9 1373.86 879.292 1372.99 878.492 1372.06C877.724 1371.14 876.972 1370.37 876.236 1369.76C879.02 1368.48 881.292 1366.99 883.052 1365.3C884.844 1363.57 886.252 1361.71 887.276 1359.73C888.3 1357.71 889.052 1355.62 889.532 1353.44C890.044 1351.26 890.38 1349.06 890.54 1346.82C890.732 1344.58 890.876 1342.37 890.972 1340.19ZM895.58 1329.01H901.58V1339.09H895.58V1329.01Z" fill="black"/>
<path d="M855.212 1337.12C854.892 1339.55 854.476 1342.14 853.964 1344.89C853.452 1347.65 852.764 1350.43 851.9 1353.25C850.972 1356.48 849.884 1359.26 848.636 1361.6C847.388 1363.93 846.012 1365.74 844.508 1367.02C843.036 1368.27 841.42 1368.89 839.66 1368.89C837.9 1368.89 836.268 1368.3 834.764 1367.12C833.292 1365.9 832.108 1364.24 831.212 1362.13C830.348 1360.01 829.916 1357.61 829.916 1354.93C829.916 1352.14 830.476 1349.52 831.596 1347.05C832.716 1344.59 834.268 1342.41 836.252 1340.53C838.268 1338.61 840.604 1337.1 843.26 1336.01C845.948 1334.93 848.844 1334.38 851.948 1334.38C854.924 1334.38 857.596 1334.86 859.964 1335.82C862.364 1336.78 864.412 1338.11 866.108 1339.81C867.804 1341.5 869.1 1343.49 869.996 1345.76C870.892 1348.03 871.34 1350.48 871.34 1353.1C871.34 1356.46 870.652 1359.47 869.276 1362.13C867.9 1364.78 865.852 1366.97 863.132 1368.7C860.444 1370.43 857.084 1371.61 853.052 1372.25L849.452 1366.54C850.38 1366.45 851.196 1366.33 851.9 1366.21C852.604 1366.08 853.276 1365.93 853.916 1365.77C855.452 1365.39 856.876 1364.85 858.188 1364.14C859.532 1363.41 860.7 1362.51 861.692 1361.45C862.684 1360.37 863.452 1359.1 863.996 1357.66C864.572 1356.22 864.86 1354.64 864.86 1352.91C864.86 1351.02 864.572 1349.29 863.996 1347.73C863.42 1346.16 862.572 1344.8 861.452 1343.65C860.332 1342.46 858.972 1341.57 857.372 1340.96C855.772 1340.32 853.932 1340 851.852 1340C849.292 1340 847.036 1340.46 845.084 1341.39C843.132 1342.29 841.484 1343.45 840.14 1344.89C838.796 1346.33 837.772 1347.89 837.068 1349.55C836.396 1351.21 836.06 1352.8 836.06 1354.3C836.06 1355.9 836.252 1357.25 836.636 1358.33C837.02 1359.39 837.484 1360.19 838.028 1360.73C838.604 1361.25 839.212 1361.5 839.852 1361.5C840.524 1361.5 841.18 1361.17 841.82 1360.49C842.492 1359.79 843.148 1358.73 843.788 1357.33C844.428 1355.92 845.068 1354.14 845.708 1352C846.444 1349.69 847.068 1347.23 847.58 1344.61C848.092 1341.98 848.46 1339.42 848.684 1336.93L855.212 1337.12Z" fill="black"/>
<path d="M812.06 1339.91L818.204 1341.73C816.188 1347.49 813.58 1352.48 810.38 1356.71C807.18 1360.93 803.372 1364.5 798.956 1367.41C794.572 1370.29 789.5 1372.64 783.74 1374.47C783.548 1373.96 783.228 1373.35 782.78 1372.64C782.332 1371.94 781.868 1371.24 781.388 1370.53C780.94 1369.86 780.508 1369.3 780.092 1368.85C785.628 1367.38 790.476 1365.38 794.636 1362.85C798.796 1360.32 802.316 1357.19 805.196 1353.44C808.076 1349.67 810.364 1345.16 812.06 1339.91ZM793.484 1340.29C795.116 1345.06 797.372 1349.33 800.252 1353.11C803.132 1356.88 806.684 1360.08 810.908 1362.71C815.164 1365.33 820.124 1367.28 825.788 1368.56C825.34 1369.01 824.844 1369.59 824.3 1370.29C823.788 1371 823.292 1371.7 822.812 1372.4C822.332 1373.14 821.948 1373.78 821.66 1374.32C815.676 1372.79 810.524 1370.55 806.204 1367.6C801.884 1364.63 798.22 1361.01 795.212 1356.76C792.236 1352.5 789.74 1347.59 787.724 1342.02L793.484 1340.29ZM780.956 1336.84H824.924V1342.45H780.956V1336.84ZM799.868 1329.2H805.772V1340.24H799.868V1329.2Z" fill="black"/>
<path d="M752.924 1333.57L756.668 1329.1C757.98 1329.71 759.356 1330.43 760.796 1331.26C762.268 1332.09 763.644 1332.94 764.924 1333.81C766.236 1334.67 767.308 1335.5 768.14 1336.3L763.964 1341.29C763.228 1340.46 762.236 1339.58 760.988 1338.65C759.772 1337.73 758.444 1336.81 757.004 1335.92C755.596 1335.02 754.236 1334.24 752.924 1333.57ZM749.708 1353.05H774.668V1358.53H749.708V1353.05ZM746.3 1367.26H777.452V1372.73H746.3V1367.26ZM748.028 1339.66H776.444V1345.13H748.028V1339.66ZM758.972 1341.49H764.972V1369.71H758.972V1341.49ZM735.356 1333.66L738.476 1329.44C739.532 1329.79 740.636 1330.25 741.788 1330.83C742.94 1331.37 744.044 1331.97 745.1 1332.61C746.156 1333.21 747.02 1333.81 747.692 1334.38L744.284 1339.09C743.676 1338.48 742.86 1337.85 741.836 1337.21C740.844 1336.54 739.772 1335.9 738.62 1335.29C737.5 1334.65 736.412 1334.11 735.356 1333.66ZM732.14 1346.77L735.116 1342.4C736.172 1342.75 737.292 1343.18 738.476 1343.69C739.66 1344.17 740.78 1344.72 741.836 1345.33C742.924 1345.9 743.82 1346.45 744.524 1346.96L741.308 1351.81C740.7 1351.23 739.868 1350.64 738.812 1350.03C737.756 1349.42 736.652 1348.83 735.5 1348.25C734.348 1347.65 733.228 1347.15 732.14 1346.77ZM734.204 1369.85C735.068 1368.64 736.028 1367.21 737.084 1365.58C738.14 1363.92 739.212 1362.16 740.3 1360.3C741.388 1358.41 742.396 1356.54 743.324 1354.69L747.548 1358.53C746.716 1360.19 745.82 1361.9 744.86 1363.66C743.932 1365.42 742.972 1367.15 741.98 1368.85C741.02 1370.54 740.06 1372.17 739.1 1373.74L734.204 1369.85Z" fill="black"/>
<path d="M692.252 1335.58C694.012 1335.8 695.996 1335.96 698.204 1336.06C700.412 1336.16 702.78 1336.2 705.308 1336.2C706.908 1336.2 708.54 1336.17 710.204 1336.11C711.868 1336.04 713.484 1335.96 715.052 1335.87C716.62 1335.74 718.012 1335.63 719.228 1335.53V1341.92C718.108 1341.98 716.748 1342.06 715.148 1342.16C713.58 1342.25 711.932 1342.33 710.204 1342.4C708.508 1342.46 706.892 1342.49 705.356 1342.49C702.86 1342.49 700.54 1342.44 698.396 1342.35C696.252 1342.22 694.204 1342.09 692.252 1341.96V1335.58ZM696.284 1355.93C696.06 1356.76 695.868 1357.58 695.708 1358.38C695.548 1359.18 695.468 1359.98 695.468 1360.78C695.468 1362.35 696.236 1363.63 697.772 1364.62C699.34 1365.58 701.852 1366.06 705.308 1366.06C707.484 1366.06 709.58 1365.98 711.596 1365.82C713.644 1365.66 715.564 1365.45 717.356 1365.2C719.148 1364.91 720.748 1364.57 722.156 1364.19L722.204 1370.91C720.828 1371.23 719.26 1371.52 717.5 1371.77C715.772 1372.03 713.9 1372.22 711.884 1372.35C709.9 1372.51 707.788 1372.59 705.548 1372.59C701.868 1372.59 698.812 1372.17 696.38 1371.34C693.948 1370.54 692.108 1369.39 690.86 1367.88C689.644 1366.35 689.036 1364.48 689.036 1362.27C689.036 1360.89 689.148 1359.63 689.372 1358.48C689.596 1357.29 689.788 1356.25 689.948 1355.36L696.284 1355.93ZM720.476 1330.64C720.892 1331.21 721.324 1331.9 721.772 1332.7C722.252 1333.5 722.716 1334.3 723.164 1335.1C723.612 1335.9 723.996 1336.6 724.316 1337.21L720.428 1338.89C719.948 1337.9 719.356 1336.76 718.652 1335.48C717.98 1334.2 717.324 1333.1 716.684 1332.17L720.476 1330.64ZM726.188 1328.48C726.604 1329.08 727.052 1329.79 727.532 1330.59C728.012 1331.39 728.476 1332.19 728.924 1332.99C729.404 1333.76 729.788 1334.43 730.076 1335L726.236 1336.64C725.724 1335.64 725.116 1334.52 724.412 1333.28C723.708 1332 723.02 1330.91 722.348 1330.01L726.188 1328.48Z" fill="black"/>
<path d="M658.172 1331.5C658.012 1332.37 657.756 1333.49 657.404 1334.86C657.052 1336.24 656.54 1337.79 655.868 1339.52C655.356 1340.7 654.764 1341.94 654.092 1343.22C653.452 1344.46 652.796 1345.58 652.124 1346.58C652.54 1346.38 653.068 1346.22 653.708 1346.1C654.348 1345.94 655.004 1345.82 655.676 1345.76C656.38 1345.66 657.004 1345.62 657.548 1345.62C659.564 1345.62 661.228 1346.19 662.54 1347.34C663.884 1348.5 664.556 1350.21 664.556 1352.48C664.556 1353.12 664.556 1353.9 664.556 1354.83C664.588 1355.76 664.62 1356.74 664.652 1357.76C664.684 1358.75 664.716 1359.73 664.748 1360.69C664.78 1361.65 664.796 1362.51 664.796 1363.28H659.036C659.1 1362.74 659.132 1362.1 659.132 1361.36C659.164 1360.59 659.18 1359.79 659.18 1358.96C659.212 1358.13 659.228 1357.33 659.228 1356.56C659.26 1355.76 659.276 1355.04 659.276 1354.4C659.276 1352.86 658.86 1351.81 658.028 1351.23C657.228 1350.62 656.332 1350.32 655.34 1350.32C653.996 1350.32 652.636 1350.66 651.26 1351.33C649.916 1351.97 648.78 1352.74 647.852 1353.63C647.148 1354.34 646.428 1355.12 645.692 1355.98C644.988 1356.85 644.22 1357.82 643.388 1358.91L638.252 1355.07C640.332 1353.15 642.124 1351.3 643.628 1349.5C645.164 1347.71 646.46 1345.94 647.516 1344.18C648.572 1342.42 649.436 1340.66 650.108 1338.9C650.588 1337.62 650.972 1336.29 651.26 1334.91C651.58 1333.5 651.772 1332.19 651.836 1330.98L658.172 1331.5ZM640.124 1335.92C641.34 1336.11 642.748 1336.26 644.348 1336.35C645.948 1336.45 647.356 1336.5 648.572 1336.5C650.684 1336.5 652.988 1336.45 655.484 1336.35C658.012 1336.26 660.572 1336.1 663.164 1335.87C665.756 1335.62 668.22 1335.3 670.556 1334.91L670.508 1340.48C668.812 1340.7 666.972 1340.91 664.988 1341.1C663.036 1341.26 661.036 1341.41 658.988 1341.54C656.972 1341.63 655.036 1341.71 653.18 1341.78C651.324 1341.81 649.676 1341.82 648.236 1341.82C647.596 1341.82 646.796 1341.82 645.836 1341.82C644.908 1341.79 643.948 1341.76 642.956 1341.73C641.964 1341.66 641.02 1341.6 640.124 1341.54V1335.92ZM678.14 1349.55C677.628 1349.71 677.02 1349.92 676.316 1350.18C675.644 1350.4 674.956 1350.64 674.252 1350.9C673.58 1351.12 672.972 1351.34 672.428 1351.57C670.892 1352.18 669.068 1352.91 666.956 1353.78C664.876 1354.64 662.7 1355.65 660.428 1356.8C658.988 1357.57 657.772 1358.32 656.78 1359.06C655.788 1359.79 655.036 1360.54 654.524 1361.31C654.012 1362.05 653.756 1362.86 653.756 1363.76C653.756 1364.43 653.9 1364.99 654.188 1365.44C654.476 1365.86 654.908 1366.19 655.484 1366.45C656.06 1366.7 656.78 1366.88 657.644 1366.98C658.508 1367.07 659.532 1367.12 660.716 1367.12C662.764 1367.12 665.02 1367.01 667.484 1366.78C669.948 1366.53 672.236 1366.19 674.348 1365.78L674.156 1371.97C673.132 1372.1 671.836 1372.22 670.268 1372.35C668.7 1372.51 667.068 1372.62 665.372 1372.69C663.708 1372.75 662.108 1372.78 660.572 1372.78C658.076 1372.78 655.836 1372.54 653.852 1372.06C651.868 1371.58 650.3 1370.77 649.148 1369.62C648.028 1368.43 647.468 1366.82 647.468 1364.77C647.468 1363.1 647.836 1361.6 648.572 1360.26C649.34 1358.91 650.348 1357.7 651.596 1356.61C652.844 1355.52 654.204 1354.54 655.676 1353.68C657.18 1352.78 658.652 1351.97 660.092 1351.23C661.564 1350.46 662.892 1349.81 664.076 1349.26C665.26 1348.72 666.364 1348.24 667.388 1347.82C668.444 1347.38 669.452 1346.93 670.412 1346.48C671.34 1346.06 672.236 1345.66 673.1 1345.28C673.964 1344.86 674.844 1344.43 675.74 1343.98L678.14 1349.55Z" fill="black"/>
<path d="M607.724 1329.2H613.58V1368.8C613.58 1370.21 613.388 1371.27 613.004 1371.97C612.62 1372.68 611.964 1373.24 611.036 1373.65C610.108 1374 608.956 1374.23 607.58 1374.32C606.236 1374.42 604.54 1374.47 602.492 1374.47C602.364 1373.8 602.108 1373.01 601.724 1372.12C601.34 1371.25 600.956 1370.52 600.572 1369.91C601.372 1369.94 602.172 1369.97 602.972 1370C603.772 1370 604.492 1370 605.132 1370C605.804 1370 606.268 1370 606.524 1370C606.972 1369.97 607.276 1369.88 607.436 1369.72C607.628 1369.56 607.724 1369.25 607.724 1368.8V1329.2ZM589.772 1332.37H632.012V1336.88H589.772V1332.37ZM600.188 1342.5V1344.76H621.356V1342.5H600.188ZM594.668 1338.85H627.26V1348.4H594.668V1338.85ZM593.516 1350.56H628.076V1369.33H622.22V1354.45H593.516V1350.56ZM588.668 1356.52H633.116V1360.88H588.668V1356.52ZM593.132 1363.09H625.388V1367.27H593.132V1363.09Z" fill="black"/>
<path d="M562.652 1334.14C561.276 1335.74 559.564 1337.36 557.516 1338.99C555.468 1340.62 553.228 1342.17 550.796 1343.65C548.364 1345.09 545.868 1346.37 543.308 1347.49C543.084 1347.04 542.78 1346.53 542.396 1345.95C542.012 1345.34 541.612 1344.77 541.196 1344.22C540.78 1343.65 540.364 1343.15 539.948 1342.73C542.604 1341.71 545.18 1340.45 547.676 1338.94C550.172 1337.44 552.444 1335.84 554.492 1334.14C556.54 1332.41 558.204 1330.72 559.484 1329.05H565.292C566.636 1330.59 568.108 1332.03 569.708 1333.37C571.34 1334.69 573.036 1335.9 574.796 1337.02C576.556 1338.14 578.364 1339.15 580.22 1340.05C582.108 1340.91 583.996 1341.65 585.884 1342.25C585.212 1342.96 584.556 1343.77 583.916 1344.7C583.276 1345.63 582.716 1346.51 582.236 1347.34C579.932 1346.35 577.548 1345.15 575.084 1343.74C572.62 1342.3 570.3 1340.75 568.124 1339.09C565.948 1337.42 564.124 1335.77 562.652 1334.14ZM552.092 1349.41H573.212V1353.53H552.092V1349.41ZM559.772 1338.75H565.724V1345.23H559.772V1338.75ZM543.5 1368.56C545.324 1368.4 547.372 1368.24 549.644 1368.08C551.948 1367.89 554.364 1367.69 556.892 1367.5C559.42 1367.28 561.932 1367.05 564.428 1366.83L564.524 1371.92C562.156 1372.14 559.756 1372.37 557.324 1372.59C554.924 1372.85 552.604 1373.07 550.364 1373.26C548.156 1373.49 546.124 1373.68 544.268 1373.84L543.5 1368.56ZM564.332 1358.91C566.06 1361.82 568.668 1364.14 572.156 1365.87C575.676 1367.57 579.932 1368.7 584.924 1369.28C584.54 1369.69 584.124 1370.19 583.676 1370.77C583.228 1371.37 582.812 1371.98 582.428 1372.59C582.044 1373.23 581.724 1373.81 581.468 1374.32C577.916 1373.74 574.748 1372.85 571.964 1371.63C569.18 1370.41 566.764 1368.88 564.716 1367.02C562.668 1365.13 560.924 1362.86 559.484 1360.21L564.332 1358.91ZM578.492 1357.9L582.668 1361.36C581.452 1362.19 580.156 1363.02 578.78 1363.85C577.404 1364.65 576.028 1365.41 574.652 1366.11C573.276 1366.78 571.98 1367.39 570.764 1367.93L567.356 1364.81C568.54 1364.24 569.804 1363.57 571.148 1362.8C572.492 1362 573.82 1361.18 575.132 1360.35C576.444 1359.49 577.564 1358.67 578.492 1357.9ZM552.092 1342.4H577.1V1360.64H552.092V1356.17H571.244V1346.91H552.092V1342.4ZM548.492 1342.4H554.204V1369.23L548.492 1369.81V1342.4Z" fill="black"/>
<path d="M511.772 1331.02C511.74 1331.28 511.692 1331.68 511.628 1332.22C511.564 1332.74 511.5 1333.26 511.436 1333.81C511.404 1334.32 511.372 1334.78 511.34 1335.2C511.276 1336.13 511.212 1337.15 511.148 1338.27C511.116 1339.36 511.084 1340.5 511.052 1341.68C511.02 1342.83 510.988 1344 510.956 1345.18C510.956 1346.37 510.956 1347.52 510.956 1348.64C510.956 1349.95 510.972 1351.41 511.004 1353.01C511.036 1354.58 511.068 1356.14 511.1 1357.71C511.164 1359.25 511.196 1360.66 511.196 1361.94C511.228 1363.22 511.244 1364.21 511.244 1364.91C511.244 1366.9 511.02 1368.43 510.572 1369.52C510.156 1370.61 509.548 1371.36 508.748 1371.78C507.948 1372.22 507.02 1372.45 505.964 1372.45C504.812 1372.45 503.58 1372.21 502.268 1371.73C500.956 1371.28 499.724 1370.64 498.572 1369.81C497.452 1368.98 496.524 1368.02 495.788 1366.93C495.084 1365.81 494.732 1364.61 494.732 1363.33C494.732 1361.79 495.308 1360.27 496.46 1358.77C497.644 1357.23 499.196 1355.82 501.116 1354.54C503.068 1353.26 505.164 1352.24 507.404 1351.47C509.548 1350.67 511.756 1350.1 514.028 1349.74C516.3 1349.36 518.348 1349.17 520.172 1349.17C522.636 1349.17 524.86 1349.58 526.844 1350.42C528.828 1351.22 530.412 1352.4 531.596 1353.97C532.78 1355.54 533.372 1357.42 533.372 1359.63C533.372 1361.49 533.02 1363.2 532.316 1364.77C531.612 1366.34 530.476 1367.7 528.908 1368.85C527.372 1369.97 525.324 1370.85 522.764 1371.49C521.676 1371.71 520.588 1371.87 519.5 1371.97C518.444 1372.1 517.436 1372.19 516.476 1372.26L514.268 1366.06C515.356 1366.06 516.396 1366.05 517.388 1366.02C518.412 1365.95 519.34 1365.86 520.172 1365.73C521.484 1365.47 522.668 1365.09 523.724 1364.58C524.78 1364.06 525.612 1363.39 526.22 1362.56C526.828 1361.73 527.132 1360.74 527.132 1359.58C527.132 1358.5 526.828 1357.57 526.22 1356.8C525.644 1356.03 524.828 1355.44 523.772 1355.02C522.716 1354.61 521.484 1354.4 520.076 1354.4C518.06 1354.4 516.012 1354.61 513.932 1355.02C511.884 1355.44 509.916 1356.02 508.028 1356.75C506.62 1357.3 505.356 1357.94 504.236 1358.67C503.116 1359.38 502.236 1360.11 501.596 1360.88C500.956 1361.65 500.636 1362.38 500.636 1363.09C500.636 1363.47 500.748 1363.84 500.972 1364.19C501.228 1364.51 501.548 1364.8 501.932 1365.06C502.316 1365.31 502.7 1365.52 503.084 1365.68C503.5 1365.81 503.852 1365.87 504.14 1365.87C504.588 1365.87 504.956 1365.74 505.244 1365.49C505.532 1365.2 505.676 1364.66 505.676 1363.86C505.676 1362.99 505.644 1361.76 505.58 1360.16C505.548 1358.53 505.5 1356.72 505.436 1354.74C505.404 1352.75 505.388 1350.78 505.388 1348.83C505.388 1347.49 505.388 1346.13 505.388 1344.75C505.42 1343.38 505.436 1342.06 505.436 1340.82C505.436 1339.57 505.436 1338.46 505.436 1337.5C505.468 1336.54 505.484 1335.79 505.484 1335.25C505.484 1334.9 505.468 1334.45 505.436 1333.9C505.404 1333.36 505.356 1332.82 505.292 1332.27C505.26 1331.7 505.212 1331.28 505.148 1331.02H511.772ZM525.452 1336.21C526.668 1336.78 528.028 1337.49 529.532 1338.32C531.068 1339.15 532.524 1339.98 533.9 1340.82C535.308 1341.62 536.428 1342.34 537.26 1342.98L534.38 1347.87C533.772 1347.36 532.972 1346.78 531.98 1346.14C531.02 1345.5 529.964 1344.85 528.812 1344.18C527.692 1343.5 526.604 1342.88 525.548 1342.3C524.492 1341.7 523.58 1341.22 522.812 1340.86L525.452 1336.21ZM496.028 1338.85C497.436 1339.01 498.668 1339.12 499.724 1339.18C500.812 1339.22 501.788 1339.23 502.652 1339.23C503.9 1339.23 505.276 1339.18 506.78 1339.09C508.284 1338.96 509.82 1338.8 511.388 1338.61C512.956 1338.38 514.476 1338.13 515.948 1337.84C517.452 1337.55 518.812 1337.23 520.028 1336.88L520.172 1342.83C518.828 1343.15 517.372 1343.44 515.804 1343.7C514.236 1343.92 512.652 1344.13 511.052 1344.32C509.484 1344.51 507.98 1344.66 506.54 1344.75C505.132 1344.85 503.9 1344.9 502.844 1344.9C501.244 1344.9 499.932 1344.88 498.908 1344.85C497.884 1344.82 496.956 1344.75 496.124 1344.66L496.028 1338.85Z" fill="black"/>
<path d="M464.348 1336.45C465.82 1336.64 467.468 1336.78 469.292 1336.88C471.148 1336.94 473.02 1336.98 474.908 1336.98C476.828 1336.94 478.668 1336.88 480.428 1336.78C482.188 1336.66 483.708 1336.53 484.988 1336.4V1342.59C483.516 1342.72 481.9 1342.83 480.14 1342.93C478.38 1342.99 476.572 1343.02 474.716 1343.02C472.86 1343.02 471.036 1342.99 469.244 1342.93C467.484 1342.83 465.852 1342.72 464.348 1342.59V1336.45ZM468.188 1356.94C467.996 1357.74 467.852 1358.46 467.756 1359.1C467.66 1359.71 467.612 1360.34 467.612 1360.98C467.612 1361.49 467.74 1361.97 467.996 1362.42C468.252 1362.83 468.636 1363.2 469.148 1363.52C469.692 1363.81 470.38 1364.03 471.212 1364.19C472.076 1364.32 473.116 1364.38 474.332 1364.38C476.476 1364.38 478.492 1364.29 480.38 1364.1C482.268 1363.87 484.268 1363.55 486.38 1363.14L486.476 1369.62C484.94 1369.9 483.164 1370.13 481.148 1370.29C479.164 1370.45 476.812 1370.53 474.092 1370.53C469.964 1370.53 466.892 1369.84 464.876 1368.46C462.86 1367.06 461.852 1365.12 461.852 1362.66C461.852 1361.73 461.916 1360.77 462.044 1359.78C462.204 1358.75 462.412 1357.63 462.668 1356.42L468.188 1356.94ZM456.956 1333.23C456.828 1333.55 456.684 1334 456.524 1334.58C456.364 1335.15 456.204 1335.71 456.044 1336.26C455.916 1336.8 455.82 1337.22 455.756 1337.5C455.66 1338.18 455.5 1339.06 455.276 1340.14C455.084 1341.2 454.876 1342.4 454.652 1343.74C454.46 1345.06 454.268 1346.4 454.076 1347.78C453.884 1349.15 453.724 1350.48 453.596 1351.76C453.5 1353.04 453.452 1354.16 453.452 1355.12C453.452 1355.57 453.452 1356.08 453.452 1356.66C453.484 1357.23 453.548 1357.76 453.644 1358.24C453.868 1357.7 454.108 1357.15 454.364 1356.61C454.62 1356.06 454.876 1355.52 455.132 1354.98C455.388 1354.4 455.612 1353.86 455.804 1353.34L458.78 1355.7C458.332 1357.01 457.868 1358.42 457.388 1359.92C456.94 1361.42 456.524 1362.85 456.14 1364.19C455.788 1365.5 455.516 1366.59 455.324 1367.46C455.26 1367.81 455.196 1368.21 455.132 1368.66C455.1 1369.1 455.084 1369.46 455.084 1369.71C455.084 1369.97 455.084 1370.27 455.084 1370.62C455.116 1371.01 455.148 1371.36 455.18 1371.68L449.612 1372.06C449.132 1370.4 448.7 1368.19 448.316 1365.44C447.932 1362.66 447.74 1359.63 447.74 1356.37C447.74 1354.58 447.82 1352.75 447.98 1350.9C448.14 1349.04 448.332 1347.26 448.556 1345.57C448.78 1343.84 448.988 1342.27 449.18 1340.86C449.404 1339.46 449.596 1338.29 449.756 1337.36C449.82 1336.69 449.9 1335.94 449.996 1335.1C450.124 1334.24 450.204 1333.42 450.236 1332.66L456.956 1333.23Z" fill="black"/>
<path d="M421.484 1333.81C421.164 1334.51 420.828 1335.31 420.476 1336.21C420.124 1337.07 419.772 1338.05 419.42 1339.14C419.132 1340.03 418.764 1341.19 418.316 1342.59C417.868 1343.97 417.372 1345.49 416.828 1347.15C416.284 1348.79 415.708 1350.48 415.1 1352.24C414.524 1353.97 413.964 1355.65 413.42 1357.28C412.876 1358.91 412.364 1360.4 411.884 1361.75C411.404 1363.06 410.988 1364.13 410.636 1364.96L403.532 1365.2C403.98 1364.18 404.476 1362.93 405.02 1361.46C405.564 1359.99 406.14 1358.39 406.748 1356.66C407.356 1354.9 407.948 1353.11 408.524 1351.28C409.132 1349.46 409.692 1347.7 410.204 1346C410.748 1344.31 411.228 1342.74 411.644 1341.3C412.092 1339.86 412.444 1338.69 412.7 1337.79C413.02 1336.55 413.26 1335.52 413.42 1334.72C413.612 1333.89 413.756 1333.06 413.852 1332.23L421.484 1333.81ZM430.076 1349.31C430.94 1350.59 431.868 1352.1 432.86 1353.83C433.852 1355.55 434.828 1357.36 435.788 1359.25C436.78 1361.11 437.692 1362.9 438.524 1364.63C439.356 1366.35 440.044 1367.91 440.588 1369.28L434.108 1372.16C433.564 1370.69 432.892 1369.03 432.092 1367.17C431.324 1365.31 430.476 1363.43 429.548 1361.51C428.652 1359.59 427.724 1357.78 426.764 1356.08C425.836 1354.35 424.94 1352.91 424.076 1351.76L430.076 1349.31ZM403.1 1363.09C404.188 1363.03 405.5 1362.95 407.036 1362.85C408.604 1362.72 410.284 1362.58 412.076 1362.42C413.868 1362.23 415.692 1362.03 417.548 1361.84C419.436 1361.65 421.276 1361.46 423.068 1361.27C424.892 1361.04 426.588 1360.83 428.156 1360.64C429.724 1360.45 431.052 1360.27 432.14 1360.11L433.58 1366.26C432.396 1366.42 430.972 1366.59 429.308 1366.79C427.676 1366.98 425.916 1367.19 424.028 1367.41C422.14 1367.6 420.22 1367.81 418.268 1368.03C416.316 1368.26 414.412 1368.47 412.556 1368.66C410.7 1368.85 408.988 1369.03 407.42 1369.19C405.852 1369.31 404.524 1369.44 403.436 1369.57C402.828 1369.63 402.108 1369.73 401.276 1369.86C400.476 1369.95 399.692 1370.05 398.924 1370.15L397.82 1363.14C398.62 1363.14 399.5 1363.14 400.46 1363.14C401.452 1363.14 402.332 1363.12 403.1 1363.09Z" fill="black"/>
<path d="M350.757 1351.33C355.077 1350.21 358.981 1348.91 362.469 1347.44C365.989 1345.93 369.077 1344.37 371.733 1342.73C373.397 1341.71 375.061 1340.54 376.725 1339.23C378.421 1337.89 380.005 1336.51 381.477 1335.1C382.981 1333.69 384.245 1332.35 385.269 1331.07L390.453 1336.01C388.981 1337.45 387.365 1338.91 385.605 1340.38C383.877 1341.85 382.069 1343.26 380.181 1344.61C378.293 1345.95 376.421 1347.18 374.565 1348.3C372.741 1349.36 370.693 1350.45 368.421 1351.57C366.181 1352.69 363.813 1353.74 361.317 1354.73C358.821 1355.73 356.309 1356.61 353.781 1357.37L350.757 1351.33ZM370.725 1345.81L377.541 1344.22V1365.82C377.541 1366.53 377.557 1367.29 377.589 1368.13C377.621 1368.96 377.669 1369.73 377.733 1370.43C377.797 1371.17 377.877 1371.73 377.973 1372.11H370.389C370.453 1371.73 370.501 1371.17 370.533 1370.43C370.597 1369.73 370.645 1368.96 370.677 1368.13C370.709 1367.29 370.725 1366.53 370.725 1365.82V1345.81Z" fill="black"/>
<path d="M320.373 1347.53C321.845 1348.36 323.445 1349.36 325.173 1350.51C326.933 1351.63 328.709 1352.8 330.501 1354.01C332.293 1355.23 333.973 1356.41 335.541 1357.56C337.141 1358.72 338.485 1359.74 339.573 1360.64L335.013 1366.06C333.957 1365.1 332.645 1364 331.077 1362.75C329.541 1361.47 327.877 1360.17 326.085 1358.86C324.293 1357.52 322.517 1356.24 320.757 1355.02C319.029 1353.8 317.477 1352.76 316.101 1351.9L320.373 1347.53ZM342.933 1339.37C342.645 1339.82 342.357 1340.35 342.069 1340.96C341.781 1341.56 341.541 1342.17 341.349 1342.78C340.869 1344.25 340.213 1345.9 339.381 1347.72C338.581 1349.52 337.621 1351.36 336.501 1353.24C335.381 1355.1 334.101 1356.92 332.661 1358.72C330.389 1361.53 327.653 1364.2 324.453 1366.73C321.285 1369.26 317.397 1371.4 312.789 1373.16L307.221 1368.32C310.581 1367.29 313.493 1366.08 315.957 1364.67C318.421 1363.26 320.549 1361.76 322.341 1360.16C324.165 1358.56 325.749 1356.96 327.093 1355.36C328.181 1354.11 329.205 1352.72 330.165 1351.18C331.157 1349.61 332.005 1348.06 332.709 1346.52C333.445 1344.96 333.957 1343.56 334.245 1342.35H318.021L320.229 1336.88H333.861C334.629 1336.88 335.381 1336.83 336.117 1336.73C336.885 1336.64 337.525 1336.51 338.037 1336.35L342.933 1339.37ZM327.093 1331.98C326.517 1332.81 325.941 1333.71 325.365 1334.67C324.821 1335.63 324.405 1336.36 324.117 1336.88C323.029 1338.8 321.653 1340.84 319.989 1343.02C318.325 1345.16 316.453 1347.26 314.373 1349.31C312.325 1351.36 310.149 1353.18 307.845 1354.78L302.661 1350.8C305.477 1349.04 307.861 1347.2 309.813 1345.28C311.797 1343.32 313.445 1341.45 314.757 1339.66C316.069 1337.84 317.125 1336.22 317.925 1334.81C318.309 1334.24 318.709 1333.47 319.125 1332.51C319.573 1331.52 319.909 1330.62 320.133 1329.82L327.093 1331.98Z" fill="black"/>
<path d="M256.197 1347.77C256.773 1347.81 257.509 1347.85 258.405 1347.92C259.301 1347.95 260.229 1347.98 261.189 1348.01C262.181 1348.05 263.093 1348.06 263.925 1348.06C264.725 1348.06 265.717 1348.06 266.901 1348.06C268.085 1348.06 269.365 1348.06 270.741 1348.06C272.149 1348.06 273.589 1348.06 275.061 1348.06C276.565 1348.06 278.053 1348.06 279.525 1348.06C280.997 1348.06 282.389 1348.06 283.701 1348.06C285.013 1348.06 286.181 1348.06 287.205 1348.06C288.261 1348.06 289.093 1348.06 289.701 1348.06C290.821 1348.06 291.877 1348.03 292.869 1347.97C293.861 1347.87 294.677 1347.81 295.317 1347.77V1355.31C294.773 1355.28 293.957 1355.23 292.869 1355.17C291.781 1355.1 290.725 1355.07 289.701 1355.07C289.093 1355.07 288.261 1355.07 287.205 1355.07C286.149 1355.07 284.965 1355.07 283.653 1355.07C282.341 1355.07 280.949 1355.07 279.477 1355.07C278.037 1355.07 276.565 1355.07 275.061 1355.07C273.557 1355.07 272.101 1355.07 270.693 1355.07C269.317 1355.07 268.037 1355.07 266.853 1355.07C265.701 1355.07 264.725 1355.07 263.925 1355.07C262.549 1355.07 261.141 1355.1 259.701 1355.17C258.261 1355.2 257.093 1355.25 256.197 1355.31V1347.77Z" fill="black"/>
<path d="M225.765 1337.65C225.765 1336.85 225.717 1335.9 225.621 1334.82C225.525 1333.7 225.365 1332.77 225.141 1332.03H232.773C232.645 1332.77 232.549 1333.71 232.485 1334.86C232.421 1335.98 232.389 1336.93 232.389 1337.7C232.389 1338.59 232.389 1339.57 232.389 1340.62C232.389 1341.68 232.389 1342.77 232.389 1343.89C232.389 1345.01 232.389 1346.1 232.389 1347.15C232.389 1349.78 232.181 1352.27 231.765 1354.64C231.349 1356.98 230.629 1359.22 229.605 1361.36C228.613 1363.5 227.221 1365.52 225.429 1367.41C223.669 1369.3 221.413 1371.06 218.661 1372.69L212.709 1368.27C215.237 1367.12 217.333 1365.79 218.997 1364.29C220.693 1362.78 222.037 1361.14 223.029 1359.34C224.021 1357.55 224.725 1355.63 225.141 1353.58C225.557 1351.54 225.765 1349.39 225.765 1347.15C225.765 1346.1 225.765 1345.01 225.765 1343.89C225.765 1342.74 225.765 1341.63 225.765 1340.58C225.765 1339.49 225.765 1338.51 225.765 1337.65ZM207.957 1342.59C208.693 1342.66 209.525 1342.74 210.453 1342.83C211.381 1342.9 212.325 1342.93 213.285 1342.93C213.701 1342.93 214.485 1342.93 215.637 1342.93C216.821 1342.93 218.245 1342.93 219.909 1342.93C221.573 1342.93 223.365 1342.93 225.285 1342.93C227.205 1342.93 229.125 1342.93 231.045 1342.93C232.997 1342.93 234.805 1342.93 236.469 1342.93C238.133 1342.93 239.557 1342.93 240.741 1342.93C241.925 1342.93 242.741 1342.93 243.189 1342.93C244.309 1342.93 245.333 1342.9 246.261 1342.83C247.221 1342.77 247.941 1342.7 248.421 1342.64V1349.17C247.941 1349.14 247.173 1349.1 246.117 1349.07C245.093 1349.01 244.101 1348.98 243.141 1348.98C242.693 1348.98 241.877 1348.98 240.693 1348.98C239.541 1348.98 238.117 1348.98 236.421 1348.98C234.757 1348.98 232.965 1348.98 231.045 1348.98C229.157 1348.98 227.253 1348.98 225.333 1348.98C223.413 1348.98 221.621 1348.98 219.957 1348.98C218.293 1348.98 216.885 1348.98 215.733 1348.98C214.581 1348.98 213.829 1348.98 213.477 1348.98C212.421 1348.98 211.429 1349.01 210.501 1349.07C209.573 1349.1 208.725 1349.15 207.957 1349.22V1342.59Z" fill="black"/>
<path d="M160.917 1356.32C162.997 1355.88 165.109 1355.27 167.253 1354.5C169.429 1353.7 171.461 1352.85 173.349 1351.96C175.237 1351.03 176.821 1350.2 178.101 1349.46C179.669 1348.5 181.205 1347.43 182.709 1346.24C184.245 1345.03 185.653 1343.81 186.933 1342.6C188.213 1341.38 189.253 1340.24 190.053 1339.19L194.805 1343.84C193.877 1344.9 192.645 1346.07 191.109 1347.35C189.605 1348.6 187.973 1349.86 186.213 1351.14C184.453 1352.39 182.693 1353.52 180.933 1354.55C179.845 1355.22 178.597 1355.91 177.189 1356.61C175.781 1357.28 174.293 1357.96 172.725 1358.63C171.189 1359.27 169.637 1359.88 168.069 1360.45C166.533 1361.03 165.093 1361.54 163.749 1361.99L160.917 1356.32ZM177.525 1353.2L184.053 1351.96V1369.04C184.053 1369.59 184.053 1370.21 184.053 1370.92C184.085 1371.62 184.133 1372.26 184.197 1372.84C184.261 1373.44 184.325 1373.91 184.389 1374.23H177.285C177.349 1373.91 177.381 1373.44 177.381 1372.84C177.413 1372.26 177.445 1371.62 177.477 1370.92C177.509 1370.21 177.525 1369.59 177.525 1369.04V1353.2Z" fill="black"/>
<path d="M120.18 1333.76C120.948 1333.89 121.796 1333.99 122.724 1334.05C123.652 1334.11 124.516 1334.15 125.316 1334.15C125.924 1334.15 126.756 1334.15 127.812 1334.15C128.868 1334.15 130.036 1334.15 131.316 1334.15C132.596 1334.15 133.86 1334.15 135.108 1334.15C136.388 1334.15 137.556 1334.15 138.612 1334.15C139.668 1334.15 140.468 1334.15 141.012 1334.15C141.844 1334.15 142.708 1334.11 143.604 1334.05C144.5 1333.99 145.364 1333.89 146.196 1333.76V1339.95C145.364 1339.89 144.5 1339.86 143.604 1339.86C142.708 1339.83 141.844 1339.81 141.012 1339.81C140.468 1339.81 139.668 1339.81 138.612 1339.81C137.556 1339.81 136.388 1339.81 135.108 1339.81C133.86 1339.81 132.596 1339.81 131.316 1339.81C130.068 1339.81 128.9 1339.81 127.812 1339.81C126.756 1339.81 125.924 1339.81 125.316 1339.81C124.484 1339.81 123.604 1339.83 122.676 1339.86C121.748 1339.86 120.916 1339.89 120.18 1339.95V1333.76ZM114.612 1346.05C115.316 1346.15 116.068 1346.23 116.868 1346.29C117.7 1346.32 118.484 1346.34 119.22 1346.34C119.636 1346.34 120.468 1346.34 121.716 1346.34C122.964 1346.34 124.468 1346.34 126.228 1346.34C128.02 1346.34 129.924 1346.34 131.94 1346.34C133.956 1346.34 135.972 1346.34 137.988 1346.34C140.036 1346.34 141.94 1346.34 143.7 1346.34C145.46 1346.34 146.948 1346.34 148.164 1346.34C149.412 1346.34 150.244 1346.34 150.66 1346.34C151.172 1346.34 151.86 1346.32 152.724 1346.29C153.62 1346.23 154.388 1346.15 155.028 1346.05V1352.29C154.452 1352.23 153.748 1352.19 152.916 1352.19C152.084 1352.16 151.332 1352.15 150.66 1352.15C150.244 1352.15 149.412 1352.15 148.164 1352.15C146.948 1352.15 145.46 1352.15 143.7 1352.15C141.94 1352.15 140.036 1352.15 137.988 1352.15C135.972 1352.15 133.956 1352.15 131.94 1352.15C129.924 1352.15 128.02 1352.15 126.228 1352.15C124.468 1352.15 122.964 1352.15 121.716 1352.15C120.468 1352.15 119.636 1352.15 119.22 1352.15C118.516 1352.15 117.732 1352.16 116.868 1352.19C116.036 1352.23 115.284 1352.27 114.612 1352.34V1346.05ZM139.188 1349.41C139.188 1352.51 138.916 1355.31 138.372 1357.81C137.828 1360.27 137.044 1362.5 136.02 1364.48C135.476 1365.57 134.708 1366.69 133.716 1367.84C132.756 1368.99 131.652 1370.08 130.404 1371.11C129.156 1372.13 127.812 1372.99 126.372 1373.7L120.756 1369.62C122.452 1368.98 124.084 1368.03 125.652 1366.79C127.22 1365.51 128.484 1364.16 129.444 1362.75C130.66 1360.93 131.476 1358.9 131.892 1356.66C132.308 1354.42 132.516 1352 132.516 1349.41H139.188ZM149.076 1330.45C149.492 1331.03 149.924 1331.71 150.372 1332.51C150.852 1333.31 151.3 1334.11 151.716 1334.91C152.164 1335.71 152.548 1336.42 152.868 1337.03L149.028 1338.71C148.516 1337.71 147.908 1336.59 147.204 1335.35C146.532 1334.07 145.876 1332.96 145.236 1332.03L149.076 1330.45ZM154.74 1328.29C155.156 1328.9 155.604 1329.62 156.084 1330.45C156.564 1331.25 157.028 1332.05 157.476 1332.85C157.956 1333.62 158.34 1334.27 158.628 1334.82L154.788 1336.5C154.308 1335.47 153.7 1334.34 152.964 1333.09C152.26 1331.84 151.588 1330.77 150.948 1329.87L154.74 1328.29Z" fill="black"/>
<path d="M637.418 1141.06C637.56 1141.96 637.75 1142.96 637.986 1144.04C638.223 1145.09 638.483 1146.2 638.767 1147.38C639.335 1149.27 639.974 1151.59 640.684 1154.34C641.442 1157.04 642.246 1159.95 643.098 1163.07C643.998 1166.15 644.873 1169.27 645.725 1172.44C646.625 1175.62 647.477 1178.65 648.281 1181.53C649.086 1184.42 649.796 1187 650.411 1189.27C651.074 1191.5 651.571 1193.22 651.902 1194.45C652.092 1194.93 652.305 1195.59 652.541 1196.44C652.778 1197.25 653.038 1198.08 653.322 1198.93C653.654 1199.78 653.938 1200.51 654.174 1201.13L643.595 1203.61C643.453 1202.62 643.24 1201.46 642.956 1200.13C642.672 1198.81 642.365 1197.55 642.033 1196.37C641.749 1195.38 641.347 1193.96 640.826 1192.11C640.353 1190.22 639.785 1188.04 639.122 1185.58C638.46 1183.12 637.75 1180.51 636.992 1177.77C636.282 1174.98 635.549 1172.18 634.791 1169.39C634.034 1166.6 633.3 1163.92 632.59 1161.37C631.928 1158.81 631.312 1156.52 630.744 1154.48C630.176 1152.45 629.703 1150.84 629.324 1149.65C628.898 1148.04 628.496 1146.79 628.117 1145.89C627.739 1144.94 627.36 1144.12 626.981 1143.41L637.418 1141.06ZM678.74 1153.98C677.888 1155.78 676.752 1157.84 675.332 1160.16C673.96 1162.48 672.421 1164.87 670.717 1167.33C669.061 1169.79 667.357 1172.14 665.605 1174.36C663.901 1176.59 662.339 1178.5 660.919 1180.11L651.76 1175.78C653.086 1174.65 654.411 1173.39 655.736 1172.02C657.062 1170.6 658.316 1169.15 659.499 1167.69C660.683 1166.22 661.748 1164.82 662.694 1163.5C663.641 1162.13 664.398 1160.94 664.966 1159.95C664.304 1160.04 663.097 1160.28 661.345 1160.66C659.594 1160.99 657.44 1161.42 654.884 1161.94C652.376 1162.41 649.654 1162.95 646.719 1163.57C643.832 1164.18 640.897 1164.8 637.915 1165.42C634.933 1165.98 632.093 1166.55 629.395 1167.12C626.745 1167.69 624.402 1168.21 622.366 1168.68C620.378 1169.11 618.887 1169.44 617.893 1169.68L615.408 1160.09C616.781 1159.95 618.106 1159.81 619.384 1159.66C620.662 1159.48 622.011 1159.29 623.431 1159.1C624.047 1159 625.206 1158.81 626.91 1158.53C628.662 1158.2 630.744 1157.82 633.158 1157.39C635.572 1156.92 638.176 1156.42 640.968 1155.9C643.761 1155.38 646.554 1154.86 649.346 1154.34C652.186 1153.77 654.861 1153.25 657.369 1152.78C659.878 1152.26 662.055 1151.81 663.901 1151.43C665.795 1151.05 667.167 1150.77 668.019 1150.58C668.777 1150.43 669.534 1150.25 670.291 1150.01C671.049 1149.77 671.688 1149.54 672.208 1149.3L678.74 1153.98Z" fill="black"/>
<path d="M598.013 1143.91C597.966 1144.9 597.895 1145.99 597.8 1147.17C597.753 1148.31 597.729 1149.59 597.729 1151.01C597.729 1152.24 597.729 1153.73 597.729 1155.48C597.729 1157.23 597.729 1158.98 597.729 1160.73C597.729 1162.44 597.729 1163.88 597.729 1165.06C597.729 1168.85 597.54 1172.16 597.161 1175C596.83 1177.84 596.309 1180.33 595.599 1182.46C594.889 1184.59 594.013 1186.48 592.972 1188.14C591.978 1189.75 590.818 1191.29 589.493 1192.75C587.931 1194.46 586.132 1196 584.097 1197.37C582.062 1198.69 580.003 1199.81 577.92 1200.71C575.885 1201.65 573.991 1202.41 572.24 1202.98L564.785 1195.17C568.335 1194.36 571.53 1193.25 574.37 1191.83C577.257 1190.36 579.766 1188.49 581.896 1186.22C583.127 1184.85 584.121 1183.48 584.878 1182.1C585.635 1180.73 586.203 1179.22 586.582 1177.56C587.008 1175.86 587.292 1173.94 587.434 1171.81C587.623 1169.68 587.718 1167.24 587.718 1164.5C587.718 1163.27 587.718 1161.8 587.718 1160.09C587.718 1158.39 587.718 1156.71 587.718 1155.05C587.718 1153.4 587.718 1152.05 587.718 1151.01C587.718 1149.59 587.671 1148.31 587.576 1147.17C587.529 1145.99 587.434 1144.9 587.292 1143.91H598.013ZM565.069 1144.47C565.022 1145.33 564.974 1146.18 564.927 1147.03C564.88 1147.83 564.856 1148.81 564.856 1149.94C564.856 1150.46 564.856 1151.31 564.856 1152.5C564.856 1153.68 564.856 1155.08 564.856 1156.69C564.856 1158.25 564.856 1159.9 564.856 1161.66C564.856 1163.36 564.856 1165.02 564.856 1166.63C564.856 1168.24 564.856 1169.7 564.856 1171.03C564.856 1172.31 564.856 1173.28 564.856 1173.94C564.856 1174.84 564.88 1175.88 564.927 1177.06C564.974 1178.25 565.022 1179.26 565.069 1180.12H554.774C554.821 1179.45 554.892 1178.51 554.987 1177.28C555.082 1176.05 555.129 1174.91 555.129 1173.87C555.129 1173.21 555.129 1172.24 555.129 1170.96C555.129 1169.68 555.129 1168.24 555.129 1166.63C555.129 1164.97 555.129 1163.29 555.129 1161.59C555.129 1159.83 555.129 1158.18 555.129 1156.62C555.129 1155.05 555.129 1153.68 555.129 1152.5C555.129 1151.31 555.129 1150.46 555.129 1149.94C555.129 1149.28 555.105 1148.43 555.058 1147.39C555.011 1146.3 554.94 1145.33 554.845 1144.47H565.069Z" fill="black"/>
<path d="M494.566 1143.05C494.377 1144.14 494.235 1145.4 494.14 1146.82C494.093 1148.24 494.069 1149.44 494.069 1150.44C494.069 1151.15 494.069 1152.4 494.069 1154.2C494.069 1156 494.069 1158.11 494.069 1160.52C494.069 1162.89 494.069 1165.4 494.069 1168.05C494.069 1170.65 494.069 1173.18 494.069 1175.64C494.069 1178.06 494.069 1180.21 494.069 1182.1C494.069 1184 494.069 1185.39 494.069 1186.29C494.069 1187.81 494.424 1188.85 495.134 1189.42C495.891 1189.99 497.075 1190.44 498.684 1190.77C499.725 1190.91 500.956 1191.03 502.376 1191.12C503.796 1191.17 505.287 1191.19 506.849 1191.19C508.695 1191.19 510.73 1191.15 512.955 1191.05C515.227 1190.91 517.499 1190.74 519.771 1190.55C522.09 1190.36 524.268 1190.1 526.303 1189.77C528.386 1189.44 530.161 1189.09 531.628 1188.71V1199.14C529.403 1199.43 526.8 1199.67 523.818 1199.85C520.883 1200.09 517.878 1200.26 514.801 1200.35C511.772 1200.49 508.932 1200.56 506.281 1200.56C504.009 1200.56 501.832 1200.49 499.749 1200.35C497.666 1200.21 495.868 1200.02 494.353 1199.78C491.276 1199.22 488.886 1198.06 487.182 1196.3C485.478 1194.55 484.626 1192.16 484.626 1189.13C484.626 1187.76 484.626 1185.99 484.626 1183.81C484.626 1181.58 484.626 1179.15 484.626 1176.5C484.626 1173.8 484.626 1171.1 484.626 1168.4C484.626 1165.66 484.626 1163.08 484.626 1160.66C484.626 1158.2 484.626 1156.07 484.626 1154.27C484.626 1152.47 484.626 1151.2 484.626 1150.44C484.626 1149.73 484.602 1148.92 484.555 1148.02C484.508 1147.13 484.437 1146.23 484.342 1145.33C484.247 1144.38 484.153 1143.62 484.058 1143.05H494.566ZM489.88 1164.85C492.152 1164.38 494.59 1163.79 497.193 1163.08C499.796 1162.37 502.4 1161.61 505.003 1160.8C507.654 1160 510.162 1159.17 512.529 1158.32C514.896 1157.47 517.002 1156.66 518.848 1155.91C520.126 1155.39 521.38 1154.82 522.611 1154.2C523.889 1153.59 525.214 1152.88 526.587 1152.07L530.421 1161.02C529.048 1161.59 527.605 1162.18 526.09 1162.79C524.623 1163.41 523.297 1163.95 522.114 1164.43C520.031 1165.23 517.641 1166.08 514.943 1166.98C512.245 1167.88 509.429 1168.78 506.494 1169.68C503.607 1170.53 500.719 1171.36 497.832 1172.16C494.992 1172.92 492.365 1173.58 489.951 1174.15L489.88 1164.85Z" fill="black"/>
<path d="M466.805 1150.93C466.426 1151.41 465.953 1152.02 465.385 1152.78C464.817 1153.49 464.367 1154.11 464.036 1154.63C462.947 1156.47 461.504 1158.6 459.705 1161.02C457.906 1163.38 455.918 1165.75 453.741 1168.12C451.564 1170.44 449.315 1172.42 446.996 1174.08L439.612 1168.19C441.032 1167.34 442.428 1166.34 443.801 1165.21C445.174 1164.07 446.428 1162.89 447.564 1161.66C448.747 1160.38 449.765 1159.17 450.617 1158.03C451.516 1156.9 452.203 1155.88 452.676 1154.98C452.061 1154.98 451.019 1154.98 449.552 1154.98C448.085 1154.98 446.333 1154.98 444.298 1154.98C442.263 1154.98 440.062 1154.98 437.695 1154.98C435.376 1154.98 433.056 1154.98 430.737 1154.98C428.418 1154.98 426.217 1154.98 424.134 1154.98C422.099 1154.98 420.324 1154.98 418.809 1154.98C417.342 1154.98 416.3 1154.98 415.685 1154.98C414.218 1154.98 412.821 1155.03 411.496 1155.12C410.171 1155.22 408.68 1155.34 407.023 1155.48V1145.61C408.396 1145.8 409.816 1145.96 411.283 1146.11C412.75 1146.25 414.218 1146.32 415.685 1146.32C416.3 1146.32 417.389 1146.32 418.951 1146.32C420.513 1146.32 422.359 1146.32 424.489 1146.32C426.666 1146.32 428.962 1146.32 431.376 1146.32C433.837 1146.32 436.275 1146.32 438.689 1146.32C441.15 1146.32 443.422 1146.32 445.505 1146.32C447.635 1146.32 449.434 1146.32 450.901 1146.32C452.416 1146.32 453.433 1146.32 453.954 1146.32C454.617 1146.32 455.421 1146.3 456.368 1146.25C457.315 1146.2 458.238 1146.13 459.137 1146.04C460.084 1145.94 460.77 1145.82 461.196 1145.68L466.805 1150.93ZM437.837 1160.52C437.837 1164.02 437.766 1167.41 437.624 1170.67C437.482 1173.94 437.08 1177.09 436.417 1180.12C435.802 1183.1 434.784 1185.94 433.364 1188.64C431.991 1191.33 430.074 1193.89 427.613 1196.3C425.152 1198.72 422.004 1200.94 418.17 1202.98L409.863 1196.23C410.999 1195.85 412.206 1195.36 413.484 1194.74C414.762 1194.08 416.04 1193.27 417.318 1192.33C419.59 1190.77 421.412 1189.11 422.785 1187.36C424.205 1185.61 425.294 1183.71 426.051 1181.68C426.808 1179.59 427.329 1177.35 427.613 1174.93C427.897 1172.47 428.039 1169.8 428.039 1166.91C428.039 1165.82 428.015 1164.78 427.968 1163.79C427.921 1162.74 427.779 1161.66 427.542 1160.52H437.837Z" fill="black"/>
</svg>
