<svg width="1080" height="1920" viewBox="0 0 1080 1920" fill="none" xmlns="http://www.w3.org/2000/svg">
<path d="M1080 1920L1080 0L0 0L0 1920H1080Z" fill="#A5D4AD"/>
<path d="M1020 983.72V95C1020 75.67 1004.33 60 985 60H95.58C75.93 60 60 75.93 60 95.58V983.71C60 984.03 60.25 984.28 60.57 984.28C80.03 984.59 95.71 1000.46 95.71 1019.99C95.71 1039.52 80.03 1055.39 60.57 1055.7C60.25 1055.7 60 1055.96 60 1056.27V1824.99C60 1844.32 75.67 1859.99 95 1859.99H985C1004.33 1859.99 1020 1844.32 1020 1824.99V1056.27C1020 1055.95 1019.75 1055.7 1019.43 1055.7C999.97 1055.39 984.29 1039.52 984.29 1019.99C984.29 1000.46 999.97 984.59 1019.43 984.28C1019.75 984.28 1020 984.02 1020 983.71V983.72Z" fill="white"/>
<path d="M60.57 1055.71C60.25 1055.71 60 1055.97 60 1056.28V1825C60 1844.33 75.67 1860 95 1860H985C1004.33 1860 1020 1844.33 1020 1825V1056.28C1020 1055.96 1019.75 1055.71 1019.43 1055.71C999.97 1055.4 984.29 1039.53 984.29 1020H95.71C95.71 1039.53 80.03 1055.4 60.57 1055.71Z" fill="#E5F2E6"/>
<path d="M121 1020H160.9" stroke="black" stroke-width="6" stroke-miterlimit="10"/>
<path d="M187.512 1020H227.412" stroke="black" stroke-width="6" stroke-miterlimit="10"/>
<path d="M254.02 1020H293.92" stroke="black" stroke-width="6" stroke-miterlimit="10"/>
<path d="M320.52 1020H360.43" stroke="black" stroke-width="6" stroke-miterlimit="10"/>
<path d="M387.031 1020H426.941" stroke="black" stroke-width="6" stroke-miterlimit="10"/>
<path d="M453.539 1020H493.439" stroke="black" stroke-width="6" stroke-miterlimit="10"/>
<path d="M520.051 1020H559.951" stroke="black" stroke-width="6" stroke-miterlimit="10"/>
<path d="M586.559 1020H626.459" stroke="black" stroke-width="6" stroke-miterlimit="10"/>
<path d="M653.059 1020H692.969" stroke="black" stroke-width="6" stroke-miterlimit="10"/>
<path d="M719.57 1020H759.48" stroke="black" stroke-width="6" stroke-miterlimit="10"/>
<path d="M786.078 1020H825.978" stroke="black" stroke-width="6" stroke-miterlimit="10"/>
<path d="M852.59 1020H892.49" stroke="black" stroke-width="6" stroke-miterlimit="10"/>
<path d="M919.102 1020H959.002" stroke="black" stroke-width="6" stroke-miterlimit="10"/>
<path d="M1020 984.29V95C1020 75.67 1004.33 60 985 60H95C75.67 60 60 75.67 60 95V984.29C79.72 984.29 95.71 1000.28 95.71 1020C95.71 1039.72 79.72 1055.71 60 1055.71V1825C60 1844.33 75.67 1860 95 1860H985C1004.33 1860 1020 1844.33 1020 1825V1055.71C1000.28 1055.71 984.29 1039.72 984.29 1020C984.29 1000.28 1000.28 984.29 1020 984.29Z" stroke="black" stroke-width="6" stroke-miterlimit="10"/>
<path d="M912.649 525.666C908.779 525.666 905.539 522.646 905.319 518.736C900.589 435.626 868.789 358.856 813.369 296.746C810.669 293.716 810.929 289.066 813.959 286.366C816.989 283.666 821.629 283.926 824.339 286.956C881.999 351.576 915.069 431.436 919.999 517.896C920.229 521.946 917.129 525.426 913.079 525.656C912.939 525.656 912.799 525.666 912.659 525.666H912.649Z" fill="black"/>
<path d="M818.849 795.517C817.109 795.517 815.359 794.897 813.959 793.647C810.929 790.947 810.669 786.297 813.369 783.267C868.789 721.157 900.589 644.387 905.319 561.277C905.549 557.227 909.029 554.117 913.079 554.357C917.129 554.587 920.229 558.057 919.999 562.117C915.069 648.587 881.999 728.447 824.339 793.057C822.889 794.687 820.869 795.517 818.849 795.517Z" fill="black"/>
<path d="M167.36 525.666C167.22 525.666 167.08 525.666 166.94 525.656C162.89 525.426 159.79 521.956 160.02 517.896C164.95 431.426 198.02 351.566 255.68 286.956C258.38 283.926 263.03 283.666 266.06 286.366C269.09 289.066 269.35 293.716 266.65 296.746C211.23 358.856 179.43 435.616 174.7 518.736C174.48 522.646 171.24 525.666 167.37 525.666H167.36Z" fill="black"/>
<path d="M261.17 795.517C259.15 795.517 257.13 794.687 255.68 793.057C198.02 728.437 164.95 648.577 160.02 562.117C159.79 558.067 162.89 554.587 166.94 554.357C170.99 554.117 174.47 557.227 174.7 561.277C179.43 644.397 211.23 721.157 266.65 783.267C269.35 786.297 269.09 790.947 266.06 793.647C264.66 794.897 262.91 795.517 261.17 795.517Z" fill="black"/>
<path d="M788.171 268.511C786.431 268.511 784.681 267.891 783.281 266.641C721.171 211.221 644.401 179.421 561.291 174.691C557.241 174.461 554.141 170.991 554.371 166.931C554.601 162.881 558.041 159.791 562.131 160.011C648.601 164.941 728.461 198.011 793.071 255.671C796.101 258.371 796.361 263.021 793.661 266.051C792.211 267.681 790.191 268.511 788.171 268.511Z" fill="black"/>
<path d="M291.852 268.512C289.832 268.512 287.812 267.682 286.362 266.052C283.662 263.022 283.922 258.372 286.952 255.672C351.572 198.012 431.432 164.942 517.892 160.012C521.942 159.782 525.422 162.882 525.652 166.932C525.882 170.982 522.782 174.462 518.732 174.692C435.622 179.422 358.852 211.222 296.742 266.642C295.342 267.892 293.592 268.512 291.852 268.512Z" fill="black"/>
<path d="M561.69 920.006C557.82 920.006 554.58 916.986 554.36 913.076C554.13 909.026 557.23 905.546 561.28 905.316C644.4 900.586 721.16 868.786 783.27 813.366C786.3 810.666 790.95 810.926 793.65 813.956C796.35 816.986 796.09 821.636 793.06 824.336C728.44 881.996 648.58 915.066 562.12 919.996C561.98 919.996 561.84 920.006 561.7 920.006H561.69Z" fill="black"/>
<path d="M518.319 920.006C518.179 920.006 518.04 920.006 517.9 919.996C431.43 915.066 351.569 881.996 286.959 824.336C283.929 821.636 283.669 816.986 286.369 813.956C289.069 810.926 293.719 810.666 296.749 813.366C358.859 868.786 435.629 900.586 518.739 905.316C522.789 905.546 525.889 909.016 525.659 913.076C525.439 916.986 522.199 920.006 518.329 920.006H518.319Z" fill="black"/>
<path d="M875.378 526.189C872.368 526.189 869.848 523.839 869.678 520.799C865.408 445.789 836.708 376.519 786.698 320.459C784.598 318.099 784.798 314.489 787.158 312.389C789.508 310.289 793.128 310.489 795.228 312.849C846.978 370.849 876.678 442.539 881.098 520.149C881.278 523.299 878.868 525.999 875.718 526.179C875.608 526.179 875.498 526.179 875.388 526.179L875.378 526.189Z" fill="black"/>
<path d="M790.958 769.062C789.598 769.062 788.248 768.582 787.158 767.612C784.798 765.512 784.598 761.892 786.698 759.542C836.708 703.492 865.408 634.212 869.678 559.202C869.858 556.052 872.548 553.642 875.708 553.822C878.858 554.002 881.268 556.702 881.088 559.852C876.668 637.472 846.978 709.152 795.218 767.152C794.088 768.422 792.518 769.062 790.948 769.062H790.958Z" fill="black"/>
<path d="M204.63 526.187C204.52 526.187 204.41 526.187 204.3 526.187C201.15 526.007 198.74 523.307 198.92 520.157C203.34 442.537 233.03 370.857 284.79 312.857C286.89 310.497 290.51 310.297 292.86 312.397C295.22 314.497 295.42 318.117 293.32 320.467C243.31 376.517 214.61 445.797 210.34 520.807C210.17 523.847 207.65 526.197 204.64 526.197L204.63 526.187Z" fill="black"/>
<path d="M289.048 769.055C287.478 769.055 285.908 768.405 284.778 767.145C233.028 709.145 203.328 637.455 198.908 559.845C198.728 556.695 201.138 553.995 204.288 553.815C207.448 553.625 210.138 556.045 210.318 559.195C214.588 634.205 243.288 703.485 293.298 759.535C295.398 761.895 295.198 765.505 292.838 767.605C291.748 768.575 290.388 769.055 289.038 769.055H289.048Z" fill="black"/>
<path d="M763.35 294.756C761.99 294.756 760.64 294.276 759.55 293.306C703.5 243.296 634.22 214.596 559.21 210.326C556.06 210.146 553.65 207.446 553.83 204.296C554.01 201.146 556.7 198.736 559.86 198.916C637.48 203.336 709.16 233.026 767.16 284.786C769.52 286.886 769.72 290.506 767.62 292.856C766.49 294.126 764.92 294.766 763.35 294.766V294.756Z" fill="black"/>
<path d="M316.659 294.759C315.089 294.759 313.519 294.109 312.389 292.849C310.289 290.489 310.489 286.879 312.849 284.779C370.849 233.029 442.539 203.329 520.149 198.909C523.299 198.719 525.999 201.139 526.179 204.289C526.359 207.439 523.949 210.139 520.799 210.319C445.789 214.589 376.519 243.289 320.459 293.299C319.369 294.269 318.009 294.749 316.659 294.749V294.759Z" fill="black"/>
<path d="M559.526 881.102C556.516 881.102 553.996 878.752 553.826 875.712C553.646 872.562 556.056 869.862 559.206 869.682C634.216 865.412 703.486 836.712 759.546 786.702C761.896 784.602 765.516 784.802 767.616 787.162C769.716 789.522 769.516 793.132 767.156 795.232C709.156 846.982 637.466 876.682 559.856 881.102C559.746 881.102 559.636 881.102 559.526 881.102Z" fill="black"/>
<path d="M520.487 881.102C520.377 881.102 520.267 881.102 520.157 881.102C442.537 876.682 370.857 846.992 312.857 795.232C310.497 793.132 310.297 789.512 312.397 787.162C314.497 784.802 318.117 784.602 320.467 786.702C376.517 836.722 445.797 865.412 520.807 869.682C523.957 869.862 526.367 872.562 526.187 875.712C526.017 878.752 523.497 881.102 520.487 881.102Z" fill="black"/>
<path d="M841.851 526.514C839.701 526.514 837.901 524.834 837.781 522.664C833.921 454.914 808.001 392.344 762.831 341.714C761.331 340.034 761.481 337.454 763.161 335.944C764.841 334.444 767.421 334.584 768.931 336.274C815.351 388.294 841.981 452.584 845.941 522.194C846.071 524.444 844.351 526.374 842.091 526.504C842.011 526.504 841.931 526.504 841.851 526.504V526.514Z" fill="black"/>
<path d="M765.869 745.106C764.899 745.106 763.929 744.766 763.149 744.066C761.469 742.566 761.319 739.986 762.819 738.296C807.989 687.666 833.909 625.096 837.769 557.346C837.899 555.096 839.859 553.396 842.079 553.496C844.329 553.626 846.049 555.556 845.929 557.806C841.959 627.416 815.329 691.706 768.919 743.726C768.109 744.626 766.989 745.086 765.869 745.086V745.106Z" fill="black"/>
<path d="M238.17 526.516C238.09 526.516 238.01 526.516 237.93 526.516C235.68 526.386 233.96 524.456 234.08 522.206C238.05 452.596 264.68 388.306 311.09 336.286C312.59 334.606 315.17 334.456 316.86 335.956C318.54 337.456 318.69 340.036 317.19 341.726C272.02 392.356 246.1 454.926 242.24 522.676C242.12 524.846 240.32 526.526 238.17 526.526V526.516Z" fill="black"/>
<path d="M314.141 745.103C313.021 745.103 311.901 744.643 311.091 743.743C264.671 691.723 238.041 627.433 234.081 557.823C233.951 555.573 235.671 553.643 237.931 553.513C240.171 553.403 242.111 555.103 242.241 557.363C246.101 625.113 272.021 687.683 317.191 738.313C318.691 739.993 318.541 742.573 316.861 744.083C316.081 744.773 315.111 745.123 314.141 745.123V745.103Z" fill="black"/>
<path d="M741.022 318.225C740.052 318.225 739.082 317.885 738.302 317.185C687.672 272.015 625.102 246.095 557.352 242.235C555.102 242.105 553.382 240.175 553.502 237.925C553.632 235.675 555.552 233.965 557.812 234.075C627.422 238.045 691.712 264.675 743.742 311.085C745.422 312.585 745.572 315.165 744.072 316.855C743.262 317.755 742.142 318.215 741.022 318.215V318.225Z" fill="black"/>
<path d="M339.002 318.224C337.882 318.224 336.762 317.764 335.952 316.864C334.452 315.184 334.602 312.604 336.282 311.094C388.302 264.674 452.592 238.044 522.202 234.084C524.452 233.964 526.382 235.674 526.512 237.934C526.642 240.184 524.922 242.114 522.662 242.244C454.912 246.104 392.342 272.024 341.712 317.194C340.932 317.884 339.962 318.234 338.992 318.234L339.002 318.224Z" fill="black"/>
<path d="M557.573 845.933C555.423 845.933 553.623 844.253 553.503 842.083C553.373 839.833 555.093 837.903 557.353 837.773C625.103 833.913 687.673 807.993 738.303 762.823C739.983 761.323 742.563 761.473 744.073 763.153C745.573 764.833 745.423 767.413 743.743 768.923C691.723 815.343 627.433 841.973 557.813 845.933C557.733 845.933 557.653 845.933 557.573 845.933Z" fill="black"/>
<path d="M522.442 845.933C522.362 845.933 522.282 845.933 522.202 845.933C452.592 841.963 388.302 815.333 336.282 768.923C334.602 767.423 334.452 764.843 335.952 763.153C337.452 761.473 340.032 761.323 341.722 762.823C392.352 807.993 454.922 833.913 522.672 837.773C524.922 837.903 526.642 839.833 526.522 842.083C526.402 844.253 524.602 845.933 522.452 845.933H522.442Z" fill="black"/>
<path d="M320.65 546.174C320.65 544.604 321.79 543.274 323.34 543.024C324.64 542.814 326.27 542.524 327.98 542.124C332.4 541.084 337.59 539.114 343.41 536.274C349.29 533.404 354.92 529.414 359.17 523.674C366.34 513.974 367.86 501.404 368.19 496.894C368.26 495.974 367.53 495.194 366.6 495.194H317.09C315.33 495.194 313.91 493.764 313.91 492.014V470.694C313.91 468.934 315.34 467.514 317.09 467.514H367.07C367.95 467.514 368.66 466.804 368.66 465.924V447.184C368.66 446.304 367.95 445.594 367.07 445.594H328.62C326.86 445.594 325.44 444.164 325.44 442.414V421.094C325.44 419.334 326.87 417.914 328.62 417.914H428.96C430.72 417.914 432.14 419.344 432.14 421.094V442.414C432.14 444.174 430.71 445.594 428.96 445.594H398.52C397.64 445.594 396.93 446.304 396.93 447.184V465.924C396.93 466.804 397.64 467.514 398.52 467.514H438.58C440.34 467.514 441.76 468.944 441.76 470.694V492.014C441.76 493.774 440.33 495.194 438.58 495.194H398.39C397.54 495.194 396.84 495.864 396.8 496.714C396.57 501.754 395.15 518.444 386.18 532.854C380.73 541.614 373.65 548.264 366.54 553.544C359.41 558.844 352.26 562.934 345.27 565.704C338.24 568.494 332.34 570.444 327.75 571.514C326.66 571.764 325.49 571.994 324.4 572.184C322.45 572.534 320.66 571.034 320.66 569.044V546.164L320.65 546.174Z" fill="black"/>
<path d="M474.552 546.522C474.552 545.062 475.552 543.792 476.962 543.432C485.212 541.362 488.932 540.112 496.842 536.322C496.842 536.322 500.892 534.212 504.932 531.302C517.112 522.542 525.222 510.632 525.222 510.632C534.682 497.282 537.772 474.912 538.492 468.492C538.602 467.552 537.862 466.722 536.912 466.722H500.582C500.352 466.722 500.142 466.842 500.032 467.042L499.882 467.292C494.302 478.112 486.882 487.992 480.452 494.242C474.002 500.502 468.592 505.052 464.382 507.752L461.782 509.422C460.722 510.102 459.332 509.342 459.332 508.082V479.892C459.332 478.952 459.752 478.062 460.472 477.452C461.122 476.902 461.992 476.132 463.182 475.062C465.942 472.572 469.052 468.512 472.422 462.982C475.762 457.512 479.352 450.212 483.072 441.292C486.452 433.202 488.982 423.092 490.862 412.062C491.122 410.532 492.452 409.422 494.002 409.422H513.912C515.912 409.422 517.422 411.252 517.042 413.212C516.402 416.522 515.712 420.882 514.852 424.312C513.582 429.392 512.762 432.302 511.242 436.722C510.982 437.472 511.542 438.242 512.332 438.242H591.182C592.942 438.242 594.362 439.672 594.362 441.422V463.512C594.362 465.272 592.932 466.692 591.182 466.692H568.142C567.332 466.692 566.642 467.302 566.562 468.112C565.932 474.012 562.882 497.162 552.392 517.262C538.292 546.002 508.142 566.392 478.342 572.132C476.382 572.512 474.562 571.002 474.562 569.002V546.482L474.552 546.522Z" fill="black"/>
<path d="M675.902 411.035V468.875C675.902 469.755 676.612 470.465 677.492 470.465H764.522C765.402 470.465 766.112 469.755 766.112 468.875V411.035C766.112 410.155 765.402 409.445 764.522 409.445H677.492C676.612 409.445 675.902 410.155 675.902 411.035ZM738.462 452.745H702.302C701.422 452.745 700.712 452.035 700.712 451.155V446.875C700.712 445.995 701.422 445.285 702.302 445.285H738.462C739.342 445.285 740.052 445.995 740.052 446.875V451.155C740.052 452.035 739.342 452.745 738.462 452.745ZM738.462 434.455H702.302C701.422 434.455 700.712 433.745 700.712 432.865V428.755C700.712 427.875 701.422 427.165 702.302 427.165H738.462C739.342 427.165 740.052 427.875 740.052 428.755V432.865C740.052 433.745 739.342 434.455 738.462 434.455Z" fill="black"/>
<path d="M674.232 497.342H728.272C729.152 497.342 729.862 498.052 729.862 498.932V502.842C729.862 503.722 729.152 504.432 728.272 504.432H667.762C666.002 504.432 664.582 505.862 664.582 507.612V522.862C664.582 524.622 666.012 526.042 667.762 526.042H728.272C729.152 526.042 729.862 526.752 729.862 527.632V545.392C729.862 546.112 729.942 547.982 729.222 548.852C728.392 549.872 727.152 549.672 725.852 549.722C722.542 549.722 719.582 549.702 716.952 549.662C716.552 549.662 716.262 549.292 716.342 548.902C716.602 547.632 716.732 546.312 716.702 544.962C716.502 535.682 708.942 528.082 699.662 527.842C689.582 527.582 681.372 535.852 681.712 545.942C682.022 555.292 689.792 562.812 699.152 562.842C704.042 562.852 708.462 560.862 711.642 557.642C711.982 557.302 712.552 557.432 712.702 557.882C714.162 562.212 715.542 566.342 716.792 570.052C717.232 571.352 718.462 572.222 719.832 572.212C725.732 572.172 730.512 571.962 734.182 571.602C738.312 571.182 742.092 570.152 745.522 568.502C749.182 566.842 751.692 564.422 753.052 561.232C754.412 558.042 755.092 553.552 755.092 547.762V527.622C755.092 526.742 755.802 526.032 756.682 526.032H762.912C764.672 526.032 766.092 524.602 766.092 522.852V507.602C766.092 505.842 764.662 504.422 762.912 504.422H756.682C755.802 504.422 755.092 503.712 755.092 502.832V498.922C755.092 498.042 755.802 497.332 756.682 497.332H762.912C764.672 497.332 766.092 495.902 766.092 494.152V479.602C766.092 477.842 764.662 476.422 762.912 476.422H674.212C672.452 476.422 671.032 477.852 671.032 479.602V494.152C671.032 495.912 672.462 497.332 674.212 497.332L674.232 497.342Z" fill="black"/>
<path d="M668.832 409.445H650.262C649.402 409.445 648.582 409.795 647.982 410.405C635.232 423.355 618.292 434.575 612.132 438.485C610.782 439.335 610.282 441.065 610.952 442.505L620.702 463.575C621.632 465.575 624.262 466.055 625.832 464.505C646.122 444.465 664.452 419.805 670.122 411.965C670.882 410.915 670.122 409.445 668.832 409.445Z" fill="black"/>
<path d="M671.922 453.899V435.419C671.922 434.009 670.222 433.299 669.212 434.289C653.642 449.609 620.052 477.069 611.682 483.869C610.552 484.789 610.192 486.359 610.802 487.679L620.702 509.059C621.632 511.059 624.262 511.539 625.832 509.989C627.542 508.299 629.242 506.569 630.922 504.829C631.322 504.419 632.022 504.699 632.022 505.269V569.069C632.022 570.829 633.452 572.249 635.202 572.249H653.822C655.582 572.249 657.002 570.819 657.002 569.069V476.379C657.002 475.309 657.362 474.259 658.032 473.419C664.872 464.739 669.722 458.029 671.342 455.749C671.722 455.209 671.932 454.569 671.932 453.899H671.922Z" fill="black"/>
<path d="M653.269 623.338C640.849 623.338 634.809 628.288 634.809 638.478V655.608C634.809 665.678 640.849 670.568 653.269 670.568C659.139 670.568 663.479 669.488 666.559 667.278C669.999 664.808 671.739 660.878 671.739 655.598V638.468C671.739 628.278 665.699 623.328 653.279 623.328L653.269 623.338ZM646.089 639.308C646.089 633.938 648.839 632.918 653.269 632.918C657.699 632.918 660.449 633.958 660.449 639.308V654.688C660.449 659.958 657.599 660.988 653.269 660.988C648.939 660.988 646.089 659.988 646.089 654.688V639.308Z" fill="black"/>
<path d="M708.27 669.334H721.359L703.63 646.784L720.56 624.804H707.4L694.06 642.284V610.234H682.77V669.334H694.06V659.214L696.95 655.454L708.27 669.334Z" fill="black"/>
<path d="M754.82 624.805V653.295C754.82 659.045 751.88 660.895 746.83 660.895C743.56 660.895 740.28 660.355 740.28 653.885V624.815H729V656.775C729 665.745 733.71 670.485 742.62 670.485C749.3 670.485 753.88 666.865 755.58 662.805L757.39 669.345H766.11V624.815H754.83L754.82 624.805Z" fill="black"/>
<path d="M630.568 610.234H589.148V620.144V620.154H604.218V669.334H615.688V620.154H630.568V610.234Z" fill="black"/>
<path d="M459.689 669.334H472.779L455.049 646.784L471.979 624.804H458.819L445.479 642.284V610.234H434.199V669.334H445.479V659.214L448.369 655.454L459.689 669.334Z" fill="black"/>
<path d="M355.33 610.234H313.91V620.144V620.154H328.99V669.334H340.45V620.154H355.33V610.234Z" fill="black"/>
<path d="M421.802 658.896L421.202 659.046C417.622 659.966 413.292 660.896 409.412 660.896C404.862 660.896 401.692 658.826 401.692 652.836V640.976C401.692 634.906 404.862 632.826 409.412 632.826C413.362 632.826 417.882 633.706 421.232 634.406L421.812 634.526V625.196L421.502 625.126C417.692 624.236 412.052 623.336 407.532 623.336C402.012 623.336 397.972 624.406 395.172 626.596C391.972 629.096 390.422 633.856 390.422 639.346V654.646C390.422 664.776 396.022 670.566 407.542 670.566C411.412 670.566 417.272 669.496 421.532 668.316L421.822 668.236V658.886L421.802 658.896Z" fill="black"/>
<path d="M553.93 634.705V624.805H543.69V615.195H532.41V624.805H525.18V634.705H532.41V655.425C532.41 667.945 540.3 670.565 546.93 670.565C548.71 670.565 550.51 670.455 552.12 670.225V660.265C551.47 660.335 550.26 660.365 549.54 660.365C546.46 660.365 543.69 659.735 543.69 652.095V634.695H553.93V634.705Z" fill="black"/>
<path d="M489.741 650.742V650.562H515.171V641.482C515.171 635.572 513.551 630.243 510.361 627.343C507.421 624.673 502.781 623.312 497.261 623.312C485.081 623.312 478.461 629.223 478.461 639.593V654.453C478.461 664.703 483.841 670.552 496.321 670.552C500.981 670.552 506.291 669.563 511.971 668.403L512.361 668.323V659.052L511.711 659.203C507.141 660.253 504.621 661.143 500.291 661.143C494.081 661.143 489.741 658.623 489.741 652.203V650.722V650.742ZM489.741 639.722C489.741 634.072 493.801 632.742 497.171 632.742C500.541 632.742 504.071 634.072 504.071 639.722V643.232H489.741V642.713V639.722Z" fill="black"/>
<path d="M378.178 626.883H366.898V669.333H378.178V626.883Z" fill="black"/>
<path d="M372.542 622.224C376.424 622.224 379.572 619.077 379.572 615.194C379.572 611.312 376.424 608.164 372.542 608.164C368.659 608.164 365.512 611.312 365.512 615.194C365.512 619.077 368.659 622.224 372.542 622.224Z" fill="black"/>
<path d="M585.738 643.922H566.148V651.262H585.738V643.922Z" fill="black"/>
<path d="M715.902 1652.2C715.502 1652.8 714.902 1653.73 714.102 1655C713.368 1656.27 712.802 1657.43 712.402 1658.5C711.002 1661.63 709.268 1665.13 707.202 1669C705.202 1672.87 702.902 1676.77 700.302 1680.7C697.768 1684.57 695.068 1688.2 692.202 1691.6C688.468 1695.8 684.335 1699.97 679.802 1704.1C675.335 1708.17 670.602 1711.93 665.602 1715.4C660.668 1718.8 655.602 1721.73 650.402 1724.2L640.102 1713.4C645.502 1711.33 650.735 1708.73 655.802 1705.6C660.868 1702.47 665.568 1699.07 669.902 1695.4C674.235 1691.73 677.968 1688.17 681.102 1684.7C683.302 1682.17 685.368 1679.47 687.302 1676.6C689.302 1673.73 691.068 1670.9 692.602 1668.1C694.135 1665.23 695.268 1662.6 696.002 1660.2C695.335 1660.2 694.135 1660.2 692.402 1660.2C690.668 1660.2 688.635 1660.2 686.302 1660.2C684.035 1660.2 681.635 1660.2 679.102 1660.2C676.568 1660.2 674.135 1660.2 671.802 1660.2C669.535 1660.2 667.535 1660.2 665.802 1660.2C664.068 1660.2 662.835 1660.2 662.102 1660.2C660.702 1660.2 659.235 1660.27 657.702 1660.4C656.168 1660.47 654.702 1660.57 653.302 1660.7C651.968 1660.77 650.935 1660.83 650.202 1660.9V1646.7C651.202 1646.77 652.435 1646.87 653.902 1647C655.368 1647.13 656.835 1647.23 658.302 1647.3C659.835 1647.37 661.102 1647.4 662.102 1647.4C662.968 1647.4 664.335 1647.4 666.202 1647.4C668.068 1647.4 670.202 1647.4 672.602 1647.4C675.002 1647.4 677.468 1647.4 680.002 1647.4C682.602 1647.4 685.068 1647.4 687.402 1647.4C689.802 1647.4 691.868 1647.4 693.602 1647.4C695.335 1647.4 696.602 1647.4 697.402 1647.4C699.602 1647.4 701.602 1647.27 703.402 1647C705.268 1646.73 706.702 1646.43 707.702 1646.1L715.902 1652.2ZM693.502 1683.3C696.102 1685.37 698.868 1687.77 701.802 1690.5C704.735 1693.23 707.635 1696.07 710.502 1699C713.368 1701.93 716.002 1704.77 718.402 1707.5C720.868 1710.17 722.935 1712.5 724.602 1714.5L713.202 1724.4C710.735 1721 707.902 1717.47 704.702 1713.8C701.568 1710.13 698.235 1706.5 694.702 1702.9C691.235 1699.23 687.702 1695.77 684.102 1692.5L693.502 1683.3Z" fill="black"/>
<path d="M606.298 1639C607.165 1640.2 608.098 1641.63 609.098 1643.3C610.098 1644.97 611.032 1646.63 611.898 1648.3C612.832 1649.97 613.632 1651.43 614.298 1652.7L606.198 1656.1C605.198 1654.03 603.965 1651.7 602.498 1649.1C601.098 1646.43 599.732 1644.13 598.398 1642.2L606.298 1639ZM618.098 1634.5C619.032 1635.77 619.998 1637.23 620.998 1638.9C621.998 1640.57 622.965 1642.23 623.898 1643.9C624.898 1645.5 625.665 1646.9 626.198 1648.1L618.298 1651.5C617.232 1649.37 615.965 1647 614.498 1644.4C613.032 1641.8 611.598 1639.57 610.198 1637.7L618.098 1634.5ZM563.198 1643.3C562.932 1644.83 562.732 1646.6 562.598 1648.6C562.465 1650.6 562.398 1652.3 562.398 1653.7C562.398 1654.7 562.398 1656.47 562.398 1659C562.398 1661.47 562.398 1664.4 562.398 1667.8C562.398 1671.2 562.398 1674.77 562.398 1678.5C562.398 1682.17 562.398 1685.73 562.398 1689.2C562.398 1692.6 562.398 1695.63 562.398 1698.3C562.398 1700.97 562.398 1702.93 562.398 1704.2C562.398 1706.33 562.932 1707.8 563.998 1708.6C565.065 1709.4 566.698 1710.03 568.898 1710.5C570.432 1710.7 572.198 1710.87 574.198 1711C576.198 1711.07 578.298 1711.1 580.498 1711.1C583.098 1711.1 585.965 1711.03 589.098 1710.9C592.298 1710.7 595.498 1710.47 598.698 1710.2C601.965 1709.93 605.032 1709.57 607.898 1709.1C610.765 1708.63 613.232 1708.13 615.298 1707.6V1722.2C612.165 1722.67 608.532 1723.03 604.398 1723.3C600.265 1723.63 596.032 1723.87 591.698 1724C587.432 1724.2 583.432 1724.3 579.698 1724.3C576.432 1724.3 573.332 1724.2 570.398 1724C567.532 1723.8 565.032 1723.53 562.898 1723.2C558.565 1722.33 555.198 1720.7 552.798 1718.3C550.398 1715.83 549.198 1712.47 549.198 1708.2C549.198 1706.27 549.198 1703.77 549.198 1700.7C549.198 1697.57 549.198 1694.13 549.198 1690.4C549.198 1686.6 549.198 1682.8 549.198 1679C549.198 1675.13 549.198 1671.5 549.198 1668.1C549.198 1664.63 549.198 1661.63 549.198 1659.1C549.198 1656.57 549.198 1654.77 549.198 1653.7C549.198 1652.97 549.165 1651.97 549.098 1650.7C549.032 1649.43 548.932 1648.13 548.798 1646.8C548.732 1645.47 548.598 1644.3 548.398 1643.3H563.198ZM556.598 1674C559.798 1673.33 563.198 1672.53 566.798 1671.6C570.398 1670.6 574.032 1669.53 577.698 1668.4C581.365 1667.27 584.832 1666.13 588.098 1665C591.432 1663.8 594.398 1662.63 596.998 1661.5C598.798 1660.83 600.565 1660.07 602.298 1659.2C604.098 1658.33 605.965 1657.3 607.898 1656.1L613.298 1668.8C611.365 1669.53 609.332 1670.37 607.198 1671.3C605.132 1672.17 603.265 1672.9 601.598 1673.5C598.665 1674.63 595.298 1675.83 591.498 1677.1C587.765 1678.37 583.865 1679.63 579.798 1680.9C575.732 1682.1 571.698 1683.23 567.698 1684.3C563.765 1685.37 560.098 1686.3 556.698 1687.1L556.598 1674Z" fill="black"/>
<path d="M441.699 1673.7C442.899 1673.77 444.433 1673.87 446.299 1674C448.166 1674.07 450.099 1674.14 452.099 1674.2C454.166 1674.27 456.066 1674.3 457.799 1674.3C459.466 1674.3 461.533 1674.3 463.999 1674.3C466.466 1674.3 469.133 1674.3 471.999 1674.3C474.933 1674.3 477.933 1674.3 480.999 1674.3C484.133 1674.3 487.233 1674.3 490.299 1674.3C493.366 1674.3 496.266 1674.3 498.999 1674.3C501.733 1674.3 504.166 1674.3 506.299 1674.3C508.499 1674.3 510.233 1674.3 511.499 1674.3C513.833 1674.3 516.033 1674.24 518.099 1674.1C520.166 1673.9 521.866 1673.77 523.199 1673.7V1689.4C522.066 1689.34 520.366 1689.24 518.099 1689.1C515.833 1688.97 513.633 1688.9 511.499 1688.9C510.233 1688.9 508.499 1688.9 506.299 1688.9C504.099 1688.9 501.633 1688.9 498.899 1688.9C496.166 1688.9 493.266 1688.9 490.199 1688.9C487.199 1688.9 484.133 1688.9 480.999 1688.9C477.866 1688.9 474.833 1688.9 471.899 1688.9C469.033 1688.9 466.366 1688.9 463.899 1688.9C461.499 1688.9 459.466 1688.9 457.799 1688.9C454.933 1688.9 451.999 1688.97 448.999 1689.1C445.999 1689.17 443.566 1689.27 441.699 1689.4V1673.7Z" fill="black"/>
<path d="M407.299 1675.8C407.299 1682 406.833 1687.63 405.899 1692.7C405.033 1697.7 403.499 1702.27 401.299 1706.4C399.099 1710.47 396.033 1714.13 392.099 1717.4C388.166 1720.67 383.199 1723.63 377.199 1726.3L366.499 1716.2C371.299 1714.53 375.433 1712.67 378.899 1710.6C382.433 1708.53 385.333 1706 387.599 1703C389.866 1699.93 391.533 1696.27 392.599 1692C393.733 1687.67 394.299 1682.43 394.299 1676.3V1649.7C394.299 1647.63 394.233 1645.83 394.099 1644.3C393.966 1642.7 393.833 1641.4 393.699 1640.4H407.999C407.866 1641.4 407.699 1642.7 407.499 1644.3C407.366 1645.83 407.299 1647.63 407.299 1649.7V1675.8ZM371.199 1641.3C371.066 1642.23 370.933 1643.5 370.799 1645.1C370.666 1646.63 370.599 1648.37 370.599 1650.3V1686.1C370.599 1687.57 370.633 1689 370.699 1690.4C370.766 1691.73 370.799 1692.93 370.799 1694C370.866 1695 370.933 1695.87 370.999 1696.6H356.999C357.133 1695.87 357.233 1695 357.299 1694C357.366 1692.93 357.433 1691.73 357.499 1690.4C357.566 1689 357.599 1687.57 357.599 1686.1V1650.3C357.599 1648.83 357.533 1647.33 357.399 1645.8C357.333 1644.27 357.199 1642.77 356.999 1641.3H371.199ZM338.199 1659.3C338.866 1659.37 339.733 1659.5 340.799 1659.7C341.866 1659.83 343.099 1659.97 344.499 1660.1C345.899 1660.17 347.433 1660.2 349.099 1660.2H414.699C417.366 1660.2 419.533 1660.13 421.199 1660C422.866 1659.87 424.366 1659.7 425.699 1659.5V1672.8C424.633 1672.67 423.199 1672.6 421.399 1672.6C419.599 1672.53 417.366 1672.5 414.699 1672.5H349.099C347.433 1672.5 345.899 1672.53 344.499 1672.6C343.166 1672.6 341.966 1672.63 340.899 1672.7C339.899 1672.77 338.999 1672.83 338.199 1672.9V1659.3Z" fill="black"/>
<path d="M745.691 1527.8C745.158 1528.74 744.591 1529.87 743.991 1531.2C743.391 1532.47 742.858 1533.74 742.391 1535C741.525 1537.94 740.291 1541.3 738.691 1545.1C737.158 1548.84 735.225 1552.74 732.891 1556.8C730.625 1560.8 727.991 1564.67 724.991 1568.4C720.191 1574.14 714.591 1579.34 708.191 1584C701.858 1588.67 693.991 1592.87 684.591 1596.6L672.791 1586C679.591 1584 685.458 1581.7 690.391 1579.1C695.325 1576.5 699.625 1573.74 703.291 1570.8C706.958 1567.8 710.225 1564.64 713.091 1561.3C715.425 1558.7 717.558 1555.77 719.491 1552.5C721.425 1549.17 723.091 1545.87 724.491 1542.6C725.891 1539.34 726.825 1536.47 727.291 1534H693.591L698.191 1522.7C699.125 1522.7 700.558 1522.7 702.491 1522.7C704.491 1522.7 706.725 1522.7 709.191 1522.7C711.725 1522.7 714.191 1522.7 716.591 1522.7C719.058 1522.7 721.191 1522.7 722.991 1522.7C724.858 1522.7 726.125 1522.7 726.791 1522.7C728.325 1522.7 729.858 1522.6 731.391 1522.4C732.991 1522.2 734.358 1521.9 735.491 1521.5L745.691 1527.8ZM713.091 1512C711.891 1513.74 710.725 1515.6 709.591 1517.6C708.458 1519.6 707.591 1521.14 706.991 1522.2C704.725 1526.2 701.925 1530.37 698.591 1534.7C695.325 1538.97 691.591 1543.14 687.391 1547.2C683.191 1551.2 678.725 1554.87 673.991 1558.2L662.691 1549.9C667.091 1547.17 670.958 1544.37 674.291 1541.5C677.691 1538.64 680.625 1535.8 683.091 1533C685.558 1530.14 687.658 1527.4 689.391 1524.8C691.191 1522.14 692.725 1519.77 693.991 1517.7C694.791 1516.44 695.625 1514.8 696.491 1512.8C697.358 1510.74 698.025 1508.87 698.491 1507.2L713.091 1512Z" fill="black"/>
<path d="M579.891 1514C581.624 1515.2 583.657 1516.67 585.991 1518.4C588.324 1520.13 590.724 1522.03 593.191 1524.1C595.724 1526.1 598.091 1528.07 600.291 1530C602.491 1531.93 604.291 1533.67 605.691 1535.2L595.491 1545.6C594.224 1544.2 592.557 1542.53 590.491 1540.6C588.424 1538.67 586.191 1536.67 583.791 1534.6C581.391 1532.53 579.024 1530.57 576.691 1528.7C574.357 1526.83 572.291 1525.27 570.491 1524L579.891 1514ZM567.391 1580.6C572.591 1579.87 577.491 1578.83 582.091 1577.5C586.691 1576.17 590.957 1574.63 594.891 1572.9C598.824 1571.17 602.424 1569.37 605.691 1567.5C611.357 1564.1 616.557 1560.23 621.291 1555.9C626.024 1551.57 630.157 1547.07 633.691 1542.4C637.224 1537.67 640.024 1533.07 642.091 1528.6L649.891 1542.7C647.357 1547.17 644.224 1551.63 640.491 1556.1C636.824 1560.57 632.657 1564.83 627.991 1568.9C623.324 1572.9 618.291 1576.5 612.891 1579.7C609.491 1581.77 605.824 1583.73 601.891 1585.6C597.957 1587.4 593.791 1589 589.391 1590.4C585.057 1591.87 580.524 1593 575.791 1593.8L567.391 1580.6Z" fill="black"/>
<path d="M536.091 1512.4C536.025 1513.8 535.925 1515.33 535.791 1517C535.725 1518.6 535.691 1520.4 535.691 1522.4C535.691 1524.13 535.691 1526.23 535.691 1528.7C535.691 1531.17 535.691 1533.63 535.691 1536.1C535.691 1538.5 535.691 1540.53 535.691 1542.2C535.691 1547.53 535.425 1552.2 534.891 1556.2C534.425 1560.2 533.691 1563.7 532.691 1566.7C531.691 1569.7 530.458 1572.37 528.991 1574.7C527.591 1576.97 525.958 1579.13 524.091 1581.2C521.891 1583.6 519.358 1585.77 516.491 1587.7C513.625 1589.57 510.725 1591.13 507.791 1592.4C504.925 1593.73 502.258 1594.8 499.791 1595.6L489.291 1584.6C494.291 1583.47 498.791 1581.9 502.791 1579.9C506.858 1577.83 510.391 1575.2 513.391 1572C515.125 1570.07 516.525 1568.13 517.591 1566.2C518.658 1564.27 519.458 1562.13 519.991 1559.8C520.591 1557.4 520.991 1554.7 521.191 1551.7C521.458 1548.7 521.591 1545.27 521.591 1541.4C521.591 1539.67 521.591 1537.6 521.591 1535.2C521.591 1532.8 521.591 1530.43 521.591 1528.1C521.591 1525.77 521.591 1523.87 521.591 1522.4C521.591 1520.4 521.525 1518.6 521.391 1517C521.325 1515.33 521.191 1513.8 520.991 1512.4H536.091ZM489.691 1513.2C489.625 1514.4 489.558 1515.6 489.491 1516.8C489.425 1517.93 489.391 1519.3 489.391 1520.9C489.391 1521.63 489.391 1522.83 489.391 1524.5C489.391 1526.17 489.391 1528.13 489.391 1530.4C489.391 1532.6 489.391 1534.93 489.391 1537.4C489.391 1539.8 489.391 1542.13 489.391 1544.4C489.391 1546.67 489.391 1548.73 489.391 1550.6C489.391 1552.4 489.391 1553.77 489.391 1554.7C489.391 1555.97 489.425 1557.43 489.491 1559.1C489.558 1560.77 489.625 1562.2 489.691 1563.4H475.191C475.258 1562.47 475.358 1561.13 475.491 1559.4C475.625 1557.67 475.691 1556.07 475.691 1554.6C475.691 1553.67 475.691 1552.3 475.691 1550.5C475.691 1548.7 475.691 1546.67 475.691 1544.4C475.691 1542.07 475.691 1539.7 475.691 1537.3C475.691 1534.83 475.691 1532.5 475.691 1530.3C475.691 1528.1 475.691 1526.17 475.691 1524.5C475.691 1522.83 475.691 1521.63 475.691 1520.9C475.691 1519.97 475.658 1518.77 475.591 1517.3C475.525 1515.77 475.425 1514.4 475.291 1513.2H489.691Z" fill="black"/>
<path d="M423.99 1515.6C424.923 1516.93 425.957 1518.5 427.09 1520.3C428.223 1522.1 429.29 1523.9 430.29 1525.7C431.357 1527.5 432.29 1529.17 433.09 1530.7L424.39 1534.6C423.457 1532.47 422.523 1530.57 421.59 1528.9C420.723 1527.23 419.823 1525.63 418.89 1524.1C417.957 1522.5 416.857 1520.83 415.59 1519.1L423.99 1515.6ZM437.09 1510.1C438.09 1511.43 439.157 1512.97 440.29 1514.7C441.49 1516.43 442.623 1518.2 443.69 1520C444.823 1521.73 445.757 1523.37 446.49 1524.9L438.09 1529C437.023 1526.87 435.99 1525 434.99 1523.4C434.057 1521.73 433.09 1520.17 432.09 1518.7C431.157 1517.17 430.057 1515.6 428.79 1514L437.09 1510.1ZM384.09 1581.9C384.09 1580.57 384.09 1578.47 384.09 1575.6C384.09 1572.67 384.09 1569.3 384.09 1565.5C384.09 1561.63 384.09 1557.63 384.09 1553.5C384.09 1549.3 384.09 1545.27 384.09 1541.4C384.09 1537.47 384.09 1534 384.09 1531C384.09 1528 384.09 1525.8 384.09 1524.4C384.09 1522.6 383.99 1520.57 383.79 1518.3C383.657 1516.03 383.423 1514.03 383.09 1512.3H398.69C398.49 1514.03 398.29 1515.97 398.09 1518.1C397.89 1520.23 397.79 1522.33 397.79 1524.4C397.79 1526.2 397.79 1528.7 397.79 1531.9C397.79 1535.1 397.79 1538.67 397.79 1542.6C397.79 1546.47 397.79 1550.43 397.79 1554.5C397.79 1558.57 397.79 1562.47 397.79 1566.2C397.79 1569.87 397.79 1573.1 397.79 1575.9C397.79 1578.63 397.79 1580.63 397.79 1581.9C397.79 1582.77 397.823 1584.07 397.89 1585.8C398.023 1587.47 398.157 1589.2 398.29 1591C398.49 1592.8 398.657 1594.4 398.79 1595.8H383.09C383.423 1593.87 383.657 1591.57 383.79 1588.9C383.99 1586.17 384.09 1583.83 384.09 1581.9ZM394.89 1538.2C398.223 1539.07 401.923 1540.2 405.99 1541.6C410.123 1542.93 414.29 1544.4 418.49 1546C422.69 1547.53 426.657 1549.07 430.39 1550.6C434.123 1552.07 437.19 1553.4 439.59 1554.6L433.99 1568.5C431.123 1566.97 427.99 1565.47 424.59 1564C421.19 1562.53 417.723 1561.1 414.19 1559.7C410.723 1558.23 407.323 1556.9 403.99 1555.7C400.657 1554.5 397.623 1553.47 394.89 1552.6V1538.2Z" fill="black"/>
<path d="M339.608 1510C340.308 1510 340.808 1510.5 340.808 1511.2V1588.7C340.808 1589.4 340.308 1590 339.608 1590H331.608C330.908 1590 330.408 1589.4 330.408 1588.7V1520.2H317.908C316.808 1520.2 316.308 1519.1 316.808 1518.4L321.808 1510.5C322.008 1510.2 322.408 1510 322.808 1510H339.608Z" fill="black"/>
<path d="M753.503 1366.45C754.975 1366.64 756.623 1366.78 758.447 1366.88C760.303 1366.94 762.175 1366.98 764.063 1366.98C765.983 1366.94 767.823 1366.88 769.583 1366.78C771.343 1366.66 772.863 1366.53 774.143 1366.4V1372.59C772.671 1372.72 771.055 1372.83 769.295 1372.93C767.535 1372.99 765.727 1373.02 763.871 1373.02C762.015 1373.02 760.191 1372.99 758.399 1372.93C756.639 1372.83 755.007 1372.72 753.503 1372.59V1366.45ZM757.343 1386.94C757.151 1387.74 757.007 1388.46 756.911 1389.1C756.815 1389.71 756.767 1390.34 756.767 1390.98C756.767 1391.49 756.895 1391.97 757.151 1392.42C757.407 1392.83 757.791 1393.2 758.303 1393.52C758.847 1393.81 759.535 1394.03 760.367 1394.19C761.231 1394.32 762.271 1394.38 763.487 1394.38C765.631 1394.38 767.647 1394.29 769.535 1394.1C771.423 1393.87 773.423 1393.55 775.535 1393.14L775.631 1399.62C774.095 1399.9 772.319 1400.13 770.303 1400.29C768.319 1400.45 765.967 1400.53 763.247 1400.53C759.119 1400.53 756.047 1399.84 754.031 1398.46C752.015 1397.06 751.007 1395.12 751.007 1392.66C751.007 1391.73 751.071 1390.77 751.199 1389.78C751.359 1388.75 751.567 1387.63 751.823 1386.42L757.343 1386.94ZM746.111 1363.23C745.983 1363.55 745.839 1364 745.679 1364.58C745.519 1365.15 745.359 1365.71 745.199 1366.26C745.071 1366.8 744.975 1367.22 744.911 1367.5C744.815 1368.18 744.655 1369.06 744.431 1370.14C744.239 1371.2 744.031 1372.4 743.807 1373.74C743.615 1375.06 743.423 1376.4 743.231 1377.78C743.039 1379.15 742.879 1380.48 742.751 1381.76C742.655 1383.04 742.607 1384.16 742.607 1385.12C742.607 1385.57 742.607 1386.08 742.607 1386.66C742.639 1387.23 742.703 1387.76 742.799 1388.24C743.023 1387.7 743.263 1387.15 743.519 1386.61C743.775 1386.06 744.031 1385.52 744.287 1384.98C744.543 1384.4 744.767 1383.86 744.959 1383.34L747.935 1385.7C747.487 1387.01 747.023 1388.42 746.543 1389.92C746.095 1391.42 745.679 1392.85 745.295 1394.19C744.943 1395.5 744.671 1396.59 744.479 1397.46C744.415 1397.81 744.351 1398.21 744.287 1398.66C744.255 1399.1 744.239 1399.46 744.239 1399.71C744.239 1399.97 744.239 1400.27 744.239 1400.62C744.271 1401.01 744.303 1401.36 744.335 1401.68L738.767 1402.06C738.287 1400.4 737.855 1398.19 737.471 1395.44C737.087 1392.66 736.895 1389.63 736.895 1386.37C736.895 1384.58 736.975 1382.75 737.135 1380.9C737.295 1379.04 737.487 1377.26 737.711 1375.57C737.935 1373.84 738.143 1372.27 738.335 1370.86C738.559 1369.46 738.751 1368.29 738.911 1367.36C738.975 1366.69 739.055 1365.94 739.151 1365.1C739.279 1364.24 739.359 1363.42 739.391 1362.66L746.111 1363.23Z" fill="black"/>
<path d="M686.255 1366.93H729.791V1372.4H686.255V1366.93ZM702.287 1378.69H720.671V1384.11H702.287V1378.69ZM718.511 1378.69H724.463C724.463 1378.69 724.447 1378.85 724.415 1379.17C724.415 1379.46 724.415 1379.79 724.415 1380.18C724.415 1380.56 724.383 1380.9 724.319 1381.18C724.031 1385.57 723.711 1389.15 723.359 1391.94C723.007 1394.72 722.607 1396.9 722.159 1398.46C721.711 1400 721.167 1401.12 720.527 1401.82C719.791 1402.62 719.023 1403.17 718.223 1403.46C717.423 1403.74 716.463 1403.95 715.343 1404.08C714.415 1404.18 713.199 1404.21 711.695 1404.18C710.191 1404.18 708.639 1404.14 707.039 1404.08C707.007 1403.25 706.799 1402.29 706.415 1401.2C706.031 1400.14 705.551 1399.22 704.975 1398.42C706.639 1398.58 708.239 1398.67 709.775 1398.7C711.311 1398.74 712.415 1398.75 713.087 1398.75C713.631 1398.75 714.079 1398.72 714.431 1398.66C714.815 1398.56 715.151 1398.38 715.439 1398.13C715.951 1397.71 716.383 1396.8 716.735 1395.39C717.119 1393.98 717.455 1391.98 717.743 1389.39C718.031 1386.8 718.287 1383.52 718.511 1379.55V1378.69ZM700.127 1370.19H706.559C706.431 1372.75 706.223 1375.34 705.935 1377.97C705.679 1380.56 705.231 1383.14 704.591 1385.7C703.951 1388.22 703.023 1390.64 701.807 1392.94C700.591 1395.25 698.991 1397.39 697.007 1399.38C695.023 1401.36 692.511 1403.12 689.471 1404.66C689.055 1403.86 688.447 1402.99 687.647 1402.06C686.879 1401.14 686.127 1400.37 685.391 1399.76C688.175 1398.48 690.447 1396.99 692.207 1395.3C693.999 1393.57 695.407 1391.71 696.431 1389.73C697.455 1387.71 698.207 1385.62 698.687 1383.44C699.199 1381.26 699.535 1379.06 699.695 1376.82C699.887 1374.58 700.031 1372.37 700.127 1370.19ZM704.735 1359.01H710.735V1369.09H704.735V1359.01Z" fill="black"/>
<path d="M664.366 1367.12C664.046 1369.55 663.63 1372.14 663.118 1374.89C662.606 1377.65 661.918 1380.43 661.054 1383.25C660.126 1386.48 659.038 1389.26 657.79 1391.6C656.542 1393.93 655.166 1395.74 653.662 1397.02C652.19 1398.27 650.574 1398.89 648.814 1398.89C647.054 1398.89 645.422 1398.3 643.918 1397.12C642.446 1395.9 641.262 1394.24 640.366 1392.13C639.502 1390.01 639.07 1387.61 639.07 1384.93C639.07 1382.14 639.63 1379.52 640.75 1377.05C641.87 1374.59 643.422 1372.41 645.406 1370.53C647.422 1368.61 649.758 1367.1 652.414 1366.01C655.102 1364.93 657.998 1364.38 661.102 1364.38C664.078 1364.38 666.75 1364.86 669.118 1365.82C671.518 1366.78 673.566 1368.11 675.262 1369.81C676.958 1371.5 678.254 1373.49 679.15 1375.76C680.046 1378.03 680.494 1380.48 680.494 1383.1C680.494 1386.46 679.806 1389.47 678.43 1392.13C677.054 1394.78 675.006 1396.97 672.286 1398.7C669.598 1400.43 666.238 1401.61 662.206 1402.25L658.606 1396.54C659.534 1396.45 660.35 1396.33 661.054 1396.21C661.758 1396.08 662.43 1395.93 663.07 1395.77C664.606 1395.39 666.03 1394.85 667.342 1394.14C668.686 1393.41 669.854 1392.51 670.846 1391.45C671.838 1390.37 672.606 1389.1 673.15 1387.66C673.726 1386.22 674.014 1384.64 674.014 1382.91C674.014 1381.02 673.726 1379.29 673.15 1377.73C672.574 1376.16 671.726 1374.8 670.606 1373.65C669.486 1372.46 668.126 1371.57 666.526 1370.96C664.926 1370.32 663.086 1370 661.006 1370C658.446 1370 656.19 1370.46 654.238 1371.39C652.286 1372.29 650.638 1373.45 649.294 1374.89C647.95 1376.33 646.926 1377.89 646.222 1379.55C645.55 1381.21 645.214 1382.8 645.214 1384.3C645.214 1385.9 645.406 1387.25 645.79 1388.33C646.174 1389.39 646.638 1390.19 647.182 1390.73C647.758 1391.25 648.366 1391.5 649.006 1391.5C649.678 1391.5 650.334 1391.17 650.974 1390.49C651.646 1389.79 652.302 1388.73 652.942 1387.33C653.582 1385.92 654.222 1384.14 654.862 1382C655.598 1379.69 656.222 1377.23 656.734 1374.61C657.246 1371.98 657.614 1369.42 657.838 1366.93L664.366 1367.12Z" fill="black"/>
<path d="M621.214 1369.91L627.358 1371.73C625.342 1377.49 622.734 1382.48 619.534 1386.71C616.334 1390.93 612.526 1394.5 608.11 1397.41C603.726 1400.29 598.654 1402.64 592.894 1404.47C592.702 1403.96 592.382 1403.35 591.934 1402.64C591.486 1401.94 591.022 1401.24 590.542 1400.53C590.094 1399.86 589.662 1399.3 589.246 1398.85C594.782 1397.38 599.63 1395.38 603.79 1392.85C607.95 1390.32 611.47 1387.19 614.35 1383.44C617.23 1379.67 619.518 1375.16 621.214 1369.91ZM602.638 1370.29C604.27 1375.06 606.526 1379.33 609.406 1383.11C612.286 1386.88 615.838 1390.08 620.062 1392.71C624.318 1395.33 629.278 1397.28 634.942 1398.56C634.494 1399.01 633.998 1399.59 633.454 1400.29C632.942 1401 632.446 1401.7 631.966 1402.4C631.486 1403.14 631.102 1403.78 630.814 1404.32C624.83 1402.79 619.678 1400.55 615.358 1397.6C611.038 1394.63 607.374 1391.01 604.366 1386.76C601.39 1382.5 598.894 1377.59 596.878 1372.02L602.638 1370.29ZM590.11 1366.84H634.078V1372.45H590.11V1366.84ZM609.022 1359.2H614.926V1370.24H609.022V1359.2Z" fill="black"/>
<path d="M562.081 1363.57L565.825 1359.1C567.137 1359.71 568.513 1360.43 569.953 1361.26C571.425 1362.09 572.801 1362.94 574.081 1363.81C575.393 1364.67 576.465 1365.5 577.297 1366.3L573.121 1371.29C572.385 1370.46 571.393 1369.58 570.145 1368.65C568.929 1367.73 567.601 1366.81 566.161 1365.92C564.753 1365.02 563.393 1364.24 562.081 1363.57ZM558.865 1383.05H583.825V1388.53H558.865V1383.05ZM555.457 1397.26H586.609V1402.73H555.457V1397.26ZM557.185 1369.66H585.601V1375.13H557.185V1369.66ZM568.129 1371.49H574.129V1399.71H568.129V1371.49ZM544.513 1363.66L547.633 1359.44C548.689 1359.79 549.793 1360.25 550.945 1360.83C552.097 1361.37 553.201 1361.97 554.257 1362.61C555.313 1363.21 556.177 1363.81 556.849 1364.38L553.441 1369.09C552.833 1368.48 552.017 1367.85 550.993 1367.21C550.001 1366.54 548.929 1365.9 547.777 1365.29C546.657 1364.65 545.569 1364.11 544.513 1363.66ZM541.297 1376.77L544.273 1372.4C545.329 1372.75 546.449 1373.18 547.633 1373.69C548.817 1374.17 549.937 1374.72 550.993 1375.33C552.081 1375.9 552.977 1376.45 553.681 1376.96L550.465 1381.81C549.857 1381.23 549.025 1380.64 547.969 1380.03C546.913 1379.42 545.809 1378.83 544.657 1378.25C543.505 1377.65 542.385 1377.15 541.297 1376.77ZM543.361 1399.85C544.225 1398.64 545.185 1397.21 546.241 1395.58C547.297 1393.92 548.369 1392.16 549.457 1390.3C550.545 1388.41 551.553 1386.54 552.481 1384.69L556.705 1388.53C555.873 1390.19 554.977 1391.9 554.017 1393.66C553.089 1395.42 552.129 1397.15 551.137 1398.85C550.177 1400.54 549.217 1402.17 548.257 1403.74L543.361 1399.85Z" fill="black"/>
<path d="M501.407 1365.58C503.167 1365.8 505.151 1365.96 507.359 1366.06C509.567 1366.16 511.935 1366.2 514.463 1366.2C516.063 1366.2 517.695 1366.17 519.359 1366.11C521.023 1366.04 522.639 1365.96 524.207 1365.87C525.775 1365.74 527.167 1365.63 528.383 1365.53V1371.92C527.263 1371.98 525.903 1372.06 524.303 1372.16C522.735 1372.25 521.087 1372.33 519.359 1372.4C517.663 1372.46 516.047 1372.49 514.511 1372.49C512.015 1372.49 509.695 1372.44 507.551 1372.35C505.407 1372.22 503.359 1372.09 501.407 1371.96V1365.58ZM505.439 1385.93C505.215 1386.76 505.023 1387.58 504.863 1388.38C504.703 1389.18 504.623 1389.98 504.623 1390.78C504.623 1392.35 505.391 1393.63 506.927 1394.62C508.495 1395.58 511.007 1396.06 514.463 1396.06C516.639 1396.06 518.735 1395.98 520.751 1395.82C522.799 1395.66 524.719 1395.45 526.511 1395.2C528.303 1394.91 529.903 1394.57 531.311 1394.19L531.359 1400.91C529.983 1401.23 528.415 1401.52 526.655 1401.77C524.927 1402.03 523.055 1402.22 521.039 1402.35C519.055 1402.51 516.943 1402.59 514.703 1402.59C511.023 1402.59 507.967 1402.17 505.535 1401.34C503.103 1400.54 501.263 1399.39 500.015 1397.88C498.799 1396.35 498.191 1394.48 498.191 1392.27C498.191 1390.89 498.303 1389.63 498.527 1388.48C498.751 1387.29 498.943 1386.25 499.103 1385.36L505.439 1385.93ZM529.631 1360.64C530.047 1361.21 530.479 1361.9 530.927 1362.7C531.407 1363.5 531.871 1364.3 532.319 1365.1C532.767 1365.9 533.151 1366.6 533.471 1367.21L529.583 1368.89C529.103 1367.9 528.511 1366.76 527.807 1365.48C527.135 1364.2 526.479 1363.1 525.839 1362.17L529.631 1360.64ZM535.343 1358.48C535.759 1359.08 536.207 1359.79 536.687 1360.59C537.167 1361.39 537.631 1362.19 538.079 1362.99C538.559 1363.76 538.943 1364.43 539.231 1365L535.391 1366.64C534.879 1365.64 534.271 1364.52 533.567 1363.28C532.863 1362 532.175 1360.91 531.503 1360.01L535.343 1358.48Z" fill="black"/>
<path d="M467.326 1361.5C467.166 1362.37 466.91 1363.49 466.558 1364.86C466.206 1366.24 465.694 1367.79 465.022 1369.52C464.51 1370.7 463.918 1371.94 463.246 1373.22C462.606 1374.46 461.95 1375.58 461.278 1376.58C461.694 1376.38 462.222 1376.22 462.862 1376.1C463.502 1375.94 464.158 1375.82 464.83 1375.76C465.534 1375.66 466.158 1375.62 466.702 1375.62C468.718 1375.62 470.382 1376.19 471.694 1377.34C473.038 1378.5 473.71 1380.21 473.71 1382.48C473.71 1383.12 473.71 1383.9 473.71 1384.83C473.742 1385.76 473.774 1386.74 473.806 1387.76C473.838 1388.75 473.87 1389.73 473.902 1390.69C473.934 1391.65 473.95 1392.51 473.95 1393.28H468.19C468.254 1392.74 468.286 1392.1 468.286 1391.36C468.318 1390.59 468.334 1389.79 468.334 1388.96C468.366 1388.13 468.382 1387.33 468.382 1386.56C468.414 1385.76 468.43 1385.04 468.43 1384.4C468.43 1382.86 468.014 1381.81 467.182 1381.23C466.382 1380.62 465.486 1380.32 464.494 1380.32C463.15 1380.32 461.79 1380.66 460.414 1381.33C459.07 1381.97 457.934 1382.74 457.006 1383.63C456.302 1384.34 455.582 1385.12 454.846 1385.98C454.142 1386.85 453.374 1387.82 452.542 1388.91L447.406 1385.07C449.486 1383.15 451.278 1381.3 452.782 1379.5C454.318 1377.71 455.614 1375.94 456.67 1374.18C457.726 1372.42 458.59 1370.66 459.262 1368.9C459.742 1367.62 460.126 1366.29 460.414 1364.91C460.734 1363.5 460.926 1362.19 460.99 1360.98L467.326 1361.5ZM449.278 1365.92C450.494 1366.11 451.902 1366.26 453.502 1366.35C455.102 1366.45 456.51 1366.5 457.726 1366.5C459.838 1366.5 462.142 1366.45 464.638 1366.35C467.166 1366.26 469.726 1366.1 472.318 1365.87C474.91 1365.62 477.374 1365.3 479.71 1364.91L479.662 1370.48C477.966 1370.7 476.126 1370.91 474.142 1371.1C472.19 1371.26 470.19 1371.41 468.142 1371.54C466.126 1371.63 464.19 1371.71 462.334 1371.78C460.478 1371.81 458.83 1371.82 457.39 1371.82C456.75 1371.82 455.95 1371.82 454.99 1371.82C454.062 1371.79 453.102 1371.76 452.11 1371.73C451.118 1371.66 450.174 1371.6 449.278 1371.54V1365.92ZM487.294 1379.55C486.782 1379.71 486.174 1379.92 485.47 1380.18C484.798 1380.4 484.11 1380.64 483.406 1380.9C482.734 1381.12 482.126 1381.34 481.582 1381.57C480.046 1382.18 478.222 1382.91 476.11 1383.78C474.03 1384.64 471.854 1385.65 469.582 1386.8C468.142 1387.57 466.926 1388.32 465.934 1389.06C464.942 1389.79 464.19 1390.54 463.678 1391.31C463.166 1392.05 462.91 1392.86 462.91 1393.76C462.91 1394.43 463.054 1394.99 463.342 1395.44C463.63 1395.86 464.062 1396.19 464.638 1396.45C465.214 1396.7 465.934 1396.88 466.798 1396.98C467.662 1397.07 468.686 1397.12 469.87 1397.12C471.918 1397.12 474.174 1397.01 476.638 1396.78C479.102 1396.53 481.39 1396.19 483.502 1395.78L483.31 1401.97C482.286 1402.1 480.99 1402.22 479.422 1402.35C477.854 1402.51 476.222 1402.62 474.526 1402.69C472.862 1402.75 471.262 1402.78 469.726 1402.78C467.23 1402.78 464.99 1402.54 463.006 1402.06C461.022 1401.58 459.454 1400.77 458.302 1399.62C457.182 1398.43 456.622 1396.82 456.622 1394.77C456.622 1393.1 456.99 1391.6 457.726 1390.26C458.494 1388.91 459.502 1387.7 460.75 1386.61C461.998 1385.52 463.358 1384.54 464.83 1383.68C466.334 1382.78 467.806 1381.97 469.246 1381.23C470.718 1380.46 472.046 1379.81 473.23 1379.26C474.414 1378.72 475.518 1378.24 476.542 1377.82C477.598 1377.38 478.606 1376.93 479.566 1376.48C480.494 1376.06 481.39 1375.66 482.254 1375.28C483.118 1374.86 483.998 1374.43 484.894 1373.98L487.294 1379.55Z" fill="black"/>
<path d="M416.88 1359.2H422.736V1398.8C422.736 1400.21 422.544 1401.27 422.16 1401.97C421.776 1402.68 421.12 1403.24 420.192 1403.65C419.264 1404 418.112 1404.23 416.736 1404.32C415.392 1404.42 413.696 1404.47 411.648 1404.47C411.52 1403.8 411.264 1403.01 410.88 1402.12C410.496 1401.25 410.112 1400.52 409.728 1399.91C410.528 1399.94 411.328 1399.97 412.128 1400C412.928 1400 413.648 1400 414.288 1400C414.96 1400 415.424 1400 415.68 1400C416.128 1399.97 416.432 1399.88 416.592 1399.72C416.784 1399.56 416.88 1399.25 416.88 1398.8V1359.2ZM398.928 1362.37H441.168V1366.88H398.928V1362.37ZM409.344 1372.5V1374.76H430.512V1372.5H409.344ZM403.824 1368.85H436.416V1378.4H403.824V1368.85ZM402.672 1380.56H437.232V1399.33H431.376V1384.45H402.672V1380.56ZM397.824 1386.52H442.272V1390.88H397.824V1386.52ZM402.288 1393.09H434.544V1397.27H402.288V1393.09Z" fill="black"/>
<path d="M371.809 1364.14C370.433 1365.74 368.721 1367.36 366.673 1368.99C364.625 1370.62 362.385 1372.17 359.953 1373.65C357.521 1375.09 355.025 1376.37 352.465 1377.49C352.241 1377.04 351.937 1376.53 351.553 1375.95C351.169 1375.34 350.769 1374.77 350.353 1374.22C349.937 1373.65 349.521 1373.15 349.105 1372.73C351.761 1371.71 354.337 1370.45 356.833 1368.94C359.329 1367.44 361.601 1365.84 363.649 1364.14C365.697 1362.41 367.361 1360.72 368.641 1359.05H374.449C375.793 1360.59 377.265 1362.03 378.865 1363.37C380.497 1364.69 382.193 1365.9 383.953 1367.02C385.713 1368.14 387.521 1369.15 389.377 1370.05C391.265 1370.91 393.153 1371.65 395.041 1372.25C394.369 1372.96 393.713 1373.77 393.073 1374.7C392.433 1375.63 391.873 1376.51 391.393 1377.34C389.089 1376.35 386.705 1375.15 384.241 1373.74C381.777 1372.3 379.457 1370.75 377.281 1369.09C375.105 1367.42 373.281 1365.77 371.809 1364.14ZM361.249 1379.41H382.369V1383.53H361.249V1379.41ZM368.929 1368.75H374.881V1375.23H368.929V1368.75ZM352.657 1398.56C354.481 1398.4 356.529 1398.24 358.801 1398.08C361.105 1397.89 363.521 1397.69 366.049 1397.5C368.577 1397.28 371.089 1397.05 373.585 1396.83L373.681 1401.92C371.313 1402.14 368.913 1402.37 366.481 1402.59C364.081 1402.85 361.761 1403.07 359.521 1403.26C357.313 1403.49 355.281 1403.68 353.425 1403.84L352.657 1398.56ZM373.489 1388.91C375.217 1391.82 377.825 1394.14 381.313 1395.87C384.833 1397.57 389.089 1398.7 394.081 1399.28C393.697 1399.69 393.281 1400.19 392.833 1400.77C392.385 1401.37 391.969 1401.98 391.585 1402.59C391.201 1403.23 390.881 1403.81 390.625 1404.32C387.073 1403.74 383.905 1402.85 381.121 1401.63C378.337 1400.41 375.921 1398.88 373.873 1397.02C371.825 1395.13 370.081 1392.86 368.641 1390.21L373.489 1388.91ZM387.649 1387.9L391.825 1391.36C390.609 1392.19 389.313 1393.02 387.937 1393.85C386.561 1394.65 385.185 1395.41 383.809 1396.11C382.433 1396.78 381.137 1397.39 379.921 1397.93L376.513 1394.81C377.697 1394.24 378.961 1393.57 380.305 1392.8C381.649 1392 382.977 1391.18 384.289 1390.35C385.601 1389.49 386.721 1388.67 387.649 1387.9ZM361.249 1372.4H386.257V1390.64H361.249V1386.17H380.401V1376.91H361.249V1372.4ZM357.649 1372.4H363.361V1399.23L357.649 1399.81V1372.4Z" fill="black"/>
<path d="M320.927 1361.02C320.895 1361.28 320.847 1361.68 320.783 1362.22C320.719 1362.74 320.655 1363.26 320.591 1363.81C320.559 1364.32 320.527 1364.78 320.495 1365.2C320.431 1366.13 320.367 1367.15 320.303 1368.27C320.271 1369.36 320.239 1370.5 320.207 1371.68C320.175 1372.83 320.143 1374 320.111 1375.18C320.111 1376.37 320.111 1377.52 320.111 1378.64C320.111 1379.95 320.127 1381.41 320.159 1383.01C320.191 1384.58 320.223 1386.14 320.255 1387.71C320.319 1389.25 320.351 1390.66 320.351 1391.94C320.383 1393.22 320.399 1394.21 320.399 1394.91C320.399 1396.9 320.175 1398.43 319.727 1399.52C319.311 1400.61 318.703 1401.36 317.903 1401.78C317.103 1402.22 316.175 1402.45 315.119 1402.45C313.967 1402.45 312.735 1402.21 311.423 1401.73C310.111 1401.28 308.879 1400.64 307.727 1399.81C306.607 1398.98 305.679 1398.02 304.943 1396.93C304.239 1395.81 303.887 1394.61 303.887 1393.33C303.887 1391.79 304.463 1390.27 305.615 1388.77C306.799 1387.23 308.351 1385.82 310.271 1384.54C312.223 1383.26 314.319 1382.24 316.559 1381.47C318.703 1380.67 320.911 1380.1 323.183 1379.74C325.455 1379.36 327.503 1379.17 329.327 1379.17C331.791 1379.17 334.015 1379.58 335.999 1380.42C337.983 1381.22 339.567 1382.4 340.751 1383.97C341.935 1385.54 342.527 1387.42 342.527 1389.63C342.527 1391.49 342.175 1393.2 341.471 1394.77C340.767 1396.34 339.631 1397.7 338.063 1398.85C336.527 1399.97 334.479 1400.85 331.919 1401.49C330.831 1401.71 329.743 1401.87 328.655 1401.97C327.599 1402.1 326.591 1402.19 325.631 1402.26L323.423 1396.06C324.511 1396.06 325.551 1396.05 326.543 1396.02C327.567 1395.95 328.495 1395.86 329.327 1395.73C330.639 1395.47 331.823 1395.09 332.879 1394.58C333.935 1394.06 334.767 1393.39 335.375 1392.56C335.983 1391.73 336.287 1390.74 336.287 1389.58C336.287 1388.5 335.983 1387.57 335.375 1386.8C334.799 1386.03 333.983 1385.44 332.927 1385.02C331.871 1384.61 330.639 1384.4 329.231 1384.4C327.215 1384.4 325.167 1384.61 323.087 1385.02C321.039 1385.44 319.071 1386.02 317.183 1386.75C315.775 1387.3 314.511 1387.94 313.391 1388.67C312.271 1389.38 311.391 1390.11 310.751 1390.88C310.111 1391.65 309.791 1392.38 309.791 1393.09C309.791 1393.47 309.903 1393.84 310.127 1394.19C310.383 1394.51 310.703 1394.8 311.087 1395.06C311.471 1395.31 311.855 1395.52 312.239 1395.68C312.655 1395.81 313.007 1395.87 313.295 1395.87C313.743 1395.87 314.111 1395.74 314.399 1395.49C314.687 1395.2 314.831 1394.66 314.831 1393.86C314.831 1392.99 314.799 1391.76 314.735 1390.16C314.703 1388.53 314.655 1386.72 314.591 1384.74C314.559 1382.75 314.543 1380.78 314.543 1378.83C314.543 1377.49 314.543 1376.13 314.543 1374.75C314.575 1373.38 314.591 1372.06 314.591 1370.82C314.591 1369.57 314.591 1368.46 314.591 1367.5C314.623 1366.54 314.639 1365.79 314.639 1365.25C314.639 1364.9 314.623 1364.45 314.591 1363.9C314.559 1363.36 314.511 1362.82 314.447 1362.27C314.415 1361.7 314.367 1361.28 314.303 1361.02H320.927ZM334.607 1366.21C335.823 1366.78 337.183 1367.49 338.687 1368.32C340.223 1369.15 341.679 1369.98 343.055 1370.82C344.463 1371.62 345.583 1372.34 346.415 1372.98L343.535 1377.87C342.927 1377.36 342.127 1376.78 341.135 1376.14C340.175 1375.5 339.119 1374.85 337.967 1374.18C336.847 1373.5 335.759 1372.88 334.703 1372.3C333.647 1371.7 332.735 1371.22 331.967 1370.86L334.607 1366.21ZM305.183 1368.85C306.591 1369.01 307.823 1369.12 308.879 1369.18C309.967 1369.22 310.943 1369.23 311.807 1369.23C313.055 1369.23 314.431 1369.18 315.935 1369.09C317.439 1368.96 318.975 1368.8 320.543 1368.61C322.111 1368.38 323.631 1368.13 325.103 1367.84C326.607 1367.55 327.967 1367.23 329.183 1366.88L329.327 1372.83C327.983 1373.15 326.527 1373.44 324.959 1373.7C323.391 1373.92 321.807 1374.13 320.207 1374.32C318.639 1374.51 317.135 1374.66 315.695 1374.75C314.287 1374.85 313.055 1374.9 311.999 1374.9C310.399 1374.9 309.087 1374.88 308.063 1374.85C307.039 1374.82 306.111 1374.75 305.279 1374.66L305.183 1368.85Z" fill="black"/>
<path d="M676.227 1181.64C675.848 1182.21 675.446 1182.92 675.02 1183.77C674.641 1184.58 674.286 1185.45 673.955 1186.4C672.677 1190.14 671.304 1193.59 669.837 1196.77C668.417 1199.89 666.902 1202.8 665.293 1205.5C663.731 1208.15 662.027 1210.66 660.181 1213.02C657.719 1216.1 654.879 1218.96 651.661 1221.62C648.489 1224.27 645.129 1226.63 641.579 1228.72C638.029 1230.75 634.455 1232.43 630.858 1233.76L622.977 1225.73C627.284 1224.41 631.236 1222.8 634.834 1220.91C638.478 1218.96 641.768 1216.81 644.703 1214.44C647.637 1212.08 650.217 1209.62 652.442 1207.06C654.193 1204.88 655.779 1202.59 657.199 1200.17C658.619 1197.76 659.826 1195.37 660.82 1193C661.814 1190.64 662.571 1188.46 663.092 1186.47C662.476 1186.47 661.553 1186.47 660.323 1186.47C659.139 1186.47 657.743 1186.47 656.134 1186.47C654.572 1186.47 652.915 1186.47 651.164 1186.47C649.412 1186.47 647.661 1186.47 645.91 1186.47C644.206 1186.47 642.596 1186.47 641.082 1186.47C639.567 1186.47 638.265 1186.47 637.177 1186.47C636.23 1186.47 635.165 1186.49 633.982 1186.54C632.846 1186.59 631.733 1186.64 630.645 1186.68C629.556 1186.68 628.68 1186.71 628.018 1186.75V1177.17C629.059 1177.26 630.455 1177.38 632.207 1177.52C633.958 1177.62 635.615 1177.67 637.177 1177.67C638.265 1177.67 639.591 1177.67 641.153 1177.67C642.762 1177.67 644.466 1177.67 646.265 1177.67C648.111 1177.67 649.957 1177.67 651.803 1177.67C653.696 1177.67 655.471 1177.67 657.128 1177.67C658.784 1177.67 660.228 1177.67 661.459 1177.67C662.689 1177.67 663.565 1177.67 664.086 1177.67C665.032 1177.67 665.979 1177.57 666.926 1177.38C667.92 1177.15 668.748 1176.89 669.411 1176.6L676.227 1181.64ZM636.822 1192.93C639.993 1194.59 643.377 1196.55 646.975 1198.82C650.572 1201.05 654.169 1203.42 657.767 1205.92C661.364 1208.39 664.748 1210.85 667.92 1213.31C671.091 1215.77 673.836 1218.04 676.156 1220.12L669.482 1228.01C667.683 1226.25 665.553 1224.36 663.092 1222.33C660.678 1220.29 658.074 1218.23 655.282 1216.15C652.536 1214.07 649.744 1212.03 646.904 1210.04C644.064 1208.01 641.271 1206.14 638.526 1204.43C635.828 1202.68 633.319 1201.19 631 1199.96L636.822 1192.93Z" fill="black"/>
<path d="M551.34 1196.12C552.192 1196.17 553.281 1196.24 554.606 1196.34C555.931 1196.39 557.304 1196.43 558.724 1196.48C560.191 1196.53 561.54 1196.55 562.771 1196.55C563.954 1196.55 565.422 1196.55 567.173 1196.55C568.924 1196.55 570.818 1196.55 572.853 1196.55C574.936 1196.55 577.066 1196.55 579.243 1196.55C581.468 1196.55 583.669 1196.55 585.846 1196.55C588.023 1196.55 590.082 1196.55 592.023 1196.55C593.964 1196.55 595.691 1196.55 597.206 1196.55C598.768 1196.55 599.999 1196.55 600.898 1196.55C602.555 1196.55 604.117 1196.5 605.584 1196.41C607.051 1196.27 608.258 1196.17 609.205 1196.12V1207.27C608.4 1207.22 607.193 1207.15 605.584 1207.06C603.975 1206.96 602.413 1206.92 600.898 1206.92C599.999 1206.92 598.768 1206.92 597.206 1206.92C595.644 1206.92 593.893 1206.92 591.952 1206.92C590.011 1206.92 587.952 1206.92 585.775 1206.92C583.645 1206.92 581.468 1206.92 579.243 1206.92C577.018 1206.92 574.865 1206.92 572.782 1206.92C570.747 1206.92 568.853 1206.92 567.102 1206.92C565.398 1206.92 563.954 1206.92 562.771 1206.92C560.736 1206.92 558.653 1206.96 556.523 1207.06C554.393 1207.11 552.665 1207.18 551.34 1207.27V1196.12Z" fill="black"/>
<path d="M495.746 1172.77C496.882 1173.43 498.184 1174.21 499.651 1175.11C501.118 1176.01 502.609 1176.93 504.124 1177.88C505.686 1178.82 507.13 1179.75 508.455 1180.65C509.828 1181.5 510.987 1182.26 511.934 1182.92L506.609 1190.8C505.662 1190.09 504.503 1189.28 503.13 1188.39C501.757 1187.49 500.337 1186.56 498.87 1185.62C497.403 1184.67 495.935 1183.77 494.468 1182.92C493.048 1182.02 491.746 1181.24 490.563 1180.58L495.746 1172.77ZM482.54 1223.18C485.238 1222.7 487.936 1222.13 490.634 1221.47C493.379 1220.76 496.101 1219.89 498.799 1218.84C501.544 1217.8 504.195 1216.6 506.751 1215.22C510.774 1212.95 514.514 1210.4 517.969 1207.56C521.472 1204.72 524.596 1201.69 527.341 1198.47C530.134 1195.25 532.477 1191.96 534.37 1188.6L539.837 1198.25C536.524 1203.18 532.429 1207.82 527.554 1212.17C522.726 1216.53 517.401 1220.38 511.579 1223.74C509.165 1225.12 506.514 1226.39 503.627 1227.58C500.787 1228.76 497.971 1229.78 495.178 1230.63C492.433 1231.53 489.995 1232.17 487.865 1232.55L482.54 1223.18ZM484.812 1188.95C485.995 1189.62 487.321 1190.4 488.788 1191.3C490.303 1192.15 491.817 1193.05 493.332 1193.99C494.847 1194.94 496.267 1195.84 497.592 1196.69C498.965 1197.54 500.101 1198.3 501 1198.96L495.817 1206.92C494.776 1206.21 493.592 1205.43 492.267 1204.57C490.942 1203.67 489.522 1202.75 488.007 1201.8C486.54 1200.81 485.072 1199.89 483.605 1199.04C482.185 1198.18 480.86 1197.45 479.629 1196.83L484.812 1188.95Z" fill="black"/>
<path d="M420.028 1174.55C421.022 1174.69 422.205 1174.78 423.578 1174.83C424.951 1174.88 426.229 1174.9 427.412 1174.9C428.311 1174.9 429.684 1174.9 431.53 1174.9C433.423 1174.9 435.506 1174.9 437.778 1174.9C440.097 1174.9 442.393 1174.9 444.665 1174.9C446.937 1174.9 448.972 1174.9 450.771 1174.9C452.57 1174.9 453.895 1174.9 454.747 1174.9C455.836 1174.9 457.137 1174.88 458.652 1174.83C460.167 1174.78 461.421 1174.69 462.415 1174.55V1183.71C461.468 1183.61 460.238 1183.56 458.723 1183.56C457.256 1183.52 455.883 1183.49 454.605 1183.49C453.848 1183.49 452.546 1183.49 450.7 1183.49C448.901 1183.49 446.842 1183.49 444.523 1183.49C442.251 1183.49 439.955 1183.49 437.636 1183.49C435.364 1183.49 433.305 1183.49 431.459 1183.49C429.613 1183.49 428.264 1183.49 427.412 1183.49C426.276 1183.49 425.022 1183.52 423.649 1183.56C422.324 1183.61 421.117 1183.66 420.028 1183.71V1174.55ZM468.379 1195.14C468.142 1195.61 467.882 1196.13 467.598 1196.7C467.361 1197.27 467.172 1197.74 467.03 1198.12C465.941 1201.53 464.569 1204.93 462.912 1208.34C461.303 1211.7 459.173 1214.85 456.522 1217.79C452.972 1221.76 448.996 1225 444.594 1227.51C440.192 1229.97 435.719 1231.84 431.175 1233.12L424.146 1225.1C429.495 1223.96 434.252 1222.31 438.417 1220.13C442.582 1217.95 446.014 1215.47 448.712 1212.67C450.605 1210.73 452.12 1208.7 453.256 1206.57C454.439 1204.39 455.362 1202.33 456.025 1200.39C455.504 1200.39 454.605 1200.39 453.327 1200.39C452.049 1200.39 450.511 1200.39 448.712 1200.39C446.961 1200.39 445.067 1200.39 443.032 1200.39C440.997 1200.39 438.914 1200.39 436.784 1200.39C434.654 1200.39 432.619 1200.39 430.678 1200.39C428.737 1200.39 426.986 1200.39 425.424 1200.39C423.909 1200.39 422.679 1200.39 421.732 1200.39C420.88 1200.39 419.673 1200.41 418.111 1200.46C416.549 1200.51 415.011 1200.6 413.496 1200.75V1191.52C415.011 1191.61 416.478 1191.71 417.898 1191.8C419.365 1191.89 420.643 1191.94 421.732 1191.94C422.442 1191.94 423.507 1191.94 424.927 1191.94C426.394 1191.94 428.075 1191.94 429.968 1191.94C431.861 1191.94 433.873 1191.94 436.003 1191.94C438.18 1191.94 440.334 1191.94 442.464 1191.94C444.641 1191.94 446.7 1191.94 448.641 1191.94C450.582 1191.94 452.262 1191.94 453.682 1191.94C455.102 1191.94 456.167 1191.94 456.877 1191.94C458.013 1191.94 459.031 1191.87 459.93 1191.73C460.877 1191.59 461.587 1191.42 462.06 1191.23L468.379 1195.14Z" fill="black"/>
</svg>
