<svg width="1080" height="1920" viewBox="0 0 1080 1920" fill="none" xmlns="http://www.w3.org/2000/svg">
<path d="M1080 1920L1080 0L0 0L0 1920H1080Z" fill="#A5D4AD"/>
<path d="M1020 983.72V95C1020 75.67 1004.33 60 985 60H95.58C75.93 60 60 75.93 60 95.58V983.71C60 984.03 60.25 984.28 60.57 984.28C80.03 984.59 95.71 1000.46 95.71 1019.99C95.71 1039.52 80.03 1055.39 60.57 1055.7C60.25 1055.7 60 1055.96 60 1056.27V1824.99C60 1844.32 75.67 1859.99 95 1859.99H985C1004.33 1859.99 1020 1844.32 1020 1824.99V1056.27C1020 1055.95 1019.75 1055.7 1019.43 1055.7C999.97 1055.39 984.29 1039.52 984.29 1019.99C984.29 1000.46 999.97 984.59 1019.43 984.28C1019.75 984.28 1020 984.02 1020 983.71V983.72Z" fill="white"/>
<path d="M60.57 1055.71C60.25 1055.71 60 1055.97 60 1056.28V1825C60 1844.33 75.67 1860 95 1860H985C1004.33 1860 1020 1844.33 1020 1825V1056.28C1020 1055.96 1019.75 1055.71 1019.43 1055.71C999.97 1055.4 984.29 1039.53 984.29 1020H95.71C95.71 1039.53 80.03 1055.4 60.57 1055.71Z" fill="#E5F2E6"/>
<path d="M121 1020H160.9" stroke="black" stroke-width="6" stroke-miterlimit="10"/>
<path d="M187.512 1020H227.412" stroke="black" stroke-width="6" stroke-miterlimit="10"/>
<path d="M254.02 1020H293.92" stroke="black" stroke-width="6" stroke-miterlimit="10"/>
<path d="M320.52 1020H360.43" stroke="black" stroke-width="6" stroke-miterlimit="10"/>
<path d="M387.031 1020H426.941" stroke="black" stroke-width="6" stroke-miterlimit="10"/>
<path d="M453.539 1020H493.439" stroke="black" stroke-width="6" stroke-miterlimit="10"/>
<path d="M520.051 1020H559.951" stroke="black" stroke-width="6" stroke-miterlimit="10"/>
<path d="M586.559 1020H626.459" stroke="black" stroke-width="6" stroke-miterlimit="10"/>
<path d="M653.059 1020H692.969" stroke="black" stroke-width="6" stroke-miterlimit="10"/>
<path d="M719.57 1020H759.48" stroke="black" stroke-width="6" stroke-miterlimit="10"/>
<path d="M786.078 1020H825.978" stroke="black" stroke-width="6" stroke-miterlimit="10"/>
<path d="M852.59 1020H892.49" stroke="black" stroke-width="6" stroke-miterlimit="10"/>
<path d="M919.102 1020H959.002" stroke="black" stroke-width="6" stroke-miterlimit="10"/>
<path d="M1020 984.29V95C1020 75.67 1004.33 60 985 60H95C75.67 60 60 75.67 60 95V984.29C79.72 984.29 95.71 1000.28 95.71 1020C95.71 1039.72 79.72 1055.71 60 1055.71V1825C60 1844.33 75.67 1860 95 1860H985C1004.33 1860 1020 1844.33 1020 1825V1055.71C1000.28 1055.71 984.29 1039.72 984.29 1020C984.29 1000.28 1000.28 984.29 1020 984.29Z" stroke="black" stroke-width="6" stroke-miterlimit="10"/>
<path d="M912.649 525.666C908.779 525.666 905.539 522.646 905.319 518.736C900.589 435.626 868.789 358.856 813.369 296.746C810.669 293.716 810.929 289.066 813.959 286.366C816.989 283.666 821.629 283.926 824.339 286.956C881.999 351.576 915.069 431.436 919.999 517.896C920.229 521.946 917.129 525.426 913.079 525.656C912.939 525.656 912.799 525.666 912.659 525.666H912.649Z" fill="black"/>
<path d="M818.849 795.517C817.109 795.517 815.359 794.897 813.959 793.647C810.929 790.947 810.669 786.297 813.369 783.267C868.789 721.157 900.589 644.387 905.319 561.277C905.549 557.227 909.029 554.117 913.079 554.357C917.129 554.587 920.229 558.057 919.999 562.117C915.069 648.587 881.999 728.447 824.339 793.057C822.889 794.687 820.869 795.517 818.849 795.517Z" fill="black"/>
<path d="M167.36 525.666C167.22 525.666 167.08 525.666 166.94 525.656C162.89 525.426 159.79 521.956 160.02 517.896C164.95 431.426 198.02 351.566 255.68 286.956C258.38 283.926 263.03 283.666 266.06 286.366C269.09 289.066 269.35 293.716 266.65 296.746C211.23 358.856 179.43 435.616 174.7 518.736C174.48 522.646 171.24 525.666 167.37 525.666H167.36Z" fill="black"/>
<path d="M261.17 795.517C259.15 795.517 257.13 794.687 255.68 793.057C198.02 728.437 164.95 648.577 160.02 562.117C159.79 558.067 162.89 554.587 166.94 554.357C170.99 554.117 174.47 557.227 174.7 561.277C179.43 644.397 211.23 721.157 266.65 783.267C269.35 786.297 269.09 790.947 266.06 793.647C264.66 794.897 262.91 795.517 261.17 795.517Z" fill="black"/>
<path d="M788.171 268.511C786.431 268.511 784.681 267.891 783.281 266.641C721.171 211.221 644.401 179.421 561.291 174.691C557.241 174.461 554.141 170.991 554.371 166.931C554.601 162.881 558.041 159.791 562.131 160.011C648.601 164.941 728.461 198.011 793.071 255.671C796.101 258.371 796.361 263.021 793.661 266.051C792.211 267.681 790.191 268.511 788.171 268.511Z" fill="black"/>
<path d="M291.852 268.512C289.832 268.512 287.812 267.682 286.362 266.052C283.662 263.022 283.922 258.372 286.952 255.672C351.572 198.012 431.432 164.942 517.892 160.012C521.942 159.782 525.422 162.882 525.652 166.932C525.882 170.982 522.782 174.462 518.732 174.692C435.622 179.422 358.852 211.222 296.742 266.642C295.342 267.892 293.592 268.512 291.852 268.512Z" fill="black"/>
<path d="M561.69 920.006C557.82 920.006 554.58 916.986 554.36 913.076C554.13 909.026 557.23 905.546 561.28 905.316C644.4 900.586 721.16 868.786 783.27 813.366C786.3 810.666 790.95 810.926 793.65 813.956C796.35 816.986 796.09 821.636 793.06 824.336C728.44 881.996 648.58 915.066 562.12 919.996C561.98 919.996 561.84 920.006 561.7 920.006H561.69Z" fill="black"/>
<path d="M518.319 920.006C518.179 920.006 518.04 920.006 517.9 919.996C431.43 915.066 351.569 881.996 286.959 824.336C283.929 821.636 283.669 816.986 286.369 813.956C289.069 810.926 293.719 810.666 296.749 813.366C358.859 868.786 435.629 900.586 518.739 905.316C522.789 905.546 525.889 909.016 525.659 913.076C525.439 916.986 522.199 920.006 518.329 920.006H518.319Z" fill="black"/>
<path d="M875.378 526.189C872.368 526.189 869.848 523.839 869.678 520.799C865.408 445.789 836.708 376.519 786.698 320.459C784.598 318.099 784.798 314.489 787.158 312.389C789.508 310.289 793.128 310.489 795.228 312.849C846.978 370.849 876.678 442.539 881.098 520.149C881.278 523.299 878.868 525.999 875.718 526.179C875.608 526.179 875.498 526.179 875.388 526.179L875.378 526.189Z" fill="black"/>
<path d="M790.958 769.062C789.598 769.062 788.248 768.582 787.158 767.612C784.798 765.512 784.598 761.892 786.698 759.542C836.708 703.492 865.408 634.212 869.678 559.202C869.858 556.052 872.548 553.642 875.708 553.822C878.858 554.002 881.268 556.702 881.088 559.852C876.668 637.472 846.978 709.152 795.218 767.152C794.088 768.422 792.518 769.062 790.948 769.062H790.958Z" fill="black"/>
<path d="M204.63 526.187C204.52 526.187 204.41 526.187 204.3 526.187C201.15 526.007 198.74 523.307 198.92 520.157C203.34 442.537 233.03 370.857 284.79 312.857C286.89 310.497 290.51 310.297 292.86 312.397C295.22 314.497 295.42 318.117 293.32 320.467C243.31 376.517 214.61 445.797 210.34 520.807C210.17 523.847 207.65 526.197 204.64 526.197L204.63 526.187Z" fill="black"/>
<path d="M289.048 769.055C287.478 769.055 285.908 768.405 284.778 767.145C233.028 709.145 203.328 637.455 198.908 559.845C198.728 556.695 201.138 553.995 204.288 553.815C207.448 553.625 210.138 556.045 210.318 559.195C214.588 634.205 243.288 703.485 293.298 759.535C295.398 761.895 295.198 765.505 292.838 767.605C291.748 768.575 290.388 769.055 289.038 769.055H289.048Z" fill="black"/>
<path d="M763.35 294.756C761.99 294.756 760.64 294.276 759.55 293.306C703.5 243.296 634.22 214.596 559.21 210.326C556.06 210.146 553.65 207.446 553.83 204.296C554.01 201.146 556.7 198.736 559.86 198.916C637.48 203.336 709.16 233.026 767.16 284.786C769.52 286.886 769.72 290.506 767.62 292.856C766.49 294.126 764.92 294.766 763.35 294.766V294.756Z" fill="black"/>
<path d="M316.659 294.759C315.089 294.759 313.519 294.109 312.389 292.849C310.289 290.489 310.489 286.879 312.849 284.779C370.849 233.029 442.539 203.329 520.149 198.909C523.299 198.719 525.999 201.139 526.179 204.289C526.359 207.439 523.949 210.139 520.799 210.319C445.789 214.589 376.519 243.289 320.459 293.299C319.369 294.269 318.009 294.749 316.659 294.749V294.759Z" fill="black"/>
<path d="M559.526 881.102C556.516 881.102 553.996 878.752 553.826 875.712C553.646 872.562 556.056 869.862 559.206 869.682C634.216 865.412 703.486 836.712 759.546 786.702C761.896 784.602 765.516 784.802 767.616 787.162C769.716 789.522 769.516 793.132 767.156 795.232C709.156 846.982 637.466 876.682 559.856 881.102C559.746 881.102 559.636 881.102 559.526 881.102Z" fill="black"/>
<path d="M520.487 881.102C520.377 881.102 520.267 881.102 520.157 881.102C442.537 876.682 370.857 846.992 312.857 795.232C310.497 793.132 310.297 789.512 312.397 787.162C314.497 784.802 318.117 784.602 320.467 786.702C376.517 836.722 445.797 865.412 520.807 869.682C523.957 869.862 526.367 872.562 526.187 875.712C526.017 878.752 523.497 881.102 520.487 881.102Z" fill="black"/>
<path d="M841.851 526.514C839.701 526.514 837.901 524.834 837.781 522.664C833.921 454.914 808.001 392.344 762.831 341.714C761.331 340.034 761.481 337.454 763.161 335.944C764.841 334.444 767.421 334.584 768.931 336.274C815.351 388.294 841.981 452.584 845.941 522.194C846.071 524.444 844.351 526.374 842.091 526.504C842.011 526.504 841.931 526.504 841.851 526.504V526.514Z" fill="black"/>
<path d="M765.869 745.106C764.899 745.106 763.929 744.766 763.149 744.066C761.469 742.566 761.319 739.986 762.819 738.296C807.989 687.666 833.909 625.096 837.769 557.346C837.899 555.096 839.859 553.396 842.079 553.496C844.329 553.626 846.049 555.556 845.929 557.806C841.959 627.416 815.329 691.706 768.919 743.726C768.109 744.626 766.989 745.086 765.869 745.086V745.106Z" fill="black"/>
<path d="M238.17 526.516C238.09 526.516 238.01 526.516 237.93 526.516C235.68 526.386 233.96 524.456 234.08 522.206C238.05 452.596 264.68 388.306 311.09 336.286C312.59 334.606 315.17 334.456 316.86 335.956C318.54 337.456 318.69 340.036 317.19 341.726C272.02 392.356 246.1 454.926 242.24 522.676C242.12 524.846 240.32 526.526 238.17 526.526V526.516Z" fill="black"/>
<path d="M314.141 745.103C313.021 745.103 311.901 744.643 311.091 743.743C264.671 691.723 238.041 627.433 234.081 557.823C233.951 555.573 235.671 553.643 237.931 553.513C240.171 553.403 242.111 555.103 242.241 557.363C246.101 625.113 272.021 687.683 317.191 738.313C318.691 739.993 318.541 742.573 316.861 744.083C316.081 744.773 315.111 745.123 314.141 745.123V745.103Z" fill="black"/>
<path d="M741.022 318.225C740.052 318.225 739.082 317.885 738.302 317.185C687.672 272.015 625.102 246.095 557.352 242.235C555.102 242.105 553.382 240.175 553.502 237.925C553.632 235.675 555.552 233.965 557.812 234.075C627.422 238.045 691.712 264.675 743.742 311.085C745.422 312.585 745.572 315.165 744.072 316.855C743.262 317.755 742.142 318.215 741.022 318.215V318.225Z" fill="black"/>
<path d="M339.002 318.224C337.882 318.224 336.762 317.764 335.952 316.864C334.452 315.184 334.602 312.604 336.282 311.094C388.302 264.674 452.592 238.044 522.202 234.084C524.452 233.964 526.382 235.674 526.512 237.934C526.642 240.184 524.922 242.114 522.662 242.244C454.912 246.104 392.342 272.024 341.712 317.194C340.932 317.884 339.962 318.234 338.992 318.234L339.002 318.224Z" fill="black"/>
<path d="M557.573 845.933C555.423 845.933 553.623 844.253 553.503 842.083C553.373 839.833 555.093 837.903 557.353 837.773C625.103 833.913 687.673 807.993 738.303 762.823C739.983 761.323 742.563 761.473 744.073 763.153C745.573 764.833 745.423 767.413 743.743 768.923C691.723 815.343 627.433 841.973 557.813 845.933C557.733 845.933 557.653 845.933 557.573 845.933Z" fill="black"/>
<path d="M522.442 845.933C522.362 845.933 522.282 845.933 522.202 845.933C452.592 841.963 388.302 815.333 336.282 768.923C334.602 767.423 334.452 764.843 335.952 763.153C337.452 761.473 340.032 761.323 341.722 762.823C392.352 807.993 454.922 833.913 522.672 837.773C524.922 837.903 526.642 839.833 526.522 842.083C526.402 844.253 524.602 845.933 522.452 845.933H522.442Z" fill="black"/>
<path d="M320.65 546.174C320.65 544.604 321.79 543.274 323.34 543.024C324.64 542.814 326.27 542.524 327.98 542.124C332.4 541.084 337.59 539.114 343.41 536.274C349.29 533.404 354.92 529.414 359.17 523.674C366.34 513.974 367.86 501.404 368.19 496.894C368.26 495.974 367.53 495.194 366.6 495.194H317.09C315.33 495.194 313.91 493.764 313.91 492.014V470.694C313.91 468.934 315.34 467.514 317.09 467.514H367.07C367.95 467.514 368.66 466.804 368.66 465.924V447.184C368.66 446.304 367.95 445.594 367.07 445.594H328.62C326.86 445.594 325.44 444.164 325.44 442.414V421.094C325.44 419.334 326.87 417.914 328.62 417.914H428.96C430.72 417.914 432.14 419.344 432.14 421.094V442.414C432.14 444.174 430.71 445.594 428.96 445.594H398.52C397.64 445.594 396.93 446.304 396.93 447.184V465.924C396.93 466.804 397.64 467.514 398.52 467.514H438.58C440.34 467.514 441.76 468.944 441.76 470.694V492.014C441.76 493.774 440.33 495.194 438.58 495.194H398.39C397.54 495.194 396.84 495.864 396.8 496.714C396.57 501.754 395.15 518.444 386.18 532.854C380.73 541.614 373.65 548.264 366.54 553.544C359.41 558.844 352.26 562.934 345.27 565.704C338.24 568.494 332.34 570.444 327.75 571.514C326.66 571.764 325.49 571.994 324.4 572.184C322.45 572.534 320.66 571.034 320.66 569.044V546.164L320.65 546.174Z" fill="black"/>
<path d="M474.552 546.522C474.552 545.062 475.552 543.792 476.962 543.432C485.212 541.362 488.932 540.112 496.842 536.322C496.842 536.322 500.892 534.212 504.932 531.302C517.112 522.542 525.222 510.632 525.222 510.632C534.682 497.282 537.772 474.912 538.492 468.492C538.602 467.552 537.862 466.722 536.912 466.722H500.582C500.352 466.722 500.142 466.842 500.032 467.042L499.882 467.292C494.302 478.112 486.882 487.992 480.452 494.242C474.002 500.502 468.592 505.052 464.382 507.752L461.782 509.422C460.722 510.102 459.332 509.342 459.332 508.082V479.892C459.332 478.952 459.752 478.062 460.472 477.452C461.122 476.902 461.992 476.132 463.182 475.062C465.942 472.572 469.052 468.512 472.422 462.982C475.762 457.512 479.352 450.212 483.072 441.292C486.452 433.202 488.982 423.092 490.862 412.062C491.122 410.532 492.452 409.422 494.002 409.422H513.912C515.912 409.422 517.422 411.252 517.042 413.212C516.402 416.522 515.712 420.882 514.852 424.312C513.582 429.392 512.762 432.302 511.242 436.722C510.982 437.472 511.542 438.242 512.332 438.242H591.182C592.942 438.242 594.362 439.672 594.362 441.422V463.512C594.362 465.272 592.932 466.692 591.182 466.692H568.142C567.332 466.692 566.642 467.302 566.562 468.112C565.932 474.012 562.882 497.162 552.392 517.262C538.292 546.002 508.142 566.392 478.342 572.132C476.382 572.512 474.562 571.002 474.562 569.002V546.482L474.552 546.522Z" fill="black"/>
<path d="M675.902 411.035V468.875C675.902 469.755 676.612 470.465 677.492 470.465H764.522C765.402 470.465 766.112 469.755 766.112 468.875V411.035C766.112 410.155 765.402 409.445 764.522 409.445H677.492C676.612 409.445 675.902 410.155 675.902 411.035ZM738.462 452.745H702.302C701.422 452.745 700.712 452.035 700.712 451.155V446.875C700.712 445.995 701.422 445.285 702.302 445.285H738.462C739.342 445.285 740.052 445.995 740.052 446.875V451.155C740.052 452.035 739.342 452.745 738.462 452.745ZM738.462 434.455H702.302C701.422 434.455 700.712 433.745 700.712 432.865V428.755C700.712 427.875 701.422 427.165 702.302 427.165H738.462C739.342 427.165 740.052 427.875 740.052 428.755V432.865C740.052 433.745 739.342 434.455 738.462 434.455Z" fill="black"/>
<path d="M674.232 497.342H728.272C729.152 497.342 729.862 498.052 729.862 498.932V502.842C729.862 503.722 729.152 504.432 728.272 504.432H667.762C666.002 504.432 664.582 505.862 664.582 507.612V522.862C664.582 524.622 666.012 526.042 667.762 526.042H728.272C729.152 526.042 729.862 526.752 729.862 527.632V545.392C729.862 546.112 729.942 547.982 729.222 548.852C728.392 549.872 727.152 549.672 725.852 549.722C722.542 549.722 719.582 549.702 716.952 549.662C716.552 549.662 716.262 549.292 716.342 548.902C716.602 547.632 716.732 546.312 716.702 544.962C716.502 535.682 708.942 528.082 699.662 527.842C689.582 527.582 681.372 535.852 681.712 545.942C682.022 555.292 689.792 562.812 699.152 562.842C704.042 562.852 708.462 560.862 711.642 557.642C711.982 557.302 712.552 557.432 712.702 557.882C714.162 562.212 715.542 566.342 716.792 570.052C717.232 571.352 718.462 572.222 719.832 572.212C725.732 572.172 730.512 571.962 734.182 571.602C738.312 571.182 742.092 570.152 745.522 568.502C749.182 566.842 751.692 564.422 753.052 561.232C754.412 558.042 755.092 553.552 755.092 547.762V527.622C755.092 526.742 755.802 526.032 756.682 526.032H762.912C764.672 526.032 766.092 524.602 766.092 522.852V507.602C766.092 505.842 764.662 504.422 762.912 504.422H756.682C755.802 504.422 755.092 503.712 755.092 502.832V498.922C755.092 498.042 755.802 497.332 756.682 497.332H762.912C764.672 497.332 766.092 495.902 766.092 494.152V479.602C766.092 477.842 764.662 476.422 762.912 476.422H674.212C672.452 476.422 671.032 477.852 671.032 479.602V494.152C671.032 495.912 672.462 497.332 674.212 497.332L674.232 497.342Z" fill="black"/>
<path d="M668.832 409.445H650.262C649.402 409.445 648.582 409.795 647.982 410.405C635.232 423.355 618.292 434.575 612.132 438.485C610.782 439.335 610.282 441.065 610.952 442.505L620.702 463.575C621.632 465.575 624.262 466.055 625.832 464.505C646.122 444.465 664.452 419.805 670.122 411.965C670.882 410.915 670.122 409.445 668.832 409.445Z" fill="black"/>
<path d="M671.922 453.899V435.419C671.922 434.009 670.222 433.299 669.212 434.289C653.642 449.609 620.052 477.069 611.682 483.869C610.552 484.789 610.192 486.359 610.802 487.679L620.702 509.059C621.632 511.059 624.262 511.539 625.832 509.989C627.542 508.299 629.242 506.569 630.922 504.829C631.322 504.419 632.022 504.699 632.022 505.269V569.069C632.022 570.829 633.452 572.249 635.202 572.249H653.822C655.582 572.249 657.002 570.819 657.002 569.069V476.379C657.002 475.309 657.362 474.259 658.032 473.419C664.872 464.739 669.722 458.029 671.342 455.749C671.722 455.209 671.932 454.569 671.932 453.899H671.922Z" fill="black"/>
<path d="M653.269 623.338C640.849 623.338 634.809 628.288 634.809 638.478V655.608C634.809 665.678 640.849 670.568 653.269 670.568C659.139 670.568 663.479 669.488 666.559 667.278C669.999 664.808 671.739 660.878 671.739 655.598V638.468C671.739 628.278 665.699 623.328 653.279 623.328L653.269 623.338ZM646.089 639.308C646.089 633.938 648.839 632.918 653.269 632.918C657.699 632.918 660.449 633.958 660.449 639.308V654.688C660.449 659.958 657.599 660.988 653.269 660.988C648.939 660.988 646.089 659.988 646.089 654.688V639.308Z" fill="black"/>
<path d="M708.27 669.334H721.359L703.63 646.784L720.56 624.804H707.4L694.06 642.284V610.234H682.77V669.334H694.06V659.214L696.95 655.454L708.27 669.334Z" fill="black"/>
<path d="M754.82 624.805V653.295C754.82 659.045 751.88 660.895 746.83 660.895C743.56 660.895 740.28 660.355 740.28 653.885V624.815H729V656.775C729 665.745 733.71 670.485 742.62 670.485C749.3 670.485 753.88 666.865 755.58 662.805L757.39 669.345H766.11V624.815H754.83L754.82 624.805Z" fill="black"/>
<path d="M630.568 610.234H589.148V620.144V620.154H604.218V669.334H615.688V620.154H630.568V610.234Z" fill="black"/>
<path d="M459.689 669.334H472.779L455.049 646.784L471.979 624.804H458.819L445.479 642.284V610.234H434.199V669.334H445.479V659.214L448.369 655.454L459.689 669.334Z" fill="black"/>
<path d="M355.33 610.234H313.91V620.144V620.154H328.99V669.334H340.45V620.154H355.33V610.234Z" fill="black"/>
<path d="M421.802 658.896L421.202 659.046C417.622 659.966 413.292 660.896 409.412 660.896C404.862 660.896 401.692 658.826 401.692 652.836V640.976C401.692 634.906 404.862 632.826 409.412 632.826C413.362 632.826 417.882 633.706 421.232 634.406L421.812 634.526V625.196L421.502 625.126C417.692 624.236 412.052 623.336 407.532 623.336C402.012 623.336 397.972 624.406 395.172 626.596C391.972 629.096 390.422 633.856 390.422 639.346V654.646C390.422 664.776 396.022 670.566 407.542 670.566C411.412 670.566 417.272 669.496 421.532 668.316L421.822 668.236V658.886L421.802 658.896Z" fill="black"/>
<path d="M553.93 634.705V624.805H543.69V615.195H532.41V624.805H525.18V634.705H532.41V655.425C532.41 667.945 540.3 670.565 546.93 670.565C548.71 670.565 550.51 670.455 552.12 670.225V660.265C551.47 660.335 550.26 660.365 549.54 660.365C546.46 660.365 543.69 659.735 543.69 652.095V634.695H553.93V634.705Z" fill="black"/>
<path d="M489.741 650.742V650.562H515.171V641.482C515.171 635.572 513.551 630.243 510.361 627.343C507.421 624.673 502.781 623.312 497.261 623.312C485.081 623.312 478.461 629.223 478.461 639.593V654.453C478.461 664.703 483.841 670.552 496.321 670.552C500.981 670.552 506.291 669.563 511.971 668.403L512.361 668.323V659.052L511.711 659.203C507.141 660.253 504.621 661.143 500.291 661.143C494.081 661.143 489.741 658.623 489.741 652.203V650.722V650.742ZM489.741 639.722C489.741 634.072 493.801 632.742 497.171 632.742C500.541 632.742 504.071 634.072 504.071 639.722V643.232H489.741V642.713V639.722Z" fill="black"/>
<path d="M378.178 626.883H366.898V669.333H378.178V626.883Z" fill="black"/>
<path d="M372.542 622.224C376.424 622.224 379.572 619.077 379.572 615.194C379.572 611.312 376.424 608.164 372.542 608.164C368.659 608.164 365.512 611.312 365.512 615.194C365.512 619.077 368.659 622.224 372.542 622.224Z" fill="black"/>
<path d="M585.738 643.922H566.148V651.262H585.738V643.922Z" fill="black"/>
<path d="M722.398 1703.4C722.398 1702.13 722.398 1700.07 722.398 1697.2C722.398 1694.27 722.398 1690.9 722.398 1687.1C722.398 1683.23 722.398 1679.2 722.398 1675C722.398 1670.8 722.398 1666.77 722.398 1662.9C722.398 1658.97 722.398 1655.5 722.398 1652.5C722.398 1649.5 722.398 1647.3 722.398 1645.9C722.398 1644.17 722.298 1642.17 722.098 1639.9C721.965 1637.63 721.732 1635.63 721.398 1633.9H736.998C736.798 1635.63 736.598 1637.57 736.398 1639.7C736.198 1641.77 736.098 1643.83 736.098 1645.9C736.098 1647.77 736.098 1650.3 736.098 1653.5C736.098 1656.7 736.098 1660.27 736.098 1664.2C736.098 1668.07 736.098 1672.03 736.098 1676.1C736.098 1680.1 736.098 1683.97 736.098 1687.7C736.098 1691.43 736.098 1694.7 736.098 1697.5C736.098 1700.23 736.098 1702.2 736.098 1703.4C736.098 1704.33 736.132 1705.67 736.198 1707.4C736.265 1709.07 736.398 1710.8 736.598 1712.6C736.798 1714.4 736.932 1716 736.998 1717.4H721.398C721.665 1715.4 721.898 1713.07 722.098 1710.4C722.298 1707.73 722.398 1705.4 722.398 1703.4ZM733.098 1659.8C736.432 1660.67 740.165 1661.8 744.298 1663.2C748.432 1664.53 752.598 1665.97 756.798 1667.5C760.998 1669.03 764.932 1670.57 768.598 1672.1C772.332 1673.57 775.432 1674.93 777.898 1676.2L772.198 1690C769.398 1688.53 766.298 1687.07 762.898 1685.6C759.498 1684.07 756.032 1682.6 752.498 1681.2C749.032 1679.8 745.598 1678.5 742.198 1677.3C738.865 1676.1 735.832 1675.03 733.098 1674.1V1659.8Z" fill="black"/>
<path d="M615.102 1637C616.835 1638.2 618.868 1639.67 621.202 1641.4C623.535 1643.13 625.935 1645.03 628.402 1647.1C630.935 1649.1 633.302 1651.07 635.502 1653C637.702 1654.93 639.502 1656.67 640.902 1658.2L630.702 1668.6C629.435 1667.2 627.768 1665.53 625.702 1663.6C623.635 1661.67 621.402 1659.67 619.002 1657.6C616.602 1655.53 614.235 1653.57 611.902 1651.7C609.568 1649.83 607.502 1648.27 605.702 1647L615.102 1637ZM602.602 1703.6C607.802 1702.87 612.702 1701.83 617.302 1700.5C621.902 1699.17 626.168 1697.63 630.102 1695.9C634.035 1694.17 637.635 1692.37 640.902 1690.5C646.568 1687.1 651.768 1683.23 656.502 1678.9C661.235 1674.57 665.368 1670.07 668.902 1665.4C672.435 1660.67 675.235 1656.07 677.302 1651.6L685.102 1665.7C682.568 1670.17 679.435 1674.63 675.702 1679.1C672.035 1683.57 667.868 1687.83 663.202 1691.9C658.535 1695.9 653.502 1699.5 648.102 1702.7C644.702 1704.77 641.035 1706.73 637.102 1708.6C633.168 1710.4 629.002 1712 624.602 1713.4C620.268 1714.87 615.735 1716 611.002 1716.8L602.602 1703.6Z" fill="black"/>
<path d="M568.401 1631.2C569.267 1632.4 570.167 1633.84 571.101 1635.5C572.101 1637.17 573.067 1638.84 574.001 1640.5C574.934 1642.17 575.701 1643.64 576.301 1644.9L568.301 1648.4C567.234 1646.34 565.967 1644 564.501 1641.4C563.101 1638.74 561.734 1636.44 560.401 1634.5L568.401 1631.2ZM580.201 1626.7C581.067 1627.97 582.001 1629.47 583.001 1631.2C584.001 1632.87 584.967 1634.54 585.901 1636.2C586.901 1637.8 587.701 1639.17 588.301 1640.3L580.301 1643.7C579.301 1641.64 578.034 1639.3 576.501 1636.7C575.034 1634.1 573.634 1631.87 572.301 1630L580.201 1626.7ZM517.801 1701.6C517.801 1700.2 517.801 1698.2 517.801 1695.6C517.801 1692.94 517.801 1689.94 517.801 1686.6C517.801 1683.27 517.801 1679.77 517.801 1676.1C517.801 1672.37 517.801 1668.7 517.801 1665.1C517.801 1661.5 517.801 1658.17 517.801 1655.1C517.801 1652.04 517.801 1649.5 517.801 1647.5C517.801 1646.37 517.767 1645.1 517.701 1643.7C517.634 1642.3 517.534 1640.9 517.401 1639.5C517.334 1638.1 517.201 1636.94 517.001 1636H531.901C531.634 1637.47 531.401 1639.34 531.201 1641.6C531.067 1643.8 531.001 1645.77 531.001 1647.5C531.001 1649.44 531.001 1651.8 531.001 1654.6C531.001 1657.34 531.001 1660.3 531.001 1663.5C531.001 1666.64 531.001 1669.87 531.001 1673.2C531.001 1676.47 531.001 1679.67 531.001 1682.8C531.001 1685.87 531.001 1688.7 531.001 1691.3C531.001 1693.9 531.001 1696.17 531.001 1698.1C531.001 1700.1 531.301 1701.74 531.901 1703C532.501 1704.27 533.701 1705.17 535.501 1705.7C537.367 1706.24 540.101 1706.5 543.701 1706.5C547.234 1706.5 550.767 1706.37 554.301 1706.1C557.901 1705.84 561.467 1705.44 565.001 1704.9C568.601 1704.37 572.034 1703.8 575.301 1703.2L574.901 1716.7C572.167 1717.1 569.067 1717.47 565.601 1717.8C562.134 1718.14 558.534 1718.4 554.801 1718.6C551.067 1718.8 547.401 1718.9 543.801 1718.9C538.134 1718.9 533.567 1718.54 530.101 1717.8C526.634 1717.14 524.001 1716.1 522.201 1714.7C520.467 1713.3 519.301 1711.5 518.701 1709.3C518.101 1707.1 517.801 1704.54 517.801 1701.6ZM580.701 1657.7C580.301 1658.37 579.767 1659.24 579.101 1660.3C578.501 1661.3 577.967 1662.24 577.501 1663.1C576.367 1665.17 575.001 1667.5 573.401 1670.1C571.801 1672.7 570.067 1675.37 568.201 1678.1C566.334 1680.84 564.401 1683.44 562.401 1685.9C560.467 1688.37 558.601 1690.47 556.801 1692.2L545.801 1685.7C548.001 1683.77 550.134 1681.57 552.201 1679.1C554.334 1676.57 556.234 1674.1 557.901 1671.7C559.567 1669.3 560.834 1667.24 561.701 1665.5C560.834 1665.64 559.234 1665.97 556.901 1666.5C554.567 1666.97 551.734 1667.54 548.401 1668.2C545.134 1668.87 541.534 1669.6 537.601 1670.4C533.667 1671.14 529.701 1671.9 525.701 1672.7C521.701 1673.5 517.834 1674.3 514.101 1675.1C510.367 1675.84 507.001 1676.54 504.001 1677.2C501.001 1677.8 498.601 1678.3 496.801 1678.7L494.301 1665.6C496.301 1665.34 498.834 1664.97 501.901 1664.5C505.034 1663.97 508.534 1663.37 512.401 1662.7C516.334 1662.04 520.401 1661.3 524.601 1660.5C528.801 1659.64 532.934 1658.84 537.001 1658.1C541.134 1657.3 545.001 1656.54 548.601 1655.8C552.267 1655.07 555.434 1654.44 558.101 1653.9C560.767 1653.3 562.734 1652.87 564.001 1652.6C565.467 1652.2 566.801 1651.84 568.001 1651.5C569.201 1651.17 570.234 1650.74 571.101 1650.2L580.701 1657.7Z" fill="black"/>
<path d="M410.5 1709C411.1 1707.73 411.467 1706.63 411.6 1705.7C411.733 1704.77 411.8 1703.7 411.8 1702.5C411.8 1701.23 411.8 1699.3 411.8 1696.7C411.8 1694.1 411.8 1691.1 411.8 1687.7C411.8 1684.23 411.8 1680.6 411.8 1676.8C411.8 1673 411.8 1669.27 411.8 1665.6C411.8 1661.93 411.8 1658.6 411.8 1655.6C411.8 1652.6 411.8 1650.17 411.8 1648.3C411.8 1647.03 411.733 1645.7 411.6 1644.3C411.533 1642.9 411.4 1641.57 411.2 1640.3C411.067 1638.97 410.9 1637.83 410.7 1636.9H426.4C426.133 1638.83 425.9 1640.73 425.7 1642.6C425.5 1644.47 425.4 1646.37 425.4 1648.3C425.4 1649.9 425.4 1651.9 425.4 1654.3C425.4 1656.63 425.4 1659.23 425.4 1662.1C425.4 1664.97 425.4 1667.93 425.4 1671C425.4 1674.07 425.4 1677.1 425.4 1680.1C425.4 1683.1 425.4 1685.93 425.4 1688.6C425.4 1691.27 425.4 1693.6 425.4 1695.6C425.4 1697.6 425.4 1699.17 425.4 1700.3C429.467 1699.1 433.8 1697.47 438.4 1695.4C443.067 1693.27 447.733 1690.77 452.4 1687.9C457.133 1684.97 461.567 1681.77 465.7 1678.3C469.9 1674.83 473.6 1671.13 476.8 1667.2L483.9 1678.5C477.1 1686.7 468.667 1693.8 458.6 1699.8C448.6 1705.73 437.7 1710.63 425.9 1714.5C425.233 1714.77 424.367 1715.1 423.3 1715.5C422.233 1715.9 421.133 1716.47 420 1717.2L410.5 1709Z" fill="black"/>
<path d="M371.4 1639.7C371.4 1641.3 371.967 1642.67 373.1 1643.8C374.233 1644.87 375.567 1645.4 377.1 1645.4C378.7 1645.4 380.067 1644.87 381.2 1643.8C382.333 1642.67 382.9 1641.3 382.9 1639.7C382.9 1638.1 382.333 1636.74 381.2 1635.6C380.067 1634.47 378.7 1633.9 377.1 1633.9C375.567 1633.9 374.233 1634.47 373.1 1635.6C371.967 1636.74 371.4 1638.1 371.4 1639.7ZM365.2 1639.7C365.2 1637.5 365.733 1635.5 366.8 1633.7C367.933 1631.84 369.4 1630.37 371.2 1629.3C373 1628.24 374.967 1627.7 377.1 1627.7C379.3 1627.7 381.3 1628.24 383.1 1629.3C384.967 1630.37 386.433 1631.84 387.5 1633.7C388.567 1635.5 389.1 1637.5 389.1 1639.7C389.1 1641.84 388.567 1643.8 387.5 1645.6C386.433 1647.4 384.967 1648.87 383.1 1650C381.3 1651.07 379.3 1651.6 377.1 1651.6C374.967 1651.6 373 1651.07 371.2 1650C369.4 1648.87 367.933 1647.4 366.8 1645.6C365.733 1643.8 365.2 1641.84 365.2 1639.7ZM377.3 1647.6C376.833 1648.54 376.433 1649.67 376.1 1651C375.767 1652.27 375.433 1653.44 375.1 1654.5C374.567 1656.97 373.867 1659.74 373 1662.8C372.133 1665.8 371.1 1668.94 369.9 1672.2C368.7 1675.47 367.267 1678.7 365.6 1681.9C364 1685.1 362.167 1688.1 360.1 1690.9C357.1 1694.9 353.6 1698.64 349.6 1702.1C345.6 1705.57 341.133 1708.7 336.2 1711.5C331.267 1714.3 325.833 1716.67 319.9 1718.6L309 1706.6C315.667 1705 321.4 1703.04 326.2 1700.7C331 1698.37 335.167 1695.7 338.7 1692.7C342.3 1689.7 345.467 1686.5 348.2 1683.1C350.4 1680.3 352.267 1677.27 353.8 1674C355.4 1670.74 356.7 1667.47 357.7 1664.2C358.767 1660.87 359.5 1657.77 359.9 1654.9C358.9 1654.9 357.233 1654.9 354.9 1654.9C352.633 1654.9 349.933 1654.9 346.8 1654.9C343.733 1654.9 340.5 1654.9 337.1 1654.9C333.767 1654.9 330.533 1654.9 327.4 1654.9C324.267 1654.9 321.433 1654.9 318.9 1654.9C316.433 1654.9 314.6 1654.9 313.4 1654.9C311.067 1654.9 308.8 1654.94 306.6 1655C304.467 1655.07 302.767 1655.17 301.5 1655.3V1641.2C302.5 1641.34 303.7 1641.47 305.1 1641.6C306.567 1641.74 308.033 1641.84 309.5 1641.9C311.033 1641.97 312.333 1642 313.4 1642C314.467 1642 315.967 1642 317.9 1642C319.9 1642 322.2 1642 324.8 1642C327.4 1642 330.1 1642 332.9 1642C335.767 1642 338.6 1642 341.4 1642C344.267 1642 346.933 1642 349.4 1642C351.867 1642 354 1642 355.8 1642C357.6 1642 358.9 1642 359.7 1642C360.7 1642 361.9 1641.97 363.3 1641.9C364.767 1641.84 366.167 1641.6 367.5 1641.2L377.3 1647.6Z" fill="black"/>
<path d="M644.898 1541.8H737.198V1553.9H644.898V1541.8ZM684.798 1525.9H697.398V1578C697.398 1581.4 696.932 1584.03 695.998 1585.9C695.132 1587.77 693.465 1589.17 690.998 1590.1C688.598 1591.03 685.665 1591.63 682.198 1591.9C678.732 1592.17 674.698 1592.27 670.098 1592.2C669.898 1591 669.498 1589.63 668.898 1588.1C668.298 1586.63 667.665 1585.13 666.998 1583.6C666.332 1582.13 665.665 1580.87 664.998 1579.8C667.332 1579.87 669.632 1579.93 671.898 1580C674.232 1580.07 676.298 1580.1 678.098 1580.1C679.965 1580.1 681.265 1580.1 681.998 1580.1C683.065 1580.1 683.798 1579.93 684.198 1579.6C684.598 1579.27 684.798 1578.67 684.798 1577.8V1525.9ZM655.398 1504.2H718.398V1516H655.398V1504.2ZM714.398 1504.2H717.598L720.398 1503.5L729.498 1510.4C726.432 1513.67 722.898 1516.93 718.898 1520.2C714.965 1523.47 710.865 1526.6 706.598 1529.6C702.332 1532.53 698.165 1535.07 694.098 1537.2C693.498 1536.33 692.732 1535.37 691.798 1534.3C690.865 1533.23 689.898 1532.2 688.898 1531.2C687.898 1530.13 686.998 1529.23 686.198 1528.5C689.798 1526.7 693.432 1524.53 697.098 1522C700.832 1519.47 704.232 1516.87 707.298 1514.2C710.365 1511.53 712.732 1509.1 714.398 1506.9V1504.2Z" fill="black"/>
<path d="M567.502 1498H579.202V1518.9H567.502V1498ZM602.102 1498H613.802V1518.9H602.102V1498ZM546.602 1503.7H635.602V1514.2H546.602V1503.7ZM545.902 1559.8H636.602V1570.1H545.902V1559.8ZM584.602 1525H596.402V1592H584.602V1525ZM579.302 1564.1L588.702 1568.3C586.502 1570.77 583.968 1573.17 581.102 1575.5C578.235 1577.83 575.135 1580 571.802 1582C568.535 1583.93 565.135 1585.67 561.602 1587.2C558.068 1588.8 554.535 1590.1 551.002 1591.1C550.468 1590.1 549.735 1588.97 548.802 1587.7C547.868 1586.5 546.902 1585.3 545.902 1584.1C544.968 1582.9 544.035 1581.9 543.102 1581.1C546.568 1580.3 550.035 1579.33 553.502 1578.2C556.968 1577 560.302 1575.7 563.502 1574.3C566.768 1572.83 569.735 1571.23 572.402 1569.5C575.135 1567.77 577.435 1565.97 579.302 1564.1ZM602.102 1564.7C604.635 1567.17 607.868 1569.5 611.802 1571.7C615.735 1573.9 620.035 1575.83 624.702 1577.5C629.368 1579.1 634.035 1580.4 638.702 1581.4C637.902 1582.2 637.002 1583.17 636.002 1584.3C635.002 1585.5 634.035 1586.7 633.102 1587.9C632.235 1589.17 631.502 1590.33 630.902 1591.4C626.235 1590 621.568 1588.17 616.902 1585.9C612.235 1583.63 607.868 1581.03 603.802 1578.1C599.735 1575.1 596.268 1571.9 593.402 1568.5L602.102 1564.7ZM567.102 1542.1V1547.1H614.602V1542.1H567.102ZM567.102 1529.3V1534.2H614.602V1529.3H567.102ZM555.802 1520.8H626.402V1555.6H555.802V1520.8Z" fill="black"/>
<path d="M457.402 1511.2C464.735 1512.06 471.468 1512.6 477.602 1512.8C483.802 1512.93 489.535 1512.8 494.802 1512.4C499.402 1512 503.802 1511.4 508.002 1510.6C512.202 1509.8 516.335 1508.76 520.402 1507.5L522.002 1519C518.402 1520 514.502 1520.86 510.302 1521.6C506.102 1522.33 501.802 1522.9 497.402 1523.3C492.268 1523.7 486.335 1523.9 479.602 1523.9C472.935 1523.83 465.768 1523.43 458.102 1522.7L457.402 1511.2ZM455.602 1532.2C461.668 1532.73 467.468 1533.1 473.002 1533.3C478.535 1533.5 483.735 1533.5 488.602 1533.3C493.468 1533.1 497.902 1532.83 501.902 1532.5C507.302 1532.03 511.935 1531.36 515.802 1530.5C519.668 1529.56 523.035 1528.7 525.902 1527.9L527.902 1539.7C524.902 1540.43 521.602 1541.13 518.002 1541.8C514.402 1542.46 510.568 1543.03 506.502 1543.5C502.235 1543.9 497.335 1544.23 491.802 1544.5C486.335 1544.7 480.568 1544.76 474.502 1544.7C468.435 1544.56 462.368 1544.33 456.302 1544L455.602 1532.2ZM489.002 1514C488.535 1512.13 488.002 1510.3 487.402 1508.5C486.802 1506.63 486.135 1504.73 485.402 1502.8L498.902 1501.3C499.302 1504.43 499.802 1507.53 500.402 1510.6C501.068 1513.6 501.802 1516.5 502.602 1519.3C503.468 1522.1 504.302 1524.8 505.102 1527.4C505.902 1529.66 506.935 1532.26 508.202 1535.2C509.535 1538.06 510.968 1540.96 512.502 1543.9C514.035 1546.76 515.568 1549.36 517.102 1551.7C517.768 1552.63 518.435 1553.53 519.102 1554.4C519.835 1555.2 520.668 1556 521.602 1556.8L515.502 1566C513.635 1565.6 511.302 1565.2 508.502 1564.8C505.768 1564.4 502.902 1564.03 499.902 1563.7C496.968 1563.36 494.268 1563.06 491.802 1562.8L492.802 1553.3C494.868 1553.5 497.102 1553.7 499.502 1553.9C501.968 1554.1 503.935 1554.3 505.402 1554.5C502.735 1550.03 500.435 1545.66 498.502 1541.4C496.635 1537.13 495.068 1533.16 493.802 1529.5C493.002 1527.16 492.335 1525.16 491.802 1523.5C491.268 1521.76 490.768 1520.16 490.302 1518.7C489.902 1517.16 489.468 1515.6 489.002 1514ZM474.802 1555.4C473.602 1557.06 472.568 1558.8 471.702 1560.6C470.835 1562.33 470.402 1564.3 470.402 1566.5C470.402 1570.16 472.102 1572.83 475.502 1574.5C478.968 1576.1 484.002 1576.9 490.602 1576.9C495.335 1576.9 499.802 1576.7 504.002 1576.3C508.268 1575.9 512.168 1575.36 515.702 1574.7L515.002 1587.4C511.535 1588 507.635 1588.46 503.302 1588.8C498.968 1589.13 494.768 1589.3 490.702 1589.3C484.035 1589.3 478.268 1588.6 473.402 1587.2C468.602 1585.8 464.868 1583.63 462.202 1580.7C459.535 1577.7 458.168 1573.83 458.102 1569.1C458.035 1565.9 458.435 1563.03 459.302 1560.5C460.235 1557.9 461.268 1555.4 462.402 1553L474.802 1555.4Z" fill="black"/>
<path d="M377.602 1532.4H437.902V1542.4H377.602V1532.4ZM382.002 1507.8H434.102V1517.7H382.002V1507.8ZM378.202 1551.7H437.302V1561.8H378.202V1551.7ZM401.702 1498.1H413.102V1527.4H401.702V1498.1ZM387.102 1522H397.902V1554.7H387.102V1522ZM417.002 1522H428.002V1554.7H417.002V1522ZM409.702 1560.3H420.802V1578.4C420.802 1579.67 420.902 1580.47 421.102 1580.8C421.368 1581.13 421.935 1581.3 422.802 1581.3C423.002 1581.3 423.368 1581.3 423.902 1581.3C424.502 1581.3 425.068 1581.3 425.602 1581.3C426.202 1581.3 426.635 1581.3 426.902 1581.3C427.435 1581.3 427.835 1581.07 428.102 1580.6C428.435 1580.13 428.668 1579.2 428.802 1577.8C428.935 1576.4 429.035 1574.3 429.102 1571.5C429.835 1572.03 430.768 1572.6 431.902 1573.2C433.035 1573.73 434.235 1574.2 435.502 1574.6C436.768 1575 437.902 1575.33 438.902 1575.6C438.568 1579.73 437.968 1582.9 437.102 1585.1C436.302 1587.37 435.168 1588.93 433.702 1589.8C432.302 1590.73 430.435 1591.2 428.102 1591.2C427.702 1591.2 427.168 1591.2 426.502 1591.2C425.835 1591.2 425.135 1591.2 424.402 1591.2C423.735 1591.2 423.068 1591.2 422.402 1591.2C421.735 1591.2 421.202 1591.2 420.802 1591.2C417.735 1591.2 415.402 1590.8 413.802 1590C412.202 1589.2 411.102 1587.87 410.502 1586C409.968 1584.13 409.702 1581.6 409.702 1578.4V1560.3ZM357.802 1498.5H368.502V1533.2C368.502 1538.4 368.302 1543.63 367.902 1548.9C367.568 1554.1 366.835 1559.23 365.702 1564.3C364.635 1569.37 362.968 1574.27 360.702 1579C358.435 1583.67 355.402 1588.03 351.602 1592.1C351.002 1591.23 350.235 1590.27 349.302 1589.2C348.368 1588.13 347.402 1587.1 346.402 1586.1C345.402 1585.1 344.502 1584.3 343.702 1583.7C347.902 1578.97 351.002 1573.83 353.002 1568.3C355.002 1562.7 356.302 1556.9 356.902 1550.9C357.502 1544.9 357.802 1538.97 357.802 1533.1V1498.5ZM347.302 1519.2L355.202 1520.2C355.268 1523.27 355.202 1526.47 355.002 1529.8C354.802 1533.13 354.368 1536.3 353.702 1539.3C353.035 1542.3 352.102 1545 350.902 1547.4L343.102 1544C344.102 1542.07 344.902 1539.73 345.502 1537C346.168 1534.2 346.635 1531.27 346.902 1528.2C347.235 1525.07 347.368 1522.07 347.302 1519.2ZM373.802 1514.6L383.402 1518.1C381.935 1521.57 380.435 1525.2 378.902 1529C377.435 1532.8 376.068 1536.03 374.802 1538.7L367.802 1535.6C368.535 1533.73 369.268 1531.57 370.002 1529.1C370.802 1526.57 371.535 1524.03 372.202 1521.5C372.868 1518.97 373.402 1516.67 373.802 1514.6ZM366.602 1553.1C367.268 1553.83 368.235 1555.03 369.502 1556.7C370.835 1558.3 372.235 1560.1 373.702 1562.1C375.235 1564.1 376.635 1565.93 377.902 1567.6C379.168 1569.2 380.035 1570.37 380.502 1571.1L372.402 1579.3C371.735 1577.83 370.802 1576.17 369.602 1574.3C368.468 1572.37 367.268 1570.43 366.002 1568.5C364.735 1566.5 363.502 1564.63 362.302 1562.9C361.168 1561.1 360.168 1559.6 359.302 1558.4L366.602 1553.1ZM390.102 1560.2H401.402C401.135 1564.27 400.635 1567.97 399.902 1571.3C399.235 1574.57 398.102 1577.53 396.502 1580.2C394.902 1582.8 392.635 1585.07 389.702 1587C386.835 1588.93 383.102 1590.6 378.502 1592C377.968 1590.67 377.068 1589.1 375.802 1587.3C374.602 1585.57 373.435 1584.17 372.302 1583.1C377.368 1581.83 381.102 1580.2 383.502 1578.2C385.968 1576.13 387.635 1573.63 388.502 1570.7C389.368 1567.77 389.902 1564.27 390.102 1560.2Z" fill="black"/>
<path d="M933.98 1369.05C935.513 1369.25 937.23 1369.4 939.13 1369.5C941.063 1369.57 943.013 1369.6 944.98 1369.6C946.98 1369.57 948.896 1369.5 950.73 1369.4C952.563 1369.27 954.146 1369.13 955.48 1369V1375.45C953.946 1375.58 952.263 1375.7 950.43 1375.8C948.596 1375.87 946.713 1375.9 944.78 1375.9C942.846 1375.9 940.946 1375.87 939.08 1375.8C937.246 1375.7 935.546 1375.58 933.98 1375.45V1369.05ZM937.98 1390.4C937.78 1391.23 937.63 1391.98 937.53 1392.65C937.43 1393.28 937.38 1393.93 937.38 1394.6C937.38 1395.13 937.513 1395.63 937.78 1396.1C938.046 1396.53 938.446 1396.92 938.98 1397.25C939.546 1397.55 940.263 1397.78 941.13 1397.95C942.03 1398.08 943.113 1398.15 944.38 1398.15C946.613 1398.15 948.713 1398.05 950.68 1397.85C952.646 1397.62 954.73 1397.28 956.93 1396.85L957.03 1403.6C955.43 1403.9 953.58 1404.13 951.48 1404.3C949.413 1404.47 946.963 1404.55 944.13 1404.55C939.83 1404.55 936.63 1403.83 934.53 1402.4C932.43 1400.93 931.38 1398.92 931.38 1396.35C931.38 1395.38 931.446 1394.38 931.58 1393.35C931.746 1392.28 931.963 1391.12 932.23 1389.85L937.98 1390.4ZM926.28 1365.7C926.146 1366.03 925.996 1366.5 925.83 1367.1C925.663 1367.7 925.496 1368.28 925.33 1368.85C925.196 1369.42 925.096 1369.85 925.03 1370.15C924.93 1370.85 924.763 1371.77 924.53 1372.9C924.33 1374 924.113 1375.25 923.88 1376.65C923.68 1378.02 923.48 1379.42 923.28 1380.85C923.08 1382.28 922.913 1383.67 922.78 1385C922.68 1386.33 922.63 1387.5 922.63 1388.5C922.63 1388.97 922.63 1389.5 922.63 1390.1C922.663 1390.7 922.73 1391.25 922.83 1391.75C923.063 1391.18 923.313 1390.62 923.58 1390.05C923.846 1389.48 924.113 1388.92 924.38 1388.35C924.646 1387.75 924.88 1387.18 925.08 1386.65L928.18 1389.1C927.713 1390.47 927.23 1391.93 926.73 1393.5C926.263 1395.07 925.83 1396.55 925.43 1397.95C925.063 1399.32 924.78 1400.45 924.58 1401.35C924.513 1401.72 924.446 1402.13 924.38 1402.6C924.346 1403.07 924.33 1403.43 924.33 1403.7C924.33 1403.97 924.33 1404.28 924.33 1404.65C924.363 1405.05 924.396 1405.42 924.43 1405.75L918.63 1406.15C918.13 1404.42 917.68 1402.12 917.28 1399.25C916.88 1396.35 916.68 1393.2 916.68 1389.8C916.68 1387.93 916.763 1386.03 916.93 1384.1C917.096 1382.17 917.296 1380.32 917.53 1378.55C917.763 1376.75 917.98 1375.12 918.18 1373.65C918.413 1372.18 918.613 1370.97 918.78 1370C918.846 1369.3 918.93 1368.52 919.03 1367.65C919.163 1366.75 919.246 1365.9 919.28 1365.1L926.28 1365.7Z" fill="black"/>
<path d="M863.931 1369.55H909.281V1375.25H863.931V1369.55ZM880.631 1381.8H899.781V1387.45H880.631V1381.8ZM897.531 1381.8H903.731C903.731 1381.8 903.715 1381.96 903.681 1382.3C903.681 1382.6 903.681 1382.95 903.681 1383.35C903.681 1383.75 903.648 1384.1 903.581 1384.4C903.281 1388.96 902.948 1392.7 902.581 1395.6C902.215 1398.5 901.798 1400.76 901.331 1402.4C900.865 1404 900.298 1405.16 899.631 1405.9C898.865 1406.73 898.065 1407.3 897.231 1407.6C896.398 1407.9 895.398 1408.11 894.231 1408.25C893.265 1408.35 891.998 1408.38 890.431 1408.35C888.865 1408.35 887.248 1408.31 885.581 1408.25C885.548 1407.38 885.331 1406.38 884.931 1405.25C884.531 1404.15 884.031 1403.18 883.431 1402.35C885.165 1402.51 886.831 1402.61 888.431 1402.65C890.031 1402.68 891.181 1402.7 891.881 1402.7C892.448 1402.7 892.915 1402.66 893.281 1402.6C893.681 1402.5 894.031 1402.31 894.331 1402.05C894.865 1401.61 895.315 1400.66 895.681 1399.2C896.081 1397.73 896.431 1395.65 896.731 1392.95C897.031 1390.25 897.298 1386.83 897.531 1382.7V1381.8ZM878.381 1372.95H885.081C884.948 1375.61 884.731 1378.31 884.431 1381.05C884.165 1383.75 883.698 1386.43 883.031 1389.1C882.365 1391.73 881.398 1394.25 880.131 1396.65C878.865 1399.05 877.198 1401.28 875.131 1403.35C873.065 1405.41 870.448 1407.25 867.281 1408.85C866.848 1408.01 866.215 1407.11 865.381 1406.15C864.581 1405.18 863.798 1404.38 863.031 1403.75C865.931 1402.41 868.298 1400.86 870.131 1399.1C871.998 1397.3 873.465 1395.36 874.531 1393.3C875.598 1391.2 876.381 1389.01 876.881 1386.75C877.415 1384.48 877.765 1382.18 877.931 1379.85C878.131 1377.51 878.281 1375.21 878.381 1372.95ZM883.181 1361.3H889.431V1371.8H883.181V1361.3Z" fill="black"/>
<path d="M841.131 1369.75C840.798 1372.28 840.365 1374.98 839.831 1377.85C839.298 1380.72 838.581 1383.62 837.681 1386.55C836.715 1389.92 835.581 1392.82 834.281 1395.25C832.981 1397.68 831.548 1399.57 829.981 1400.9C828.448 1402.2 826.765 1402.85 824.931 1402.85C823.098 1402.85 821.398 1402.23 819.831 1401C818.298 1399.73 817.065 1398 816.131 1395.8C815.231 1393.6 814.781 1391.1 814.781 1388.3C814.781 1385.4 815.365 1382.67 816.531 1380.1C817.698 1377.53 819.315 1375.27 821.381 1373.3C823.481 1371.3 825.915 1369.73 828.681 1368.6C831.481 1367.47 834.498 1366.9 837.731 1366.9C840.831 1366.9 843.615 1367.4 846.081 1368.4C848.581 1369.4 850.715 1370.78 852.481 1372.55C854.248 1374.32 855.598 1376.38 856.531 1378.75C857.465 1381.12 857.931 1383.67 857.931 1386.4C857.931 1389.9 857.215 1393.03 855.781 1395.8C854.348 1398.57 852.215 1400.85 849.381 1402.65C846.581 1404.45 843.081 1405.68 838.881 1406.35L835.131 1400.4C836.098 1400.3 836.948 1400.18 837.681 1400.05C838.415 1399.92 839.115 1399.77 839.781 1399.6C841.381 1399.2 842.865 1398.63 844.231 1397.9C845.631 1397.13 846.848 1396.2 847.881 1395.1C848.915 1393.97 849.715 1392.65 850.281 1391.15C850.881 1389.65 851.181 1388 851.181 1386.2C851.181 1384.23 850.881 1382.43 850.281 1380.8C849.681 1379.17 848.798 1377.75 847.631 1376.55C846.465 1375.32 845.048 1374.38 843.381 1373.75C841.715 1373.08 839.798 1372.75 837.631 1372.75C834.965 1372.75 832.615 1373.23 830.581 1374.2C828.548 1375.13 826.831 1376.35 825.431 1377.85C824.031 1379.35 822.965 1380.97 822.231 1382.7C821.531 1384.43 821.181 1386.08 821.181 1387.65C821.181 1389.32 821.381 1390.72 821.781 1391.85C822.181 1392.95 822.665 1393.78 823.231 1394.35C823.831 1394.88 824.465 1395.15 825.131 1395.15C825.831 1395.15 826.515 1394.8 827.181 1394.1C827.881 1393.37 828.565 1392.27 829.231 1390.8C829.898 1389.33 830.565 1387.48 831.231 1385.25C831.998 1382.85 832.648 1380.28 833.181 1377.55C833.715 1374.82 834.098 1372.15 834.331 1369.55L841.131 1369.75Z" fill="black"/>
<path d="M773.03 1364.3H787.23V1370.4H773.03V1364.3ZM784.28 1364.3H790.48C790.48 1365.9 790.546 1367.71 790.68 1369.75C790.813 1371.75 791.096 1373.9 791.53 1376.2C791.963 1378.46 792.613 1380.8 793.48 1383.2C794.346 1385.6 795.496 1387.98 796.93 1390.35C798.396 1392.68 800.23 1394.93 802.43 1397.1C804.63 1399.26 807.263 1401.26 810.33 1403.1C809.896 1403.43 809.363 1403.91 808.73 1404.55C808.096 1405.18 807.48 1405.83 806.88 1406.5C806.313 1407.2 805.846 1407.81 805.48 1408.35C802.346 1406.41 799.63 1404.25 797.33 1401.85C795.03 1399.41 793.096 1396.85 791.53 1394.15C789.963 1391.41 788.696 1388.66 787.73 1385.9C786.763 1383.1 786.03 1380.38 785.53 1377.75C785.03 1375.08 784.696 1372.6 784.53 1370.3C784.363 1368 784.28 1366 784.28 1364.3ZM782.13 1375.3L788.98 1376.55C787.846 1381.48 786.33 1385.96 784.43 1390C782.53 1394.03 780.246 1397.58 777.58 1400.65C774.946 1403.71 771.896 1406.3 768.43 1408.4C768.063 1407.96 767.546 1407.43 766.88 1406.8C766.213 1406.2 765.513 1405.58 764.78 1404.95C764.08 1404.35 763.463 1403.86 762.93 1403.5C768.163 1400.86 772.33 1397.16 775.43 1392.4C778.53 1387.6 780.763 1381.9 782.13 1375.3Z" fill="black"/>
<path d="M732.382 1365.4H758.932V1369.6H732.382V1365.4ZM731.582 1377.45H759.882V1381.65H731.582V1377.45ZM731.332 1396.15H759.932V1400.4H731.332V1396.15ZM733.582 1371.45H758.182V1375.45H733.582V1371.45ZM737.832 1361.55H743.032V1379.3H737.832V1361.55ZM748.182 1361.55H753.482V1379.3H748.182V1361.55ZM743.032 1379.4H748.232V1397.35H743.032V1379.4ZM752.132 1383.55H757.582V1403.05C757.582 1404.28 757.432 1405.25 757.132 1405.95C756.865 1406.68 756.315 1407.25 755.482 1407.65C754.615 1408.05 753.582 1408.28 752.382 1408.35C751.215 1408.45 749.799 1408.5 748.132 1408.5C748.032 1407.76 747.832 1406.95 747.532 1406.05C747.232 1405.15 746.915 1404.36 746.582 1403.7C747.549 1403.73 748.499 1403.75 749.432 1403.75C750.399 1403.75 751.032 1403.75 751.332 1403.75C751.632 1403.75 751.832 1403.7 751.932 1403.6C752.065 1403.46 752.132 1403.26 752.132 1403V1383.55ZM733.982 1383.55H754.482V1387.75H739.332V1408.55H733.982V1383.55ZM736.632 1390H754.432V1393.75H736.632V1390ZM717.782 1396.15L722.982 1397.35C722.349 1399.45 721.499 1401.51 720.432 1403.55C719.365 1405.55 718.232 1407.23 717.032 1408.6C716.732 1408.3 716.299 1407.96 715.732 1407.6C715.165 1407.23 714.599 1406.86 714.032 1406.5C713.465 1406.13 712.982 1405.85 712.582 1405.65C713.715 1404.45 714.732 1403 715.632 1401.3C716.565 1399.6 717.282 1397.88 717.782 1396.15ZM723.632 1397.95L728.082 1396.05C728.915 1397.31 729.732 1398.71 730.532 1400.25C731.365 1401.75 731.999 1403.06 732.432 1404.2L727.782 1406.4C727.549 1405.63 727.199 1404.76 726.732 1403.8C726.299 1402.8 725.815 1401.8 725.282 1400.8C724.749 1399.76 724.199 1398.81 723.632 1397.95ZM720.482 1377.2V1381.9H725.432V1377.2H720.482ZM720.482 1386.3V1391H725.432V1386.3H720.482ZM720.482 1368.15V1372.75H725.432V1368.15H720.482ZM715.382 1363.4H730.682V1395.8H715.382V1363.4Z" fill="black"/>
<path d="M671.381 1368.15C673.215 1368.38 675.281 1368.55 677.581 1368.65C679.881 1368.75 682.348 1368.8 684.981 1368.8C686.648 1368.8 688.348 1368.77 690.081 1368.7C691.815 1368.63 693.498 1368.55 695.131 1368.45C696.765 1368.32 698.215 1368.2 699.481 1368.1V1374.75C698.315 1374.82 696.898 1374.9 695.231 1375C693.598 1375.1 691.881 1375.18 690.081 1375.25C688.315 1375.32 686.631 1375.35 685.031 1375.35C682.431 1375.35 680.015 1375.3 677.781 1375.2C675.548 1375.07 673.415 1374.93 671.381 1374.8V1368.15ZM675.581 1389.35C675.348 1390.22 675.148 1391.07 674.981 1391.9C674.815 1392.73 674.731 1393.57 674.731 1394.4C674.731 1396.03 675.531 1397.37 677.131 1398.4C678.765 1399.4 681.381 1399.9 684.981 1399.9C687.248 1399.9 689.431 1399.82 691.531 1399.65C693.665 1399.48 695.665 1399.27 697.531 1399C699.398 1398.7 701.065 1398.35 702.531 1397.95L702.581 1404.95C701.148 1405.28 699.515 1405.58 697.681 1405.85C695.881 1406.12 693.931 1406.32 691.831 1406.45C689.765 1406.62 687.565 1406.7 685.231 1406.7C681.398 1406.7 678.215 1406.27 675.681 1405.4C673.148 1404.57 671.231 1403.37 669.931 1401.8C668.665 1400.2 668.031 1398.25 668.031 1395.95C668.031 1394.52 668.148 1393.2 668.381 1392C668.615 1390.77 668.815 1389.68 668.981 1388.75L675.581 1389.35ZM700.781 1363C701.215 1363.6 701.665 1364.32 702.131 1365.15C702.631 1365.98 703.115 1366.82 703.581 1367.65C704.048 1368.48 704.448 1369.22 704.781 1369.85L700.731 1371.6C700.231 1370.57 699.615 1369.38 698.881 1368.05C698.181 1366.72 697.498 1365.57 696.831 1364.6L700.781 1363ZM706.731 1360.75C707.165 1361.38 707.631 1362.12 708.131 1362.95C708.631 1363.78 709.115 1364.62 709.581 1365.45C710.081 1366.25 710.481 1366.95 710.781 1367.55L706.781 1369.25C706.248 1368.22 705.615 1367.05 704.881 1365.75C704.148 1364.42 703.431 1363.28 702.731 1362.35L706.731 1360.75Z" fill="black"/>
<path d="M634.33 1387.15C633.23 1386.02 632.146 1385.13 631.08 1384.5C630.013 1383.87 628.613 1383.55 626.88 1383.55C625.28 1383.55 623.78 1384.12 622.38 1385.25C621.013 1386.35 619.863 1387.78 618.93 1389.55L613.43 1386.55C615.13 1383.45 617.146 1381.15 619.48 1379.65C621.813 1378.12 624.33 1377.35 627.03 1377.35C629.43 1377.35 631.563 1377.8 633.43 1378.7C635.33 1379.6 637.13 1380.98 638.83 1382.85C639.93 1383.98 641.013 1384.87 642.08 1385.5C643.18 1386.13 644.58 1386.45 646.28 1386.45C647.88 1386.45 649.363 1385.9 650.73 1384.8C652.13 1383.67 653.296 1382.22 654.23 1380.45L659.73 1383.45C658.03 1386.55 656.013 1388.87 653.68 1390.4C651.346 1391.9 648.83 1392.65 646.13 1392.65C643.763 1392.65 641.63 1392.2 639.73 1391.3C637.83 1390.4 636.03 1389.02 634.33 1387.15Z" fill="black"/>
<path d="M585.13 1376.55H605.93V1382.6H585.13V1376.55ZM563.73 1399.95H609.48V1406H563.73V1399.95ZM581.73 1362.15H588.18V1403.3H581.73V1362.15Z" fill="black"/>
<path d="M529.083 1370.15L534.633 1367.5C535.699 1368.7 536.75 1370.02 537.783 1371.45C538.816 1372.88 539.733 1374.3 540.533 1375.7C541.366 1377.07 542.033 1378.33 542.533 1379.5L536.633 1382.65C536.233 1381.52 535.633 1380.22 534.833 1378.75C534.033 1377.25 533.133 1375.75 532.133 1374.25C531.133 1372.75 530.116 1371.38 529.083 1370.15ZM512.883 1396.4C514.583 1395.83 516.55 1395.12 518.783 1394.25C521.05 1393.38 523.416 1392.45 525.883 1391.45C528.383 1390.45 530.85 1389.45 533.283 1388.45L534.683 1394.3C532.449 1395.3 530.183 1396.3 527.883 1397.3C525.583 1398.3 523.316 1399.27 521.083 1400.2C518.883 1401.13 516.833 1402 514.933 1402.8L512.883 1396.4ZM542.183 1391.95L546.783 1387.7C547.916 1388.9 549.133 1390.18 550.433 1391.55C551.766 1392.92 553.066 1394.32 554.333 1395.75C555.633 1397.15 556.833 1398.52 557.933 1399.85C559.033 1401.15 559.933 1402.35 560.633 1403.45L555.483 1408.45C554.849 1407.32 553.999 1406.05 552.933 1404.65C551.899 1403.28 550.766 1401.87 549.533 1400.4C548.333 1398.93 547.083 1397.48 545.783 1396.05C544.516 1394.58 543.316 1393.22 542.183 1391.95ZM548.983 1364.4L555.633 1365C555.033 1370.67 554.166 1375.78 553.033 1380.35C551.9 1384.88 550.383 1388.93 548.483 1392.5C546.583 1396.03 544.183 1399.13 541.283 1401.8C538.416 1404.47 534.933 1406.72 530.833 1408.55C530.533 1408.12 530.1 1407.57 529.533 1406.9C528.966 1406.23 528.366 1405.55 527.733 1404.85C527.099 1404.18 526.533 1403.65 526.033 1403.25C530.033 1401.72 533.383 1399.8 536.083 1397.5C538.816 1395.2 541.05 1392.47 542.783 1389.3C544.516 1386.1 545.866 1382.45 546.833 1378.35C547.799 1374.22 548.516 1369.57 548.983 1364.4ZM518.533 1364.6L524.833 1364.35L525.983 1396.85L519.683 1397.1L518.533 1364.6Z" fill="black"/>
<path d="M478.432 1385C478.432 1388.57 477.982 1391.83 477.082 1394.8C476.182 1397.77 474.982 1400.43 473.482 1402.8C472.015 1405.17 470.382 1407.23 468.582 1409L463.832 1406.9C465.499 1405.1 466.999 1403.12 468.332 1400.95C469.699 1398.78 470.782 1396.38 471.582 1393.75C472.382 1391.08 472.782 1388.17 472.782 1385C472.782 1381.8 472.382 1378.88 471.582 1376.25C470.782 1373.62 469.699 1371.22 468.332 1369.05C466.999 1366.85 465.499 1364.87 463.832 1363.1L468.582 1361C470.382 1362.77 472.015 1364.83 473.482 1367.2C474.982 1369.57 476.182 1372.23 477.082 1375.2C477.982 1378.17 478.432 1381.43 478.432 1385Z" fill="black"/>
<path d="M431.78 1363.6H442.38V1369.3H431.78V1363.6ZM439.33 1363.6H445.63C445.83 1367.17 446.196 1370.57 446.73 1373.8C447.263 1377.04 448.063 1380.04 449.13 1382.8C450.196 1385.54 451.596 1387.95 453.33 1390.05C455.063 1392.15 457.246 1393.87 459.88 1395.2C459.38 1395.54 458.83 1395.97 458.23 1396.5C457.663 1397.04 457.096 1397.6 456.53 1398.2C455.996 1398.77 455.546 1399.3 455.18 1399.8C452.513 1398.2 450.28 1396.25 448.48 1393.95C446.68 1391.62 445.213 1389 444.08 1386.1C442.98 1383.2 442.13 1380.09 441.53 1376.75C440.963 1373.42 440.563 1369.94 440.33 1366.3H439.33V1363.6ZM439.18 1374.05L445.33 1374.9C444.263 1380.54 442.58 1385.45 440.28 1389.65C437.98 1393.85 434.996 1397.25 431.33 1399.85C431.03 1399.45 430.596 1398.97 430.03 1398.4C429.496 1397.84 428.913 1397.27 428.28 1396.7C427.68 1396.1 427.146 1395.64 426.68 1395.3C430.18 1393.2 432.93 1390.34 434.93 1386.7C436.963 1383.07 438.38 1378.85 439.18 1374.05ZM425.43 1381V1399.45H419.58V1386.55H413.78V1381H425.43ZM425.43 1396.85C426.463 1398.49 427.913 1399.69 429.78 1400.45C431.646 1401.22 433.88 1401.65 436.48 1401.75C437.946 1401.82 439.68 1401.87 441.68 1401.9C443.713 1401.9 445.846 1401.89 448.08 1401.85C450.313 1401.82 452.496 1401.75 454.63 1401.65C456.796 1401.55 458.713 1401.44 460.38 1401.3C460.18 1401.77 459.946 1402.37 459.68 1403.1C459.413 1403.84 459.163 1404.59 458.93 1405.35C458.73 1406.12 458.58 1406.8 458.48 1407.4C456.98 1407.5 455.263 1407.57 453.33 1407.6C451.396 1407.67 449.413 1407.7 447.38 1407.7C445.346 1407.74 443.38 1407.74 441.48 1407.7C439.58 1407.67 437.88 1407.62 436.38 1407.55C433.313 1407.42 430.696 1406.94 428.53 1406.1C426.363 1405.3 424.446 1403.94 422.78 1402C421.68 1402.94 420.546 1403.9 419.38 1404.9C418.246 1405.9 416.996 1406.94 415.63 1408L412.68 1401.75C413.846 1401.05 415.063 1400.29 416.33 1399.45C417.596 1398.62 418.813 1397.75 419.98 1396.85H425.43ZM413.83 1366.3L418.28 1362.7C419.313 1363.37 420.363 1364.15 421.43 1365.05C422.496 1365.92 423.496 1366.82 424.43 1367.75C425.363 1368.65 426.113 1369.49 426.68 1370.25L421.93 1374.25C421.43 1373.45 420.73 1372.59 419.83 1371.65C418.963 1370.72 417.996 1369.79 416.93 1368.85C415.863 1367.89 414.83 1367.04 413.83 1366.3Z" fill="black"/>
<path d="M383.682 1363.75L388.632 1361.6C389.565 1362.9 390.465 1364.35 391.332 1365.95C392.232 1367.52 392.849 1368.9 393.182 1370.1L387.932 1372.45C387.599 1371.29 387.015 1369.89 386.182 1368.25C385.382 1366.62 384.549 1365.12 383.682 1363.75ZM402.032 1361.45L408.182 1363.5C407.282 1365.07 406.382 1366.6 405.482 1368.1C404.582 1369.6 403.732 1370.9 402.932 1372L397.882 1370.1C398.382 1369.3 398.882 1368.4 399.382 1367.4C399.915 1366.4 400.415 1365.39 400.882 1364.35C401.349 1363.32 401.732 1362.35 402.032 1361.45ZM387.882 1387.65H393.782C393.615 1389.92 393.332 1392.09 392.932 1394.15C392.532 1396.22 391.915 1398.15 391.082 1399.95C390.249 1401.72 389.082 1403.32 387.582 1404.75C386.115 1406.22 384.199 1407.49 381.832 1408.55C381.532 1407.82 381.015 1406.99 380.282 1406.05C379.582 1405.12 378.915 1404.37 378.282 1403.8C380.282 1403 381.882 1402.04 383.082 1400.9C384.315 1399.77 385.249 1398.52 385.882 1397.15C386.549 1395.75 387.015 1394.27 387.282 1392.7C387.549 1391.1 387.749 1389.42 387.882 1387.65ZM396.382 1386.9H402.182V1400.75C402.182 1401.52 402.215 1402 402.282 1402.2C402.382 1402.37 402.599 1402.45 402.932 1402.45C403.032 1402.45 403.182 1402.45 403.382 1402.45C403.615 1402.45 403.849 1402.45 404.082 1402.45C404.315 1402.45 404.465 1402.45 404.532 1402.45C404.799 1402.45 404.999 1402.32 405.132 1402.05C405.265 1401.79 405.365 1401.24 405.432 1400.4C405.499 1399.54 405.549 1398.22 405.582 1396.45C405.949 1396.79 406.432 1397.1 407.032 1397.4C407.665 1397.7 408.315 1397.97 408.982 1398.2C409.649 1398.44 410.215 1398.62 410.682 1398.75C410.549 1401.12 410.265 1402.95 409.832 1404.25C409.432 1405.59 408.849 1406.52 408.082 1407.05C407.349 1407.59 406.382 1407.85 405.182 1407.85C404.982 1407.85 404.732 1407.85 404.432 1407.85C404.165 1407.85 403.865 1407.85 403.532 1407.85C403.232 1407.85 402.932 1407.85 402.632 1407.85C402.332 1407.85 402.082 1407.85 401.882 1407.85C400.382 1407.85 399.232 1407.62 398.432 1407.15C397.665 1406.72 397.132 1405.99 396.832 1404.95C396.532 1403.95 396.382 1402.57 396.382 1400.8V1386.9ZM389.482 1376.75V1383.55H401.882V1376.75H389.482ZM383.782 1371.5H407.832V1388.8H383.782V1371.5ZM370.832 1366.2H376.632V1408.45H370.832V1366.2ZM363.632 1375.6H381.982V1381.15H363.632V1375.6ZM371.132 1377.85L374.632 1379.35C374.165 1381.15 373.599 1383.02 372.932 1384.95C372.265 1386.89 371.532 1388.8 370.732 1390.7C369.932 1392.57 369.082 1394.34 368.182 1396C367.282 1397.67 366.349 1399.12 365.382 1400.35C365.082 1399.49 364.649 1398.52 364.082 1397.45C363.549 1396.35 363.049 1395.42 362.582 1394.65C363.449 1393.65 364.299 1392.49 365.132 1391.15C365.999 1389.79 366.815 1388.34 367.582 1386.8C368.349 1385.27 369.032 1383.74 369.632 1382.2C370.232 1380.67 370.732 1379.22 371.132 1377.85ZM378.582 1362.05L382.632 1366.65C380.932 1367.29 379.065 1367.87 377.032 1368.4C374.999 1368.94 372.915 1369.4 370.782 1369.8C368.682 1370.17 366.665 1370.49 364.732 1370.75C364.599 1370.09 364.365 1369.32 364.032 1368.45C363.699 1367.55 363.365 1366.79 363.032 1366.15C364.865 1365.85 366.732 1365.5 368.632 1365.1C370.565 1364.67 372.382 1364.19 374.082 1363.65C375.815 1363.12 377.315 1362.59 378.582 1362.05ZM376.532 1382.55C376.832 1382.79 377.282 1383.22 377.882 1383.85C378.515 1384.45 379.182 1385.12 379.882 1385.85C380.615 1386.59 381.265 1387.27 381.832 1387.9C382.399 1388.5 382.815 1388.94 383.082 1389.2L379.632 1393.95C379.332 1393.32 378.932 1392.6 378.432 1391.8C377.965 1391 377.449 1390.17 376.882 1389.3C376.349 1388.44 375.815 1387.62 375.282 1386.85C374.749 1386.05 374.282 1385.4 373.882 1384.9L376.532 1382.55Z" fill="black"/>
<path d="M344.73 1385C344.73 1381.43 345.18 1378.17 346.08 1375.2C346.98 1372.23 348.18 1369.57 349.68 1367.2C351.18 1364.83 352.814 1362.77 354.58 1361L359.33 1363.1C357.664 1364.87 356.147 1366.85 354.78 1369.05C353.447 1371.22 352.38 1373.62 351.58 1376.25C350.78 1378.88 350.38 1381.8 350.38 1385C350.38 1388.17 350.78 1391.08 351.58 1393.75C352.38 1396.38 353.447 1398.78 354.78 1400.95C356.147 1403.12 357.664 1405.1 359.33 1406.9L354.58 1409C352.814 1407.23 351.18 1405.17 349.68 1402.8C348.18 1400.43 346.98 1397.77 346.08 1394.8C345.18 1391.83 344.73 1388.57 344.73 1385Z" fill="black"/>
<path d="M265.582 1364.7H304.782V1370.65H271.582V1408.45H265.582V1364.7ZM301.932 1364.7H307.982V1401.45C307.982 1403.05 307.782 1404.3 307.382 1405.2C306.982 1406.14 306.265 1406.85 305.232 1407.35C304.199 1407.85 302.899 1408.15 301.332 1408.25C299.799 1408.39 297.915 1408.45 295.682 1408.45C295.582 1407.89 295.415 1407.24 295.182 1406.5C294.949 1405.77 294.682 1405.04 294.382 1404.3C294.082 1403.6 293.782 1402.99 293.482 1402.45C294.449 1402.52 295.415 1402.57 296.382 1402.6C297.382 1402.6 298.265 1402.6 299.032 1402.6C299.799 1402.6 300.332 1402.6 300.632 1402.6C301.099 1402.57 301.432 1402.47 301.632 1402.3C301.832 1402.1 301.932 1401.79 301.932 1401.35V1364.7ZM268.832 1383.3H304.882V1389.2H268.832V1383.3ZM283.432 1367.95H289.432V1386.25H283.432V1367.95Z" fill="black"/>
<path d="M253.817 1383.95C253.817 1376.45 251.467 1368.35 245.217 1368.35C238.967 1368.35 236.617 1376.45 236.617 1383.95C236.617 1391.95 238.967 1399.65 245.217 1399.65C251.467 1399.65 253.817 1391.95 253.817 1383.95ZM231.367 1383.95C231.367 1373.95 235.217 1363.25 245.217 1363.25C255.217 1363.25 259.067 1373.95 259.067 1383.95C259.067 1394.95 255.217 1404.75 245.217 1404.75C235.217 1404.75 231.367 1394.95 231.367 1383.95Z" fill="black"/>
<path d="M221.102 1383.95C221.102 1376.45 218.752 1368.35 212.502 1368.35C206.252 1368.35 203.902 1376.45 203.902 1383.95C203.902 1391.95 206.252 1399.65 212.502 1399.65C218.752 1399.65 221.102 1391.95 221.102 1383.95ZM198.652 1383.95C198.652 1373.95 202.502 1363.25 212.502 1363.25C222.502 1363.25 226.352 1373.95 226.352 1383.95C226.352 1394.95 222.502 1404.75 212.502 1404.75C202.502 1404.75 198.652 1394.95 198.652 1383.95Z" fill="black"/>
<path d="M188.387 1383.95C188.387 1376.45 186.038 1368.35 179.788 1368.35C173.538 1368.35 171.188 1376.45 171.188 1383.95C171.188 1391.95 173.538 1399.65 179.788 1399.65C186.038 1399.65 188.387 1391.95 188.387 1383.95ZM165.938 1383.95C165.938 1373.95 169.788 1363.25 179.788 1363.25C189.788 1363.25 193.638 1373.95 193.638 1383.95C193.638 1394.95 189.788 1404.75 179.788 1404.75C169.788 1404.75 165.938 1394.95 165.938 1383.95Z" fill="black"/>
<path d="M155.634 1410.8C155.584 1410.9 155.534 1411 155.434 1411.05C155.334 1411.1 155.184 1411.15 155.084 1411.15C154.984 1411.15 154.884 1411.1 154.784 1411.05L152.984 1410C152.734 1409.85 152.634 1409.6 152.684 1409.35L154.034 1403.75C153.484 1403.15 153.184 1402.4 153.184 1401.5C153.184 1399.65 154.584 1398.25 156.434 1398.25C158.284 1398.25 159.684 1399.65 159.684 1401.5C159.684 1402.1 159.534 1402.65 159.284 1403.15L155.634 1410.8Z" fill="black"/>
<path d="M147.668 1392.85C147.518 1399.85 142.618 1404.75 135.568 1404.75C127.868 1404.75 122.918 1400 122.918 1392.65C122.918 1392.25 123.118 1392 123.568 1392H127.518C127.818 1392 128.118 1392.2 128.118 1392.6C128.218 1397.35 131.218 1399.65 135.568 1399.65C140.068 1399.65 142.418 1396.25 142.418 1392.7C142.418 1388.15 139.318 1385.65 134.918 1385.65H133.718C133.418 1385.65 133.118 1385.4 133.118 1385.05V1381.25C133.118 1380.95 133.318 1380.65 133.718 1380.65H134.718C139.318 1380.65 141.818 1377.35 141.618 1373.65C141.368 1369.35 138.018 1368.35 135.468 1368.35C131.718 1368.35 129.668 1370.55 129.418 1374.5L129.368 1375.25C129.368 1375.55 129.068 1375.8 128.768 1375.8H124.768C124.368 1375.8 124.118 1375.5 124.118 1375.15L124.168 1374.2C124.418 1369.25 127.268 1363.25 135.418 1363.25C141.668 1363.25 146.868 1367.25 146.868 1373.7C146.868 1378.5 144.968 1381.4 142.418 1382.95C146.368 1385.55 147.768 1389.3 147.668 1392.85Z" fill="black"/>
<path d="M931.713 1216.44C931.855 1215.73 931.973 1214.93 932.068 1214.03C932.21 1213.08 932.281 1212.13 932.281 1211.19C932.281 1210.67 932.281 1209.62 932.281 1208.06C932.281 1206.5 932.281 1204.61 932.281 1202.38C932.281 1200.16 932.281 1197.77 932.281 1195.21C932.281 1192.61 932.281 1189.98 932.281 1187.33C932.281 1184.68 932.281 1182.19 932.281 1179.88C932.281 1177.51 932.281 1175.45 932.281 1173.7C932.281 1171.9 932.281 1170.6 932.281 1169.79C932.281 1168.18 932.186 1166.79 931.997 1165.6C931.855 1164.42 931.76 1163.78 931.713 1163.69H942.292C942.244 1163.78 942.15 1164.44 942.008 1165.68C941.866 1166.86 941.795 1168.26 941.795 1169.86C941.795 1170.67 941.795 1171.88 941.795 1173.49C941.795 1175.05 941.795 1176.87 941.795 1178.95C941.795 1180.99 941.795 1183.17 941.795 1185.48C941.795 1187.8 941.795 1190.1 941.795 1192.37C941.795 1194.6 941.795 1196.73 941.795 1198.76C941.795 1200.75 941.795 1202.45 941.795 1203.87C941.795 1205.29 941.795 1206.33 941.795 1207C943.735 1206.15 945.747 1204.99 947.83 1203.52C949.913 1202.05 951.948 1200.35 953.936 1198.41C955.971 1196.42 957.77 1194.29 959.332 1192.02L964.799 1199.83C962.858 1202.38 960.491 1204.89 957.699 1207.35C954.953 1209.81 952.114 1212.06 949.179 1214.1C946.244 1216.13 943.428 1217.84 940.73 1219.21C939.972 1219.64 939.357 1220.01 938.884 1220.35C938.41 1220.72 938.008 1221.06 937.677 1221.34L931.713 1216.44ZM898.84 1215.38C901.964 1213.2 904.52 1210.57 906.508 1207.49C908.496 1204.42 909.963 1201.39 910.91 1198.41C911.43 1196.84 911.809 1194.93 912.046 1192.66C912.33 1190.34 912.543 1187.87 912.685 1185.27C912.827 1182.62 912.898 1180.02 912.898 1177.46C912.945 1174.86 912.969 1172.47 912.969 1170.29C912.969 1168.87 912.898 1167.66 912.756 1166.67C912.661 1165.63 912.519 1164.66 912.33 1163.76H922.767C922.72 1163.85 922.648 1164.26 922.554 1164.97C922.507 1165.63 922.435 1166.43 922.341 1167.38C922.293 1168.28 922.27 1169.23 922.27 1170.22C922.27 1172.3 922.246 1174.74 922.199 1177.53C922.151 1180.28 922.057 1183.09 921.915 1185.98C921.773 1188.87 921.56 1191.61 921.276 1194.22C920.992 1196.77 920.613 1198.95 920.14 1200.75C919.051 1204.77 917.418 1208.51 915.241 1211.97C913.111 1215.38 910.531 1218.43 907.502 1221.13L898.84 1215.38Z" fill="black"/>
<path d="M831.531 1185.12C832.383 1185.17 833.472 1185.24 834.797 1185.34C836.123 1185.39 837.495 1185.43 838.915 1185.48C840.383 1185.53 841.732 1185.55 842.962 1185.55C844.146 1185.55 845.613 1185.55 847.364 1185.55C849.116 1185.55 851.009 1185.55 853.044 1185.55C855.127 1185.55 857.257 1185.55 859.434 1185.55C861.659 1185.55 863.86 1185.55 866.037 1185.55C868.215 1185.55 870.274 1185.55 872.214 1185.55C874.155 1185.55 875.883 1185.55 877.397 1185.55C878.959 1185.55 880.19 1185.55 881.089 1185.55C882.746 1185.55 884.308 1185.5 885.775 1185.41C887.243 1185.27 888.45 1185.17 889.396 1185.12V1196.27C888.592 1196.22 887.385 1196.15 885.775 1196.06C884.166 1195.96 882.604 1195.92 881.089 1195.92C880.19 1195.92 878.959 1195.92 877.397 1195.92C875.835 1195.92 874.084 1195.92 872.143 1195.92C870.203 1195.92 868.144 1195.92 865.966 1195.92C863.836 1195.92 861.659 1195.92 859.434 1195.92C857.21 1195.92 855.056 1195.92 852.973 1195.92C850.938 1195.92 849.045 1195.92 847.293 1195.92C845.589 1195.92 844.146 1195.92 842.962 1195.92C840.927 1195.92 838.844 1195.96 836.714 1196.06C834.584 1196.11 832.857 1196.18 831.531 1196.27V1185.12Z" fill="black"/>
<path d="M807.89 1184.13C807.7 1184.61 807.558 1185.13 807.464 1185.7C807.369 1186.26 807.274 1186.74 807.18 1187.12C807.038 1188.11 806.825 1189.48 806.541 1191.23C806.304 1192.99 806.02 1194.93 805.689 1197.06C805.405 1199.14 805.097 1201.24 804.766 1203.37C804.434 1205.5 804.127 1207.45 803.843 1209.2C803.606 1210.95 803.393 1212.34 803.204 1213.39H793.477C793.666 1212.39 793.879 1211.14 794.116 1209.62C794.352 1208.06 794.613 1206.38 794.897 1204.58C795.228 1202.74 795.512 1200.89 795.749 1199.04C796.033 1197.2 796.269 1195.49 796.459 1193.93C796.648 1192.37 796.766 1191.12 796.814 1190.17C796.151 1190.17 795.133 1190.17 793.761 1190.17C792.435 1190.17 790.921 1190.17 789.217 1190.17C787.56 1190.17 785.903 1190.17 784.247 1190.17C782.637 1190.17 781.241 1190.17 780.058 1190.17C778.874 1190.17 778.07 1190.17 777.644 1190.17C776.508 1190.17 775.277 1190.22 773.952 1190.31C772.674 1190.36 771.538 1190.43 770.544 1190.52V1181.15C771.159 1181.25 771.893 1181.32 772.745 1181.36C773.597 1181.41 774.449 1181.46 775.301 1181.51C776.2 1181.55 776.957 1181.58 777.573 1181.58C778.283 1181.58 779.253 1181.58 780.484 1181.58C781.714 1181.58 783.063 1181.58 784.531 1181.58C785.998 1181.58 787.465 1181.58 788.933 1181.58C790.4 1181.58 791.725 1181.58 792.909 1181.58C794.139 1181.58 795.086 1181.58 795.749 1181.58C796.269 1181.58 796.885 1181.55 797.595 1181.51C798.305 1181.46 798.991 1181.39 799.654 1181.29C800.316 1181.15 800.766 1180.99 801.003 1180.8L807.89 1184.13ZM764.012 1209.91C764.958 1210 766.047 1210.1 767.278 1210.19C768.556 1210.24 769.81 1210.26 771.041 1210.26C771.751 1210.26 773.052 1210.26 774.946 1210.26C776.886 1210.26 779.158 1210.26 781.762 1210.26C784.412 1210.26 787.134 1210.26 789.927 1210.26C792.767 1210.26 795.465 1210.26 798.021 1210.26C800.624 1210.26 802.849 1210.26 804.695 1210.26C806.541 1210.26 807.724 1210.26 808.245 1210.26C809.144 1210.26 810.304 1210.24 811.724 1210.19C813.144 1210.14 814.303 1210.07 815.203 1209.98V1219.14C814.729 1219.09 814.067 1219.04 813.215 1218.99C812.41 1218.99 811.558 1218.97 810.659 1218.92C809.807 1218.92 809.049 1218.92 808.387 1218.92C807.819 1218.92 806.588 1218.92 804.695 1218.92C802.801 1218.92 800.553 1218.92 797.95 1218.92C795.346 1218.92 792.601 1218.92 789.714 1218.92C786.874 1218.92 784.128 1218.92 781.478 1218.92C778.874 1218.92 776.626 1218.92 774.733 1218.92C772.839 1218.92 771.609 1218.92 771.041 1218.92C769.81 1218.92 768.674 1218.92 767.633 1218.92C766.591 1218.97 765.384 1219.04 764.012 1219.14V1209.91Z" fill="black"/>
<path d="M693.864 1167.02C695.663 1167.02 697.958 1167.02 700.751 1167.02C703.544 1166.97 706.478 1166.88 709.555 1166.74C712.632 1166.55 715.472 1166.26 718.075 1165.89C719.874 1165.65 721.625 1165.36 723.329 1165.03C725.08 1164.7 726.737 1164.37 728.299 1164.04C729.908 1163.66 731.352 1163.26 732.63 1162.83C733.955 1162.41 735.068 1162 735.967 1161.62L741.789 1169.44C740.558 1169.72 739.493 1169.98 738.594 1170.22C737.695 1170.45 736.937 1170.64 736.322 1170.78C734.855 1171.16 733.269 1171.54 731.565 1171.92C729.861 1172.25 728.11 1172.56 726.311 1172.84C724.512 1173.13 722.69 1173.41 720.844 1173.7C718.146 1174.07 715.282 1174.36 712.253 1174.55C709.224 1174.74 706.289 1174.9 703.449 1175.04C700.609 1175.14 698.148 1175.21 696.065 1175.26L693.864 1167.02ZM696.917 1215.94C701.082 1214.05 704.49 1211.75 707.141 1209.05C709.839 1206.31 711.827 1203.16 713.105 1199.61C714.43 1196.01 715.093 1191.99 715.093 1187.54C715.093 1187.54 715.093 1187.02 715.093 1185.98C715.093 1184.89 715.093 1183.28 715.093 1181.15C715.093 1178.97 715.093 1176.23 715.093 1172.91L724.394 1171.85C724.394 1173.08 724.394 1174.41 724.394 1175.82C724.394 1177.2 724.394 1178.57 724.394 1179.94C724.394 1181.32 724.394 1182.57 724.394 1183.71C724.394 1184.79 724.394 1185.69 724.394 1186.4C724.394 1187.07 724.394 1187.4 724.394 1187.4C724.394 1192.13 723.802 1196.63 722.619 1200.89C721.483 1205.15 719.566 1209.08 716.868 1212.67C714.17 1216.22 710.525 1219.37 705.934 1222.12L696.917 1215.94ZM688.539 1183.99C689.533 1184.08 690.598 1184.18 691.734 1184.27C692.87 1184.37 693.982 1184.42 695.071 1184.42C695.734 1184.42 696.988 1184.42 698.834 1184.42C700.68 1184.42 702.905 1184.42 705.508 1184.42C708.159 1184.42 710.999 1184.42 714.028 1184.42C717.057 1184.42 720.087 1184.42 723.116 1184.42C726.145 1184.42 728.985 1184.42 731.636 1184.42C734.287 1184.42 736.559 1184.42 738.452 1184.42C740.345 1184.42 741.623 1184.42 742.286 1184.42C742.807 1184.42 743.469 1184.39 744.274 1184.34C745.079 1184.3 745.883 1184.25 746.688 1184.2C747.54 1184.11 748.226 1184.04 748.747 1183.99V1193.15C747.8 1193.05 746.759 1192.98 745.623 1192.94C744.534 1192.89 743.493 1192.87 742.499 1192.87C741.836 1192.87 740.558 1192.87 738.665 1192.87C736.819 1192.87 734.547 1192.87 731.849 1192.87C729.198 1192.87 726.335 1192.87 723.258 1192.87C720.229 1192.87 717.176 1192.87 714.099 1192.87C711.07 1192.87 708.23 1192.87 705.579 1192.87C702.928 1192.87 700.68 1192.87 698.834 1192.87C696.988 1192.87 695.781 1192.87 695.213 1192.87C694.124 1192.87 692.965 1192.89 691.734 1192.94C690.503 1192.98 689.438 1193.05 688.539 1193.15V1183.99Z" fill="black"/>
<path d="M644.517 1170.14C644.517 1168.96 644.446 1167.56 644.304 1165.95C644.162 1164.3 643.925 1162.92 643.594 1161.84H654.883C654.693 1162.92 654.551 1164.32 654.457 1166.02C654.362 1167.68 654.315 1169.08 654.315 1170.21C654.315 1171.54 654.315 1172.98 654.315 1174.54C654.315 1176.11 654.315 1177.72 654.315 1179.37C654.315 1181.03 654.315 1182.64 654.315 1184.2C654.315 1188.08 654.007 1191.77 653.392 1195.28C652.776 1198.73 651.711 1202.05 650.197 1205.22C648.729 1208.39 646.67 1211.37 644.02 1214.16C641.416 1216.96 638.079 1219.56 634.009 1221.97L625.205 1215.44C628.944 1213.74 632.044 1211.77 634.506 1209.55C637.014 1207.32 639.002 1204.89 640.47 1202.23C641.937 1199.58 642.978 1196.74 643.594 1193.71C644.209 1190.69 644.517 1187.51 644.517 1184.2C644.517 1182.64 644.517 1181.03 644.517 1179.37C644.517 1177.67 644.517 1176.04 644.517 1174.47C644.517 1172.86 644.517 1171.42 644.517 1170.14ZM618.176 1177.46C619.264 1177.55 620.495 1177.67 621.868 1177.81C623.24 1177.91 624.637 1177.95 626.057 1177.95C626.672 1177.95 627.832 1177.95 629.536 1177.95C631.287 1177.95 633.393 1177.95 635.855 1177.95C638.316 1177.95 640.967 1177.95 643.807 1177.95C646.647 1177.95 649.487 1177.95 652.327 1177.95C655.214 1177.95 657.888 1177.95 660.35 1177.95C662.811 1177.95 664.917 1177.95 666.669 1177.95C668.42 1177.95 669.627 1177.95 670.29 1177.95C671.946 1177.95 673.461 1177.91 674.834 1177.81C676.254 1177.72 677.319 1177.62 678.029 1177.53V1187.18C677.319 1187.14 676.183 1187.09 674.621 1187.04C673.106 1186.95 671.639 1186.9 670.219 1186.9C669.556 1186.9 668.349 1186.9 666.598 1186.9C664.894 1186.9 662.787 1186.9 660.279 1186.9C657.817 1186.9 655.167 1186.9 652.327 1186.9C649.534 1186.9 646.718 1186.9 643.878 1186.9C641.038 1186.9 638.387 1186.9 635.926 1186.9C633.464 1186.9 631.382 1186.9 629.678 1186.9C627.974 1186.9 626.861 1186.9 626.341 1186.9C624.779 1186.9 623.311 1186.95 621.939 1187.04C620.566 1187.09 619.312 1187.16 618.176 1187.25V1177.46Z" fill="black"/>
<path d="M589.566 1161.13C589.424 1162.22 589.305 1163.4 589.211 1164.68C589.163 1165.96 589.14 1167.17 589.14 1168.3C589.187 1170.29 589.234 1172.45 589.282 1174.76C589.329 1177.08 589.376 1179.55 589.424 1182.15C589.518 1184.75 589.589 1187.43 589.637 1190.17C589.684 1192.87 589.731 1195.59 589.779 1198.34C589.826 1201.03 589.873 1203.71 589.921 1206.36C589.968 1208.96 590.015 1211.47 590.063 1213.89C590.11 1216.16 589.471 1217.91 588.146 1219.14C586.82 1220.42 584.809 1221.06 582.111 1221.06C579.981 1221.06 577.898 1221.01 575.863 1220.91C573.827 1220.87 571.792 1220.77 569.757 1220.63L568.976 1211.4C570.585 1211.68 572.265 1211.9 574.017 1212.04C575.768 1212.18 577.235 1212.25 578.419 1212.25C579.318 1212.25 579.957 1212.02 580.336 1211.54C580.714 1211.07 580.904 1210.31 580.904 1209.27C580.904 1207.66 580.904 1205.82 580.904 1203.73C580.904 1201.6 580.88 1199.35 580.833 1196.99C580.833 1194.57 580.809 1192.11 580.762 1189.6C580.714 1187.05 580.667 1184.52 580.62 1182.01C580.572 1179.5 580.501 1177.08 580.407 1174.76C580.359 1172.45 580.288 1170.29 580.194 1168.3C580.099 1166.74 579.981 1165.39 579.839 1164.26C579.744 1163.07 579.626 1162.03 579.484 1161.13H589.566ZM549.025 1172.92C550.066 1173.06 551.32 1173.18 552.788 1173.27C554.302 1173.37 555.675 1173.42 556.906 1173.42C557.616 1173.42 558.823 1173.42 560.527 1173.42C562.231 1173.42 564.242 1173.42 566.562 1173.42C568.928 1173.42 571.437 1173.42 574.088 1173.42C576.738 1173.42 579.365 1173.42 581.969 1173.42C584.572 1173.42 587.01 1173.42 589.282 1173.42C591.554 1173.42 593.471 1173.42 595.033 1173.42C596.595 1173.42 597.612 1173.42 598.086 1173.42C599.222 1173.42 600.523 1173.37 601.991 1173.27C603.458 1173.13 604.618 1172.99 605.47 1172.85V1182.29C604.334 1182.24 603.127 1182.2 601.849 1182.15C600.618 1182.1 599.529 1182.08 598.583 1182.08C598.157 1182.08 597.163 1182.08 595.601 1182.08C594.039 1182.08 592.098 1182.08 589.779 1182.08C587.507 1182.08 585.022 1182.08 582.324 1182.08C579.626 1182.08 576.904 1182.08 574.159 1182.08C571.461 1182.08 568.905 1182.08 566.491 1182.08C564.124 1182.08 562.112 1182.08 560.456 1182.08C558.799 1182.08 557.687 1182.08 557.119 1182.08C555.841 1182.08 554.492 1182.1 553.072 1182.15C551.652 1182.2 550.303 1182.27 549.025 1182.36V1172.92ZM545.262 1206.71C548.954 1204.96 552.48 1203 555.841 1200.82C559.201 1198.64 562.278 1196.37 565.071 1194.01C567.863 1191.64 570.325 1189.3 572.455 1186.98C574.632 1184.61 576.36 1182.39 577.638 1180.3L582.253 1180.37L582.324 1187.9C580.904 1190.08 579.081 1192.35 576.857 1194.72C574.632 1197.08 572.171 1199.45 569.473 1201.82C566.775 1204.18 563.911 1206.43 560.882 1208.56C557.852 1210.64 554.823 1212.49 551.794 1214.1L545.262 1206.71Z" fill="black"/>
<path d="M522.398 1160.49C523.013 1161.34 523.676 1162.36 524.386 1163.54C525.096 1164.73 525.759 1165.91 526.374 1167.09C527.037 1168.28 527.605 1169.32 528.078 1170.22L522.327 1172.63C521.617 1171.17 520.741 1169.51 519.7 1167.66C518.706 1165.77 517.736 1164.14 516.789 1162.76L522.398 1160.49ZM530.776 1157.3C531.439 1158.2 532.125 1159.24 532.835 1160.42C533.545 1161.6 534.231 1162.79 534.894 1163.97C535.604 1165.11 536.148 1166.1 536.527 1166.95L530.918 1169.37C530.161 1167.85 529.261 1166.17 528.22 1164.33C527.179 1162.48 526.161 1160.89 525.167 1159.57L530.776 1157.3ZM491.797 1163.54C491.608 1164.63 491.466 1165.89 491.371 1167.31C491.276 1168.73 491.229 1169.93 491.229 1170.93C491.229 1171.64 491.229 1172.89 491.229 1174.69C491.229 1176.44 491.229 1178.53 491.229 1180.94C491.229 1183.35 491.229 1185.89 491.229 1188.54C491.229 1191.14 491.229 1193.67 491.229 1196.13C491.229 1198.55 491.229 1200.7 491.229 1202.59C491.229 1204.49 491.229 1205.88 491.229 1206.78C491.229 1208.3 491.608 1209.34 492.365 1209.91C493.122 1210.48 494.282 1210.93 495.844 1211.26C496.933 1211.4 498.187 1211.52 499.607 1211.61C501.027 1211.66 502.518 1211.68 504.08 1211.68C505.926 1211.68 507.961 1211.64 510.186 1211.54C512.458 1211.4 514.73 1211.23 517.002 1211.04C519.321 1210.85 521.499 1210.59 523.534 1210.26C525.569 1209.93 527.321 1209.58 528.788 1209.2V1219.56C526.563 1219.9 523.984 1220.16 521.049 1220.34C518.114 1220.58 515.109 1220.75 512.032 1220.84C509.003 1220.98 506.163 1221.05 503.512 1221.05C501.193 1221.05 498.992 1220.98 496.909 1220.84C494.874 1220.7 493.099 1220.51 491.584 1220.27C488.507 1219.66 486.117 1218.5 484.413 1216.79C482.709 1215.04 481.857 1212.65 481.857 1209.62C481.857 1208.25 481.857 1206.48 481.857 1204.3C481.857 1202.07 481.857 1199.64 481.857 1196.99C481.857 1194.29 481.857 1191.59 481.857 1188.89C481.857 1186.15 481.857 1183.57 481.857 1181.15C481.857 1178.69 481.857 1176.56 481.857 1174.76C481.857 1172.96 481.857 1171.69 481.857 1170.93C481.857 1170.41 481.833 1169.7 481.786 1168.8C481.739 1167.9 481.668 1166.98 481.573 1166.03C481.526 1165.08 481.431 1164.25 481.289 1163.54H491.797ZM487.111 1185.34C489.383 1184.87 491.797 1184.3 494.353 1183.64C496.909 1182.93 499.489 1182.17 502.092 1181.37C504.695 1180.56 507.157 1179.76 509.476 1178.95C511.843 1178.1 513.949 1177.27 515.795 1176.47C517.073 1175.99 518.327 1175.45 519.558 1174.83C520.836 1174.22 522.161 1173.48 523.534 1172.63L527.368 1181.65C525.995 1182.17 524.552 1182.76 523.037 1183.42C521.57 1184.04 520.244 1184.56 519.061 1184.99C516.978 1185.79 514.588 1186.64 511.89 1187.54C509.239 1188.44 506.47 1189.34 503.583 1190.24C500.696 1191.09 497.832 1191.9 494.992 1192.65C492.199 1193.41 489.596 1194.07 487.182 1194.64L487.111 1185.34Z" fill="black"/>
<path d="M403.402 1190.38C409.792 1188.73 415.567 1186.81 420.726 1184.63C425.933 1182.41 430.501 1180.09 434.429 1177.67C436.891 1176.16 439.352 1174.43 441.813 1172.49C444.322 1170.5 446.665 1168.47 448.842 1166.39C451.067 1164.3 452.937 1162.32 454.451 1160.42L462.119 1167.73C459.942 1169.86 457.552 1172.02 454.948 1174.2C452.392 1176.37 449.718 1178.46 446.925 1180.44C444.133 1182.43 441.364 1184.25 438.618 1185.91C435.92 1187.47 432.891 1189.08 429.53 1190.74C426.217 1192.4 422.714 1193.96 419.022 1195.42C415.33 1196.89 411.615 1198.19 407.875 1199.33L403.402 1190.38ZM432.938 1182.22L443.02 1179.88V1211.83C443.02 1212.87 443.044 1214 443.091 1215.23C443.139 1216.46 443.21 1217.6 443.304 1218.64C443.399 1219.73 443.517 1220.56 443.659 1221.13H432.441C432.536 1220.56 432.607 1219.73 432.654 1218.64C432.749 1217.6 432.82 1216.46 432.867 1215.23C432.915 1214 432.938 1212.87 432.938 1211.83V1182.22Z" fill="black"/>
<path d="M383.308 1159.71C383.923 1160.52 384.562 1161.53 385.225 1162.76C385.935 1163.95 386.621 1165.13 387.284 1166.31C387.946 1167.5 388.491 1168.54 388.917 1169.44L383.237 1171.85C382.527 1170.38 381.651 1168.73 380.61 1166.88C379.616 1164.99 378.645 1163.36 377.699 1161.98L383.308 1159.71ZM391.686 1156.45C392.301 1157.34 392.964 1158.41 393.674 1159.64C394.431 1160.82 395.141 1162.01 395.804 1163.19C396.514 1164.33 397.058 1165.3 397.437 1166.1L391.828 1168.59C391.07 1167.07 390.171 1165.39 389.13 1163.55C388.088 1161.7 387.071 1160.11 386.077 1158.79L391.686 1156.45ZM356.754 1186.41C358.931 1187.69 361.321 1189.18 363.925 1190.88C366.528 1192.54 369.131 1194.26 371.735 1196.06C374.385 1197.86 376.87 1199.61 379.19 1201.32C381.556 1202.97 383.568 1204.49 385.225 1205.86L378.409 1213.88C376.847 1212.42 374.906 1210.76 372.587 1208.91C370.315 1207.07 367.853 1205.17 365.203 1203.23C362.552 1201.25 359.949 1199.35 357.393 1197.55C354.837 1195.76 352.517 1194.19 350.435 1192.87L356.754 1186.41ZM390.124 1174.34C389.745 1175 389.343 1175.8 388.917 1176.75C388.491 1177.65 388.112 1178.55 387.781 1179.45C387.071 1181.63 386.1 1184.04 384.87 1186.69C383.686 1189.34 382.266 1192.06 380.61 1194.86C378.953 1197.65 377.06 1200.37 374.93 1203.02C371.616 1207.14 367.593 1211.09 362.86 1214.88C358.126 1218.62 352.375 1221.79 345.607 1224.39L337.371 1217.22C342.293 1215.66 346.577 1213.86 350.222 1211.83C353.866 1209.74 357.038 1207.52 359.736 1205.15C362.434 1202.78 364.777 1200.42 366.765 1198.05C368.374 1196.16 369.889 1194.08 371.309 1191.8C372.729 1189.48 373.959 1187.19 375.001 1184.92C376.089 1182.64 376.847 1180.61 377.273 1178.81H353.275L356.541 1170.72H376.776C377.864 1170.72 378.953 1170.65 380.042 1170.5C381.178 1170.36 382.148 1170.15 382.953 1169.86L390.124 1174.34ZM366.694 1163.47C365.842 1164.7 364.99 1166.03 364.138 1167.45C363.333 1168.87 362.718 1169.96 362.292 1170.72C360.73 1173.51 358.694 1176.51 356.186 1179.73C353.724 1182.95 350.955 1186.08 347.879 1189.11C344.849 1192.13 341.631 1194.83 338.223 1197.2L330.555 1191.24C334.72 1188.68 338.246 1185.98 341.134 1183.14C344.068 1180.25 346.506 1177.48 348.447 1174.83C350.435 1172.14 352.02 1169.75 353.204 1167.66C353.772 1166.81 354.363 1165.68 354.979 1164.26C355.641 1162.79 356.115 1161.46 356.399 1160.28L366.694 1163.47Z" fill="black"/>
<path d="M297.611 1159.99C297.469 1161.51 297.35 1162.74 297.256 1163.68C297.161 1164.58 297.114 1165.53 297.114 1166.52C297.114 1167.14 297.114 1168.09 297.114 1169.36C297.114 1170.64 297.114 1171.97 297.114 1173.34C297.114 1174.71 297.114 1175.85 297.114 1176.75H287.245C287.245 1175.75 287.245 1174.57 287.245 1173.2C287.245 1171.83 287.245 1170.52 287.245 1169.29C287.245 1168.06 287.245 1167.14 287.245 1166.52C287.245 1165.53 287.197 1164.58 287.103 1163.68C287.055 1162.74 286.913 1161.51 286.677 1159.99H297.611ZM321.538 1174.97C321.254 1175.73 320.97 1176.7 320.686 1177.88C320.449 1179.02 320.26 1179.94 320.118 1180.65C319.834 1182.31 319.479 1183.99 319.053 1185.69C318.674 1187.4 318.201 1189.1 317.633 1190.81C317.112 1192.51 316.497 1194.19 315.787 1195.85C315.124 1197.5 314.367 1199.14 313.515 1200.75C311.621 1204.2 309.207 1207.35 306.273 1210.19C303.385 1213.03 300.096 1215.44 296.404 1217.43C292.712 1219.37 288.759 1220.91 284.547 1222.05L277.163 1213.53C278.772 1213.24 280.476 1212.86 282.275 1212.39C284.073 1211.87 285.706 1211.33 287.174 1210.76C289.162 1210 291.126 1209.05 293.067 1207.92C295.055 1206.73 296.924 1205.36 298.676 1203.8C300.427 1202.24 301.965 1200.51 303.291 1198.62C304.474 1196.86 305.492 1195 306.344 1193.01C307.196 1190.97 307.882 1188.89 308.403 1186.76C308.923 1184.58 309.326 1182.45 309.61 1180.37H274.394C274.394 1180.98 274.394 1181.77 274.394 1182.71C274.394 1183.61 274.394 1184.61 274.394 1185.69C274.394 1186.74 274.394 1187.71 274.394 1188.61C274.394 1189.46 274.394 1190.17 274.394 1190.74C274.394 1191.54 274.417 1192.44 274.465 1193.43C274.512 1194.43 274.559 1195.28 274.607 1195.99H264.809C264.903 1195.09 264.974 1194.12 265.022 1193.08C265.116 1191.99 265.164 1190.97 265.164 1190.03C265.164 1189.46 265.164 1188.63 265.164 1187.54C265.164 1186.45 265.164 1185.29 265.164 1184.06C265.164 1182.78 265.164 1181.58 265.164 1180.44C265.164 1179.3 265.164 1178.4 265.164 1177.74C265.164 1176.94 265.14 1175.94 265.093 1174.76C265.045 1173.53 264.951 1172.49 264.809 1171.64C266.039 1171.78 267.223 1171.87 268.359 1171.92C269.495 1171.97 270.725 1171.99 272.051 1171.99H309.468C310.935 1171.99 312.118 1171.92 313.018 1171.78C313.964 1171.59 314.745 1171.4 315.361 1171.21L321.538 1174.97Z" fill="black"/>
<path d="M201.125 1177.88C201.74 1177.93 202.568 1178 203.61 1178.1C204.651 1178.14 205.74 1178.19 206.876 1178.24C208.012 1178.24 209.029 1178.24 209.929 1178.24C211.065 1178.24 212.532 1178.24 214.331 1178.24C216.129 1178.24 218.07 1178.24 220.153 1178.24C222.283 1178.24 224.389 1178.24 226.472 1178.24C228.554 1178.24 230.495 1178.24 232.294 1178.24C234.092 1178.24 235.583 1178.24 236.767 1178.24C237.619 1178.24 238.589 1178.24 239.678 1178.24C240.814 1178.19 241.666 1178.14 242.234 1178.1C242.186 1178.57 242.163 1179.3 242.163 1180.3C242.163 1181.24 242.163 1182.1 242.163 1182.85C242.163 1183.37 242.163 1184.46 242.163 1186.12C242.163 1187.73 242.163 1189.72 242.163 1192.08C242.163 1194.45 242.163 1196.96 242.163 1199.61C242.163 1202.26 242.163 1204.86 242.163 1207.42C242.163 1209.93 242.163 1212.18 242.163 1214.16C242.163 1216.1 242.163 1217.55 242.163 1218.49C242.163 1219.06 242.163 1219.84 242.163 1220.84C242.21 1221.88 242.234 1222.71 242.234 1223.32H233.288C233.335 1222.71 233.359 1221.86 233.359 1220.77C233.359 1219.68 233.359 1218.78 233.359 1218.07C233.359 1216.84 233.359 1215.28 233.359 1213.38C233.359 1211.44 233.359 1209.36 233.359 1207.13C233.359 1204.86 233.359 1202.59 233.359 1200.32C233.359 1198 233.359 1195.85 233.359 1193.86C233.359 1191.87 233.359 1190.21 233.359 1188.89C233.359 1187.52 233.359 1186.62 233.359 1186.19C232.933 1186.19 232.175 1186.19 231.087 1186.19C229.998 1186.19 228.744 1186.19 227.324 1186.19C225.904 1186.19 224.365 1186.19 222.709 1186.19C221.099 1186.19 219.49 1186.19 217.881 1186.19C216.319 1186.19 214.828 1186.19 213.408 1186.19C212.035 1186.19 210.875 1186.19 209.929 1186.19C209.029 1186.19 208.012 1186.21 206.876 1186.26C205.74 1186.26 204.627 1186.28 203.539 1186.33C202.497 1186.38 201.693 1186.43 201.125 1186.47V1177.88ZM202.971 1194.57C203.917 1194.62 205.101 1194.66 206.521 1194.71C207.988 1194.76 209.384 1194.78 210.71 1194.78C211.278 1194.78 212.272 1194.78 213.692 1194.78C215.159 1194.78 216.839 1194.78 218.733 1194.78C220.673 1194.78 222.661 1194.78 224.697 1194.78C226.732 1194.78 228.649 1194.78 230.448 1194.78C232.294 1194.78 233.856 1194.78 235.134 1194.78C236.412 1194.78 237.193 1194.78 237.477 1194.78V1202.8C237.145 1202.8 236.341 1202.8 235.063 1202.8C233.832 1202.8 232.294 1202.8 230.448 1202.8C228.649 1202.8 226.732 1202.8 224.697 1202.8C222.661 1202.8 220.673 1202.8 218.733 1202.8C216.839 1202.8 215.183 1202.8 213.763 1202.8C212.343 1202.8 211.325 1202.8 210.71 1202.8C209.384 1202.8 207.964 1202.83 206.45 1202.87C204.982 1202.87 203.823 1202.9 202.971 1202.95V1194.57ZM200.344 1211.96C200.959 1212.01 201.811 1212.08 202.9 1212.18C203.988 1212.22 205.195 1212.25 206.521 1212.25C207.231 1212.25 208.414 1212.25 210.071 1212.25C211.727 1212.25 213.621 1212.25 215.751 1212.25C217.928 1212.25 220.176 1212.25 222.496 1212.25C224.815 1212.25 227.016 1212.25 229.099 1212.25C231.229 1212.25 233.051 1212.25 234.566 1212.25C236.08 1212.25 237.074 1212.25 237.548 1212.25V1220.48C236.932 1220.48 235.844 1220.48 234.282 1220.48C232.72 1220.48 230.874 1220.48 228.744 1220.48C226.661 1220.48 224.484 1220.48 222.212 1220.48C219.94 1220.48 217.739 1220.48 215.609 1220.48C213.479 1220.48 211.585 1220.48 209.929 1220.48C208.319 1220.48 207.16 1220.48 206.45 1220.48C205.456 1220.48 204.343 1220.51 203.113 1220.55C201.882 1220.6 200.959 1220.65 200.344 1220.7V1211.96Z" fill="black"/>
<path d="M136.937 1161.77C138.073 1162.43 139.375 1163.21 140.842 1164.11C142.31 1165.01 143.801 1165.93 145.315 1166.88C146.877 1167.82 148.321 1168.75 149.646 1169.65C151.019 1170.5 152.179 1171.26 153.125 1171.92L147.8 1179.8C146.854 1179.09 145.694 1178.28 144.321 1177.39C142.949 1176.49 141.529 1175.56 140.061 1174.62C138.594 1173.67 137.127 1172.77 135.659 1171.92C134.239 1171.02 132.938 1170.24 131.754 1169.58L136.937 1161.77ZM123.731 1212.18C126.429 1211.7 129.127 1211.13 131.825 1210.47C134.571 1209.76 137.292 1208.89 139.99 1207.84C142.736 1206.8 145.386 1205.6 147.942 1204.22C151.966 1201.95 155.705 1199.4 159.16 1196.56C162.663 1193.72 165.787 1190.69 168.532 1187.47C171.325 1184.25 173.668 1180.96 175.561 1177.6L181.028 1187.25C177.715 1192.18 173.621 1196.82 168.745 1201.17C163.917 1205.53 158.592 1209.38 152.77 1212.74C150.356 1214.12 147.706 1215.39 144.818 1216.58C141.978 1217.76 139.162 1218.78 136.369 1219.63C133.624 1220.53 131.186 1221.17 129.056 1221.55L123.731 1212.18ZM126.003 1177.95C127.187 1178.62 128.512 1179.4 129.979 1180.3C131.494 1181.15 133.009 1182.05 134.523 1182.99C136.038 1183.94 137.458 1184.84 138.783 1185.69C140.156 1186.54 141.292 1187.3 142.191 1187.96L137.008 1195.92C135.967 1195.21 134.784 1194.43 133.458 1193.57C132.133 1192.67 130.713 1191.75 129.198 1190.8C127.731 1189.81 126.264 1188.89 124.796 1188.04C123.376 1187.18 122.051 1186.45 120.82 1185.83L126.003 1177.95Z" fill="black"/>
</svg>
