<svg width="1080" height="1920" viewBox="0 0 1080 1920" fill="none" xmlns="http://www.w3.org/2000/svg">
<path d="M1080 1920L1080 0L0 0L0 1920H1080Z" fill="#A5D4AD"/>
<path d="M1020 983.72V95C1020 75.67 1004.33 60 985 60H95.58C75.93 60 60 75.93 60 95.58V983.71C60 984.03 60.25 984.28 60.57 984.28C80.03 984.59 95.71 1000.46 95.71 1019.99C95.71 1039.52 80.03 1055.39 60.57 1055.7C60.25 1055.7 60 1055.96 60 1056.27V1824.99C60 1844.32 75.67 1859.99 95 1859.99H985C1004.33 1859.99 1020 1844.32 1020 1824.99V1056.27C1020 1055.95 1019.75 1055.7 1019.43 1055.7C999.97 1055.39 984.29 1039.52 984.29 1019.99C984.29 1000.46 999.97 984.59 1019.43 984.28C1019.75 984.28 1020 984.02 1020 983.71V983.72Z" fill="white"/>
<path d="M60.57 1055.71C60.25 1055.71 60 1055.97 60 1056.28V1825C60 1844.33 75.67 1860 95 1860H985C1004.33 1860 1020 1844.33 1020 1825V1056.28C1020 1055.96 1019.75 1055.71 1019.43 1055.71C999.97 1055.4 984.29 1039.53 984.29 1020H95.71C95.71 1039.53 80.03 1055.4 60.57 1055.71Z" fill="#E5F2E6"/>
<path d="M121 1020H160.9" stroke="black" stroke-width="6" stroke-miterlimit="10"/>
<path d="M187.512 1020H227.412" stroke="black" stroke-width="6" stroke-miterlimit="10"/>
<path d="M254.02 1020H293.92" stroke="black" stroke-width="6" stroke-miterlimit="10"/>
<path d="M320.52 1020H360.43" stroke="black" stroke-width="6" stroke-miterlimit="10"/>
<path d="M387.031 1020H426.941" stroke="black" stroke-width="6" stroke-miterlimit="10"/>
<path d="M453.539 1020H493.439" stroke="black" stroke-width="6" stroke-miterlimit="10"/>
<path d="M520.051 1020H559.951" stroke="black" stroke-width="6" stroke-miterlimit="10"/>
<path d="M586.559 1020H626.459" stroke="black" stroke-width="6" stroke-miterlimit="10"/>
<path d="M653.059 1020H692.969" stroke="black" stroke-width="6" stroke-miterlimit="10"/>
<path d="M719.57 1020H759.48" stroke="black" stroke-width="6" stroke-miterlimit="10"/>
<path d="M786.078 1020H825.978" stroke="black" stroke-width="6" stroke-miterlimit="10"/>
<path d="M852.59 1020H892.49" stroke="black" stroke-width="6" stroke-miterlimit="10"/>
<path d="M919.102 1020H959.002" stroke="black" stroke-width="6" stroke-miterlimit="10"/>
<path d="M1020 984.29V95C1020 75.67 1004.33 60 985 60H95C75.67 60 60 75.67 60 95V984.29C79.72 984.29 95.71 1000.28 95.71 1020C95.71 1039.72 79.72 1055.71 60 1055.71V1825C60 1844.33 75.67 1860 95 1860H985C1004.33 1860 1020 1844.33 1020 1825V1055.71C1000.28 1055.71 984.29 1039.72 984.29 1020C984.29 1000.28 1000.28 984.29 1020 984.29Z" stroke="black" stroke-width="6" stroke-miterlimit="10"/>
<path d="M912.649 525.666C908.779 525.666 905.539 522.646 905.319 518.736C900.589 435.626 868.789 358.856 813.369 296.746C810.669 293.716 810.929 289.066 813.959 286.366C816.989 283.666 821.629 283.926 824.339 286.956C881.999 351.576 915.069 431.436 919.999 517.896C920.229 521.946 917.129 525.426 913.079 525.656C912.939 525.656 912.799 525.666 912.659 525.666H912.649Z" fill="black"/>
<path d="M818.849 795.517C817.109 795.517 815.359 794.897 813.959 793.647C810.929 790.947 810.669 786.297 813.369 783.267C868.789 721.157 900.589 644.387 905.319 561.277C905.549 557.227 909.029 554.117 913.079 554.357C917.129 554.587 920.229 558.057 919.999 562.117C915.069 648.587 881.999 728.447 824.339 793.057C822.889 794.687 820.869 795.517 818.849 795.517Z" fill="black"/>
<path d="M167.36 525.666C167.22 525.666 167.08 525.666 166.94 525.656C162.89 525.426 159.79 521.956 160.02 517.896C164.95 431.426 198.02 351.566 255.68 286.956C258.38 283.926 263.03 283.666 266.06 286.366C269.09 289.066 269.35 293.716 266.65 296.746C211.23 358.856 179.43 435.616 174.7 518.736C174.48 522.646 171.24 525.666 167.37 525.666H167.36Z" fill="black"/>
<path d="M261.17 795.517C259.15 795.517 257.13 794.687 255.68 793.057C198.02 728.437 164.95 648.577 160.02 562.117C159.79 558.067 162.89 554.587 166.94 554.357C170.99 554.117 174.47 557.227 174.7 561.277C179.43 644.397 211.23 721.157 266.65 783.267C269.35 786.297 269.09 790.947 266.06 793.647C264.66 794.897 262.91 795.517 261.17 795.517Z" fill="black"/>
<path d="M788.171 268.511C786.431 268.511 784.681 267.891 783.281 266.641C721.171 211.221 644.401 179.421 561.291 174.691C557.241 174.461 554.141 170.991 554.371 166.931C554.601 162.881 558.041 159.791 562.131 160.011C648.601 164.941 728.461 198.011 793.071 255.671C796.101 258.371 796.361 263.021 793.661 266.051C792.211 267.681 790.191 268.511 788.171 268.511Z" fill="black"/>
<path d="M291.852 268.512C289.832 268.512 287.812 267.682 286.362 266.052C283.662 263.022 283.922 258.372 286.952 255.672C351.572 198.012 431.432 164.942 517.892 160.012C521.942 159.782 525.422 162.882 525.652 166.932C525.882 170.982 522.782 174.462 518.732 174.692C435.622 179.422 358.852 211.222 296.742 266.642C295.342 267.892 293.592 268.512 291.852 268.512Z" fill="black"/>
<path d="M561.69 920.006C557.82 920.006 554.58 916.986 554.36 913.076C554.13 909.026 557.23 905.546 561.28 905.316C644.4 900.586 721.16 868.786 783.27 813.366C786.3 810.666 790.95 810.926 793.65 813.956C796.35 816.986 796.09 821.636 793.06 824.336C728.44 881.996 648.58 915.066 562.12 919.996C561.98 919.996 561.84 920.006 561.7 920.006H561.69Z" fill="black"/>
<path d="M518.319 920.006C518.179 920.006 518.04 920.006 517.9 919.996C431.43 915.066 351.569 881.996 286.959 824.336C283.929 821.636 283.669 816.986 286.369 813.956C289.069 810.926 293.719 810.666 296.749 813.366C358.859 868.786 435.629 900.586 518.739 905.316C522.789 905.546 525.889 909.016 525.659 913.076C525.439 916.986 522.199 920.006 518.329 920.006H518.319Z" fill="black"/>
<path d="M875.378 526.189C872.368 526.189 869.848 523.839 869.678 520.799C865.408 445.789 836.708 376.519 786.698 320.459C784.598 318.099 784.798 314.489 787.158 312.389C789.508 310.289 793.128 310.489 795.228 312.849C846.978 370.849 876.678 442.539 881.098 520.149C881.278 523.299 878.868 525.999 875.718 526.179C875.608 526.179 875.498 526.179 875.388 526.179L875.378 526.189Z" fill="black"/>
<path d="M790.958 769.062C789.598 769.062 788.248 768.582 787.158 767.612C784.798 765.512 784.598 761.892 786.698 759.542C836.708 703.492 865.408 634.212 869.678 559.202C869.858 556.052 872.548 553.642 875.708 553.822C878.858 554.002 881.268 556.702 881.088 559.852C876.668 637.472 846.978 709.152 795.218 767.152C794.088 768.422 792.518 769.062 790.948 769.062H790.958Z" fill="black"/>
<path d="M204.63 526.187C204.52 526.187 204.41 526.187 204.3 526.187C201.15 526.007 198.74 523.307 198.92 520.157C203.34 442.537 233.03 370.857 284.79 312.857C286.89 310.497 290.51 310.297 292.86 312.397C295.22 314.497 295.42 318.117 293.32 320.467C243.31 376.517 214.61 445.797 210.34 520.807C210.17 523.847 207.65 526.197 204.64 526.197L204.63 526.187Z" fill="black"/>
<path d="M289.048 769.055C287.478 769.055 285.908 768.405 284.778 767.145C233.028 709.145 203.328 637.455 198.908 559.845C198.728 556.695 201.138 553.995 204.288 553.815C207.448 553.625 210.138 556.045 210.318 559.195C214.588 634.205 243.288 703.485 293.298 759.535C295.398 761.895 295.198 765.505 292.838 767.605C291.748 768.575 290.388 769.055 289.038 769.055H289.048Z" fill="black"/>
<path d="M763.35 294.756C761.99 294.756 760.64 294.276 759.55 293.306C703.5 243.296 634.22 214.596 559.21 210.326C556.06 210.146 553.65 207.446 553.83 204.296C554.01 201.146 556.7 198.736 559.86 198.916C637.48 203.336 709.16 233.026 767.16 284.786C769.52 286.886 769.72 290.506 767.62 292.856C766.49 294.126 764.92 294.766 763.35 294.766V294.756Z" fill="black"/>
<path d="M316.659 294.759C315.089 294.759 313.519 294.109 312.389 292.849C310.289 290.489 310.489 286.879 312.849 284.779C370.849 233.029 442.539 203.329 520.149 198.909C523.299 198.719 525.999 201.139 526.179 204.289C526.359 207.439 523.949 210.139 520.799 210.319C445.789 214.589 376.519 243.289 320.459 293.299C319.369 294.269 318.009 294.749 316.659 294.749V294.759Z" fill="black"/>
<path d="M559.526 881.102C556.516 881.102 553.996 878.752 553.826 875.712C553.646 872.562 556.056 869.862 559.206 869.682C634.216 865.412 703.486 836.712 759.546 786.702C761.896 784.602 765.516 784.802 767.616 787.162C769.716 789.522 769.516 793.132 767.156 795.232C709.156 846.982 637.466 876.682 559.856 881.102C559.746 881.102 559.636 881.102 559.526 881.102Z" fill="black"/>
<path d="M520.487 881.102C520.377 881.102 520.267 881.102 520.157 881.102C442.537 876.682 370.857 846.992 312.857 795.232C310.497 793.132 310.297 789.512 312.397 787.162C314.497 784.802 318.117 784.602 320.467 786.702C376.517 836.722 445.797 865.412 520.807 869.682C523.957 869.862 526.367 872.562 526.187 875.712C526.017 878.752 523.497 881.102 520.487 881.102Z" fill="black"/>
<path d="M841.851 526.514C839.701 526.514 837.901 524.834 837.781 522.664C833.921 454.914 808.001 392.344 762.831 341.714C761.331 340.034 761.481 337.454 763.161 335.944C764.841 334.444 767.421 334.584 768.931 336.274C815.351 388.294 841.981 452.584 845.941 522.194C846.071 524.444 844.351 526.374 842.091 526.504C842.011 526.504 841.931 526.504 841.851 526.504V526.514Z" fill="black"/>
<path d="M765.869 745.106C764.899 745.106 763.929 744.766 763.149 744.066C761.469 742.566 761.319 739.986 762.819 738.296C807.989 687.666 833.909 625.096 837.769 557.346C837.899 555.096 839.859 553.396 842.079 553.496C844.329 553.626 846.049 555.556 845.929 557.806C841.959 627.416 815.329 691.706 768.919 743.726C768.109 744.626 766.989 745.086 765.869 745.086V745.106Z" fill="black"/>
<path d="M238.17 526.516C238.09 526.516 238.01 526.516 237.93 526.516C235.68 526.386 233.96 524.456 234.08 522.206C238.05 452.596 264.68 388.306 311.09 336.286C312.59 334.606 315.17 334.456 316.86 335.956C318.54 337.456 318.69 340.036 317.19 341.726C272.02 392.356 246.1 454.926 242.24 522.676C242.12 524.846 240.32 526.526 238.17 526.526V526.516Z" fill="black"/>
<path d="M314.141 745.103C313.021 745.103 311.901 744.643 311.091 743.743C264.671 691.723 238.041 627.433 234.081 557.823C233.951 555.573 235.671 553.643 237.931 553.513C240.171 553.403 242.111 555.103 242.241 557.363C246.101 625.113 272.021 687.683 317.191 738.313C318.691 739.993 318.541 742.573 316.861 744.083C316.081 744.773 315.111 745.123 314.141 745.123V745.103Z" fill="black"/>
<path d="M741.022 318.225C740.052 318.225 739.082 317.885 738.302 317.185C687.672 272.015 625.102 246.095 557.352 242.235C555.102 242.105 553.382 240.175 553.502 237.925C553.632 235.675 555.552 233.965 557.812 234.075C627.422 238.045 691.712 264.675 743.742 311.085C745.422 312.585 745.572 315.165 744.072 316.855C743.262 317.755 742.142 318.215 741.022 318.215V318.225Z" fill="black"/>
<path d="M339.002 318.224C337.882 318.224 336.762 317.764 335.952 316.864C334.452 315.184 334.602 312.604 336.282 311.094C388.302 264.674 452.592 238.044 522.202 234.084C524.452 233.964 526.382 235.674 526.512 237.934C526.642 240.184 524.922 242.114 522.662 242.244C454.912 246.104 392.342 272.024 341.712 317.194C340.932 317.884 339.962 318.234 338.992 318.234L339.002 318.224Z" fill="black"/>
<path d="M557.573 845.933C555.423 845.933 553.623 844.253 553.503 842.083C553.373 839.833 555.093 837.903 557.353 837.773C625.103 833.913 687.673 807.993 738.303 762.823C739.983 761.323 742.563 761.473 744.073 763.153C745.573 764.833 745.423 767.413 743.743 768.923C691.723 815.343 627.433 841.973 557.813 845.933C557.733 845.933 557.653 845.933 557.573 845.933Z" fill="black"/>
<path d="M522.442 845.933C522.362 845.933 522.282 845.933 522.202 845.933C452.592 841.963 388.302 815.333 336.282 768.923C334.602 767.423 334.452 764.843 335.952 763.153C337.452 761.473 340.032 761.323 341.722 762.823C392.352 807.993 454.922 833.913 522.672 837.773C524.922 837.903 526.642 839.833 526.522 842.083C526.402 844.253 524.602 845.933 522.452 845.933H522.442Z" fill="black"/>
<path d="M320.65 546.174C320.65 544.604 321.79 543.274 323.34 543.024C324.64 542.814 326.27 542.524 327.98 542.124C332.4 541.084 337.59 539.114 343.41 536.274C349.29 533.404 354.92 529.414 359.17 523.674C366.34 513.974 367.86 501.404 368.19 496.894C368.26 495.974 367.53 495.194 366.6 495.194H317.09C315.33 495.194 313.91 493.764 313.91 492.014V470.694C313.91 468.934 315.34 467.514 317.09 467.514H367.07C367.95 467.514 368.66 466.804 368.66 465.924V447.184C368.66 446.304 367.95 445.594 367.07 445.594H328.62C326.86 445.594 325.44 444.164 325.44 442.414V421.094C325.44 419.334 326.87 417.914 328.62 417.914H428.96C430.72 417.914 432.14 419.344 432.14 421.094V442.414C432.14 444.174 430.71 445.594 428.96 445.594H398.52C397.64 445.594 396.93 446.304 396.93 447.184V465.924C396.93 466.804 397.64 467.514 398.52 467.514H438.58C440.34 467.514 441.76 468.944 441.76 470.694V492.014C441.76 493.774 440.33 495.194 438.58 495.194H398.39C397.54 495.194 396.84 495.864 396.8 496.714C396.57 501.754 395.15 518.444 386.18 532.854C380.73 541.614 373.65 548.264 366.54 553.544C359.41 558.844 352.26 562.934 345.27 565.704C338.24 568.494 332.34 570.444 327.75 571.514C326.66 571.764 325.49 571.994 324.4 572.184C322.45 572.534 320.66 571.034 320.66 569.044V546.164L320.65 546.174Z" fill="black"/>
<path d="M474.552 546.522C474.552 545.062 475.552 543.792 476.962 543.432C485.212 541.362 488.932 540.112 496.842 536.322C496.842 536.322 500.892 534.212 504.932 531.302C517.112 522.542 525.222 510.632 525.222 510.632C534.682 497.282 537.772 474.912 538.492 468.492C538.602 467.552 537.862 466.722 536.912 466.722H500.582C500.352 466.722 500.142 466.842 500.032 467.042L499.882 467.292C494.302 478.112 486.882 487.992 480.452 494.242C474.002 500.502 468.592 505.052 464.382 507.752L461.782 509.422C460.722 510.102 459.332 509.342 459.332 508.082V479.892C459.332 478.952 459.752 478.062 460.472 477.452C461.122 476.902 461.992 476.132 463.182 475.062C465.942 472.572 469.052 468.512 472.422 462.982C475.762 457.512 479.352 450.212 483.072 441.292C486.452 433.202 488.982 423.092 490.862 412.062C491.122 410.532 492.452 409.422 494.002 409.422H513.912C515.912 409.422 517.422 411.252 517.042 413.212C516.402 416.522 515.712 420.882 514.852 424.312C513.582 429.392 512.762 432.302 511.242 436.722C510.982 437.472 511.542 438.242 512.332 438.242H591.182C592.942 438.242 594.362 439.672 594.362 441.422V463.512C594.362 465.272 592.932 466.692 591.182 466.692H568.142C567.332 466.692 566.642 467.302 566.562 468.112C565.932 474.012 562.882 497.162 552.392 517.262C538.292 546.002 508.142 566.392 478.342 572.132C476.382 572.512 474.562 571.002 474.562 569.002V546.482L474.552 546.522Z" fill="black"/>
<path d="M675.902 411.035V468.875C675.902 469.755 676.612 470.465 677.492 470.465H764.522C765.402 470.465 766.112 469.755 766.112 468.875V411.035C766.112 410.155 765.402 409.445 764.522 409.445H677.492C676.612 409.445 675.902 410.155 675.902 411.035ZM738.462 452.745H702.302C701.422 452.745 700.712 452.035 700.712 451.155V446.875C700.712 445.995 701.422 445.285 702.302 445.285H738.462C739.342 445.285 740.052 445.995 740.052 446.875V451.155C740.052 452.035 739.342 452.745 738.462 452.745ZM738.462 434.455H702.302C701.422 434.455 700.712 433.745 700.712 432.865V428.755C700.712 427.875 701.422 427.165 702.302 427.165H738.462C739.342 427.165 740.052 427.875 740.052 428.755V432.865C740.052 433.745 739.342 434.455 738.462 434.455Z" fill="black"/>
<path d="M674.232 497.342H728.272C729.152 497.342 729.862 498.052 729.862 498.932V502.842C729.862 503.722 729.152 504.432 728.272 504.432H667.762C666.002 504.432 664.582 505.862 664.582 507.612V522.862C664.582 524.622 666.012 526.042 667.762 526.042H728.272C729.152 526.042 729.862 526.752 729.862 527.632V545.392C729.862 546.112 729.942 547.982 729.222 548.852C728.392 549.872 727.152 549.672 725.852 549.722C722.542 549.722 719.582 549.702 716.952 549.662C716.552 549.662 716.262 549.292 716.342 548.902C716.602 547.632 716.732 546.312 716.702 544.962C716.502 535.682 708.942 528.082 699.662 527.842C689.582 527.582 681.372 535.852 681.712 545.942C682.022 555.292 689.792 562.812 699.152 562.842C704.042 562.852 708.462 560.862 711.642 557.642C711.982 557.302 712.552 557.432 712.702 557.882C714.162 562.212 715.542 566.342 716.792 570.052C717.232 571.352 718.462 572.222 719.832 572.212C725.732 572.172 730.512 571.962 734.182 571.602C738.312 571.182 742.092 570.152 745.522 568.502C749.182 566.842 751.692 564.422 753.052 561.232C754.412 558.042 755.092 553.552 755.092 547.762V527.622C755.092 526.742 755.802 526.032 756.682 526.032H762.912C764.672 526.032 766.092 524.602 766.092 522.852V507.602C766.092 505.842 764.662 504.422 762.912 504.422H756.682C755.802 504.422 755.092 503.712 755.092 502.832V498.922C755.092 498.042 755.802 497.332 756.682 497.332H762.912C764.672 497.332 766.092 495.902 766.092 494.152V479.602C766.092 477.842 764.662 476.422 762.912 476.422H674.212C672.452 476.422 671.032 477.852 671.032 479.602V494.152C671.032 495.912 672.462 497.332 674.212 497.332L674.232 497.342Z" fill="black"/>
<path d="M668.832 409.445H650.262C649.402 409.445 648.582 409.795 647.982 410.405C635.232 423.355 618.292 434.575 612.132 438.485C610.782 439.335 610.282 441.065 610.952 442.505L620.702 463.575C621.632 465.575 624.262 466.055 625.832 464.505C646.122 444.465 664.452 419.805 670.122 411.965C670.882 410.915 670.122 409.445 668.832 409.445Z" fill="black"/>
<path d="M671.922 453.899V435.419C671.922 434.009 670.222 433.299 669.212 434.289C653.642 449.609 620.052 477.069 611.682 483.869C610.552 484.789 610.192 486.359 610.802 487.679L620.702 509.059C621.632 511.059 624.262 511.539 625.832 509.989C627.542 508.299 629.242 506.569 630.922 504.829C631.322 504.419 632.022 504.699 632.022 505.269V569.069C632.022 570.829 633.452 572.249 635.202 572.249H653.822C655.582 572.249 657.002 570.819 657.002 569.069V476.379C657.002 475.309 657.362 474.259 658.032 473.419C664.872 464.739 669.722 458.029 671.342 455.749C671.722 455.209 671.932 454.569 671.932 453.899H671.922Z" fill="black"/>
<path d="M653.269 623.338C640.849 623.338 634.809 628.288 634.809 638.478V655.608C634.809 665.678 640.849 670.568 653.269 670.568C659.139 670.568 663.479 669.488 666.559 667.278C669.999 664.808 671.739 660.878 671.739 655.598V638.468C671.739 628.278 665.699 623.328 653.279 623.328L653.269 623.338ZM646.089 639.308C646.089 633.938 648.839 632.918 653.269 632.918C657.699 632.918 660.449 633.958 660.449 639.308V654.688C660.449 659.958 657.599 660.988 653.269 660.988C648.939 660.988 646.089 659.988 646.089 654.688V639.308Z" fill="black"/>
<path d="M708.27 669.334H721.359L703.63 646.784L720.56 624.804H707.4L694.06 642.284V610.234H682.77V669.334H694.06V659.214L696.95 655.454L708.27 669.334Z" fill="black"/>
<path d="M754.82 624.805V653.295C754.82 659.045 751.88 660.895 746.83 660.895C743.56 660.895 740.28 660.355 740.28 653.885V624.815H729V656.775C729 665.745 733.71 670.485 742.62 670.485C749.3 670.485 753.88 666.865 755.58 662.805L757.39 669.345H766.11V624.815H754.83L754.82 624.805Z" fill="black"/>
<path d="M630.568 610.234H589.148V620.144V620.154H604.218V669.334H615.688V620.154H630.568V610.234Z" fill="black"/>
<path d="M459.689 669.334H472.779L455.049 646.784L471.979 624.804H458.819L445.479 642.284V610.234H434.199V669.334H445.479V659.214L448.369 655.454L459.689 669.334Z" fill="black"/>
<path d="M355.33 610.234H313.91V620.144V620.154H328.99V669.334H340.45V620.154H355.33V610.234Z" fill="black"/>
<path d="M421.802 658.896L421.202 659.046C417.622 659.966 413.292 660.896 409.412 660.896C404.862 660.896 401.692 658.826 401.692 652.836V640.976C401.692 634.906 404.862 632.826 409.412 632.826C413.362 632.826 417.882 633.706 421.232 634.406L421.812 634.526V625.196L421.502 625.126C417.692 624.236 412.052 623.336 407.532 623.336C402.012 623.336 397.972 624.406 395.172 626.596C391.972 629.096 390.422 633.856 390.422 639.346V654.646C390.422 664.776 396.022 670.566 407.542 670.566C411.412 670.566 417.272 669.496 421.532 668.316L421.822 668.236V658.886L421.802 658.896Z" fill="black"/>
<path d="M553.93 634.705V624.805H543.69V615.195H532.41V624.805H525.18V634.705H532.41V655.425C532.41 667.945 540.3 670.565 546.93 670.565C548.71 670.565 550.51 670.455 552.12 670.225V660.265C551.47 660.335 550.26 660.365 549.54 660.365C546.46 660.365 543.69 659.735 543.69 652.095V634.695H553.93V634.705Z" fill="black"/>
<path d="M489.741 650.742V650.562H515.171V641.482C515.171 635.572 513.551 630.243 510.361 627.343C507.421 624.673 502.781 623.312 497.261 623.312C485.081 623.312 478.461 629.223 478.461 639.593V654.453C478.461 664.703 483.841 670.552 496.321 670.552C500.981 670.552 506.291 669.563 511.971 668.403L512.361 668.323V659.052L511.711 659.203C507.141 660.253 504.621 661.143 500.291 661.143C494.081 661.143 489.741 658.623 489.741 652.203V650.722V650.742ZM489.741 639.722C489.741 634.072 493.801 632.742 497.171 632.742C500.541 632.742 504.071 634.072 504.071 639.722V643.232H489.741V642.713V639.722Z" fill="black"/>
<path d="M378.178 626.883H366.898V669.333H378.178V626.883Z" fill="black"/>
<path d="M372.542 622.224C376.424 622.224 379.572 619.077 379.572 615.194C379.572 611.312 376.424 608.164 372.542 608.164C368.659 608.164 365.512 611.312 365.512 615.194C365.512 619.077 368.659 622.224 372.542 622.224Z" fill="black"/>
<path d="M585.738 643.922H566.148V651.262H585.738V643.922Z" fill="black"/>
<path d="M755.877 1691.1C759.543 1691.53 762.91 1691.8 765.977 1691.9C769.077 1691.97 771.943 1691.9 774.577 1691.7C776.877 1691.5 779.077 1691.2 781.177 1690.8C783.277 1690.4 785.343 1689.88 787.377 1689.25L788.177 1695C786.377 1695.5 784.427 1695.93 782.327 1696.3C780.227 1696.67 778.077 1696.95 775.877 1697.15C773.31 1697.35 770.343 1697.45 766.977 1697.45C763.643 1697.42 760.06 1697.22 756.227 1696.85L755.877 1691.1ZM754.977 1701.6C758.01 1701.87 760.91 1702.05 763.677 1702.15C766.443 1702.25 769.043 1702.25 771.477 1702.15C773.91 1702.05 776.127 1701.92 778.127 1701.75C780.827 1701.52 783.143 1701.18 785.077 1700.75C787.01 1700.28 788.693 1699.85 790.127 1699.45L791.127 1705.35C789.627 1705.72 787.977 1706.07 786.177 1706.4C784.377 1706.73 782.46 1707.02 780.427 1707.25C778.293 1707.45 775.843 1707.62 773.077 1707.75C770.343 1707.85 767.46 1707.88 764.427 1707.85C761.393 1707.78 758.36 1707.67 755.327 1707.5L754.977 1701.6ZM771.677 1692.5C771.443 1691.57 771.177 1690.65 770.877 1689.75C770.577 1688.82 770.243 1687.87 769.877 1686.9L776.627 1686.15C776.827 1687.72 777.077 1689.27 777.377 1690.8C777.71 1692.3 778.077 1693.75 778.477 1695.15C778.91 1696.55 779.327 1697.9 779.727 1699.2C780.127 1700.33 780.643 1701.63 781.277 1703.1C781.943 1704.53 782.66 1705.98 783.427 1707.45C784.193 1708.88 784.96 1710.18 785.727 1711.35C786.06 1711.82 786.393 1712.27 786.727 1712.7C787.093 1713.1 787.51 1713.5 787.977 1713.9L784.927 1718.5C783.993 1718.3 782.827 1718.1 781.427 1717.9C780.06 1717.7 778.627 1717.52 777.127 1717.35C775.66 1717.18 774.31 1717.03 773.077 1716.9L773.577 1712.15C774.61 1712.25 775.727 1712.35 776.927 1712.45C778.16 1712.55 779.143 1712.65 779.877 1712.75C778.543 1710.52 777.393 1708.33 776.427 1706.2C775.493 1704.07 774.71 1702.08 774.077 1700.25C773.677 1699.08 773.343 1698.08 773.077 1697.25C772.81 1696.38 772.56 1695.58 772.327 1694.85C772.127 1694.08 771.91 1693.3 771.677 1692.5ZM764.577 1713.2C763.977 1714.03 763.46 1714.9 763.027 1715.8C762.593 1716.67 762.377 1717.65 762.377 1718.75C762.377 1720.58 763.227 1721.92 764.927 1722.75C766.66 1723.55 769.177 1723.95 772.477 1723.95C774.843 1723.95 777.077 1723.85 779.177 1723.65C781.31 1723.45 783.26 1723.18 785.027 1722.85L784.677 1729.2C782.943 1729.5 780.993 1729.73 778.827 1729.9C776.66 1730.07 774.56 1730.15 772.527 1730.15C769.193 1730.15 766.31 1729.8 763.877 1729.1C761.477 1728.4 759.61 1727.32 758.277 1725.85C756.943 1724.35 756.26 1722.42 756.227 1720.05C756.193 1718.45 756.393 1717.02 756.827 1715.75C757.293 1714.45 757.81 1713.2 758.377 1712L764.577 1713.2Z" fill="black"/>
<path d="M700.375 1699.6C701.308 1699.43 702.342 1699.2 703.475 1698.9C704.608 1698.6 705.625 1698.33 706.525 1698.1C707.492 1697.8 708.792 1697.38 710.425 1696.85C712.092 1696.31 713.925 1695.78 715.925 1695.25C717.925 1694.71 719.958 1694.26 722.025 1693.9C724.125 1693.5 726.075 1693.3 727.875 1693.3C730.908 1693.3 733.642 1693.86 736.075 1695C738.508 1696.13 740.442 1697.76 741.875 1699.9C743.308 1702.03 744.025 1704.65 744.025 1707.75C744.025 1710.01 743.608 1712.11 742.775 1714.05C741.942 1715.98 740.708 1717.71 739.075 1719.25C737.475 1720.78 735.525 1722.11 733.225 1723.25C730.925 1724.38 728.292 1725.3 725.325 1726C722.392 1726.66 719.158 1727.08 715.625 1727.25L712.725 1720.6C716.125 1720.53 719.275 1720.23 722.175 1719.7C725.108 1719.13 727.675 1718.33 729.875 1717.3C732.075 1716.23 733.792 1714.9 735.025 1713.3C736.258 1711.7 736.875 1709.81 736.875 1707.65C736.875 1706.08 736.525 1704.68 735.825 1703.45C735.125 1702.18 734.075 1701.18 732.675 1700.45C731.308 1699.71 729.625 1699.35 727.625 1699.35C726.158 1699.35 724.542 1699.53 722.775 1699.9C721.008 1700.23 719.192 1700.68 717.325 1701.25C715.492 1701.81 713.692 1702.43 711.925 1703.1C710.158 1703.73 708.525 1704.36 707.025 1705C705.525 1705.63 704.258 1706.16 703.225 1706.6L700.375 1699.6Z" fill="black"/>
<path d="M670.077 1692.05C671.611 1692.25 673.327 1692.4 675.227 1692.5C677.161 1692.57 679.111 1692.6 681.077 1692.6C683.077 1692.57 684.994 1692.5 686.827 1692.4C688.661 1692.27 690.244 1692.13 691.577 1692V1698.45C690.044 1698.58 688.361 1698.7 686.527 1698.8C684.694 1698.87 682.811 1698.9 680.877 1698.9C678.944 1698.9 677.044 1698.87 675.177 1698.8C673.344 1698.7 671.644 1698.58 670.077 1698.45V1692.05ZM674.077 1713.4C673.877 1714.23 673.727 1714.98 673.627 1715.65C673.527 1716.28 673.477 1716.93 673.477 1717.6C673.477 1718.13 673.611 1718.63 673.877 1719.1C674.144 1719.53 674.544 1719.92 675.077 1720.25C675.644 1720.55 676.361 1720.78 677.227 1720.95C678.127 1721.08 679.211 1721.15 680.477 1721.15C682.711 1721.15 684.811 1721.05 686.777 1720.85C688.744 1720.62 690.827 1720.28 693.027 1719.85L693.127 1726.6C691.527 1726.9 689.677 1727.13 687.577 1727.3C685.511 1727.47 683.061 1727.55 680.227 1727.55C675.927 1727.55 672.727 1726.83 670.627 1725.4C668.527 1723.93 667.477 1721.92 667.477 1719.35C667.477 1718.38 667.544 1717.38 667.677 1716.35C667.844 1715.28 668.061 1714.12 668.327 1712.85L674.077 1713.4ZM662.377 1688.7C662.244 1689.03 662.094 1689.5 661.927 1690.1C661.761 1690.7 661.594 1691.28 661.427 1691.85C661.294 1692.42 661.194 1692.85 661.127 1693.15C661.027 1693.85 660.861 1694.77 660.627 1695.9C660.427 1697 660.211 1698.25 659.977 1699.65C659.777 1701.02 659.577 1702.42 659.377 1703.85C659.177 1705.28 659.011 1706.67 658.877 1708C658.777 1709.33 658.727 1710.5 658.727 1711.5C658.727 1711.97 658.727 1712.5 658.727 1713.1C658.761 1713.7 658.827 1714.25 658.927 1714.75C659.161 1714.18 659.411 1713.62 659.677 1713.05C659.944 1712.48 660.211 1711.92 660.477 1711.35C660.744 1710.75 660.977 1710.18 661.177 1709.65L664.277 1712.1C663.811 1713.47 663.327 1714.93 662.827 1716.5C662.361 1718.07 661.927 1719.55 661.527 1720.95C661.161 1722.32 660.877 1723.45 660.677 1724.35C660.611 1724.72 660.544 1725.13 660.477 1725.6C660.444 1726.07 660.427 1726.43 660.427 1726.7C660.427 1726.97 660.427 1727.28 660.427 1727.65C660.461 1728.05 660.494 1728.42 660.527 1728.75L654.727 1729.15C654.227 1727.42 653.777 1725.12 653.377 1722.25C652.977 1719.35 652.777 1716.2 652.777 1712.8C652.777 1710.93 652.861 1709.03 653.027 1707.1C653.194 1705.17 653.394 1703.32 653.627 1701.55C653.861 1699.75 654.077 1698.12 654.277 1696.65C654.511 1695.18 654.711 1693.97 654.877 1693C654.944 1692.3 655.027 1691.52 655.127 1690.65C655.261 1689.75 655.344 1688.9 655.377 1688.1L662.377 1688.7Z" fill="black"/>
<path d="M619.526 1701.35H646.626V1707.3H619.526V1701.35ZM630.076 1684.75H636.126V1731.5H630.076V1684.75ZM601.626 1699.85H617.776V1704.4H601.626V1699.85ZM601.926 1686.1H617.826V1690.6H601.926V1686.1ZM601.626 1706.7H617.776V1711.2H601.626V1706.7ZM599.176 1692.8H619.726V1697.55H599.176V1692.8ZM604.376 1713.6H617.626V1728.85H604.376V1724.1H612.326V1718.35H604.376V1713.6ZM601.476 1713.6H606.676V1730.8H601.476V1713.6Z" fill="black"/>
<path d="M552.326 1724.1C555.292 1724 558.726 1723.9 562.626 1723.8C566.559 1723.67 570.676 1723.52 574.976 1723.35C579.309 1723.18 583.576 1723.02 587.776 1722.85L587.576 1728.35C583.509 1728.58 579.376 1728.78 575.176 1728.95C571.009 1729.15 567.042 1729.33 563.276 1729.5C559.509 1729.7 556.109 1729.87 553.076 1730L552.326 1724.1ZM552.076 1709.25H593.626V1714.85H552.076V1709.25ZM560.976 1699.6H584.426V1705.1H560.976V1699.6ZM564.276 1712.9L571.126 1714.75C570.359 1716.32 569.542 1717.92 568.676 1719.55C567.842 1721.15 567.009 1722.68 566.176 1724.15C565.376 1725.62 564.609 1726.92 563.876 1728.05L558.626 1726.3C559.292 1725.07 559.992 1723.68 560.726 1722.15C561.459 1720.58 562.126 1719 562.726 1717.4C563.359 1715.77 563.876 1714.27 564.276 1712.9ZM576.726 1718.05L581.976 1715.25C583.476 1716.55 584.959 1717.95 586.426 1719.45C587.892 1720.95 589.242 1722.47 590.476 1724C591.709 1725.5 592.709 1726.88 593.476 1728.15L587.876 1731.55C587.209 1730.28 586.259 1728.85 585.026 1727.25C583.826 1725.68 582.492 1724.08 581.026 1722.45C579.592 1720.82 578.159 1719.35 576.726 1718.05ZM572.626 1690.35C571.292 1692.25 569.576 1694.2 567.476 1696.2C565.376 1698.17 563.042 1700.03 560.476 1701.8C557.909 1703.57 555.242 1705.12 552.476 1706.45C552.276 1705.95 551.959 1705.4 551.526 1704.8C551.126 1704.17 550.692 1703.57 550.226 1703C549.792 1702.4 549.359 1701.88 548.926 1701.45C551.792 1700.18 554.542 1698.62 557.176 1696.75C559.809 1694.85 562.159 1692.85 564.226 1690.75C566.326 1688.62 567.992 1686.57 569.226 1684.6H575.526C576.859 1686.43 578.342 1688.17 579.976 1689.8C581.609 1691.43 583.342 1692.93 585.176 1694.3C587.009 1695.63 588.892 1696.83 590.826 1697.9C592.792 1698.93 594.776 1699.82 596.776 1700.55C596.042 1701.28 595.342 1702.15 594.676 1703.15C594.009 1704.15 593.409 1705.1 592.876 1706C590.376 1704.83 587.842 1703.4 585.276 1701.7C582.709 1700 580.309 1698.17 578.076 1696.2C575.876 1694.23 574.059 1692.28 572.626 1690.35Z" fill="black"/>
<path d="M539.587 1687C539.937 1687 540.187 1687.25 540.187 1687.6V1726.35C540.187 1726.7 539.937 1727 539.587 1727H535.587C535.237 1727 534.987 1726.7 534.987 1726.35V1692.1H528.737C528.187 1692.1 527.937 1691.55 528.187 1691.2L530.687 1687.25C530.787 1687.1 530.987 1687 531.187 1687H539.587Z" fill="black"/>
<path d="M499.384 1701.6C500.584 1701.6 501.651 1701.9 502.584 1702.5C503.551 1703.07 504.318 1703.83 504.884 1704.8C505.484 1705.73 505.784 1706.8 505.784 1708C505.784 1709.17 505.484 1710.23 504.884 1711.2C504.318 1712.17 503.551 1712.95 502.584 1713.55C501.651 1714.12 500.584 1714.4 499.384 1714.4C498.218 1714.4 497.151 1714.12 496.184 1713.55C495.218 1712.95 494.434 1712.17 493.834 1711.2C493.268 1710.23 492.984 1709.17 492.984 1708C492.984 1706.8 493.268 1705.73 493.834 1704.8C494.434 1703.83 495.218 1703.07 496.184 1702.5C497.151 1701.9 498.218 1701.6 499.384 1701.6Z" fill="black"/>
<path d="M444.637 1703.45V1712.15H453.438V1703.45H444.637ZM438.988 1698.2H459.488V1717.35H438.988V1698.2ZM427.938 1686.2H470.887V1731.45H464.337V1692.35H434.188V1731.45H427.938V1686.2ZM431.488 1723.15H468.037V1728.75H431.488V1723.15Z" fill="black"/>
<path d="M416.294 1687C416.644 1687 416.894 1687.25 416.894 1687.6V1726.35C416.894 1726.7 416.644 1727 416.294 1727H412.294C411.944 1727 411.694 1726.7 411.694 1726.35V1692.1H405.444C404.894 1692.1 404.644 1691.55 404.894 1691.2L407.394 1687.25C407.494 1687.1 407.694 1687 407.894 1687H416.294Z" fill="black"/>
<path d="M358.793 1687.55H393.693V1730.8H387.243V1693.6H364.943V1730.9H358.793V1687.55ZM362.993 1704.35H389.893V1710.25H362.993V1704.35ZM362.993 1721.55H389.943V1727.6H362.993V1721.55Z" fill="black"/>
<path d="M343.005 1687C343.355 1687 343.605 1687.25 343.605 1687.6V1726.35C343.605 1726.7 343.355 1727 343.005 1727H339.005C338.655 1727 338.405 1726.7 338.405 1726.35V1692.1H332.155C331.605 1692.1 331.355 1691.55 331.605 1691.2L334.105 1687.25C334.205 1687.1 334.405 1687 334.605 1687H343.005Z" fill="black"/>
<path d="M292.624 1727L288.974 1723.3L302.824 1709.35L288.874 1695.35L292.574 1691.6L306.574 1705.55L320.624 1691.65L324.374 1695.3L310.324 1709.35L324.174 1723.4L320.524 1727.1L306.574 1713.1L292.624 1727ZM291.674 1713.15C290.641 1713.15 289.741 1712.87 288.974 1712.3C288.208 1711.73 287.824 1710.77 287.824 1709.4C287.824 1708.03 288.208 1707.07 288.974 1706.5C289.741 1705.9 290.641 1705.6 291.674 1705.6C292.741 1705.6 293.658 1705.9 294.424 1706.5C295.191 1707.07 295.574 1708.03 295.574 1709.4C295.574 1710.77 295.191 1711.73 294.424 1712.3C293.658 1712.87 292.741 1713.15 291.674 1713.15ZM306.574 1728.15C305.674 1728.15 304.941 1727.97 304.374 1727.6C303.841 1727.27 303.441 1726.8 303.174 1726.2C302.941 1725.6 302.824 1724.95 302.824 1724.25C302.824 1723.55 302.941 1722.92 303.174 1722.35C303.441 1721.75 303.841 1721.28 304.374 1720.95C304.941 1720.58 305.674 1720.4 306.574 1720.4C307.474 1720.4 308.208 1720.58 308.774 1720.95C309.341 1721.28 309.741 1721.75 309.974 1722.35C310.241 1722.92 310.374 1723.55 310.374 1724.25C310.374 1724.95 310.241 1725.6 309.974 1726.2C309.741 1726.8 309.341 1727.27 308.774 1727.6C308.208 1727.97 307.474 1728.15 306.574 1728.15ZM306.574 1698.4C305.674 1698.4 304.941 1698.23 304.374 1697.9C303.841 1697.53 303.441 1697.05 303.174 1696.45C302.941 1695.85 302.824 1695.2 302.824 1694.5C302.824 1693.8 302.941 1693.17 303.174 1692.6C303.441 1692 303.841 1691.53 304.374 1691.2C304.941 1690.83 305.674 1690.65 306.574 1690.65C307.474 1690.65 308.208 1690.83 308.774 1691.2C309.341 1691.53 309.741 1692 309.974 1692.6C310.241 1693.17 310.374 1693.8 310.374 1694.5C310.374 1695.2 310.241 1695.85 309.974 1696.45C309.741 1697.05 309.341 1697.53 308.774 1697.9C308.208 1698.23 307.474 1698.4 306.574 1698.4ZM321.424 1713.15C320.391 1713.15 319.491 1712.87 318.724 1712.3C317.958 1711.73 317.574 1710.77 317.574 1709.4C317.574 1708.03 317.958 1707.07 318.724 1706.5C319.491 1705.9 320.391 1705.6 321.424 1705.6C322.491 1705.6 323.408 1705.9 324.174 1706.5C324.941 1707.07 325.324 1708.03 325.324 1709.4C325.324 1710.77 324.941 1711.73 324.174 1712.3C323.408 1712.87 322.491 1713.15 321.424 1713.15Z" fill="black"/>
<path d="M723.902 1546.2C723.502 1546.8 722.902 1547.73 722.102 1549C721.368 1550.27 720.802 1551.43 720.402 1552.5C719.002 1555.63 717.268 1559.13 715.202 1563C713.202 1566.87 710.902 1570.77 708.302 1574.7C705.768 1578.57 703.068 1582.2 700.202 1585.6C696.468 1589.8 692.335 1593.97 687.802 1598.1C683.335 1602.17 678.602 1605.93 673.602 1609.4C668.668 1612.8 663.602 1615.73 658.402 1618.2L648.102 1607.4C653.502 1605.33 658.735 1602.73 663.802 1599.6C668.868 1596.47 673.568 1593.07 677.902 1589.4C682.235 1585.73 685.968 1582.17 689.102 1578.7C691.302 1576.17 693.368 1573.47 695.302 1570.6C697.302 1567.73 699.068 1564.9 700.602 1562.1C702.135 1559.23 703.268 1556.6 704.002 1554.2C703.335 1554.2 702.135 1554.2 700.402 1554.2C698.668 1554.2 696.635 1554.2 694.302 1554.2C692.035 1554.2 689.635 1554.2 687.102 1554.2C684.568 1554.2 682.135 1554.2 679.802 1554.2C677.535 1554.2 675.535 1554.2 673.802 1554.2C672.068 1554.2 670.835 1554.2 670.102 1554.2C668.702 1554.2 667.235 1554.27 665.702 1554.4C664.168 1554.47 662.702 1554.57 661.302 1554.7C659.968 1554.77 658.935 1554.83 658.202 1554.9V1540.7C659.202 1540.77 660.435 1540.87 661.902 1541C663.368 1541.13 664.835 1541.23 666.302 1541.3C667.835 1541.37 669.102 1541.4 670.102 1541.4C670.968 1541.4 672.335 1541.4 674.202 1541.4C676.068 1541.4 678.202 1541.4 680.602 1541.4C683.002 1541.4 685.468 1541.4 688.002 1541.4C690.602 1541.4 693.068 1541.4 695.402 1541.4C697.802 1541.4 699.868 1541.4 701.602 1541.4C703.335 1541.4 704.602 1541.4 705.402 1541.4C707.602 1541.4 709.602 1541.27 711.402 1541C713.268 1540.73 714.702 1540.43 715.702 1540.1L723.902 1546.2ZM701.502 1577.3C704.102 1579.37 706.868 1581.77 709.802 1584.5C712.735 1587.23 715.635 1590.07 718.502 1593C721.368 1595.93 724.002 1598.77 726.402 1601.5C728.868 1604.17 730.935 1606.5 732.602 1608.5L721.202 1618.4C718.735 1615 715.902 1611.47 712.702 1607.8C709.568 1604.13 706.235 1600.5 702.702 1596.9C699.235 1593.23 695.702 1589.77 692.102 1586.5L701.502 1577.3Z" fill="black"/>
<path d="M614.298 1533C615.165 1534.2 616.098 1535.63 617.098 1537.3C618.098 1538.97 619.032 1540.63 619.898 1542.3C620.832 1543.97 621.632 1545.43 622.298 1546.7L614.198 1550.1C613.198 1548.03 611.965 1545.7 610.498 1543.1C609.098 1540.43 607.732 1538.13 606.398 1536.2L614.298 1533ZM626.098 1528.5C627.032 1529.77 627.998 1531.23 628.998 1532.9C629.998 1534.57 630.965 1536.23 631.898 1537.9C632.898 1539.5 633.665 1540.9 634.198 1542.1L626.298 1545.5C625.232 1543.37 623.965 1541 622.498 1538.4C621.032 1535.8 619.598 1533.57 618.198 1531.7L626.098 1528.5ZM571.198 1537.3C570.932 1538.83 570.732 1540.6 570.598 1542.6C570.465 1544.6 570.398 1546.3 570.398 1547.7C570.398 1548.7 570.398 1550.47 570.398 1553C570.398 1555.47 570.398 1558.4 570.398 1561.8C570.398 1565.2 570.398 1568.77 570.398 1572.5C570.398 1576.17 570.398 1579.73 570.398 1583.2C570.398 1586.6 570.398 1589.63 570.398 1592.3C570.398 1594.97 570.398 1596.93 570.398 1598.2C570.398 1600.33 570.932 1601.8 571.998 1602.6C573.065 1603.4 574.698 1604.03 576.898 1604.5C578.432 1604.7 580.198 1604.87 582.198 1605C584.198 1605.07 586.298 1605.1 588.498 1605.1C591.098 1605.1 593.965 1605.03 597.098 1604.9C600.298 1604.7 603.498 1604.47 606.698 1604.2C609.965 1603.93 613.032 1603.57 615.898 1603.1C618.765 1602.63 621.232 1602.13 623.298 1601.6V1616.2C620.165 1616.67 616.532 1617.03 612.398 1617.3C608.265 1617.63 604.032 1617.87 599.698 1618C595.432 1618.2 591.432 1618.3 587.698 1618.3C584.432 1618.3 581.332 1618.2 578.398 1618C575.532 1617.8 573.032 1617.53 570.898 1617.2C566.565 1616.33 563.198 1614.7 560.798 1612.3C558.398 1609.83 557.198 1606.47 557.198 1602.2C557.198 1600.27 557.198 1597.77 557.198 1594.7C557.198 1591.57 557.198 1588.13 557.198 1584.4C557.198 1580.6 557.198 1576.8 557.198 1573C557.198 1569.13 557.198 1565.5 557.198 1562.1C557.198 1558.63 557.198 1555.63 557.198 1553.1C557.198 1550.57 557.198 1548.77 557.198 1547.7C557.198 1546.97 557.165 1545.97 557.098 1544.7C557.032 1543.43 556.932 1542.13 556.798 1540.8C556.732 1539.47 556.598 1538.3 556.398 1537.3H571.198ZM564.598 1568C567.798 1567.33 571.198 1566.53 574.798 1565.6C578.398 1564.6 582.032 1563.53 585.698 1562.4C589.365 1561.27 592.832 1560.13 596.098 1559C599.432 1557.8 602.398 1556.63 604.998 1555.5C606.798 1554.83 608.565 1554.07 610.298 1553.2C612.098 1552.33 613.965 1551.3 615.898 1550.1L621.298 1562.8C619.365 1563.53 617.332 1564.37 615.198 1565.3C613.132 1566.17 611.265 1566.9 609.598 1567.5C606.665 1568.63 603.298 1569.83 599.498 1571.1C595.765 1572.37 591.865 1573.63 587.798 1574.9C583.732 1576.1 579.698 1577.23 575.698 1578.3C571.765 1579.37 568.098 1580.3 564.698 1581.1L564.598 1568Z" fill="black"/>
<path d="M449.699 1567.7C450.899 1567.77 452.433 1567.87 454.299 1568C456.166 1568.07 458.099 1568.14 460.099 1568.2C462.166 1568.27 464.066 1568.3 465.799 1568.3C467.466 1568.3 469.533 1568.3 471.999 1568.3C474.466 1568.3 477.133 1568.3 479.999 1568.3C482.933 1568.3 485.933 1568.3 488.999 1568.3C492.133 1568.3 495.233 1568.3 498.299 1568.3C501.366 1568.3 504.266 1568.3 506.999 1568.3C509.733 1568.3 512.166 1568.3 514.299 1568.3C516.499 1568.3 518.233 1568.3 519.499 1568.3C521.833 1568.3 524.033 1568.24 526.099 1568.1C528.166 1567.9 529.866 1567.77 531.199 1567.7V1583.4C530.066 1583.34 528.366 1583.24 526.099 1583.1C523.833 1582.97 521.633 1582.9 519.499 1582.9C518.233 1582.9 516.499 1582.9 514.299 1582.9C512.099 1582.9 509.633 1582.9 506.899 1582.9C504.166 1582.9 501.266 1582.9 498.199 1582.9C495.199 1582.9 492.133 1582.9 488.999 1582.9C485.866 1582.9 482.833 1582.9 479.899 1582.9C477.033 1582.9 474.366 1582.9 471.899 1582.9C469.499 1582.9 467.466 1582.9 465.799 1582.9C462.933 1582.9 459.999 1582.97 456.999 1583.1C453.999 1583.17 451.566 1583.27 449.699 1583.4V1567.7Z" fill="black"/>
<path d="M415.299 1569.8C415.299 1576 414.833 1581.63 413.899 1586.7C413.033 1591.7 411.499 1596.27 409.299 1600.4C407.099 1604.47 404.033 1608.13 400.099 1611.4C396.166 1614.67 391.199 1617.63 385.199 1620.3L374.499 1610.2C379.299 1608.53 383.433 1606.67 386.899 1604.6C390.433 1602.53 393.333 1600 395.599 1597C397.866 1593.93 399.533 1590.27 400.599 1586C401.733 1581.67 402.299 1576.43 402.299 1570.3V1543.7C402.299 1541.63 402.233 1539.83 402.099 1538.3C401.966 1536.7 401.833 1535.4 401.699 1534.4H415.999C415.866 1535.4 415.699 1536.7 415.499 1538.3C415.366 1539.83 415.299 1541.63 415.299 1543.7V1569.8ZM379.199 1535.3C379.066 1536.23 378.933 1537.5 378.799 1539.1C378.666 1540.63 378.599 1542.37 378.599 1544.3V1580.1C378.599 1581.57 378.633 1583 378.699 1584.4C378.766 1585.73 378.799 1586.93 378.799 1588C378.866 1589 378.933 1589.87 378.999 1590.6H364.999C365.133 1589.87 365.233 1589 365.299 1588C365.366 1586.93 365.433 1585.73 365.499 1584.4C365.566 1583 365.599 1581.57 365.599 1580.1V1544.3C365.599 1542.83 365.533 1541.33 365.399 1539.8C365.333 1538.27 365.199 1536.77 364.999 1535.3H379.199ZM346.199 1553.3C346.866 1553.37 347.733 1553.5 348.799 1553.7C349.866 1553.83 351.099 1553.97 352.499 1554.1C353.899 1554.17 355.433 1554.2 357.099 1554.2H422.699C425.366 1554.2 427.533 1554.13 429.199 1554C430.866 1553.87 432.366 1553.7 433.699 1553.5V1566.8C432.633 1566.67 431.199 1566.6 429.399 1566.6C427.599 1566.53 425.366 1566.5 422.699 1566.5H357.099C355.433 1566.5 353.899 1566.53 352.499 1566.6C351.166 1566.6 349.966 1566.63 348.899 1566.7C347.899 1566.77 346.999 1566.83 346.199 1566.9V1553.3Z" fill="black"/>
<path d="M753.691 1421.8C753.158 1422.74 752.591 1423.87 751.991 1425.2C751.391 1426.47 750.858 1427.74 750.391 1429C749.525 1431.94 748.291 1435.3 746.691 1439.1C745.158 1442.84 743.225 1446.74 740.891 1450.8C738.625 1454.8 735.991 1458.67 732.991 1462.4C728.191 1468.14 722.591 1473.34 716.191 1478C709.858 1482.67 701.991 1486.87 692.591 1490.6L680.791 1480C687.591 1478 693.458 1475.7 698.391 1473.1C703.325 1470.5 707.625 1467.74 711.291 1464.8C714.958 1461.8 718.225 1458.64 721.091 1455.3C723.425 1452.7 725.558 1449.77 727.491 1446.5C729.425 1443.17 731.091 1439.87 732.491 1436.6C733.891 1433.34 734.825 1430.47 735.291 1428H701.591L706.191 1416.7C707.125 1416.7 708.558 1416.7 710.491 1416.7C712.491 1416.7 714.725 1416.7 717.191 1416.7C719.725 1416.7 722.191 1416.7 724.591 1416.7C727.058 1416.7 729.191 1416.7 730.991 1416.7C732.858 1416.7 734.125 1416.7 734.791 1416.7C736.325 1416.7 737.858 1416.6 739.391 1416.4C740.991 1416.2 742.358 1415.9 743.491 1415.5L753.691 1421.8ZM721.091 1406C719.891 1407.74 718.725 1409.6 717.591 1411.6C716.458 1413.6 715.591 1415.14 714.991 1416.2C712.725 1420.2 709.925 1424.37 706.591 1428.7C703.325 1432.97 699.591 1437.14 695.391 1441.2C691.191 1445.2 686.725 1448.87 681.991 1452.2L670.691 1443.9C675.091 1441.17 678.958 1438.37 682.291 1435.5C685.691 1432.64 688.625 1429.8 691.091 1427C693.558 1424.14 695.658 1421.4 697.391 1418.8C699.191 1416.14 700.725 1413.77 701.991 1411.7C702.791 1410.44 703.625 1408.8 704.491 1406.8C705.358 1404.74 706.025 1402.87 706.491 1401.2L721.091 1406Z" fill="black"/>
<path d="M587.891 1408C589.624 1409.2 591.657 1410.67 593.991 1412.4C596.324 1414.13 598.724 1416.03 601.191 1418.1C603.724 1420.1 606.091 1422.07 608.291 1424C610.491 1425.93 612.291 1427.67 613.691 1429.2L603.491 1439.6C602.224 1438.2 600.557 1436.53 598.491 1434.6C596.424 1432.67 594.191 1430.67 591.791 1428.6C589.391 1426.53 587.024 1424.57 584.691 1422.7C582.357 1420.83 580.291 1419.27 578.491 1418L587.891 1408ZM575.391 1474.6C580.591 1473.87 585.491 1472.83 590.091 1471.5C594.691 1470.17 598.957 1468.63 602.891 1466.9C606.824 1465.17 610.424 1463.37 613.691 1461.5C619.357 1458.1 624.557 1454.23 629.291 1449.9C634.024 1445.57 638.157 1441.07 641.691 1436.4C645.224 1431.67 648.024 1427.07 650.091 1422.6L657.891 1436.7C655.357 1441.17 652.224 1445.63 648.491 1450.1C644.824 1454.57 640.657 1458.83 635.991 1462.9C631.324 1466.9 626.291 1470.5 620.891 1473.7C617.491 1475.77 613.824 1477.73 609.891 1479.6C605.957 1481.4 601.791 1483 597.391 1484.4C593.057 1485.87 588.524 1487 583.791 1487.8L575.391 1474.6Z" fill="black"/>
<path d="M544.091 1406.4C544.025 1407.8 543.925 1409.33 543.791 1411C543.725 1412.6 543.691 1414.4 543.691 1416.4C543.691 1418.13 543.691 1420.23 543.691 1422.7C543.691 1425.17 543.691 1427.63 543.691 1430.1C543.691 1432.5 543.691 1434.53 543.691 1436.2C543.691 1441.53 543.425 1446.2 542.891 1450.2C542.425 1454.2 541.691 1457.7 540.691 1460.7C539.691 1463.7 538.458 1466.37 536.991 1468.7C535.591 1470.97 533.958 1473.13 532.091 1475.2C529.891 1477.6 527.358 1479.77 524.491 1481.7C521.625 1483.57 518.725 1485.13 515.791 1486.4C512.925 1487.73 510.258 1488.8 507.791 1489.6L497.291 1478.6C502.291 1477.47 506.791 1475.9 510.791 1473.9C514.858 1471.83 518.391 1469.2 521.391 1466C523.125 1464.07 524.525 1462.13 525.591 1460.2C526.658 1458.27 527.458 1456.13 527.991 1453.8C528.591 1451.4 528.991 1448.7 529.191 1445.7C529.458 1442.7 529.591 1439.27 529.591 1435.4C529.591 1433.67 529.591 1431.6 529.591 1429.2C529.591 1426.8 529.591 1424.43 529.591 1422.1C529.591 1419.77 529.591 1417.87 529.591 1416.4C529.591 1414.4 529.525 1412.6 529.391 1411C529.325 1409.33 529.191 1407.8 528.991 1406.4H544.091ZM497.691 1407.2C497.625 1408.4 497.558 1409.6 497.491 1410.8C497.425 1411.93 497.391 1413.3 497.391 1414.9C497.391 1415.63 497.391 1416.83 497.391 1418.5C497.391 1420.17 497.391 1422.13 497.391 1424.4C497.391 1426.6 497.391 1428.93 497.391 1431.4C497.391 1433.8 497.391 1436.13 497.391 1438.4C497.391 1440.67 497.391 1442.73 497.391 1444.6C497.391 1446.4 497.391 1447.77 497.391 1448.7C497.391 1449.97 497.425 1451.43 497.491 1453.1C497.558 1454.77 497.625 1456.2 497.691 1457.4H483.191C483.258 1456.47 483.358 1455.13 483.491 1453.4C483.625 1451.67 483.691 1450.07 483.691 1448.6C483.691 1447.67 483.691 1446.3 483.691 1444.5C483.691 1442.7 483.691 1440.67 483.691 1438.4C483.691 1436.07 483.691 1433.7 483.691 1431.3C483.691 1428.83 483.691 1426.5 483.691 1424.3C483.691 1422.1 483.691 1420.17 483.691 1418.5C483.691 1416.83 483.691 1415.63 483.691 1414.9C483.691 1413.97 483.658 1412.77 483.591 1411.3C483.525 1409.77 483.425 1408.4 483.291 1407.2H497.691Z" fill="black"/>
<path d="M431.99 1409.6C432.923 1410.93 433.957 1412.5 435.09 1414.3C436.223 1416.1 437.29 1417.9 438.29 1419.7C439.357 1421.5 440.29 1423.17 441.09 1424.7L432.39 1428.6C431.457 1426.47 430.523 1424.57 429.59 1422.9C428.723 1421.23 427.823 1419.63 426.89 1418.1C425.957 1416.5 424.857 1414.83 423.59 1413.1L431.99 1409.6ZM445.09 1404.1C446.09 1405.43 447.157 1406.97 448.29 1408.7C449.49 1410.43 450.623 1412.2 451.69 1414C452.823 1415.73 453.757 1417.37 454.49 1418.9L446.09 1423C445.023 1420.87 443.99 1419 442.99 1417.4C442.057 1415.73 441.09 1414.17 440.09 1412.7C439.157 1411.17 438.057 1409.6 436.79 1408L445.09 1404.1ZM392.09 1475.9C392.09 1474.57 392.09 1472.47 392.09 1469.6C392.09 1466.67 392.09 1463.3 392.09 1459.5C392.09 1455.63 392.09 1451.63 392.09 1447.5C392.09 1443.3 392.09 1439.27 392.09 1435.4C392.09 1431.47 392.09 1428 392.09 1425C392.09 1422 392.09 1419.8 392.09 1418.4C392.09 1416.6 391.99 1414.57 391.79 1412.3C391.657 1410.03 391.423 1408.03 391.09 1406.3H406.69C406.49 1408.03 406.29 1409.97 406.09 1412.1C405.89 1414.23 405.79 1416.33 405.79 1418.4C405.79 1420.2 405.79 1422.7 405.79 1425.9C405.79 1429.1 405.79 1432.67 405.79 1436.6C405.79 1440.47 405.79 1444.43 405.79 1448.5C405.79 1452.57 405.79 1456.47 405.79 1460.2C405.79 1463.87 405.79 1467.1 405.79 1469.9C405.79 1472.63 405.79 1474.63 405.79 1475.9C405.79 1476.77 405.823 1478.07 405.89 1479.8C406.023 1481.47 406.157 1483.2 406.29 1485C406.49 1486.8 406.657 1488.4 406.79 1489.8H391.09C391.423 1487.87 391.657 1485.57 391.79 1482.9C391.99 1480.17 392.09 1477.83 392.09 1475.9ZM402.89 1432.2C406.223 1433.07 409.923 1434.2 413.99 1435.6C418.123 1436.93 422.29 1438.4 426.49 1440C430.69 1441.53 434.657 1443.07 438.39 1444.6C442.123 1446.07 445.19 1447.4 447.59 1448.6L441.99 1462.5C439.123 1460.97 435.99 1459.47 432.59 1458C429.19 1456.53 425.723 1455.1 422.19 1453.7C418.723 1452.23 415.323 1450.9 411.99 1449.7C408.657 1448.5 405.623 1447.47 402.89 1446.6V1432.2Z" fill="black"/>
<path d="M347.608 1404C348.308 1404 348.808 1404.5 348.808 1405.2V1482.7C348.808 1483.4 348.308 1484 347.608 1484H339.608C338.908 1484 338.408 1483.4 338.408 1482.7V1414.2H325.908C324.808 1414.2 324.308 1413.1 324.808 1412.4L329.808 1404.5C330.008 1404.2 330.408 1404 330.808 1404H347.608Z" fill="black"/>
<path d="M858.305 1295.9C858.138 1296.8 857.871 1297.97 857.505 1299.4C857.138 1300.83 856.605 1302.45 855.905 1304.25C855.371 1305.48 854.755 1306.77 854.055 1308.1C853.388 1309.4 852.705 1310.57 852.005 1311.6C852.438 1311.4 852.988 1311.23 853.655 1311.1C854.321 1310.93 855.005 1310.82 855.705 1310.75C856.438 1310.65 857.088 1310.6 857.655 1310.6C859.755 1310.6 861.488 1311.2 862.855 1312.4C864.255 1313.6 864.955 1315.38 864.955 1317.75C864.955 1318.42 864.955 1319.23 864.955 1320.2C864.988 1321.17 865.021 1322.18 865.055 1323.25C865.088 1324.28 865.121 1325.3 865.155 1326.3C865.188 1327.3 865.205 1328.2 865.205 1329H859.205C859.271 1328.43 859.305 1327.77 859.305 1327C859.338 1326.2 859.355 1325.37 859.355 1324.5C859.388 1323.63 859.405 1322.8 859.405 1322C859.438 1321.17 859.455 1320.42 859.455 1319.75C859.455 1318.15 859.021 1317.05 858.155 1316.45C857.321 1315.82 856.388 1315.5 855.355 1315.5C853.955 1315.5 852.538 1315.85 851.105 1316.55C849.705 1317.22 848.521 1318.02 847.555 1318.95C846.821 1319.68 846.071 1320.5 845.305 1321.4C844.571 1322.3 843.771 1323.32 842.905 1324.45L837.555 1320.45C839.721 1318.45 841.588 1316.52 843.155 1314.65C844.755 1312.78 846.105 1310.93 847.205 1309.1C848.305 1307.27 849.205 1305.43 849.905 1303.6C850.405 1302.27 850.805 1300.88 851.105 1299.45C851.438 1297.98 851.638 1296.62 851.705 1295.35L858.305 1295.9ZM839.505 1300.5C840.771 1300.7 842.238 1300.85 843.905 1300.95C845.571 1301.05 847.038 1301.1 848.305 1301.1C850.505 1301.1 852.905 1301.05 855.505 1300.95C858.138 1300.85 860.805 1300.68 863.505 1300.45C866.205 1300.18 868.771 1299.85 871.205 1299.45L871.155 1305.25C869.388 1305.48 867.471 1305.7 865.405 1305.9C863.371 1306.07 861.288 1306.22 859.155 1306.35C857.055 1306.45 855.038 1306.53 853.105 1306.6C851.171 1306.63 849.455 1306.65 847.955 1306.65C847.288 1306.65 846.455 1306.65 845.455 1306.65C844.488 1306.62 843.488 1306.58 842.455 1306.55C841.421 1306.48 840.438 1306.42 839.505 1306.35V1300.5ZM879.105 1314.7C878.571 1314.87 877.938 1315.08 877.205 1315.35C876.505 1315.58 875.788 1315.83 875.055 1316.1C874.355 1316.33 873.721 1316.57 873.155 1316.8C871.555 1317.43 869.655 1318.2 867.455 1319.1C865.288 1320 863.021 1321.05 860.655 1322.25C859.155 1323.05 857.888 1323.83 856.855 1324.6C855.821 1325.37 855.038 1326.15 854.505 1326.95C853.971 1327.72 853.705 1328.57 853.705 1329.5C853.705 1330.2 853.855 1330.78 854.155 1331.25C854.455 1331.68 854.905 1332.03 855.505 1332.3C856.105 1332.57 856.855 1332.75 857.755 1332.85C858.655 1332.95 859.721 1333 860.955 1333C863.088 1333 865.438 1332.88 868.005 1332.65C870.571 1332.38 872.955 1332.03 875.155 1331.6L874.955 1338.05C873.888 1338.18 872.538 1338.32 870.905 1338.45C869.271 1338.62 867.571 1338.73 865.805 1338.8C864.071 1338.87 862.405 1338.9 860.805 1338.9C858.205 1338.9 855.871 1338.65 853.805 1338.15C851.738 1337.65 850.105 1336.8 848.905 1335.6C847.738 1334.37 847.155 1332.68 847.155 1330.55C847.155 1328.82 847.538 1327.25 848.305 1325.85C849.105 1324.45 850.155 1323.18 851.455 1322.05C852.755 1320.92 854.171 1319.9 855.705 1319C857.271 1318.07 858.805 1317.22 860.305 1316.45C861.838 1315.65 863.221 1314.97 864.455 1314.4C865.688 1313.83 866.838 1313.33 867.905 1312.9C869.005 1312.43 870.055 1311.97 871.055 1311.5C872.021 1311.07 872.955 1310.65 873.855 1310.25C874.755 1309.82 875.671 1309.37 876.605 1308.9L879.105 1314.7Z" fill="black"/>
<path d="M793.206 1320.25H824.906V1325.75H793.206V1320.25ZM805.706 1315.3H811.806V1340.5H805.706V1315.3ZM795.956 1327.1L802.256 1328.9C801.056 1331.03 799.523 1333.07 797.656 1335C795.79 1336.9 793.94 1338.48 792.106 1339.75C791.706 1339.35 791.173 1338.9 790.506 1338.4C789.873 1337.9 789.223 1337.4 788.556 1336.9C787.89 1336.43 787.323 1336.07 786.856 1335.8C788.69 1334.77 790.423 1333.48 792.056 1331.95C793.723 1330.42 795.023 1328.8 795.956 1327.1ZM815.506 1330.1L820.356 1326.95C821.49 1327.78 822.706 1328.73 824.006 1329.8C825.306 1330.87 826.54 1331.93 827.706 1333C828.873 1334.03 829.823 1335 830.556 1335.9L825.306 1339.4C824.673 1338.53 823.806 1337.55 822.706 1336.45C821.606 1335.35 820.423 1334.25 819.156 1333.15C817.89 1332.02 816.673 1331 815.506 1330.1ZM808.906 1310C807.573 1311.63 805.806 1313.27 803.606 1314.9C801.406 1316.5 798.973 1317.98 796.306 1319.35C793.64 1320.68 790.94 1321.8 788.206 1322.7C787.906 1321.93 787.456 1321.05 786.856 1320.05C786.256 1319.05 785.69 1318.23 785.156 1317.6C787.99 1316.77 790.706 1315.68 793.306 1314.35C795.94 1313.02 798.306 1311.53 800.406 1309.9C802.54 1308.27 804.256 1306.58 805.556 1304.85H811.756C813.59 1306.95 815.656 1308.8 817.956 1310.4C820.29 1312 822.756 1313.35 825.356 1314.45C827.956 1315.52 830.59 1316.37 833.256 1317C832.59 1317.73 831.956 1318.62 831.356 1319.65C830.756 1320.68 830.256 1321.62 829.856 1322.45C827.99 1321.88 826.056 1321.17 824.056 1320.3C822.09 1319.4 820.156 1318.42 818.256 1317.35C816.356 1316.25 814.59 1315.08 812.956 1313.85C811.356 1312.58 810.006 1311.3 808.906 1310ZM786.806 1297.25H831.306V1302.75H786.806V1297.25ZM796.656 1293.5H802.606V1307.2H796.656V1293.5ZM814.956 1293.5H820.906V1307.2H814.956V1293.5Z" fill="black"/>
<path d="M757.906 1303.75H782.806V1309.45H757.906V1303.75ZM771.556 1293.55H777.656V1333.1C777.656 1334.87 777.44 1336.22 777.006 1337.15C776.606 1338.08 775.89 1338.8 774.856 1339.3C773.823 1339.8 772.473 1340.12 770.806 1340.25C769.173 1340.42 767.24 1340.5 765.006 1340.5C764.906 1339.9 764.74 1339.22 764.506 1338.45C764.306 1337.68 764.056 1336.92 763.756 1336.15C763.49 1335.42 763.206 1334.75 762.906 1334.15C764.44 1334.22 765.906 1334.27 767.306 1334.3C768.74 1334.3 769.706 1334.28 770.206 1334.25C770.706 1334.25 771.056 1334.17 771.256 1334C771.456 1333.8 771.556 1333.48 771.556 1333.05V1293.55ZM758.306 1315.55L763.256 1313.15C764.123 1314.35 764.956 1315.63 765.756 1317C766.59 1318.37 767.323 1319.72 767.956 1321.05C768.623 1322.38 769.09 1323.6 769.356 1324.7L763.956 1327.4C763.723 1326.3 763.306 1325.08 762.706 1323.75C762.14 1322.38 761.473 1320.98 760.706 1319.55C759.94 1318.12 759.14 1316.78 758.306 1315.55ZM736.306 1303.85H756.506V1309.5H736.306V1303.85ZM744.006 1293.5H749.856V1340.45H744.006V1293.5ZM743.806 1307.7L747.606 1309.05C747.14 1311.08 746.573 1313.18 745.906 1315.35C745.24 1317.48 744.49 1319.58 743.656 1321.65C742.823 1323.72 741.923 1325.65 740.956 1327.45C739.99 1329.22 738.973 1330.73 737.906 1332C737.606 1331.13 737.14 1330.15 736.506 1329.05C735.906 1327.92 735.373 1326.98 734.906 1326.25C735.906 1325.12 736.84 1323.83 737.706 1322.4C738.606 1320.93 739.44 1319.38 740.206 1317.75C741.006 1316.08 741.706 1314.4 742.306 1312.7C742.94 1310.97 743.44 1309.3 743.806 1307.7ZM749.656 1312.15C750.023 1312.48 750.556 1313.07 751.256 1313.9C751.99 1314.7 752.756 1315.58 753.556 1316.55C754.39 1317.48 755.156 1318.37 755.856 1319.2C756.556 1320 757.04 1320.58 757.306 1320.95L753.656 1325.95C753.256 1325.18 752.756 1324.32 752.156 1323.35C751.556 1322.38 750.906 1321.38 750.206 1320.35C749.54 1319.28 748.873 1318.3 748.206 1317.4C747.573 1316.5 747.023 1315.75 746.556 1315.15L749.656 1312.15Z" fill="black"/>
<path d="M688.406 1302.2H729.706V1327.3H723.406V1308.1H694.406V1327.55H688.406V1302.2ZM691.506 1318.9H726.906V1324.8H691.506V1318.9ZM705.706 1293.5H712.056V1340.45H705.706V1293.5Z" fill="black"/>
<path d="M656.405 1301.05C657.939 1301.25 659.655 1301.4 661.555 1301.5C663.489 1301.57 665.439 1301.6 667.405 1301.6C669.405 1301.57 671.322 1301.5 673.155 1301.4C674.989 1301.27 676.572 1301.13 677.905 1301V1307.45C676.372 1307.58 674.689 1307.7 672.855 1307.8C671.022 1307.87 669.139 1307.9 667.205 1307.9C665.272 1307.9 663.372 1307.87 661.505 1307.8C659.672 1307.7 657.972 1307.58 656.405 1307.45V1301.05ZM660.405 1322.4C660.205 1323.23 660.055 1323.98 659.955 1324.65C659.855 1325.28 659.805 1325.93 659.805 1326.6C659.805 1327.13 659.939 1327.63 660.205 1328.1C660.472 1328.53 660.872 1328.92 661.405 1329.25C661.972 1329.55 662.689 1329.78 663.555 1329.95C664.455 1330.08 665.539 1330.15 666.805 1330.15C669.039 1330.15 671.139 1330.05 673.105 1329.85C675.072 1329.62 677.155 1329.28 679.355 1328.85L679.455 1335.6C677.855 1335.9 676.005 1336.13 673.905 1336.3C671.839 1336.47 669.389 1336.55 666.555 1336.55C662.255 1336.55 659.055 1335.83 656.955 1334.4C654.855 1332.93 653.805 1330.92 653.805 1328.35C653.805 1327.38 653.872 1326.38 654.005 1325.35C654.172 1324.28 654.389 1323.12 654.655 1321.85L660.405 1322.4ZM648.705 1297.7C648.572 1298.03 648.422 1298.5 648.255 1299.1C648.089 1299.7 647.922 1300.28 647.755 1300.85C647.622 1301.42 647.522 1301.85 647.455 1302.15C647.355 1302.85 647.189 1303.77 646.955 1304.9C646.755 1306 646.539 1307.25 646.305 1308.65C646.105 1310.02 645.905 1311.42 645.705 1312.85C645.505 1314.28 645.339 1315.67 645.205 1317C645.105 1318.33 645.055 1319.5 645.055 1320.5C645.055 1320.97 645.055 1321.5 645.055 1322.1C645.089 1322.7 645.155 1323.25 645.255 1323.75C645.489 1323.18 645.739 1322.62 646.005 1322.05C646.272 1321.48 646.539 1320.92 646.805 1320.35C647.072 1319.75 647.305 1319.18 647.505 1318.65L650.605 1321.1C650.139 1322.47 649.655 1323.93 649.155 1325.5C648.689 1327.07 648.255 1328.55 647.855 1329.95C647.489 1331.32 647.205 1332.45 647.005 1333.35C646.939 1333.72 646.872 1334.13 646.805 1334.6C646.772 1335.07 646.755 1335.43 646.755 1335.7C646.755 1335.97 646.755 1336.28 646.755 1336.65C646.789 1337.05 646.822 1337.42 646.855 1337.75L641.055 1338.15C640.555 1336.42 640.105 1334.12 639.705 1331.25C639.305 1328.35 639.105 1325.2 639.105 1321.8C639.105 1319.93 639.189 1318.03 639.355 1316.1C639.522 1314.17 639.722 1312.32 639.955 1310.55C640.189 1308.75 640.405 1307.12 640.605 1305.65C640.839 1304.18 641.039 1302.97 641.205 1302C641.272 1301.3 641.355 1300.52 641.455 1299.65C641.589 1298.75 641.672 1297.9 641.705 1297.1L648.705 1297.7Z" fill="black"/>
<path d="M586.357 1301.55H631.707V1307.25H586.357V1301.55ZM603.057 1313.8H622.207V1319.45H603.057V1313.8ZM619.957 1313.8H626.157C626.157 1313.8 626.14 1313.96 626.107 1314.3C626.107 1314.6 626.107 1314.95 626.107 1315.35C626.107 1315.75 626.074 1316.1 626.007 1316.4C625.707 1320.96 625.374 1324.7 625.007 1327.6C624.64 1330.5 624.224 1332.76 623.757 1334.4C623.29 1336 622.724 1337.16 622.057 1337.9C621.29 1338.73 620.49 1339.3 619.657 1339.6C618.824 1339.9 617.824 1340.11 616.657 1340.25C615.69 1340.35 614.424 1340.38 612.857 1340.35C611.29 1340.35 609.674 1340.31 608.007 1340.25C607.974 1339.38 607.757 1338.38 607.357 1337.25C606.957 1336.15 606.457 1335.18 605.857 1334.35C607.59 1334.51 609.257 1334.61 610.857 1334.65C612.457 1334.68 613.607 1334.7 614.307 1334.7C614.874 1334.7 615.34 1334.66 615.707 1334.6C616.107 1334.5 616.457 1334.31 616.757 1334.05C617.29 1333.61 617.74 1332.66 618.107 1331.2C618.507 1329.73 618.857 1327.65 619.157 1324.95C619.457 1322.25 619.724 1318.83 619.957 1314.7V1313.8ZM600.807 1304.95H607.507C607.374 1307.61 607.157 1310.31 606.857 1313.05C606.59 1315.75 606.124 1318.43 605.457 1321.1C604.79 1323.73 603.824 1326.25 602.557 1328.65C601.29 1331.05 599.624 1333.28 597.557 1335.35C595.49 1337.41 592.874 1339.25 589.707 1340.85C589.274 1340.01 588.64 1339.11 587.807 1338.15C587.007 1337.18 586.224 1336.38 585.457 1335.75C588.357 1334.41 590.724 1332.86 592.557 1331.1C594.424 1329.3 595.89 1327.36 596.957 1325.3C598.024 1323.2 598.807 1321.01 599.307 1318.75C599.84 1316.48 600.19 1314.18 600.357 1311.85C600.557 1309.51 600.707 1307.21 600.807 1304.95ZM605.607 1293.3H611.857V1303.8H605.607V1293.3Z" fill="black"/>
<path d="M557.707 1296.1C557.507 1296.77 557.307 1297.58 557.107 1298.55C556.907 1299.52 556.757 1300.27 556.657 1300.8C556.424 1301.93 556.124 1303.32 555.757 1304.95C555.424 1306.58 555.04 1308.32 554.607 1310.15C554.207 1311.98 553.79 1313.73 553.357 1315.4C552.924 1317.17 552.39 1319.08 551.757 1321.15C551.124 1323.18 550.44 1325.27 549.707 1327.4C549.007 1329.5 548.29 1331.52 547.557 1333.45C546.824 1335.35 546.107 1337.05 545.407 1338.55L538.457 1336.2C539.19 1334.93 539.974 1333.4 540.807 1331.6C541.64 1329.77 542.44 1327.8 543.207 1325.7C544.007 1323.6 544.74 1321.52 545.407 1319.45C546.074 1317.38 546.64 1315.47 547.107 1313.7C547.44 1312.53 547.757 1311.33 548.057 1310.1C548.357 1308.87 548.624 1307.67 548.857 1306.5C549.09 1305.33 549.29 1304.25 549.457 1303.25C549.657 1302.22 549.807 1301.32 549.907 1300.55C550.007 1299.62 550.074 1298.68 550.107 1297.75C550.14 1296.82 550.124 1296.07 550.057 1295.5L557.707 1296.1ZM544.957 1303.55C546.99 1303.55 549.107 1303.45 551.307 1303.25C553.507 1303.05 555.724 1302.77 557.957 1302.4C560.19 1302.03 562.407 1301.6 564.607 1301.1V1307.35C562.54 1307.82 560.34 1308.22 558.007 1308.55C555.674 1308.88 553.374 1309.15 551.107 1309.35C548.84 1309.52 546.757 1309.6 544.857 1309.6C543.657 1309.6 542.574 1309.58 541.607 1309.55C540.64 1309.48 539.707 1309.43 538.807 1309.4L538.657 1303.15C539.957 1303.28 541.074 1303.38 542.007 1303.45C542.94 1303.52 543.924 1303.55 544.957 1303.55ZM560.657 1311.2C562.057 1311.07 563.607 1310.95 565.307 1310.85C567.007 1310.75 568.657 1310.7 570.257 1310.7C571.69 1310.7 573.14 1310.73 574.607 1310.8C576.107 1310.87 577.59 1310.98 579.057 1311.15L578.907 1317.15C577.674 1316.98 576.307 1316.85 574.807 1316.75C573.34 1316.62 571.84 1316.55 570.307 1316.55C568.607 1316.55 566.957 1316.6 565.357 1316.7C563.79 1316.77 562.224 1316.9 560.657 1317.1V1311.2ZM563.357 1323.8C563.157 1324.5 562.99 1325.23 562.857 1326C562.724 1326.73 562.657 1327.38 562.657 1327.95C562.657 1328.48 562.774 1328.98 563.007 1329.45C563.24 1329.92 563.607 1330.33 564.107 1330.7C564.607 1331.03 565.29 1331.3 566.157 1331.5C567.057 1331.7 568.174 1331.8 569.507 1331.8C571.207 1331.8 572.907 1331.72 574.607 1331.55C576.34 1331.35 578.107 1331.08 579.907 1330.75L579.657 1337.15C578.257 1337.32 576.707 1337.47 575.007 1337.6C573.307 1337.77 571.457 1337.85 569.457 1337.85C565.257 1337.85 562.04 1337.17 559.807 1335.8C557.607 1334.4 556.507 1332.43 556.507 1329.9C556.507 1328.77 556.607 1327.62 556.807 1326.45C557.007 1325.28 557.207 1324.2 557.407 1323.2L563.357 1323.8Z" fill="black"/>
<path d="M497.005 1300.25C496.871 1300.85 496.755 1301.53 496.655 1302.3C496.588 1303.07 496.521 1303.82 496.455 1304.55C496.421 1305.28 496.405 1305.88 496.405 1306.35C496.371 1307.45 496.355 1308.58 496.355 1309.75C496.388 1310.92 496.421 1312.12 496.455 1313.35C496.521 1314.55 496.605 1315.75 496.705 1316.95C496.938 1319.35 497.271 1321.47 497.705 1323.3C498.138 1325.13 498.705 1326.57 499.405 1327.6C500.105 1328.6 500.988 1329.1 502.055 1329.1C502.621 1329.1 503.171 1328.78 503.705 1328.15C504.271 1327.52 504.771 1326.7 505.205 1325.7C505.671 1324.67 506.071 1323.58 506.405 1322.45C506.771 1321.32 507.088 1320.25 507.355 1319.25L512.355 1325.35C511.255 1328.25 510.155 1330.57 509.055 1332.3C507.988 1334 506.871 1335.23 505.705 1336C504.538 1336.73 503.271 1337.1 501.905 1337.1C500.105 1337.1 498.388 1336.5 496.755 1335.3C495.155 1334.1 493.788 1332.17 492.655 1329.5C491.521 1326.8 490.721 1323.22 490.255 1318.75C490.088 1317.22 489.955 1315.6 489.855 1313.9C489.788 1312.2 489.738 1310.58 489.705 1309.05C489.705 1307.52 489.705 1306.25 489.705 1305.25C489.705 1304.55 489.671 1303.72 489.605 1302.75C489.538 1301.78 489.438 1300.92 489.305 1300.15L497.005 1300.25ZM522.005 1301.4C522.938 1302.53 523.838 1303.92 524.705 1305.55C525.571 1307.18 526.371 1308.93 527.105 1310.8C527.838 1312.67 528.488 1314.58 529.055 1316.55C529.621 1318.48 530.071 1320.38 530.405 1322.25C530.771 1324.08 531.005 1325.77 531.105 1327.3L524.505 1329.85C524.338 1327.82 524.038 1325.6 523.605 1323.2C523.171 1320.8 522.588 1318.38 521.855 1315.95C521.121 1313.52 520.238 1311.22 519.205 1309.05C518.205 1306.88 517.021 1305.02 515.655 1303.45L522.005 1301.4Z" fill="black"/>
<path d="M456.206 1296.65C456.006 1297.35 455.79 1298.18 455.556 1299.15C455.356 1300.08 455.206 1300.83 455.106 1301.4C454.873 1302.53 454.573 1303.92 454.206 1305.55C453.873 1307.18 453.506 1308.92 453.106 1310.75C452.706 1312.55 452.29 1314.3 451.856 1316C451.39 1317.73 450.84 1319.63 450.206 1321.7C449.606 1323.77 448.94 1325.85 448.206 1327.95C447.506 1330.05 446.79 1332.07 446.056 1334C445.323 1335.93 444.606 1337.65 443.906 1339.15L436.906 1336.8C437.673 1335.53 438.456 1333.98 439.256 1332.15C440.09 1330.32 440.906 1328.37 441.706 1326.3C442.506 1324.2 443.24 1322.12 443.906 1320.05C444.573 1317.95 445.14 1316.03 445.606 1314.3C445.906 1313.1 446.206 1311.88 446.506 1310.65C446.806 1309.42 447.073 1308.22 447.306 1307.05C447.573 1305.88 447.79 1304.8 447.956 1303.8C448.156 1302.77 448.306 1301.88 448.406 1301.15C448.506 1300.22 448.573 1299.28 448.606 1298.35C448.64 1297.42 448.623 1296.65 448.556 1296.05L456.206 1296.65ZM443.456 1304.15C445.49 1304.15 447.606 1304.05 449.806 1303.85C452.006 1303.65 454.223 1303.37 456.456 1303C458.69 1302.6 460.906 1302.15 463.106 1301.65V1307.9C461.04 1308.4 458.84 1308.82 456.506 1309.15C454.173 1309.48 451.873 1309.75 449.606 1309.95C447.34 1310.12 445.256 1310.2 443.356 1310.2C442.156 1310.2 441.073 1310.18 440.106 1310.15C439.14 1310.08 438.206 1310.03 437.306 1310L437.156 1303.75C438.456 1303.88 439.573 1303.98 440.506 1304.05C441.44 1304.12 442.423 1304.15 443.456 1304.15ZM459.156 1311.8C460.556 1311.63 462.106 1311.52 463.806 1311.45C465.506 1311.35 467.156 1311.3 468.756 1311.3C470.19 1311.3 471.64 1311.33 473.106 1311.4C474.606 1311.47 476.09 1311.58 477.556 1311.75L477.406 1317.75C476.173 1317.58 474.806 1317.43 473.306 1317.3C471.84 1317.17 470.34 1317.1 468.806 1317.1C467.073 1317.1 465.423 1317.15 463.856 1317.25C462.29 1317.32 460.723 1317.45 459.156 1317.65V1311.8ZM461.856 1324.35C461.656 1325.05 461.49 1325.78 461.356 1326.55C461.223 1327.32 461.156 1327.97 461.156 1328.5C461.156 1329.07 461.273 1329.58 461.506 1330.05C461.74 1330.52 462.106 1330.93 462.606 1331.3C463.106 1331.63 463.79 1331.9 464.656 1332.1C465.556 1332.27 466.673 1332.35 468.006 1332.35C469.673 1332.35 471.373 1332.27 473.106 1332.1C474.84 1331.93 476.606 1331.68 478.406 1331.35L478.156 1337.7C476.756 1337.9 475.206 1338.07 473.506 1338.2C471.806 1338.37 469.956 1338.45 467.956 1338.45C463.756 1338.45 460.54 1337.75 458.306 1336.35C456.106 1334.95 455.006 1333 455.006 1330.5C455.006 1329.33 455.09 1328.17 455.256 1327C455.456 1325.83 455.656 1324.77 455.856 1323.8L461.856 1324.35ZM472.206 1298.1C472.64 1298.7 473.09 1299.42 473.556 1300.25C474.056 1301.08 474.54 1301.92 475.006 1302.75C475.473 1303.58 475.856 1304.32 476.156 1304.95L472.156 1306.7C471.823 1306 471.44 1305.23 471.006 1304.4C470.573 1303.57 470.123 1302.73 469.656 1301.9C469.19 1301.07 468.723 1300.35 468.256 1299.75L472.206 1298.1ZM478.106 1295.85C478.573 1296.45 479.056 1297.18 479.556 1298.05C480.056 1298.88 480.54 1299.72 481.006 1300.55C481.506 1301.35 481.89 1302.05 482.156 1302.65L478.206 1304.35C477.673 1303.28 477.04 1302.1 476.306 1300.8C475.573 1299.5 474.856 1298.38 474.156 1297.45L478.106 1295.85Z" fill="black"/>
<path d="M407.707 1296.1C407.507 1296.77 407.307 1297.58 407.107 1298.55C406.907 1299.52 406.757 1300.27 406.657 1300.8C406.424 1301.93 406.124 1303.32 405.757 1304.95C405.424 1306.58 405.04 1308.32 404.607 1310.15C404.207 1311.98 403.79 1313.73 403.357 1315.4C402.924 1317.17 402.39 1319.08 401.757 1321.15C401.124 1323.18 400.44 1325.27 399.707 1327.4C399.007 1329.5 398.29 1331.52 397.557 1333.45C396.824 1335.35 396.107 1337.05 395.407 1338.55L388.457 1336.2C389.19 1334.93 389.974 1333.4 390.807 1331.6C391.64 1329.77 392.44 1327.8 393.207 1325.7C394.007 1323.6 394.74 1321.52 395.407 1319.45C396.074 1317.38 396.64 1315.47 397.107 1313.7C397.44 1312.53 397.757 1311.33 398.057 1310.1C398.357 1308.87 398.624 1307.67 398.857 1306.5C399.09 1305.33 399.29 1304.25 399.457 1303.25C399.657 1302.22 399.807 1301.32 399.907 1300.55C400.007 1299.62 400.074 1298.68 400.107 1297.75C400.14 1296.82 400.124 1296.07 400.057 1295.5L407.707 1296.1ZM394.957 1303.55C396.99 1303.55 399.107 1303.45 401.307 1303.25C403.507 1303.05 405.724 1302.77 407.957 1302.4C410.19 1302.03 412.407 1301.6 414.607 1301.1V1307.35C412.54 1307.82 410.34 1308.22 408.007 1308.55C405.674 1308.88 403.374 1309.15 401.107 1309.35C398.84 1309.52 396.757 1309.6 394.857 1309.6C393.657 1309.6 392.574 1309.58 391.607 1309.55C390.64 1309.48 389.707 1309.43 388.807 1309.4L388.657 1303.15C389.957 1303.28 391.074 1303.38 392.007 1303.45C392.94 1303.52 393.924 1303.55 394.957 1303.55ZM410.657 1311.2C412.057 1311.07 413.607 1310.95 415.307 1310.85C417.007 1310.75 418.657 1310.7 420.257 1310.7C421.69 1310.7 423.14 1310.73 424.607 1310.8C426.107 1310.87 427.59 1310.98 429.057 1311.15L428.907 1317.15C427.674 1316.98 426.307 1316.85 424.807 1316.75C423.34 1316.62 421.84 1316.55 420.307 1316.55C418.607 1316.55 416.957 1316.6 415.357 1316.7C413.79 1316.77 412.224 1316.9 410.657 1317.1V1311.2ZM413.357 1323.8C413.157 1324.5 412.99 1325.23 412.857 1326C412.724 1326.73 412.657 1327.38 412.657 1327.95C412.657 1328.48 412.774 1328.98 413.007 1329.45C413.24 1329.92 413.607 1330.33 414.107 1330.7C414.607 1331.03 415.29 1331.3 416.157 1331.5C417.057 1331.7 418.174 1331.8 419.507 1331.8C421.207 1331.8 422.907 1331.72 424.607 1331.55C426.34 1331.35 428.107 1331.08 429.907 1330.75L429.657 1337.15C428.257 1337.32 426.707 1337.47 425.007 1337.6C423.307 1337.77 421.457 1337.85 419.457 1337.85C415.257 1337.85 412.04 1337.17 409.807 1335.8C407.607 1334.4 406.507 1332.43 406.507 1329.9C406.507 1328.77 406.607 1327.62 406.807 1326.45C407.007 1325.28 407.207 1324.2 407.407 1323.2L413.357 1323.8Z" fill="black"/>
<path d="M347.005 1300.25C346.871 1300.85 346.755 1301.53 346.655 1302.3C346.588 1303.07 346.521 1303.82 346.455 1304.55C346.421 1305.28 346.405 1305.88 346.405 1306.35C346.371 1307.45 346.355 1308.58 346.355 1309.75C346.388 1310.92 346.421 1312.12 346.455 1313.35C346.521 1314.55 346.605 1315.75 346.705 1316.95C346.938 1319.35 347.271 1321.47 347.705 1323.3C348.138 1325.13 348.705 1326.57 349.405 1327.6C350.105 1328.6 350.988 1329.1 352.055 1329.1C352.621 1329.1 353.171 1328.78 353.705 1328.15C354.271 1327.52 354.771 1326.7 355.205 1325.7C355.671 1324.67 356.071 1323.58 356.405 1322.45C356.771 1321.32 357.088 1320.25 357.355 1319.25L362.355 1325.35C361.255 1328.25 360.155 1330.57 359.055 1332.3C357.988 1334 356.871 1335.23 355.705 1336C354.538 1336.73 353.271 1337.1 351.905 1337.1C350.105 1337.1 348.388 1336.5 346.755 1335.3C345.155 1334.1 343.788 1332.17 342.655 1329.5C341.521 1326.8 340.721 1323.22 340.255 1318.75C340.088 1317.22 339.955 1315.6 339.855 1313.9C339.788 1312.2 339.738 1310.58 339.705 1309.05C339.705 1307.52 339.705 1306.25 339.705 1305.25C339.705 1304.55 339.671 1303.72 339.605 1302.75C339.538 1301.78 339.438 1300.92 339.305 1300.15L347.005 1300.25ZM372.005 1301.4C372.938 1302.53 373.838 1303.92 374.705 1305.55C375.571 1307.18 376.371 1308.93 377.105 1310.8C377.838 1312.67 378.488 1314.58 379.055 1316.55C379.621 1318.48 380.071 1320.38 380.405 1322.25C380.771 1324.08 381.005 1325.77 381.105 1327.3L374.505 1329.85C374.338 1327.82 374.038 1325.6 373.605 1323.2C373.171 1320.8 372.588 1318.38 371.855 1315.95C371.121 1313.52 370.238 1311.22 369.205 1309.05C368.205 1306.88 367.021 1305.02 365.655 1303.45L372.005 1301.4Z" fill="black"/>
<path d="M295.455 1296.3H309.655V1302.4H295.455V1296.3ZM306.705 1296.3H312.905C312.905 1297.9 312.972 1299.71 313.105 1301.75C313.239 1303.75 313.522 1305.9 313.955 1308.2C314.389 1310.46 315.039 1312.8 315.905 1315.2C316.772 1317.6 317.922 1319.98 319.355 1322.35C320.822 1324.68 322.655 1326.93 324.855 1329.1C327.055 1331.26 329.689 1333.26 332.755 1335.1C332.322 1335.43 331.789 1335.91 331.155 1336.55C330.522 1337.18 329.905 1337.83 329.305 1338.5C328.739 1339.2 328.272 1339.81 327.905 1340.35C324.772 1338.41 322.055 1336.25 319.755 1333.85C317.455 1331.41 315.522 1328.85 313.955 1326.15C312.389 1323.41 311.122 1320.66 310.155 1317.9C309.189 1315.1 308.455 1312.38 307.955 1309.75C307.455 1307.08 307.122 1304.6 306.955 1302.3C306.789 1300 306.705 1298 306.705 1296.3ZM304.555 1307.3L311.405 1308.55C310.272 1313.48 308.755 1317.96 306.855 1322C304.955 1326.03 302.672 1329.58 300.005 1332.65C297.372 1335.71 294.322 1338.3 290.855 1340.4C290.489 1339.96 289.972 1339.43 289.305 1338.8C288.639 1338.2 287.939 1337.58 287.205 1336.95C286.505 1336.35 285.889 1335.86 285.355 1335.5C290.589 1332.86 294.755 1329.16 297.855 1324.4C300.955 1319.6 303.189 1313.9 304.555 1307.3Z" fill="black"/>
<path d="M254.808 1297.4H281.358V1301.6H254.808V1297.4ZM254.008 1309.45H282.308V1313.65H254.008V1309.45ZM253.758 1328.15H282.358V1332.4H253.758V1328.15ZM256.008 1303.45H280.608V1307.45H256.008V1303.45ZM260.258 1293.55H265.458V1311.3H260.258V1293.55ZM270.608 1293.55H275.908V1311.3H270.608V1293.55ZM265.458 1311.4H270.658V1329.35H265.458V1311.4ZM274.558 1315.55H280.008V1335.05C280.008 1336.28 279.858 1337.25 279.558 1337.95C279.291 1338.68 278.741 1339.25 277.908 1339.65C277.041 1340.05 276.008 1340.28 274.808 1340.35C273.641 1340.45 272.224 1340.5 270.558 1340.5C270.458 1339.76 270.258 1338.95 269.958 1338.05C269.658 1337.15 269.341 1336.36 269.008 1335.7C269.974 1335.73 270.924 1335.75 271.858 1335.75C272.824 1335.75 273.458 1335.75 273.758 1335.75C274.058 1335.75 274.258 1335.7 274.358 1335.6C274.491 1335.46 274.558 1335.26 274.558 1335V1315.55ZM256.408 1315.55H276.908V1319.75H261.758V1340.55H256.408V1315.55ZM259.058 1322H276.858V1325.75H259.058V1322ZM240.208 1328.15L245.408 1329.35C244.774 1331.45 243.924 1333.51 242.858 1335.55C241.791 1337.55 240.658 1339.23 239.458 1340.6C239.158 1340.3 238.724 1339.96 238.158 1339.6C237.591 1339.23 237.024 1338.86 236.458 1338.5C235.891 1338.13 235.408 1337.85 235.008 1337.65C236.141 1336.45 237.158 1335 238.058 1333.3C238.991 1331.6 239.708 1329.88 240.208 1328.15ZM246.058 1329.95L250.508 1328.05C251.341 1329.31 252.158 1330.71 252.958 1332.25C253.791 1333.75 254.424 1335.06 254.858 1336.2L250.208 1338.4C249.974 1337.63 249.624 1336.76 249.158 1335.8C248.724 1334.8 248.241 1333.8 247.708 1332.8C247.174 1331.76 246.624 1330.81 246.058 1329.95ZM242.908 1309.2V1313.9H247.858V1309.2H242.908ZM242.908 1318.3V1323H247.858V1318.3H242.908ZM242.908 1300.15V1304.75H247.858V1300.15H242.908ZM237.808 1295.4H253.108V1327.8H237.808V1295.4Z" fill="black"/>
<path d="M193.807 1300.15C195.64 1300.38 197.707 1300.55 200.007 1300.65C202.307 1300.75 204.774 1300.8 207.407 1300.8C209.074 1300.8 210.774 1300.77 212.507 1300.7C214.24 1300.63 215.924 1300.55 217.557 1300.45C219.19 1300.32 220.64 1300.2 221.907 1300.1V1306.75C220.74 1306.82 219.324 1306.9 217.657 1307C216.024 1307.1 214.307 1307.18 212.507 1307.25C210.74 1307.32 209.057 1307.35 207.457 1307.35C204.857 1307.35 202.44 1307.3 200.207 1307.2C197.974 1307.07 195.84 1306.93 193.807 1306.8V1300.15ZM198.007 1321.35C197.774 1322.22 197.574 1323.07 197.407 1323.9C197.24 1324.73 197.157 1325.57 197.157 1326.4C197.157 1328.03 197.957 1329.37 199.557 1330.4C201.19 1331.4 203.807 1331.9 207.407 1331.9C209.674 1331.9 211.857 1331.82 213.957 1331.65C216.09 1331.48 218.09 1331.27 219.957 1331C221.824 1330.7 223.49 1330.35 224.957 1329.95L225.007 1336.95C223.574 1337.28 221.94 1337.58 220.107 1337.85C218.307 1338.12 216.357 1338.32 214.257 1338.45C212.19 1338.62 209.99 1338.7 207.657 1338.7C203.824 1338.7 200.64 1338.27 198.107 1337.4C195.574 1336.57 193.657 1335.37 192.357 1333.8C191.09 1332.2 190.457 1330.25 190.457 1327.95C190.457 1326.52 190.574 1325.2 190.807 1324C191.04 1322.77 191.24 1321.68 191.407 1320.75L198.007 1321.35ZM223.207 1295C223.64 1295.6 224.09 1296.32 224.557 1297.15C225.057 1297.98 225.54 1298.82 226.007 1299.65C226.474 1300.48 226.874 1301.22 227.207 1301.85L223.157 1303.6C222.657 1302.57 222.04 1301.38 221.307 1300.05C220.607 1298.72 219.924 1297.57 219.257 1296.6L223.207 1295ZM229.157 1292.75C229.59 1293.38 230.057 1294.12 230.557 1294.95C231.057 1295.78 231.54 1296.62 232.007 1297.45C232.507 1298.25 232.907 1298.95 233.207 1299.55L229.207 1301.25C228.674 1300.22 228.04 1299.05 227.307 1297.75C226.574 1296.42 225.857 1295.28 225.157 1294.35L229.157 1292.75Z" fill="black"/>
<path d="M733.618 1175.25H772.74V1183.48H733.618V1175.25ZM729.785 1154.8H777.284V1186.25H768.125V1162.96H738.518V1186.32H729.785V1154.8ZM743.701 1119.16L753.428 1122.35C751.866 1125.24 750.185 1128.2 748.387 1131.23C746.635 1134.21 744.86 1137.05 743.061 1139.75C741.263 1142.4 739.559 1144.76 737.949 1146.85L730.281 1143.72C731.891 1141.54 733.524 1139.06 735.181 1136.27C736.837 1133.43 738.399 1130.52 739.867 1127.53C741.381 1124.55 742.659 1121.76 743.701 1119.16ZM760.741 1131.79L767.486 1126.82C769.852 1128.72 772.266 1130.85 774.728 1133.21C777.236 1135.53 779.532 1137.9 781.615 1140.31C783.745 1142.68 785.425 1144.88 786.656 1146.92L779.272 1152.6C778.136 1150.56 776.55 1148.34 774.514 1145.92C772.526 1143.46 770.325 1141 767.911 1138.54C765.497 1136.08 763.107 1133.83 760.741 1131.79ZM722.188 1139.82C725.785 1139.72 729.784 1139.6 734.186 1139.46C738.636 1139.27 743.298 1139.08 748.173 1138.89C753.096 1138.7 758.09 1138.52 763.155 1138.33C768.219 1138.14 773.189 1137.95 778.065 1137.76L777.71 1145.99C772.787 1146.28 767.817 1146.54 762.799 1146.78C757.782 1146.96 752.859 1147.18 748.031 1147.41C743.251 1147.6 738.707 1147.79 734.4 1147.98C730.092 1148.12 726.187 1148.27 722.685 1148.41L722.188 1139.82Z" fill="black"/>
<path d="M650.763 1129.8H714.379V1137.97H650.763V1129.8ZM681.932 1140.52H690.523V1186.32H681.932V1140.52ZM662.123 1148.69H706.072V1156.78H670.643V1180H662.123V1148.69ZM702.38 1148.69H710.971V1170.91C710.971 1172.85 710.711 1174.41 710.19 1175.6C709.717 1176.73 708.77 1177.61 707.35 1178.22C706.025 1178.84 704.368 1179.22 702.38 1179.36C700.439 1179.5 698.12 1179.57 695.422 1179.57C695.28 1178.39 694.949 1177.07 694.428 1175.6C693.907 1174.13 693.363 1172.88 692.795 1171.83C693.884 1171.88 694.972 1171.91 696.061 1171.91C697.197 1171.91 698.191 1171.91 699.043 1171.91C699.942 1171.91 700.558 1171.91 700.889 1171.91C701.457 1171.91 701.836 1171.83 702.025 1171.69C702.262 1171.5 702.38 1171.17 702.38 1170.7V1148.69ZM673.554 1119.51L682.358 1121.5C680.654 1127.32 678.477 1133.07 675.826 1138.75C673.223 1144.43 670.051 1149.73 666.312 1154.65C662.573 1159.53 658.171 1163.72 653.106 1167.22C652.775 1166.51 652.301 1165.71 651.686 1164.81C651.118 1163.86 650.526 1162.94 649.911 1162.04C649.296 1161.14 648.728 1160.38 648.207 1159.76C651.568 1157.59 654.597 1154.98 657.295 1151.95C660.04 1148.88 662.454 1145.54 664.537 1141.94C666.62 1138.35 668.418 1134.65 669.933 1130.87C671.448 1127.03 672.655 1123.25 673.554 1119.51Z" fill="black"/>
<path d="M592.827 1145H616.967V1152.17H592.827V1145ZM618.458 1145H643.947V1152.17H618.458V1145ZM601.773 1136.48H609.37V1186.25H601.773V1136.48ZM626.197 1136.48H633.865V1186.25H626.197V1136.48ZM600.992 1149.47L606.246 1150.89C605.489 1154.25 604.518 1157.61 603.335 1160.97C602.199 1164.33 600.897 1167.43 599.43 1170.27C597.963 1173.11 596.33 1175.5 594.531 1177.44C593.963 1176.54 593.135 1175.53 592.046 1174.39C591.005 1173.21 590.058 1172.28 589.206 1171.62C590.91 1170.01 592.519 1168.02 594.034 1165.66C595.549 1163.29 596.898 1160.71 598.081 1157.92C599.312 1155.08 600.282 1152.26 600.992 1149.47ZM625.842 1149.47L630.67 1150.89C629.865 1154.2 628.848 1157.54 627.617 1160.9C626.386 1164.21 625.014 1167.31 623.499 1170.2C622.032 1173.09 620.446 1175.53 618.742 1177.51C618.127 1176.66 617.298 1175.67 616.257 1174.53C615.216 1173.4 614.293 1172.52 613.488 1171.9C615.192 1170.3 616.825 1168.28 618.387 1165.87C619.949 1163.41 621.369 1160.76 622.647 1157.92C623.925 1155.08 624.99 1152.26 625.842 1149.47ZM635.072 1148.97C635.829 1151.67 636.776 1154.39 637.912 1157.14C639.095 1159.88 640.373 1162.46 641.746 1164.88C643.166 1167.29 644.586 1169.35 646.006 1171.05C645.154 1171.67 644.16 1172.54 643.024 1173.68C641.935 1174.82 641.06 1175.88 640.397 1176.87C639.024 1174.84 637.699 1172.38 636.421 1169.49C635.19 1166.56 634.054 1163.46 633.013 1160.19C631.972 1156.88 631.096 1153.63 630.386 1150.46L635.072 1148.97ZM608.305 1152.66C608.778 1153.04 609.488 1153.66 610.435 1154.51C611.382 1155.36 612.376 1156.28 613.417 1157.28C614.458 1158.27 615.405 1159.2 616.257 1160.05C617.156 1160.9 617.819 1161.49 618.245 1161.82L613.985 1168.64C613.417 1167.83 612.707 1166.89 611.855 1165.8C611.05 1164.71 610.151 1163.6 609.157 1162.46C608.21 1161.33 607.311 1160.26 606.459 1159.27C605.607 1158.27 604.897 1157.44 604.329 1156.78L608.305 1152.66ZM609.299 1119.65H618.174V1132.36H609.299V1119.65ZM587.786 1126.96H644.018V1135.06H587.786V1126.96ZM582.674 1126.96H591.194V1146.56C591.194 1149.4 591.099 1152.55 590.91 1156C590.768 1159.46 590.46 1162.98 589.987 1166.58C589.514 1170.18 588.827 1173.68 587.928 1177.09C587.076 1180.45 585.916 1183.5 584.449 1186.25C583.928 1185.73 583.218 1185.11 582.319 1184.4C581.42 1183.74 580.497 1183.08 579.55 1182.41C578.651 1181.8 577.87 1181.35 577.207 1181.06C578.485 1178.6 579.479 1175.9 580.189 1172.97C580.946 1170.03 581.491 1167.03 581.822 1163.95C582.201 1160.88 582.437 1157.85 582.532 1154.86C582.627 1151.88 582.674 1149.11 582.674 1146.56V1126.96Z" fill="black"/>
<path d="M509.117 1128.38H571.952V1136.4H509.117V1128.38ZM513.732 1144.14H567.763V1152.24H513.732V1144.14ZM521.4 1176.09H559.101V1183.9H521.4V1176.09ZM535.955 1119.65H544.972V1148.19H535.955V1119.65ZM516.43 1158.06H565.349V1186.53H556.048V1165.66H525.234V1186.53H516.43V1158.06Z" fill="black"/>
<path d="M437.763 1123.84H501.379V1130.72H437.763V1123.84ZM453.383 1119.65H461.761V1134.98H453.383V1119.65ZM476.955 1119.65H485.475V1134.7H476.955V1119.65ZM443.585 1136.33H455.371V1142.94H443.585V1136.33ZM463.039 1142.37H499.746V1147.98H463.039V1142.37ZM461.477 1151.74H502.018V1157.49H461.477V1151.74ZM443.585 1148.55H455.371V1154.94H443.585V1148.55ZM443.514 1160.97H455.3V1167.36H443.514V1160.97ZM440.603 1136.33H447.49V1155.79C447.49 1158.11 447.419 1160.62 447.277 1163.31C447.135 1166.01 446.851 1168.76 446.425 1171.55C445.999 1174.34 445.407 1177.02 444.65 1179.57C443.892 1182.13 442.875 1184.47 441.597 1186.6C441.218 1186.22 440.65 1185.77 439.893 1185.25C439.135 1184.78 438.378 1184.31 437.621 1183.83C436.863 1183.41 436.201 1183.08 435.633 1182.84C437.147 1180.24 438.236 1177.37 438.899 1174.25C439.609 1171.08 440.058 1167.88 440.248 1164.66C440.484 1161.44 440.603 1158.46 440.603 1155.72V1136.33ZM452.815 1136.33H459.986V1178.65C459.986 1180.26 459.796 1181.56 459.418 1182.55C459.086 1183.6 458.447 1184.4 457.501 1184.97C456.507 1185.54 455.323 1185.89 453.951 1186.03C452.578 1186.18 450.945 1186.25 449.052 1186.25C448.957 1185.3 448.697 1184.16 448.271 1182.84C447.892 1181.51 447.49 1180.4 447.064 1179.5C448.058 1179.55 449.028 1179.57 449.975 1179.57C450.921 1179.57 451.56 1179.57 451.892 1179.57C452.507 1179.57 452.815 1179.24 452.815 1178.58V1136.33ZM488.812 1145.71C489.995 1149.54 491.817 1152.95 494.279 1155.93C496.787 1158.86 499.982 1160.99 503.864 1162.32C503.106 1162.98 502.278 1163.91 501.379 1165.09C500.527 1166.27 499.864 1167.31 499.391 1168.21C496.503 1166.93 493.971 1165.28 491.794 1163.24C489.616 1161.16 487.77 1158.75 486.256 1156C484.788 1153.21 483.581 1150.15 482.635 1146.84L488.812 1145.71ZM476.387 1134.98L483.558 1135.55C482.422 1143.74 480.244 1150.51 477.026 1155.86C473.854 1161.21 469.31 1165.47 463.394 1168.64C463.157 1168.17 462.755 1167.57 462.187 1166.86C461.619 1166.15 461.027 1165.47 460.412 1164.8C459.796 1164.09 459.252 1163.55 458.779 1163.17C464.222 1160.62 468.316 1157.02 471.062 1152.38C473.854 1147.74 475.629 1141.94 476.387 1134.98ZM477.31 1159.48H484.41V1179.64C484.41 1181.21 484.244 1182.41 483.913 1183.26C483.581 1184.12 482.895 1184.8 481.854 1185.32C480.812 1185.8 479.605 1186.08 478.233 1186.18C476.86 1186.27 475.227 1186.32 473.334 1186.32C473.239 1185.42 473.002 1184.4 472.624 1183.26C472.245 1182.18 471.866 1181.18 471.488 1180.28C472.482 1180.33 473.476 1180.35 474.47 1180.35C475.464 1180.35 476.126 1180.35 476.458 1180.35C477.026 1180.35 477.31 1180.07 477.31 1179.5V1159.48ZM460.838 1177.16C462.684 1176.5 464.885 1175.64 467.441 1174.6C469.997 1173.51 472.624 1172.4 475.322 1171.27L476.742 1176.66C474.564 1177.8 472.387 1178.93 470.21 1180.07C468.032 1181.21 465.95 1182.27 463.962 1183.26L460.838 1177.16ZM465.382 1164.88L470.636 1161.89C471.677 1162.84 472.671 1163.93 473.618 1165.16C474.564 1166.34 475.251 1167.43 475.677 1168.43L470.139 1171.69C469.76 1170.7 469.121 1169.59 468.222 1168.35C467.322 1167.08 466.376 1165.92 465.382 1164.88ZM464.317 1137.11L470.281 1135.34C470.943 1136.33 471.535 1137.47 472.056 1138.75C472.624 1139.98 473.002 1141.07 473.192 1142.01L466.944 1144C466.802 1143.05 466.47 1141.94 465.95 1140.66C465.476 1139.39 464.932 1138.2 464.317 1137.11ZM482.351 1175.03L486.824 1170.7C488.386 1171.45 490.042 1172.35 491.794 1173.4C493.545 1174.44 495.225 1175.48 496.835 1176.52C498.491 1177.56 499.84 1178.51 500.882 1179.36L496.125 1184.12C495.178 1183.26 493.924 1182.29 492.362 1181.21C490.8 1180.12 489.119 1179.03 487.321 1177.94C485.569 1176.8 483.913 1175.83 482.351 1175.03ZM490.8 1161.82L497.048 1164.73C495.912 1165.96 494.799 1167.12 493.711 1168.21C492.622 1169.3 491.652 1170.22 490.8 1170.98L485.901 1168.5C486.705 1167.6 487.581 1166.51 488.528 1165.23C489.474 1163.91 490.232 1162.77 490.8 1161.82ZM489.735 1135.13L496.835 1136.9C496.03 1138.32 495.249 1139.67 494.492 1140.95C493.782 1142.23 493.143 1143.34 492.575 1144.29L487.037 1142.58C487.51 1141.49 488.007 1140.26 488.528 1138.89C489.096 1137.47 489.498 1136.22 489.735 1135.13Z" fill="black"/>
<path d="M396.937 1134.2H432.295V1142.3H396.937V1134.2ZM416.32 1119.72H424.982V1175.88C424.982 1178.39 424.675 1180.31 424.059 1181.63C423.491 1182.96 422.474 1183.97 421.006 1184.68C419.539 1185.39 417.622 1185.84 415.255 1186.03C412.936 1186.27 410.191 1186.39 407.019 1186.39C406.877 1185.54 406.641 1184.57 406.309 1183.48C406.025 1182.39 405.67 1181.3 405.244 1180.21C404.866 1179.17 404.463 1178.22 404.037 1177.37C406.215 1177.47 408.297 1177.54 410.285 1177.58C412.321 1177.58 413.693 1177.56 414.403 1177.51C415.113 1177.51 415.61 1177.4 415.894 1177.16C416.178 1176.87 416.32 1176.42 416.32 1175.81V1119.72ZM397.505 1150.96L404.534 1147.55C405.765 1149.26 406.948 1151.08 408.084 1153.02C409.268 1154.96 410.309 1156.88 411.208 1158.77C412.155 1160.66 412.818 1162.39 413.196 1163.95L405.528 1167.79C405.197 1166.22 404.605 1164.5 403.753 1162.6C402.949 1160.66 402.002 1158.67 400.913 1156.64C399.825 1154.6 398.689 1152.71 397.505 1150.96ZM366.265 1134.35H394.949V1142.37H366.265V1134.35ZM377.199 1119.65H385.506V1186.32H377.199V1119.65ZM376.915 1139.81L382.311 1141.73C381.649 1144.62 380.844 1147.6 379.897 1150.68C378.951 1153.7 377.886 1156.69 376.702 1159.62C375.519 1162.56 374.241 1165.3 372.868 1167.86C371.496 1170.37 370.052 1172.52 368.537 1174.32C368.111 1173.09 367.449 1171.69 366.549 1170.13C365.697 1168.52 364.94 1167.19 364.277 1166.15C365.697 1164.54 367.023 1162.72 368.253 1160.69C369.531 1158.6 370.715 1156.4 371.803 1154.08C372.939 1151.72 373.933 1149.33 374.785 1146.91C375.685 1144.45 376.395 1142.08 376.915 1139.81ZM385.222 1146.13C385.743 1146.6 386.5 1147.43 387.494 1148.62C388.536 1149.75 389.624 1151.01 390.76 1152.38C391.944 1153.7 393.032 1154.96 394.026 1156.14C395.02 1157.28 395.707 1158.11 396.085 1158.63L390.902 1165.73C390.334 1164.64 389.624 1163.41 388.772 1162.04C387.92 1160.66 386.997 1159.24 386.003 1157.78C385.057 1156.26 384.11 1154.86 383.163 1153.59C382.264 1152.31 381.483 1151.24 380.82 1150.39L385.222 1146.13Z" fill="black"/>
<path d="M298.246 1132H356.892V1167.64H347.946V1140.38H306.766V1168H298.246V1132ZM302.648 1155.72H352.916V1164.09H302.648V1155.72ZM322.812 1119.65H331.829V1186.32H322.812V1119.65Z" fill="black"/>
</svg>
