<svg width="1080" height="1920" viewBox="0 0 1080 1920" fill="none" xmlns="http://www.w3.org/2000/svg">
<path d="M1080 1920L1080 0L0 0L0 1920H1080Z" fill="#A5D4AD"/>
<path d="M1020 983.72V95C1020 75.67 1004.33 60 985 60H95.58C75.93 60 60 75.93 60 95.58V983.71C60 984.03 60.25 984.28 60.57 984.28C80.03 984.59 95.71 1000.46 95.71 1019.99C95.71 1039.52 80.03 1055.39 60.57 1055.7C60.25 1055.7 60 1055.96 60 1056.27V1824.99C60 1844.32 75.67 1859.99 95 1859.99H985C1004.33 1859.99 1020 1844.32 1020 1824.99V1056.27C1020 1055.95 1019.75 1055.7 1019.43 1055.7C999.97 1055.39 984.29 1039.52 984.29 1019.99C984.29 1000.46 999.97 984.59 1019.43 984.28C1019.75 984.28 1020 984.02 1020 983.71V983.72Z" fill="white"/>
<path d="M60.57 1055.71C60.25 1055.71 60 1055.97 60 1056.28V1825C60 1844.33 75.67 1860 95 1860H985C1004.33 1860 1020 1844.33 1020 1825V1056.28C1020 1055.96 1019.75 1055.71 1019.43 1055.71C999.97 1055.4 984.29 1039.53 984.29 1020H95.71C95.71 1039.53 80.03 1055.4 60.57 1055.71Z" fill="#E5F2E6"/>
<path d="M121 1020H160.9" stroke="black" stroke-width="6" stroke-miterlimit="10"/>
<path d="M187.512 1020H227.412" stroke="black" stroke-width="6" stroke-miterlimit="10"/>
<path d="M254.02 1020H293.92" stroke="black" stroke-width="6" stroke-miterlimit="10"/>
<path d="M320.52 1020H360.43" stroke="black" stroke-width="6" stroke-miterlimit="10"/>
<path d="M387.031 1020H426.941" stroke="black" stroke-width="6" stroke-miterlimit="10"/>
<path d="M453.539 1020H493.439" stroke="black" stroke-width="6" stroke-miterlimit="10"/>
<path d="M520.051 1020H559.951" stroke="black" stroke-width="6" stroke-miterlimit="10"/>
<path d="M586.559 1020H626.459" stroke="black" stroke-width="6" stroke-miterlimit="10"/>
<path d="M653.059 1020H692.969" stroke="black" stroke-width="6" stroke-miterlimit="10"/>
<path d="M719.57 1020H759.48" stroke="black" stroke-width="6" stroke-miterlimit="10"/>
<path d="M786.078 1020H825.978" stroke="black" stroke-width="6" stroke-miterlimit="10"/>
<path d="M852.59 1020H892.49" stroke="black" stroke-width="6" stroke-miterlimit="10"/>
<path d="M919.102 1020H959.002" stroke="black" stroke-width="6" stroke-miterlimit="10"/>
<path d="M1020 984.29V95C1020 75.67 1004.33 60 985 60H95C75.67 60 60 75.67 60 95V984.29C79.72 984.29 95.71 1000.28 95.71 1020C95.71 1039.72 79.72 1055.71 60 1055.71V1825C60 1844.33 75.67 1860 95 1860H985C1004.33 1860 1020 1844.33 1020 1825V1055.71C1000.28 1055.71 984.29 1039.72 984.29 1020C984.29 1000.28 1000.28 984.29 1020 984.29Z" stroke="black" stroke-width="6" stroke-miterlimit="10"/>
<path d="M912.649 525.666C908.779 525.666 905.539 522.646 905.319 518.736C900.589 435.626 868.789 358.856 813.369 296.746C810.669 293.716 810.929 289.066 813.959 286.366C816.989 283.666 821.629 283.926 824.339 286.956C881.999 351.576 915.069 431.436 919.999 517.896C920.229 521.946 917.129 525.426 913.079 525.656C912.939 525.656 912.799 525.666 912.659 525.666H912.649Z" fill="black"/>
<path d="M818.849 795.517C817.109 795.517 815.359 794.897 813.959 793.647C810.929 790.947 810.669 786.297 813.369 783.267C868.789 721.157 900.589 644.387 905.319 561.277C905.549 557.227 909.029 554.117 913.079 554.357C917.129 554.587 920.229 558.057 919.999 562.117C915.069 648.587 881.999 728.447 824.339 793.057C822.889 794.687 820.869 795.517 818.849 795.517Z" fill="black"/>
<path d="M167.36 525.666C167.22 525.666 167.08 525.666 166.94 525.656C162.89 525.426 159.79 521.956 160.02 517.896C164.95 431.426 198.02 351.566 255.68 286.956C258.38 283.926 263.03 283.666 266.06 286.366C269.09 289.066 269.35 293.716 266.65 296.746C211.23 358.856 179.43 435.616 174.7 518.736C174.48 522.646 171.24 525.666 167.37 525.666H167.36Z" fill="black"/>
<path d="M261.17 795.517C259.15 795.517 257.13 794.687 255.68 793.057C198.02 728.437 164.95 648.577 160.02 562.117C159.79 558.067 162.89 554.587 166.94 554.357C170.99 554.117 174.47 557.227 174.7 561.277C179.43 644.397 211.23 721.157 266.65 783.267C269.35 786.297 269.09 790.947 266.06 793.647C264.66 794.897 262.91 795.517 261.17 795.517Z" fill="black"/>
<path d="M788.171 268.511C786.431 268.511 784.681 267.891 783.281 266.641C721.171 211.221 644.401 179.421 561.291 174.691C557.241 174.461 554.141 170.991 554.371 166.931C554.601 162.881 558.041 159.791 562.131 160.011C648.601 164.941 728.461 198.011 793.071 255.671C796.101 258.371 796.361 263.021 793.661 266.051C792.211 267.681 790.191 268.511 788.171 268.511Z" fill="black"/>
<path d="M291.852 268.512C289.832 268.512 287.812 267.682 286.362 266.052C283.662 263.022 283.922 258.372 286.952 255.672C351.572 198.012 431.432 164.942 517.892 160.012C521.942 159.782 525.422 162.882 525.652 166.932C525.882 170.982 522.782 174.462 518.732 174.692C435.622 179.422 358.852 211.222 296.742 266.642C295.342 267.892 293.592 268.512 291.852 268.512Z" fill="black"/>
<path d="M561.69 920.006C557.82 920.006 554.58 916.986 554.36 913.076C554.13 909.026 557.23 905.546 561.28 905.316C644.4 900.586 721.16 868.786 783.27 813.366C786.3 810.666 790.95 810.926 793.65 813.956C796.35 816.986 796.09 821.636 793.06 824.336C728.44 881.996 648.58 915.066 562.12 919.996C561.98 919.996 561.84 920.006 561.7 920.006H561.69Z" fill="black"/>
<path d="M518.319 920.006C518.179 920.006 518.04 920.006 517.9 919.996C431.43 915.066 351.569 881.996 286.959 824.336C283.929 821.636 283.669 816.986 286.369 813.956C289.069 810.926 293.719 810.666 296.749 813.366C358.859 868.786 435.629 900.586 518.739 905.316C522.789 905.546 525.889 909.016 525.659 913.076C525.439 916.986 522.199 920.006 518.329 920.006H518.319Z" fill="black"/>
<path d="M875.378 526.189C872.368 526.189 869.848 523.839 869.678 520.799C865.408 445.789 836.708 376.519 786.698 320.459C784.598 318.099 784.798 314.489 787.158 312.389C789.508 310.289 793.128 310.489 795.228 312.849C846.978 370.849 876.678 442.539 881.098 520.149C881.278 523.299 878.868 525.999 875.718 526.179C875.608 526.179 875.498 526.179 875.388 526.179L875.378 526.189Z" fill="black"/>
<path d="M790.958 769.062C789.598 769.062 788.248 768.582 787.158 767.612C784.798 765.512 784.598 761.892 786.698 759.542C836.708 703.492 865.408 634.212 869.678 559.202C869.858 556.052 872.548 553.642 875.708 553.822C878.858 554.002 881.268 556.702 881.088 559.852C876.668 637.472 846.978 709.152 795.218 767.152C794.088 768.422 792.518 769.062 790.948 769.062H790.958Z" fill="black"/>
<path d="M204.63 526.187C204.52 526.187 204.41 526.187 204.3 526.187C201.15 526.007 198.74 523.307 198.92 520.157C203.34 442.537 233.03 370.857 284.79 312.857C286.89 310.497 290.51 310.297 292.86 312.397C295.22 314.497 295.42 318.117 293.32 320.467C243.31 376.517 214.61 445.797 210.34 520.807C210.17 523.847 207.65 526.197 204.64 526.197L204.63 526.187Z" fill="black"/>
<path d="M289.048 769.055C287.478 769.055 285.908 768.405 284.778 767.145C233.028 709.145 203.328 637.455 198.908 559.845C198.728 556.695 201.138 553.995 204.288 553.815C207.448 553.625 210.138 556.045 210.318 559.195C214.588 634.205 243.288 703.485 293.298 759.535C295.398 761.895 295.198 765.505 292.838 767.605C291.748 768.575 290.388 769.055 289.038 769.055H289.048Z" fill="black"/>
<path d="M763.35 294.756C761.99 294.756 760.64 294.276 759.55 293.306C703.5 243.296 634.22 214.596 559.21 210.326C556.06 210.146 553.65 207.446 553.83 204.296C554.01 201.146 556.7 198.736 559.86 198.916C637.48 203.336 709.16 233.026 767.16 284.786C769.52 286.886 769.72 290.506 767.62 292.856C766.49 294.126 764.92 294.766 763.35 294.766V294.756Z" fill="black"/>
<path d="M316.659 294.759C315.089 294.759 313.519 294.109 312.389 292.849C310.289 290.489 310.489 286.879 312.849 284.779C370.849 233.029 442.539 203.329 520.149 198.909C523.299 198.719 525.999 201.139 526.179 204.289C526.359 207.439 523.949 210.139 520.799 210.319C445.789 214.589 376.519 243.289 320.459 293.299C319.369 294.269 318.009 294.749 316.659 294.749V294.759Z" fill="black"/>
<path d="M559.526 881.102C556.516 881.102 553.996 878.752 553.826 875.712C553.646 872.562 556.056 869.862 559.206 869.682C634.216 865.412 703.486 836.712 759.546 786.702C761.896 784.602 765.516 784.802 767.616 787.162C769.716 789.522 769.516 793.132 767.156 795.232C709.156 846.982 637.466 876.682 559.856 881.102C559.746 881.102 559.636 881.102 559.526 881.102Z" fill="black"/>
<path d="M520.487 881.102C520.377 881.102 520.267 881.102 520.157 881.102C442.537 876.682 370.857 846.992 312.857 795.232C310.497 793.132 310.297 789.512 312.397 787.162C314.497 784.802 318.117 784.602 320.467 786.702C376.517 836.722 445.797 865.412 520.807 869.682C523.957 869.862 526.367 872.562 526.187 875.712C526.017 878.752 523.497 881.102 520.487 881.102Z" fill="black"/>
<path d="M841.851 526.514C839.701 526.514 837.901 524.834 837.781 522.664C833.921 454.914 808.001 392.344 762.831 341.714C761.331 340.034 761.481 337.454 763.161 335.944C764.841 334.444 767.421 334.584 768.931 336.274C815.351 388.294 841.981 452.584 845.941 522.194C846.071 524.444 844.351 526.374 842.091 526.504C842.011 526.504 841.931 526.504 841.851 526.504V526.514Z" fill="black"/>
<path d="M765.869 745.106C764.899 745.106 763.929 744.766 763.149 744.066C761.469 742.566 761.319 739.986 762.819 738.296C807.989 687.666 833.909 625.096 837.769 557.346C837.899 555.096 839.859 553.396 842.079 553.496C844.329 553.626 846.049 555.556 845.929 557.806C841.959 627.416 815.329 691.706 768.919 743.726C768.109 744.626 766.989 745.086 765.869 745.086V745.106Z" fill="black"/>
<path d="M238.17 526.516C238.09 526.516 238.01 526.516 237.93 526.516C235.68 526.386 233.96 524.456 234.08 522.206C238.05 452.596 264.68 388.306 311.09 336.286C312.59 334.606 315.17 334.456 316.86 335.956C318.54 337.456 318.69 340.036 317.19 341.726C272.02 392.356 246.1 454.926 242.24 522.676C242.12 524.846 240.32 526.526 238.17 526.526V526.516Z" fill="black"/>
<path d="M314.141 745.103C313.021 745.103 311.901 744.643 311.091 743.743C264.671 691.723 238.041 627.433 234.081 557.823C233.951 555.573 235.671 553.643 237.931 553.513C240.171 553.403 242.111 555.103 242.241 557.363C246.101 625.113 272.021 687.683 317.191 738.313C318.691 739.993 318.541 742.573 316.861 744.083C316.081 744.773 315.111 745.123 314.141 745.123V745.103Z" fill="black"/>
<path d="M741.022 318.225C740.052 318.225 739.082 317.885 738.302 317.185C687.672 272.015 625.102 246.095 557.352 242.235C555.102 242.105 553.382 240.175 553.502 237.925C553.632 235.675 555.552 233.965 557.812 234.075C627.422 238.045 691.712 264.675 743.742 311.085C745.422 312.585 745.572 315.165 744.072 316.855C743.262 317.755 742.142 318.215 741.022 318.215V318.225Z" fill="black"/>
<path d="M339.002 318.224C337.882 318.224 336.762 317.764 335.952 316.864C334.452 315.184 334.602 312.604 336.282 311.094C388.302 264.674 452.592 238.044 522.202 234.084C524.452 233.964 526.382 235.674 526.512 237.934C526.642 240.184 524.922 242.114 522.662 242.244C454.912 246.104 392.342 272.024 341.712 317.194C340.932 317.884 339.962 318.234 338.992 318.234L339.002 318.224Z" fill="black"/>
<path d="M557.573 845.933C555.423 845.933 553.623 844.253 553.503 842.083C553.373 839.833 555.093 837.903 557.353 837.773C625.103 833.913 687.673 807.993 738.303 762.823C739.983 761.323 742.563 761.473 744.073 763.153C745.573 764.833 745.423 767.413 743.743 768.923C691.723 815.343 627.433 841.973 557.813 845.933C557.733 845.933 557.653 845.933 557.573 845.933Z" fill="black"/>
<path d="M522.442 845.933C522.362 845.933 522.282 845.933 522.202 845.933C452.592 841.963 388.302 815.333 336.282 768.923C334.602 767.423 334.452 764.843 335.952 763.153C337.452 761.473 340.032 761.323 341.722 762.823C392.352 807.993 454.922 833.913 522.672 837.773C524.922 837.903 526.642 839.833 526.522 842.083C526.402 844.253 524.602 845.933 522.452 845.933H522.442Z" fill="black"/>
<path d="M320.65 546.174C320.65 544.604 321.79 543.274 323.34 543.024C324.64 542.814 326.27 542.524 327.98 542.124C332.4 541.084 337.59 539.114 343.41 536.274C349.29 533.404 354.92 529.414 359.17 523.674C366.34 513.974 367.86 501.404 368.19 496.894C368.26 495.974 367.53 495.194 366.6 495.194H317.09C315.33 495.194 313.91 493.764 313.91 492.014V470.694C313.91 468.934 315.34 467.514 317.09 467.514H367.07C367.95 467.514 368.66 466.804 368.66 465.924V447.184C368.66 446.304 367.95 445.594 367.07 445.594H328.62C326.86 445.594 325.44 444.164 325.44 442.414V421.094C325.44 419.334 326.87 417.914 328.62 417.914H428.96C430.72 417.914 432.14 419.344 432.14 421.094V442.414C432.14 444.174 430.71 445.594 428.96 445.594H398.52C397.64 445.594 396.93 446.304 396.93 447.184V465.924C396.93 466.804 397.64 467.514 398.52 467.514H438.58C440.34 467.514 441.76 468.944 441.76 470.694V492.014C441.76 493.774 440.33 495.194 438.58 495.194H398.39C397.54 495.194 396.84 495.864 396.8 496.714C396.57 501.754 395.15 518.444 386.18 532.854C380.73 541.614 373.65 548.264 366.54 553.544C359.41 558.844 352.26 562.934 345.27 565.704C338.24 568.494 332.34 570.444 327.75 571.514C326.66 571.764 325.49 571.994 324.4 572.184C322.45 572.534 320.66 571.034 320.66 569.044V546.164L320.65 546.174Z" fill="black"/>
<path d="M474.552 546.522C474.552 545.062 475.552 543.792 476.962 543.432C485.212 541.362 488.932 540.112 496.842 536.322C496.842 536.322 500.892 534.212 504.932 531.302C517.112 522.542 525.222 510.632 525.222 510.632C534.682 497.282 537.772 474.912 538.492 468.492C538.602 467.552 537.862 466.722 536.912 466.722H500.582C500.352 466.722 500.142 466.842 500.032 467.042L499.882 467.292C494.302 478.112 486.882 487.992 480.452 494.242C474.002 500.502 468.592 505.052 464.382 507.752L461.782 509.422C460.722 510.102 459.332 509.342 459.332 508.082V479.892C459.332 478.952 459.752 478.062 460.472 477.452C461.122 476.902 461.992 476.132 463.182 475.062C465.942 472.572 469.052 468.512 472.422 462.982C475.762 457.512 479.352 450.212 483.072 441.292C486.452 433.202 488.982 423.092 490.862 412.062C491.122 410.532 492.452 409.422 494.002 409.422H513.912C515.912 409.422 517.422 411.252 517.042 413.212C516.402 416.522 515.712 420.882 514.852 424.312C513.582 429.392 512.762 432.302 511.242 436.722C510.982 437.472 511.542 438.242 512.332 438.242H591.182C592.942 438.242 594.362 439.672 594.362 441.422V463.512C594.362 465.272 592.932 466.692 591.182 466.692H568.142C567.332 466.692 566.642 467.302 566.562 468.112C565.932 474.012 562.882 497.162 552.392 517.262C538.292 546.002 508.142 566.392 478.342 572.132C476.382 572.512 474.562 571.002 474.562 569.002V546.482L474.552 546.522Z" fill="black"/>
<path d="M675.902 411.035V468.875C675.902 469.755 676.612 470.465 677.492 470.465H764.522C765.402 470.465 766.112 469.755 766.112 468.875V411.035C766.112 410.155 765.402 409.445 764.522 409.445H677.492C676.612 409.445 675.902 410.155 675.902 411.035ZM738.462 452.745H702.302C701.422 452.745 700.712 452.035 700.712 451.155V446.875C700.712 445.995 701.422 445.285 702.302 445.285H738.462C739.342 445.285 740.052 445.995 740.052 446.875V451.155C740.052 452.035 739.342 452.745 738.462 452.745ZM738.462 434.455H702.302C701.422 434.455 700.712 433.745 700.712 432.865V428.755C700.712 427.875 701.422 427.165 702.302 427.165H738.462C739.342 427.165 740.052 427.875 740.052 428.755V432.865C740.052 433.745 739.342 434.455 738.462 434.455Z" fill="black"/>
<path d="M674.232 497.342H728.272C729.152 497.342 729.862 498.052 729.862 498.932V502.842C729.862 503.722 729.152 504.432 728.272 504.432H667.762C666.002 504.432 664.582 505.862 664.582 507.612V522.862C664.582 524.622 666.012 526.042 667.762 526.042H728.272C729.152 526.042 729.862 526.752 729.862 527.632V545.392C729.862 546.112 729.942 547.982 729.222 548.852C728.392 549.872 727.152 549.672 725.852 549.722C722.542 549.722 719.582 549.702 716.952 549.662C716.552 549.662 716.262 549.292 716.342 548.902C716.602 547.632 716.732 546.312 716.702 544.962C716.502 535.682 708.942 528.082 699.662 527.842C689.582 527.582 681.372 535.852 681.712 545.942C682.022 555.292 689.792 562.812 699.152 562.842C704.042 562.852 708.462 560.862 711.642 557.642C711.982 557.302 712.552 557.432 712.702 557.882C714.162 562.212 715.542 566.342 716.792 570.052C717.232 571.352 718.462 572.222 719.832 572.212C725.732 572.172 730.512 571.962 734.182 571.602C738.312 571.182 742.092 570.152 745.522 568.502C749.182 566.842 751.692 564.422 753.052 561.232C754.412 558.042 755.092 553.552 755.092 547.762V527.622C755.092 526.742 755.802 526.032 756.682 526.032H762.912C764.672 526.032 766.092 524.602 766.092 522.852V507.602C766.092 505.842 764.662 504.422 762.912 504.422H756.682C755.802 504.422 755.092 503.712 755.092 502.832V498.922C755.092 498.042 755.802 497.332 756.682 497.332H762.912C764.672 497.332 766.092 495.902 766.092 494.152V479.602C766.092 477.842 764.662 476.422 762.912 476.422H674.212C672.452 476.422 671.032 477.852 671.032 479.602V494.152C671.032 495.912 672.462 497.332 674.212 497.332L674.232 497.342Z" fill="black"/>
<path d="M668.832 409.445H650.262C649.402 409.445 648.582 409.795 647.982 410.405C635.232 423.355 618.292 434.575 612.132 438.485C610.782 439.335 610.282 441.065 610.952 442.505L620.702 463.575C621.632 465.575 624.262 466.055 625.832 464.505C646.122 444.465 664.452 419.805 670.122 411.965C670.882 410.915 670.122 409.445 668.832 409.445Z" fill="black"/>
<path d="M671.922 453.899V435.419C671.922 434.009 670.222 433.299 669.212 434.289C653.642 449.609 620.052 477.069 611.682 483.869C610.552 484.789 610.192 486.359 610.802 487.679L620.702 509.059C621.632 511.059 624.262 511.539 625.832 509.989C627.542 508.299 629.242 506.569 630.922 504.829C631.322 504.419 632.022 504.699 632.022 505.269V569.069C632.022 570.829 633.452 572.249 635.202 572.249H653.822C655.582 572.249 657.002 570.819 657.002 569.069V476.379C657.002 475.309 657.362 474.259 658.032 473.419C664.872 464.739 669.722 458.029 671.342 455.749C671.722 455.209 671.932 454.569 671.932 453.899H671.922Z" fill="black"/>
<path d="M653.269 623.338C640.849 623.338 634.809 628.288 634.809 638.478V655.608C634.809 665.678 640.849 670.568 653.269 670.568C659.139 670.568 663.479 669.488 666.559 667.278C669.999 664.808 671.739 660.878 671.739 655.598V638.468C671.739 628.278 665.699 623.328 653.279 623.328L653.269 623.338ZM646.089 639.308C646.089 633.938 648.839 632.918 653.269 632.918C657.699 632.918 660.449 633.958 660.449 639.308V654.688C660.449 659.958 657.599 660.988 653.269 660.988C648.939 660.988 646.089 659.988 646.089 654.688V639.308Z" fill="black"/>
<path d="M708.27 669.334H721.359L703.63 646.784L720.56 624.804H707.4L694.06 642.284V610.234H682.77V669.334H694.06V659.214L696.95 655.454L708.27 669.334Z" fill="black"/>
<path d="M754.82 624.805V653.295C754.82 659.045 751.88 660.895 746.83 660.895C743.56 660.895 740.28 660.355 740.28 653.885V624.815H729V656.775C729 665.745 733.71 670.485 742.62 670.485C749.3 670.485 753.88 666.865 755.58 662.805L757.39 669.345H766.11V624.815H754.83L754.82 624.805Z" fill="black"/>
<path d="M630.568 610.234H589.148V620.144V620.154H604.218V669.334H615.688V620.154H630.568V610.234Z" fill="black"/>
<path d="M459.689 669.334H472.779L455.049 646.784L471.979 624.804H458.819L445.479 642.284V610.234H434.199V669.334H445.479V659.214L448.369 655.454L459.689 669.334Z" fill="black"/>
<path d="M355.33 610.234H313.91V620.144V620.154H328.99V669.334H340.45V620.154H355.33V610.234Z" fill="black"/>
<path d="M421.802 658.896L421.202 659.046C417.622 659.966 413.292 660.896 409.412 660.896C404.862 660.896 401.692 658.826 401.692 652.836V640.976C401.692 634.906 404.862 632.826 409.412 632.826C413.362 632.826 417.882 633.706 421.232 634.406L421.812 634.526V625.196L421.502 625.126C417.692 624.236 412.052 623.336 407.532 623.336C402.012 623.336 397.972 624.406 395.172 626.596C391.972 629.096 390.422 633.856 390.422 639.346V654.646C390.422 664.776 396.022 670.566 407.542 670.566C411.412 670.566 417.272 669.496 421.532 668.316L421.822 668.236V658.886L421.802 658.896Z" fill="black"/>
<path d="M553.93 634.705V624.805H543.69V615.195H532.41V624.805H525.18V634.705H532.41V655.425C532.41 667.945 540.3 670.565 546.93 670.565C548.71 670.565 550.51 670.455 552.12 670.225V660.265C551.47 660.335 550.26 660.365 549.54 660.365C546.46 660.365 543.69 659.735 543.69 652.095V634.695H553.93V634.705Z" fill="black"/>
<path d="M489.741 650.742V650.562H515.171V641.482C515.171 635.572 513.551 630.243 510.361 627.343C507.421 624.673 502.781 623.312 497.261 623.312C485.081 623.312 478.461 629.223 478.461 639.593V654.453C478.461 664.703 483.841 670.552 496.321 670.552C500.981 670.552 506.291 669.563 511.971 668.403L512.361 668.323V659.052L511.711 659.203C507.141 660.253 504.621 661.143 500.291 661.143C494.081 661.143 489.741 658.623 489.741 652.203V650.722V650.742ZM489.741 639.722C489.741 634.072 493.801 632.742 497.171 632.742C500.541 632.742 504.071 634.072 504.071 639.722V643.232H489.741V642.713V639.722Z" fill="black"/>
<path d="M378.178 626.883H366.898V669.333H378.178V626.883Z" fill="black"/>
<path d="M372.542 622.224C376.424 622.224 379.572 619.077 379.572 615.194C379.572 611.312 376.424 608.164 372.542 608.164C368.659 608.164 365.512 611.312 365.512 615.194C365.512 619.077 368.659 622.224 372.542 622.224Z" fill="black"/>
<path d="M585.738 643.922H566.148V651.262H585.738V643.922Z" fill="black"/>
<path d="M724.902 1652.2C724.502 1652.8 723.902 1653.73 723.102 1655C722.368 1656.27 721.802 1657.43 721.402 1658.5C720.002 1661.63 718.268 1665.13 716.202 1669C714.202 1672.87 711.902 1676.77 709.302 1680.7C706.768 1684.57 704.068 1688.2 701.202 1691.6C697.468 1695.8 693.335 1699.97 688.802 1704.1C684.335 1708.17 679.602 1711.93 674.602 1715.4C669.668 1718.8 664.602 1721.73 659.402 1724.2L649.102 1713.4C654.502 1711.33 659.735 1708.73 664.802 1705.6C669.868 1702.47 674.568 1699.07 678.902 1695.4C683.235 1691.73 686.968 1688.17 690.102 1684.7C692.302 1682.17 694.368 1679.47 696.302 1676.6C698.302 1673.73 700.068 1670.9 701.602 1668.1C703.135 1665.23 704.268 1662.6 705.002 1660.2C704.335 1660.2 703.135 1660.2 701.402 1660.2C699.668 1660.2 697.635 1660.2 695.302 1660.2C693.035 1660.2 690.635 1660.2 688.102 1660.2C685.568 1660.2 683.135 1660.2 680.802 1660.2C678.535 1660.2 676.535 1660.2 674.802 1660.2C673.068 1660.2 671.835 1660.2 671.102 1660.2C669.702 1660.2 668.235 1660.27 666.702 1660.4C665.168 1660.47 663.702 1660.57 662.302 1660.7C660.968 1660.77 659.935 1660.83 659.202 1660.9V1646.7C660.202 1646.77 661.435 1646.87 662.902 1647C664.368 1647.13 665.835 1647.23 667.302 1647.3C668.835 1647.37 670.102 1647.4 671.102 1647.4C671.968 1647.4 673.335 1647.4 675.202 1647.4C677.068 1647.4 679.202 1647.4 681.602 1647.4C684.002 1647.4 686.468 1647.4 689.002 1647.4C691.602 1647.4 694.068 1647.4 696.402 1647.4C698.802 1647.4 700.868 1647.4 702.602 1647.4C704.335 1647.4 705.602 1647.4 706.402 1647.4C708.602 1647.4 710.602 1647.27 712.402 1647C714.268 1646.73 715.702 1646.43 716.702 1646.1L724.902 1652.2ZM702.502 1683.3C705.102 1685.37 707.868 1687.77 710.802 1690.5C713.735 1693.23 716.635 1696.07 719.502 1699C722.368 1701.93 725.002 1704.77 727.402 1707.5C729.868 1710.17 731.935 1712.5 733.602 1714.5L722.202 1724.4C719.735 1721 716.902 1717.47 713.702 1713.8C710.568 1710.13 707.235 1706.5 703.702 1702.9C700.235 1699.23 696.702 1695.77 693.102 1692.5L702.502 1683.3Z" fill="black"/>
<path d="M615.298 1639C616.165 1640.2 617.098 1641.63 618.098 1643.3C619.098 1644.97 620.032 1646.63 620.898 1648.3C621.832 1649.97 622.632 1651.43 623.298 1652.7L615.198 1656.1C614.198 1654.03 612.965 1651.7 611.498 1649.1C610.098 1646.43 608.732 1644.13 607.398 1642.2L615.298 1639ZM627.098 1634.5C628.032 1635.77 628.998 1637.23 629.998 1638.9C630.998 1640.57 631.965 1642.23 632.898 1643.9C633.898 1645.5 634.665 1646.9 635.198 1648.1L627.298 1651.5C626.232 1649.37 624.965 1647 623.498 1644.4C622.032 1641.8 620.598 1639.57 619.198 1637.7L627.098 1634.5ZM572.198 1643.3C571.932 1644.83 571.732 1646.6 571.598 1648.6C571.465 1650.6 571.398 1652.3 571.398 1653.7C571.398 1654.7 571.398 1656.47 571.398 1659C571.398 1661.47 571.398 1664.4 571.398 1667.8C571.398 1671.2 571.398 1674.77 571.398 1678.5C571.398 1682.17 571.398 1685.73 571.398 1689.2C571.398 1692.6 571.398 1695.63 571.398 1698.3C571.398 1700.97 571.398 1702.93 571.398 1704.2C571.398 1706.33 571.932 1707.8 572.998 1708.6C574.065 1709.4 575.698 1710.03 577.898 1710.5C579.432 1710.7 581.198 1710.87 583.198 1711C585.198 1711.07 587.298 1711.1 589.498 1711.1C592.098 1711.1 594.965 1711.03 598.098 1710.9C601.298 1710.7 604.498 1710.47 607.698 1710.2C610.965 1709.93 614.032 1709.57 616.898 1709.1C619.765 1708.63 622.232 1708.13 624.298 1707.6V1722.2C621.165 1722.67 617.532 1723.03 613.398 1723.3C609.265 1723.63 605.032 1723.87 600.698 1724C596.432 1724.2 592.432 1724.3 588.698 1724.3C585.432 1724.3 582.332 1724.2 579.398 1724C576.532 1723.8 574.032 1723.53 571.898 1723.2C567.565 1722.33 564.198 1720.7 561.798 1718.3C559.398 1715.83 558.198 1712.47 558.198 1708.2C558.198 1706.27 558.198 1703.77 558.198 1700.7C558.198 1697.57 558.198 1694.13 558.198 1690.4C558.198 1686.6 558.198 1682.8 558.198 1679C558.198 1675.13 558.198 1671.5 558.198 1668.1C558.198 1664.63 558.198 1661.63 558.198 1659.1C558.198 1656.57 558.198 1654.77 558.198 1653.7C558.198 1652.97 558.165 1651.97 558.098 1650.7C558.032 1649.43 557.932 1648.13 557.798 1646.8C557.732 1645.47 557.598 1644.3 557.398 1643.3H572.198ZM565.598 1674C568.798 1673.33 572.198 1672.53 575.798 1671.6C579.398 1670.6 583.032 1669.53 586.698 1668.4C590.365 1667.27 593.832 1666.13 597.098 1665C600.432 1663.8 603.398 1662.63 605.998 1661.5C607.798 1660.83 609.565 1660.07 611.298 1659.2C613.098 1658.33 614.965 1657.3 616.898 1656.1L622.298 1668.8C620.365 1669.53 618.332 1670.37 616.198 1671.3C614.132 1672.17 612.265 1672.9 610.598 1673.5C607.665 1674.63 604.298 1675.83 600.498 1677.1C596.765 1678.37 592.865 1679.63 588.798 1680.9C584.732 1682.1 580.698 1683.23 576.698 1684.3C572.765 1685.37 569.098 1686.3 565.698 1687.1L565.598 1674Z" fill="black"/>
<path d="M450.699 1673.7C451.899 1673.77 453.433 1673.87 455.299 1674C457.166 1674.07 459.099 1674.14 461.099 1674.2C463.166 1674.27 465.066 1674.3 466.799 1674.3C468.466 1674.3 470.533 1674.3 472.999 1674.3C475.466 1674.3 478.133 1674.3 480.999 1674.3C483.933 1674.3 486.933 1674.3 489.999 1674.3C493.133 1674.3 496.233 1674.3 499.299 1674.3C502.366 1674.3 505.266 1674.3 507.999 1674.3C510.733 1674.3 513.166 1674.3 515.299 1674.3C517.499 1674.3 519.233 1674.3 520.499 1674.3C522.833 1674.3 525.033 1674.24 527.099 1674.1C529.166 1673.9 530.866 1673.77 532.199 1673.7V1689.4C531.066 1689.34 529.366 1689.24 527.099 1689.1C524.833 1688.97 522.633 1688.9 520.499 1688.9C519.233 1688.9 517.499 1688.9 515.299 1688.9C513.099 1688.9 510.633 1688.9 507.899 1688.9C505.166 1688.9 502.266 1688.9 499.199 1688.9C496.199 1688.9 493.133 1688.9 489.999 1688.9C486.866 1688.9 483.833 1688.9 480.899 1688.9C478.033 1688.9 475.366 1688.9 472.899 1688.9C470.499 1688.9 468.466 1688.9 466.799 1688.9C463.933 1688.9 460.999 1688.97 457.999 1689.1C454.999 1689.17 452.566 1689.27 450.699 1689.4V1673.7Z" fill="black"/>
<path d="M416.299 1675.8C416.299 1682 415.833 1687.63 414.899 1692.7C414.033 1697.7 412.499 1702.27 410.299 1706.4C408.099 1710.47 405.033 1714.13 401.099 1717.4C397.166 1720.67 392.199 1723.63 386.199 1726.3L375.499 1716.2C380.299 1714.53 384.433 1712.67 387.899 1710.6C391.433 1708.53 394.333 1706 396.599 1703C398.866 1699.93 400.533 1696.27 401.599 1692C402.733 1687.67 403.299 1682.43 403.299 1676.3V1649.7C403.299 1647.63 403.233 1645.83 403.099 1644.3C402.966 1642.7 402.833 1641.4 402.699 1640.4H416.999C416.866 1641.4 416.699 1642.7 416.499 1644.3C416.366 1645.83 416.299 1647.63 416.299 1649.7V1675.8ZM380.199 1641.3C380.066 1642.23 379.933 1643.5 379.799 1645.1C379.666 1646.63 379.599 1648.37 379.599 1650.3V1686.1C379.599 1687.57 379.633 1689 379.699 1690.4C379.766 1691.73 379.799 1692.93 379.799 1694C379.866 1695 379.933 1695.87 379.999 1696.6H365.999C366.133 1695.87 366.233 1695 366.299 1694C366.366 1692.93 366.433 1691.73 366.499 1690.4C366.566 1689 366.599 1687.57 366.599 1686.1V1650.3C366.599 1648.83 366.533 1647.33 366.399 1645.8C366.333 1644.27 366.199 1642.77 365.999 1641.3H380.199ZM347.199 1659.3C347.866 1659.37 348.733 1659.5 349.799 1659.7C350.866 1659.83 352.099 1659.97 353.499 1660.1C354.899 1660.17 356.433 1660.2 358.099 1660.2H423.699C426.366 1660.2 428.533 1660.13 430.199 1660C431.866 1659.87 433.366 1659.7 434.699 1659.5V1672.8C433.633 1672.67 432.199 1672.6 430.399 1672.6C428.599 1672.53 426.366 1672.5 423.699 1672.5H358.099C356.433 1672.5 354.899 1672.53 353.499 1672.6C352.166 1672.6 350.966 1672.63 349.899 1672.7C348.899 1672.77 347.999 1672.83 347.199 1672.9V1659.3Z" fill="black"/>
<path d="M754.691 1527.8C754.158 1528.74 753.591 1529.87 752.991 1531.2C752.391 1532.47 751.858 1533.74 751.391 1535C750.525 1537.94 749.291 1541.3 747.691 1545.1C746.158 1548.84 744.225 1552.74 741.891 1556.8C739.625 1560.8 736.991 1564.67 733.991 1568.4C729.191 1574.14 723.591 1579.34 717.191 1584C710.858 1588.67 702.991 1592.87 693.591 1596.6L681.791 1586C688.591 1584 694.458 1581.7 699.391 1579.1C704.325 1576.5 708.625 1573.74 712.291 1570.8C715.958 1567.8 719.225 1564.64 722.091 1561.3C724.425 1558.7 726.558 1555.77 728.491 1552.5C730.425 1549.17 732.091 1545.87 733.491 1542.6C734.891 1539.34 735.825 1536.47 736.291 1534H702.591L707.191 1522.7C708.125 1522.7 709.558 1522.7 711.491 1522.7C713.491 1522.7 715.725 1522.7 718.191 1522.7C720.725 1522.7 723.191 1522.7 725.591 1522.7C728.058 1522.7 730.191 1522.7 731.991 1522.7C733.858 1522.7 735.125 1522.7 735.791 1522.7C737.325 1522.7 738.858 1522.6 740.391 1522.4C741.991 1522.2 743.358 1521.9 744.491 1521.5L754.691 1527.8ZM722.091 1512C720.891 1513.74 719.725 1515.6 718.591 1517.6C717.458 1519.6 716.591 1521.14 715.991 1522.2C713.725 1526.2 710.925 1530.37 707.591 1534.7C704.325 1538.97 700.591 1543.14 696.391 1547.2C692.191 1551.2 687.725 1554.87 682.991 1558.2L671.691 1549.9C676.091 1547.17 679.958 1544.37 683.291 1541.5C686.691 1538.64 689.625 1535.8 692.091 1533C694.558 1530.14 696.658 1527.4 698.391 1524.8C700.191 1522.14 701.725 1519.77 702.991 1517.7C703.791 1516.44 704.625 1514.8 705.491 1512.8C706.358 1510.74 707.025 1508.87 707.491 1507.2L722.091 1512Z" fill="black"/>
<path d="M588.891 1514C590.624 1515.2 592.657 1516.67 594.991 1518.4C597.324 1520.13 599.724 1522.03 602.191 1524.1C604.724 1526.1 607.091 1528.07 609.291 1530C611.491 1531.93 613.291 1533.67 614.691 1535.2L604.491 1545.6C603.224 1544.2 601.557 1542.53 599.491 1540.6C597.424 1538.67 595.191 1536.67 592.791 1534.6C590.391 1532.53 588.024 1530.57 585.691 1528.7C583.357 1526.83 581.291 1525.27 579.491 1524L588.891 1514ZM576.391 1580.6C581.591 1579.87 586.491 1578.83 591.091 1577.5C595.691 1576.17 599.957 1574.63 603.891 1572.9C607.824 1571.17 611.424 1569.37 614.691 1567.5C620.357 1564.1 625.557 1560.23 630.291 1555.9C635.024 1551.57 639.157 1547.07 642.691 1542.4C646.224 1537.67 649.024 1533.07 651.091 1528.6L658.891 1542.7C656.357 1547.17 653.224 1551.63 649.491 1556.1C645.824 1560.57 641.657 1564.83 636.991 1568.9C632.324 1572.9 627.291 1576.5 621.891 1579.7C618.491 1581.77 614.824 1583.73 610.891 1585.6C606.957 1587.4 602.791 1589 598.391 1590.4C594.057 1591.87 589.524 1593 584.791 1593.8L576.391 1580.6Z" fill="black"/>
<path d="M545.091 1512.4C545.025 1513.8 544.925 1515.33 544.791 1517C544.725 1518.6 544.691 1520.4 544.691 1522.4C544.691 1524.13 544.691 1526.23 544.691 1528.7C544.691 1531.17 544.691 1533.63 544.691 1536.1C544.691 1538.5 544.691 1540.53 544.691 1542.2C544.691 1547.53 544.425 1552.2 543.891 1556.2C543.425 1560.2 542.691 1563.7 541.691 1566.7C540.691 1569.7 539.458 1572.37 537.991 1574.7C536.591 1576.97 534.958 1579.13 533.091 1581.2C530.891 1583.6 528.358 1585.77 525.491 1587.7C522.625 1589.57 519.725 1591.13 516.791 1592.4C513.925 1593.73 511.258 1594.8 508.791 1595.6L498.291 1584.6C503.291 1583.47 507.791 1581.9 511.791 1579.9C515.858 1577.83 519.391 1575.2 522.391 1572C524.125 1570.07 525.525 1568.13 526.591 1566.2C527.658 1564.27 528.458 1562.13 528.991 1559.8C529.591 1557.4 529.991 1554.7 530.191 1551.7C530.458 1548.7 530.591 1545.27 530.591 1541.4C530.591 1539.67 530.591 1537.6 530.591 1535.2C530.591 1532.8 530.591 1530.43 530.591 1528.1C530.591 1525.77 530.591 1523.87 530.591 1522.4C530.591 1520.4 530.525 1518.6 530.391 1517C530.325 1515.33 530.191 1513.8 529.991 1512.4H545.091ZM498.691 1513.2C498.625 1514.4 498.558 1515.6 498.491 1516.8C498.425 1517.93 498.391 1519.3 498.391 1520.9C498.391 1521.63 498.391 1522.83 498.391 1524.5C498.391 1526.17 498.391 1528.13 498.391 1530.4C498.391 1532.6 498.391 1534.93 498.391 1537.4C498.391 1539.8 498.391 1542.13 498.391 1544.4C498.391 1546.67 498.391 1548.73 498.391 1550.6C498.391 1552.4 498.391 1553.77 498.391 1554.7C498.391 1555.97 498.425 1557.43 498.491 1559.1C498.558 1560.77 498.625 1562.2 498.691 1563.4H484.191C484.258 1562.47 484.358 1561.13 484.491 1559.4C484.625 1557.67 484.691 1556.07 484.691 1554.6C484.691 1553.67 484.691 1552.3 484.691 1550.5C484.691 1548.7 484.691 1546.67 484.691 1544.4C484.691 1542.07 484.691 1539.7 484.691 1537.3C484.691 1534.83 484.691 1532.5 484.691 1530.3C484.691 1528.1 484.691 1526.17 484.691 1524.5C484.691 1522.83 484.691 1521.63 484.691 1520.9C484.691 1519.97 484.658 1518.77 484.591 1517.3C484.525 1515.77 484.425 1514.4 484.291 1513.2H498.691Z" fill="black"/>
<path d="M432.99 1515.6C433.923 1516.93 434.957 1518.5 436.09 1520.3C437.223 1522.1 438.29 1523.9 439.29 1525.7C440.357 1527.5 441.29 1529.17 442.09 1530.7L433.39 1534.6C432.457 1532.47 431.523 1530.57 430.59 1528.9C429.723 1527.23 428.823 1525.63 427.89 1524.1C426.957 1522.5 425.857 1520.83 424.59 1519.1L432.99 1515.6ZM446.09 1510.1C447.09 1511.43 448.157 1512.97 449.29 1514.7C450.49 1516.43 451.623 1518.2 452.69 1520C453.823 1521.73 454.757 1523.37 455.49 1524.9L447.09 1529C446.023 1526.87 444.99 1525 443.99 1523.4C443.057 1521.73 442.09 1520.17 441.09 1518.7C440.157 1517.17 439.057 1515.6 437.79 1514L446.09 1510.1ZM393.09 1581.9C393.09 1580.57 393.09 1578.47 393.09 1575.6C393.09 1572.67 393.09 1569.3 393.09 1565.5C393.09 1561.63 393.09 1557.63 393.09 1553.5C393.09 1549.3 393.09 1545.27 393.09 1541.4C393.09 1537.47 393.09 1534 393.09 1531C393.09 1528 393.09 1525.8 393.09 1524.4C393.09 1522.6 392.99 1520.57 392.79 1518.3C392.657 1516.03 392.423 1514.03 392.09 1512.3H407.69C407.49 1514.03 407.29 1515.97 407.09 1518.1C406.89 1520.23 406.79 1522.33 406.79 1524.4C406.79 1526.2 406.79 1528.7 406.79 1531.9C406.79 1535.1 406.79 1538.67 406.79 1542.6C406.79 1546.47 406.79 1550.43 406.79 1554.5C406.79 1558.57 406.79 1562.47 406.79 1566.2C406.79 1569.87 406.79 1573.1 406.79 1575.9C406.79 1578.63 406.79 1580.63 406.79 1581.9C406.79 1582.77 406.823 1584.07 406.89 1585.8C407.023 1587.47 407.157 1589.2 407.29 1591C407.49 1592.8 407.657 1594.4 407.79 1595.8H392.09C392.423 1593.87 392.657 1591.57 392.79 1588.9C392.99 1586.17 393.09 1583.83 393.09 1581.9ZM403.89 1538.2C407.223 1539.07 410.923 1540.2 414.99 1541.6C419.123 1542.93 423.29 1544.4 427.49 1546C431.69 1547.53 435.657 1549.07 439.39 1550.6C443.123 1552.07 446.19 1553.4 448.59 1554.6L442.99 1568.5C440.123 1566.97 436.99 1565.47 433.59 1564C430.19 1562.53 426.723 1561.1 423.19 1559.7C419.723 1558.23 416.323 1556.9 412.99 1555.7C409.657 1554.5 406.623 1553.47 403.89 1552.6V1538.2Z" fill="black"/>
<path d="M348.608 1510C349.308 1510 349.808 1510.5 349.808 1511.2V1588.7C349.808 1589.4 349.308 1590 348.608 1590H340.608C339.908 1590 339.408 1589.4 339.408 1588.7V1520.2H326.908C325.808 1520.2 325.308 1519.1 325.808 1518.4L330.808 1510.5C331.008 1510.2 331.408 1510 331.808 1510H348.608Z" fill="black"/>
<path d="M708.326 1361.5C708.166 1362.37 707.91 1363.49 707.558 1364.86C707.206 1366.24 706.694 1367.79 706.022 1369.52C705.51 1370.7 704.918 1371.94 704.246 1373.22C703.606 1374.46 702.95 1375.58 702.278 1376.58C702.694 1376.38 703.222 1376.22 703.862 1376.1C704.502 1375.94 705.158 1375.82 705.83 1375.76C706.534 1375.66 707.158 1375.62 707.702 1375.62C709.718 1375.62 711.382 1376.19 712.694 1377.34C714.038 1378.5 714.71 1380.21 714.71 1382.48C714.71 1383.12 714.71 1383.9 714.71 1384.83C714.742 1385.76 714.774 1386.74 714.806 1387.76C714.838 1388.75 714.87 1389.73 714.902 1390.69C714.934 1391.65 714.95 1392.51 714.95 1393.28H709.19C709.254 1392.74 709.286 1392.1 709.286 1391.36C709.318 1390.59 709.334 1389.79 709.334 1388.96C709.366 1388.13 709.382 1387.33 709.382 1386.56C709.414 1385.76 709.43 1385.04 709.43 1384.4C709.43 1382.86 709.014 1381.81 708.182 1381.23C707.382 1380.62 706.486 1380.32 705.494 1380.32C704.15 1380.32 702.79 1380.66 701.414 1381.33C700.07 1381.97 698.934 1382.74 698.006 1383.63C697.302 1384.34 696.582 1385.12 695.846 1385.98C695.142 1386.85 694.374 1387.82 693.542 1388.91L688.406 1385.07C690.486 1383.15 692.278 1381.3 693.782 1379.5C695.318 1377.71 696.614 1375.94 697.67 1374.18C698.726 1372.42 699.59 1370.66 700.262 1368.9C700.742 1367.62 701.126 1366.29 701.414 1364.91C701.734 1363.5 701.926 1362.19 701.99 1360.98L708.326 1361.5ZM690.278 1365.92C691.494 1366.11 692.902 1366.26 694.502 1366.35C696.102 1366.45 697.51 1366.5 698.726 1366.5C700.838 1366.5 703.142 1366.45 705.638 1366.35C708.166 1366.26 710.726 1366.1 713.318 1365.87C715.91 1365.62 718.374 1365.3 720.71 1364.91L720.662 1370.48C718.966 1370.7 717.126 1370.91 715.142 1371.1C713.19 1371.26 711.19 1371.41 709.142 1371.54C707.126 1371.63 705.19 1371.71 703.334 1371.78C701.478 1371.81 699.83 1371.82 698.39 1371.82C697.75 1371.82 696.95 1371.82 695.99 1371.82C695.062 1371.79 694.102 1371.76 693.11 1371.73C692.118 1371.66 691.174 1371.6 690.278 1371.54V1365.92ZM728.294 1379.55C727.782 1379.71 727.174 1379.92 726.47 1380.18C725.798 1380.4 725.11 1380.64 724.406 1380.9C723.734 1381.12 723.126 1381.34 722.582 1381.57C721.046 1382.18 719.222 1382.91 717.11 1383.78C715.03 1384.64 712.854 1385.65 710.582 1386.8C709.142 1387.57 707.926 1388.32 706.934 1389.06C705.942 1389.79 705.19 1390.54 704.678 1391.31C704.166 1392.05 703.91 1392.86 703.91 1393.76C703.91 1394.43 704.054 1394.99 704.342 1395.44C704.63 1395.86 705.062 1396.19 705.638 1396.45C706.214 1396.7 706.934 1396.88 707.798 1396.98C708.662 1397.07 709.686 1397.12 710.87 1397.12C712.918 1397.12 715.174 1397.01 717.638 1396.78C720.102 1396.53 722.39 1396.19 724.502 1395.78L724.31 1401.97C723.286 1402.1 721.99 1402.22 720.422 1402.35C718.854 1402.51 717.222 1402.62 715.526 1402.69C713.862 1402.75 712.262 1402.78 710.726 1402.78C708.23 1402.78 705.99 1402.54 704.006 1402.06C702.022 1401.58 700.454 1400.77 699.302 1399.62C698.182 1398.43 697.622 1396.82 697.622 1394.77C697.622 1393.1 697.99 1391.6 698.726 1390.26C699.494 1388.91 700.502 1387.7 701.75 1386.61C702.998 1385.52 704.358 1384.54 705.83 1383.68C707.334 1382.78 708.806 1381.97 710.246 1381.23C711.718 1380.46 713.046 1379.81 714.23 1379.26C715.414 1378.72 716.518 1378.24 717.542 1377.82C718.598 1377.38 719.606 1376.93 720.566 1376.48C721.494 1376.06 722.39 1375.66 723.254 1375.28C724.118 1374.86 724.998 1374.43 725.894 1373.98L728.294 1379.55Z" fill="black"/>
<path d="M680.152 1370.15C679.896 1370.59 679.624 1371.14 679.336 1371.78C679.048 1372.39 678.792 1372.99 678.568 1373.6C678.152 1375.01 677.56 1376.63 676.792 1378.45C676.056 1380.24 675.128 1382.11 674.008 1384.07C672.92 1385.99 671.656 1387.84 670.216 1389.63C667.912 1392.39 665.224 1394.88 662.152 1397.12C659.112 1399.36 655.336 1401.38 650.824 1403.17L645.16 1398.08C648.424 1397.12 651.24 1396.02 653.608 1394.77C655.976 1393.52 658.04 1392.19 659.8 1390.79C661.56 1389.35 663.128 1387.83 664.504 1386.23C665.624 1384.98 666.648 1383.57 667.576 1382C668.504 1380.4 669.305 1378.82 669.977 1377.25C670.649 1375.68 671.096 1374.31 671.32 1373.12H655.145L657.352 1367.7C657.8 1367.7 658.489 1367.7 659.417 1367.7C660.377 1367.7 661.448 1367.7 662.632 1367.7C663.848 1367.7 665.032 1367.7 666.184 1367.7C667.368 1367.7 668.392 1367.7 669.257 1367.7C670.153 1367.7 670.761 1367.7 671.081 1367.7C671.817 1367.7 672.552 1367.65 673.288 1367.55C674.056 1367.46 674.712 1367.31 675.257 1367.12L680.152 1370.15ZM664.504 1362.56C663.928 1363.39 663.368 1364.29 662.824 1365.25C662.28 1366.21 661.864 1366.95 661.576 1367.46C660.488 1369.38 659.144 1371.38 657.544 1373.46C655.976 1375.51 654.184 1377.51 652.168 1379.46C650.152 1381.38 648.008 1383.14 645.736 1384.74L640.312 1380.75C642.424 1379.44 644.28 1378.1 645.88 1376.72C647.512 1375.35 648.92 1373.99 650.104 1372.64C651.288 1371.27 652.296 1369.95 653.128 1368.71C653.992 1367.43 654.728 1366.29 655.336 1365.3C655.72 1364.69 656.12 1363.91 656.536 1362.95C656.952 1361.95 657.272 1361.06 657.496 1360.26L664.504 1362.56Z" fill="black"/>
<path d="M600.566 1363.52C601.398 1364.1 602.374 1364.8 603.494 1365.64C604.614 1366.47 605.766 1367.38 606.95 1368.37C608.166 1369.33 609.302 1370.28 610.358 1371.2C611.414 1372.13 612.278 1372.96 612.95 1373.7L608.054 1378.69C607.446 1378.02 606.646 1377.22 605.654 1376.29C604.662 1375.36 603.59 1374.4 602.438 1373.41C601.286 1372.42 600.15 1371.48 599.03 1370.58C597.91 1369.68 596.918 1368.93 596.054 1368.32L600.566 1363.52ZM594.566 1395.49C597.062 1395.14 599.414 1394.64 601.622 1394C603.83 1393.36 605.878 1392.63 607.766 1391.8C609.654 1390.96 611.382 1390.1 612.95 1389.2C615.67 1387.57 618.166 1385.72 620.438 1383.64C622.71 1381.56 624.694 1379.4 626.39 1377.16C628.086 1374.88 629.43 1372.68 630.422 1370.53L634.166 1377.3C632.95 1379.44 631.446 1381.59 629.654 1383.73C627.894 1385.88 625.894 1387.92 623.654 1389.88C621.414 1391.8 618.998 1393.52 616.406 1395.06C614.774 1396.05 613.014 1397 611.126 1397.89C609.238 1398.76 607.238 1399.52 605.126 1400.2C603.046 1400.9 600.87 1401.44 598.598 1401.83L594.566 1395.49Z" fill="black"/>
<path d="M579.545 1362.75C579.513 1363.42 579.464 1364.16 579.4 1364.96C579.368 1365.73 579.353 1366.59 579.353 1367.55C579.353 1368.38 579.353 1369.39 579.353 1370.57C579.353 1371.76 579.353 1372.94 579.353 1374.13C579.353 1375.28 579.353 1376.25 579.353 1377.05C579.353 1379.61 579.225 1381.85 578.969 1383.77C578.745 1385.69 578.393 1387.37 577.913 1388.81C577.433 1390.25 576.841 1391.53 576.137 1392.65C575.465 1393.74 574.681 1394.78 573.785 1395.77C572.729 1396.93 571.513 1397.97 570.137 1398.89C568.761 1399.79 567.369 1400.54 565.961 1401.15C564.585 1401.79 563.304 1402.3 562.12 1402.69L557.081 1397.41C559.481 1396.86 561.641 1396.11 563.561 1395.15C565.513 1394.16 567.208 1392.89 568.648 1391.36C569.48 1390.43 570.153 1389.5 570.665 1388.57C571.177 1387.65 571.56 1386.62 571.816 1385.5C572.104 1384.35 572.297 1383.05 572.393 1381.61C572.521 1380.17 572.585 1378.53 572.585 1376.67C572.585 1375.84 572.585 1374.85 572.585 1373.69C572.585 1372.54 572.585 1371.41 572.585 1370.29C572.585 1369.17 572.585 1368.25 572.585 1367.55C572.585 1366.59 572.553 1365.73 572.489 1364.96C572.457 1364.16 572.393 1363.42 572.297 1362.75H579.545ZM557.273 1363.13C557.241 1363.71 557.208 1364.29 557.176 1364.86C557.144 1365.41 557.129 1366.06 557.129 1366.83C557.129 1367.18 557.129 1367.76 557.129 1368.56C557.129 1369.36 557.129 1370.3 557.129 1371.39C557.129 1372.45 557.129 1373.57 557.129 1374.75C557.129 1375.9 557.129 1377.02 557.129 1378.11C557.129 1379.2 557.129 1380.19 557.129 1381.09C557.129 1381.95 557.129 1382.61 557.129 1383.05C557.129 1383.66 557.144 1384.37 557.176 1385.17C557.208 1385.97 557.241 1386.65 557.273 1387.23H550.312C550.345 1386.78 550.392 1386.14 550.456 1385.31C550.52 1384.48 550.553 1383.71 550.553 1383.01C550.553 1382.56 550.553 1381.9 550.553 1381.04C550.553 1380.17 550.553 1379.2 550.553 1378.11C550.553 1376.99 550.553 1375.85 550.553 1374.7C550.553 1373.52 550.553 1372.4 550.553 1371.34C550.553 1370.29 550.553 1369.36 550.553 1368.56C550.553 1367.76 550.553 1367.18 550.553 1366.83C550.553 1366.38 550.537 1365.81 550.505 1365.1C550.473 1364.37 550.425 1363.71 550.361 1363.13H557.273Z" fill="black"/>
<path d="M525.737 1364.29C526.185 1364.93 526.681 1365.68 527.225 1366.54C527.769 1367.41 528.281 1368.27 528.761 1369.14C529.273 1370 529.721 1370.8 530.105 1371.54L525.929 1373.41C525.481 1372.38 525.033 1371.47 524.585 1370.67C524.169 1369.87 523.737 1369.1 523.289 1368.37C522.841 1367.6 522.313 1366.8 521.705 1365.97L525.737 1364.29ZM532.025 1361.65C532.505 1362.29 533.017 1363.02 533.561 1363.86C534.137 1364.69 534.681 1365.54 535.193 1366.4C535.737 1367.23 536.185 1368.02 536.537 1368.75L532.505 1370.72C531.993 1369.7 531.497 1368.8 531.017 1368.03C530.569 1367.23 530.105 1366.48 529.625 1365.78C529.177 1365.04 528.649 1364.29 528.041 1363.52L532.025 1361.65ZM506.585 1396.11C506.585 1395.47 506.585 1394.46 506.585 1393.09C506.585 1391.68 506.585 1390.06 506.585 1388.24C506.585 1386.38 506.585 1384.46 506.585 1382.48C506.585 1380.46 506.585 1378.53 506.585 1376.67C506.585 1374.78 506.585 1373.12 506.585 1371.68C506.585 1370.24 506.585 1369.18 506.585 1368.51C506.585 1367.65 506.537 1366.67 506.441 1365.58C506.377 1364.5 506.265 1363.54 506.105 1362.7H513.593C513.497 1363.54 513.401 1364.46 513.305 1365.49C513.209 1366.51 513.161 1367.52 513.161 1368.51C513.161 1369.38 513.161 1370.58 513.161 1372.11C513.161 1373.65 513.161 1375.36 513.161 1377.25C513.161 1379.1 513.161 1381.01 513.161 1382.96C513.161 1384.91 513.161 1386.78 513.161 1388.58C513.161 1390.34 513.161 1391.89 513.161 1393.23C513.161 1394.54 513.161 1395.5 513.161 1396.11C513.161 1396.53 513.177 1397.15 513.209 1397.98C513.273 1398.78 513.337 1399.62 513.401 1400.48C513.497 1401.34 513.577 1402.11 513.641 1402.78H506.105C506.265 1401.86 506.377 1400.75 506.441 1399.47C506.537 1398.16 506.585 1397.04 506.585 1396.11ZM511.769 1375.14C513.369 1375.55 515.145 1376.1 517.097 1376.77C519.081 1377.41 521.081 1378.11 523.097 1378.88C525.113 1379.62 527.017 1380.35 528.809 1381.09C530.601 1381.79 532.073 1382.43 533.225 1383.01L530.537 1389.68C529.161 1388.94 527.657 1388.22 526.025 1387.52C524.393 1386.82 522.729 1386.13 521.033 1385.46C519.369 1384.75 517.737 1384.11 516.137 1383.54C514.537 1382.96 513.081 1382.46 511.769 1382.05V1375.14Z" fill="black"/>
<path d="M460.074 1395.39C460.074 1394.78 460.074 1393.79 460.074 1392.42C460.074 1391.01 460.074 1389.39 460.074 1387.57C460.074 1385.71 460.074 1383.78 460.074 1381.76C460.074 1379.74 460.074 1377.81 460.074 1375.95C460.074 1374.06 460.074 1372.4 460.074 1370.96C460.074 1369.52 460.074 1368.46 460.074 1367.79C460.074 1366.96 460.026 1366 459.93 1364.91C459.866 1363.82 459.754 1362.86 459.594 1362.03H467.082C466.986 1362.86 466.89 1363.79 466.794 1364.82C466.698 1365.81 466.65 1366.8 466.65 1367.79C466.65 1368.69 466.65 1369.9 466.65 1371.44C466.65 1372.98 466.65 1374.69 466.65 1376.58C466.65 1378.43 466.65 1380.34 466.65 1382.29C466.65 1384.21 466.65 1386.06 466.65 1387.86C466.65 1389.65 466.65 1391.22 466.65 1392.56C466.65 1393.87 466.65 1394.82 466.65 1395.39C466.65 1395.84 466.666 1396.48 466.698 1397.31C466.73 1398.11 466.794 1398.94 466.89 1399.81C466.986 1400.67 467.05 1401.44 467.082 1402.11H459.594C459.722 1401.15 459.834 1400.03 459.93 1398.75C460.026 1397.47 460.074 1396.35 460.074 1395.39ZM465.21 1374.46C466.81 1374.88 468.602 1375.42 470.586 1376.1C472.57 1376.74 474.57 1377.42 476.586 1378.16C478.602 1378.9 480.49 1379.63 482.25 1380.37C484.042 1381.07 485.53 1381.73 486.714 1382.34L483.978 1388.96C482.634 1388.26 481.146 1387.55 479.514 1386.85C477.882 1386.11 476.218 1385.41 474.522 1384.74C472.858 1384.06 471.21 1383.44 469.578 1382.86C467.978 1382.29 466.522 1381.78 465.21 1381.33V1374.46Z" fill="black"/>
<path d="M439.67 1368.03C439.446 1368.48 439.238 1369.02 439.046 1369.66C438.886 1370.27 438.742 1370.85 438.614 1371.39C438.358 1372.54 438.022 1373.86 437.606 1375.33C437.19 1376.8 436.694 1378.32 436.118 1379.89C435.542 1381.46 434.854 1383.01 434.054 1384.54C433.286 1386.08 432.406 1387.52 431.414 1388.86C429.974 1390.75 428.294 1392.54 426.374 1394.24C424.454 1395.9 422.31 1397.41 419.942 1398.75C417.574 1400.06 414.966 1401.18 412.118 1402.11L406.886 1396.4C410.054 1395.63 412.79 1394.69 415.094 1393.57C417.43 1392.42 419.462 1391.14 421.19 1389.73C422.918 1388.29 424.422 1386.75 425.702 1385.12C426.758 1383.78 427.654 1382.32 428.39 1380.75C429.158 1379.18 429.782 1377.6 430.262 1376C430.774 1374.4 431.126 1372.93 431.318 1371.58C430.838 1371.58 430.038 1371.58 428.918 1371.58C427.83 1371.58 426.534 1371.58 425.03 1371.58C423.558 1371.58 422.006 1371.58 420.374 1371.58C418.774 1371.58 417.222 1371.58 415.718 1371.58C414.214 1371.58 412.854 1371.58 411.638 1371.58C410.454 1371.58 409.558 1371.58 408.95 1371.58C407.862 1371.58 406.79 1371.6 405.734 1371.63C404.71 1371.66 403.878 1371.71 403.238 1371.78V1365.01C403.75 1365.04 404.342 1365.09 405.014 1365.15C405.686 1365.22 406.39 1365.28 407.126 1365.34C407.862 1365.38 408.486 1365.39 408.998 1365.39C409.478 1365.39 410.198 1365.39 411.158 1365.39C412.118 1365.39 413.222 1365.39 414.47 1365.39C415.718 1365.39 417.014 1365.39 418.358 1365.39C419.734 1365.39 421.094 1365.39 422.438 1365.39C423.782 1365.39 425.046 1365.39 426.23 1365.39C427.414 1365.39 428.438 1365.39 429.302 1365.39C430.198 1365.39 430.822 1365.39 431.174 1365.39C431.654 1365.39 432.246 1365.38 432.95 1365.34C433.654 1365.28 434.31 1365.17 434.918 1365.01L439.67 1368.03Z" fill="black"/>
<path d="M360.711 1397.22C364.583 1395.59 367.847 1393.64 370.503 1391.36C373.191 1389.09 375.399 1386.69 377.127 1384.16C378.919 1381.6 380.215 1379.04 381.015 1376.48C381.815 1373.92 382.407 1371.65 382.791 1369.67C383.047 1368.58 383.223 1367.49 383.319 1366.4C383.415 1365.32 383.447 1364.47 383.415 1363.86L391.191 1364.92C390.903 1365.84 390.631 1366.85 390.375 1367.94C390.119 1369 389.911 1369.86 389.751 1370.53C389.143 1373.35 388.311 1376.2 387.255 1379.08C386.231 1381.92 384.839 1384.69 383.079 1387.38C381.223 1390.29 378.935 1393.01 376.215 1395.54C373.495 1398.07 370.231 1400.26 366.423 1402.12L360.711 1397.22ZM359.703 1364.1C360.311 1364.93 360.999 1365.97 361.767 1367.22C362.535 1368.47 363.303 1369.78 364.071 1371.16C364.871 1372.5 365.607 1373.8 366.279 1375.04C366.983 1376.29 367.559 1377.33 368.007 1378.16L361.671 1381.76C361.095 1380.45 360.439 1379.12 359.703 1377.78C358.999 1376.4 358.279 1375.06 357.543 1373.75C356.807 1372.4 356.087 1371.19 355.383 1370.1C354.711 1368.98 354.103 1368.04 353.559 1367.27L359.703 1364.1Z" fill="black"/>
<path d="M858.806 1193.57C858.474 1193.95 858.096 1194.42 857.67 1194.99C857.244 1195.56 856.912 1196.03 856.676 1196.41C856.06 1197.4 855.208 1198.63 854.12 1200.1C853.078 1201.57 851.895 1203.16 850.57 1204.86C849.244 1206.52 847.895 1208.08 846.523 1209.55C845.15 1211.01 843.825 1212.24 842.547 1213.24L835.447 1208.27C836.772 1207.32 838.121 1206.21 839.494 1204.93C840.866 1203.65 842.097 1202.35 843.186 1201.03C844.274 1199.65 845.103 1198.47 845.671 1197.48C845.103 1197.48 844.038 1197.48 842.476 1197.48C840.914 1197.48 839.068 1197.48 836.938 1197.48C834.855 1197.48 832.654 1197.48 830.335 1197.48C828.015 1197.48 825.791 1197.48 823.661 1197.48C821.531 1197.48 819.685 1197.48 818.123 1197.48C816.561 1197.48 815.472 1197.48 814.857 1197.48C813.673 1197.48 812.466 1197.52 811.236 1197.62C810.052 1197.66 808.798 1197.76 807.473 1197.9V1188.74C808.609 1188.93 809.816 1189.07 811.094 1189.17C812.419 1189.26 813.673 1189.31 814.857 1189.31C815.472 1189.31 816.608 1189.31 818.265 1189.31C819.969 1189.31 821.98 1189.31 824.3 1189.31C826.619 1189.31 829.033 1189.31 831.542 1189.31C834.05 1189.31 836.441 1189.31 838.713 1189.31C840.985 1189.31 842.925 1189.31 844.535 1189.31C846.191 1189.31 847.28 1189.31 847.801 1189.31C848.321 1189.31 848.96 1189.29 849.718 1189.24C850.475 1189.19 851.209 1189.14 851.919 1189.1C852.676 1189 853.22 1188.91 853.552 1188.81L858.806 1193.57ZM834.453 1201.03C834.358 1203.68 834.24 1206.3 834.098 1208.91C833.956 1211.46 833.601 1213.97 833.033 1216.43C832.512 1218.85 831.66 1221.21 830.477 1223.53C829.293 1225.8 827.637 1227.96 825.507 1229.99C823.424 1232.08 820.726 1234.04 817.413 1235.89L809.887 1229.85C810.833 1229.47 811.756 1229.07 812.656 1228.64C813.602 1228.17 814.596 1227.56 815.638 1226.8C818.336 1224.95 820.371 1223.01 821.744 1220.98C823.116 1218.89 824.016 1216.65 824.442 1214.23C824.915 1211.77 825.152 1209.05 825.152 1206.07C825.152 1205.21 825.104 1204.36 825.01 1203.51C824.915 1202.61 824.797 1201.78 824.655 1201.03H834.453Z" fill="black"/>
<path d="M758.267 1173.69C758.741 1174.54 759.309 1175.79 759.971 1177.45C760.681 1179.06 761.391 1180.83 762.101 1182.78C762.859 1184.67 763.569 1186.51 764.231 1188.31C764.894 1190.06 765.391 1191.53 765.722 1192.72L756.776 1195.84C756.492 1194.7 756.019 1193.28 755.356 1191.58C754.741 1189.83 754.078 1188.03 753.368 1186.18C752.658 1184.29 751.948 1182.49 751.238 1180.79C750.528 1179.08 749.913 1177.69 749.392 1176.6L758.267 1173.69ZM790.714 1179.37C790.288 1180.22 789.91 1181.14 789.578 1182.14C789.294 1183.13 789.058 1184.05 788.868 1184.91C788.206 1187.46 787.306 1190.33 786.17 1193.5C785.082 1196.67 783.756 1199.84 782.194 1203.01C780.68 1206.13 778.928 1209 776.94 1211.6C774.479 1214.87 771.71 1217.85 768.633 1220.55C765.604 1223.2 762.433 1225.52 759.119 1227.51C755.806 1229.49 752.445 1231.13 749.037 1232.4L741.085 1224.45C744.351 1223.51 747.665 1222.18 751.025 1220.48C754.433 1218.77 757.699 1216.71 760.823 1214.3C763.995 1211.89 766.764 1209.16 769.13 1206.13C770.929 1203.86 772.562 1201.09 774.029 1197.83C775.544 1194.56 776.822 1191.08 777.863 1187.39C778.952 1183.65 779.686 1179.96 780.064 1176.31L790.714 1179.37ZM738.529 1178.09C739.05 1179.18 739.689 1180.6 740.446 1182.35C741.251 1184.1 742.056 1185.95 742.86 1187.89C743.665 1189.83 744.399 1191.7 745.061 1193.5C745.771 1195.25 746.339 1196.74 746.765 1197.97L737.606 1201.31C737.322 1200.36 736.92 1199.2 736.399 1197.83C735.926 1196.45 735.358 1194.96 734.695 1193.35C734.08 1191.75 733.441 1190.16 732.778 1188.6C732.116 1187.04 731.5 1185.62 730.932 1184.34C730.364 1183.06 729.867 1182.02 729.441 1181.21L738.529 1178.09Z" fill="black"/>
<path d="M670.797 1175.04C672.028 1175.89 673.471 1176.93 675.128 1178.16C676.785 1179.39 678.489 1180.74 680.24 1182.21C682.039 1183.63 683.719 1185.03 685.281 1186.4C686.843 1187.77 688.121 1189 689.115 1190.09L681.873 1197.48C680.974 1196.48 679.79 1195.3 678.323 1193.93C676.856 1192.55 675.27 1191.13 673.566 1189.67C671.862 1188.2 670.182 1186.8 668.525 1185.48C666.868 1184.15 665.401 1183.04 664.123 1182.14L670.797 1175.04ZM661.922 1222.33C665.614 1221.8 669.093 1221.07 672.359 1220.12C675.625 1219.18 678.654 1218.09 681.447 1216.86C684.24 1215.63 686.796 1214.35 689.115 1213.02C693.138 1210.61 696.83 1207.86 700.191 1204.79C703.552 1201.71 706.486 1198.52 708.995 1195.2C711.504 1191.84 713.492 1188.58 714.959 1185.41L720.497 1195.42C718.698 1198.59 716.474 1201.76 713.823 1204.93C711.22 1208.1 708.261 1211.13 704.948 1214.02C701.635 1216.86 698.061 1219.41 694.227 1221.69C691.813 1223.15 689.21 1224.55 686.417 1225.88C683.624 1227.15 680.666 1228.29 677.542 1229.28C674.465 1230.32 671.247 1231.13 667.886 1231.7L661.922 1222.33Z" fill="black"/>
<path d="M653.333 1180.93C652.954 1181.41 652.481 1182.02 651.913 1182.78C651.345 1183.49 650.895 1184.11 650.564 1184.63C649.475 1186.47 648.031 1188.6 646.233 1191.02C644.434 1193.38 642.446 1195.75 640.269 1198.12C638.091 1200.44 635.843 1202.42 633.524 1204.08L626.14 1198.19C627.56 1197.34 628.956 1196.34 630.329 1195.21C631.701 1194.07 632.956 1192.89 634.092 1191.66C635.275 1190.38 636.293 1189.17 637.145 1188.03C638.044 1186.9 638.73 1185.88 639.204 1184.98C638.588 1184.98 637.547 1184.98 636.08 1184.98C634.612 1184.98 632.861 1184.98 630.826 1184.98C628.79 1184.98 626.589 1184.98 624.223 1184.98C621.903 1184.98 619.584 1184.98 617.265 1184.98C614.945 1184.98 612.744 1184.98 610.662 1184.98C608.626 1184.98 606.851 1184.98 605.337 1184.98C603.869 1184.98 602.828 1184.98 602.213 1184.98C600.745 1184.98 599.349 1185.03 598.024 1185.12C596.698 1185.22 595.207 1185.34 593.551 1185.48V1175.61C594.923 1175.8 596.343 1175.96 597.811 1176.11C599.278 1176.25 600.745 1176.32 602.213 1176.32C602.828 1176.32 603.917 1176.32 605.479 1176.32C607.041 1176.32 608.887 1176.32 611.017 1176.32C613.194 1176.32 615.49 1176.32 617.904 1176.32C620.365 1176.32 622.803 1176.32 625.217 1176.32C627.678 1176.32 629.95 1176.32 632.033 1176.32C634.163 1176.32 635.961 1176.32 637.429 1176.32C638.943 1176.32 639.961 1176.32 640.482 1176.32C641.144 1176.32 641.949 1176.3 642.896 1176.25C643.842 1176.2 644.765 1176.13 645.665 1176.04C646.611 1175.94 647.298 1175.82 647.724 1175.68L653.333 1180.93ZM624.365 1190.52C624.365 1194.02 624.294 1197.41 624.152 1200.67C624.01 1203.94 623.607 1207.09 622.945 1210.12C622.329 1213.1 621.312 1215.94 619.892 1218.64C618.519 1221.33 616.602 1223.89 614.141 1226.3C611.679 1228.72 608.532 1230.94 604.698 1232.98L596.391 1226.23C597.527 1225.85 598.734 1225.36 600.012 1224.74C601.29 1224.08 602.568 1223.27 603.846 1222.33C606.118 1220.77 607.94 1219.11 609.313 1217.36C610.733 1215.61 611.821 1213.71 612.579 1211.68C613.336 1209.59 613.857 1207.35 614.141 1204.93C614.425 1202.47 614.567 1199.8 614.567 1196.91C614.567 1195.82 614.543 1194.78 614.496 1193.79C614.448 1192.74 614.306 1191.66 614.07 1190.52H624.365Z" fill="black"/>
<path d="M571.54 1173.91C571.492 1174.9 571.421 1175.99 571.327 1177.17C571.279 1178.31 571.256 1179.59 571.256 1181.01C571.256 1182.24 571.256 1183.73 571.256 1185.48C571.256 1187.23 571.256 1188.98 571.256 1190.73C571.256 1192.44 571.256 1193.88 571.256 1195.06C571.256 1198.85 571.066 1202.16 570.688 1205C570.356 1207.84 569.836 1210.33 569.126 1212.46C568.416 1214.59 567.54 1216.48 566.499 1218.14C565.505 1219.75 564.345 1221.29 563.02 1222.75C561.458 1224.46 559.659 1226 557.624 1227.37C555.588 1228.69 553.529 1229.81 551.447 1230.71C549.411 1231.65 547.518 1232.41 545.767 1232.98L538.312 1225.17C541.862 1224.36 545.057 1223.25 547.897 1221.83C550.784 1220.36 553.293 1218.49 555.423 1216.22C556.653 1214.85 557.647 1213.48 558.405 1212.1C559.162 1210.73 559.73 1209.22 560.109 1207.56C560.535 1205.86 560.819 1203.94 560.961 1201.81C561.15 1199.68 561.245 1197.24 561.245 1194.5C561.245 1193.27 561.245 1191.8 561.245 1190.09C561.245 1188.39 561.245 1186.71 561.245 1185.05C561.245 1183.4 561.245 1182.05 561.245 1181.01C561.245 1179.59 561.197 1178.31 561.103 1177.17C561.055 1175.99 560.961 1174.9 560.819 1173.91H571.54ZM538.596 1174.47C538.548 1175.33 538.501 1176.18 538.454 1177.03C538.406 1177.83 538.383 1178.81 538.383 1179.94C538.383 1180.46 538.383 1181.31 538.383 1182.5C538.383 1183.68 538.383 1185.08 538.383 1186.69C538.383 1188.25 538.383 1189.9 538.383 1191.66C538.383 1193.36 538.383 1195.02 538.383 1196.63C538.383 1198.24 538.383 1199.7 538.383 1201.03C538.383 1202.31 538.383 1203.28 538.383 1203.94C538.383 1204.84 538.406 1205.88 538.454 1207.06C538.501 1208.25 538.548 1209.26 538.596 1210.12H528.301C528.348 1209.45 528.419 1208.51 528.514 1207.28C528.608 1206.05 528.656 1204.91 528.656 1203.87C528.656 1203.21 528.656 1202.24 528.656 1200.96C528.656 1199.68 528.656 1198.24 528.656 1196.63C528.656 1194.97 528.656 1193.29 528.656 1191.59C528.656 1189.83 528.656 1188.18 528.656 1186.62C528.656 1185.05 528.656 1183.68 528.656 1182.5C528.656 1181.31 528.656 1180.46 528.656 1179.94C528.656 1179.28 528.632 1178.43 528.585 1177.39C528.537 1176.3 528.466 1175.33 528.372 1174.47H538.596Z" fill="black"/>
<path d="M497.419 1169.15C498.034 1170.05 498.673 1171.07 499.336 1172.2C500.046 1173.34 500.709 1174.48 501.324 1175.61C501.939 1176.7 502.46 1177.67 502.886 1178.52L496.922 1181.01C496.449 1180.06 495.904 1179.04 495.289 1177.95C494.721 1176.87 494.106 1175.78 493.443 1174.69C492.828 1173.55 492.212 1172.51 491.597 1171.56L497.419 1169.15ZM507.359 1167.38C507.974 1168.23 508.637 1169.22 509.347 1170.36C510.057 1171.49 510.743 1172.63 511.406 1173.76C512.069 1174.9 512.613 1175.9 513.039 1176.75L507.146 1179.3C506.341 1177.84 505.418 1176.2 504.377 1174.4C503.383 1172.61 502.413 1171.04 501.466 1169.72L507.359 1167.38ZM504.803 1182.57C504.472 1183.23 504.164 1184.04 503.88 1184.98C503.643 1185.88 503.43 1186.71 503.241 1187.47C502.815 1189.22 502.294 1191.18 501.679 1193.36C501.111 1195.49 500.377 1197.72 499.478 1200.03C498.626 1202.35 497.608 1204.65 496.425 1206.92C495.289 1209.19 493.987 1211.32 492.52 1213.31C490.39 1216.15 487.905 1218.8 485.065 1221.26C482.272 1223.73 479.101 1225.95 475.551 1227.94C472.048 1229.93 468.191 1231.61 463.978 1232.98L456.239 1224.46C460.972 1223.32 465.043 1221.93 468.451 1220.27C471.906 1218.61 474.888 1216.72 477.397 1214.59C479.906 1212.46 482.13 1210.19 484.071 1207.77C485.633 1205.79 486.982 1203.63 488.118 1201.31C489.254 1198.99 490.177 1196.67 490.887 1194.35C491.597 1191.99 492.094 1189.79 492.378 1187.75C491.715 1187.75 490.556 1187.75 488.899 1187.75C487.242 1187.75 485.325 1187.75 483.148 1187.75C480.971 1187.75 478.675 1187.75 476.261 1187.75C473.847 1187.75 471.528 1187.75 469.303 1187.75C467.078 1187.75 465.067 1187.75 463.268 1187.75C461.517 1187.75 460.215 1187.75 459.363 1187.75C457.706 1187.75 456.121 1187.78 454.606 1187.82C453.091 1187.87 451.861 1187.94 450.914 1188.04V1178.02C451.624 1178.12 452.476 1178.21 453.47 1178.31C454.511 1178.4 455.553 1178.47 456.594 1178.52C457.683 1178.57 458.606 1178.59 459.363 1178.59C460.12 1178.59 461.209 1178.59 462.629 1178.59C464.049 1178.59 465.658 1178.59 467.457 1178.59C469.303 1178.59 471.22 1178.59 473.208 1178.59C475.243 1178.59 477.255 1178.59 479.243 1178.59C481.278 1178.59 483.172 1178.59 484.923 1178.59C486.674 1178.59 488.189 1178.59 489.467 1178.59C490.745 1178.59 491.668 1178.59 492.236 1178.59C492.946 1178.59 493.798 1178.57 494.792 1178.52C495.833 1178.47 496.827 1178.31 497.774 1178.02L504.803 1182.57Z" fill="black"/>
<path d="M417.529 1180.86C417.245 1181.29 416.819 1181.95 416.251 1182.85C415.73 1183.75 415.328 1184.58 415.044 1185.34C414.05 1187.56 412.819 1190.04 411.352 1192.79C409.932 1195.54 408.299 1198.3 406.453 1201.1C404.654 1203.84 402.737 1206.42 400.702 1208.84C398.051 1211.82 395.117 1214.78 391.898 1217.71C388.727 1220.6 385.366 1223.27 381.816 1225.73C378.313 1228.15 374.716 1230.23 371.024 1231.98L363.711 1224.31C367.545 1222.85 371.261 1221 374.858 1218.78C378.455 1216.55 381.792 1214.14 384.869 1211.53C387.946 1208.93 390.596 1206.4 392.821 1203.94C394.383 1202.14 395.85 1200.22 397.223 1198.19C398.643 1196.15 399.897 1194.14 400.986 1192.15C402.075 1190.12 402.879 1188.25 403.4 1186.54C402.927 1186.54 402.075 1186.54 400.844 1186.54C399.613 1186.54 398.17 1186.54 396.513 1186.54C394.904 1186.54 393.2 1186.54 391.401 1186.54C389.602 1186.54 387.875 1186.54 386.218 1186.54C384.609 1186.54 383.189 1186.54 381.958 1186.54C380.727 1186.54 379.852 1186.54 379.331 1186.54C378.337 1186.54 377.296 1186.59 376.207 1186.68C375.118 1186.73 374.077 1186.8 373.083 1186.9C372.136 1186.94 371.403 1186.99 370.882 1187.04V1176.96C371.592 1177 372.468 1177.08 373.509 1177.17C374.55 1177.26 375.592 1177.34 376.633 1177.38C377.722 1177.43 378.621 1177.45 379.331 1177.45C379.946 1177.45 380.917 1177.45 382.242 1177.45C383.567 1177.45 385.082 1177.45 386.786 1177.45C388.49 1177.45 390.241 1177.45 392.04 1177.45C393.886 1177.45 395.637 1177.45 397.294 1177.45C398.998 1177.45 400.465 1177.45 401.696 1177.45C402.927 1177.45 403.826 1177.45 404.394 1177.45C405.956 1177.45 407.376 1177.36 408.654 1177.17C409.979 1176.98 410.997 1176.77 411.707 1176.53L417.529 1180.86ZM401.625 1202.94C403.471 1204.41 405.435 1206.11 407.518 1208.06C409.601 1210 411.66 1212.01 413.695 1214.09C415.73 1216.17 417.6 1218.18 419.304 1220.13C421.055 1222.02 422.523 1223.68 423.706 1225.1L415.612 1232.12C413.861 1229.71 411.849 1227.2 409.577 1224.6C407.352 1221.99 404.986 1219.42 402.477 1216.86C400.016 1214.26 397.507 1211.79 394.951 1209.48L401.625 1202.94Z" fill="black"/>
<path d="M344.399 1176.96C344.399 1178.09 344.801 1179.06 345.606 1179.87C346.41 1180.63 347.357 1181 348.446 1181C349.582 1181 350.552 1180.63 351.357 1179.87C352.161 1179.06 352.564 1178.09 352.564 1176.96C352.564 1175.82 352.161 1174.85 351.357 1174.05C350.552 1173.24 349.582 1172.84 348.446 1172.84C347.357 1172.84 346.41 1173.24 345.606 1174.05C344.801 1174.85 344.399 1175.82 344.399 1176.96ZM339.997 1176.96C339.997 1175.4 340.375 1173.98 341.133 1172.7C341.937 1171.37 342.979 1170.33 344.257 1169.57C345.535 1168.82 346.931 1168.44 348.446 1168.44C350.008 1168.44 351.428 1168.82 352.706 1169.57C354.031 1170.33 355.072 1171.37 355.83 1172.7C356.587 1173.98 356.966 1175.4 356.966 1176.96C356.966 1178.47 356.587 1179.87 355.83 1181.15C355.072 1182.42 354.031 1183.47 352.706 1184.27C351.428 1185.03 350.008 1185.41 348.446 1185.41C346.931 1185.41 345.535 1185.03 344.257 1184.27C342.979 1183.47 341.937 1182.42 341.133 1181.15C340.375 1179.87 339.997 1178.47 339.997 1176.96ZM348.588 1182.57C348.256 1183.23 347.972 1184.03 347.736 1184.98C347.499 1185.88 347.262 1186.71 347.026 1187.47C346.647 1189.22 346.15 1191.18 345.535 1193.36C344.919 1195.49 344.186 1197.71 343.334 1200.03C342.482 1202.35 341.464 1204.65 340.281 1206.92C339.145 1209.19 337.843 1211.32 336.376 1213.31C334.246 1216.15 331.761 1218.8 328.921 1221.26C326.081 1223.72 322.909 1225.95 319.407 1227.94C315.904 1229.92 312.046 1231.6 307.834 1232.98L300.095 1224.46C304.828 1223.32 308.899 1221.92 312.307 1220.27C315.715 1218.61 318.673 1216.72 321.182 1214.59C323.738 1212.46 325.986 1210.19 327.927 1207.77C329.489 1205.78 330.814 1203.63 331.903 1201.31C333.039 1198.99 333.962 1196.67 334.672 1194.35C335.429 1191.99 335.95 1189.78 336.234 1187.75C335.524 1187.75 334.34 1187.75 332.684 1187.75C331.074 1187.75 329.157 1187.75 326.933 1187.75C324.755 1187.75 322.46 1187.75 320.046 1187.75C317.679 1187.75 315.383 1187.75 313.159 1187.75C310.934 1187.75 308.922 1187.75 307.124 1187.75C305.372 1187.75 304.071 1187.75 303.219 1187.75C301.562 1187.75 299.953 1187.77 298.391 1187.82C296.876 1187.87 295.669 1187.94 294.77 1188.03V1178.02C295.48 1178.12 296.332 1178.21 297.326 1178.31C298.367 1178.4 299.408 1178.47 300.45 1178.52C301.538 1178.57 302.461 1178.59 303.219 1178.59C303.976 1178.59 305.041 1178.59 306.414 1178.59C307.834 1178.59 309.467 1178.59 311.313 1178.59C313.159 1178.59 315.076 1178.59 317.064 1178.59C319.099 1178.59 321.111 1178.59 323.099 1178.59C325.134 1178.59 327.027 1178.59 328.779 1178.59C330.53 1178.59 332.045 1178.59 333.323 1178.59C334.601 1178.59 335.524 1178.59 336.092 1178.59C336.802 1178.59 337.654 1178.57 338.648 1178.52C339.689 1178.47 340.683 1178.31 341.63 1178.02L348.588 1182.57Z" fill="black"/>
<path d="M229.662 1175.4C230.798 1175.59 232.052 1175.73 233.425 1175.82C234.797 1175.92 236.075 1175.97 237.259 1175.97C238.158 1175.97 239.389 1175.97 240.951 1175.97C242.513 1175.97 244.24 1175.97 246.134 1175.97C248.027 1175.97 249.897 1175.97 251.743 1175.97C253.636 1175.97 255.364 1175.97 256.926 1175.97C258.488 1175.97 259.671 1175.97 260.476 1175.97C261.706 1175.97 262.984 1175.92 264.31 1175.82C265.635 1175.73 266.913 1175.59 268.144 1175.4V1184.56C266.913 1184.46 265.635 1184.42 264.31 1184.42C262.984 1184.37 261.706 1184.34 260.476 1184.34C259.671 1184.34 258.488 1184.34 256.926 1184.34C255.364 1184.34 253.636 1184.34 251.743 1184.34C249.897 1184.34 248.027 1184.34 246.134 1184.34C244.288 1184.34 242.56 1184.34 240.951 1184.34C239.389 1184.34 238.158 1184.34 237.259 1184.34C236.028 1184.34 234.726 1184.37 233.354 1184.42C231.981 1184.42 230.75 1184.46 229.662 1184.56V1175.4ZM221.426 1193.57C222.467 1193.72 223.579 1193.84 224.763 1193.93C225.993 1193.98 227.153 1194 228.242 1194C228.857 1194 230.088 1194 231.934 1194C233.78 1194 236.004 1194 238.608 1194C241.258 1194 244.075 1194 247.057 1194C250.039 1194 253.021 1194 256.003 1194C259.032 1194 261.848 1194 264.452 1194C267.055 1194 269.256 1194 271.055 1194C272.901 1194 274.131 1194 274.747 1194C275.504 1194 276.522 1193.98 277.8 1193.93C279.125 1193.84 280.261 1193.72 281.208 1193.57V1202.8C280.356 1202.71 279.314 1202.66 278.084 1202.66C276.853 1202.62 275.741 1202.59 274.747 1202.59C274.131 1202.59 272.901 1202.59 271.055 1202.59C269.256 1202.59 267.055 1202.59 264.452 1202.59C261.848 1202.59 259.032 1202.59 256.003 1202.59C253.021 1202.59 250.039 1202.59 247.057 1202.59C244.075 1202.59 241.258 1202.59 238.608 1202.59C236.004 1202.59 233.78 1202.59 231.934 1202.59C230.088 1202.59 228.857 1202.59 228.242 1202.59C227.2 1202.59 226.041 1202.62 224.763 1202.66C223.532 1202.71 222.42 1202.78 221.426 1202.88V1193.57ZM257.778 1198.54C257.778 1203.14 257.375 1207.28 256.571 1210.97C255.766 1214.61 254.606 1217.9 253.092 1220.84C252.287 1222.45 251.151 1224.1 249.684 1225.81C248.264 1227.51 246.631 1229.12 244.785 1230.64C242.939 1232.15 240.951 1233.43 238.821 1234.47L230.514 1228.44C233.022 1227.49 235.436 1226.09 237.756 1224.25C240.075 1222.35 241.945 1220.37 243.365 1218.28C245.163 1215.58 246.37 1212.58 246.986 1209.27C247.601 1205.95 247.909 1202.38 247.909 1198.54H257.778ZM272.404 1170.5C273.019 1171.35 273.658 1172.37 274.321 1173.55C275.031 1174.74 275.693 1175.92 276.309 1177.1C276.971 1178.29 277.539 1179.33 278.013 1180.23L272.333 1182.71C271.575 1181.24 270.676 1179.59 269.635 1177.74C268.641 1175.85 267.67 1174.22 266.724 1172.84L272.404 1170.5ZM280.782 1167.3C281.397 1168.2 282.06 1169.27 282.77 1170.5C283.48 1171.68 284.166 1172.87 284.829 1174.05C285.539 1175.19 286.107 1176.16 286.533 1176.96L280.853 1179.45C280.143 1177.93 279.243 1176.25 278.155 1174.4C277.113 1172.56 276.119 1170.97 275.173 1169.65L280.782 1167.3Z" fill="black"/>
</svg>
