<svg width="1080" height="1920" viewBox="0 0 1080 1920" fill="none" xmlns="http://www.w3.org/2000/svg">
<path d="M1080 1920L1080 0L0 0L0 1920H1080Z" fill="#A5D4AD"/>
<path d="M1020 983.72V95C1020 75.67 1004.33 60 985 60H95.58C75.93 60 60 75.93 60 95.58V983.71C60 984.03 60.25 984.28 60.57 984.28C80.03 984.59 95.71 1000.46 95.71 1019.99C95.71 1039.52 80.03 1055.39 60.57 1055.7C60.25 1055.7 60 1055.96 60 1056.27V1824.99C60 1844.32 75.67 1859.99 95 1859.99H985C1004.33 1859.99 1020 1844.32 1020 1824.99V1056.27C1020 1055.95 1019.75 1055.7 1019.43 1055.7C999.97 1055.39 984.29 1039.52 984.29 1019.99C984.29 1000.46 999.97 984.59 1019.43 984.28C1019.75 984.28 1020 984.02 1020 983.71V983.72Z" fill="white"/>
<path d="M60.57 1055.71C60.25 1055.71 60 1055.97 60 1056.28V1825C60 1844.33 75.67 1860 95 1860H985C1004.33 1860 1020 1844.33 1020 1825V1056.28C1020 1055.96 1019.75 1055.71 1019.43 1055.71C999.97 1055.4 984.29 1039.53 984.29 1020H95.71C95.71 1039.53 80.03 1055.4 60.57 1055.71Z" fill="#E5F2E6"/>
<path d="M121 1020H160.9" stroke="black" stroke-width="6" stroke-miterlimit="10"/>
<path d="M187.512 1020H227.412" stroke="black" stroke-width="6" stroke-miterlimit="10"/>
<path d="M254.02 1020H293.92" stroke="black" stroke-width="6" stroke-miterlimit="10"/>
<path d="M320.52 1020H360.43" stroke="black" stroke-width="6" stroke-miterlimit="10"/>
<path d="M387.031 1020H426.941" stroke="black" stroke-width="6" stroke-miterlimit="10"/>
<path d="M453.539 1020H493.439" stroke="black" stroke-width="6" stroke-miterlimit="10"/>
<path d="M520.051 1020H559.951" stroke="black" stroke-width="6" stroke-miterlimit="10"/>
<path d="M586.559 1020H626.459" stroke="black" stroke-width="6" stroke-miterlimit="10"/>
<path d="M653.059 1020H692.969" stroke="black" stroke-width="6" stroke-miterlimit="10"/>
<path d="M719.57 1020H759.48" stroke="black" stroke-width="6" stroke-miterlimit="10"/>
<path d="M786.078 1020H825.978" stroke="black" stroke-width="6" stroke-miterlimit="10"/>
<path d="M852.59 1020H892.49" stroke="black" stroke-width="6" stroke-miterlimit="10"/>
<path d="M919.102 1020H959.002" stroke="black" stroke-width="6" stroke-miterlimit="10"/>
<path d="M1020 984.29V95C1020 75.67 1004.33 60 985 60H95C75.67 60 60 75.67 60 95V984.29C79.72 984.29 95.71 1000.28 95.71 1020C95.71 1039.72 79.72 1055.71 60 1055.71V1825C60 1844.33 75.67 1860 95 1860H985C1004.33 1860 1020 1844.33 1020 1825V1055.71C1000.28 1055.71 984.29 1039.72 984.29 1020C984.29 1000.28 1000.28 984.29 1020 984.29Z" stroke="black" stroke-width="6" stroke-miterlimit="10"/>
<path d="M912.649 525.666C908.779 525.666 905.539 522.646 905.319 518.736C900.589 435.626 868.789 358.856 813.369 296.746C810.669 293.716 810.929 289.066 813.959 286.366C816.989 283.666 821.629 283.926 824.339 286.956C881.999 351.576 915.069 431.436 919.999 517.896C920.229 521.946 917.129 525.426 913.079 525.656C912.939 525.656 912.799 525.666 912.659 525.666H912.649Z" fill="black"/>
<path d="M818.849 795.517C817.109 795.517 815.359 794.897 813.959 793.647C810.929 790.947 810.669 786.297 813.369 783.267C868.789 721.157 900.589 644.387 905.319 561.277C905.549 557.227 909.029 554.117 913.079 554.357C917.129 554.587 920.229 558.057 919.999 562.117C915.069 648.587 881.999 728.447 824.339 793.057C822.889 794.687 820.869 795.517 818.849 795.517Z" fill="black"/>
<path d="M167.36 525.666C167.22 525.666 167.08 525.666 166.94 525.656C162.89 525.426 159.79 521.956 160.02 517.896C164.95 431.426 198.02 351.566 255.68 286.956C258.38 283.926 263.03 283.666 266.06 286.366C269.09 289.066 269.35 293.716 266.65 296.746C211.23 358.856 179.43 435.616 174.7 518.736C174.48 522.646 171.24 525.666 167.37 525.666H167.36Z" fill="black"/>
<path d="M261.17 795.517C259.15 795.517 257.13 794.687 255.68 793.057C198.02 728.437 164.95 648.577 160.02 562.117C159.79 558.067 162.89 554.587 166.94 554.357C170.99 554.117 174.47 557.227 174.7 561.277C179.43 644.397 211.23 721.157 266.65 783.267C269.35 786.297 269.09 790.947 266.06 793.647C264.66 794.897 262.91 795.517 261.17 795.517Z" fill="black"/>
<path d="M788.171 268.511C786.431 268.511 784.681 267.891 783.281 266.641C721.171 211.221 644.401 179.421 561.291 174.691C557.241 174.461 554.141 170.991 554.371 166.931C554.601 162.881 558.041 159.791 562.131 160.011C648.601 164.941 728.461 198.011 793.071 255.671C796.101 258.371 796.361 263.021 793.661 266.051C792.211 267.681 790.191 268.511 788.171 268.511Z" fill="black"/>
<path d="M291.852 268.512C289.832 268.512 287.812 267.682 286.362 266.052C283.662 263.022 283.922 258.372 286.952 255.672C351.572 198.012 431.432 164.942 517.892 160.012C521.942 159.782 525.422 162.882 525.652 166.932C525.882 170.982 522.782 174.462 518.732 174.692C435.622 179.422 358.852 211.222 296.742 266.642C295.342 267.892 293.592 268.512 291.852 268.512Z" fill="black"/>
<path d="M561.69 920.006C557.82 920.006 554.58 916.986 554.36 913.076C554.13 909.026 557.23 905.546 561.28 905.316C644.4 900.586 721.16 868.786 783.27 813.366C786.3 810.666 790.95 810.926 793.65 813.956C796.35 816.986 796.09 821.636 793.06 824.336C728.44 881.996 648.58 915.066 562.12 919.996C561.98 919.996 561.84 920.006 561.7 920.006H561.69Z" fill="black"/>
<path d="M518.319 920.006C518.179 920.006 518.04 920.006 517.9 919.996C431.43 915.066 351.569 881.996 286.959 824.336C283.929 821.636 283.669 816.986 286.369 813.956C289.069 810.926 293.719 810.666 296.749 813.366C358.859 868.786 435.629 900.586 518.739 905.316C522.789 905.546 525.889 909.016 525.659 913.076C525.439 916.986 522.199 920.006 518.329 920.006H518.319Z" fill="black"/>
<path d="M875.378 526.189C872.368 526.189 869.848 523.839 869.678 520.799C865.408 445.789 836.708 376.519 786.698 320.459C784.598 318.099 784.798 314.489 787.158 312.389C789.508 310.289 793.128 310.489 795.228 312.849C846.978 370.849 876.678 442.539 881.098 520.149C881.278 523.299 878.868 525.999 875.718 526.179C875.608 526.179 875.498 526.179 875.388 526.179L875.378 526.189Z" fill="black"/>
<path d="M790.958 769.062C789.598 769.062 788.248 768.582 787.158 767.612C784.798 765.512 784.598 761.892 786.698 759.542C836.708 703.492 865.408 634.212 869.678 559.202C869.858 556.052 872.548 553.642 875.708 553.822C878.858 554.002 881.268 556.702 881.088 559.852C876.668 637.472 846.978 709.152 795.218 767.152C794.088 768.422 792.518 769.062 790.948 769.062H790.958Z" fill="black"/>
<path d="M204.63 526.187C204.52 526.187 204.41 526.187 204.3 526.187C201.15 526.007 198.74 523.307 198.92 520.157C203.34 442.537 233.03 370.857 284.79 312.857C286.89 310.497 290.51 310.297 292.86 312.397C295.22 314.497 295.42 318.117 293.32 320.467C243.31 376.517 214.61 445.797 210.34 520.807C210.17 523.847 207.65 526.197 204.64 526.197L204.63 526.187Z" fill="black"/>
<path d="M289.048 769.055C287.478 769.055 285.908 768.405 284.778 767.145C233.028 709.145 203.328 637.455 198.908 559.845C198.728 556.695 201.138 553.995 204.288 553.815C207.448 553.625 210.138 556.045 210.318 559.195C214.588 634.205 243.288 703.485 293.298 759.535C295.398 761.895 295.198 765.505 292.838 767.605C291.748 768.575 290.388 769.055 289.038 769.055H289.048Z" fill="black"/>
<path d="M763.35 294.756C761.99 294.756 760.64 294.276 759.55 293.306C703.5 243.296 634.22 214.596 559.21 210.326C556.06 210.146 553.65 207.446 553.83 204.296C554.01 201.146 556.7 198.736 559.86 198.916C637.48 203.336 709.16 233.026 767.16 284.786C769.52 286.886 769.72 290.506 767.62 292.856C766.49 294.126 764.92 294.766 763.35 294.766V294.756Z" fill="black"/>
<path d="M316.659 294.759C315.089 294.759 313.519 294.109 312.389 292.849C310.289 290.489 310.489 286.879 312.849 284.779C370.849 233.029 442.539 203.329 520.149 198.909C523.299 198.719 525.999 201.139 526.179 204.289C526.359 207.439 523.949 210.139 520.799 210.319C445.789 214.589 376.519 243.289 320.459 293.299C319.369 294.269 318.009 294.749 316.659 294.749V294.759Z" fill="black"/>
<path d="M559.526 881.102C556.516 881.102 553.996 878.752 553.826 875.712C553.646 872.562 556.056 869.862 559.206 869.682C634.216 865.412 703.486 836.712 759.546 786.702C761.896 784.602 765.516 784.802 767.616 787.162C769.716 789.522 769.516 793.132 767.156 795.232C709.156 846.982 637.466 876.682 559.856 881.102C559.746 881.102 559.636 881.102 559.526 881.102Z" fill="black"/>
<path d="M520.487 881.102C520.377 881.102 520.267 881.102 520.157 881.102C442.537 876.682 370.857 846.992 312.857 795.232C310.497 793.132 310.297 789.512 312.397 787.162C314.497 784.802 318.117 784.602 320.467 786.702C376.517 836.722 445.797 865.412 520.807 869.682C523.957 869.862 526.367 872.562 526.187 875.712C526.017 878.752 523.497 881.102 520.487 881.102Z" fill="black"/>
<path d="M841.851 526.514C839.701 526.514 837.901 524.834 837.781 522.664C833.921 454.914 808.001 392.344 762.831 341.714C761.331 340.034 761.481 337.454 763.161 335.944C764.841 334.444 767.421 334.584 768.931 336.274C815.351 388.294 841.981 452.584 845.941 522.194C846.071 524.444 844.351 526.374 842.091 526.504C842.011 526.504 841.931 526.504 841.851 526.504V526.514Z" fill="black"/>
<path d="M765.869 745.106C764.899 745.106 763.929 744.766 763.149 744.066C761.469 742.566 761.319 739.986 762.819 738.296C807.989 687.666 833.909 625.096 837.769 557.346C837.899 555.096 839.859 553.396 842.079 553.496C844.329 553.626 846.049 555.556 845.929 557.806C841.959 627.416 815.329 691.706 768.919 743.726C768.109 744.626 766.989 745.086 765.869 745.086V745.106Z" fill="black"/>
<path d="M238.17 526.516C238.09 526.516 238.01 526.516 237.93 526.516C235.68 526.386 233.96 524.456 234.08 522.206C238.05 452.596 264.68 388.306 311.09 336.286C312.59 334.606 315.17 334.456 316.86 335.956C318.54 337.456 318.69 340.036 317.19 341.726C272.02 392.356 246.1 454.926 242.24 522.676C242.12 524.846 240.32 526.526 238.17 526.526V526.516Z" fill="black"/>
<path d="M314.141 745.103C313.021 745.103 311.901 744.643 311.091 743.743C264.671 691.723 238.041 627.433 234.081 557.823C233.951 555.573 235.671 553.643 237.931 553.513C240.171 553.403 242.111 555.103 242.241 557.363C246.101 625.113 272.021 687.683 317.191 738.313C318.691 739.993 318.541 742.573 316.861 744.083C316.081 744.773 315.111 745.123 314.141 745.123V745.103Z" fill="black"/>
<path d="M741.022 318.225C740.052 318.225 739.082 317.885 738.302 317.185C687.672 272.015 625.102 246.095 557.352 242.235C555.102 242.105 553.382 240.175 553.502 237.925C553.632 235.675 555.552 233.965 557.812 234.075C627.422 238.045 691.712 264.675 743.742 311.085C745.422 312.585 745.572 315.165 744.072 316.855C743.262 317.755 742.142 318.215 741.022 318.215V318.225Z" fill="black"/>
<path d="M339.002 318.224C337.882 318.224 336.762 317.764 335.952 316.864C334.452 315.184 334.602 312.604 336.282 311.094C388.302 264.674 452.592 238.044 522.202 234.084C524.452 233.964 526.382 235.674 526.512 237.934C526.642 240.184 524.922 242.114 522.662 242.244C454.912 246.104 392.342 272.024 341.712 317.194C340.932 317.884 339.962 318.234 338.992 318.234L339.002 318.224Z" fill="black"/>
<path d="M557.573 845.933C555.423 845.933 553.623 844.253 553.503 842.083C553.373 839.833 555.093 837.903 557.353 837.773C625.103 833.913 687.673 807.993 738.303 762.823C739.983 761.323 742.563 761.473 744.073 763.153C745.573 764.833 745.423 767.413 743.743 768.923C691.723 815.343 627.433 841.973 557.813 845.933C557.733 845.933 557.653 845.933 557.573 845.933Z" fill="black"/>
<path d="M522.442 845.933C522.362 845.933 522.282 845.933 522.202 845.933C452.592 841.963 388.302 815.333 336.282 768.923C334.602 767.423 334.452 764.843 335.952 763.153C337.452 761.473 340.032 761.323 341.722 762.823C392.352 807.993 454.922 833.913 522.672 837.773C524.922 837.903 526.642 839.833 526.522 842.083C526.402 844.253 524.602 845.933 522.452 845.933H522.442Z" fill="black"/>
<path d="M320.65 546.174C320.65 544.604 321.79 543.274 323.34 543.024C324.64 542.814 326.27 542.524 327.98 542.124C332.4 541.084 337.59 539.114 343.41 536.274C349.29 533.404 354.92 529.414 359.17 523.674C366.34 513.974 367.86 501.404 368.19 496.894C368.26 495.974 367.53 495.194 366.6 495.194H317.09C315.33 495.194 313.91 493.764 313.91 492.014V470.694C313.91 468.934 315.34 467.514 317.09 467.514H367.07C367.95 467.514 368.66 466.804 368.66 465.924V447.184C368.66 446.304 367.95 445.594 367.07 445.594H328.62C326.86 445.594 325.44 444.164 325.44 442.414V421.094C325.44 419.334 326.87 417.914 328.62 417.914H428.96C430.72 417.914 432.14 419.344 432.14 421.094V442.414C432.14 444.174 430.71 445.594 428.96 445.594H398.52C397.64 445.594 396.93 446.304 396.93 447.184V465.924C396.93 466.804 397.64 467.514 398.52 467.514H438.58C440.34 467.514 441.76 468.944 441.76 470.694V492.014C441.76 493.774 440.33 495.194 438.58 495.194H398.39C397.54 495.194 396.84 495.864 396.8 496.714C396.57 501.754 395.15 518.444 386.18 532.854C380.73 541.614 373.65 548.264 366.54 553.544C359.41 558.844 352.26 562.934 345.27 565.704C338.24 568.494 332.34 570.444 327.75 571.514C326.66 571.764 325.49 571.994 324.4 572.184C322.45 572.534 320.66 571.034 320.66 569.044V546.164L320.65 546.174Z" fill="black"/>
<path d="M474.552 546.522C474.552 545.062 475.552 543.792 476.962 543.432C485.212 541.362 488.932 540.112 496.842 536.322C496.842 536.322 500.892 534.212 504.932 531.302C517.112 522.542 525.222 510.632 525.222 510.632C534.682 497.282 537.772 474.912 538.492 468.492C538.602 467.552 537.862 466.722 536.912 466.722H500.582C500.352 466.722 500.142 466.842 500.032 467.042L499.882 467.292C494.302 478.112 486.882 487.992 480.452 494.242C474.002 500.502 468.592 505.052 464.382 507.752L461.782 509.422C460.722 510.102 459.332 509.342 459.332 508.082V479.892C459.332 478.952 459.752 478.062 460.472 477.452C461.122 476.902 461.992 476.132 463.182 475.062C465.942 472.572 469.052 468.512 472.422 462.982C475.762 457.512 479.352 450.212 483.072 441.292C486.452 433.202 488.982 423.092 490.862 412.062C491.122 410.532 492.452 409.422 494.002 409.422H513.912C515.912 409.422 517.422 411.252 517.042 413.212C516.402 416.522 515.712 420.882 514.852 424.312C513.582 429.392 512.762 432.302 511.242 436.722C510.982 437.472 511.542 438.242 512.332 438.242H591.182C592.942 438.242 594.362 439.672 594.362 441.422V463.512C594.362 465.272 592.932 466.692 591.182 466.692H568.142C567.332 466.692 566.642 467.302 566.562 468.112C565.932 474.012 562.882 497.162 552.392 517.262C538.292 546.002 508.142 566.392 478.342 572.132C476.382 572.512 474.562 571.002 474.562 569.002V546.482L474.552 546.522Z" fill="black"/>
<path d="M675.902 411.035V468.875C675.902 469.755 676.612 470.465 677.492 470.465H764.522C765.402 470.465 766.112 469.755 766.112 468.875V411.035C766.112 410.155 765.402 409.445 764.522 409.445H677.492C676.612 409.445 675.902 410.155 675.902 411.035ZM738.462 452.745H702.302C701.422 452.745 700.712 452.035 700.712 451.155V446.875C700.712 445.995 701.422 445.285 702.302 445.285H738.462C739.342 445.285 740.052 445.995 740.052 446.875V451.155C740.052 452.035 739.342 452.745 738.462 452.745ZM738.462 434.455H702.302C701.422 434.455 700.712 433.745 700.712 432.865V428.755C700.712 427.875 701.422 427.165 702.302 427.165H738.462C739.342 427.165 740.052 427.875 740.052 428.755V432.865C740.052 433.745 739.342 434.455 738.462 434.455Z" fill="black"/>
<path d="M674.232 497.342H728.272C729.152 497.342 729.862 498.052 729.862 498.932V502.842C729.862 503.722 729.152 504.432 728.272 504.432H667.762C666.002 504.432 664.582 505.862 664.582 507.612V522.862C664.582 524.622 666.012 526.042 667.762 526.042H728.272C729.152 526.042 729.862 526.752 729.862 527.632V545.392C729.862 546.112 729.942 547.982 729.222 548.852C728.392 549.872 727.152 549.672 725.852 549.722C722.542 549.722 719.582 549.702 716.952 549.662C716.552 549.662 716.262 549.292 716.342 548.902C716.602 547.632 716.732 546.312 716.702 544.962C716.502 535.682 708.942 528.082 699.662 527.842C689.582 527.582 681.372 535.852 681.712 545.942C682.022 555.292 689.792 562.812 699.152 562.842C704.042 562.852 708.462 560.862 711.642 557.642C711.982 557.302 712.552 557.432 712.702 557.882C714.162 562.212 715.542 566.342 716.792 570.052C717.232 571.352 718.462 572.222 719.832 572.212C725.732 572.172 730.512 571.962 734.182 571.602C738.312 571.182 742.092 570.152 745.522 568.502C749.182 566.842 751.692 564.422 753.052 561.232C754.412 558.042 755.092 553.552 755.092 547.762V527.622C755.092 526.742 755.802 526.032 756.682 526.032H762.912C764.672 526.032 766.092 524.602 766.092 522.852V507.602C766.092 505.842 764.662 504.422 762.912 504.422H756.682C755.802 504.422 755.092 503.712 755.092 502.832V498.922C755.092 498.042 755.802 497.332 756.682 497.332H762.912C764.672 497.332 766.092 495.902 766.092 494.152V479.602C766.092 477.842 764.662 476.422 762.912 476.422H674.212C672.452 476.422 671.032 477.852 671.032 479.602V494.152C671.032 495.912 672.462 497.332 674.212 497.332L674.232 497.342Z" fill="black"/>
<path d="M668.832 409.445H650.262C649.402 409.445 648.582 409.795 647.982 410.405C635.232 423.355 618.292 434.575 612.132 438.485C610.782 439.335 610.282 441.065 610.952 442.505L620.702 463.575C621.632 465.575 624.262 466.055 625.832 464.505C646.122 444.465 664.452 419.805 670.122 411.965C670.882 410.915 670.122 409.445 668.832 409.445Z" fill="black"/>
<path d="M671.922 453.899V435.419C671.922 434.009 670.222 433.299 669.212 434.289C653.642 449.609 620.052 477.069 611.682 483.869C610.552 484.789 610.192 486.359 610.802 487.679L620.702 509.059C621.632 511.059 624.262 511.539 625.832 509.989C627.542 508.299 629.242 506.569 630.922 504.829C631.322 504.419 632.022 504.699 632.022 505.269V569.069C632.022 570.829 633.452 572.249 635.202 572.249H653.822C655.582 572.249 657.002 570.819 657.002 569.069V476.379C657.002 475.309 657.362 474.259 658.032 473.419C664.872 464.739 669.722 458.029 671.342 455.749C671.722 455.209 671.932 454.569 671.932 453.899H671.922Z" fill="black"/>
<path d="M653.269 623.338C640.849 623.338 634.809 628.288 634.809 638.478V655.608C634.809 665.678 640.849 670.568 653.269 670.568C659.139 670.568 663.479 669.488 666.559 667.278C669.999 664.808 671.739 660.878 671.739 655.598V638.468C671.739 628.278 665.699 623.328 653.279 623.328L653.269 623.338ZM646.089 639.308C646.089 633.938 648.839 632.918 653.269 632.918C657.699 632.918 660.449 633.958 660.449 639.308V654.688C660.449 659.958 657.599 660.988 653.269 660.988C648.939 660.988 646.089 659.988 646.089 654.688V639.308Z" fill="black"/>
<path d="M708.27 669.334H721.359L703.63 646.784L720.56 624.804H707.4L694.06 642.284V610.234H682.77V669.334H694.06V659.214L696.95 655.454L708.27 669.334Z" fill="black"/>
<path d="M754.82 624.805V653.295C754.82 659.045 751.88 660.895 746.83 660.895C743.56 660.895 740.28 660.355 740.28 653.885V624.815H729V656.775C729 665.745 733.71 670.485 742.62 670.485C749.3 670.485 753.88 666.865 755.58 662.805L757.39 669.345H766.11V624.815H754.83L754.82 624.805Z" fill="black"/>
<path d="M630.568 610.234H589.148V620.144V620.154H604.218V669.334H615.688V620.154H630.568V610.234Z" fill="black"/>
<path d="M459.689 669.334H472.779L455.049 646.784L471.979 624.804H458.819L445.479 642.284V610.234H434.199V669.334H445.479V659.214L448.369 655.454L459.689 669.334Z" fill="black"/>
<path d="M355.33 610.234H313.91V620.144V620.154H328.99V669.334H340.45V620.154H355.33V610.234Z" fill="black"/>
<path d="M421.802 658.896L421.202 659.046C417.622 659.966 413.292 660.896 409.412 660.896C404.862 660.896 401.692 658.826 401.692 652.836V640.976C401.692 634.906 404.862 632.826 409.412 632.826C413.362 632.826 417.882 633.706 421.232 634.406L421.812 634.526V625.196L421.502 625.126C417.692 624.236 412.052 623.336 407.532 623.336C402.012 623.336 397.972 624.406 395.172 626.596C391.972 629.096 390.422 633.856 390.422 639.346V654.646C390.422 664.776 396.022 670.566 407.542 670.566C411.412 670.566 417.272 669.496 421.532 668.316L421.822 668.236V658.886L421.802 658.896Z" fill="black"/>
<path d="M553.93 634.705V624.805H543.69V615.195H532.41V624.805H525.18V634.705H532.41V655.425C532.41 667.945 540.3 670.565 546.93 670.565C548.71 670.565 550.51 670.455 552.12 670.225V660.265C551.47 660.335 550.26 660.365 549.54 660.365C546.46 660.365 543.69 659.735 543.69 652.095V634.695H553.93V634.705Z" fill="black"/>
<path d="M489.741 650.742V650.562H515.171V641.482C515.171 635.572 513.551 630.243 510.361 627.343C507.421 624.673 502.781 623.312 497.261 623.312C485.081 623.312 478.461 629.223 478.461 639.593V654.453C478.461 664.703 483.841 670.552 496.321 670.552C500.981 670.552 506.291 669.563 511.971 668.403L512.361 668.323V659.052L511.711 659.203C507.141 660.253 504.621 661.143 500.291 661.143C494.081 661.143 489.741 658.623 489.741 652.203V650.722V650.742ZM489.741 639.722C489.741 634.072 493.801 632.742 497.171 632.742C500.541 632.742 504.071 634.072 504.071 639.722V643.232H489.741V642.713V639.722Z" fill="black"/>
<path d="M378.178 626.883H366.898V669.333H378.178V626.883Z" fill="black"/>
<path d="M372.542 622.224C376.424 622.224 379.572 619.077 379.572 615.194C379.572 611.312 376.424 608.164 372.542 608.164C368.659 608.164 365.512 611.312 365.512 615.194C365.512 619.077 368.659 622.224 372.542 622.224Z" fill="black"/>
<path d="M585.738 643.922H566.148V651.262H585.738V643.922Z" fill="black"/>
<path d="M711.975 1677C711.128 1677 710.402 1676.4 710.402 1675.43V1581.66C710.402 1580.93 711.007 1580.2 711.975 1580.2H756.261C757.229 1580.2 757.834 1580.81 757.834 1581.66V1591.09C757.834 1591.94 757.229 1592.55 756.261 1592.55H723.107V1622.43H755.172C756.019 1622.43 756.624 1623.04 756.624 1623.88V1633.08C756.624 1634.05 756.019 1634.77 755.172 1634.77H723.107V1675.43C723.107 1676.4 722.381 1677 721.534 1677H711.975Z" fill="black"/>
<path d="M643.323 1677C642.476 1677 641.75 1676.4 641.75 1675.43V1581.66C641.75 1580.93 642.355 1580.2 643.323 1580.2H687.609C688.577 1580.2 689.182 1580.81 689.182 1581.66V1591.09C689.182 1591.94 688.577 1592.55 687.609 1592.55H654.455V1622.43H686.52C687.367 1622.43 687.972 1623.04 687.972 1623.88V1633.08C687.972 1634.05 687.367 1634.77 686.52 1634.77H654.455V1675.43C654.455 1676.4 653.729 1677 652.882 1677H643.323Z" fill="black"/>
<path d="M573.766 1590.97C553.317 1590.97 536.861 1607.66 536.861 1628.48C536.861 1649.05 553.196 1666.23 573.645 1666.23C594.094 1666.23 610.792 1649.05 610.792 1628.6C610.792 1607.79 594.215 1590.97 573.766 1590.97ZM524.035 1628.48C524.035 1600.65 545.936 1578.38 573.766 1578.38C601.596 1578.38 623.618 1600.77 623.618 1628.6C623.618 1656.43 601.475 1678.81 573.645 1678.81C545.815 1678.81 524.035 1656.31 524.035 1628.48Z" fill="black"/>
<path d="M435.738 1676.27C435.496 1676.76 435.012 1677 434.528 1677H423.396C422.307 1677 421.581 1675.79 422.186 1674.82L475.91 1580.92C476.152 1580.44 476.636 1580.2 477.241 1580.2H488.373C489.704 1580.2 490.188 1581.41 489.583 1582.38L435.738 1676.27ZM404.641 1603.43C404.641 1589.51 415.531 1578.38 429.446 1578.38C443.482 1578.38 454.372 1589.51 454.372 1603.55C454.372 1617.47 443.24 1628.6 429.446 1628.6C415.41 1628.6 404.641 1617.47 404.641 1603.43ZM417.346 1603.43C417.346 1610.33 422.67 1616.01 429.446 1616.01C436.222 1616.01 441.667 1610.33 441.667 1603.55C441.667 1596.65 436.222 1591.21 429.446 1591.21C422.791 1591.21 417.346 1596.65 417.346 1603.43ZM459.212 1653.52C459.212 1639.61 470.102 1628.48 484.017 1628.48C498.053 1628.48 508.943 1639.61 508.943 1653.64C508.943 1667.56 497.811 1678.69 484.017 1678.69C469.981 1678.69 459.212 1667.56 459.212 1653.52ZM471.917 1653.52C471.917 1660.42 477.241 1666.11 484.017 1666.11C490.793 1666.11 496.238 1660.42 496.238 1653.64C496.238 1646.75 490.793 1641.3 484.017 1641.3C477.362 1641.3 471.917 1646.75 471.917 1653.52Z" fill="black"/>
<path d="M385.013 1580.2C385.86 1580.2 386.465 1580.81 386.465 1581.66V1591.21C386.465 1592.06 385.86 1592.67 385.013 1592.67H355.005L349.439 1609.97H349.56C349.56 1609.97 352.101 1609.61 354.4 1609.73C372.913 1610.33 386.465 1623.76 386.465 1643.61C386.465 1662.73 372.55 1678.82 351.617 1678.82C338.67 1678.82 327.659 1672.77 321.246 1663.09L319.31 1660.18C318.947 1659.58 319.068 1658.49 319.673 1658.13L327.417 1652.32C328.022 1651.71 329.111 1651.84 329.716 1652.68L331.289 1655.22C336.129 1663.09 343.994 1666.48 351.617 1666.48C365.895 1666.48 373.76 1655.83 373.76 1643.49C373.76 1629.81 364.08 1621.95 353.069 1621.95C347.019 1621.95 343.631 1623.52 340.848 1625.58L339.88 1626.3C339.517 1626.55 339.154 1626.67 338.67 1626.55L333.467 1625.7C332.378 1625.58 332.015 1624.61 332.257 1623.76L345.567 1581.17C345.809 1580.57 346.293 1580.2 346.898 1580.2H385.013Z" fill="black"/>
<path d="M930.331 1433.45C931.803 1433.64 933.451 1433.78 935.275 1433.88C937.131 1433.94 939.003 1433.98 940.891 1433.98C942.811 1433.94 944.651 1433.88 946.411 1433.78C948.171 1433.66 949.691 1433.53 950.971 1433.4V1439.59C949.499 1439.72 947.883 1439.83 946.123 1439.93C944.363 1439.99 942.555 1440.02 940.699 1440.02C938.843 1440.02 937.019 1439.99 935.227 1439.93C933.467 1439.83 931.835 1439.72 930.331 1439.59V1433.45ZM934.171 1453.94C933.979 1454.74 933.835 1455.46 933.739 1456.1C933.643 1456.71 933.595 1457.34 933.595 1457.98C933.595 1458.49 933.723 1458.97 933.979 1459.42C934.235 1459.83 934.619 1460.2 935.131 1460.52C935.675 1460.81 936.363 1461.03 937.195 1461.19C938.059 1461.32 939.099 1461.38 940.315 1461.38C942.459 1461.38 944.475 1461.29 946.363 1461.1C948.251 1460.87 950.251 1460.55 952.363 1460.14L952.459 1466.62C950.923 1466.9 949.147 1467.13 947.131 1467.29C945.147 1467.45 942.795 1467.53 940.075 1467.53C935.947 1467.53 932.875 1466.84 930.859 1465.46C928.843 1464.06 927.835 1462.12 927.835 1459.66C927.835 1458.73 927.899 1457.77 928.027 1456.78C928.187 1455.75 928.395 1454.63 928.651 1453.42L934.171 1453.94ZM922.939 1430.23C922.811 1430.55 922.667 1431 922.507 1431.58C922.347 1432.15 922.187 1432.71 922.027 1433.26C921.899 1433.8 921.803 1434.22 921.739 1434.5C921.643 1435.18 921.483 1436.06 921.259 1437.14C921.067 1438.2 920.859 1439.4 920.635 1440.74C920.443 1442.06 920.251 1443.4 920.059 1444.78C919.867 1446.15 919.707 1447.48 919.579 1448.76C919.483 1450.04 919.435 1451.16 919.435 1452.12C919.435 1452.57 919.435 1453.08 919.435 1453.66C919.467 1454.23 919.531 1454.76 919.627 1455.24C919.851 1454.7 920.091 1454.15 920.347 1453.61C920.603 1453.06 920.859 1452.52 921.115 1451.98C921.371 1451.4 921.595 1450.86 921.787 1450.34L924.763 1452.7C924.315 1454.01 923.851 1455.42 923.371 1456.92C922.923 1458.42 922.507 1459.85 922.123 1461.19C921.771 1462.5 921.499 1463.59 921.307 1464.46C921.243 1464.81 921.179 1465.21 921.115 1465.66C921.083 1466.1 921.067 1466.46 921.067 1466.71C921.067 1466.97 921.067 1467.27 921.067 1467.62C921.099 1468.01 921.131 1468.36 921.163 1468.68L915.595 1469.06C915.115 1467.4 914.683 1465.19 914.299 1462.44C913.915 1459.66 913.723 1456.63 913.723 1453.37C913.723 1451.58 913.803 1449.75 913.963 1447.9C914.123 1446.04 914.315 1444.26 914.539 1442.57C914.763 1440.84 914.971 1439.27 915.163 1437.86C915.387 1436.46 915.579 1435.29 915.739 1434.36C915.803 1433.69 915.883 1432.94 915.979 1432.1C916.107 1431.24 916.187 1430.42 916.219 1429.66L922.939 1430.23Z" fill="black"/>
<path d="M863.083 1433.93H906.619V1439.4H863.083V1433.93ZM879.115 1445.69H897.499V1451.11H879.115V1445.69ZM895.339 1445.69H901.291C901.291 1445.69 901.275 1445.85 901.243 1446.17C901.243 1446.46 901.243 1446.79 901.243 1447.18C901.243 1447.56 901.211 1447.9 901.147 1448.18C900.859 1452.57 900.539 1456.15 900.187 1458.94C899.835 1461.72 899.435 1463.9 898.987 1465.46C898.539 1467 897.995 1468.12 897.355 1468.82C896.619 1469.62 895.851 1470.17 895.051 1470.46C894.251 1470.74 893.291 1470.95 892.171 1471.08C891.243 1471.18 890.027 1471.21 888.523 1471.18C887.019 1471.18 885.467 1471.14 883.867 1471.08C883.835 1470.25 883.627 1469.29 883.243 1468.2C882.859 1467.14 882.379 1466.22 881.803 1465.42C883.467 1465.58 885.067 1465.67 886.603 1465.7C888.139 1465.74 889.243 1465.75 889.915 1465.75C890.459 1465.75 890.907 1465.72 891.259 1465.66C891.643 1465.56 891.979 1465.38 892.267 1465.13C892.779 1464.71 893.211 1463.8 893.563 1462.39C893.947 1460.98 894.283 1458.98 894.571 1456.39C894.859 1453.8 895.115 1450.52 895.339 1446.55V1445.69ZM876.955 1437.19H883.387C883.259 1439.75 883.051 1442.34 882.763 1444.97C882.507 1447.56 882.059 1450.14 881.419 1452.7C880.779 1455.22 879.851 1457.64 878.635 1459.94C877.419 1462.25 875.819 1464.39 873.835 1466.38C871.851 1468.36 869.339 1470.12 866.299 1471.66C865.883 1470.86 865.275 1469.99 864.475 1469.06C863.707 1468.14 862.955 1467.37 862.219 1466.76C865.003 1465.48 867.275 1463.99 869.035 1462.3C870.827 1460.57 872.235 1458.71 873.259 1456.73C874.283 1454.71 875.035 1452.62 875.515 1450.44C876.027 1448.26 876.363 1446.06 876.523 1443.82C876.715 1441.58 876.859 1439.37 876.955 1437.19ZM881.563 1426.01H887.563V1436.09H881.563V1426.01Z" fill="black"/>
<path d="M841.194 1434.12C840.874 1436.55 840.458 1439.14 839.946 1441.89C839.434 1444.65 838.746 1447.43 837.882 1450.25C836.954 1453.48 835.866 1456.26 834.618 1458.6C833.37 1460.93 831.994 1462.74 830.49 1464.02C829.018 1465.27 827.402 1465.89 825.642 1465.89C823.882 1465.89 822.25 1465.3 820.746 1464.12C819.274 1462.9 818.09 1461.24 817.194 1459.13C816.33 1457.01 815.898 1454.61 815.898 1451.93C815.898 1449.14 816.458 1446.52 817.578 1444.05C818.698 1441.59 820.25 1439.41 822.234 1437.53C824.25 1435.61 826.586 1434.1 829.242 1433.01C831.93 1431.93 834.826 1431.38 837.93 1431.38C840.906 1431.38 843.578 1431.86 845.946 1432.82C848.346 1433.78 850.394 1435.11 852.09 1436.81C853.786 1438.5 855.082 1440.49 855.978 1442.76C856.874 1445.03 857.322 1447.48 857.322 1450.1C857.322 1453.46 856.634 1456.47 855.258 1459.13C853.882 1461.78 851.834 1463.97 849.114 1465.7C846.426 1467.43 843.066 1468.61 839.034 1469.25L835.434 1463.54C836.362 1463.45 837.178 1463.33 837.882 1463.21C838.586 1463.08 839.258 1462.93 839.898 1462.77C841.434 1462.39 842.858 1461.85 844.17 1461.14C845.514 1460.41 846.682 1459.51 847.674 1458.45C848.666 1457.37 849.434 1456.1 849.978 1454.66C850.554 1453.22 850.842 1451.64 850.842 1449.91C850.842 1448.02 850.554 1446.29 849.978 1444.73C849.402 1443.16 848.554 1441.8 847.434 1440.65C846.314 1439.46 844.954 1438.57 843.354 1437.96C841.754 1437.32 839.914 1437 837.834 1437C835.274 1437 833.018 1437.46 831.066 1438.39C829.114 1439.29 827.466 1440.45 826.122 1441.89C824.778 1443.33 823.754 1444.89 823.05 1446.55C822.378 1448.21 822.042 1449.8 822.042 1451.3C822.042 1452.9 822.234 1454.25 822.618 1455.33C823.002 1456.39 823.466 1457.19 824.01 1457.73C824.586 1458.25 825.194 1458.5 825.834 1458.5C826.506 1458.5 827.162 1458.17 827.802 1457.49C828.474 1456.79 829.13 1455.73 829.77 1454.33C830.41 1452.92 831.05 1451.14 831.69 1449C832.426 1446.69 833.05 1444.23 833.562 1441.61C834.074 1438.98 834.442 1436.42 834.666 1433.93L841.194 1434.12Z" fill="black"/>
<path d="M775.821 1428.89H789.453V1434.75H775.821V1428.89ZM786.621 1428.89H792.573C792.573 1430.43 792.637 1432.17 792.765 1434.12C792.893 1436.04 793.165 1438.11 793.581 1440.31C793.997 1442.49 794.621 1444.73 795.453 1447.03C796.285 1449.34 797.389 1451.63 798.765 1453.9C800.173 1456.14 801.933 1458.3 804.045 1460.38C806.157 1462.46 808.685 1464.38 811.629 1466.14C811.213 1466.46 810.701 1466.92 810.093 1467.53C809.485 1468.14 808.893 1468.76 808.317 1469.4C807.773 1470.07 807.325 1470.67 806.973 1471.18C803.965 1469.32 801.357 1467.24 799.149 1464.94C796.941 1462.6 795.085 1460.14 793.581 1457.55C792.077 1454.92 790.861 1452.28 789.933 1449.63C789.005 1446.94 788.301 1444.33 787.821 1441.8C787.341 1439.24 787.021 1436.86 786.861 1434.65C786.701 1432.44 786.621 1430.52 786.621 1428.89ZM784.557 1439.45L791.133 1440.65C790.045 1445.39 788.589 1449.69 786.765 1453.56C784.941 1457.43 782.749 1460.84 780.189 1463.79C777.661 1466.73 774.733 1469.21 771.405 1471.23C771.053 1470.81 770.557 1470.3 769.917 1469.69C769.277 1469.11 768.605 1468.52 767.901 1467.91C767.229 1467.34 766.637 1466.87 766.125 1466.52C771.149 1463.99 775.149 1460.44 778.125 1455.87C781.101 1451.26 783.245 1445.79 784.557 1439.45Z" fill="black"/>
<path d="M736.797 1429.95H762.285V1433.98H736.797V1429.95ZM736.029 1441.51H763.197V1445.55H736.029V1441.51ZM735.789 1459.47H763.245V1463.55H735.789V1459.47ZM737.949 1435.75H761.565V1439.59H737.949V1435.75ZM742.029 1426.25H747.021V1443.29H742.029V1426.25ZM751.965 1426.25H757.053V1443.29H751.965V1426.25ZM747.021 1443.39H752.013V1460.62H747.021V1443.39ZM755.757 1447.37H760.989V1466.09C760.989 1467.27 760.845 1468.2 760.557 1468.87C760.301 1469.58 759.773 1470.12 758.973 1470.51C758.141 1470.89 757.149 1471.11 755.997 1471.18C754.877 1471.27 753.517 1471.32 751.917 1471.32C751.821 1470.62 751.629 1469.83 751.341 1468.97C751.053 1468.11 750.749 1467.35 750.429 1466.71C751.357 1466.75 752.269 1466.76 753.165 1466.76C754.093 1466.76 754.701 1466.76 754.989 1466.76C755.277 1466.76 755.469 1466.71 755.565 1466.62C755.693 1466.49 755.757 1466.3 755.757 1466.04V1447.37ZM738.333 1447.37H758.013V1451.4H743.469V1471.37H738.333V1447.37ZM740.877 1453.56H757.965V1457.16H740.877V1453.56ZM722.781 1459.47L727.773 1460.62C727.165 1462.63 726.349 1464.62 725.325 1466.57C724.301 1468.49 723.213 1470.11 722.061 1471.42C721.773 1471.13 721.357 1470.81 720.813 1470.46C720.269 1470.11 719.725 1469.75 719.181 1469.4C718.637 1469.05 718.173 1468.78 717.789 1468.59C718.877 1467.43 719.853 1466.04 720.717 1464.41C721.613 1462.78 722.301 1461.13 722.781 1459.47ZM728.397 1461.19L732.669 1459.37C733.469 1460.59 734.253 1461.93 735.021 1463.4C735.821 1464.84 736.429 1466.11 736.845 1467.19L732.381 1469.31C732.157 1468.57 731.821 1467.74 731.373 1466.81C730.957 1465.85 730.493 1464.89 729.981 1463.93C729.469 1462.94 728.941 1462.03 728.397 1461.19ZM725.373 1441.27V1445.79H730.125V1441.27H725.373ZM725.373 1450.01V1454.52H730.125V1450.01H725.373ZM725.373 1432.59V1437H730.125V1432.59H725.373ZM720.477 1428.03H735.165V1459.13H720.477V1428.03Z" fill="black"/>
<path d="M678.236 1432.58C679.996 1432.8 681.979 1432.96 684.188 1433.06C686.396 1433.16 688.764 1433.2 691.292 1433.2C692.892 1433.2 694.523 1433.17 696.188 1433.11C697.851 1433.04 699.468 1432.96 701.036 1432.87C702.604 1432.74 703.995 1432.63 705.211 1432.53V1438.92C704.091 1438.98 702.732 1439.06 701.132 1439.16C699.564 1439.25 697.915 1439.33 696.188 1439.4C694.491 1439.46 692.876 1439.49 691.34 1439.49C688.844 1439.49 686.524 1439.44 684.38 1439.35C682.236 1439.22 680.188 1439.09 678.236 1438.96V1432.58ZM682.268 1452.93C682.044 1453.76 681.852 1454.58 681.692 1455.38C681.532 1456.18 681.452 1456.98 681.452 1457.78C681.452 1459.35 682.219 1460.63 683.755 1461.62C685.323 1462.58 687.836 1463.06 691.292 1463.06C693.468 1463.06 695.564 1462.98 697.58 1462.82C699.628 1462.66 701.548 1462.45 703.34 1462.2C705.132 1461.91 706.732 1461.57 708.14 1461.19L708.188 1467.91C706.811 1468.23 705.244 1468.52 703.484 1468.77C701.756 1469.03 699.883 1469.22 697.867 1469.35C695.883 1469.51 693.771 1469.59 691.531 1469.59C687.851 1469.59 684.796 1469.17 682.364 1468.34C679.932 1467.54 678.092 1466.39 676.844 1464.88C675.628 1463.35 675.02 1461.48 675.02 1459.27C675.02 1457.89 675.132 1456.63 675.356 1455.48C675.58 1454.29 675.772 1453.25 675.932 1452.36L682.268 1452.93ZM706.46 1427.64C706.876 1428.21 707.307 1428.9 707.755 1429.7C708.235 1430.5 708.7 1431.3 709.148 1432.1C709.596 1432.9 709.979 1433.6 710.299 1434.21L706.411 1435.89C705.931 1434.9 705.339 1433.76 704.635 1432.48C703.963 1431.2 703.308 1430.1 702.668 1429.17L706.46 1427.64ZM712.172 1425.48C712.588 1426.08 713.036 1426.79 713.516 1427.59C713.996 1428.39 714.46 1429.19 714.908 1429.99C715.388 1430.76 715.772 1431.43 716.06 1432L712.22 1433.64C711.708 1432.64 711.1 1431.52 710.396 1430.28C709.692 1429 709.004 1427.91 708.332 1427.01L712.172 1425.48Z" fill="black"/>
<path d="M642.669 1450.82C641.613 1449.73 640.573 1448.89 639.549 1448.28C638.525 1447.67 637.181 1447.37 635.517 1447.37C633.981 1447.37 632.541 1447.91 631.197 1449C629.885 1450.05 628.781 1451.43 627.885 1453.13L622.605 1450.25C624.237 1447.27 626.173 1445.06 628.413 1443.62C630.653 1442.15 633.069 1441.41 635.661 1441.41C637.965 1441.41 640.013 1441.85 641.805 1442.71C643.629 1443.57 645.357 1444.9 646.989 1446.69C648.045 1447.78 649.085 1448.63 650.109 1449.24C651.165 1449.85 652.509 1450.15 654.141 1450.15C655.677 1450.15 657.101 1449.62 658.413 1448.57C659.757 1447.48 660.877 1446.09 661.773 1444.39L667.053 1447.27C665.421 1450.25 663.485 1452.47 661.245 1453.94C659.005 1455.38 656.589 1456.1 653.997 1456.1C651.725 1456.1 649.677 1455.67 647.853 1454.81C646.029 1453.94 644.301 1452.61 642.669 1450.82Z" fill="black"/>
<path d="M595.435 1440.64H615.403V1446.45H595.435V1440.64ZM574.891 1463.11H618.811V1468.92H574.891V1463.11ZM592.171 1426.82H598.363V1466.32H592.171V1426.82Z" fill="black"/>
<path d="M541.626 1434.51L546.954 1431.96C547.978 1433.11 548.986 1434.38 549.978 1435.75C550.97 1437.13 551.85 1438.49 552.618 1439.83C553.418 1441.15 554.058 1442.36 554.538 1443.48L548.874 1446.51C548.49 1445.42 547.914 1444.17 547.146 1442.76C546.378 1441.32 545.514 1439.88 544.554 1438.44C543.594 1437 542.618 1435.69 541.626 1434.51ZM526.074 1459.71C527.706 1459.16 529.594 1458.47 531.738 1457.64C533.914 1456.81 536.186 1455.91 538.554 1454.95C540.954 1453.99 543.322 1453.03 545.658 1452.07L547.002 1457.69C544.858 1458.65 542.682 1459.61 540.474 1460.57C538.266 1461.53 536.09 1462.46 533.946 1463.35C531.834 1464.25 529.866 1465.08 528.042 1465.85L526.074 1459.71ZM554.202 1455.43L558.618 1451.35C559.706 1452.51 560.874 1453.74 562.122 1455.05C563.402 1456.36 564.65 1457.71 565.866 1459.08C567.114 1460.43 568.266 1461.74 569.322 1463.02C570.378 1464.27 571.242 1465.42 571.914 1466.47L566.97 1471.27C566.362 1470.19 565.546 1468.97 564.522 1467.63C563.53 1466.31 562.442 1464.95 561.258 1463.55C560.106 1462.14 558.906 1460.75 557.658 1459.37C556.442 1457.96 555.29 1456.65 554.202 1455.43ZM560.73 1428.99L567.114 1429.56C566.538 1435 565.706 1439.91 564.618 1444.3C563.53 1448.65 562.074 1452.54 560.25 1455.96C558.426 1459.35 556.122 1462.33 553.338 1464.89C550.586 1467.45 547.242 1469.61 543.306 1471.37C543.018 1470.95 542.602 1470.43 542.058 1469.79C541.514 1469.15 540.938 1468.49 540.33 1467.82C539.722 1467.18 539.178 1466.67 538.698 1466.28C542.538 1464.81 545.754 1462.97 548.346 1460.76C550.97 1458.55 553.114 1455.93 554.778 1452.89C556.442 1449.82 557.738 1446.31 558.666 1442.38C559.594 1438.41 560.282 1433.95 560.73 1428.99ZM531.498 1429.18L537.546 1428.94L538.65 1460.14L532.602 1460.38L531.498 1429.18Z" fill="black"/>
<path d="M493.004 1448.76C493.004 1452.18 492.572 1455.32 491.708 1458.17C490.844 1461.01 489.692 1463.57 488.252 1465.85C486.844 1468.12 485.276 1470.1 483.548 1471.8L478.988 1469.78C480.588 1468.05 482.028 1466.15 483.308 1464.07C484.62 1461.99 485.66 1459.69 486.428 1457.16C487.196 1454.6 487.58 1451.8 487.58 1448.76C487.58 1445.69 487.196 1442.89 486.428 1440.36C485.66 1437.83 484.62 1435.53 483.308 1433.45C482.028 1431.33 480.588 1429.43 478.988 1427.73L483.548 1425.72C485.276 1427.41 486.844 1429.4 488.252 1431.67C489.692 1433.94 490.844 1436.5 491.708 1439.35C492.572 1442.2 493.004 1445.33 493.004 1448.76Z" fill="black"/>
<path d="M448.219 1428.22H458.395V1433.69H448.219V1428.22ZM455.467 1428.22H461.515C461.707 1431.64 462.059 1434.9 462.571 1438.01C463.083 1441.11 463.851 1443.99 464.875 1446.65C465.899 1449.27 467.243 1451.59 468.907 1453.61C470.571 1455.62 472.667 1457.27 475.195 1458.55C474.715 1458.87 474.187 1459.29 473.611 1459.8C473.067 1460.31 472.523 1460.86 471.979 1461.43C471.467 1461.98 471.035 1462.49 470.683 1462.97C468.123 1461.43 465.979 1459.56 464.251 1457.35C462.523 1455.11 461.115 1452.6 460.027 1449.82C458.971 1447.03 458.155 1444.04 457.579 1440.84C457.035 1437.64 456.651 1434.3 456.427 1430.81H455.467V1428.22ZM455.323 1438.25L461.227 1439.06C460.203 1444.47 458.587 1449.19 456.379 1453.22C454.171 1457.26 451.307 1460.52 447.787 1463.02C447.499 1462.63 447.083 1462.17 446.539 1461.62C446.027 1461.08 445.467 1460.54 444.859 1459.99C444.283 1459.42 443.771 1458.97 443.323 1458.65C446.683 1456.63 449.323 1453.88 451.243 1450.39C453.195 1446.9 454.555 1442.86 455.323 1438.25ZM442.123 1444.92V1462.63H436.507V1450.25H430.939V1444.92H442.123ZM442.123 1460.14C443.115 1461.7 444.507 1462.86 446.299 1463.59C448.091 1464.33 450.235 1464.74 452.731 1464.84C454.139 1464.9 455.803 1464.95 457.723 1464.98C459.675 1464.98 461.723 1464.97 463.867 1464.94C466.011 1464.9 468.107 1464.84 470.155 1464.74C472.235 1464.65 474.075 1464.54 475.675 1464.41C475.483 1464.86 475.259 1465.43 475.003 1466.14C474.747 1466.84 474.507 1467.56 474.283 1468.3C474.091 1469.03 473.947 1469.69 473.851 1470.26C472.411 1470.36 470.763 1470.42 468.907 1470.46C467.051 1470.52 465.147 1470.55 463.195 1470.55C461.243 1470.58 459.355 1470.58 457.531 1470.55C455.707 1470.52 454.075 1470.47 452.635 1470.41C449.691 1470.28 447.179 1469.82 445.099 1469.02C443.019 1468.25 441.179 1466.94 439.579 1465.08C438.523 1465.98 437.435 1466.9 436.315 1467.86C435.227 1468.82 434.027 1469.82 432.715 1470.84L429.883 1464.84C431.003 1464.17 432.171 1463.43 433.387 1462.63C434.603 1461.83 435.771 1461 436.891 1460.14H442.123ZM430.987 1430.81L435.259 1427.35C436.251 1427.99 437.259 1428.74 438.283 1429.61C439.307 1430.44 440.267 1431.3 441.163 1432.2C442.059 1433.06 442.779 1433.86 443.323 1434.6L438.763 1438.44C438.283 1437.67 437.611 1436.84 436.747 1435.94C435.915 1435.05 434.987 1434.15 433.963 1433.26C432.939 1432.33 431.947 1431.51 430.987 1430.81Z" fill="black"/>
<path d="M402.045 1428.36L406.797 1426.29C407.693 1427.54 408.557 1428.93 409.389 1430.47C410.253 1431.97 410.845 1433.3 411.165 1434.45L406.125 1436.71C405.805 1435.59 405.245 1434.24 404.445 1432.68C403.677 1431.11 402.877 1429.67 402.045 1428.36ZM419.661 1426.15L425.565 1428.12C424.701 1429.62 423.837 1431.09 422.973 1432.53C422.109 1433.97 421.293 1435.22 420.525 1436.28L415.677 1434.45C416.157 1433.68 416.637 1432.82 417.117 1431.86C417.629 1430.9 418.109 1429.92 418.557 1428.93C419.005 1427.94 419.373 1427.01 419.661 1426.15ZM406.077 1451.3H411.741C411.581 1453.48 411.309 1455.56 410.925 1457.54C410.541 1459.52 409.949 1461.38 409.149 1463.11C408.349 1464.8 407.229 1466.34 405.789 1467.72C404.381 1469.12 402.541 1470.34 400.269 1471.36C399.981 1470.66 399.485 1469.86 398.781 1468.96C398.109 1468.07 397.469 1467.35 396.861 1466.8C398.781 1466.04 400.317 1465.11 401.469 1464.02C402.653 1462.93 403.549 1461.73 404.157 1460.42C404.797 1459.08 405.245 1457.65 405.501 1456.15C405.757 1454.61 405.949 1453 406.077 1451.3ZM414.237 1450.58H419.805V1463.88C419.805 1464.61 419.837 1465.08 419.901 1465.27C419.997 1465.43 420.205 1465.51 420.525 1465.51C420.621 1465.51 420.765 1465.51 420.957 1465.51C421.181 1465.51 421.405 1465.51 421.629 1465.51C421.853 1465.51 421.997 1465.51 422.061 1465.51C422.317 1465.51 422.509 1465.38 422.637 1465.12C422.765 1464.87 422.861 1464.34 422.925 1463.54C422.989 1462.71 423.037 1461.44 423.069 1459.75C423.421 1460.07 423.885 1460.37 424.461 1460.66C425.069 1460.95 425.693 1461.2 426.333 1461.43C426.973 1461.65 427.517 1461.83 427.965 1461.96C427.837 1464.23 427.565 1465.99 427.149 1467.24C426.765 1468.52 426.205 1469.41 425.469 1469.92C424.765 1470.44 423.837 1470.69 422.685 1470.69C422.493 1470.69 422.253 1470.69 421.965 1470.69C421.709 1470.69 421.421 1470.69 421.101 1470.69C420.813 1470.69 420.525 1470.69 420.237 1470.69C419.949 1470.69 419.709 1470.69 419.517 1470.69C418.077 1470.69 416.973 1470.47 416.205 1470.02C415.469 1469.6 414.957 1468.9 414.669 1467.91C414.381 1466.95 414.237 1465.62 414.237 1463.92V1450.58ZM407.613 1440.84V1447.36H419.517V1440.84H407.613ZM402.141 1435.8H425.229V1452.4H402.141V1435.8ZM389.709 1430.71H395.277V1471.27H389.709V1430.71ZM382.797 1439.73H400.413V1445.06H382.797V1439.73ZM389.997 1441.89L393.357 1443.33C392.909 1445.06 392.365 1446.85 391.725 1448.71C391.085 1450.56 390.381 1452.4 389.613 1454.23C388.845 1456.02 388.029 1457.72 387.165 1459.32C386.301 1460.92 385.405 1462.31 384.477 1463.49C384.189 1462.66 383.773 1461.73 383.229 1460.71C382.717 1459.65 382.237 1458.76 381.789 1458.02C382.621 1457.06 383.437 1455.94 384.237 1454.66C385.069 1453.35 385.853 1451.96 386.589 1450.48C387.325 1449.01 387.981 1447.54 388.557 1446.07C389.133 1444.6 389.613 1443.2 389.997 1441.89ZM397.149 1426.72L401.037 1431.14C399.405 1431.75 397.613 1432.31 395.661 1432.82C393.709 1433.33 391.709 1433.78 389.661 1434.16C387.645 1434.52 385.709 1434.82 383.853 1435.08C383.725 1434.44 383.501 1433.7 383.181 1432.87C382.861 1432 382.541 1431.27 382.221 1430.66C383.981 1430.37 385.773 1430.04 387.597 1429.65C389.453 1429.24 391.197 1428.77 392.829 1428.26C394.493 1427.75 395.933 1427.24 397.149 1426.72ZM395.181 1446.4C395.469 1446.63 395.901 1447.04 396.477 1447.65C397.085 1448.23 397.725 1448.87 398.397 1449.57C399.101 1450.28 399.725 1450.93 400.269 1451.54C400.813 1452.12 401.213 1452.53 401.469 1452.79L398.157 1457.35C397.869 1456.74 397.485 1456.05 397.005 1455.28C396.557 1454.52 396.061 1453.72 395.517 1452.88C395.005 1452.05 394.493 1451.27 393.981 1450.53C393.469 1449.76 393.021 1449.14 392.637 1448.66L395.181 1446.4Z" fill="black"/>
<path d="M364.652 1448.76C364.652 1445.33 365.084 1442.2 365.948 1439.35C366.812 1436.5 367.964 1433.94 369.404 1431.67C370.844 1429.4 372.412 1427.41 374.108 1425.72L378.668 1427.73C377.068 1429.43 375.612 1431.33 374.3 1433.45C373.02 1435.53 371.996 1437.83 371.228 1440.36C370.46 1442.89 370.076 1445.69 370.076 1448.76C370.076 1451.8 370.46 1454.6 371.228 1457.16C371.996 1459.69 373.02 1461.99 374.3 1464.07C375.612 1466.15 377.068 1468.05 378.668 1469.78L374.108 1471.8C372.412 1470.1 370.844 1468.12 369.404 1465.85C367.964 1463.57 366.812 1461.01 365.948 1458.17C365.084 1455.32 364.652 1452.18 364.652 1448.76Z" fill="black"/>
<path d="M288.668 1429.27H326.3V1434.99H294.428V1471.27H288.668V1429.27ZM323.564 1429.27H329.372V1464.55C329.372 1466.09 329.18 1467.29 328.796 1468.15C328.412 1469.05 327.724 1469.74 326.732 1470.22C325.74 1470.7 324.492 1470.99 322.988 1471.08C321.516 1471.21 319.708 1471.27 317.564 1471.27C317.468 1470.73 317.308 1470.11 317.084 1469.4C316.86 1468.7 316.604 1467.99 316.316 1467.29C316.028 1466.62 315.74 1466.03 315.452 1465.51C316.38 1465.58 317.308 1465.63 318.236 1465.66C319.196 1465.66 320.044 1465.66 320.78 1465.66C321.516 1465.66 322.028 1465.66 322.316 1465.66C322.764 1465.63 323.084 1465.53 323.276 1465.37C323.468 1465.18 323.564 1464.87 323.564 1464.46V1429.27ZM291.788 1447.13H326.396V1452.79H291.788V1447.13ZM305.804 1432.39H311.564V1449.96H305.804V1432.39Z" fill="black"/>
<path d="M277.372 1447.75C277.372 1440.55 275.116 1432.78 269.116 1432.78C263.116 1432.78 260.86 1440.55 260.86 1447.75C260.86 1455.43 263.116 1462.83 269.116 1462.83C275.116 1462.83 277.372 1455.43 277.372 1447.75ZM255.82 1447.75C255.82 1438.15 259.516 1427.88 269.116 1427.88C278.716 1427.88 282.412 1438.15 282.412 1447.75C282.412 1458.31 278.716 1467.72 269.116 1467.72C259.516 1467.72 255.82 1458.31 255.82 1447.75Z" fill="black"/>
<path d="M245.966 1447.75C245.966 1440.55 243.71 1432.78 237.71 1432.78C231.71 1432.78 229.454 1440.55 229.454 1447.75C229.454 1455.43 231.71 1462.83 237.71 1462.83C243.71 1462.83 245.966 1455.43 245.966 1447.75ZM224.414 1447.75C224.414 1438.15 228.11 1427.88 237.71 1427.88C247.31 1427.88 251.006 1438.15 251.006 1447.75C251.006 1458.31 247.31 1467.72 237.71 1467.72C228.11 1467.72 224.414 1458.31 224.414 1447.75Z" fill="black"/>
<path d="M214.56 1447.75C214.56 1440.55 212.304 1432.78 206.304 1432.78C200.304 1432.78 198.048 1440.55 198.048 1447.75C198.048 1455.43 200.304 1462.83 206.304 1462.83C212.304 1462.83 214.56 1455.43 214.56 1447.75ZM193.008 1447.75C193.008 1438.15 196.704 1427.88 206.304 1427.88C215.904 1427.88 219.6 1438.15 219.6 1447.75C219.6 1458.31 215.904 1467.72 206.304 1467.72C196.704 1467.72 193.008 1458.31 193.008 1447.75Z" fill="black"/>
<path d="M183.121 1473.52C183.073 1473.62 183.025 1473.72 182.929 1473.76C182.833 1473.81 182.689 1473.86 182.593 1473.86C182.497 1473.86 182.401 1473.81 182.305 1473.76L180.577 1472.76C180.337 1472.61 180.241 1472.37 180.289 1472.13L181.585 1466.76C181.057 1466.18 180.769 1465.46 180.769 1464.6C180.769 1462.82 182.113 1461.48 183.889 1461.48C185.665 1461.48 187.009 1462.82 187.009 1464.6C187.009 1465.17 186.865 1465.7 186.625 1466.18L183.121 1473.52Z" fill="black"/>
<path d="M174.891 1428.6C175.227 1428.6 175.467 1428.84 175.467 1429.18V1432.97C175.467 1433.31 175.227 1433.55 174.891 1433.55H162.987L160.779 1440.41H160.827C160.827 1440.41 161.835 1440.27 162.747 1440.31C170.091 1440.55 175.467 1445.88 175.467 1453.75C175.467 1461.34 169.947 1467.72 161.643 1467.72C156.507 1467.72 152.139 1465.32 149.595 1461.48L148.827 1460.33C148.683 1460.09 148.731 1459.66 148.971 1459.51L152.043 1457.21C152.283 1456.97 152.715 1457.02 152.955 1457.35L153.579 1458.36C155.499 1461.48 158.619 1462.83 161.643 1462.83C167.307 1462.83 170.427 1458.6 170.427 1453.71C170.427 1448.28 166.587 1445.16 162.219 1445.16C159.819 1445.16 158.475 1445.79 157.371 1446.6L156.987 1446.89C156.843 1446.99 156.699 1447.03 156.507 1446.99L154.443 1446.65C154.011 1446.6 153.867 1446.22 153.963 1445.88L159.243 1428.99C159.339 1428.75 159.531 1428.6 159.771 1428.6H174.891Z" fill="black"/>
<path d="M139.764 1428.6C140.1 1428.6 140.34 1428.84 140.34 1429.18V1466.38C140.34 1466.71 140.1 1467 139.764 1467H135.924C135.588 1467 135.348 1466.71 135.348 1466.38V1433.5H129.348C128.82 1433.5 128.58 1432.97 128.82 1432.63L131.22 1428.84C131.316 1428.7 131.508 1428.6 131.7 1428.6H139.764Z" fill="black"/>
<path d="M785.61 1194.93C785.231 1195.41 784.758 1196.02 784.19 1196.78C783.622 1197.49 783.172 1198.11 782.841 1198.63C781.752 1200.47 780.309 1202.6 778.51 1205.02C776.711 1207.38 774.723 1209.75 772.546 1212.12C770.369 1214.44 768.12 1216.42 765.801 1218.08L758.417 1212.19C759.837 1211.34 761.233 1210.34 762.606 1209.21C763.979 1208.07 765.233 1206.89 766.369 1205.66C767.552 1204.38 768.57 1203.17 769.422 1202.03C770.321 1200.9 771.008 1199.88 771.481 1198.98C770.866 1198.98 769.824 1198.98 768.357 1198.98C766.89 1198.98 765.138 1198.98 763.103 1198.98C761.068 1198.98 758.867 1198.98 756.5 1198.98C754.181 1198.98 751.861 1198.98 749.542 1198.98C747.223 1198.98 745.022 1198.98 742.939 1198.98C740.904 1198.98 739.129 1198.98 737.614 1198.98C736.147 1198.98 735.105 1198.98 734.49 1198.98C733.023 1198.98 731.626 1199.03 730.301 1199.12C728.976 1199.22 727.485 1199.34 725.828 1199.48V1189.61C727.201 1189.8 728.621 1189.96 730.088 1190.11C731.555 1190.25 733.023 1190.32 734.49 1190.32C735.105 1190.32 736.194 1190.32 737.756 1190.32C739.318 1190.32 741.164 1190.32 743.294 1190.32C745.471 1190.32 747.767 1190.32 750.181 1190.32C752.642 1190.32 755.08 1190.32 757.494 1190.32C759.955 1190.32 762.227 1190.32 764.31 1190.32C766.44 1190.32 768.239 1190.32 769.706 1190.32C771.221 1190.32 772.238 1190.32 772.759 1190.32C773.422 1190.32 774.226 1190.3 775.173 1190.25C776.12 1190.2 777.043 1190.13 777.942 1190.04C778.889 1189.94 779.575 1189.82 780.001 1189.68L785.61 1194.93ZM756.642 1204.52C756.642 1208.02 756.571 1211.41 756.429 1214.67C756.287 1217.94 755.885 1221.09 755.222 1224.12C754.607 1227.1 753.589 1229.94 752.169 1232.64C750.796 1235.33 748.879 1237.89 746.418 1240.3C743.957 1242.72 740.809 1244.94 736.975 1246.98L728.668 1240.23C729.804 1239.85 731.011 1239.36 732.289 1238.74C733.567 1238.08 734.845 1237.27 736.123 1236.33C738.395 1234.77 740.217 1233.11 741.59 1231.36C743.01 1229.61 744.099 1227.71 744.856 1225.68C745.613 1223.59 746.134 1221.35 746.418 1218.93C746.702 1216.47 746.844 1213.8 746.844 1210.91C746.844 1209.82 746.82 1208.78 746.773 1207.79C746.726 1206.74 746.584 1205.66 746.347 1204.52H756.642Z" fill="black"/>
<path d="M698.638 1188.47C699.301 1189.46 700.011 1190.62 700.768 1191.95C701.573 1193.23 702.354 1194.53 703.111 1195.85C703.868 1197.13 704.531 1198.34 705.099 1199.48L698.922 1202.1C698.212 1200.59 697.549 1199.24 696.934 1198.06C696.319 1196.82 695.656 1195.64 694.946 1194.51C694.283 1193.32 693.526 1192.14 692.674 1190.96L698.638 1188.47ZM708.365 1185.06C709.122 1185.96 709.903 1187.05 710.708 1188.33C711.513 1189.61 712.294 1190.88 713.051 1192.16C713.808 1193.44 714.471 1194.6 715.039 1195.64L709.004 1198.34C708.247 1196.87 707.513 1195.55 706.803 1194.36C706.14 1193.18 705.454 1192.04 704.744 1190.96C704.034 1189.87 703.229 1188.73 702.33 1187.55L708.365 1185.06ZM667.753 1187.12C668.936 1187.74 670.262 1188.49 671.729 1189.39C673.196 1190.29 674.687 1191.24 676.202 1192.23C677.717 1193.18 679.16 1194.1 680.533 1195C681.906 1195.85 683.042 1196.61 683.941 1197.27L678.687 1205.08C677.693 1204.42 676.51 1203.64 675.137 1202.74C673.812 1201.84 672.392 1200.92 670.877 1199.97C669.41 1199.03 667.942 1198.13 666.475 1197.27C665.055 1196.38 663.777 1195.59 662.641 1194.93L667.753 1187.12ZM654.618 1237.53C657.269 1237.06 659.967 1236.47 662.712 1235.76C665.457 1235.05 668.179 1234.19 670.877 1233.2C673.575 1232.16 676.202 1230.93 678.758 1229.51C682.781 1227.24 686.521 1224.68 689.976 1221.84C693.479 1219 696.626 1215.99 699.419 1212.82C702.212 1209.6 704.531 1206.29 706.377 1202.88L711.844 1212.54C708.578 1217.46 704.507 1222.12 699.632 1226.53C694.804 1230.88 689.479 1234.74 683.657 1238.1C681.243 1239.42 678.592 1240.7 675.705 1241.93C672.818 1243.12 669.978 1244.13 667.185 1244.99C664.44 1245.84 662.026 1246.45 659.943 1246.83L654.618 1237.53ZM656.819 1203.31C658.002 1203.92 659.351 1204.68 660.866 1205.58C662.381 1206.48 663.895 1207.4 665.41 1208.35C666.925 1209.25 668.345 1210.15 669.67 1211.05C671.043 1211.9 672.179 1212.66 673.078 1213.32L667.895 1221.27C666.854 1220.56 665.647 1219.76 664.274 1218.86C662.949 1217.96 661.529 1217.04 660.014 1216.09C658.547 1215.14 657.079 1214.24 655.612 1213.39C654.192 1212.49 652.89 1211.73 651.707 1211.12L656.819 1203.31Z" fill="black"/>
<path d="M583.727 1210.12C584.579 1210.17 585.667 1210.24 586.993 1210.34C588.318 1210.39 589.691 1210.43 591.111 1210.48C592.578 1210.53 593.927 1210.55 595.158 1210.55C596.341 1210.55 597.808 1210.55 599.56 1210.55C601.311 1210.55 603.204 1210.55 605.24 1210.55C607.322 1210.55 609.452 1210.55 611.63 1210.55C613.854 1210.55 616.055 1210.55 618.233 1210.55C620.41 1210.55 622.469 1210.55 624.41 1210.55C626.35 1210.55 628.078 1210.55 629.593 1210.55C631.155 1210.55 632.385 1210.55 633.285 1210.55C634.941 1210.55 636.503 1210.5 637.971 1210.41C639.438 1210.27 640.645 1210.17 641.592 1210.12V1221.27C640.787 1221.22 639.58 1221.15 637.971 1221.06C636.361 1220.96 634.799 1220.92 633.285 1220.92C632.385 1220.92 631.155 1220.92 629.593 1220.92C628.031 1220.92 626.279 1220.92 624.339 1220.92C622.398 1220.92 620.339 1220.92 618.162 1220.92C616.032 1220.92 613.854 1220.92 611.63 1220.92C609.405 1220.92 607.251 1220.92 605.169 1220.92C603.133 1220.92 601.24 1220.92 599.489 1220.92C597.785 1220.92 596.341 1220.92 595.158 1220.92C593.122 1220.92 591.04 1220.96 588.91 1221.06C586.78 1221.11 585.052 1221.18 583.727 1221.27V1210.12Z" fill="black"/>
<path d="M546.38 1197.56C546.238 1198.75 546.144 1199.72 546.096 1200.47C546.049 1201.23 546.025 1202.01 546.025 1202.82C546.025 1203.29 546.025 1204.09 546.025 1205.23C546.025 1206.32 546.025 1207.46 546.025 1208.64C546.025 1209.77 546.025 1210.74 546.025 1211.55H536.937C536.937 1210.7 536.937 1209.7 536.937 1208.57C536.937 1207.38 536.937 1206.25 536.937 1205.16C536.937 1204.07 536.937 1203.29 536.937 1202.82C536.937 1202.01 536.914 1201.23 536.866 1200.47C536.819 1199.72 536.677 1198.75 536.44 1197.56H546.38ZM567.041 1209.35C566.805 1210.01 566.592 1210.86 566.402 1211.9C566.213 1212.9 566.071 1213.68 565.976 1214.25C565.692 1215.9 565.243 1217.8 564.627 1219.93C564.059 1222.06 563.373 1224.19 562.568 1226.32C561.764 1228.45 560.888 1230.36 559.941 1232.07C558.427 1234.86 556.391 1237.42 553.835 1239.74C551.327 1242.01 548.463 1243.97 545.244 1245.63C542.073 1247.33 538.689 1248.61 535.091 1249.46L528.062 1241.51C528.962 1241.32 529.956 1241.11 531.044 1240.87C532.133 1240.59 533.198 1240.3 534.239 1240.02C535.281 1239.69 536.109 1239.41 536.724 1239.17C539.186 1238.22 541.623 1236.97 544.037 1235.41C546.499 1233.84 548.605 1231.86 550.356 1229.44C551.256 1228.12 552.06 1226.67 552.77 1225.11C553.528 1223.55 554.143 1221.89 554.616 1220.14C555.137 1218.39 555.492 1216.61 555.681 1214.82H526.926C526.926 1215.29 526.926 1215.9 526.926 1216.66C526.926 1217.42 526.926 1218.22 526.926 1219.08C526.926 1219.93 526.926 1220.71 526.926 1221.42C526.926 1222.13 526.926 1222.7 526.926 1223.12C526.926 1223.79 526.95 1224.52 526.997 1225.32C527.045 1226.13 527.092 1226.81 527.139 1227.38H518.122C518.217 1226.67 518.288 1225.89 518.335 1225.04C518.383 1224.19 518.406 1223.38 518.406 1222.63C518.406 1222.2 518.406 1221.51 518.406 1220.57C518.406 1219.57 518.406 1218.51 518.406 1217.37C518.406 1216.19 518.406 1215.1 518.406 1214.11C518.406 1213.11 518.406 1212.35 518.406 1211.83C518.406 1211.17 518.359 1210.27 518.264 1209.14C518.17 1207.95 518.075 1206.98 517.98 1206.22C518.974 1206.32 520.087 1206.41 521.317 1206.51C522.548 1206.56 523.708 1206.58 524.796 1206.58H555.894C557.125 1206.58 558.119 1206.53 558.876 1206.44C559.681 1206.34 560.344 1206.22 560.864 1206.08L567.041 1209.35Z" fill="black"/>
<path d="M457.487 1236.18C457.487 1235.28 457.487 1233.81 457.487 1231.78C457.487 1229.7 457.487 1227.31 457.487 1224.61C457.487 1221.86 457.487 1219 457.487 1216.02C457.487 1213.03 457.487 1210.17 457.487 1207.43C457.487 1204.63 457.487 1202.17 457.487 1200.04C457.487 1197.91 457.487 1196.35 457.487 1195.36C457.487 1194.13 457.416 1192.71 457.274 1191.1C457.18 1189.49 457.014 1188.07 456.777 1186.84H467.853C467.711 1188.07 467.569 1189.44 467.427 1190.95C467.285 1192.42 467.214 1193.89 467.214 1195.36C467.214 1196.68 467.214 1198.48 467.214 1200.75C467.214 1203.02 467.214 1205.56 467.214 1208.35C467.214 1211.09 467.214 1213.91 467.214 1216.8C467.214 1219.64 467.214 1222.38 467.214 1225.03C467.214 1227.68 467.214 1230 467.214 1231.99C467.214 1233.93 467.214 1235.33 467.214 1236.18C467.214 1236.84 467.238 1237.79 467.285 1239.02C467.333 1240.2 467.427 1241.43 467.569 1242.71C467.711 1243.99 467.806 1245.13 467.853 1246.12H456.777C456.967 1244.7 457.132 1243.04 457.274 1241.15C457.416 1239.26 457.487 1237.6 457.487 1236.18ZM465.084 1205.22C467.451 1205.84 470.102 1206.64 473.036 1207.64C475.971 1208.59 478.929 1209.6 481.911 1210.69C484.893 1211.78 487.686 1212.87 490.289 1213.96C492.94 1215 495.141 1215.97 496.892 1216.87L492.845 1226.67C490.857 1225.63 488.656 1224.58 486.242 1223.54C483.828 1222.45 481.367 1221.41 478.858 1220.42C476.397 1219.42 473.959 1218.5 471.545 1217.65C469.179 1216.8 467.025 1216.04 465.084 1215.38V1205.22Z" fill="black"/>
<path d="M399.908 1241.44C400.05 1240.73 400.168 1239.93 400.263 1239.03C400.405 1238.08 400.476 1237.13 400.476 1236.19C400.476 1235.67 400.476 1234.62 400.476 1233.06C400.476 1231.5 400.476 1229.61 400.476 1227.38C400.476 1225.16 400.476 1222.77 400.476 1220.21C400.476 1217.61 400.476 1214.98 400.476 1212.33C400.476 1209.68 400.476 1207.19 400.476 1204.88C400.476 1202.51 400.476 1200.45 400.476 1198.7C400.476 1196.9 400.476 1195.6 400.476 1194.79C400.476 1193.18 400.381 1191.79 400.192 1190.6C400.05 1189.42 399.955 1188.78 399.908 1188.69H410.487C410.44 1188.78 410.345 1189.44 410.203 1190.68C410.061 1191.86 409.99 1193.26 409.99 1194.86C409.99 1195.67 409.99 1196.88 409.99 1198.49C409.99 1200.05 409.99 1201.87 409.99 1203.95C409.99 1205.99 409.99 1208.17 409.99 1210.48C409.99 1212.8 409.99 1215.1 409.99 1217.37C409.99 1219.6 409.99 1221.73 409.99 1223.76C409.99 1225.75 409.99 1227.45 409.99 1228.87C409.99 1230.29 409.99 1231.33 409.99 1232C411.931 1231.15 413.942 1229.99 416.025 1228.52C418.108 1227.05 420.143 1225.35 422.131 1223.41C424.166 1221.42 425.965 1219.29 427.527 1217.02L432.994 1224.83C431.053 1227.38 428.687 1229.89 425.894 1232.35C423.149 1234.81 420.309 1237.06 417.374 1239.1C414.439 1241.13 411.623 1242.84 408.925 1244.21C408.168 1244.64 407.552 1245.01 407.079 1245.35C406.606 1245.72 406.203 1246.06 405.872 1246.34L399.908 1241.44ZM367.035 1240.38C370.159 1238.2 372.715 1235.57 374.703 1232.49C376.691 1229.42 378.158 1226.39 379.105 1223.41C379.626 1221.84 380.004 1219.93 380.241 1217.66C380.525 1215.34 380.738 1212.87 380.88 1210.27C381.022 1207.62 381.093 1205.02 381.093 1202.46C381.14 1199.86 381.164 1197.47 381.164 1195.29C381.164 1193.87 381.093 1192.66 380.951 1191.67C380.856 1190.63 380.714 1189.66 380.525 1188.76H390.962C390.915 1188.85 390.844 1189.26 390.749 1189.97C390.702 1190.63 390.631 1191.43 390.536 1192.38C390.489 1193.28 390.465 1194.23 390.465 1195.22C390.465 1197.3 390.441 1199.74 390.394 1202.53C390.347 1205.28 390.252 1208.09 390.11 1210.98C389.968 1213.87 389.755 1216.61 389.471 1219.22C389.187 1221.77 388.808 1223.95 388.335 1225.75C387.246 1229.77 385.613 1233.51 383.436 1236.97C381.306 1240.38 378.726 1243.43 375.697 1246.13L367.035 1240.38Z" fill="black"/>
<path d="M330.965 1186.05C330.87 1186.86 330.776 1187.9 330.681 1189.18C330.634 1190.46 330.586 1191.52 330.539 1192.37C330.35 1199.43 329.758 1205.7 328.764 1211.19C327.77 1216.63 326.35 1221.46 324.504 1225.67C322.658 1229.89 320.315 1233.67 317.475 1237.03C314.635 1240.35 311.251 1243.4 307.322 1246.19L299.086 1239.52C300.553 1238.67 302.115 1237.67 303.772 1236.54C305.476 1235.35 307.014 1234.03 308.387 1232.56C310.706 1230.29 312.671 1227.8 314.28 1225.1C315.889 1222.36 317.167 1219.38 318.114 1216.16C319.108 1212.89 319.842 1209.32 320.315 1205.44C320.788 1201.56 321.025 1197.27 321.025 1192.59C321.025 1192.07 321.001 1191.4 320.954 1190.6C320.907 1189.75 320.836 1188.92 320.741 1188.11C320.694 1187.31 320.623 1186.62 320.528 1186.05H330.965ZM355.105 1201.25C355.01 1201.82 354.892 1202.48 354.75 1203.24C354.655 1203.99 354.608 1204.59 354.608 1205.01C354.561 1206.53 354.466 1208.47 354.324 1210.83C354.229 1213.2 354.064 1215.76 353.827 1218.5C353.638 1221.2 353.377 1223.9 353.046 1226.6C352.762 1229.29 352.407 1231.8 351.981 1234.12C351.555 1236.39 351.034 1238.26 350.419 1239.73C349.662 1241.53 348.549 1242.88 347.082 1243.78C345.662 1244.72 343.721 1245.2 341.26 1245.2C339.225 1245.2 337.189 1245.13 335.154 1244.98C333.119 1244.89 331.225 1244.77 329.474 1244.63L328.409 1235.12C330.16 1235.45 331.912 1235.71 333.663 1235.9C335.414 1236.04 336.976 1236.11 338.349 1236.11C339.532 1236.11 340.408 1235.92 340.976 1235.54C341.544 1235.12 342.017 1234.48 342.396 1233.62C342.775 1232.68 343.13 1231.42 343.461 1229.86C343.792 1228.3 344.076 1226.55 344.313 1224.61C344.55 1222.67 344.739 1220.66 344.881 1218.57C345.07 1216.49 345.189 1214.48 345.236 1212.54C345.331 1210.55 345.378 1208.8 345.378 1207.28H310.73C309.547 1207.28 308.079 1207.31 306.328 1207.35C304.577 1207.35 302.92 1207.43 301.358 1207.57V1198.27C302.873 1198.41 304.482 1198.53 306.186 1198.62C307.89 1198.72 309.405 1198.76 310.73 1198.76H343.603C344.502 1198.76 345.402 1198.72 346.301 1198.62C347.248 1198.53 348.123 1198.41 348.928 1198.27L355.105 1201.25Z" fill="black"/>
</svg>
