<svg width="1080" height="1920" viewBox="0 0 1080 1920" fill="none" xmlns="http://www.w3.org/2000/svg">
<path d="M1080 1920L1080 0L0 0L0 1920H1080Z" fill="#A5D4AD"/>
<path d="M1020 983.72V95C1020 75.67 1004.33 60 985 60H95.58C75.93 60 60 75.93 60 95.58V983.71C60 984.03 60.25 984.28 60.57 984.28C80.03 984.59 95.71 1000.46 95.71 1019.99C95.71 1039.52 80.03 1055.39 60.57 1055.7C60.25 1055.7 60 1055.96 60 1056.27V1824.99C60 1844.32 75.67 1859.99 95 1859.99H985C1004.33 1859.99 1020 1844.32 1020 1824.99V1056.27C1020 1055.95 1019.75 1055.7 1019.43 1055.7C999.97 1055.39 984.29 1039.52 984.29 1019.99C984.29 1000.46 999.97 984.59 1019.43 984.28C1019.75 984.28 1020 984.02 1020 983.71V983.72Z" fill="white"/>
<path d="M60.57 1055.71C60.25 1055.71 60 1055.97 60 1056.28V1825C60 1844.33 75.67 1860 95 1860H985C1004.33 1860 1020 1844.33 1020 1825V1056.28C1020 1055.96 1019.75 1055.71 1019.43 1055.71C999.97 1055.4 984.29 1039.53 984.29 1020H95.71C95.71 1039.53 80.03 1055.4 60.57 1055.71Z" fill="#E5F2E6"/>
<path d="M121 1020H160.9" stroke="black" stroke-width="6" stroke-miterlimit="10"/>
<path d="M187.51 1020H227.41" stroke="black" stroke-width="6" stroke-miterlimit="10"/>
<path d="M254.02 1020H293.92" stroke="black" stroke-width="6" stroke-miterlimit="10"/>
<path d="M320.52 1020H360.43" stroke="black" stroke-width="6" stroke-miterlimit="10"/>
<path d="M387.03 1020H426.94" stroke="black" stroke-width="6" stroke-miterlimit="10"/>
<path d="M453.54 1020H493.44" stroke="black" stroke-width="6" stroke-miterlimit="10"/>
<path d="M520.05 1020H559.95" stroke="black" stroke-width="6" stroke-miterlimit="10"/>
<path d="M586.56 1020H626.46" stroke="black" stroke-width="6" stroke-miterlimit="10"/>
<path d="M653.06 1020H692.97" stroke="black" stroke-width="6" stroke-miterlimit="10"/>
<path d="M719.57 1020H759.48" stroke="black" stroke-width="6" stroke-miterlimit="10"/>
<path d="M786.08 1020H825.98" stroke="black" stroke-width="6" stroke-miterlimit="10"/>
<path d="M852.59 1020H892.49" stroke="black" stroke-width="6" stroke-miterlimit="10"/>
<path d="M919.1 1020H959" stroke="black" stroke-width="6" stroke-miterlimit="10"/>
<path d="M1020 984.29V95C1020 75.67 1004.33 60 985 60H95C75.67 60 60 75.67 60 95V984.29C79.72 984.29 95.71 1000.28 95.71 1020C95.71 1039.72 79.72 1055.71 60 1055.71V1825C60 1844.33 75.67 1860 95 1860H985C1004.33 1860 1020 1844.33 1020 1825V1055.71C1000.28 1055.71 984.29 1039.72 984.29 1020C984.29 1000.28 1000.28 984.29 1020 984.29Z" stroke="black" stroke-width="6" stroke-miterlimit="10"/>
<path d="M912.65 525.666C908.78 525.666 905.54 522.646 905.32 518.736C900.59 435.626 868.79 358.856 813.37 296.746C810.67 293.716 810.93 289.066 813.96 286.366C816.99 283.666 821.63 283.926 824.34 286.956C882 351.576 915.07 431.436 920 517.896C920.23 521.946 917.13 525.426 913.08 525.656C912.94 525.656 912.8 525.666 912.66 525.666H912.65Z" fill="black"/>
<path d="M818.85 795.517C817.11 795.517 815.36 794.897 813.96 793.647C810.93 790.947 810.67 786.297 813.37 783.267C868.79 721.157 900.59 644.387 905.32 561.277C905.55 557.227 909.03 554.117 913.08 554.357C917.13 554.587 920.23 558.057 920 562.117C915.07 648.587 882 728.447 824.34 793.057C822.89 794.687 820.87 795.517 818.85 795.517Z" fill="black"/>
<path d="M167.36 525.666C167.22 525.666 167.08 525.666 166.94 525.656C162.89 525.426 159.79 521.956 160.02 517.896C164.95 431.426 198.02 351.566 255.68 286.956C258.38 283.926 263.03 283.666 266.06 286.366C269.09 289.066 269.35 293.716 266.65 296.746C211.23 358.856 179.43 435.616 174.7 518.736C174.48 522.646 171.24 525.666 167.37 525.666H167.36Z" fill="black"/>
<path d="M261.17 795.517C259.15 795.517 257.13 794.687 255.68 793.057C198.02 728.437 164.95 648.577 160.02 562.117C159.79 558.067 162.89 554.587 166.94 554.357C170.99 554.117 174.47 557.227 174.7 561.277C179.43 644.397 211.23 721.157 266.65 783.267C269.35 786.297 269.09 790.947 266.06 793.647C264.66 794.897 262.91 795.517 261.17 795.517Z" fill="black"/>
<path d="M788.169 268.511C786.429 268.511 784.679 267.891 783.279 266.641C721.169 211.221 644.399 179.421 561.289 174.691C557.239 174.461 554.139 170.991 554.369 166.931C554.599 162.881 558.039 159.791 562.129 160.011C648.599 164.941 728.459 198.011 793.069 255.671C796.099 258.371 796.359 263.021 793.659 266.051C792.209 267.681 790.189 268.511 788.169 268.511Z" fill="black"/>
<path d="M291.85 268.512C289.83 268.512 287.81 267.682 286.36 266.052C283.66 263.022 283.92 258.372 286.95 255.672C351.57 198.012 431.43 164.942 517.89 160.012C521.94 159.782 525.42 162.882 525.65 166.932C525.88 170.982 522.78 174.462 518.73 174.692C435.62 179.422 358.85 211.222 296.74 266.642C295.34 267.892 293.59 268.512 291.85 268.512Z" fill="black"/>
<path d="M561.69 920.006C557.82 920.006 554.58 916.986 554.36 913.076C554.13 909.026 557.23 905.546 561.28 905.316C644.4 900.586 721.16 868.786 783.27 813.366C786.3 810.666 790.95 810.926 793.65 813.956C796.35 816.986 796.09 821.636 793.06 824.336C728.44 881.996 648.58 915.066 562.12 919.996C561.98 919.996 561.84 920.006 561.7 920.006H561.69Z" fill="black"/>
<path d="M518.32 920.006C518.18 920.006 518.04 920.006 517.9 919.996C431.43 915.066 351.57 881.996 286.96 824.336C283.93 821.636 283.67 816.986 286.37 813.956C289.07 810.926 293.72 810.666 296.75 813.366C358.86 868.786 435.63 900.586 518.74 905.316C522.79 905.546 525.89 909.016 525.66 913.076C525.44 916.986 522.2 920.006 518.33 920.006H518.32Z" fill="black"/>
<path d="M875.38 526.189C872.37 526.189 869.85 523.839 869.68 520.799C865.41 445.789 836.71 376.519 786.7 320.459C784.6 318.099 784.8 314.489 787.16 312.389C789.51 310.289 793.13 310.489 795.23 312.849C846.98 370.849 876.68 442.539 881.1 520.149C881.28 523.299 878.87 525.999 875.72 526.179C875.61 526.179 875.5 526.179 875.39 526.179L875.38 526.189Z" fill="black"/>
<path d="M790.96 769.062C789.6 769.062 788.25 768.582 787.16 767.612C784.8 765.512 784.6 761.892 786.7 759.542C836.71 703.492 865.41 634.212 869.68 559.202C869.86 556.052 872.55 553.642 875.71 553.822C878.86 554.002 881.27 556.702 881.09 559.852C876.67 637.472 846.98 709.152 795.22 767.152C794.09 768.422 792.52 769.062 790.95 769.062H790.96Z" fill="black"/>
<path d="M204.63 526.187C204.52 526.187 204.41 526.187 204.3 526.187C201.15 526.007 198.74 523.307 198.92 520.157C203.34 442.537 233.03 370.857 284.79 312.857C286.89 310.497 290.51 310.297 292.86 312.397C295.22 314.497 295.42 318.117 293.32 320.467C243.31 376.517 214.61 445.797 210.34 520.807C210.17 523.847 207.65 526.197 204.64 526.197L204.63 526.187Z" fill="black"/>
<path d="M289.05 769.055C287.48 769.055 285.91 768.405 284.78 767.145C233.03 709.145 203.33 637.455 198.91 559.845C198.73 556.695 201.14 553.995 204.29 553.815C207.45 553.625 210.14 556.045 210.32 559.195C214.59 634.205 243.29 703.485 293.3 759.535C295.4 761.895 295.2 765.505 292.84 767.605C291.75 768.575 290.39 769.055 289.04 769.055H289.05Z" fill="black"/>
<path d="M763.35 294.756C761.99 294.756 760.64 294.276 759.55 293.306C703.5 243.296 634.22 214.596 559.21 210.326C556.06 210.146 553.65 207.446 553.83 204.296C554.01 201.146 556.7 198.736 559.86 198.916C637.48 203.336 709.16 233.026 767.16 284.786C769.52 286.886 769.72 290.506 767.62 292.856C766.49 294.126 764.92 294.766 763.35 294.766V294.756Z" fill="black"/>
<path d="M316.66 294.759C315.09 294.759 313.52 294.109 312.39 292.849C310.29 290.489 310.49 286.879 312.85 284.779C370.85 233.029 442.54 203.329 520.15 198.909C523.3 198.719 526 201.139 526.18 204.289C526.36 207.439 523.95 210.139 520.8 210.319C445.79 214.589 376.52 243.289 320.46 293.299C319.37 294.269 318.01 294.749 316.66 294.749V294.759Z" fill="black"/>
<path d="M559.53 881.102C556.52 881.102 554 878.752 553.83 875.712C553.65 872.562 556.06 869.862 559.21 869.682C634.22 865.412 703.49 836.712 759.55 786.702C761.9 784.602 765.52 784.802 767.62 787.162C769.72 789.522 769.52 793.132 767.16 795.232C709.16 846.982 637.47 876.682 559.86 881.102C559.75 881.102 559.64 881.102 559.53 881.102Z" fill="black"/>
<path d="M520.49 881.102C520.38 881.102 520.27 881.102 520.16 881.102C442.54 876.682 370.86 846.992 312.86 795.232C310.5 793.132 310.3 789.512 312.4 787.162C314.5 784.802 318.12 784.602 320.47 786.702C376.52 836.722 445.8 865.412 520.81 869.682C523.96 869.862 526.37 872.562 526.19 875.712C526.02 878.752 523.5 881.102 520.49 881.102Z" fill="black"/>
<path d="M841.849 526.514C839.699 526.514 837.899 524.834 837.779 522.664C833.919 454.914 807.999 392.344 762.829 341.714C761.329 340.034 761.479 337.454 763.159 335.944C764.839 334.444 767.419 334.584 768.929 336.274C815.349 388.294 841.979 452.584 845.939 522.194C846.069 524.444 844.349 526.374 842.089 526.504C842.009 526.504 841.929 526.504 841.849 526.504V526.514Z" fill="black"/>
<path d="M765.869 745.106C764.899 745.106 763.929 744.766 763.149 744.066C761.469 742.566 761.319 739.986 762.819 738.296C807.989 687.666 833.909 625.096 837.769 557.346C837.899 555.096 839.859 553.396 842.079 553.496C844.329 553.626 846.049 555.556 845.929 557.806C841.959 627.416 815.329 691.706 768.919 743.726C768.109 744.626 766.989 745.086 765.869 745.086V745.106Z" fill="black"/>
<path d="M238.17 526.516C238.09 526.516 238.01 526.516 237.93 526.516C235.68 526.386 233.96 524.456 234.08 522.206C238.05 452.596 264.68 388.306 311.09 336.286C312.59 334.606 315.17 334.456 316.86 335.956C318.54 337.456 318.69 340.036 317.19 341.726C272.02 392.356 246.1 454.926 242.24 522.676C242.12 524.846 240.32 526.526 238.17 526.526V526.516Z" fill="black"/>
<path d="M314.14 745.103C313.02 745.103 311.9 744.643 311.09 743.743C264.67 691.723 238.04 627.433 234.08 557.823C233.95 555.573 235.67 553.643 237.93 553.513C240.17 553.403 242.11 555.103 242.24 557.363C246.1 625.113 272.02 687.683 317.19 738.313C318.69 739.993 318.54 742.573 316.86 744.083C316.08 744.773 315.11 745.123 314.14 745.123V745.103Z" fill="black"/>
<path d="M741.02 318.225C740.05 318.225 739.08 317.885 738.3 317.185C687.67 272.015 625.1 246.095 557.35 242.235C555.1 242.105 553.38 240.175 553.5 237.925C553.63 235.675 555.55 233.965 557.81 234.075C627.42 238.045 691.71 264.675 743.74 311.085C745.42 312.585 745.57 315.165 744.07 316.855C743.26 317.755 742.14 318.215 741.02 318.215V318.225Z" fill="black"/>
<path d="M339 318.224C337.88 318.224 336.76 317.764 335.95 316.864C334.45 315.184 334.6 312.604 336.28 311.094C388.3 264.674 452.59 238.044 522.2 234.084C524.45 233.964 526.38 235.674 526.51 237.934C526.64 240.184 524.92 242.114 522.66 242.244C454.91 246.104 392.34 272.024 341.71 317.194C340.93 317.884 339.96 318.234 338.99 318.234L339 318.224Z" fill="black"/>
<path d="M557.57 845.933C555.42 845.933 553.62 844.253 553.5 842.083C553.37 839.833 555.09 837.903 557.35 837.773C625.1 833.913 687.67 807.993 738.3 762.823C739.98 761.323 742.56 761.473 744.07 763.153C745.57 764.833 745.42 767.413 743.74 768.923C691.72 815.343 627.43 841.973 557.81 845.933C557.73 845.933 557.65 845.933 557.57 845.933Z" fill="black"/>
<path d="M522.44 845.933C522.36 845.933 522.28 845.933 522.2 845.933C452.59 841.963 388.3 815.333 336.28 768.923C334.6 767.423 334.45 764.843 335.95 763.153C337.45 761.473 340.03 761.323 341.72 762.823C392.35 807.993 454.92 833.913 522.67 837.773C524.92 837.903 526.64 839.833 526.52 842.083C526.4 844.253 524.6 845.933 522.45 845.933H522.44Z" fill="black"/>
<path d="M320.65 546.174C320.65 544.604 321.79 543.274 323.34 543.024C324.64 542.814 326.27 542.524 327.98 542.124C332.4 541.084 337.59 539.114 343.41 536.274C349.29 533.404 354.92 529.414 359.17 523.674C366.34 513.974 367.86 501.404 368.19 496.894C368.26 495.974 367.53 495.194 366.6 495.194H317.09C315.33 495.194 313.91 493.764 313.91 492.014V470.694C313.91 468.934 315.34 467.514 317.09 467.514H367.07C367.95 467.514 368.66 466.804 368.66 465.924V447.184C368.66 446.304 367.95 445.594 367.07 445.594H328.62C326.86 445.594 325.44 444.164 325.44 442.414V421.094C325.44 419.334 326.87 417.914 328.62 417.914H428.96C430.72 417.914 432.14 419.344 432.14 421.094V442.414C432.14 444.174 430.71 445.594 428.96 445.594H398.52C397.64 445.594 396.93 446.304 396.93 447.184V465.924C396.93 466.804 397.64 467.514 398.52 467.514H438.58C440.34 467.514 441.76 468.944 441.76 470.694V492.014C441.76 493.774 440.33 495.194 438.58 495.194H398.39C397.54 495.194 396.84 495.864 396.8 496.714C396.57 501.754 395.15 518.444 386.18 532.854C380.73 541.614 373.65 548.264 366.54 553.544C359.41 558.844 352.26 562.934 345.27 565.704C338.24 568.494 332.34 570.444 327.75 571.514C326.66 571.764 325.49 571.994 324.4 572.184C322.45 572.534 320.66 571.034 320.66 569.044V546.164L320.65 546.174Z" fill="black"/>
<path d="M474.55 546.522C474.55 545.062 475.55 543.792 476.96 543.432C485.21 541.362 488.93 540.112 496.84 536.322C496.84 536.322 500.89 534.212 504.93 531.302C517.11 522.542 525.22 510.632 525.22 510.632C534.68 497.282 537.77 474.912 538.49 468.492C538.6 467.552 537.86 466.722 536.91 466.722H500.58C500.35 466.722 500.14 466.842 500.03 467.042L499.88 467.292C494.3 478.112 486.88 487.992 480.45 494.242C474 500.502 468.59 505.052 464.38 507.752L461.78 509.422C460.72 510.102 459.33 509.342 459.33 508.082V479.892C459.33 478.952 459.75 478.062 460.47 477.452C461.12 476.902 461.99 476.132 463.18 475.062C465.94 472.572 469.05 468.512 472.42 462.982C475.76 457.512 479.35 450.212 483.07 441.292C486.45 433.202 488.98 423.092 490.86 412.062C491.12 410.532 492.45 409.422 494 409.422H513.91C515.91 409.422 517.42 411.252 517.04 413.212C516.4 416.522 515.71 420.882 514.85 424.312C513.58 429.392 512.76 432.302 511.24 436.722C510.98 437.472 511.54 438.242 512.33 438.242H591.18C592.94 438.242 594.36 439.672 594.36 441.422V463.512C594.36 465.272 592.93 466.692 591.18 466.692H568.14C567.33 466.692 566.64 467.302 566.56 468.112C565.93 474.012 562.88 497.162 552.39 517.262C538.29 546.002 508.14 566.392 478.34 572.132C476.38 572.512 474.56 571.002 474.56 569.002V546.482L474.55 546.522Z" fill="black"/>
<path d="M675.899 411.035V468.875C675.899 469.755 676.609 470.465 677.489 470.465H764.519C765.399 470.465 766.109 469.755 766.109 468.875V411.035C766.109 410.155 765.399 409.445 764.519 409.445H677.489C676.609 409.445 675.899 410.155 675.899 411.035ZM738.459 452.745H702.299C701.419 452.745 700.709 452.035 700.709 451.155V446.875C700.709 445.995 701.419 445.285 702.299 445.285H738.459C739.339 445.285 740.049 445.995 740.049 446.875V451.155C740.049 452.035 739.339 452.745 738.459 452.745ZM738.459 434.455H702.299C701.419 434.455 700.709 433.745 700.709 432.865V428.755C700.709 427.875 701.419 427.165 702.299 427.165H738.459C739.339 427.165 740.049 427.875 740.049 428.755V432.865C740.049 433.745 739.339 434.455 738.459 434.455Z" fill="black"/>
<path d="M674.23 497.342H728.27C729.15 497.342 729.86 498.052 729.86 498.932V502.842C729.86 503.722 729.15 504.432 728.27 504.432H667.76C666 504.432 664.58 505.862 664.58 507.612V522.862C664.58 524.622 666.01 526.042 667.76 526.042H728.27C729.15 526.042 729.86 526.752 729.86 527.632V545.392C729.86 546.112 729.94 547.982 729.22 548.852C728.39 549.872 727.15 549.672 725.85 549.722C722.54 549.722 719.58 549.702 716.95 549.662C716.55 549.662 716.26 549.292 716.34 548.902C716.6 547.632 716.73 546.312 716.7 544.962C716.5 535.682 708.94 528.082 699.66 527.842C689.58 527.582 681.37 535.852 681.71 545.942C682.02 555.292 689.79 562.812 699.15 562.842C704.04 562.852 708.46 560.862 711.64 557.642C711.98 557.302 712.55 557.432 712.7 557.882C714.16 562.212 715.54 566.342 716.79 570.052C717.23 571.352 718.46 572.222 719.83 572.212C725.73 572.172 730.51 571.962 734.18 571.602C738.31 571.182 742.09 570.152 745.52 568.502C749.18 566.842 751.69 564.422 753.05 561.232C754.41 558.042 755.09 553.552 755.09 547.762V527.622C755.09 526.742 755.8 526.032 756.68 526.032H762.91C764.67 526.032 766.09 524.602 766.09 522.852V507.602C766.09 505.842 764.66 504.422 762.91 504.422H756.68C755.8 504.422 755.09 503.712 755.09 502.832V498.922C755.09 498.042 755.8 497.332 756.68 497.332H762.91C764.67 497.332 766.09 495.902 766.09 494.152V479.602C766.09 477.842 764.66 476.422 762.91 476.422H674.21C672.45 476.422 671.03 477.852 671.03 479.602V494.152C671.03 495.912 672.46 497.332 674.21 497.332L674.23 497.342Z" fill="black"/>
<path d="M668.83 409.445H650.26C649.4 409.445 648.58 409.795 647.98 410.405C635.23 423.355 618.29 434.575 612.13 438.485C610.78 439.335 610.28 441.065 610.95 442.505L620.7 463.575C621.63 465.575 624.26 466.055 625.83 464.505C646.12 444.465 664.45 419.805 670.12 411.965C670.88 410.915 670.12 409.445 668.83 409.445Z" fill="black"/>
<path d="M671.92 453.899V435.419C671.92 434.009 670.22 433.299 669.21 434.289C653.64 449.609 620.05 477.069 611.68 483.869C610.55 484.789 610.19 486.359 610.8 487.679L620.7 509.059C621.63 511.059 624.26 511.539 625.83 509.989C627.54 508.299 629.24 506.569 630.92 504.829C631.32 504.419 632.02 504.699 632.02 505.269V569.069C632.02 570.829 633.45 572.249 635.2 572.249H653.82C655.58 572.249 657 570.819 657 569.069V476.379C657 475.309 657.36 474.259 658.03 473.419C664.87 464.739 669.72 458.029 671.34 455.749C671.72 455.209 671.93 454.569 671.93 453.899H671.92Z" fill="black"/>
<path d="M653.27 623.338C640.85 623.338 634.81 628.288 634.81 638.478V655.608C634.81 665.678 640.85 670.568 653.27 670.568C659.14 670.568 663.48 669.488 666.56 667.278C670 664.808 671.74 660.878 671.74 655.598V638.468C671.74 628.278 665.7 623.328 653.28 623.328L653.27 623.338ZM646.09 639.308C646.09 633.938 648.84 632.918 653.27 632.918C657.7 632.918 660.45 633.958 660.45 639.308V654.688C660.45 659.958 657.6 660.988 653.27 660.988C648.94 660.988 646.09 659.988 646.09 654.688V639.308Z" fill="black"/>
<path d="M708.27 669.334H721.36L703.63 646.784L720.56 624.804H707.4L694.06 642.284V610.234H682.77V669.334H694.06V659.214L696.95 655.454L708.27 669.334Z" fill="black"/>
<path d="M754.82 624.805V653.295C754.82 659.045 751.88 660.895 746.83 660.895C743.56 660.895 740.28 660.355 740.28 653.885V624.815H729V656.775C729 665.745 733.71 670.485 742.62 670.485C749.3 670.485 753.88 666.865 755.58 662.805L757.39 669.345H766.11V624.815H754.83L754.82 624.805Z" fill="black"/>
<path d="M630.57 610.234H589.15V620.144V620.154H604.22V669.334H615.69V620.154H630.57V610.234Z" fill="black"/>
<path d="M459.69 669.334H472.78L455.05 646.784L471.98 624.804H458.82L445.48 642.284V610.234H434.2V669.334H445.48V659.214L448.37 655.454L459.69 669.334Z" fill="black"/>
<path d="M355.33 610.234H313.91V620.144V620.154H328.99V669.334H340.45V620.154H355.33V610.234Z" fill="black"/>
<path d="M421.8 658.896L421.2 659.046C417.62 659.966 413.29 660.896 409.41 660.896C404.86 660.896 401.69 658.826 401.69 652.836V640.976C401.69 634.906 404.86 632.826 409.41 632.826C413.36 632.826 417.88 633.706 421.23 634.406L421.81 634.526V625.196L421.5 625.126C417.69 624.236 412.05 623.336 407.53 623.336C402.01 623.336 397.97 624.406 395.17 626.596C391.97 629.096 390.42 633.856 390.42 639.346V654.646C390.42 664.776 396.02 670.566 407.54 670.566C411.41 670.566 417.27 669.496 421.53 668.316L421.82 668.236V658.886L421.8 658.896Z" fill="black"/>
<path d="M553.93 634.705V624.805H543.69V615.195H532.41V624.805H525.18V634.705H532.41V655.425C532.41 667.945 540.3 670.565 546.93 670.565C548.71 670.565 550.51 670.455 552.12 670.225V660.265C551.47 660.335 550.26 660.365 549.54 660.365C546.46 660.365 543.69 659.735 543.69 652.095V634.695H553.93V634.705Z" fill="black"/>
<path d="M489.739 650.742V650.562H515.169V641.482C515.169 635.572 513.549 630.243 510.359 627.343C507.419 624.673 502.779 623.312 497.259 623.312C485.079 623.312 478.459 629.223 478.459 639.593V654.453C478.459 664.703 483.839 670.552 496.319 670.552C500.979 670.552 506.289 669.563 511.969 668.403L512.359 668.323V659.052L511.709 659.203C507.139 660.253 504.619 661.143 500.289 661.143C494.079 661.143 489.739 658.623 489.739 652.203V650.722V650.742ZM489.739 639.722C489.739 634.072 493.799 632.742 497.169 632.742C500.539 632.742 504.069 634.072 504.069 639.722V643.232H489.739V642.713V639.722Z" fill="black"/>
<path d="M378.179 626.883H366.899V669.333H378.179V626.883Z" fill="black"/>
<path d="M372.54 622.224C376.422 622.224 379.57 619.077 379.57 615.194C379.57 611.312 376.422 608.164 372.54 608.164C368.657 608.164 365.51 611.312 365.51 615.194C365.51 619.077 368.657 622.224 372.54 622.224Z" fill="black"/>
<path d="M585.74 643.922H566.15V651.262H585.74V643.922Z" fill="black"/>
<path d="M724.9 1652.2C724.5 1652.8 723.9 1653.73 723.1 1655C722.367 1656.27 721.8 1657.43 721.4 1658.5C720 1661.63 718.267 1665.13 716.2 1669C714.2 1672.87 711.9 1676.77 709.3 1680.7C706.767 1684.57 704.067 1688.2 701.2 1691.6C697.467 1695.8 693.333 1699.97 688.8 1704.1C684.333 1708.17 679.6 1711.93 674.6 1715.4C669.667 1718.8 664.6 1721.73 659.4 1724.2L649.1 1713.4C654.5 1711.33 659.733 1708.73 664.8 1705.6C669.867 1702.47 674.567 1699.07 678.9 1695.4C683.233 1691.73 686.967 1688.17 690.1 1684.7C692.3 1682.17 694.367 1679.47 696.3 1676.6C698.3 1673.73 700.067 1670.9 701.6 1668.1C703.133 1665.23 704.267 1662.6 705 1660.2C704.333 1660.2 703.133 1660.2 701.4 1660.2C699.667 1660.2 697.633 1660.2 695.3 1660.2C693.033 1660.2 690.633 1660.2 688.1 1660.2C685.567 1660.2 683.133 1660.2 680.8 1660.2C678.533 1660.2 676.533 1660.2 674.8 1660.2C673.067 1660.2 671.833 1660.2 671.1 1660.2C669.7 1660.2 668.233 1660.27 666.7 1660.4C665.167 1660.47 663.7 1660.57 662.3 1660.7C660.967 1660.77 659.933 1660.83 659.2 1660.9V1646.7C660.2 1646.77 661.433 1646.87 662.9 1647C664.367 1647.13 665.833 1647.23 667.3 1647.3C668.833 1647.37 670.1 1647.4 671.1 1647.4C671.967 1647.4 673.333 1647.4 675.2 1647.4C677.067 1647.4 679.2 1647.4 681.6 1647.4C684 1647.4 686.467 1647.4 689 1647.4C691.6 1647.4 694.067 1647.4 696.4 1647.4C698.8 1647.4 700.867 1647.4 702.6 1647.4C704.333 1647.4 705.6 1647.4 706.4 1647.4C708.6 1647.4 710.6 1647.27 712.4 1647C714.267 1646.73 715.7 1646.43 716.7 1646.1L724.9 1652.2ZM702.5 1683.3C705.1 1685.37 707.867 1687.77 710.8 1690.5C713.733 1693.23 716.633 1696.07 719.5 1699C722.367 1701.93 725 1704.77 727.4 1707.5C729.867 1710.17 731.933 1712.5 733.6 1714.5L722.2 1724.4C719.733 1721 716.9 1717.47 713.7 1713.8C710.567 1710.13 707.233 1706.5 703.7 1702.9C700.233 1699.23 696.7 1695.77 693.1 1692.5L702.5 1683.3Z" fill="black"/>
<path d="M615.3 1639C616.167 1640.2 617.1 1641.63 618.1 1643.3C619.1 1644.97 620.033 1646.63 620.9 1648.3C621.833 1649.97 622.633 1651.43 623.3 1652.7L615.2 1656.1C614.2 1654.03 612.967 1651.7 611.5 1649.1C610.1 1646.43 608.733 1644.13 607.4 1642.2L615.3 1639ZM627.1 1634.5C628.033 1635.77 629 1637.23 630 1638.9C631 1640.57 631.967 1642.23 632.9 1643.9C633.9 1645.5 634.667 1646.9 635.2 1648.1L627.3 1651.5C626.233 1649.37 624.967 1647 623.5 1644.4C622.033 1641.8 620.6 1639.57 619.2 1637.7L627.1 1634.5ZM572.2 1643.3C571.933 1644.83 571.733 1646.6 571.6 1648.6C571.467 1650.6 571.4 1652.3 571.4 1653.7C571.4 1654.7 571.4 1656.47 571.4 1659C571.4 1661.47 571.4 1664.4 571.4 1667.8C571.4 1671.2 571.4 1674.77 571.4 1678.5C571.4 1682.17 571.4 1685.73 571.4 1689.2C571.4 1692.6 571.4 1695.63 571.4 1698.3C571.4 1700.97 571.4 1702.93 571.4 1704.2C571.4 1706.33 571.933 1707.8 573 1708.6C574.067 1709.4 575.7 1710.03 577.9 1710.5C579.433 1710.7 581.2 1710.87 583.2 1711C585.2 1711.07 587.3 1711.1 589.5 1711.1C592.1 1711.1 594.967 1711.03 598.1 1710.9C601.3 1710.7 604.5 1710.47 607.7 1710.2C610.967 1709.93 614.033 1709.57 616.9 1709.1C619.767 1708.63 622.233 1708.13 624.3 1707.6V1722.2C621.167 1722.67 617.533 1723.03 613.4 1723.3C609.267 1723.63 605.033 1723.87 600.7 1724C596.433 1724.2 592.433 1724.3 588.7 1724.3C585.433 1724.3 582.333 1724.2 579.4 1724C576.533 1723.8 574.033 1723.53 571.9 1723.2C567.567 1722.33 564.2 1720.7 561.8 1718.3C559.4 1715.83 558.2 1712.47 558.2 1708.2C558.2 1706.27 558.2 1703.77 558.2 1700.7C558.2 1697.57 558.2 1694.13 558.2 1690.4C558.2 1686.6 558.2 1682.8 558.2 1679C558.2 1675.13 558.2 1671.5 558.2 1668.1C558.2 1664.63 558.2 1661.63 558.2 1659.1C558.2 1656.57 558.2 1654.77 558.2 1653.7C558.2 1652.97 558.167 1651.97 558.1 1650.7C558.033 1649.43 557.933 1648.13 557.8 1646.8C557.733 1645.47 557.6 1644.3 557.4 1643.3H572.2ZM565.6 1674C568.8 1673.33 572.2 1672.53 575.8 1671.6C579.4 1670.6 583.033 1669.53 586.7 1668.4C590.367 1667.27 593.833 1666.13 597.1 1665C600.433 1663.8 603.4 1662.63 606 1661.5C607.8 1660.83 609.567 1660.07 611.3 1659.2C613.1 1658.33 614.967 1657.3 616.9 1656.1L622.3 1668.8C620.367 1669.53 618.333 1670.37 616.2 1671.3C614.133 1672.17 612.267 1672.9 610.6 1673.5C607.667 1674.63 604.3 1675.83 600.5 1677.1C596.767 1678.37 592.867 1679.63 588.8 1680.9C584.733 1682.1 580.7 1683.23 576.7 1684.3C572.767 1685.37 569.1 1686.3 565.7 1687.1L565.6 1674Z" fill="black"/>
<path d="M450.7 1673.7C451.9 1673.77 453.434 1673.87 455.3 1674C457.167 1674.07 459.1 1674.14 461.1 1674.2C463.167 1674.27 465.067 1674.3 466.8 1674.3C468.467 1674.3 470.534 1674.3 473 1674.3C475.467 1674.3 478.134 1674.3 481 1674.3C483.934 1674.3 486.934 1674.3 490 1674.3C493.134 1674.3 496.234 1674.3 499.3 1674.3C502.367 1674.3 505.267 1674.3 508 1674.3C510.734 1674.3 513.167 1674.3 515.3 1674.3C517.5 1674.3 519.234 1674.3 520.5 1674.3C522.834 1674.3 525.034 1674.24 527.1 1674.1C529.167 1673.9 530.867 1673.77 532.2 1673.7V1689.4C531.067 1689.34 529.367 1689.24 527.1 1689.1C524.834 1688.97 522.634 1688.9 520.5 1688.9C519.234 1688.9 517.5 1688.9 515.3 1688.9C513.1 1688.9 510.634 1688.9 507.9 1688.9C505.167 1688.9 502.267 1688.9 499.2 1688.9C496.2 1688.9 493.134 1688.9 490 1688.9C486.867 1688.9 483.834 1688.9 480.9 1688.9C478.034 1688.9 475.367 1688.9 472.9 1688.9C470.5 1688.9 468.467 1688.9 466.8 1688.9C463.934 1688.9 461 1688.97 458 1689.1C455 1689.17 452.567 1689.27 450.7 1689.4V1673.7Z" fill="black"/>
<path d="M416.3 1675.8C416.3 1682 415.834 1687.63 414.9 1692.7C414.034 1697.7 412.5 1702.27 410.3 1706.4C408.1 1710.47 405.034 1714.13 401.1 1717.4C397.167 1720.67 392.2 1723.63 386.2 1726.3L375.5 1716.2C380.3 1714.53 384.434 1712.67 387.9 1710.6C391.434 1708.53 394.334 1706 396.6 1703C398.867 1699.93 400.534 1696.27 401.6 1692C402.734 1687.67 403.3 1682.43 403.3 1676.3V1649.7C403.3 1647.63 403.234 1645.83 403.1 1644.3C402.967 1642.7 402.834 1641.4 402.7 1640.4H417C416.867 1641.4 416.7 1642.7 416.5 1644.3C416.367 1645.83 416.3 1647.63 416.3 1649.7V1675.8ZM380.2 1641.3C380.067 1642.23 379.934 1643.5 379.8 1645.1C379.667 1646.63 379.6 1648.37 379.6 1650.3V1686.1C379.6 1687.57 379.634 1689 379.7 1690.4C379.767 1691.73 379.8 1692.93 379.8 1694C379.867 1695 379.934 1695.87 380 1696.6H366C366.134 1695.87 366.234 1695 366.3 1694C366.367 1692.93 366.434 1691.73 366.5 1690.4C366.567 1689 366.6 1687.57 366.6 1686.1V1650.3C366.6 1648.83 366.534 1647.33 366.4 1645.8C366.334 1644.27 366.2 1642.77 366 1641.3H380.2ZM347.2 1659.3C347.867 1659.37 348.734 1659.5 349.8 1659.7C350.867 1659.83 352.1 1659.97 353.5 1660.1C354.9 1660.17 356.434 1660.2 358.1 1660.2H423.7C426.367 1660.2 428.534 1660.13 430.2 1660C431.867 1659.87 433.367 1659.7 434.7 1659.5V1672.8C433.634 1672.67 432.2 1672.6 430.4 1672.6C428.6 1672.53 426.367 1672.5 423.7 1672.5H358.1C356.434 1672.5 354.9 1672.53 353.5 1672.6C352.167 1672.6 350.967 1672.63 349.9 1672.7C348.9 1672.77 348 1672.83 347.2 1672.9V1659.3Z" fill="black"/>
<path d="M754.691 1527.8C754.158 1528.74 753.591 1529.87 752.991 1531.2C752.391 1532.47 751.858 1533.74 751.391 1535C750.524 1537.94 749.291 1541.3 747.691 1545.1C746.158 1548.84 744.224 1552.74 741.891 1556.8C739.624 1560.8 736.991 1564.67 733.991 1568.4C729.191 1574.14 723.591 1579.34 717.191 1584C710.858 1588.67 702.991 1592.87 693.591 1596.6L681.791 1586C688.591 1584 694.458 1581.7 699.391 1579.1C704.324 1576.5 708.624 1573.74 712.291 1570.8C715.958 1567.8 719.224 1564.64 722.091 1561.3C724.424 1558.7 726.558 1555.77 728.491 1552.5C730.424 1549.17 732.091 1545.87 733.491 1542.6C734.891 1539.34 735.824 1536.47 736.291 1534H702.591L707.191 1522.7C708.124 1522.7 709.558 1522.7 711.491 1522.7C713.491 1522.7 715.724 1522.7 718.191 1522.7C720.724 1522.7 723.191 1522.7 725.591 1522.7C728.058 1522.7 730.191 1522.7 731.991 1522.7C733.858 1522.7 735.124 1522.7 735.791 1522.7C737.324 1522.7 738.858 1522.6 740.391 1522.4C741.991 1522.2 743.358 1521.9 744.491 1521.5L754.691 1527.8ZM722.091 1512C720.891 1513.74 719.724 1515.6 718.591 1517.6C717.458 1519.6 716.591 1521.14 715.991 1522.2C713.724 1526.2 710.924 1530.37 707.591 1534.7C704.324 1538.97 700.591 1543.14 696.391 1547.2C692.191 1551.2 687.724 1554.87 682.991 1558.2L671.691 1549.9C676.091 1547.17 679.958 1544.37 683.291 1541.5C686.691 1538.64 689.624 1535.8 692.091 1533C694.558 1530.14 696.658 1527.4 698.391 1524.8C700.191 1522.14 701.724 1519.77 702.991 1517.7C703.791 1516.44 704.624 1514.8 705.491 1512.8C706.358 1510.74 707.024 1508.87 707.491 1507.2L722.091 1512Z" fill="black"/>
<path d="M588.891 1514C590.624 1515.2 592.658 1516.67 594.991 1518.4C597.324 1520.13 599.724 1522.03 602.191 1524.1C604.724 1526.1 607.091 1528.07 609.291 1530C611.491 1531.93 613.291 1533.67 614.691 1535.2L604.491 1545.6C603.224 1544.2 601.558 1542.53 599.491 1540.6C597.424 1538.67 595.191 1536.67 592.791 1534.6C590.391 1532.53 588.024 1530.57 585.691 1528.7C583.358 1526.83 581.291 1525.27 579.491 1524L588.891 1514ZM576.391 1580.6C581.591 1579.87 586.491 1578.83 591.091 1577.5C595.691 1576.17 599.958 1574.63 603.891 1572.9C607.824 1571.17 611.424 1569.37 614.691 1567.5C620.358 1564.1 625.558 1560.23 630.291 1555.9C635.024 1551.57 639.158 1547.07 642.691 1542.4C646.224 1537.67 649.024 1533.07 651.091 1528.6L658.891 1542.7C656.358 1547.17 653.224 1551.63 649.491 1556.1C645.824 1560.57 641.658 1564.83 636.991 1568.9C632.324 1572.9 627.291 1576.5 621.891 1579.7C618.491 1581.77 614.824 1583.73 610.891 1585.6C606.958 1587.4 602.791 1589 598.391 1590.4C594.058 1591.87 589.524 1593 584.791 1593.8L576.391 1580.6Z" fill="black"/>
<path d="M545.091 1512.4C545.024 1513.8 544.924 1515.33 544.791 1517C544.724 1518.6 544.691 1520.4 544.691 1522.4C544.691 1524.13 544.691 1526.23 544.691 1528.7C544.691 1531.17 544.691 1533.63 544.691 1536.1C544.691 1538.5 544.691 1540.53 544.691 1542.2C544.691 1547.53 544.424 1552.2 543.891 1556.2C543.424 1560.2 542.691 1563.7 541.691 1566.7C540.691 1569.7 539.458 1572.37 537.991 1574.7C536.591 1576.97 534.958 1579.13 533.091 1581.2C530.891 1583.6 528.358 1585.77 525.491 1587.7C522.624 1589.57 519.724 1591.13 516.791 1592.4C513.924 1593.73 511.258 1594.8 508.791 1595.6L498.291 1584.6C503.291 1583.47 507.791 1581.9 511.791 1579.9C515.858 1577.83 519.391 1575.2 522.391 1572C524.124 1570.07 525.524 1568.13 526.591 1566.2C527.658 1564.27 528.458 1562.13 528.991 1559.8C529.591 1557.4 529.991 1554.7 530.191 1551.7C530.458 1548.7 530.591 1545.27 530.591 1541.4C530.591 1539.67 530.591 1537.6 530.591 1535.2C530.591 1532.8 530.591 1530.43 530.591 1528.1C530.591 1525.77 530.591 1523.87 530.591 1522.4C530.591 1520.4 530.524 1518.6 530.391 1517C530.324 1515.33 530.191 1513.8 529.991 1512.4H545.091ZM498.691 1513.2C498.624 1514.4 498.558 1515.6 498.491 1516.8C498.424 1517.93 498.391 1519.3 498.391 1520.9C498.391 1521.63 498.391 1522.83 498.391 1524.5C498.391 1526.17 498.391 1528.13 498.391 1530.4C498.391 1532.6 498.391 1534.93 498.391 1537.4C498.391 1539.8 498.391 1542.13 498.391 1544.4C498.391 1546.67 498.391 1548.73 498.391 1550.6C498.391 1552.4 498.391 1553.77 498.391 1554.7C498.391 1555.97 498.424 1557.43 498.491 1559.1C498.558 1560.77 498.624 1562.2 498.691 1563.4H484.191C484.258 1562.47 484.358 1561.13 484.491 1559.4C484.624 1557.67 484.691 1556.07 484.691 1554.6C484.691 1553.67 484.691 1552.3 484.691 1550.5C484.691 1548.7 484.691 1546.67 484.691 1544.4C484.691 1542.07 484.691 1539.7 484.691 1537.3C484.691 1534.83 484.691 1532.5 484.691 1530.3C484.691 1528.1 484.691 1526.17 484.691 1524.5C484.691 1522.83 484.691 1521.63 484.691 1520.9C484.691 1519.97 484.658 1518.77 484.591 1517.3C484.524 1515.77 484.424 1514.4 484.291 1513.2H498.691Z" fill="black"/>
<path d="M432.991 1515.6C433.924 1516.93 434.957 1518.5 436.091 1520.3C437.224 1522.1 438.291 1523.9 439.291 1525.7C440.357 1527.5 441.291 1529.17 442.091 1530.7L433.391 1534.6C432.457 1532.47 431.524 1530.57 430.591 1528.9C429.724 1527.23 428.824 1525.63 427.891 1524.1C426.957 1522.5 425.857 1520.83 424.591 1519.1L432.991 1515.6ZM446.091 1510.1C447.091 1511.43 448.157 1512.97 449.291 1514.7C450.491 1516.43 451.624 1518.2 452.691 1520C453.824 1521.73 454.757 1523.37 455.491 1524.9L447.091 1529C446.024 1526.87 444.991 1525 443.991 1523.4C443.057 1521.73 442.091 1520.17 441.091 1518.7C440.157 1517.17 439.057 1515.6 437.791 1514L446.091 1510.1ZM393.091 1581.9C393.091 1580.57 393.091 1578.47 393.091 1575.6C393.091 1572.67 393.091 1569.3 393.091 1565.5C393.091 1561.63 393.091 1557.63 393.091 1553.5C393.091 1549.3 393.091 1545.27 393.091 1541.4C393.091 1537.47 393.091 1534 393.091 1531C393.091 1528 393.091 1525.8 393.091 1524.4C393.091 1522.6 392.991 1520.57 392.791 1518.3C392.657 1516.03 392.424 1514.03 392.091 1512.3H407.691C407.491 1514.03 407.291 1515.97 407.091 1518.1C406.891 1520.23 406.791 1522.33 406.791 1524.4C406.791 1526.2 406.791 1528.7 406.791 1531.9C406.791 1535.1 406.791 1538.67 406.791 1542.6C406.791 1546.47 406.791 1550.43 406.791 1554.5C406.791 1558.57 406.791 1562.47 406.791 1566.2C406.791 1569.87 406.791 1573.1 406.791 1575.9C406.791 1578.63 406.791 1580.63 406.791 1581.9C406.791 1582.77 406.824 1584.07 406.891 1585.8C407.024 1587.47 407.157 1589.2 407.291 1591C407.491 1592.8 407.657 1594.4 407.791 1595.8H392.091C392.424 1593.87 392.657 1591.57 392.791 1588.9C392.991 1586.17 393.091 1583.83 393.091 1581.9ZM403.891 1538.2C407.224 1539.07 410.924 1540.2 414.991 1541.6C419.124 1542.93 423.291 1544.4 427.491 1546C431.691 1547.53 435.657 1549.07 439.391 1550.6C443.124 1552.07 446.191 1553.4 448.591 1554.6L442.991 1568.5C440.124 1566.97 436.991 1565.47 433.591 1564C430.191 1562.53 426.724 1561.1 423.191 1559.7C419.724 1558.23 416.324 1556.9 412.991 1555.7C409.657 1554.5 406.624 1553.47 403.891 1552.6V1538.2Z" fill="black"/>
<path d="M348.609 1510C349.309 1510 349.809 1510.5 349.809 1511.2V1588.7C349.809 1589.4 349.309 1590 348.609 1590H340.609C339.909 1590 339.409 1589.4 339.409 1588.7V1520.2H326.909C325.809 1520.2 325.309 1519.1 325.809 1518.4L330.809 1510.5C331.009 1510.2 331.409 1510 331.809 1510H348.609Z" fill="black"/>
<path d="M758.504 1366.45C759.976 1366.64 761.624 1366.78 763.448 1366.88C765.304 1366.94 767.176 1366.98 769.064 1366.98C770.984 1366.94 772.824 1366.88 774.584 1366.78C776.344 1366.66 777.864 1366.53 779.144 1366.4V1372.59C777.672 1372.72 776.056 1372.83 774.296 1372.93C772.536 1372.99 770.728 1373.02 768.872 1373.02C767.016 1373.02 765.192 1372.99 763.4 1372.93C761.64 1372.83 760.008 1372.72 758.504 1372.59V1366.45ZM762.344 1386.94C762.152 1387.74 762.008 1388.46 761.912 1389.1C761.816 1389.71 761.768 1390.34 761.768 1390.98C761.768 1391.49 761.896 1391.97 762.152 1392.42C762.408 1392.83 762.792 1393.2 763.304 1393.52C763.848 1393.81 764.536 1394.03 765.368 1394.19C766.232 1394.32 767.272 1394.38 768.488 1394.38C770.632 1394.38 772.648 1394.29 774.536 1394.1C776.424 1393.87 778.424 1393.55 780.536 1393.14L780.632 1399.62C779.096 1399.9 777.32 1400.13 775.304 1400.29C773.32 1400.45 770.968 1400.53 768.248 1400.53C764.12 1400.53 761.048 1399.84 759.032 1398.46C757.016 1397.06 756.008 1395.12 756.008 1392.66C756.008 1391.73 756.072 1390.77 756.2 1389.78C756.36 1388.75 756.568 1387.63 756.824 1386.42L762.344 1386.94ZM751.112 1363.23C750.984 1363.55 750.84 1364 750.68 1364.58C750.52 1365.15 750.36 1365.71 750.2 1366.26C750.072 1366.8 749.976 1367.22 749.912 1367.5C749.816 1368.18 749.656 1369.06 749.432 1370.14C749.24 1371.2 749.032 1372.4 748.808 1373.74C748.616 1375.06 748.424 1376.4 748.232 1377.78C748.04 1379.15 747.88 1380.48 747.752 1381.76C747.656 1383.04 747.608 1384.16 747.608 1385.12C747.608 1385.57 747.608 1386.08 747.608 1386.66C747.64 1387.23 747.704 1387.76 747.8 1388.24C748.024 1387.7 748.264 1387.15 748.52 1386.61C748.776 1386.06 749.032 1385.52 749.288 1384.98C749.544 1384.4 749.768 1383.86 749.96 1383.34L752.936 1385.7C752.488 1387.01 752.024 1388.42 751.544 1389.92C751.096 1391.42 750.68 1392.85 750.296 1394.19C749.944 1395.5 749.672 1396.59 749.48 1397.46C749.416 1397.81 749.352 1398.21 749.288 1398.66C749.256 1399.1 749.24 1399.46 749.24 1399.71C749.24 1399.97 749.24 1400.27 749.24 1400.62C749.272 1401.01 749.304 1401.36 749.336 1401.68L743.768 1402.06C743.288 1400.4 742.856 1398.19 742.472 1395.44C742.088 1392.66 741.896 1389.63 741.896 1386.37C741.896 1384.58 741.976 1382.75 742.136 1380.9C742.296 1379.04 742.488 1377.26 742.712 1375.57C742.936 1373.84 743.144 1372.27 743.336 1370.86C743.56 1369.46 743.752 1368.29 743.912 1367.36C743.976 1366.69 744.056 1365.94 744.152 1365.1C744.28 1364.24 744.36 1363.42 744.392 1362.66L751.112 1363.23Z" fill="black"/>
<path d="M691.256 1366.93H734.792V1372.4H691.256V1366.93ZM707.288 1378.69H725.672V1384.11H707.288V1378.69ZM723.512 1378.69H729.464C729.464 1378.69 729.448 1378.85 729.416 1379.17C729.416 1379.46 729.416 1379.79 729.416 1380.18C729.416 1380.56 729.384 1380.9 729.32 1381.18C729.032 1385.57 728.712 1389.15 728.36 1391.94C728.008 1394.72 727.608 1396.9 727.16 1398.46C726.712 1400 726.168 1401.12 725.528 1401.82C724.792 1402.62 724.024 1403.17 723.224 1403.46C722.424 1403.74 721.464 1403.95 720.344 1404.08C719.416 1404.18 718.2 1404.21 716.696 1404.18C715.192 1404.18 713.64 1404.14 712.04 1404.08C712.008 1403.25 711.8 1402.29 711.416 1401.2C711.032 1400.14 710.552 1399.22 709.976 1398.42C711.64 1398.58 713.24 1398.67 714.776 1398.7C716.312 1398.74 717.416 1398.75 718.088 1398.75C718.632 1398.75 719.08 1398.72 719.432 1398.66C719.816 1398.56 720.152 1398.38 720.44 1398.13C720.952 1397.71 721.384 1396.8 721.736 1395.39C722.12 1393.98 722.456 1391.98 722.744 1389.39C723.032 1386.8 723.288 1383.52 723.512 1379.55V1378.69ZM705.128 1370.19H711.56C711.432 1372.75 711.224 1375.34 710.936 1377.97C710.68 1380.56 710.232 1383.14 709.592 1385.7C708.952 1388.22 708.024 1390.64 706.808 1392.94C705.592 1395.25 703.992 1397.39 702.008 1399.38C700.024 1401.36 697.512 1403.12 694.472 1404.66C694.056 1403.86 693.448 1402.99 692.648 1402.06C691.88 1401.14 691.128 1400.37 690.392 1399.76C693.176 1398.48 695.448 1396.99 697.208 1395.3C699 1393.57 700.408 1391.71 701.432 1389.73C702.456 1387.71 703.208 1385.62 703.688 1383.44C704.2 1381.26 704.536 1379.06 704.696 1376.82C704.888 1374.58 705.032 1372.37 705.128 1370.19ZM709.736 1359.01H715.736V1369.09H709.736V1359.01Z" fill="black"/>
<path d="M669.368 1367.12C669.048 1369.55 668.632 1372.14 668.12 1374.89C667.608 1377.65 666.92 1380.43 666.056 1383.25C665.128 1386.48 664.04 1389.26 662.792 1391.6C661.544 1393.93 660.168 1395.74 658.664 1397.02C657.192 1398.27 655.576 1398.89 653.816 1398.89C652.056 1398.89 650.424 1398.3 648.92 1397.12C647.448 1395.9 646.264 1394.24 645.368 1392.13C644.504 1390.01 644.072 1387.61 644.072 1384.93C644.072 1382.14 644.632 1379.52 645.752 1377.05C646.872 1374.59 648.424 1372.41 650.408 1370.53C652.424 1368.61 654.76 1367.1 657.416 1366.01C660.104 1364.93 663 1364.38 666.104 1364.38C669.08 1364.38 671.752 1364.86 674.12 1365.82C676.52 1366.78 678.568 1368.11 680.264 1369.81C681.96 1371.5 683.256 1373.49 684.152 1375.76C685.048 1378.03 685.496 1380.48 685.496 1383.1C685.496 1386.46 684.808 1389.47 683.432 1392.13C682.056 1394.78 680.008 1396.97 677.288 1398.7C674.6 1400.43 671.24 1401.61 667.208 1402.25L663.608 1396.54C664.536 1396.45 665.352 1396.33 666.056 1396.21C666.76 1396.08 667.432 1395.93 668.072 1395.77C669.608 1395.39 671.032 1394.85 672.344 1394.14C673.688 1393.41 674.856 1392.51 675.848 1391.45C676.84 1390.37 677.608 1389.1 678.152 1387.66C678.728 1386.22 679.016 1384.64 679.016 1382.91C679.016 1381.02 678.728 1379.29 678.152 1377.73C677.576 1376.16 676.728 1374.8 675.608 1373.65C674.488 1372.46 673.128 1371.57 671.528 1370.96C669.928 1370.32 668.088 1370 666.008 1370C663.448 1370 661.192 1370.46 659.24 1371.39C657.288 1372.29 655.64 1373.45 654.296 1374.89C652.952 1376.33 651.928 1377.89 651.224 1379.55C650.552 1381.21 650.216 1382.8 650.216 1384.3C650.216 1385.9 650.408 1387.25 650.792 1388.33C651.176 1389.39 651.64 1390.19 652.184 1390.73C652.76 1391.25 653.368 1391.5 654.008 1391.5C654.68 1391.5 655.336 1391.17 655.976 1390.49C656.648 1389.79 657.304 1388.73 657.944 1387.33C658.584 1385.92 659.224 1384.14 659.864 1382C660.6 1379.69 661.224 1377.23 661.736 1374.61C662.248 1371.98 662.616 1369.42 662.84 1366.93L669.368 1367.12Z" fill="black"/>
<path d="M626.216 1369.91L632.36 1371.73C630.344 1377.49 627.736 1382.48 624.536 1386.71C621.336 1390.93 617.528 1394.5 613.112 1397.41C608.728 1400.29 603.656 1402.64 597.896 1404.47C597.704 1403.96 597.384 1403.35 596.936 1402.64C596.488 1401.94 596.024 1401.24 595.544 1400.53C595.096 1399.86 594.664 1399.3 594.248 1398.85C599.784 1397.38 604.632 1395.38 608.792 1392.85C612.952 1390.32 616.472 1387.19 619.352 1383.44C622.232 1379.67 624.52 1375.16 626.216 1369.91ZM607.64 1370.29C609.272 1375.06 611.528 1379.33 614.408 1383.11C617.288 1386.88 620.84 1390.08 625.064 1392.71C629.32 1395.33 634.28 1397.28 639.944 1398.56C639.496 1399.01 639 1399.59 638.456 1400.29C637.944 1401 637.448 1401.7 636.968 1402.4C636.488 1403.14 636.104 1403.78 635.816 1404.32C629.832 1402.79 624.68 1400.55 620.36 1397.6C616.04 1394.63 612.376 1391.01 609.368 1386.76C606.392 1382.5 603.896 1377.59 601.88 1372.02L607.64 1370.29ZM595.112 1366.84H639.08V1372.45H595.112V1366.84ZM614.024 1359.2H619.928V1370.24H614.024V1359.2Z" fill="black"/>
<path d="M567.08 1363.57L570.824 1359.1C572.136 1359.71 573.512 1360.43 574.952 1361.26C576.424 1362.09 577.8 1362.94 579.08 1363.81C580.392 1364.67 581.464 1365.5 582.296 1366.3L578.12 1371.29C577.384 1370.46 576.392 1369.58 575.144 1368.65C573.928 1367.73 572.6 1366.81 571.16 1365.92C569.752 1365.02 568.392 1364.24 567.08 1363.57ZM563.864 1383.05H588.824V1388.53H563.864V1383.05ZM560.456 1397.26H591.608V1402.73H560.456V1397.26ZM562.184 1369.66H590.6V1375.13H562.184V1369.66ZM573.128 1371.49H579.128V1399.71H573.128V1371.49ZM549.512 1363.66L552.632 1359.44C553.688 1359.79 554.792 1360.25 555.944 1360.83C557.096 1361.37 558.2 1361.97 559.256 1362.61C560.312 1363.21 561.176 1363.81 561.848 1364.38L558.44 1369.09C557.832 1368.48 557.016 1367.85 555.992 1367.21C555 1366.54 553.928 1365.9 552.776 1365.29C551.656 1364.65 550.568 1364.11 549.512 1363.66ZM546.296 1376.77L549.272 1372.4C550.328 1372.75 551.448 1373.18 552.632 1373.69C553.816 1374.17 554.936 1374.72 555.992 1375.33C557.08 1375.9 557.976 1376.45 558.68 1376.96L555.464 1381.81C554.856 1381.23 554.024 1380.64 552.968 1380.03C551.912 1379.42 550.808 1378.83 549.656 1378.25C548.504 1377.65 547.384 1377.15 546.296 1376.77ZM548.36 1399.85C549.224 1398.64 550.184 1397.21 551.24 1395.58C552.296 1393.92 553.368 1392.16 554.456 1390.3C555.544 1388.41 556.552 1386.54 557.48 1384.69L561.704 1388.53C560.872 1390.19 559.976 1391.9 559.016 1393.66C558.088 1395.42 557.128 1397.15 556.136 1398.85C555.176 1400.54 554.216 1402.17 553.256 1403.74L548.36 1399.85Z" fill="black"/>
<path d="M506.408 1365.58C508.168 1365.8 510.152 1365.96 512.36 1366.06C514.568 1366.16 516.936 1366.2 519.464 1366.2C521.064 1366.2 522.696 1366.17 524.36 1366.11C526.024 1366.04 527.64 1365.96 529.208 1365.87C530.776 1365.74 532.168 1365.63 533.384 1365.53V1371.92C532.264 1371.98 530.904 1372.06 529.304 1372.16C527.736 1372.25 526.088 1372.33 524.36 1372.4C522.664 1372.46 521.048 1372.49 519.512 1372.49C517.016 1372.49 514.696 1372.44 512.552 1372.35C510.408 1372.22 508.36 1372.09 506.408 1371.96V1365.58ZM510.44 1385.93C510.216 1386.76 510.024 1387.58 509.864 1388.38C509.704 1389.18 509.624 1389.98 509.624 1390.78C509.624 1392.35 510.392 1393.63 511.928 1394.62C513.496 1395.58 516.008 1396.06 519.464 1396.06C521.64 1396.06 523.736 1395.98 525.752 1395.82C527.8 1395.66 529.72 1395.45 531.512 1395.2C533.304 1394.91 534.904 1394.57 536.312 1394.19L536.36 1400.91C534.984 1401.23 533.416 1401.52 531.656 1401.77C529.928 1402.03 528.056 1402.22 526.04 1402.35C524.056 1402.51 521.944 1402.59 519.704 1402.59C516.024 1402.59 512.968 1402.17 510.536 1401.34C508.104 1400.54 506.264 1399.39 505.016 1397.88C503.8 1396.35 503.192 1394.48 503.192 1392.27C503.192 1390.89 503.304 1389.63 503.528 1388.48C503.752 1387.29 503.944 1386.25 504.104 1385.36L510.44 1385.93ZM534.632 1360.64C535.048 1361.21 535.48 1361.9 535.928 1362.7C536.408 1363.5 536.872 1364.3 537.32 1365.1C537.768 1365.9 538.152 1366.6 538.472 1367.21L534.584 1368.89C534.104 1367.9 533.512 1366.76 532.808 1365.48C532.136 1364.2 531.48 1363.1 530.84 1362.17L534.632 1360.64ZM540.344 1358.48C540.76 1359.08 541.208 1359.79 541.688 1360.59C542.168 1361.39 542.632 1362.19 543.08 1362.99C543.56 1363.76 543.944 1364.43 544.232 1365L540.392 1366.64C539.88 1365.64 539.272 1364.52 538.568 1363.28C537.864 1362 537.176 1360.91 536.504 1360.01L540.344 1358.48Z" fill="black"/>
<path d="M472.328 1361.5C472.168 1362.37 471.912 1363.49 471.56 1364.86C471.208 1366.24 470.696 1367.79 470.024 1369.52C469.512 1370.7 468.92 1371.94 468.248 1373.22C467.608 1374.46 466.952 1375.58 466.28 1376.58C466.696 1376.38 467.224 1376.22 467.864 1376.1C468.504 1375.94 469.16 1375.82 469.832 1375.76C470.536 1375.66 471.16 1375.62 471.704 1375.62C473.72 1375.62 475.384 1376.19 476.696 1377.34C478.04 1378.5 478.712 1380.21 478.712 1382.48C478.712 1383.12 478.712 1383.9 478.712 1384.83C478.744 1385.76 478.776 1386.74 478.808 1387.76C478.84 1388.75 478.872 1389.73 478.904 1390.69C478.936 1391.65 478.952 1392.51 478.952 1393.28H473.192C473.256 1392.74 473.288 1392.1 473.288 1391.36C473.32 1390.59 473.336 1389.79 473.336 1388.96C473.368 1388.13 473.384 1387.33 473.384 1386.56C473.416 1385.76 473.432 1385.04 473.432 1384.4C473.432 1382.86 473.016 1381.81 472.184 1381.23C471.384 1380.62 470.488 1380.32 469.496 1380.32C468.152 1380.32 466.792 1380.66 465.416 1381.33C464.072 1381.97 462.936 1382.74 462.008 1383.63C461.304 1384.34 460.584 1385.12 459.848 1385.98C459.144 1386.85 458.376 1387.82 457.544 1388.91L452.408 1385.07C454.488 1383.15 456.28 1381.3 457.784 1379.5C459.32 1377.71 460.616 1375.94 461.672 1374.18C462.728 1372.42 463.592 1370.66 464.264 1368.9C464.744 1367.62 465.128 1366.29 465.416 1364.91C465.736 1363.5 465.928 1362.19 465.992 1360.98L472.328 1361.5ZM454.28 1365.92C455.496 1366.11 456.904 1366.26 458.504 1366.35C460.104 1366.45 461.512 1366.5 462.728 1366.5C464.84 1366.5 467.144 1366.45 469.64 1366.35C472.168 1366.26 474.728 1366.1 477.32 1365.87C479.912 1365.62 482.376 1365.3 484.712 1364.91L484.664 1370.48C482.968 1370.7 481.128 1370.91 479.144 1371.1C477.192 1371.26 475.192 1371.41 473.144 1371.54C471.128 1371.63 469.192 1371.71 467.336 1371.78C465.48 1371.81 463.832 1371.82 462.392 1371.82C461.752 1371.82 460.952 1371.82 459.992 1371.82C459.064 1371.79 458.104 1371.76 457.112 1371.73C456.12 1371.66 455.176 1371.6 454.28 1371.54V1365.92ZM492.296 1379.55C491.784 1379.71 491.176 1379.92 490.472 1380.18C489.8 1380.4 489.112 1380.64 488.408 1380.9C487.736 1381.12 487.128 1381.34 486.584 1381.57C485.048 1382.18 483.224 1382.91 481.112 1383.78C479.032 1384.64 476.856 1385.65 474.584 1386.8C473.144 1387.57 471.928 1388.32 470.936 1389.06C469.944 1389.79 469.192 1390.54 468.68 1391.31C468.168 1392.05 467.912 1392.86 467.912 1393.76C467.912 1394.43 468.056 1394.99 468.344 1395.44C468.632 1395.86 469.064 1396.19 469.64 1396.45C470.216 1396.7 470.936 1396.88 471.8 1396.98C472.664 1397.07 473.688 1397.12 474.872 1397.12C476.92 1397.12 479.176 1397.01 481.64 1396.78C484.104 1396.53 486.392 1396.19 488.504 1395.78L488.312 1401.97C487.288 1402.1 485.992 1402.22 484.424 1402.35C482.856 1402.51 481.224 1402.62 479.528 1402.69C477.864 1402.75 476.264 1402.78 474.728 1402.78C472.232 1402.78 469.992 1402.54 468.008 1402.06C466.024 1401.58 464.456 1400.77 463.304 1399.62C462.184 1398.43 461.624 1396.82 461.624 1394.77C461.624 1393.1 461.992 1391.6 462.728 1390.26C463.496 1388.91 464.504 1387.7 465.752 1386.61C467 1385.52 468.36 1384.54 469.832 1383.68C471.336 1382.78 472.808 1381.97 474.248 1381.23C475.72 1380.46 477.048 1379.81 478.232 1379.26C479.416 1378.72 480.52 1378.24 481.544 1377.82C482.6 1377.38 483.608 1376.93 484.568 1376.48C485.496 1376.06 486.392 1375.66 487.256 1375.28C488.12 1374.86 489 1374.43 489.896 1373.98L492.296 1379.55Z" fill="black"/>
<path d="M421.88 1359.2H427.736V1398.8C427.736 1400.21 427.544 1401.27 427.16 1401.97C426.776 1402.68 426.12 1403.24 425.192 1403.65C424.264 1404 423.112 1404.23 421.736 1404.32C420.392 1404.42 418.696 1404.47 416.648 1404.47C416.52 1403.8 416.264 1403.01 415.88 1402.12C415.496 1401.25 415.112 1400.52 414.728 1399.91C415.528 1399.94 416.328 1399.97 417.128 1400C417.928 1400 418.648 1400 419.288 1400C419.96 1400 420.424 1400 420.68 1400C421.128 1399.97 421.432 1399.88 421.592 1399.72C421.784 1399.56 421.88 1399.25 421.88 1398.8V1359.2ZM403.928 1362.37H446.168V1366.88H403.928V1362.37ZM414.344 1372.5V1374.76H435.512V1372.5H414.344ZM408.824 1368.85H441.416V1378.4H408.824V1368.85ZM407.672 1380.56H442.232V1399.33H436.376V1384.45H407.672V1380.56ZM402.824 1386.52H447.272V1390.88H402.824V1386.52ZM407.288 1393.09H439.544V1397.27H407.288V1393.09Z" fill="black"/>
<path d="M376.808 1364.14C375.432 1365.74 373.72 1367.36 371.672 1368.99C369.624 1370.62 367.384 1372.17 364.952 1373.65C362.52 1375.09 360.024 1376.37 357.464 1377.49C357.24 1377.04 356.936 1376.53 356.552 1375.95C356.168 1375.34 355.768 1374.77 355.352 1374.22C354.936 1373.65 354.52 1373.15 354.104 1372.73C356.76 1371.71 359.336 1370.45 361.832 1368.94C364.328 1367.44 366.6 1365.84 368.648 1364.14C370.696 1362.41 372.36 1360.72 373.64 1359.05H379.448C380.792 1360.59 382.264 1362.03 383.864 1363.37C385.496 1364.69 387.192 1365.9 388.952 1367.02C390.712 1368.14 392.52 1369.15 394.376 1370.05C396.264 1370.91 398.152 1371.65 400.04 1372.25C399.368 1372.96 398.712 1373.77 398.072 1374.7C397.432 1375.63 396.872 1376.51 396.392 1377.34C394.088 1376.35 391.704 1375.15 389.24 1373.74C386.776 1372.3 384.456 1370.75 382.28 1369.09C380.104 1367.42 378.28 1365.77 376.808 1364.14ZM366.248 1379.41H387.368V1383.53H366.248V1379.41ZM373.928 1368.75H379.88V1375.23H373.928V1368.75ZM357.656 1398.56C359.48 1398.4 361.528 1398.24 363.8 1398.08C366.104 1397.89 368.52 1397.69 371.048 1397.5C373.576 1397.28 376.088 1397.05 378.584 1396.83L378.68 1401.92C376.312 1402.14 373.912 1402.37 371.48 1402.59C369.08 1402.85 366.76 1403.07 364.52 1403.26C362.312 1403.49 360.28 1403.68 358.424 1403.84L357.656 1398.56ZM378.488 1388.91C380.216 1391.82 382.824 1394.14 386.312 1395.87C389.832 1397.57 394.088 1398.7 399.08 1399.28C398.696 1399.69 398.28 1400.19 397.832 1400.77C397.384 1401.37 396.968 1401.98 396.584 1402.59C396.2 1403.23 395.88 1403.81 395.624 1404.32C392.072 1403.74 388.904 1402.85 386.12 1401.63C383.336 1400.41 380.92 1398.88 378.872 1397.02C376.824 1395.13 375.08 1392.86 373.64 1390.21L378.488 1388.91ZM392.648 1387.9L396.824 1391.36C395.608 1392.19 394.312 1393.02 392.936 1393.85C391.56 1394.65 390.184 1395.41 388.808 1396.11C387.432 1396.78 386.136 1397.39 384.92 1397.93L381.512 1394.81C382.696 1394.24 383.96 1393.57 385.304 1392.8C386.648 1392 387.976 1391.18 389.288 1390.35C390.6 1389.49 391.72 1388.67 392.648 1387.9ZM366.248 1372.4H391.256V1390.64H366.248V1386.17H385.4V1376.91H366.248V1372.4ZM362.648 1372.4H368.36V1399.23L362.648 1399.81V1372.4Z" fill="black"/>
<path d="M325.928 1361.02C325.896 1361.28 325.848 1361.68 325.784 1362.22C325.72 1362.74 325.656 1363.26 325.592 1363.81C325.56 1364.32 325.528 1364.78 325.496 1365.2C325.432 1366.13 325.368 1367.15 325.304 1368.27C325.272 1369.36 325.24 1370.5 325.208 1371.68C325.176 1372.83 325.144 1374 325.112 1375.18C325.112 1376.37 325.112 1377.52 325.112 1378.64C325.112 1379.95 325.128 1381.41 325.16 1383.01C325.192 1384.58 325.224 1386.14 325.256 1387.71C325.32 1389.25 325.352 1390.66 325.352 1391.94C325.384 1393.22 325.4 1394.21 325.4 1394.91C325.4 1396.9 325.176 1398.43 324.728 1399.52C324.312 1400.61 323.704 1401.36 322.904 1401.78C322.104 1402.22 321.176 1402.45 320.12 1402.45C318.968 1402.45 317.736 1402.21 316.424 1401.73C315.112 1401.28 313.88 1400.64 312.728 1399.81C311.608 1398.98 310.68 1398.02 309.944 1396.93C309.24 1395.81 308.888 1394.61 308.888 1393.33C308.888 1391.79 309.464 1390.27 310.616 1388.77C311.8 1387.23 313.352 1385.82 315.272 1384.54C317.224 1383.26 319.32 1382.24 321.56 1381.47C323.704 1380.67 325.912 1380.1 328.184 1379.74C330.456 1379.36 332.504 1379.17 334.328 1379.17C336.792 1379.17 339.016 1379.58 341 1380.42C342.984 1381.22 344.568 1382.4 345.752 1383.97C346.936 1385.54 347.528 1387.42 347.528 1389.63C347.528 1391.49 347.176 1393.2 346.472 1394.77C345.768 1396.34 344.632 1397.7 343.064 1398.85C341.528 1399.97 339.48 1400.85 336.92 1401.49C335.832 1401.71 334.744 1401.87 333.656 1401.97C332.6 1402.1 331.592 1402.19 330.632 1402.26L328.424 1396.06C329.512 1396.06 330.552 1396.05 331.544 1396.02C332.568 1395.95 333.496 1395.86 334.328 1395.73C335.64 1395.47 336.824 1395.09 337.88 1394.58C338.936 1394.06 339.768 1393.39 340.376 1392.56C340.984 1391.73 341.288 1390.74 341.288 1389.58C341.288 1388.5 340.984 1387.57 340.376 1386.8C339.8 1386.03 338.984 1385.44 337.928 1385.02C336.872 1384.61 335.64 1384.4 334.232 1384.4C332.216 1384.4 330.168 1384.61 328.088 1385.02C326.04 1385.44 324.072 1386.02 322.184 1386.75C320.776 1387.3 319.512 1387.94 318.392 1388.67C317.272 1389.38 316.392 1390.11 315.752 1390.88C315.112 1391.65 314.792 1392.38 314.792 1393.09C314.792 1393.47 314.904 1393.84 315.128 1394.19C315.384 1394.51 315.704 1394.8 316.088 1395.06C316.472 1395.31 316.856 1395.52 317.24 1395.68C317.656 1395.81 318.008 1395.87 318.296 1395.87C318.744 1395.87 319.112 1395.74 319.4 1395.49C319.688 1395.2 319.832 1394.66 319.832 1393.86C319.832 1392.99 319.8 1391.76 319.736 1390.16C319.704 1388.53 319.656 1386.72 319.592 1384.74C319.56 1382.75 319.544 1380.78 319.544 1378.83C319.544 1377.49 319.544 1376.13 319.544 1374.75C319.576 1373.38 319.592 1372.06 319.592 1370.82C319.592 1369.57 319.592 1368.46 319.592 1367.5C319.624 1366.54 319.64 1365.79 319.64 1365.25C319.64 1364.9 319.624 1364.45 319.592 1363.9C319.56 1363.36 319.512 1362.82 319.448 1362.27C319.416 1361.7 319.368 1361.28 319.304 1361.02H325.928ZM339.608 1366.21C340.824 1366.78 342.184 1367.49 343.688 1368.32C345.224 1369.15 346.68 1369.98 348.056 1370.82C349.464 1371.62 350.584 1372.34 351.416 1372.98L348.536 1377.87C347.928 1377.36 347.128 1376.78 346.136 1376.14C345.176 1375.5 344.12 1374.85 342.968 1374.18C341.848 1373.5 340.76 1372.88 339.704 1372.3C338.648 1371.7 337.736 1371.22 336.968 1370.86L339.608 1366.21ZM310.184 1368.85C311.592 1369.01 312.824 1369.12 313.88 1369.18C314.968 1369.22 315.944 1369.23 316.808 1369.23C318.056 1369.23 319.432 1369.18 320.936 1369.09C322.44 1368.96 323.976 1368.8 325.544 1368.61C327.112 1368.38 328.632 1368.13 330.104 1367.84C331.608 1367.55 332.968 1367.23 334.184 1366.88L334.328 1372.83C332.984 1373.15 331.528 1373.44 329.96 1373.7C328.392 1373.92 326.808 1374.13 325.208 1374.32C323.64 1374.51 322.136 1374.66 320.696 1374.75C319.288 1374.85 318.056 1374.9 317 1374.9C315.4 1374.9 314.088 1374.88 313.064 1374.85C312.04 1374.82 311.112 1374.75 310.28 1374.66L310.184 1368.85Z" fill="black"/>
<path d="M932.16 1180.86C931.876 1181.29 931.45 1181.95 930.882 1182.85C930.361 1183.75 929.959 1184.58 929.675 1185.34C928.681 1187.56 927.45 1190.04 925.983 1192.79C924.563 1195.54 922.93 1198.3 921.084 1201.1C919.285 1203.84 917.368 1206.42 915.333 1208.84C912.682 1211.82 909.747 1214.78 906.529 1217.71C903.357 1220.6 899.997 1223.27 896.447 1225.73C892.944 1228.15 889.347 1230.23 885.655 1231.98L878.342 1224.31C882.176 1222.85 885.891 1221 889.489 1218.78C893.086 1216.55 896.423 1214.14 899.5 1211.53C902.576 1208.93 905.227 1206.4 907.452 1203.94C909.014 1202.14 910.481 1200.22 911.854 1198.19C913.274 1196.15 914.528 1194.14 915.617 1192.15C916.705 1190.12 917.51 1188.25 918.031 1186.54C917.557 1186.54 916.705 1186.54 915.475 1186.54C914.244 1186.54 912.8 1186.54 911.144 1186.54C909.534 1186.54 907.83 1186.54 906.032 1186.54C904.233 1186.54 902.505 1186.54 900.849 1186.54C899.239 1186.54 897.819 1186.54 896.589 1186.54C895.358 1186.54 894.482 1186.54 893.962 1186.54C892.968 1186.54 891.926 1186.59 890.838 1186.68C889.749 1186.73 888.708 1186.8 887.714 1186.9C886.767 1186.94 886.033 1186.99 885.513 1187.04V1176.96C886.223 1177 887.098 1177.08 888.14 1177.17C889.181 1177.26 890.222 1177.34 891.264 1177.38C892.352 1177.43 893.252 1177.45 893.962 1177.45C894.577 1177.45 895.547 1177.45 896.873 1177.45C898.198 1177.45 899.713 1177.45 901.417 1177.45C903.121 1177.45 904.872 1177.45 906.671 1177.45C908.517 1177.45 910.268 1177.45 911.925 1177.45C913.629 1177.45 915.096 1177.45 916.327 1177.45C917.557 1177.45 918.457 1177.45 919.025 1177.45C920.587 1177.45 922.007 1177.36 923.285 1177.17C924.61 1176.98 925.628 1176.77 926.338 1176.53L932.16 1180.86ZM916.256 1202.94C918.102 1204.41 920.066 1206.11 922.149 1208.06C924.231 1210 926.29 1212.01 928.326 1214.09C930.361 1216.17 932.231 1218.18 933.935 1220.13C935.686 1222.02 937.153 1223.68 938.337 1225.1L930.243 1232.12C928.491 1229.71 926.48 1227.2 924.208 1224.6C921.983 1221.99 919.616 1219.42 917.108 1216.86C914.646 1214.26 912.138 1211.79 909.582 1209.48L916.256 1202.94Z" fill="black"/>
<path d="M867.924 1184.84C867.545 1185.5 867.143 1186.3 866.717 1187.25C866.291 1188.15 865.913 1189.05 865.581 1189.95C864.966 1192.03 864.09 1194.42 862.954 1197.12C861.865 1199.77 860.493 1202.54 858.836 1205.43C857.227 1208.27 855.357 1211.01 853.227 1213.66C849.819 1217.73 845.843 1221.43 841.299 1224.74C836.802 1228.05 831.217 1231.03 824.543 1233.68L816.165 1226.16C820.993 1224.74 825.158 1223.11 828.661 1221.26C832.164 1219.41 835.217 1217.45 837.82 1215.37C840.423 1213.24 842.743 1210.99 844.778 1208.62C846.435 1206.78 847.949 1204.69 849.322 1202.37C850.695 1200.01 851.878 1197.66 852.872 1195.34C853.866 1193.03 854.529 1190.99 854.86 1189.24H830.933L834.199 1181.22C834.862 1181.22 835.879 1181.22 837.252 1181.22C838.672 1181.22 840.258 1181.22 842.009 1181.22C843.808 1181.22 845.559 1181.22 847.263 1181.22C849.015 1181.22 850.529 1181.22 851.807 1181.22C853.132 1181.22 854.032 1181.22 854.505 1181.22C855.594 1181.22 856.683 1181.14 857.771 1181C858.907 1180.86 859.877 1180.65 860.682 1180.36L867.924 1184.84ZM844.778 1173.62C843.926 1174.85 843.098 1176.17 842.293 1177.59C841.488 1179.01 840.873 1180.1 840.447 1180.86C838.838 1183.7 836.85 1186.66 834.483 1189.74C832.164 1192.77 829.513 1195.72 826.531 1198.61C823.549 1201.45 820.378 1204.05 817.017 1206.42L808.994 1200.53C812.118 1198.59 814.863 1196.6 817.23 1194.56C819.644 1192.53 821.727 1190.52 823.478 1188.53C825.229 1186.49 826.721 1184.55 827.951 1182.71C829.229 1180.81 830.318 1179.13 831.217 1177.67C831.785 1176.77 832.377 1175.61 832.992 1174.19C833.607 1172.72 834.081 1171.39 834.412 1170.21L844.778 1173.62Z" fill="black"/>
<path d="M768.95 1186.83C769.281 1187.59 769.707 1188.67 770.228 1190.09C770.796 1191.47 771.388 1192.96 772.003 1194.57C772.618 1196.13 773.163 1197.62 773.636 1199.04C774.109 1200.46 774.488 1201.57 774.772 1202.38L766.252 1205.36C766.063 1204.46 765.731 1203.32 765.258 1201.95C764.785 1200.58 764.264 1199.13 763.696 1197.62C763.128 1196.06 762.56 1194.57 761.992 1193.15C761.424 1191.73 760.927 1190.54 760.501 1189.6L768.95 1186.83ZM795.149 1192.01C794.77 1193.15 794.439 1194.12 794.155 1194.92C793.918 1195.73 793.682 1196.48 793.445 1197.19C792.546 1200.79 791.315 1204.39 789.753 1207.99C788.191 1211.54 786.203 1214.87 783.789 1218C780.476 1222.26 776.713 1225.88 772.5 1228.86C768.335 1231.79 764.169 1234.04 760.004 1235.61L752.549 1228.01C755.152 1227.3 757.898 1226.26 760.785 1224.88C763.672 1223.46 766.465 1221.76 769.163 1219.77C771.861 1217.78 774.18 1215.58 776.121 1213.17C777.73 1211.13 779.15 1208.81 780.381 1206.21C781.659 1203.56 782.7 1200.74 783.505 1197.76C784.357 1194.73 784.925 1191.75 785.209 1188.82L795.149 1192.01ZM752.478 1190.59C752.951 1191.49 753.472 1192.65 754.04 1194.07C754.655 1195.49 755.271 1196.98 755.886 1198.54C756.501 1200.11 757.093 1201.62 757.661 1203.09C758.276 1204.55 758.75 1205.79 759.081 1206.78L750.419 1210.05C750.135 1209.1 749.709 1207.87 749.141 1206.35C748.62 1204.84 748.029 1203.25 747.366 1201.6C746.703 1199.89 746.064 1198.33 745.449 1196.91C744.881 1195.49 744.384 1194.4 743.958 1193.64L752.478 1190.59Z" fill="black"/>
<path d="M684.034 1172.77C685.17 1173.43 686.472 1174.21 687.939 1175.11C689.406 1176.01 690.897 1176.93 692.412 1177.88C693.974 1178.82 695.418 1179.75 696.743 1180.65C698.116 1181.5 699.275 1182.26 700.222 1182.92L694.897 1190.8C693.95 1190.09 692.791 1189.28 691.418 1188.39C690.045 1187.49 688.625 1186.56 687.158 1185.62C685.691 1184.67 684.223 1183.77 682.756 1182.92C681.336 1182.02 680.034 1181.24 678.851 1180.58L684.034 1172.77ZM670.828 1223.18C673.526 1222.7 676.224 1222.13 678.922 1221.47C681.667 1220.76 684.389 1219.89 687.087 1218.84C689.832 1217.8 692.483 1216.6 695.039 1215.22C699.062 1212.95 702.802 1210.4 706.257 1207.56C709.76 1204.72 712.884 1201.69 715.629 1198.47C718.422 1195.25 720.765 1191.96 722.658 1188.6L728.125 1198.25C724.812 1203.18 720.717 1207.82 715.842 1212.17C711.014 1216.53 705.689 1220.38 699.867 1223.74C697.453 1225.12 694.802 1226.39 691.915 1227.58C689.075 1228.76 686.259 1229.78 683.466 1230.63C680.721 1231.53 678.283 1232.17 676.153 1232.55L670.828 1223.18ZM673.1 1188.95C674.283 1189.62 675.609 1190.4 677.076 1191.3C678.591 1192.15 680.105 1193.05 681.62 1193.99C683.135 1194.94 684.555 1195.84 685.88 1196.69C687.253 1197.54 688.389 1198.3 689.288 1198.96L684.105 1206.92C683.064 1206.21 681.88 1205.43 680.555 1204.57C679.23 1203.67 677.81 1202.75 676.295 1201.8C674.828 1200.81 673.36 1199.89 671.893 1199.04C670.473 1198.18 669.148 1197.45 667.917 1196.83L673.1 1188.95Z" fill="black"/>
<path d="M581.283 1201.38C587.673 1199.73 593.448 1197.81 598.607 1195.63C603.814 1193.41 608.382 1191.09 612.31 1188.67C614.772 1187.16 617.233 1185.43 619.694 1183.49C622.203 1181.5 624.546 1179.47 626.723 1177.39C628.948 1175.3 630.818 1173.32 632.332 1171.42L640 1178.73C637.823 1180.86 635.433 1183.02 632.829 1185.2C630.273 1187.37 627.599 1189.46 624.806 1191.44C622.014 1193.43 619.245 1195.25 616.499 1196.91C613.801 1198.47 610.772 1200.08 607.411 1201.74C604.098 1203.4 600.595 1204.96 596.903 1206.42C593.211 1207.89 589.496 1209.19 585.756 1210.33L581.283 1201.38ZM610.819 1193.22L620.901 1190.88V1222.83C620.901 1223.87 620.925 1225 620.972 1226.23C621.02 1227.46 621.091 1228.6 621.185 1229.64C621.28 1230.73 621.398 1231.56 621.54 1232.13H610.322C610.417 1231.56 610.488 1230.73 610.535 1229.64C610.63 1228.6 610.701 1227.46 610.748 1226.23C610.796 1225 610.819 1223.87 610.819 1222.83V1193.22Z" fill="black"/>
<path d="M561.262 1172.34C561.877 1173.2 562.516 1174.21 563.178 1175.4C563.888 1176.58 564.575 1177.76 565.237 1178.95C565.9 1180.13 566.445 1181.17 566.871 1182.07L561.19 1184.56C560.433 1183.09 559.558 1181.43 558.564 1179.59C557.57 1177.69 556.599 1176.06 555.652 1174.69L561.262 1172.34ZM569.639 1169.15C570.255 1170.05 570.918 1171.11 571.628 1172.34C572.385 1173.53 573.095 1174.71 573.758 1175.89C574.42 1177.03 574.965 1178 575.391 1178.8L569.711 1181.22C569.001 1179.75 568.101 1178.09 567.013 1176.25C565.971 1174.4 564.977 1172.82 564.031 1171.49L569.639 1169.15ZM519.513 1206.92C520.318 1204.93 521.075 1202.85 521.785 1200.67C522.543 1198.45 523.205 1196.18 523.773 1193.86C524.341 1191.49 524.838 1189.15 525.264 1186.83C525.738 1184.51 526.069 1182.21 526.259 1179.94L536.625 1182.07C536.435 1182.73 536.222 1183.51 535.986 1184.41C535.749 1185.31 535.536 1186.19 535.346 1187.04C535.157 1187.89 535.015 1188.6 534.921 1189.17C534.684 1190.4 534.353 1191.89 533.927 1193.64C533.501 1195.39 533.004 1197.26 532.436 1199.25C531.868 1201.19 531.276 1203.16 530.66 1205.15C530.092 1207.09 529.501 1208.88 528.885 1210.54C528.033 1212.81 527.016 1215.18 525.832 1217.64C524.696 1220.1 523.466 1222.47 522.141 1224.74C520.863 1227.01 519.608 1229.05 518.378 1230.85L508.438 1226.66C510.71 1223.72 512.816 1220.48 514.757 1216.93C516.745 1213.38 518.33 1210.04 519.513 1206.92ZM554.587 1205.43C553.877 1203.54 553.097 1201.52 552.245 1199.39C551.393 1197.26 550.493 1195.13 549.547 1193C548.6 1190.87 547.677 1188.86 546.777 1186.97C545.878 1185.08 545.05 1183.44 544.293 1182.07L553.736 1179.02C554.446 1180.39 555.274 1182.05 556.22 1183.99C557.167 1185.93 558.114 1187.99 559.061 1190.16C560.007 1192.29 560.93 1194.42 561.829 1196.55C562.729 1198.68 563.534 1200.6 564.243 1202.31C564.859 1203.87 565.522 1205.71 566.232 1207.84C566.989 1209.97 567.746 1212.2 568.504 1214.52C569.308 1216.79 570.042 1219.01 570.704 1221.19C571.414 1223.37 572.006 1225.33 572.479 1227.08L561.971 1230.49C561.356 1227.7 560.646 1224.86 559.841 1221.97C559.037 1219.09 558.185 1216.25 557.285 1213.45C556.433 1210.66 555.534 1207.99 554.587 1205.43Z" fill="black"/>
<path d="M427.2 1196.12C428.052 1196.17 429.14 1196.24 430.466 1196.34C431.791 1196.39 433.164 1196.43 434.584 1196.48C436.051 1196.53 437.4 1196.55 438.631 1196.55C439.814 1196.55 441.281 1196.55 443.033 1196.55C444.784 1196.55 446.677 1196.55 448.713 1196.55C450.795 1196.55 452.925 1196.55 455.103 1196.55C457.327 1196.55 459.528 1196.55 461.706 1196.55C463.883 1196.55 465.942 1196.55 467.883 1196.55C469.823 1196.55 471.551 1196.55 473.066 1196.55C474.628 1196.55 475.858 1196.55 476.758 1196.55C478.414 1196.55 479.976 1196.5 481.444 1196.41C482.911 1196.27 484.118 1196.17 485.065 1196.12V1207.27C484.26 1207.22 483.053 1207.15 481.444 1207.06C479.834 1206.96 478.272 1206.92 476.758 1206.92C475.858 1206.92 474.628 1206.92 473.066 1206.92C471.504 1206.92 469.752 1206.92 467.812 1206.92C465.871 1206.92 463.812 1206.92 461.635 1206.92C459.505 1206.92 457.327 1206.92 455.103 1206.92C452.878 1206.92 450.724 1206.92 448.642 1206.92C446.606 1206.92 444.713 1206.92 442.962 1206.92C441.258 1206.92 439.814 1206.92 438.631 1206.92C436.595 1206.92 434.513 1206.96 432.383 1207.06C430.253 1207.11 428.525 1207.18 427.2 1207.27V1196.12Z" fill="black"/>
<path d="M361.737 1180.79C363.015 1180.93 364.412 1181.05 365.926 1181.14C367.488 1181.19 368.861 1181.22 370.044 1181.22C371.038 1181.22 372.364 1181.22 374.02 1181.22C375.677 1181.22 377.499 1181.22 379.487 1181.22C381.475 1181.22 383.487 1181.22 385.522 1181.22C387.605 1181.22 389.569 1181.22 391.415 1181.22C393.309 1181.22 394.965 1181.22 396.385 1181.22C397.805 1181.22 398.823 1181.22 399.438 1181.22C400.858 1181.22 402.278 1181.17 403.698 1181.07C405.118 1180.98 406.325 1180.88 407.319 1180.79V1191.08C406.325 1191.04 405.071 1190.99 403.556 1190.94C402.042 1190.85 400.669 1190.8 399.438 1190.8C398.823 1190.8 397.758 1190.8 396.243 1190.8C394.776 1190.8 393.048 1190.8 391.06 1190.8C389.072 1190.8 386.99 1190.8 384.812 1190.8C382.682 1190.8 380.623 1190.8 378.635 1190.8C376.647 1190.8 374.896 1190.8 373.381 1190.8C371.867 1190.8 370.778 1190.8 370.115 1190.8C368.743 1190.8 367.299 1190.82 365.784 1190.87C364.27 1190.92 362.921 1190.99 361.737 1191.08V1180.79ZM355.773 1215.51C357.193 1215.6 358.661 1215.7 360.175 1215.79C361.737 1215.89 363.228 1215.93 364.648 1215.93C365.264 1215.93 366.4 1215.93 368.056 1215.93C369.713 1215.93 371.654 1215.93 373.878 1215.93C376.15 1215.93 378.588 1215.93 381.191 1215.93C383.795 1215.93 386.374 1215.93 388.93 1215.93C391.534 1215.93 393.948 1215.93 396.172 1215.93C398.444 1215.93 400.385 1215.93 401.994 1215.93C403.651 1215.93 404.787 1215.93 405.402 1215.93C406.633 1215.93 407.935 1215.91 409.307 1215.86C410.727 1215.77 412.029 1215.65 413.212 1215.51V1226.37C411.982 1226.23 410.633 1226.13 409.165 1226.09C407.698 1225.99 406.444 1225.95 405.402 1225.95C404.787 1225.95 403.651 1225.95 401.994 1225.95C400.385 1225.95 398.444 1225.95 396.172 1225.95C393.948 1225.95 391.534 1225.95 388.93 1225.95C386.374 1225.95 383.795 1225.95 381.191 1225.95C378.588 1225.95 376.15 1225.95 373.878 1225.95C371.654 1225.95 369.713 1225.95 368.056 1225.95C366.4 1225.95 365.264 1225.95 364.648 1225.95C363.228 1225.95 361.714 1225.99 360.104 1226.09C358.542 1226.13 357.099 1226.23 355.773 1226.37V1215.51Z" fill="black"/>
<path d="M289.815 1178.59C291.14 1178.74 292.631 1178.85 294.288 1178.95C295.944 1179 297.364 1179.02 298.548 1179.02H334.332C335.373 1179.02 336.509 1179.02 337.74 1179.02C339.018 1178.97 339.964 1178.93 340.58 1178.88C340.532 1179.68 340.485 1180.72 340.438 1182C340.39 1183.23 340.367 1184.37 340.367 1185.41V1222.19C340.367 1223.42 340.39 1224.86 340.438 1226.52C340.532 1228.18 340.603 1229.52 340.651 1230.57H330.356C330.403 1229.52 330.427 1228.39 330.427 1227.16C330.474 1225.88 330.498 1224.6 330.498 1223.32V1188.18H298.619C297.104 1188.18 295.495 1188.2 293.791 1188.25C292.134 1188.3 290.809 1188.37 289.815 1188.46V1178.59ZM288.892 1217.15C290.122 1217.24 291.495 1217.34 293.01 1217.43C294.572 1217.53 296.157 1217.57 297.767 1217.57H336.107V1226.87H298.051C296.678 1226.87 295.092 1226.92 293.294 1227.02C291.542 1227.11 290.075 1227.21 288.892 1227.3V1217.15Z" fill="black"/>
<path d="M244.767 1227.44C244.909 1226.73 245.027 1225.93 245.122 1225.03C245.264 1224.08 245.335 1223.13 245.335 1222.19C245.335 1221.67 245.335 1220.62 245.335 1219.06C245.335 1217.5 245.335 1215.61 245.335 1213.38C245.335 1211.16 245.335 1208.77 245.335 1206.21C245.335 1203.61 245.335 1200.98 245.335 1198.33C245.335 1195.68 245.335 1193.19 245.335 1190.88C245.335 1188.51 245.335 1186.45 245.335 1184.7C245.335 1182.9 245.335 1181.6 245.335 1180.79C245.335 1179.18 245.24 1177.79 245.051 1176.6C244.909 1175.42 244.814 1174.78 244.767 1174.69H255.346C255.299 1174.78 255.204 1175.44 255.062 1176.68C254.92 1177.86 254.849 1179.26 254.849 1180.86C254.849 1181.67 254.849 1182.88 254.849 1184.49C254.849 1186.05 254.849 1187.87 254.849 1189.95C254.849 1191.99 254.849 1194.17 254.849 1196.48C254.849 1198.8 254.849 1201.1 254.849 1203.37C254.849 1205.6 254.849 1207.73 254.849 1209.76C254.849 1211.75 254.849 1213.45 254.849 1214.87C254.849 1216.29 254.849 1217.33 254.849 1218C256.79 1217.15 258.801 1215.99 260.884 1214.52C262.967 1213.05 265.002 1211.35 266.99 1209.41C269.025 1207.42 270.824 1205.29 272.386 1203.02L277.853 1210.83C275.912 1213.38 273.546 1215.89 270.753 1218.35C268.008 1220.81 265.168 1223.06 262.233 1225.1C259.298 1227.13 256.482 1228.84 253.784 1230.21C253.027 1230.64 252.411 1231.01 251.938 1231.35C251.465 1231.72 251.062 1232.06 250.731 1232.34L244.767 1227.44ZM211.894 1226.38C215.018 1224.2 217.574 1221.57 219.562 1218.49C221.55 1215.42 223.017 1212.39 223.964 1209.41C224.485 1207.84 224.863 1205.93 225.1 1203.66C225.384 1201.34 225.597 1198.87 225.739 1196.27C225.881 1193.62 225.952 1191.02 225.952 1188.46C225.999 1185.86 226.023 1183.47 226.023 1181.29C226.023 1179.87 225.952 1178.66 225.81 1177.67C225.715 1176.63 225.573 1175.66 225.384 1174.76H235.821C235.774 1174.85 235.703 1175.26 235.608 1175.97C235.561 1176.63 235.49 1177.43 235.395 1178.38C235.348 1179.28 235.324 1180.23 235.324 1181.22C235.324 1183.3 235.3 1185.74 235.253 1188.53C235.206 1191.28 235.111 1194.09 234.969 1196.98C234.827 1199.87 234.614 1202.61 234.33 1205.22C234.046 1207.77 233.667 1209.95 233.194 1211.75C232.105 1215.77 230.472 1219.51 228.295 1222.97C226.165 1226.38 223.585 1229.43 220.556 1232.13L211.894 1226.38Z" fill="black"/>
<path d="M193.434 1172.34C194.05 1173.2 194.689 1174.21 195.351 1175.4C196.061 1176.58 196.748 1177.76 197.41 1178.95C198.073 1180.13 198.617 1181.17 199.043 1182.07L193.363 1184.56C192.606 1183.09 191.73 1181.43 190.736 1179.59C189.742 1177.69 188.772 1176.06 187.825 1174.69L193.434 1172.34ZM201.812 1169.15C202.428 1170.05 203.09 1171.11 203.8 1172.34C204.558 1173.53 205.268 1174.71 205.93 1175.89C206.593 1177.03 207.137 1178 207.563 1178.8L201.883 1181.22C201.173 1179.75 200.274 1178.09 199.185 1176.25C198.144 1174.4 197.15 1172.82 196.203 1171.49L201.812 1169.15ZM151.686 1206.92C152.491 1204.93 153.248 1202.85 153.958 1200.67C154.716 1198.45 155.378 1196.18 155.946 1193.86C156.514 1191.49 157.011 1189.15 157.437 1186.83C157.911 1184.51 158.242 1182.21 158.431 1179.94L168.797 1182.07C168.608 1182.73 168.395 1183.51 168.158 1184.41C167.922 1185.31 167.709 1186.19 167.519 1187.04C167.33 1187.89 167.188 1188.6 167.093 1189.17C166.857 1190.4 166.525 1191.89 166.099 1193.64C165.673 1195.39 165.176 1197.26 164.608 1199.25C164.04 1201.19 163.449 1203.16 162.833 1205.15C162.265 1207.09 161.674 1208.88 161.058 1210.54C160.206 1212.81 159.189 1215.18 158.005 1217.64C156.869 1220.1 155.639 1222.47 154.313 1224.74C153.035 1227.01 151.781 1229.05 150.55 1230.85L140.61 1226.66C142.882 1223.72 144.989 1220.48 146.929 1216.93C148.917 1213.38 150.503 1210.04 151.686 1206.92ZM186.76 1205.43C186.05 1203.54 185.269 1201.52 184.417 1199.39C183.565 1197.26 182.666 1195.13 181.719 1193C180.773 1190.87 179.85 1188.86 178.95 1186.97C178.051 1185.08 177.223 1183.44 176.465 1182.07L185.908 1179.02C186.618 1180.39 187.447 1182.05 188.393 1183.99C189.34 1185.93 190.287 1187.99 191.233 1190.16C192.18 1192.29 193.103 1194.42 194.002 1196.55C194.902 1198.68 195.706 1200.6 196.416 1202.31C197.032 1203.87 197.694 1205.71 198.404 1207.84C199.162 1209.97 199.919 1212.2 200.676 1214.52C201.481 1216.79 202.215 1219.01 202.877 1221.19C203.587 1223.37 204.179 1225.33 204.652 1227.08L194.144 1230.49C193.529 1227.7 192.819 1224.86 192.014 1221.97C191.21 1219.09 190.358 1216.25 189.458 1213.45C188.606 1210.66 187.707 1207.99 186.76 1205.43Z" fill="black"/>
</svg>
