<svg width="1080" height="1920" viewBox="0 0 1080 1920" fill="none" xmlns="http://www.w3.org/2000/svg">
<path d="M1080 1920L1080 0L0 0L0 1920H1080Z" fill="#A5D4AD"/>
<path d="M1020 983.72V95C1020 75.67 1004.33 60 985 60H95.58C75.93 60 60 75.93 60 95.58V983.71C60 984.03 60.25 984.28 60.57 984.28C80.03 984.59 95.71 1000.46 95.71 1019.99C95.71 1039.52 80.03 1055.39 60.57 1055.7C60.25 1055.7 60 1055.96 60 1056.27V1824.99C60 1844.32 75.67 1859.99 95 1859.99H985C1004.33 1859.99 1020 1844.32 1020 1824.99V1056.27C1020 1055.95 1019.75 1055.7 1019.43 1055.7C999.97 1055.39 984.29 1039.52 984.29 1019.99C984.29 1000.46 999.97 984.59 1019.43 984.28C1019.75 984.28 1020 984.02 1020 983.71V983.72Z" fill="white"/>
<path d="M60.57 1055.71C60.25 1055.71 60 1055.97 60 1056.28V1825C60 1844.33 75.67 1860 95 1860H985C1004.33 1860 1020 1844.33 1020 1825V1056.28C1020 1055.96 1019.75 1055.71 1019.43 1055.71C999.97 1055.4 984.29 1039.53 984.29 1020H95.71C95.71 1039.53 80.03 1055.4 60.57 1055.71Z" fill="#E5F2E6"/>
<path d="M121 1020H160.9" stroke="black" stroke-width="6" stroke-miterlimit="10"/>
<path d="M187.51 1020H227.41" stroke="black" stroke-width="6" stroke-miterlimit="10"/>
<path d="M254.02 1020H293.92" stroke="black" stroke-width="6" stroke-miterlimit="10"/>
<path d="M320.52 1020H360.43" stroke="black" stroke-width="6" stroke-miterlimit="10"/>
<path d="M387.03 1020H426.94" stroke="black" stroke-width="6" stroke-miterlimit="10"/>
<path d="M453.54 1020H493.44" stroke="black" stroke-width="6" stroke-miterlimit="10"/>
<path d="M520.05 1020H559.95" stroke="black" stroke-width="6" stroke-miterlimit="10"/>
<path d="M586.56 1020H626.46" stroke="black" stroke-width="6" stroke-miterlimit="10"/>
<path d="M653.06 1020H692.97" stroke="black" stroke-width="6" stroke-miterlimit="10"/>
<path d="M719.57 1020H759.48" stroke="black" stroke-width="6" stroke-miterlimit="10"/>
<path d="M786.08 1020H825.98" stroke="black" stroke-width="6" stroke-miterlimit="10"/>
<path d="M852.59 1020H892.49" stroke="black" stroke-width="6" stroke-miterlimit="10"/>
<path d="M919.1 1020H959" stroke="black" stroke-width="6" stroke-miterlimit="10"/>
<path d="M1020 984.29V95C1020 75.67 1004.33 60 985 60H95C75.67 60 60 75.67 60 95V984.29C79.72 984.29 95.71 1000.28 95.71 1020C95.71 1039.72 79.72 1055.71 60 1055.71V1825C60 1844.33 75.67 1860 95 1860H985C1004.33 1860 1020 1844.33 1020 1825V1055.71C1000.28 1055.71 984.29 1039.72 984.29 1020C984.29 1000.28 1000.28 984.29 1020 984.29Z" stroke="black" stroke-width="6" stroke-miterlimit="10"/>
<path d="M912.649 525.666C908.779 525.666 905.539 522.646 905.319 518.736C900.589 435.626 868.789 358.856 813.369 296.746C810.669 293.716 810.929 289.066 813.959 286.366C816.989 283.666 821.629 283.926 824.339 286.956C881.999 351.576 915.069 431.436 919.999 517.896C920.229 521.946 917.129 525.426 913.079 525.656C912.939 525.656 912.799 525.666 912.659 525.666H912.649Z" fill="black"/>
<path d="M818.849 795.517C817.109 795.517 815.359 794.897 813.959 793.647C810.929 790.947 810.669 786.297 813.369 783.267C868.789 721.157 900.589 644.387 905.319 561.277C905.549 557.227 909.029 554.117 913.079 554.357C917.129 554.587 920.229 558.057 919.999 562.117C915.069 648.587 881.999 728.447 824.339 793.057C822.889 794.687 820.869 795.517 818.849 795.517Z" fill="black"/>
<path d="M167.36 525.666C167.22 525.666 167.08 525.666 166.94 525.656C162.89 525.426 159.79 521.956 160.02 517.896C164.95 431.426 198.02 351.566 255.68 286.956C258.38 283.926 263.03 283.666 266.06 286.366C269.09 289.066 269.35 293.716 266.65 296.746C211.23 358.856 179.43 435.616 174.7 518.736C174.48 522.646 171.24 525.666 167.37 525.666H167.36Z" fill="black"/>
<path d="M261.17 795.517C259.15 795.517 257.13 794.687 255.68 793.057C198.02 728.437 164.95 648.577 160.02 562.117C159.79 558.067 162.89 554.587 166.94 554.357C170.99 554.117 174.47 557.227 174.7 561.277C179.43 644.397 211.23 721.157 266.65 783.267C269.35 786.297 269.09 790.947 266.06 793.647C264.66 794.897 262.91 795.517 261.17 795.517Z" fill="black"/>
<path d="M788.169 268.511C786.429 268.511 784.679 267.891 783.279 266.641C721.169 211.221 644.399 179.421 561.289 174.691C557.239 174.461 554.139 170.991 554.369 166.931C554.599 162.881 558.039 159.791 562.129 160.011C648.599 164.941 728.459 198.011 793.069 255.671C796.099 258.371 796.359 263.021 793.659 266.051C792.209 267.681 790.189 268.511 788.169 268.511Z" fill="black"/>
<path d="M291.85 268.512C289.83 268.512 287.81 267.682 286.36 266.052C283.66 263.022 283.92 258.372 286.95 255.672C351.57 198.012 431.43 164.942 517.89 160.012C521.94 159.782 525.42 162.882 525.65 166.932C525.88 170.982 522.78 174.462 518.73 174.692C435.62 179.422 358.85 211.222 296.74 266.642C295.34 267.892 293.59 268.512 291.85 268.512Z" fill="black"/>
<path d="M561.69 920.006C557.82 920.006 554.58 916.986 554.36 913.076C554.13 909.026 557.23 905.546 561.28 905.316C644.4 900.586 721.16 868.786 783.27 813.366C786.3 810.666 790.95 810.926 793.65 813.956C796.35 816.986 796.09 821.636 793.06 824.336C728.44 881.996 648.58 915.066 562.12 919.996C561.98 919.996 561.84 920.006 561.7 920.006H561.69Z" fill="black"/>
<path d="M518.32 920.006C518.18 920.006 518.04 920.006 517.9 919.996C431.43 915.066 351.57 881.996 286.96 824.336C283.93 821.636 283.67 816.986 286.37 813.956C289.07 810.926 293.72 810.666 296.75 813.366C358.86 868.786 435.63 900.586 518.74 905.316C522.79 905.546 525.89 909.016 525.66 913.076C525.44 916.986 522.2 920.006 518.33 920.006H518.32Z" fill="black"/>
<path d="M875.38 526.189C872.37 526.189 869.85 523.839 869.68 520.799C865.41 445.789 836.71 376.519 786.7 320.459C784.6 318.099 784.8 314.489 787.16 312.389C789.51 310.289 793.13 310.489 795.23 312.849C846.98 370.849 876.68 442.539 881.1 520.149C881.28 523.299 878.87 525.999 875.72 526.179C875.61 526.179 875.5 526.179 875.39 526.179L875.38 526.189Z" fill="black"/>
<path d="M790.96 769.062C789.6 769.062 788.25 768.582 787.16 767.612C784.8 765.512 784.6 761.892 786.7 759.542C836.71 703.492 865.41 634.212 869.68 559.202C869.86 556.052 872.55 553.642 875.71 553.822C878.86 554.002 881.27 556.702 881.09 559.852C876.67 637.472 846.98 709.152 795.22 767.152C794.09 768.422 792.52 769.062 790.95 769.062H790.96Z" fill="black"/>
<path d="M204.63 526.187C204.52 526.187 204.41 526.187 204.3 526.187C201.15 526.007 198.74 523.307 198.92 520.157C203.34 442.537 233.03 370.857 284.79 312.857C286.89 310.497 290.51 310.297 292.86 312.397C295.22 314.497 295.42 318.117 293.32 320.467C243.31 376.517 214.61 445.797 210.34 520.807C210.17 523.847 207.65 526.197 204.64 526.197L204.63 526.187Z" fill="black"/>
<path d="M289.05 769.055C287.48 769.055 285.91 768.405 284.78 767.145C233.03 709.145 203.33 637.455 198.91 559.845C198.73 556.695 201.14 553.995 204.29 553.815C207.45 553.625 210.14 556.045 210.32 559.195C214.59 634.205 243.29 703.485 293.3 759.535C295.4 761.895 295.2 765.505 292.84 767.605C291.75 768.575 290.39 769.055 289.04 769.055H289.05Z" fill="black"/>
<path d="M763.35 294.756C761.99 294.756 760.64 294.276 759.55 293.306C703.5 243.296 634.22 214.596 559.21 210.326C556.06 210.146 553.65 207.446 553.83 204.296C554.01 201.146 556.7 198.736 559.86 198.916C637.48 203.336 709.16 233.026 767.16 284.786C769.52 286.886 769.72 290.506 767.62 292.856C766.49 294.126 764.92 294.766 763.35 294.766V294.756Z" fill="black"/>
<path d="M316.66 294.759C315.09 294.759 313.52 294.109 312.39 292.849C310.29 290.489 310.49 286.879 312.85 284.779C370.85 233.029 442.54 203.329 520.15 198.909C523.3 198.719 526 201.139 526.18 204.289C526.36 207.439 523.95 210.139 520.8 210.319C445.79 214.589 376.52 243.289 320.46 293.299C319.37 294.269 318.01 294.749 316.66 294.749V294.759Z" fill="black"/>
<path d="M559.53 881.102C556.52 881.102 554 878.752 553.83 875.712C553.65 872.562 556.06 869.862 559.21 869.682C634.22 865.412 703.49 836.712 759.55 786.702C761.9 784.602 765.52 784.802 767.62 787.162C769.72 789.522 769.52 793.132 767.16 795.232C709.16 846.982 637.47 876.682 559.86 881.102C559.75 881.102 559.64 881.102 559.53 881.102Z" fill="black"/>
<path d="M520.49 881.102C520.38 881.102 520.27 881.102 520.16 881.102C442.54 876.682 370.86 846.992 312.86 795.232C310.5 793.132 310.3 789.512 312.4 787.162C314.5 784.802 318.12 784.602 320.47 786.702C376.52 836.722 445.8 865.412 520.81 869.682C523.96 869.862 526.37 872.562 526.19 875.712C526.02 878.752 523.5 881.102 520.49 881.102Z" fill="black"/>
<path d="M841.849 526.514C839.699 526.514 837.899 524.834 837.779 522.664C833.919 454.914 807.999 392.344 762.829 341.714C761.329 340.034 761.479 337.454 763.159 335.944C764.839 334.444 767.419 334.584 768.929 336.274C815.349 388.294 841.979 452.584 845.939 522.194C846.069 524.444 844.349 526.374 842.089 526.504C842.009 526.504 841.929 526.504 841.849 526.504V526.514Z" fill="black"/>
<path d="M765.869 745.106C764.899 745.106 763.929 744.766 763.149 744.066C761.469 742.566 761.319 739.986 762.819 738.296C807.989 687.666 833.909 625.096 837.769 557.346C837.899 555.096 839.859 553.396 842.079 553.496C844.329 553.626 846.049 555.556 845.929 557.806C841.959 627.416 815.329 691.706 768.919 743.726C768.109 744.626 766.989 745.086 765.869 745.086V745.106Z" fill="black"/>
<path d="M238.17 526.516C238.09 526.516 238.01 526.516 237.93 526.516C235.68 526.386 233.96 524.456 234.08 522.206C238.05 452.596 264.68 388.306 311.09 336.286C312.59 334.606 315.17 334.456 316.86 335.956C318.54 337.456 318.69 340.036 317.19 341.726C272.02 392.356 246.1 454.926 242.24 522.676C242.12 524.846 240.32 526.526 238.17 526.526V526.516Z" fill="black"/>
<path d="M314.14 745.103C313.02 745.103 311.9 744.643 311.09 743.743C264.67 691.723 238.04 627.433 234.08 557.823C233.95 555.573 235.67 553.643 237.93 553.513C240.17 553.403 242.11 555.103 242.24 557.363C246.1 625.113 272.02 687.683 317.19 738.313C318.69 739.993 318.54 742.573 316.86 744.083C316.08 744.773 315.11 745.123 314.14 745.123V745.103Z" fill="black"/>
<path d="M741.02 318.225C740.05 318.225 739.08 317.885 738.3 317.185C687.67 272.015 625.1 246.095 557.35 242.235C555.1 242.105 553.38 240.175 553.5 237.925C553.63 235.675 555.55 233.965 557.81 234.075C627.42 238.045 691.71 264.675 743.74 311.085C745.42 312.585 745.57 315.165 744.07 316.855C743.26 317.755 742.14 318.215 741.02 318.215V318.225Z" fill="black"/>
<path d="M339 318.224C337.88 318.224 336.76 317.764 335.95 316.864C334.45 315.184 334.6 312.604 336.28 311.094C388.3 264.674 452.59 238.044 522.2 234.084C524.45 233.964 526.38 235.674 526.51 237.934C526.64 240.184 524.92 242.114 522.66 242.244C454.91 246.104 392.34 272.024 341.71 317.194C340.93 317.884 339.96 318.234 338.99 318.234L339 318.224Z" fill="black"/>
<path d="M557.57 845.933C555.42 845.933 553.62 844.253 553.5 842.083C553.37 839.833 555.09 837.903 557.35 837.773C625.1 833.913 687.67 807.993 738.3 762.823C739.98 761.323 742.56 761.473 744.07 763.153C745.57 764.833 745.42 767.413 743.74 768.923C691.72 815.343 627.43 841.973 557.81 845.933C557.73 845.933 557.65 845.933 557.57 845.933Z" fill="black"/>
<path d="M522.44 845.933C522.36 845.933 522.28 845.933 522.2 845.933C452.59 841.963 388.3 815.333 336.28 768.923C334.6 767.423 334.45 764.843 335.95 763.153C337.45 761.473 340.03 761.323 341.72 762.823C392.35 807.993 454.92 833.913 522.67 837.773C524.92 837.903 526.64 839.833 526.52 842.083C526.4 844.253 524.6 845.933 522.45 845.933H522.44Z" fill="black"/>
<path d="M320.65 546.174C320.65 544.604 321.79 543.274 323.34 543.024C324.64 542.814 326.27 542.524 327.98 542.124C332.4 541.084 337.59 539.114 343.41 536.274C349.29 533.404 354.92 529.414 359.17 523.674C366.34 513.974 367.86 501.404 368.19 496.894C368.26 495.974 367.53 495.194 366.6 495.194H317.09C315.33 495.194 313.91 493.764 313.91 492.014V470.694C313.91 468.934 315.34 467.514 317.09 467.514H367.07C367.95 467.514 368.66 466.804 368.66 465.924V447.184C368.66 446.304 367.95 445.594 367.07 445.594H328.62C326.86 445.594 325.44 444.164 325.44 442.414V421.094C325.44 419.334 326.87 417.914 328.62 417.914H428.96C430.72 417.914 432.14 419.344 432.14 421.094V442.414C432.14 444.174 430.71 445.594 428.96 445.594H398.52C397.64 445.594 396.93 446.304 396.93 447.184V465.924C396.93 466.804 397.64 467.514 398.52 467.514H438.58C440.34 467.514 441.76 468.944 441.76 470.694V492.014C441.76 493.774 440.33 495.194 438.58 495.194H398.39C397.54 495.194 396.84 495.864 396.8 496.714C396.57 501.754 395.15 518.444 386.18 532.854C380.73 541.614 373.65 548.264 366.54 553.544C359.41 558.844 352.26 562.934 345.27 565.704C338.24 568.494 332.34 570.444 327.75 571.514C326.66 571.764 325.49 571.994 324.4 572.184C322.45 572.534 320.66 571.034 320.66 569.044V546.164L320.65 546.174Z" fill="black"/>
<path d="M474.55 546.522C474.55 545.062 475.55 543.792 476.96 543.432C485.21 541.362 488.93 540.112 496.84 536.322C496.84 536.322 500.89 534.212 504.93 531.302C517.11 522.542 525.22 510.632 525.22 510.632C534.68 497.282 537.77 474.912 538.49 468.492C538.6 467.552 537.86 466.722 536.91 466.722H500.58C500.35 466.722 500.14 466.842 500.03 467.042L499.88 467.292C494.3 478.112 486.88 487.992 480.45 494.242C474 500.502 468.59 505.052 464.38 507.752L461.78 509.422C460.72 510.102 459.33 509.342 459.33 508.082V479.892C459.33 478.952 459.75 478.062 460.47 477.452C461.12 476.902 461.99 476.132 463.18 475.062C465.94 472.572 469.05 468.512 472.42 462.982C475.76 457.512 479.35 450.212 483.07 441.292C486.45 433.202 488.98 423.092 490.86 412.062C491.12 410.532 492.45 409.422 494 409.422H513.91C515.91 409.422 517.42 411.252 517.04 413.212C516.4 416.522 515.71 420.882 514.85 424.312C513.58 429.392 512.76 432.302 511.24 436.722C510.98 437.472 511.54 438.242 512.33 438.242H591.18C592.94 438.242 594.36 439.672 594.36 441.422V463.512C594.36 465.272 592.93 466.692 591.18 466.692H568.14C567.33 466.692 566.64 467.302 566.56 468.112C565.93 474.012 562.88 497.162 552.39 517.262C538.29 546.002 508.14 566.392 478.34 572.132C476.38 572.512 474.56 571.002 474.56 569.002V546.482L474.55 546.522Z" fill="black"/>
<path d="M675.9 411.035V468.875C675.9 469.755 676.61 470.465 677.49 470.465H764.52C765.4 470.465 766.11 469.755 766.11 468.875V411.035C766.11 410.155 765.4 409.445 764.52 409.445H677.49C676.61 409.445 675.9 410.155 675.9 411.035ZM738.46 452.745H702.3C701.42 452.745 700.71 452.035 700.71 451.155V446.875C700.71 445.995 701.42 445.285 702.3 445.285H738.46C739.34 445.285 740.05 445.995 740.05 446.875V451.155C740.05 452.035 739.34 452.745 738.46 452.745ZM738.46 434.455H702.3C701.42 434.455 700.71 433.745 700.71 432.865V428.755C700.71 427.875 701.42 427.165 702.3 427.165H738.46C739.34 427.165 740.05 427.875 740.05 428.755V432.865C740.05 433.745 739.34 434.455 738.46 434.455Z" fill="black"/>
<path d="M674.23 497.342H728.27C729.15 497.342 729.86 498.052 729.86 498.932V502.842C729.86 503.722 729.15 504.432 728.27 504.432H667.76C666 504.432 664.58 505.862 664.58 507.612V522.862C664.58 524.622 666.01 526.042 667.76 526.042H728.27C729.15 526.042 729.86 526.752 729.86 527.632V545.392C729.86 546.112 729.94 547.982 729.22 548.852C728.39 549.872 727.15 549.672 725.85 549.722C722.54 549.722 719.58 549.702 716.95 549.662C716.55 549.662 716.26 549.292 716.34 548.902C716.6 547.632 716.73 546.312 716.7 544.962C716.5 535.682 708.94 528.082 699.66 527.842C689.58 527.582 681.37 535.852 681.71 545.942C682.02 555.292 689.79 562.812 699.15 562.842C704.04 562.852 708.46 560.862 711.64 557.642C711.98 557.302 712.55 557.432 712.7 557.882C714.16 562.212 715.54 566.342 716.79 570.052C717.23 571.352 718.46 572.222 719.83 572.212C725.73 572.172 730.51 571.962 734.18 571.602C738.31 571.182 742.09 570.152 745.52 568.502C749.18 566.842 751.69 564.422 753.05 561.232C754.41 558.042 755.09 553.552 755.09 547.762V527.622C755.09 526.742 755.8 526.032 756.68 526.032H762.91C764.67 526.032 766.09 524.602 766.09 522.852V507.602C766.09 505.842 764.66 504.422 762.91 504.422H756.68C755.8 504.422 755.09 503.712 755.09 502.832V498.922C755.09 498.042 755.8 497.332 756.68 497.332H762.91C764.67 497.332 766.09 495.902 766.09 494.152V479.602C766.09 477.842 764.66 476.422 762.91 476.422H674.21C672.45 476.422 671.03 477.852 671.03 479.602V494.152C671.03 495.912 672.46 497.332 674.21 497.332L674.23 497.342Z" fill="black"/>
<path d="M668.83 409.445H650.26C649.4 409.445 648.58 409.795 647.98 410.405C635.23 423.355 618.29 434.575 612.13 438.485C610.78 439.335 610.28 441.065 610.95 442.505L620.7 463.575C621.63 465.575 624.26 466.055 625.83 464.505C646.12 444.465 664.45 419.805 670.12 411.965C670.88 410.915 670.12 409.445 668.83 409.445Z" fill="black"/>
<path d="M671.92 453.899V435.419C671.92 434.009 670.22 433.299 669.21 434.289C653.64 449.609 620.05 477.069 611.68 483.869C610.55 484.789 610.19 486.359 610.8 487.679L620.7 509.059C621.63 511.059 624.26 511.539 625.83 509.989C627.54 508.299 629.24 506.569 630.92 504.829C631.32 504.419 632.02 504.699 632.02 505.269V569.069C632.02 570.829 633.45 572.249 635.2 572.249H653.82C655.58 572.249 657 570.819 657 569.069V476.379C657 475.309 657.36 474.259 658.03 473.419C664.87 464.739 669.72 458.029 671.34 455.749C671.72 455.209 671.93 454.569 671.93 453.899H671.92Z" fill="black"/>
<path d="M653.27 623.338C640.85 623.338 634.81 628.288 634.81 638.478V655.608C634.81 665.678 640.85 670.568 653.27 670.568C659.14 670.568 663.48 669.488 666.56 667.278C670 664.808 671.74 660.878 671.74 655.598V638.468C671.74 628.278 665.7 623.328 653.28 623.328L653.27 623.338ZM646.09 639.308C646.09 633.938 648.84 632.918 653.27 632.918C657.7 632.918 660.45 633.958 660.45 639.308V654.688C660.45 659.958 657.6 660.988 653.27 660.988C648.94 660.988 646.09 659.988 646.09 654.688V639.308Z" fill="black"/>
<path d="M708.27 669.334H721.359L703.63 646.784L720.56 624.804H707.4L694.06 642.284V610.234H682.77V669.334H694.06V659.214L696.95 655.454L708.27 669.334Z" fill="black"/>
<path d="M754.819 624.805V653.295C754.819 659.045 751.879 660.895 746.829 660.895C743.559 660.895 740.279 660.355 740.279 653.885V624.815H728.999V656.775C728.999 665.745 733.709 670.485 742.619 670.485C749.299 670.485 753.879 666.865 755.579 662.805L757.389 669.345H766.109V624.815H754.829L754.819 624.805Z" fill="black"/>
<path d="M630.569 610.234H589.149V620.144V620.154H604.219V669.334H615.689V620.154H630.569V610.234Z" fill="black"/>
<path d="M459.69 669.334H472.78L455.05 646.784L471.98 624.804H458.82L445.48 642.284V610.234H434.2V669.334H445.48V659.214L448.37 655.454L459.69 669.334Z" fill="black"/>
<path d="M355.33 610.234H313.91V620.144V620.154H328.99V669.334H340.45V620.154H355.33V610.234Z" fill="black"/>
<path d="M421.8 658.896L421.2 659.046C417.62 659.966 413.29 660.896 409.41 660.896C404.86 660.896 401.69 658.826 401.69 652.836V640.976C401.69 634.906 404.86 632.826 409.41 632.826C413.36 632.826 417.88 633.706 421.23 634.406L421.81 634.526V625.196L421.5 625.126C417.69 624.236 412.05 623.336 407.53 623.336C402.01 623.336 397.97 624.406 395.17 626.596C391.97 629.096 390.42 633.856 390.42 639.346V654.646C390.42 664.776 396.02 670.566 407.54 670.566C411.41 670.566 417.27 669.496 421.53 668.316L421.82 668.236V658.886L421.8 658.896Z" fill="black"/>
<path d="M553.93 634.705V624.805H543.69V615.195H532.41V624.805H525.18V634.705H532.41V655.425C532.41 667.945 540.3 670.565 546.93 670.565C548.71 670.565 550.51 670.455 552.12 670.225V660.265C551.47 660.335 550.26 660.365 549.54 660.365C546.46 660.365 543.69 659.735 543.69 652.095V634.695H553.93V634.705Z" fill="black"/>
<path d="M489.739 650.742V650.562H515.169V641.482C515.169 635.572 513.549 630.243 510.359 627.343C507.419 624.673 502.779 623.312 497.259 623.312C485.079 623.312 478.459 629.223 478.459 639.593V654.453C478.459 664.703 483.839 670.552 496.319 670.552C500.979 670.552 506.289 669.563 511.969 668.403L512.359 668.323V659.052L511.709 659.203C507.139 660.253 504.619 661.143 500.289 661.143C494.079 661.143 489.739 658.623 489.739 652.203V650.722V650.742ZM489.739 639.722C489.739 634.072 493.799 632.742 497.169 632.742C500.539 632.742 504.069 634.072 504.069 639.722V643.232H489.739V642.713V639.722Z" fill="black"/>
<path d="M378.179 626.883H366.899V669.333H378.179V626.883Z" fill="black"/>
<path d="M372.54 622.224C376.422 622.224 379.57 619.077 379.57 615.194C379.57 611.312 376.422 608.164 372.54 608.164C368.657 608.164 365.51 611.312 365.51 615.194C365.51 619.077 368.657 622.224 372.54 622.224Z" fill="black"/>
<path d="M585.739 643.922H566.149V651.262H585.739V643.922Z" fill="black"/>
<path d="M724.9 1652.2C724.5 1652.8 723.9 1653.73 723.1 1655C722.366 1656.27 721.8 1657.43 721.4 1658.5C720 1661.63 718.266 1665.13 716.2 1669C714.2 1672.87 711.9 1676.77 709.3 1680.7C706.766 1684.57 704.066 1688.2 701.2 1691.6C697.466 1695.8 693.333 1699.97 688.8 1704.1C684.333 1708.17 679.6 1711.93 674.6 1715.4C669.666 1718.8 664.6 1721.73 659.4 1724.2L649.1 1713.4C654.5 1711.33 659.733 1708.73 664.8 1705.6C669.866 1702.47 674.566 1699.07 678.9 1695.4C683.233 1691.73 686.966 1688.17 690.1 1684.7C692.3 1682.17 694.366 1679.47 696.3 1676.6C698.3 1673.73 700.066 1670.9 701.6 1668.1C703.133 1665.23 704.266 1662.6 705 1660.2C704.333 1660.2 703.133 1660.2 701.4 1660.2C699.666 1660.2 697.633 1660.2 695.3 1660.2C693.033 1660.2 690.633 1660.2 688.1 1660.2C685.566 1660.2 683.133 1660.2 680.8 1660.2C678.533 1660.2 676.533 1660.2 674.8 1660.2C673.066 1660.2 671.833 1660.2 671.1 1660.2C669.7 1660.2 668.233 1660.27 666.7 1660.4C665.166 1660.47 663.7 1660.57 662.3 1660.7C660.966 1660.77 659.933 1660.83 659.2 1660.9V1646.7C660.2 1646.77 661.433 1646.87 662.9 1647C664.366 1647.13 665.833 1647.23 667.3 1647.3C668.833 1647.37 670.1 1647.4 671.1 1647.4C671.966 1647.4 673.333 1647.4 675.2 1647.4C677.066 1647.4 679.2 1647.4 681.6 1647.4C684 1647.4 686.466 1647.4 689 1647.4C691.6 1647.4 694.066 1647.4 696.4 1647.4C698.8 1647.4 700.866 1647.4 702.6 1647.4C704.333 1647.4 705.6 1647.4 706.4 1647.4C708.6 1647.4 710.6 1647.27 712.4 1647C714.266 1646.73 715.7 1646.43 716.7 1646.1L724.9 1652.2ZM702.5 1683.3C705.1 1685.37 707.866 1687.77 710.8 1690.5C713.733 1693.23 716.633 1696.07 719.5 1699C722.366 1701.93 725 1704.77 727.4 1707.5C729.866 1710.17 731.933 1712.5 733.6 1714.5L722.2 1724.4C719.733 1721 716.9 1717.47 713.7 1713.8C710.566 1710.13 707.233 1706.5 703.7 1702.9C700.233 1699.23 696.7 1695.77 693.1 1692.5L702.5 1683.3Z" fill="black"/>
<path d="M615.3 1639C616.167 1640.2 617.1 1641.63 618.1 1643.3C619.1 1644.97 620.034 1646.63 620.9 1648.3C621.834 1649.97 622.634 1651.43 623.3 1652.7L615.2 1656.1C614.2 1654.03 612.967 1651.7 611.5 1649.1C610.1 1646.43 608.734 1644.13 607.4 1642.2L615.3 1639ZM627.1 1634.5C628.034 1635.77 629 1637.23 630 1638.9C631 1640.57 631.967 1642.23 632.9 1643.9C633.9 1645.5 634.667 1646.9 635.2 1648.1L627.3 1651.5C626.234 1649.37 624.967 1647 623.5 1644.4C622.034 1641.8 620.6 1639.57 619.2 1637.7L627.1 1634.5ZM572.2 1643.3C571.934 1644.83 571.734 1646.6 571.6 1648.6C571.467 1650.6 571.4 1652.3 571.4 1653.7C571.4 1654.7 571.4 1656.47 571.4 1659C571.4 1661.47 571.4 1664.4 571.4 1667.8C571.4 1671.2 571.4 1674.77 571.4 1678.5C571.4 1682.17 571.4 1685.73 571.4 1689.2C571.4 1692.6 571.4 1695.63 571.4 1698.3C571.4 1700.97 571.4 1702.93 571.4 1704.2C571.4 1706.33 571.934 1707.8 573 1708.6C574.067 1709.4 575.7 1710.03 577.9 1710.5C579.434 1710.7 581.2 1710.87 583.2 1711C585.2 1711.07 587.3 1711.1 589.5 1711.1C592.1 1711.1 594.967 1711.03 598.1 1710.9C601.3 1710.7 604.5 1710.47 607.7 1710.2C610.967 1709.93 614.034 1709.57 616.9 1709.1C619.767 1708.63 622.234 1708.13 624.3 1707.6V1722.2C621.167 1722.67 617.534 1723.03 613.4 1723.3C609.267 1723.63 605.034 1723.87 600.7 1724C596.434 1724.2 592.434 1724.3 588.7 1724.3C585.434 1724.3 582.334 1724.2 579.4 1724C576.534 1723.8 574.034 1723.53 571.9 1723.2C567.567 1722.33 564.2 1720.7 561.8 1718.3C559.4 1715.83 558.2 1712.47 558.2 1708.2C558.2 1706.27 558.2 1703.77 558.2 1700.7C558.2 1697.57 558.2 1694.13 558.2 1690.4C558.2 1686.6 558.2 1682.8 558.2 1679C558.2 1675.13 558.2 1671.5 558.2 1668.1C558.2 1664.63 558.2 1661.63 558.2 1659.1C558.2 1656.57 558.2 1654.77 558.2 1653.7C558.2 1652.97 558.167 1651.97 558.1 1650.7C558.034 1649.43 557.934 1648.13 557.8 1646.8C557.734 1645.47 557.6 1644.3 557.4 1643.3H572.2ZM565.6 1674C568.8 1673.33 572.2 1672.53 575.8 1671.6C579.4 1670.6 583.034 1669.53 586.7 1668.4C590.367 1667.27 593.834 1666.13 597.1 1665C600.434 1663.8 603.4 1662.63 606 1661.5C607.8 1660.83 609.567 1660.07 611.3 1659.2C613.1 1658.33 614.967 1657.3 616.9 1656.1L622.3 1668.8C620.367 1669.53 618.334 1670.37 616.2 1671.3C614.134 1672.17 612.267 1672.9 610.6 1673.5C607.667 1674.63 604.3 1675.83 600.5 1677.1C596.767 1678.37 592.867 1679.63 588.8 1680.9C584.734 1682.1 580.7 1683.23 576.7 1684.3C572.767 1685.37 569.1 1686.3 565.7 1687.1L565.6 1674Z" fill="black"/>
<path d="M450.7 1673.7C451.9 1673.77 453.434 1673.87 455.3 1674C457.167 1674.07 459.1 1674.14 461.1 1674.2C463.167 1674.27 465.067 1674.3 466.8 1674.3C468.467 1674.3 470.534 1674.3 473 1674.3C475.467 1674.3 478.134 1674.3 481 1674.3C483.934 1674.3 486.934 1674.3 490 1674.3C493.134 1674.3 496.234 1674.3 499.3 1674.3C502.367 1674.3 505.267 1674.3 508 1674.3C510.734 1674.3 513.167 1674.3 515.3 1674.3C517.5 1674.3 519.234 1674.3 520.5 1674.3C522.834 1674.3 525.034 1674.24 527.1 1674.1C529.167 1673.9 530.867 1673.77 532.2 1673.7V1689.4C531.067 1689.34 529.367 1689.24 527.1 1689.1C524.834 1688.97 522.634 1688.9 520.5 1688.9C519.234 1688.9 517.5 1688.9 515.3 1688.9C513.1 1688.9 510.634 1688.9 507.9 1688.9C505.167 1688.9 502.267 1688.9 499.2 1688.9C496.2 1688.9 493.134 1688.9 490 1688.9C486.867 1688.9 483.834 1688.9 480.9 1688.9C478.034 1688.9 475.367 1688.9 472.9 1688.9C470.5 1688.9 468.467 1688.9 466.8 1688.9C463.934 1688.9 461 1688.97 458 1689.1C455 1689.17 452.567 1689.27 450.7 1689.4V1673.7Z" fill="black"/>
<path d="M416.3 1675.8C416.3 1682 415.834 1687.63 414.9 1692.7C414.034 1697.7 412.5 1702.27 410.3 1706.4C408.1 1710.47 405.034 1714.13 401.1 1717.4C397.167 1720.67 392.2 1723.63 386.2 1726.3L375.5 1716.2C380.3 1714.53 384.434 1712.67 387.9 1710.6C391.434 1708.53 394.334 1706 396.6 1703C398.867 1699.93 400.534 1696.27 401.6 1692C402.734 1687.67 403.3 1682.43 403.3 1676.3V1649.7C403.3 1647.63 403.234 1645.83 403.1 1644.3C402.967 1642.7 402.834 1641.4 402.7 1640.4H417C416.867 1641.4 416.7 1642.7 416.5 1644.3C416.367 1645.83 416.3 1647.63 416.3 1649.7V1675.8ZM380.2 1641.3C380.067 1642.23 379.934 1643.5 379.8 1645.1C379.667 1646.63 379.6 1648.37 379.6 1650.3V1686.1C379.6 1687.57 379.634 1689 379.7 1690.4C379.767 1691.73 379.8 1692.93 379.8 1694C379.867 1695 379.934 1695.87 380 1696.6H366C366.134 1695.87 366.234 1695 366.3 1694C366.367 1692.93 366.434 1691.73 366.5 1690.4C366.567 1689 366.6 1687.57 366.6 1686.1V1650.3C366.6 1648.83 366.534 1647.33 366.4 1645.8C366.334 1644.27 366.2 1642.77 366 1641.3H380.2ZM347.2 1659.3C347.867 1659.37 348.734 1659.5 349.8 1659.7C350.867 1659.83 352.1 1659.97 353.5 1660.1C354.9 1660.17 356.434 1660.2 358.1 1660.2H423.7C426.367 1660.2 428.534 1660.13 430.2 1660C431.867 1659.87 433.367 1659.7 434.7 1659.5V1672.8C433.634 1672.67 432.2 1672.6 430.4 1672.6C428.6 1672.53 426.367 1672.5 423.7 1672.5H358.1C356.434 1672.5 354.9 1672.53 353.5 1672.6C352.167 1672.6 350.967 1672.63 349.9 1672.7C348.9 1672.77 348 1672.83 347.2 1672.9V1659.3Z" fill="black"/>
<path d="M754.691 1527.8C754.158 1528.74 753.591 1529.87 752.991 1531.2C752.391 1532.47 751.858 1533.74 751.391 1535C750.525 1537.94 749.291 1541.3 747.691 1545.1C746.158 1548.84 744.225 1552.74 741.891 1556.8C739.625 1560.8 736.991 1564.67 733.991 1568.4C729.191 1574.14 723.591 1579.34 717.191 1584C710.858 1588.67 702.991 1592.87 693.591 1596.6L681.791 1586C688.591 1584 694.458 1581.7 699.391 1579.1C704.325 1576.5 708.625 1573.74 712.291 1570.8C715.958 1567.8 719.225 1564.64 722.091 1561.3C724.425 1558.7 726.558 1555.77 728.491 1552.5C730.425 1549.17 732.091 1545.87 733.491 1542.6C734.891 1539.34 735.825 1536.47 736.291 1534H702.591L707.191 1522.7C708.125 1522.7 709.558 1522.7 711.491 1522.7C713.491 1522.7 715.725 1522.7 718.191 1522.7C720.725 1522.7 723.191 1522.7 725.591 1522.7C728.058 1522.7 730.191 1522.7 731.991 1522.7C733.858 1522.7 735.125 1522.7 735.791 1522.7C737.325 1522.7 738.858 1522.6 740.391 1522.4C741.991 1522.2 743.358 1521.9 744.491 1521.5L754.691 1527.8ZM722.091 1512C720.891 1513.74 719.725 1515.6 718.591 1517.6C717.458 1519.6 716.591 1521.14 715.991 1522.2C713.725 1526.2 710.925 1530.37 707.591 1534.7C704.325 1538.97 700.591 1543.14 696.391 1547.2C692.191 1551.2 687.725 1554.87 682.991 1558.2L671.691 1549.9C676.091 1547.17 679.958 1544.37 683.291 1541.5C686.691 1538.64 689.625 1535.8 692.091 1533C694.558 1530.14 696.658 1527.4 698.391 1524.8C700.191 1522.14 701.725 1519.77 702.991 1517.7C703.791 1516.44 704.625 1514.8 705.491 1512.8C706.358 1510.74 707.025 1508.87 707.491 1507.2L722.091 1512Z" fill="black"/>
<path d="M588.891 1514C590.624 1515.2 592.657 1516.67 594.991 1518.4C597.324 1520.13 599.724 1522.03 602.191 1524.1C604.724 1526.1 607.091 1528.07 609.291 1530C611.491 1531.93 613.291 1533.67 614.691 1535.2L604.491 1545.6C603.224 1544.2 601.557 1542.53 599.491 1540.6C597.424 1538.67 595.191 1536.67 592.791 1534.6C590.391 1532.53 588.024 1530.57 585.691 1528.7C583.357 1526.83 581.291 1525.27 579.491 1524L588.891 1514ZM576.391 1580.6C581.591 1579.87 586.491 1578.83 591.091 1577.5C595.691 1576.17 599.957 1574.63 603.891 1572.9C607.824 1571.17 611.424 1569.37 614.691 1567.5C620.357 1564.1 625.557 1560.23 630.291 1555.9C635.024 1551.57 639.157 1547.07 642.691 1542.4C646.224 1537.67 649.024 1533.07 651.091 1528.6L658.891 1542.7C656.357 1547.17 653.224 1551.63 649.491 1556.1C645.824 1560.57 641.657 1564.83 636.991 1568.9C632.324 1572.9 627.291 1576.5 621.891 1579.7C618.491 1581.77 614.824 1583.73 610.891 1585.6C606.957 1587.4 602.791 1589 598.391 1590.4C594.057 1591.87 589.524 1593 584.791 1593.8L576.391 1580.6Z" fill="black"/>
<path d="M545.091 1512.4C545.024 1513.8 544.924 1515.33 544.791 1517C544.724 1518.6 544.691 1520.4 544.691 1522.4C544.691 1524.13 544.691 1526.23 544.691 1528.7C544.691 1531.17 544.691 1533.63 544.691 1536.1C544.691 1538.5 544.691 1540.53 544.691 1542.2C544.691 1547.53 544.424 1552.2 543.891 1556.2C543.424 1560.2 542.691 1563.7 541.691 1566.7C540.691 1569.7 539.458 1572.37 537.991 1574.7C536.591 1576.97 534.958 1579.13 533.091 1581.2C530.891 1583.6 528.358 1585.77 525.491 1587.7C522.624 1589.57 519.724 1591.13 516.791 1592.4C513.924 1593.73 511.258 1594.8 508.791 1595.6L498.291 1584.6C503.291 1583.47 507.791 1581.9 511.791 1579.9C515.858 1577.83 519.391 1575.2 522.391 1572C524.124 1570.07 525.524 1568.13 526.591 1566.2C527.658 1564.27 528.458 1562.13 528.991 1559.8C529.591 1557.4 529.991 1554.7 530.191 1551.7C530.458 1548.7 530.591 1545.27 530.591 1541.4C530.591 1539.67 530.591 1537.6 530.591 1535.2C530.591 1532.8 530.591 1530.43 530.591 1528.1C530.591 1525.77 530.591 1523.87 530.591 1522.4C530.591 1520.4 530.524 1518.6 530.391 1517C530.324 1515.33 530.191 1513.8 529.991 1512.4H545.091ZM498.691 1513.2C498.624 1514.4 498.558 1515.6 498.491 1516.8C498.424 1517.93 498.391 1519.3 498.391 1520.9C498.391 1521.63 498.391 1522.83 498.391 1524.5C498.391 1526.17 498.391 1528.13 498.391 1530.4C498.391 1532.6 498.391 1534.93 498.391 1537.4C498.391 1539.8 498.391 1542.13 498.391 1544.4C498.391 1546.67 498.391 1548.73 498.391 1550.6C498.391 1552.4 498.391 1553.77 498.391 1554.7C498.391 1555.97 498.424 1557.43 498.491 1559.1C498.558 1560.77 498.624 1562.2 498.691 1563.4H484.191C484.258 1562.47 484.358 1561.13 484.491 1559.4C484.624 1557.67 484.691 1556.07 484.691 1554.6C484.691 1553.67 484.691 1552.3 484.691 1550.5C484.691 1548.7 484.691 1546.67 484.691 1544.4C484.691 1542.07 484.691 1539.7 484.691 1537.3C484.691 1534.83 484.691 1532.5 484.691 1530.3C484.691 1528.1 484.691 1526.17 484.691 1524.5C484.691 1522.83 484.691 1521.63 484.691 1520.9C484.691 1519.97 484.658 1518.77 484.591 1517.3C484.524 1515.77 484.424 1514.4 484.291 1513.2H498.691Z" fill="black"/>
<path d="M432.991 1515.6C433.924 1516.93 434.957 1518.5 436.091 1520.3C437.224 1522.1 438.291 1523.9 439.291 1525.7C440.357 1527.5 441.291 1529.17 442.091 1530.7L433.391 1534.6C432.457 1532.47 431.524 1530.57 430.591 1528.9C429.724 1527.23 428.824 1525.63 427.891 1524.1C426.957 1522.5 425.857 1520.83 424.591 1519.1L432.991 1515.6ZM446.091 1510.1C447.091 1511.43 448.157 1512.97 449.291 1514.7C450.491 1516.43 451.624 1518.2 452.691 1520C453.824 1521.73 454.757 1523.37 455.491 1524.9L447.091 1529C446.024 1526.87 444.991 1525 443.991 1523.4C443.057 1521.73 442.091 1520.17 441.091 1518.7C440.157 1517.17 439.057 1515.6 437.791 1514L446.091 1510.1ZM393.091 1581.9C393.091 1580.57 393.091 1578.47 393.091 1575.6C393.091 1572.67 393.091 1569.3 393.091 1565.5C393.091 1561.63 393.091 1557.63 393.091 1553.5C393.091 1549.3 393.091 1545.27 393.091 1541.4C393.091 1537.47 393.091 1534 393.091 1531C393.091 1528 393.091 1525.8 393.091 1524.4C393.091 1522.6 392.991 1520.57 392.791 1518.3C392.657 1516.03 392.424 1514.03 392.091 1512.3H407.691C407.491 1514.03 407.291 1515.97 407.091 1518.1C406.891 1520.23 406.791 1522.33 406.791 1524.4C406.791 1526.2 406.791 1528.7 406.791 1531.9C406.791 1535.1 406.791 1538.67 406.791 1542.6C406.791 1546.47 406.791 1550.43 406.791 1554.5C406.791 1558.57 406.791 1562.47 406.791 1566.2C406.791 1569.87 406.791 1573.1 406.791 1575.9C406.791 1578.63 406.791 1580.63 406.791 1581.9C406.791 1582.77 406.824 1584.07 406.891 1585.8C407.024 1587.47 407.157 1589.2 407.291 1591C407.491 1592.8 407.657 1594.4 407.791 1595.8H392.091C392.424 1593.87 392.657 1591.57 392.791 1588.9C392.991 1586.17 393.091 1583.83 393.091 1581.9ZM403.891 1538.2C407.224 1539.07 410.924 1540.2 414.991 1541.6C419.124 1542.93 423.291 1544.4 427.491 1546C431.691 1547.53 435.657 1549.07 439.391 1550.6C443.124 1552.07 446.191 1553.4 448.591 1554.6L442.991 1568.5C440.124 1566.97 436.991 1565.47 433.591 1564C430.191 1562.53 426.724 1561.1 423.191 1559.7C419.724 1558.23 416.324 1556.9 412.991 1555.7C409.657 1554.5 406.624 1553.47 403.891 1552.6V1538.2Z" fill="black"/>
<path d="M348.609 1510C349.309 1510 349.809 1510.5 349.809 1511.2V1588.7C349.809 1589.4 349.309 1590 348.609 1590H340.609C339.909 1590 339.409 1589.4 339.409 1588.7V1520.2H326.909C325.809 1520.2 325.309 1519.1 325.809 1518.4L330.809 1510.5C331.009 1510.2 331.409 1510 331.809 1510H348.609Z" fill="black"/>
<path d="M754.504 1366.45C755.976 1366.64 757.624 1366.78 759.448 1366.88C761.304 1366.94 763.176 1366.98 765.064 1366.98C766.984 1366.94 768.825 1366.88 770.585 1366.78C772.345 1366.66 773.865 1366.53 775.145 1366.4V1372.59C773.673 1372.72 772.056 1372.83 770.296 1372.93C768.536 1372.99 766.728 1373.02 764.872 1373.02C763.016 1373.02 761.192 1372.99 759.4 1372.93C757.64 1372.83 756.008 1372.72 754.504 1372.59V1366.45ZM758.344 1386.94C758.152 1387.74 758.008 1388.46 757.912 1389.1C757.816 1389.71 757.768 1390.34 757.768 1390.98C757.768 1391.49 757.896 1391.97 758.152 1392.42C758.408 1392.83 758.793 1393.2 759.305 1393.52C759.849 1393.81 760.536 1394.03 761.368 1394.19C762.233 1394.32 763.272 1394.38 764.488 1394.38C766.632 1394.38 768.648 1394.29 770.536 1394.1C772.424 1393.87 774.424 1393.55 776.536 1393.14L776.632 1399.62C775.096 1399.9 773.321 1400.13 771.305 1400.29C769.321 1400.45 766.968 1400.53 764.248 1400.53C760.12 1400.53 757.049 1399.84 755.033 1398.46C753.017 1397.06 752.008 1395.12 752.008 1392.66C752.008 1391.73 752.073 1390.77 752.201 1389.78C752.361 1388.75 752.568 1387.63 752.824 1386.42L758.344 1386.94ZM747.112 1363.23C746.984 1363.55 746.84 1364 746.68 1364.58C746.52 1365.15 746.361 1365.71 746.201 1366.26C746.073 1366.8 745.976 1367.22 745.912 1367.5C745.816 1368.18 745.656 1369.06 745.432 1370.14C745.24 1371.2 745.033 1372.4 744.809 1373.74C744.617 1375.06 744.424 1376.4 744.232 1377.78C744.04 1379.15 743.881 1380.48 743.753 1381.76C743.657 1383.04 743.608 1384.16 743.608 1385.12C743.608 1385.57 743.608 1386.08 743.608 1386.66C743.64 1387.23 743.704 1387.76 743.8 1388.24C744.024 1387.7 744.264 1387.15 744.52 1386.61C744.776 1386.06 745.032 1385.52 745.288 1384.98C745.544 1384.4 745.768 1383.86 745.96 1383.34L748.936 1385.7C748.488 1387.01 748.024 1388.42 747.544 1389.92C747.096 1391.42 746.68 1392.85 746.296 1394.19C745.944 1395.5 745.672 1396.59 745.48 1397.46C745.416 1397.81 745.352 1398.21 745.288 1398.66C745.256 1399.1 745.24 1399.46 745.24 1399.71C745.24 1399.97 745.24 1400.27 745.24 1400.62C745.272 1401.01 745.304 1401.36 745.336 1401.68L739.768 1402.06C739.288 1400.4 738.857 1398.19 738.473 1395.44C738.089 1392.66 737.896 1389.63 737.896 1386.37C737.896 1384.58 737.976 1382.75 738.136 1380.9C738.296 1379.04 738.488 1377.26 738.712 1375.57C738.936 1373.84 739.144 1372.27 739.336 1370.86C739.56 1369.46 739.752 1368.29 739.912 1367.36C739.976 1366.69 740.056 1365.94 740.152 1365.1C740.28 1364.24 740.36 1363.42 740.392 1362.66L747.112 1363.23Z" fill="black"/>
<path d="M687.256 1366.93H730.792V1372.4H687.256V1366.93ZM703.288 1378.69H721.672V1384.11H703.288V1378.69ZM719.512 1378.69H725.464C725.464 1378.69 725.448 1378.85 725.416 1379.17C725.416 1379.46 725.416 1379.79 725.416 1380.18C725.416 1380.56 725.384 1380.9 725.32 1381.18C725.032 1385.57 724.712 1389.15 724.36 1391.94C724.008 1394.72 723.608 1396.9 723.16 1398.46C722.712 1400 722.168 1401.12 721.528 1401.82C720.792 1402.62 720.024 1403.17 719.224 1403.46C718.424 1403.74 717.464 1403.95 716.344 1404.08C715.416 1404.18 714.2 1404.21 712.696 1404.18C711.192 1404.18 709.64 1404.14 708.04 1404.08C708.008 1403.25 707.8 1402.29 707.416 1401.2C707.032 1400.14 706.552 1399.22 705.976 1398.42C707.64 1398.58 709.24 1398.67 710.776 1398.7C712.312 1398.74 713.416 1398.75 714.088 1398.75C714.632 1398.75 715.08 1398.72 715.432 1398.66C715.816 1398.56 716.152 1398.38 716.44 1398.13C716.952 1397.71 717.384 1396.8 717.736 1395.39C718.12 1393.98 718.456 1391.98 718.744 1389.39C719.032 1386.8 719.288 1383.52 719.512 1379.55V1378.69ZM701.128 1370.19H707.56C707.432 1372.75 707.224 1375.34 706.936 1377.97C706.68 1380.56 706.232 1383.14 705.592 1385.7C704.952 1388.22 704.024 1390.64 702.808 1392.94C701.592 1395.25 699.992 1397.39 698.008 1399.38C696.024 1401.36 693.512 1403.12 690.472 1404.66C690.056 1403.86 689.448 1402.99 688.648 1402.06C687.88 1401.14 687.128 1400.37 686.392 1399.76C689.176 1398.48 691.448 1396.99 693.208 1395.3C695 1393.57 696.408 1391.71 697.432 1389.73C698.456 1387.71 699.208 1385.62 699.688 1383.44C700.2 1381.26 700.536 1379.06 700.696 1376.82C700.888 1374.58 701.032 1372.37 701.128 1370.19ZM705.736 1359.01H711.736V1369.09H705.736V1359.01Z" fill="black"/>
<path d="M665.368 1367.12C665.048 1369.55 664.632 1372.14 664.12 1374.89C663.608 1377.65 662.92 1380.43 662.056 1383.25C661.128 1386.48 660.04 1389.26 658.792 1391.6C657.544 1393.93 656.168 1395.74 654.664 1397.02C653.192 1398.27 651.576 1398.89 649.816 1398.89C648.056 1398.89 646.424 1398.3 644.92 1397.12C643.448 1395.9 642.264 1394.24 641.368 1392.13C640.504 1390.01 640.072 1387.61 640.072 1384.93C640.072 1382.14 640.632 1379.52 641.752 1377.05C642.872 1374.59 644.424 1372.41 646.408 1370.53C648.424 1368.61 650.76 1367.1 653.416 1366.01C656.104 1364.93 659 1364.38 662.104 1364.38C665.08 1364.38 667.752 1364.86 670.12 1365.82C672.52 1366.78 674.568 1368.11 676.264 1369.81C677.96 1371.5 679.256 1373.49 680.152 1375.76C681.048 1378.03 681.496 1380.48 681.496 1383.1C681.496 1386.46 680.808 1389.47 679.432 1392.13C678.056 1394.78 676.008 1396.97 673.288 1398.7C670.6 1400.43 667.24 1401.61 663.208 1402.25L659.608 1396.54C660.536 1396.45 661.352 1396.33 662.056 1396.21C662.76 1396.08 663.432 1395.93 664.072 1395.77C665.608 1395.39 667.032 1394.85 668.344 1394.14C669.688 1393.41 670.856 1392.51 671.848 1391.45C672.84 1390.37 673.608 1389.1 674.152 1387.66C674.728 1386.22 675.016 1384.64 675.016 1382.91C675.016 1381.02 674.728 1379.29 674.152 1377.73C673.576 1376.16 672.728 1374.8 671.608 1373.65C670.488 1372.46 669.128 1371.57 667.528 1370.96C665.928 1370.32 664.088 1370 662.008 1370C659.448 1370 657.192 1370.46 655.24 1371.39C653.288 1372.29 651.64 1373.45 650.296 1374.89C648.952 1376.33 647.928 1377.89 647.224 1379.55C646.552 1381.21 646.216 1382.8 646.216 1384.3C646.216 1385.9 646.408 1387.25 646.792 1388.33C647.176 1389.39 647.64 1390.19 648.184 1390.73C648.76 1391.25 649.368 1391.5 650.008 1391.5C650.68 1391.5 651.336 1391.17 651.976 1390.49C652.648 1389.79 653.304 1388.73 653.944 1387.33C654.584 1385.92 655.224 1384.14 655.864 1382C656.6 1379.69 657.224 1377.23 657.736 1374.61C658.248 1371.98 658.616 1369.42 658.84 1366.93L665.368 1367.12Z" fill="black"/>
<path d="M622.216 1369.91L628.36 1371.73C626.344 1377.49 623.736 1382.48 620.536 1386.71C617.336 1390.93 613.528 1394.5 609.112 1397.41C604.728 1400.29 599.656 1402.64 593.896 1404.47C593.704 1403.96 593.384 1403.35 592.936 1402.64C592.488 1401.94 592.024 1401.24 591.544 1400.53C591.096 1399.86 590.664 1399.3 590.248 1398.85C595.784 1397.38 600.632 1395.38 604.792 1392.85C608.952 1390.32 612.472 1387.19 615.352 1383.44C618.232 1379.67 620.52 1375.16 622.216 1369.91ZM603.64 1370.29C605.272 1375.06 607.528 1379.33 610.408 1383.11C613.288 1386.88 616.84 1390.08 621.064 1392.71C625.32 1395.33 630.28 1397.28 635.944 1398.56C635.496 1399.01 635 1399.59 634.456 1400.29C633.944 1401 633.448 1401.7 632.968 1402.4C632.488 1403.14 632.104 1403.78 631.816 1404.32C625.832 1402.79 620.68 1400.55 616.36 1397.6C612.04 1394.63 608.376 1391.01 605.368 1386.76C602.392 1382.5 599.896 1377.59 597.88 1372.02L603.64 1370.29ZM591.112 1366.84H635.08V1372.45H591.112V1366.84ZM610.024 1359.2H615.928V1370.24H610.024V1359.2Z" fill="black"/>
<path d="M563.08 1363.57L566.824 1359.1C568.136 1359.71 569.512 1360.43 570.952 1361.26C572.424 1362.09 573.8 1362.94 575.08 1363.81C576.392 1364.67 577.464 1365.5 578.296 1366.3L574.12 1371.29C573.384 1370.46 572.392 1369.58 571.144 1368.65C569.928 1367.73 568.6 1366.81 567.16 1365.92C565.752 1365.02 564.392 1364.24 563.08 1363.57ZM559.864 1383.05H584.824V1388.53H559.864V1383.05ZM556.456 1397.26H587.608V1402.73H556.456V1397.26ZM558.184 1369.66H586.6V1375.13H558.184V1369.66ZM569.128 1371.49H575.128V1399.71H569.128V1371.49ZM545.512 1363.66L548.632 1359.44C549.688 1359.79 550.792 1360.25 551.944 1360.83C553.096 1361.37 554.2 1361.97 555.256 1362.61C556.312 1363.21 557.176 1363.81 557.848 1364.38L554.44 1369.09C553.832 1368.48 553.016 1367.85 551.992 1367.21C551 1366.54 549.928 1365.9 548.776 1365.29C547.656 1364.65 546.568 1364.11 545.512 1363.66ZM542.296 1376.77L545.272 1372.4C546.328 1372.75 547.448 1373.18 548.632 1373.69C549.816 1374.17 550.936 1374.72 551.992 1375.33C553.08 1375.9 553.976 1376.45 554.68 1376.96L551.464 1381.81C550.856 1381.23 550.024 1380.64 548.968 1380.03C547.912 1379.42 546.808 1378.83 545.656 1378.25C544.504 1377.65 543.384 1377.15 542.296 1376.77ZM544.36 1399.85C545.224 1398.64 546.184 1397.21 547.24 1395.58C548.296 1393.92 549.368 1392.16 550.456 1390.3C551.544 1388.41 552.552 1386.54 553.48 1384.69L557.704 1388.53C556.872 1390.19 555.976 1391.9 555.016 1393.66C554.088 1395.42 553.128 1397.15 552.136 1398.85C551.176 1400.54 550.216 1402.17 549.256 1403.74L544.36 1399.85Z" fill="black"/>
<path d="M502.408 1365.58C504.168 1365.8 506.152 1365.96 508.36 1366.06C510.568 1366.16 512.936 1366.2 515.464 1366.2C517.064 1366.2 518.696 1366.17 520.36 1366.11C522.024 1366.04 523.64 1365.96 525.208 1365.87C526.776 1365.74 528.168 1365.63 529.384 1365.53V1371.92C528.264 1371.98 526.904 1372.06 525.304 1372.16C523.736 1372.25 522.088 1372.33 520.36 1372.4C518.664 1372.46 517.048 1372.49 515.512 1372.49C513.016 1372.49 510.696 1372.44 508.552 1372.35C506.408 1372.22 504.36 1372.09 502.408 1371.96V1365.58ZM506.44 1385.93C506.216 1386.76 506.024 1387.58 505.864 1388.38C505.704 1389.18 505.624 1389.98 505.624 1390.78C505.624 1392.35 506.392 1393.63 507.928 1394.62C509.496 1395.58 512.008 1396.06 515.464 1396.06C517.64 1396.06 519.736 1395.98 521.752 1395.82C523.8 1395.66 525.72 1395.45 527.512 1395.2C529.304 1394.91 530.904 1394.57 532.312 1394.19L532.36 1400.91C530.984 1401.23 529.416 1401.52 527.656 1401.77C525.928 1402.03 524.056 1402.22 522.04 1402.35C520.056 1402.51 517.944 1402.59 515.704 1402.59C512.024 1402.59 508.968 1402.17 506.536 1401.34C504.104 1400.54 502.264 1399.39 501.016 1397.88C499.8 1396.35 499.192 1394.48 499.192 1392.27C499.192 1390.89 499.304 1389.63 499.528 1388.48C499.752 1387.29 499.944 1386.25 500.104 1385.36L506.44 1385.93ZM530.632 1360.64C531.048 1361.21 531.48 1361.9 531.928 1362.7C532.408 1363.5 532.872 1364.3 533.32 1365.1C533.768 1365.9 534.152 1366.6 534.472 1367.21L530.584 1368.89C530.104 1367.9 529.512 1366.76 528.808 1365.48C528.136 1364.2 527.48 1363.1 526.84 1362.17L530.632 1360.64ZM536.344 1358.48C536.76 1359.08 537.208 1359.79 537.688 1360.59C538.168 1361.39 538.632 1362.19 539.08 1362.99C539.56 1363.76 539.944 1364.43 540.232 1365L536.392 1366.64C535.88 1365.64 535.272 1364.52 534.568 1363.28C533.864 1362 533.176 1360.91 532.504 1360.01L536.344 1358.48Z" fill="black"/>
<path d="M468.328 1361.5C468.168 1362.37 467.912 1363.49 467.56 1364.86C467.208 1366.24 466.696 1367.79 466.024 1369.52C465.512 1370.7 464.92 1371.94 464.248 1373.22C463.608 1374.46 462.952 1375.58 462.28 1376.58C462.696 1376.38 463.224 1376.22 463.864 1376.1C464.504 1375.94 465.16 1375.82 465.832 1375.76C466.536 1375.66 467.16 1375.62 467.704 1375.62C469.72 1375.62 471.384 1376.19 472.696 1377.34C474.04 1378.5 474.712 1380.21 474.712 1382.48C474.712 1383.12 474.712 1383.9 474.712 1384.83C474.744 1385.76 474.776 1386.74 474.808 1387.76C474.84 1388.75 474.872 1389.73 474.904 1390.69C474.936 1391.65 474.952 1392.51 474.952 1393.28H469.192C469.256 1392.74 469.288 1392.1 469.288 1391.36C469.32 1390.59 469.336 1389.79 469.336 1388.96C469.368 1388.13 469.384 1387.33 469.384 1386.56C469.416 1385.76 469.432 1385.04 469.432 1384.4C469.432 1382.86 469.016 1381.81 468.184 1381.23C467.384 1380.62 466.488 1380.32 465.496 1380.32C464.152 1380.32 462.792 1380.66 461.416 1381.33C460.072 1381.97 458.936 1382.74 458.008 1383.63C457.304 1384.34 456.584 1385.12 455.848 1385.98C455.144 1386.85 454.376 1387.82 453.544 1388.91L448.408 1385.07C450.488 1383.15 452.28 1381.3 453.784 1379.5C455.32 1377.71 456.616 1375.94 457.672 1374.18C458.728 1372.42 459.592 1370.66 460.264 1368.9C460.744 1367.62 461.128 1366.29 461.416 1364.91C461.736 1363.5 461.928 1362.19 461.992 1360.98L468.328 1361.5ZM450.28 1365.92C451.496 1366.11 452.904 1366.26 454.504 1366.35C456.104 1366.45 457.512 1366.5 458.728 1366.5C460.84 1366.5 463.144 1366.45 465.64 1366.35C468.168 1366.26 470.728 1366.1 473.32 1365.87C475.912 1365.62 478.376 1365.3 480.712 1364.91L480.664 1370.48C478.968 1370.7 477.128 1370.91 475.144 1371.1C473.192 1371.26 471.192 1371.41 469.144 1371.54C467.128 1371.63 465.192 1371.71 463.336 1371.78C461.48 1371.81 459.832 1371.82 458.392 1371.82C457.752 1371.82 456.952 1371.82 455.992 1371.82C455.064 1371.79 454.104 1371.76 453.112 1371.73C452.12 1371.66 451.176 1371.6 450.28 1371.54V1365.92ZM488.296 1379.55C487.784 1379.71 487.176 1379.92 486.472 1380.18C485.8 1380.4 485.112 1380.64 484.408 1380.9C483.736 1381.12 483.128 1381.34 482.584 1381.57C481.048 1382.18 479.224 1382.91 477.112 1383.78C475.032 1384.64 472.856 1385.65 470.584 1386.8C469.144 1387.57 467.928 1388.32 466.936 1389.06C465.944 1389.79 465.192 1390.54 464.68 1391.31C464.168 1392.05 463.912 1392.86 463.912 1393.76C463.912 1394.43 464.056 1394.99 464.344 1395.44C464.632 1395.86 465.064 1396.19 465.64 1396.45C466.216 1396.7 466.936 1396.88 467.8 1396.98C468.664 1397.07 469.688 1397.12 470.872 1397.12C472.92 1397.12 475.176 1397.01 477.64 1396.78C480.104 1396.53 482.392 1396.19 484.504 1395.78L484.312 1401.97C483.288 1402.1 481.992 1402.22 480.424 1402.35C478.856 1402.51 477.224 1402.62 475.528 1402.69C473.864 1402.75 472.264 1402.78 470.728 1402.78C468.232 1402.78 465.992 1402.54 464.008 1402.06C462.024 1401.58 460.456 1400.77 459.304 1399.62C458.184 1398.43 457.624 1396.82 457.624 1394.77C457.624 1393.1 457.992 1391.6 458.728 1390.26C459.496 1388.91 460.504 1387.7 461.752 1386.61C463 1385.52 464.36 1384.54 465.832 1383.68C467.336 1382.78 468.808 1381.97 470.248 1381.23C471.72 1380.46 473.048 1379.81 474.232 1379.26C475.416 1378.72 476.52 1378.24 477.544 1377.82C478.6 1377.38 479.608 1376.93 480.568 1376.48C481.496 1376.06 482.392 1375.66 483.256 1375.28C484.12 1374.86 485 1374.43 485.896 1373.98L488.296 1379.55Z" fill="black"/>
<path d="M417.88 1359.2H423.736V1398.8C423.736 1400.21 423.544 1401.27 423.16 1401.97C422.776 1402.68 422.12 1403.24 421.192 1403.65C420.264 1404 419.112 1404.23 417.736 1404.32C416.392 1404.42 414.696 1404.47 412.648 1404.47C412.52 1403.8 412.264 1403.01 411.88 1402.12C411.496 1401.25 411.112 1400.52 410.728 1399.91C411.528 1399.94 412.328 1399.97 413.128 1400C413.928 1400 414.648 1400 415.288 1400C415.96 1400 416.424 1400 416.68 1400C417.128 1399.97 417.432 1399.88 417.592 1399.72C417.784 1399.56 417.88 1399.25 417.88 1398.8V1359.2ZM399.928 1362.37H442.168V1366.88H399.928V1362.37ZM410.344 1372.5V1374.76H431.512V1372.5H410.344ZM404.824 1368.85H437.416V1378.4H404.824V1368.85ZM403.672 1380.56H438.232V1399.33H432.376V1384.45H403.672V1380.56ZM398.824 1386.52H443.272V1390.88H398.824V1386.52ZM403.288 1393.09H435.544V1397.27H403.288V1393.09Z" fill="black"/>
<path d="M372.808 1364.14C371.432 1365.74 369.72 1367.36 367.672 1368.99C365.624 1370.62 363.384 1372.17 360.952 1373.65C358.52 1375.09 356.024 1376.37 353.464 1377.49C353.24 1377.04 352.936 1376.53 352.552 1375.95C352.168 1375.34 351.768 1374.77 351.352 1374.22C350.936 1373.65 350.52 1373.15 350.104 1372.73C352.76 1371.71 355.336 1370.45 357.832 1368.94C360.328 1367.44 362.6 1365.84 364.648 1364.14C366.696 1362.41 368.36 1360.72 369.64 1359.05H375.448C376.792 1360.59 378.264 1362.03 379.864 1363.37C381.496 1364.69 383.192 1365.9 384.952 1367.02C386.712 1368.14 388.52 1369.15 390.376 1370.05C392.264 1370.91 394.152 1371.65 396.04 1372.25C395.368 1372.96 394.712 1373.77 394.072 1374.7C393.432 1375.63 392.872 1376.51 392.392 1377.34C390.088 1376.35 387.704 1375.15 385.24 1373.74C382.776 1372.3 380.456 1370.75 378.28 1369.09C376.104 1367.42 374.28 1365.77 372.808 1364.14ZM362.248 1379.41H383.368V1383.53H362.248V1379.41ZM369.928 1368.75H375.88V1375.23H369.928V1368.75ZM353.656 1398.56C355.48 1398.4 357.528 1398.24 359.8 1398.08C362.104 1397.89 364.52 1397.69 367.048 1397.5C369.576 1397.28 372.088 1397.05 374.584 1396.83L374.68 1401.92C372.312 1402.14 369.912 1402.37 367.48 1402.59C365.08 1402.85 362.76 1403.07 360.52 1403.26C358.312 1403.49 356.28 1403.68 354.424 1403.84L353.656 1398.56ZM374.488 1388.91C376.216 1391.82 378.824 1394.14 382.312 1395.87C385.832 1397.57 390.088 1398.7 395.08 1399.28C394.696 1399.69 394.28 1400.19 393.832 1400.77C393.384 1401.37 392.968 1401.98 392.584 1402.59C392.2 1403.23 391.88 1403.81 391.624 1404.32C388.072 1403.74 384.904 1402.85 382.12 1401.63C379.336 1400.41 376.92 1398.88 374.872 1397.02C372.824 1395.13 371.08 1392.86 369.64 1390.21L374.488 1388.91ZM388.648 1387.9L392.824 1391.36C391.608 1392.19 390.312 1393.02 388.936 1393.85C387.56 1394.65 386.184 1395.41 384.808 1396.11C383.432 1396.78 382.136 1397.39 380.92 1397.93L377.512 1394.81C378.696 1394.24 379.96 1393.57 381.304 1392.8C382.648 1392 383.976 1391.18 385.288 1390.35C386.6 1389.49 387.72 1388.67 388.648 1387.9ZM362.248 1372.4H387.256V1390.64H362.248V1386.17H381.4V1376.91H362.248V1372.4ZM358.648 1372.4H364.36V1399.23L358.648 1399.81V1372.4Z" fill="black"/>
<path d="M321.928 1361.02C321.896 1361.28 321.848 1361.68 321.784 1362.22C321.72 1362.74 321.656 1363.26 321.592 1363.81C321.56 1364.32 321.528 1364.78 321.496 1365.2C321.432 1366.13 321.368 1367.15 321.304 1368.27C321.272 1369.36 321.24 1370.5 321.208 1371.68C321.176 1372.83 321.144 1374 321.112 1375.18C321.112 1376.37 321.112 1377.52 321.112 1378.64C321.112 1379.95 321.128 1381.41 321.16 1383.01C321.192 1384.58 321.224 1386.14 321.256 1387.71C321.32 1389.25 321.352 1390.66 321.352 1391.94C321.384 1393.22 321.4 1394.21 321.4 1394.91C321.4 1396.9 321.176 1398.43 320.728 1399.52C320.312 1400.61 319.704 1401.36 318.904 1401.78C318.104 1402.22 317.176 1402.45 316.12 1402.45C314.968 1402.45 313.736 1402.21 312.424 1401.73C311.112 1401.28 309.88 1400.64 308.728 1399.81C307.608 1398.98 306.68 1398.02 305.944 1396.93C305.24 1395.81 304.888 1394.61 304.888 1393.33C304.888 1391.79 305.464 1390.27 306.616 1388.77C307.8 1387.23 309.352 1385.82 311.272 1384.54C313.224 1383.26 315.32 1382.24 317.56 1381.47C319.704 1380.67 321.912 1380.1 324.184 1379.74C326.456 1379.36 328.504 1379.17 330.328 1379.17C332.792 1379.17 335.016 1379.58 337 1380.42C338.984 1381.22 340.568 1382.4 341.752 1383.97C342.936 1385.54 343.528 1387.42 343.528 1389.63C343.528 1391.49 343.176 1393.2 342.472 1394.77C341.768 1396.34 340.632 1397.7 339.064 1398.85C337.528 1399.97 335.48 1400.85 332.92 1401.49C331.832 1401.71 330.744 1401.87 329.656 1401.97C328.6 1402.1 327.592 1402.19 326.632 1402.26L324.424 1396.06C325.512 1396.06 326.552 1396.05 327.544 1396.02C328.568 1395.95 329.496 1395.86 330.328 1395.73C331.64 1395.47 332.824 1395.09 333.88 1394.58C334.936 1394.06 335.768 1393.39 336.376 1392.56C336.984 1391.73 337.288 1390.74 337.288 1389.58C337.288 1388.5 336.984 1387.57 336.376 1386.8C335.8 1386.03 334.984 1385.44 333.928 1385.02C332.872 1384.61 331.64 1384.4 330.232 1384.4C328.216 1384.4 326.168 1384.61 324.088 1385.02C322.04 1385.44 320.072 1386.02 318.184 1386.75C316.776 1387.3 315.512 1387.94 314.392 1388.67C313.272 1389.38 312.392 1390.11 311.752 1390.88C311.112 1391.65 310.792 1392.38 310.792 1393.09C310.792 1393.47 310.904 1393.84 311.128 1394.19C311.384 1394.51 311.704 1394.8 312.088 1395.06C312.472 1395.31 312.856 1395.52 313.24 1395.68C313.656 1395.81 314.008 1395.87 314.296 1395.87C314.744 1395.87 315.112 1395.74 315.4 1395.49C315.688 1395.2 315.832 1394.66 315.832 1393.86C315.832 1392.99 315.8 1391.76 315.736 1390.16C315.704 1388.53 315.656 1386.72 315.592 1384.74C315.56 1382.75 315.544 1380.78 315.544 1378.83C315.544 1377.49 315.544 1376.13 315.544 1374.75C315.576 1373.38 315.592 1372.06 315.592 1370.82C315.592 1369.57 315.592 1368.46 315.592 1367.5C315.624 1366.54 315.64 1365.79 315.64 1365.25C315.64 1364.9 315.624 1364.45 315.592 1363.9C315.56 1363.36 315.512 1362.82 315.448 1362.27C315.416 1361.7 315.368 1361.28 315.304 1361.02H321.928ZM335.608 1366.21C336.824 1366.78 338.184 1367.49 339.688 1368.32C341.224 1369.15 342.68 1369.98 344.056 1370.82C345.464 1371.62 346.584 1372.34 347.416 1372.98L344.536 1377.87C343.928 1377.36 343.128 1376.78 342.136 1376.14C341.176 1375.5 340.12 1374.85 338.968 1374.18C337.848 1373.5 336.76 1372.88 335.704 1372.3C334.648 1371.7 333.736 1371.22 332.968 1370.86L335.608 1366.21ZM306.184 1368.85C307.592 1369.01 308.824 1369.12 309.88 1369.18C310.968 1369.22 311.944 1369.23 312.808 1369.23C314.056 1369.23 315.432 1369.18 316.936 1369.09C318.44 1368.96 319.976 1368.8 321.544 1368.61C323.112 1368.38 324.632 1368.13 326.104 1367.84C327.608 1367.55 328.968 1367.23 330.184 1366.88L330.328 1372.83C328.984 1373.15 327.528 1373.44 325.96 1373.7C324.392 1373.92 322.808 1374.13 321.208 1374.32C319.64 1374.51 318.136 1374.66 316.696 1374.75C315.288 1374.85 314.056 1374.9 313 1374.9C311.4 1374.9 310.088 1374.88 309.064 1374.85C308.04 1374.82 307.112 1374.75 306.28 1374.66L306.184 1368.85Z" fill="black"/>
<path d="M679.027 1168.72H687.831V1178.87H679.027V1168.72ZM653.396 1174.33H713.888V1190.3H705.155V1182.07H661.774V1190.3H653.396V1174.33ZM664.259 1186.54H702.599V1193.78H664.259V1186.54ZM671.146 1199.25L677.749 1195.41C681.109 1197.73 683.807 1200.34 685.843 1203.22C687.878 1206.06 689.369 1208.98 690.316 1211.96C691.262 1214.89 691.712 1217.73 691.665 1220.48C691.617 1223.18 691.168 1225.59 690.316 1227.72C689.464 1229.8 688.257 1231.41 686.695 1232.55C685.369 1233.68 684.044 1234.46 682.719 1234.89C681.441 1235.32 679.855 1235.53 677.962 1235.53C677.11 1235.58 676.163 1235.58 675.122 1235.53C674.08 1235.48 673.015 1235.44 671.927 1235.39C671.879 1234.2 671.666 1232.83 671.288 1231.27C670.909 1229.76 670.317 1228.41 669.513 1227.22C670.838 1227.32 672.069 1227.41 673.205 1227.51C674.388 1227.55 675.429 1227.58 676.329 1227.58C677.228 1227.58 678.033 1227.48 678.743 1227.29C679.453 1227.1 680.092 1226.7 680.66 1226.09C681.512 1225.42 682.127 1224.41 682.506 1223.03C682.932 1221.61 683.074 1219.96 682.932 1218.06C682.837 1216.12 682.364 1214.09 681.512 1211.96C680.707 1209.78 679.453 1207.6 677.749 1205.43C676.092 1203.25 673.891 1201.19 671.146 1199.25ZM682.435 1188.39L689.464 1191.37C686.955 1193.92 683.926 1196.24 680.376 1198.33C676.826 1200.36 673.039 1202.16 669.016 1203.72C665.04 1205.28 661.087 1206.59 657.159 1207.63C656.875 1207.06 656.472 1206.37 655.952 1205.57C655.431 1204.72 654.887 1203.86 654.319 1203.01C653.751 1202.16 653.23 1201.47 652.757 1200.95C656.591 1200.2 660.377 1199.23 664.117 1198.04C667.903 1196.86 671.382 1195.46 674.554 1193.85C677.725 1192.2 680.352 1190.37 682.435 1188.39ZM676.897 1202.51L682.364 1206.35C680.423 1207.86 678.056 1209.43 675.264 1211.03C672.471 1212.64 669.56 1214.14 666.531 1215.51C663.549 1216.88 660.732 1218.04 658.082 1218.99C657.608 1218.04 656.969 1216.93 656.165 1215.65C655.36 1214.37 654.579 1213.33 653.822 1212.53C655.715 1212.05 657.727 1211.46 659.857 1210.75C662.034 1209.99 664.164 1209.17 666.247 1208.27C668.377 1207.37 670.365 1206.44 672.211 1205.5C674.057 1204.5 675.619 1203.51 676.897 1202.51ZM682.648 1209.33L688.47 1213.66C686.576 1215.46 684.328 1217.26 681.725 1219.06C679.169 1220.86 676.4 1222.58 673.418 1224.24C670.483 1225.85 667.501 1227.34 664.472 1228.71C661.442 1230.09 658.531 1231.25 655.739 1232.19C655.218 1231.1 654.532 1229.9 653.68 1228.57C652.875 1227.2 652.07 1226.04 651.266 1225.09C654.058 1224.43 656.946 1223.53 659.928 1222.39C662.91 1221.26 665.821 1219.98 668.661 1218.56C671.501 1217.14 674.128 1215.65 676.542 1214.09C678.956 1212.48 680.991 1210.89 682.648 1209.33ZM693.369 1189.59C694.552 1194.56 696.161 1199.23 698.197 1203.58C700.232 1207.93 702.764 1211.77 705.794 1215.08C708.87 1218.4 712.515 1221 716.728 1222.89C716.112 1223.46 715.426 1224.17 714.669 1225.02C713.911 1225.87 713.178 1226.77 712.468 1227.72C711.805 1228.67 711.237 1229.52 710.764 1230.28C706.314 1227.86 702.504 1224.74 699.333 1220.9C696.161 1217.02 693.534 1212.57 691.452 1207.56C689.369 1202.49 687.641 1197 686.269 1191.08L693.369 1189.59ZM707.285 1194.21L713.888 1199.96C712.278 1201.19 710.551 1202.44 708.705 1203.72C706.859 1204.95 705.036 1206.11 703.238 1207.2C701.439 1208.24 699.759 1209.19 698.197 1210.04L692.801 1204.86C694.268 1204.01 695.877 1202.99 697.629 1201.8C699.427 1200.57 701.179 1199.3 702.883 1197.97C704.587 1196.65 706.054 1195.39 707.285 1194.21Z" fill="black"/>
<path d="M646.225 1225.31C644.568 1226.83 642.651 1228.08 640.474 1229.07C638.297 1230.07 635.764 1230.56 632.877 1230.56C630.226 1230.56 628.073 1229.64 626.416 1227.8C624.807 1225.95 624.002 1223.3 624.002 1219.84C624.002 1217.95 624.12 1215.92 624.357 1213.74C624.641 1211.51 624.949 1209.29 625.28 1207.06C625.611 1204.84 625.895 1202.73 626.132 1200.74C626.416 1198.71 626.558 1196.89 626.558 1195.28C626.558 1193.53 626.132 1192.22 625.28 1191.37C624.428 1190.47 623.245 1190.02 621.73 1190.02C620.073 1190.02 618.227 1190.62 616.192 1191.8C614.157 1192.93 612.074 1194.4 609.944 1196.2C607.814 1198 605.779 1199.92 603.838 1201.95C601.945 1203.99 600.288 1205.93 598.868 1207.77L598.797 1196.84C599.649 1195.89 600.761 1194.78 602.134 1193.5C603.554 1192.22 605.14 1190.9 606.891 1189.53C608.69 1188.15 610.559 1186.88 612.5 1185.69C614.488 1184.46 616.476 1183.47 618.464 1182.71C620.499 1181.95 622.464 1181.57 624.357 1181.57C626.913 1181.57 628.996 1182.05 630.605 1182.99C632.262 1183.89 633.492 1185.15 634.297 1186.76C635.102 1188.32 635.504 1190.09 635.504 1192.08C635.504 1193.93 635.386 1195.94 635.149 1198.12C634.912 1200.25 634.628 1202.43 634.297 1204.65C633.966 1206.87 633.682 1209.08 633.445 1211.25C633.256 1213.43 633.161 1215.42 633.161 1217.22C633.161 1218.16 633.398 1218.94 633.871 1219.56C634.344 1220.13 635.007 1220.41 635.859 1220.41C637.184 1220.41 638.652 1219.99 640.261 1219.13C641.87 1218.23 643.48 1216.96 645.089 1215.3L646.225 1225.31ZM597.164 1191.44C596.407 1191.54 595.436 1191.66 594.253 1191.8C593.07 1191.94 591.792 1192.11 590.419 1192.3C589.094 1192.49 587.745 1192.67 586.372 1192.86C584.999 1193.05 583.721 1193.22 582.538 1193.36L581.615 1184.27C582.656 1184.32 583.627 1184.34 584.526 1184.34C585.473 1184.3 586.561 1184.25 587.792 1184.2C588.928 1184.11 590.277 1183.99 591.839 1183.85C593.448 1183.66 595.058 1183.44 596.667 1183.21C598.324 1182.97 599.862 1182.71 601.282 1182.43C602.702 1182.14 603.814 1181.86 604.619 1181.57L607.459 1185.2C607.033 1185.76 606.536 1186.47 605.968 1187.33C605.447 1188.18 604.903 1189.05 604.335 1189.95C603.767 1190.8 603.27 1191.56 602.844 1192.22L598.655 1205.57C597.898 1206.66 596.951 1208.03 595.815 1209.69C594.726 1211.35 593.567 1213.1 592.336 1214.94C591.105 1216.79 589.898 1218.57 588.715 1220.27C587.532 1221.97 586.467 1223.46 585.52 1224.74L579.911 1217C580.81 1215.87 581.828 1214.57 582.964 1213.1C584.147 1211.58 585.378 1210 586.656 1208.34C587.934 1206.64 589.188 1204.96 590.419 1203.3C591.65 1201.6 592.786 1200.01 593.827 1198.54C594.916 1197.03 595.815 1195.73 596.525 1194.64L596.667 1192.79L597.164 1191.44ZM596.312 1177.81C596.312 1176.77 596.312 1175.73 596.312 1174.69C596.312 1173.6 596.217 1172.51 596.028 1171.42L606.394 1171.78C606.11 1172.87 605.802 1174.45 605.471 1176.53C605.187 1178.57 604.879 1180.91 604.548 1183.56C604.264 1186.21 603.98 1189.01 603.696 1191.94C603.459 1194.83 603.246 1197.72 603.057 1200.6C602.915 1203.49 602.844 1206.19 602.844 1208.7C602.844 1210.64 602.844 1212.6 602.844 1214.59C602.891 1216.58 602.939 1218.61 602.986 1220.7C603.033 1222.78 603.128 1224.93 603.27 1227.16C603.317 1227.77 603.388 1228.62 603.483 1229.71C603.578 1230.85 603.672 1231.82 603.767 1232.62H593.969C594.064 1231.77 594.111 1230.83 594.111 1229.78C594.158 1228.74 594.182 1227.94 594.182 1227.37C594.229 1225.05 594.277 1222.9 594.324 1220.91C594.371 1218.92 594.395 1216.81 594.395 1214.59C594.442 1212.37 594.513 1209.79 594.608 1206.85C594.655 1205.76 594.726 1204.39 594.821 1202.73C594.916 1201.03 595.01 1199.18 595.105 1197.19C595.247 1195.16 595.389 1193.1 595.531 1191.02C595.673 1188.94 595.791 1186.99 595.886 1185.2C596.028 1183.35 596.123 1181.79 596.17 1180.51C596.265 1179.18 596.312 1178.29 596.312 1177.81Z" fill="black"/>
<path d="M559.108 1174.69C559.439 1176.91 559.913 1179.28 560.528 1181.79C561.143 1184.25 561.995 1186.78 563.084 1189.38C564.22 1191.99 565.687 1194.59 567.486 1197.19C569.285 1199.8 571.533 1202.35 574.231 1204.86L568.48 1213.1C565.924 1210.16 563.557 1206.92 561.38 1203.37C559.203 1199.77 557.191 1195.8 555.345 1191.44C553.499 1187.09 551.748 1182.33 550.091 1177.17L559.108 1174.69ZM512.248 1178.24C513.526 1178.33 514.875 1178.33 516.295 1178.24C517.999 1178.14 519.916 1178 522.046 1177.81C524.223 1177.57 526.424 1177.29 528.649 1176.96C530.921 1176.63 533.004 1176.27 534.897 1175.89C536.838 1175.52 538.4 1175.11 539.583 1174.69L542.21 1182.57C541.689 1182.76 541.098 1182.99 540.435 1183.28C539.772 1183.52 539.181 1183.8 538.66 1184.13C537.666 1184.89 536.53 1185.91 535.252 1187.18C534.021 1188.46 532.743 1189.98 531.418 1191.73C530.14 1193.48 528.957 1195.44 527.868 1197.62C526.779 1199.75 525.904 1202.07 525.241 1204.58C524.578 1207.04 524.247 1209.64 524.247 1212.39C524.247 1214.47 524.555 1216.25 525.17 1217.71C525.785 1219.18 526.637 1220.39 527.726 1221.33C528.862 1222.23 530.164 1222.9 531.631 1223.32C533.098 1223.75 534.684 1223.96 536.388 1223.96C541.784 1223.96 545.902 1222.12 548.742 1218.42C551.582 1214.73 553.191 1209.52 553.57 1202.8C553.949 1196.08 553.073 1188.2 550.943 1179.16L559.321 1192.72C560.126 1196.56 560.575 1200.41 560.67 1204.29C560.812 1208.18 560.481 1211.87 559.676 1215.37C558.919 1218.83 557.593 1221.93 555.7 1224.67C553.854 1227.42 551.322 1229.57 548.103 1231.13C544.932 1232.74 540.956 1233.55 536.175 1233.55C533.335 1233.55 530.637 1233.14 528.081 1232.34C525.572 1231.53 523.324 1230.35 521.336 1228.79C519.395 1227.23 517.857 1225.24 516.721 1222.83C515.632 1220.41 515.088 1217.6 515.088 1214.38C515.088 1211.49 515.372 1208.77 515.94 1206.21C516.508 1203.66 517.289 1201.22 518.283 1198.9C519.324 1196.58 520.531 1194.33 521.904 1192.15C523.324 1189.98 524.862 1187.85 526.519 1185.76C525.62 1185.86 524.555 1185.98 523.324 1186.12C522.141 1186.21 521.005 1186.33 519.916 1186.47C518.827 1186.62 517.928 1186.73 517.218 1186.83C516.461 1186.92 515.751 1187.02 515.088 1187.11C514.473 1187.21 513.763 1187.33 512.958 1187.47L512.248 1178.24Z" fill="black"/>
<path d="M467.802 1172.91C467.565 1173.81 467.329 1174.8 467.092 1175.89C466.903 1176.93 466.713 1177.9 466.524 1178.8C466.335 1179.84 466.098 1181.03 465.814 1182.35C465.53 1183.63 465.246 1184.93 464.962 1186.26C464.725 1187.53 464.465 1188.79 464.181 1190.02C463.708 1192.06 463.116 1194.42 462.406 1197.12C461.696 1199.82 460.868 1202.73 459.921 1205.85C458.974 1208.93 457.909 1212.03 456.726 1215.15C455.543 1218.28 454.288 1221.33 452.963 1224.31C451.638 1227.25 450.218 1229.9 448.703 1232.26L439.473 1228.57C441.13 1226.35 442.668 1223.86 444.088 1221.12C445.555 1218.33 446.881 1215.46 448.064 1212.53C449.247 1209.59 450.289 1206.7 451.188 1203.86C452.135 1201.02 452.939 1198.37 453.602 1195.91C454.265 1193.45 454.785 1191.35 455.164 1189.59C455.827 1186.38 456.347 1183.27 456.726 1180.29C457.105 1177.31 457.27 1174.49 457.223 1171.84L467.802 1172.91ZM492.226 1179.58C493.362 1181.1 494.522 1183.01 495.705 1185.33C496.936 1187.61 498.119 1190.02 499.255 1192.58C500.438 1195.13 501.503 1197.59 502.45 1199.96C503.444 1202.33 504.201 1204.34 504.722 1205.99L495.705 1210.18C495.232 1208.2 494.569 1205.99 493.717 1203.58C492.912 1201.12 491.966 1198.63 490.877 1196.13C489.836 1193.57 488.7 1191.16 487.469 1188.88C486.286 1186.61 485.055 1184.72 483.777 1183.2L492.226 1179.58ZM438.976 1187.46C440.254 1187.56 441.508 1187.61 442.739 1187.61C443.97 1187.56 445.248 1187.51 446.573 1187.46C447.709 1187.42 449.105 1187.35 450.762 1187.25C452.466 1187.11 454.241 1186.97 456.087 1186.82C457.98 1186.68 459.874 1186.54 461.767 1186.4C463.66 1186.21 465.412 1186.07 467.021 1185.97C468.63 1185.88 469.956 1185.83 470.997 1185.83C473.506 1185.83 475.707 1186.26 477.6 1187.11C479.541 1187.91 481.055 1189.31 482.144 1191.3C483.28 1193.29 483.848 1195.98 483.848 1199.39C483.848 1202.18 483.706 1205.21 483.422 1208.48C483.185 1211.75 482.783 1214.87 482.215 1217.85C481.647 1220.83 480.842 1223.37 479.801 1225.45C478.665 1227.91 477.103 1229.61 475.115 1230.56C473.174 1231.51 470.855 1231.98 468.157 1231.98C466.784 1231.98 465.317 1231.86 463.755 1231.63C462.24 1231.44 460.868 1231.22 459.637 1230.99L458.075 1221.61C459.022 1221.85 460.039 1222.09 461.128 1222.32C462.264 1222.56 463.329 1222.75 464.323 1222.89C465.364 1223.03 466.193 1223.11 466.808 1223.11C467.991 1223.11 469.033 1222.89 469.932 1222.47C470.831 1221.99 471.565 1221.19 472.133 1220.05C472.796 1218.68 473.316 1216.91 473.695 1214.73C474.121 1212.55 474.429 1210.21 474.618 1207.7C474.855 1205.14 474.973 1202.71 474.973 1200.39C474.973 1198.49 474.713 1197.1 474.192 1196.2C473.671 1195.3 472.89 1194.71 471.849 1194.42C470.855 1194.09 469.601 1193.92 468.086 1193.92C467.045 1193.92 465.577 1194.02 463.684 1194.21C461.838 1194.35 459.874 1194.54 457.791 1194.78C455.708 1194.97 453.744 1195.18 451.898 1195.42C450.099 1195.65 448.703 1195.82 447.709 1195.91C446.715 1196.1 445.413 1196.32 443.804 1196.55C442.242 1196.74 440.917 1196.93 439.828 1197.12L438.976 1187.46Z" fill="black"/>
<path d="M397.228 1189.17C398.08 1188.55 398.908 1187.96 399.713 1187.4C400.565 1186.78 401.227 1186.28 401.701 1185.9C400.707 1185.19 399.429 1184.44 397.867 1183.63C396.305 1182.78 394.624 1181.95 392.826 1181.15C391.074 1180.3 389.299 1179.56 387.501 1178.95L392.755 1172.41C394.743 1173.12 396.825 1173.95 399.003 1174.9C401.227 1175.8 403.381 1176.77 405.464 1177.81C407.594 1178.85 409.463 1179.87 411.073 1180.86L413.203 1186.4C412.729 1186.83 412.067 1187.37 411.215 1188.03C410.41 1188.7 409.487 1189.43 408.446 1190.24C407.452 1191.04 406.458 1191.82 405.464 1192.58C404.517 1193.29 403.689 1193.88 402.979 1194.35L397.228 1189.17ZM385.158 1221.9C387.098 1222.47 388.968 1222.9 390.767 1223.18C392.613 1223.46 394.388 1223.61 396.092 1223.61C397.322 1223.61 398.387 1223.46 399.287 1223.18C400.233 1222.85 400.967 1222.33 401.488 1221.62C402.008 1220.91 402.269 1220.01 402.269 1218.92C402.269 1217.88 401.985 1216.72 401.417 1215.44C400.896 1214.16 400.21 1212.88 399.358 1211.61C398.553 1210.33 397.677 1209.12 396.731 1207.99C395.831 1206.85 394.979 1205.88 394.175 1205.07C393.275 1204.17 392.258 1203.25 391.122 1202.31C389.986 1201.31 388.802 1200.36 387.572 1199.47L394.53 1193.64C395.618 1194.73 396.612 1195.73 397.512 1196.63C398.458 1197.52 399.381 1198.45 400.281 1199.39C402.837 1201.95 404.99 1204.39 406.742 1206.71C408.493 1208.98 409.818 1211.23 410.718 1213.45C411.664 1215.63 412.138 1217.81 412.138 1219.98C412.138 1222.35 411.735 1224.34 410.931 1225.95C410.173 1227.51 409.132 1228.76 407.807 1229.71C406.481 1230.66 404.967 1231.32 403.263 1231.7C401.559 1232.13 399.807 1232.34 398.009 1232.34C396.021 1232.34 394.033 1232.22 392.045 1231.98C390.057 1231.79 388.211 1231.56 386.507 1231.27L385.158 1221.9ZM424.492 1227.37C424.066 1225.57 423.474 1223.63 422.717 1221.55C421.959 1219.46 421.06 1217.36 420.019 1215.23C419.025 1213.1 417.96 1211.06 416.824 1209.12C415.688 1207.18 414.528 1205.45 413.345 1203.94L421.013 1199.89C422.101 1201.22 423.237 1202.85 424.421 1204.79C425.604 1206.68 426.74 1208.72 427.829 1210.9C428.965 1213.03 429.982 1215.13 430.882 1217.22C431.828 1219.25 432.562 1221.1 433.083 1222.75L424.492 1227.37ZM389.489 1213.88C388.163 1215.25 386.578 1216.79 384.732 1218.49C382.886 1220.15 380.827 1221.85 378.555 1223.61C376.33 1225.31 373.94 1226.94 371.384 1228.5L365.988 1220.84C367.55 1220.03 369.159 1219.08 370.816 1218C372.472 1216.86 374.105 1215.65 375.715 1214.38C377.371 1213.1 378.91 1211.84 380.33 1210.61C381.797 1209.33 383.051 1208.1 384.093 1206.92L389.489 1213.88Z" fill="black"/>
</svg>
