<svg width="1080" height="1920" viewBox="0 0 1080 1920" fill="none" xmlns="http://www.w3.org/2000/svg">
<path d="M1080 1920L1080 0L0 0L0 1920H1080Z" fill="#A5D4AD"/>
<path d="M1020 983.72V95C1020 75.67 1004.33 60 985 60H95.58C75.93 60 60 75.93 60 95.58V983.71C60 984.03 60.25 984.28 60.57 984.28C80.03 984.59 95.71 1000.46 95.71 1019.99C95.71 1039.52 80.03 1055.39 60.57 1055.7C60.25 1055.7 60 1055.96 60 1056.27V1824.99C60 1844.32 75.67 1859.99 95 1859.99H985C1004.33 1859.99 1020 1844.32 1020 1824.99V1056.27C1020 1055.95 1019.75 1055.7 1019.43 1055.7C999.97 1055.39 984.29 1039.52 984.29 1019.99C984.29 1000.46 999.97 984.59 1019.43 984.28C1019.75 984.28 1020 984.02 1020 983.71V983.72Z" fill="white"/>
<path d="M60.57 1055.71C60.25 1055.71 60 1055.97 60 1056.28V1825C60 1844.33 75.67 1860 95 1860H985C1004.33 1860 1020 1844.33 1020 1825V1056.28C1020 1055.96 1019.75 1055.71 1019.43 1055.71C999.97 1055.4 984.29 1039.53 984.29 1020H95.71C95.71 1039.53 80.03 1055.4 60.57 1055.71Z" fill="#E5F2E6"/>
<path d="M121 1020H160.9" stroke="black" stroke-width="6" stroke-miterlimit="10"/>
<path d="M187.51 1020H227.41" stroke="black" stroke-width="6" stroke-miterlimit="10"/>
<path d="M254.02 1020H293.92" stroke="black" stroke-width="6" stroke-miterlimit="10"/>
<path d="M320.52 1020H360.43" stroke="black" stroke-width="6" stroke-miterlimit="10"/>
<path d="M387.03 1020H426.94" stroke="black" stroke-width="6" stroke-miterlimit="10"/>
<path d="M453.54 1020H493.44" stroke="black" stroke-width="6" stroke-miterlimit="10"/>
<path d="M520.05 1020H559.95" stroke="black" stroke-width="6" stroke-miterlimit="10"/>
<path d="M586.56 1020H626.46" stroke="black" stroke-width="6" stroke-miterlimit="10"/>
<path d="M653.06 1020H692.97" stroke="black" stroke-width="6" stroke-miterlimit="10"/>
<path d="M719.57 1020H759.48" stroke="black" stroke-width="6" stroke-miterlimit="10"/>
<path d="M786.08 1020H825.98" stroke="black" stroke-width="6" stroke-miterlimit="10"/>
<path d="M852.59 1020H892.49" stroke="black" stroke-width="6" stroke-miterlimit="10"/>
<path d="M919.1 1020H959" stroke="black" stroke-width="6" stroke-miterlimit="10"/>
<path d="M1020 984.29V95C1020 75.67 1004.33 60 985 60H95C75.67 60 60 75.67 60 95V984.29C79.72 984.29 95.71 1000.28 95.71 1020C95.71 1039.72 79.72 1055.71 60 1055.71V1825C60 1844.33 75.67 1860 95 1860H985C1004.33 1860 1020 1844.33 1020 1825V1055.71C1000.28 1055.71 984.29 1039.72 984.29 1020C984.29 1000.28 1000.28 984.29 1020 984.29Z" stroke="black" stroke-width="6" stroke-miterlimit="10"/>
<path d="M912.649 525.666C908.779 525.666 905.539 522.646 905.319 518.736C900.589 435.626 868.789 358.856 813.369 296.746C810.669 293.716 810.929 289.066 813.959 286.366C816.989 283.666 821.629 283.926 824.339 286.956C881.999 351.576 915.069 431.436 919.999 517.896C920.229 521.946 917.129 525.426 913.079 525.656C912.939 525.656 912.799 525.666 912.659 525.666H912.649Z" fill="black"/>
<path d="M818.849 795.517C817.109 795.517 815.359 794.897 813.959 793.647C810.929 790.947 810.669 786.297 813.369 783.267C868.789 721.157 900.589 644.387 905.319 561.277C905.549 557.227 909.029 554.117 913.079 554.357C917.129 554.587 920.229 558.057 919.999 562.117C915.069 648.587 881.999 728.447 824.339 793.057C822.889 794.687 820.869 795.517 818.849 795.517Z" fill="black"/>
<path d="M167.36 525.666C167.22 525.666 167.08 525.666 166.94 525.656C162.89 525.426 159.79 521.956 160.02 517.896C164.95 431.426 198.02 351.566 255.68 286.956C258.38 283.926 263.03 283.666 266.06 286.366C269.09 289.066 269.35 293.716 266.65 296.746C211.23 358.856 179.43 435.616 174.7 518.736C174.48 522.646 171.24 525.666 167.37 525.666H167.36Z" fill="black"/>
<path d="M261.17 795.517C259.15 795.517 257.13 794.687 255.68 793.057C198.02 728.437 164.95 648.577 160.02 562.117C159.79 558.067 162.89 554.587 166.94 554.357C170.99 554.117 174.47 557.227 174.7 561.277C179.43 644.397 211.23 721.157 266.65 783.267C269.35 786.297 269.09 790.947 266.06 793.647C264.66 794.897 262.91 795.517 261.17 795.517Z" fill="black"/>
<path d="M788.169 268.511C786.429 268.511 784.679 267.891 783.279 266.641C721.169 211.221 644.399 179.421 561.289 174.691C557.239 174.461 554.139 170.991 554.369 166.931C554.599 162.881 558.039 159.791 562.129 160.011C648.599 164.941 728.459 198.011 793.069 255.671C796.099 258.371 796.359 263.021 793.659 266.051C792.209 267.681 790.189 268.511 788.169 268.511Z" fill="black"/>
<path d="M291.85 268.512C289.83 268.512 287.81 267.682 286.36 266.052C283.66 263.022 283.92 258.372 286.95 255.672C351.57 198.012 431.43 164.942 517.89 160.012C521.94 159.782 525.42 162.882 525.65 166.932C525.88 170.982 522.78 174.462 518.73 174.692C435.62 179.422 358.85 211.222 296.74 266.642C295.34 267.892 293.59 268.512 291.85 268.512Z" fill="black"/>
<path d="M561.69 920.006C557.82 920.006 554.58 916.986 554.36 913.076C554.13 909.026 557.23 905.546 561.28 905.316C644.4 900.586 721.16 868.786 783.27 813.366C786.3 810.666 790.95 810.926 793.65 813.956C796.35 816.986 796.09 821.636 793.06 824.336C728.44 881.996 648.58 915.066 562.12 919.996C561.98 919.996 561.84 920.006 561.7 920.006H561.69Z" fill="black"/>
<path d="M518.319 920.006C518.179 920.006 518.04 920.006 517.9 919.996C431.43 915.066 351.569 881.996 286.959 824.336C283.929 821.636 283.669 816.986 286.369 813.956C289.069 810.926 293.719 810.666 296.749 813.366C358.859 868.786 435.629 900.586 518.739 905.316C522.789 905.546 525.889 909.016 525.659 913.076C525.439 916.986 522.199 920.006 518.329 920.006H518.319Z" fill="black"/>
<path d="M875.38 526.189C872.37 526.189 869.85 523.839 869.68 520.799C865.41 445.789 836.71 376.519 786.7 320.459C784.6 318.099 784.8 314.489 787.16 312.389C789.51 310.289 793.13 310.489 795.23 312.849C846.98 370.849 876.68 442.539 881.1 520.149C881.28 523.299 878.87 525.999 875.72 526.179C875.61 526.179 875.5 526.179 875.39 526.179L875.38 526.189Z" fill="black"/>
<path d="M790.96 769.062C789.6 769.062 788.25 768.582 787.16 767.612C784.8 765.512 784.6 761.892 786.7 759.542C836.71 703.492 865.41 634.212 869.68 559.202C869.86 556.052 872.55 553.642 875.71 553.822C878.86 554.002 881.27 556.702 881.09 559.852C876.67 637.472 846.98 709.152 795.22 767.152C794.09 768.422 792.52 769.062 790.95 769.062H790.96Z" fill="black"/>
<path d="M204.63 526.187C204.52 526.187 204.41 526.187 204.3 526.187C201.15 526.007 198.74 523.307 198.92 520.157C203.34 442.537 233.03 370.857 284.79 312.857C286.89 310.497 290.51 310.297 292.86 312.397C295.22 314.497 295.42 318.117 293.32 320.467C243.31 376.517 214.61 445.797 210.34 520.807C210.17 523.847 207.65 526.197 204.64 526.197L204.63 526.187Z" fill="black"/>
<path d="M289.05 769.055C287.48 769.055 285.91 768.405 284.78 767.145C233.03 709.145 203.33 637.455 198.91 559.845C198.73 556.695 201.14 553.995 204.29 553.815C207.45 553.625 210.14 556.045 210.32 559.195C214.59 634.205 243.29 703.485 293.3 759.535C295.4 761.895 295.2 765.505 292.84 767.605C291.75 768.575 290.39 769.055 289.04 769.055H289.05Z" fill="black"/>
<path d="M763.35 294.756C761.99 294.756 760.64 294.276 759.55 293.306C703.5 243.296 634.22 214.596 559.21 210.326C556.06 210.146 553.65 207.446 553.83 204.296C554.01 201.146 556.7 198.736 559.86 198.916C637.48 203.336 709.16 233.026 767.16 284.786C769.52 286.886 769.72 290.506 767.62 292.856C766.49 294.126 764.92 294.766 763.35 294.766V294.756Z" fill="black"/>
<path d="M316.66 294.759C315.09 294.759 313.52 294.109 312.39 292.849C310.29 290.489 310.49 286.879 312.85 284.779C370.85 233.029 442.54 203.329 520.15 198.909C523.3 198.719 526 201.139 526.18 204.289C526.36 207.439 523.95 210.139 520.8 210.319C445.79 214.589 376.52 243.289 320.46 293.299C319.37 294.269 318.01 294.749 316.66 294.749V294.759Z" fill="black"/>
<path d="M559.53 881.102C556.52 881.102 554 878.752 553.83 875.712C553.65 872.562 556.06 869.862 559.21 869.682C634.22 865.412 703.49 836.712 759.55 786.702C761.9 784.602 765.52 784.802 767.62 787.162C769.72 789.522 769.52 793.132 767.16 795.232C709.16 846.982 637.47 876.682 559.86 881.102C559.75 881.102 559.64 881.102 559.53 881.102Z" fill="black"/>
<path d="M520.49 881.102C520.38 881.102 520.27 881.102 520.16 881.102C442.54 876.682 370.86 846.992 312.86 795.232C310.5 793.132 310.3 789.512 312.4 787.162C314.5 784.802 318.12 784.602 320.47 786.702C376.52 836.722 445.8 865.412 520.81 869.682C523.96 869.862 526.37 872.562 526.19 875.712C526.02 878.752 523.5 881.102 520.49 881.102Z" fill="black"/>
<path d="M841.85 526.514C839.7 526.514 837.9 524.834 837.78 522.664C833.92 454.914 808 392.344 762.83 341.714C761.33 340.034 761.48 337.454 763.16 335.944C764.84 334.444 767.42 334.584 768.93 336.274C815.35 388.294 841.98 452.584 845.94 522.194C846.07 524.444 844.35 526.374 842.09 526.504C842.01 526.504 841.93 526.504 841.85 526.504V526.514Z" fill="black"/>
<path d="M765.87 745.106C764.9 745.106 763.93 744.766 763.15 744.066C761.47 742.566 761.32 739.986 762.82 738.296C807.99 687.666 833.91 625.096 837.77 557.346C837.9 555.096 839.86 553.396 842.08 553.496C844.33 553.626 846.05 555.556 845.93 557.806C841.96 627.416 815.33 691.706 768.92 743.726C768.11 744.626 766.99 745.086 765.87 745.086V745.106Z" fill="black"/>
<path d="M238.17 526.516C238.09 526.516 238.01 526.516 237.93 526.516C235.68 526.386 233.96 524.456 234.08 522.206C238.05 452.596 264.68 388.306 311.09 336.286C312.59 334.606 315.17 334.456 316.86 335.956C318.54 337.456 318.69 340.036 317.19 341.726C272.02 392.356 246.1 454.926 242.24 522.676C242.12 524.846 240.32 526.526 238.17 526.526V526.516Z" fill="black"/>
<path d="M314.14 745.103C313.02 745.103 311.9 744.643 311.09 743.743C264.67 691.723 238.04 627.433 234.08 557.823C233.95 555.573 235.67 553.643 237.93 553.513C240.17 553.403 242.11 555.103 242.24 557.363C246.1 625.113 272.02 687.683 317.19 738.313C318.69 739.993 318.54 742.573 316.86 744.083C316.08 744.773 315.11 745.123 314.14 745.123V745.103Z" fill="black"/>
<path d="M741.02 318.225C740.05 318.225 739.08 317.885 738.3 317.185C687.67 272.015 625.1 246.095 557.35 242.235C555.1 242.105 553.38 240.175 553.5 237.925C553.63 235.675 555.55 233.965 557.81 234.075C627.42 238.045 691.71 264.675 743.74 311.085C745.42 312.585 745.57 315.165 744.07 316.855C743.26 317.755 742.14 318.215 741.02 318.215V318.225Z" fill="black"/>
<path d="M339 318.224C337.88 318.224 336.76 317.764 335.95 316.864C334.45 315.184 334.6 312.604 336.28 311.094C388.3 264.674 452.59 238.044 522.2 234.084C524.45 233.964 526.38 235.674 526.51 237.934C526.64 240.184 524.92 242.114 522.66 242.244C454.91 246.104 392.34 272.024 341.71 317.194C340.93 317.884 339.96 318.234 338.99 318.234L339 318.224Z" fill="black"/>
<path d="M557.57 845.933C555.42 845.933 553.62 844.253 553.5 842.083C553.37 839.833 555.09 837.903 557.35 837.773C625.1 833.913 687.67 807.993 738.3 762.823C739.98 761.323 742.56 761.473 744.07 763.153C745.57 764.833 745.42 767.413 743.74 768.923C691.72 815.343 627.43 841.973 557.81 845.933C557.73 845.933 557.65 845.933 557.57 845.933Z" fill="black"/>
<path d="M522.44 845.933C522.36 845.933 522.28 845.933 522.2 845.933C452.59 841.963 388.3 815.333 336.28 768.923C334.6 767.423 334.45 764.843 335.95 763.153C337.45 761.473 340.03 761.323 341.72 762.823C392.35 807.993 454.92 833.913 522.67 837.773C524.92 837.903 526.64 839.833 526.52 842.083C526.4 844.253 524.6 845.933 522.45 845.933H522.44Z" fill="black"/>
<path d="M320.65 546.174C320.65 544.604 321.79 543.274 323.34 543.024C324.64 542.814 326.27 542.524 327.98 542.124C332.4 541.084 337.59 539.114 343.41 536.274C349.29 533.404 354.92 529.414 359.17 523.674C366.34 513.974 367.86 501.404 368.19 496.894C368.26 495.974 367.53 495.194 366.6 495.194H317.09C315.33 495.194 313.91 493.764 313.91 492.014V470.694C313.91 468.934 315.34 467.514 317.09 467.514H367.07C367.95 467.514 368.66 466.804 368.66 465.924V447.184C368.66 446.304 367.95 445.594 367.07 445.594H328.62C326.86 445.594 325.44 444.164 325.44 442.414V421.094C325.44 419.334 326.87 417.914 328.62 417.914H428.96C430.72 417.914 432.14 419.344 432.14 421.094V442.414C432.14 444.174 430.71 445.594 428.96 445.594H398.52C397.64 445.594 396.93 446.304 396.93 447.184V465.924C396.93 466.804 397.64 467.514 398.52 467.514H438.58C440.34 467.514 441.76 468.944 441.76 470.694V492.014C441.76 493.774 440.33 495.194 438.58 495.194H398.39C397.54 495.194 396.84 495.864 396.8 496.714C396.57 501.754 395.15 518.444 386.18 532.854C380.73 541.614 373.65 548.264 366.54 553.544C359.41 558.844 352.26 562.934 345.27 565.704C338.24 568.494 332.34 570.444 327.75 571.514C326.66 571.764 325.49 571.994 324.4 572.184C322.45 572.534 320.66 571.034 320.66 569.044V546.164L320.65 546.174Z" fill="black"/>
<path d="M474.55 546.522C474.55 545.062 475.55 543.792 476.96 543.432C485.21 541.362 488.93 540.112 496.84 536.322C496.84 536.322 500.89 534.212 504.93 531.302C517.11 522.542 525.22 510.632 525.22 510.632C534.68 497.282 537.77 474.912 538.49 468.492C538.6 467.552 537.86 466.722 536.91 466.722H500.58C500.35 466.722 500.14 466.842 500.03 467.042L499.88 467.292C494.3 478.112 486.88 487.992 480.45 494.242C474 500.502 468.59 505.052 464.38 507.752L461.78 509.422C460.72 510.102 459.33 509.342 459.33 508.082V479.892C459.33 478.952 459.75 478.062 460.47 477.452C461.12 476.902 461.99 476.132 463.18 475.062C465.94 472.572 469.05 468.512 472.42 462.982C475.76 457.512 479.35 450.212 483.07 441.292C486.45 433.202 488.98 423.092 490.86 412.062C491.12 410.532 492.45 409.422 494 409.422H513.91C515.91 409.422 517.42 411.252 517.04 413.212C516.4 416.522 515.71 420.882 514.85 424.312C513.58 429.392 512.76 432.302 511.24 436.722C510.98 437.472 511.54 438.242 512.33 438.242H591.18C592.94 438.242 594.36 439.672 594.36 441.422V463.512C594.36 465.272 592.93 466.692 591.18 466.692H568.14C567.33 466.692 566.64 467.302 566.56 468.112C565.93 474.012 562.88 497.162 552.39 517.262C538.29 546.002 508.14 566.392 478.34 572.132C476.38 572.512 474.56 571.002 474.56 569.002V546.482L474.55 546.522Z" fill="black"/>
<path d="M675.9 411.035V468.875C675.9 469.755 676.61 470.465 677.49 470.465H764.52C765.4 470.465 766.11 469.755 766.11 468.875V411.035C766.11 410.155 765.4 409.445 764.52 409.445H677.49C676.61 409.445 675.9 410.155 675.9 411.035ZM738.46 452.745H702.3C701.42 452.745 700.71 452.035 700.71 451.155V446.875C700.71 445.995 701.42 445.285 702.3 445.285H738.46C739.34 445.285 740.05 445.995 740.05 446.875V451.155C740.05 452.035 739.34 452.745 738.46 452.745ZM738.46 434.455H702.3C701.42 434.455 700.71 433.745 700.71 432.865V428.755C700.71 427.875 701.42 427.165 702.3 427.165H738.46C739.34 427.165 740.05 427.875 740.05 428.755V432.865C740.05 433.745 739.34 434.455 738.46 434.455Z" fill="black"/>
<path d="M674.23 497.342H728.27C729.15 497.342 729.86 498.052 729.86 498.932V502.842C729.86 503.722 729.15 504.432 728.27 504.432H667.76C666 504.432 664.58 505.862 664.58 507.612V522.862C664.58 524.622 666.01 526.042 667.76 526.042H728.27C729.15 526.042 729.86 526.752 729.86 527.632V545.392C729.86 546.112 729.94 547.982 729.22 548.852C728.39 549.872 727.15 549.672 725.85 549.722C722.54 549.722 719.58 549.702 716.95 549.662C716.55 549.662 716.26 549.292 716.34 548.902C716.6 547.632 716.73 546.312 716.7 544.962C716.5 535.682 708.94 528.082 699.66 527.842C689.58 527.582 681.37 535.852 681.71 545.942C682.02 555.292 689.79 562.812 699.15 562.842C704.04 562.852 708.46 560.862 711.64 557.642C711.98 557.302 712.55 557.432 712.7 557.882C714.16 562.212 715.54 566.342 716.79 570.052C717.23 571.352 718.46 572.222 719.83 572.212C725.73 572.172 730.51 571.962 734.18 571.602C738.31 571.182 742.09 570.152 745.52 568.502C749.18 566.842 751.69 564.422 753.05 561.232C754.41 558.042 755.09 553.552 755.09 547.762V527.622C755.09 526.742 755.8 526.032 756.68 526.032H762.91C764.67 526.032 766.09 524.602 766.09 522.852V507.602C766.09 505.842 764.66 504.422 762.91 504.422H756.68C755.8 504.422 755.09 503.712 755.09 502.832V498.922C755.09 498.042 755.8 497.332 756.68 497.332H762.91C764.67 497.332 766.09 495.902 766.09 494.152V479.602C766.09 477.842 764.66 476.422 762.91 476.422H674.21C672.45 476.422 671.03 477.852 671.03 479.602V494.152C671.03 495.912 672.46 497.332 674.21 497.332L674.23 497.342Z" fill="black"/>
<path d="M668.83 409.445H650.26C649.4 409.445 648.58 409.795 647.98 410.405C635.23 423.355 618.29 434.575 612.13 438.485C610.78 439.335 610.28 441.065 610.95 442.505L620.7 463.575C621.63 465.575 624.26 466.055 625.83 464.505C646.12 444.465 664.45 419.805 670.12 411.965C670.88 410.915 670.12 409.445 668.83 409.445Z" fill="black"/>
<path d="M671.92 453.899V435.419C671.92 434.009 670.22 433.299 669.21 434.289C653.64 449.609 620.05 477.069 611.68 483.869C610.55 484.789 610.19 486.359 610.8 487.679L620.7 509.059C621.63 511.059 624.26 511.539 625.83 509.989C627.54 508.299 629.24 506.569 630.92 504.829C631.32 504.419 632.02 504.699 632.02 505.269V569.069C632.02 570.829 633.45 572.249 635.2 572.249H653.82C655.58 572.249 657 570.819 657 569.069V476.379C657 475.309 657.36 474.259 658.03 473.419C664.87 464.739 669.72 458.029 671.34 455.749C671.72 455.209 671.93 454.569 671.93 453.899H671.92Z" fill="black"/>
<path d="M653.271 623.338C640.851 623.338 634.811 628.288 634.811 638.478V655.608C634.811 665.678 640.851 670.568 653.271 670.568C659.141 670.568 663.481 669.488 666.561 667.278C670.001 664.808 671.741 660.878 671.741 655.598V638.468C671.741 628.278 665.701 623.328 653.281 623.328L653.271 623.338ZM646.091 639.308C646.091 633.938 648.841 632.918 653.271 632.918C657.701 632.918 660.451 633.958 660.451 639.308V654.688C660.451 659.958 657.601 660.988 653.271 660.988C648.941 660.988 646.091 659.988 646.091 654.688V639.308Z" fill="black"/>
<path d="M708.271 669.334H721.36L703.63 646.784L720.56 624.804H707.401L694.06 642.284V610.234H682.771V669.334H694.06V659.214L696.951 655.454L708.271 669.334Z" fill="black"/>
<path d="M754.82 624.805V653.295C754.82 659.045 751.88 660.895 746.83 660.895C743.56 660.895 740.28 660.355 740.28 653.885V624.815H729V656.775C729 665.745 733.71 670.485 742.62 670.485C749.3 670.485 753.88 666.865 755.58 662.805L757.39 669.345H766.11V624.815H754.83L754.82 624.805Z" fill="black"/>
<path d="M630.57 610.234H589.15V620.144V620.154H604.22V669.334H615.69V620.154H630.57V610.234Z" fill="black"/>
<path d="M459.69 669.334H472.78L455.05 646.784L471.98 624.804H458.82L445.48 642.284V610.234H434.2V669.334H445.48V659.214L448.37 655.454L459.69 669.334Z" fill="black"/>
<path d="M355.33 610.234H313.91V620.144V620.154H328.99V669.334H340.45V620.154H355.33V610.234Z" fill="black"/>
<path d="M421.8 658.896L421.2 659.046C417.62 659.966 413.29 660.896 409.41 660.896C404.86 660.896 401.69 658.826 401.69 652.836V640.976C401.69 634.906 404.86 632.826 409.41 632.826C413.36 632.826 417.88 633.706 421.23 634.406L421.81 634.526V625.196L421.5 625.126C417.69 624.236 412.05 623.336 407.53 623.336C402.01 623.336 397.97 624.406 395.17 626.596C391.97 629.096 390.42 633.856 390.42 639.346V654.646C390.42 664.776 396.02 670.566 407.54 670.566C411.41 670.566 417.27 669.496 421.53 668.316L421.82 668.236V658.886L421.8 658.896Z" fill="black"/>
<path d="M553.93 634.705V624.805H543.69V615.195H532.41V624.805H525.18V634.705H532.41V655.425C532.41 667.945 540.3 670.565 546.93 670.565C548.71 670.565 550.51 670.455 552.12 670.225V660.265C551.47 660.335 550.26 660.365 549.54 660.365C546.46 660.365 543.69 659.735 543.69 652.095V634.695H553.93V634.705Z" fill="black"/>
<path d="M489.74 650.742V650.562H515.17V641.482C515.17 635.572 513.55 630.243 510.36 627.343C507.42 624.673 502.78 623.312 497.26 623.312C485.08 623.312 478.46 629.223 478.46 639.593V654.453C478.46 664.703 483.84 670.552 496.32 670.552C500.98 670.552 506.29 669.563 511.97 668.403L512.36 668.323V659.052L511.71 659.203C507.14 660.253 504.62 661.143 500.29 661.143C494.08 661.143 489.74 658.623 489.74 652.203V650.722V650.742ZM489.74 639.722C489.74 634.072 493.8 632.742 497.17 632.742C500.54 632.742 504.07 634.072 504.07 639.722V643.232H489.74V642.713V639.722Z" fill="black"/>
<path d="M378.18 626.883H366.9V669.333H378.18V626.883Z" fill="black"/>
<path d="M372.54 622.224C376.422 622.224 379.57 619.077 379.57 615.194C379.57 611.312 376.422 608.164 372.54 608.164C368.657 608.164 365.51 611.312 365.51 615.194C365.51 619.077 368.657 622.224 372.54 622.224Z" fill="black"/>
<path d="M585.74 643.922H566.15V651.262H585.74V643.922Z" fill="black"/>
<path d="M724.9 1652.2C724.5 1652.8 723.9 1653.73 723.1 1655C722.366 1656.27 721.8 1657.43 721.4 1658.5C720 1661.63 718.266 1665.13 716.2 1669C714.2 1672.87 711.9 1676.77 709.3 1680.7C706.766 1684.57 704.066 1688.2 701.2 1691.6C697.466 1695.8 693.333 1699.97 688.8 1704.1C684.333 1708.17 679.6 1711.93 674.6 1715.4C669.666 1718.8 664.6 1721.73 659.4 1724.2L649.1 1713.4C654.5 1711.33 659.733 1708.73 664.8 1705.6C669.866 1702.47 674.566 1699.07 678.9 1695.4C683.233 1691.73 686.966 1688.17 690.1 1684.7C692.3 1682.17 694.366 1679.47 696.3 1676.6C698.3 1673.73 700.066 1670.9 701.6 1668.1C703.133 1665.23 704.266 1662.6 705 1660.2C704.333 1660.2 703.133 1660.2 701.4 1660.2C699.666 1660.2 697.633 1660.2 695.3 1660.2C693.033 1660.2 690.633 1660.2 688.1 1660.2C685.566 1660.2 683.133 1660.2 680.8 1660.2C678.533 1660.2 676.533 1660.2 674.8 1660.2C673.066 1660.2 671.833 1660.2 671.1 1660.2C669.7 1660.2 668.233 1660.27 666.7 1660.4C665.166 1660.47 663.7 1660.57 662.3 1660.7C660.966 1660.77 659.933 1660.83 659.2 1660.9V1646.7C660.2 1646.77 661.433 1646.87 662.9 1647C664.366 1647.13 665.833 1647.23 667.3 1647.3C668.833 1647.37 670.1 1647.4 671.1 1647.4C671.966 1647.4 673.333 1647.4 675.2 1647.4C677.066 1647.4 679.2 1647.4 681.6 1647.4C684 1647.4 686.466 1647.4 689 1647.4C691.6 1647.4 694.066 1647.4 696.4 1647.4C698.8 1647.4 700.866 1647.4 702.6 1647.4C704.333 1647.4 705.6 1647.4 706.4 1647.4C708.6 1647.4 710.6 1647.27 712.4 1647C714.266 1646.73 715.7 1646.43 716.7 1646.1L724.9 1652.2ZM702.5 1683.3C705.1 1685.37 707.866 1687.77 710.8 1690.5C713.733 1693.23 716.633 1696.07 719.5 1699C722.366 1701.93 725 1704.77 727.4 1707.5C729.866 1710.17 731.933 1712.5 733.6 1714.5L722.2 1724.4C719.733 1721 716.9 1717.47 713.7 1713.8C710.566 1710.13 707.233 1706.5 703.7 1702.9C700.233 1699.23 696.7 1695.77 693.1 1692.5L702.5 1683.3Z" fill="black"/>
<path d="M615.3 1639C616.167 1640.2 617.1 1641.63 618.1 1643.3C619.1 1644.97 620.034 1646.63 620.9 1648.3C621.834 1649.97 622.634 1651.43 623.3 1652.7L615.2 1656.1C614.2 1654.03 612.967 1651.7 611.5 1649.1C610.1 1646.43 608.734 1644.13 607.4 1642.2L615.3 1639ZM627.1 1634.5C628.034 1635.77 629 1637.23 630 1638.9C631 1640.57 631.967 1642.23 632.9 1643.9C633.9 1645.5 634.667 1646.9 635.2 1648.1L627.3 1651.5C626.234 1649.37 624.967 1647 623.5 1644.4C622.034 1641.8 620.6 1639.57 619.2 1637.7L627.1 1634.5ZM572.2 1643.3C571.934 1644.83 571.734 1646.6 571.6 1648.6C571.467 1650.6 571.4 1652.3 571.4 1653.7C571.4 1654.7 571.4 1656.47 571.4 1659C571.4 1661.47 571.4 1664.4 571.4 1667.8C571.4 1671.2 571.4 1674.77 571.4 1678.5C571.4 1682.17 571.4 1685.73 571.4 1689.2C571.4 1692.6 571.4 1695.63 571.4 1698.3C571.4 1700.97 571.4 1702.93 571.4 1704.2C571.4 1706.33 571.934 1707.8 573 1708.6C574.067 1709.4 575.7 1710.03 577.9 1710.5C579.434 1710.7 581.2 1710.87 583.2 1711C585.2 1711.07 587.3 1711.1 589.5 1711.1C592.1 1711.1 594.967 1711.03 598.1 1710.9C601.3 1710.7 604.5 1710.47 607.7 1710.2C610.967 1709.93 614.034 1709.57 616.9 1709.1C619.767 1708.63 622.234 1708.13 624.3 1707.6V1722.2C621.167 1722.67 617.534 1723.03 613.4 1723.3C609.267 1723.63 605.034 1723.87 600.7 1724C596.434 1724.2 592.434 1724.3 588.7 1724.3C585.434 1724.3 582.334 1724.2 579.4 1724C576.534 1723.8 574.034 1723.53 571.9 1723.2C567.567 1722.33 564.2 1720.7 561.8 1718.3C559.4 1715.83 558.2 1712.47 558.2 1708.2C558.2 1706.27 558.2 1703.77 558.2 1700.7C558.2 1697.57 558.2 1694.13 558.2 1690.4C558.2 1686.6 558.2 1682.8 558.2 1679C558.2 1675.13 558.2 1671.5 558.2 1668.1C558.2 1664.63 558.2 1661.63 558.2 1659.1C558.2 1656.57 558.2 1654.77 558.2 1653.7C558.2 1652.97 558.167 1651.97 558.1 1650.7C558.034 1649.43 557.934 1648.13 557.8 1646.8C557.734 1645.47 557.6 1644.3 557.4 1643.3H572.2ZM565.6 1674C568.8 1673.33 572.2 1672.53 575.8 1671.6C579.4 1670.6 583.034 1669.53 586.7 1668.4C590.367 1667.27 593.834 1666.13 597.1 1665C600.434 1663.8 603.4 1662.63 606 1661.5C607.8 1660.83 609.567 1660.07 611.3 1659.2C613.1 1658.33 614.967 1657.3 616.9 1656.1L622.3 1668.8C620.367 1669.53 618.334 1670.37 616.2 1671.3C614.134 1672.17 612.267 1672.9 610.6 1673.5C607.667 1674.63 604.3 1675.83 600.5 1677.1C596.767 1678.37 592.867 1679.63 588.8 1680.9C584.734 1682.1 580.7 1683.23 576.7 1684.3C572.767 1685.37 569.1 1686.3 565.7 1687.1L565.6 1674Z" fill="black"/>
<path d="M450.7 1673.7C451.9 1673.77 453.434 1673.87 455.3 1674C457.167 1674.07 459.1 1674.14 461.1 1674.2C463.167 1674.27 465.067 1674.3 466.8 1674.3C468.467 1674.3 470.534 1674.3 473 1674.3C475.467 1674.3 478.134 1674.3 481 1674.3C483.934 1674.3 486.934 1674.3 490 1674.3C493.134 1674.3 496.234 1674.3 499.3 1674.3C502.367 1674.3 505.267 1674.3 508 1674.3C510.734 1674.3 513.167 1674.3 515.3 1674.3C517.5 1674.3 519.234 1674.3 520.5 1674.3C522.834 1674.3 525.034 1674.24 527.1 1674.1C529.167 1673.9 530.867 1673.77 532.2 1673.7V1689.4C531.067 1689.34 529.367 1689.24 527.1 1689.1C524.834 1688.97 522.634 1688.9 520.5 1688.9C519.234 1688.9 517.5 1688.9 515.3 1688.9C513.1 1688.9 510.634 1688.9 507.9 1688.9C505.167 1688.9 502.267 1688.9 499.2 1688.9C496.2 1688.9 493.134 1688.9 490 1688.9C486.867 1688.9 483.834 1688.9 480.9 1688.9C478.034 1688.9 475.367 1688.9 472.9 1688.9C470.5 1688.9 468.467 1688.9 466.8 1688.9C463.934 1688.9 461 1688.97 458 1689.1C455 1689.17 452.567 1689.27 450.7 1689.4V1673.7Z" fill="black"/>
<path d="M416.3 1675.8C416.3 1682 415.834 1687.63 414.9 1692.7C414.034 1697.7 412.5 1702.27 410.3 1706.4C408.1 1710.47 405.034 1714.13 401.1 1717.4C397.167 1720.67 392.2 1723.63 386.2 1726.3L375.5 1716.2C380.3 1714.53 384.434 1712.67 387.9 1710.6C391.434 1708.53 394.334 1706 396.6 1703C398.867 1699.93 400.534 1696.27 401.6 1692C402.734 1687.67 403.3 1682.43 403.3 1676.3V1649.7C403.3 1647.63 403.234 1645.83 403.1 1644.3C402.967 1642.7 402.834 1641.4 402.7 1640.4H417C416.867 1641.4 416.7 1642.7 416.5 1644.3C416.367 1645.83 416.3 1647.63 416.3 1649.7V1675.8ZM380.2 1641.3C380.067 1642.23 379.934 1643.5 379.8 1645.1C379.667 1646.63 379.6 1648.37 379.6 1650.3V1686.1C379.6 1687.57 379.634 1689 379.7 1690.4C379.767 1691.73 379.8 1692.93 379.8 1694C379.867 1695 379.934 1695.87 380 1696.6H366C366.134 1695.87 366.234 1695 366.3 1694C366.367 1692.93 366.434 1691.73 366.5 1690.4C366.567 1689 366.6 1687.57 366.6 1686.1V1650.3C366.6 1648.83 366.534 1647.33 366.4 1645.8C366.334 1644.27 366.2 1642.77 366 1641.3H380.2ZM347.2 1659.3C347.867 1659.37 348.734 1659.5 349.8 1659.7C350.867 1659.83 352.1 1659.97 353.5 1660.1C354.9 1660.17 356.434 1660.2 358.1 1660.2H423.7C426.367 1660.2 428.534 1660.13 430.2 1660C431.867 1659.87 433.367 1659.7 434.7 1659.5V1672.8C433.634 1672.67 432.2 1672.6 430.4 1672.6C428.6 1672.53 426.367 1672.5 423.7 1672.5H358.1C356.434 1672.5 354.9 1672.53 353.5 1672.6C352.167 1672.6 350.967 1672.63 349.9 1672.7C348.9 1672.77 348 1672.83 347.2 1672.9V1659.3Z" fill="black"/>
<path d="M754.691 1527.8C754.158 1528.74 753.591 1529.87 752.991 1531.2C752.391 1532.47 751.858 1533.74 751.391 1535C750.525 1537.94 749.291 1541.3 747.691 1545.1C746.158 1548.84 744.225 1552.74 741.891 1556.8C739.625 1560.8 736.991 1564.67 733.991 1568.4C729.191 1574.14 723.591 1579.34 717.191 1584C710.858 1588.67 702.991 1592.87 693.591 1596.6L681.791 1586C688.591 1584 694.458 1581.7 699.391 1579.1C704.325 1576.5 708.625 1573.74 712.291 1570.8C715.958 1567.8 719.225 1564.64 722.091 1561.3C724.425 1558.7 726.558 1555.77 728.491 1552.5C730.425 1549.17 732.091 1545.87 733.491 1542.6C734.891 1539.34 735.825 1536.47 736.291 1534H702.591L707.191 1522.7C708.125 1522.7 709.558 1522.7 711.491 1522.7C713.491 1522.7 715.725 1522.7 718.191 1522.7C720.725 1522.7 723.191 1522.7 725.591 1522.7C728.058 1522.7 730.191 1522.7 731.991 1522.7C733.858 1522.7 735.125 1522.7 735.791 1522.7C737.325 1522.7 738.858 1522.6 740.391 1522.4C741.991 1522.2 743.358 1521.9 744.491 1521.5L754.691 1527.8ZM722.091 1512C720.891 1513.74 719.725 1515.6 718.591 1517.6C717.458 1519.6 716.591 1521.14 715.991 1522.2C713.725 1526.2 710.925 1530.37 707.591 1534.7C704.325 1538.97 700.591 1543.14 696.391 1547.2C692.191 1551.2 687.725 1554.87 682.991 1558.2L671.691 1549.9C676.091 1547.17 679.958 1544.37 683.291 1541.5C686.691 1538.64 689.625 1535.8 692.091 1533C694.558 1530.14 696.658 1527.4 698.391 1524.8C700.191 1522.14 701.725 1519.77 702.991 1517.7C703.791 1516.44 704.625 1514.8 705.491 1512.8C706.358 1510.74 707.025 1508.87 707.491 1507.2L722.091 1512Z" fill="black"/>
<path d="M588.891 1514C590.624 1515.2 592.657 1516.67 594.991 1518.4C597.324 1520.13 599.724 1522.03 602.191 1524.1C604.724 1526.1 607.091 1528.07 609.291 1530C611.491 1531.93 613.291 1533.67 614.691 1535.2L604.491 1545.6C603.224 1544.2 601.557 1542.53 599.491 1540.6C597.424 1538.67 595.191 1536.67 592.791 1534.6C590.391 1532.53 588.024 1530.57 585.691 1528.7C583.357 1526.83 581.291 1525.27 579.491 1524L588.891 1514ZM576.391 1580.6C581.591 1579.87 586.491 1578.83 591.091 1577.5C595.691 1576.17 599.957 1574.63 603.891 1572.9C607.824 1571.17 611.424 1569.37 614.691 1567.5C620.357 1564.1 625.557 1560.23 630.291 1555.9C635.024 1551.57 639.157 1547.07 642.691 1542.4C646.224 1537.67 649.024 1533.07 651.091 1528.6L658.891 1542.7C656.357 1547.17 653.224 1551.63 649.491 1556.1C645.824 1560.57 641.657 1564.83 636.991 1568.9C632.324 1572.9 627.291 1576.5 621.891 1579.7C618.491 1581.77 614.824 1583.73 610.891 1585.6C606.957 1587.4 602.791 1589 598.391 1590.4C594.057 1591.87 589.524 1593 584.791 1593.8L576.391 1580.6Z" fill="black"/>
<path d="M545.091 1512.4C545.025 1513.8 544.925 1515.33 544.791 1517C544.725 1518.6 544.691 1520.4 544.691 1522.4C544.691 1524.13 544.691 1526.23 544.691 1528.7C544.691 1531.17 544.691 1533.63 544.691 1536.1C544.691 1538.5 544.691 1540.53 544.691 1542.2C544.691 1547.53 544.425 1552.2 543.891 1556.2C543.425 1560.2 542.691 1563.7 541.691 1566.7C540.691 1569.7 539.458 1572.37 537.991 1574.7C536.591 1576.97 534.958 1579.13 533.091 1581.2C530.891 1583.6 528.358 1585.77 525.491 1587.7C522.625 1589.57 519.725 1591.13 516.791 1592.4C513.925 1593.73 511.258 1594.8 508.791 1595.6L498.291 1584.6C503.291 1583.47 507.791 1581.9 511.791 1579.9C515.858 1577.83 519.391 1575.2 522.391 1572C524.125 1570.07 525.525 1568.13 526.591 1566.2C527.658 1564.27 528.458 1562.13 528.991 1559.8C529.591 1557.4 529.991 1554.7 530.191 1551.7C530.458 1548.7 530.591 1545.27 530.591 1541.4C530.591 1539.67 530.591 1537.6 530.591 1535.2C530.591 1532.8 530.591 1530.43 530.591 1528.1C530.591 1525.77 530.591 1523.87 530.591 1522.4C530.591 1520.4 530.525 1518.6 530.391 1517C530.325 1515.33 530.191 1513.8 529.991 1512.4H545.091ZM498.691 1513.2C498.625 1514.4 498.558 1515.6 498.491 1516.8C498.425 1517.93 498.391 1519.3 498.391 1520.9C498.391 1521.63 498.391 1522.83 498.391 1524.5C498.391 1526.17 498.391 1528.13 498.391 1530.4C498.391 1532.6 498.391 1534.93 498.391 1537.4C498.391 1539.8 498.391 1542.13 498.391 1544.4C498.391 1546.67 498.391 1548.73 498.391 1550.6C498.391 1552.4 498.391 1553.77 498.391 1554.7C498.391 1555.97 498.425 1557.43 498.491 1559.1C498.558 1560.77 498.625 1562.2 498.691 1563.4H484.191C484.258 1562.47 484.358 1561.13 484.491 1559.4C484.625 1557.67 484.691 1556.07 484.691 1554.6C484.691 1553.67 484.691 1552.3 484.691 1550.5C484.691 1548.7 484.691 1546.67 484.691 1544.4C484.691 1542.07 484.691 1539.7 484.691 1537.3C484.691 1534.83 484.691 1532.5 484.691 1530.3C484.691 1528.1 484.691 1526.17 484.691 1524.5C484.691 1522.83 484.691 1521.63 484.691 1520.9C484.691 1519.97 484.658 1518.77 484.591 1517.3C484.525 1515.77 484.425 1514.4 484.291 1513.2H498.691Z" fill="black"/>
<path d="M432.991 1515.6C433.924 1516.93 434.957 1518.5 436.091 1520.3C437.224 1522.1 438.291 1523.9 439.291 1525.7C440.357 1527.5 441.291 1529.17 442.091 1530.7L433.391 1534.6C432.457 1532.47 431.524 1530.57 430.591 1528.9C429.724 1527.23 428.824 1525.63 427.891 1524.1C426.957 1522.5 425.857 1520.83 424.591 1519.1L432.991 1515.6ZM446.091 1510.1C447.091 1511.43 448.157 1512.97 449.291 1514.7C450.491 1516.43 451.624 1518.2 452.691 1520C453.824 1521.73 454.757 1523.37 455.491 1524.9L447.091 1529C446.024 1526.87 444.991 1525 443.991 1523.4C443.057 1521.73 442.091 1520.17 441.091 1518.7C440.157 1517.17 439.057 1515.6 437.791 1514L446.091 1510.1ZM393.091 1581.9C393.091 1580.57 393.091 1578.47 393.091 1575.6C393.091 1572.67 393.091 1569.3 393.091 1565.5C393.091 1561.63 393.091 1557.63 393.091 1553.5C393.091 1549.3 393.091 1545.27 393.091 1541.4C393.091 1537.47 393.091 1534 393.091 1531C393.091 1528 393.091 1525.8 393.091 1524.4C393.091 1522.6 392.991 1520.57 392.791 1518.3C392.657 1516.03 392.424 1514.03 392.091 1512.3H407.691C407.491 1514.03 407.291 1515.97 407.091 1518.1C406.891 1520.23 406.791 1522.33 406.791 1524.4C406.791 1526.2 406.791 1528.7 406.791 1531.9C406.791 1535.1 406.791 1538.67 406.791 1542.6C406.791 1546.47 406.791 1550.43 406.791 1554.5C406.791 1558.57 406.791 1562.47 406.791 1566.2C406.791 1569.87 406.791 1573.1 406.791 1575.9C406.791 1578.63 406.791 1580.63 406.791 1581.9C406.791 1582.77 406.824 1584.07 406.891 1585.8C407.024 1587.47 407.157 1589.2 407.291 1591C407.491 1592.8 407.657 1594.4 407.791 1595.8H392.091C392.424 1593.87 392.657 1591.57 392.791 1588.9C392.991 1586.17 393.091 1583.83 393.091 1581.9ZM403.891 1538.2C407.224 1539.07 410.924 1540.2 414.991 1541.6C419.124 1542.93 423.291 1544.4 427.491 1546C431.691 1547.53 435.657 1549.07 439.391 1550.6C443.124 1552.07 446.191 1553.4 448.591 1554.6L442.991 1568.5C440.124 1566.97 436.991 1565.47 433.591 1564C430.191 1562.53 426.724 1561.1 423.191 1559.7C419.724 1558.23 416.324 1556.9 412.991 1555.7C409.657 1554.5 406.624 1553.47 403.891 1552.6V1538.2Z" fill="black"/>
<path d="M348.609 1510C349.309 1510 349.809 1510.5 349.809 1511.2V1588.7C349.809 1589.4 349.309 1590 348.609 1590H340.609C339.909 1590 339.409 1589.4 339.409 1588.7V1520.2H326.909C325.809 1520.2 325.309 1519.1 325.809 1518.4L330.809 1510.5C331.009 1510.2 331.409 1510 331.809 1510H348.609Z" fill="black"/>
<path d="M754.504 1366.45C755.976 1366.64 757.624 1366.78 759.448 1366.88C761.304 1366.94 763.176 1366.98 765.064 1366.98C766.984 1366.94 768.825 1366.88 770.585 1366.78C772.345 1366.66 773.865 1366.53 775.145 1366.4V1372.59C773.673 1372.72 772.056 1372.83 770.296 1372.93C768.536 1372.99 766.728 1373.02 764.872 1373.02C763.016 1373.02 761.192 1372.99 759.4 1372.93C757.64 1372.83 756.008 1372.72 754.504 1372.59V1366.45ZM758.344 1386.94C758.152 1387.74 758.008 1388.46 757.912 1389.1C757.816 1389.71 757.768 1390.34 757.768 1390.98C757.768 1391.49 757.896 1391.97 758.152 1392.42C758.408 1392.83 758.793 1393.2 759.305 1393.52C759.849 1393.81 760.536 1394.03 761.368 1394.19C762.233 1394.32 763.272 1394.38 764.488 1394.38C766.632 1394.38 768.648 1394.29 770.536 1394.1C772.424 1393.87 774.424 1393.55 776.536 1393.14L776.632 1399.62C775.096 1399.9 773.321 1400.13 771.305 1400.29C769.321 1400.45 766.968 1400.53 764.248 1400.53C760.12 1400.53 757.049 1399.84 755.033 1398.46C753.017 1397.06 752.008 1395.12 752.008 1392.66C752.008 1391.73 752.073 1390.77 752.201 1389.78C752.361 1388.75 752.568 1387.63 752.824 1386.42L758.344 1386.94ZM747.112 1363.23C746.984 1363.55 746.84 1364 746.68 1364.58C746.52 1365.15 746.361 1365.71 746.201 1366.26C746.073 1366.8 745.976 1367.22 745.912 1367.5C745.816 1368.18 745.656 1369.06 745.432 1370.14C745.24 1371.2 745.033 1372.4 744.809 1373.74C744.617 1375.06 744.424 1376.4 744.232 1377.78C744.04 1379.15 743.881 1380.48 743.753 1381.76C743.657 1383.04 743.608 1384.16 743.608 1385.12C743.608 1385.57 743.608 1386.08 743.608 1386.66C743.64 1387.23 743.704 1387.76 743.8 1388.24C744.024 1387.7 744.264 1387.15 744.52 1386.61C744.776 1386.06 745.032 1385.52 745.288 1384.98C745.544 1384.4 745.768 1383.86 745.96 1383.34L748.936 1385.7C748.488 1387.01 748.024 1388.42 747.544 1389.92C747.096 1391.42 746.68 1392.85 746.296 1394.19C745.944 1395.5 745.672 1396.59 745.48 1397.46C745.416 1397.81 745.352 1398.21 745.288 1398.66C745.256 1399.1 745.24 1399.46 745.24 1399.71C745.24 1399.97 745.24 1400.27 745.24 1400.62C745.272 1401.01 745.304 1401.36 745.336 1401.68L739.768 1402.06C739.288 1400.4 738.857 1398.19 738.473 1395.44C738.089 1392.66 737.896 1389.63 737.896 1386.37C737.896 1384.58 737.976 1382.75 738.136 1380.9C738.296 1379.04 738.488 1377.26 738.712 1375.57C738.936 1373.84 739.144 1372.27 739.336 1370.86C739.56 1369.46 739.752 1368.29 739.912 1367.36C739.976 1366.69 740.056 1365.94 740.152 1365.1C740.28 1364.24 740.36 1363.42 740.392 1362.66L747.112 1363.23Z" fill="black"/>
<path d="M687.256 1366.93H730.792V1372.4H687.256V1366.93ZM703.288 1378.69H721.672V1384.11H703.288V1378.69ZM719.512 1378.69H725.464C725.464 1378.69 725.448 1378.85 725.416 1379.17C725.416 1379.46 725.416 1379.79 725.416 1380.18C725.416 1380.56 725.384 1380.9 725.32 1381.18C725.032 1385.57 724.712 1389.15 724.36 1391.94C724.008 1394.72 723.608 1396.9 723.16 1398.46C722.712 1400 722.168 1401.12 721.528 1401.82C720.792 1402.62 720.024 1403.17 719.224 1403.46C718.424 1403.74 717.464 1403.95 716.344 1404.08C715.416 1404.18 714.2 1404.21 712.696 1404.18C711.192 1404.18 709.64 1404.14 708.04 1404.08C708.008 1403.25 707.8 1402.29 707.416 1401.2C707.032 1400.14 706.552 1399.22 705.976 1398.42C707.64 1398.58 709.24 1398.67 710.776 1398.7C712.312 1398.74 713.416 1398.75 714.088 1398.75C714.632 1398.75 715.08 1398.72 715.432 1398.66C715.816 1398.56 716.152 1398.38 716.44 1398.13C716.952 1397.71 717.384 1396.8 717.736 1395.39C718.12 1393.98 718.456 1391.98 718.744 1389.39C719.032 1386.8 719.288 1383.52 719.512 1379.55V1378.69ZM701.128 1370.19H707.56C707.432 1372.75 707.224 1375.34 706.936 1377.97C706.68 1380.56 706.232 1383.14 705.592 1385.7C704.952 1388.22 704.024 1390.64 702.808 1392.94C701.592 1395.25 699.992 1397.39 698.008 1399.38C696.024 1401.36 693.512 1403.12 690.472 1404.66C690.056 1403.86 689.448 1402.99 688.648 1402.06C687.88 1401.14 687.128 1400.37 686.392 1399.76C689.176 1398.48 691.448 1396.99 693.208 1395.3C695 1393.57 696.408 1391.71 697.432 1389.73C698.456 1387.71 699.208 1385.62 699.688 1383.44C700.2 1381.26 700.536 1379.06 700.696 1376.82C700.888 1374.58 701.032 1372.37 701.128 1370.19ZM705.736 1359.01H711.736V1369.09H705.736V1359.01Z" fill="black"/>
<path d="M665.368 1367.12C665.048 1369.55 664.632 1372.14 664.12 1374.89C663.608 1377.65 662.92 1380.43 662.056 1383.25C661.128 1386.48 660.04 1389.26 658.792 1391.6C657.544 1393.93 656.168 1395.74 654.664 1397.02C653.192 1398.27 651.576 1398.89 649.816 1398.89C648.056 1398.89 646.424 1398.3 644.92 1397.12C643.448 1395.9 642.264 1394.24 641.368 1392.13C640.504 1390.01 640.072 1387.61 640.072 1384.93C640.072 1382.14 640.632 1379.52 641.752 1377.05C642.872 1374.59 644.424 1372.41 646.408 1370.53C648.424 1368.61 650.76 1367.1 653.416 1366.01C656.104 1364.93 659 1364.38 662.104 1364.38C665.08 1364.38 667.752 1364.86 670.12 1365.82C672.52 1366.78 674.568 1368.11 676.264 1369.81C677.96 1371.5 679.256 1373.49 680.152 1375.76C681.048 1378.03 681.496 1380.48 681.496 1383.1C681.496 1386.46 680.808 1389.47 679.432 1392.13C678.056 1394.78 676.008 1396.97 673.288 1398.7C670.6 1400.43 667.24 1401.61 663.208 1402.25L659.608 1396.54C660.536 1396.45 661.352 1396.33 662.056 1396.21C662.76 1396.08 663.432 1395.93 664.072 1395.77C665.608 1395.39 667.032 1394.85 668.344 1394.14C669.688 1393.41 670.856 1392.51 671.848 1391.45C672.84 1390.37 673.608 1389.1 674.152 1387.66C674.728 1386.22 675.016 1384.64 675.016 1382.91C675.016 1381.02 674.728 1379.29 674.152 1377.73C673.576 1376.16 672.728 1374.8 671.608 1373.65C670.488 1372.46 669.128 1371.57 667.528 1370.96C665.928 1370.32 664.088 1370 662.008 1370C659.448 1370 657.192 1370.46 655.24 1371.39C653.288 1372.29 651.64 1373.45 650.296 1374.89C648.952 1376.33 647.928 1377.89 647.224 1379.55C646.552 1381.21 646.216 1382.8 646.216 1384.3C646.216 1385.9 646.408 1387.25 646.792 1388.33C647.176 1389.39 647.64 1390.19 648.184 1390.73C648.76 1391.25 649.368 1391.5 650.008 1391.5C650.68 1391.5 651.336 1391.17 651.976 1390.49C652.648 1389.79 653.304 1388.73 653.944 1387.33C654.584 1385.92 655.224 1384.14 655.864 1382C656.6 1379.69 657.224 1377.23 657.736 1374.61C658.248 1371.98 658.616 1369.42 658.84 1366.93L665.368 1367.12Z" fill="black"/>
<path d="M622.216 1369.91L628.36 1371.73C626.344 1377.49 623.736 1382.48 620.536 1386.71C617.336 1390.93 613.528 1394.5 609.112 1397.41C604.728 1400.29 599.656 1402.64 593.896 1404.47C593.704 1403.96 593.384 1403.35 592.936 1402.64C592.488 1401.94 592.024 1401.24 591.544 1400.53C591.096 1399.86 590.664 1399.3 590.248 1398.85C595.784 1397.38 600.632 1395.38 604.792 1392.85C608.952 1390.32 612.472 1387.19 615.352 1383.44C618.232 1379.67 620.52 1375.16 622.216 1369.91ZM603.64 1370.29C605.272 1375.06 607.528 1379.33 610.408 1383.11C613.288 1386.88 616.84 1390.08 621.064 1392.71C625.32 1395.33 630.28 1397.28 635.944 1398.56C635.496 1399.01 635 1399.59 634.456 1400.29C633.944 1401 633.448 1401.7 632.968 1402.4C632.488 1403.14 632.104 1403.78 631.816 1404.32C625.832 1402.79 620.68 1400.55 616.36 1397.6C612.04 1394.63 608.376 1391.01 605.368 1386.76C602.392 1382.5 599.896 1377.59 597.88 1372.02L603.64 1370.29ZM591.112 1366.84H635.08V1372.45H591.112V1366.84ZM610.024 1359.2H615.928V1370.24H610.024V1359.2Z" fill="black"/>
<path d="M563.08 1363.57L566.824 1359.1C568.136 1359.71 569.512 1360.43 570.952 1361.26C572.424 1362.09 573.8 1362.94 575.08 1363.81C576.392 1364.67 577.464 1365.5 578.296 1366.3L574.12 1371.29C573.384 1370.46 572.392 1369.58 571.144 1368.65C569.928 1367.73 568.6 1366.81 567.16 1365.92C565.752 1365.02 564.392 1364.24 563.08 1363.57ZM559.864 1383.05H584.824V1388.53H559.864V1383.05ZM556.456 1397.26H587.608V1402.73H556.456V1397.26ZM558.184 1369.66H586.6V1375.13H558.184V1369.66ZM569.128 1371.49H575.128V1399.71H569.128V1371.49ZM545.512 1363.66L548.632 1359.44C549.688 1359.79 550.792 1360.25 551.944 1360.83C553.096 1361.37 554.2 1361.97 555.256 1362.61C556.312 1363.21 557.176 1363.81 557.848 1364.38L554.44 1369.09C553.832 1368.48 553.016 1367.85 551.992 1367.21C551 1366.54 549.928 1365.9 548.776 1365.29C547.656 1364.65 546.568 1364.11 545.512 1363.66ZM542.296 1376.77L545.272 1372.4C546.328 1372.75 547.448 1373.18 548.632 1373.69C549.816 1374.17 550.936 1374.72 551.992 1375.33C553.08 1375.9 553.976 1376.45 554.68 1376.96L551.464 1381.81C550.856 1381.23 550.024 1380.64 548.968 1380.03C547.912 1379.42 546.808 1378.83 545.656 1378.25C544.504 1377.65 543.384 1377.15 542.296 1376.77ZM544.36 1399.85C545.224 1398.64 546.184 1397.21 547.24 1395.58C548.296 1393.92 549.368 1392.16 550.456 1390.3C551.544 1388.41 552.552 1386.54 553.48 1384.69L557.704 1388.53C556.872 1390.19 555.976 1391.9 555.016 1393.66C554.088 1395.42 553.128 1397.15 552.136 1398.85C551.176 1400.54 550.216 1402.17 549.256 1403.74L544.36 1399.85Z" fill="black"/>
<path d="M502.408 1365.58C504.168 1365.8 506.152 1365.96 508.36 1366.06C510.568 1366.16 512.936 1366.2 515.464 1366.2C517.064 1366.2 518.696 1366.17 520.36 1366.11C522.024 1366.04 523.64 1365.96 525.208 1365.87C526.776 1365.74 528.168 1365.63 529.384 1365.53V1371.92C528.264 1371.98 526.904 1372.06 525.304 1372.16C523.736 1372.25 522.088 1372.33 520.36 1372.4C518.664 1372.46 517.048 1372.49 515.512 1372.49C513.016 1372.49 510.696 1372.44 508.552 1372.35C506.408 1372.22 504.36 1372.09 502.408 1371.96V1365.58ZM506.44 1385.93C506.216 1386.76 506.024 1387.58 505.864 1388.38C505.704 1389.18 505.624 1389.98 505.624 1390.78C505.624 1392.35 506.392 1393.63 507.928 1394.62C509.496 1395.58 512.008 1396.06 515.464 1396.06C517.64 1396.06 519.736 1395.98 521.752 1395.82C523.8 1395.66 525.72 1395.45 527.512 1395.2C529.304 1394.91 530.904 1394.57 532.312 1394.19L532.36 1400.91C530.984 1401.23 529.416 1401.52 527.656 1401.77C525.928 1402.03 524.056 1402.22 522.04 1402.35C520.056 1402.51 517.944 1402.59 515.704 1402.59C512.024 1402.59 508.968 1402.17 506.536 1401.34C504.104 1400.54 502.264 1399.39 501.016 1397.88C499.8 1396.35 499.192 1394.48 499.192 1392.27C499.192 1390.89 499.304 1389.63 499.528 1388.48C499.752 1387.29 499.944 1386.25 500.104 1385.36L506.44 1385.93ZM530.632 1360.64C531.048 1361.21 531.48 1361.9 531.928 1362.7C532.408 1363.5 532.872 1364.3 533.32 1365.1C533.768 1365.9 534.152 1366.6 534.472 1367.21L530.584 1368.89C530.104 1367.9 529.512 1366.76 528.808 1365.48C528.136 1364.2 527.48 1363.1 526.84 1362.17L530.632 1360.64ZM536.344 1358.48C536.76 1359.08 537.208 1359.79 537.688 1360.59C538.168 1361.39 538.632 1362.19 539.08 1362.99C539.56 1363.76 539.944 1364.43 540.232 1365L536.392 1366.64C535.88 1365.64 535.272 1364.52 534.568 1363.28C533.864 1362 533.176 1360.91 532.504 1360.01L536.344 1358.48Z" fill="black"/>
<path d="M468.328 1361.5C468.168 1362.37 467.912 1363.49 467.56 1364.86C467.208 1366.24 466.696 1367.79 466.024 1369.52C465.512 1370.7 464.92 1371.94 464.248 1373.22C463.608 1374.46 462.952 1375.58 462.28 1376.58C462.696 1376.38 463.224 1376.22 463.864 1376.1C464.504 1375.94 465.16 1375.82 465.832 1375.76C466.536 1375.66 467.16 1375.62 467.704 1375.62C469.72 1375.62 471.384 1376.19 472.696 1377.34C474.04 1378.5 474.712 1380.21 474.712 1382.48C474.712 1383.12 474.712 1383.9 474.712 1384.83C474.744 1385.76 474.776 1386.74 474.808 1387.76C474.84 1388.75 474.872 1389.73 474.904 1390.69C474.936 1391.65 474.952 1392.51 474.952 1393.28H469.192C469.256 1392.74 469.288 1392.1 469.288 1391.36C469.32 1390.59 469.336 1389.79 469.336 1388.96C469.368 1388.13 469.384 1387.33 469.384 1386.56C469.416 1385.76 469.432 1385.04 469.432 1384.4C469.432 1382.86 469.016 1381.81 468.184 1381.23C467.384 1380.62 466.488 1380.32 465.496 1380.32C464.152 1380.32 462.792 1380.66 461.416 1381.33C460.072 1381.97 458.936 1382.74 458.008 1383.63C457.304 1384.34 456.584 1385.12 455.848 1385.98C455.144 1386.85 454.376 1387.82 453.544 1388.91L448.408 1385.07C450.488 1383.15 452.28 1381.3 453.784 1379.5C455.32 1377.71 456.616 1375.94 457.672 1374.18C458.728 1372.42 459.592 1370.66 460.264 1368.9C460.744 1367.62 461.128 1366.29 461.416 1364.91C461.736 1363.5 461.928 1362.19 461.992 1360.98L468.328 1361.5ZM450.28 1365.92C451.496 1366.11 452.904 1366.26 454.504 1366.35C456.104 1366.45 457.512 1366.5 458.728 1366.5C460.84 1366.5 463.144 1366.45 465.64 1366.35C468.168 1366.26 470.728 1366.1 473.32 1365.87C475.912 1365.62 478.376 1365.3 480.712 1364.91L480.664 1370.48C478.968 1370.7 477.128 1370.91 475.144 1371.1C473.192 1371.26 471.192 1371.41 469.144 1371.54C467.128 1371.63 465.192 1371.71 463.336 1371.78C461.48 1371.81 459.832 1371.82 458.392 1371.82C457.752 1371.82 456.952 1371.82 455.992 1371.82C455.064 1371.79 454.104 1371.76 453.112 1371.73C452.12 1371.66 451.176 1371.6 450.28 1371.54V1365.92ZM488.296 1379.55C487.784 1379.71 487.176 1379.92 486.472 1380.18C485.8 1380.4 485.112 1380.64 484.408 1380.9C483.736 1381.12 483.128 1381.34 482.584 1381.57C481.048 1382.18 479.224 1382.91 477.112 1383.78C475.032 1384.64 472.856 1385.65 470.584 1386.8C469.144 1387.57 467.928 1388.32 466.936 1389.06C465.944 1389.79 465.192 1390.54 464.68 1391.31C464.168 1392.05 463.912 1392.86 463.912 1393.76C463.912 1394.43 464.056 1394.99 464.344 1395.44C464.632 1395.86 465.064 1396.19 465.64 1396.45C466.216 1396.7 466.936 1396.88 467.8 1396.98C468.664 1397.07 469.688 1397.12 470.872 1397.12C472.92 1397.12 475.176 1397.01 477.64 1396.78C480.104 1396.53 482.392 1396.19 484.504 1395.78L484.312 1401.97C483.288 1402.1 481.992 1402.22 480.424 1402.35C478.856 1402.51 477.224 1402.62 475.528 1402.69C473.864 1402.75 472.264 1402.78 470.728 1402.78C468.232 1402.78 465.992 1402.54 464.008 1402.06C462.024 1401.58 460.456 1400.77 459.304 1399.62C458.184 1398.43 457.624 1396.82 457.624 1394.77C457.624 1393.1 457.992 1391.6 458.728 1390.26C459.496 1388.91 460.504 1387.7 461.752 1386.61C463 1385.52 464.36 1384.54 465.832 1383.68C467.336 1382.78 468.808 1381.97 470.248 1381.23C471.72 1380.46 473.048 1379.81 474.232 1379.26C475.416 1378.72 476.52 1378.24 477.544 1377.82C478.6 1377.38 479.608 1376.93 480.568 1376.48C481.496 1376.06 482.392 1375.66 483.256 1375.28C484.12 1374.86 485 1374.43 485.896 1373.98L488.296 1379.55Z" fill="black"/>
<path d="M417.88 1359.2H423.736V1398.8C423.736 1400.21 423.544 1401.27 423.16 1401.97C422.776 1402.68 422.12 1403.24 421.192 1403.65C420.264 1404 419.112 1404.23 417.736 1404.32C416.392 1404.42 414.696 1404.47 412.648 1404.47C412.52 1403.8 412.264 1403.01 411.88 1402.12C411.496 1401.25 411.112 1400.52 410.728 1399.91C411.528 1399.94 412.328 1399.97 413.128 1400C413.928 1400 414.648 1400 415.288 1400C415.96 1400 416.424 1400 416.68 1400C417.128 1399.97 417.432 1399.88 417.592 1399.72C417.784 1399.56 417.88 1399.25 417.88 1398.8V1359.2ZM399.928 1362.37H442.168V1366.88H399.928V1362.37ZM410.344 1372.5V1374.76H431.512V1372.5H410.344ZM404.824 1368.85H437.416V1378.4H404.824V1368.85ZM403.672 1380.56H438.232V1399.33H432.376V1384.45H403.672V1380.56ZM398.824 1386.52H443.272V1390.88H398.824V1386.52ZM403.288 1393.09H435.544V1397.27H403.288V1393.09Z" fill="black"/>
<path d="M372.808 1364.14C371.432 1365.74 369.72 1367.36 367.672 1368.99C365.624 1370.62 363.384 1372.17 360.952 1373.65C358.52 1375.09 356.024 1376.37 353.464 1377.49C353.24 1377.04 352.936 1376.53 352.552 1375.95C352.168 1375.34 351.768 1374.77 351.352 1374.22C350.936 1373.65 350.52 1373.15 350.104 1372.73C352.76 1371.71 355.336 1370.45 357.832 1368.94C360.328 1367.44 362.6 1365.84 364.648 1364.14C366.696 1362.41 368.36 1360.72 369.64 1359.05H375.448C376.792 1360.59 378.264 1362.03 379.864 1363.37C381.496 1364.69 383.192 1365.9 384.952 1367.02C386.712 1368.14 388.52 1369.15 390.376 1370.05C392.264 1370.91 394.152 1371.65 396.04 1372.25C395.368 1372.96 394.712 1373.77 394.072 1374.7C393.432 1375.63 392.872 1376.51 392.392 1377.34C390.088 1376.35 387.704 1375.15 385.24 1373.74C382.776 1372.3 380.456 1370.75 378.28 1369.09C376.104 1367.42 374.28 1365.77 372.808 1364.14ZM362.248 1379.41H383.368V1383.53H362.248V1379.41ZM369.928 1368.75H375.88V1375.23H369.928V1368.75ZM353.656 1398.56C355.48 1398.4 357.528 1398.24 359.8 1398.08C362.104 1397.89 364.52 1397.69 367.048 1397.5C369.576 1397.28 372.088 1397.05 374.584 1396.83L374.68 1401.92C372.312 1402.14 369.912 1402.37 367.48 1402.59C365.08 1402.85 362.76 1403.07 360.52 1403.26C358.312 1403.49 356.28 1403.68 354.424 1403.84L353.656 1398.56ZM374.488 1388.91C376.216 1391.82 378.824 1394.14 382.312 1395.87C385.832 1397.57 390.088 1398.7 395.08 1399.28C394.696 1399.69 394.28 1400.19 393.832 1400.77C393.384 1401.37 392.968 1401.98 392.584 1402.59C392.2 1403.23 391.88 1403.81 391.624 1404.32C388.072 1403.74 384.904 1402.85 382.12 1401.63C379.336 1400.41 376.92 1398.88 374.872 1397.02C372.824 1395.13 371.08 1392.86 369.64 1390.21L374.488 1388.91ZM388.648 1387.9L392.824 1391.36C391.608 1392.19 390.312 1393.02 388.936 1393.85C387.56 1394.65 386.184 1395.41 384.808 1396.11C383.432 1396.78 382.136 1397.39 380.92 1397.93L377.512 1394.81C378.696 1394.24 379.96 1393.57 381.304 1392.8C382.648 1392 383.976 1391.18 385.288 1390.35C386.6 1389.49 387.72 1388.67 388.648 1387.9ZM362.248 1372.4H387.256V1390.64H362.248V1386.17H381.4V1376.91H362.248V1372.4ZM358.648 1372.4H364.36V1399.23L358.648 1399.81V1372.4Z" fill="black"/>
<path d="M321.928 1361.02C321.896 1361.28 321.848 1361.68 321.784 1362.22C321.72 1362.74 321.656 1363.26 321.592 1363.81C321.56 1364.32 321.528 1364.78 321.496 1365.2C321.432 1366.13 321.368 1367.15 321.304 1368.27C321.272 1369.36 321.24 1370.5 321.208 1371.68C321.176 1372.83 321.144 1374 321.112 1375.18C321.112 1376.37 321.112 1377.52 321.112 1378.64C321.112 1379.95 321.128 1381.41 321.16 1383.01C321.192 1384.58 321.224 1386.14 321.256 1387.71C321.32 1389.25 321.352 1390.66 321.352 1391.94C321.384 1393.22 321.4 1394.21 321.4 1394.91C321.4 1396.9 321.176 1398.43 320.728 1399.52C320.312 1400.61 319.704 1401.36 318.904 1401.78C318.104 1402.22 317.176 1402.45 316.12 1402.45C314.968 1402.45 313.736 1402.21 312.424 1401.73C311.112 1401.28 309.88 1400.64 308.728 1399.81C307.608 1398.98 306.68 1398.02 305.944 1396.93C305.24 1395.81 304.888 1394.61 304.888 1393.33C304.888 1391.79 305.464 1390.27 306.616 1388.77C307.8 1387.23 309.352 1385.82 311.272 1384.54C313.224 1383.26 315.32 1382.24 317.56 1381.47C319.704 1380.67 321.912 1380.1 324.184 1379.74C326.456 1379.36 328.504 1379.17 330.328 1379.17C332.792 1379.17 335.016 1379.58 337 1380.42C338.984 1381.22 340.568 1382.4 341.752 1383.97C342.936 1385.54 343.528 1387.42 343.528 1389.63C343.528 1391.49 343.176 1393.2 342.472 1394.77C341.768 1396.34 340.632 1397.7 339.064 1398.85C337.528 1399.97 335.48 1400.85 332.92 1401.49C331.832 1401.71 330.744 1401.87 329.656 1401.97C328.6 1402.1 327.592 1402.19 326.632 1402.26L324.424 1396.06C325.512 1396.06 326.552 1396.05 327.544 1396.02C328.568 1395.95 329.496 1395.86 330.328 1395.73C331.64 1395.47 332.824 1395.09 333.88 1394.58C334.936 1394.06 335.768 1393.39 336.376 1392.56C336.984 1391.73 337.288 1390.74 337.288 1389.58C337.288 1388.5 336.984 1387.57 336.376 1386.8C335.8 1386.03 334.984 1385.44 333.928 1385.02C332.872 1384.61 331.64 1384.4 330.232 1384.4C328.216 1384.4 326.168 1384.61 324.088 1385.02C322.04 1385.44 320.072 1386.02 318.184 1386.75C316.776 1387.3 315.512 1387.94 314.392 1388.67C313.272 1389.38 312.392 1390.11 311.752 1390.88C311.112 1391.65 310.792 1392.38 310.792 1393.09C310.792 1393.47 310.904 1393.84 311.128 1394.19C311.384 1394.51 311.704 1394.8 312.088 1395.06C312.472 1395.31 312.856 1395.52 313.24 1395.68C313.656 1395.81 314.008 1395.87 314.296 1395.87C314.744 1395.87 315.112 1395.74 315.4 1395.49C315.688 1395.2 315.832 1394.66 315.832 1393.86C315.832 1392.99 315.8 1391.76 315.736 1390.16C315.704 1388.53 315.656 1386.72 315.592 1384.74C315.56 1382.75 315.544 1380.78 315.544 1378.83C315.544 1377.49 315.544 1376.13 315.544 1374.75C315.576 1373.38 315.592 1372.06 315.592 1370.82C315.592 1369.57 315.592 1368.46 315.592 1367.5C315.624 1366.54 315.64 1365.79 315.64 1365.25C315.64 1364.9 315.624 1364.45 315.592 1363.9C315.56 1363.36 315.512 1362.82 315.448 1362.27C315.416 1361.7 315.368 1361.28 315.304 1361.02H321.928ZM335.608 1366.21C336.824 1366.78 338.184 1367.49 339.688 1368.32C341.224 1369.15 342.68 1369.98 344.056 1370.82C345.464 1371.62 346.584 1372.34 347.416 1372.98L344.536 1377.87C343.928 1377.36 343.128 1376.78 342.136 1376.14C341.176 1375.5 340.12 1374.85 338.968 1374.18C337.848 1373.5 336.76 1372.88 335.704 1372.3C334.648 1371.7 333.736 1371.22 332.968 1370.86L335.608 1366.21ZM306.184 1368.85C307.592 1369.01 308.824 1369.12 309.88 1369.18C310.968 1369.22 311.944 1369.23 312.808 1369.23C314.056 1369.23 315.432 1369.18 316.936 1369.09C318.44 1368.96 319.976 1368.8 321.544 1368.61C323.112 1368.38 324.632 1368.13 326.104 1367.84C327.608 1367.55 328.968 1367.23 330.184 1366.88L330.328 1372.83C328.984 1373.15 327.528 1373.44 325.96 1373.7C324.392 1373.92 322.808 1374.13 321.208 1374.32C319.64 1374.51 318.136 1374.66 316.696 1374.75C315.288 1374.85 314.056 1374.9 313 1374.9C311.4 1374.9 310.088 1374.88 309.064 1374.85C308.04 1374.82 307.112 1374.75 306.28 1374.66L306.184 1368.85Z" fill="black"/>
<path d="M883.38 1224.25H922.501V1232.48H883.38V1224.25ZM879.546 1203.8H927.045V1235.25H917.886V1211.96H888.279V1235.32H879.546V1203.8ZM893.462 1168.16L903.189 1171.35C901.627 1174.24 899.947 1177.2 898.148 1180.23C896.397 1183.21 894.622 1186.05 892.823 1188.75C891.025 1191.4 889.321 1193.76 887.711 1195.85L880.043 1192.72C881.653 1190.54 883.286 1188.06 884.942 1185.27C886.599 1182.43 888.161 1179.52 889.628 1176.53C891.143 1173.55 892.421 1170.76 893.462 1168.16ZM910.502 1180.79L917.247 1175.82C919.614 1177.72 922.028 1179.85 924.489 1182.21C926.998 1184.53 929.294 1186.9 931.376 1189.31C933.506 1191.68 935.187 1193.88 936.417 1195.92L929.033 1201.6C927.897 1199.56 926.312 1197.34 924.276 1194.92C922.288 1192.46 920.087 1190 917.673 1187.54C915.259 1185.08 912.869 1182.83 910.502 1180.79ZM871.949 1188.82C875.547 1188.72 879.546 1188.6 883.948 1188.46C888.398 1188.27 893.06 1188.08 897.935 1187.89C902.858 1187.7 907.852 1187.52 912.916 1187.33C917.981 1187.14 922.951 1186.95 927.826 1186.76L927.471 1194.99C922.549 1195.28 917.579 1195.54 912.561 1195.78C907.544 1195.96 902.621 1196.18 897.793 1196.41C893.013 1196.6 888.469 1196.79 884.161 1196.98C879.854 1197.12 875.949 1197.27 872.446 1197.41L871.949 1188.82Z" fill="black"/>
<path d="M800.523 1178.8H864.139V1186.97H800.523V1178.8ZM831.692 1189.52H840.283V1235.32H831.692V1189.52ZM811.883 1197.69H855.832V1205.78H820.403V1229H811.883V1197.69ZM852.14 1197.69H860.731V1219.91C860.731 1221.85 860.47 1223.41 859.95 1224.6C859.476 1225.73 858.53 1226.61 857.11 1227.22C855.784 1227.84 854.128 1228.22 852.14 1228.36C850.199 1228.5 847.88 1228.57 845.182 1228.57C845.04 1227.39 844.708 1226.07 844.188 1224.6C843.667 1223.13 843.123 1221.88 842.555 1220.83C843.643 1220.88 844.732 1220.91 845.821 1220.91C846.957 1220.91 847.951 1220.91 848.803 1220.91C849.702 1220.91 850.317 1220.91 850.649 1220.91C851.217 1220.91 851.596 1220.83 851.785 1220.69C852.022 1220.5 852.14 1220.17 852.14 1219.7V1197.69ZM823.314 1168.51L832.118 1170.5C830.414 1176.32 828.236 1182.07 825.586 1187.75C822.982 1193.43 819.811 1198.73 816.072 1203.65C812.333 1208.53 807.931 1212.72 802.866 1216.22C802.535 1215.51 802.061 1214.71 801.446 1213.81C800.878 1212.86 800.286 1211.94 799.671 1211.04C799.056 1210.14 798.487 1209.38 797.967 1208.76C801.327 1206.59 804.357 1203.98 807.055 1200.95C809.8 1197.88 812.214 1194.54 814.297 1190.94C816.379 1187.35 818.178 1183.65 819.693 1179.87C821.207 1176.03 822.415 1172.25 823.314 1168.51Z" fill="black"/>
<path d="M742.587 1194H766.727V1201.17H742.587V1194ZM768.218 1194H793.707V1201.17H768.218V1194ZM751.533 1185.48H759.13V1235.25H751.533V1185.48ZM775.957 1185.48H783.625V1235.25H775.957V1185.48ZM750.752 1198.47L756.006 1199.89C755.248 1203.25 754.278 1206.61 753.095 1209.97C751.959 1213.33 750.657 1216.43 749.19 1219.27C747.722 1222.11 746.089 1224.5 744.291 1226.44C743.723 1225.54 742.895 1224.53 741.806 1223.39C740.765 1222.21 739.818 1221.28 738.966 1220.62C740.67 1219.01 742.279 1217.02 743.794 1214.66C745.308 1212.29 746.657 1209.71 747.841 1206.92C749.071 1204.08 750.042 1201.26 750.752 1198.47ZM775.602 1198.47L780.43 1199.89C779.625 1203.2 778.607 1206.54 777.377 1209.9C776.146 1213.21 774.774 1216.31 773.259 1219.2C771.792 1222.09 770.206 1224.53 768.502 1226.51C767.886 1225.66 767.058 1224.67 766.017 1223.53C764.976 1222.4 764.052 1221.52 763.248 1220.9C764.952 1219.3 766.585 1217.28 768.147 1214.87C769.709 1212.41 771.129 1209.76 772.407 1206.92C773.685 1204.08 774.75 1201.26 775.602 1198.47ZM784.832 1197.97C785.589 1200.67 786.536 1203.39 787.672 1206.14C788.855 1208.88 790.133 1211.46 791.506 1213.88C792.926 1216.29 794.346 1218.35 795.766 1220.05C794.914 1220.67 793.92 1221.54 792.784 1222.68C791.695 1223.82 790.82 1224.88 790.157 1225.87C788.784 1223.84 787.459 1221.38 786.181 1218.49C784.95 1215.56 783.814 1212.46 782.773 1209.19C781.731 1205.88 780.856 1202.63 780.146 1199.46L784.832 1197.97ZM758.065 1201.66C758.538 1202.04 759.248 1202.66 760.195 1203.51C761.141 1204.36 762.135 1205.28 763.177 1206.28C764.218 1207.27 765.165 1208.2 766.017 1209.05C766.916 1209.9 767.579 1210.49 768.005 1210.82L763.745 1217.64C763.177 1216.83 762.467 1215.89 761.615 1214.8C760.81 1213.71 759.911 1212.6 758.917 1211.46C757.97 1210.33 757.071 1209.26 756.219 1208.27C755.367 1207.27 754.657 1206.44 754.089 1205.78L758.065 1201.66ZM759.059 1168.65H767.934V1181.36H759.059V1168.65ZM737.546 1175.96H793.778V1184.06H737.546V1175.96ZM732.434 1175.96H740.954V1195.56C740.954 1198.4 740.859 1201.55 740.67 1205C740.528 1208.46 740.22 1211.98 739.747 1215.58C739.273 1219.18 738.587 1222.68 737.688 1226.09C736.836 1229.45 735.676 1232.5 734.209 1235.25C733.688 1234.73 732.978 1234.11 732.079 1233.4C731.179 1232.74 730.256 1232.08 729.31 1231.41C728.41 1230.8 727.629 1230.35 726.967 1230.06C728.245 1227.6 729.239 1224.9 729.949 1221.97C730.706 1219.03 731.251 1216.03 731.582 1212.95C731.961 1209.88 732.197 1206.85 732.292 1203.86C732.386 1200.88 732.434 1198.11 732.434 1195.56V1175.96Z" fill="black"/>
<path d="M688.969 1176.18C689.631 1177.13 690.365 1178.24 691.17 1179.52C691.974 1180.79 692.732 1182.07 693.442 1183.35C694.199 1184.63 694.862 1185.81 695.43 1186.9L689.253 1189.67C688.59 1188.15 687.927 1186.8 687.265 1185.62C686.649 1184.44 686.01 1183.3 685.348 1182.21C684.685 1181.08 683.904 1179.89 683.005 1178.66L688.969 1176.18ZM698.27 1172.27C698.98 1173.22 699.737 1174.31 700.542 1175.54C701.394 1176.77 702.198 1178.02 702.956 1179.3C703.76 1180.53 704.423 1181.69 704.944 1182.78L698.98 1185.69C698.222 1184.18 697.489 1182.85 696.779 1181.72C696.116 1180.53 695.43 1179.42 694.72 1178.38C694.057 1177.29 693.276 1176.18 692.377 1175.04L698.27 1172.27ZM660.64 1223.25C660.64 1222.3 660.64 1220.81 660.64 1218.78C660.64 1216.7 660.64 1214.31 660.64 1211.61C660.64 1208.86 660.64 1206.02 660.64 1203.09C660.64 1200.11 660.64 1197.24 660.64 1194.5C660.64 1191.7 660.64 1189.24 660.64 1187.11C660.64 1184.98 660.64 1183.42 660.64 1182.43C660.64 1181.15 660.569 1179.7 660.427 1178.1C660.332 1176.49 660.166 1175.07 659.93 1173.84H671.006C670.864 1175.07 670.722 1176.44 670.58 1177.95C670.438 1179.47 670.367 1180.96 670.367 1182.43C670.367 1183.7 670.367 1185.48 670.367 1187.75C670.367 1190.02 670.367 1192.56 670.367 1195.35C670.367 1198.09 670.367 1200.91 670.367 1203.8C670.367 1206.68 670.367 1209.45 670.367 1212.1C670.367 1214.71 670.367 1217 670.367 1218.99C670.367 1220.93 670.367 1222.35 670.367 1223.25C670.367 1223.87 670.39 1224.79 670.438 1226.02C670.532 1227.2 670.627 1228.43 670.722 1229.71C670.864 1230.99 670.982 1232.13 671.077 1233.12H659.93C660.166 1231.75 660.332 1230.11 660.427 1228.22C660.569 1226.28 660.64 1224.62 660.64 1223.25ZM668.308 1192.22C670.674 1192.84 673.301 1193.64 676.189 1194.64C679.123 1195.59 682.082 1196.63 685.064 1197.76C688.046 1198.85 690.862 1199.94 693.513 1201.03C696.163 1202.07 698.341 1203.02 700.045 1203.87L696.069 1213.74C694.033 1212.65 691.809 1211.58 689.395 1210.54C686.981 1209.5 684.519 1208.48 682.011 1207.49C679.549 1206.45 677.135 1205.5 674.769 1204.65C672.402 1203.8 670.248 1203.06 668.308 1202.45V1192.22Z" fill="black"/>
<path d="M605.26 1227.44C605.402 1226.73 605.52 1225.93 605.615 1225.03C605.757 1224.08 605.828 1223.13 605.828 1222.19C605.828 1221.67 605.828 1220.62 605.828 1219.06C605.828 1217.5 605.828 1215.61 605.828 1213.38C605.828 1211.16 605.828 1208.77 605.828 1206.21C605.828 1203.61 605.828 1200.98 605.828 1198.33C605.828 1195.68 605.828 1193.19 605.828 1190.88C605.828 1188.51 605.828 1186.45 605.828 1184.7C605.828 1182.9 605.828 1181.6 605.828 1180.79C605.828 1179.18 605.733 1177.79 605.544 1176.6C605.402 1175.42 605.307 1174.78 605.26 1174.69H615.839C615.791 1174.78 615.697 1175.44 615.555 1176.68C615.413 1177.86 615.342 1179.26 615.342 1180.86C615.342 1181.67 615.342 1182.88 615.342 1184.49C615.342 1186.05 615.342 1187.87 615.342 1189.95C615.342 1191.99 615.342 1194.17 615.342 1196.48C615.342 1198.8 615.342 1201.1 615.342 1203.37C615.342 1205.6 615.342 1207.73 615.342 1209.76C615.342 1211.75 615.342 1213.45 615.342 1214.87C615.342 1216.29 615.342 1217.33 615.342 1218C617.282 1217.15 619.294 1215.99 621.377 1214.52C623.459 1213.05 625.495 1211.35 627.483 1209.41C629.518 1207.42 631.317 1205.29 632.879 1203.02L638.346 1210.83C636.405 1213.38 634.038 1215.89 631.246 1218.35C628.5 1220.81 625.66 1223.06 622.726 1225.1C619.791 1227.13 616.975 1228.84 614.277 1230.21C613.519 1230.64 612.904 1231.01 612.431 1231.35C611.957 1231.72 611.555 1232.06 611.224 1232.34L605.26 1227.44ZM572.387 1226.38C575.511 1224.2 578.067 1221.57 580.055 1218.49C582.043 1215.42 583.51 1212.39 584.457 1209.41C584.977 1207.84 585.356 1205.93 585.593 1203.66C585.877 1201.34 586.09 1198.87 586.232 1196.27C586.374 1193.62 586.445 1191.02 586.445 1188.46C586.492 1185.86 586.516 1183.47 586.516 1181.29C586.516 1179.87 586.445 1178.66 586.303 1177.67C586.208 1176.63 586.066 1175.66 585.877 1174.76H596.314C596.266 1174.85 596.195 1175.26 596.101 1175.97C596.053 1176.63 595.982 1177.43 595.888 1178.38C595.84 1179.28 595.817 1180.23 595.817 1181.22C595.817 1183.3 595.793 1185.74 595.746 1188.53C595.698 1191.28 595.604 1194.09 595.462 1196.98C595.32 1199.87 595.107 1202.61 594.823 1205.22C594.539 1207.77 594.16 1209.95 593.687 1211.75C592.598 1215.77 590.965 1219.51 588.788 1222.97C586.658 1226.38 584.078 1229.43 581.049 1232.13L572.387 1226.38Z" fill="black"/>
<path d="M567.045 1180.93C566.666 1181.41 566.193 1182.02 565.625 1182.78C565.057 1183.49 564.607 1184.11 564.276 1184.63C563.187 1186.47 561.743 1188.6 559.945 1191.02C558.146 1193.38 556.158 1195.75 553.981 1198.12C551.803 1200.44 549.555 1202.42 547.236 1204.08L539.852 1198.19C541.272 1197.34 542.668 1196.34 544.041 1195.21C545.413 1194.07 546.668 1192.89 547.804 1191.66C548.987 1190.38 550.005 1189.17 550.857 1188.03C551.756 1186.9 552.442 1185.88 552.916 1184.98C552.3 1184.98 551.259 1184.98 549.792 1184.98C548.324 1184.98 546.573 1184.98 544.538 1184.98C542.502 1184.98 540.301 1184.98 537.935 1184.98C535.615 1184.98 533.296 1184.98 530.977 1184.98C528.657 1184.98 526.456 1184.98 524.374 1184.98C522.338 1184.98 520.563 1184.98 519.049 1184.98C517.581 1184.98 516.54 1184.98 515.925 1184.98C514.457 1184.98 513.061 1185.03 511.736 1185.12C510.41 1185.22 508.919 1185.34 507.263 1185.48V1175.61C508.635 1175.8 510.055 1175.96 511.523 1176.11C512.99 1176.25 514.457 1176.32 515.925 1176.32C516.54 1176.32 517.629 1176.32 519.191 1176.32C520.753 1176.32 522.599 1176.32 524.729 1176.32C526.906 1176.32 529.202 1176.32 531.616 1176.32C534.077 1176.32 536.515 1176.32 538.929 1176.32C541.39 1176.32 543.662 1176.32 545.745 1176.32C547.875 1176.32 549.673 1176.32 551.141 1176.32C552.655 1176.32 553.673 1176.32 554.194 1176.32C554.856 1176.32 555.661 1176.3 556.608 1176.25C557.554 1176.2 558.477 1176.13 559.377 1176.04C560.323 1175.94 561.01 1175.82 561.436 1175.68L567.045 1180.93ZM538.077 1190.52C538.077 1194.02 538.006 1197.41 537.864 1200.67C537.722 1203.94 537.319 1207.09 536.657 1210.12C536.041 1213.1 535.024 1215.94 533.604 1218.64C532.231 1221.33 530.314 1223.89 527.853 1226.3C525.391 1228.72 522.244 1230.94 518.41 1232.98L510.103 1226.23C511.239 1225.85 512.446 1225.36 513.724 1224.74C515.002 1224.08 516.28 1223.27 517.558 1222.33C519.83 1220.77 521.652 1219.11 523.025 1217.36C524.445 1215.61 525.533 1213.71 526.291 1211.68C527.048 1209.59 527.569 1207.35 527.853 1204.93C528.137 1202.47 528.279 1199.8 528.279 1196.91C528.279 1195.82 528.255 1194.78 528.208 1193.79C528.16 1192.74 528.018 1191.66 527.782 1190.52H538.077Z" fill="black"/>
<path d="M464.733 1191.58V1197.62H486.175V1191.58H464.733ZM464.733 1178.87V1184.84H486.175V1178.87H464.733ZM456.994 1171.7H494.34V1204.86H456.994V1171.7ZM456.568 1210.97H495.05V1218.63H456.568V1210.97ZM451.598 1225.38H497.464V1233.12H451.598V1225.38ZM430.795 1172.77H454.367V1180.65H430.795V1172.77ZM431.434 1193.22H453.16V1201.03H431.434V1193.22ZM429.943 1220.2C432.026 1219.63 434.345 1218.99 436.901 1218.28C439.505 1217.52 442.25 1216.69 445.137 1215.79C448.025 1214.85 450.865 1213.92 453.657 1213.03L455.148 1221.12C451.172 1222.44 447.149 1223.79 443.078 1225.17C439.008 1226.54 435.268 1227.77 431.86 1228.86L429.943 1220.2ZM438.605 1175.89H446.77V1219.49L438.605 1220.84V1175.89ZM472.046 1174.76H479.217V1201.45H479.998V1229H471.265V1201.45H472.046V1174.76Z" fill="black"/>
<path d="M370.73 1169H378.54V1235.18H370.73V1169ZM359.938 1192.36H389.048V1200.31H359.938V1192.36ZM369.168 1196.55L373.925 1198.89C373.31 1201.26 372.6 1203.77 371.795 1206.42C370.99 1209.02 370.091 1211.63 369.097 1214.23C368.103 1216.83 367.062 1219.3 365.973 1221.61C364.884 1223.89 363.725 1225.87 362.494 1227.58C362.257 1226.68 361.902 1225.71 361.429 1224.67C361.003 1223.58 360.53 1222.51 360.009 1221.47C359.536 1220.43 359.086 1219.53 358.66 1218.77C360.08 1217.02 361.453 1214.87 362.778 1212.31C364.151 1209.71 365.405 1207.04 366.541 1204.29C367.677 1201.5 368.553 1198.92 369.168 1196.55ZM378.469 1200.67C378.848 1201.05 379.392 1201.64 380.102 1202.44C380.859 1203.25 381.688 1204.17 382.587 1205.21C383.486 1206.21 384.338 1207.23 385.143 1208.27C385.995 1209.26 386.752 1210.16 387.415 1210.96C388.125 1211.77 388.622 1212.38 388.906 1212.81L383.723 1219.48C383.25 1218.44 382.634 1217.24 381.877 1215.86C381.12 1214.44 380.292 1213 379.392 1211.53C378.493 1210.02 377.617 1208.6 376.765 1207.27C375.913 1205.95 375.179 1204.86 374.564 1204.01L378.469 1200.67ZM359.867 1174.47L365.831 1172.91C366.446 1174.61 366.991 1176.46 367.464 1178.45C367.985 1180.43 368.411 1182.38 368.742 1184.27C369.073 1186.16 369.31 1187.87 369.452 1189.38L363.062 1191.08C363.015 1189.57 362.825 1187.87 362.494 1185.97C362.21 1184.03 361.831 1182.07 361.358 1180.08C360.932 1178.04 360.435 1176.17 359.867 1174.47ZM383.226 1172.55L390.397 1174.12C389.829 1176.06 389.214 1178.04 388.551 1180.08C387.888 1182.11 387.226 1184.08 386.563 1185.97C385.9 1187.82 385.285 1189.45 384.717 1190.87L379.321 1189.31C379.842 1187.79 380.339 1186.07 380.812 1184.13C381.333 1182.14 381.806 1180.13 382.232 1178.09C382.658 1176.06 382.989 1174.21 383.226 1172.55ZM410.135 1168.65H418.087V1235.32H410.135V1168.65ZM388.906 1213.09L425.4 1206.56L426.678 1214.44L390.184 1221.05L388.906 1213.09ZM392.882 1178.3L397.071 1172.55C398.397 1173.31 399.769 1174.19 401.189 1175.18C402.656 1176.17 404.029 1177.19 405.307 1178.23C406.633 1179.27 407.674 1180.25 408.431 1181.14L404.029 1187.53C403.319 1186.59 402.325 1185.57 401.047 1184.48C399.816 1183.39 398.491 1182.3 397.071 1181.22C395.651 1180.13 394.255 1179.16 392.882 1178.3ZM389.687 1196.2L393.663 1190.09C395.083 1190.8 396.55 1191.65 398.065 1192.65C399.58 1193.59 401.023 1194.56 402.396 1195.56C403.769 1196.5 404.881 1197.43 405.733 1198.33L401.402 1205.14C400.645 1204.24 399.603 1203.27 398.278 1202.23C396.953 1201.14 395.533 1200.08 394.018 1199.04C392.551 1197.95 391.107 1197 389.687 1196.2Z" fill="black"/>
<path d="M292.771 1196.12C293.623 1196.17 294.712 1196.24 296.037 1196.34C297.363 1196.39 298.735 1196.43 300.155 1196.48C301.623 1196.53 302.972 1196.55 304.202 1196.55C305.386 1196.55 306.853 1196.55 308.604 1196.55C310.356 1196.55 312.249 1196.55 314.284 1196.55C316.367 1196.55 318.497 1196.55 320.674 1196.55C322.899 1196.55 325.1 1196.55 327.277 1196.55C329.455 1196.55 331.514 1196.55 333.454 1196.55C335.395 1196.55 337.123 1196.55 338.637 1196.55C340.199 1196.55 341.43 1196.55 342.329 1196.55C343.986 1196.55 345.548 1196.5 347.015 1196.41C348.483 1196.27 349.69 1196.17 350.636 1196.12V1207.27C349.832 1207.22 348.625 1207.15 347.015 1207.06C345.406 1206.96 343.844 1206.92 342.329 1206.92C341.43 1206.92 340.199 1206.92 338.637 1206.92C337.075 1206.92 335.324 1206.92 333.383 1206.92C331.443 1206.92 329.384 1206.92 327.206 1206.92C325.076 1206.92 322.899 1206.92 320.674 1206.92C318.45 1206.92 316.296 1206.92 314.213 1206.92C312.178 1206.92 310.285 1206.92 308.533 1206.92C306.829 1206.92 305.386 1206.92 304.202 1206.92C302.167 1206.92 300.084 1206.96 297.954 1207.06C295.824 1207.11 294.097 1207.18 292.771 1207.27V1196.12Z" fill="black"/>
<path d="M250.953 1227.44C251.095 1226.73 251.213 1225.93 251.308 1225.03C251.45 1224.08 251.521 1223.13 251.521 1222.19C251.521 1221.67 251.521 1220.62 251.521 1219.06C251.521 1217.5 251.521 1215.61 251.521 1213.38C251.521 1211.16 251.521 1208.77 251.521 1206.21C251.521 1203.61 251.521 1200.98 251.521 1198.33C251.521 1195.68 251.521 1193.19 251.521 1190.88C251.521 1188.51 251.521 1186.45 251.521 1184.7C251.521 1182.9 251.521 1181.6 251.521 1180.79C251.521 1179.18 251.426 1177.79 251.237 1176.6C251.095 1175.42 251 1174.78 250.953 1174.69H261.532C261.485 1174.78 261.39 1175.44 261.248 1176.68C261.106 1177.86 261.035 1179.26 261.035 1180.86C261.035 1181.67 261.035 1182.88 261.035 1184.49C261.035 1186.05 261.035 1187.87 261.035 1189.95C261.035 1191.99 261.035 1194.17 261.035 1196.48C261.035 1198.8 261.035 1201.1 261.035 1203.37C261.035 1205.6 261.035 1207.73 261.035 1209.76C261.035 1211.75 261.035 1213.45 261.035 1214.87C261.035 1216.29 261.035 1217.33 261.035 1218C262.976 1217.15 264.987 1215.99 267.07 1214.52C269.153 1213.05 271.188 1211.35 273.176 1209.41C275.211 1207.42 277.01 1205.29 278.572 1203.02L284.039 1210.83C282.098 1213.38 279.732 1215.89 276.939 1218.35C274.194 1220.81 271.354 1223.06 268.419 1225.1C265.484 1227.13 262.668 1228.84 259.97 1230.21C259.213 1230.64 258.597 1231.01 258.124 1231.35C257.651 1231.72 257.248 1232.06 256.917 1232.34L250.953 1227.44ZM218.08 1226.38C221.204 1224.2 223.76 1221.57 225.748 1218.49C227.736 1215.42 229.203 1212.39 230.15 1209.41C230.671 1207.84 231.049 1205.93 231.286 1203.66C231.57 1201.34 231.783 1198.87 231.925 1196.27C232.067 1193.62 232.138 1191.02 232.138 1188.46C232.185 1185.86 232.209 1183.47 232.209 1181.29C232.209 1179.87 232.138 1178.66 231.996 1177.67C231.901 1176.63 231.759 1175.66 231.57 1174.76H242.007C241.96 1174.85 241.889 1175.26 241.794 1175.97C241.747 1176.63 241.676 1177.43 241.581 1178.38C241.534 1179.28 241.51 1180.23 241.51 1181.22C241.51 1183.3 241.486 1185.74 241.439 1188.53C241.392 1191.28 241.297 1194.09 241.155 1196.98C241.013 1199.87 240.8 1202.61 240.516 1205.22C240.232 1207.77 239.853 1209.95 239.38 1211.75C238.291 1215.77 236.658 1219.51 234.481 1222.97C232.351 1226.38 229.771 1229.43 226.742 1232.13L218.08 1226.38Z" fill="black"/>
<path d="M195.573 1185.55C195.573 1186.78 195.999 1187.85 196.851 1188.75C197.75 1189.6 198.815 1190.02 200.046 1190.02C201.324 1190.02 202.389 1189.6 203.241 1188.75C204.14 1187.85 204.59 1186.78 204.59 1185.55C204.59 1184.27 204.14 1183.21 203.241 1182.36C202.389 1181.46 201.324 1181.01 200.046 1181.01C198.815 1181.01 197.75 1181.46 196.851 1182.36C195.999 1183.21 195.573 1184.27 195.573 1185.55ZM190.887 1185.55C190.887 1183.8 191.289 1182.24 192.094 1180.86C192.946 1179.49 194.058 1178.4 195.431 1177.6C196.803 1176.75 198.342 1176.32 200.046 1176.32C201.797 1176.32 203.359 1176.75 204.732 1177.6C206.104 1178.4 207.193 1179.49 207.998 1180.86C208.85 1182.24 209.276 1183.8 209.276 1185.55C209.276 1187.21 208.85 1188.75 207.998 1190.17C207.193 1191.54 206.104 1192.65 204.732 1193.5C203.359 1194.31 201.797 1194.71 200.046 1194.71C198.342 1194.71 196.803 1194.31 195.431 1193.5C194.058 1192.65 192.946 1191.54 192.094 1190.17C191.289 1188.75 190.887 1187.21 190.887 1185.55ZM146.725 1208.77C147.813 1207.87 148.784 1207.02 149.636 1206.21C150.488 1205.41 151.482 1204.46 152.618 1203.37C153.422 1202.52 154.345 1201.5 155.387 1200.32C156.428 1199.13 157.54 1197.81 158.724 1196.34C159.954 1194.87 161.209 1193.38 162.487 1191.87C163.765 1190.31 165.019 1188.79 166.25 1187.33C168.332 1184.82 170.486 1183.44 172.711 1183.21C174.935 1182.92 177.42 1184.11 180.166 1186.76C181.775 1188.22 183.408 1189.81 185.065 1191.51C186.769 1193.22 188.425 1194.92 190.035 1196.63C191.691 1198.33 193.23 1199.96 194.65 1201.53C196.259 1203.18 198.058 1205.1 200.046 1207.28C202.081 1209.45 204.14 1211.68 206.223 1213.95C208.353 1216.22 210.317 1218.33 212.116 1220.27L204.306 1228.65C202.744 1226.66 201.063 1224.58 199.265 1222.4C197.466 1220.22 195.715 1218.12 194.011 1216.08C192.307 1214 190.745 1212.15 189.325 1210.54C188.331 1209.31 187.195 1208.01 185.917 1206.64C184.686 1205.22 183.455 1203.82 182.225 1202.45C180.994 1201.08 179.858 1199.84 178.817 1198.76C177.775 1197.67 176.947 1196.79 176.332 1196.13C175.148 1194.99 174.131 1194.47 173.279 1194.57C172.474 1194.61 171.551 1195.28 170.51 1196.56C169.847 1197.45 169.042 1198.52 168.096 1199.75C167.149 1200.98 166.179 1202.28 165.185 1203.66C164.191 1205.03 163.22 1206.35 162.274 1207.63C161.374 1208.91 160.57 1210.02 159.86 1210.97C159.055 1212.1 158.25 1213.26 157.446 1214.45C156.641 1215.58 155.907 1216.62 155.245 1217.57L146.725 1208.77Z" fill="black"/>
</svg>
