<svg width="1080" height="1920" viewBox="0 0 1080 1920" fill="none" xmlns="http://www.w3.org/2000/svg">
<path d="M1080 1920L1080 0L0 0L0 1920H1080Z" fill="#A5D4AD"/>
<path d="M1020 983.72V95C1020 75.67 1004.33 60 985 60H95.58C75.93 60 60 75.93 60 95.58V983.71C60 984.03 60.25 984.28 60.57 984.28C80.03 984.59 95.71 1000.46 95.71 1019.99C95.71 1039.52 80.03 1055.39 60.57 1055.7C60.25 1055.7 60 1055.96 60 1056.27V1824.99C60 1844.32 75.67 1859.99 95 1859.99H985C1004.33 1859.99 1020 1844.32 1020 1824.99V1056.27C1020 1055.95 1019.75 1055.7 1019.43 1055.7C999.97 1055.39 984.29 1039.52 984.29 1019.99C984.29 1000.46 999.97 984.59 1019.43 984.28C1019.75 984.28 1020 984.02 1020 983.71V983.72Z" fill="white"/>
<path d="M60.57 1055.71C60.25 1055.71 60 1055.97 60 1056.28V1825C60 1844.33 75.67 1860 95 1860H985C1004.33 1860 1020 1844.33 1020 1825V1056.28C1020 1055.96 1019.75 1055.71 1019.43 1055.71C999.97 1055.4 984.29 1039.53 984.29 1020H95.71C95.71 1039.53 80.03 1055.4 60.57 1055.71Z" fill="#E5F2E6"/>
<path d="M121 1020H160.9" stroke="black" stroke-width="6" stroke-miterlimit="10"/>
<path d="M187.51 1020H227.41" stroke="black" stroke-width="6" stroke-miterlimit="10"/>
<path d="M254.02 1020H293.92" stroke="black" stroke-width="6" stroke-miterlimit="10"/>
<path d="M320.52 1020H360.43" stroke="black" stroke-width="6" stroke-miterlimit="10"/>
<path d="M387.03 1020H426.94" stroke="black" stroke-width="6" stroke-miterlimit="10"/>
<path d="M453.54 1020H493.44" stroke="black" stroke-width="6" stroke-miterlimit="10"/>
<path d="M520.05 1020H559.95" stroke="black" stroke-width="6" stroke-miterlimit="10"/>
<path d="M586.56 1020H626.46" stroke="black" stroke-width="6" stroke-miterlimit="10"/>
<path d="M653.06 1020H692.97" stroke="black" stroke-width="6" stroke-miterlimit="10"/>
<path d="M719.57 1020H759.48" stroke="black" stroke-width="6" stroke-miterlimit="10"/>
<path d="M786.08 1020H825.98" stroke="black" stroke-width="6" stroke-miterlimit="10"/>
<path d="M852.59 1020H892.49" stroke="black" stroke-width="6" stroke-miterlimit="10"/>
<path d="M919.1 1020H959" stroke="black" stroke-width="6" stroke-miterlimit="10"/>
<path d="M1020 984.29V95C1020 75.67 1004.33 60 985 60H95C75.67 60 60 75.67 60 95V984.29C79.72 984.29 95.71 1000.28 95.71 1020C95.71 1039.72 79.72 1055.71 60 1055.71V1825C60 1844.33 75.67 1860 95 1860H985C1004.33 1860 1020 1844.33 1020 1825V1055.71C1000.28 1055.71 984.29 1039.72 984.29 1020C984.29 1000.28 1000.28 984.29 1020 984.29Z" stroke="black" stroke-width="6" stroke-miterlimit="10"/>
<path d="M912.649 525.666C908.779 525.666 905.539 522.646 905.319 518.736C900.589 435.626 868.789 358.856 813.369 296.746C810.669 293.716 810.929 289.066 813.959 286.366C816.989 283.666 821.629 283.926 824.339 286.956C881.999 351.576 915.069 431.436 919.999 517.896C920.229 521.946 917.129 525.426 913.079 525.656C912.939 525.656 912.799 525.666 912.659 525.666H912.649Z" fill="black"/>
<path d="M818.849 795.517C817.109 795.517 815.359 794.897 813.959 793.647C810.929 790.947 810.669 786.297 813.369 783.267C868.789 721.157 900.589 644.387 905.319 561.277C905.549 557.227 909.029 554.117 913.079 554.357C917.129 554.587 920.229 558.057 919.999 562.117C915.069 648.587 881.999 728.447 824.339 793.057C822.889 794.687 820.869 795.517 818.849 795.517Z" fill="black"/>
<path d="M167.36 525.666C167.22 525.666 167.08 525.666 166.94 525.656C162.89 525.426 159.79 521.956 160.02 517.896C164.95 431.426 198.02 351.566 255.68 286.956C258.38 283.926 263.03 283.666 266.06 286.366C269.09 289.066 269.35 293.716 266.65 296.746C211.23 358.856 179.43 435.616 174.7 518.736C174.48 522.646 171.24 525.666 167.37 525.666H167.36Z" fill="black"/>
<path d="M261.17 795.517C259.15 795.517 257.13 794.687 255.68 793.057C198.02 728.437 164.95 648.577 160.02 562.117C159.79 558.067 162.89 554.587 166.94 554.357C170.99 554.117 174.47 557.227 174.7 561.277C179.43 644.397 211.23 721.157 266.65 783.267C269.35 786.297 269.09 790.947 266.06 793.647C264.66 794.897 262.91 795.517 261.17 795.517Z" fill="black"/>
<path d="M788.169 268.511C786.429 268.511 784.679 267.891 783.279 266.641C721.169 211.221 644.399 179.421 561.289 174.691C557.239 174.461 554.139 170.991 554.369 166.931C554.599 162.881 558.039 159.791 562.129 160.011C648.599 164.941 728.459 198.011 793.069 255.671C796.099 258.371 796.359 263.021 793.659 266.051C792.209 267.681 790.189 268.511 788.169 268.511Z" fill="black"/>
<path d="M291.85 268.512C289.83 268.512 287.81 267.682 286.36 266.052C283.66 263.022 283.92 258.372 286.95 255.672C351.57 198.012 431.43 164.942 517.89 160.012C521.94 159.782 525.42 162.882 525.65 166.932C525.88 170.982 522.78 174.462 518.73 174.692C435.62 179.422 358.85 211.222 296.74 266.642C295.34 267.892 293.59 268.512 291.85 268.512Z" fill="black"/>
<path d="M561.69 920.006C557.82 920.006 554.58 916.986 554.36 913.076C554.13 909.026 557.23 905.546 561.28 905.316C644.4 900.586 721.16 868.786 783.27 813.366C786.3 810.666 790.95 810.926 793.65 813.956C796.35 816.986 796.09 821.636 793.06 824.336C728.44 881.996 648.58 915.066 562.12 919.996C561.98 919.996 561.84 920.006 561.7 920.006H561.69Z" fill="black"/>
<path d="M518.319 920.006C518.179 920.006 518.04 920.006 517.9 919.996C431.43 915.066 351.569 881.996 286.959 824.336C283.929 821.636 283.669 816.986 286.369 813.956C289.069 810.926 293.719 810.666 296.749 813.366C358.859 868.786 435.629 900.586 518.739 905.316C522.789 905.546 525.889 909.016 525.659 913.076C525.439 916.986 522.199 920.006 518.329 920.006H518.319Z" fill="black"/>
<path d="M875.38 526.189C872.37 526.189 869.85 523.839 869.68 520.799C865.41 445.789 836.71 376.519 786.7 320.459C784.6 318.099 784.8 314.489 787.16 312.389C789.51 310.289 793.13 310.489 795.23 312.849C846.98 370.849 876.68 442.539 881.1 520.149C881.28 523.299 878.87 525.999 875.72 526.179C875.61 526.179 875.5 526.179 875.39 526.179L875.38 526.189Z" fill="black"/>
<path d="M790.96 769.062C789.6 769.062 788.25 768.582 787.16 767.612C784.8 765.512 784.6 761.892 786.7 759.542C836.71 703.492 865.41 634.212 869.68 559.202C869.86 556.052 872.55 553.642 875.71 553.822C878.86 554.002 881.27 556.702 881.09 559.852C876.67 637.472 846.98 709.152 795.22 767.152C794.09 768.422 792.52 769.062 790.95 769.062H790.96Z" fill="black"/>
<path d="M204.63 526.187C204.52 526.187 204.41 526.187 204.3 526.187C201.15 526.007 198.74 523.307 198.92 520.157C203.34 442.537 233.03 370.857 284.79 312.857C286.89 310.497 290.51 310.297 292.86 312.397C295.22 314.497 295.42 318.117 293.32 320.467C243.31 376.517 214.61 445.797 210.34 520.807C210.17 523.847 207.65 526.197 204.64 526.197L204.63 526.187Z" fill="black"/>
<path d="M289.05 769.055C287.48 769.055 285.91 768.405 284.78 767.145C233.03 709.145 203.33 637.455 198.91 559.845C198.73 556.695 201.14 553.995 204.29 553.815C207.45 553.625 210.14 556.045 210.32 559.195C214.59 634.205 243.29 703.485 293.3 759.535C295.4 761.895 295.2 765.505 292.84 767.605C291.75 768.575 290.39 769.055 289.04 769.055H289.05Z" fill="black"/>
<path d="M763.35 294.756C761.99 294.756 760.64 294.276 759.55 293.306C703.5 243.296 634.22 214.596 559.21 210.326C556.06 210.146 553.65 207.446 553.83 204.296C554.01 201.146 556.7 198.736 559.86 198.916C637.48 203.336 709.16 233.026 767.16 284.786C769.52 286.886 769.72 290.506 767.62 292.856C766.49 294.126 764.92 294.766 763.35 294.766V294.756Z" fill="black"/>
<path d="M316.66 294.759C315.09 294.759 313.52 294.109 312.39 292.849C310.29 290.489 310.49 286.879 312.85 284.779C370.85 233.029 442.54 203.329 520.15 198.909C523.3 198.719 526 201.139 526.18 204.289C526.36 207.439 523.95 210.139 520.8 210.319C445.79 214.589 376.52 243.289 320.46 293.299C319.37 294.269 318.01 294.749 316.66 294.749V294.759Z" fill="black"/>
<path d="M559.53 881.102C556.52 881.102 554 878.752 553.83 875.712C553.65 872.562 556.06 869.862 559.21 869.682C634.22 865.412 703.49 836.712 759.55 786.702C761.9 784.602 765.52 784.802 767.62 787.162C769.72 789.522 769.52 793.132 767.16 795.232C709.16 846.982 637.47 876.682 559.86 881.102C559.75 881.102 559.64 881.102 559.53 881.102Z" fill="black"/>
<path d="M520.49 881.102C520.38 881.102 520.27 881.102 520.16 881.102C442.54 876.682 370.86 846.992 312.86 795.232C310.5 793.132 310.3 789.512 312.4 787.162C314.5 784.802 318.12 784.602 320.47 786.702C376.52 836.722 445.8 865.412 520.81 869.682C523.96 869.862 526.37 872.562 526.19 875.712C526.02 878.752 523.5 881.102 520.49 881.102Z" fill="black"/>
<path d="M841.85 526.514C839.7 526.514 837.9 524.834 837.78 522.664C833.92 454.914 808 392.344 762.83 341.714C761.33 340.034 761.48 337.454 763.16 335.944C764.84 334.444 767.42 334.584 768.93 336.274C815.35 388.294 841.98 452.584 845.94 522.194C846.07 524.444 844.35 526.374 842.09 526.504C842.01 526.504 841.93 526.504 841.85 526.504V526.514Z" fill="black"/>
<path d="M765.87 745.106C764.9 745.106 763.93 744.766 763.15 744.066C761.47 742.566 761.32 739.986 762.82 738.296C807.99 687.666 833.91 625.096 837.77 557.346C837.9 555.096 839.86 553.396 842.08 553.496C844.33 553.626 846.05 555.556 845.93 557.806C841.96 627.416 815.33 691.706 768.92 743.726C768.11 744.626 766.99 745.086 765.87 745.086V745.106Z" fill="black"/>
<path d="M238.17 526.516C238.09 526.516 238.01 526.516 237.93 526.516C235.68 526.386 233.96 524.456 234.08 522.206C238.05 452.596 264.68 388.306 311.09 336.286C312.59 334.606 315.17 334.456 316.86 335.956C318.54 337.456 318.69 340.036 317.19 341.726C272.02 392.356 246.1 454.926 242.24 522.676C242.12 524.846 240.32 526.526 238.17 526.526V526.516Z" fill="black"/>
<path d="M314.14 745.103C313.02 745.103 311.9 744.643 311.09 743.743C264.67 691.723 238.04 627.433 234.08 557.823C233.95 555.573 235.67 553.643 237.93 553.513C240.17 553.403 242.11 555.103 242.24 557.363C246.1 625.113 272.02 687.683 317.19 738.313C318.69 739.993 318.54 742.573 316.86 744.083C316.08 744.773 315.11 745.123 314.14 745.123V745.103Z" fill="black"/>
<path d="M741.02 318.225C740.05 318.225 739.08 317.885 738.3 317.185C687.67 272.015 625.1 246.095 557.35 242.235C555.1 242.105 553.38 240.175 553.5 237.925C553.63 235.675 555.55 233.965 557.81 234.075C627.42 238.045 691.71 264.675 743.74 311.085C745.42 312.585 745.57 315.165 744.07 316.855C743.26 317.755 742.14 318.215 741.02 318.215V318.225Z" fill="black"/>
<path d="M339 318.224C337.88 318.224 336.76 317.764 335.95 316.864C334.45 315.184 334.6 312.604 336.28 311.094C388.3 264.674 452.59 238.044 522.2 234.084C524.45 233.964 526.38 235.674 526.51 237.934C526.64 240.184 524.92 242.114 522.66 242.244C454.91 246.104 392.34 272.024 341.71 317.194C340.93 317.884 339.96 318.234 338.99 318.234L339 318.224Z" fill="black"/>
<path d="M557.57 845.933C555.42 845.933 553.62 844.253 553.5 842.083C553.37 839.833 555.09 837.903 557.35 837.773C625.1 833.913 687.67 807.993 738.3 762.823C739.98 761.323 742.56 761.473 744.07 763.153C745.57 764.833 745.42 767.413 743.74 768.923C691.72 815.343 627.43 841.973 557.81 845.933C557.73 845.933 557.65 845.933 557.57 845.933Z" fill="black"/>
<path d="M522.44 845.933C522.36 845.933 522.28 845.933 522.2 845.933C452.59 841.963 388.3 815.333 336.28 768.923C334.6 767.423 334.45 764.843 335.95 763.153C337.45 761.473 340.03 761.323 341.72 762.823C392.35 807.993 454.92 833.913 522.67 837.773C524.92 837.903 526.64 839.833 526.52 842.083C526.4 844.253 524.6 845.933 522.45 845.933H522.44Z" fill="black"/>
<path d="M320.65 546.174C320.65 544.604 321.79 543.274 323.34 543.024C324.64 542.814 326.27 542.524 327.98 542.124C332.4 541.084 337.59 539.114 343.41 536.274C349.29 533.404 354.92 529.414 359.17 523.674C366.34 513.974 367.86 501.404 368.19 496.894C368.26 495.974 367.53 495.194 366.6 495.194H317.09C315.33 495.194 313.91 493.764 313.91 492.014V470.694C313.91 468.934 315.34 467.514 317.09 467.514H367.07C367.95 467.514 368.66 466.804 368.66 465.924V447.184C368.66 446.304 367.95 445.594 367.07 445.594H328.62C326.86 445.594 325.44 444.164 325.44 442.414V421.094C325.44 419.334 326.87 417.914 328.62 417.914H428.96C430.72 417.914 432.14 419.344 432.14 421.094V442.414C432.14 444.174 430.71 445.594 428.96 445.594H398.52C397.64 445.594 396.93 446.304 396.93 447.184V465.924C396.93 466.804 397.64 467.514 398.52 467.514H438.58C440.34 467.514 441.76 468.944 441.76 470.694V492.014C441.76 493.774 440.33 495.194 438.58 495.194H398.39C397.54 495.194 396.84 495.864 396.8 496.714C396.57 501.754 395.15 518.444 386.18 532.854C380.73 541.614 373.65 548.264 366.54 553.544C359.41 558.844 352.26 562.934 345.27 565.704C338.24 568.494 332.34 570.444 327.75 571.514C326.66 571.764 325.49 571.994 324.4 572.184C322.45 572.534 320.66 571.034 320.66 569.044V546.164L320.65 546.174Z" fill="black"/>
<path d="M474.55 546.522C474.55 545.062 475.55 543.792 476.96 543.432C485.21 541.362 488.93 540.112 496.84 536.322C496.84 536.322 500.89 534.212 504.93 531.302C517.11 522.542 525.22 510.632 525.22 510.632C534.68 497.282 537.77 474.912 538.49 468.492C538.6 467.552 537.86 466.722 536.91 466.722H500.58C500.35 466.722 500.14 466.842 500.03 467.042L499.88 467.292C494.3 478.112 486.88 487.992 480.45 494.242C474 500.502 468.59 505.052 464.38 507.752L461.78 509.422C460.72 510.102 459.33 509.342 459.33 508.082V479.892C459.33 478.952 459.75 478.062 460.47 477.452C461.12 476.902 461.99 476.132 463.18 475.062C465.94 472.572 469.05 468.512 472.42 462.982C475.76 457.512 479.35 450.212 483.07 441.292C486.45 433.202 488.98 423.092 490.86 412.062C491.12 410.532 492.45 409.422 494 409.422H513.91C515.91 409.422 517.42 411.252 517.04 413.212C516.4 416.522 515.71 420.882 514.85 424.312C513.58 429.392 512.76 432.302 511.24 436.722C510.98 437.472 511.54 438.242 512.33 438.242H591.18C592.94 438.242 594.36 439.672 594.36 441.422V463.512C594.36 465.272 592.93 466.692 591.18 466.692H568.14C567.33 466.692 566.64 467.302 566.56 468.112C565.93 474.012 562.88 497.162 552.39 517.262C538.29 546.002 508.14 566.392 478.34 572.132C476.38 572.512 474.56 571.002 474.56 569.002V546.482L474.55 546.522Z" fill="black"/>
<path d="M675.9 411.035V468.875C675.9 469.755 676.61 470.465 677.49 470.465H764.52C765.4 470.465 766.11 469.755 766.11 468.875V411.035C766.11 410.155 765.4 409.445 764.52 409.445H677.49C676.61 409.445 675.9 410.155 675.9 411.035ZM738.46 452.745H702.3C701.42 452.745 700.71 452.035 700.71 451.155V446.875C700.71 445.995 701.42 445.285 702.3 445.285H738.46C739.34 445.285 740.05 445.995 740.05 446.875V451.155C740.05 452.035 739.34 452.745 738.46 452.745ZM738.46 434.455H702.3C701.42 434.455 700.71 433.745 700.71 432.865V428.755C700.71 427.875 701.42 427.165 702.3 427.165H738.46C739.34 427.165 740.05 427.875 740.05 428.755V432.865C740.05 433.745 739.34 434.455 738.46 434.455Z" fill="black"/>
<path d="M674.23 497.342H728.27C729.15 497.342 729.86 498.052 729.86 498.932V502.842C729.86 503.722 729.15 504.432 728.27 504.432H667.76C666 504.432 664.58 505.862 664.58 507.612V522.862C664.58 524.622 666.01 526.042 667.76 526.042H728.27C729.15 526.042 729.86 526.752 729.86 527.632V545.392C729.86 546.112 729.94 547.982 729.22 548.852C728.39 549.872 727.15 549.672 725.85 549.722C722.54 549.722 719.58 549.702 716.95 549.662C716.55 549.662 716.26 549.292 716.34 548.902C716.6 547.632 716.73 546.312 716.7 544.962C716.5 535.682 708.94 528.082 699.66 527.842C689.58 527.582 681.37 535.852 681.71 545.942C682.02 555.292 689.79 562.812 699.15 562.842C704.04 562.852 708.46 560.862 711.64 557.642C711.98 557.302 712.55 557.432 712.7 557.882C714.16 562.212 715.54 566.342 716.79 570.052C717.23 571.352 718.46 572.222 719.83 572.212C725.73 572.172 730.51 571.962 734.18 571.602C738.31 571.182 742.09 570.152 745.52 568.502C749.18 566.842 751.69 564.422 753.05 561.232C754.41 558.042 755.09 553.552 755.09 547.762V527.622C755.09 526.742 755.8 526.032 756.68 526.032H762.91C764.67 526.032 766.09 524.602 766.09 522.852V507.602C766.09 505.842 764.66 504.422 762.91 504.422H756.68C755.8 504.422 755.09 503.712 755.09 502.832V498.922C755.09 498.042 755.8 497.332 756.68 497.332H762.91C764.67 497.332 766.09 495.902 766.09 494.152V479.602C766.09 477.842 764.66 476.422 762.91 476.422H674.21C672.45 476.422 671.03 477.852 671.03 479.602V494.152C671.03 495.912 672.46 497.332 674.21 497.332L674.23 497.342Z" fill="black"/>
<path d="M668.83 409.445H650.26C649.4 409.445 648.58 409.795 647.98 410.405C635.23 423.355 618.29 434.575 612.13 438.485C610.78 439.335 610.28 441.065 610.95 442.505L620.7 463.575C621.63 465.575 624.26 466.055 625.83 464.505C646.12 444.465 664.45 419.805 670.12 411.965C670.88 410.915 670.12 409.445 668.83 409.445Z" fill="black"/>
<path d="M671.92 453.899V435.419C671.92 434.009 670.22 433.299 669.21 434.289C653.64 449.609 620.05 477.069 611.68 483.869C610.55 484.789 610.19 486.359 610.8 487.679L620.7 509.059C621.63 511.059 624.26 511.539 625.83 509.989C627.54 508.299 629.24 506.569 630.92 504.829C631.32 504.419 632.02 504.699 632.02 505.269V569.069C632.02 570.829 633.45 572.249 635.2 572.249H653.82C655.58 572.249 657 570.819 657 569.069V476.379C657 475.309 657.36 474.259 658.03 473.419C664.87 464.739 669.72 458.029 671.34 455.749C671.72 455.209 671.93 454.569 671.93 453.899H671.92Z" fill="black"/>
<path d="M653.271 623.338C640.851 623.338 634.811 628.288 634.811 638.478V655.608C634.811 665.678 640.851 670.568 653.271 670.568C659.141 670.568 663.481 669.488 666.561 667.278C670.001 664.808 671.741 660.878 671.741 655.598V638.468C671.741 628.278 665.701 623.328 653.281 623.328L653.271 623.338ZM646.091 639.308C646.091 633.938 648.841 632.918 653.271 632.918C657.701 632.918 660.451 633.958 660.451 639.308V654.688C660.451 659.958 657.601 660.988 653.271 660.988C648.941 660.988 646.091 659.988 646.091 654.688V639.308Z" fill="black"/>
<path d="M708.271 669.334H721.36L703.63 646.784L720.56 624.804H707.401L694.06 642.284V610.234H682.771V669.334H694.06V659.214L696.951 655.454L708.271 669.334Z" fill="black"/>
<path d="M754.82 624.805V653.295C754.82 659.045 751.88 660.895 746.83 660.895C743.56 660.895 740.28 660.355 740.28 653.885V624.815H729V656.775C729 665.745 733.71 670.485 742.62 670.485C749.3 670.485 753.88 666.865 755.58 662.805L757.39 669.345H766.11V624.815H754.83L754.82 624.805Z" fill="black"/>
<path d="M630.57 610.234H589.15V620.144V620.154H604.22V669.334H615.69V620.154H630.57V610.234Z" fill="black"/>
<path d="M459.69 669.334H472.78L455.05 646.784L471.98 624.804H458.82L445.48 642.284V610.234H434.2V669.334H445.48V659.214L448.37 655.454L459.69 669.334Z" fill="black"/>
<path d="M355.33 610.234H313.91V620.144V620.154H328.99V669.334H340.45V620.154H355.33V610.234Z" fill="black"/>
<path d="M421.8 658.896L421.2 659.046C417.62 659.966 413.29 660.896 409.41 660.896C404.86 660.896 401.69 658.826 401.69 652.836V640.976C401.69 634.906 404.86 632.826 409.41 632.826C413.36 632.826 417.88 633.706 421.23 634.406L421.81 634.526V625.196L421.5 625.126C417.69 624.236 412.05 623.336 407.53 623.336C402.01 623.336 397.97 624.406 395.17 626.596C391.97 629.096 390.42 633.856 390.42 639.346V654.646C390.42 664.776 396.02 670.566 407.54 670.566C411.41 670.566 417.27 669.496 421.53 668.316L421.82 668.236V658.886L421.8 658.896Z" fill="black"/>
<path d="M553.93 634.705V624.805H543.69V615.195H532.41V624.805H525.18V634.705H532.41V655.425C532.41 667.945 540.3 670.565 546.93 670.565C548.71 670.565 550.51 670.455 552.12 670.225V660.265C551.47 660.335 550.26 660.365 549.54 660.365C546.46 660.365 543.69 659.735 543.69 652.095V634.695H553.93V634.705Z" fill="black"/>
<path d="M489.74 650.742V650.562H515.17V641.482C515.17 635.572 513.55 630.243 510.36 627.343C507.42 624.673 502.78 623.312 497.26 623.312C485.08 623.312 478.46 629.223 478.46 639.593V654.453C478.46 664.703 483.84 670.552 496.32 670.552C500.98 670.552 506.29 669.563 511.97 668.403L512.36 668.323V659.052L511.71 659.203C507.14 660.253 504.62 661.143 500.29 661.143C494.08 661.143 489.74 658.623 489.74 652.203V650.722V650.742ZM489.74 639.722C489.74 634.072 493.8 632.742 497.17 632.742C500.54 632.742 504.07 634.072 504.07 639.722V643.232H489.74V642.713V639.722Z" fill="black"/>
<path d="M378.18 626.883H366.9V669.333H378.18V626.883Z" fill="black"/>
<path d="M372.54 622.224C376.422 622.224 379.57 619.077 379.57 615.194C379.57 611.312 376.422 608.164 372.54 608.164C368.657 608.164 365.51 611.312 365.51 615.194C365.51 619.077 368.657 622.224 372.54 622.224Z" fill="black"/>
<path d="M585.74 643.922H566.15V651.262H585.74V643.922Z" fill="black"/>
<path d="M739.981 1708C739.134 1708 738.408 1707.4 738.408 1706.43V1612.66C738.408 1611.93 739.013 1611.2 739.981 1611.2H784.267C785.235 1611.2 785.84 1611.81 785.84 1612.66V1622.09C785.84 1622.94 785.235 1623.55 784.267 1623.55H751.113V1653.43H783.178C784.025 1653.43 784.63 1654.04 784.63 1654.88V1664.08C784.63 1665.05 784.025 1665.77 783.178 1665.77H751.113V1706.43C751.113 1707.4 750.387 1708 749.54 1708H739.981Z" fill="black"/>
<path d="M671.328 1708C670.481 1708 669.755 1707.4 669.755 1706.43V1612.66C669.755 1611.93 670.36 1611.2 671.328 1611.2H715.614C716.582 1611.2 717.187 1611.81 717.187 1612.66V1622.09C717.187 1622.94 716.582 1623.55 715.614 1623.55H682.46V1653.43H714.525C715.372 1653.43 715.977 1654.04 715.977 1654.88V1664.08C715.977 1665.05 715.372 1665.77 714.525 1665.77H682.46V1706.43C682.46 1707.4 681.734 1708 680.887 1708H671.328Z" fill="black"/>
<path d="M601.771 1621.97C581.322 1621.97 564.866 1638.66 564.866 1659.48C564.866 1680.05 581.201 1697.23 601.65 1697.23C622.099 1697.23 638.797 1680.05 638.797 1659.6C638.797 1638.79 622.22 1621.97 601.771 1621.97ZM552.04 1659.48C552.04 1631.65 573.941 1609.38 601.771 1609.38C629.601 1609.38 651.623 1631.77 651.623 1659.6C651.623 1687.43 629.48 1709.81 601.65 1709.81C573.82 1709.81 552.04 1687.31 552.04 1659.48Z" fill="black"/>
<path d="M463.744 1707.27C463.502 1707.76 463.018 1708 462.534 1708H451.402C450.313 1708 449.587 1706.79 450.192 1705.82L503.916 1611.92C504.158 1611.44 504.642 1611.2 505.247 1611.2H516.379C517.71 1611.2 518.194 1612.41 517.589 1613.38L463.744 1707.27ZM432.647 1634.43C432.647 1620.51 443.537 1609.38 457.452 1609.38C471.488 1609.38 482.378 1620.51 482.378 1634.55C482.378 1648.47 471.246 1659.6 457.452 1659.6C443.416 1659.6 432.647 1648.47 432.647 1634.43ZM445.352 1634.43C445.352 1641.33 450.676 1647.01 457.452 1647.01C464.228 1647.01 469.673 1641.33 469.673 1634.55C469.673 1627.65 464.228 1622.21 457.452 1622.21C450.797 1622.21 445.352 1627.65 445.352 1634.43ZM487.218 1684.52C487.218 1670.61 498.108 1659.48 512.023 1659.48C526.059 1659.48 536.949 1670.61 536.949 1684.64C536.949 1698.56 525.817 1709.69 512.023 1709.69C497.987 1709.69 487.218 1698.56 487.218 1684.52ZM499.923 1684.52C499.923 1691.42 505.247 1697.11 512.023 1697.11C518.799 1697.11 524.244 1691.42 524.244 1684.64C524.244 1677.75 518.799 1672.3 512.023 1672.3C505.368 1672.3 499.923 1677.75 499.923 1684.52Z" fill="black"/>
<path d="M404.781 1659.48C404.781 1641.33 399.094 1621.72 383.969 1621.72C368.844 1621.72 363.157 1641.33 363.157 1659.48C363.157 1678.84 368.844 1697.47 383.969 1697.47C399.094 1697.47 404.781 1678.84 404.781 1659.48ZM350.452 1659.48C350.452 1635.28 359.769 1609.38 383.969 1609.38C408.169 1609.38 417.486 1635.28 417.486 1659.48C417.486 1686.1 408.169 1709.81 383.969 1709.81C359.769 1709.81 350.452 1686.1 350.452 1659.48Z" fill="black"/>
<path d="M324.822 1611.2C325.669 1611.2 326.274 1611.81 326.274 1612.66V1706.43C326.274 1707.28 325.669 1708 324.822 1708H315.142C314.295 1708 313.69 1707.28 313.69 1706.43V1623.55H298.565C297.234 1623.55 296.629 1622.21 297.234 1621.37L303.284 1611.81C303.526 1611.45 304.01 1611.2 304.494 1611.2H324.822Z" fill="black"/>
<path d="M876.328 1459.5C876.168 1460.37 875.912 1461.49 875.56 1462.86C875.208 1464.24 874.696 1465.79 874.024 1467.52C873.512 1468.7 872.92 1469.94 872.248 1471.22C871.608 1472.46 870.952 1473.58 870.28 1474.58C870.696 1474.38 871.224 1474.22 871.864 1474.1C872.504 1473.94 873.16 1473.82 873.832 1473.76C874.536 1473.66 875.16 1473.62 875.704 1473.62C877.72 1473.62 879.384 1474.19 880.696 1475.34C882.04 1476.5 882.712 1478.21 882.712 1480.48C882.712 1481.12 882.712 1481.9 882.712 1482.83C882.744 1483.76 882.776 1484.74 882.808 1485.76C882.84 1486.75 882.872 1487.73 882.904 1488.69C882.936 1489.65 882.952 1490.51 882.952 1491.28H877.192C877.256 1490.74 877.288 1490.1 877.288 1489.36C877.32 1488.59 877.336 1487.79 877.336 1486.96C877.368 1486.13 877.384 1485.33 877.384 1484.56C877.416 1483.76 877.432 1483.04 877.432 1482.4C877.432 1480.86 877.016 1479.81 876.184 1479.23C875.384 1478.62 874.488 1478.32 873.496 1478.32C872.152 1478.32 870.792 1478.66 869.416 1479.33C868.072 1479.97 866.936 1480.74 866.008 1481.63C865.304 1482.34 864.584 1483.12 863.848 1483.98C863.144 1484.85 862.376 1485.82 861.544 1486.91L856.408 1483.07C858.488 1481.15 860.28 1479.3 861.784 1477.5C863.32 1475.71 864.616 1473.94 865.672 1472.18C866.728 1470.42 867.592 1468.66 868.264 1466.9C868.744 1465.62 869.128 1464.29 869.416 1462.91C869.736 1461.5 869.928 1460.19 869.992 1458.98L876.328 1459.5ZM858.28 1463.92C859.496 1464.11 860.904 1464.26 862.504 1464.35C864.104 1464.45 865.512 1464.5 866.728 1464.5C868.84 1464.5 871.144 1464.45 873.64 1464.35C876.168 1464.26 878.728 1464.1 881.32 1463.87C883.912 1463.62 886.376 1463.3 888.712 1462.91L888.664 1468.48C886.968 1468.7 885.128 1468.91 883.144 1469.1C881.192 1469.26 879.192 1469.41 877.144 1469.54C875.128 1469.63 873.192 1469.71 871.336 1469.78C869.48 1469.81 867.832 1469.82 866.392 1469.82C865.752 1469.82 864.952 1469.82 863.992 1469.82C863.064 1469.79 862.104 1469.76 861.112 1469.73C860.12 1469.66 859.176 1469.6 858.28 1469.54V1463.92ZM896.296 1477.55C895.784 1477.71 895.176 1477.92 894.472 1478.18C893.8 1478.4 893.112 1478.64 892.408 1478.9C891.736 1479.12 891.128 1479.34 890.584 1479.57C889.048 1480.18 887.224 1480.91 885.112 1481.78C883.032 1482.64 880.856 1483.65 878.584 1484.8C877.144 1485.57 875.928 1486.32 874.936 1487.06C873.944 1487.79 873.192 1488.54 872.68 1489.31C872.168 1490.05 871.912 1490.86 871.912 1491.76C871.912 1492.43 872.056 1492.99 872.344 1493.44C872.632 1493.86 873.064 1494.19 873.64 1494.45C874.216 1494.7 874.936 1494.88 875.8 1494.98C876.664 1495.07 877.688 1495.12 878.872 1495.12C880.92 1495.12 883.176 1495.01 885.64 1494.78C888.104 1494.53 890.392 1494.19 892.504 1493.78L892.312 1499.97C891.288 1500.1 889.992 1500.22 888.424 1500.35C886.856 1500.51 885.224 1500.62 883.528 1500.69C881.864 1500.75 880.264 1500.78 878.728 1500.78C876.232 1500.78 873.992 1500.54 872.008 1500.06C870.024 1499.58 868.456 1498.77 867.304 1497.62C866.184 1496.43 865.624 1494.82 865.624 1492.77C865.624 1491.1 865.992 1489.6 866.728 1488.26C867.496 1486.91 868.504 1485.7 869.752 1484.61C871 1483.52 872.36 1482.54 873.832 1481.68C875.336 1480.78 876.808 1479.97 878.248 1479.23C879.72 1478.46 881.048 1477.81 882.232 1477.26C883.416 1476.72 884.52 1476.24 885.544 1475.82C886.6 1475.38 887.608 1474.93 888.568 1474.48C889.496 1474.06 890.392 1473.66 891.256 1473.28C892.12 1472.86 893 1472.43 893.896 1471.98L896.296 1477.55Z" fill="black"/>
<path d="M848.152 1468.15C847.896 1468.59 847.624 1469.14 847.336 1469.78C847.048 1470.39 846.792 1470.99 846.568 1471.6C846.152 1473.01 845.56 1474.63 844.792 1476.45C844.056 1478.24 843.128 1480.11 842.008 1482.07C840.92 1483.99 839.656 1485.84 838.216 1487.63C835.912 1490.39 833.224 1492.88 830.152 1495.12C827.112 1497.36 823.336 1499.38 818.824 1501.17L813.16 1496.08C816.424 1495.12 819.24 1494.02 821.608 1492.77C823.976 1491.52 826.04 1490.19 827.8 1488.79C829.56 1487.35 831.129 1485.83 832.505 1484.23C833.625 1482.98 834.648 1481.57 835.576 1480C836.504 1478.4 837.305 1476.82 837.977 1475.25C838.649 1473.68 839.096 1472.31 839.32 1471.12H823.144L825.352 1465.7C825.8 1465.7 826.489 1465.7 827.417 1465.7C828.377 1465.7 829.449 1465.7 830.633 1465.7C831.849 1465.7 833.033 1465.7 834.185 1465.7C835.369 1465.7 836.392 1465.7 837.256 1465.7C838.152 1465.7 838.761 1465.7 839.081 1465.7C839.817 1465.7 840.553 1465.65 841.289 1465.55C842.057 1465.46 842.712 1465.31 843.256 1465.12L848.152 1468.15ZM832.505 1460.56C831.929 1461.39 831.368 1462.29 830.824 1463.25C830.28 1464.21 829.864 1464.95 829.576 1465.46C828.488 1467.38 827.144 1469.38 825.544 1471.46C823.976 1473.51 822.185 1475.51 820.169 1477.46C818.153 1479.38 816.009 1481.14 813.737 1482.74L808.312 1478.75C810.424 1477.44 812.28 1476.1 813.88 1474.72C815.512 1473.35 816.92 1471.99 818.104 1470.64C819.288 1469.27 820.296 1467.95 821.128 1466.71C821.992 1465.43 822.728 1464.29 823.336 1463.3C823.72 1462.69 824.12 1461.91 824.536 1460.95C824.952 1459.95 825.272 1459.06 825.496 1458.26L832.505 1460.56Z" fill="black"/>
<path d="M768.568 1461.52C769.4 1462.1 770.376 1462.8 771.496 1463.64C772.616 1464.47 773.768 1465.38 774.952 1466.37C776.168 1467.33 777.304 1468.28 778.36 1469.2C779.416 1470.13 780.28 1470.96 780.952 1471.7L776.056 1476.69C775.448 1476.02 774.648 1475.22 773.656 1474.29C772.664 1473.36 771.592 1472.4 770.44 1471.41C769.288 1470.42 768.152 1469.48 767.032 1468.58C765.912 1467.68 764.92 1466.93 764.056 1466.32L768.568 1461.52ZM762.568 1493.49C765.064 1493.14 767.416 1492.64 769.624 1492C771.832 1491.36 773.88 1490.63 775.768 1489.8C777.656 1488.96 779.384 1488.1 780.952 1487.2C783.672 1485.57 786.168 1483.72 788.44 1481.64C790.712 1479.56 792.696 1477.4 794.392 1475.16C796.088 1472.88 797.432 1470.68 798.424 1468.53L802.168 1475.3C800.952 1477.44 799.448 1479.59 797.656 1481.73C795.896 1483.88 793.896 1485.92 791.656 1487.88C789.416 1489.8 787 1491.52 784.408 1493.06C782.776 1494.05 781.016 1495 779.128 1495.89C777.24 1496.76 775.24 1497.52 773.128 1498.2C771.048 1498.9 768.872 1499.44 766.6 1499.83L762.568 1493.49Z" fill="black"/>
<path d="M747.544 1460.75C747.512 1461.42 747.465 1462.16 747.401 1462.96C747.369 1463.73 747.352 1464.59 747.352 1465.55C747.352 1466.38 747.352 1467.39 747.352 1468.57C747.352 1469.76 747.352 1470.94 747.352 1472.13C747.352 1473.28 747.352 1474.25 747.352 1475.05C747.352 1477.61 747.225 1479.85 746.969 1481.77C746.745 1483.69 746.392 1485.37 745.912 1486.81C745.432 1488.25 744.84 1489.53 744.136 1490.65C743.464 1491.74 742.68 1492.78 741.784 1493.77C740.728 1494.93 739.512 1495.97 738.136 1496.89C736.76 1497.79 735.369 1498.54 733.961 1499.15C732.585 1499.79 731.304 1500.3 730.12 1500.69L725.081 1495.41C727.481 1494.86 729.64 1494.11 731.56 1493.15C733.512 1492.16 735.208 1490.89 736.648 1489.36C737.48 1488.43 738.152 1487.5 738.664 1486.57C739.176 1485.65 739.56 1484.62 739.816 1483.5C740.104 1482.35 740.297 1481.05 740.393 1479.61C740.521 1478.17 740.584 1476.53 740.584 1474.67C740.584 1473.84 740.584 1472.85 740.584 1471.69C740.584 1470.54 740.584 1469.41 740.584 1468.29C740.584 1467.17 740.584 1466.25 740.584 1465.55C740.584 1464.59 740.552 1463.73 740.488 1462.96C740.456 1462.16 740.393 1461.42 740.297 1460.75H747.544ZM725.272 1461.13C725.24 1461.71 725.209 1462.29 725.177 1462.86C725.145 1463.41 725.128 1464.06 725.128 1464.83C725.128 1465.18 725.128 1465.76 725.128 1466.56C725.128 1467.36 725.128 1468.3 725.128 1469.39C725.128 1470.45 725.128 1471.57 725.128 1472.75C725.128 1473.9 725.128 1475.02 725.128 1476.11C725.128 1477.2 725.128 1478.19 725.128 1479.09C725.128 1479.95 725.128 1480.61 725.128 1481.05C725.128 1481.66 725.145 1482.37 725.177 1483.17C725.209 1483.97 725.24 1484.65 725.272 1485.23H718.312C718.345 1484.78 718.392 1484.14 718.456 1483.31C718.52 1482.48 718.552 1481.71 718.552 1481.01C718.552 1480.56 718.552 1479.9 718.552 1479.04C718.552 1478.17 718.552 1477.2 718.552 1476.11C718.552 1474.99 718.552 1473.85 718.552 1472.7C718.552 1471.52 718.552 1470.4 718.552 1469.34C718.552 1468.29 718.552 1467.36 718.552 1466.56C718.552 1465.76 718.552 1465.18 718.552 1464.83C718.552 1464.38 718.537 1463.81 718.505 1463.1C718.473 1462.37 718.424 1461.71 718.36 1461.13H725.272Z" fill="black"/>
<path d="M693.736 1462.29C694.184 1462.93 694.68 1463.68 695.224 1464.54C695.768 1465.41 696.28 1466.27 696.76 1467.14C697.272 1468 697.72 1468.8 698.104 1469.54L693.927 1471.41C693.479 1470.38 693.032 1469.47 692.584 1468.67C692.168 1467.87 691.736 1467.1 691.288 1466.37C690.84 1465.6 690.312 1464.8 689.704 1463.97L693.736 1462.29ZM700.023 1459.65C700.503 1460.29 701.016 1461.02 701.56 1461.86C702.136 1462.69 702.68 1463.54 703.192 1464.4C703.736 1465.23 704.184 1466.02 704.536 1466.75L700.504 1468.72C699.992 1467.7 699.496 1466.8 699.016 1466.03C698.568 1465.23 698.104 1464.48 697.624 1463.78C697.176 1463.04 696.647 1462.29 696.039 1461.52L700.023 1459.65ZM674.584 1494.11C674.584 1493.47 674.584 1492.46 674.584 1491.09C674.584 1489.68 674.584 1488.06 674.584 1486.24C674.584 1484.38 674.584 1482.46 674.584 1480.48C674.584 1478.46 674.584 1476.53 674.584 1474.67C674.584 1472.78 674.584 1471.12 674.584 1469.68C674.584 1468.24 674.584 1467.18 674.584 1466.51C674.584 1465.65 674.536 1464.67 674.44 1463.58C674.376 1462.5 674.264 1461.54 674.104 1460.7H681.592C681.496 1461.54 681.399 1462.46 681.303 1463.49C681.207 1464.51 681.16 1465.52 681.16 1466.51C681.16 1467.38 681.16 1468.58 681.16 1470.11C681.16 1471.65 681.16 1473.36 681.16 1475.25C681.16 1477.1 681.16 1479.01 681.16 1480.96C681.16 1482.91 681.16 1484.78 681.16 1486.58C681.16 1488.34 681.16 1489.89 681.16 1491.23C681.16 1492.54 681.16 1493.5 681.16 1494.11C681.16 1494.53 681.176 1495.15 681.208 1495.98C681.272 1496.78 681.336 1497.62 681.4 1498.48C681.496 1499.34 681.576 1500.11 681.64 1500.78H674.104C674.264 1499.86 674.376 1498.75 674.44 1497.47C674.536 1496.16 674.584 1495.04 674.584 1494.11ZM679.768 1473.14C681.368 1473.55 683.144 1474.1 685.096 1474.77C687.08 1475.41 689.08 1476.11 691.096 1476.88C693.112 1477.62 695.015 1478.35 696.807 1479.09C698.599 1479.79 700.072 1480.43 701.224 1481.01L698.536 1487.68C697.16 1486.94 695.655 1486.22 694.023 1485.52C692.391 1484.82 690.728 1484.13 689.032 1483.46C687.368 1482.75 685.735 1482.11 684.135 1481.54C682.535 1480.96 681.08 1480.46 679.768 1480.05V1473.14Z" fill="black"/>
<path d="M641.368 1465.12C641.048 1467.55 640.632 1470.14 640.12 1472.89C639.608 1475.65 638.92 1478.43 638.056 1481.25C637.128 1484.48 636.04 1487.26 634.792 1489.6C633.544 1491.93 632.168 1493.74 630.664 1495.02C629.192 1496.27 627.576 1496.89 625.816 1496.89C624.056 1496.89 622.424 1496.3 620.92 1495.12C619.448 1493.9 618.264 1492.24 617.368 1490.13C616.504 1488.01 616.072 1485.61 616.072 1482.93C616.072 1480.14 616.632 1477.52 617.752 1475.05C618.872 1472.59 620.424 1470.41 622.408 1468.53C624.424 1466.61 626.76 1465.1 629.416 1464.01C632.104 1462.93 635 1462.38 638.104 1462.38C641.08 1462.38 643.752 1462.86 646.12 1463.82C648.52 1464.78 650.568 1466.11 652.264 1467.81C653.96 1469.5 655.256 1471.49 656.152 1473.76C657.048 1476.03 657.496 1478.48 657.496 1481.1C657.496 1484.46 656.808 1487.47 655.432 1490.13C654.056 1492.78 652.008 1494.97 649.288 1496.7C646.6 1498.43 643.24 1499.61 639.208 1500.25L635.608 1494.54C636.536 1494.45 637.352 1494.33 638.056 1494.21C638.76 1494.08 639.432 1493.93 640.072 1493.77C641.608 1493.39 643.032 1492.85 644.344 1492.14C645.688 1491.41 646.856 1490.51 647.848 1489.45C648.84 1488.37 649.608 1487.1 650.152 1485.66C650.728 1484.22 651.016 1482.64 651.016 1480.91C651.016 1479.02 650.728 1477.29 650.152 1475.73C649.576 1474.16 648.728 1472.8 647.608 1471.65C646.488 1470.46 645.128 1469.57 643.528 1468.96C641.928 1468.32 640.088 1468 638.008 1468C635.448 1468 633.192 1468.46 631.24 1469.39C629.288 1470.29 627.64 1471.45 626.296 1472.89C624.952 1474.33 623.928 1475.89 623.224 1477.55C622.552 1479.21 622.216 1480.8 622.216 1482.3C622.216 1483.9 622.408 1485.25 622.792 1486.33C623.176 1487.39 623.64 1488.19 624.184 1488.73C624.76 1489.25 625.368 1489.5 626.008 1489.5C626.68 1489.5 627.336 1489.17 627.976 1488.49C628.648 1487.79 629.304 1486.73 629.944 1485.33C630.584 1483.92 631.224 1482.14 631.864 1480C632.6 1477.69 633.224 1475.23 633.736 1472.61C634.248 1469.98 634.616 1467.42 634.84 1464.93L641.368 1465.12Z" fill="black"/>
<path d="M567.256 1464.93H610.792V1470.4H567.256V1464.93ZM583.288 1476.69H601.672V1482.11H583.288V1476.69ZM599.512 1476.69H605.464C605.464 1476.69 605.448 1476.85 605.416 1477.17C605.416 1477.46 605.416 1477.79 605.416 1478.18C605.416 1478.56 605.384 1478.9 605.32 1479.18C605.032 1483.57 604.712 1487.15 604.36 1489.94C604.008 1492.72 603.608 1494.9 603.16 1496.46C602.712 1498 602.168 1499.12 601.528 1499.82C600.792 1500.62 600.024 1501.17 599.224 1501.46C598.424 1501.74 597.464 1501.95 596.344 1502.08C595.416 1502.18 594.2 1502.21 592.696 1502.18C591.192 1502.18 589.64 1502.14 588.04 1502.08C588.008 1501.25 587.8 1500.29 587.416 1499.2C587.032 1498.14 586.552 1497.22 585.976 1496.42C587.64 1496.58 589.24 1496.67 590.776 1496.7C592.312 1496.74 593.416 1496.75 594.088 1496.75C594.632 1496.75 595.08 1496.72 595.432 1496.66C595.816 1496.56 596.152 1496.38 596.44 1496.13C596.952 1495.71 597.384 1494.8 597.736 1493.39C598.12 1491.98 598.456 1489.98 598.744 1487.39C599.032 1484.8 599.288 1481.52 599.512 1477.55V1476.69ZM581.128 1468.19H587.56C587.432 1470.75 587.224 1473.34 586.936 1475.97C586.68 1478.56 586.232 1481.14 585.592 1483.7C584.952 1486.22 584.024 1488.64 582.808 1490.94C581.592 1493.25 579.992 1495.39 578.008 1497.38C576.024 1499.36 573.512 1501.12 570.472 1502.66C570.056 1501.86 569.448 1500.99 568.648 1500.06C567.88 1499.14 567.128 1498.37 566.392 1497.76C569.176 1496.48 571.448 1494.99 573.208 1493.3C575 1491.57 576.408 1489.71 577.432 1487.73C578.456 1485.71 579.208 1483.62 579.688 1481.44C580.2 1479.26 580.536 1477.06 580.696 1474.82C580.888 1472.58 581.032 1470.37 581.128 1468.19ZM585.736 1457.01H591.736V1467.09H585.736V1457.01Z" fill="black"/>
<path d="M545.368 1465.12C545.048 1467.55 544.632 1470.14 544.12 1472.89C543.608 1475.65 542.92 1478.43 542.056 1481.25C541.128 1484.48 540.04 1487.26 538.792 1489.6C537.544 1491.93 536.168 1493.74 534.664 1495.02C533.192 1496.27 531.576 1496.89 529.816 1496.89C528.056 1496.89 526.424 1496.3 524.92 1495.12C523.448 1493.9 522.264 1492.24 521.368 1490.13C520.504 1488.01 520.072 1485.61 520.072 1482.93C520.072 1480.14 520.632 1477.52 521.752 1475.05C522.872 1472.59 524.424 1470.41 526.408 1468.53C528.424 1466.61 530.76 1465.1 533.416 1464.01C536.104 1462.93 539 1462.38 542.104 1462.38C545.08 1462.38 547.752 1462.86 550.12 1463.82C552.52 1464.78 554.568 1466.11 556.264 1467.81C557.96 1469.5 559.256 1471.49 560.152 1473.76C561.048 1476.03 561.496 1478.48 561.496 1481.1C561.496 1484.46 560.808 1487.47 559.432 1490.13C558.056 1492.78 556.008 1494.97 553.288 1496.7C550.6 1498.43 547.24 1499.61 543.208 1500.25L539.608 1494.54C540.536 1494.45 541.352 1494.33 542.056 1494.21C542.76 1494.08 543.432 1493.93 544.072 1493.77C545.608 1493.39 547.032 1492.85 548.344 1492.14C549.688 1491.41 550.856 1490.51 551.848 1489.45C552.84 1488.37 553.608 1487.1 554.152 1485.66C554.728 1484.22 555.016 1482.64 555.016 1480.91C555.016 1479.02 554.728 1477.29 554.152 1475.73C553.576 1474.16 552.728 1472.8 551.608 1471.65C550.488 1470.46 549.128 1469.57 547.528 1468.96C545.928 1468.32 544.088 1468 542.008 1468C539.448 1468 537.192 1468.46 535.24 1469.39C533.288 1470.29 531.64 1471.45 530.296 1472.89C528.952 1474.33 527.928 1475.89 527.224 1477.55C526.552 1479.21 526.216 1480.8 526.216 1482.3C526.216 1483.9 526.408 1485.25 526.792 1486.33C527.176 1487.39 527.64 1488.19 528.184 1488.73C528.76 1489.25 529.368 1489.5 530.008 1489.5C530.68 1489.5 531.336 1489.17 531.976 1488.49C532.648 1487.79 533.304 1486.73 533.944 1485.33C534.584 1483.92 535.224 1482.14 535.864 1480C536.6 1477.69 537.224 1475.23 537.736 1472.61C538.248 1469.98 538.616 1467.42 538.84 1464.93L545.368 1465.12Z" fill="black"/>
<path d="M502.216 1467.91L508.36 1469.73C506.344 1475.49 503.736 1480.48 500.536 1484.71C497.336 1488.93 493.528 1492.5 489.112 1495.41C484.728 1498.29 479.656 1500.64 473.896 1502.47C473.704 1501.96 473.384 1501.35 472.936 1500.64C472.488 1499.94 472.024 1499.24 471.544 1498.53C471.096 1497.86 470.664 1497.3 470.248 1496.85C475.784 1495.38 480.632 1493.38 484.792 1490.85C488.952 1488.32 492.472 1485.19 495.352 1481.44C498.232 1477.67 500.52 1473.16 502.216 1467.91ZM483.64 1468.29C485.272 1473.06 487.528 1477.33 490.408 1481.11C493.288 1484.88 496.84 1488.08 501.064 1490.71C505.32 1493.33 510.28 1495.28 515.944 1496.56C515.496 1497.01 515 1497.59 514.456 1498.29C513.944 1499 513.448 1499.7 512.968 1500.4C512.488 1501.14 512.104 1501.78 511.816 1502.32C505.832 1500.79 500.68 1498.55 496.36 1495.6C492.04 1492.63 488.376 1489.01 485.368 1484.76C482.392 1480.5 479.896 1475.59 477.88 1470.02L483.64 1468.29ZM471.112 1464.84H515.08V1470.45H471.112V1464.84ZM490.024 1457.2H495.928V1468.24H490.024V1457.2Z" fill="black"/>
<path d="M443.08 1461.57L446.824 1457.1C448.136 1457.71 449.512 1458.43 450.952 1459.26C452.424 1460.09 453.8 1460.94 455.08 1461.81C456.392 1462.67 457.464 1463.5 458.296 1464.3L454.12 1469.29C453.384 1468.46 452.392 1467.58 451.144 1466.65C449.928 1465.73 448.6 1464.81 447.16 1463.92C445.752 1463.02 444.392 1462.24 443.08 1461.57ZM439.864 1481.05H464.824V1486.53H439.864V1481.05ZM436.456 1495.26H467.608V1500.73H436.456V1495.26ZM438.184 1467.66H466.6V1473.13H438.184V1467.66ZM449.128 1469.49H455.128V1497.71H449.128V1469.49ZM425.512 1461.66L428.632 1457.44C429.688 1457.79 430.792 1458.25 431.944 1458.83C433.096 1459.37 434.2 1459.97 435.256 1460.61C436.312 1461.21 437.176 1461.81 437.848 1462.38L434.44 1467.09C433.832 1466.48 433.016 1465.85 431.992 1465.21C431 1464.54 429.928 1463.9 428.776 1463.29C427.656 1462.65 426.568 1462.11 425.512 1461.66ZM422.296 1474.77L425.272 1470.4C426.328 1470.75 427.448 1471.18 428.632 1471.69C429.816 1472.17 430.936 1472.72 431.992 1473.33C433.08 1473.9 433.976 1474.45 434.68 1474.96L431.464 1479.81C430.856 1479.23 430.024 1478.64 428.968 1478.03C427.912 1477.42 426.808 1476.83 425.656 1476.25C424.504 1475.65 423.384 1475.15 422.296 1474.77ZM424.36 1497.85C425.224 1496.64 426.184 1495.21 427.24 1493.58C428.296 1491.92 429.368 1490.16 430.456 1488.3C431.544 1486.41 432.552 1484.54 433.48 1482.69L437.704 1486.53C436.872 1488.19 435.976 1489.9 435.016 1491.66C434.088 1493.42 433.128 1495.15 432.136 1496.85C431.176 1498.54 430.216 1500.17 429.256 1501.74L424.36 1497.85Z" fill="black"/>
<path d="M382.408 1463.58C384.168 1463.8 386.152 1463.96 388.36 1464.06C390.568 1464.16 392.936 1464.2 395.464 1464.2C397.064 1464.2 398.696 1464.17 400.36 1464.11C402.024 1464.04 403.64 1463.96 405.208 1463.87C406.776 1463.74 408.168 1463.63 409.384 1463.53V1469.92C408.264 1469.98 406.904 1470.06 405.304 1470.16C403.736 1470.25 402.088 1470.33 400.36 1470.4C398.664 1470.46 397.048 1470.49 395.512 1470.49C393.016 1470.49 390.696 1470.44 388.552 1470.35C386.408 1470.22 384.36 1470.09 382.408 1469.96V1463.58ZM386.44 1483.93C386.216 1484.76 386.024 1485.58 385.864 1486.38C385.704 1487.18 385.624 1487.98 385.624 1488.78C385.624 1490.35 386.392 1491.63 387.928 1492.62C389.496 1493.58 392.008 1494.06 395.464 1494.06C397.64 1494.06 399.736 1493.98 401.752 1493.82C403.8 1493.66 405.72 1493.45 407.512 1493.2C409.304 1492.91 410.904 1492.57 412.312 1492.19L412.36 1498.91C410.984 1499.23 409.416 1499.52 407.656 1499.77C405.928 1500.03 404.056 1500.22 402.04 1500.35C400.056 1500.51 397.944 1500.59 395.704 1500.59C392.024 1500.59 388.968 1500.17 386.536 1499.34C384.104 1498.54 382.264 1497.39 381.016 1495.88C379.8 1494.35 379.192 1492.48 379.192 1490.27C379.192 1488.89 379.304 1487.63 379.528 1486.48C379.752 1485.29 379.944 1484.25 380.104 1483.36L386.44 1483.93ZM410.632 1458.64C411.048 1459.21 411.48 1459.9 411.928 1460.7C412.408 1461.5 412.872 1462.3 413.32 1463.1C413.768 1463.9 414.152 1464.6 414.472 1465.21L410.584 1466.89C410.104 1465.9 409.512 1464.76 408.808 1463.48C408.136 1462.2 407.48 1461.1 406.84 1460.17L410.632 1458.64ZM416.344 1456.48C416.76 1457.08 417.208 1457.79 417.688 1458.59C418.168 1459.39 418.632 1460.19 419.08 1460.99C419.56 1461.76 419.944 1462.43 420.232 1463L416.392 1464.64C415.88 1463.64 415.272 1462.52 414.568 1461.28C413.864 1460 413.176 1458.91 412.504 1458.01L416.344 1456.48Z" fill="black"/>
<path d="M348.328 1459.5C348.168 1460.37 347.912 1461.49 347.56 1462.86C347.208 1464.24 346.696 1465.79 346.024 1467.52C345.512 1468.7 344.92 1469.94 344.248 1471.22C343.608 1472.46 342.952 1473.58 342.28 1474.58C342.696 1474.38 343.224 1474.22 343.864 1474.1C344.504 1473.94 345.16 1473.82 345.832 1473.76C346.536 1473.66 347.16 1473.62 347.704 1473.62C349.72 1473.62 351.384 1474.19 352.696 1475.34C354.04 1476.5 354.712 1478.21 354.712 1480.48C354.712 1481.12 354.712 1481.9 354.712 1482.83C354.744 1483.76 354.776 1484.74 354.808 1485.76C354.84 1486.75 354.872 1487.73 354.904 1488.69C354.936 1489.65 354.952 1490.51 354.952 1491.28H349.192C349.256 1490.74 349.288 1490.1 349.288 1489.36C349.32 1488.59 349.336 1487.79 349.336 1486.96C349.368 1486.13 349.384 1485.33 349.384 1484.56C349.416 1483.76 349.432 1483.04 349.432 1482.4C349.432 1480.86 349.016 1479.81 348.184 1479.23C347.384 1478.62 346.488 1478.32 345.496 1478.32C344.152 1478.32 342.792 1478.66 341.416 1479.33C340.072 1479.97 338.936 1480.74 338.008 1481.63C337.304 1482.34 336.584 1483.12 335.848 1483.98C335.144 1484.85 334.376 1485.82 333.544 1486.91L328.408 1483.07C330.488 1481.15 332.28 1479.3 333.784 1477.5C335.32 1475.71 336.616 1473.94 337.672 1472.18C338.728 1470.42 339.592 1468.66 340.264 1466.9C340.744 1465.62 341.128 1464.29 341.416 1462.91C341.736 1461.5 341.928 1460.19 341.992 1458.98L348.328 1459.5ZM330.28 1463.92C331.496 1464.11 332.904 1464.26 334.504 1464.35C336.104 1464.45 337.512 1464.5 338.728 1464.5C340.84 1464.5 343.144 1464.45 345.64 1464.35C348.168 1464.26 350.728 1464.1 353.32 1463.87C355.912 1463.62 358.376 1463.3 360.712 1462.91L360.664 1468.48C358.968 1468.7 357.128 1468.91 355.144 1469.1C353.192 1469.26 351.192 1469.41 349.144 1469.54C347.128 1469.63 345.192 1469.71 343.336 1469.78C341.48 1469.81 339.832 1469.82 338.392 1469.82C337.752 1469.82 336.952 1469.82 335.992 1469.82C335.064 1469.79 334.104 1469.76 333.112 1469.73C332.12 1469.66 331.176 1469.6 330.28 1469.54V1463.92ZM368.296 1477.55C367.784 1477.71 367.176 1477.92 366.472 1478.18C365.8 1478.4 365.112 1478.64 364.408 1478.9C363.736 1479.12 363.128 1479.34 362.584 1479.57C361.048 1480.18 359.224 1480.91 357.112 1481.78C355.032 1482.64 352.856 1483.65 350.584 1484.8C349.144 1485.57 347.928 1486.32 346.936 1487.06C345.944 1487.79 345.192 1488.54 344.68 1489.31C344.168 1490.05 343.912 1490.86 343.912 1491.76C343.912 1492.43 344.056 1492.99 344.344 1493.44C344.632 1493.86 345.064 1494.19 345.64 1494.45C346.216 1494.7 346.936 1494.88 347.8 1494.98C348.664 1495.07 349.688 1495.12 350.872 1495.12C352.92 1495.12 355.176 1495.01 357.64 1494.78C360.104 1494.53 362.392 1494.19 364.504 1493.78L364.312 1499.97C363.288 1500.1 361.992 1500.22 360.424 1500.35C358.856 1500.51 357.224 1500.62 355.528 1500.69C353.864 1500.75 352.264 1500.78 350.728 1500.78C348.232 1500.78 345.992 1500.54 344.008 1500.06C342.024 1499.58 340.456 1498.77 339.304 1497.62C338.184 1496.43 337.624 1494.82 337.624 1492.77C337.624 1491.1 337.992 1489.6 338.728 1488.26C339.496 1486.91 340.504 1485.7 341.752 1484.61C343 1483.52 344.36 1482.54 345.832 1481.68C347.336 1480.78 348.808 1479.97 350.248 1479.23C351.72 1478.46 353.048 1477.81 354.232 1477.26C355.416 1476.72 356.52 1476.24 357.544 1475.82C358.6 1475.38 359.608 1474.93 360.568 1474.48C361.496 1474.06 362.392 1473.66 363.256 1473.28C364.12 1472.86 365 1472.43 365.896 1471.98L368.296 1477.55Z" fill="black"/>
<path d="M309.736 1462.29C310.184 1462.93 310.68 1463.68 311.224 1464.54C311.768 1465.41 312.28 1466.27 312.76 1467.14C313.272 1468 313.72 1468.8 314.104 1469.54L309.928 1471.41C309.48 1470.38 309.032 1469.47 308.584 1468.67C308.168 1467.87 307.736 1467.1 307.288 1466.37C306.84 1465.6 306.312 1464.8 305.704 1463.97L309.736 1462.29ZM316.024 1459.65C316.504 1460.29 317.016 1461.02 317.56 1461.86C318.136 1462.69 318.68 1463.54 319.192 1464.4C319.736 1465.23 320.184 1466.02 320.536 1466.75L316.504 1468.72C315.992 1467.7 315.496 1466.8 315.016 1466.03C314.568 1465.23 314.104 1464.48 313.624 1463.78C313.176 1463.04 312.648 1462.29 312.04 1461.52L316.024 1459.65ZM290.584 1494.11C290.584 1493.47 290.584 1492.46 290.584 1491.09C290.584 1489.68 290.584 1488.06 290.584 1486.24C290.584 1484.38 290.584 1482.46 290.584 1480.48C290.584 1478.46 290.584 1476.53 290.584 1474.67C290.584 1472.78 290.584 1471.12 290.584 1469.68C290.584 1468.24 290.584 1467.18 290.584 1466.51C290.584 1465.65 290.536 1464.67 290.44 1463.58C290.376 1462.5 290.264 1461.54 290.104 1460.7H297.592C297.496 1461.54 297.4 1462.46 297.304 1463.49C297.208 1464.51 297.16 1465.52 297.16 1466.51C297.16 1467.38 297.16 1468.58 297.16 1470.11C297.16 1471.65 297.16 1473.36 297.16 1475.25C297.16 1477.1 297.16 1479.01 297.16 1480.96C297.16 1482.91 297.16 1484.78 297.16 1486.58C297.16 1488.34 297.16 1489.89 297.16 1491.23C297.16 1492.54 297.16 1493.5 297.16 1494.11C297.16 1494.53 297.176 1495.15 297.208 1495.98C297.272 1496.78 297.336 1497.62 297.4 1498.48C297.496 1499.34 297.576 1500.11 297.64 1500.78H290.104C290.264 1499.86 290.376 1498.75 290.44 1497.47C290.536 1496.16 290.584 1495.04 290.584 1494.11ZM295.768 1473.14C297.368 1473.55 299.144 1474.1 301.096 1474.77C303.08 1475.41 305.08 1476.11 307.096 1476.88C309.112 1477.62 311.016 1478.35 312.808 1479.09C314.6 1479.79 316.072 1480.43 317.224 1481.01L314.536 1487.68C313.16 1486.94 311.656 1486.22 310.024 1485.52C308.392 1484.82 306.728 1484.13 305.032 1483.46C303.368 1482.75 301.736 1482.11 300.136 1481.54C298.536 1480.96 297.08 1480.46 295.768 1480.05V1473.14Z" fill="black"/>
<path d="M233.416 1475.77C233.992 1475.81 234.728 1475.85 235.624 1475.92C236.52 1475.95 237.448 1475.98 238.408 1476.01C239.4 1476.05 240.312 1476.06 241.144 1476.06C241.944 1476.06 242.936 1476.06 244.12 1476.06C245.304 1476.06 246.584 1476.06 247.96 1476.06C249.368 1476.06 250.808 1476.06 252.28 1476.06C253.784 1476.06 255.272 1476.06 256.744 1476.06C258.216 1476.06 259.608 1476.06 260.92 1476.06C262.232 1476.06 263.4 1476.06 264.424 1476.06C265.48 1476.06 266.312 1476.06 266.92 1476.06C268.04 1476.06 269.096 1476.03 270.088 1475.97C271.08 1475.87 271.896 1475.81 272.536 1475.77V1483.31C271.992 1483.28 271.176 1483.23 270.088 1483.17C269 1483.1 267.944 1483.07 266.92 1483.07C266.312 1483.07 265.48 1483.07 264.424 1483.07C263.368 1483.07 262.184 1483.07 260.872 1483.07C259.56 1483.07 258.168 1483.07 256.696 1483.07C255.256 1483.07 253.784 1483.07 252.28 1483.07C250.776 1483.07 249.32 1483.07 247.912 1483.07C246.536 1483.07 245.256 1483.07 244.072 1483.07C242.92 1483.07 241.944 1483.07 241.144 1483.07C239.768 1483.07 238.36 1483.1 236.92 1483.17C235.48 1483.2 234.312 1483.25 233.416 1483.31V1475.77Z" fill="black"/>
<path d="M223.672 1466.03C223.448 1466.48 223.24 1467.02 223.048 1467.66C222.888 1468.27 222.744 1468.85 222.616 1469.39C222.36 1470.54 222.024 1471.86 221.608 1473.33C221.192 1474.8 220.696 1476.32 220.12 1477.89C219.544 1479.46 218.856 1481.01 218.056 1482.54C217.288 1484.08 216.408 1485.52 215.416 1486.86C213.976 1488.75 212.296 1490.54 210.376 1492.24C208.456 1493.9 206.312 1495.41 203.944 1496.75C201.576 1498.06 198.968 1499.18 196.12 1500.11L190.888 1494.4C194.056 1493.63 196.792 1492.69 199.096 1491.57C201.432 1490.42 203.464 1489.14 205.192 1487.73C206.92 1486.29 208.424 1484.75 209.704 1483.12C210.76 1481.78 211.656 1480.32 212.392 1478.75C213.16 1477.18 213.784 1475.6 214.264 1474C214.776 1472.4 215.128 1470.93 215.32 1469.58C214.84 1469.58 214.04 1469.58 212.92 1469.58C211.832 1469.58 210.536 1469.58 209.032 1469.58C207.56 1469.58 206.008 1469.58 204.376 1469.58C202.776 1469.58 201.224 1469.58 199.72 1469.58C198.216 1469.58 196.856 1469.58 195.64 1469.58C194.456 1469.58 193.56 1469.58 192.952 1469.58C191.864 1469.58 190.792 1469.6 189.736 1469.63C188.712 1469.66 187.88 1469.71 187.24 1469.78V1463.01C187.752 1463.04 188.344 1463.09 189.016 1463.15C189.688 1463.22 190.392 1463.28 191.128 1463.34C191.864 1463.38 192.488 1463.39 193 1463.39C193.48 1463.39 194.2 1463.39 195.16 1463.39C196.12 1463.39 197.224 1463.39 198.472 1463.39C199.72 1463.39 201.016 1463.39 202.36 1463.39C203.736 1463.39 205.096 1463.39 206.44 1463.39C207.784 1463.39 209.048 1463.39 210.232 1463.39C211.416 1463.39 212.44 1463.39 213.304 1463.39C214.2 1463.39 214.824 1463.39 215.176 1463.39C215.656 1463.39 216.248 1463.38 216.952 1463.34C217.656 1463.28 218.312 1463.17 218.92 1463.01L223.672 1466.03Z" fill="black"/>
<path d="M751.116 1319.76C762.121 1319.76 775.966 1315.22 775.966 1298.6C775.966 1284.62 767.091 1277.45 751.968 1277.45H749.98V1319.76H751.116ZM742.525 1326.15V1271.2C742.525 1270.56 742.951 1270.2 743.377 1270.2H751.116C770.286 1270.2 783.421 1279.65 783.421 1298.6C783.421 1314.01 773.694 1327 749.696 1327H743.377C742.951 1327 742.525 1326.58 742.525 1326.15Z" fill="black"/>
<path d="M731.039 1270.2C731.465 1270.2 731.891 1270.55 731.891 1271.12V1327.21C731.891 1327.71 731.465 1328.06 731.039 1328.06H728.27C728.128 1328.06 727.773 1328.06 727.56 1327.78L693.125 1284.4V1326.07C693.125 1326.64 692.77 1327 692.273 1327H686.451C686.025 1327 685.67 1326.64 685.67 1326.07V1269.98C685.67 1269.49 685.954 1269.13 686.451 1269.13H689.22C689.504 1269.13 689.859 1269.13 690.072 1269.42L724.436 1312.66V1271.12C724.436 1270.55 724.791 1270.2 725.288 1270.2H731.039Z" fill="black"/>
<path d="M656.318 1294.98L651.419 1282.84L646.52 1294.98H656.318ZM626.001 1325.86L649.218 1269.7C649.36 1269.42 649.644 1269.13 649.999 1269.13H653.123C653.478 1269.13 653.691 1269.42 653.833 1269.7L676.695 1325.86C676.979 1326.5 676.411 1327 675.914 1327H669.666C669.382 1327 669.027 1326.78 668.885 1326.5L659.229 1302.22H643.609L633.811 1326.5C633.669 1326.78 633.385 1327 633.03 1327H626.782C626.214 1327 625.788 1326.43 626.001 1325.86Z" fill="black"/>
<path d="M622.366 1276.59C622.366 1277.09 622.011 1277.45 621.514 1277.45H608.947V1326.15C608.947 1326.65 608.592 1327 608.095 1327H602.344C601.847 1327 601.492 1326.65 601.492 1326.15V1277.45H588.925C588.428 1277.45 588.073 1277.09 588.073 1276.59V1271.06C588.073 1270.56 588.428 1270.2 588.925 1270.2H621.514C622.011 1270.2 622.366 1270.56 622.366 1271.06V1276.59Z" fill="black"/>
<path d="M565.645 1328.06C554.853 1328.06 549.031 1321.18 546.617 1314.71L546.404 1314.15C546.262 1313.72 546.404 1313.29 546.83 1313.08L552.084 1310.81C552.652 1310.6 552.936 1310.67 553.22 1311.31L553.433 1311.8C555.634 1316.92 559.184 1320.61 565.645 1320.82C571.467 1321.03 575.301 1316.35 575.301 1312.09C575.301 1307.26 573.526 1304.92 569.479 1302.43C567.207 1301.08 560.533 1298.17 558.332 1296.89C553.078 1293.84 549.741 1290.93 549.741 1283.47C549.741 1275.24 556.912 1269.13 564.864 1269.13C571.538 1269.13 576.863 1272.04 580.342 1278.93L580.768 1279.78C580.91 1280.07 580.91 1280.56 580.484 1280.85L575.585 1283.62C575.23 1283.83 574.662 1283.69 574.449 1283.33L574.165 1282.84C571.893 1278.86 569.479 1276.3 564.864 1276.45C560.462 1276.59 557.48 1279.57 557.267 1283.55C557.054 1287.38 559.255 1288.94 562.947 1291C565.645 1292.49 571.183 1294.69 574.449 1296.82C580.342 1300.51 582.685 1305.2 582.756 1312.16C582.827 1320.47 576.082 1328.06 565.645 1328.06Z" fill="black"/>
<path d="M515.292 1270.42C515.434 1270.27 515.718 1270.2 515.931 1270.2H524.025C524.948 1270.2 525.374 1270.98 524.735 1271.62L496.122 1298.6L524.593 1325.51C525.09 1326.01 524.948 1327 524.025 1327H515.931C515.718 1327 515.434 1326.93 515.292 1326.79L493.992 1306.27V1326.15C493.992 1326.58 493.637 1327 493.14 1327H487.318C486.892 1327 486.537 1326.58 486.537 1326.15V1271.2C486.537 1270.7 486.892 1270.2 487.318 1270.2H493.14C493.637 1270.2 493.992 1270.7 493.992 1271.2V1291.01L515.292 1270.42Z" fill="black"/>
<path d="M460.532 1328.06C449.74 1328.06 443.918 1321.18 441.504 1314.71L441.291 1314.15C441.149 1313.72 441.291 1313.29 441.717 1313.08L446.971 1310.81C447.539 1310.6 447.823 1310.67 448.107 1311.31L448.32 1311.8C450.521 1316.92 454.071 1320.61 460.532 1320.82C466.354 1321.03 470.188 1316.35 470.188 1312.09C470.188 1307.26 468.413 1304.92 464.366 1302.43C462.094 1301.08 455.42 1298.17 453.219 1296.89C447.965 1293.84 444.628 1290.93 444.628 1283.47C444.628 1275.24 451.799 1269.13 459.751 1269.13C466.425 1269.13 471.75 1272.04 475.229 1278.93L475.655 1279.78C475.797 1280.07 475.797 1280.56 475.371 1280.85L470.472 1283.62C470.117 1283.83 469.549 1283.69 469.336 1283.33L469.052 1282.84C466.78 1278.86 464.366 1276.3 459.751 1276.45C455.349 1276.59 452.367 1279.57 452.154 1283.55C451.941 1287.38 454.142 1288.94 457.834 1291C460.532 1292.49 466.07 1294.69 469.336 1296.82C475.229 1300.51 477.572 1305.2 477.643 1312.16C477.714 1320.47 470.969 1328.06 460.532 1328.06Z" fill="black"/>
<path d="M404.878 1276.52C392.879 1276.52 383.223 1286.31 383.223 1298.53C383.223 1310.6 392.808 1320.68 404.807 1320.68C416.806 1320.68 426.604 1310.6 426.604 1298.6C426.604 1286.39 416.877 1276.52 404.878 1276.52ZM375.697 1298.53C375.697 1282.2 388.548 1269.13 404.878 1269.13C421.208 1269.13 434.13 1282.27 434.13 1298.6C434.13 1314.93 421.137 1328.06 404.807 1328.06C388.477 1328.06 375.697 1314.86 375.697 1298.53Z" fill="black"/>
<path d="M354.874 1327C354.377 1327 354.022 1326.65 354.022 1326.15V1271.06C354.022 1270.56 354.377 1270.2 354.874 1270.2H360.625C361.122 1270.2 361.477 1270.56 361.477 1271.06V1326.15C361.477 1326.65 361.122 1327 360.625 1327H354.874Z" fill="black"/>
<path d="M330.096 1270.42C330.238 1270.27 330.522 1270.2 330.735 1270.2H338.829C339.752 1270.2 340.178 1270.98 339.539 1271.62L310.926 1298.6L339.397 1325.51C339.894 1326.01 339.752 1327 338.829 1327H330.735C330.522 1327 330.238 1326.93 330.096 1326.79L308.796 1306.27V1326.15C308.796 1326.58 308.441 1327 307.944 1327H302.122C301.696 1327 301.341 1326.58 301.341 1326.15V1271.2C301.341 1270.7 301.696 1270.2 302.122 1270.2H307.944C308.441 1270.2 308.796 1270.7 308.796 1271.2V1291.01L330.096 1270.42Z" fill="black"/>
<path d="M738.028 1158.93C738.643 1159.83 739.306 1160.89 740.016 1162.13C740.773 1163.31 741.483 1164.49 742.146 1165.68C742.808 1166.86 743.329 1167.85 743.708 1168.66L737.957 1171.07C737.247 1169.65 736.371 1168.02 735.33 1166.17C734.336 1164.33 733.365 1162.69 732.419 1161.27L738.028 1158.93ZM746.974 1156.45C747.636 1157.34 748.323 1158.39 749.033 1159.57C749.743 1160.75 750.429 1161.94 751.092 1163.12C751.802 1164.26 752.346 1165.25 752.725 1166.1L747.116 1168.52C746.358 1167.05 745.459 1165.39 744.418 1163.55C743.376 1161.7 742.359 1160.11 741.365 1158.79L746.974 1156.45ZM741.294 1171.57C741.01 1171.99 740.584 1172.66 740.016 1173.56C739.495 1174.46 739.093 1175.28 738.809 1176.04C737.815 1178.27 736.584 1180.75 735.117 1183.5C733.697 1186.24 732.064 1189.01 730.218 1191.8C728.419 1194.6 726.502 1197.18 724.467 1199.54C721.816 1202.57 718.881 1205.53 715.663 1208.42C712.491 1211.3 709.131 1213.98 705.581 1216.44C702.078 1218.85 698.481 1220.94 694.789 1222.69L687.476 1215.02C691.31 1213.55 695.025 1211.71 698.623 1209.48C702.22 1207.26 705.557 1204.84 708.634 1202.24C711.71 1199.64 714.361 1197.1 716.586 1194.64C718.148 1192.89 719.615 1191 720.988 1188.96C722.408 1186.88 723.662 1184.85 724.751 1182.86C725.839 1180.82 726.644 1178.98 727.165 1177.32C726.691 1177.32 725.839 1177.32 724.609 1177.32C723.378 1177.32 721.934 1177.32 720.278 1177.32C718.668 1177.32 716.964 1177.32 715.166 1177.32C713.367 1177.32 711.639 1177.32 709.983 1177.32C708.373 1177.32 706.953 1177.32 705.723 1177.32C704.492 1177.32 703.616 1177.32 703.096 1177.32C702.102 1177.32 701.06 1177.34 699.972 1177.39C698.883 1177.44 697.842 1177.51 696.848 1177.6C695.901 1177.7 695.167 1177.75 694.647 1177.75V1167.66C695.357 1167.71 696.232 1167.78 697.274 1167.88C698.315 1167.97 699.356 1168.04 700.398 1168.09C701.486 1168.14 702.386 1168.16 703.096 1168.16C703.711 1168.16 704.681 1168.16 706.007 1168.16C707.332 1168.16 708.847 1168.16 710.551 1168.16C712.255 1168.16 714.006 1168.16 715.805 1168.16C717.651 1168.16 719.402 1168.16 721.059 1168.16C722.763 1168.16 724.23 1168.16 725.461 1168.16C726.691 1168.16 727.591 1168.16 728.159 1168.16C729.721 1168.16 731.141 1168.09 732.419 1167.95C733.744 1167.76 734.762 1167.54 735.472 1167.31L741.294 1171.57ZM725.39 1193.65C727.236 1195.12 729.2 1196.82 731.283 1198.76C733.365 1200.7 735.424 1202.71 737.46 1204.8C739.495 1206.88 741.365 1208.89 743.069 1210.83C744.82 1212.72 746.287 1214.38 747.471 1215.8L739.377 1222.9C737.625 1220.44 735.614 1217.91 733.342 1215.3C731.117 1212.7 728.75 1210.12 726.242 1207.57C723.78 1204.96 721.272 1202.5 718.716 1200.18L725.39 1193.65Z" fill="black"/>
<path d="M648.213 1216.44C648.355 1215.73 648.473 1214.93 648.568 1214.03C648.71 1213.08 648.781 1212.13 648.781 1211.19C648.781 1210.67 648.781 1209.62 648.781 1208.06C648.781 1206.5 648.781 1204.61 648.781 1202.38C648.781 1200.16 648.781 1197.77 648.781 1195.21C648.781 1192.61 648.781 1189.98 648.781 1187.33C648.781 1184.68 648.781 1182.19 648.781 1179.88C648.781 1177.51 648.781 1175.45 648.781 1173.7C648.781 1171.9 648.781 1170.6 648.781 1169.79C648.781 1168.18 648.686 1166.79 648.497 1165.6C648.355 1164.42 648.26 1163.78 648.213 1163.69H658.792C658.745 1163.78 658.65 1164.44 658.508 1165.68C658.366 1166.86 658.295 1168.26 658.295 1169.86C658.295 1170.67 658.295 1171.88 658.295 1173.49C658.295 1175.05 658.295 1176.87 658.295 1178.95C658.295 1180.99 658.295 1183.17 658.295 1185.48C658.295 1187.8 658.295 1190.1 658.295 1192.37C658.295 1194.6 658.295 1196.73 658.295 1198.76C658.295 1200.75 658.295 1202.45 658.295 1203.87C658.295 1205.29 658.295 1206.33 658.295 1207C660.236 1206.15 662.247 1204.99 664.33 1203.52C666.413 1202.05 668.448 1200.35 670.436 1198.41C672.471 1196.42 674.27 1194.29 675.832 1192.02L681.299 1199.83C679.358 1202.38 676.992 1204.89 674.199 1207.35C671.454 1209.81 668.614 1212.06 665.679 1214.1C662.744 1216.13 659.928 1217.84 657.23 1219.21C656.473 1219.64 655.857 1220.01 655.384 1220.35C654.911 1220.72 654.508 1221.06 654.177 1221.34L648.213 1216.44ZM615.34 1215.38C618.464 1213.2 621.02 1210.57 623.008 1207.49C624.996 1204.42 626.463 1201.39 627.41 1198.41C627.931 1196.84 628.309 1194.93 628.546 1192.66C628.83 1190.34 629.043 1187.87 629.185 1185.27C629.327 1182.62 629.398 1180.02 629.398 1177.46C629.445 1174.86 629.469 1172.47 629.469 1170.29C629.469 1168.87 629.398 1167.66 629.256 1166.67C629.161 1165.63 629.019 1164.66 628.83 1163.76H639.267C639.22 1163.85 639.149 1164.26 639.054 1164.97C639.007 1165.63 638.936 1166.43 638.841 1167.38C638.794 1168.28 638.77 1169.23 638.77 1170.22C638.77 1172.3 638.746 1174.74 638.699 1177.53C638.652 1180.28 638.557 1183.09 638.415 1185.98C638.273 1188.87 638.06 1191.61 637.776 1194.22C637.492 1196.77 637.113 1198.95 636.64 1200.75C635.551 1204.77 633.918 1208.51 631.741 1211.97C629.611 1215.38 627.031 1218.43 624.002 1221.13L615.34 1215.38Z" fill="black"/>
<path d="M566.066 1162.05C565.876 1163.14 565.734 1164.4 565.64 1165.82C565.592 1167.24 565.569 1168.44 565.569 1169.44C565.569 1170.15 565.569 1171.4 565.569 1173.2C565.569 1175 565.569 1177.11 565.569 1179.52C565.569 1181.89 565.569 1184.4 565.569 1187.05C565.569 1189.65 565.569 1192.18 565.569 1194.64C565.569 1197.06 565.569 1199.21 565.569 1201.1C565.569 1203 565.569 1204.39 565.569 1205.29C565.569 1206.81 565.924 1207.85 566.634 1208.42C567.391 1208.99 568.574 1209.44 570.184 1209.77C571.225 1209.91 572.456 1210.03 573.876 1210.12C575.296 1210.17 576.787 1210.19 578.349 1210.19C580.195 1210.19 582.23 1210.15 584.455 1210.05C586.727 1209.91 588.999 1209.74 591.271 1209.55C593.59 1209.36 595.767 1209.1 597.803 1208.77C599.885 1208.44 601.66 1208.09 603.128 1207.71V1218.14C600.903 1218.43 598.3 1218.67 595.318 1218.85C592.383 1219.09 589.377 1219.26 586.301 1219.35C583.271 1219.49 580.431 1219.56 577.781 1219.56C575.509 1219.56 573.331 1219.49 571.249 1219.35C569.166 1219.21 567.367 1219.02 565.853 1218.78C562.776 1218.22 560.386 1217.06 558.682 1215.3C556.978 1213.55 556.126 1211.16 556.126 1208.13C556.126 1206.76 556.126 1204.99 556.126 1202.81C556.126 1200.58 556.126 1198.15 556.126 1195.5C556.126 1192.8 556.126 1190.1 556.126 1187.4C556.126 1184.66 556.126 1182.08 556.126 1179.66C556.126 1177.2 556.126 1175.07 556.126 1173.27C556.126 1171.47 556.126 1170.2 556.126 1169.44C556.126 1168.73 556.102 1167.92 556.055 1167.02C556.007 1166.13 555.936 1165.23 555.842 1164.33C555.747 1163.38 555.652 1162.62 555.558 1162.05H566.066ZM561.38 1183.85C563.652 1183.38 566.089 1182.79 568.693 1182.08C571.296 1181.37 573.899 1180.61 576.503 1179.8C579.153 1179 581.662 1178.17 584.029 1177.32C586.395 1176.47 588.502 1175.66 590.348 1174.91C591.626 1174.39 592.88 1173.82 594.111 1173.2C595.389 1172.59 596.714 1171.88 598.087 1171.07L601.921 1180.02C600.548 1180.59 599.104 1181.18 597.59 1181.79C596.122 1182.41 594.797 1182.95 593.614 1183.43C591.531 1184.23 589.141 1185.08 586.443 1185.98C583.745 1186.88 580.928 1187.78 577.994 1188.68C575.106 1189.53 572.219 1190.36 569.332 1191.16C566.492 1191.92 563.865 1192.58 561.451 1193.15L561.38 1183.85Z" fill="black"/>
<path d="M486.12 1213.25H525.241V1221.48H486.12V1213.25ZM482.286 1192.8H529.785V1224.25H520.626V1200.96H491.019V1224.32H482.286V1192.8ZM496.202 1157.16L505.929 1160.35C504.367 1163.24 502.687 1166.2 500.888 1169.23C499.137 1172.21 497.362 1175.05 495.563 1177.75C493.765 1180.4 492.061 1182.76 490.451 1184.85L482.783 1181.72C484.393 1179.54 486.026 1177.06 487.682 1174.27C489.339 1171.43 490.901 1168.52 492.368 1165.53C493.883 1162.55 495.161 1159.76 496.202 1157.16ZM513.242 1169.79L519.987 1164.82C522.354 1166.72 524.768 1168.85 527.229 1171.21C529.738 1173.53 532.034 1175.9 534.116 1178.31C536.246 1180.68 537.927 1182.88 539.157 1184.92L531.773 1190.6C530.637 1188.56 529.052 1186.34 527.016 1183.92C525.028 1181.46 522.827 1179 520.413 1176.54C517.999 1174.08 515.609 1171.83 513.242 1169.79ZM474.689 1177.82C478.287 1177.72 482.286 1177.6 486.688 1177.46C491.138 1177.27 495.8 1177.08 500.675 1176.89C505.598 1176.7 510.592 1176.52 515.656 1176.33C520.721 1176.14 525.691 1175.95 530.566 1175.76L530.211 1183.99C525.289 1184.28 520.319 1184.54 515.301 1184.78C510.284 1184.96 505.361 1185.18 500.533 1185.41C495.753 1185.6 491.209 1185.79 486.901 1185.98C482.594 1186.12 478.689 1186.27 475.186 1186.41L474.689 1177.82Z" fill="black"/>
<path d="M403.263 1167.8H466.879V1175.97H403.263V1167.8ZM434.432 1178.52H443.023V1224.32H434.432V1178.52ZM414.623 1186.69H458.572V1194.78H423.143V1218H414.623V1186.69ZM454.88 1186.69H463.471V1208.91C463.471 1210.85 463.211 1212.41 462.69 1213.6C462.217 1214.73 461.27 1215.61 459.85 1216.22C458.525 1216.84 456.868 1217.22 454.88 1217.36C452.939 1217.5 450.62 1217.57 447.922 1217.57C447.78 1216.39 447.449 1215.07 446.928 1213.6C446.407 1212.13 445.863 1210.88 445.295 1209.83C446.384 1209.88 447.472 1209.91 448.561 1209.91C449.697 1209.91 450.691 1209.91 451.543 1209.91C452.442 1209.91 453.058 1209.91 453.389 1209.91C453.957 1209.91 454.336 1209.83 454.525 1209.69C454.762 1209.5 454.88 1209.17 454.88 1208.7V1186.69ZM426.054 1157.51L434.858 1159.5C433.154 1165.32 430.977 1171.07 428.326 1176.75C425.723 1182.43 422.551 1187.73 418.812 1192.65C415.073 1197.53 410.671 1201.72 405.606 1205.22C405.275 1204.51 404.801 1203.71 404.186 1202.81C403.618 1201.86 403.026 1200.94 402.411 1200.04C401.796 1199.14 401.228 1198.38 400.707 1197.76C404.068 1195.59 407.097 1192.98 409.795 1189.95C412.54 1186.88 414.954 1183.54 417.037 1179.94C419.12 1176.35 420.918 1172.65 422.433 1168.87C423.948 1165.03 425.155 1161.25 426.054 1157.51Z" fill="black"/>
<path d="M345.327 1183H369.467V1190.17H345.327V1183ZM370.958 1183H396.447V1190.17H370.958V1183ZM354.273 1174.48H361.87V1224.25H354.273V1174.48ZM378.697 1174.48H386.365V1224.25H378.697V1174.48ZM353.492 1187.47L358.746 1188.89C357.989 1192.25 357.018 1195.61 355.835 1198.97C354.699 1202.33 353.397 1205.43 351.93 1208.27C350.463 1211.11 348.83 1213.5 347.031 1215.44C346.463 1214.54 345.635 1213.53 344.546 1212.39C343.505 1211.21 342.558 1210.28 341.706 1209.62C343.41 1208.01 345.019 1206.02 346.534 1203.66C348.049 1201.29 349.398 1198.71 350.581 1195.92C351.812 1193.08 352.782 1190.26 353.492 1187.47ZM378.342 1187.47L383.17 1188.89C382.365 1192.2 381.348 1195.54 380.117 1198.9C378.886 1202.21 377.514 1205.31 375.999 1208.2C374.532 1211.09 372.946 1213.53 371.242 1215.51C370.627 1214.66 369.798 1213.67 368.757 1212.53C367.716 1211.4 366.793 1210.52 365.988 1209.9C367.692 1208.3 369.325 1206.28 370.887 1203.87C372.449 1201.41 373.869 1198.76 375.147 1195.92C376.425 1193.08 377.49 1190.26 378.342 1187.47ZM387.572 1186.97C388.329 1189.67 389.276 1192.39 390.412 1195.14C391.595 1197.88 392.873 1200.46 394.246 1202.88C395.666 1205.29 397.086 1207.35 398.506 1209.05C397.654 1209.67 396.66 1210.54 395.524 1211.68C394.435 1212.82 393.56 1213.88 392.897 1214.87C391.524 1212.84 390.199 1210.38 388.921 1207.49C387.69 1204.56 386.554 1201.46 385.513 1198.19C384.472 1194.88 383.596 1191.63 382.886 1188.46L387.572 1186.97ZM360.805 1190.66C361.278 1191.04 361.988 1191.66 362.935 1192.51C363.882 1193.36 364.876 1194.28 365.917 1195.28C366.958 1196.27 367.905 1197.2 368.757 1198.05C369.656 1198.9 370.319 1199.49 370.745 1199.82L366.485 1206.64C365.917 1205.83 365.207 1204.89 364.355 1203.8C363.55 1202.71 362.651 1201.6 361.657 1200.46C360.71 1199.33 359.811 1198.26 358.959 1197.27C358.107 1196.27 357.397 1195.44 356.829 1194.78L360.805 1190.66ZM361.799 1157.65H370.674V1170.36H361.799V1157.65ZM340.286 1164.96H396.518V1173.06H340.286V1164.96ZM335.174 1164.96H343.694V1184.56C343.694 1187.4 343.599 1190.55 343.41 1194C343.268 1197.46 342.96 1200.98 342.487 1204.58C342.014 1208.18 341.327 1211.68 340.428 1215.09C339.576 1218.45 338.416 1221.5 336.949 1224.25C336.428 1223.73 335.718 1223.11 334.819 1222.4C333.92 1221.74 332.997 1221.08 332.05 1220.41C331.151 1219.8 330.37 1219.35 329.707 1219.06C330.985 1216.6 331.979 1213.9 332.689 1210.97C333.446 1208.03 333.991 1205.03 334.322 1201.95C334.701 1198.88 334.937 1195.85 335.032 1192.86C335.127 1189.88 335.174 1187.11 335.174 1184.56V1164.96Z" fill="black"/>
</svg>
