<svg width="1080" height="1920" viewBox="0 0 1080 1920" fill="none" xmlns="http://www.w3.org/2000/svg">
<path d="M1080 1920L1080 0L0 0L0 1920H1080Z" fill="#A5D4AD"/>
<path d="M1020 983.72V95C1020 75.67 1004.33 60 985 60H95.58C75.93 60 60 75.93 60 95.58V983.71C60 984.03 60.25 984.28 60.57 984.28C80.03 984.59 95.71 1000.46 95.71 1019.99C95.71 1039.52 80.03 1055.39 60.57 1055.7C60.25 1055.7 60 1055.96 60 1056.27V1824.99C60 1844.32 75.67 1859.99 95 1859.99H985C1004.33 1859.99 1020 1844.32 1020 1824.99V1056.27C1020 1055.95 1019.75 1055.7 1019.43 1055.7C999.97 1055.39 984.29 1039.52 984.29 1019.99C984.29 1000.46 999.97 984.59 1019.43 984.28C1019.75 984.28 1020 984.02 1020 983.71V983.72Z" fill="white"/>
<path d="M60.57 1055.71C60.25 1055.71 60 1055.97 60 1056.28V1825C60 1844.33 75.67 1860 95 1860H985C1004.33 1860 1020 1844.33 1020 1825V1056.28C1020 1055.96 1019.75 1055.71 1019.43 1055.71C999.97 1055.4 984.29 1039.53 984.29 1020H95.71C95.71 1039.53 80.03 1055.4 60.57 1055.71Z" fill="#E5F2E6"/>
<path d="M121 1020H160.9" stroke="black" stroke-width="6" stroke-miterlimit="10"/>
<path d="M187.51 1020H227.41" stroke="black" stroke-width="6" stroke-miterlimit="10"/>
<path d="M254.02 1020H293.92" stroke="black" stroke-width="6" stroke-miterlimit="10"/>
<path d="M320.52 1020H360.43" stroke="black" stroke-width="6" stroke-miterlimit="10"/>
<path d="M387.03 1020H426.94" stroke="black" stroke-width="6" stroke-miterlimit="10"/>
<path d="M453.54 1020H493.44" stroke="black" stroke-width="6" stroke-miterlimit="10"/>
<path d="M520.05 1020H559.95" stroke="black" stroke-width="6" stroke-miterlimit="10"/>
<path d="M586.56 1020H626.46" stroke="black" stroke-width="6" stroke-miterlimit="10"/>
<path d="M653.06 1020H692.97" stroke="black" stroke-width="6" stroke-miterlimit="10"/>
<path d="M719.57 1020H759.48" stroke="black" stroke-width="6" stroke-miterlimit="10"/>
<path d="M786.08 1020H825.98" stroke="black" stroke-width="6" stroke-miterlimit="10"/>
<path d="M852.59 1020H892.49" stroke="black" stroke-width="6" stroke-miterlimit="10"/>
<path d="M919.1 1020H959" stroke="black" stroke-width="6" stroke-miterlimit="10"/>
<path d="M1020 984.29V95C1020 75.67 1004.33 60 985 60H95C75.67 60 60 75.67 60 95V984.29C79.72 984.29 95.71 1000.28 95.71 1020C95.71 1039.72 79.72 1055.71 60 1055.71V1825C60 1844.33 75.67 1860 95 1860H985C1004.33 1860 1020 1844.33 1020 1825V1055.71C1000.28 1055.71 984.29 1039.72 984.29 1020C984.29 1000.28 1000.28 984.29 1020 984.29Z" stroke="black" stroke-width="6" stroke-miterlimit="10"/>
<path d="M912.649 525.666C908.779 525.666 905.539 522.646 905.319 518.736C900.589 435.626 868.789 358.856 813.369 296.746C810.669 293.716 810.929 289.066 813.959 286.366C816.989 283.666 821.629 283.926 824.339 286.956C881.999 351.576 915.069 431.436 919.999 517.896C920.229 521.946 917.129 525.426 913.079 525.656C912.939 525.656 912.799 525.666 912.659 525.666H912.649Z" fill="black"/>
<path d="M818.849 795.517C817.109 795.517 815.359 794.897 813.959 793.647C810.929 790.947 810.669 786.297 813.369 783.267C868.789 721.157 900.589 644.387 905.319 561.277C905.549 557.227 909.029 554.117 913.079 554.357C917.129 554.587 920.229 558.057 919.999 562.117C915.069 648.587 881.999 728.447 824.339 793.057C822.889 794.687 820.869 795.517 818.849 795.517Z" fill="black"/>
<path d="M167.36 525.666C167.22 525.666 167.08 525.666 166.94 525.656C162.89 525.426 159.79 521.956 160.02 517.896C164.95 431.426 198.02 351.566 255.68 286.956C258.38 283.926 263.03 283.666 266.06 286.366C269.09 289.066 269.35 293.716 266.65 296.746C211.23 358.856 179.43 435.616 174.7 518.736C174.48 522.646 171.24 525.666 167.37 525.666H167.36Z" fill="black"/>
<path d="M261.17 795.517C259.15 795.517 257.13 794.687 255.68 793.057C198.02 728.437 164.95 648.577 160.02 562.117C159.79 558.067 162.89 554.587 166.94 554.357C170.99 554.117 174.47 557.227 174.7 561.277C179.43 644.397 211.23 721.157 266.65 783.267C269.35 786.297 269.09 790.947 266.06 793.647C264.66 794.897 262.91 795.517 261.17 795.517Z" fill="black"/>
<path d="M788.169 268.511C786.429 268.511 784.679 267.891 783.279 266.641C721.169 211.221 644.399 179.421 561.289 174.691C557.239 174.461 554.139 170.991 554.369 166.931C554.599 162.881 558.039 159.791 562.129 160.011C648.599 164.941 728.459 198.011 793.069 255.671C796.099 258.371 796.359 263.021 793.659 266.051C792.209 267.681 790.189 268.511 788.169 268.511Z" fill="black"/>
<path d="M291.85 268.512C289.83 268.512 287.81 267.682 286.36 266.052C283.66 263.022 283.92 258.372 286.95 255.672C351.57 198.012 431.43 164.942 517.89 160.012C521.94 159.782 525.42 162.882 525.65 166.932C525.88 170.982 522.78 174.462 518.73 174.692C435.62 179.422 358.85 211.222 296.74 266.642C295.34 267.892 293.59 268.512 291.85 268.512Z" fill="black"/>
<path d="M561.69 920.006C557.82 920.006 554.58 916.986 554.36 913.076C554.13 909.026 557.23 905.546 561.28 905.316C644.4 900.586 721.16 868.786 783.27 813.366C786.3 810.666 790.95 810.926 793.65 813.956C796.35 816.986 796.09 821.636 793.06 824.336C728.44 881.996 648.58 915.066 562.12 919.996C561.98 919.996 561.84 920.006 561.7 920.006H561.69Z" fill="black"/>
<path d="M518.319 920.006C518.179 920.006 518.04 920.006 517.9 919.996C431.43 915.066 351.569 881.996 286.959 824.336C283.929 821.636 283.669 816.986 286.369 813.956C289.069 810.926 293.719 810.666 296.749 813.366C358.859 868.786 435.629 900.586 518.739 905.316C522.789 905.546 525.889 909.016 525.659 913.076C525.439 916.986 522.199 920.006 518.329 920.006H518.319Z" fill="black"/>
<path d="M875.38 526.189C872.37 526.189 869.85 523.839 869.68 520.799C865.41 445.789 836.71 376.519 786.7 320.459C784.6 318.099 784.8 314.489 787.16 312.389C789.51 310.289 793.13 310.489 795.23 312.849C846.98 370.849 876.68 442.539 881.1 520.149C881.28 523.299 878.87 525.999 875.72 526.179C875.61 526.179 875.5 526.179 875.39 526.179L875.38 526.189Z" fill="black"/>
<path d="M790.96 769.062C789.6 769.062 788.25 768.582 787.16 767.612C784.8 765.512 784.6 761.892 786.7 759.542C836.71 703.492 865.41 634.212 869.68 559.202C869.86 556.052 872.55 553.642 875.71 553.822C878.86 554.002 881.27 556.702 881.09 559.852C876.67 637.472 846.98 709.152 795.22 767.152C794.09 768.422 792.52 769.062 790.95 769.062H790.96Z" fill="black"/>
<path d="M204.63 526.187C204.52 526.187 204.41 526.187 204.3 526.187C201.15 526.007 198.74 523.307 198.92 520.157C203.34 442.537 233.03 370.857 284.79 312.857C286.89 310.497 290.51 310.297 292.86 312.397C295.22 314.497 295.42 318.117 293.32 320.467C243.31 376.517 214.61 445.797 210.34 520.807C210.17 523.847 207.65 526.197 204.64 526.197L204.63 526.187Z" fill="black"/>
<path d="M289.05 769.055C287.48 769.055 285.91 768.405 284.78 767.145C233.03 709.145 203.33 637.455 198.91 559.845C198.73 556.695 201.14 553.995 204.29 553.815C207.45 553.625 210.14 556.045 210.32 559.195C214.59 634.205 243.29 703.485 293.3 759.535C295.4 761.895 295.2 765.505 292.84 767.605C291.75 768.575 290.39 769.055 289.04 769.055H289.05Z" fill="black"/>
<path d="M763.35 294.756C761.99 294.756 760.64 294.276 759.55 293.306C703.5 243.296 634.22 214.596 559.21 210.326C556.06 210.146 553.65 207.446 553.83 204.296C554.01 201.146 556.7 198.736 559.86 198.916C637.48 203.336 709.16 233.026 767.16 284.786C769.52 286.886 769.72 290.506 767.62 292.856C766.49 294.126 764.92 294.766 763.35 294.766V294.756Z" fill="black"/>
<path d="M316.66 294.759C315.09 294.759 313.52 294.109 312.39 292.849C310.29 290.489 310.49 286.879 312.85 284.779C370.85 233.029 442.54 203.329 520.15 198.909C523.3 198.719 526 201.139 526.18 204.289C526.36 207.439 523.95 210.139 520.8 210.319C445.79 214.589 376.52 243.289 320.46 293.299C319.37 294.269 318.01 294.749 316.66 294.749V294.759Z" fill="black"/>
<path d="M559.53 881.102C556.52 881.102 554 878.752 553.83 875.712C553.65 872.562 556.06 869.862 559.21 869.682C634.22 865.412 703.49 836.712 759.55 786.702C761.9 784.602 765.52 784.802 767.62 787.162C769.72 789.522 769.52 793.132 767.16 795.232C709.16 846.982 637.47 876.682 559.86 881.102C559.75 881.102 559.64 881.102 559.53 881.102Z" fill="black"/>
<path d="M520.49 881.102C520.38 881.102 520.27 881.102 520.16 881.102C442.54 876.682 370.86 846.992 312.86 795.232C310.5 793.132 310.3 789.512 312.4 787.162C314.5 784.802 318.12 784.602 320.47 786.702C376.52 836.722 445.8 865.412 520.81 869.682C523.96 869.862 526.37 872.562 526.19 875.712C526.02 878.752 523.5 881.102 520.49 881.102Z" fill="black"/>
<path d="M841.85 526.514C839.7 526.514 837.9 524.834 837.78 522.664C833.92 454.914 808 392.344 762.83 341.714C761.33 340.034 761.48 337.454 763.16 335.944C764.84 334.444 767.42 334.584 768.93 336.274C815.35 388.294 841.98 452.584 845.94 522.194C846.07 524.444 844.35 526.374 842.09 526.504C842.01 526.504 841.93 526.504 841.85 526.504V526.514Z" fill="black"/>
<path d="M765.87 745.106C764.9 745.106 763.93 744.766 763.15 744.066C761.47 742.566 761.32 739.986 762.82 738.296C807.99 687.666 833.91 625.096 837.77 557.346C837.9 555.096 839.86 553.396 842.08 553.496C844.33 553.626 846.05 555.556 845.93 557.806C841.96 627.416 815.33 691.706 768.92 743.726C768.11 744.626 766.99 745.086 765.87 745.086V745.106Z" fill="black"/>
<path d="M238.17 526.516C238.09 526.516 238.01 526.516 237.93 526.516C235.68 526.386 233.96 524.456 234.08 522.206C238.05 452.596 264.68 388.306 311.09 336.286C312.59 334.606 315.17 334.456 316.86 335.956C318.54 337.456 318.69 340.036 317.19 341.726C272.02 392.356 246.1 454.926 242.24 522.676C242.12 524.846 240.32 526.526 238.17 526.526V526.516Z" fill="black"/>
<path d="M314.14 745.103C313.02 745.103 311.9 744.643 311.09 743.743C264.67 691.723 238.04 627.433 234.08 557.823C233.95 555.573 235.67 553.643 237.93 553.513C240.17 553.403 242.11 555.103 242.24 557.363C246.1 625.113 272.02 687.683 317.19 738.313C318.69 739.993 318.54 742.573 316.86 744.083C316.08 744.773 315.11 745.123 314.14 745.123V745.103Z" fill="black"/>
<path d="M741.02 318.225C740.05 318.225 739.08 317.885 738.3 317.185C687.67 272.015 625.1 246.095 557.35 242.235C555.1 242.105 553.38 240.175 553.5 237.925C553.63 235.675 555.55 233.965 557.81 234.075C627.42 238.045 691.71 264.675 743.74 311.085C745.42 312.585 745.57 315.165 744.07 316.855C743.26 317.755 742.14 318.215 741.02 318.215V318.225Z" fill="black"/>
<path d="M339 318.224C337.88 318.224 336.76 317.764 335.95 316.864C334.45 315.184 334.6 312.604 336.28 311.094C388.3 264.674 452.59 238.044 522.2 234.084C524.45 233.964 526.38 235.674 526.51 237.934C526.64 240.184 524.92 242.114 522.66 242.244C454.91 246.104 392.34 272.024 341.71 317.194C340.93 317.884 339.96 318.234 338.99 318.234L339 318.224Z" fill="black"/>
<path d="M557.57 845.933C555.42 845.933 553.62 844.253 553.5 842.083C553.37 839.833 555.09 837.903 557.35 837.773C625.1 833.913 687.67 807.993 738.3 762.823C739.98 761.323 742.56 761.473 744.07 763.153C745.57 764.833 745.42 767.413 743.74 768.923C691.72 815.343 627.43 841.973 557.81 845.933C557.73 845.933 557.65 845.933 557.57 845.933Z" fill="black"/>
<path d="M522.44 845.933C522.36 845.933 522.28 845.933 522.2 845.933C452.59 841.963 388.3 815.333 336.28 768.923C334.6 767.423 334.45 764.843 335.95 763.153C337.45 761.473 340.03 761.323 341.72 762.823C392.35 807.993 454.92 833.913 522.67 837.773C524.92 837.903 526.64 839.833 526.52 842.083C526.4 844.253 524.6 845.933 522.45 845.933H522.44Z" fill="black"/>
<path d="M320.65 546.174C320.65 544.604 321.79 543.274 323.34 543.024C324.64 542.814 326.27 542.524 327.98 542.124C332.4 541.084 337.59 539.114 343.41 536.274C349.29 533.404 354.92 529.414 359.17 523.674C366.34 513.974 367.86 501.404 368.19 496.894C368.26 495.974 367.53 495.194 366.6 495.194H317.09C315.33 495.194 313.91 493.764 313.91 492.014V470.694C313.91 468.934 315.34 467.514 317.09 467.514H367.07C367.95 467.514 368.66 466.804 368.66 465.924V447.184C368.66 446.304 367.95 445.594 367.07 445.594H328.62C326.86 445.594 325.44 444.164 325.44 442.414V421.094C325.44 419.334 326.87 417.914 328.62 417.914H428.96C430.72 417.914 432.14 419.344 432.14 421.094V442.414C432.14 444.174 430.71 445.594 428.96 445.594H398.52C397.64 445.594 396.93 446.304 396.93 447.184V465.924C396.93 466.804 397.64 467.514 398.52 467.514H438.58C440.34 467.514 441.76 468.944 441.76 470.694V492.014C441.76 493.774 440.33 495.194 438.58 495.194H398.39C397.54 495.194 396.84 495.864 396.8 496.714C396.57 501.754 395.15 518.444 386.18 532.854C380.73 541.614 373.65 548.264 366.54 553.544C359.41 558.844 352.26 562.934 345.27 565.704C338.24 568.494 332.34 570.444 327.75 571.514C326.66 571.764 325.49 571.994 324.4 572.184C322.45 572.534 320.66 571.034 320.66 569.044V546.164L320.65 546.174Z" fill="black"/>
<path d="M474.55 546.522C474.55 545.062 475.55 543.792 476.96 543.432C485.21 541.362 488.93 540.112 496.84 536.322C496.84 536.322 500.89 534.212 504.93 531.302C517.11 522.542 525.22 510.632 525.22 510.632C534.68 497.282 537.77 474.912 538.49 468.492C538.6 467.552 537.86 466.722 536.91 466.722H500.58C500.35 466.722 500.14 466.842 500.03 467.042L499.88 467.292C494.3 478.112 486.88 487.992 480.45 494.242C474 500.502 468.59 505.052 464.38 507.752L461.78 509.422C460.72 510.102 459.33 509.342 459.33 508.082V479.892C459.33 478.952 459.75 478.062 460.47 477.452C461.12 476.902 461.99 476.132 463.18 475.062C465.94 472.572 469.05 468.512 472.42 462.982C475.76 457.512 479.35 450.212 483.07 441.292C486.45 433.202 488.98 423.092 490.86 412.062C491.12 410.532 492.45 409.422 494 409.422H513.91C515.91 409.422 517.42 411.252 517.04 413.212C516.4 416.522 515.71 420.882 514.85 424.312C513.58 429.392 512.76 432.302 511.24 436.722C510.98 437.472 511.54 438.242 512.33 438.242H591.18C592.94 438.242 594.36 439.672 594.36 441.422V463.512C594.36 465.272 592.93 466.692 591.18 466.692H568.14C567.33 466.692 566.64 467.302 566.56 468.112C565.93 474.012 562.88 497.162 552.39 517.262C538.29 546.002 508.14 566.392 478.34 572.132C476.38 572.512 474.56 571.002 474.56 569.002V546.482L474.55 546.522Z" fill="black"/>
<path d="M675.9 411.035V468.875C675.9 469.755 676.61 470.465 677.49 470.465H764.52C765.4 470.465 766.11 469.755 766.11 468.875V411.035C766.11 410.155 765.4 409.445 764.52 409.445H677.49C676.61 409.445 675.9 410.155 675.9 411.035ZM738.46 452.745H702.3C701.42 452.745 700.71 452.035 700.71 451.155V446.875C700.71 445.995 701.42 445.285 702.3 445.285H738.46C739.34 445.285 740.05 445.995 740.05 446.875V451.155C740.05 452.035 739.34 452.745 738.46 452.745ZM738.46 434.455H702.3C701.42 434.455 700.71 433.745 700.71 432.865V428.755C700.71 427.875 701.42 427.165 702.3 427.165H738.46C739.34 427.165 740.05 427.875 740.05 428.755V432.865C740.05 433.745 739.34 434.455 738.46 434.455Z" fill="black"/>
<path d="M674.23 497.342H728.27C729.15 497.342 729.86 498.052 729.86 498.932V502.842C729.86 503.722 729.15 504.432 728.27 504.432H667.76C666 504.432 664.58 505.862 664.58 507.612V522.862C664.58 524.622 666.01 526.042 667.76 526.042H728.27C729.15 526.042 729.86 526.752 729.86 527.632V545.392C729.86 546.112 729.94 547.982 729.22 548.852C728.39 549.872 727.15 549.672 725.85 549.722C722.54 549.722 719.58 549.702 716.95 549.662C716.55 549.662 716.26 549.292 716.34 548.902C716.6 547.632 716.73 546.312 716.7 544.962C716.5 535.682 708.94 528.082 699.66 527.842C689.58 527.582 681.37 535.852 681.71 545.942C682.02 555.292 689.79 562.812 699.15 562.842C704.04 562.852 708.46 560.862 711.64 557.642C711.98 557.302 712.55 557.432 712.7 557.882C714.16 562.212 715.54 566.342 716.79 570.052C717.23 571.352 718.46 572.222 719.83 572.212C725.73 572.172 730.51 571.962 734.18 571.602C738.31 571.182 742.09 570.152 745.52 568.502C749.18 566.842 751.69 564.422 753.05 561.232C754.41 558.042 755.09 553.552 755.09 547.762V527.622C755.09 526.742 755.8 526.032 756.68 526.032H762.91C764.67 526.032 766.09 524.602 766.09 522.852V507.602C766.09 505.842 764.66 504.422 762.91 504.422H756.68C755.8 504.422 755.09 503.712 755.09 502.832V498.922C755.09 498.042 755.8 497.332 756.68 497.332H762.91C764.67 497.332 766.09 495.902 766.09 494.152V479.602C766.09 477.842 764.66 476.422 762.91 476.422H674.21C672.45 476.422 671.03 477.852 671.03 479.602V494.152C671.03 495.912 672.46 497.332 674.21 497.332L674.23 497.342Z" fill="black"/>
<path d="M668.83 409.445H650.26C649.4 409.445 648.58 409.795 647.98 410.405C635.23 423.355 618.29 434.575 612.13 438.485C610.78 439.335 610.28 441.065 610.95 442.505L620.7 463.575C621.63 465.575 624.26 466.055 625.83 464.505C646.12 444.465 664.45 419.805 670.12 411.965C670.88 410.915 670.12 409.445 668.83 409.445Z" fill="black"/>
<path d="M671.92 453.899V435.419C671.92 434.009 670.22 433.299 669.21 434.289C653.64 449.609 620.05 477.069 611.68 483.869C610.55 484.789 610.19 486.359 610.8 487.679L620.7 509.059C621.63 511.059 624.26 511.539 625.83 509.989C627.54 508.299 629.24 506.569 630.92 504.829C631.32 504.419 632.02 504.699 632.02 505.269V569.069C632.02 570.829 633.45 572.249 635.2 572.249H653.82C655.58 572.249 657 570.819 657 569.069V476.379C657 475.309 657.36 474.259 658.03 473.419C664.87 464.739 669.72 458.029 671.34 455.749C671.72 455.209 671.93 454.569 671.93 453.899H671.92Z" fill="black"/>
<path d="M653.271 623.338C640.851 623.338 634.811 628.288 634.811 638.478V655.608C634.811 665.678 640.851 670.568 653.271 670.568C659.141 670.568 663.481 669.488 666.561 667.278C670.001 664.808 671.741 660.878 671.741 655.598V638.468C671.741 628.278 665.701 623.328 653.281 623.328L653.271 623.338ZM646.091 639.308C646.091 633.938 648.841 632.918 653.271 632.918C657.701 632.918 660.451 633.958 660.451 639.308V654.688C660.451 659.958 657.601 660.988 653.271 660.988C648.941 660.988 646.091 659.988 646.091 654.688V639.308Z" fill="black"/>
<path d="M708.271 669.334H721.36L703.63 646.784L720.56 624.804H707.401L694.06 642.284V610.234H682.771V669.334H694.06V659.214L696.951 655.454L708.271 669.334Z" fill="black"/>
<path d="M754.82 624.805V653.295C754.82 659.045 751.88 660.895 746.83 660.895C743.56 660.895 740.28 660.355 740.28 653.885V624.815H729V656.775C729 665.745 733.71 670.485 742.62 670.485C749.3 670.485 753.88 666.865 755.58 662.805L757.39 669.345H766.11V624.815H754.83L754.82 624.805Z" fill="black"/>
<path d="M630.57 610.234H589.15V620.144V620.154H604.22V669.334H615.69V620.154H630.57V610.234Z" fill="black"/>
<path d="M459.69 669.334H472.78L455.05 646.784L471.98 624.804H458.82L445.48 642.284V610.234H434.2V669.334H445.48V659.214L448.37 655.454L459.69 669.334Z" fill="black"/>
<path d="M355.33 610.234H313.91V620.144V620.154H328.99V669.334H340.45V620.154H355.33V610.234Z" fill="black"/>
<path d="M421.8 658.896L421.2 659.046C417.62 659.966 413.29 660.896 409.41 660.896C404.86 660.896 401.69 658.826 401.69 652.836V640.976C401.69 634.906 404.86 632.826 409.41 632.826C413.36 632.826 417.88 633.706 421.23 634.406L421.81 634.526V625.196L421.5 625.126C417.69 624.236 412.05 623.336 407.53 623.336C402.01 623.336 397.97 624.406 395.17 626.596C391.97 629.096 390.42 633.856 390.42 639.346V654.646C390.42 664.776 396.02 670.566 407.54 670.566C411.41 670.566 417.27 669.496 421.53 668.316L421.82 668.236V658.886L421.8 658.896Z" fill="black"/>
<path d="M553.93 634.705V624.805H543.69V615.195H532.41V624.805H525.18V634.705H532.41V655.425C532.41 667.945 540.3 670.565 546.93 670.565C548.71 670.565 550.51 670.455 552.12 670.225V660.265C551.47 660.335 550.26 660.365 549.54 660.365C546.46 660.365 543.69 659.735 543.69 652.095V634.695H553.93V634.705Z" fill="black"/>
<path d="M489.74 650.742V650.562H515.17V641.482C515.17 635.572 513.55 630.243 510.36 627.343C507.42 624.673 502.78 623.312 497.26 623.312C485.08 623.312 478.46 629.223 478.46 639.593V654.453C478.46 664.703 483.84 670.552 496.32 670.552C500.98 670.552 506.29 669.563 511.97 668.403L512.36 668.323V659.052L511.71 659.203C507.14 660.253 504.62 661.143 500.29 661.143C494.08 661.143 489.74 658.623 489.74 652.203V650.722V650.742ZM489.74 639.722C489.74 634.072 493.8 632.742 497.17 632.742C500.54 632.742 504.07 634.072 504.07 639.722V643.232H489.74V642.713V639.722Z" fill="black"/>
<path d="M378.18 626.883H366.9V669.333H378.18V626.883Z" fill="black"/>
<path d="M372.54 622.224C376.422 622.224 379.57 619.077 379.57 615.194C379.57 611.312 376.422 608.164 372.54 608.164C368.657 608.164 365.51 611.312 365.51 615.194C365.51 619.077 368.657 622.224 372.54 622.224Z" fill="black"/>
<path d="M585.74 643.922H566.15V651.262H585.74V643.922Z" fill="black"/>
<path d="M739.981 1706C739.134 1706 738.408 1705.4 738.408 1704.43V1610.66C738.408 1609.93 739.013 1609.2 739.981 1609.2H784.267C785.235 1609.2 785.84 1609.81 785.84 1610.66V1620.09C785.84 1620.94 785.235 1621.55 784.267 1621.55H751.113V1651.43H783.178C784.025 1651.43 784.63 1652.04 784.63 1652.88V1662.08C784.63 1663.05 784.025 1663.77 783.178 1663.77H751.113V1704.43C751.113 1705.4 750.387 1706 749.54 1706H739.981Z" fill="black"/>
<path d="M671.328 1706C670.481 1706 669.755 1705.4 669.755 1704.43V1610.66C669.755 1609.93 670.36 1609.2 671.328 1609.2H715.614C716.582 1609.2 717.187 1609.81 717.187 1610.66V1620.09C717.187 1620.94 716.582 1621.55 715.614 1621.55H682.46V1651.43H714.525C715.372 1651.43 715.977 1652.04 715.977 1652.88V1662.08C715.977 1663.05 715.372 1663.77 714.525 1663.77H682.46V1704.43C682.46 1705.4 681.734 1706 680.887 1706H671.328Z" fill="black"/>
<path d="M601.771 1619.97C581.322 1619.97 564.866 1636.66 564.866 1657.48C564.866 1678.05 581.201 1695.23 601.65 1695.23C622.099 1695.23 638.797 1678.05 638.797 1657.6C638.797 1636.79 622.22 1619.97 601.771 1619.97ZM552.04 1657.48C552.04 1629.65 573.941 1607.38 601.771 1607.38C629.601 1607.38 651.623 1629.77 651.623 1657.6C651.623 1685.43 629.48 1707.81 601.65 1707.81C573.82 1707.81 552.04 1685.31 552.04 1657.48Z" fill="black"/>
<path d="M463.744 1705.27C463.502 1705.76 463.018 1706 462.534 1706H451.402C450.313 1706 449.587 1704.79 450.192 1703.82L503.916 1609.92C504.158 1609.44 504.642 1609.2 505.247 1609.2H516.379C517.71 1609.2 518.194 1610.41 517.589 1611.38L463.744 1705.27ZM432.647 1632.43C432.647 1618.51 443.537 1607.38 457.452 1607.38C471.488 1607.38 482.378 1618.51 482.378 1632.55C482.378 1646.47 471.246 1657.6 457.452 1657.6C443.416 1657.6 432.647 1646.47 432.647 1632.43ZM445.352 1632.43C445.352 1639.33 450.676 1645.01 457.452 1645.01C464.228 1645.01 469.673 1639.33 469.673 1632.55C469.673 1625.65 464.228 1620.21 457.452 1620.21C450.797 1620.21 445.352 1625.65 445.352 1632.43ZM487.218 1682.52C487.218 1668.61 498.108 1657.48 512.023 1657.48C526.059 1657.48 536.949 1668.61 536.949 1682.64C536.949 1696.56 525.817 1707.69 512.023 1707.69C497.987 1707.69 487.218 1696.56 487.218 1682.52ZM499.923 1682.52C499.923 1689.42 505.247 1695.11 512.023 1695.11C518.799 1695.11 524.244 1689.42 524.244 1682.64C524.244 1675.75 518.799 1670.3 512.023 1670.3C505.368 1670.3 499.923 1675.75 499.923 1682.52Z" fill="black"/>
<path d="M404.781 1657.48C404.781 1639.33 399.094 1619.72 383.969 1619.72C368.844 1619.72 363.157 1639.33 363.157 1657.48C363.157 1676.84 368.844 1695.47 383.969 1695.47C399.094 1695.47 404.781 1676.84 404.781 1657.48ZM350.452 1657.48C350.452 1633.28 359.769 1607.38 383.969 1607.38C408.169 1607.38 417.486 1633.28 417.486 1657.48C417.486 1684.1 408.169 1707.81 383.969 1707.81C359.769 1707.81 350.452 1684.1 350.452 1657.48Z" fill="black"/>
<path d="M324.822 1609.2C325.669 1609.2 326.274 1609.81 326.274 1610.66V1704.43C326.274 1705.28 325.669 1706 324.822 1706H315.142C314.295 1706 313.69 1705.28 313.69 1704.43V1621.55H298.565C297.234 1621.55 296.629 1620.21 297.234 1619.37L303.284 1609.81C303.526 1609.45 304.01 1609.2 304.494 1609.2H324.822Z" fill="black"/>
<path d="M876.328 1457.5C876.168 1458.37 875.912 1459.49 875.56 1460.86C875.208 1462.24 874.696 1463.79 874.024 1465.52C873.512 1466.7 872.92 1467.94 872.248 1469.22C871.608 1470.46 870.952 1471.58 870.28 1472.58C870.696 1472.38 871.224 1472.22 871.864 1472.1C872.504 1471.94 873.16 1471.82 873.832 1471.76C874.536 1471.66 875.16 1471.62 875.704 1471.62C877.72 1471.62 879.384 1472.19 880.696 1473.34C882.04 1474.5 882.712 1476.21 882.712 1478.48C882.712 1479.12 882.712 1479.9 882.712 1480.83C882.744 1481.76 882.776 1482.74 882.808 1483.76C882.84 1484.75 882.872 1485.73 882.904 1486.69C882.936 1487.65 882.952 1488.51 882.952 1489.28H877.192C877.256 1488.74 877.288 1488.1 877.288 1487.36C877.32 1486.59 877.336 1485.79 877.336 1484.96C877.368 1484.13 877.384 1483.33 877.384 1482.56C877.416 1481.76 877.432 1481.04 877.432 1480.4C877.432 1478.86 877.016 1477.81 876.184 1477.23C875.384 1476.62 874.488 1476.32 873.496 1476.32C872.152 1476.32 870.792 1476.66 869.416 1477.33C868.072 1477.97 866.936 1478.74 866.008 1479.63C865.304 1480.34 864.584 1481.12 863.848 1481.98C863.144 1482.85 862.376 1483.82 861.544 1484.91L856.408 1481.07C858.488 1479.15 860.28 1477.3 861.784 1475.5C863.32 1473.71 864.616 1471.94 865.672 1470.18C866.728 1468.42 867.592 1466.66 868.264 1464.9C868.744 1463.62 869.128 1462.29 869.416 1460.91C869.736 1459.5 869.928 1458.19 869.992 1456.98L876.328 1457.5ZM858.28 1461.92C859.496 1462.11 860.904 1462.26 862.504 1462.35C864.104 1462.45 865.512 1462.5 866.728 1462.5C868.84 1462.5 871.144 1462.45 873.64 1462.35C876.168 1462.26 878.728 1462.1 881.32 1461.87C883.912 1461.62 886.376 1461.3 888.712 1460.91L888.664 1466.48C886.968 1466.7 885.128 1466.91 883.144 1467.1C881.192 1467.26 879.192 1467.41 877.144 1467.54C875.128 1467.63 873.192 1467.71 871.336 1467.78C869.48 1467.81 867.832 1467.82 866.392 1467.82C865.752 1467.82 864.952 1467.82 863.992 1467.82C863.064 1467.79 862.104 1467.76 861.112 1467.73C860.12 1467.66 859.176 1467.6 858.28 1467.54V1461.92ZM896.296 1475.55C895.784 1475.71 895.176 1475.92 894.472 1476.18C893.8 1476.4 893.112 1476.64 892.408 1476.9C891.736 1477.12 891.128 1477.34 890.584 1477.57C889.048 1478.18 887.224 1478.91 885.112 1479.78C883.032 1480.64 880.856 1481.65 878.584 1482.8C877.144 1483.57 875.928 1484.32 874.936 1485.06C873.944 1485.79 873.192 1486.54 872.68 1487.31C872.168 1488.05 871.912 1488.86 871.912 1489.76C871.912 1490.43 872.056 1490.99 872.344 1491.44C872.632 1491.86 873.064 1492.19 873.64 1492.45C874.216 1492.7 874.936 1492.88 875.8 1492.98C876.664 1493.07 877.688 1493.12 878.872 1493.12C880.92 1493.12 883.176 1493.01 885.64 1492.78C888.104 1492.53 890.392 1492.19 892.504 1491.78L892.312 1497.97C891.288 1498.1 889.992 1498.22 888.424 1498.35C886.856 1498.51 885.224 1498.62 883.528 1498.69C881.864 1498.75 880.264 1498.78 878.728 1498.78C876.232 1498.78 873.992 1498.54 872.008 1498.06C870.024 1497.58 868.456 1496.77 867.304 1495.62C866.184 1494.43 865.624 1492.82 865.624 1490.77C865.624 1489.1 865.992 1487.6 866.728 1486.26C867.496 1484.91 868.504 1483.7 869.752 1482.61C871 1481.52 872.36 1480.54 873.832 1479.68C875.336 1478.78 876.808 1477.97 878.248 1477.23C879.72 1476.46 881.048 1475.81 882.232 1475.26C883.416 1474.72 884.52 1474.24 885.544 1473.82C886.6 1473.38 887.608 1472.93 888.568 1472.48C889.496 1472.06 890.392 1471.66 891.256 1471.28C892.12 1470.86 893 1470.43 893.896 1469.98L896.296 1475.55Z" fill="black"/>
<path d="M848.152 1466.15C847.896 1466.59 847.624 1467.14 847.336 1467.78C847.048 1468.39 846.792 1468.99 846.568 1469.6C846.152 1471.01 845.56 1472.63 844.792 1474.45C844.056 1476.24 843.128 1478.11 842.008 1480.07C840.92 1481.99 839.656 1483.84 838.216 1485.63C835.912 1488.39 833.224 1490.88 830.152 1493.12C827.112 1495.36 823.336 1497.38 818.824 1499.17L813.16 1494.08C816.424 1493.12 819.24 1492.02 821.608 1490.77C823.976 1489.52 826.04 1488.19 827.8 1486.79C829.56 1485.35 831.129 1483.83 832.505 1482.23C833.625 1480.98 834.648 1479.57 835.576 1478C836.504 1476.4 837.305 1474.82 837.977 1473.25C838.649 1471.68 839.096 1470.31 839.32 1469.12H823.144L825.352 1463.7C825.8 1463.7 826.489 1463.7 827.417 1463.7C828.377 1463.7 829.449 1463.7 830.633 1463.7C831.849 1463.7 833.033 1463.7 834.185 1463.7C835.369 1463.7 836.392 1463.7 837.256 1463.7C838.152 1463.7 838.761 1463.7 839.081 1463.7C839.817 1463.7 840.553 1463.65 841.289 1463.55C842.057 1463.46 842.712 1463.31 843.256 1463.12L848.152 1466.15ZM832.505 1458.56C831.929 1459.39 831.368 1460.29 830.824 1461.25C830.28 1462.21 829.864 1462.95 829.576 1463.46C828.488 1465.38 827.144 1467.38 825.544 1469.46C823.976 1471.51 822.185 1473.51 820.169 1475.46C818.153 1477.38 816.009 1479.14 813.737 1480.74L808.312 1476.75C810.424 1475.44 812.28 1474.1 813.88 1472.72C815.512 1471.35 816.92 1469.99 818.104 1468.64C819.288 1467.27 820.296 1465.95 821.128 1464.71C821.992 1463.43 822.728 1462.29 823.336 1461.3C823.72 1460.69 824.12 1459.91 824.536 1458.95C824.952 1457.95 825.272 1457.06 825.496 1456.26L832.505 1458.56Z" fill="black"/>
<path d="M768.568 1459.52C769.4 1460.1 770.376 1460.8 771.496 1461.64C772.616 1462.47 773.768 1463.38 774.952 1464.37C776.168 1465.33 777.304 1466.28 778.36 1467.2C779.416 1468.13 780.28 1468.96 780.952 1469.7L776.056 1474.69C775.448 1474.02 774.648 1473.22 773.656 1472.29C772.664 1471.36 771.592 1470.4 770.44 1469.41C769.288 1468.42 768.152 1467.48 767.032 1466.58C765.912 1465.68 764.92 1464.93 764.056 1464.32L768.568 1459.52ZM762.568 1491.49C765.064 1491.14 767.416 1490.64 769.624 1490C771.832 1489.36 773.88 1488.63 775.768 1487.8C777.656 1486.96 779.384 1486.1 780.952 1485.2C783.672 1483.57 786.168 1481.72 788.44 1479.64C790.712 1477.56 792.696 1475.4 794.392 1473.16C796.088 1470.88 797.432 1468.68 798.424 1466.53L802.168 1473.3C800.952 1475.44 799.448 1477.59 797.656 1479.73C795.896 1481.88 793.896 1483.92 791.656 1485.88C789.416 1487.8 787 1489.52 784.408 1491.06C782.776 1492.05 781.016 1493 779.128 1493.89C777.24 1494.76 775.24 1495.52 773.128 1496.2C771.048 1496.9 768.872 1497.44 766.6 1497.83L762.568 1491.49Z" fill="black"/>
<path d="M747.544 1458.75C747.512 1459.42 747.465 1460.16 747.401 1460.96C747.369 1461.73 747.352 1462.59 747.352 1463.55C747.352 1464.38 747.352 1465.39 747.352 1466.57C747.352 1467.76 747.352 1468.94 747.352 1470.13C747.352 1471.28 747.352 1472.25 747.352 1473.05C747.352 1475.61 747.225 1477.85 746.969 1479.77C746.745 1481.69 746.392 1483.37 745.912 1484.81C745.432 1486.25 744.84 1487.53 744.136 1488.65C743.464 1489.74 742.68 1490.78 741.784 1491.77C740.728 1492.93 739.512 1493.97 738.136 1494.89C736.76 1495.79 735.369 1496.54 733.961 1497.15C732.585 1497.79 731.304 1498.3 730.12 1498.69L725.081 1493.41C727.481 1492.86 729.64 1492.11 731.56 1491.15C733.512 1490.16 735.208 1488.89 736.648 1487.36C737.48 1486.43 738.152 1485.5 738.664 1484.57C739.176 1483.65 739.56 1482.62 739.816 1481.5C740.104 1480.35 740.297 1479.05 740.393 1477.61C740.521 1476.17 740.584 1474.53 740.584 1472.67C740.584 1471.84 740.584 1470.85 740.584 1469.69C740.584 1468.54 740.584 1467.41 740.584 1466.29C740.584 1465.17 740.584 1464.25 740.584 1463.55C740.584 1462.59 740.552 1461.73 740.488 1460.96C740.456 1460.16 740.393 1459.42 740.297 1458.75H747.544ZM725.272 1459.13C725.24 1459.71 725.209 1460.29 725.177 1460.86C725.145 1461.41 725.128 1462.06 725.128 1462.83C725.128 1463.18 725.128 1463.76 725.128 1464.56C725.128 1465.36 725.128 1466.3 725.128 1467.39C725.128 1468.45 725.128 1469.57 725.128 1470.75C725.128 1471.9 725.128 1473.02 725.128 1474.11C725.128 1475.2 725.128 1476.19 725.128 1477.09C725.128 1477.95 725.128 1478.61 725.128 1479.05C725.128 1479.66 725.145 1480.37 725.177 1481.17C725.209 1481.97 725.24 1482.65 725.272 1483.23H718.312C718.345 1482.78 718.392 1482.14 718.456 1481.31C718.52 1480.48 718.552 1479.71 718.552 1479.01C718.552 1478.56 718.552 1477.9 718.552 1477.04C718.552 1476.17 718.552 1475.2 718.552 1474.11C718.552 1472.99 718.552 1471.85 718.552 1470.7C718.552 1469.52 718.552 1468.4 718.552 1467.34C718.552 1466.29 718.552 1465.36 718.552 1464.56C718.552 1463.76 718.552 1463.18 718.552 1462.83C718.552 1462.38 718.537 1461.81 718.505 1461.1C718.473 1460.37 718.424 1459.71 718.36 1459.13H725.272Z" fill="black"/>
<path d="M693.736 1460.29C694.184 1460.93 694.68 1461.68 695.224 1462.54C695.768 1463.41 696.28 1464.27 696.76 1465.14C697.272 1466 697.72 1466.8 698.104 1467.54L693.927 1469.41C693.479 1468.38 693.032 1467.47 692.584 1466.67C692.168 1465.87 691.736 1465.1 691.288 1464.37C690.84 1463.6 690.312 1462.8 689.704 1461.97L693.736 1460.29ZM700.023 1457.65C700.503 1458.29 701.016 1459.02 701.56 1459.86C702.136 1460.69 702.68 1461.54 703.192 1462.4C703.736 1463.23 704.184 1464.02 704.536 1464.75L700.504 1466.72C699.992 1465.7 699.496 1464.8 699.016 1464.03C698.568 1463.23 698.104 1462.48 697.624 1461.78C697.176 1461.04 696.647 1460.29 696.039 1459.52L700.023 1457.65ZM674.584 1492.11C674.584 1491.47 674.584 1490.46 674.584 1489.09C674.584 1487.68 674.584 1486.06 674.584 1484.24C674.584 1482.38 674.584 1480.46 674.584 1478.48C674.584 1476.46 674.584 1474.53 674.584 1472.67C674.584 1470.78 674.584 1469.12 674.584 1467.68C674.584 1466.24 674.584 1465.18 674.584 1464.51C674.584 1463.65 674.536 1462.67 674.44 1461.58C674.376 1460.5 674.264 1459.54 674.104 1458.7H681.592C681.496 1459.54 681.399 1460.46 681.303 1461.49C681.207 1462.51 681.16 1463.52 681.16 1464.51C681.16 1465.38 681.16 1466.58 681.16 1468.11C681.16 1469.65 681.16 1471.36 681.16 1473.25C681.16 1475.1 681.16 1477.01 681.16 1478.96C681.16 1480.91 681.16 1482.78 681.16 1484.58C681.16 1486.34 681.16 1487.89 681.16 1489.23C681.16 1490.54 681.16 1491.5 681.16 1492.11C681.16 1492.53 681.176 1493.15 681.208 1493.98C681.272 1494.78 681.336 1495.62 681.4 1496.48C681.496 1497.34 681.576 1498.11 681.64 1498.78H674.104C674.264 1497.86 674.376 1496.75 674.44 1495.47C674.536 1494.16 674.584 1493.04 674.584 1492.11ZM679.768 1471.14C681.368 1471.55 683.144 1472.1 685.096 1472.77C687.08 1473.41 689.08 1474.11 691.096 1474.88C693.112 1475.62 695.015 1476.35 696.807 1477.09C698.599 1477.79 700.072 1478.43 701.224 1479.01L698.536 1485.68C697.16 1484.94 695.655 1484.22 694.023 1483.52C692.391 1482.82 690.728 1482.13 689.032 1481.46C687.368 1480.75 685.735 1480.11 684.135 1479.54C682.535 1478.96 681.08 1478.46 679.768 1478.05V1471.14Z" fill="black"/>
<path d="M641.368 1463.12C641.048 1465.55 640.632 1468.14 640.12 1470.89C639.608 1473.65 638.92 1476.43 638.056 1479.25C637.128 1482.48 636.04 1485.26 634.792 1487.6C633.544 1489.93 632.168 1491.74 630.664 1493.02C629.192 1494.27 627.576 1494.89 625.816 1494.89C624.056 1494.89 622.424 1494.3 620.92 1493.12C619.448 1491.9 618.264 1490.24 617.368 1488.13C616.504 1486.01 616.072 1483.61 616.072 1480.93C616.072 1478.14 616.632 1475.52 617.752 1473.05C618.872 1470.59 620.424 1468.41 622.408 1466.53C624.424 1464.61 626.76 1463.1 629.416 1462.01C632.104 1460.93 635 1460.38 638.104 1460.38C641.08 1460.38 643.752 1460.86 646.12 1461.82C648.52 1462.78 650.568 1464.11 652.264 1465.81C653.96 1467.5 655.256 1469.49 656.152 1471.76C657.048 1474.03 657.496 1476.48 657.496 1479.1C657.496 1482.46 656.808 1485.47 655.432 1488.13C654.056 1490.78 652.008 1492.97 649.288 1494.7C646.6 1496.43 643.24 1497.61 639.208 1498.25L635.608 1492.54C636.536 1492.45 637.352 1492.33 638.056 1492.21C638.76 1492.08 639.432 1491.93 640.072 1491.77C641.608 1491.39 643.032 1490.85 644.344 1490.14C645.688 1489.41 646.856 1488.51 647.848 1487.45C648.84 1486.37 649.608 1485.1 650.152 1483.66C650.728 1482.22 651.016 1480.64 651.016 1478.91C651.016 1477.02 650.728 1475.29 650.152 1473.73C649.576 1472.16 648.728 1470.8 647.608 1469.65C646.488 1468.46 645.128 1467.57 643.528 1466.96C641.928 1466.32 640.088 1466 638.008 1466C635.448 1466 633.192 1466.46 631.24 1467.39C629.288 1468.29 627.64 1469.45 626.296 1470.89C624.952 1472.33 623.928 1473.89 623.224 1475.55C622.552 1477.21 622.216 1478.8 622.216 1480.3C622.216 1481.9 622.408 1483.25 622.792 1484.33C623.176 1485.39 623.64 1486.19 624.184 1486.73C624.76 1487.25 625.368 1487.5 626.008 1487.5C626.68 1487.5 627.336 1487.17 627.976 1486.49C628.648 1485.79 629.304 1484.73 629.944 1483.33C630.584 1481.92 631.224 1480.14 631.864 1478C632.6 1475.69 633.224 1473.23 633.736 1470.61C634.248 1467.98 634.616 1465.42 634.84 1462.93L641.368 1463.12Z" fill="black"/>
<path d="M567.256 1462.93H610.792V1468.4H567.256V1462.93ZM583.288 1474.69H601.672V1480.11H583.288V1474.69ZM599.512 1474.69H605.464C605.464 1474.69 605.448 1474.85 605.416 1475.17C605.416 1475.46 605.416 1475.79 605.416 1476.18C605.416 1476.56 605.384 1476.9 605.32 1477.18C605.032 1481.57 604.712 1485.15 604.36 1487.94C604.008 1490.72 603.608 1492.9 603.16 1494.46C602.712 1496 602.168 1497.12 601.528 1497.82C600.792 1498.62 600.024 1499.17 599.224 1499.46C598.424 1499.74 597.464 1499.95 596.344 1500.08C595.416 1500.18 594.2 1500.21 592.696 1500.18C591.192 1500.18 589.64 1500.14 588.04 1500.08C588.008 1499.25 587.8 1498.29 587.416 1497.2C587.032 1496.14 586.552 1495.22 585.976 1494.42C587.64 1494.58 589.24 1494.67 590.776 1494.7C592.312 1494.74 593.416 1494.75 594.088 1494.75C594.632 1494.75 595.08 1494.72 595.432 1494.66C595.816 1494.56 596.152 1494.38 596.44 1494.13C596.952 1493.71 597.384 1492.8 597.736 1491.39C598.12 1489.98 598.456 1487.98 598.744 1485.39C599.032 1482.8 599.288 1479.52 599.512 1475.55V1474.69ZM581.128 1466.19H587.56C587.432 1468.75 587.224 1471.34 586.936 1473.97C586.68 1476.56 586.232 1479.14 585.592 1481.7C584.952 1484.22 584.024 1486.64 582.808 1488.94C581.592 1491.25 579.992 1493.39 578.008 1495.38C576.024 1497.36 573.512 1499.12 570.472 1500.66C570.056 1499.86 569.448 1498.99 568.648 1498.06C567.88 1497.14 567.128 1496.37 566.392 1495.76C569.176 1494.48 571.448 1492.99 573.208 1491.3C575 1489.57 576.408 1487.71 577.432 1485.73C578.456 1483.71 579.208 1481.62 579.688 1479.44C580.2 1477.26 580.536 1475.06 580.696 1472.82C580.888 1470.58 581.032 1468.37 581.128 1466.19ZM585.736 1455.01H591.736V1465.09H585.736V1455.01Z" fill="black"/>
<path d="M545.368 1463.12C545.048 1465.55 544.632 1468.14 544.12 1470.89C543.608 1473.65 542.92 1476.43 542.056 1479.25C541.128 1482.48 540.04 1485.26 538.792 1487.6C537.544 1489.93 536.168 1491.74 534.664 1493.02C533.192 1494.27 531.576 1494.89 529.816 1494.89C528.056 1494.89 526.424 1494.3 524.92 1493.12C523.448 1491.9 522.264 1490.24 521.368 1488.13C520.504 1486.01 520.072 1483.61 520.072 1480.93C520.072 1478.14 520.632 1475.52 521.752 1473.05C522.872 1470.59 524.424 1468.41 526.408 1466.53C528.424 1464.61 530.76 1463.1 533.416 1462.01C536.104 1460.93 539 1460.38 542.104 1460.38C545.08 1460.38 547.752 1460.86 550.12 1461.82C552.52 1462.78 554.568 1464.11 556.264 1465.81C557.96 1467.5 559.256 1469.49 560.152 1471.76C561.048 1474.03 561.496 1476.48 561.496 1479.1C561.496 1482.46 560.808 1485.47 559.432 1488.13C558.056 1490.78 556.008 1492.97 553.288 1494.7C550.6 1496.43 547.24 1497.61 543.208 1498.25L539.608 1492.54C540.536 1492.45 541.352 1492.33 542.056 1492.21C542.76 1492.08 543.432 1491.93 544.072 1491.77C545.608 1491.39 547.032 1490.85 548.344 1490.14C549.688 1489.41 550.856 1488.51 551.848 1487.45C552.84 1486.37 553.608 1485.1 554.152 1483.66C554.728 1482.22 555.016 1480.64 555.016 1478.91C555.016 1477.02 554.728 1475.29 554.152 1473.73C553.576 1472.16 552.728 1470.8 551.608 1469.65C550.488 1468.46 549.128 1467.57 547.528 1466.96C545.928 1466.32 544.088 1466 542.008 1466C539.448 1466 537.192 1466.46 535.24 1467.39C533.288 1468.29 531.64 1469.45 530.296 1470.89C528.952 1472.33 527.928 1473.89 527.224 1475.55C526.552 1477.21 526.216 1478.8 526.216 1480.3C526.216 1481.9 526.408 1483.25 526.792 1484.33C527.176 1485.39 527.64 1486.19 528.184 1486.73C528.76 1487.25 529.368 1487.5 530.008 1487.5C530.68 1487.5 531.336 1487.17 531.976 1486.49C532.648 1485.79 533.304 1484.73 533.944 1483.33C534.584 1481.92 535.224 1480.14 535.864 1478C536.6 1475.69 537.224 1473.23 537.736 1470.61C538.248 1467.98 538.616 1465.42 538.84 1462.93L545.368 1463.12Z" fill="black"/>
<path d="M502.216 1465.91L508.36 1467.73C506.344 1473.49 503.736 1478.48 500.536 1482.71C497.336 1486.93 493.528 1490.5 489.112 1493.41C484.728 1496.29 479.656 1498.64 473.896 1500.47C473.704 1499.96 473.384 1499.35 472.936 1498.64C472.488 1497.94 472.024 1497.24 471.544 1496.53C471.096 1495.86 470.664 1495.3 470.248 1494.85C475.784 1493.38 480.632 1491.38 484.792 1488.85C488.952 1486.32 492.472 1483.19 495.352 1479.44C498.232 1475.67 500.52 1471.16 502.216 1465.91ZM483.64 1466.29C485.272 1471.06 487.528 1475.33 490.408 1479.11C493.288 1482.88 496.84 1486.08 501.064 1488.71C505.32 1491.33 510.28 1493.28 515.944 1494.56C515.496 1495.01 515 1495.59 514.456 1496.29C513.944 1497 513.448 1497.7 512.968 1498.4C512.488 1499.14 512.104 1499.78 511.816 1500.32C505.832 1498.79 500.68 1496.55 496.36 1493.6C492.04 1490.63 488.376 1487.01 485.368 1482.76C482.392 1478.5 479.896 1473.59 477.88 1468.02L483.64 1466.29ZM471.112 1462.84H515.08V1468.45H471.112V1462.84ZM490.024 1455.2H495.928V1466.24H490.024V1455.2Z" fill="black"/>
<path d="M443.08 1459.57L446.824 1455.1C448.136 1455.71 449.512 1456.43 450.952 1457.26C452.424 1458.09 453.8 1458.94 455.08 1459.81C456.392 1460.67 457.464 1461.5 458.296 1462.3L454.12 1467.29C453.384 1466.46 452.392 1465.58 451.144 1464.65C449.928 1463.73 448.6 1462.81 447.16 1461.92C445.752 1461.02 444.392 1460.24 443.08 1459.57ZM439.864 1479.05H464.824V1484.53H439.864V1479.05ZM436.456 1493.26H467.608V1498.73H436.456V1493.26ZM438.184 1465.66H466.6V1471.13H438.184V1465.66ZM449.128 1467.49H455.128V1495.71H449.128V1467.49ZM425.512 1459.66L428.632 1455.44C429.688 1455.79 430.792 1456.25 431.944 1456.83C433.096 1457.37 434.2 1457.97 435.256 1458.61C436.312 1459.21 437.176 1459.81 437.848 1460.38L434.44 1465.09C433.832 1464.48 433.016 1463.85 431.992 1463.21C431 1462.54 429.928 1461.9 428.776 1461.29C427.656 1460.65 426.568 1460.11 425.512 1459.66ZM422.296 1472.77L425.272 1468.4C426.328 1468.75 427.448 1469.18 428.632 1469.69C429.816 1470.17 430.936 1470.72 431.992 1471.33C433.08 1471.9 433.976 1472.45 434.68 1472.96L431.464 1477.81C430.856 1477.23 430.024 1476.64 428.968 1476.03C427.912 1475.42 426.808 1474.83 425.656 1474.25C424.504 1473.65 423.384 1473.15 422.296 1472.77ZM424.36 1495.85C425.224 1494.64 426.184 1493.21 427.24 1491.58C428.296 1489.92 429.368 1488.16 430.456 1486.3C431.544 1484.41 432.552 1482.54 433.48 1480.69L437.704 1484.53C436.872 1486.19 435.976 1487.9 435.016 1489.66C434.088 1491.42 433.128 1493.15 432.136 1494.85C431.176 1496.54 430.216 1498.17 429.256 1499.74L424.36 1495.85Z" fill="black"/>
<path d="M382.408 1461.58C384.168 1461.8 386.152 1461.96 388.36 1462.06C390.568 1462.16 392.936 1462.2 395.464 1462.2C397.064 1462.2 398.696 1462.17 400.36 1462.11C402.024 1462.04 403.64 1461.96 405.208 1461.87C406.776 1461.74 408.168 1461.63 409.384 1461.53V1467.92C408.264 1467.98 406.904 1468.06 405.304 1468.16C403.736 1468.25 402.088 1468.33 400.36 1468.4C398.664 1468.46 397.048 1468.49 395.512 1468.49C393.016 1468.49 390.696 1468.44 388.552 1468.35C386.408 1468.22 384.36 1468.09 382.408 1467.96V1461.58ZM386.44 1481.93C386.216 1482.76 386.024 1483.58 385.864 1484.38C385.704 1485.18 385.624 1485.98 385.624 1486.78C385.624 1488.35 386.392 1489.63 387.928 1490.62C389.496 1491.58 392.008 1492.06 395.464 1492.06C397.64 1492.06 399.736 1491.98 401.752 1491.82C403.8 1491.66 405.72 1491.45 407.512 1491.2C409.304 1490.91 410.904 1490.57 412.312 1490.19L412.36 1496.91C410.984 1497.23 409.416 1497.52 407.656 1497.77C405.928 1498.03 404.056 1498.22 402.04 1498.35C400.056 1498.51 397.944 1498.59 395.704 1498.59C392.024 1498.59 388.968 1498.17 386.536 1497.34C384.104 1496.54 382.264 1495.39 381.016 1493.88C379.8 1492.35 379.192 1490.48 379.192 1488.27C379.192 1486.89 379.304 1485.63 379.528 1484.48C379.752 1483.29 379.944 1482.25 380.104 1481.36L386.44 1481.93ZM410.632 1456.64C411.048 1457.21 411.48 1457.9 411.928 1458.7C412.408 1459.5 412.872 1460.3 413.32 1461.1C413.768 1461.9 414.152 1462.6 414.472 1463.21L410.584 1464.89C410.104 1463.9 409.512 1462.76 408.808 1461.48C408.136 1460.2 407.48 1459.1 406.84 1458.17L410.632 1456.64ZM416.344 1454.48C416.76 1455.08 417.208 1455.79 417.688 1456.59C418.168 1457.39 418.632 1458.19 419.08 1458.99C419.56 1459.76 419.944 1460.43 420.232 1461L416.392 1462.64C415.88 1461.64 415.272 1460.52 414.568 1459.28C413.864 1458 413.176 1456.91 412.504 1456.01L416.344 1454.48Z" fill="black"/>
<path d="M348.328 1457.5C348.168 1458.37 347.912 1459.49 347.56 1460.86C347.208 1462.24 346.696 1463.79 346.024 1465.52C345.512 1466.7 344.92 1467.94 344.248 1469.22C343.608 1470.46 342.952 1471.58 342.28 1472.58C342.696 1472.38 343.224 1472.22 343.864 1472.1C344.504 1471.94 345.16 1471.82 345.832 1471.76C346.536 1471.66 347.16 1471.62 347.704 1471.62C349.72 1471.62 351.384 1472.19 352.696 1473.34C354.04 1474.5 354.712 1476.21 354.712 1478.48C354.712 1479.12 354.712 1479.9 354.712 1480.83C354.744 1481.76 354.776 1482.74 354.808 1483.76C354.84 1484.75 354.872 1485.73 354.904 1486.69C354.936 1487.65 354.952 1488.51 354.952 1489.28H349.192C349.256 1488.74 349.288 1488.1 349.288 1487.36C349.32 1486.59 349.336 1485.79 349.336 1484.96C349.368 1484.13 349.384 1483.33 349.384 1482.56C349.416 1481.76 349.432 1481.04 349.432 1480.4C349.432 1478.86 349.016 1477.81 348.184 1477.23C347.384 1476.62 346.488 1476.32 345.496 1476.32C344.152 1476.32 342.792 1476.66 341.416 1477.33C340.072 1477.97 338.936 1478.74 338.008 1479.63C337.304 1480.34 336.584 1481.12 335.848 1481.98C335.144 1482.85 334.376 1483.82 333.544 1484.91L328.408 1481.07C330.488 1479.15 332.28 1477.3 333.784 1475.5C335.32 1473.71 336.616 1471.94 337.672 1470.18C338.728 1468.42 339.592 1466.66 340.264 1464.9C340.744 1463.62 341.128 1462.29 341.416 1460.91C341.736 1459.5 341.928 1458.19 341.992 1456.98L348.328 1457.5ZM330.28 1461.92C331.496 1462.11 332.904 1462.26 334.504 1462.35C336.104 1462.45 337.512 1462.5 338.728 1462.5C340.84 1462.5 343.144 1462.45 345.64 1462.35C348.168 1462.26 350.728 1462.1 353.32 1461.87C355.912 1461.62 358.376 1461.3 360.712 1460.91L360.664 1466.48C358.968 1466.7 357.128 1466.91 355.144 1467.1C353.192 1467.26 351.192 1467.41 349.144 1467.54C347.128 1467.63 345.192 1467.71 343.336 1467.78C341.48 1467.81 339.832 1467.82 338.392 1467.82C337.752 1467.82 336.952 1467.82 335.992 1467.82C335.064 1467.79 334.104 1467.76 333.112 1467.73C332.12 1467.66 331.176 1467.6 330.28 1467.54V1461.92ZM368.296 1475.55C367.784 1475.71 367.176 1475.92 366.472 1476.18C365.8 1476.4 365.112 1476.64 364.408 1476.9C363.736 1477.12 363.128 1477.34 362.584 1477.57C361.048 1478.18 359.224 1478.91 357.112 1479.78C355.032 1480.64 352.856 1481.65 350.584 1482.8C349.144 1483.57 347.928 1484.32 346.936 1485.06C345.944 1485.79 345.192 1486.54 344.68 1487.31C344.168 1488.05 343.912 1488.86 343.912 1489.76C343.912 1490.43 344.056 1490.99 344.344 1491.44C344.632 1491.86 345.064 1492.19 345.64 1492.45C346.216 1492.7 346.936 1492.88 347.8 1492.98C348.664 1493.07 349.688 1493.12 350.872 1493.12C352.92 1493.12 355.176 1493.01 357.64 1492.78C360.104 1492.53 362.392 1492.19 364.504 1491.78L364.312 1497.97C363.288 1498.1 361.992 1498.22 360.424 1498.35C358.856 1498.51 357.224 1498.62 355.528 1498.69C353.864 1498.75 352.264 1498.78 350.728 1498.78C348.232 1498.78 345.992 1498.54 344.008 1498.06C342.024 1497.58 340.456 1496.77 339.304 1495.62C338.184 1494.43 337.624 1492.82 337.624 1490.77C337.624 1489.1 337.992 1487.6 338.728 1486.26C339.496 1484.91 340.504 1483.7 341.752 1482.61C343 1481.52 344.36 1480.54 345.832 1479.68C347.336 1478.78 348.808 1477.97 350.248 1477.23C351.72 1476.46 353.048 1475.81 354.232 1475.26C355.416 1474.72 356.52 1474.24 357.544 1473.82C358.6 1473.38 359.608 1472.93 360.568 1472.48C361.496 1472.06 362.392 1471.66 363.256 1471.28C364.12 1470.86 365 1470.43 365.896 1469.98L368.296 1475.55Z" fill="black"/>
<path d="M309.736 1460.29C310.184 1460.93 310.68 1461.68 311.224 1462.54C311.768 1463.41 312.28 1464.27 312.76 1465.14C313.272 1466 313.72 1466.8 314.104 1467.54L309.928 1469.41C309.48 1468.38 309.032 1467.47 308.584 1466.67C308.168 1465.87 307.736 1465.1 307.288 1464.37C306.84 1463.6 306.312 1462.8 305.704 1461.97L309.736 1460.29ZM316.024 1457.65C316.504 1458.29 317.016 1459.02 317.56 1459.86C318.136 1460.69 318.68 1461.54 319.192 1462.4C319.736 1463.23 320.184 1464.02 320.536 1464.75L316.504 1466.72C315.992 1465.7 315.496 1464.8 315.016 1464.03C314.568 1463.23 314.104 1462.48 313.624 1461.78C313.176 1461.04 312.648 1460.29 312.04 1459.52L316.024 1457.65ZM290.584 1492.11C290.584 1491.47 290.584 1490.46 290.584 1489.09C290.584 1487.68 290.584 1486.06 290.584 1484.24C290.584 1482.38 290.584 1480.46 290.584 1478.48C290.584 1476.46 290.584 1474.53 290.584 1472.67C290.584 1470.78 290.584 1469.12 290.584 1467.68C290.584 1466.24 290.584 1465.18 290.584 1464.51C290.584 1463.65 290.536 1462.67 290.44 1461.58C290.376 1460.5 290.264 1459.54 290.104 1458.7H297.592C297.496 1459.54 297.4 1460.46 297.304 1461.49C297.208 1462.51 297.16 1463.52 297.16 1464.51C297.16 1465.38 297.16 1466.58 297.16 1468.11C297.16 1469.65 297.16 1471.36 297.16 1473.25C297.16 1475.1 297.16 1477.01 297.16 1478.96C297.16 1480.91 297.16 1482.78 297.16 1484.58C297.16 1486.34 297.16 1487.89 297.16 1489.23C297.16 1490.54 297.16 1491.5 297.16 1492.11C297.16 1492.53 297.176 1493.15 297.208 1493.98C297.272 1494.78 297.336 1495.62 297.4 1496.48C297.496 1497.34 297.576 1498.11 297.64 1498.78H290.104C290.264 1497.86 290.376 1496.75 290.44 1495.47C290.536 1494.16 290.584 1493.04 290.584 1492.11ZM295.768 1471.14C297.368 1471.55 299.144 1472.1 301.096 1472.77C303.08 1473.41 305.08 1474.11 307.096 1474.88C309.112 1475.62 311.016 1476.35 312.808 1477.09C314.6 1477.79 316.072 1478.43 317.224 1479.01L314.536 1485.68C313.16 1484.94 311.656 1484.22 310.024 1483.52C308.392 1482.82 306.728 1482.13 305.032 1481.46C303.368 1480.75 301.736 1480.11 300.136 1479.54C298.536 1478.96 297.08 1478.46 295.768 1478.05V1471.14Z" fill="black"/>
<path d="M233.416 1473.77C233.992 1473.81 234.728 1473.85 235.624 1473.92C236.52 1473.95 237.448 1473.98 238.408 1474.01C239.4 1474.05 240.312 1474.06 241.144 1474.06C241.944 1474.06 242.936 1474.06 244.12 1474.06C245.304 1474.06 246.584 1474.06 247.96 1474.06C249.368 1474.06 250.808 1474.06 252.28 1474.06C253.784 1474.06 255.272 1474.06 256.744 1474.06C258.216 1474.06 259.608 1474.06 260.92 1474.06C262.232 1474.06 263.4 1474.06 264.424 1474.06C265.48 1474.06 266.312 1474.06 266.92 1474.06C268.04 1474.06 269.096 1474.03 270.088 1473.97C271.08 1473.87 271.896 1473.81 272.536 1473.77V1481.31C271.992 1481.28 271.176 1481.23 270.088 1481.17C269 1481.1 267.944 1481.07 266.92 1481.07C266.312 1481.07 265.48 1481.07 264.424 1481.07C263.368 1481.07 262.184 1481.07 260.872 1481.07C259.56 1481.07 258.168 1481.07 256.696 1481.07C255.256 1481.07 253.784 1481.07 252.28 1481.07C250.776 1481.07 249.32 1481.07 247.912 1481.07C246.536 1481.07 245.256 1481.07 244.072 1481.07C242.92 1481.07 241.944 1481.07 241.144 1481.07C239.768 1481.07 238.36 1481.1 236.92 1481.17C235.48 1481.2 234.312 1481.25 233.416 1481.31V1473.77Z" fill="black"/>
<path d="M223.672 1464.03C223.448 1464.48 223.24 1465.02 223.048 1465.66C222.888 1466.27 222.744 1466.85 222.616 1467.39C222.36 1468.54 222.024 1469.86 221.608 1471.33C221.192 1472.8 220.696 1474.32 220.12 1475.89C219.544 1477.46 218.856 1479.01 218.056 1480.54C217.288 1482.08 216.408 1483.52 215.416 1484.86C213.976 1486.75 212.296 1488.54 210.376 1490.24C208.456 1491.9 206.312 1493.41 203.944 1494.75C201.576 1496.06 198.968 1497.18 196.12 1498.11L190.888 1492.4C194.056 1491.63 196.792 1490.69 199.096 1489.57C201.432 1488.42 203.464 1487.14 205.192 1485.73C206.92 1484.29 208.424 1482.75 209.704 1481.12C210.76 1479.78 211.656 1478.32 212.392 1476.75C213.16 1475.18 213.784 1473.6 214.264 1472C214.776 1470.4 215.128 1468.93 215.32 1467.58C214.84 1467.58 214.04 1467.58 212.92 1467.58C211.832 1467.58 210.536 1467.58 209.032 1467.58C207.56 1467.58 206.008 1467.58 204.376 1467.58C202.776 1467.58 201.224 1467.58 199.72 1467.58C198.216 1467.58 196.856 1467.58 195.64 1467.58C194.456 1467.58 193.56 1467.58 192.952 1467.58C191.864 1467.58 190.792 1467.6 189.736 1467.63C188.712 1467.66 187.88 1467.71 187.24 1467.78V1461.01C187.752 1461.04 188.344 1461.09 189.016 1461.15C189.688 1461.22 190.392 1461.28 191.128 1461.34C191.864 1461.38 192.488 1461.39 193 1461.39C193.48 1461.39 194.2 1461.39 195.16 1461.39C196.12 1461.39 197.224 1461.39 198.472 1461.39C199.72 1461.39 201.016 1461.39 202.36 1461.39C203.736 1461.39 205.096 1461.39 206.44 1461.39C207.784 1461.39 209.048 1461.39 210.232 1461.39C211.416 1461.39 212.44 1461.39 213.304 1461.39C214.2 1461.39 214.824 1461.39 215.176 1461.39C215.656 1461.39 216.248 1461.38 216.952 1461.34C217.656 1461.28 218.312 1461.17 218.92 1461.01L223.672 1464.03Z" fill="black"/>
<path d="M824.594 1268.2C825.02 1268.2 825.446 1268.55 825.446 1269.12V1325.21C825.446 1325.71 825.02 1326.06 824.594 1326.06H821.825C821.683 1326.06 821.328 1326.06 821.115 1325.78L786.68 1282.4V1324.07C786.68 1324.64 786.325 1325 785.828 1325H780.006C779.58 1325 779.225 1324.64 779.225 1324.07V1267.98C779.225 1267.49 779.509 1267.13 780.006 1267.13H782.775C783.059 1267.13 783.414 1267.13 783.627 1267.42L817.991 1310.66V1269.12C817.991 1268.55 818.346 1268.2 818.843 1268.2H824.594Z" fill="black"/>
<path d="M768.392 1323.65C768.818 1324.36 768.463 1325 767.753 1325H760.937C760.653 1325 760.369 1324.86 760.227 1324.65L747.518 1301.29V1324.15C747.518 1324.65 747.092 1325 746.666 1325H740.915C740.489 1325 740.063 1324.65 740.063 1324.15V1269.06C740.063 1268.56 740.489 1268.2 740.915 1268.2H747.873C760.582 1268.2 767.896 1274.17 767.896 1284.46C767.896 1292.84 763.138 1298.59 755.399 1300.58L768.392 1323.65ZM747.518 1293.98H748.938C753.624 1293.98 760.582 1292.63 760.511 1284.6C760.44 1277.01 754.476 1275.37 747.944 1275.37H747.518V1293.98Z" fill="black"/>
<path d="M698.856 1325C698.359 1325 698.004 1324.65 698.004 1324.22V1269.2C698.004 1268.7 698.359 1268.2 698.856 1268.2H724.984C725.481 1268.2 725.836 1268.63 725.836 1269.2V1274.59C725.836 1275.09 725.481 1275.45 724.984 1275.45H705.459V1292.98H724.274C724.842 1292.98 725.197 1293.41 725.197 1293.98V1299.3C725.197 1299.87 724.842 1300.22 724.274 1300.22H705.459V1317.76H724.984C725.481 1317.76 725.836 1318.05 725.836 1318.54V1324.22C725.836 1324.65 725.481 1325 724.984 1325H698.856Z" fill="black"/>
<path d="M687.354 1274.59C687.354 1275.09 686.999 1275.45 686.502 1275.45H673.935V1324.15C673.935 1324.65 673.58 1325 673.083 1325H667.332C666.835 1325 666.48 1324.65 666.48 1324.15V1275.45H653.913C653.416 1275.45 653.061 1275.09 653.061 1274.59V1269.06C653.061 1268.56 653.416 1268.2 653.913 1268.2H686.502C686.999 1268.2 687.354 1268.56 687.354 1269.06V1274.59Z" fill="black"/>
<path d="M643.349 1268.2C643.775 1268.2 644.201 1268.55 644.201 1269.12V1325.21C644.201 1325.71 643.775 1326.06 643.349 1326.06H640.58C640.438 1326.06 640.083 1326.06 639.87 1325.78L605.435 1282.4V1324.07C605.435 1324.64 605.08 1325 604.583 1325H598.761C598.335 1325 597.98 1324.64 597.98 1324.07V1267.98C597.98 1267.49 598.264 1267.13 598.761 1267.13H601.53C601.814 1267.13 602.169 1267.13 602.382 1267.42L636.746 1310.66V1269.12C636.746 1268.55 637.101 1268.2 637.598 1268.2H643.349Z" fill="black"/>
<path d="M568.629 1292.98L563.73 1280.84L558.831 1292.98H568.629ZM538.312 1323.86L561.529 1267.7C561.671 1267.42 561.955 1267.13 562.31 1267.13H565.434C565.789 1267.13 566.002 1267.42 566.144 1267.7L589.006 1323.86C589.29 1324.5 588.722 1325 588.225 1325H581.977C581.693 1325 581.338 1324.78 581.196 1324.5L571.54 1300.22H555.92L546.122 1324.5C545.98 1324.78 545.696 1325 545.341 1325H539.093C538.525 1325 538.099 1324.43 538.312 1323.86Z" fill="black"/>
<path d="M530.317 1317.76C530.814 1317.76 531.169 1318.19 531.169 1318.61V1324.22C531.169 1324.65 530.814 1325 530.317 1325H504.189C503.692 1325 503.337 1324.65 503.337 1324.22V1269.13C503.337 1268.63 503.692 1268.2 504.189 1268.2H509.798C510.295 1268.2 510.721 1268.63 510.721 1269.13V1317.76H530.317Z" fill="black"/>
<path d="M470.522 1268.42C470.664 1268.27 470.948 1268.2 471.161 1268.2H479.255C480.178 1268.2 480.604 1268.98 479.965 1269.62L451.352 1296.6L479.823 1323.51C480.32 1324.01 480.178 1325 479.255 1325H471.161C470.948 1325 470.664 1324.93 470.522 1324.79L449.222 1304.27V1324.15C449.222 1324.58 448.867 1325 448.37 1325H442.548C442.122 1325 441.767 1324.58 441.767 1324.15V1269.2C441.767 1268.7 442.122 1268.2 442.548 1268.2H448.37C448.867 1268.2 449.222 1268.7 449.222 1269.2V1289.01L470.522 1268.42Z" fill="black"/>
<path d="M415.76 1326.06C404.968 1326.06 399.146 1319.18 396.732 1312.71L396.519 1312.15C396.377 1311.72 396.519 1311.29 396.945 1311.08L402.199 1308.81C402.767 1308.6 403.051 1308.67 403.335 1309.31L403.548 1309.8C405.749 1314.92 409.299 1318.61 415.76 1318.82C421.582 1319.03 425.416 1314.35 425.416 1310.09C425.416 1305.26 423.641 1302.92 419.594 1300.43C417.322 1299.08 410.648 1296.17 408.447 1294.89C403.193 1291.84 399.856 1288.93 399.856 1281.47C399.856 1273.24 407.027 1267.13 414.979 1267.13C421.653 1267.13 426.978 1270.04 430.457 1276.93L430.883 1277.78C431.025 1278.07 431.025 1278.56 430.599 1278.85L425.7 1281.62C425.345 1281.83 424.777 1281.69 424.564 1281.33L424.28 1280.84C422.008 1276.86 419.594 1274.3 414.979 1274.45C410.577 1274.59 407.595 1277.57 407.382 1281.55C407.169 1285.38 409.37 1286.94 413.062 1289C415.76 1290.49 421.298 1292.69 424.564 1294.82C430.457 1298.51 432.8 1303.2 432.871 1310.16C432.942 1318.47 426.197 1326.06 415.76 1326.06Z" fill="black"/>
<path d="M360.107 1274.52C348.108 1274.52 338.452 1284.31 338.452 1296.53C338.452 1308.6 348.037 1318.68 360.036 1318.68C372.035 1318.68 381.833 1308.6 381.833 1296.6C381.833 1284.39 372.106 1274.52 360.107 1274.52ZM330.926 1296.53C330.926 1280.2 343.777 1267.13 360.107 1267.13C376.437 1267.13 389.359 1280.27 389.359 1296.6C389.359 1312.93 376.366 1326.06 360.036 1326.06C343.706 1326.06 330.926 1312.86 330.926 1296.53Z" fill="black"/>
<path d="M310.104 1325C309.607 1325 309.252 1324.65 309.252 1324.15V1269.06C309.252 1268.56 309.607 1268.2 310.104 1268.2H315.855C316.352 1268.2 316.707 1268.56 316.707 1269.06V1324.15C316.707 1324.65 316.352 1325 315.855 1325H310.104Z" fill="black"/>
<path d="M285.325 1268.42C285.467 1268.27 285.751 1268.2 285.964 1268.2H294.058C294.981 1268.2 295.407 1268.98 294.768 1269.62L266.155 1296.6L294.626 1323.51C295.123 1324.01 294.981 1325 294.058 1325H285.964C285.751 1325 285.467 1324.93 285.325 1324.79L264.025 1304.27V1324.15C264.025 1324.58 263.67 1325 263.173 1325H257.351C256.925 1325 256.57 1324.58 256.57 1324.15V1269.2C256.57 1268.7 256.925 1268.2 257.351 1268.2H263.173C263.67 1268.2 264.025 1268.7 264.025 1269.2V1289.01L285.325 1268.42Z" fill="black"/>
<path d="M730.421 1156.93C731.036 1157.83 731.699 1158.89 732.409 1160.13C733.166 1161.31 733.876 1162.49 734.539 1163.68C735.202 1164.86 735.722 1165.85 736.101 1166.66L730.35 1169.07C729.64 1167.65 728.764 1166.02 727.723 1164.17C726.729 1162.33 725.759 1160.69 724.812 1159.27L730.421 1156.93ZM739.367 1154.45C740.03 1155.34 740.716 1156.39 741.426 1157.57C742.136 1158.75 742.822 1159.94 743.485 1161.12C744.195 1162.26 744.739 1163.25 745.118 1164.1L739.509 1166.52C738.752 1165.05 737.852 1163.39 736.811 1161.55C735.77 1159.7 734.752 1158.11 733.758 1156.79L739.367 1154.45ZM733.687 1169.57C733.403 1169.99 732.977 1170.66 732.409 1171.56C731.888 1172.46 731.486 1173.28 731.202 1174.04C730.208 1176.27 728.977 1178.75 727.51 1181.5C726.09 1184.24 724.457 1187.01 722.611 1189.8C720.812 1192.6 718.895 1195.18 716.86 1197.54C714.209 1200.57 711.275 1203.53 708.056 1206.42C704.885 1209.3 701.524 1211.98 697.974 1214.44C694.471 1216.85 690.874 1218.94 687.182 1220.69L679.869 1213.02C683.703 1211.55 687.419 1209.71 691.016 1207.48C694.613 1205.26 697.95 1202.84 701.027 1200.24C704.104 1197.64 706.754 1195.1 708.979 1192.64C710.541 1190.89 712.008 1189 713.381 1186.96C714.801 1184.88 716.055 1182.85 717.144 1180.86C718.233 1178.82 719.037 1176.98 719.558 1175.32C719.085 1175.32 718.233 1175.32 717.002 1175.32C715.771 1175.32 714.328 1175.32 712.671 1175.32C711.062 1175.32 709.358 1175.32 707.559 1175.32C705.76 1175.32 704.033 1175.32 702.376 1175.32C700.767 1175.32 699.347 1175.32 698.116 1175.32C696.885 1175.32 696.01 1175.32 695.489 1175.32C694.495 1175.32 693.454 1175.34 692.365 1175.39C691.276 1175.44 690.235 1175.51 689.241 1175.6C688.294 1175.7 687.561 1175.75 687.04 1175.75V1165.66C687.75 1165.71 688.626 1165.78 689.667 1165.88C690.708 1165.97 691.75 1166.04 692.791 1166.09C693.88 1166.14 694.779 1166.16 695.489 1166.16C696.104 1166.16 697.075 1166.16 698.4 1166.16C699.725 1166.16 701.24 1166.16 702.944 1166.16C704.648 1166.16 706.399 1166.16 708.198 1166.16C710.044 1166.16 711.795 1166.16 713.452 1166.16C715.156 1166.16 716.623 1166.16 717.854 1166.16C719.085 1166.16 719.984 1166.16 720.552 1166.16C722.114 1166.16 723.534 1166.09 724.812 1165.95C726.137 1165.76 727.155 1165.54 727.865 1165.31L733.687 1169.57ZM717.783 1191.65C719.629 1193.12 721.593 1194.82 723.676 1196.76C725.759 1198.7 727.818 1200.71 729.853 1202.8C731.888 1204.88 733.758 1206.89 735.462 1208.83C737.213 1210.72 738.681 1212.38 739.864 1213.8L731.77 1220.9C730.019 1218.44 728.007 1215.91 725.735 1213.3C723.51 1210.7 721.144 1208.12 718.635 1205.57C716.174 1202.96 713.665 1200.5 711.109 1198.18L717.783 1191.65Z" fill="black"/>
<path d="M640.606 1214.44C640.748 1213.73 640.867 1212.93 640.961 1212.03C641.103 1211.08 641.174 1210.13 641.174 1209.19C641.174 1208.67 641.174 1207.62 641.174 1206.06C641.174 1204.5 641.174 1202.61 641.174 1200.38C641.174 1198.16 641.174 1195.77 641.174 1193.21C641.174 1190.61 641.174 1187.98 641.174 1185.33C641.174 1182.68 641.174 1180.19 641.174 1177.88C641.174 1175.51 641.174 1173.45 641.174 1171.7C641.174 1169.9 641.174 1168.6 641.174 1167.79C641.174 1166.18 641.08 1164.79 640.89 1163.6C640.748 1162.42 640.654 1161.78 640.606 1161.69H651.185C651.138 1161.78 651.043 1162.44 650.901 1163.68C650.759 1164.86 650.688 1166.26 650.688 1167.86C650.688 1168.67 650.688 1169.88 650.688 1171.49C650.688 1173.05 650.688 1174.87 650.688 1176.95C650.688 1178.99 650.688 1181.17 650.688 1183.48C650.688 1185.8 650.688 1188.1 650.688 1190.37C650.688 1192.6 650.688 1194.73 650.688 1196.76C650.688 1198.75 650.688 1200.45 650.688 1201.87C650.688 1203.29 650.688 1204.33 650.688 1205C652.629 1204.15 654.641 1202.99 656.723 1201.52C658.806 1200.05 660.841 1198.35 662.829 1196.41C664.865 1194.42 666.663 1192.29 668.225 1190.02L673.692 1197.83C671.752 1200.38 669.385 1202.89 666.592 1205.35C663.847 1207.81 661.007 1210.06 658.072 1212.1C655.138 1214.13 652.321 1215.84 649.623 1217.21C648.866 1217.64 648.251 1218.01 647.777 1218.35C647.304 1218.72 646.902 1219.06 646.57 1219.34L640.606 1214.44ZM607.733 1213.38C610.857 1211.2 613.413 1208.57 615.401 1205.49C617.389 1202.42 618.857 1199.39 619.803 1196.41C620.324 1194.84 620.703 1192.93 620.939 1190.66C621.223 1188.34 621.436 1185.87 621.578 1183.27C621.72 1180.62 621.791 1178.02 621.791 1175.46C621.839 1172.86 621.862 1170.47 621.862 1168.29C621.862 1166.87 621.791 1165.66 621.649 1164.67C621.555 1163.63 621.413 1162.66 621.223 1161.76H631.66C631.613 1161.85 631.542 1162.26 631.447 1162.97C631.4 1163.63 631.329 1164.43 631.234 1165.38C631.187 1166.28 631.163 1167.23 631.163 1168.22C631.163 1170.3 631.14 1172.74 631.092 1175.53C631.045 1178.28 630.95 1181.09 630.808 1183.98C630.666 1186.87 630.453 1189.61 630.169 1192.22C629.885 1194.77 629.507 1196.95 629.033 1198.75C627.945 1202.77 626.312 1206.51 624.134 1209.97C622.004 1213.38 619.425 1216.43 616.395 1219.13L607.733 1213.38Z" fill="black"/>
<path d="M558.459 1160.05C558.27 1161.14 558.128 1162.4 558.033 1163.82C557.986 1165.24 557.962 1166.44 557.962 1167.44C557.962 1168.15 557.962 1169.4 557.962 1171.2C557.962 1173 557.962 1175.11 557.962 1177.52C557.962 1179.89 557.962 1182.4 557.962 1185.05C557.962 1187.65 557.962 1190.18 557.962 1192.64C557.962 1195.06 557.962 1197.21 557.962 1199.1C557.962 1201 557.962 1202.39 557.962 1203.29C557.962 1204.81 558.317 1205.85 559.027 1206.42C559.784 1206.99 560.968 1207.44 562.577 1207.77C563.618 1207.91 564.849 1208.03 566.269 1208.12C567.689 1208.17 569.18 1208.19 570.742 1208.19C572.588 1208.19 574.623 1208.15 576.848 1208.05C579.12 1207.91 581.392 1207.74 583.664 1207.55C585.983 1207.36 588.161 1207.1 590.196 1206.77C592.279 1206.44 594.054 1206.09 595.521 1205.71V1216.14C593.296 1216.43 590.693 1216.67 587.711 1216.85C584.776 1217.09 581.771 1217.26 578.694 1217.35C575.665 1217.49 572.825 1217.56 570.174 1217.56C567.902 1217.56 565.725 1217.49 563.642 1217.35C561.559 1217.21 559.761 1217.02 558.246 1216.78C555.169 1216.22 552.779 1215.06 551.075 1213.3C549.371 1211.55 548.519 1209.16 548.519 1206.13C548.519 1204.76 548.519 1202.99 548.519 1200.81C548.519 1198.58 548.519 1196.15 548.519 1193.5C548.519 1190.8 548.519 1188.1 548.519 1185.4C548.519 1182.66 548.519 1180.08 548.519 1177.66C548.519 1175.2 548.519 1173.07 548.519 1171.27C548.519 1169.47 548.519 1168.2 548.519 1167.44C548.519 1166.73 548.495 1165.92 548.448 1165.02C548.401 1164.13 548.33 1163.23 548.235 1162.33C548.141 1161.38 548.046 1160.62 547.951 1160.05H558.459ZM553.773 1181.85C556.045 1181.38 558.483 1180.79 561.086 1180.08C563.689 1179.37 566.293 1178.61 568.896 1177.8C571.547 1177 574.055 1176.17 576.422 1175.32C578.789 1174.47 580.895 1173.66 582.741 1172.91C584.019 1172.39 585.273 1171.82 586.504 1171.2C587.782 1170.59 589.107 1169.88 590.48 1169.07L594.314 1178.02C592.941 1178.59 591.498 1179.18 589.983 1179.79C588.516 1180.41 587.191 1180.95 586.007 1181.43C583.925 1182.23 581.534 1183.08 578.836 1183.98C576.138 1184.88 573.322 1185.78 570.387 1186.68C567.5 1187.53 564.612 1188.36 561.725 1189.16C558.885 1189.92 556.258 1190.58 553.844 1191.15L553.773 1181.85Z" fill="black"/>
<path d="M478.513 1211.25H517.634V1219.48H478.513V1211.25ZM474.679 1190.8H522.178V1222.25H513.019V1198.96H483.412V1222.32H474.679V1190.8ZM488.595 1155.16L498.322 1158.35C496.76 1161.24 495.08 1164.2 493.281 1167.23C491.53 1170.21 489.755 1173.05 487.956 1175.75C486.157 1178.4 484.453 1180.76 482.844 1182.85L475.176 1179.72C476.785 1177.54 478.418 1175.06 480.075 1172.27C481.732 1169.43 483.294 1166.52 484.761 1163.53C486.276 1160.55 487.554 1157.76 488.595 1155.16ZM505.635 1167.79L512.38 1162.82C514.747 1164.72 517.161 1166.85 519.622 1169.21C522.131 1171.53 524.426 1173.9 526.509 1176.31C528.639 1178.68 530.319 1180.88 531.55 1182.92L524.166 1188.6C523.03 1186.56 521.444 1184.34 519.409 1181.92C517.421 1179.46 515.22 1177 512.806 1174.54C510.392 1172.08 508.002 1169.83 505.635 1167.79ZM467.082 1175.82C470.679 1175.72 474.679 1175.6 479.081 1175.46C483.53 1175.27 488.193 1175.08 493.068 1174.89C497.991 1174.7 502.984 1174.52 508.049 1174.33C513.114 1174.14 518.084 1173.95 522.959 1173.76L522.604 1181.99C517.681 1182.28 512.711 1182.54 507.694 1182.78C502.677 1182.96 497.754 1183.18 492.926 1183.41C488.145 1183.6 483.601 1183.79 479.294 1183.98C474.987 1184.12 471.082 1184.27 467.579 1184.41L467.082 1175.82Z" fill="black"/>
<path d="M395.656 1165.8H459.272V1173.97H395.656V1165.8ZM426.825 1176.52H435.416V1222.32H426.825V1176.52ZM407.016 1184.69H450.965V1192.78H415.536V1216H407.016V1184.69ZM447.273 1184.69H455.864V1206.91C455.864 1208.85 455.603 1210.41 455.083 1211.6C454.609 1212.73 453.663 1213.61 452.243 1214.22C450.917 1214.84 449.261 1215.22 447.273 1215.36C445.332 1215.5 443.013 1215.57 440.315 1215.57C440.173 1214.39 439.841 1213.07 439.321 1211.6C438.8 1210.13 438.256 1208.88 437.688 1207.83C438.776 1207.88 439.865 1207.91 440.954 1207.91C442.09 1207.91 443.084 1207.91 443.936 1207.91C444.835 1207.91 445.45 1207.91 445.782 1207.91C446.35 1207.91 446.728 1207.83 446.918 1207.69C447.154 1207.5 447.273 1207.17 447.273 1206.7V1184.69ZM418.447 1155.51L427.251 1157.5C425.547 1163.32 423.369 1169.07 420.719 1174.75C418.115 1180.43 414.944 1185.73 411.205 1190.65C407.465 1195.53 403.063 1199.72 397.999 1203.22C397.667 1202.51 397.194 1201.71 396.579 1200.81C396.011 1199.86 395.419 1198.94 394.804 1198.04C394.188 1197.14 393.62 1196.38 393.1 1195.76C396.46 1193.59 399.49 1190.98 402.188 1187.95C404.933 1184.88 407.347 1181.54 409.43 1177.94C411.512 1174.35 413.311 1170.65 414.826 1166.87C416.34 1163.03 417.547 1159.25 418.447 1155.51Z" fill="black"/>
<path d="M337.72 1181H361.86V1188.17H337.72V1181ZM363.351 1181H388.84V1188.17H363.351V1181ZM346.666 1172.48H354.263V1222.25H346.666V1172.48ZM371.09 1172.48H378.758V1222.25H371.09V1172.48ZM345.885 1185.47L351.139 1186.89C350.381 1190.25 349.411 1193.61 348.228 1196.97C347.092 1200.33 345.79 1203.43 344.323 1206.27C342.855 1209.11 341.222 1211.5 339.424 1213.44C338.856 1212.54 338.027 1211.53 336.939 1210.39C335.897 1209.21 334.951 1208.28 334.099 1207.62C335.803 1206.01 337.412 1204.02 338.927 1201.66C340.441 1199.29 341.79 1196.71 342.974 1193.92C344.204 1191.08 345.175 1188.26 345.885 1185.47ZM370.735 1185.47L375.563 1186.89C374.758 1190.2 373.74 1193.54 372.51 1196.9C371.279 1200.21 369.906 1203.31 368.392 1206.2C366.924 1209.09 365.339 1211.53 363.635 1213.51C363.019 1212.66 362.191 1211.67 361.15 1210.53C360.108 1209.4 359.185 1208.52 358.381 1207.9C360.085 1206.3 361.718 1204.28 363.28 1201.87C364.842 1199.41 366.262 1196.76 367.54 1193.92C368.818 1191.08 369.883 1188.26 370.735 1185.47ZM379.965 1184.97C380.722 1187.67 381.669 1190.39 382.805 1193.14C383.988 1195.88 385.266 1198.46 386.639 1200.88C388.059 1203.29 389.479 1205.35 390.899 1207.05C390.047 1207.67 389.053 1208.54 387.917 1209.68C386.828 1210.82 385.952 1211.88 385.29 1212.87C383.917 1210.84 382.592 1208.38 381.314 1205.49C380.083 1202.56 378.947 1199.46 377.906 1196.19C376.864 1192.88 375.989 1189.63 375.279 1186.46L379.965 1184.97ZM353.198 1188.66C353.671 1189.04 354.381 1189.66 355.328 1190.51C356.274 1191.36 357.268 1192.28 358.31 1193.28C359.351 1194.27 360.298 1195.2 361.15 1196.05C362.049 1196.9 362.712 1197.49 363.138 1197.82L358.878 1204.64C358.31 1203.83 357.6 1202.89 356.748 1201.8C355.943 1200.71 355.044 1199.6 354.05 1198.46C353.103 1197.33 352.204 1196.26 351.352 1195.27C350.5 1194.27 349.79 1193.44 349.222 1192.78L353.198 1188.66ZM354.192 1155.65H363.067V1168.36H354.192V1155.65ZM332.679 1162.96H388.911V1171.06H332.679V1162.96ZM327.567 1162.96H336.087V1182.56C336.087 1185.4 335.992 1188.55 335.803 1192C335.661 1195.46 335.353 1198.98 334.88 1202.58C334.406 1206.18 333.72 1209.68 332.821 1213.09C331.969 1216.45 330.809 1219.5 329.342 1222.25C328.821 1221.73 328.111 1221.11 327.212 1220.4C326.312 1219.74 325.389 1219.08 324.443 1218.41C323.543 1217.8 322.762 1217.35 322.1 1217.06C323.378 1214.6 324.372 1211.9 325.082 1208.97C325.839 1206.03 326.383 1203.03 326.715 1199.95C327.093 1196.88 327.33 1193.85 327.425 1190.86C327.519 1187.88 327.567 1185.11 327.567 1182.56V1162.96Z" fill="black"/>
</svg>
