<svg width="966" height="1806" viewBox="0 0 966 1806" fill="none" xmlns="http://www.w3.org/2000/svg">
<path d="M963 926.72V38C963 18.67 947.33 3 928 3H38.58C18.93 3 3 18.93 3 38.58V926.71C3 927.03 3.25 927.28 3.57 927.28C23.03 927.59 38.71 943.46 38.71 962.99C38.71 982.52 23.03 998.39 3.57 998.7C3.25 998.7 3 998.96 3 999.27V1767.99C3 1787.32 18.67 1802.99 38 1802.99H928C947.33 1802.99 963 1787.32 963 1767.99V999.27C963 998.95 962.75 998.7 962.43 998.7C942.97 998.39 927.29 982.52 927.29 962.99C927.29 943.46 942.97 927.59 962.43 927.28C962.75 927.28 963 927.02 963 926.71V926.72Z" fill="white"/>
<path d="M3.57 998.71C3.25 998.71 3 998.97 3 999.28V1768C3 1787.33 18.67 1803 38 1803H928C947.33 1803 963 1787.33 963 1768V999.28C963 998.96 962.75 998.71 962.43 998.71C942.97 998.4 927.29 982.53 927.29 963H38.71C38.71 982.53 23.03 998.4 3.57 998.71Z" fill="#FFFAE0"/>
<path d="M64 963H103.9" stroke="black" stroke-width="6" stroke-miterlimit="10"/>
<path d="M130.51 963H170.41" stroke="black" stroke-width="6" stroke-miterlimit="10"/>
<path d="M197.02 963H236.92" stroke="black" stroke-width="6" stroke-miterlimit="10"/>
<path d="M263.52 963H303.43" stroke="black" stroke-width="6" stroke-miterlimit="10"/>
<path d="M330.03 963H369.94" stroke="black" stroke-width="6" stroke-miterlimit="10"/>
<path d="M396.54 963H436.44" stroke="black" stroke-width="6" stroke-miterlimit="10"/>
<path d="M463.05 963H502.95" stroke="black" stroke-width="6" stroke-miterlimit="10"/>
<path d="M529.56 963H569.46" stroke="black" stroke-width="6" stroke-miterlimit="10"/>
<path d="M596.06 963H635.97" stroke="black" stroke-width="6" stroke-miterlimit="10"/>
<path d="M662.57 963H702.48" stroke="black" stroke-width="6" stroke-miterlimit="10"/>
<path d="M729.08 963H768.98" stroke="black" stroke-width="6" stroke-miterlimit="10"/>
<path d="M795.59 963H835.49" stroke="black" stroke-width="6" stroke-miterlimit="10"/>
<path d="M862.1 963H902" stroke="black" stroke-width="6" stroke-miterlimit="10"/>
<path d="M133 1673L168.48 1620.39L180.26 1628.33L161.42 1656.26L239.05 1649.47L216.45 1614.67L180.5 1607.03L183.46 1593.14L225.15 1602L263.83 1661.55L133 1673Z" fill="#00875F"/>
<path d="M303.76 1615.9C303.88 1615.67 304.05 1615.44 304.4 1615.44H305.15C305.44 1615.44 305.61 1615.67 305.73 1615.9L324.38 1661.57C324.61 1662.09 324.21 1662.49 323.8 1662.49H320.16C319.81 1662.49 319.64 1662.32 319.53 1662.09L311.39 1641.71H297.94L289.74 1662.09C289.63 1662.32 289.45 1662.49 289.1 1662.49H285.52C285.06 1662.49 284.71 1662.03 284.89 1661.57L303.77 1615.9H303.76ZM304.68 1624.91L299.72 1637.09H309.65L304.69 1624.91H304.68Z" fill="black"/>
<path d="M335.45 1661.45L358.72 1620.86H336.03C335.57 1620.86 335.34 1620.57 335.34 1620.17V1617C335.34 1616.6 335.57 1616.31 336.03 1616.31H365.42C366.05 1616.31 366.34 1616.94 366 1617.58L342.91 1657.94H365.54C365.94 1657.94 366.23 1658.29 366.23 1658.69V1661.75C366.23 1662.15 365.94 1662.5 365.54 1662.5H336.15C335.52 1662.5 335.23 1661.92 335.46 1661.46" fill="black"/>
<path d="M396.36 1615.9C396.48 1615.67 396.65 1615.44 397 1615.44H397.75C398.04 1615.44 398.21 1615.67 398.33 1615.9L416.98 1661.57C417.21 1662.09 416.81 1662.49 416.4 1662.49H412.76C412.41 1662.49 412.24 1662.32 412.13 1662.09L403.99 1641.71H390.54L382.34 1662.09C382.23 1662.32 382.05 1662.49 381.7 1662.49H378.12C377.66 1662.49 377.31 1662.03 377.49 1661.57L396.37 1615.9H396.36ZM397.29 1624.91L392.33 1637.09H402.26L397.3 1624.91H397.29Z" fill="black"/>
<path d="M431.35 1617.23C431.35 1616.77 431.7 1616.31 432.22 1616.31H436.09C445.85 1616.31 451.97 1620.35 451.97 1628.49C451.97 1633.11 449.43 1637.04 445.97 1638.83C449.95 1639.99 453.59 1643.22 453.59 1649.45C453.59 1658.98 446.55 1662.5 436.1 1662.5H432.17C431.71 1662.5 431.36 1662.15 431.36 1661.69V1617.24L431.35 1617.23ZM436.89 1636.74C442.95 1636.74 447.17 1633.51 447.17 1628.48C447.17 1623.05 442.55 1620.92 436.89 1620.92H436.08V1636.74H436.89ZM448.79 1649.45C448.79 1643.1 442.96 1641.25 436.9 1641.25H436.09V1657.82H436.9C443.19 1657.82 448.79 1655.8 448.79 1649.45Z" fill="black"/>
<path d="M486.25 1663.36C475.91 1663.3 470.6 1656.03 470.6 1645.98V1617C470.6 1616.6 470.89 1616.31 471.23 1616.31H474.69C475.09 1616.31 475.32 1616.6 475.32 1617V1645.87C475.32 1653.43 478.61 1658.74 486.29 1658.74C493.97 1658.74 497.26 1653.43 497.26 1645.87V1617C497.26 1616.6 497.49 1616.31 497.89 1616.31H501.35C501.7 1616.31 501.99 1616.6 501.99 1617V1645.98C501.99 1656.14 496.5 1663.36 486.34 1663.36H486.23H486.25Z" fill="black"/>
<path d="M520.32 1617.12C520.32 1616.6 520.67 1616.31 521.01 1616.31H526.73C542.32 1616.31 553.06 1623.7 553.06 1639.4C553.06 1655.1 541.51 1662.49 525.75 1662.49H521.02C520.68 1662.49 520.33 1662.14 520.33 1661.8V1617.11L520.32 1617.12ZM548.32 1639.4C548.32 1626.47 539.89 1620.81 526.96 1620.81H525.05V1657.93H525.97C538.61 1657.93 548.31 1652.39 548.31 1639.4" fill="black"/>
<path d="M580.59 1615.9C580.71 1615.67 580.88 1615.44 581.23 1615.44H581.98C582.27 1615.44 582.44 1615.67 582.56 1615.9L601.21 1661.57C601.44 1662.09 601.04 1662.49 600.63 1662.49H596.99C596.64 1662.49 596.47 1662.32 596.36 1662.09L588.22 1641.71H574.77L566.57 1662.09C566.45 1662.32 566.28 1662.49 565.93 1662.49H562.35C561.89 1662.49 561.54 1662.03 561.72 1661.57L580.6 1615.9H580.59ZM581.51 1624.91L576.55 1637.09H586.48L581.52 1624.91H581.51Z" fill="black"/>
<path d="M615.92 1661.8V1617C615.92 1616.6 616.27 1616.31 616.61 1616.31H620.02C620.37 1616.31 620.71 1616.6 620.71 1617V1661.8C620.71 1662.2 620.36 1662.49 620.02 1662.49H616.61C616.26 1662.49 615.92 1662.2 615.92 1661.8Z" fill="black"/>
<path d="M667.13 1661.8V1617C667.13 1616.6 667.42 1616.31 667.82 1616.31H671.17C671.57 1616.31 671.86 1616.6 671.86 1617V1637.09H694.84V1617C694.84 1616.6 695.13 1616.31 695.53 1616.31H698.88C699.28 1616.31 699.57 1616.6 699.57 1617V1661.8C699.57 1662.2 699.28 1662.49 698.88 1662.49H695.53C695.13 1662.49 694.84 1662.2 694.84 1661.8V1641.71H671.86V1661.8C671.86 1662.2 671.57 1662.49 671.17 1662.49H667.82C667.42 1662.49 667.13 1662.2 667.13 1661.8Z" fill="black"/>
<path d="M718 1661.8V1617C718 1616.6 718.35 1616.31 718.69 1616.31H722.1C722.45 1616.31 722.79 1616.6 722.79 1617V1661.8C722.79 1662.2 722.44 1662.49 722.1 1662.49H718.69C718.34 1662.49 718 1662.2 718 1661.8Z" fill="black"/>
<path d="M763.43 1658.62V1661.85C763.43 1662.2 763.14 1662.49 762.74 1662.49H742.19C741.79 1662.49 741.5 1662.14 741.5 1661.85V1617.05C741.5 1616.65 741.73 1616.3 742.19 1616.3H745.54C746 1616.3 746.29 1616.65 746.29 1617.05V1657.92H762.74C763.14 1657.92 763.43 1658.27 763.43 1658.61" fill="black"/>
<path d="M795.76 1658.62V1661.85C795.76 1662.2 795.47 1662.49 795.07 1662.49H774.52C774.12 1662.49 773.83 1662.14 773.83 1661.85V1617.05C773.83 1616.65 774.06 1616.3 774.52 1616.3H777.87C778.33 1616.3 778.62 1616.65 778.62 1617.05V1657.92H795.07C795.47 1657.92 795.76 1658.27 795.76 1658.61" fill="black"/>
<path d="M804.36 1653.31L804.19 1652.85C804.08 1652.51 804.19 1652.16 804.54 1651.98L807.71 1650.6C808.17 1650.43 808.46 1650.49 808.63 1651L808.8 1651.4C810.47 1655.33 813.94 1658.73 819.48 1658.73C825.02 1658.73 828.2 1654.98 828.2 1650.36C828.2 1646.61 826.81 1644.36 823.23 1642.16C821.38 1641.06 815.84 1638.52 814.05 1637.54C810.24 1635.58 806.77 1632.69 806.77 1627.09C806.77 1620.28 812.37 1615.43 818.84 1615.43C824.61 1615.43 828.31 1618.43 830.85 1622.88L831.08 1623.28C831.25 1623.57 831.14 1624.03 830.79 1624.2L827.96 1625.82C827.61 1625.99 827.21 1625.88 827.04 1625.59L826.81 1625.19C824.85 1621.73 822.77 1620.11 818.84 1620.11C814.91 1620.11 811.56 1623.06 811.56 1627.15C811.56 1630.44 813.81 1632.23 816.76 1633.73C818.95 1634.82 823.57 1636.79 826.23 1638.52C831.02 1641.52 832.98 1645.22 832.98 1650.41C832.98 1658.26 826.86 1663.34 819.47 1663.34C811.27 1663.34 806.31 1658.55 804.34 1653.3" fill="black"/>
<path d="M187.61 1124.46V1062.46C187.61 1061.9 188.01 1061.34 188.57 1061.34H218.01C218.57 1061.34 218.97 1061.82 218.97 1062.46V1068.54C218.97 1069.1 218.57 1069.5 218.01 1069.5H196.01V1089.26H217.21C217.85 1089.26 218.25 1089.74 218.25 1090.38V1096.38C218.25 1097.02 217.85 1097.42 217.21 1097.42H196.01V1117.18H218.01C218.57 1117.18 218.97 1117.5 218.97 1118.06V1124.46C218.97 1124.94 218.57 1125.34 218.01 1125.34H188.57C188.01 1125.34 187.61 1124.94 187.61 1124.46Z" fill="black"/>
<path d="M265.29 1125.34H259.05C258.57 1125.34 258.09 1124.94 258.09 1124.38V1100.94C258.09 1095.42 256.01 1092.3 251.21 1092.3C245.61 1092.3 242.73 1097.5 242.73 1102.62V1124.38C242.73 1124.94 242.33 1125.34 241.77 1125.34H235.53C235.05 1125.34 234.57 1124.94 234.57 1124.38V1086.3C234.57 1085.82 235.05 1085.34 235.53 1085.34H241.77C242.33 1085.34 242.73 1085.82 242.73 1086.3V1089.02C244.81 1086.06 248.65 1084.14 252.41 1084.14C261.61 1084.14 266.25 1090.06 266.25 1099.9V1124.38C266.25 1124.94 265.85 1125.34 265.29 1125.34Z" fill="black"/>
<path d="M278.25 1140.54C278.25 1139.98 278.65 1139.58 279.21 1139.58C280.33 1139.58 281.21 1139.5 281.93 1138.54C283.21 1137.26 283.13 1134.22 283.13 1131.58V1086.38C283.13 1085.9 283.53 1085.34 284.09 1085.34H290.41C290.97 1085.34 291.29 1085.82 291.29 1086.38V1133.74C291.29 1141.18 288.57 1147.74 279.21 1147.74C278.65 1147.74 278.25 1147.34 278.25 1146.46V1140.54ZM282.17 1072.38C282.17 1069.42 284.41 1067.1 287.37 1067.1C290.33 1067.1 292.57 1069.42 292.57 1072.38C292.57 1075.18 290.25 1077.5 287.37 1077.5C284.49 1077.5 282.17 1075.18 282.17 1072.38Z" fill="black"/>
<path d="M326.33 1084.14C338.33 1084.14 347.53 1093.26 347.53 1105.26C347.53 1117.26 338.57 1126.54 326.33 1126.54C314.09 1126.54 305.37 1117.26 305.37 1105.18C305.37 1093.1 314.57 1084.14 326.33 1084.14ZM339.29 1105.18C339.29 1097.58 333.69 1091.98 326.33 1091.98C318.97 1091.98 313.61 1097.82 313.61 1105.18C313.61 1112.54 318.89 1118.54 326.33 1118.54C333.77 1118.54 339.29 1112.94 339.29 1105.18Z" fill="black"/>
<path d="M369.29 1146.54H362.41C361.61 1146.54 361.05 1145.9 361.37 1145.1L372.25 1120.54L357.29 1086.78C356.89 1086.06 357.37 1085.34 358.01 1085.34H365.05C365.37 1085.34 365.69 1085.5 365.85 1085.82L376.73 1111.26L387.61 1085.82C387.77 1085.5 388.09 1085.34 388.41 1085.34H395.45C396.09 1085.34 396.57 1085.82 396.17 1086.78L370.01 1146.06C369.85 1146.38 369.61 1146.54 369.29 1146.54Z" fill="black"/>
<path d="M450.73 1086.38V1092.3C450.73 1092.86 450.41 1093.34 449.85 1093.34H444.25V1124.3C444.25 1124.86 443.77 1125.34 443.21 1125.34H437.05C436.49 1125.34 436.09 1124.86 436.09 1124.3V1093.34H430.89C430.33 1093.34 429.93 1092.86 429.93 1092.3V1086.38C429.93 1085.82 430.33 1085.34 430.89 1085.34H436.97V1072.7C436.97 1072.22 437.37 1071.74 437.93 1071.74H443.21C443.77 1071.74 444.25 1072.22 444.25 1072.7V1085.34H449.85C450.41 1085.34 450.73 1085.82 450.73 1086.38Z" fill="black"/>
<path d="M465.13 1124.3V1062.22C465.13 1061.66 465.53 1061.34 466.09 1061.34H472.41C472.89 1061.34 473.29 1061.66 473.29 1062.22V1087.42C475.45 1085.66 478.33 1084.22 482.73 1084.22C491.61 1084.22 496.81 1089.9 496.81 1099.98V1124.3C496.81 1124.94 496.33 1125.34 495.93 1125.34H489.53C489.05 1125.34 488.65 1124.94 488.65 1124.3V1100.86C488.65 1097.1 488.09 1092.3 481.93 1092.3C475.21 1092.3 473.29 1097.74 473.29 1101.98V1124.3C473.29 1124.94 472.89 1125.34 472.41 1125.34H466.09C465.53 1125.34 465.13 1124.94 465.13 1124.3Z" fill="black"/>
<path d="M529.53 1084.14C536.25 1084.14 548.57 1088.62 548.57 1105.26V1107.02C548.57 1107.58 548.17 1107.98 547.61 1107.98H518.25C518.25 1110.78 520.97 1118.62 529.45 1118.62C533.05 1118.62 536.73 1117.82 540.01 1112.54L540.41 1111.9C540.65 1111.5 541.13 1111.26 541.69 1111.58L546.97 1114.62C547.53 1115.02 547.69 1115.26 547.29 1115.98L546.97 1116.54C542.01 1125.26 534.65 1126.54 529.37 1126.54C517.53 1126.54 509.61 1117.58 509.61 1105.26C509.61 1092.94 517.61 1084.14 529.53 1084.14ZM529.53 1092.06C524.73 1092.06 520.25 1094.86 518.73 1100.22H539.69C539.05 1096.38 535.05 1092.06 529.53 1092.06Z" fill="black"/>
<path d="M585.37 1124.38V1062.3C585.37 1061.74 585.77 1061.34 586.33 1061.34H592.81C593.37 1061.34 593.77 1061.74 593.77 1062.3V1089.26H622.57V1062.3C622.57 1061.74 622.97 1061.34 623.53 1061.34H630.01C630.57 1061.34 630.97 1061.74 630.97 1062.3V1124.38C630.97 1124.94 630.57 1125.34 630.01 1125.34H623.53C622.97 1125.34 622.57 1124.94 622.57 1124.38V1097.42H593.77V1124.38C593.77 1124.94 593.45 1125.34 592.81 1125.34H586.33C585.77 1125.34 585.37 1124.94 585.37 1124.38Z" fill="black"/>
<path d="M655.37 1067.1C658.33 1067.1 660.57 1069.34 660.57 1072.3C660.57 1075.26 658.33 1077.5 655.37 1077.5C652.41 1077.5 650.17 1075.26 650.17 1072.3C650.17 1069.34 652.41 1067.1 655.37 1067.1ZM659.45 1086.46V1124.3C659.45 1124.86 659.05 1125.34 658.49 1125.34H652.33C651.69 1125.34 651.29 1124.86 651.29 1124.3V1086.46C651.29 1085.9 651.69 1085.34 652.33 1085.34H658.49C659.05 1085.34 659.45 1085.9 659.45 1086.46Z" fill="black"/>
<path d="M678.17 1124.3V1062.38C678.17 1061.82 678.57 1061.34 679.13 1061.34H685.37C685.93 1061.34 686.33 1061.82 686.33 1062.38V1124.3C686.33 1124.86 685.93 1125.34 685.37 1125.34H679.13C678.57 1125.34 678.17 1124.86 678.17 1124.3Z" fill="black"/>
<path d="M703.92 1124.3V1062.38C703.92 1061.82 704.32 1061.34 704.88 1061.34H711.12C711.68 1061.34 712.08 1061.82 712.08 1062.38V1124.3C712.08 1124.86 711.68 1125.34 711.12 1125.34H704.88C704.32 1125.34 703.92 1124.86 703.92 1124.3Z" fill="black"/>
<path d="M755.21 1113.66C755.21 1120.7 749.85 1126.54 741.77 1126.54C732.01 1126.54 727.93 1119.9 726.57 1114.94C726.41 1114.38 726.49 1113.98 726.89 1113.82L732.25 1110.38C732.73 1110.06 733.53 1110.06 733.69 1110.94C734.33 1113.1 735.37 1118.54 741.77 1118.54C747.13 1118.54 746.97 1113.9 746.97 1113.5C746.97 1112.14 746.73 1110.06 742.09 1108.14C735.13 1105.02 729.37 1102.3 729.37 1095.18C729.37 1089.02 734.01 1084.14 741.37 1084.14C746.09 1084.14 750.57 1085.9 753.69 1092.06C753.93 1092.62 753.85 1093.02 753.37 1093.34L748.49 1097.02C747.93 1097.42 747.21 1097.42 746.89 1096.7C745.45 1093.34 743.85 1091.82 740.97 1092.06C736.73 1092.38 737.61 1095.58 737.61 1095.74C738.25 1098.3 744.73 1099.74 748.89 1102.46C753.21 1105.26 755.21 1108.46 755.21 1113.66Z" fill="black"/>
<path d="M773.6 1136.62C773.44 1136.7 773.2 1136.78 773.04 1136.78C772.88 1136.78 772.72 1136.7 772.56 1136.62L769.68 1134.94C769.28 1134.7 769.12 1134.3 769.2 1133.9L771.36 1124.94C770.48 1123.98 770 1122.78 770 1121.34C770 1118.38 772.24 1116.14 775.2 1116.14C778.16 1116.14 780.4 1118.38 780.4 1121.34C780.4 1122.3 780.16 1123.18 779.76 1123.98L773.92 1136.22C773.84 1136.38 773.76 1136.54 773.6 1136.62Z" fill="black"/>
<path d="M153.81 1168.3C166.85 1168.3 174.61 1174.86 179.89 1181.42L180.85 1182.62C181.33 1183.26 181.09 1183.58 180.77 1183.9L175.81 1188.22C175.41 1188.62 174.77 1188.7 174.37 1188.14L173.97 1187.58C169.65 1181.58 163.57 1176.54 153.89 1176.54C139.65 1176.54 129.73 1188.38 129.73 1201.66C129.73 1216.54 140.69 1226.54 152.85 1226.54C165.01 1226.54 174.21 1218.46 174.53 1205.66H155.57C155.01 1205.66 154.61 1205.18 154.61 1204.7V1198.38C154.61 1197.9 155.01 1197.42 155.57 1197.42H182.37C182.93 1197.42 183.33 1197.9 183.33 1198.38V1202.78C183.33 1225.58 166.85 1234.7 152.77 1234.7C134.53 1234.7 121.25 1219.9 121.25 1201.66C121.25 1182.46 136.13 1168.3 153.81 1168.3Z" fill="black"/>
<path d="M215.25 1192.3C221.97 1192.3 234.29 1196.78 234.29 1213.42V1215.18C234.29 1215.74 233.89 1216.14 233.33 1216.14H203.97C203.97 1218.94 206.69 1226.78 215.17 1226.78C218.77 1226.78 222.45 1225.98 225.73 1220.7L226.13 1220.06C226.37 1219.66 226.85 1219.42 227.41 1219.74L232.69 1222.78C233.25 1223.18 233.41 1223.42 233.01 1224.14L232.69 1224.7C227.73 1233.42 220.37 1234.7 215.09 1234.7C203.25 1234.7 195.33 1225.74 195.33 1213.42C195.33 1201.1 203.33 1192.3 215.25 1192.3ZM215.25 1200.22C210.45 1200.22 205.97 1203.02 204.45 1208.38H225.41C224.77 1204.54 220.77 1200.22 215.25 1200.22Z" fill="black"/>
<path d="M267.89 1194.54V1200.46C267.89 1201.02 267.57 1201.5 267.01 1201.5H261.41V1232.46C261.41 1233.02 260.93 1233.5 260.37 1233.5H254.21C253.65 1233.5 253.25 1233.02 253.25 1232.46V1201.5H248.05C247.49 1201.5 247.09 1201.02 247.09 1200.46V1194.54C247.09 1193.98 247.49 1193.5 248.05 1193.5H254.13V1180.86C254.13 1180.38 254.53 1179.9 255.09 1179.9H260.37C260.93 1179.9 261.41 1180.38 261.41 1180.86V1193.5H267.01C267.57 1193.5 267.89 1193.98 267.89 1194.54Z" fill="black"/>
<path d="M302.61 1219.66L302.37 1219.02C302.21 1218.54 302.37 1218.06 302.85 1217.82L308.77 1215.26C309.41 1215.02 309.73 1215.1 310.05 1215.82L310.29 1216.38C312.77 1222.14 316.77 1226.3 324.05 1226.54C330.61 1226.78 334.93 1221.5 334.93 1216.7C334.93 1211.26 332.93 1208.62 328.37 1205.82C325.81 1204.3 318.29 1201.02 315.81 1199.58C309.89 1196.14 306.13 1192.86 306.13 1184.46C306.13 1175.18 314.21 1168.3 323.17 1168.3C330.69 1168.3 336.69 1171.58 340.61 1179.34L341.09 1180.3C341.25 1180.62 341.25 1181.18 340.77 1181.5L335.25 1184.62C334.85 1184.86 334.21 1184.7 333.97 1184.3L333.65 1183.74C331.09 1179.26 328.37 1176.38 323.17 1176.54C318.21 1176.7 314.85 1180.06 314.61 1184.54C314.37 1188.86 316.85 1190.62 321.01 1192.94C324.05 1194.62 330.29 1197.1 333.97 1199.5C340.61 1203.66 343.25 1208.94 343.33 1216.78C343.41 1226.14 335.81 1234.7 324.05 1234.7C312.29 1234.7 305.33 1226.94 302.61 1219.66Z" fill="black"/>
<path d="M356.93 1194.54C356.93 1193.98 357.33 1193.5 357.89 1193.5H364.29C364.77 1193.5 365.17 1193.98 365.17 1194.46V1196.94C367.17 1195.34 371.09 1192.3 377.73 1192.3C388.93 1192.3 397.57 1201.42 397.57 1213.5C397.57 1224.78 389.73 1234.7 377.81 1234.7C371.25 1234.7 366.93 1231.58 365.17 1229.9V1254.86C365.17 1255.42 364.77 1255.9 364.29 1255.9H357.89C357.33 1255.9 356.93 1255.42 356.93 1254.86V1194.54ZM377.25 1200.3C370.77 1200.3 364.93 1205.26 364.93 1213.5C364.93 1221.18 370.45 1226.62 377.25 1226.62C383.41 1226.62 389.25 1221.82 389.25 1213.5C389.25 1205.82 384.13 1200.3 377.25 1200.3Z" fill="black"/>
<path d="M428.69 1192.3C435.41 1192.3 447.73 1196.78 447.73 1213.42V1215.18C447.73 1215.74 447.33 1216.14 446.77 1216.14H417.41C417.41 1218.94 420.13 1226.78 428.61 1226.78C432.21 1226.78 435.89 1225.98 439.17 1220.7L439.57 1220.06C439.81 1219.66 440.29 1219.42 440.85 1219.74L446.13 1222.78C446.69 1223.18 446.85 1223.42 446.45 1224.14L446.13 1224.7C441.17 1233.42 433.81 1234.7 428.53 1234.7C416.69 1234.7 408.77 1225.74 408.77 1213.42C408.77 1201.1 416.77 1192.3 428.69 1192.3ZM428.69 1200.22C423.89 1200.22 419.41 1203.02 417.89 1208.38H438.85C438.21 1204.54 434.21 1200.22 428.69 1200.22Z" fill="black"/>
<path d="M479.73 1192.3C484.53 1192.3 487.65 1193.34 490.85 1195.26L491.89 1195.9C492.13 1196.06 492.29 1196.38 492.29 1196.7V1204.78C492.29 1205.58 491.33 1206.06 490.69 1205.5C486.77 1201.98 484.93 1200.22 479.65 1200.22C473.25 1200.22 467.33 1205.02 467.33 1213.42C467.33 1221.82 473.01 1226.78 479.57 1226.78C485.01 1226.78 486.93 1224.54 490.61 1221.58C491.33 1221.02 492.21 1221.5 492.21 1222.3V1230.06C492.21 1230.38 492.05 1230.7 491.81 1230.86L491.25 1231.26C487.89 1233.66 484.13 1234.7 479.97 1234.7C468.13 1234.7 458.93 1226.06 458.93 1213.5C458.93 1201.66 467.65 1192.3 479.73 1192.3Z" fill="black"/>
<path d="M513.09 1175.26C516.05 1175.26 518.29 1177.5 518.29 1180.46C518.29 1183.42 516.05 1185.66 513.09 1185.66C510.13 1185.66 507.89 1183.42 507.89 1180.46C507.89 1177.5 510.13 1175.26 513.09 1175.26ZM517.17 1194.62V1232.46C517.17 1233.02 516.77 1233.5 516.21 1233.5H510.05C509.41 1233.5 509.01 1233.02 509.01 1232.46V1194.62C509.01 1194.06 509.41 1193.5 510.05 1193.5H516.21C516.77 1193.5 517.17 1194.06 517.17 1194.62Z" fill="black"/>
<path d="M551.09 1192.3C556.61 1192.3 561.09 1194.54 563.65 1197.18V1194.7C563.65 1194.06 564.05 1193.5 564.61 1193.5H570.85C571.57 1193.5 571.89 1194.14 571.89 1194.7V1232.38C571.89 1232.94 571.57 1233.5 570.93 1233.5H564.61C564.05 1233.5 563.65 1232.94 563.65 1232.38V1229.66C561.97 1231.82 556.93 1234.7 551.09 1234.7C539.49 1234.7 531.09 1225.18 531.09 1213.42C531.09 1201.66 540.29 1192.3 551.09 1192.3ZM551.57 1200.22C544.85 1200.22 539.41 1205.66 539.41 1213.42C539.41 1221.18 544.69 1226.62 551.49 1226.78C557.49 1226.94 563.89 1222.06 563.89 1213.34C563.89 1206.14 558.61 1200.22 551.57 1200.22Z" fill="black"/>
<path d="M586.29 1232.46V1170.54C586.29 1169.98 586.69 1169.5 587.25 1169.5H593.49C594.05 1169.5 594.45 1169.98 594.45 1170.54V1232.46C594.45 1233.02 594.05 1233.5 593.49 1233.5H587.25C586.69 1233.5 586.29 1233.02 586.29 1232.46Z" fill="black"/>
<path d="M632.44 1170.62C632.44 1169.9 632.92 1169.5 633.4 1169.5H642.12C663.72 1169.5 678.52 1180.14 678.52 1201.5C678.52 1218.86 667.56 1233.5 640.52 1233.5H633.4C632.92 1233.5 632.44 1233.02 632.44 1232.54V1170.62ZM670.12 1201.5C670.12 1185.74 660.12 1177.66 643.08 1177.66H640.84V1225.34H642.12C654.52 1225.34 670.12 1220.22 670.12 1201.5Z" fill="black"/>
<path d="M710.44 1192.3C717.16 1192.3 729.48 1196.78 729.48 1213.42V1215.18C729.48 1215.74 729.08 1216.14 728.52 1216.14H699.16C699.16 1218.94 701.88 1226.78 710.36 1226.78C713.96 1226.78 717.64 1225.98 720.92 1220.7L721.32 1220.06C721.56 1219.66 722.04 1219.42 722.6 1219.74L727.88 1222.78C728.44 1223.18 728.6 1223.42 728.2 1224.14L727.88 1224.7C722.92 1233.42 715.56 1234.7 710.28 1234.7C698.44 1234.7 690.52 1225.74 690.52 1213.42C690.52 1201.1 698.52 1192.3 710.44 1192.3ZM710.44 1200.22C705.64 1200.22 701.16 1203.02 699.64 1208.38H720.6C719.96 1204.54 715.96 1200.22 710.44 1200.22Z" fill="black"/>
<path d="M760.68 1192.3C766.2 1192.3 770.68 1194.54 773.24 1197.18V1194.7C773.24 1194.06 773.64 1193.5 774.2 1193.5H780.44C781.16 1193.5 781.48 1194.14 781.48 1194.7V1232.38C781.48 1232.94 781.16 1233.5 780.52 1233.5H774.2C773.64 1233.5 773.24 1232.94 773.24 1232.38V1229.66C771.56 1231.82 766.52 1234.7 760.68 1234.7C749.08 1234.7 740.68 1225.18 740.68 1213.42C740.68 1201.66 749.88 1192.3 760.68 1192.3ZM761.16 1200.22C754.44 1200.22 749 1205.66 749 1213.42C749 1221.18 754.28 1226.62 761.08 1226.78C767.08 1226.94 773.48 1222.06 773.48 1213.34C773.48 1206.14 768.2 1200.22 761.16 1200.22Z" fill="black"/>
<path d="M795.88 1232.46V1170.54C795.88 1169.98 796.28 1169.5 796.84 1169.5H803.08C803.64 1169.5 804.04 1169.98 804.04 1170.54V1232.46C804.04 1233.02 803.64 1233.5 803.08 1233.5H796.84C796.28 1233.5 795.88 1233.02 795.88 1232.46Z" fill="black"/>
<path d="M845.56 1221.82C845.56 1228.86 840.2 1234.7 832.12 1234.7C822.36 1234.7 818.28 1228.06 816.92 1223.1C816.76 1222.54 816.84 1222.14 817.24 1221.98L822.6 1218.54C823.08 1218.22 823.88 1218.22 824.04 1219.1C824.68 1221.26 825.72 1226.7 832.12 1226.7C837.48 1226.7 837.32 1222.06 837.32 1221.66C837.32 1220.3 837.08 1218.22 832.44 1216.3C825.48 1213.18 819.72 1210.46 819.72 1203.34C819.72 1197.18 824.36 1192.3 831.72 1192.3C836.44 1192.3 840.92 1194.06 844.04 1200.22C844.28 1200.78 844.2 1201.18 843.72 1201.5L838.84 1205.18C838.28 1205.58 837.56 1205.58 837.24 1204.86C835.8 1201.5 834.2 1199.98 831.32 1200.22C827.08 1200.54 827.96 1203.74 827.96 1203.9C828.6 1206.46 835.08 1207.9 839.24 1210.62C843.56 1213.42 845.56 1216.62 845.56 1221.82Z" fill="black"/>
<path d="M174.36 1336.58C180.82 1335.31 186.83 1333.35 193.47 1330.38C198.15 1328.29 200.88 1326.71 202.9 1325L207.96 1332.09C206.69 1332.66 206.57 1332.72 204.99 1333.48C199.29 1336.45 192.9 1339.05 186.89 1340.95C182.27 1342.34 180.62 1342.72 174.36 1343.92V1352.09C174.36 1352.15 174.36 1352.22 174.3 1352.28V1353.17C174.3 1356.84 174.55 1358.3 175.44 1359.12C176.52 1360.26 180.12 1360.77 186.26 1360.77C190.5 1360.77 196.32 1360.39 200.94 1359.76C203.98 1359.38 205.37 1359.06 208.16 1358.3L208.54 1366.72C207.27 1366.72 206.83 1366.78 202.27 1367.23C197.21 1367.74 189.3 1368.12 184.55 1368.12C176.64 1368.12 172.27 1367.3 169.8 1365.4C168.03 1364.07 167.08 1362.05 166.7 1358.94C166.57 1357.86 166.51 1356.79 166.51 1353.18L166.45 1323.81C166.45 1320.58 166.45 1319.7 166.2 1317.99H174.68C174.43 1319.64 174.36 1320.96 174.36 1323.88V1336.6V1336.58Z" fill="black"/>
<path d="M244.94 1318.86C244.773 1320.04 244.563 1324.77 244.31 1333.04C243.87 1345.38 242.48 1352.54 239.18 1359.05C237.03 1363.42 234.62 1366.65 230.45 1370.76C227.98 1367.59 227.03 1366.65 224.06 1364.62C227.16 1362.09 228.68 1360.38 230.58 1357.34C235.14 1350.06 236.59 1341.9 236.59 1324.17C236.59 1320.69 236.59 1320.12 236.34 1318.41L244.95 1318.85L244.94 1318.86ZM261.71 1318.1C261.39 1319.93 261.33 1321.01 261.27 1324.11L260.95 1360.12C265.38 1358.03 267.91 1356.13 270.63 1352.9C273.54 1349.48 275.38 1346 276.83 1341.32C279.05 1344.17 279.87 1344.99 282.78 1347.27C280.19 1353.54 276.89 1358.28 272.72 1362.02C269.11 1365.12 265.82 1367.02 259.24 1369.62C257.85 1370.13 257.34 1370.38 256.52 1370.76L252.47 1366.46C252.91 1364.63 252.98 1363.23 253.04 1359.75L253.36 1324.05V1322.15C253.36 1320.57 253.3 1319.17 253.11 1317.97L261.72 1318.1H261.71Z" fill="black"/>
<path d="M340.52 1371.2C335.27 1364.74 327.99 1357.72 321.09 1352.47C313.94 1360.38 306.66 1365.95 296.97 1370.76C295.2 1367.4 294.44 1366.39 291.84 1363.67C296.71 1361.77 299.75 1360.13 304.5 1356.77C314.06 1350.06 321.65 1340.82 325.77 1331.01L326.47 1329.3C325.797 1329.34 318.813 1329.47 305.52 1329.68C302.48 1329.74 300.77 1329.87 298.62 1330.19L298.37 1322.15C300.14 1322.47 301.34 1322.53 303.94 1322.53H305.46L327.74 1322.21C331.28 1322.15 331.79 1322.08 333.37 1321.45L337.55 1325.82C336.73 1326.71 336.22 1327.65 335.52 1329.17C332.61 1336.01 329.51 1341.51 325.65 1346.64C329.64 1349.36 333.06 1352.02 337.36 1355.82C338.413 1356.79 341.493 1359.73 346.6 1364.62L340.52 1371.2ZM339.38 1315.82C341.97 1318.99 343.11 1320.76 344.89 1324.43L340.21 1326.84C338.44 1323.11 336.92 1320.7 334.7 1318.11L339.38 1315.83V1315.82ZM346.97 1323.29C345.26 1319.87 343.8 1317.59 341.59 1314.87L346.21 1312.72C348.62 1315.44 349.94 1317.4 351.65 1320.89L346.97 1323.3V1323.29Z" fill="black"/>
<path d="M385.78 1353.16C382.17 1361.32 378.12 1365.06 372.93 1365.06C365.71 1365.06 360.52 1357.72 360.52 1347.53C360.52 1340.57 362.99 1334.05 367.48 1329.11C372.8 1323.29 380.27 1320.25 389.25 1320.25C404.44 1320.25 414.31 1329.49 414.31 1343.73C414.31 1354.68 408.61 1363.41 398.93 1367.34C395.89 1368.61 393.42 1369.24 388.99 1370C387.91 1366.65 387.16 1365.25 385.13 1362.59C390.95 1361.83 394.75 1360.82 397.72 1359.11C403.23 1356.07 406.52 1350.06 406.52 1343.29C406.52 1337.21 403.8 1332.28 398.73 1329.24C396.77 1328.1 395.12 1327.59 392.34 1327.34C391.14 1337.28 388.92 1346.01 385.76 1353.16H385.78ZM376.47 1330.5C371.15 1334.3 367.86 1340.82 367.86 1347.59C367.86 1352.78 370.07 1356.89 372.86 1356.89C374.95 1356.89 377.1 1354.23 379.38 1348.79C381.79 1343.09 383.87 1334.55 384.63 1327.4C381.34 1327.78 379.06 1328.67 376.46 1330.5H376.47Z" fill="black"/>
<path d="M458.38 1346.58V1363.16C458.38 1364.43 458.63 1365 459.27 1365.25C460.16 1365.63 461.99 1365.76 464.9 1365.76C473.76 1365.76 475.28 1365.63 476.17 1364.87C477.06 1364.24 477.31 1362.59 477.44 1357.97C480.29 1359.17 481.05 1359.43 483.77 1359.93C483.26 1365.82 482.38 1368.6 480.48 1370.12C478.64 1371.64 476.37 1371.96 466.18 1371.96C454.91 1371.96 452.32 1370.82 452.32 1365.88V1348.28C451.5 1348.53 450.86 1348.79 450.23 1349.1L448.65 1342.64L449.35 1342.51C450.81 1342.26 451 1342.19 452.32 1341.81V1338.71C452.32 1337.76 452.32 1337.19 452.26 1336.24C451.69 1337 451.44 1337.32 450.68 1338.27C448.97 1335.93 447.89 1334.85 445.87 1333.33C447.33 1331.75 447.77 1331.24 448.72 1329.98C447.26 1329.85 446.5 1329.85 444.29 1329.85H437.52C437.48 1333.78 437.437 1336.05 437.39 1336.68H443.34C445.49 1336.68 446.76 1336.62 448.15 1336.43C448.09 1336.94 448.02 1339.28 448.02 1339.66V1342.51C448.02 1346.5 447.77 1354.73 447.51 1358.4C447 1365.3 446.31 1368.65 444.92 1370.3C443.97 1371.44 442.2 1371.95 439.29 1371.95C438.997 1371.95 438.237 1371.93 437.01 1371.89C436.543 1371.85 435.973 1371.83 435.3 1371.83C435.11 1368.86 434.86 1367.4 434.03 1365.12C434.41 1365.25 434.73 1365.25 434.92 1365.31C436.5 1365.56 437.45 1365.69 438.4 1365.69C440.17 1365.69 440.49 1365.18 441.06 1361.64C441.69 1357.59 442.07 1350.63 442.14 1342.78H437.14C436.51 1350.44 436 1354.3 434.99 1358.41C433.53 1364.42 431.7 1368.73 428.72 1372.97C427.07 1370.38 425.81 1368.86 423.91 1367.21C427.45 1361.96 429.04 1357.34 430.05 1349.3C431 1342.15 431.06 1340.25 431.19 1329.87H430.49C428.27 1329.87 426.5 1330 425.3 1330.19V1323.35C427.14 1323.67 428.34 1323.73 431.12 1323.73H434.73V1320.44C434.73 1318.16 434.6 1316.52 434.35 1314.87H441.82C441.57 1316.64 441.5 1317.78 441.5 1320.44V1323.73H444.22C446.94 1323.73 448.33 1323.67 449.98 1323.41V1328.28C452.89 1323.91 455.55 1317.9 456.18 1314.42L463.33 1315.81C463.01 1316.25 462.7 1317.01 462.25 1318.22C462.06 1318.66 461.62 1319.68 460.6 1322.02H476.74C479.52 1322.02 481.61 1321.89 483.26 1321.64V1328.48C481.74 1328.35 479.08 1328.23 476.8 1328.23H457.56C456.36 1330.26 455.47 1331.71 454.02 1333.86H458.7C458.45 1335.51 458.38 1336.2 458.38 1338.8V1340.19L463.38 1338.86V1335.44C463.38 1333.16 463.25 1331.26 463.13 1330.19H469.65C469.4 1331.39 469.27 1332.91 469.27 1335.13V1337.28L475.66 1335.51C475.98 1335.45 476.74 1335.19 477.87 1334.81C478.44 1334.62 478.95 1334.43 479.39 1334.3C480.53 1334.05 480.59 1333.98 481.35 1333.67C481.03 1349.05 480.72 1352.91 479.7 1355.19C478.81 1357.09 477.48 1357.66 473.94 1357.66C473.647 1357.66 472.823 1357.64 471.47 1357.6C471.22 1355.19 470.84 1353.74 470.01 1351.65C471.21 1351.9 472.16 1352.03 473.05 1352.03C474.38 1352.03 474.57 1351.65 474.82 1348.99C475.01 1346.78 475.07 1344.56 475.07 1341.84L469.25 1343.49V1354.76C469.25 1357.61 469.31 1358.56 469.5 1360.01H463.11C463.3 1358.36 463.36 1357.48 463.36 1354.76V1345.14L458.36 1346.6L458.38 1346.58Z" fill="black"/>
<path d="M493.01 1325.06C494.53 1325.31 495.73 1325.38 498.14 1325.38H511.18C513.84 1325.38 514.91 1325.32 516.31 1325.13V1331.65C514.98 1331.46 514.16 1331.4 511.5 1331.4H498.14C495.86 1331.4 494.53 1331.46 493.01 1331.65V1325.07V1325.06ZM547.76 1344.43C547.506 1344.85 547.083 1345.71 546.49 1347.02C543.77 1352.91 541.43 1356.64 537.95 1360.37C542.25 1363.09 545.17 1364.23 552.06 1366.13C550.6 1368.66 549.78 1370.31 548.9 1372.9C541.49 1370.37 537.38 1368.34 533.08 1364.99C528.84 1368.34 524.34 1370.75 517.89 1373.09C516.88 1370.81 515.99 1369.36 514.66 1367.71C514.66 1369.86 514.72 1370.62 514.91 1372.2H508.64V1370.05H501.23V1373.09H494.77C495.02 1371.13 495.15 1369.1 495.15 1366.82V1357.52C495.15 1355.49 495.09 1354.04 494.83 1352.52C496.41 1352.65 497.74 1352.71 499.7 1352.71H510.59C513.06 1352.71 513.76 1352.71 514.83 1352.52C514.64 1353.91 514.64 1354.73 514.64 1357.14V1366.63C520.27 1364.98 524.39 1363.09 528.12 1360.49C524.26 1356.44 522.42 1353.4 519.95 1347.39C518.68 1347.45 518.12 1347.45 517.1 1347.64V1340.93C518.37 1341.18 519.51 1341.25 521.15 1341.25H539.82C542.22 1341.25 543.36 1341.19 544.25 1341L547.73 1344.42L547.76 1344.43ZM495.03 1316.14C496.74 1316.39 497.75 1316.46 500.35 1316.46H509.46C512.05 1316.46 513.07 1316.4 514.78 1316.14V1322.28C513.07 1322.09 511.74 1322.03 509.46 1322.03H500.35C498.07 1322.03 496.62 1322.09 495.03 1322.28V1316.14ZM495.16 1334.68C496.36 1334.81 497.31 1334.87 499.34 1334.87H510.61C512.7 1334.87 513.52 1334.81 514.66 1334.68V1340.57C513.27 1340.44 512.51 1340.38 510.61 1340.38H499.34C497.31 1340.38 496.43 1340.44 495.16 1340.57V1334.68ZM495.16 1343.61C496.36 1343.74 497.31 1343.8 499.34 1343.8H510.61C512.7 1343.8 513.52 1343.74 514.66 1343.61V1349.5C513.2 1349.31 512.57 1349.31 510.48 1349.31H499.28C497.32 1349.31 496.49 1349.37 495.17 1349.5V1343.61H495.16ZM501.24 1364.49H508.65V1358.22H501.24V1364.49ZM527.88 1322.85C527.69 1328.36 527.06 1331.33 525.29 1334.88C524.02 1337.35 522.82 1338.93 520.61 1340.89C518.77 1339.12 516.94 1337.66 515.1 1336.52C520.1 1332.85 521.68 1328.99 521.68 1320.7C521.68 1318.74 521.62 1318.11 521.36 1316.46C523.01 1316.65 524.4 1316.71 526.36 1316.71H536.04C538.25 1316.71 539.77 1316.65 541.42 1316.46C541.23 1317.85 541.17 1319.5 541.17 1321.84V1331.21C541.17 1332.03 541.61 1332.29 543.13 1332.29C544.816 1332.29 545.786 1329.76 546.04 1324.69C547.94 1325.7 549.58 1326.4 551.74 1326.97C550.98 1337.35 550.28 1338.11 542.25 1338.11C536.11 1338.11 534.78 1337.35 534.78 1334V1322.86H527.88V1322.85ZM526.55 1347.34C528.13 1351.01 529.9 1353.54 532.88 1356.45C535.6 1353.6 536.93 1351.7 539.15 1347.34H526.55Z" fill="black"/>
<path d="M564.16 1322.4C566.76 1322.97 570.81 1323.22 578.84 1323.22C580.55 1319.42 581.12 1317.52 581.37 1315.37L589.66 1316.26C589.406 1316.68 588.563 1318.58 587.13 1321.96C586.81 1322.66 586.69 1322.85 586.56 1323.1C586.9 1323.06 588.23 1322.98 590.55 1322.85C597.89 1322.41 603.65 1321.71 607.13 1320.7L607.57 1327.92C606.39 1328.01 604.723 1328.18 602.57 1328.43C597.95 1329 589.91 1329.51 583.52 1329.7C581.68 1333.31 579.91 1335.84 577.7 1338.12L577.76 1338.25C578.053 1338.04 578.477 1337.72 579.03 1337.3C581.37 1335.53 584.73 1334.45 587.95 1334.45C592.89 1334.45 595.99 1336.79 597 1341.16C601.87 1339.39 605.1 1338.25 606.68 1337.74C610.1 1336.54 610.35 1336.47 611.36 1335.84L614.34 1343.12C612.57 1343.37 610.67 1343.88 607.31 1344.83C606.42 1345.08 603.26 1346.16 597.82 1348.06V1348.76C597.86 1349.86 597.88 1350.7 597.88 1351.29V1353.82C597.82 1354.9 597.82 1355.47 597.82 1355.91C597.82 1357.3 597.88 1358.19 598.01 1359.26L590.67 1359.45C590.92 1358.31 591.05 1355.08 591.05 1352.11V1350.59C587.95 1352.05 586.3 1352.93 584.97 1353.88C582.75 1355.53 581.68 1357.23 581.68 1359.07C581.68 1362.36 584.72 1363.69 592.38 1363.69C600.04 1363.69 606.49 1362.74 610.99 1361.03L611.62 1369.2C610.54 1369.2 610.23 1369.26 608.71 1369.45C604.15 1370.15 598.08 1370.59 592.51 1370.59C585.8 1370.59 581.62 1369.83 578.4 1367.93C575.49 1366.28 573.78 1363.25 573.78 1359.76C573.78 1357.17 574.54 1355.14 576.57 1352.73C579.42 1349.19 583.03 1346.78 590.18 1343.81C589.86 1341.47 588.6 1340.39 586.32 1340.39C582.65 1340.39 578.22 1342.6 573.34 1346.91C570.68 1349.13 569.23 1350.71 567.83 1352.67L562.07 1346.97C563.72 1345.7 565.55 1343.93 567.77 1341.34C570.24 1338.43 574.1 1332.92 575.36 1330.52C575.526 1330.18 575.696 1329.91 575.87 1329.7C575.62 1329.7 574.79 1329.76 574.79 1329.76C573.78 1329.76 568.21 1329.63 566.81 1329.63C566.01 1329.59 565.42 1329.57 565.04 1329.57C564.85 1329.57 564.47 1329.57 564.03 1329.63L564.16 1322.42V1322.4Z" fill="black"/>
<path d="M632.52 1347.21C632.52 1345.25 632.52 1344.24 632.71 1340.18C631.32 1342.65 630.3 1344.17 628.28 1346.83C627.39 1343.79 626.7 1341.96 625.37 1339.3C631.19 1332.97 636.07 1322.53 637.21 1314.11L644.42 1315.82C641.89 1323.67 641.51 1324.81 639.23 1329.87V1365.88C639.23 1368.6 639.29 1370.69 639.55 1373.22H632.14C632.39 1370.81 632.52 1368.92 632.52 1365.81V1347.2V1347.21ZM665.43 1350.44C664.73 1354.43 663.72 1357.09 661.89 1360.12C668.6 1363.79 675.06 1365.25 685.62 1365.69C684.48 1367.97 683.47 1370.37 682.9 1372.72C672.2 1371.58 664.93 1369.3 657.96 1364.87C654.29 1368.41 650.3 1370.69 643.85 1372.97C642.71 1370.69 641.38 1368.73 639.93 1367.02C645.75 1365.44 649.49 1363.67 652.78 1360.94C651.13 1359.42 650.31 1358.47 648.86 1356.57C648.04 1355.49 647.53 1354.92 646.9 1354.23L652.41 1351.32C653.17 1352.84 654.44 1354.42 656.59 1356.38C657.73 1354.29 658.3 1352.77 658.81 1350.43H649.51C647.48 1350.43 645.97 1350.49 644.38 1350.68C644.57 1348.84 644.63 1347.64 644.63 1345.36V1336.56C644.63 1333.84 644.57 1332.76 644.38 1331.24C646.28 1331.37 647.23 1331.43 650.27 1331.43H660.08L660.02 1326.87H649.58C647.05 1326.87 645.4 1326.93 643.5 1327.19V1320.35C645.4 1320.6 647.8 1320.73 650.34 1320.73H660.02C659.96 1317.44 659.89 1316.3 659.64 1314.34H666.92C666.793 1315.52 666.73 1317.65 666.73 1320.73H677.74C680.65 1320.73 682.74 1320.6 684.89 1320.35V1327.19C682.99 1326.94 681.09 1326.87 678.56 1326.87H666.72V1331.43H676.02C678.87 1331.43 680.2 1331.37 681.97 1331.24C681.84 1332.82 681.78 1334.4 681.78 1336.75V1344.92C681.78 1347.96 681.84 1349.16 681.97 1350.68C680.14 1350.49 678.68 1350.43 675.83 1350.43H665.45L665.43 1350.44ZM651.19 1337.53V1344.43H659.61C659.86 1341.58 659.86 1341.07 659.99 1337.53H651.19ZM666.57 1337.53C666.44 1340.82 666.38 1342.02 666.13 1344.43H675.12V1337.53H666.58H666.57Z" fill="black"/>
<path d="M697.21 1336.39C698.31 1336.35 700.757 1335.99 704.55 1335.31C713.54 1333.73 719.04 1333.16 724.42 1333.16C729.8 1333.16 733.47 1333.98 736.38 1335.75C740.3 1338.09 742.52 1342.33 742.52 1347.33C742.52 1354.55 738.15 1361.13 730.49 1365.5C725.3 1368.47 720.87 1369.8 710.55 1371.45C709.92 1368.1 709.22 1366.51 707.26 1363.54C714.6 1363.22 721.44 1361.45 726.31 1358.73C731.31 1355.94 734.03 1351.96 734.03 1347.59C734.03 1342.84 730.67 1340.44 724.09 1340.44C716.94 1340.44 704.28 1342.66 699.03 1344.81L697.2 1336.39H697.21ZM707.08 1316.2C714.11 1318.54 723.47 1319.87 733.47 1319.87H735.24L734.16 1327.66C722.64 1327.15 713.91 1326.01 704.6 1323.67L707.07 1316.2H707.08Z" fill="black"/>
<path d="M775.32 1315.88C775.57 1320.12 777.47 1329.24 779.5 1335.69C782.24 1334.68 787.703 1332.82 795.89 1330.12C797.03 1329.74 797.35 1329.61 798.29 1329.17L801.01 1337.14C795.5 1338.22 787.21 1340.62 780.12 1343.22C770.88 1346.64 766.26 1350.69 766.26 1355.25C766.26 1359.81 770.56 1361.83 780.75 1361.83C788.66 1361.83 796.45 1360.88 801.19 1359.24L801.89 1367.91C800.5 1367.91 800.18 1367.97 796.76 1368.35C789.92 1369.05 786.38 1369.3 781.95 1369.3C773.15 1369.3 767.65 1368.22 763.59 1365.82C760.11 1363.73 758.08 1359.81 758.08 1355.25C758.08 1351.01 760.11 1346.96 763.71 1343.92C766.18 1341.83 768.2 1340.57 772.32 1338.48C770.74 1333.35 769.66 1329.11 768.08 1321.33C767.45 1318.29 767.38 1318.16 767.07 1317.22L775.3 1315.89L775.32 1315.88Z" fill="black"/>
<path d="M202.85 1428.28C209.31 1427.01 215.32 1425.05 221.96 1422.08C226.64 1419.99 229.37 1418.41 231.39 1416.7L236.45 1423.79C235.18 1424.36 235.06 1424.42 233.48 1425.18C227.78 1428.15 221.39 1430.75 215.38 1432.65C210.76 1434.04 209.11 1434.42 202.85 1435.62V1443.79C202.85 1443.85 202.85 1443.92 202.79 1443.98V1444.87C202.79 1448.54 203.04 1450 203.93 1450.82C205.01 1451.96 208.61 1452.47 214.75 1452.47C218.99 1452.47 224.81 1452.09 229.43 1451.46C232.47 1451.08 233.86 1450.76 236.65 1450L237.03 1458.42C235.76 1458.42 235.32 1458.48 230.76 1458.93C225.7 1459.44 217.79 1459.82 213.04 1459.82C205.13 1459.82 200.76 1459 198.29 1457.1C196.52 1455.77 195.57 1453.74 195.19 1450.64C195.06 1449.56 195 1448.49 195 1444.88L194.94 1415.51C194.94 1412.28 194.94 1411.4 194.69 1409.69H203.17C202.92 1411.34 202.85 1412.66 202.85 1415.58V1428.3V1428.28Z" fill="black"/>
<path d="M273.42 1410.55C273.253 1411.73 273.043 1416.46 272.79 1424.73C272.35 1437.07 270.96 1444.23 267.66 1450.74C265.51 1455.11 263.1 1458.34 258.93 1462.45C256.46 1459.28 255.51 1458.34 252.54 1456.31C255.64 1453.78 257.16 1452.07 259.06 1449.03C263.62 1441.75 265.07 1433.59 265.07 1415.86C265.07 1412.38 265.07 1411.81 264.82 1410.1L273.43 1410.54L273.42 1410.55ZM290.2 1409.79C289.88 1411.62 289.82 1412.7 289.76 1415.8L289.44 1451.81C293.87 1449.72 296.4 1447.82 299.12 1444.59C302.03 1441.17 303.87 1437.69 305.32 1433.01C307.54 1435.86 308.36 1436.68 311.27 1438.96C308.68 1445.23 305.38 1449.97 301.21 1453.71C297.6 1456.81 294.31 1458.71 287.73 1461.31C286.34 1461.82 285.83 1462.07 285.01 1462.45L280.96 1458.15C281.4 1456.32 281.47 1454.92 281.53 1451.44L281.85 1415.74V1413.84C281.85 1412.26 281.79 1410.86 281.6 1409.66L290.21 1409.79H290.2Z" fill="black"/>
<path d="M369 1462.9C363.75 1456.44 356.47 1449.42 349.57 1444.17C342.42 1452.08 335.14 1457.65 325.45 1462.46C323.68 1459.11 322.92 1458.09 320.32 1455.37C325.19 1453.47 328.23 1451.83 332.98 1448.47C342.54 1441.76 350.13 1432.52 354.25 1422.71L354.95 1421C354.276 1421.04 347.293 1421.17 334 1421.38C330.96 1421.44 329.25 1421.57 327.1 1421.89L326.85 1413.85C328.62 1414.17 329.82 1414.23 332.42 1414.23H333.94L356.22 1413.91C359.76 1413.85 360.27 1413.78 361.85 1413.15L366.03 1417.52C365.21 1418.41 364.7 1419.35 364 1420.87C361.09 1427.7 357.99 1433.21 354.13 1438.34C358.12 1441.06 361.54 1443.72 365.84 1447.52C366.893 1448.49 369.973 1451.43 375.08 1456.32L369 1462.9ZM367.86 1407.51C370.45 1410.68 371.59 1412.45 373.37 1416.12L368.69 1418.53C366.92 1414.8 365.4 1412.39 363.18 1409.8L367.86 1407.52V1407.51ZM375.46 1414.98C373.75 1411.56 372.29 1409.28 370.08 1406.56L374.7 1404.41C377.11 1407.13 378.43 1409.09 380.14 1412.57L375.46 1414.98Z" fill="black"/>
<path d="M414.26 1444.86C410.65 1453.03 406.6 1456.76 401.41 1456.76C394.19 1456.76 389 1449.42 389 1439.23C389 1432.27 391.47 1425.75 395.96 1420.81C401.28 1414.99 408.75 1411.95 417.73 1411.95C432.92 1411.95 442.79 1421.19 442.79 1435.43C442.79 1446.38 437.09 1455.11 427.41 1459.04C424.37 1460.31 421.9 1460.94 417.47 1461.7C416.39 1458.35 415.64 1456.95 413.61 1454.29C419.43 1453.53 423.23 1452.52 426.2 1450.81C431.71 1447.77 435 1441.76 435 1434.99C435 1428.91 432.28 1423.98 427.21 1420.94C425.25 1419.8 423.6 1419.29 420.82 1419.04C419.62 1428.98 417.4 1437.71 414.24 1444.86H414.26ZM404.96 1422.2C399.64 1426 396.35 1432.52 396.35 1439.29C396.35 1444.48 398.56 1448.59 401.35 1448.59C403.44 1448.59 405.59 1445.93 407.87 1440.49C410.28 1434.79 412.36 1426.25 413.12 1419.1C409.83 1419.48 407.55 1420.37 404.95 1422.2H404.96Z" fill="black"/>
<path d="M477.56 1452.71C477.56 1455.31 477.43 1456.82 477.05 1458.09C476.48 1460.31 474.2 1461.76 471.23 1461.76C467.24 1461.76 462.43 1459.99 459.27 1457.27C456.99 1455.31 455.79 1452.84 455.79 1450.12C455.79 1447.15 457.75 1443.79 461.23 1440.75C463.51 1438.79 466.29 1437.14 470.47 1435.37L470.41 1425.62C470.07 1425.62 469.207 1425.66 467.82 1425.75C466.87 1425.81 465.98 1425.81 464.4 1425.81C463.45 1425.81 461.68 1425.75 460.92 1425.75C460.1 1425.69 459.53 1425.69 459.34 1425.69C459.09 1425.69 458.58 1425.69 458.01 1425.75L457.95 1418.66C459.72 1419.04 462.25 1419.23 465.61 1419.23C466.24 1419.23 466.94 1419.23 467.83 1419.17C469.35 1419.11 469.66 1419.11 470.36 1419.11V1414.93C470.36 1411.32 470.3 1409.68 469.98 1407.65H477.89C477.57 1409.68 477.51 1411 477.51 1414.55V1418.6C482.26 1418.03 486.5 1417.21 489.73 1416.19L489.98 1423.28C488.84 1423.47 487.64 1423.66 483.27 1424.42C481.18 1424.8 479.92 1424.99 477.51 1425.24V1433.47C481.81 1432.2 485.8 1431.7 490.42 1431.7C500.99 1431.7 508.52 1438.16 508.52 1447.14C508.52 1455.37 502.38 1461.57 494.15 1461.57C489.02 1461.57 485.41 1459.1 483.77 1454.54C482.95 1452.39 482.69 1450.3 482.69 1446.44C485.92 1445.55 486.99 1445.11 489.72 1443.65C489.59 1444.85 489.59 1445.42 489.59 1446.44C489.59 1449.1 489.84 1450.81 490.48 1452.01C491.18 1453.34 492.7 1454.16 494.47 1454.16C498.2 1454.16 500.86 1451.19 500.86 1447.13C500.86 1441.69 496.43 1438.14 489.66 1438.14C485.86 1438.14 482 1438.84 477.51 1440.23L477.57 1452.7L477.56 1452.71ZM470.41 1442.52C465.66 1445.05 462.88 1447.84 462.88 1450.11C462.88 1451.19 463.51 1452.14 464.97 1453.02C466.24 1453.91 467.82 1454.41 469.02 1454.41C470.1 1454.41 470.41 1453.84 470.41 1451.75V1442.51V1442.52ZM505.47 1429.73C502.3 1424.73 497.68 1419.73 492.81 1416.06L498.76 1412.07C504.27 1416.31 507.94 1420.11 511.29 1425.04L505.47 1429.72V1429.73Z" fill="black"/>
<path d="M547.95 1409.92C547.95 1408.21 547.82 1407.2 547.63 1406.06H555.22C554.97 1407.07 554.9 1408.15 554.9 1409.98V1412.26H570.6C574.33 1412.26 576.87 1412.13 578.57 1411.88V1418.91C576.67 1418.72 573.82 1418.59 570.72 1418.59H533.25C533.31 1445.43 531.79 1454.98 525.97 1464.48C524.07 1462.14 523.12 1461.19 520.34 1459.04C522.87 1455.12 524.07 1451.7 525.09 1446.19C526.04 1440.81 526.42 1434.04 526.42 1421.57C526.42 1416.19 526.36 1414.16 526.17 1411.95C528.39 1412.14 530.79 1412.27 533.64 1412.27H547.94V1409.93L547.95 1409.92ZM550.36 1426.44C550.36 1422.96 550.3 1421.76 550.04 1420.17H557.25C557.06 1421.63 557 1422.96 557 1426.44V1427.2H570.29C573.52 1427.2 575.54 1427.07 577 1426.82V1433.78C575.16 1433.53 573.01 1433.4 570.54 1433.4H557V1440.05H568.58C571.24 1440.05 572.63 1439.99 574.15 1439.8C573.96 1441.83 573.9 1443.47 573.9 1446.19V1456.51C573.9 1460.43 573.96 1462.71 574.28 1464.74H567.06V1462.02H543.64V1464.68H536.49C536.74 1462.91 536.87 1460.38 536.87 1456.89V1445.37C536.87 1443.03 536.81 1441.45 536.62 1439.8C538.2 1439.99 539.6 1440.05 542.25 1440.05H550.35V1426.44H550.36ZM543.65 1455.74H567.07V1446.37H543.65V1455.74Z" fill="black"/>
<path d="M612.58 1408.91C612.39 1409.54 612.2 1410.24 612.07 1410.87C611.94 1411.76 611.88 1412.07 611.69 1413.02C611.563 1413.95 611.203 1415.99 610.61 1419.16C610.36 1420.55 610.36 1420.62 610.17 1421.44C612.01 1421.38 612.89 1421.31 614.09 1421.31C618.27 1421.31 621.37 1422.45 623.46 1424.67C625.61 1427.07 626.43 1430.11 626.43 1435.87C626.43 1446.76 624.6 1455.43 621.56 1458.91C619.79 1461 617.89 1461.76 614.53 1461.76C611.62 1461.76 609.02 1461.25 604.78 1459.86C604.84 1458.66 604.91 1457.71 604.91 1457.08C604.91 1455.43 604.78 1454.17 604.28 1451.7C607.7 1453.22 611.31 1454.23 613.52 1454.23C615.36 1454.23 616.37 1453.03 617.32 1449.93C618.33 1446.64 618.97 1440.88 618.97 1435.5C618.97 1429.68 617.51 1427.97 612.51 1427.97C611.24 1427.97 610.3 1428.03 608.84 1428.16C606.94 1435.88 606.37 1437.72 604.98 1441.89C602.76 1448.16 601.06 1452.21 597.38 1459.68C597.167 1460.06 596.85 1460.67 596.43 1461.51C596.24 1461.89 596.24 1462.02 595.92 1462.59L588.58 1458.54C590.48 1456.07 593.01 1451.51 595.16 1446.64C597.88 1440.44 598.77 1437.84 601.3 1428.73C598.07 1429.11 592.06 1430.25 589.97 1430.82L589.21 1423.35C591.55 1423.35 599.21 1422.59 602.69 1422.02C603.83 1415.25 604.34 1411.32 604.34 1409.23V1408.09L612.57 1408.91H612.58ZM631.69 1409.29C634.22 1412.01 635.68 1413.97 637.64 1417.58L632.7 1420.18C630.99 1416.95 629.03 1414.17 626.75 1411.76L631.69 1409.29ZM636.25 1420.49C641.12 1426.95 644.16 1433.28 646.57 1441.76L639.35 1445.37C638.15 1439.99 636.76 1436.07 634.35 1431.13C632.45 1427.4 631.5 1425.75 629.86 1423.66L636.25 1420.5V1420.49ZM639.98 1416.63C638.33 1413.66 636.44 1411 634.16 1408.47L638.91 1406C641.38 1408.59 643.09 1410.87 644.8 1413.91L639.99 1416.63H639.98Z" fill="black"/>
<path d="M678.85 1452.71C678.85 1455.31 678.72 1456.82 678.34 1458.09C677.77 1460.31 675.49 1461.76 672.52 1461.76C668.53 1461.76 663.72 1459.99 660.56 1457.27C658.28 1455.31 657.08 1452.84 657.08 1450.12C657.08 1447.15 659.04 1443.79 662.52 1440.75C664.8 1438.79 667.58 1437.14 671.76 1435.37L671.7 1425.62C671.36 1425.62 670.497 1425.66 669.11 1425.75C668.16 1425.81 667.27 1425.81 665.69 1425.81C664.74 1425.81 662.97 1425.75 662.21 1425.75C661.39 1425.69 660.82 1425.69 660.63 1425.69C660.38 1425.69 659.87 1425.69 659.3 1425.75L659.24 1418.66C661.01 1419.04 663.54 1419.23 666.9 1419.23C667.53 1419.23 668.23 1419.23 669.12 1419.17C670.64 1419.11 670.95 1419.11 671.65 1419.11V1414.93C671.65 1411.32 671.59 1409.68 671.27 1407.65H679.18C678.86 1409.68 678.8 1411 678.8 1414.55V1418.6C683.55 1418.03 687.79 1417.21 691.02 1416.19L691.27 1423.28C690.13 1423.47 688.93 1423.66 684.56 1424.42C682.47 1424.8 681.21 1424.99 678.8 1425.24V1433.47C683.1 1432.2 687.09 1431.7 691.71 1431.7C702.28 1431.7 709.81 1438.16 709.81 1447.14C709.81 1455.37 703.67 1461.57 695.44 1461.57C690.31 1461.57 686.7 1459.1 685.06 1454.54C684.24 1452.39 683.98 1450.3 683.98 1446.44C687.21 1445.55 688.28 1445.11 691.01 1443.65C690.88 1444.85 690.88 1445.42 690.88 1446.44C690.88 1449.1 691.13 1450.81 691.77 1452.01C692.47 1453.34 693.99 1454.16 695.76 1454.16C699.49 1454.16 702.15 1451.19 702.15 1447.13C702.15 1441.69 697.72 1438.14 690.95 1438.14C687.15 1438.14 683.29 1438.84 678.8 1440.23L678.86 1452.7L678.85 1452.71ZM671.7 1442.52C666.95 1445.05 664.17 1447.84 664.17 1450.11C664.17 1451.19 664.8 1452.14 666.26 1453.02C667.53 1453.91 669.11 1454.41 670.31 1454.41C671.39 1454.41 671.7 1453.84 671.7 1451.75V1442.51V1442.52ZM706.76 1429.73C703.59 1424.73 698.97 1419.73 694.1 1416.06L700.05 1412.07C705.56 1416.31 709.23 1420.11 712.58 1425.04L706.76 1429.72V1429.73Z" fill="black"/>
<path d="M728.92 1445.11C728.92 1442.58 728.92 1441 729.05 1438.34C727.34 1440.37 726.33 1441.31 724.11 1443.09C723.22 1440.3 722.53 1438.79 721.14 1436.38C725.7 1433.28 729.05 1429.92 732.47 1425.05C733.55 1423.53 734.5 1421.76 735.32 1419.86L741.02 1423.85C740.45 1424.67 740.26 1424.93 739.75 1425.75C738.23 1428.22 737.98 1428.54 735.64 1431.57V1457.58C735.64 1461.06 735.7 1462.71 735.96 1464.73H728.55C728.8 1462.96 728.93 1461.06 728.93 1457.96V1445.11H728.92ZM740.57 1409.86C737.28 1414.16 736.84 1414.67 735.19 1416.38C732.28 1419.42 729.18 1421.89 725.44 1424.17C724.36 1421.7 723.48 1420.31 721.77 1418.41C728.1 1414.8 732.53 1410.62 735 1405.81L740.57 1409.86ZM744.05 1447.14C741.46 1447.14 739.87 1447.2 738.1 1447.39V1440.93C739.81 1441.18 741.39 1441.25 744.11 1441.25H765.19V1438.09H744.81C742.28 1438.09 740.51 1438.15 738.86 1438.34V1432.2C740.44 1432.39 741.58 1432.45 744.87 1432.45H773.16C776.13 1432.45 777.72 1432.39 779.3 1432.13V1438.33C777.59 1438.14 775.88 1438.08 773.29 1438.08H771.9V1441.24H773.55C776.27 1441.24 778.11 1441.18 779.75 1440.92V1447.44C778.1 1447.19 776.39 1447.12 773.74 1447.12H771.91V1458.2C771.91 1462.82 770.07 1464.09 763.37 1464.09C762.1 1464.09 759.76 1464.03 756.85 1463.9C756.53 1461.31 756.22 1459.98 755.33 1457.63L752.04 1460.54C749.44 1456.11 747.61 1453.89 743.87 1450.41L748.43 1447.12H744.06L744.05 1447.14ZM749.24 1429.67C746.77 1429.67 744.56 1429.73 743.35 1429.86C743.48 1427.96 743.54 1426.51 743.54 1423.66V1414.17C743.54 1411.51 743.48 1410.25 743.35 1408.35C745.06 1408.54 746.7 1408.6 749.74 1408.6H769.3C772.4 1408.6 774.24 1408.54 775.76 1408.35C775.57 1410.25 775.51 1411.89 775.51 1414.55V1423.66C775.51 1426.45 775.57 1428.09 775.76 1429.86C774.3 1429.73 772.09 1429.67 769.94 1429.67H749.24ZM749.87 1447.14C752.72 1449.73 753.98 1451.19 757.53 1455.68L755.95 1457.07C758.8 1457.45 761.39 1457.7 762.85 1457.7C764.75 1457.7 765.19 1457.45 765.19 1456.18V1447.13H749.87V1447.14ZM750.06 1416.69H768.8V1413.9H750.06V1416.69ZM750.06 1424.6H768.8V1421.62H750.06V1424.6Z" fill="black"/>
<path d="M868 1275.08H98V1279.19H868V1275.08Z" fill="black"/>
<path d="M963 927.29V38C963 18.67 947.33 3 928 3H38C18.67 3 3 18.67 3 38V927.29C22.72 927.29 38.71 943.28 38.71 963C38.71 982.72 22.72 998.71 3 998.71V1768C3 1787.33 18.67 1803 38 1803H928C947.33 1803 963 1787.33 963 1768V998.71C943.28 998.71 927.29 982.72 927.29 963C927.29 943.28 943.28 927.29 963 927.29Z" stroke="black" stroke-width="6" stroke-miterlimit="10"/>
<path d="M855.65 468.66C851.78 468.66 848.54 465.64 848.32 461.73C843.59 378.62 811.79 301.85 756.37 239.74C753.67 236.71 753.93 232.06 756.96 229.36C759.99 226.66 764.63 226.92 767.34 229.95C825 294.57 858.07 374.43 863 460.89C863.23 464.94 860.13 468.42 856.08 468.65C855.94 468.65 855.8 468.66 855.66 468.66H855.65Z" fill="black"/>
<path d="M761.85 738.51C760.11 738.51 758.36 737.89 756.96 736.64C753.93 733.94 753.67 729.29 756.37 726.26C811.79 664.15 843.59 587.38 848.32 504.27C848.55 500.22 852.03 497.11 856.08 497.35C860.13 497.58 863.23 501.05 863 505.11C858.07 591.58 825 671.44 767.34 736.05C765.89 737.68 763.87 738.51 761.85 738.51Z" fill="black"/>
<path d="M110.36 468.66C110.22 468.66 110.08 468.66 109.94 468.65C105.89 468.42 102.79 464.95 103.02 460.89C107.95 374.42 141.02 294.56 198.68 229.95C201.38 226.92 206.03 226.66 209.06 229.36C212.09 232.06 212.35 236.71 209.65 239.74C154.23 301.85 122.43 378.61 117.7 461.73C117.48 465.64 114.24 468.66 110.37 468.66H110.36Z" fill="black"/>
<path d="M204.17 738.51C202.15 738.51 200.13 737.68 198.68 736.05C141.02 671.43 107.95 591.57 103.02 505.11C102.79 501.06 105.89 497.58 109.94 497.35C113.99 497.11 117.47 500.22 117.7 504.27C122.43 587.39 154.23 664.15 209.65 726.26C212.35 729.29 212.09 733.94 209.06 736.64C207.66 737.89 205.91 738.51 204.17 738.51Z" fill="black"/>
<path d="M731.169 211.51C729.429 211.51 727.679 210.89 726.279 209.64C664.169 154.22 587.399 122.42 504.289 117.69C500.239 117.46 497.139 113.99 497.369 109.93C497.599 105.88 501.039 102.79 505.129 103.01C591.599 107.94 671.459 141.01 736.069 198.67C739.099 201.37 739.359 206.02 736.659 209.05C735.209 210.68 733.189 211.51 731.169 211.51Z" fill="black"/>
<path d="M234.85 211.51C232.83 211.51 230.81 210.68 229.36 209.05C226.66 206.02 226.92 201.37 229.95 198.67C294.57 141.01 374.43 107.94 460.89 103.01C464.94 102.78 468.42 105.88 468.65 109.93C468.88 113.98 465.78 117.46 461.73 117.69C378.62 122.42 301.85 154.22 239.74 209.64C238.34 210.89 236.59 211.51 234.85 211.51Z" fill="black"/>
<path d="M504.69 863C500.82 863 497.58 859.98 497.36 856.07C497.13 852.02 500.23 848.54 504.28 848.31C587.4 843.58 664.16 811.78 726.27 756.36C729.3 753.66 733.95 753.92 736.65 756.95C739.35 759.98 739.09 764.63 736.06 767.33C671.44 824.99 591.58 858.06 505.12 862.99C504.98 862.99 504.84 863 504.7 863H504.69Z" fill="black"/>
<path d="M461.32 863C461.18 863 461.04 863 460.9 862.99C374.43 858.06 294.57 824.99 229.96 767.33C226.93 764.63 226.67 759.98 229.37 756.95C232.07 753.92 236.72 753.66 239.75 756.36C301.86 811.78 378.63 843.58 461.74 848.31C465.79 848.54 468.89 852.01 468.66 856.07C468.44 859.98 465.2 863 461.33 863H461.32Z" fill="black"/>
<path d="M818.38 469.19C815.37 469.19 812.85 466.84 812.68 463.8C808.41 388.79 779.71 319.52 729.7 263.46C727.6 261.1 727.8 257.49 730.16 255.39C732.51 253.29 736.13 253.49 738.23 255.85C789.98 313.85 819.68 385.54 824.1 463.15C824.28 466.3 821.87 469 818.72 469.18C818.61 469.18 818.5 469.18 818.39 469.18L818.38 469.19Z" fill="black"/>
<path d="M733.96 712.06C732.6 712.06 731.25 711.58 730.16 710.61C727.8 708.51 727.6 704.89 729.7 702.54C779.71 646.49 808.41 577.21 812.68 502.2C812.86 499.05 815.55 496.64 818.71 496.82C821.86 497 824.27 499.7 824.09 502.85C819.67 580.47 789.98 652.15 738.22 710.15C737.09 711.42 735.52 712.06 733.95 712.06H733.96Z" fill="black"/>
<path d="M147.63 469.19C147.52 469.19 147.41 469.19 147.3 469.19C144.15 469.01 141.74 466.31 141.92 463.16C146.34 385.54 176.03 313.86 227.79 255.86C229.89 253.5 233.51 253.3 235.86 255.4C238.22 257.5 238.42 261.12 236.32 263.47C186.31 319.52 157.61 388.8 153.34 463.81C153.17 466.85 150.65 469.2 147.64 469.2L147.63 469.19Z" fill="black"/>
<path d="M232.05 712.06C230.48 712.06 228.91 711.41 227.78 710.15C176.03 652.15 146.33 580.46 141.91 502.85C141.73 499.7 144.14 497 147.29 496.82C150.45 496.63 153.14 499.05 153.32 502.2C157.59 577.21 186.29 646.49 236.3 702.54C238.4 704.9 238.2 708.51 235.84 710.61C234.75 711.58 233.39 712.06 232.04 712.06H232.05Z" fill="black"/>
<path d="M706.35 237.76C704.99 237.76 703.64 237.28 702.55 236.31C646.5 186.3 577.22 157.6 502.21 153.33C499.06 153.15 496.65 150.45 496.83 147.3C497.01 144.15 499.7 141.74 502.86 141.92C580.48 146.34 652.16 176.03 710.16 227.79C712.52 229.89 712.72 233.51 710.62 235.86C709.49 237.13 707.92 237.77 706.35 237.77V237.76Z" fill="black"/>
<path d="M259.66 237.76C258.09 237.76 256.52 237.11 255.39 235.85C253.29 233.49 253.49 229.88 255.85 227.78C313.85 176.03 385.54 146.33 463.15 141.91C466.3 141.72 469 144.14 469.18 147.29C469.36 150.44 466.95 153.14 463.8 153.32C388.79 157.59 319.52 186.29 263.46 236.3C262.37 237.27 261.01 237.75 259.66 237.75V237.76Z" fill="black"/>
<path d="M502.53 824.1C499.52 824.1 497 821.75 496.83 818.71C496.65 815.56 499.06 812.86 502.21 812.68C577.22 808.41 646.49 779.71 702.55 729.7C704.9 727.6 708.52 727.8 710.62 730.16C712.72 732.52 712.52 736.13 710.16 738.23C652.16 789.98 580.47 819.68 502.86 824.1C502.75 824.1 502.64 824.1 502.53 824.1Z" fill="black"/>
<path d="M463.49 824.1C463.38 824.1 463.27 824.1 463.16 824.1C385.54 819.68 313.86 789.99 255.86 738.23C253.5 736.13 253.3 732.51 255.4 730.16C257.5 727.8 261.12 727.6 263.47 729.7C319.52 779.72 388.8 808.41 463.81 812.68C466.96 812.86 469.37 815.56 469.19 818.71C469.02 821.75 466.5 824.1 463.49 824.1Z" fill="black"/>
<path d="M784.849 469.51C782.699 469.51 780.899 467.83 780.779 465.66C776.919 397.91 750.999 335.34 705.829 284.71C704.329 283.03 704.479 280.45 706.159 278.94C707.839 277.44 710.419 277.58 711.929 279.27C758.349 331.29 784.979 395.58 788.939 465.19C789.069 467.44 787.349 469.37 785.089 469.5C785.009 469.5 784.929 469.5 784.849 469.5V469.51Z" fill="black"/>
<path d="M708.869 688.1C707.899 688.1 706.929 687.76 706.149 687.06C704.469 685.56 704.319 682.98 705.819 681.29C750.989 630.66 776.909 568.09 780.769 500.34C780.899 498.09 782.859 496.39 785.079 496.49C787.329 496.62 789.049 498.55 788.929 500.8C784.959 570.41 758.329 634.7 711.919 686.72C711.109 687.62 709.989 688.08 708.869 688.08V688.1Z" fill="black"/>
<path d="M181.17 469.51C181.09 469.51 181.01 469.51 180.93 469.51C178.68 469.38 176.96 467.45 177.08 465.2C181.05 395.59 207.68 331.3 254.09 279.28C255.59 277.6 258.17 277.45 259.86 278.95C261.54 280.45 261.69 283.03 260.19 284.72C215.02 335.35 189.1 397.92 185.24 465.67C185.12 467.84 183.32 469.52 181.17 469.52V469.51Z" fill="black"/>
<path d="M257.14 688.1C256.02 688.1 254.9 687.64 254.09 686.74C207.67 634.72 181.04 570.43 177.08 500.82C176.95 498.57 178.67 496.64 180.93 496.51C183.17 496.4 185.11 498.1 185.24 500.36C189.1 568.11 215.02 630.68 260.19 681.31C261.69 682.99 261.54 685.57 259.86 687.08C259.08 687.77 258.11 688.12 257.14 688.12V688.1Z" fill="black"/>
<path d="M684.02 261.22C683.05 261.22 682.08 260.88 681.3 260.18C630.67 215.01 568.1 189.09 500.35 185.23C498.1 185.1 496.38 183.17 496.5 180.92C496.63 178.67 498.55 176.96 500.81 177.07C570.42 181.04 634.71 207.67 686.74 254.08C688.42 255.58 688.57 258.16 687.07 259.85C686.26 260.75 685.14 261.21 684.02 261.21V261.22Z" fill="black"/>
<path d="M282 261.22C280.88 261.22 279.76 260.76 278.95 259.86C277.45 258.18 277.6 255.6 279.28 254.09C331.3 207.67 395.59 181.04 465.2 177.08C467.45 176.96 469.38 178.67 469.51 180.93C469.64 183.18 467.92 185.11 465.66 185.24C397.91 189.1 335.34 215.02 284.71 260.19C283.93 260.88 282.96 261.23 281.99 261.23L282 261.22Z" fill="black"/>
<path d="M500.57 788.93C498.42 788.93 496.62 787.25 496.5 785.08C496.37 782.83 498.09 780.9 500.35 780.77C568.1 776.91 630.67 750.99 681.3 705.82C682.98 704.32 685.56 704.47 687.07 706.15C688.57 707.83 688.42 710.41 686.74 711.92C634.72 758.34 570.43 784.97 500.81 788.93C500.73 788.93 500.65 788.93 500.57 788.93Z" fill="black"/>
<path d="M465.44 788.93C465.36 788.93 465.28 788.93 465.2 788.93C395.59 784.96 331.3 758.33 279.28 711.92C277.6 710.42 277.45 707.84 278.95 706.15C280.45 704.47 283.03 704.32 284.72 705.82C335.35 750.99 397.92 776.91 465.67 780.77C467.92 780.9 469.64 782.83 469.52 785.08C469.4 787.25 467.6 788.93 465.45 788.93H465.44Z" fill="black"/>
<path d="M263.65 489.17C263.65 487.6 264.79 486.27 266.34 486.02C267.64 485.81 269.27 485.52 270.98 485.12C275.4 484.08 280.59 482.11 286.41 479.27C292.29 476.4 297.92 472.41 302.17 466.67C309.34 456.97 310.86 444.4 311.19 439.89C311.26 438.97 310.53 438.19 309.6 438.19H260.09C258.33 438.19 256.91 436.76 256.91 435.01V413.69C256.91 411.93 258.34 410.51 260.09 410.51H310.07C310.95 410.51 311.66 409.8 311.66 408.92V390.18C311.66 389.3 310.95 388.59 310.07 388.59H271.62C269.86 388.59 268.44 387.16 268.44 385.41V364.09C268.44 362.33 269.87 360.91 271.62 360.91H371.96C373.72 360.91 375.14 362.34 375.14 364.09V385.41C375.14 387.17 373.71 388.59 371.96 388.59H341.52C340.64 388.59 339.93 389.3 339.93 390.18V408.92C339.93 409.8 340.64 410.51 341.52 410.51H381.58C383.34 410.51 384.76 411.94 384.76 413.69V435.01C384.76 436.77 383.33 438.19 381.58 438.19H341.39C340.54 438.19 339.84 438.86 339.8 439.71C339.57 444.75 338.15 461.44 329.18 475.85C323.73 484.61 316.65 491.26 309.54 496.54C302.41 501.84 295.26 505.93 288.27 508.7C281.24 511.49 275.34 513.44 270.75 514.51C269.66 514.76 268.49 514.99 267.4 515.18C265.45 515.53 263.66 514.03 263.66 512.04V489.16L263.65 489.17Z" fill="black"/>
<path d="M417.55 489.52C417.55 488.06 418.55 486.79 419.96 486.43C428.21 484.36 431.93 483.11 439.84 479.32C439.84 479.32 443.89 477.21 447.93 474.3C460.11 465.54 468.22 453.63 468.22 453.63C477.68 440.28 480.77 417.91 481.49 411.49C481.6 410.55 480.86 409.72 479.91 409.72H443.58C443.35 409.72 443.14 409.84 443.03 410.04L442.88 410.29C437.3 421.11 429.88 430.99 423.45 437.24C417 443.5 411.59 448.05 407.38 450.75L404.78 452.42C403.72 453.1 402.33 452.34 402.33 451.08V422.89C402.33 421.95 402.75 421.06 403.47 420.45C404.12 419.9 404.99 419.13 406.18 418.06C408.94 415.57 412.05 411.51 415.42 405.98C418.76 400.51 422.35 393.21 426.07 384.29C429.45 376.2 431.98 366.09 433.86 355.06C434.12 353.53 435.45 352.42 437 352.42H456.91C458.91 352.42 460.42 354.25 460.04 356.21C459.4 359.52 458.71 363.88 457.85 367.31C456.58 372.39 455.76 375.3 454.24 379.72C453.98 380.47 454.54 381.24 455.33 381.24H534.18C535.94 381.24 537.36 382.67 537.36 384.42V406.51C537.36 408.27 535.93 409.69 534.18 409.69H511.14C510.33 409.69 509.64 410.3 509.56 411.11C508.93 417.01 505.88 440.16 495.39 460.26C481.29 489 451.14 509.39 421.34 515.13C419.38 515.51 417.56 514 417.56 512V489.48L417.55 489.52Z" fill="black"/>
<path d="M618.899 354.03V411.87C618.899 412.75 619.609 413.46 620.489 413.46H707.519C708.399 413.46 709.109 412.75 709.109 411.87V354.03C709.109 353.15 708.399 352.44 707.519 352.44H620.489C619.609 352.44 618.899 353.15 618.899 354.03ZM681.459 395.74H645.299C644.419 395.74 643.709 395.03 643.709 394.15V389.87C643.709 388.99 644.419 388.28 645.299 388.28H681.459C682.339 388.28 683.049 388.99 683.049 389.87V394.15C683.049 395.03 682.339 395.74 681.459 395.74ZM681.459 377.45H645.299C644.419 377.45 643.709 376.74 643.709 375.86V371.75C643.709 370.87 644.419 370.16 645.299 370.16H681.459C682.339 370.16 683.049 370.87 683.049 371.75V375.86C683.049 376.74 682.339 377.45 681.459 377.45Z" fill="black"/>
<path d="M617.23 440.34H671.27C672.15 440.34 672.86 441.05 672.86 441.93V445.84C672.86 446.72 672.15 447.43 671.27 447.43H610.76C609 447.43 607.58 448.86 607.58 450.61V465.86C607.58 467.62 609.01 469.04 610.76 469.04H671.27C672.15 469.04 672.86 469.75 672.86 470.63V488.39C672.86 489.11 672.94 490.98 672.22 491.85C671.39 492.87 670.15 492.67 668.85 492.72C665.54 492.72 662.58 492.7 659.95 492.66C659.55 492.66 659.26 492.29 659.34 491.9C659.6 490.63 659.73 489.31 659.7 487.96C659.5 478.68 651.94 471.08 642.66 470.84C632.58 470.58 624.37 478.85 624.71 488.94C625.02 498.29 632.79 505.81 642.15 505.84C647.04 505.85 651.46 503.86 654.64 500.64C654.98 500.3 655.55 500.43 655.7 500.88C657.16 505.21 658.54 509.34 659.79 513.05C660.23 514.35 661.46 515.22 662.83 515.21C668.73 515.17 673.51 514.96 677.18 514.6C681.31 514.18 685.09 513.15 688.52 511.5C692.18 509.84 694.69 507.42 696.05 504.23C697.41 501.04 698.09 496.55 698.09 490.76V470.62C698.09 469.74 698.8 469.03 699.68 469.03H705.91C707.67 469.03 709.09 467.6 709.09 465.85V450.6C709.09 448.84 707.66 447.42 705.91 447.42H699.68C698.8 447.42 698.09 446.71 698.09 445.83V441.92C698.09 441.04 698.8 440.33 699.68 440.33H705.91C707.67 440.33 709.09 438.9 709.09 437.15V422.6C709.09 420.84 707.66 419.42 705.91 419.42H617.21C615.45 419.42 614.03 420.85 614.03 422.6V437.15C614.03 438.91 615.46 440.33 617.21 440.33L617.23 440.34Z" fill="black"/>
<path d="M611.83 352.44H593.26C592.4 352.44 591.58 352.79 590.98 353.4C578.23 366.35 561.29 377.57 555.13 381.48C553.78 382.33 553.28 384.06 553.95 385.5L563.7 406.57C564.63 408.57 567.26 409.05 568.83 407.5C589.12 387.46 607.45 362.8 613.12 354.96C613.88 353.91 613.12 352.44 611.83 352.44Z" fill="black"/>
<path d="M614.92 396.89V378.41C614.92 377 613.22 376.29 612.21 377.28C596.64 392.6 563.05 420.06 554.68 426.86C553.55 427.78 553.19 429.35 553.8 430.67L563.7 452.05C564.63 454.05 567.26 454.53 568.83 452.98C570.54 451.29 572.24 449.56 573.92 447.82C574.32 447.41 575.02 447.69 575.02 448.26V512.06C575.02 513.82 576.45 515.24 578.2 515.24H596.82C598.58 515.24 600 513.81 600 512.06V419.37C600 418.3 600.36 417.25 601.03 416.41C607.87 407.73 612.72 401.02 614.34 398.74C614.72 398.2 614.93 397.56 614.93 396.89H614.92Z" fill="black"/>
<path d="M596.27 566.33C583.85 566.33 577.81 571.28 577.81 581.47V598.6C577.81 608.67 583.85 613.56 596.27 613.56C602.14 613.56 606.48 612.48 609.56 610.27C613 607.8 614.74 603.87 614.74 598.59V581.46C614.74 571.27 608.7 566.32 596.28 566.32L596.27 566.33ZM589.09 582.3C589.09 576.93 591.84 575.91 596.27 575.91C600.7 575.91 603.45 576.95 603.45 582.3V597.68C603.45 602.95 600.6 603.98 596.27 603.98C591.94 603.98 589.09 602.98 589.09 597.68V582.3Z" fill="black"/>
<path d="M651.27 612.33H664.36L646.63 589.78L663.56 567.8H650.4L637.06 585.28V553.23H625.77V612.33H637.06V602.21L639.95 598.45L651.27 612.33Z" fill="black"/>
<path d="M697.82 567.8V596.29C697.82 602.04 694.88 603.89 689.83 603.89C686.56 603.89 683.28 603.35 683.28 596.88V567.81H672V599.77C672 608.74 676.71 613.48 685.62 613.48C692.3 613.48 696.88 609.86 698.58 605.8L700.39 612.34H709.11V567.81H697.83L697.82 567.8Z" fill="black"/>
<path d="M573.57 553.23H532.15V563.14V563.15H547.22V612.33H558.69V563.15H573.57V553.23Z" fill="black"/>
<path d="M402.69 612.33H415.78L398.05 589.78L414.98 567.8H401.82L388.48 585.28V553.23H377.2V612.33H388.48V602.21L391.37 598.45L402.69 612.33Z" fill="black"/>
<path d="M298.33 553.23H256.91V563.14V563.15H271.99V612.33H283.45V563.15H298.33V553.23Z" fill="black"/>
<path d="M364.8 601.89L364.2 602.04C360.62 602.96 356.29 603.89 352.41 603.89C347.86 603.89 344.69 601.82 344.69 595.83V583.97C344.69 577.9 347.86 575.82 352.41 575.82C356.36 575.82 360.88 576.7 364.23 577.4L364.81 577.52V568.19L364.5 568.12C360.69 567.23 355.05 566.33 350.53 566.33C345.01 566.33 340.97 567.4 338.17 569.59C334.97 572.09 333.42 576.85 333.42 582.34V597.64C333.42 607.77 339.02 613.56 350.54 613.56C354.41 613.56 360.27 612.49 364.53 611.31L364.82 611.23V601.88L364.8 601.89Z" fill="black"/>
<path d="M496.93 577.7V567.8H486.69V558.19H475.41V567.8H468.18V577.7H475.41V598.42C475.41 610.94 483.3 613.56 489.93 613.56C491.71 613.56 493.51 613.45 495.12 613.22V603.26C494.47 603.33 493.26 603.36 492.54 603.36C489.46 603.36 486.69 602.73 486.69 595.09V577.69H496.93V577.7Z" fill="black"/>
<path d="M432.739 593.74V593.56H458.169V584.48C458.169 578.57 456.549 573.24 453.359 570.34C450.419 567.67 445.779 566.31 440.259 566.31C428.079 566.31 421.459 572.22 421.459 582.59V597.45C421.459 607.7 426.839 613.55 439.319 613.55C443.979 613.55 449.289 612.56 454.969 611.4L455.359 611.32V602.05L454.709 602.2C450.139 603.25 447.619 604.14 443.289 604.14C437.079 604.14 432.739 601.62 432.739 595.2V593.72V593.74ZM432.739 582.72C432.739 577.07 436.799 575.74 440.169 575.74C443.539 575.74 447.069 577.07 447.069 582.72V586.23H432.739V585.71V582.72Z" fill="black"/>
<path d="M321.179 569.88H309.899V612.33H321.179V569.88Z" fill="black"/>
<path d="M315.54 565.22C319.422 565.22 322.57 562.073 322.57 558.19C322.57 554.307 319.422 551.16 315.54 551.16C311.657 551.16 308.51 554.307 308.51 558.19C308.51 562.073 311.657 565.22 315.54 565.22Z" fill="black"/>
<path d="M528.74 586.92H509.15V594.26H528.74V586.92Z" fill="black"/>
</svg>
