<svg width="760" height="760" viewBox="0 0 760 760" fill="none" xmlns="http://www.w3.org/2000/svg">
<path d="M752.642 365.66C748.772 365.66 745.532 362.64 745.312 358.73C740.582 275.62 708.782 198.85 653.362 136.74C650.662 133.71 650.922 129.06 653.952 126.36C656.982 123.66 661.622 123.92 664.332 126.95C721.992 191.57 755.062 271.43 759.992 357.89C760.222 361.94 757.122 365.42 753.072 365.65C752.932 365.65 752.792 365.66 752.652 365.66H752.642Z" fill="black"/>
<path d="M658.842 635.51C657.102 635.51 655.352 634.89 653.952 633.64C650.922 630.94 650.662 626.29 653.362 623.26C708.782 561.15 740.582 484.38 745.312 401.27C745.542 397.22 749.022 394.11 753.072 394.35C757.122 394.58 760.222 398.05 759.992 402.11C755.062 488.58 721.992 568.44 664.332 633.05C662.882 634.68 660.862 635.51 658.842 635.51Z" fill="black"/>
<path d="M7.35201 365.66C7.21201 365.66 7.07201 365.66 6.93201 365.65C2.88201 365.42 -0.217986 361.95 0.0120143 357.89C4.94201 271.42 38.012 191.56 95.672 126.95C98.372 123.92 103.022 123.66 106.052 126.36C109.082 129.06 109.342 133.71 106.642 136.74C51.222 198.85 19.422 275.61 14.692 358.73C14.472 362.64 11.232 365.66 7.36201 365.66H7.35201Z" fill="black"/>
<path d="M101.162 635.51C99.142 635.51 97.122 634.68 95.672 633.05C38.012 568.43 4.94201 488.57 0.0120143 402.11C-0.217986 398.06 2.88201 394.58 6.93201 394.35C10.982 394.11 14.462 397.22 14.692 401.27C19.422 484.39 51.222 561.15 106.642 623.26C109.342 626.29 109.082 630.94 106.052 633.64C104.652 634.89 102.902 635.51 101.162 635.51Z" fill="black"/>
<path d="M628.162 108.51C626.422 108.51 624.672 107.89 623.272 106.64C561.162 51.2201 484.392 19.4201 401.282 14.6901C397.232 14.4601 394.132 10.9901 394.362 6.93008C394.592 2.88008 398.032 -0.209922 402.122 0.010078C488.592 4.94008 568.452 38.0101 633.062 95.6701C636.092 98.3701 636.352 103.02 633.652 106.05C632.202 107.68 630.182 108.51 628.162 108.51Z" fill="black"/>
<path d="M131.842 108.51C129.822 108.51 127.802 107.68 126.352 106.05C123.652 103.02 123.912 98.3701 126.942 95.6701C191.562 38.0101 271.422 4.94006 357.882 0.0100612C361.932 -0.219939 365.412 2.88006 365.642 6.93006C365.872 10.9801 362.772 14.4601 358.722 14.6901C275.612 19.4201 198.842 51.2201 136.732 106.64C135.332 107.89 133.582 108.51 131.842 108.51Z" fill="black"/>
<path d="M401.682 760C397.812 760 394.572 756.98 394.352 753.07C394.122 749.02 397.222 745.54 401.272 745.31C484.392 740.58 561.152 708.78 623.262 653.36C626.292 650.66 630.942 650.92 633.642 653.95C636.342 656.98 636.082 661.63 633.052 664.33C568.432 721.99 488.572 755.06 402.112 759.99C401.972 759.99 401.832 760 401.692 760H401.682Z" fill="black"/>
<path d="M358.312 760C358.172 760 358.032 760 357.892 759.99C271.422 755.06 191.562 721.99 126.952 664.33C123.922 661.63 123.662 656.98 126.362 653.95C129.062 650.92 133.712 650.66 136.742 653.36C198.852 708.78 275.622 740.58 358.732 745.31C362.782 745.54 365.882 749.01 365.652 753.07C365.432 756.98 362.192 760 358.322 760H358.312Z" fill="black"/>
<path d="M715.372 366.19C712.362 366.19 709.842 363.84 709.672 360.8C705.402 285.79 676.702 216.52 626.692 160.46C624.592 158.1 624.792 154.49 627.152 152.39C629.502 150.29 633.122 150.49 635.222 152.85C686.972 210.85 716.672 282.54 721.092 360.15C721.272 363.3 718.862 366 715.712 366.18C715.602 366.18 715.492 366.18 715.382 366.18L715.372 366.19Z" fill="black"/>
<path d="M630.952 609.06C629.592 609.06 628.242 608.58 627.152 607.61C624.792 605.51 624.592 601.89 626.692 599.54C676.702 543.49 705.402 474.21 709.672 399.2C709.852 396.05 712.542 393.64 715.702 393.82C718.852 394 721.262 396.7 721.082 399.85C716.662 477.47 686.972 549.15 635.212 607.15C634.082 608.42 632.512 609.06 630.942 609.06H630.952Z" fill="black"/>
<path d="M44.6218 366.19C44.5118 366.19 44.4018 366.19 44.2918 366.19C41.1418 366.01 38.7318 363.31 38.9118 360.16C43.3318 282.54 73.0218 210.86 124.782 152.86C126.882 150.5 130.502 150.3 132.852 152.4C135.212 154.5 135.412 158.12 133.312 160.47C83.3018 216.52 54.6018 285.8 50.3318 360.81C50.1618 363.85 47.6418 366.2 44.6318 366.2L44.6218 366.19Z" fill="black"/>
<path d="M129.042 609.06C127.472 609.06 125.902 608.41 124.772 607.15C73.022 549.15 43.322 477.46 38.902 399.85C38.722 396.7 41.132 394 44.282 393.82C47.442 393.63 50.132 396.05 50.312 399.2C54.582 474.21 83.282 543.49 133.292 599.54C135.392 601.9 135.192 605.51 132.832 607.61C131.742 608.58 130.382 609.06 129.032 609.06H129.042Z" fill="black"/>
<path d="M603.342 134.76C601.982 134.76 600.632 134.28 599.542 133.31C543.492 83.3001 474.212 54.6001 399.202 50.3301C396.052 50.1501 393.642 47.4501 393.822 44.3001C394.002 41.1501 396.692 38.7401 399.852 38.9201C477.472 43.3401 549.152 73.0301 607.152 124.79C609.512 126.89 609.712 130.51 607.612 132.86C606.482 134.13 604.912 134.77 603.342 134.77V134.76Z" fill="black"/>
<path d="M156.652 134.76C155.082 134.76 153.512 134.11 152.382 132.85C150.282 130.49 150.482 126.88 152.842 124.78C210.842 73.0301 282.532 43.3301 360.142 38.9101C363.292 38.7201 365.992 41.1401 366.172 44.2901C366.352 47.4401 363.942 50.1401 360.792 50.3201C285.782 54.5901 216.512 83.2901 160.452 133.3C159.362 134.27 158.002 134.75 156.652 134.75V134.76Z" fill="black"/>
<path d="M399.522 721.1C396.512 721.1 393.992 718.75 393.822 715.71C393.642 712.56 396.052 709.86 399.202 709.68C474.212 705.41 543.482 676.71 599.542 626.7C601.892 624.6 605.512 624.8 607.612 627.16C609.712 629.52 609.512 633.13 607.152 635.23C549.152 686.98 477.462 716.68 399.852 721.1C399.742 721.1 399.632 721.1 399.522 721.1Z" fill="black"/>
<path d="M360.482 721.1C360.372 721.1 360.262 721.1 360.152 721.1C282.532 716.68 210.852 686.99 152.852 635.23C150.492 633.13 150.292 629.51 152.392 627.16C154.492 624.8 158.112 624.6 160.462 626.7C216.512 676.72 285.792 705.41 360.802 709.68C363.952 709.86 366.362 712.56 366.182 715.71C366.012 718.75 363.492 721.1 360.482 721.1Z" fill="black"/>
<path d="M681.841 366.51C679.691 366.51 677.891 364.83 677.771 362.66C673.911 294.91 647.991 232.34 602.821 181.71C601.321 180.03 601.471 177.45 603.151 175.94C604.831 174.44 607.411 174.58 608.921 176.27C655.341 228.29 681.971 292.58 685.931 362.19C686.061 364.44 684.341 366.37 682.081 366.5C682.001 366.5 681.921 366.5 681.841 366.5V366.51Z" fill="black"/>
<path d="M605.862 585.1C604.892 585.1 603.922 584.76 603.142 584.06C601.462 582.56 601.312 579.98 602.812 578.29C647.982 527.66 673.902 465.09 677.762 397.34C677.892 395.09 679.852 393.39 682.072 393.49C684.322 393.62 686.042 395.55 685.922 397.8C681.952 467.41 655.322 531.7 608.912 583.72C608.102 584.62 606.982 585.08 605.862 585.08V585.1Z" fill="black"/>
<path d="M78.1618 366.51C78.0818 366.51 78.0018 366.51 77.9218 366.51C75.6718 366.38 73.9518 364.45 74.0718 362.2C78.0418 292.59 104.672 228.3 151.082 176.28C152.582 174.6 155.162 174.45 156.852 175.95C158.532 177.45 158.682 180.03 157.182 181.72C112.012 232.35 86.0918 294.92 82.2318 362.67C82.1118 364.84 80.3118 366.52 78.1618 366.52V366.51Z" fill="black"/>
<path d="M154.132 585.1C153.012 585.1 151.892 584.64 151.082 583.74C104.662 531.72 78.0319 467.43 74.0719 397.82C73.9419 395.57 75.6618 393.64 77.9218 393.51C80.1618 393.4 82.1019 395.1 82.2319 397.36C86.0919 465.11 112.012 527.68 157.182 578.31C158.682 579.99 158.532 582.57 156.852 584.08C156.072 584.77 155.102 585.12 154.132 585.12V585.1Z" fill="black"/>
<path d="M581.012 158.22C580.042 158.22 579.072 157.88 578.292 157.18C527.662 112.01 465.092 86.09 397.342 82.23C395.092 82.1 393.372 80.17 393.492 77.92C393.622 75.67 395.542 73.96 397.802 74.07C467.412 78.04 531.702 104.67 583.732 151.08C585.412 152.58 585.562 155.16 584.062 156.85C583.252 157.75 582.132 158.21 581.012 158.21V158.22Z" fill="black"/>
<path d="M178.992 158.22C177.872 158.22 176.752 157.76 175.942 156.86C174.442 155.18 174.592 152.6 176.272 151.09C228.292 104.67 292.582 78.0399 362.192 74.0799C364.442 73.9599 366.372 75.6699 366.502 77.9299C366.632 80.1799 364.912 82.1099 362.652 82.2399C294.902 86.0999 232.332 112.02 181.702 157.19C180.922 157.88 179.952 158.23 178.982 158.23L178.992 158.22Z" fill="black"/>
<path d="M397.562 685.93C395.412 685.93 393.612 684.25 393.492 682.08C393.362 679.83 395.082 677.9 397.342 677.77C465.092 673.91 527.662 647.99 578.292 602.82C579.972 601.32 582.552 601.47 584.062 603.15C585.562 604.83 585.412 607.41 583.732 608.92C531.712 655.34 467.422 681.97 397.802 685.93C397.722 685.93 397.642 685.93 397.562 685.93Z" fill="black"/>
<path d="M362.432 685.93C362.352 685.93 362.272 685.93 362.192 685.93C292.582 681.96 228.292 655.33 176.272 608.92C174.592 607.42 174.442 604.84 175.942 603.15C177.442 601.47 180.022 601.32 181.712 602.82C232.342 647.99 294.912 673.91 362.662 677.77C364.912 677.9 366.632 679.83 366.512 682.08C366.392 684.25 364.592 685.93 362.442 685.93H362.432Z" fill="black"/>
<path d="M160.642 386.17C160.642 384.6 161.782 383.27 163.332 383.02C164.632 382.81 166.262 382.52 167.972 382.12C172.392 381.08 177.582 379.11 183.402 376.27C189.282 373.4 194.912 369.41 199.162 363.67C206.332 353.97 207.852 341.4 208.182 336.89C208.252 335.97 207.522 335.19 206.592 335.19H157.082C155.322 335.19 153.902 333.76 153.902 332.01V310.69C153.902 308.93 155.332 307.51 157.082 307.51H207.062C207.942 307.51 208.652 306.8 208.652 305.92V287.18C208.652 286.3 207.942 285.59 207.062 285.59H168.612C166.852 285.59 165.432 284.16 165.432 282.41V261.09C165.432 259.33 166.862 257.91 168.612 257.91H268.952C270.712 257.91 272.132 259.34 272.132 261.09V282.41C272.132 284.17 270.702 285.59 268.952 285.59H238.512C237.632 285.59 236.922 286.3 236.922 287.18V305.92C236.922 306.8 237.632 307.51 238.512 307.51H278.572C280.332 307.51 281.752 308.94 281.752 310.69V332.01C281.752 333.77 280.322 335.19 278.572 335.19H238.382C237.532 335.19 236.832 335.86 236.792 336.71C236.562 341.75 235.142 358.44 226.172 372.85C220.722 381.61 213.642 388.26 206.532 393.54C199.402 398.84 192.252 402.93 185.262 405.7C178.232 408.49 172.332 410.44 167.742 411.51C166.652 411.76 165.482 411.99 164.392 412.18C162.442 412.53 160.652 411.03 160.652 409.04V386.16L160.642 386.17Z" fill="black"/>
<path d="M314.542 386.52C314.542 385.06 315.542 383.79 316.952 383.43C325.202 381.36 328.922 380.11 336.832 376.32C336.832 376.32 340.882 374.21 344.922 371.3C357.102 362.54 365.212 350.63 365.212 350.63C374.672 337.28 377.762 314.91 378.482 308.49C378.592 307.55 377.852 306.72 376.902 306.72H340.572C340.342 306.72 340.132 306.84 340.022 307.04L339.872 307.29C334.292 318.11 326.872 327.99 320.442 334.24C313.992 340.5 308.582 345.05 304.372 347.75L301.772 349.42C300.712 350.1 299.322 349.34 299.322 348.08V319.89C299.322 318.95 299.742 318.06 300.462 317.45C301.112 316.9 301.982 316.13 303.172 315.06C305.932 312.57 309.042 308.51 312.412 302.98C315.752 297.51 319.342 290.21 323.062 281.29C326.442 273.2 328.972 263.09 330.852 252.06C331.112 250.53 332.442 249.42 333.992 249.42H353.902C355.902 249.42 357.412 251.25 357.032 253.21C356.392 256.52 355.702 260.88 354.842 264.31C353.572 269.39 352.752 272.3 351.232 276.72C350.972 277.47 351.532 278.24 352.322 278.24H431.172C432.932 278.24 434.352 279.67 434.352 281.42V303.51C434.352 305.27 432.922 306.69 431.172 306.69H408.132C407.322 306.69 406.632 307.3 406.552 308.11C405.922 314.01 402.872 337.16 392.382 357.26C378.282 386 348.132 406.39 318.332 412.13C316.372 412.51 314.552 411 314.552 409V386.48L314.542 386.52Z" fill="black"/>
<path d="M515.892 251.03V308.87C515.892 309.75 516.602 310.46 517.482 310.46H604.512C605.392 310.46 606.102 309.75 606.102 308.87V251.03C606.102 250.15 605.392 249.44 604.512 249.44H517.482C516.602 249.44 515.892 250.15 515.892 251.03ZM578.452 292.74H542.292C541.412 292.74 540.702 292.03 540.702 291.15V286.87C540.702 285.99 541.412 285.28 542.292 285.28H578.452C579.332 285.28 580.042 285.99 580.042 286.87V291.15C580.042 292.03 579.332 292.74 578.452 292.74ZM578.452 274.45H542.292C541.412 274.45 540.702 273.74 540.702 272.86V268.75C540.702 267.87 541.412 267.16 542.292 267.16H578.452C579.332 267.16 580.042 267.87 580.042 268.75V272.86C580.042 273.74 579.332 274.45 578.452 274.45Z" fill="black"/>
<path d="M514.222 337.34H568.262C569.142 337.34 569.852 338.05 569.852 338.93V342.84C569.852 343.72 569.142 344.43 568.262 344.43H507.752C505.992 344.43 504.572 345.86 504.572 347.61V362.86C504.572 364.62 506.002 366.04 507.752 366.04H568.262C569.142 366.04 569.852 366.75 569.852 367.63V385.39C569.852 386.11 569.932 387.98 569.212 388.85C568.382 389.87 567.142 389.67 565.842 389.72C562.532 389.72 559.572 389.7 556.942 389.66C556.542 389.66 556.252 389.29 556.332 388.9C556.592 387.63 556.722 386.31 556.692 384.96C556.492 375.68 548.932 368.08 539.652 367.84C529.572 367.58 521.362 375.85 521.702 385.94C522.012 395.29 529.782 402.81 539.142 402.84C544.032 402.85 548.452 400.86 551.632 397.64C551.972 397.3 552.542 397.43 552.692 397.88C554.152 402.21 555.532 406.34 556.782 410.05C557.222 411.35 558.452 412.22 559.822 412.21C565.722 412.17 570.502 411.96 574.172 411.6C578.302 411.18 582.082 410.15 585.512 408.5C589.172 406.84 591.682 404.42 593.042 401.23C594.402 398.04 595.082 393.55 595.082 387.76V367.62C595.082 366.74 595.792 366.03 596.672 366.03H602.902C604.662 366.03 606.082 364.6 606.082 362.85V347.6C606.082 345.84 604.652 344.42 602.902 344.42H596.672C595.792 344.42 595.082 343.71 595.082 342.83V338.92C595.082 338.04 595.792 337.33 596.672 337.33H602.902C604.662 337.33 606.082 335.9 606.082 334.15V319.6C606.082 317.84 604.652 316.42 602.902 316.42H514.202C512.442 316.42 511.022 317.85 511.022 319.6V334.15C511.022 335.91 512.452 337.33 514.202 337.33L514.222 337.34Z" fill="black"/>
<path d="M508.822 249.44H490.252C489.392 249.44 488.572 249.79 487.972 250.4C475.222 263.35 458.282 274.57 452.122 278.48C450.772 279.33 450.272 281.06 450.942 282.5L460.692 303.57C461.622 305.57 464.252 306.05 465.822 304.5C486.112 284.46 504.442 259.8 510.112 251.96C510.872 250.91 510.112 249.44 508.822 249.44Z" fill="black"/>
<path d="M511.912 293.89V275.41C511.912 274 510.212 273.29 509.202 274.28C493.632 289.6 460.042 317.06 451.672 323.86C450.542 324.78 450.182 326.35 450.792 327.67L460.692 349.05C461.622 351.05 464.252 351.53 465.822 349.98C467.532 348.29 469.232 346.56 470.912 344.82C471.312 344.41 472.012 344.69 472.012 345.26V409.06C472.012 410.82 473.442 412.24 475.192 412.24H493.812C495.572 412.24 496.992 410.81 496.992 409.06V316.37C496.992 315.3 497.352 314.25 498.022 313.41C504.862 304.73 509.712 298.02 511.332 295.74C511.712 295.2 511.922 294.56 511.922 293.89H511.912Z" fill="black"/>
<path d="M493.262 463.33C480.842 463.33 474.802 468.28 474.802 478.47V495.6C474.802 505.67 480.842 510.56 493.262 510.56C499.132 510.56 503.472 509.48 506.552 507.27C509.992 504.8 511.732 500.87 511.732 495.59V478.46C511.732 468.27 505.692 463.32 493.272 463.32L493.262 463.33ZM486.082 479.3C486.082 473.93 488.832 472.91 493.262 472.91C497.692 472.91 500.442 473.95 500.442 479.3V494.68C500.442 499.95 497.592 500.98 493.262 500.98C488.932 500.98 486.082 499.98 486.082 494.68V479.3Z" fill="black"/>
<path d="M548.262 509.33H561.352L543.622 486.78L560.552 464.8H547.392L534.052 482.28V450.23H522.762V509.33H534.052V499.21L536.942 495.45L548.262 509.33Z" fill="black"/>
<path d="M594.812 464.8V493.29C594.812 499.04 591.872 500.89 586.822 500.89C583.552 500.89 580.272 500.35 580.272 493.88V464.81H568.992V496.77C568.992 505.74 573.702 510.48 582.612 510.48C589.292 510.48 593.872 506.86 595.572 502.8L597.382 509.34H606.102V464.81H594.822L594.812 464.8Z" fill="black"/>
<path d="M470.562 450.23H429.142V460.14V460.15H444.212V509.33H455.682V460.15H470.562V450.23Z" fill="black"/>
<path d="M299.682 509.33H312.772L295.042 486.78L311.972 464.8H298.812L285.472 482.28V450.23H274.192V509.33H285.472V499.21L288.362 495.45L299.682 509.33Z" fill="black"/>
<path d="M195.322 450.23H153.902V460.14V460.15H168.982V509.33H180.442V460.15H195.322V450.23Z" fill="black"/>
<path d="M261.792 498.89L261.192 499.04C257.612 499.96 253.282 500.89 249.402 500.89C244.852 500.89 241.682 498.82 241.682 492.83V480.97C241.682 474.9 244.852 472.82 249.402 472.82C253.352 472.82 257.872 473.7 261.222 474.4L261.802 474.52V465.19L261.492 465.12C257.682 464.23 252.042 463.33 247.522 463.33C242.002 463.33 237.962 464.4 235.162 466.59C231.962 469.09 230.412 473.85 230.412 479.34V494.64C230.412 504.77 236.012 510.56 247.532 510.56C251.402 510.56 257.262 509.49 261.522 508.31L261.812 508.23V498.88L261.792 498.89Z" fill="black"/>
<path d="M393.922 474.7V464.8H383.682V455.19H372.402V464.8H365.172V474.7H372.402V495.42C372.402 507.94 380.292 510.56 386.922 510.56C388.702 510.56 390.502 510.45 392.112 510.22V500.26C391.462 500.33 390.252 500.36 389.532 500.36C386.452 500.36 383.682 499.73 383.682 492.09V474.69H393.922V474.7Z" fill="black"/>
<path d="M329.732 490.74V490.56H355.162V481.48C355.162 475.57 353.542 470.24 350.352 467.34C347.412 464.67 342.772 463.31 337.252 463.31C325.072 463.31 318.452 469.22 318.452 479.59V494.45C318.452 504.7 323.832 510.55 336.312 510.55C340.972 510.55 346.282 509.56 351.962 508.4L352.352 508.32V499.05L351.702 499.2C347.132 500.25 344.612 501.14 340.282 501.14C334.072 501.14 329.732 498.62 329.732 492.2V490.72V490.74ZM329.732 479.72C329.732 474.07 333.792 472.74 337.162 472.74C340.532 472.74 344.062 474.07 344.062 479.72V483.23H329.732V482.71V479.72Z" fill="black"/>
<path d="M218.172 466.88H206.892V509.33H218.172V466.88Z" fill="black"/>
<path d="M212.532 462.22C216.415 462.22 219.562 459.073 219.562 455.19C219.562 451.308 216.415 448.16 212.532 448.16C208.649 448.16 205.502 451.308 205.502 455.19C205.502 459.073 208.649 462.22 212.532 462.22Z" fill="black"/>
<path d="M425.732 483.92H406.142V491.26H425.732V483.92Z" fill="black"/>
</svg>
