<svg width="1080" height="1920" viewBox="0 0 1080 1920" fill="none" xmlns="http://www.w3.org/2000/svg">
<path d="M1080 1920L1080 0L0 0L0 1920H1080Z" fill="#A5D4AD"/>
<path d="M1020 983.72V95C1020 75.67 1004.33 60 985 60H95.58C75.93 60 60 75.93 60 95.58V983.71C60 984.03 60.25 984.28 60.57 984.28C80.03 984.59 95.71 1000.46 95.71 1019.99C95.71 1039.52 80.03 1055.39 60.57 1055.7C60.25 1055.7 60 1055.96 60 1056.27V1824.99C60 1844.32 75.67 1859.99 95 1859.99H985C1004.33 1859.99 1020 1844.32 1020 1824.99V1056.27C1020 1055.95 1019.75 1055.7 1019.43 1055.7C999.97 1055.39 984.29 1039.52 984.29 1019.99C984.29 1000.46 999.97 984.59 1019.43 984.28C1019.75 984.28 1020 984.02 1020 983.71V983.72Z" fill="white"/>
<path d="M60.57 1055.71C60.25 1055.71 60 1055.97 60 1056.28V1825C60 1844.33 75.67 1860 95 1860H985C1004.33 1860 1020 1844.33 1020 1825V1056.28C1020 1055.96 1019.75 1055.71 1019.43 1055.71C999.97 1055.4 984.29 1039.53 984.29 1020H95.71C95.71 1039.53 80.03 1055.4 60.57 1055.71Z" fill="#E5F2E6"/>
<path d="M121 1020H160.9" stroke="black" stroke-width="6" stroke-miterlimit="10"/>
<path d="M187.51 1020H227.41" stroke="black" stroke-width="6" stroke-miterlimit="10"/>
<path d="M254.02 1020H293.92" stroke="black" stroke-width="6" stroke-miterlimit="10"/>
<path d="M320.52 1020H360.43" stroke="black" stroke-width="6" stroke-miterlimit="10"/>
<path d="M387.029 1020H426.939" stroke="black" stroke-width="6" stroke-miterlimit="10"/>
<path d="M453.539 1020H493.439" stroke="black" stroke-width="6" stroke-miterlimit="10"/>
<path d="M520.051 1020H559.951" stroke="black" stroke-width="6" stroke-miterlimit="10"/>
<path d="M586.561 1020H626.461" stroke="black" stroke-width="6" stroke-miterlimit="10"/>
<path d="M653.061 1020H692.971" stroke="black" stroke-width="6" stroke-miterlimit="10"/>
<path d="M719.57 1020H759.48" stroke="black" stroke-width="6" stroke-miterlimit="10"/>
<path d="M786.08 1020H825.98" stroke="black" stroke-width="6" stroke-miterlimit="10"/>
<path d="M852.59 1020H892.49" stroke="black" stroke-width="6" stroke-miterlimit="10"/>
<path d="M919.1 1020H959" stroke="black" stroke-width="6" stroke-miterlimit="10"/>
<path d="M1020 984.29V95C1020 75.67 1004.33 60 985 60H95C75.67 60 60 75.67 60 95V984.29C79.72 984.29 95.71 1000.28 95.71 1020C95.71 1039.72 79.72 1055.71 60 1055.71V1825C60 1844.33 75.67 1860 95 1860H985C1004.33 1860 1020 1844.33 1020 1825V1055.71C1000.28 1055.71 984.29 1039.72 984.29 1020C984.29 1000.28 1000.28 984.29 1020 984.29Z" stroke="black" stroke-width="6" stroke-miterlimit="10"/>
<path d="M912.642 525.66C908.772 525.66 905.532 522.64 905.312 518.73C900.582 435.62 868.782 358.85 813.362 296.74C810.662 293.71 810.922 289.06 813.952 286.36C816.982 283.66 821.622 283.92 824.332 286.95C881.992 351.57 915.062 431.43 919.992 517.89C920.222 521.94 917.122 525.42 913.072 525.65C912.932 525.65 912.792 525.66 912.652 525.66H912.642Z" fill="black"/>
<path d="M818.842 795.509C817.102 795.509 815.352 794.889 813.952 793.639C810.922 790.939 810.662 786.289 813.362 783.259C868.782 721.149 900.582 644.379 905.312 561.269C905.542 557.219 909.022 554.109 913.072 554.349C917.122 554.579 920.222 558.049 919.992 562.109C915.062 648.579 881.992 728.439 824.332 793.049C822.882 794.679 820.862 795.509 818.842 795.509Z" fill="black"/>
<path d="M167.352 525.66C167.212 525.66 167.072 525.66 166.932 525.65C162.882 525.42 159.782 521.95 160.012 517.89C164.942 431.42 198.012 351.56 255.672 286.95C258.372 283.92 263.022 283.66 266.052 286.36C269.082 289.06 269.342 293.71 266.642 296.74C211.222 358.85 179.422 435.61 174.692 518.73C174.472 522.64 171.232 525.66 167.362 525.66H167.352Z" fill="black"/>
<path d="M261.162 795.509C259.142 795.509 257.122 794.679 255.672 793.049C198.012 728.429 164.942 648.569 160.012 562.109C159.782 558.059 162.882 554.579 166.932 554.349C170.982 554.109 174.462 557.219 174.692 561.269C179.422 644.389 211.222 721.149 266.642 783.259C269.342 786.289 269.082 790.939 266.052 793.639C264.652 794.889 262.902 795.509 261.162 795.509Z" fill="black"/>
<path d="M788.162 268.509C786.422 268.509 784.672 267.889 783.272 266.639C721.162 211.219 644.392 179.419 561.282 174.689C557.232 174.459 554.132 170.989 554.362 166.929C554.592 162.879 558.032 159.789 562.122 160.009C648.592 164.939 728.452 198.009 793.062 255.669C796.092 258.369 796.352 263.019 793.652 266.049C792.202 267.679 790.182 268.509 788.162 268.509Z" fill="black"/>
<path d="M291.842 268.51C289.822 268.51 287.802 267.68 286.352 266.05C283.652 263.02 283.912 258.37 286.942 255.67C351.562 198.01 431.422 164.94 517.882 160.01C521.932 159.78 525.412 162.88 525.642 166.93C525.872 170.98 522.772 174.46 518.722 174.69C435.612 179.42 358.842 211.22 296.732 266.64C295.332 267.89 293.582 268.51 291.842 268.51Z" fill="black"/>
<path d="M561.682 920C557.812 920 554.572 916.98 554.352 913.07C554.122 909.02 557.222 905.54 561.272 905.31C644.392 900.58 721.152 868.78 783.262 813.36C786.292 810.66 790.942 810.92 793.642 813.95C796.342 816.98 796.082 821.63 793.052 824.33C728.432 881.99 648.572 915.06 562.112 919.99C561.972 919.99 561.832 920 561.692 920H561.682Z" fill="black"/>
<path d="M518.312 920C518.172 920 518.032 920 517.892 919.99C431.422 915.06 351.562 881.99 286.952 824.33C283.922 821.63 283.662 816.98 286.362 813.95C289.062 810.92 293.712 810.66 296.742 813.36C358.852 868.78 435.622 900.58 518.732 905.31C522.782 905.54 525.882 909.01 525.652 913.07C525.432 916.98 522.192 920 518.322 920H518.312Z" fill="black"/>
<path d="M875.372 526.191C872.362 526.191 869.842 523.841 869.672 520.801C865.402 445.791 836.702 376.521 786.692 320.461C784.592 318.101 784.792 314.491 787.152 312.391C789.502 310.291 793.122 310.491 795.222 312.851C846.972 370.851 876.672 442.541 881.092 520.151C881.272 523.301 878.862 526.001 875.712 526.181C875.602 526.181 875.492 526.181 875.382 526.181L875.372 526.191Z" fill="black"/>
<path d="M790.952 769.062C789.592 769.062 788.242 768.582 787.152 767.612C784.792 765.512 784.592 761.892 786.692 759.542C836.702 703.492 865.402 634.212 869.672 559.202C869.852 556.052 872.542 553.642 875.702 553.822C878.852 554.002 881.262 556.702 881.082 559.852C876.662 637.472 846.972 709.152 795.212 767.152C794.082 768.422 792.512 769.062 790.942 769.062H790.952Z" fill="black"/>
<path d="M204.622 526.191C204.512 526.191 204.402 526.191 204.292 526.191C201.142 526.011 198.732 523.311 198.912 520.161C203.332 442.541 233.022 370.861 284.782 312.861C286.882 310.501 290.502 310.301 292.852 312.401C295.212 314.501 295.412 318.121 293.312 320.471C243.302 376.521 214.602 445.801 210.332 520.811C210.162 523.851 207.642 526.201 204.632 526.201L204.622 526.191Z" fill="black"/>
<path d="M289.042 769.061C287.472 769.061 285.902 768.411 284.772 767.151C233.022 709.151 203.322 637.461 198.902 559.851C198.722 556.701 201.132 554.001 204.282 553.821C207.442 553.631 210.132 556.051 210.312 559.201C214.582 634.211 243.282 703.491 293.292 759.541C295.392 761.901 295.192 765.511 292.832 767.611C291.742 768.581 290.382 769.061 289.032 769.061H289.042Z" fill="black"/>
<path d="M763.342 294.762C761.982 294.762 760.632 294.282 759.542 293.312C703.492 243.302 634.212 214.602 559.202 210.332C556.052 210.152 553.642 207.452 553.822 204.302C554.002 201.152 556.692 198.742 559.852 198.922C637.472 203.342 709.152 233.032 767.152 284.792C769.512 286.892 769.712 290.512 767.612 292.862C766.482 294.132 764.912 294.772 763.342 294.772V294.762Z" fill="black"/>
<path d="M316.651 294.761C315.081 294.761 313.511 294.111 312.381 292.851C310.281 290.491 310.481 286.881 312.841 284.781C370.841 233.031 442.531 203.331 520.141 198.911C523.291 198.721 525.991 201.141 526.171 204.291C526.351 207.441 523.941 210.141 520.791 210.321C445.781 214.591 376.511 243.291 320.451 293.301C319.361 294.271 318.001 294.751 316.651 294.751V294.761Z" fill="black"/>
<path d="M559.522 881.102C556.512 881.102 553.992 878.752 553.822 875.712C553.642 872.562 556.052 869.862 559.202 869.682C634.212 865.412 703.482 836.712 759.542 786.702C761.892 784.602 765.512 784.802 767.612 787.162C769.712 789.522 769.512 793.132 767.152 795.232C709.152 846.982 637.462 876.682 559.852 881.102C559.742 881.102 559.632 881.102 559.522 881.102Z" fill="black"/>
<path d="M520.481 881.102C520.371 881.102 520.261 881.102 520.151 881.102C442.531 876.682 370.851 846.992 312.851 795.232C310.491 793.132 310.291 789.512 312.391 787.162C314.491 784.802 318.111 784.602 320.461 786.702C376.511 836.722 445.791 865.412 520.801 869.682C523.951 869.862 526.361 872.562 526.181 875.712C526.011 878.752 523.491 881.102 520.481 881.102Z" fill="black"/>
<path d="M841.841 526.51C839.691 526.51 837.891 524.83 837.771 522.66C833.911 454.91 807.991 392.34 762.821 341.71C761.321 340.03 761.471 337.45 763.151 335.94C764.831 334.44 767.411 334.58 768.921 336.27C815.341 388.29 841.971 452.58 845.931 522.19C846.061 524.44 844.341 526.37 842.081 526.5C842.001 526.5 841.921 526.5 841.841 526.5V526.51Z" fill="black"/>
<path d="M765.862 745.101C764.892 745.101 763.922 744.761 763.142 744.061C761.462 742.561 761.312 739.981 762.812 738.291C807.982 687.661 833.902 625.091 837.762 557.341C837.892 555.091 839.852 553.391 842.072 553.491C844.322 553.621 846.042 555.551 845.922 557.801C841.952 627.411 815.322 691.701 768.912 743.721C768.102 744.621 766.982 745.081 765.862 745.081V745.101Z" fill="black"/>
<path d="M238.162 526.51C238.082 526.51 238.002 526.51 237.922 526.51C235.672 526.38 233.952 524.45 234.072 522.2C238.042 452.59 264.672 388.3 311.082 336.28C312.582 334.6 315.162 334.45 316.852 335.95C318.532 337.45 318.682 340.03 317.182 341.72C272.012 392.35 246.092 454.92 242.232 522.67C242.112 524.84 240.312 526.52 238.162 526.52V526.51Z" fill="black"/>
<path d="M314.131 745.101C313.011 745.101 311.891 744.641 311.081 743.741C264.661 691.721 238.031 627.431 234.071 557.821C233.941 555.571 235.661 553.641 237.921 553.511C240.161 553.401 242.101 555.101 242.231 557.361C246.091 625.111 272.011 687.681 317.181 738.311C318.681 739.991 318.531 742.571 316.851 744.081C316.071 744.771 315.101 745.121 314.131 745.121V745.101Z" fill="black"/>
<path d="M741.01 318.219C740.04 318.219 739.07 317.879 738.29 317.179C687.66 272.009 625.09 246.089 557.34 242.229C555.09 242.099 553.37 240.169 553.49 237.919C553.62 235.669 555.54 233.959 557.8 234.069C627.41 238.039 691.7 264.669 743.73 311.079C745.41 312.579 745.56 315.159 744.06 316.849C743.25 317.749 742.13 318.209 741.01 318.209V318.219Z" fill="black"/>
<path d="M338.991 318.22C337.871 318.22 336.751 317.76 335.941 316.86C334.441 315.18 334.591 312.6 336.271 311.09C388.291 264.67 452.581 238.04 522.191 234.08C524.441 233.96 526.371 235.67 526.501 237.93C526.631 240.18 524.91 242.11 522.65 242.24C454.9 246.1 392.331 272.02 341.701 317.19C340.921 317.88 339.951 318.23 338.981 318.23L338.991 318.22Z" fill="black"/>
<path d="M557.561 845.929C555.411 845.929 553.611 844.249 553.491 842.079C553.361 839.829 555.081 837.899 557.341 837.769C625.091 833.909 687.661 807.989 738.291 762.819C739.971 761.319 742.551 761.469 744.061 763.149C745.561 764.829 745.411 767.409 743.731 768.919C691.711 815.339 627.421 841.969 557.801 845.929C557.721 845.929 557.641 845.929 557.561 845.929Z" fill="black"/>
<path d="M522.431 845.929C522.351 845.929 522.271 845.929 522.191 845.929C452.581 841.959 388.291 815.329 336.271 768.919C334.591 767.419 334.441 764.839 335.941 763.149C337.441 761.469 340.021 761.319 341.711 762.819C392.341 807.989 454.911 833.909 522.661 837.769C524.911 837.899 526.631 839.829 526.511 842.079C526.391 844.249 524.591 845.929 522.441 845.929H522.431Z" fill="black"/>
<path d="M320.642 546.17C320.642 544.6 321.782 543.27 323.332 543.02C324.632 542.81 326.262 542.52 327.972 542.12C332.392 541.08 337.582 539.11 343.402 536.27C349.282 533.4 354.912 529.41 359.162 523.67C366.332 513.97 367.852 501.4 368.182 496.89C368.252 495.97 367.522 495.19 366.592 495.19H317.082C315.322 495.19 313.902 493.76 313.902 492.01V470.69C313.902 468.93 315.332 467.51 317.082 467.51H367.062C367.942 467.51 368.652 466.8 368.652 465.92V447.18C368.652 446.3 367.942 445.59 367.062 445.59H328.612C326.852 445.59 325.432 444.16 325.432 442.41V421.09C325.432 419.33 326.862 417.91 328.612 417.91H428.952C430.712 417.91 432.132 419.34 432.132 421.09V442.41C432.132 444.17 430.702 445.59 428.952 445.59H398.512C397.632 445.59 396.922 446.3 396.922 447.18V465.92C396.922 466.8 397.632 467.51 398.512 467.51H438.572C440.332 467.51 441.752 468.94 441.752 470.69V492.01C441.752 493.77 440.322 495.19 438.572 495.19H398.382C397.532 495.19 396.832 495.86 396.792 496.71C396.562 501.75 395.142 518.44 386.172 532.85C380.722 541.61 373.642 548.26 366.532 553.54C359.402 558.84 352.252 562.93 345.262 565.7C338.232 568.49 332.332 570.44 327.742 571.51C326.652 571.76 325.482 571.99 324.392 572.18C322.442 572.53 320.652 571.03 320.652 569.04V546.16L320.642 546.17Z" fill="black"/>
<path d="M474.542 546.52C474.542 545.06 475.542 543.79 476.952 543.43C485.202 541.36 488.922 540.11 496.832 536.32C496.832 536.32 500.882 534.21 504.922 531.3C517.102 522.54 525.212 510.63 525.212 510.63C534.672 497.28 537.762 474.91 538.482 468.49C538.592 467.55 537.852 466.72 536.902 466.72H500.572C500.342 466.72 500.132 466.84 500.022 467.04L499.872 467.29C494.292 478.11 486.872 487.99 480.442 494.24C473.992 500.5 468.582 505.05 464.372 507.75L461.772 509.42C460.712 510.1 459.322 509.34 459.322 508.08V479.89C459.322 478.95 459.742 478.06 460.462 477.45C461.112 476.9 461.982 476.13 463.172 475.06C465.932 472.57 469.042 468.51 472.412 462.98C475.752 457.51 479.342 450.21 483.062 441.29C486.442 433.2 488.972 423.09 490.852 412.06C491.112 410.53 492.442 409.42 493.992 409.42H513.902C515.902 409.42 517.412 411.25 517.032 413.21C516.392 416.52 515.702 420.88 514.842 424.31C513.572 429.39 512.752 432.3 511.232 436.72C510.972 437.47 511.532 438.24 512.322 438.24H591.172C592.932 438.24 594.352 439.67 594.352 441.42V463.51C594.352 465.27 592.922 466.69 591.172 466.69H568.132C567.322 466.69 566.632 467.3 566.552 468.11C565.922 474.01 562.872 497.16 552.382 517.26C538.282 546 508.132 566.39 478.332 572.13C476.372 572.51 474.552 571 474.552 569V546.48L474.542 546.52Z" fill="black"/>
<path d="M675.893 411.029V468.869C675.893 469.749 676.603 470.459 677.483 470.459H764.513C765.393 470.459 766.103 469.749 766.103 468.869V411.029C766.103 410.149 765.393 409.439 764.513 409.439H677.483C676.603 409.439 675.893 410.149 675.893 411.029ZM738.453 452.739H702.293C701.413 452.739 700.703 452.029 700.703 451.149V446.869C700.703 445.989 701.413 445.279 702.293 445.279H738.453C739.333 445.279 740.043 445.989 740.043 446.869V451.149C740.043 452.029 739.333 452.739 738.453 452.739ZM738.453 434.449H702.293C701.413 434.449 700.703 433.739 700.703 432.859V428.749C700.703 427.869 701.413 427.159 702.293 427.159H738.453C739.333 427.159 740.043 427.869 740.043 428.749V432.859C740.043 433.739 739.333 434.449 738.453 434.449Z" fill="black"/>
<path d="M674.222 497.34H728.262C729.142 497.34 729.852 498.05 729.852 498.93V502.84C729.852 503.72 729.142 504.43 728.262 504.43H667.752C665.992 504.43 664.572 505.86 664.572 507.61V522.86C664.572 524.62 666.002 526.04 667.752 526.04H728.262C729.142 526.04 729.852 526.75 729.852 527.63V545.39C729.852 546.11 729.932 547.98 729.212 548.85C728.382 549.87 727.142 549.67 725.842 549.72C722.532 549.72 719.572 549.7 716.942 549.66C716.542 549.66 716.252 549.29 716.332 548.9C716.592 547.63 716.722 546.31 716.692 544.96C716.492 535.68 708.932 528.08 699.652 527.84C689.572 527.58 681.362 535.85 681.702 545.94C682.012 555.29 689.782 562.81 699.142 562.84C704.032 562.85 708.452 560.86 711.632 557.64C711.972 557.3 712.542 557.43 712.692 557.88C714.152 562.21 715.532 566.34 716.782 570.05C717.222 571.35 718.452 572.22 719.822 572.21C725.722 572.17 730.502 571.96 734.172 571.6C738.302 571.18 742.082 570.15 745.512 568.5C749.172 566.84 751.682 564.42 753.042 561.23C754.402 558.04 755.082 553.55 755.082 547.76V527.62C755.082 526.74 755.792 526.03 756.672 526.03H762.902C764.662 526.03 766.082 524.6 766.082 522.85V507.6C766.082 505.84 764.652 504.42 762.902 504.42H756.672C755.792 504.42 755.082 503.71 755.082 502.83V498.92C755.082 498.04 755.792 497.33 756.672 497.33H762.902C764.662 497.33 766.082 495.9 766.082 494.15V479.6C766.082 477.84 764.652 476.42 762.902 476.42H674.202C672.442 476.42 671.022 477.85 671.022 479.6V494.15C671.022 495.91 672.452 497.33 674.202 497.33L674.222 497.34Z" fill="black"/>
<path d="M668.822 409.439H650.252C649.392 409.439 648.572 409.789 647.972 410.399C635.222 423.349 618.282 434.569 612.122 438.479C610.772 439.329 610.272 441.059 610.942 442.499L620.692 463.569C621.622 465.569 624.252 466.049 625.822 464.499C646.112 444.459 664.442 419.799 670.112 411.959C670.872 410.909 670.112 409.439 668.822 409.439Z" fill="black"/>
<path d="M671.912 453.889V435.409C671.912 433.999 670.212 433.289 669.202 434.279C653.632 449.599 620.042 477.059 611.672 483.859C610.542 484.779 610.182 486.349 610.792 487.669L620.692 509.049C621.622 511.049 624.252 511.529 625.822 509.979C627.532 508.289 629.232 506.559 630.912 504.819C631.312 504.409 632.012 504.689 632.012 505.259V569.059C632.012 570.819 633.442 572.239 635.192 572.239H653.812C655.572 572.239 656.992 570.809 656.992 569.059V476.369C656.992 475.299 657.352 474.249 658.022 473.409C664.862 464.729 669.712 458.019 671.332 455.739C671.712 455.199 671.922 454.559 671.922 453.889H671.912Z" fill="black"/>
<path d="M653.263 623.33C640.843 623.33 634.803 628.28 634.803 638.47V655.6C634.803 665.67 640.843 670.56 653.263 670.56C659.133 670.56 663.473 669.48 666.553 667.27C669.993 664.8 671.733 660.87 671.733 655.59V638.46C671.733 628.27 665.693 623.32 653.273 623.32L653.263 623.33ZM646.083 639.3C646.083 633.93 648.833 632.91 653.263 632.91C657.693 632.91 660.443 633.95 660.443 639.3V654.68C660.443 659.95 657.593 660.98 653.263 660.98C648.933 660.98 646.083 659.98 646.083 654.68V639.3Z" fill="black"/>
<path d="M708.262 669.331H721.352L703.622 646.781L720.552 624.8H707.392L694.052 642.281V610.23H682.762V669.331H694.052V659.211L696.942 655.451L708.262 669.331Z" fill="black"/>
<path d="M754.812 624.801V653.291C754.812 659.041 751.872 660.891 746.822 660.891C743.552 660.891 740.272 660.351 740.272 653.881V624.811H728.992V656.771C728.992 665.741 733.702 670.481 742.612 670.481C749.292 670.481 753.872 666.861 755.572 662.801L757.382 669.341H766.102V624.811H754.822L754.812 624.801Z" fill="black"/>
<path d="M630.563 610.23H589.143V620.141V620.151H604.213V669.331H615.683V620.151H630.563V610.23Z" fill="black"/>
<path d="M459.681 669.331H472.771L455.041 646.781L471.971 624.8H458.811L445.471 642.281V610.23H434.191V669.331H445.471V659.211L448.361 655.451L459.681 669.331Z" fill="black"/>
<path d="M355.322 610.23H313.902V620.141V620.151H328.982V669.331H340.442V620.151H355.322V610.23Z" fill="black"/>
<path d="M421.792 658.89L421.192 659.04C417.612 659.96 413.282 660.89 409.402 660.89C404.852 660.89 401.682 658.82 401.682 652.83V640.97C401.682 634.9 404.852 632.82 409.402 632.82C413.352 632.82 417.872 633.7 421.222 634.4L421.802 634.52V625.19L421.492 625.12C417.682 624.23 412.042 623.33 407.522 623.33C402.002 623.33 397.962 624.4 395.162 626.59C391.962 629.09 390.412 633.85 390.412 639.34V654.64C390.412 664.77 396.012 670.56 407.532 670.56C411.402 670.56 417.262 669.49 421.522 668.31L421.812 668.23V658.88L421.792 658.89Z" fill="black"/>
<path d="M553.922 634.699V624.799H543.682V615.189H532.402V624.799H525.172V634.699H532.402V655.419C532.402 667.939 540.292 670.559 546.922 670.559C548.702 670.559 550.502 670.449 552.112 670.219V660.259C551.462 660.329 550.252 660.359 549.532 660.359C546.452 660.359 543.682 659.729 543.682 652.089V634.689H553.922V634.699Z" fill="black"/>
<path d="M489.733 650.741V650.561H515.163V641.481C515.163 635.571 513.543 630.241 510.353 627.341C507.413 624.671 502.773 623.311 497.253 623.311C485.073 623.311 478.453 629.221 478.453 639.591V654.451C478.453 664.701 483.833 670.551 496.313 670.551C500.973 670.551 506.283 669.561 511.963 668.401L512.353 668.321V659.051L511.703 659.201C507.133 660.251 504.613 661.141 500.283 661.141C494.073 661.141 489.733 658.621 489.733 652.201V650.721V650.741ZM489.733 639.721C489.733 634.071 493.793 632.741 497.163 632.741C500.533 632.741 504.063 634.071 504.063 639.721V643.231H489.733V642.711V639.721Z" fill="black"/>
<path d="M378.173 626.881H366.893V669.331H378.173V626.881Z" fill="black"/>
<path d="M372.532 622.22C376.415 622.22 379.562 619.073 379.562 615.19C379.562 611.308 376.415 608.16 372.532 608.16C368.649 608.16 365.502 611.308 365.502 615.19C365.502 619.073 368.649 622.22 372.532 622.22Z" fill="black"/>
<path d="M585.733 643.92H566.143V651.26H585.733V643.92Z" fill="black"/>
<path d="M759.528 1547.83V1572.03C759.528 1580.62 759.77 1584.85 760.496 1589.45H742.467C743.193 1585.34 743.435 1580.26 743.435 1572.27V1508.5C743.435 1501.85 743.193 1498.34 742.467 1492.77C747.428 1493.02 750.453 1493.14 757.834 1493.14H791.714C799.337 1493.14 803.209 1492.89 808.291 1492.29V1508.62C803.935 1508.02 799.458 1507.78 791.714 1507.78H759.528V1533.43H785.422C792.924 1533.43 797.159 1533.19 801.878 1532.58V1548.68C797.401 1548.07 792.803 1547.83 785.422 1547.83H759.528Z" fill="black"/>
<path d="M681.657 1547.83V1572.03C681.657 1580.62 681.899 1584.85 682.625 1589.45H664.596C665.322 1585.34 665.564 1580.26 665.564 1572.27V1508.5C665.564 1501.85 665.322 1498.34 664.596 1492.77C669.557 1493.02 672.582 1493.14 679.963 1493.14H713.843C721.466 1493.14 725.338 1492.89 730.42 1492.29V1508.62C726.064 1508.02 721.587 1507.78 713.843 1507.78H681.657V1533.43H707.551C715.053 1533.43 719.288 1533.19 724.007 1532.58V1548.68C719.53 1548.07 714.932 1547.83 707.551 1547.83H681.657Z" fill="black"/>
<path d="M605.078 1491.2C618.388 1491.2 628.673 1495.07 636.901 1503.3C645.734 1512.13 650.453 1525.32 650.453 1541.05C650.453 1571.66 632.666 1591.51 605.199 1591.51C577.732 1591.51 560.066 1571.79 560.066 1541.05C560.066 1525.44 564.906 1512.01 573.86 1503.3C582.209 1495.07 592.252 1491.2 605.078 1491.2ZM605.441 1577.11C622.744 1577.11 633.513 1563.32 633.513 1541.05C633.513 1528.83 630.125 1519.03 623.954 1512.86C618.993 1508.02 612.58 1505.48 605.32 1505.48C587.896 1505.48 576.885 1519.27 576.885 1541.17C576.885 1553.27 580.394 1563.44 586.686 1569.73C591.647 1574.57 598.06 1577.11 605.441 1577.11Z" fill="black"/>
<path d="M457.025 1587.64L533.134 1490.23L539.426 1495.07L463.196 1592.6L457.025 1587.64ZM526.721 1591.39C519.945 1591.39 514.379 1589.33 510.265 1585.22C505.667 1580.74 503.247 1573.48 503.247 1564.28C503.247 1555.21 505.667 1548.07 510.265 1543.47C514.379 1539.48 520.066 1537.3 526.721 1537.3C533.376 1537.3 539.063 1539.48 543.056 1543.47C547.654 1547.95 550.074 1555.21 550.074 1564.28C550.074 1573.48 547.654 1580.74 543.056 1585.22C538.942 1589.33 533.376 1591.39 526.721 1591.39ZM526.721 1547.59C523.212 1547.59 520.913 1548.68 518.977 1551.46C516.799 1554.48 515.71 1558.6 515.71 1564.04C515.71 1575.17 519.582 1581.22 526.721 1581.22C533.981 1581.22 537.732 1575.17 537.732 1563.44C537.732 1558.6 536.522 1554.24 534.465 1551.34C532.408 1548.68 530.23 1547.59 526.721 1547.59ZM469.73 1545.41C462.954 1545.41 457.388 1543.35 453.274 1539.24C448.676 1534.76 446.256 1527.38 446.256 1518.3C446.256 1501.36 454.968 1491.32 469.73 1491.32C476.385 1491.32 482.072 1493.5 486.065 1497.49C490.663 1501.97 493.083 1509.23 493.083 1518.3C493.083 1527.5 490.663 1534.76 486.065 1539.24C481.951 1543.35 476.385 1545.41 469.73 1545.41ZM469.73 1501.61C462.712 1501.61 458.719 1507.54 458.719 1518.06C458.719 1529.19 462.591 1535.24 469.73 1535.24C476.748 1535.24 480.741 1529.19 480.741 1518.3C480.741 1513.95 479.894 1509.59 478.563 1507.05C476.506 1503.3 473.723 1501.61 469.73 1501.61Z" fill="black"/>
<path d="M398.351 1591.39C388.066 1591.39 379.354 1588 372.941 1581.59C369.311 1577.96 366.528 1573.72 364.955 1569.37C361.809 1560.77 360.236 1551.34 360.236 1541.54C360.236 1528.71 363.14 1515.4 367.617 1508.02C374.151 1497.13 385.041 1491.2 398.472 1491.2C408.757 1491.2 417.59 1494.59 424.003 1501C427.633 1504.63 430.416 1508.87 431.989 1513.22C435.135 1521.69 436.708 1531.37 436.708 1541.29C436.708 1556.18 433.441 1569.24 427.754 1577.11C420.978 1586.55 410.935 1591.39 398.351 1591.39ZM398.472 1577.35C403.796 1577.35 408.515 1575.54 411.54 1572.27C416.985 1566.58 420.01 1555.33 420.01 1541.17C420.01 1527.14 416.985 1516.13 411.54 1510.2C408.636 1506.93 403.796 1505.11 398.351 1505.11C392.543 1505.11 388.308 1507.05 384.799 1511.29C379.475 1517.58 376.813 1527.5 376.813 1540.69C376.813 1553.39 379.112 1563.92 382.984 1569.49C386.735 1574.81 391.817 1577.35 398.472 1577.35Z" fill="black"/>
<path d="M323.463 1589.45H305.192C305.918 1584.73 306.16 1580.01 306.16 1573.72V1507.05H300.352C295.875 1507.05 292.366 1507.29 287.889 1507.78V1492.41C291.64 1493.02 294.302 1493.14 299.989 1493.14H311.121C317.292 1493.14 319.107 1493.02 323.463 1492.53C322.737 1499.67 322.495 1505.24 322.495 1512.5V1573.72C322.495 1580.14 322.737 1584.49 323.463 1589.45Z" fill="black"/>
<path d="M734.062 1284.98L738.618 1290.15C737.666 1291.3 737.666 1291.37 735.898 1294.91C733.518 1299.94 729.574 1305.04 725.426 1308.58C722.706 1310.96 720.462 1312.45 717.266 1314.22C715.226 1311.36 714.206 1310.34 711.146 1308.03C715.702 1305.99 718.286 1304.43 721.074 1301.78C723.862 1299.19 725.97 1296.4 727.534 1293.14H691.834C687.074 1293.14 685.374 1293.21 682.586 1293.55V1285.05C685.17 1285.46 687.278 1285.59 691.97 1285.59H727.466C731.546 1285.59 732.158 1285.52 734.062 1284.98ZM701.762 1298.72H711.01C710.806 1300.01 710.806 1300.08 710.738 1304.22C710.466 1315.85 708.63 1322.38 704.006 1328.3C699.926 1333.53 694.962 1337 686.462 1340.54C684.694 1336.86 683.81 1335.64 681.09 1332.78C686.598 1331.15 689.658 1329.66 692.99 1327C699.926 1321.5 702.102 1315.65 702.102 1302.8C702.102 1300.76 702.034 1300.14 701.762 1298.72Z" fill="black"/>
<path d="M655.862 1333.67H624.854C620.162 1333.67 618.53 1333.74 616.49 1333.94V1325.17C619.006 1325.58 620.23 1325.64 624.99 1325.64H655.93V1296H626.146C621.318 1296 619.89 1296.06 617.442 1296.34V1287.5C619.958 1287.9 621.25 1287.97 626.214 1287.97H658.922C662.458 1287.97 662.458 1287.97 664.838 1287.84C664.634 1289.67 664.634 1290.35 664.634 1293.48V1330.81C664.634 1334.21 664.702 1336.12 664.974 1337.82H655.862V1333.67Z" fill="black"/>
<path d="M549.852 1300.01L557.06 1297.9C559.916 1303.14 561.276 1306.4 563.724 1314.02L556.04 1316.46C554.272 1309.6 552.912 1305.99 549.852 1300.01ZM564.404 1297.15L571.544 1295.11C575.148 1301.84 576.44 1304.84 578.14 1310.75L570.592 1313.13C569.3 1307.96 567.26 1302.73 564.404 1297.15ZM587.796 1296.47L596.092 1298.38C595.684 1299.4 595.548 1299.74 595.14 1301.84C593.168 1311.09 590.108 1318.57 585.756 1324.49C580.724 1331.36 575.08 1335.78 565.016 1340.88C563.248 1337.88 562.432 1336.86 559.576 1334.14C564.336 1332.31 567.124 1330.81 571.136 1327.89C579.092 1322.11 583.648 1315.17 586.572 1304.29C587.456 1300.96 587.796 1298.58 587.796 1296.47Z" fill="black"/>
<path d="M489.806 1286.07L499.122 1287.77C498.918 1288.52 498.85 1288.58 498.782 1289.13L498.646 1290.28L498.306 1292.26L498.102 1293.89C495.246 1313.4 489.942 1326.8 480.83 1337.27C477.634 1334.21 476.342 1333.19 473.078 1331.42C477.158 1327.34 479.946 1323.2 482.802 1316.94C485.726 1310.62 488.106 1302.18 489.194 1293.62C489.602 1290.83 489.806 1288.52 489.806 1287.02C489.806 1286.82 489.806 1286.48 489.806 1286.07ZM510.002 1287.7L518.434 1286.07C518.502 1289.2 519.726 1295.86 521.29 1301.71C524.622 1314.29 529.382 1323.47 536.454 1331.08C532.986 1333.26 531.558 1334.42 528.974 1337.34C519.93 1326.53 513.606 1310.89 510.954 1292.6C510.546 1289.81 510.342 1288.72 510.002 1287.7ZM519.114 1283.48L524.214 1281.99C526.73 1285.52 528.226 1288.38 529.858 1292.94L524.69 1294.57C523.126 1290.22 521.698 1287.29 519.114 1283.48ZM538.766 1290.22L533.598 1291.85C532.034 1287.63 530.334 1284.23 528.158 1281.1L533.19 1279.68C535.774 1283.28 537.27 1286.14 538.766 1290.22Z" fill="black"/>
<path d="M420.874 1283.82L430.122 1284.3C429.85 1286.2 429.85 1286.2 429.442 1299.53C428.966 1312.79 427.47 1320.48 423.934 1327.48C421.622 1332.17 419.038 1335.64 414.55 1340.06C411.898 1336.66 410.878 1335.64 407.682 1333.46C411.014 1330.74 412.646 1328.91 414.686 1325.64C419.582 1317.82 421.146 1309.05 421.146 1290.01C421.146 1286.27 421.146 1285.66 420.874 1283.82ZM438.894 1283.35L448.142 1283.48C447.802 1285.46 447.734 1286.61 447.666 1289.94L447.326 1328.64C452.086 1326.39 454.806 1324.35 457.73 1320.88C460.858 1317.21 462.83 1313.47 464.394 1308.44C466.774 1311.5 467.658 1312.38 470.786 1314.83C467.998 1321.56 464.462 1326.66 459.974 1330.68C456.098 1334.01 452.562 1336.05 445.49 1338.84C443.994 1339.38 443.45 1339.65 442.566 1340.06L438.214 1335.44C438.69 1333.46 438.758 1331.97 438.826 1328.23L439.166 1289.88V1287.84C439.166 1286.14 439.098 1284.64 438.894 1283.35Z" fill="black"/>
<path d="M355.865 1286.07L365.181 1287.77C364.977 1288.52 364.909 1288.58 364.841 1289.13L364.705 1290.28L364.365 1292.26L364.161 1293.89C361.305 1313.4 356.001 1326.8 346.889 1337.27C343.693 1334.21 342.401 1333.19 339.137 1331.42C343.217 1327.34 346.005 1323.2 348.861 1316.94C351.785 1310.62 354.165 1302.18 355.253 1293.62C355.661 1290.83 355.865 1288.52 355.865 1287.02C355.865 1286.82 355.865 1286.48 355.865 1286.07ZM376.061 1287.7L384.493 1286.07C384.561 1289.2 385.785 1295.86 387.349 1301.71C390.681 1314.29 395.441 1323.47 402.513 1331.08C399.045 1333.26 397.617 1334.42 395.033 1337.34C385.989 1326.53 379.665 1310.89 377.013 1292.6C376.605 1289.81 376.401 1288.72 376.061 1287.7ZM385.173 1283.48L390.273 1281.99C392.789 1285.52 394.285 1288.38 395.917 1292.94L390.749 1294.57C389.185 1290.22 387.757 1287.29 385.173 1283.48ZM404.825 1290.22L399.657 1291.85C398.093 1287.63 396.393 1284.23 394.217 1281.1L399.249 1279.68C401.833 1283.28 403.329 1286.14 404.825 1290.22Z" fill="black"/>
</svg>
