<svg width="1080" height="1920" viewBox="0 0 1080 1920" fill="none" xmlns="http://www.w3.org/2000/svg">
<path d="M1080 1920L1080 0L0 0L0 1920H1080Z" fill="#A5D4AD"/>
<path d="M1020 983.72V95C1020 75.67 1004.33 60 985 60H95.58C75.93 60 60 75.93 60 95.58V983.71C60 984.03 60.25 984.28 60.57 984.28C80.03 984.59 95.71 1000.46 95.71 1019.99C95.71 1039.52 80.03 1055.39 60.57 1055.7C60.25 1055.7 60 1055.96 60 1056.27V1824.99C60 1844.32 75.67 1859.99 95 1859.99H985C1004.33 1859.99 1020 1844.32 1020 1824.99V1056.27C1020 1055.95 1019.75 1055.7 1019.43 1055.7C999.97 1055.39 984.29 1039.52 984.29 1019.99C984.29 1000.46 999.97 984.59 1019.43 984.28C1019.75 984.28 1020 984.02 1020 983.71V983.72Z" fill="white"/>
<path d="M60.57 1055.71C60.25 1055.71 60 1055.97 60 1056.28V1825C60 1844.33 75.67 1860 95 1860H985C1004.33 1860 1020 1844.33 1020 1825V1056.28C1020 1055.96 1019.75 1055.71 1019.43 1055.71C999.97 1055.4 984.29 1039.53 984.29 1020H95.71C95.71 1039.53 80.03 1055.4 60.57 1055.71Z" fill="#E5F2E6"/>
<path d="M121 1020H160.9" stroke="black" stroke-width="6" stroke-miterlimit="10"/>
<path d="M187.51 1020H227.41" stroke="black" stroke-width="6" stroke-miterlimit="10"/>
<path d="M254.02 1020H293.92" stroke="black" stroke-width="6" stroke-miterlimit="10"/>
<path d="M320.52 1020H360.43" stroke="black" stroke-width="6" stroke-miterlimit="10"/>
<path d="M387.029 1020H426.939" stroke="black" stroke-width="6" stroke-miterlimit="10"/>
<path d="M453.539 1020H493.439" stroke="black" stroke-width="6" stroke-miterlimit="10"/>
<path d="M520.051 1020H559.951" stroke="black" stroke-width="6" stroke-miterlimit="10"/>
<path d="M586.561 1020H626.461" stroke="black" stroke-width="6" stroke-miterlimit="10"/>
<path d="M653.061 1020H692.971" stroke="black" stroke-width="6" stroke-miterlimit="10"/>
<path d="M719.57 1020H759.48" stroke="black" stroke-width="6" stroke-miterlimit="10"/>
<path d="M786.08 1020H825.98" stroke="black" stroke-width="6" stroke-miterlimit="10"/>
<path d="M852.59 1020H892.49" stroke="black" stroke-width="6" stroke-miterlimit="10"/>
<path d="M919.1 1020H959" stroke="black" stroke-width="6" stroke-miterlimit="10"/>
<path d="M1020 984.29V95C1020 75.67 1004.33 60 985 60H95C75.67 60 60 75.67 60 95V984.29C79.72 984.29 95.71 1000.28 95.71 1020C95.71 1039.72 79.72 1055.71 60 1055.71V1825C60 1844.33 75.67 1860 95 1860H985C1004.33 1860 1020 1844.33 1020 1825V1055.71C1000.28 1055.71 984.29 1039.72 984.29 1020C984.29 1000.28 1000.28 984.29 1020 984.29Z" stroke="black" stroke-width="6" stroke-miterlimit="10"/>
<path d="M912.642 525.66C908.772 525.66 905.532 522.64 905.312 518.73C900.582 435.62 868.782 358.85 813.362 296.74C810.662 293.71 810.922 289.06 813.952 286.36C816.982 283.66 821.622 283.92 824.332 286.95C881.992 351.57 915.062 431.43 919.992 517.89C920.222 521.94 917.122 525.42 913.072 525.65C912.932 525.65 912.792 525.66 912.652 525.66H912.642Z" fill="black"/>
<path d="M818.842 795.509C817.102 795.509 815.352 794.889 813.952 793.639C810.922 790.939 810.662 786.289 813.362 783.259C868.782 721.149 900.582 644.379 905.312 561.269C905.542 557.219 909.022 554.109 913.072 554.349C917.122 554.579 920.222 558.049 919.992 562.109C915.062 648.579 881.992 728.439 824.332 793.049C822.882 794.679 820.862 795.509 818.842 795.509Z" fill="black"/>
<path d="M167.352 525.66C167.212 525.66 167.072 525.66 166.932 525.65C162.882 525.42 159.782 521.95 160.012 517.89C164.942 431.42 198.012 351.56 255.672 286.95C258.372 283.92 263.022 283.66 266.052 286.36C269.082 289.06 269.342 293.71 266.642 296.74C211.222 358.85 179.422 435.61 174.692 518.73C174.472 522.64 171.232 525.66 167.362 525.66H167.352Z" fill="black"/>
<path d="M261.162 795.509C259.142 795.509 257.122 794.679 255.672 793.049C198.012 728.429 164.942 648.569 160.012 562.109C159.782 558.059 162.882 554.579 166.932 554.349C170.982 554.109 174.462 557.219 174.692 561.269C179.422 644.389 211.222 721.149 266.642 783.259C269.342 786.289 269.082 790.939 266.052 793.639C264.652 794.889 262.902 795.509 261.162 795.509Z" fill="black"/>
<path d="M788.162 268.509C786.422 268.509 784.672 267.889 783.272 266.639C721.162 211.219 644.392 179.419 561.282 174.689C557.232 174.459 554.132 170.989 554.362 166.929C554.592 162.879 558.032 159.789 562.122 160.009C648.592 164.939 728.452 198.009 793.062 255.669C796.092 258.369 796.352 263.019 793.652 266.049C792.202 267.679 790.182 268.509 788.162 268.509Z" fill="black"/>
<path d="M291.842 268.51C289.822 268.51 287.802 267.68 286.352 266.05C283.652 263.02 283.912 258.37 286.942 255.67C351.562 198.01 431.422 164.94 517.882 160.01C521.932 159.78 525.412 162.88 525.642 166.93C525.872 170.98 522.772 174.46 518.722 174.69C435.612 179.42 358.842 211.22 296.732 266.64C295.332 267.89 293.582 268.51 291.842 268.51Z" fill="black"/>
<path d="M561.682 920C557.812 920 554.572 916.98 554.352 913.07C554.122 909.02 557.222 905.54 561.272 905.31C644.392 900.58 721.152 868.78 783.262 813.36C786.292 810.66 790.942 810.92 793.642 813.95C796.342 816.98 796.082 821.63 793.052 824.33C728.432 881.99 648.572 915.06 562.112 919.99C561.972 919.99 561.832 920 561.692 920H561.682Z" fill="black"/>
<path d="M518.312 920C518.172 920 518.032 920 517.892 919.99C431.422 915.06 351.562 881.99 286.952 824.33C283.922 821.63 283.662 816.98 286.362 813.95C289.062 810.92 293.712 810.66 296.742 813.36C358.852 868.78 435.622 900.58 518.732 905.31C522.782 905.54 525.882 909.01 525.652 913.07C525.432 916.98 522.192 920 518.322 920H518.312Z" fill="black"/>
<path d="M875.372 526.191C872.362 526.191 869.842 523.841 869.672 520.801C865.402 445.791 836.702 376.521 786.692 320.461C784.592 318.101 784.792 314.491 787.152 312.391C789.502 310.291 793.122 310.491 795.222 312.851C846.972 370.851 876.672 442.541 881.092 520.151C881.272 523.301 878.862 526.001 875.712 526.181C875.602 526.181 875.492 526.181 875.382 526.181L875.372 526.191Z" fill="black"/>
<path d="M790.952 769.062C789.592 769.062 788.242 768.582 787.152 767.612C784.792 765.512 784.592 761.892 786.692 759.542C836.702 703.492 865.402 634.212 869.672 559.202C869.852 556.052 872.542 553.642 875.702 553.822C878.852 554.002 881.262 556.702 881.082 559.852C876.662 637.472 846.972 709.152 795.212 767.152C794.082 768.422 792.512 769.062 790.942 769.062H790.952Z" fill="black"/>
<path d="M204.622 526.191C204.512 526.191 204.402 526.191 204.292 526.191C201.142 526.011 198.732 523.311 198.912 520.161C203.332 442.541 233.022 370.861 284.782 312.861C286.882 310.501 290.502 310.301 292.852 312.401C295.212 314.501 295.412 318.121 293.312 320.471C243.302 376.521 214.602 445.801 210.332 520.811C210.162 523.851 207.642 526.201 204.632 526.201L204.622 526.191Z" fill="black"/>
<path d="M289.042 769.061C287.472 769.061 285.902 768.411 284.772 767.151C233.022 709.151 203.322 637.461 198.902 559.851C198.722 556.701 201.132 554.001 204.282 553.821C207.442 553.631 210.132 556.051 210.312 559.201C214.582 634.211 243.282 703.491 293.292 759.541C295.392 761.901 295.192 765.511 292.832 767.611C291.742 768.581 290.382 769.061 289.032 769.061H289.042Z" fill="black"/>
<path d="M763.342 294.762C761.982 294.762 760.632 294.282 759.542 293.312C703.492 243.302 634.212 214.602 559.202 210.332C556.052 210.152 553.642 207.452 553.822 204.302C554.002 201.152 556.692 198.742 559.852 198.922C637.472 203.342 709.152 233.032 767.152 284.792C769.512 286.892 769.712 290.512 767.612 292.862C766.482 294.132 764.912 294.772 763.342 294.772V294.762Z" fill="black"/>
<path d="M316.651 294.761C315.081 294.761 313.511 294.111 312.381 292.851C310.281 290.491 310.481 286.881 312.841 284.781C370.841 233.031 442.531 203.331 520.141 198.911C523.291 198.721 525.991 201.141 526.171 204.291C526.351 207.441 523.941 210.141 520.791 210.321C445.781 214.591 376.511 243.291 320.451 293.301C319.361 294.271 318.001 294.751 316.651 294.751V294.761Z" fill="black"/>
<path d="M559.522 881.102C556.512 881.102 553.992 878.752 553.822 875.712C553.642 872.562 556.052 869.862 559.202 869.682C634.212 865.412 703.482 836.712 759.542 786.702C761.892 784.602 765.512 784.802 767.612 787.162C769.712 789.522 769.512 793.132 767.152 795.232C709.152 846.982 637.462 876.682 559.852 881.102C559.742 881.102 559.632 881.102 559.522 881.102Z" fill="black"/>
<path d="M520.481 881.102C520.371 881.102 520.261 881.102 520.151 881.102C442.531 876.682 370.851 846.992 312.851 795.232C310.491 793.132 310.291 789.512 312.391 787.162C314.491 784.802 318.111 784.602 320.461 786.702C376.511 836.722 445.791 865.412 520.801 869.682C523.951 869.862 526.361 872.562 526.181 875.712C526.011 878.752 523.491 881.102 520.481 881.102Z" fill="black"/>
<path d="M841.841 526.51C839.691 526.51 837.891 524.83 837.771 522.66C833.911 454.91 807.991 392.34 762.821 341.71C761.321 340.03 761.471 337.45 763.151 335.94C764.831 334.44 767.411 334.58 768.921 336.27C815.341 388.29 841.971 452.58 845.931 522.19C846.061 524.44 844.341 526.37 842.081 526.5C842.001 526.5 841.921 526.5 841.841 526.5V526.51Z" fill="black"/>
<path d="M765.862 745.101C764.892 745.101 763.922 744.761 763.142 744.061C761.462 742.561 761.312 739.981 762.812 738.291C807.982 687.661 833.902 625.091 837.762 557.341C837.892 555.091 839.852 553.391 842.072 553.491C844.322 553.621 846.042 555.551 845.922 557.801C841.952 627.411 815.322 691.701 768.912 743.721C768.102 744.621 766.982 745.081 765.862 745.081V745.101Z" fill="black"/>
<path d="M238.162 526.51C238.082 526.51 238.002 526.51 237.922 526.51C235.672 526.38 233.952 524.45 234.072 522.2C238.042 452.59 264.672 388.3 311.082 336.28C312.582 334.6 315.162 334.45 316.852 335.95C318.532 337.45 318.682 340.03 317.182 341.72C272.012 392.35 246.092 454.92 242.232 522.67C242.112 524.84 240.312 526.52 238.162 526.52V526.51Z" fill="black"/>
<path d="M314.131 745.101C313.011 745.101 311.891 744.641 311.081 743.741C264.661 691.721 238.031 627.431 234.071 557.821C233.941 555.571 235.661 553.641 237.921 553.511C240.161 553.401 242.101 555.101 242.231 557.361C246.091 625.111 272.011 687.681 317.181 738.311C318.681 739.991 318.531 742.571 316.851 744.081C316.071 744.771 315.101 745.121 314.131 745.121V745.101Z" fill="black"/>
<path d="M741.01 318.219C740.04 318.219 739.07 317.879 738.29 317.179C687.66 272.009 625.09 246.089 557.34 242.229C555.09 242.099 553.37 240.169 553.49 237.919C553.62 235.669 555.54 233.959 557.8 234.069C627.41 238.039 691.7 264.669 743.73 311.079C745.41 312.579 745.56 315.159 744.06 316.849C743.25 317.749 742.13 318.209 741.01 318.209V318.219Z" fill="black"/>
<path d="M338.991 318.22C337.871 318.22 336.751 317.76 335.941 316.86C334.441 315.18 334.591 312.6 336.271 311.09C388.291 264.67 452.581 238.04 522.191 234.08C524.441 233.96 526.371 235.67 526.501 237.93C526.631 240.18 524.91 242.11 522.65 242.24C454.9 246.1 392.331 272.02 341.701 317.19C340.921 317.88 339.951 318.23 338.981 318.23L338.991 318.22Z" fill="black"/>
<path d="M557.561 845.929C555.411 845.929 553.611 844.249 553.491 842.079C553.361 839.829 555.081 837.899 557.341 837.769C625.091 833.909 687.661 807.989 738.291 762.819C739.971 761.319 742.551 761.469 744.061 763.149C745.561 764.829 745.411 767.409 743.731 768.919C691.711 815.339 627.421 841.969 557.801 845.929C557.721 845.929 557.641 845.929 557.561 845.929Z" fill="black"/>
<path d="M522.431 845.929C522.351 845.929 522.271 845.929 522.191 845.929C452.581 841.959 388.291 815.329 336.271 768.919C334.591 767.419 334.441 764.839 335.941 763.149C337.441 761.469 340.021 761.319 341.711 762.819C392.341 807.989 454.911 833.909 522.661 837.769C524.911 837.899 526.631 839.829 526.511 842.079C526.391 844.249 524.591 845.929 522.441 845.929H522.431Z" fill="black"/>
<path d="M320.642 546.17C320.642 544.6 321.782 543.27 323.332 543.02C324.632 542.81 326.262 542.52 327.972 542.12C332.392 541.08 337.582 539.11 343.402 536.27C349.282 533.4 354.912 529.41 359.162 523.67C366.332 513.97 367.852 501.4 368.182 496.89C368.252 495.97 367.522 495.19 366.592 495.19H317.082C315.322 495.19 313.902 493.76 313.902 492.01V470.69C313.902 468.93 315.332 467.51 317.082 467.51H367.062C367.942 467.51 368.652 466.8 368.652 465.92V447.18C368.652 446.3 367.942 445.59 367.062 445.59H328.612C326.852 445.59 325.432 444.16 325.432 442.41V421.09C325.432 419.33 326.862 417.91 328.612 417.91H428.952C430.712 417.91 432.132 419.34 432.132 421.09V442.41C432.132 444.17 430.702 445.59 428.952 445.59H398.512C397.632 445.59 396.922 446.3 396.922 447.18V465.92C396.922 466.8 397.632 467.51 398.512 467.51H438.572C440.332 467.51 441.752 468.94 441.752 470.69V492.01C441.752 493.77 440.322 495.19 438.572 495.19H398.382C397.532 495.19 396.832 495.86 396.792 496.71C396.562 501.75 395.142 518.44 386.172 532.85C380.722 541.61 373.642 548.26 366.532 553.54C359.402 558.84 352.252 562.93 345.262 565.7C338.232 568.49 332.332 570.44 327.742 571.51C326.652 571.76 325.482 571.99 324.392 572.18C322.442 572.53 320.652 571.03 320.652 569.04V546.16L320.642 546.17Z" fill="black"/>
<path d="M474.542 546.52C474.542 545.06 475.542 543.79 476.952 543.43C485.202 541.36 488.922 540.11 496.832 536.32C496.832 536.32 500.882 534.21 504.922 531.3C517.102 522.54 525.212 510.63 525.212 510.63C534.672 497.28 537.762 474.91 538.482 468.49C538.592 467.55 537.852 466.72 536.902 466.72H500.572C500.342 466.72 500.132 466.84 500.022 467.04L499.872 467.29C494.292 478.11 486.872 487.99 480.442 494.24C473.992 500.5 468.582 505.05 464.372 507.75L461.772 509.42C460.712 510.1 459.322 509.34 459.322 508.08V479.89C459.322 478.95 459.742 478.06 460.462 477.45C461.112 476.9 461.982 476.13 463.172 475.06C465.932 472.57 469.042 468.51 472.412 462.98C475.752 457.51 479.342 450.21 483.062 441.29C486.442 433.2 488.972 423.09 490.852 412.06C491.112 410.53 492.442 409.42 493.992 409.42H513.902C515.902 409.42 517.412 411.25 517.032 413.21C516.392 416.52 515.702 420.88 514.842 424.31C513.572 429.39 512.752 432.3 511.232 436.72C510.972 437.47 511.532 438.24 512.322 438.24H591.172C592.932 438.24 594.352 439.67 594.352 441.42V463.51C594.352 465.27 592.922 466.69 591.172 466.69H568.132C567.322 466.69 566.632 467.3 566.552 468.11C565.922 474.01 562.872 497.16 552.382 517.26C538.282 546 508.132 566.39 478.332 572.13C476.372 572.51 474.552 571 474.552 569V546.48L474.542 546.52Z" fill="black"/>
<path d="M675.893 411.029V468.869C675.893 469.749 676.603 470.459 677.483 470.459H764.513C765.393 470.459 766.103 469.749 766.103 468.869V411.029C766.103 410.149 765.393 409.439 764.513 409.439H677.483C676.603 409.439 675.893 410.149 675.893 411.029ZM738.453 452.739H702.293C701.413 452.739 700.703 452.029 700.703 451.149V446.869C700.703 445.989 701.413 445.279 702.293 445.279H738.453C739.333 445.279 740.043 445.989 740.043 446.869V451.149C740.043 452.029 739.333 452.739 738.453 452.739ZM738.453 434.449H702.293C701.413 434.449 700.703 433.739 700.703 432.859V428.749C700.703 427.869 701.413 427.159 702.293 427.159H738.453C739.333 427.159 740.043 427.869 740.043 428.749V432.859C740.043 433.739 739.333 434.449 738.453 434.449Z" fill="black"/>
<path d="M674.222 497.34H728.262C729.142 497.34 729.852 498.05 729.852 498.93V502.84C729.852 503.72 729.142 504.43 728.262 504.43H667.752C665.992 504.43 664.572 505.86 664.572 507.61V522.86C664.572 524.62 666.002 526.04 667.752 526.04H728.262C729.142 526.04 729.852 526.75 729.852 527.63V545.39C729.852 546.11 729.932 547.98 729.212 548.85C728.382 549.87 727.142 549.67 725.842 549.72C722.532 549.72 719.572 549.7 716.942 549.66C716.542 549.66 716.252 549.29 716.332 548.9C716.592 547.63 716.722 546.31 716.692 544.96C716.492 535.68 708.932 528.08 699.652 527.84C689.572 527.58 681.362 535.85 681.702 545.94C682.012 555.29 689.782 562.81 699.142 562.84C704.032 562.85 708.452 560.86 711.632 557.64C711.972 557.3 712.542 557.43 712.692 557.88C714.152 562.21 715.532 566.34 716.782 570.05C717.222 571.35 718.452 572.22 719.822 572.21C725.722 572.17 730.502 571.96 734.172 571.6C738.302 571.18 742.082 570.15 745.512 568.5C749.172 566.84 751.682 564.42 753.042 561.23C754.402 558.04 755.082 553.55 755.082 547.76V527.62C755.082 526.74 755.792 526.03 756.672 526.03H762.902C764.662 526.03 766.082 524.6 766.082 522.85V507.6C766.082 505.84 764.652 504.42 762.902 504.42H756.672C755.792 504.42 755.082 503.71 755.082 502.83V498.92C755.082 498.04 755.792 497.33 756.672 497.33H762.902C764.662 497.33 766.082 495.9 766.082 494.15V479.6C766.082 477.84 764.652 476.42 762.902 476.42H674.202C672.442 476.42 671.022 477.85 671.022 479.6V494.15C671.022 495.91 672.452 497.33 674.202 497.33L674.222 497.34Z" fill="black"/>
<path d="M668.822 409.439H650.252C649.392 409.439 648.572 409.789 647.972 410.399C635.222 423.349 618.282 434.569 612.122 438.479C610.772 439.329 610.272 441.059 610.942 442.499L620.692 463.569C621.622 465.569 624.252 466.049 625.822 464.499C646.112 444.459 664.442 419.799 670.112 411.959C670.872 410.909 670.112 409.439 668.822 409.439Z" fill="black"/>
<path d="M671.912 453.889V435.409C671.912 433.999 670.212 433.289 669.202 434.279C653.632 449.599 620.042 477.059 611.672 483.859C610.542 484.779 610.182 486.349 610.792 487.669L620.692 509.049C621.622 511.049 624.252 511.529 625.822 509.979C627.532 508.289 629.232 506.559 630.912 504.819C631.312 504.409 632.012 504.689 632.012 505.259V569.059C632.012 570.819 633.442 572.239 635.192 572.239H653.812C655.572 572.239 656.992 570.809 656.992 569.059V476.369C656.992 475.299 657.352 474.249 658.022 473.409C664.862 464.729 669.712 458.019 671.332 455.739C671.712 455.199 671.922 454.559 671.922 453.889H671.912Z" fill="black"/>
<path d="M653.263 623.33C640.843 623.33 634.803 628.28 634.803 638.47V655.6C634.803 665.67 640.843 670.56 653.263 670.56C659.133 670.56 663.473 669.48 666.553 667.27C669.993 664.8 671.733 660.87 671.733 655.59V638.46C671.733 628.27 665.693 623.32 653.273 623.32L653.263 623.33ZM646.083 639.3C646.083 633.93 648.833 632.91 653.263 632.91C657.693 632.91 660.443 633.95 660.443 639.3V654.68C660.443 659.95 657.593 660.98 653.263 660.98C648.933 660.98 646.083 659.98 646.083 654.68V639.3Z" fill="black"/>
<path d="M708.262 669.331H721.352L703.622 646.781L720.552 624.8H707.392L694.052 642.281V610.23H682.762V669.331H694.052V659.211L696.942 655.451L708.262 669.331Z" fill="black"/>
<path d="M754.812 624.801V653.291C754.812 659.041 751.872 660.891 746.822 660.891C743.552 660.891 740.272 660.351 740.272 653.881V624.811H728.992V656.771C728.992 665.741 733.702 670.481 742.612 670.481C749.292 670.481 753.872 666.861 755.572 662.801L757.382 669.341H766.102V624.811H754.822L754.812 624.801Z" fill="black"/>
<path d="M630.563 610.23H589.143V620.141V620.151H604.213V669.331H615.683V620.151H630.563V610.23Z" fill="black"/>
<path d="M459.681 669.331H472.771L455.041 646.781L471.971 624.8H458.811L445.471 642.281V610.23H434.191V669.331H445.471V659.211L448.361 655.451L459.681 669.331Z" fill="black"/>
<path d="M355.322 610.23H313.902V620.141V620.151H328.982V669.331H340.442V620.151H355.322V610.23Z" fill="black"/>
<path d="M421.792 658.89L421.192 659.04C417.612 659.96 413.282 660.89 409.402 660.89C404.852 660.89 401.682 658.82 401.682 652.83V640.97C401.682 634.9 404.852 632.82 409.402 632.82C413.352 632.82 417.872 633.7 421.222 634.4L421.802 634.52V625.19L421.492 625.12C417.682 624.23 412.042 623.33 407.522 623.33C402.002 623.33 397.962 624.4 395.162 626.59C391.962 629.09 390.412 633.85 390.412 639.34V654.64C390.412 664.77 396.012 670.56 407.532 670.56C411.402 670.56 417.262 669.49 421.522 668.31L421.812 668.23V658.88L421.792 658.89Z" fill="black"/>
<path d="M553.922 634.699V624.799H543.682V615.189H532.402V624.799H525.172V634.699H532.402V655.419C532.402 667.939 540.292 670.559 546.922 670.559C548.702 670.559 550.502 670.449 552.112 670.219V660.259C551.462 660.329 550.252 660.359 549.532 660.359C546.452 660.359 543.682 659.729 543.682 652.089V634.689H553.922V634.699Z" fill="black"/>
<path d="M489.733 650.741V650.561H515.163V641.481C515.163 635.571 513.543 630.241 510.353 627.341C507.413 624.671 502.773 623.311 497.253 623.311C485.073 623.311 478.453 629.221 478.453 639.591V654.451C478.453 664.701 483.833 670.551 496.313 670.551C500.973 670.551 506.283 669.561 511.963 668.401L512.353 668.321V659.051L511.703 659.201C507.133 660.251 504.613 661.141 500.283 661.141C494.073 661.141 489.733 658.621 489.733 652.201V650.721V650.741ZM489.733 639.721C489.733 634.071 493.793 632.741 497.163 632.741C500.533 632.741 504.063 634.071 504.063 639.721V643.231H489.733V642.711V639.721Z" fill="black"/>
<path d="M378.173 626.881H366.893V669.331H378.173V626.881Z" fill="black"/>
<path d="M372.532 622.22C376.415 622.22 379.562 619.073 379.562 615.19C379.562 611.308 376.415 608.16 372.532 608.16C368.649 608.16 365.502 611.308 365.502 615.19C365.502 619.073 368.649 622.22 372.532 622.22Z" fill="black"/>
<path d="M585.733 643.92H566.143V651.26H585.733V643.92Z" fill="black"/>
<path d="M739.519 1664.16L745.039 1668.38C744.223 1668.96 743.311 1669.78 739.135 1673.66C736.687 1675.92 733.327 1678.61 727.711 1682.88C726.223 1683.98 725.887 1684.37 725.887 1684.9C725.887 1685.62 725.983 1685.71 730.207 1688.88C737.695 1694.54 739.087 1695.74 745.327 1701.41C745.807 1701.89 746.095 1702.13 746.719 1702.61L741.775 1707.6C740.527 1705.87 738.799 1704.05 735.535 1701.02C732.127 1697.86 730.543 1696.56 723.151 1690.8C719.983 1688.35 719.119 1687.06 719.119 1684.85C719.119 1683.41 719.647 1682.11 720.703 1680.96C721.327 1680.29 721.375 1680.24 724.927 1677.5C730.111 1673.57 732.799 1671.26 736.015 1668.14C738.175 1665.98 738.703 1665.36 739.519 1664.16Z" fill="black"/>
<path d="M690.08 1690.03H680.192C680.144 1695.26 678.272 1697.09 672.992 1697.09C672.848 1697.09 672.512 1697.09 672.128 1697.09C672.08 1694.74 671.888 1693.87 671.168 1692.29C672.416 1692.38 672.848 1692.43 673.424 1692.43C674.912 1692.43 675.392 1691.76 675.392 1689.74C675.392 1688.16 675.2 1686.62 674.768 1685.33C674.096 1683.07 673.376 1681.97 671.504 1680.1C673.664 1676.4 674.816 1673.71 675.968 1669.68H670.784V1701.98C670.784 1704 670.88 1706.21 671.024 1707.84H665.504C665.696 1706.26 665.792 1704.19 665.792 1701.94V1669.49C665.792 1667.76 665.744 1666.27 665.648 1664.93C666.512 1665.02 667.76 1665.07 669.296 1665.07H675.68C677.264 1665.07 678.272 1665.02 679.088 1664.88L681.872 1667.28C681.44 1668.24 681.392 1668.34 681.152 1669.01C680.288 1671.55 679.808 1672.8 678.848 1675.01C681.152 1673.76 682.544 1672.75 684.368 1671.02C686.96 1668.62 688.352 1666.85 689.984 1663.87H695.312C698.384 1669.01 702.992 1672.85 709.376 1675.58C708.272 1677.46 707.84 1678.51 707.216 1680.91C705.152 1679.81 704.336 1679.33 702.848 1678.32V1681.58C701.264 1681.44 700.88 1681.44 698.768 1681.44H695.168V1685.33H703.04C705.248 1685.33 706.16 1685.28 707.648 1685.09V1690.32C706.448 1690.13 705.008 1690.03 703.04 1690.03H695.168V1702.66C695.168 1706.5 693.824 1707.5 688.736 1707.5C687.776 1707.5 686.624 1707.46 684.464 1707.36C684.32 1705.44 683.984 1704.14 683.12 1702.27C684.56 1702.51 686.576 1702.7 687.728 1702.7C689.552 1702.7 690.08 1702.42 690.08 1701.46V1690.03ZM690.08 1685.33V1681.44H687.296C685.184 1681.44 684.848 1681.44 683.216 1681.58V1678.46C682.16 1679.18 681.824 1679.42 680.528 1680.19C679.568 1678.08 679.328 1677.7 678.272 1676.35C677.84 1677.36 677.6 1677.84 676.736 1679.57C678.512 1682.06 679.04 1683.12 679.616 1685.33H690.08ZM687.344 1676.93H698.768C699.776 1676.93 700.208 1676.93 700.88 1676.88C697.568 1674.38 695.024 1671.7 692.816 1668.43C690.32 1672.22 688.544 1674.19 685.232 1676.93C685.904 1676.93 686.192 1676.93 687.344 1676.93ZM697.568 1693.25L701.84 1691.57C702.944 1694.16 703.52 1695.31 704.96 1697.38C706.256 1699.3 706.976 1700.11 708.896 1701.84C707.456 1703.14 706.64 1704.1 705.344 1706.11C701.264 1701.41 699.728 1698.86 697.568 1693.25ZM682.784 1691.38L687.392 1693.15C686 1696.9 685.088 1698.67 683.36 1701.26C682.016 1703.18 681.2 1704.14 679.04 1706.16C677.696 1704.29 676.976 1703.52 675.392 1702.27C677.504 1700.59 678.416 1699.68 679.664 1697.9C681.104 1695.84 681.776 1694.45 682.784 1691.38Z" fill="black"/>
<path d="M619.281 1674.96L619.377 1669.49C621.345 1669.92 624.417 1670.11 630.513 1670.11C631.809 1667.23 632.241 1665.79 632.433 1664.16L638.721 1664.83C638.433 1665.31 638.433 1665.31 636.801 1669.15C636.561 1669.68 636.465 1669.82 636.369 1670.02C636.753 1669.97 636.753 1669.97 639.393 1669.82C644.961 1669.49 649.329 1668.96 651.969 1668.19L652.305 1673.66C650.961 1673.76 650.961 1673.76 648.513 1674.05C645.009 1674.48 638.913 1674.86 634.065 1675.01C632.673 1677.74 631.329 1679.66 629.649 1681.39L629.697 1681.49C630.033 1681.25 630.033 1681.25 630.657 1680.77C632.433 1679.42 634.977 1678.61 637.425 1678.61C641.169 1678.61 643.521 1680.38 644.289 1683.7C647.985 1682.35 650.433 1681.49 651.633 1681.1C654.225 1680.19 654.417 1680.14 655.185 1679.66L657.441 1685.18C656.097 1685.38 654.657 1685.76 652.113 1686.48C651.441 1686.67 649.041 1687.49 644.913 1688.93V1689.46C644.961 1690.7 644.961 1690.7 644.961 1691.38C644.961 1691.86 644.961 1692.67 644.961 1693.3C644.913 1694.11 644.913 1694.54 644.913 1694.88C644.913 1695.94 644.961 1696.61 645.057 1697.42L639.489 1697.57C639.681 1696.7 639.777 1694.26 639.777 1692C639.777 1691.33 639.777 1691.33 639.777 1690.85C637.425 1691.95 636.177 1692.62 635.169 1693.34C633.489 1694.59 632.673 1695.89 632.673 1697.28C632.673 1699.78 634.977 1700.78 640.785 1700.78C646.545 1700.78 651.489 1700.06 654.897 1698.77L655.377 1704.96C654.561 1704.96 654.321 1705.01 653.169 1705.15C649.713 1705.68 645.105 1706.02 640.881 1706.02C635.793 1706.02 632.625 1705.44 630.177 1704C627.969 1702.75 626.673 1700.45 626.673 1697.81C626.673 1695.84 627.249 1694.3 628.785 1692.48C630.945 1689.79 633.681 1687.97 639.105 1685.71C638.865 1683.94 637.905 1683.12 636.177 1683.12C633.393 1683.12 630.033 1684.8 626.337 1688.06C624.321 1689.74 623.217 1690.94 622.161 1692.43L617.793 1688.11C619.041 1687.15 620.433 1685.81 622.113 1683.84C623.985 1681.63 626.913 1677.46 627.873 1675.63C628.065 1675.25 628.065 1675.25 628.257 1675.01C628.065 1675.01 627.441 1675.06 627.441 1675.06C626.673 1675.06 622.449 1674.96 621.393 1674.96C620.481 1674.91 620.481 1674.91 620.049 1674.91C619.905 1674.91 619.617 1674.91 619.281 1674.96Z" fill="black"/>
<path d="M605.311 1672.32L606.943 1674.19C606.511 1674.82 606.271 1675.39 605.743 1677.07C602.911 1685.62 600.607 1689.89 596.095 1695.22C591.823 1700.11 585.919 1704.34 579.007 1707.36C577.759 1705.1 576.895 1704.05 574.927 1702.32C587.503 1697.52 595.615 1688.93 599.455 1676.45L585.007 1676.64C582.319 1681.06 577.759 1686.05 573.775 1688.98C572.335 1687.01 571.615 1686.38 569.119 1684.85C574.303 1681.39 578.143 1677.07 581.551 1670.93C582.991 1668.34 583.855 1666.08 583.999 1664.54L590.575 1665.89C590.239 1666.32 590.191 1666.42 589.759 1667.33C589.375 1668.19 588.943 1669.15 588.463 1670.11C588.223 1670.54 588.223 1670.59 588.127 1670.78L587.743 1671.5C588.319 1671.46 589.087 1671.41 590.047 1671.41L600.559 1671.26C601.855 1671.26 602.671 1671.22 603.055 1671.17C601.951 1668.77 601.087 1667.23 599.551 1665.17L603.103 1663.97C604.975 1666.46 606.079 1668.38 607.375 1671.55L605.311 1672.32ZM613.615 1669.39L610.063 1670.74C608.911 1667.9 607.519 1665.46 605.935 1663.3L609.391 1662.1C611.359 1664.64 612.463 1666.56 613.615 1669.39Z" fill="black"/>
<path d="M523.856 1673.18L527.84 1668.43C533.552 1671.98 536.528 1674.19 540.224 1677.7L536.096 1682.93C532.256 1678.85 528.32 1675.68 523.856 1673.18ZM525.536 1704.86L523.76 1698.24C527.888 1698 533.6 1696.61 537.968 1694.69C543.968 1692.1 548.432 1688.4 552.224 1682.93C554.336 1679.86 555.68 1677.22 557.12 1673.33C558.992 1675.58 559.76 1676.3 562.208 1678.03C558.128 1686.82 553.568 1692.48 546.992 1696.85C542.096 1700.11 536.144 1702.46 528.704 1704.05C526.784 1704.43 526.64 1704.48 525.536 1704.86Z" fill="black"/>
<path d="M484.112 1671.41V1681.1C491.36 1679.76 501.968 1675.49 505.088 1672.56L508.928 1677.98C508.4 1678.18 508.304 1678.22 507.92 1678.42L506.672 1679.04C499.568 1682.69 492.128 1685.18 484.112 1686.67V1693.01C484.064 1693.3 484.064 1693.58 484.064 1693.78C484.064 1696.46 484.256 1697.52 484.928 1698.19C485.744 1699.01 488.48 1699.44 493.136 1699.44C496.352 1699.44 500.768 1699.15 504.272 1698.67C506.576 1698.38 507.632 1698.14 509.744 1697.52L510.032 1703.9C509.024 1703.9 508.784 1703.95 503.696 1704.43C500.864 1704.72 494.816 1705.01 491.888 1705.01C485.84 1705.01 482.528 1704.38 480.656 1702.94C479.312 1701.94 478.592 1700.4 478.304 1698.05C478.208 1697.23 478.16 1696.42 478.16 1693.63L478.112 1671.36C478.112 1668.91 478.112 1668.14 477.92 1666.94H484.352C484.16 1668.1 484.112 1668.96 484.112 1671.41ZM511.76 1662.91C514.832 1662.91 517.328 1665.41 517.328 1668.43C517.328 1671.5 514.832 1674 511.76 1674C508.736 1674 506.24 1671.5 506.24 1668.43C506.24 1665.41 508.736 1662.91 511.76 1662.91ZM511.76 1665.31C510.032 1665.31 508.64 1666.7 508.64 1668.43C508.64 1670.16 510.032 1671.6 511.76 1671.6C513.536 1671.6 514.928 1670.16 514.928 1668.43C514.928 1666.7 513.536 1665.31 511.76 1665.31Z" fill="black"/>
<path d="M429.68 1677.89L434.768 1676.4C436.784 1680.1 437.744 1682.4 439.472 1687.78L434.048 1689.5C432.8 1684.66 431.84 1682.11 429.68 1677.89ZM439.952 1675.87L444.992 1674.43C447.536 1679.18 448.448 1681.3 449.648 1685.47L444.32 1687.15C443.408 1683.5 441.968 1679.81 439.952 1675.87ZM456.464 1675.39L462.32 1676.74C462.032 1677.46 461.936 1677.7 461.648 1679.18C460.256 1685.71 458.096 1690.99 455.024 1695.17C451.472 1700.02 447.488 1703.14 440.384 1706.74C439.136 1704.62 438.56 1703.9 436.544 1701.98C439.904 1700.69 441.872 1699.63 444.704 1697.57C450.32 1693.49 453.536 1688.59 455.6 1680.91C456.224 1678.56 456.464 1676.88 456.464 1675.39Z" fill="black"/>
<path d="M393.297 1706.16H386.721C386.961 1704.62 387.009 1703.33 387.009 1700.78V1670.02C387.009 1667.66 386.913 1666.42 386.721 1665.12H393.297C393.105 1666.56 393.105 1667.18 393.105 1670.16V1679.09C399.681 1681.39 407.217 1684.9 414.897 1689.22L411.537 1694.88C407.553 1692.14 402.561 1689.41 394.545 1685.71C393.441 1685.18 393.297 1685.14 392.913 1684.9C393.057 1686.24 393.105 1686.82 393.105 1688.16V1700.83C393.105 1703.33 393.153 1704.58 393.297 1706.16Z" fill="black"/>
<path d="M350 1684.08L367.04 1667.04L368.576 1668.62L351.536 1685.76L368.576 1702.8L367.04 1704.38L350 1687.49L333.008 1704.38L331.424 1702.8L348.464 1685.76L331.424 1668.62L333.008 1667.04L350 1684.08ZM350.048 1668.19C352.064 1668.19 353.696 1669.82 353.696 1671.84C353.696 1673.9 352.064 1675.54 350.048 1675.54C348.032 1675.54 346.352 1673.86 346.352 1671.84C346.352 1669.82 348.032 1668.19 350.048 1668.19ZM336.272 1682.06C338.288 1682.06 339.92 1683.7 339.92 1685.71C339.92 1687.78 338.288 1689.41 336.272 1689.41C334.256 1689.41 332.576 1687.73 332.576 1685.71C332.576 1683.7 334.208 1682.06 336.272 1682.06ZM363.728 1682.11C365.744 1682.11 367.376 1683.74 367.376 1685.76C367.376 1687.78 365.744 1689.41 363.728 1689.41C361.712 1689.41 360.08 1687.78 360.08 1685.76C360.08 1683.74 361.712 1682.11 363.728 1682.11ZM350 1696.03C352.016 1696.03 353.648 1697.66 353.648 1699.73C353.648 1701.74 351.968 1703.42 350 1703.42C348.08 1703.42 346.304 1701.65 346.304 1699.73C346.304 1697.9 348.032 1696.03 349.664 1696.03C349.712 1696.03 349.76 1696.03 349.808 1696.08C349.856 1696.13 349.856 1696.13 349.904 1696.13C349.904 1696.13 349.904 1696.13 350 1696.03Z" fill="black"/>
<path d="M778.528 1548.83V1573.03C778.528 1581.62 778.77 1585.85 779.496 1590.45H761.467C762.193 1586.34 762.435 1581.26 762.435 1573.27V1509.5C762.435 1502.85 762.193 1499.34 761.467 1493.77C766.428 1494.02 769.453 1494.14 776.834 1494.14H810.714C818.337 1494.14 822.209 1493.89 827.291 1493.29V1509.62C822.935 1509.02 818.458 1508.78 810.714 1508.78H778.528V1534.43H804.422C811.924 1534.43 816.159 1534.19 820.878 1533.58V1549.68C816.401 1549.07 811.803 1548.83 804.422 1548.83H778.528Z" fill="black"/>
<path d="M700.657 1548.83V1573.03C700.657 1581.62 700.899 1585.85 701.625 1590.45H683.596C684.322 1586.34 684.564 1581.26 684.564 1573.27V1509.5C684.564 1502.85 684.322 1499.34 683.596 1493.77C688.557 1494.02 691.582 1494.14 698.963 1494.14H732.843C740.466 1494.14 744.338 1493.89 749.42 1493.29V1509.62C745.064 1509.02 740.587 1508.78 732.843 1508.78H700.657V1534.43H726.551C734.053 1534.43 738.288 1534.19 743.007 1533.58V1549.68C738.53 1549.07 733.932 1548.83 726.551 1548.83H700.657Z" fill="black"/>
<path d="M624.078 1492.2C637.388 1492.2 647.673 1496.07 655.901 1504.3C664.734 1513.13 669.453 1526.32 669.453 1542.05C669.453 1572.66 651.666 1592.51 624.199 1592.51C596.732 1592.51 579.066 1572.79 579.066 1542.05C579.066 1526.44 583.906 1513.01 592.86 1504.3C601.209 1496.07 611.252 1492.2 624.078 1492.2ZM624.441 1578.11C641.744 1578.11 652.513 1564.32 652.513 1542.05C652.513 1529.83 649.125 1520.03 642.954 1513.86C637.993 1509.02 631.58 1506.48 624.32 1506.48C606.896 1506.48 595.885 1520.27 595.885 1542.17C595.885 1554.27 599.394 1564.44 605.686 1570.73C610.647 1575.57 617.06 1578.11 624.441 1578.11Z" fill="black"/>
<path d="M476.025 1588.64L552.134 1491.23L558.426 1496.07L482.196 1593.6L476.025 1588.64ZM545.721 1592.39C538.945 1592.39 533.379 1590.33 529.265 1586.22C524.667 1581.74 522.247 1574.48 522.247 1565.28C522.247 1556.21 524.667 1549.07 529.265 1544.47C533.379 1540.48 539.066 1538.3 545.721 1538.3C552.376 1538.3 558.063 1540.48 562.056 1544.47C566.654 1548.95 569.074 1556.21 569.074 1565.28C569.074 1574.48 566.654 1581.74 562.056 1586.22C557.942 1590.33 552.376 1592.39 545.721 1592.39ZM545.721 1548.59C542.212 1548.59 539.913 1549.68 537.977 1552.46C535.799 1555.48 534.71 1559.6 534.71 1565.04C534.71 1576.17 538.582 1582.22 545.721 1582.22C552.981 1582.22 556.732 1576.17 556.732 1564.44C556.732 1559.6 555.522 1555.24 553.465 1552.34C551.408 1549.68 549.23 1548.59 545.721 1548.59ZM488.73 1546.41C481.954 1546.41 476.388 1544.35 472.274 1540.24C467.676 1535.76 465.256 1528.38 465.256 1519.3C465.256 1502.36 473.968 1492.32 488.73 1492.32C495.385 1492.32 501.072 1494.5 505.065 1498.49C509.663 1502.97 512.083 1510.23 512.083 1519.3C512.083 1528.5 509.663 1535.76 505.065 1540.24C500.951 1544.35 495.385 1546.41 488.73 1546.41ZM488.73 1502.61C481.712 1502.61 477.719 1508.54 477.719 1519.06C477.719 1530.19 481.591 1536.24 488.73 1536.24C495.748 1536.24 499.741 1530.19 499.741 1519.3C499.741 1514.95 498.894 1510.59 497.563 1508.05C495.506 1504.3 492.723 1502.61 488.73 1502.61Z" fill="black"/>
<path d="M381.535 1568.91L398.233 1565.4C399.322 1568.91 400.169 1570.49 401.863 1572.42C405.251 1576.54 410.333 1578.59 416.746 1578.59C428.725 1578.59 436.59 1570.61 436.59 1558.63C436.59 1546.77 429.088 1539.15 417.593 1539.15C411.664 1539.15 406.34 1541.08 402.589 1544.71C400.895 1546.41 400.048 1547.5 398.959 1550.16L383.834 1548.71C385.044 1540.12 385.165 1539.51 385.407 1536.12L388.19 1506.11C388.311 1503.94 388.553 1499.82 388.674 1493.77C392.304 1494.01 395.087 1494.14 401.5 1494.14H431.266C439.615 1494.14 442.64 1494.01 448.085 1493.17V1508.41C442.761 1507.69 438.042 1507.45 431.387 1507.45H402.952L401.016 1528.62C400.895 1529.59 400.653 1531.28 400.29 1533.7C406.219 1528.62 412.632 1526.32 420.981 1526.32C430.782 1526.32 438.647 1529.23 444.576 1535.4C450.505 1541.2 453.167 1548.46 453.167 1558.14C453.167 1579.44 439.252 1592.63 416.746 1592.63C404.767 1592.63 395.813 1589.24 389.158 1582.1C385.891 1578.59 384.197 1575.69 381.535 1568.91Z" fill="black"/>
<path d="M342.463 1590.45H324.192C324.918 1585.73 325.16 1581.01 325.16 1574.72V1508.05H319.352C314.875 1508.05 311.366 1508.29 306.889 1508.78V1493.41C310.64 1494.02 313.302 1494.14 318.989 1494.14H330.121C336.292 1494.14 338.107 1494.02 342.463 1493.53C341.737 1500.67 341.495 1506.24 341.495 1513.5V1574.72C341.495 1581.14 341.737 1585.49 342.463 1590.45Z" fill="black"/>
<path d="M689.408 1403.93V1397.26C691.52 1397.54 692.432 1397.59 697.184 1397.59H722.768C727.52 1397.59 728.432 1397.54 730.544 1397.26V1403.93C728.624 1403.69 728.096 1403.69 722.72 1403.69H697.232C691.856 1403.69 691.328 1403.69 689.408 1403.93Z" fill="black"/>
<path d="M669.392 1414.78H674.432C676.64 1414.78 677.552 1414.73 678.848 1414.49V1419.96C677.552 1419.82 676.448 1419.77 674.432 1419.77H649.52C647.408 1419.77 646.4 1419.82 645.104 1419.96V1414.49C646.448 1414.73 647.312 1414.78 649.52 1414.78H663.68C664.496 1410.5 665.504 1403.74 665.984 1399.37H654.079C651.775 1399.37 651.056 1399.42 649.808 1399.56V1394.14C651.008 1394.33 652.352 1394.42 654.224 1394.42H666.368C668.048 1394.42 668.768 1394.33 669.92 1393.99L672.56 1396.3C671.984 1397.78 671.984 1397.78 671.456 1401.77C670.736 1407.05 670.208 1410.46 669.392 1414.78Z" fill="black"/>
<path d="M598.879 1392.17V1385.83C600.607 1386.12 601.711 1386.17 604.543 1386.17H623.407C626.239 1386.17 627.343 1386.12 629.071 1385.83V1392.17C627.487 1391.98 626.335 1391.93 623.455 1391.93H604.495C601.615 1391.93 600.463 1391.98 598.879 1392.17ZM594.031 1415.64V1409.21C595.855 1409.5 596.911 1409.54 600.175 1409.54H627.727C630.991 1409.54 632.047 1409.5 633.871 1409.21V1415.64C632.191 1415.45 630.943 1415.4 627.823 1415.4H600.079C596.959 1415.4 595.711 1415.45 594.031 1415.64Z" fill="black"/>
<path d="M574.304 1380.55L580.832 1382.81C580.304 1383.72 580.112 1384.1 579.152 1386.26C576.128 1393.42 574.256 1397.06 572.384 1399.85C576.416 1403.26 578.912 1405.61 583.088 1410.02L578.48 1414.97C575.984 1411.7 573.104 1408.73 568.736 1404.84C566.672 1407.58 564.176 1410.26 561.248 1412.86C557.792 1415.88 554.72 1418.04 549.824 1420.78C548.528 1418.47 547.76 1417.61 545.6 1415.78C550.928 1413.14 554.24 1410.94 558.032 1407.48C560.336 1405.42 562.256 1403.35 564.128 1400.95C560.288 1397.78 555.68 1394.66 551.408 1392.31L555.632 1388.09C559.136 1390.15 561.2 1391.5 563.552 1393.18C567.152 1395.77 567.152 1395.77 567.536 1396.01C570.608 1390.97 573.68 1384.01 574.304 1380.55Z" fill="black"/>
<path d="M515.024 1399.51H508.784C506.48 1399.51 504.848 1399.61 503.552 1399.75V1396.34C501.248 1397.69 500.384 1398.17 498.32 1399.08C496.88 1396.39 496.88 1396.39 495.152 1393.99C499.712 1392.22 503.6 1390.1 506.768 1387.66C508.352 1386.41 510.56 1384.34 512.048 1382.62C513.056 1381.51 513.584 1380.84 514.64 1379.16H520.736C523.424 1382.81 525.728 1385.11 529.28 1387.66C533.264 1390.49 536.432 1392.12 541.04 1393.75C539.312 1396.25 538.736 1397.3 537.968 1399.27C535.808 1398.26 534.416 1397.5 532.256 1396.25V1399.75C530.864 1399.61 529.376 1399.51 527.168 1399.51H520.4V1404.94H528.176C530.672 1404.94 532.208 1404.84 533.456 1404.7V1410.07C532.16 1409.93 530.528 1409.83 528.176 1409.83H520.4V1416.31H532.88C535.424 1416.31 537.488 1416.22 538.976 1416.02V1421.64C537.392 1421.4 535.376 1421.3 532.928 1421.3H502.976C500.528 1421.3 498.56 1421.4 496.976 1421.64V1416.02C498.368 1416.22 500.432 1416.31 503.12 1416.31H515.024V1409.83H507.968C505.568 1409.83 503.936 1409.93 502.64 1410.07V1404.7C504.128 1404.89 505.568 1404.94 507.968 1404.94H515.024V1399.51ZM508.4 1394.66H527.408C528.416 1394.66 528.752 1394.66 529.664 1394.62C524.384 1391.11 521.36 1388.33 517.856 1383.72C515.072 1387.85 511.616 1391.11 506.288 1394.62C507.248 1394.66 507.68 1394.66 508.4 1394.66Z" fill="black"/>
<path d="M482.48 1380.02L486.32 1384.92C485.744 1385.06 485.744 1385.06 482.288 1386.22C479.552 1387.08 478.016 1387.46 474.272 1388.18C474.224 1394.66 474.224 1394.66 474.128 1396.3H484.304C487.568 1396.3 488.384 1396.25 490.16 1395.96V1401.72C488.384 1401.53 487.472 1401.48 484.4 1401.48H473.792C473.264 1405.94 472.256 1409.16 470.576 1411.94C468.896 1414.73 466.112 1417.42 462.752 1419.58C461.408 1420.44 460.496 1420.97 458.288 1421.98C456.896 1419.53 456.128 1418.62 454.112 1416.89C457.568 1415.64 459.392 1414.63 461.552 1412.86C464.432 1410.55 466.256 1407.82 467.072 1404.7C467.264 1403.88 467.408 1403.06 467.6 1401.48H455.744C452.672 1401.48 451.76 1401.53 449.984 1401.72V1395.96C451.76 1396.25 452.576 1396.3 455.84 1396.3H468.128C468.224 1394.28 468.224 1392.41 468.224 1389.05C464.336 1389.62 462.848 1389.77 454.928 1390.15C454.448 1387.99 454.208 1387.27 453.152 1384.97C454.64 1385.06 455.408 1385.06 456.128 1385.06C462.56 1385.06 470.768 1383.96 476.672 1382.28C479.456 1381.46 480.848 1380.94 482.48 1380.02Z" fill="black"/>
<path d="M403.856 1388.18L407.84 1383.43C413.552 1386.98 416.528 1389.19 420.224 1392.7L416.096 1397.93C412.256 1393.85 408.32 1390.68 403.856 1388.18ZM405.536 1419.86L403.76 1413.24C407.888 1413 413.6 1411.61 417.968 1409.69C423.968 1407.1 428.432 1403.4 432.224 1397.93C434.336 1394.86 435.68 1392.22 437.12 1388.33C438.992 1390.58 439.76 1391.3 442.208 1393.03C438.128 1401.82 433.568 1407.48 426.992 1411.85C422.096 1415.11 416.144 1417.46 408.704 1419.05C406.784 1419.43 406.64 1419.48 405.536 1419.86Z" fill="black"/>
<path d="M359.695 1387.18V1381.27C361.279 1381.56 362.287 1381.61 365.311 1381.61H382.063C385.087 1381.61 386.095 1381.56 387.679 1381.27V1387.18C386.191 1386.98 385.279 1386.94 382.159 1386.94H365.215C362.095 1386.94 361.183 1386.98 359.695 1387.18ZM390.127 1392.74L392.863 1395.82C392.383 1396.68 392.095 1397.35 391.519 1398.84C389.023 1405.9 385.375 1411.22 380.383 1415.06C376.975 1417.7 373.855 1419.34 367.807 1421.59C366.751 1419.19 366.175 1418.38 364.063 1416.02C369.919 1414.54 373.711 1412.76 377.407 1409.69C380.959 1406.71 383.023 1403.78 385.135 1398.46H361.759C358.543 1398.46 357.343 1398.5 355.615 1398.7V1392.84C357.439 1393.13 358.495 1393.18 361.855 1393.18H384.703C387.679 1393.18 388.639 1393.08 390.127 1392.74Z" fill="black"/>
<path d="M629.263 1182.53L638.103 1181.1C638.375 1185.66 640.415 1195.45 642.591 1202.39C647.011 1200.76 647.011 1200.76 660.203 1196.4C661.427 1196 661.767 1195.86 662.787 1195.38L665.711 1203.95C659.795 1205.11 650.887 1207.69 643.271 1210.48C633.343 1214.15 628.379 1218.5 628.379 1223.4C628.379 1228.36 633.003 1230.47 643.951 1230.47C652.451 1230.47 660.815 1229.45 665.915 1227.68L666.663 1237C665.167 1237 664.827 1237.07 661.155 1237.48C653.811 1238.22 650.003 1238.5 645.243 1238.5C635.791 1238.5 629.875 1237.34 625.523 1234.76C621.783 1232.51 619.607 1228.3 619.607 1223.4C619.607 1218.84 621.783 1214.49 625.659 1211.23C628.311 1208.98 630.487 1207.62 634.907 1205.38C633.207 1199.87 632.051 1195.32 630.351 1186.95C629.671 1183.69 629.603 1183.55 629.263 1182.53Z" fill="black"/>
<path d="M562.217 1211.77L562.353 1211.91C562.761 1211.43 562.761 1211.43 563.645 1210.41C565.821 1208.03 569.357 1206.4 572.417 1206.4C575.545 1206.4 578.537 1207.96 580.033 1210.28C581.393 1212.45 581.733 1214.9 581.733 1222.72C581.733 1227.62 582.005 1228.98 583.229 1230C583.977 1230.61 585.201 1230.95 586.833 1230.95C590.437 1230.95 593.361 1228.43 595.333 1223.67C596.557 1220.61 597.577 1216.4 597.917 1212.86C600.161 1215.17 601.181 1215.85 605.397 1217.96C602.473 1232.04 595.809 1239.11 585.541 1239.11C580.305 1239.11 576.565 1237.07 574.865 1233.19C574.117 1231.42 573.709 1228.98 573.709 1225.64C573.709 1225.58 573.709 1225.24 573.709 1224.96C573.777 1222.52 573.777 1220.88 573.777 1220.2C573.777 1218.1 573.641 1217.08 573.233 1216.19C572.757 1215.24 571.533 1214.63 570.173 1214.63C566.501 1214.63 562.693 1218.03 559.361 1224.15C557.321 1228.02 554.533 1235.57 553.649 1239.72L544.877 1236.86C545.829 1234.89 546.441 1233.26 548.617 1227.34C564.257 1183.89 564.257 1183.89 564.733 1181.1L573.913 1183.42C572.961 1185.25 572.621 1186 570.581 1191.24C566.705 1201.16 563.713 1208.58 562.217 1211.77Z" fill="black"/>
<path d="M493.604 1181.17L502.444 1182.12C502.24 1182.74 502.036 1183.48 501.9 1184.23C501.764 1185.12 501.696 1185.46 501.492 1186.54C501.288 1187.97 501.288 1187.97 500.336 1193.07C500.064 1194.57 500.064 1194.7 499.86 1195.59C501.832 1195.45 502.784 1195.38 504.076 1195.38C508.564 1195.38 511.896 1196.61 514.14 1198.99C516.452 1201.57 517.336 1204.84 517.336 1211.02C517.336 1222.72 515.364 1232.04 512.1 1235.78C510.196 1238.02 508.156 1238.84 504.552 1238.84C501.424 1238.84 498.636 1238.29 494.08 1236.86C494.148 1235.5 494.216 1234.55 494.216 1233.87C494.216 1232.1 494.08 1230.74 493.536 1228.09C497.208 1229.72 501.084 1230.74 503.464 1230.74C505.436 1230.74 506.524 1229.45 507.544 1226.12C508.632 1222.58 509.312 1216.4 509.312 1210.62C509.312 1204.36 507.748 1202.52 502.376 1202.52C501.016 1202.52 499.996 1202.59 498.432 1202.73C496.392 1211.02 495.78 1213.06 494.284 1217.48C491.904 1224.28 490.068 1228.64 486.124 1236.59C485.784 1237.27 485.784 1237.27 485.104 1238.63C484.9 1239.04 484.9 1239.11 484.56 1239.79L476.672 1235.44C478.712 1232.72 481.432 1227.82 483.744 1222.65C486.668 1215.99 487.62 1213.13 490.34 1203.41C486.872 1203.82 480.412 1204.97 478.168 1205.58L477.352 1197.56C479.868 1197.56 488.096 1196.74 491.836 1196.2C493.06 1188.86 493.604 1184.71 493.604 1182.46C493.604 1182.19 493.604 1181.72 493.604 1181.17ZM517.948 1194.23L524.952 1190.83C531.752 1198.78 536.036 1206.88 538.96 1217.35L531.208 1221.29C529.916 1215.44 528.352 1210.96 525.768 1205.86C523.32 1200.82 521.144 1197.7 517.948 1194.23Z" fill="black"/>
<path d="M411.529 1205.04L409.557 1195.38C411.869 1195.18 412.957 1195.04 417.513 1194.02C433.017 1190.69 436.689 1190.15 444.577 1190.15C458.041 1190.15 466.813 1197.7 466.813 1209.26C466.813 1218.5 461.373 1226.32 451.717 1231.02C445.529 1234.08 440.225 1235.3 427.781 1236.66C426.897 1232.99 426.285 1231.56 424.313 1227.89C435.193 1227.41 440.905 1226.39 446.685 1223.88C451.581 1221.7 455.593 1217.82 456.953 1213.81C457.429 1212.45 457.701 1210.75 457.701 1208.98C457.701 1205.24 455.797 1201.98 452.533 1200.14C450.357 1198.92 447.501 1198.31 443.761 1198.31C436.689 1198.31 427.917 1199.87 416.969 1203.14C413.501 1204.16 412.957 1204.29 411.529 1205.04Z" fill="black"/>
</svg>
