<svg width="1080" height="1920" viewBox="0 0 1080 1920" fill="none" xmlns="http://www.w3.org/2000/svg">
<path d="M1080 1920L1080 0L0 0L0 1920H1080Z" fill="#A5D4AD"/>
<path d="M1020 983.72V95C1020 75.67 1004.33 60 985 60H95.58C75.93 60 60 75.93 60 95.58V983.71C60 984.03 60.25 984.28 60.57 984.28C80.03 984.59 95.71 1000.46 95.71 1019.99C95.71 1039.52 80.03 1055.39 60.57 1055.7C60.25 1055.7 60 1055.96 60 1056.27V1824.99C60 1844.32 75.67 1859.99 95 1859.99H985C1004.33 1859.99 1020 1844.32 1020 1824.99V1056.27C1020 1055.95 1019.75 1055.7 1019.43 1055.7C999.97 1055.39 984.29 1039.52 984.29 1019.99C984.29 1000.46 999.97 984.59 1019.43 984.28C1019.75 984.28 1020 984.02 1020 983.71V983.72Z" fill="white"/>
<path d="M60.57 1055.71C60.25 1055.71 60 1055.97 60 1056.28V1825C60 1844.33 75.67 1860 95 1860H985C1004.33 1860 1020 1844.33 1020 1825V1056.28C1020 1055.96 1019.75 1055.71 1019.43 1055.71C999.97 1055.4 984.29 1039.53 984.29 1020H95.71C95.71 1039.53 80.03 1055.4 60.57 1055.71Z" fill="#E5F2E6"/>
<path d="M121 1020H160.9" stroke="black" stroke-width="6" stroke-miterlimit="10"/>
<path d="M187.51 1020H227.41" stroke="black" stroke-width="6" stroke-miterlimit="10"/>
<path d="M254.02 1020H293.92" stroke="black" stroke-width="6" stroke-miterlimit="10"/>
<path d="M320.52 1020H360.43" stroke="black" stroke-width="6" stroke-miterlimit="10"/>
<path d="M387.029 1020H426.939" stroke="black" stroke-width="6" stroke-miterlimit="10"/>
<path d="M453.539 1020H493.439" stroke="black" stroke-width="6" stroke-miterlimit="10"/>
<path d="M520.051 1020H559.951" stroke="black" stroke-width="6" stroke-miterlimit="10"/>
<path d="M586.561 1020H626.461" stroke="black" stroke-width="6" stroke-miterlimit="10"/>
<path d="M653.061 1020H692.971" stroke="black" stroke-width="6" stroke-miterlimit="10"/>
<path d="M719.57 1020H759.48" stroke="black" stroke-width="6" stroke-miterlimit="10"/>
<path d="M786.08 1020H825.98" stroke="black" stroke-width="6" stroke-miterlimit="10"/>
<path d="M852.59 1020H892.49" stroke="black" stroke-width="6" stroke-miterlimit="10"/>
<path d="M919.1 1020H959" stroke="black" stroke-width="6" stroke-miterlimit="10"/>
<path d="M1020 984.29V95C1020 75.67 1004.33 60 985 60H95C75.67 60 60 75.67 60 95V984.29C79.72 984.29 95.71 1000.28 95.71 1020C95.71 1039.72 79.72 1055.71 60 1055.71V1825C60 1844.33 75.67 1860 95 1860H985C1004.33 1860 1020 1844.33 1020 1825V1055.71C1000.28 1055.71 984.29 1039.72 984.29 1020C984.29 1000.28 1000.28 984.29 1020 984.29Z" stroke="black" stroke-width="6" stroke-miterlimit="10"/>
<path d="M912.642 525.66C908.772 525.66 905.532 522.64 905.312 518.73C900.582 435.62 868.782 358.85 813.362 296.74C810.662 293.71 810.922 289.06 813.952 286.36C816.982 283.66 821.622 283.92 824.332 286.95C881.992 351.57 915.062 431.43 919.992 517.89C920.222 521.94 917.122 525.42 913.072 525.65C912.932 525.65 912.792 525.66 912.652 525.66H912.642Z" fill="black"/>
<path d="M818.842 795.509C817.102 795.509 815.352 794.889 813.952 793.639C810.922 790.939 810.662 786.289 813.362 783.259C868.782 721.149 900.582 644.379 905.312 561.269C905.542 557.219 909.022 554.109 913.072 554.349C917.122 554.579 920.222 558.049 919.992 562.109C915.062 648.579 881.992 728.439 824.332 793.049C822.882 794.679 820.862 795.509 818.842 795.509Z" fill="black"/>
<path d="M167.352 525.66C167.212 525.66 167.072 525.66 166.932 525.65C162.882 525.42 159.782 521.95 160.012 517.89C164.942 431.42 198.012 351.56 255.672 286.95C258.372 283.92 263.022 283.66 266.052 286.36C269.082 289.06 269.342 293.71 266.642 296.74C211.222 358.85 179.422 435.61 174.692 518.73C174.472 522.64 171.232 525.66 167.362 525.66H167.352Z" fill="black"/>
<path d="M261.162 795.509C259.142 795.509 257.122 794.679 255.672 793.049C198.012 728.429 164.942 648.569 160.012 562.109C159.782 558.059 162.882 554.579 166.932 554.349C170.982 554.109 174.462 557.219 174.692 561.269C179.422 644.389 211.222 721.149 266.642 783.259C269.342 786.289 269.082 790.939 266.052 793.639C264.652 794.889 262.902 795.509 261.162 795.509Z" fill="black"/>
<path d="M788.162 268.509C786.422 268.509 784.672 267.889 783.272 266.639C721.162 211.219 644.392 179.419 561.282 174.689C557.232 174.459 554.132 170.989 554.362 166.929C554.592 162.879 558.032 159.789 562.122 160.009C648.592 164.939 728.452 198.009 793.062 255.669C796.092 258.369 796.352 263.019 793.652 266.049C792.202 267.679 790.182 268.509 788.162 268.509Z" fill="black"/>
<path d="M291.842 268.51C289.822 268.51 287.802 267.68 286.352 266.05C283.652 263.02 283.912 258.37 286.942 255.67C351.562 198.01 431.422 164.94 517.882 160.01C521.932 159.78 525.412 162.88 525.642 166.93C525.872 170.98 522.772 174.46 518.722 174.69C435.612 179.42 358.842 211.22 296.732 266.64C295.332 267.89 293.582 268.51 291.842 268.51Z" fill="black"/>
<path d="M561.682 920C557.812 920 554.572 916.98 554.352 913.07C554.122 909.02 557.222 905.54 561.272 905.31C644.392 900.58 721.152 868.78 783.262 813.36C786.292 810.66 790.942 810.92 793.642 813.95C796.342 816.98 796.082 821.63 793.052 824.33C728.432 881.99 648.572 915.06 562.112 919.99C561.972 919.99 561.832 920 561.692 920H561.682Z" fill="black"/>
<path d="M518.312 920C518.172 920 518.032 920 517.892 919.99C431.422 915.06 351.562 881.99 286.952 824.33C283.922 821.63 283.662 816.98 286.362 813.95C289.062 810.92 293.712 810.66 296.742 813.36C358.852 868.78 435.622 900.58 518.732 905.31C522.782 905.54 525.882 909.01 525.652 913.07C525.432 916.98 522.192 920 518.322 920H518.312Z" fill="black"/>
<path d="M875.372 526.191C872.362 526.191 869.842 523.841 869.672 520.801C865.402 445.791 836.702 376.521 786.692 320.461C784.592 318.101 784.792 314.491 787.152 312.391C789.502 310.291 793.122 310.491 795.222 312.851C846.972 370.851 876.672 442.541 881.092 520.151C881.272 523.301 878.862 526.001 875.712 526.181C875.602 526.181 875.492 526.181 875.382 526.181L875.372 526.191Z" fill="black"/>
<path d="M790.952 769.062C789.592 769.062 788.242 768.582 787.152 767.612C784.792 765.512 784.592 761.892 786.692 759.542C836.702 703.492 865.402 634.212 869.672 559.202C869.852 556.052 872.542 553.642 875.702 553.822C878.852 554.002 881.262 556.702 881.082 559.852C876.662 637.472 846.972 709.152 795.212 767.152C794.082 768.422 792.512 769.062 790.942 769.062H790.952Z" fill="black"/>
<path d="M204.622 526.191C204.512 526.191 204.402 526.191 204.292 526.191C201.142 526.011 198.732 523.311 198.912 520.161C203.332 442.541 233.022 370.861 284.782 312.861C286.882 310.501 290.502 310.301 292.852 312.401C295.212 314.501 295.412 318.121 293.312 320.471C243.302 376.521 214.602 445.801 210.332 520.811C210.162 523.851 207.642 526.201 204.632 526.201L204.622 526.191Z" fill="black"/>
<path d="M289.042 769.061C287.472 769.061 285.902 768.411 284.772 767.151C233.022 709.151 203.322 637.461 198.902 559.851C198.722 556.701 201.132 554.001 204.282 553.821C207.442 553.631 210.132 556.051 210.312 559.201C214.582 634.211 243.282 703.491 293.292 759.541C295.392 761.901 295.192 765.511 292.832 767.611C291.742 768.581 290.382 769.061 289.032 769.061H289.042Z" fill="black"/>
<path d="M763.342 294.762C761.982 294.762 760.632 294.282 759.542 293.312C703.492 243.302 634.212 214.602 559.202 210.332C556.052 210.152 553.642 207.452 553.822 204.302C554.002 201.152 556.692 198.742 559.852 198.922C637.472 203.342 709.152 233.032 767.152 284.792C769.512 286.892 769.712 290.512 767.612 292.862C766.482 294.132 764.912 294.772 763.342 294.772V294.762Z" fill="black"/>
<path d="M316.651 294.761C315.081 294.761 313.511 294.111 312.381 292.851C310.281 290.491 310.481 286.881 312.841 284.781C370.841 233.031 442.531 203.331 520.141 198.911C523.291 198.721 525.991 201.141 526.171 204.291C526.351 207.441 523.941 210.141 520.791 210.321C445.781 214.591 376.511 243.291 320.451 293.301C319.361 294.271 318.001 294.751 316.651 294.751V294.761Z" fill="black"/>
<path d="M559.522 881.102C556.512 881.102 553.992 878.752 553.822 875.712C553.642 872.562 556.052 869.862 559.202 869.682C634.212 865.412 703.482 836.712 759.542 786.702C761.892 784.602 765.512 784.802 767.612 787.162C769.712 789.522 769.512 793.132 767.152 795.232C709.152 846.982 637.462 876.682 559.852 881.102C559.742 881.102 559.632 881.102 559.522 881.102Z" fill="black"/>
<path d="M520.481 881.102C520.371 881.102 520.261 881.102 520.151 881.102C442.531 876.682 370.851 846.992 312.851 795.232C310.491 793.132 310.291 789.512 312.391 787.162C314.491 784.802 318.111 784.602 320.461 786.702C376.511 836.722 445.791 865.412 520.801 869.682C523.951 869.862 526.361 872.562 526.181 875.712C526.011 878.752 523.491 881.102 520.481 881.102Z" fill="black"/>
<path d="M841.841 526.51C839.691 526.51 837.891 524.83 837.771 522.66C833.911 454.91 807.991 392.34 762.821 341.71C761.321 340.03 761.471 337.45 763.151 335.94C764.831 334.44 767.411 334.58 768.921 336.27C815.341 388.29 841.971 452.58 845.931 522.19C846.061 524.44 844.341 526.37 842.081 526.5C842.001 526.5 841.921 526.5 841.841 526.5V526.51Z" fill="black"/>
<path d="M765.862 745.101C764.892 745.101 763.922 744.761 763.142 744.061C761.462 742.561 761.312 739.981 762.812 738.291C807.982 687.661 833.902 625.091 837.762 557.341C837.892 555.091 839.852 553.391 842.072 553.491C844.322 553.621 846.042 555.551 845.922 557.801C841.952 627.411 815.322 691.701 768.912 743.721C768.102 744.621 766.982 745.081 765.862 745.081V745.101Z" fill="black"/>
<path d="M238.162 526.51C238.082 526.51 238.002 526.51 237.922 526.51C235.672 526.38 233.952 524.45 234.072 522.2C238.042 452.59 264.672 388.3 311.082 336.28C312.582 334.6 315.162 334.45 316.852 335.95C318.532 337.45 318.682 340.03 317.182 341.72C272.012 392.35 246.092 454.92 242.232 522.67C242.112 524.84 240.312 526.52 238.162 526.52V526.51Z" fill="black"/>
<path d="M314.131 745.101C313.011 745.101 311.891 744.641 311.081 743.741C264.661 691.721 238.031 627.431 234.071 557.821C233.941 555.571 235.661 553.641 237.921 553.511C240.161 553.401 242.101 555.101 242.231 557.361C246.091 625.111 272.011 687.681 317.181 738.311C318.681 739.991 318.531 742.571 316.851 744.081C316.071 744.771 315.101 745.121 314.131 745.121V745.101Z" fill="black"/>
<path d="M741.01 318.219C740.04 318.219 739.07 317.879 738.29 317.179C687.66 272.009 625.09 246.089 557.34 242.229C555.09 242.099 553.37 240.169 553.49 237.919C553.62 235.669 555.54 233.959 557.8 234.069C627.41 238.039 691.7 264.669 743.73 311.079C745.41 312.579 745.56 315.159 744.06 316.849C743.25 317.749 742.13 318.209 741.01 318.209V318.219Z" fill="black"/>
<path d="M338.991 318.22C337.871 318.22 336.751 317.76 335.941 316.86C334.441 315.18 334.591 312.6 336.271 311.09C388.291 264.67 452.581 238.04 522.191 234.08C524.441 233.96 526.371 235.67 526.501 237.93C526.631 240.18 524.91 242.11 522.65 242.24C454.9 246.1 392.331 272.02 341.701 317.19C340.921 317.88 339.951 318.23 338.981 318.23L338.991 318.22Z" fill="black"/>
<path d="M557.561 845.929C555.411 845.929 553.611 844.249 553.491 842.079C553.361 839.829 555.081 837.899 557.341 837.769C625.091 833.909 687.661 807.989 738.291 762.819C739.971 761.319 742.551 761.469 744.061 763.149C745.561 764.829 745.411 767.409 743.731 768.919C691.711 815.339 627.421 841.969 557.801 845.929C557.721 845.929 557.641 845.929 557.561 845.929Z" fill="black"/>
<path d="M522.431 845.929C522.351 845.929 522.271 845.929 522.191 845.929C452.581 841.959 388.291 815.329 336.271 768.919C334.591 767.419 334.441 764.839 335.941 763.149C337.441 761.469 340.021 761.319 341.711 762.819C392.341 807.989 454.911 833.909 522.661 837.769C524.911 837.899 526.631 839.829 526.511 842.079C526.391 844.249 524.591 845.929 522.441 845.929H522.431Z" fill="black"/>
<path d="M320.642 546.17C320.642 544.6 321.782 543.27 323.332 543.02C324.632 542.81 326.262 542.52 327.972 542.12C332.392 541.08 337.582 539.11 343.402 536.27C349.282 533.4 354.912 529.41 359.162 523.67C366.332 513.97 367.852 501.4 368.182 496.89C368.252 495.97 367.522 495.19 366.592 495.19H317.082C315.322 495.19 313.902 493.76 313.902 492.01V470.69C313.902 468.93 315.332 467.51 317.082 467.51H367.062C367.942 467.51 368.652 466.8 368.652 465.92V447.18C368.652 446.3 367.942 445.59 367.062 445.59H328.612C326.852 445.59 325.432 444.16 325.432 442.41V421.09C325.432 419.33 326.862 417.91 328.612 417.91H428.952C430.712 417.91 432.132 419.34 432.132 421.09V442.41C432.132 444.17 430.702 445.59 428.952 445.59H398.512C397.632 445.59 396.922 446.3 396.922 447.18V465.92C396.922 466.8 397.632 467.51 398.512 467.51H438.572C440.332 467.51 441.752 468.94 441.752 470.69V492.01C441.752 493.77 440.322 495.19 438.572 495.19H398.382C397.532 495.19 396.832 495.86 396.792 496.71C396.562 501.75 395.142 518.44 386.172 532.85C380.722 541.61 373.642 548.26 366.532 553.54C359.402 558.84 352.252 562.93 345.262 565.7C338.232 568.49 332.332 570.44 327.742 571.51C326.652 571.76 325.482 571.99 324.392 572.18C322.442 572.53 320.652 571.03 320.652 569.04V546.16L320.642 546.17Z" fill="black"/>
<path d="M474.542 546.52C474.542 545.06 475.542 543.79 476.952 543.43C485.202 541.36 488.922 540.11 496.832 536.32C496.832 536.32 500.882 534.21 504.922 531.3C517.102 522.54 525.212 510.63 525.212 510.63C534.672 497.28 537.762 474.91 538.482 468.49C538.592 467.55 537.852 466.72 536.902 466.72H500.572C500.342 466.72 500.132 466.84 500.022 467.04L499.872 467.29C494.292 478.11 486.872 487.99 480.442 494.24C473.992 500.5 468.582 505.05 464.372 507.75L461.772 509.42C460.712 510.1 459.322 509.34 459.322 508.08V479.89C459.322 478.95 459.742 478.06 460.462 477.45C461.112 476.9 461.982 476.13 463.172 475.06C465.932 472.57 469.042 468.51 472.412 462.98C475.752 457.51 479.342 450.21 483.062 441.29C486.442 433.2 488.972 423.09 490.852 412.06C491.112 410.53 492.442 409.42 493.992 409.42H513.902C515.902 409.42 517.412 411.25 517.032 413.21C516.392 416.52 515.702 420.88 514.842 424.31C513.572 429.39 512.752 432.3 511.232 436.72C510.972 437.47 511.532 438.24 512.322 438.24H591.172C592.932 438.24 594.352 439.67 594.352 441.42V463.51C594.352 465.27 592.922 466.69 591.172 466.69H568.132C567.322 466.69 566.632 467.3 566.552 468.11C565.922 474.01 562.872 497.16 552.382 517.26C538.282 546 508.132 566.39 478.332 572.13C476.372 572.51 474.552 571 474.552 569V546.48L474.542 546.52Z" fill="black"/>
<path d="M675.893 411.029V468.869C675.893 469.749 676.603 470.459 677.483 470.459H764.513C765.393 470.459 766.103 469.749 766.103 468.869V411.029C766.103 410.149 765.393 409.439 764.513 409.439H677.483C676.603 409.439 675.893 410.149 675.893 411.029ZM738.453 452.739H702.293C701.413 452.739 700.703 452.029 700.703 451.149V446.869C700.703 445.989 701.413 445.279 702.293 445.279H738.453C739.333 445.279 740.043 445.989 740.043 446.869V451.149C740.043 452.029 739.333 452.739 738.453 452.739ZM738.453 434.449H702.293C701.413 434.449 700.703 433.739 700.703 432.859V428.749C700.703 427.869 701.413 427.159 702.293 427.159H738.453C739.333 427.159 740.043 427.869 740.043 428.749V432.859C740.043 433.739 739.333 434.449 738.453 434.449Z" fill="black"/>
<path d="M674.222 497.34H728.262C729.142 497.34 729.852 498.05 729.852 498.93V502.84C729.852 503.72 729.142 504.43 728.262 504.43H667.752C665.992 504.43 664.572 505.86 664.572 507.61V522.86C664.572 524.62 666.002 526.04 667.752 526.04H728.262C729.142 526.04 729.852 526.75 729.852 527.63V545.39C729.852 546.11 729.932 547.98 729.212 548.85C728.382 549.87 727.142 549.67 725.842 549.72C722.532 549.72 719.572 549.7 716.942 549.66C716.542 549.66 716.252 549.29 716.332 548.9C716.592 547.63 716.722 546.31 716.692 544.96C716.492 535.68 708.932 528.08 699.652 527.84C689.572 527.58 681.362 535.85 681.702 545.94C682.012 555.29 689.782 562.81 699.142 562.84C704.032 562.85 708.452 560.86 711.632 557.64C711.972 557.3 712.542 557.43 712.692 557.88C714.152 562.21 715.532 566.34 716.782 570.05C717.222 571.35 718.452 572.22 719.822 572.21C725.722 572.17 730.502 571.96 734.172 571.6C738.302 571.18 742.082 570.15 745.512 568.5C749.172 566.84 751.682 564.42 753.042 561.23C754.402 558.04 755.082 553.55 755.082 547.76V527.62C755.082 526.74 755.792 526.03 756.672 526.03H762.902C764.662 526.03 766.082 524.6 766.082 522.85V507.6C766.082 505.84 764.652 504.42 762.902 504.42H756.672C755.792 504.42 755.082 503.71 755.082 502.83V498.92C755.082 498.04 755.792 497.33 756.672 497.33H762.902C764.662 497.33 766.082 495.9 766.082 494.15V479.6C766.082 477.84 764.652 476.42 762.902 476.42H674.202C672.442 476.42 671.022 477.85 671.022 479.6V494.15C671.022 495.91 672.452 497.33 674.202 497.33L674.222 497.34Z" fill="black"/>
<path d="M668.822 409.439H650.252C649.392 409.439 648.572 409.789 647.972 410.399C635.222 423.349 618.282 434.569 612.122 438.479C610.772 439.329 610.272 441.059 610.942 442.499L620.692 463.569C621.622 465.569 624.252 466.049 625.822 464.499C646.112 444.459 664.442 419.799 670.112 411.959C670.872 410.909 670.112 409.439 668.822 409.439Z" fill="black"/>
<path d="M671.912 453.889V435.409C671.912 433.999 670.212 433.289 669.202 434.279C653.632 449.599 620.042 477.059 611.672 483.859C610.542 484.779 610.182 486.349 610.792 487.669L620.692 509.049C621.622 511.049 624.252 511.529 625.822 509.979C627.532 508.289 629.232 506.559 630.912 504.819C631.312 504.409 632.012 504.689 632.012 505.259V569.059C632.012 570.819 633.442 572.239 635.192 572.239H653.812C655.572 572.239 656.992 570.809 656.992 569.059V476.369C656.992 475.299 657.352 474.249 658.022 473.409C664.862 464.729 669.712 458.019 671.332 455.739C671.712 455.199 671.922 454.559 671.922 453.889H671.912Z" fill="black"/>
<path d="M653.263 623.33C640.843 623.33 634.803 628.28 634.803 638.47V655.6C634.803 665.67 640.843 670.56 653.263 670.56C659.133 670.56 663.473 669.48 666.553 667.27C669.993 664.8 671.733 660.87 671.733 655.59V638.46C671.733 628.27 665.693 623.32 653.273 623.32L653.263 623.33ZM646.083 639.3C646.083 633.93 648.833 632.91 653.263 632.91C657.693 632.91 660.443 633.95 660.443 639.3V654.68C660.443 659.95 657.593 660.98 653.263 660.98C648.933 660.98 646.083 659.98 646.083 654.68V639.3Z" fill="black"/>
<path d="M708.262 669.331H721.352L703.622 646.781L720.552 624.8H707.392L694.052 642.281V610.23H682.762V669.331H694.052V659.211L696.942 655.451L708.262 669.331Z" fill="black"/>
<path d="M754.812 624.801V653.291C754.812 659.041 751.872 660.891 746.822 660.891C743.552 660.891 740.272 660.351 740.272 653.881V624.811H728.992V656.771C728.992 665.741 733.702 670.481 742.612 670.481C749.292 670.481 753.872 666.861 755.572 662.801L757.382 669.341H766.102V624.811H754.822L754.812 624.801Z" fill="black"/>
<path d="M630.563 610.23H589.143V620.141V620.151H604.213V669.331H615.683V620.151H630.563V610.23Z" fill="black"/>
<path d="M459.681 669.331H472.771L455.041 646.781L471.971 624.8H458.811L445.471 642.281V610.23H434.191V669.331H445.471V659.211L448.361 655.451L459.681 669.331Z" fill="black"/>
<path d="M355.322 610.23H313.902V620.141V620.151H328.982V669.331H340.442V620.151H355.322V610.23Z" fill="black"/>
<path d="M421.792 658.89L421.192 659.04C417.612 659.96 413.282 660.89 409.402 660.89C404.852 660.89 401.682 658.82 401.682 652.83V640.97C401.682 634.9 404.852 632.82 409.402 632.82C413.352 632.82 417.872 633.7 421.222 634.4L421.802 634.52V625.19L421.492 625.12C417.682 624.23 412.042 623.33 407.522 623.33C402.002 623.33 397.962 624.4 395.162 626.59C391.962 629.09 390.412 633.85 390.412 639.34V654.64C390.412 664.77 396.012 670.56 407.532 670.56C411.402 670.56 417.262 669.49 421.522 668.31L421.812 668.23V658.88L421.792 658.89Z" fill="black"/>
<path d="M553.922 634.699V624.799H543.682V615.189H532.402V624.799H525.172V634.699H532.402V655.419C532.402 667.939 540.292 670.559 546.922 670.559C548.702 670.559 550.502 670.449 552.112 670.219V660.259C551.462 660.329 550.252 660.359 549.532 660.359C546.452 660.359 543.682 659.729 543.682 652.089V634.689H553.922V634.699Z" fill="black"/>
<path d="M489.733 650.741V650.561H515.163V641.481C515.163 635.571 513.543 630.241 510.353 627.341C507.413 624.671 502.773 623.311 497.253 623.311C485.073 623.311 478.453 629.221 478.453 639.591V654.451C478.453 664.701 483.833 670.551 496.313 670.551C500.973 670.551 506.283 669.561 511.963 668.401L512.353 668.321V659.051L511.703 659.201C507.133 660.251 504.613 661.141 500.283 661.141C494.073 661.141 489.733 658.621 489.733 652.201V650.721V650.741ZM489.733 639.721C489.733 634.071 493.793 632.741 497.163 632.741C500.533 632.741 504.063 634.071 504.063 639.721V643.231H489.733V642.711V639.721Z" fill="black"/>
<path d="M378.173 626.881H366.893V669.331H378.173V626.881Z" fill="black"/>
<path d="M372.532 622.22C376.415 622.22 379.562 619.073 379.562 615.19C379.562 611.308 376.415 608.16 372.532 608.16C368.649 608.16 365.502 611.308 365.502 615.19C365.502 619.073 368.649 622.22 372.532 622.22Z" fill="black"/>
<path d="M585.733 643.92H566.143V651.26H585.733V643.92Z" fill="black"/>
<path d="M759.528 1600.83V1625.03C759.528 1633.62 759.77 1637.85 760.496 1642.45H742.467C743.193 1638.34 743.435 1633.26 743.435 1625.27V1561.5C743.435 1554.85 743.193 1551.34 742.467 1545.77C747.428 1546.02 750.453 1546.14 757.834 1546.14H791.714C799.337 1546.14 803.209 1545.89 808.291 1545.29V1561.62C803.935 1561.02 799.458 1560.78 791.714 1560.78H759.528V1586.43H785.422C792.924 1586.43 797.159 1586.19 801.878 1585.58V1601.68C797.401 1601.07 792.803 1600.83 785.422 1600.83H759.528Z" fill="black"/>
<path d="M681.657 1600.83V1625.03C681.657 1633.62 681.899 1637.85 682.625 1642.45H664.596C665.322 1638.34 665.564 1633.26 665.564 1625.27V1561.5C665.564 1554.85 665.322 1551.34 664.596 1545.77C669.557 1546.02 672.582 1546.14 679.963 1546.14H713.843C721.466 1546.14 725.338 1545.89 730.42 1545.29V1561.62C726.064 1561.02 721.587 1560.78 713.843 1560.78H681.657V1586.43H707.551C715.053 1586.43 719.288 1586.19 724.007 1585.58V1601.68C719.53 1601.07 714.932 1600.83 707.551 1600.83H681.657Z" fill="black"/>
<path d="M605.078 1544.2C618.388 1544.2 628.673 1548.07 636.901 1556.3C645.734 1565.13 650.453 1578.32 650.453 1594.05C650.453 1624.66 632.666 1644.51 605.199 1644.51C577.732 1644.51 560.066 1624.79 560.066 1594.05C560.066 1578.44 564.906 1565.01 573.86 1556.3C582.209 1548.07 592.252 1544.2 605.078 1544.2ZM605.441 1630.11C622.744 1630.11 633.513 1616.32 633.513 1594.05C633.513 1581.83 630.125 1572.03 623.954 1565.86C618.993 1561.02 612.58 1558.48 605.32 1558.48C587.896 1558.48 576.885 1572.27 576.885 1594.17C576.885 1606.27 580.394 1616.44 586.686 1622.73C591.647 1627.57 598.06 1630.11 605.441 1630.11Z" fill="black"/>
<path d="M457.025 1640.64L533.134 1543.23L539.426 1548.07L463.196 1645.6L457.025 1640.64ZM526.721 1644.39C519.945 1644.39 514.379 1642.33 510.265 1638.22C505.667 1633.74 503.247 1626.48 503.247 1617.28C503.247 1608.21 505.667 1601.07 510.265 1596.47C514.379 1592.48 520.066 1590.3 526.721 1590.3C533.376 1590.3 539.063 1592.48 543.056 1596.47C547.654 1600.95 550.074 1608.21 550.074 1617.28C550.074 1626.48 547.654 1633.74 543.056 1638.22C538.942 1642.33 533.376 1644.39 526.721 1644.39ZM526.721 1600.59C523.212 1600.59 520.913 1601.68 518.977 1604.46C516.799 1607.48 515.71 1611.6 515.71 1617.04C515.71 1628.17 519.582 1634.22 526.721 1634.22C533.981 1634.22 537.732 1628.17 537.732 1616.44C537.732 1611.6 536.522 1607.24 534.465 1604.34C532.408 1601.68 530.23 1600.59 526.721 1600.59ZM469.73 1598.41C462.954 1598.41 457.388 1596.35 453.274 1592.24C448.676 1587.76 446.256 1580.38 446.256 1571.3C446.256 1554.36 454.968 1544.32 469.73 1544.32C476.385 1544.32 482.072 1546.5 486.065 1550.49C490.663 1554.97 493.083 1562.23 493.083 1571.3C493.083 1580.5 490.663 1587.76 486.065 1592.24C481.951 1596.35 476.385 1598.41 469.73 1598.41ZM469.73 1554.61C462.712 1554.61 458.719 1560.54 458.719 1571.06C458.719 1582.19 462.591 1588.24 469.73 1588.24C476.748 1588.24 480.741 1582.19 480.741 1571.3C480.741 1566.95 479.894 1562.59 478.563 1560.05C476.506 1556.3 473.723 1554.61 469.73 1554.61Z" fill="black"/>
<path d="M398.351 1644.39C388.066 1644.39 379.354 1641 372.941 1634.59C369.311 1630.96 366.528 1626.72 364.955 1622.37C361.809 1613.77 360.236 1604.34 360.236 1594.54C360.236 1581.71 363.14 1568.4 367.617 1561.02C374.151 1550.13 385.041 1544.2 398.472 1544.2C408.757 1544.2 417.59 1547.59 424.003 1554C427.633 1557.63 430.416 1561.87 431.989 1566.22C435.135 1574.69 436.708 1584.37 436.708 1594.29C436.708 1609.18 433.441 1622.24 427.754 1630.11C420.978 1639.55 410.935 1644.39 398.351 1644.39ZM398.472 1630.35C403.796 1630.35 408.515 1628.54 411.54 1625.27C416.985 1619.58 420.01 1608.33 420.01 1594.17C420.01 1580.14 416.985 1569.13 411.54 1563.2C408.636 1559.93 403.796 1558.11 398.351 1558.11C392.543 1558.11 388.308 1560.05 384.799 1564.29C379.475 1570.58 376.813 1580.5 376.813 1593.69C376.813 1606.39 379.112 1616.92 382.984 1622.49C386.735 1627.81 391.817 1630.35 398.472 1630.35Z" fill="black"/>
<path d="M323.463 1642.45H305.192C305.918 1637.73 306.16 1633.01 306.16 1626.72V1560.05H300.352C295.875 1560.05 292.366 1560.29 287.889 1560.78V1545.41C291.64 1546.02 294.302 1546.14 299.989 1546.14H311.121C317.292 1546.14 319.107 1546.02 323.463 1545.53C322.737 1552.67 322.495 1558.24 322.495 1565.5V1626.72C322.495 1633.14 322.737 1637.49 323.463 1642.45Z" fill="black"/>
<path d="M658.858 1382.25V1391.29C656.41 1390.95 654.234 1390.82 650.086 1390.82H628.87C624.79 1390.82 622.954 1390.88 620.234 1391.02C620.642 1388.3 620.778 1386.06 620.778 1382.04V1345.26C620.778 1341.72 620.642 1339.68 620.234 1336.48C622.954 1336.62 624.722 1336.69 628.87 1336.69H649.406C652.806 1336.69 655.05 1336.55 658.178 1336.21V1345.19C655.594 1344.85 653.418 1344.71 649.406 1344.71H629.822V1358.72H646.346C649.882 1358.72 652.194 1358.58 655.186 1358.24V1367.15C652.398 1366.74 650.562 1366.68 646.346 1366.68H629.754V1382.72H650.154C653.962 1382.72 655.934 1382.59 658.858 1382.25Z" fill="black"/>
<path d="M586.061 1367.42V1381.02C586.061 1385.85 586.197 1388.23 586.605 1390.82H576.473C576.881 1388.5 577.017 1385.65 577.017 1381.16V1345.32C577.017 1341.58 576.881 1339.61 576.473 1336.48C579.261 1336.62 580.961 1336.69 585.109 1336.69H604.149C608.433 1336.69 610.609 1336.55 613.465 1336.21V1345.39C611.017 1345.05 608.501 1344.92 604.149 1344.92H586.061V1359.33H600.613C604.829 1359.33 607.209 1359.2 609.861 1358.86V1367.9C607.345 1367.56 604.761 1367.42 600.613 1367.42H586.061Z" fill="black"/>
<path d="M542.299 1367.42V1381.02C542.299 1385.85 542.435 1388.23 542.843 1390.82H532.711C533.119 1388.5 533.255 1385.65 533.255 1381.16V1345.32C533.255 1341.58 533.119 1339.61 532.711 1336.48C535.499 1336.62 537.199 1336.69 541.347 1336.69H560.387C564.671 1336.69 566.847 1336.55 569.703 1336.21V1345.39C567.255 1345.05 564.739 1344.92 560.387 1344.92H542.299V1359.33H556.851C561.067 1359.33 563.447 1359.2 566.099 1358.86V1367.9C563.583 1367.56 560.999 1367.42 556.851 1367.42H542.299Z" fill="black"/>
<path d="M527.161 1390.82H516.009C515.601 1388.57 514.853 1385.65 514.105 1383.68L511.385 1376.26H489.625L486.905 1383.68C485.681 1386.94 485.409 1387.96 484.865 1390.82H473.713C474.733 1388.98 476.093 1385.92 477.317 1382.79L492.277 1343.56C493.569 1340.16 494.113 1338.46 494.453 1336.69H506.285C506.625 1338.32 507.033 1339.41 508.597 1343.56L523.693 1382.79C525.393 1387.14 526.209 1389.05 527.161 1390.82ZM508.937 1368.44L501.661 1348.32C501.389 1347.57 501.185 1346.75 500.437 1344.51C499.349 1347.7 499.349 1347.7 499.145 1348.32L492.073 1368.44H508.937Z" fill="black"/>
<path d="M460.388 1372.59L470.112 1374.29C468.82 1379.19 467.596 1381.84 465.556 1384.49C461.68 1389.25 455.152 1391.9 446.992 1391.9C439.58 1391.9 433.664 1389.66 429.516 1385.38C424.756 1380.41 422.104 1372.73 422.104 1364.02C422.104 1355.05 424.96 1347.16 430.06 1342.06C434.14 1337.91 440.26 1335.6 447.06 1335.6C452.364 1335.6 456.376 1336.62 460.116 1338.86C463.176 1340.77 465.624 1343.28 467.324 1346.28C468.14 1347.7 468.616 1348.93 469.432 1351.51L459.98 1353.69C459.028 1350.7 458.416 1349.4 457.056 1347.84C454.744 1345.05 451.344 1343.62 447.128 1343.62C437.472 1343.62 431.624 1351.17 431.624 1363.68C431.624 1376.13 437.608 1383.88 447.128 1383.88C451.888 1383.88 455.968 1382.04 458.144 1378.85C459.3 1377.15 459.844 1375.72 460.388 1372.59Z" fill="black"/>
<path d="M808.251 1230.6C815.731 1230.6 821.511 1232.78 826.135 1237.4C831.099 1242.36 833.751 1249.78 833.751 1258.62C833.751 1275.82 823.755 1286.97 808.319 1286.97C792.883 1286.97 782.955 1275.89 782.955 1258.62C782.955 1249.84 785.675 1242.3 790.707 1237.4C795.399 1232.78 801.043 1230.6 808.251 1230.6ZM808.455 1278.88C818.179 1278.88 824.231 1271.13 824.231 1258.62C824.231 1251.75 822.327 1246.24 818.859 1242.77C816.071 1240.05 812.467 1238.62 808.387 1238.62C798.595 1238.62 792.407 1246.38 792.407 1258.68C792.407 1265.48 794.379 1271.2 797.915 1274.73C800.703 1277.45 804.307 1278.88 808.455 1278.88Z" fill="black"/>
<path d="M758.889 1285.82H742.161C738.217 1285.82 736.245 1285.88 733.457 1286.02C733.933 1283.16 734.069 1281.19 734.069 1276.84V1239.92C734.069 1236.79 733.865 1234.34 733.525 1231.55C736.381 1231.69 737.469 1231.69 742.093 1231.69H758.141C768.681 1231.69 774.597 1236.45 774.597 1244.95C774.597 1249.1 773.373 1252.16 770.789 1254.54C769.293 1255.96 768.069 1256.58 765.417 1257.39C768.885 1258.14 770.449 1258.82 772.285 1260.52C775.073 1263.1 776.501 1266.5 776.501 1270.92C776.501 1280.44 770.177 1285.82 758.889 1285.82ZM743.045 1253.86H757.189C762.357 1253.86 765.417 1251.07 765.417 1246.44C765.417 1244.27 764.737 1242.43 763.649 1241.41C762.153 1240.05 759.841 1239.3 757.121 1239.3H743.045V1253.86ZM743.045 1261.4V1278.13H757.665C763.717 1278.13 767.117 1275.14 767.117 1269.63C767.117 1266.91 766.437 1265.08 764.941 1263.72C763.241 1262.22 760.657 1261.4 757.529 1261.4H743.045Z" fill="black"/>
<path d="M713.729 1231.69H723.861C723.453 1234.2 723.317 1236.65 723.317 1240.94V1265.08C723.317 1279.15 714.953 1287.04 700.129 1287.04C692.581 1287.04 686.325 1284.73 682.585 1280.65C679.117 1276.91 677.485 1271.81 677.485 1265.01V1241C677.485 1236.79 677.349 1234.14 676.941 1231.69H687.073C686.665 1234 686.529 1236.58 686.529 1241V1265.01C686.529 1274.19 691.289 1279.02 700.469 1279.02C709.581 1279.02 714.273 1274.19 714.273 1264.94V1241C714.273 1236.65 714.137 1234.2 713.729 1231.69Z" fill="black"/>
<path d="M659.673 1267.59L669.397 1269.29C668.105 1274.19 666.881 1276.84 664.841 1279.49C660.965 1284.25 654.437 1286.9 646.277 1286.9C638.865 1286.9 632.949 1284.66 628.801 1280.38C624.041 1275.41 621.389 1267.73 621.389 1259.02C621.389 1250.05 624.245 1242.16 629.345 1237.06C633.425 1232.91 639.545 1230.6 646.345 1230.6C651.649 1230.6 655.661 1231.62 659.401 1233.86C662.461 1235.77 664.909 1238.28 666.609 1241.28C667.425 1242.7 667.901 1243.93 668.717 1246.51L659.265 1248.69C658.313 1245.7 657.701 1244.4 656.341 1242.84C654.029 1240.05 650.629 1238.62 646.413 1238.62C636.757 1238.62 630.909 1246.17 630.909 1258.68C630.909 1271.13 636.893 1278.88 646.413 1278.88C651.173 1278.88 655.253 1277.04 657.429 1273.85C658.585 1272.15 659.129 1270.72 659.673 1267.59Z" fill="black"/>
<path d="M617.606 1285.82H606.454C606.046 1283.57 605.298 1280.65 604.55 1278.68L601.83 1271.26H580.07L577.35 1278.68C576.126 1281.94 575.854 1282.96 575.31 1285.82H564.158C565.178 1283.98 566.538 1280.92 567.762 1277.79L582.722 1238.56C584.014 1235.16 584.558 1233.46 584.898 1231.69H596.73C597.07 1233.32 597.478 1234.41 599.042 1238.56L614.138 1277.79C615.838 1282.14 616.654 1284.05 617.606 1285.82ZM599.382 1263.44L592.106 1243.32C591.834 1242.57 591.63 1241.75 590.882 1239.51C589.794 1242.7 589.794 1242.7 589.59 1243.32L582.518 1263.44H599.382Z" fill="black"/>
<path d="M551.399 1239.85V1276.98C551.399 1280.65 551.535 1283.03 551.943 1285.82H541.675C542.083 1282.96 542.219 1280.65 542.219 1276.98V1239.85H533.039C529.027 1239.85 526.103 1239.98 523.723 1240.32V1231.21C526.171 1231.55 529.095 1231.69 532.971 1231.69H559.899C564.795 1231.69 567.311 1231.55 569.895 1231.21V1240.32C567.379 1239.98 564.795 1239.85 559.899 1239.85H551.399Z" fill="black"/>
<path d="M496.96 1277.25V1286.29C494.512 1285.95 492.336 1285.82 488.188 1285.82H466.972C462.892 1285.82 461.056 1285.88 458.336 1286.02C458.744 1283.3 458.88 1281.06 458.88 1277.04V1240.26C458.88 1236.72 458.744 1234.68 458.336 1231.48C461.056 1231.62 462.824 1231.69 466.972 1231.69H487.508C490.908 1231.69 493.152 1231.55 496.28 1231.21V1240.19C493.696 1239.85 491.52 1239.71 487.508 1239.71H467.924V1253.72H484.448C487.984 1253.72 490.296 1253.58 493.288 1253.24V1262.15C490.5 1261.74 488.664 1261.68 484.448 1261.68H467.856V1277.72H488.256C492.064 1277.72 494.036 1277.59 496.96 1277.25Z" fill="black"/>
<path d="M440.93 1267.59L450.654 1269.29C449.362 1274.19 448.138 1276.84 446.098 1279.49C442.222 1284.25 435.694 1286.9 427.534 1286.9C420.122 1286.9 414.206 1284.66 410.058 1280.38C405.298 1275.41 402.646 1267.73 402.646 1259.02C402.646 1250.05 405.502 1242.16 410.602 1237.06C414.682 1232.91 420.802 1230.6 427.602 1230.6C432.906 1230.6 436.918 1231.62 440.658 1233.86C443.718 1235.77 446.166 1238.28 447.866 1241.28C448.682 1242.7 449.158 1243.93 449.974 1246.51L440.522 1248.69C439.57 1245.7 438.958 1244.4 437.598 1242.84C435.286 1240.05 431.886 1238.62 427.67 1238.62C418.014 1238.62 412.166 1246.17 412.166 1258.68C412.166 1271.13 418.15 1278.88 427.67 1278.88C432.43 1278.88 436.51 1277.04 438.686 1273.85C439.842 1272.15 440.386 1270.72 440.93 1267.59Z" fill="black"/>
<path d="M399.139 1277.11V1286.29C396.691 1285.95 394.311 1285.82 389.483 1285.82H369.355C365.547 1285.82 363.167 1285.88 360.719 1286.02C361.127 1283.5 361.263 1280.99 361.263 1277.04V1241.75C361.263 1237.06 361.127 1234.61 360.719 1231.69H370.987C370.579 1234.48 370.443 1236.72 370.443 1241.68V1277.59H389.483C394.107 1277.59 396.283 1277.45 399.139 1277.11Z" fill="black"/>
<path d="M327.271 1230.6C334.751 1230.6 340.531 1232.78 345.155 1237.4C350.119 1242.36 352.771 1249.78 352.771 1258.62C352.771 1275.82 342.775 1286.97 327.339 1286.97C311.903 1286.97 301.975 1275.89 301.975 1258.62C301.975 1249.84 304.695 1242.3 309.727 1237.4C314.419 1232.78 320.063 1230.6 327.271 1230.6ZM327.475 1278.88C337.199 1278.88 343.251 1271.13 343.251 1258.62C343.251 1251.75 341.347 1246.24 337.879 1242.77C335.091 1240.05 331.487 1238.62 327.407 1238.62C317.615 1238.62 311.427 1246.38 311.427 1258.68C311.427 1265.48 313.399 1271.2 316.935 1274.73C319.723 1277.45 323.327 1278.88 327.475 1278.88Z" fill="black"/>
<path d="M249.501 1277.04V1240.32C249.501 1236.52 249.365 1234.48 248.957 1231.48C251.677 1231.62 253.309 1231.69 257.593 1231.69H269.901C278.401 1231.69 283.909 1233.46 288.261 1237.67C293.225 1242.36 295.809 1249.44 295.809 1258.28C295.809 1267.52 293.089 1274.87 287.785 1279.9C283.433 1283.98 277.993 1285.82 269.969 1285.82H257.593C253.445 1285.82 251.745 1285.88 248.957 1286.02C249.365 1283.23 249.501 1281.12 249.501 1277.04ZM258.545 1277.79H269.357C274.933 1277.79 278.537 1276.5 281.393 1273.44C284.657 1269.97 286.357 1264.74 286.357 1258.34C286.357 1251.88 284.793 1247.06 281.665 1243.79C278.877 1240.87 275.341 1239.71 269.425 1239.71H258.545V1277.79Z" fill="black"/>
</svg>
