<svg width="1080" height="1920" viewBox="0 0 1080 1920" fill="none" xmlns="http://www.w3.org/2000/svg">
<path d="M1080 1920L1080 0L0 0L0 1920H1080Z" fill="#A5D4AD"/>
<path d="M1020 983.72V95C1020 75.67 1004.33 60 985 60H95.58C75.93 60 60 75.93 60 95.58V983.71C60 984.03 60.25 984.28 60.57 984.28C80.03 984.59 95.71 1000.46 95.71 1019.99C95.71 1039.52 80.03 1055.39 60.57 1055.7C60.25 1055.7 60 1055.96 60 1056.27V1824.99C60 1844.32 75.67 1859.99 95 1859.99H985C1004.33 1859.99 1020 1844.32 1020 1824.99V1056.27C1020 1055.95 1019.75 1055.7 1019.43 1055.7C999.97 1055.39 984.29 1039.52 984.29 1019.99C984.29 1000.46 999.97 984.59 1019.43 984.28C1019.75 984.28 1020 984.02 1020 983.71V983.72Z" fill="white"/>
<path d="M60.57 1055.71C60.25 1055.71 60 1055.97 60 1056.28V1825C60 1844.33 75.67 1860 95 1860H985C1004.33 1860 1020 1844.33 1020 1825V1056.28C1020 1055.96 1019.75 1055.71 1019.43 1055.71C999.97 1055.4 984.29 1039.53 984.29 1020H95.71C95.71 1039.53 80.03 1055.4 60.57 1055.71Z" fill="#E5F2E6"/>
<path d="M121 1020H160.9" stroke="black" stroke-width="6" stroke-miterlimit="10"/>
<path d="M187.51 1020H227.41" stroke="black" stroke-width="6" stroke-miterlimit="10"/>
<path d="M254.02 1020H293.92" stroke="black" stroke-width="6" stroke-miterlimit="10"/>
<path d="M320.52 1020H360.43" stroke="black" stroke-width="6" stroke-miterlimit="10"/>
<path d="M387.029 1020H426.939" stroke="black" stroke-width="6" stroke-miterlimit="10"/>
<path d="M453.539 1020H493.439" stroke="black" stroke-width="6" stroke-miterlimit="10"/>
<path d="M520.051 1020H559.951" stroke="black" stroke-width="6" stroke-miterlimit="10"/>
<path d="M586.561 1020H626.461" stroke="black" stroke-width="6" stroke-miterlimit="10"/>
<path d="M653.061 1020H692.971" stroke="black" stroke-width="6" stroke-miterlimit="10"/>
<path d="M719.57 1020H759.48" stroke="black" stroke-width="6" stroke-miterlimit="10"/>
<path d="M786.08 1020H825.98" stroke="black" stroke-width="6" stroke-miterlimit="10"/>
<path d="M852.59 1020H892.49" stroke="black" stroke-width="6" stroke-miterlimit="10"/>
<path d="M919.1 1020H959" stroke="black" stroke-width="6" stroke-miterlimit="10"/>
<path d="M1020 984.29V95C1020 75.67 1004.33 60 985 60H95C75.67 60 60 75.67 60 95V984.29C79.72 984.29 95.71 1000.28 95.71 1020C95.71 1039.72 79.72 1055.71 60 1055.71V1825C60 1844.33 75.67 1860 95 1860H985C1004.33 1860 1020 1844.33 1020 1825V1055.71C1000.28 1055.71 984.29 1039.72 984.29 1020C984.29 1000.28 1000.28 984.29 1020 984.29Z" stroke="black" stroke-width="6" stroke-miterlimit="10"/>
<path d="M912.642 525.66C908.772 525.66 905.532 522.64 905.312 518.73C900.582 435.62 868.782 358.85 813.362 296.74C810.662 293.71 810.922 289.06 813.952 286.36C816.982 283.66 821.622 283.92 824.332 286.95C881.992 351.57 915.062 431.43 919.992 517.89C920.222 521.94 917.122 525.42 913.072 525.65C912.932 525.65 912.792 525.66 912.652 525.66H912.642Z" fill="black"/>
<path d="M818.842 795.509C817.102 795.509 815.352 794.889 813.952 793.639C810.922 790.939 810.662 786.289 813.362 783.259C868.782 721.149 900.582 644.379 905.312 561.269C905.542 557.219 909.022 554.109 913.072 554.349C917.122 554.579 920.222 558.049 919.992 562.109C915.062 648.579 881.992 728.439 824.332 793.049C822.882 794.679 820.862 795.509 818.842 795.509Z" fill="black"/>
<path d="M167.352 525.66C167.212 525.66 167.072 525.66 166.932 525.65C162.882 525.42 159.782 521.95 160.012 517.89C164.942 431.42 198.012 351.56 255.672 286.95C258.372 283.92 263.022 283.66 266.052 286.36C269.082 289.06 269.342 293.71 266.642 296.74C211.222 358.85 179.422 435.61 174.692 518.73C174.472 522.64 171.232 525.66 167.362 525.66H167.352Z" fill="black"/>
<path d="M261.162 795.509C259.142 795.509 257.122 794.679 255.672 793.049C198.012 728.429 164.942 648.569 160.012 562.109C159.782 558.059 162.882 554.579 166.932 554.349C170.982 554.109 174.462 557.219 174.692 561.269C179.422 644.389 211.222 721.149 266.642 783.259C269.342 786.289 269.082 790.939 266.052 793.639C264.652 794.889 262.902 795.509 261.162 795.509Z" fill="black"/>
<path d="M788.162 268.509C786.422 268.509 784.672 267.889 783.272 266.639C721.162 211.219 644.392 179.419 561.282 174.689C557.232 174.459 554.132 170.989 554.362 166.929C554.592 162.879 558.032 159.789 562.122 160.009C648.592 164.939 728.452 198.009 793.062 255.669C796.092 258.369 796.352 263.019 793.652 266.049C792.202 267.679 790.182 268.509 788.162 268.509Z" fill="black"/>
<path d="M291.842 268.51C289.822 268.51 287.802 267.68 286.352 266.05C283.652 263.02 283.912 258.37 286.942 255.67C351.562 198.01 431.422 164.94 517.882 160.01C521.932 159.78 525.412 162.88 525.642 166.93C525.872 170.98 522.772 174.46 518.722 174.69C435.612 179.42 358.842 211.22 296.732 266.64C295.332 267.89 293.582 268.51 291.842 268.51Z" fill="black"/>
<path d="M561.682 920C557.812 920 554.572 916.98 554.352 913.07C554.122 909.02 557.222 905.54 561.272 905.31C644.392 900.58 721.152 868.78 783.262 813.36C786.292 810.66 790.942 810.92 793.642 813.95C796.342 816.98 796.082 821.63 793.052 824.33C728.432 881.99 648.572 915.06 562.112 919.99C561.972 919.99 561.832 920 561.692 920H561.682Z" fill="black"/>
<path d="M518.312 920C518.172 920 518.032 920 517.892 919.99C431.422 915.06 351.562 881.99 286.952 824.33C283.922 821.63 283.662 816.98 286.362 813.95C289.062 810.92 293.712 810.66 296.742 813.36C358.852 868.78 435.622 900.58 518.732 905.31C522.782 905.54 525.882 909.01 525.652 913.07C525.432 916.98 522.192 920 518.322 920H518.312Z" fill="black"/>
<path d="M875.372 526.191C872.362 526.191 869.842 523.841 869.672 520.801C865.402 445.791 836.702 376.521 786.692 320.461C784.592 318.101 784.792 314.491 787.152 312.391C789.502 310.291 793.122 310.491 795.222 312.851C846.972 370.851 876.672 442.541 881.092 520.151C881.272 523.301 878.862 526.001 875.712 526.181C875.602 526.181 875.492 526.181 875.382 526.181L875.372 526.191Z" fill="black"/>
<path d="M790.952 769.062C789.592 769.062 788.242 768.582 787.152 767.612C784.792 765.512 784.592 761.892 786.692 759.542C836.702 703.492 865.402 634.212 869.672 559.202C869.852 556.052 872.542 553.642 875.702 553.822C878.852 554.002 881.262 556.702 881.082 559.852C876.662 637.472 846.972 709.152 795.212 767.152C794.082 768.422 792.512 769.062 790.942 769.062H790.952Z" fill="black"/>
<path d="M204.622 526.191C204.512 526.191 204.402 526.191 204.292 526.191C201.142 526.011 198.732 523.311 198.912 520.161C203.332 442.541 233.022 370.861 284.782 312.861C286.882 310.501 290.502 310.301 292.852 312.401C295.212 314.501 295.412 318.121 293.312 320.471C243.302 376.521 214.602 445.801 210.332 520.811C210.162 523.851 207.642 526.201 204.632 526.201L204.622 526.191Z" fill="black"/>
<path d="M289.042 769.061C287.472 769.061 285.902 768.411 284.772 767.151C233.022 709.151 203.322 637.461 198.902 559.851C198.722 556.701 201.132 554.001 204.282 553.821C207.442 553.631 210.132 556.051 210.312 559.201C214.582 634.211 243.282 703.491 293.292 759.541C295.392 761.901 295.192 765.511 292.832 767.611C291.742 768.581 290.382 769.061 289.032 769.061H289.042Z" fill="black"/>
<path d="M763.342 294.762C761.982 294.762 760.632 294.282 759.542 293.312C703.492 243.302 634.212 214.602 559.202 210.332C556.052 210.152 553.642 207.452 553.822 204.302C554.002 201.152 556.692 198.742 559.852 198.922C637.472 203.342 709.152 233.032 767.152 284.792C769.512 286.892 769.712 290.512 767.612 292.862C766.482 294.132 764.912 294.772 763.342 294.772V294.762Z" fill="black"/>
<path d="M316.651 294.761C315.081 294.761 313.511 294.111 312.381 292.851C310.281 290.491 310.481 286.881 312.841 284.781C370.841 233.031 442.531 203.331 520.141 198.911C523.291 198.721 525.991 201.141 526.171 204.291C526.351 207.441 523.941 210.141 520.791 210.321C445.781 214.591 376.511 243.291 320.451 293.301C319.361 294.271 318.001 294.751 316.651 294.751V294.761Z" fill="black"/>
<path d="M559.522 881.102C556.512 881.102 553.992 878.752 553.822 875.712C553.642 872.562 556.052 869.862 559.202 869.682C634.212 865.412 703.482 836.712 759.542 786.702C761.892 784.602 765.512 784.802 767.612 787.162C769.712 789.522 769.512 793.132 767.152 795.232C709.152 846.982 637.462 876.682 559.852 881.102C559.742 881.102 559.632 881.102 559.522 881.102Z" fill="black"/>
<path d="M520.481 881.102C520.371 881.102 520.261 881.102 520.151 881.102C442.531 876.682 370.851 846.992 312.851 795.232C310.491 793.132 310.291 789.512 312.391 787.162C314.491 784.802 318.111 784.602 320.461 786.702C376.511 836.722 445.791 865.412 520.801 869.682C523.951 869.862 526.361 872.562 526.181 875.712C526.011 878.752 523.491 881.102 520.481 881.102Z" fill="black"/>
<path d="M841.841 526.51C839.691 526.51 837.891 524.83 837.771 522.66C833.911 454.91 807.991 392.34 762.821 341.71C761.321 340.03 761.471 337.45 763.151 335.94C764.831 334.44 767.411 334.58 768.921 336.27C815.341 388.29 841.971 452.58 845.931 522.19C846.061 524.44 844.341 526.37 842.081 526.5C842.001 526.5 841.921 526.5 841.841 526.5V526.51Z" fill="black"/>
<path d="M765.862 745.101C764.892 745.101 763.922 744.761 763.142 744.061C761.462 742.561 761.312 739.981 762.812 738.291C807.982 687.661 833.902 625.091 837.762 557.341C837.892 555.091 839.852 553.391 842.072 553.491C844.322 553.621 846.042 555.551 845.922 557.801C841.952 627.411 815.322 691.701 768.912 743.721C768.102 744.621 766.982 745.081 765.862 745.081V745.101Z" fill="black"/>
<path d="M238.162 526.51C238.082 526.51 238.002 526.51 237.922 526.51C235.672 526.38 233.952 524.45 234.072 522.2C238.042 452.59 264.672 388.3 311.082 336.28C312.582 334.6 315.162 334.45 316.852 335.95C318.532 337.45 318.682 340.03 317.182 341.72C272.012 392.35 246.092 454.92 242.232 522.67C242.112 524.84 240.312 526.52 238.162 526.52V526.51Z" fill="black"/>
<path d="M314.131 745.101C313.011 745.101 311.891 744.641 311.081 743.741C264.661 691.721 238.031 627.431 234.071 557.821C233.941 555.571 235.661 553.641 237.921 553.511C240.161 553.401 242.101 555.101 242.231 557.361C246.091 625.111 272.011 687.681 317.181 738.311C318.681 739.991 318.531 742.571 316.851 744.081C316.071 744.771 315.101 745.121 314.131 745.121V745.101Z" fill="black"/>
<path d="M741.01 318.219C740.04 318.219 739.07 317.879 738.29 317.179C687.66 272.009 625.09 246.089 557.34 242.229C555.09 242.099 553.37 240.169 553.49 237.919C553.62 235.669 555.54 233.959 557.8 234.069C627.41 238.039 691.7 264.669 743.73 311.079C745.41 312.579 745.56 315.159 744.06 316.849C743.25 317.749 742.13 318.209 741.01 318.209V318.219Z" fill="black"/>
<path d="M338.991 318.22C337.871 318.22 336.751 317.76 335.941 316.86C334.441 315.18 334.591 312.6 336.271 311.09C388.291 264.67 452.581 238.04 522.191 234.08C524.441 233.96 526.371 235.67 526.501 237.93C526.631 240.18 524.91 242.11 522.65 242.24C454.9 246.1 392.331 272.02 341.701 317.19C340.921 317.88 339.951 318.23 338.981 318.23L338.991 318.22Z" fill="black"/>
<path d="M557.561 845.929C555.411 845.929 553.611 844.249 553.491 842.079C553.361 839.829 555.081 837.899 557.341 837.769C625.091 833.909 687.661 807.989 738.291 762.819C739.971 761.319 742.551 761.469 744.061 763.149C745.561 764.829 745.411 767.409 743.731 768.919C691.711 815.339 627.421 841.969 557.801 845.929C557.721 845.929 557.641 845.929 557.561 845.929Z" fill="black"/>
<path d="M522.431 845.929C522.351 845.929 522.271 845.929 522.191 845.929C452.581 841.959 388.291 815.329 336.271 768.919C334.591 767.419 334.441 764.839 335.941 763.149C337.441 761.469 340.021 761.319 341.711 762.819C392.341 807.989 454.911 833.909 522.661 837.769C524.911 837.899 526.631 839.829 526.511 842.079C526.391 844.249 524.591 845.929 522.441 845.929H522.431Z" fill="black"/>
<path d="M320.642 546.17C320.642 544.6 321.782 543.27 323.332 543.02C324.632 542.81 326.262 542.52 327.972 542.12C332.392 541.08 337.582 539.11 343.402 536.27C349.282 533.4 354.912 529.41 359.162 523.67C366.332 513.97 367.852 501.4 368.182 496.89C368.252 495.97 367.522 495.19 366.592 495.19H317.082C315.322 495.19 313.902 493.76 313.902 492.01V470.69C313.902 468.93 315.332 467.51 317.082 467.51H367.062C367.942 467.51 368.652 466.8 368.652 465.92V447.18C368.652 446.3 367.942 445.59 367.062 445.59H328.612C326.852 445.59 325.432 444.16 325.432 442.41V421.09C325.432 419.33 326.862 417.91 328.612 417.91H428.952C430.712 417.91 432.132 419.34 432.132 421.09V442.41C432.132 444.17 430.702 445.59 428.952 445.59H398.512C397.632 445.59 396.922 446.3 396.922 447.18V465.92C396.922 466.8 397.632 467.51 398.512 467.51H438.572C440.332 467.51 441.752 468.94 441.752 470.69V492.01C441.752 493.77 440.322 495.19 438.572 495.19H398.382C397.532 495.19 396.832 495.86 396.792 496.71C396.562 501.75 395.142 518.44 386.172 532.85C380.722 541.61 373.642 548.26 366.532 553.54C359.402 558.84 352.252 562.93 345.262 565.7C338.232 568.49 332.332 570.44 327.742 571.51C326.652 571.76 325.482 571.99 324.392 572.18C322.442 572.53 320.652 571.03 320.652 569.04V546.16L320.642 546.17Z" fill="black"/>
<path d="M474.542 546.52C474.542 545.06 475.542 543.79 476.952 543.43C485.202 541.36 488.922 540.11 496.832 536.32C496.832 536.32 500.882 534.21 504.922 531.3C517.102 522.54 525.212 510.63 525.212 510.63C534.672 497.28 537.762 474.91 538.482 468.49C538.592 467.55 537.852 466.72 536.902 466.72H500.572C500.342 466.72 500.132 466.84 500.022 467.04L499.872 467.29C494.292 478.11 486.872 487.99 480.442 494.24C473.992 500.5 468.582 505.05 464.372 507.75L461.772 509.42C460.712 510.1 459.322 509.34 459.322 508.08V479.89C459.322 478.95 459.742 478.06 460.462 477.45C461.112 476.9 461.982 476.13 463.172 475.06C465.932 472.57 469.042 468.51 472.412 462.98C475.752 457.51 479.342 450.21 483.062 441.29C486.442 433.2 488.972 423.09 490.852 412.06C491.112 410.53 492.442 409.42 493.992 409.42H513.902C515.902 409.42 517.412 411.25 517.032 413.21C516.392 416.52 515.702 420.88 514.842 424.31C513.572 429.39 512.752 432.3 511.232 436.72C510.972 437.47 511.532 438.24 512.322 438.24H591.172C592.932 438.24 594.352 439.67 594.352 441.42V463.51C594.352 465.27 592.922 466.69 591.172 466.69H568.132C567.322 466.69 566.632 467.3 566.552 468.11C565.922 474.01 562.872 497.16 552.382 517.26C538.282 546 508.132 566.39 478.332 572.13C476.372 572.51 474.552 571 474.552 569V546.48L474.542 546.52Z" fill="black"/>
<path d="M675.893 411.029V468.869C675.893 469.749 676.603 470.459 677.483 470.459H764.513C765.393 470.459 766.103 469.749 766.103 468.869V411.029C766.103 410.149 765.393 409.439 764.513 409.439H677.483C676.603 409.439 675.893 410.149 675.893 411.029ZM738.453 452.739H702.293C701.413 452.739 700.703 452.029 700.703 451.149V446.869C700.703 445.989 701.413 445.279 702.293 445.279H738.453C739.333 445.279 740.043 445.989 740.043 446.869V451.149C740.043 452.029 739.333 452.739 738.453 452.739ZM738.453 434.449H702.293C701.413 434.449 700.703 433.739 700.703 432.859V428.749C700.703 427.869 701.413 427.159 702.293 427.159H738.453C739.333 427.159 740.043 427.869 740.043 428.749V432.859C740.043 433.739 739.333 434.449 738.453 434.449Z" fill="black"/>
<path d="M674.222 497.34H728.262C729.142 497.34 729.852 498.05 729.852 498.93V502.84C729.852 503.72 729.142 504.43 728.262 504.43H667.752C665.992 504.43 664.572 505.86 664.572 507.61V522.86C664.572 524.62 666.002 526.04 667.752 526.04H728.262C729.142 526.04 729.852 526.75 729.852 527.63V545.39C729.852 546.11 729.932 547.98 729.212 548.85C728.382 549.87 727.142 549.67 725.842 549.72C722.532 549.72 719.572 549.7 716.942 549.66C716.542 549.66 716.252 549.29 716.332 548.9C716.592 547.63 716.722 546.31 716.692 544.96C716.492 535.68 708.932 528.08 699.652 527.84C689.572 527.58 681.362 535.85 681.702 545.94C682.012 555.29 689.782 562.81 699.142 562.84C704.032 562.85 708.452 560.86 711.632 557.64C711.972 557.3 712.542 557.43 712.692 557.88C714.152 562.21 715.532 566.34 716.782 570.05C717.222 571.35 718.452 572.22 719.822 572.21C725.722 572.17 730.502 571.96 734.172 571.6C738.302 571.18 742.082 570.15 745.512 568.5C749.172 566.84 751.682 564.42 753.042 561.23C754.402 558.04 755.082 553.55 755.082 547.76V527.62C755.082 526.74 755.792 526.03 756.672 526.03H762.902C764.662 526.03 766.082 524.6 766.082 522.85V507.6C766.082 505.84 764.652 504.42 762.902 504.42H756.672C755.792 504.42 755.082 503.71 755.082 502.83V498.92C755.082 498.04 755.792 497.33 756.672 497.33H762.902C764.662 497.33 766.082 495.9 766.082 494.15V479.6C766.082 477.84 764.652 476.42 762.902 476.42H674.202C672.442 476.42 671.022 477.85 671.022 479.6V494.15C671.022 495.91 672.452 497.33 674.202 497.33L674.222 497.34Z" fill="black"/>
<path d="M668.822 409.439H650.252C649.392 409.439 648.572 409.789 647.972 410.399C635.222 423.349 618.282 434.569 612.122 438.479C610.772 439.329 610.272 441.059 610.942 442.499L620.692 463.569C621.622 465.569 624.252 466.049 625.822 464.499C646.112 444.459 664.442 419.799 670.112 411.959C670.872 410.909 670.112 409.439 668.822 409.439Z" fill="black"/>
<path d="M671.912 453.889V435.409C671.912 433.999 670.212 433.289 669.202 434.279C653.632 449.599 620.042 477.059 611.672 483.859C610.542 484.779 610.182 486.349 610.792 487.669L620.692 509.049C621.622 511.049 624.252 511.529 625.822 509.979C627.532 508.289 629.232 506.559 630.912 504.819C631.312 504.409 632.012 504.689 632.012 505.259V569.059C632.012 570.819 633.442 572.239 635.192 572.239H653.812C655.572 572.239 656.992 570.809 656.992 569.059V476.369C656.992 475.299 657.352 474.249 658.022 473.409C664.862 464.729 669.712 458.019 671.332 455.739C671.712 455.199 671.922 454.559 671.922 453.889H671.912Z" fill="black"/>
<path d="M653.263 623.33C640.843 623.33 634.803 628.28 634.803 638.47V655.6C634.803 665.67 640.843 670.56 653.263 670.56C659.133 670.56 663.473 669.48 666.553 667.27C669.993 664.8 671.733 660.87 671.733 655.59V638.46C671.733 628.27 665.693 623.32 653.273 623.32L653.263 623.33ZM646.083 639.3C646.083 633.93 648.833 632.91 653.263 632.91C657.693 632.91 660.443 633.95 660.443 639.3V654.68C660.443 659.95 657.593 660.98 653.263 660.98C648.933 660.98 646.083 659.98 646.083 654.68V639.3Z" fill="black"/>
<path d="M708.262 669.331H721.352L703.622 646.781L720.552 624.8H707.392L694.052 642.281V610.23H682.762V669.331H694.052V659.211L696.942 655.451L708.262 669.331Z" fill="black"/>
<path d="M754.812 624.801V653.291C754.812 659.041 751.872 660.891 746.822 660.891C743.552 660.891 740.272 660.351 740.272 653.881V624.811H728.992V656.771C728.992 665.741 733.702 670.481 742.612 670.481C749.292 670.481 753.872 666.861 755.572 662.801L757.382 669.341H766.102V624.811H754.822L754.812 624.801Z" fill="black"/>
<path d="M630.563 610.23H589.143V620.141V620.151H604.213V669.331H615.683V620.151H630.563V610.23Z" fill="black"/>
<path d="M459.681 669.331H472.771L455.041 646.781L471.971 624.8H458.811L445.471 642.281V610.23H434.191V669.331H445.471V659.211L448.361 655.451L459.681 669.331Z" fill="black"/>
<path d="M355.322 610.23H313.902V620.141V620.151H328.982V669.331H340.442V620.151H355.322V610.23Z" fill="black"/>
<path d="M421.792 658.89L421.192 659.04C417.612 659.96 413.282 660.89 409.402 660.89C404.852 660.89 401.682 658.82 401.682 652.83V640.97C401.682 634.9 404.852 632.82 409.402 632.82C413.352 632.82 417.872 633.7 421.222 634.4L421.802 634.52V625.19L421.492 625.12C417.682 624.23 412.042 623.33 407.522 623.33C402.002 623.33 397.962 624.4 395.162 626.59C391.962 629.09 390.412 633.85 390.412 639.34V654.64C390.412 664.77 396.012 670.56 407.532 670.56C411.402 670.56 417.262 669.49 421.522 668.31L421.812 668.23V658.88L421.792 658.89Z" fill="black"/>
<path d="M553.922 634.699V624.799H543.682V615.189H532.402V624.799H525.172V634.699H532.402V655.419C532.402 667.939 540.292 670.559 546.922 670.559C548.702 670.559 550.502 670.449 552.112 670.219V660.259C551.462 660.329 550.252 660.359 549.532 660.359C546.452 660.359 543.682 659.729 543.682 652.089V634.689H553.922V634.699Z" fill="black"/>
<path d="M489.733 650.741V650.561H515.163V641.481C515.163 635.571 513.543 630.241 510.353 627.341C507.413 624.671 502.773 623.311 497.253 623.311C485.073 623.311 478.453 629.221 478.453 639.591V654.451C478.453 664.701 483.833 670.551 496.313 670.551C500.973 670.551 506.283 669.561 511.963 668.401L512.353 668.321V659.051L511.703 659.201C507.133 660.251 504.613 661.141 500.283 661.141C494.073 661.141 489.733 658.621 489.733 652.201V650.721V650.741ZM489.733 639.721C489.733 634.071 493.793 632.741 497.163 632.741C500.533 632.741 504.063 634.071 504.063 639.721V643.231H489.733V642.711V639.721Z" fill="black"/>
<path d="M378.173 626.881H366.893V669.331H378.173V626.881Z" fill="black"/>
<path d="M372.532 622.22C376.415 622.22 379.562 619.073 379.562 615.19C379.562 611.308 376.415 608.16 372.532 608.16C368.649 608.16 365.502 611.308 365.502 615.19C365.502 619.073 368.649 622.22 372.532 622.22Z" fill="black"/>
<path d="M585.733 643.92H566.143V651.26H585.733V643.92Z" fill="black"/>
<path d="M725.434 1703.04L716.026 1713.23C707.892 1703.24 696.622 1692.26 685.94 1684.13C674.866 1696.48 663.596 1705.1 648.602 1712.45C645.858 1707.35 644.682 1705.79 640.664 1701.57C648.21 1698.63 652.914 1695.99 660.264 1690.79C675.062 1680.4 686.822 1666.19 693.192 1650.91L694.27 1648.36C692.702 1648.46 692.702 1648.46 661.832 1648.95C657.128 1649.04 654.482 1649.24 651.15 1649.73L650.758 1637.19C653.502 1637.68 655.364 1637.77 659.382 1637.77C659.774 1637.77 660.558 1637.77 661.734 1637.77L696.23 1637.28C701.718 1637.19 702.502 1637.09 704.952 1636.21L711.42 1642.87C710.146 1644.34 709.362 1645.71 708.284 1648.16C703.776 1658.65 698.974 1667.17 692.996 1675.21C699.17 1679.33 704.462 1683.44 711.126 1689.42C713.576 1691.58 713.576 1691.58 725.434 1703.04Z" fill="black"/>
<path d="M565.302 1643.26V1663.06C580.1 1660.31 601.758 1651.59 608.128 1645.61L615.968 1656.69C615.282 1656.98 612.342 1658.35 607.148 1660.9C593.82 1667.27 580.1 1671.68 565.302 1674.43V1687.36C565.204 1687.85 565.204 1688.34 565.204 1688.64C565.204 1694.32 565.596 1696.57 566.968 1697.95C568.634 1699.71 574.22 1700.49 583.726 1700.49C590.292 1700.49 599.308 1699.91 606.462 1698.93C611.166 1698.34 613.322 1697.85 617.634 1696.57L618.222 1709.61C616.164 1709.61 615.674 1709.71 605.286 1710.69C599.504 1711.27 587.156 1711.86 581.178 1711.86C568.83 1711.86 562.068 1710.59 558.246 1707.65C555.502 1705.59 554.032 1702.45 553.444 1697.65C553.248 1695.99 553.15 1694.32 553.15 1688.64L553.052 1643.16C553.052 1638.17 553.052 1636.6 552.66 1634.15H565.792C565.4 1636.5 565.302 1638.26 565.302 1643.26ZM604.894 1632.68L611.852 1629.54C615.772 1633.95 618.418 1637.97 621.652 1644.44L614.596 1647.67C611.558 1641.4 609.01 1637.48 604.894 1632.68ZM633.51 1638.46L626.552 1641.99C623.906 1636.6 620.868 1631.89 617.144 1627.39L623.906 1624.25C628.218 1629.15 630.864 1632.97 633.51 1638.46Z" fill="black"/>
<path d="M444.957 1679.23V1665.61C449.269 1666.19 451.131 1666.29 460.833 1666.29H513.067C522.769 1666.29 524.631 1666.19 528.943 1665.61V1679.23C525.023 1678.74 523.945 1678.74 512.969 1678.74H460.931C449.955 1678.74 448.877 1678.74 444.957 1679.23Z" fill="black"/>
<path d="M376.162 1649.63H401.642L401.74 1645.22V1642.09C401.74 1635.62 401.642 1633.46 401.25 1631.21H413.892C413.598 1633.46 413.5 1633.95 413.5 1637.77C413.5 1643.75 413.5 1643.75 413.402 1649.63H419.674C426.632 1649.63 428.592 1649.53 432.414 1648.95V1660.9C428.984 1660.51 426.338 1660.41 419.87 1660.41H413.304C413.108 1672.17 413.108 1672.86 412.618 1676.58C411.246 1689.13 407.032 1697.46 398.506 1704.71C393.214 1709.22 388.412 1711.76 379.396 1715C377.534 1710.78 376.26 1708.92 372.046 1704.61C381.356 1701.77 386.06 1699.42 390.764 1695.3C397.428 1689.52 400.27 1683.05 401.152 1671.78C401.348 1669.53 401.348 1667.17 401.544 1660.41H376.162V1675.11C376.162 1679.23 376.26 1680.8 376.554 1683.34H363.814C364.108 1681.19 364.206 1678.54 364.206 1674.92V1660.41H358.228C351.76 1660.41 349.114 1660.51 345.684 1660.9V1648.95C349.506 1649.53 351.466 1649.63 358.424 1649.63H364.206V1639.83C364.206 1635.72 364.108 1633.66 363.716 1631.11H376.554C376.162 1634.34 376.162 1634.54 376.162 1639.54V1649.63Z" fill="black"/>
<path d="M786.484 1529.98L790.796 1526.85C797.068 1539.1 803.046 1546.35 814.512 1555.56C811.768 1558.5 809.514 1561.54 807.064 1565.46C798.146 1556.54 791.58 1548.31 786.484 1539.39V1579.37C786.484 1583.69 786.68 1587.41 787.072 1590.84H775.116C775.606 1587.41 775.802 1583.49 775.802 1579.37V1554.29C775.802 1551.74 775.998 1548.11 776.39 1543.31C770.118 1553.5 764.63 1559.68 755.908 1566.44C753.85 1562.42 752.38 1560.36 749.44 1557.23C759.632 1549.78 766.1 1542.72 771.98 1532.82C775.41 1526.94 777.272 1522.93 779.624 1515.67H765.022C760.808 1515.67 757.672 1515.87 754.732 1516.16V1505.19C757.672 1505.58 760.416 1505.68 765.12 1505.68H801.478C805.986 1505.68 808.926 1505.48 812.062 1505.09V1516.26C808.73 1515.87 805.594 1515.67 801.478 1515.67H790.6C789.522 1518.91 788.052 1522.63 786.484 1526.06V1529.98ZM736.014 1518.61V1510.09C736.014 1506.56 735.916 1503.72 735.426 1500.78H746.892C746.402 1503.62 746.304 1505.97 746.304 1509.99V1518.61H752.38C755.222 1518.61 756.202 1518.52 757.966 1518.22V1528.71C756.006 1528.32 754.242 1528.22 751.792 1528.22H746.696C749.734 1533.9 752.87 1537.72 758.358 1542.72C756.594 1544.98 754.928 1547.72 753.262 1551.25C748.95 1545.27 748.95 1545.27 745.814 1539.49C746.206 1544.58 746.304 1547.43 746.304 1554.19V1579.47C746.304 1584.18 746.5 1587.9 746.892 1590.84H735.524C735.916 1587.8 736.112 1584.08 736.112 1579.47V1559.38C736.112 1557.81 736.308 1553.4 736.7 1546.15C733.27 1556.44 730.526 1562.42 726.018 1568.99C724.058 1565.36 722.784 1563.69 719.648 1560.56C725.724 1552.33 731.506 1540.08 734.838 1528.22H729.84C726.998 1528.22 725.43 1528.32 723.666 1528.71V1518.12C725.43 1518.52 726.9 1518.61 729.84 1518.61H736.014Z" fill="black"/>
<path d="M692.021 1584.18H677.223C677.811 1580.35 678.007 1576.53 678.007 1571.44V1517.44H673.303C669.677 1517.44 666.835 1517.63 663.209 1518.03V1505.58C666.247 1506.07 668.403 1506.17 673.009 1506.17H682.025C687.023 1506.17 688.493 1506.07 692.021 1505.68C691.433 1511.46 691.237 1515.97 691.237 1521.85V1571.44C691.237 1576.63 691.433 1580.16 692.021 1584.18Z" fill="black"/>
<path d="M572.46 1502.25L584.906 1502.93C583.73 1506.27 583.24 1508.81 581.378 1521.85C580.692 1525.96 580.3 1529.3 580.104 1531.65H580.398C580.594 1531.06 580.594 1531.06 580.986 1529.49C581.966 1526.06 584.514 1521.26 587.16 1517.83C592.55 1511.17 598.626 1507.83 605.78 1507.83C612.444 1507.83 618.324 1510.97 622.538 1516.65C627.438 1523.22 629.594 1531.16 629.594 1542.72C629.594 1561.64 620.774 1575.75 604.31 1583C599.312 1585.25 592.452 1587.21 585.102 1588.49C583.142 1582.9 582.064 1580.75 579.32 1576.92C589.12 1575.85 594.804 1574.38 600.782 1571.34C612.15 1565.56 617.344 1556.25 617.344 1541.35C617.344 1527.24 612.64 1519.4 604.212 1519.4C600.488 1519.4 597.058 1521.06 593.628 1524.59C585.984 1532.53 581.28 1544.58 581.28 1556.25C581.28 1556.74 581.28 1557.42 581.28 1558.3L569.52 1558.5C569.618 1557.91 569.618 1557.42 569.618 1557.23C569.618 1556.83 569.618 1556.25 569.618 1555.36C569.52 1552.52 569.324 1545.27 569.324 1543.31C569.324 1535.37 569.912 1524.49 570.696 1517.73L572.166 1505.58C572.362 1503.91 572.46 1503.52 572.46 1502.25Z" fill="black"/>
<path d="M462.209 1571.04L456.525 1559.77C458.779 1558.21 462.601 1554.87 474.263 1544.09C474.459 1538.12 474.459 1538.02 474.655 1529.98C462.797 1530.86 462.797 1530.86 459.759 1531.45L459.073 1520.38C460.641 1520.48 461.425 1520.57 462.307 1520.57C464.071 1520.57 469.461 1520.28 474.949 1519.89C475.145 1517.34 475.243 1516.07 475.243 1512.54C475.243 1510.68 475.341 1509.3 475.341 1508.42C475.341 1507.93 475.341 1507.54 475.341 1507.44C475.341 1505.87 475.243 1505.09 474.949 1503.13L487.591 1503.23C487.003 1505.78 487.003 1505.87 486.611 1512.64C486.513 1514.5 486.513 1514.5 486.317 1517.24C486.317 1518.03 486.317 1518.03 486.317 1519.01C487.003 1518.81 487.199 1518.81 487.689 1518.52L491.413 1522.53C490.041 1523.71 489.355 1524.49 485.827 1528.9C485.631 1533.12 485.533 1535.27 485.435 1535.57L485.631 1535.47C486.023 1535.08 486.709 1534.49 487.983 1533.61C498.665 1525.87 506.603 1522.83 516.207 1522.83C523.263 1522.83 530.417 1525.87 535.317 1530.86C540.217 1535.96 542.863 1543.11 542.863 1551.05C542.863 1563.4 536.983 1573.79 527.281 1578.79C522.283 1581.24 516.501 1582.51 509.837 1582.51C504.839 1582.51 500.233 1581.82 495.235 1580.35C495.235 1575.16 494.941 1573 493.373 1567.61C498.861 1569.97 504.937 1571.24 510.817 1571.24C522.577 1571.24 530.809 1562.91 530.809 1550.95C530.809 1540.47 524.341 1533.9 514.051 1533.9C505.917 1533.9 496.313 1538.9 485.533 1548.7L485.435 1558.89C485.435 1572.91 485.729 1583.88 486.219 1588.19H473.479C473.969 1585.25 474.067 1582.41 474.067 1572.51V1563.79C474.067 1561.05 474.067 1559.97 474.263 1558.01H474.067C473.381 1558.99 472.695 1559.77 469.755 1562.62C466.227 1566.05 463.483 1569.08 462.209 1571.04Z" fill="black"/>
<path d="M383.81 1502.54L396.55 1503.91C396.256 1504.8 395.962 1505.87 395.766 1506.95C395.57 1508.23 395.472 1508.72 395.178 1510.28C394.884 1512.34 394.884 1512.34 393.512 1519.69C393.12 1521.85 393.12 1522.04 392.826 1523.32C395.668 1523.12 397.04 1523.02 398.902 1523.02C405.37 1523.02 410.172 1524.79 413.406 1528.22C416.738 1531.94 418.012 1536.65 418.012 1545.56C418.012 1562.42 415.17 1575.85 410.466 1581.24C407.722 1584.47 404.782 1585.65 399.588 1585.65C395.08 1585.65 391.062 1584.86 384.496 1582.8C384.594 1580.84 384.692 1579.47 384.692 1578.49C384.692 1575.94 384.496 1573.98 383.712 1570.16C389.004 1572.51 394.59 1573.98 398.02 1573.98C400.862 1573.98 402.43 1572.12 403.9 1567.32C405.468 1562.22 406.448 1553.31 406.448 1544.98C406.448 1535.96 404.194 1533.31 396.452 1533.31C394.492 1533.31 393.022 1533.41 390.768 1533.61C387.828 1545.56 386.946 1548.5 384.79 1554.87C381.36 1564.67 378.714 1570.95 373.03 1582.41C372.54 1583.39 372.54 1583.39 371.56 1585.35C371.266 1585.94 371.266 1586.04 370.776 1587.02L359.408 1580.75C362.348 1576.83 366.268 1569.77 369.6 1562.32C373.814 1552.72 375.186 1548.6 379.106 1534.59C374.108 1535.18 364.798 1536.84 361.564 1537.72L360.388 1526.16C364.014 1526.16 375.872 1524.98 381.262 1524.2C383.026 1513.62 383.81 1507.64 383.81 1504.4C383.81 1504.01 383.81 1503.33 383.81 1502.54ZM418.894 1521.36L428.988 1516.46C438.788 1527.92 444.962 1539.59 449.176 1554.68L438.004 1560.36C436.142 1551.93 433.888 1545.47 430.164 1538.12C426.636 1530.86 423.5 1526.36 418.894 1521.36Z" fill="black"/>
<path d="M296.591 1553.01L296.689 1572.32C296.689 1576.34 296.493 1578.69 295.905 1580.65C295.023 1584.08 291.495 1586.33 286.889 1586.33C280.715 1586.33 273.267 1583.59 268.367 1579.37C264.839 1576.34 262.977 1572.51 262.977 1568.3C262.977 1563.69 266.015 1558.5 271.405 1553.8C274.933 1550.76 279.245 1548.21 285.713 1545.47L285.615 1530.37C284.831 1530.37 284.831 1530.37 281.597 1530.57C280.127 1530.67 278.755 1530.67 276.305 1530.67C274.835 1530.67 272.091 1530.57 270.915 1530.57C269.641 1530.47 268.759 1530.47 268.465 1530.47C268.073 1530.47 267.289 1530.47 266.407 1530.57L266.309 1519.59C269.053 1520.18 272.973 1520.48 278.167 1520.48C279.147 1520.48 280.225 1520.48 281.597 1520.38C283.949 1520.28 284.439 1520.28 285.517 1520.28V1513.81C285.517 1508.23 285.419 1505.68 284.929 1502.54H297.179C296.689 1505.68 296.591 1507.74 296.591 1513.22V1519.5C303.941 1518.61 310.507 1517.34 315.505 1515.77L315.897 1526.75C314.133 1527.04 312.271 1527.34 305.509 1528.51C302.275 1529.1 300.315 1529.39 296.591 1529.79V1542.53C303.255 1540.57 309.429 1539.78 316.583 1539.78C332.949 1539.78 344.611 1549.78 344.611 1563.69C344.611 1576.43 335.105 1586.04 322.365 1586.04C314.427 1586.04 308.841 1582.22 306.293 1575.16C305.019 1571.83 304.627 1568.59 304.627 1562.62C309.625 1561.24 311.291 1560.56 315.505 1558.3C315.309 1560.17 315.309 1561.05 315.309 1562.62C315.309 1566.73 315.701 1569.38 316.681 1571.24C317.759 1573.3 320.111 1574.57 322.855 1574.57C328.637 1574.57 332.753 1569.97 332.753 1563.69C332.753 1555.27 325.893 1549.78 315.407 1549.78C309.527 1549.78 303.549 1550.86 296.591 1553.01ZM285.615 1570.85V1556.54C278.265 1560.46 273.953 1564.77 273.953 1568.3C273.953 1569.97 274.933 1571.44 277.187 1572.81C279.147 1574.18 281.597 1574.96 283.459 1574.96C285.125 1574.96 285.615 1574.08 285.615 1570.85ZM348.923 1529.49L339.907 1536.74C335.007 1529 327.853 1521.26 320.307 1515.58L329.519 1509.4C338.045 1515.97 343.729 1521.85 348.923 1529.49Z" fill="black"/>
<path d="M841.671 1406.15L835.863 1406.49C835.815 1405.62 835.767 1405.34 835.623 1404.23C834.711 1398.42 834.375 1394.73 834.375 1389.88C834.375 1383.69 834.951 1378.22 836.343 1371.11C836.871 1368.42 836.967 1367.94 837.063 1366.65L843.399 1367.32C842.247 1370.15 841.143 1375.53 840.375 1381.67C839.895 1385.27 839.703 1388.1 839.655 1392.28C839.655 1393.34 839.607 1393.72 839.559 1394.92C840.087 1393.24 840.183 1392.9 842.055 1388.58L845.895 1390.31C843.255 1395.88 841.623 1401.45 841.623 1404.86C841.623 1405.14 841.623 1405.53 841.671 1406.15ZM848.295 1377.4L848.391 1371.64C850.551 1372.22 853.095 1372.41 857.271 1372.41C862.599 1372.41 867.159 1371.98 870.327 1371.11L870.615 1376.92C870.231 1376.97 869.511 1377.06 867.207 1377.35C864.135 1377.74 860.487 1377.93 856.935 1377.93C853.431 1377.93 853.383 1377.93 848.295 1377.4ZM851.607 1385.32L856.311 1387.53C853.911 1390.31 852.903 1392.38 852.903 1394.44C852.903 1397.18 855.543 1398.62 860.535 1398.62C864.759 1398.62 868.935 1397.94 871.959 1396.79L872.439 1402.89C871.767 1402.94 871.575 1402.98 870.471 1403.18C866.631 1403.8 863.703 1404.09 860.535 1404.09C854.583 1404.09 850.743 1402.74 848.631 1399.91C847.719 1398.71 847.191 1396.94 847.191 1395.21C847.191 1392.09 848.631 1388.87 851.607 1385.32Z" fill="black"/>
<path d="M801.88 1371.69V1368.76C801.88 1367.18 801.784 1365.93 801.544 1364.78H807.736C807.544 1365.78 807.448 1367.03 807.448 1368.76V1371.69H820.648C823.336 1371.69 825.064 1371.59 826.696 1371.35V1377.16C825.208 1376.97 823.72 1376.87 820.84 1376.87H803.272C803.032 1380.47 803.032 1380.62 802.888 1382.06H816.184C818.68 1382.06 820.024 1382.01 821.128 1381.82C821.128 1382.06 821.128 1382.2 821.08 1382.3C820.984 1383.02 820.984 1383.59 820.888 1385.66C820.696 1392.86 820.072 1399.05 819.256 1402.5C818.152 1407.06 816.568 1408.26 811.768 1408.26C810.088 1408.26 808.984 1408.22 805.288 1407.93C805.096 1405.72 804.712 1404.14 803.896 1402.36C806.68 1402.79 808.888 1402.98 811.096 1402.98C813.208 1402.98 813.688 1402.46 814.312 1399.14C814.888 1396.26 815.176 1393.24 815.368 1387.1H802.12C800.104 1396.74 795.784 1402.89 786.712 1408.84C785.512 1406.73 784.6 1405.67 782.824 1404.28C787.048 1401.64 789.112 1399.96 791.416 1397.18C795.544 1392.23 797.176 1386.66 797.416 1376.87H789.544C787.144 1376.87 785.176 1376.97 783.544 1377.16V1371.35C785.272 1371.59 787.096 1371.69 789.544 1371.69H801.88Z" fill="black"/>
<path d="M760.744 1374.23C759.832 1381.77 758.152 1388.39 755.752 1393.82C753.016 1400.01 749.944 1402.84 746.008 1402.84C740.536 1402.84 736.6 1397.27 736.6 1389.54C736.6 1384.26 738.472 1379.32 741.88 1375.58C745.912 1371.16 751.576 1368.86 758.392 1368.86C769.912 1368.86 777.4 1375.86 777.4 1386.66C777.4 1394.97 773.08 1401.59 765.736 1404.57C763.432 1405.53 761.56 1406.01 758.2 1406.58C757.384 1404.04 756.808 1402.98 755.272 1400.97C759.688 1400.39 762.568 1399.62 764.824 1398.33C769 1396.02 771.496 1391.46 771.496 1386.33C771.496 1381.72 769.432 1377.98 765.592 1375.67C764.104 1374.81 762.856 1374.42 760.744 1374.23ZM754.888 1374.28C752.392 1374.57 750.664 1375.24 748.696 1376.63C744.664 1379.51 742.168 1384.46 742.168 1389.59C742.168 1393.53 743.848 1396.65 745.96 1396.65C747.544 1396.65 749.176 1394.63 750.904 1390.5C752.728 1386.18 754.312 1379.7 754.888 1374.28Z" fill="black"/>
<path d="M725.032 1376.87H722.488C721.24 1381.34 720.472 1383.3 718.744 1386.52C717.112 1389.54 715.336 1392.04 713.08 1394.63C718.36 1398.76 724.12 1401.35 731.848 1403.08C730.264 1404.95 729.592 1406.1 728.536 1408.7C720.376 1406.01 714.52 1402.89 709.192 1398.33C706.456 1400.63 703.192 1402.79 699.784 1404.57C696.856 1406.06 694.12 1407.16 689.56 1408.7C688.696 1406.63 687.88 1405.29 686.488 1403.56C695.08 1401.21 700.408 1398.71 705.352 1394.63C703.048 1392.09 701.32 1389.74 699.688 1386.95C697.864 1383.83 697 1381.77 695.368 1376.87H693.112C690.856 1376.87 688.984 1376.97 687.256 1377.16V1371.74C689.08 1371.98 690.712 1372.07 693.256 1372.07H706.024V1368.66C706.024 1367.22 705.928 1366.07 705.688 1364.97H711.784C711.544 1366.07 711.448 1367.22 711.448 1368.62V1372.07H724.84C727.432 1372.07 729.112 1371.98 730.888 1371.74V1377.16C729.16 1376.97 727.528 1376.87 725.032 1376.87ZM716.824 1376.87H700.888C702.088 1380.52 702.856 1382.25 704.536 1385.08C706.024 1387.48 707.32 1389.16 709.144 1391.08C710.824 1389.21 712.216 1387.29 713.512 1385.03C714.952 1382.44 715.672 1380.76 716.824 1376.87Z" fill="black"/>
<path d="M657.543 1374.42H668.823C665.607 1371.78 663.543 1370.49 658.839 1368.33L662.295 1364.39C667.575 1366.98 668.679 1367.61 672.615 1370.49L669.447 1374.42H676.647C679.287 1374.42 680.487 1374.38 682.023 1374.14V1379.51C680.535 1379.37 678.759 1379.27 676.647 1379.27H669.111V1387.62H675.303C677.319 1387.62 679.191 1387.53 680.535 1387.34V1392.62C679.047 1392.47 677.175 1392.38 675.303 1392.38H669.111V1402.31H677.319C679.527 1402.31 681.639 1402.22 683.031 1402.02V1407.4C681.495 1407.21 679.575 1407.11 677.319 1407.11H656.391C654.135 1407.11 652.119 1407.21 650.679 1407.4V1402.02C652.167 1402.22 654.327 1402.31 656.391 1402.31H663.735V1392.38H658.839C656.919 1392.38 655.047 1392.47 653.559 1392.62V1387.34C654.951 1387.53 656.727 1387.62 658.791 1387.62H663.735V1379.27H657.543C655.095 1379.27 653.895 1379.32 652.167 1379.51V1374.14C653.799 1374.33 655.191 1374.42 657.543 1374.42ZM640.791 1368.71L644.055 1364.97C647.655 1367.08 649.527 1368.47 652.551 1371.26L649.335 1375.53C646.311 1372.31 644.775 1371.06 640.791 1368.71ZM638.871 1380.66L641.943 1376.68C645.831 1378.94 647.463 1380.14 650.631 1382.92L647.751 1387.34C644.247 1383.98 642.423 1382.63 638.871 1380.66ZM646.695 1390.02L650.967 1393.05C648.759 1399 647.511 1401.93 645.639 1405.34C645.159 1406.2 644.871 1406.68 644.295 1407.64C643.911 1408.26 643.911 1408.26 643.623 1408.79L639.063 1404.81C641.319 1402.36 644.103 1397.03 646.695 1390.02Z" fill="black"/>
<path d="M598.552 1374.57L598.984 1368.86C602.68 1369.72 606.952 1370.06 613.384 1370.06C619.48 1370.06 622.888 1369.82 626.056 1369.14L626.248 1374.57C623.368 1375.82 617.464 1379.51 613.432 1382.49L609.256 1379.18C612.28 1377.26 612.808 1376.92 614.008 1376.25C614.488 1375.96 614.632 1375.86 615.256 1375.48C615.64 1375.29 615.688 1375.29 616.312 1374.9C614.2 1375.19 612.136 1375.29 609.112 1375.29C606.664 1375.29 602.68 1375.05 600.328 1374.71C599.752 1374.66 599.416 1374.62 599.224 1374.62C599.128 1374.62 598.888 1374.57 598.552 1374.57ZM602.104 1385.42L606.28 1388.58C603.256 1391.13 601.912 1393.14 601.912 1395.21C601.912 1398.33 605.416 1399.67 613.528 1399.67C619.24 1399.67 625.528 1398.81 628.6 1397.61L629.128 1404.18C628.264 1404.23 628.12 1404.23 627.016 1404.38C621.256 1405.24 618.184 1405.48 614.056 1405.48C608.824 1405.48 604.6 1404.95 602.056 1403.9C597.928 1402.26 595.912 1399.62 595.912 1395.88C595.912 1392.18 597.784 1389.02 602.104 1385.42ZM635.08 1383.45L631.768 1385.32C630.328 1382.68 628.744 1380.42 626.872 1378.36L630.088 1376.68C632.248 1378.89 633.592 1380.71 635.08 1383.45ZM620.968 1381.19L624.328 1379.51C626.44 1381.77 627.736 1383.59 629.368 1386.57L626.008 1388.34C624.424 1385.42 623.08 1383.5 620.968 1381.19Z" fill="black"/>
<path d="M579.928 1371.26L583 1374.28C582.52 1375 582.328 1375.43 581.8 1377.16C579.592 1384.46 576.184 1390.94 571.96 1395.69C567.544 1400.73 562.264 1404.47 554.872 1407.88C553.528 1405.48 552.904 1404.66 550.792 1402.84C555.592 1400.87 558.28 1399.43 561.304 1397.18C568.168 1392.09 572.68 1385.51 575.32 1376.92L560.872 1377.16C557.944 1381.82 554.2 1385.94 549.64 1389.45C548.2 1387.48 547.48 1386.86 544.984 1385.32C550.456 1381.58 553.912 1377.74 557.416 1371.4C558.904 1368.66 559.672 1366.79 559.864 1365.06L566.44 1366.36C566.152 1366.79 566.152 1366.79 565.624 1367.85C565.48 1368.09 565.48 1368.09 565 1369.19C564.856 1369.48 564.856 1369.48 564.376 1370.44C564.088 1371.11 564.088 1371.11 563.608 1371.98C564.232 1371.93 565 1371.88 565.912 1371.88L576.424 1371.74C578.296 1371.74 578.824 1371.64 579.928 1371.26Z" fill="black"/>
<path d="M498.856 1374.18L502.84 1369.43C508.552 1372.98 511.528 1375.19 515.224 1378.7L511.096 1383.93C507.256 1379.85 503.32 1376.68 498.856 1374.18ZM500.536 1405.86L498.76 1399.24C502.888 1399 508.6 1397.61 512.968 1395.69C518.968 1393.1 523.432 1389.4 527.224 1383.93C529.336 1380.86 530.68 1378.22 532.12 1374.33C533.992 1376.58 534.76 1377.3 537.208 1379.03C533.128 1387.82 528.568 1393.48 521.992 1397.85C517.096 1401.11 511.144 1403.46 503.704 1405.05C501.784 1405.43 501.64 1405.48 500.536 1405.86Z" fill="black"/>
<path d="M454.792 1367.13L461.32 1367.18C461.128 1368.52 461.128 1368.95 461.128 1371.5V1384.74C461.128 1387.14 461.128 1387.77 461.32 1388.97H454.744C454.888 1387.86 454.984 1386.38 454.984 1384.65V1371.45C454.984 1369 454.936 1368.38 454.792 1367.13ZM476.44 1367.22H483.112C482.92 1368.42 482.872 1368.95 482.872 1371.69V1378.17C482.824 1385.66 482.488 1389.69 481.624 1392.71C480.232 1397.51 477.16 1401.11 472.168 1403.9C469.624 1405.34 467.224 1406.3 462.808 1407.59C461.944 1405.24 461.464 1404.42 459.448 1401.88C464.152 1400.97 466.936 1399.96 469.816 1398.04C474.328 1395.06 475.912 1392.14 476.44 1385.8C476.632 1383.74 476.68 1381.62 476.68 1377.78V1371.78C476.68 1369.34 476.632 1368.33 476.44 1367.22Z" fill="black"/>
<path d="M415.48 1407.16H408.904C409.096 1405.82 409.192 1404.52 409.192 1401.78V1371.02C409.144 1368.23 409.096 1367.27 408.904 1366.12H415.48C415.336 1367.42 415.288 1368.33 415.288 1371.16V1380.09C420.856 1381.91 429.496 1385.94 437.08 1390.22L433.72 1395.88C430.36 1393.48 423.544 1389.78 416.728 1386.71C415.624 1386.18 415.48 1386.14 415.096 1385.9C415.24 1387.24 415.288 1388.06 415.288 1389.16V1401.83C415.288 1404.42 415.336 1405.77 415.48 1407.16ZM425.32 1370.3L428.68 1368.62C430.792 1370.87 432.088 1372.7 433.72 1375.67L430.36 1377.45C428.776 1374.52 427.432 1372.6 425.32 1370.3ZM439.432 1372.55L436.12 1374.42C434.68 1371.78 433.096 1369.53 431.224 1367.46L434.44 1365.78C436.6 1367.99 437.944 1369.82 439.432 1372.55Z" fill="black"/>
<path d="M363.304 1366.55L369.544 1365.54C369.736 1368.76 371.176 1375.67 372.712 1380.57C375.832 1379.42 375.832 1379.42 385.144 1376.34C386.008 1376.06 386.248 1375.96 386.968 1375.62L389.032 1381.67C384.856 1382.49 378.568 1384.31 373.192 1386.28C366.184 1388.87 362.68 1391.94 362.68 1395.4C362.68 1398.9 365.944 1400.39 373.672 1400.39C379.672 1400.39 385.576 1399.67 389.176 1398.42L389.704 1405C388.648 1405 388.408 1405.05 385.816 1405.34C380.632 1405.86 377.944 1406.06 374.584 1406.06C367.912 1406.06 363.736 1405.24 360.664 1403.42C358.024 1401.83 356.488 1398.86 356.488 1395.4C356.488 1392.18 358.024 1389.11 360.76 1386.81C362.632 1385.22 364.168 1384.26 367.288 1382.68C366.088 1378.79 365.272 1375.58 364.072 1369.67C363.592 1367.37 363.544 1367.27 363.304 1366.55Z" fill="black"/>
<path d="M319.48 1407.16H312.904C313.096 1405.82 313.192 1404.52 313.192 1401.78V1371.02C313.144 1368.23 313.096 1367.27 312.904 1366.12H319.48C319.336 1367.42 319.288 1368.33 319.288 1371.16V1380.09C324.856 1381.91 333.496 1385.94 341.08 1390.22L337.72 1395.88C334.36 1393.48 327.544 1389.78 320.728 1386.71C319.624 1386.18 319.48 1386.14 319.096 1385.9C319.24 1387.24 319.288 1388.06 319.288 1389.16V1401.83C319.288 1404.42 319.336 1405.77 319.48 1407.16ZM329.32 1370.3L332.68 1368.62C334.792 1370.87 336.088 1372.7 337.72 1375.67L334.36 1377.45C332.776 1374.52 331.432 1372.6 329.32 1370.3ZM343.432 1372.55L340.12 1374.42C338.68 1371.78 337.096 1369.53 335.224 1367.46L338.44 1365.78C340.6 1367.99 341.944 1369.82 343.432 1372.55Z" fill="black"/>
<path d="M256.408 1389.93V1383.26C258.52 1383.54 259.432 1383.59 264.184 1383.59H289.768C294.52 1383.59 295.432 1383.54 297.544 1383.26V1389.93C295.624 1389.69 295.096 1389.69 289.72 1389.69H264.232C258.856 1389.69 258.328 1389.69 256.408 1389.93Z" fill="black"/>
<path d="M244.263 1369.53L247.527 1372.65C247.095 1373.46 246.951 1373.8 246.711 1374.81C244.311 1383.98 241.479 1389.74 236.871 1394.92C232.167 1400.2 227.031 1403.7 219.015 1407.16C217.671 1404.57 217.047 1403.66 214.791 1401.45C219.015 1400.1 221.751 1398.86 225.303 1396.55C232.791 1391.7 237.495 1384.94 239.847 1375.62H216.999C213.783 1375.62 212.679 1375.67 210.951 1375.91V1369.67C212.823 1369.96 213.831 1370.01 217.095 1370.01H239.127C241.815 1370.01 242.775 1369.91 244.263 1369.53Z" fill="black"/>
<path d="M709.37 1168.6C716.85 1168.6 722.63 1170.78 727.254 1175.4C732.218 1180.36 734.87 1187.78 734.87 1196.62C734.87 1213.82 724.874 1224.97 709.438 1224.97C694.002 1224.97 684.074 1213.89 684.074 1196.62C684.074 1187.84 686.794 1180.3 691.826 1175.4C696.518 1170.78 702.162 1168.6 709.37 1168.6ZM709.574 1216.88C719.298 1216.88 725.35 1209.13 725.35 1196.62C725.35 1189.75 723.446 1184.24 719.978 1180.77C717.19 1178.05 713.586 1176.62 709.506 1176.62C699.714 1176.62 693.526 1184.38 693.526 1196.68C693.526 1203.48 695.498 1209.2 699.034 1212.73C701.822 1215.45 705.426 1216.88 709.574 1216.88Z" fill="black"/>
<path d="M676.456 1202.74V1209.88C676.456 1213.89 676.524 1215.72 676.932 1218.72C672.104 1221.37 669.656 1222.46 666.052 1223.41C662.992 1224.22 659.388 1224.7 656.056 1224.7C647.556 1224.7 641.028 1222.05 636.744 1216.88C632.596 1211.98 630.352 1204.64 630.352 1196.21C630.352 1185.4 634.16 1177.1 641.232 1172.34C645.448 1169.55 650.072 1168.33 656.328 1168.33C662.516 1168.33 668.16 1170.44 671.968 1174.18C674.348 1176.49 675.572 1178.46 677 1182.27L667.684 1184.78C665.44 1178.6 662.176 1176.42 655.172 1176.42C651.16 1176.42 647.42 1177.92 644.836 1180.57C641.436 1184.1 639.804 1189.14 639.804 1196.07C639.804 1203.08 641.368 1208.38 644.428 1211.98C647.216 1215.25 650.888 1216.68 656.26 1216.68C660.884 1216.68 664.352 1215.79 667.82 1213.62V1202.53H664.148C660.68 1202.53 659.252 1202.6 657.212 1202.94V1194.17C659.66 1194.51 661.156 1194.58 665.372 1194.58H668.908C672.036 1194.58 674.008 1194.51 676.932 1194.3C676.592 1196.82 676.456 1198.93 676.456 1202.74Z" fill="black"/>
<path d="M622.443 1223.82H611.699C610.543 1221.5 609.319 1219.53 607.347 1216.54L589.803 1190.09C588.511 1188.05 586.811 1185.12 585.179 1181.93C585.247 1182.88 585.247 1182.88 585.451 1185.4C585.519 1186.69 585.655 1189.75 585.655 1191.31V1213.62C585.655 1218.17 585.859 1221.37 586.199 1223.82H576.271C576.611 1221.57 576.815 1218.17 576.815 1213.55V1178.46C576.815 1174.92 576.679 1172.48 576.271 1169.69H586.879C587.491 1171.39 588.715 1173.43 591.027 1176.9L608.231 1202.8C609.863 1205.25 612.039 1208.79 613.535 1211.51C613.263 1208.86 613.059 1204.78 613.059 1201.92V1179.07C613.059 1175.06 612.923 1172.27 612.515 1169.69H622.443C622.035 1172.41 621.899 1174.92 621.899 1179.07V1215.04C621.899 1218.85 622.035 1221.44 622.443 1223.82Z" fill="black"/>
<path d="M556.35 1169.69H566.686C566.278 1172.27 566.142 1174.38 566.142 1178.46V1215.04C566.142 1219.06 566.278 1221.23 566.686 1223.82H556.35C556.758 1221.23 556.894 1219.06 556.894 1215.04V1178.46C556.894 1174.24 556.758 1172.41 556.35 1169.69Z" fill="black"/>
<path d="M521.921 1223.82H513.897C513.557 1221.64 512.469 1218.44 510.905 1214.64L501.113 1191.31C499.821 1188.25 499.209 1186.42 497.645 1180.91C497.917 1184.51 498.189 1190.09 498.189 1191.58V1213.89C498.189 1218.58 498.325 1221.16 498.733 1223.82H489.213C489.621 1221.1 489.757 1218.44 489.757 1213.89V1179.75C489.757 1175.33 489.621 1172.48 489.213 1169.69H501.657C502.133 1172.07 503.017 1174.92 504.173 1177.78L517.977 1211.51L531.713 1177.78C533.073 1174.45 533.685 1172.27 534.161 1169.69H546.673C546.265 1172.95 546.129 1175.2 546.129 1179.75V1213.89C546.129 1218.85 546.265 1221.3 546.673 1223.82H537.153C537.561 1221.03 537.697 1218.58 537.697 1213.89V1191.31C537.969 1185.4 538.173 1181.93 538.241 1180.91C537.357 1184.58 536.065 1188.39 535.113 1190.84L524.913 1214.77C523.553 1217.97 522.329 1221.78 521.921 1223.82Z" fill="black"/>
<path d="M483.663 1223.82H472.511C472.103 1221.57 471.355 1218.65 470.607 1216.68L467.887 1209.26H446.127L443.407 1216.68C442.183 1219.94 441.911 1220.96 441.367 1223.82H430.215C431.235 1221.98 432.595 1218.92 433.819 1215.79L448.779 1176.56C450.071 1173.16 450.615 1171.46 450.955 1169.69H462.787C463.127 1171.32 463.535 1172.41 465.099 1176.56L480.195 1215.79C481.895 1220.14 482.711 1222.05 483.663 1223.82ZM465.439 1201.44L458.163 1181.32C457.891 1180.57 457.687 1179.75 456.939 1177.51C455.851 1180.7 455.851 1180.7 455.647 1181.32L448.575 1201.44H465.439Z" fill="black"/>
<path d="M429.02 1215.11V1224.29C426.572 1223.95 424.192 1223.82 419.364 1223.82H399.236C395.428 1223.82 393.048 1223.88 390.6 1224.02C391.008 1221.5 391.144 1218.99 391.144 1215.04V1179.75C391.144 1175.06 391.008 1172.61 390.6 1169.69H400.868C400.46 1172.48 400.324 1174.72 400.324 1179.68V1215.59H419.364C423.988 1215.59 426.164 1215.45 429.02 1215.11Z" fill="black"/>
<path d="M356.426 1200.42V1214.02C356.426 1218.85 356.562 1221.23 356.97 1223.82H346.838C347.246 1221.5 347.382 1218.65 347.382 1214.16V1178.32C347.382 1174.58 347.246 1172.61 346.838 1169.48C349.626 1169.62 351.326 1169.69 355.474 1169.69H374.514C378.798 1169.69 380.974 1169.55 383.83 1169.21V1178.39C381.382 1178.05 378.866 1177.92 374.514 1177.92H356.426V1192.33H370.978C375.194 1192.33 377.574 1192.2 380.226 1191.86V1200.9C377.71 1200.56 375.126 1200.42 370.978 1200.42H356.426Z" fill="black"/>
</svg>
