<svg width="1080" height="1920" viewBox="0 0 1080 1920" fill="none" xmlns="http://www.w3.org/2000/svg">
<path d="M1080 1920L1080 0L0 0L0 1920H1080Z" fill="#A5D4AD"/>
<path d="M1020 983.72V95C1020 75.67 1004.33 60 985 60H95.58C75.93 60 60 75.93 60 95.58V983.71C60 984.03 60.25 984.28 60.57 984.28C80.03 984.59 95.71 1000.46 95.71 1019.99C95.71 1039.52 80.03 1055.39 60.57 1055.7C60.25 1055.7 60 1055.96 60 1056.27V1824.99C60 1844.32 75.67 1859.99 95 1859.99H985C1004.33 1859.99 1020 1844.32 1020 1824.99V1056.27C1020 1055.95 1019.75 1055.7 1019.43 1055.7C999.97 1055.39 984.29 1039.52 984.29 1019.99C984.29 1000.46 999.97 984.59 1019.43 984.28C1019.75 984.28 1020 984.02 1020 983.71V983.72Z" fill="white"/>
<path d="M60.57 1055.71C60.25 1055.71 60 1055.97 60 1056.28V1825C60 1844.33 75.67 1860 95 1860H985C1004.33 1860 1020 1844.33 1020 1825V1056.28C1020 1055.96 1019.75 1055.71 1019.43 1055.71C999.97 1055.4 984.29 1039.53 984.29 1020H95.71C95.71 1039.53 80.03 1055.4 60.57 1055.71Z" fill="#E5F2E6"/>
<path d="M121 1020H160.9" stroke="black" stroke-width="6" stroke-miterlimit="10"/>
<path d="M187.51 1020H227.41" stroke="black" stroke-width="6" stroke-miterlimit="10"/>
<path d="M254.02 1020H293.92" stroke="black" stroke-width="6" stroke-miterlimit="10"/>
<path d="M320.52 1020H360.43" stroke="black" stroke-width="6" stroke-miterlimit="10"/>
<path d="M387.03 1020H426.94" stroke="black" stroke-width="6" stroke-miterlimit="10"/>
<path d="M453.54 1020H493.44" stroke="black" stroke-width="6" stroke-miterlimit="10"/>
<path d="M520.05 1020H559.95" stroke="black" stroke-width="6" stroke-miterlimit="10"/>
<path d="M586.56 1020H626.46" stroke="black" stroke-width="6" stroke-miterlimit="10"/>
<path d="M653.06 1020H692.97" stroke="black" stroke-width="6" stroke-miterlimit="10"/>
<path d="M719.57 1020H759.48" stroke="black" stroke-width="6" stroke-miterlimit="10"/>
<path d="M786.08 1020H825.98" stroke="black" stroke-width="6" stroke-miterlimit="10"/>
<path d="M852.59 1020H892.49" stroke="black" stroke-width="6" stroke-miterlimit="10"/>
<path d="M919.1 1020H959" stroke="black" stroke-width="6" stroke-miterlimit="10"/>
<path d="M1020 984.29V95C1020 75.67 1004.33 60 985 60H95C75.67 60 60 75.67 60 95V984.29C79.72 984.29 95.71 1000.28 95.71 1020C95.71 1039.72 79.72 1055.71 60 1055.71V1825C60 1844.33 75.67 1860 95 1860H985C1004.33 1860 1020 1844.33 1020 1825V1055.71C1000.28 1055.71 984.29 1039.72 984.29 1020C984.29 1000.28 1000.28 984.29 1020 984.29Z" stroke="black" stroke-width="6" stroke-miterlimit="10"/>
<path d="M912.642 525.66C908.772 525.66 905.532 522.64 905.312 518.73C900.582 435.62 868.782 358.85 813.362 296.74C810.662 293.71 810.922 289.06 813.952 286.36C816.982 283.66 821.622 283.92 824.332 286.95C881.992 351.57 915.062 431.43 919.992 517.89C920.222 521.94 917.122 525.42 913.072 525.65C912.932 525.65 912.792 525.66 912.652 525.66H912.642Z" fill="black"/>
<path d="M818.842 795.509C817.102 795.509 815.352 794.889 813.952 793.639C810.922 790.939 810.662 786.289 813.362 783.259C868.782 721.149 900.582 644.379 905.312 561.269C905.542 557.219 909.022 554.109 913.072 554.349C917.122 554.579 920.222 558.049 919.992 562.109C915.062 648.579 881.992 728.439 824.332 793.049C822.882 794.679 820.862 795.509 818.842 795.509Z" fill="black"/>
<path d="M167.352 525.66C167.212 525.66 167.072 525.66 166.932 525.65C162.882 525.42 159.782 521.95 160.012 517.89C164.942 431.42 198.012 351.56 255.672 286.95C258.372 283.92 263.022 283.66 266.052 286.36C269.082 289.06 269.342 293.71 266.642 296.74C211.222 358.85 179.422 435.61 174.692 518.73C174.472 522.64 171.232 525.66 167.362 525.66H167.352Z" fill="black"/>
<path d="M261.162 795.509C259.142 795.509 257.122 794.679 255.672 793.049C198.012 728.429 164.942 648.569 160.012 562.109C159.782 558.059 162.882 554.579 166.932 554.349C170.982 554.109 174.462 557.219 174.692 561.269C179.422 644.389 211.222 721.149 266.642 783.259C269.342 786.289 269.082 790.939 266.052 793.639C264.652 794.889 262.902 795.509 261.162 795.509Z" fill="black"/>
<path d="M788.162 268.509C786.422 268.509 784.672 267.889 783.272 266.639C721.162 211.219 644.392 179.419 561.282 174.689C557.232 174.459 554.132 170.989 554.362 166.929C554.592 162.879 558.032 159.789 562.122 160.009C648.592 164.939 728.452 198.009 793.062 255.669C796.092 258.369 796.352 263.019 793.652 266.049C792.202 267.679 790.182 268.509 788.162 268.509Z" fill="black"/>
<path d="M291.842 268.51C289.822 268.51 287.802 267.68 286.352 266.05C283.652 263.02 283.912 258.37 286.942 255.67C351.562 198.01 431.422 164.94 517.882 160.01C521.932 159.78 525.412 162.88 525.642 166.93C525.872 170.98 522.772 174.46 518.722 174.69C435.612 179.42 358.842 211.22 296.732 266.64C295.332 267.89 293.582 268.51 291.842 268.51Z" fill="black"/>
<path d="M561.682 920C557.812 920 554.572 916.98 554.352 913.07C554.122 909.02 557.222 905.54 561.272 905.31C644.392 900.58 721.152 868.78 783.262 813.36C786.292 810.66 790.942 810.92 793.642 813.95C796.342 816.98 796.082 821.63 793.052 824.33C728.432 881.99 648.572 915.06 562.112 919.99C561.972 919.99 561.832 920 561.692 920H561.682Z" fill="black"/>
<path d="M518.312 920C518.172 920 518.032 920 517.892 919.99C431.422 915.06 351.562 881.99 286.952 824.33C283.922 821.63 283.662 816.98 286.362 813.95C289.062 810.92 293.712 810.66 296.742 813.36C358.852 868.78 435.622 900.58 518.732 905.31C522.782 905.54 525.882 909.01 525.652 913.07C525.432 916.98 522.192 920 518.322 920H518.312Z" fill="black"/>
<path d="M875.372 526.191C872.362 526.191 869.842 523.841 869.672 520.801C865.402 445.791 836.702 376.521 786.692 320.461C784.592 318.101 784.792 314.491 787.152 312.391C789.502 310.291 793.122 310.491 795.222 312.851C846.972 370.851 876.672 442.541 881.092 520.151C881.272 523.301 878.862 526.001 875.712 526.181C875.602 526.181 875.492 526.181 875.382 526.181L875.372 526.191Z" fill="black"/>
<path d="M790.952 769.062C789.592 769.062 788.242 768.582 787.152 767.612C784.792 765.512 784.592 761.892 786.692 759.542C836.702 703.492 865.402 634.212 869.672 559.202C869.852 556.052 872.542 553.642 875.702 553.822C878.852 554.002 881.262 556.702 881.082 559.852C876.662 637.472 846.972 709.152 795.212 767.152C794.082 768.422 792.512 769.062 790.942 769.062H790.952Z" fill="black"/>
<path d="M204.622 526.191C204.512 526.191 204.402 526.191 204.292 526.191C201.142 526.011 198.732 523.311 198.912 520.161C203.332 442.541 233.022 370.861 284.782 312.861C286.882 310.501 290.502 310.301 292.852 312.401C295.212 314.501 295.412 318.121 293.312 320.471C243.302 376.521 214.602 445.801 210.332 520.811C210.162 523.851 207.642 526.201 204.632 526.201L204.622 526.191Z" fill="black"/>
<path d="M289.042 769.061C287.472 769.061 285.902 768.411 284.772 767.151C233.022 709.151 203.322 637.461 198.902 559.851C198.722 556.701 201.132 554.001 204.282 553.821C207.442 553.631 210.132 556.051 210.312 559.201C214.582 634.211 243.282 703.491 293.292 759.541C295.392 761.901 295.192 765.511 292.832 767.611C291.742 768.581 290.382 769.061 289.032 769.061H289.042Z" fill="black"/>
<path d="M763.342 294.762C761.982 294.762 760.632 294.282 759.542 293.312C703.492 243.302 634.212 214.602 559.202 210.332C556.052 210.152 553.642 207.452 553.822 204.302C554.002 201.152 556.692 198.742 559.852 198.922C637.472 203.342 709.152 233.032 767.152 284.792C769.512 286.892 769.712 290.512 767.612 292.862C766.482 294.132 764.912 294.772 763.342 294.772V294.762Z" fill="black"/>
<path d="M316.652 294.761C315.082 294.761 313.512 294.111 312.382 292.851C310.282 290.491 310.482 286.881 312.842 284.781C370.842 233.031 442.532 203.331 520.142 198.911C523.292 198.721 525.992 201.141 526.172 204.291C526.352 207.441 523.942 210.141 520.792 210.321C445.782 214.591 376.512 243.291 320.452 293.301C319.362 294.271 318.002 294.751 316.652 294.751V294.761Z" fill="black"/>
<path d="M559.522 881.102C556.512 881.102 553.992 878.752 553.822 875.712C553.642 872.562 556.052 869.862 559.202 869.682C634.212 865.412 703.482 836.712 759.542 786.702C761.892 784.602 765.512 784.802 767.612 787.162C769.712 789.522 769.512 793.132 767.152 795.232C709.152 846.982 637.462 876.682 559.852 881.102C559.742 881.102 559.632 881.102 559.522 881.102Z" fill="black"/>
<path d="M520.482 881.102C520.372 881.102 520.262 881.102 520.152 881.102C442.532 876.682 370.852 846.992 312.852 795.232C310.492 793.132 310.292 789.512 312.392 787.162C314.492 784.802 318.112 784.602 320.462 786.702C376.512 836.722 445.792 865.412 520.802 869.682C523.952 869.862 526.362 872.562 526.182 875.712C526.012 878.752 523.492 881.102 520.482 881.102Z" fill="black"/>
<path d="M841.842 526.51C839.692 526.51 837.892 524.83 837.772 522.66C833.912 454.91 807.992 392.34 762.822 341.71C761.322 340.03 761.472 337.45 763.152 335.94C764.832 334.44 767.412 334.58 768.922 336.27C815.342 388.29 841.972 452.58 845.932 522.19C846.062 524.44 844.342 526.37 842.082 526.5C842.002 526.5 841.922 526.5 841.842 526.5V526.51Z" fill="black"/>
<path d="M765.863 745.101C764.893 745.101 763.923 744.761 763.143 744.061C761.463 742.561 761.313 739.981 762.813 738.291C807.983 687.661 833.903 625.091 837.763 557.341C837.893 555.091 839.853 553.391 842.073 553.491C844.323 553.621 846.043 555.551 845.923 557.801C841.953 627.411 815.323 691.701 768.913 743.721C768.103 744.621 766.983 745.081 765.863 745.081V745.101Z" fill="black"/>
<path d="M238.162 526.51C238.082 526.51 238.002 526.51 237.922 526.51C235.672 526.38 233.952 524.45 234.072 522.2C238.042 452.59 264.672 388.3 311.082 336.28C312.582 334.6 315.162 334.45 316.852 335.95C318.532 337.45 318.682 340.03 317.182 341.72C272.012 392.35 246.092 454.92 242.232 522.67C242.112 524.84 240.312 526.52 238.162 526.52V526.51Z" fill="black"/>
<path d="M314.132 745.101C313.012 745.101 311.892 744.641 311.082 743.741C264.662 691.721 238.032 627.431 234.072 557.821C233.942 555.571 235.662 553.641 237.922 553.511C240.162 553.401 242.102 555.101 242.232 557.361C246.092 625.111 272.012 687.681 317.182 738.311C318.682 739.991 318.532 742.571 316.852 744.081C316.072 744.771 315.102 745.121 314.132 745.121V745.101Z" fill="black"/>
<path d="M741.012 318.219C740.042 318.219 739.072 317.879 738.292 317.179C687.662 272.009 625.092 246.089 557.342 242.229C555.092 242.099 553.372 240.169 553.492 237.919C553.622 235.669 555.542 233.959 557.802 234.069C627.412 238.039 691.702 264.669 743.732 311.079C745.412 312.579 745.562 315.159 744.062 316.849C743.252 317.749 742.132 318.209 741.012 318.209V318.219Z" fill="black"/>
<path d="M338.992 318.22C337.872 318.22 336.752 317.76 335.942 316.86C334.442 315.18 334.592 312.6 336.272 311.09C388.292 264.67 452.582 238.04 522.192 234.08C524.442 233.96 526.372 235.67 526.502 237.93C526.632 240.18 524.912 242.11 522.652 242.24C454.902 246.1 392.332 272.02 341.702 317.19C340.922 317.88 339.952 318.23 338.982 318.23L338.992 318.22Z" fill="black"/>
<path d="M557.562 845.929C555.412 845.929 553.612 844.249 553.492 842.079C553.362 839.829 555.082 837.899 557.342 837.769C625.092 833.909 687.662 807.989 738.292 762.819C739.972 761.319 742.552 761.469 744.062 763.149C745.562 764.829 745.412 767.409 743.732 768.919C691.712 815.339 627.422 841.969 557.802 845.929C557.722 845.929 557.642 845.929 557.562 845.929Z" fill="black"/>
<path d="M522.432 845.929C522.352 845.929 522.272 845.929 522.192 845.929C452.582 841.959 388.292 815.329 336.272 768.919C334.592 767.419 334.442 764.839 335.942 763.149C337.442 761.469 340.022 761.319 341.712 762.819C392.342 807.989 454.912 833.909 522.662 837.769C524.912 837.899 526.632 839.829 526.512 842.079C526.392 844.249 524.592 845.929 522.442 845.929H522.432Z" fill="black"/>
<path d="M320.642 546.17C320.642 544.6 321.782 543.27 323.332 543.02C324.632 542.81 326.262 542.52 327.972 542.12C332.392 541.08 337.582 539.11 343.402 536.27C349.282 533.4 354.912 529.41 359.162 523.67C366.332 513.97 367.852 501.4 368.182 496.89C368.252 495.97 367.522 495.19 366.592 495.19H317.082C315.322 495.19 313.902 493.76 313.902 492.01V470.69C313.902 468.93 315.332 467.51 317.082 467.51H367.062C367.942 467.51 368.652 466.8 368.652 465.92V447.18C368.652 446.3 367.942 445.59 367.062 445.59H328.612C326.852 445.59 325.432 444.16 325.432 442.41V421.09C325.432 419.33 326.862 417.91 328.612 417.91H428.952C430.712 417.91 432.132 419.34 432.132 421.09V442.41C432.132 444.17 430.702 445.59 428.952 445.59H398.512C397.632 445.59 396.922 446.3 396.922 447.18V465.92C396.922 466.8 397.632 467.51 398.512 467.51H438.572C440.332 467.51 441.752 468.94 441.752 470.69V492.01C441.752 493.77 440.322 495.19 438.572 495.19H398.382C397.532 495.19 396.832 495.86 396.792 496.71C396.562 501.75 395.142 518.44 386.172 532.85C380.722 541.61 373.642 548.26 366.532 553.54C359.402 558.84 352.252 562.93 345.262 565.7C338.232 568.49 332.332 570.44 327.742 571.51C326.652 571.76 325.482 571.99 324.392 572.18C322.442 572.53 320.652 571.03 320.652 569.04V546.16L320.642 546.17Z" fill="black"/>
<path d="M474.542 546.52C474.542 545.06 475.542 543.79 476.952 543.43C485.202 541.36 488.922 540.11 496.832 536.32C496.832 536.32 500.882 534.21 504.922 531.3C517.102 522.54 525.212 510.63 525.212 510.63C534.672 497.28 537.762 474.91 538.482 468.49C538.592 467.55 537.852 466.72 536.902 466.72H500.572C500.342 466.72 500.132 466.84 500.022 467.04L499.872 467.29C494.292 478.11 486.872 487.99 480.442 494.24C473.992 500.5 468.582 505.05 464.372 507.75L461.772 509.42C460.712 510.1 459.322 509.34 459.322 508.08V479.89C459.322 478.95 459.742 478.06 460.462 477.45C461.112 476.9 461.982 476.13 463.172 475.06C465.932 472.57 469.042 468.51 472.412 462.98C475.752 457.51 479.342 450.21 483.062 441.29C486.442 433.2 488.972 423.09 490.852 412.06C491.112 410.53 492.442 409.42 493.992 409.42H513.902C515.902 409.42 517.412 411.25 517.032 413.21C516.392 416.52 515.702 420.88 514.842 424.31C513.572 429.39 512.752 432.3 511.232 436.72C510.972 437.47 511.532 438.24 512.322 438.24H591.172C592.932 438.24 594.352 439.67 594.352 441.42V463.51C594.352 465.27 592.922 466.69 591.172 466.69H568.132C567.322 466.69 566.632 467.3 566.552 468.11C565.922 474.01 562.872 497.16 552.382 517.26C538.282 546 508.132 566.39 478.332 572.13C476.372 572.51 474.552 571 474.552 569V546.48L474.542 546.52Z" fill="black"/>
<path d="M675.893 411.029V468.869C675.893 469.749 676.603 470.459 677.483 470.459H764.513C765.393 470.459 766.103 469.749 766.103 468.869V411.029C766.103 410.149 765.393 409.439 764.513 409.439H677.483C676.603 409.439 675.893 410.149 675.893 411.029ZM738.453 452.739H702.293C701.413 452.739 700.703 452.029 700.703 451.149V446.869C700.703 445.989 701.413 445.279 702.293 445.279H738.453C739.333 445.279 740.043 445.989 740.043 446.869V451.149C740.043 452.029 739.333 452.739 738.453 452.739ZM738.453 434.449H702.293C701.413 434.449 700.703 433.739 700.703 432.859V428.749C700.703 427.869 701.413 427.159 702.293 427.159H738.453C739.333 427.159 740.043 427.869 740.043 428.749V432.859C740.043 433.739 739.333 434.449 738.453 434.449Z" fill="black"/>
<path d="M674.222 497.34H728.262C729.142 497.34 729.852 498.05 729.852 498.93V502.84C729.852 503.72 729.142 504.43 728.262 504.43H667.752C665.992 504.43 664.572 505.86 664.572 507.61V522.86C664.572 524.62 666.002 526.04 667.752 526.04H728.262C729.142 526.04 729.852 526.75 729.852 527.63V545.39C729.852 546.11 729.932 547.98 729.212 548.85C728.382 549.87 727.142 549.67 725.842 549.72C722.532 549.72 719.572 549.7 716.942 549.66C716.542 549.66 716.252 549.29 716.332 548.9C716.592 547.63 716.722 546.31 716.692 544.96C716.492 535.68 708.932 528.08 699.652 527.84C689.572 527.58 681.362 535.85 681.702 545.94C682.012 555.29 689.782 562.81 699.142 562.84C704.032 562.85 708.452 560.86 711.632 557.64C711.972 557.3 712.542 557.43 712.692 557.88C714.152 562.21 715.532 566.34 716.782 570.05C717.222 571.35 718.452 572.22 719.822 572.21C725.722 572.17 730.502 571.96 734.172 571.6C738.302 571.18 742.082 570.15 745.512 568.5C749.172 566.84 751.682 564.42 753.042 561.23C754.402 558.04 755.082 553.55 755.082 547.76V527.62C755.082 526.74 755.792 526.03 756.672 526.03H762.902C764.662 526.03 766.082 524.6 766.082 522.85V507.6C766.082 505.84 764.652 504.42 762.902 504.42H756.672C755.792 504.42 755.082 503.71 755.082 502.83V498.92C755.082 498.04 755.792 497.33 756.672 497.33H762.902C764.662 497.33 766.082 495.9 766.082 494.15V479.6C766.082 477.84 764.652 476.42 762.902 476.42H674.202C672.442 476.42 671.022 477.85 671.022 479.6V494.15C671.022 495.91 672.452 497.33 674.202 497.33L674.222 497.34Z" fill="black"/>
<path d="M668.822 409.439H650.252C649.392 409.439 648.572 409.789 647.972 410.399C635.222 423.349 618.282 434.569 612.122 438.479C610.772 439.329 610.272 441.059 610.942 442.499L620.692 463.569C621.622 465.569 624.252 466.049 625.822 464.499C646.112 444.459 664.442 419.799 670.112 411.959C670.872 410.909 670.112 409.439 668.822 409.439Z" fill="black"/>
<path d="M671.912 453.889V435.409C671.912 433.999 670.212 433.289 669.202 434.279C653.632 449.599 620.042 477.059 611.672 483.859C610.542 484.779 610.182 486.349 610.792 487.669L620.692 509.049C621.622 511.049 624.252 511.529 625.822 509.979C627.532 508.289 629.232 506.559 630.912 504.819C631.312 504.409 632.012 504.689 632.012 505.259V569.059C632.012 570.819 633.442 572.239 635.192 572.239H653.812C655.572 572.239 656.992 570.809 656.992 569.059V476.369C656.992 475.299 657.352 474.249 658.022 473.409C664.862 464.729 669.712 458.019 671.332 455.739C671.712 455.199 671.922 454.559 671.922 453.889H671.912Z" fill="black"/>
<path d="M653.263 623.33C640.843 623.33 634.803 628.28 634.803 638.47V655.6C634.803 665.67 640.843 670.56 653.263 670.56C659.133 670.56 663.473 669.48 666.553 667.27C669.993 664.8 671.733 660.87 671.733 655.59V638.46C671.733 628.27 665.693 623.32 653.273 623.32L653.263 623.33ZM646.083 639.3C646.083 633.93 648.833 632.91 653.263 632.91C657.693 632.91 660.443 633.95 660.443 639.3V654.68C660.443 659.95 657.593 660.98 653.263 660.98C648.933 660.98 646.083 659.98 646.083 654.68V639.3Z" fill="black"/>
<path d="M708.263 669.331H721.353L703.623 646.781L720.553 624.8H707.393L694.053 642.281V610.23H682.763V669.331H694.053V659.211L696.943 655.451L708.263 669.331Z" fill="black"/>
<path d="M754.812 624.801V653.291C754.812 659.041 751.872 660.891 746.822 660.891C743.552 660.891 740.272 660.351 740.272 653.881V624.811H728.992V656.771C728.992 665.741 733.702 670.481 742.612 670.481C749.292 670.481 753.872 666.861 755.572 662.801L757.382 669.341H766.102V624.811H754.822L754.812 624.801Z" fill="black"/>
<path d="M630.563 610.23H589.143V620.141V620.151H604.213V669.331H615.683V620.151H630.563V610.23Z" fill="black"/>
<path d="M459.682 669.331H472.772L455.042 646.781L471.972 624.8H458.812L445.472 642.281V610.23H434.192V669.331H445.472V659.211L448.362 655.451L459.682 669.331Z" fill="black"/>
<path d="M355.322 610.23H313.902V620.141V620.151H328.982V669.331H340.442V620.151H355.322V610.23Z" fill="black"/>
<path d="M421.792 658.89L421.192 659.04C417.612 659.96 413.282 660.89 409.402 660.89C404.852 660.89 401.682 658.82 401.682 652.83V640.97C401.682 634.9 404.852 632.82 409.402 632.82C413.352 632.82 417.872 633.7 421.222 634.4L421.802 634.52V625.19L421.492 625.12C417.682 624.23 412.042 623.33 407.522 623.33C402.002 623.33 397.962 624.4 395.162 626.59C391.962 629.09 390.412 633.85 390.412 639.34V654.64C390.412 664.77 396.012 670.56 407.532 670.56C411.402 670.56 417.262 669.49 421.522 668.31L421.812 668.23V658.88L421.792 658.89Z" fill="black"/>
<path d="M553.922 634.699V624.799H543.682V615.189H532.402V624.799H525.172V634.699H532.402V655.419C532.402 667.939 540.292 670.559 546.922 670.559C548.702 670.559 550.502 670.449 552.112 670.219V660.259C551.462 660.329 550.252 660.359 549.532 660.359C546.452 660.359 543.682 659.729 543.682 652.089V634.689H553.922V634.699Z" fill="black"/>
<path d="M489.732 650.741V650.561H515.162V641.481C515.162 635.571 513.542 630.241 510.352 627.341C507.412 624.671 502.772 623.311 497.252 623.311C485.072 623.311 478.452 629.221 478.452 639.591V654.451C478.452 664.701 483.832 670.551 496.312 670.551C500.972 670.551 506.282 669.561 511.962 668.401L512.352 668.321V659.051L511.702 659.201C507.132 660.251 504.612 661.141 500.282 661.141C494.072 661.141 489.732 658.621 489.732 652.201V650.721V650.741ZM489.732 639.721C489.732 634.071 493.792 632.741 497.162 632.741C500.532 632.741 504.062 634.071 504.062 639.721V643.231H489.732V642.711V639.721Z" fill="black"/>
<path d="M378.173 626.881H366.893V669.331H378.173V626.881Z" fill="black"/>
<path d="M372.532 622.22C376.415 622.22 379.562 619.073 379.562 615.19C379.562 611.308 376.415 608.16 372.532 608.16C368.649 608.16 365.502 611.308 365.502 615.19C365.502 619.073 368.649 622.22 372.532 622.22Z" fill="black"/>
<path d="M585.733 643.92H566.143V651.26H585.733V643.92Z" fill="black"/>
<path d="M725.434 1617.04L716.026 1627.23C707.892 1617.24 696.622 1606.26 685.94 1598.13C674.866 1610.48 663.596 1619.1 648.602 1626.45C645.858 1621.35 644.682 1619.79 640.664 1615.57C648.21 1612.63 652.914 1609.99 660.264 1604.79C675.062 1594.4 686.822 1580.19 693.192 1564.91L694.27 1562.36C692.702 1562.46 692.702 1562.46 661.832 1562.95C657.128 1563.04 654.482 1563.24 651.15 1563.73L650.758 1551.19C653.502 1551.68 655.364 1551.77 659.382 1551.77C659.774 1551.77 660.558 1551.77 661.734 1551.77L696.23 1551.28C701.718 1551.19 702.502 1551.09 704.952 1550.21L711.42 1556.87C710.146 1558.34 709.362 1559.71 708.284 1562.16C703.776 1572.65 698.974 1581.17 692.996 1589.21C699.17 1593.33 704.462 1597.44 711.126 1603.42C713.576 1605.58 713.576 1605.58 725.434 1617.04Z" fill="black"/>
<path d="M565.302 1557.26V1577.06C580.1 1574.31 601.758 1565.59 608.128 1559.61L615.968 1570.69C615.282 1570.98 612.342 1572.35 607.148 1574.9C593.82 1581.27 580.1 1585.68 565.302 1588.43V1601.36C565.204 1601.85 565.204 1602.34 565.204 1602.64C565.204 1608.32 565.596 1610.57 566.968 1611.95C568.634 1613.71 574.22 1614.49 583.726 1614.49C590.292 1614.49 599.308 1613.91 606.462 1612.93C611.166 1612.34 613.322 1611.85 617.634 1610.57L618.222 1623.61C616.164 1623.61 615.674 1623.71 605.286 1624.69C599.504 1625.27 587.156 1625.86 581.178 1625.86C568.83 1625.86 562.068 1624.59 558.246 1621.65C555.502 1619.59 554.032 1616.45 553.444 1611.65C553.248 1609.99 553.15 1608.32 553.15 1602.64L553.052 1557.16C553.052 1552.17 553.052 1550.6 552.66 1548.15H565.792C565.4 1550.5 565.302 1552.26 565.302 1557.26ZM604.894 1546.68L611.852 1543.54C615.772 1547.95 618.418 1551.97 621.652 1558.44L614.596 1561.67C611.558 1555.4 609.01 1551.48 604.894 1546.68ZM633.51 1552.46L626.552 1555.99C623.906 1550.6 620.868 1545.89 617.144 1541.39L623.906 1538.25C628.218 1543.15 630.864 1546.97 633.51 1552.46Z" fill="black"/>
<path d="M444.958 1593.23V1579.61C449.27 1580.19 451.132 1580.29 460.834 1580.29H513.068C522.77 1580.29 524.632 1580.19 528.944 1579.61V1593.23C525.024 1592.74 523.946 1592.74 512.97 1592.74H460.932C449.956 1592.74 448.878 1592.74 444.958 1593.23Z" fill="black"/>
<path d="M376.162 1563.63H401.642L401.74 1559.22V1556.09C401.74 1549.62 401.642 1547.46 401.25 1545.21H413.892C413.598 1547.46 413.5 1547.95 413.5 1551.77C413.5 1557.75 413.5 1557.75 413.402 1563.63H419.674C426.632 1563.63 428.592 1563.53 432.414 1562.95V1574.9C428.984 1574.51 426.338 1574.41 419.87 1574.41H413.304C413.108 1586.17 413.108 1586.86 412.618 1590.58C411.246 1603.13 407.032 1611.46 398.506 1618.71C393.214 1623.22 388.412 1625.76 379.396 1629C377.534 1624.78 376.26 1622.92 372.046 1618.61C381.356 1615.77 386.06 1613.42 390.764 1609.3C397.428 1603.52 400.27 1597.05 401.152 1585.78C401.348 1583.53 401.348 1581.17 401.544 1574.41H376.162V1589.11C376.162 1593.23 376.26 1594.8 376.554 1597.34H363.814C364.108 1595.19 364.206 1592.54 364.206 1588.92V1574.41H358.228C351.76 1574.41 349.114 1574.51 345.684 1574.9V1562.95C349.506 1563.53 351.466 1563.63 358.424 1563.63H364.206V1553.83C364.206 1549.72 364.108 1547.66 363.716 1545.11H376.554C376.162 1548.34 376.162 1548.54 376.162 1553.54V1563.63Z" fill="black"/>
<path d="M748.362 1428.11L754.634 1434.28C753.654 1435.75 753.262 1436.63 752.184 1440.16C747.676 1455.06 740.718 1468.29 732.094 1477.99C723.078 1488.28 712.298 1495.92 697.206 1502.88C694.462 1497.98 693.188 1496.31 688.876 1492.59C698.676 1488.57 704.164 1485.63 710.338 1481.03C724.352 1470.64 733.564 1457.21 738.954 1439.67L709.456 1440.16C703.478 1449.67 695.834 1458.09 686.524 1465.25C683.584 1461.23 682.114 1459.96 677.018 1456.82C688.19 1449.18 695.246 1441.34 702.4 1428.4C705.438 1422.81 707.006 1418.99 707.398 1415.46L720.824 1418.11C720.236 1418.99 720.236 1418.99 719.158 1421.15C718.864 1421.64 718.864 1421.64 717.884 1423.89C717.59 1424.48 717.59 1424.48 716.61 1426.44C716.022 1427.81 716.022 1427.81 715.042 1429.58C716.316 1429.48 717.884 1429.38 719.746 1429.38L741.208 1429.09C745.03 1429.09 746.108 1428.89 748.362 1428.11Z" fill="black"/>
<path d="M582.84 1434.08L590.974 1424.38C602.636 1431.63 608.712 1436.14 616.258 1443.3L607.83 1453.98C599.99 1445.65 591.954 1439.18 582.84 1434.08ZM586.27 1498.76L582.644 1485.24C591.072 1484.75 602.734 1481.91 611.652 1477.99C623.902 1472.7 633.016 1465.15 640.758 1453.98C645.07 1447.71 647.814 1442.32 650.754 1434.38C654.576 1438.98 656.144 1440.45 661.142 1443.98C652.812 1461.92 643.502 1473.48 630.076 1482.4C620.08 1489.06 607.928 1493.86 592.738 1497.1C588.818 1497.88 588.524 1497.98 586.27 1498.76Z" fill="black"/>
<path d="M492.875 1419.68L506.203 1419.78C505.811 1422.52 505.811 1423.4 505.811 1428.6V1455.64C505.811 1460.54 505.811 1461.82 506.203 1464.27H492.777C493.071 1462.01 493.267 1458.98 493.267 1455.45V1428.5C493.267 1423.5 493.169 1422.23 492.875 1419.68ZM537.073 1419.87H550.695C550.303 1422.32 550.205 1423.4 550.205 1428.99V1442.22C550.107 1457.51 549.421 1465.74 547.657 1471.91C544.815 1481.71 538.543 1489.06 528.351 1494.75C523.157 1497.69 518.257 1499.65 509.241 1502.29C507.477 1497.49 506.497 1495.82 502.381 1490.63C511.985 1488.77 517.669 1486.71 523.549 1482.79C532.761 1476.71 535.995 1470.74 537.073 1457.8C537.465 1453.59 537.563 1449.27 537.563 1441.43V1429.18C537.563 1424.19 537.465 1422.13 537.073 1419.87Z" fill="black"/>
<path d="M412.614 1501.41H399.188C399.579 1498.67 399.775 1496.02 399.775 1490.43V1427.62C399.677 1421.93 399.579 1419.97 399.188 1417.62H412.614C412.32 1420.27 412.221 1422.13 412.221 1427.91V1446.14C423.589 1449.86 441.23 1458.09 456.714 1466.82L449.854 1478.38C442.994 1473.48 429.078 1465.93 415.161 1459.66C412.907 1458.58 412.613 1458.49 411.829 1458C412.124 1460.74 412.221 1462.41 412.221 1464.66V1490.53C412.221 1495.82 412.32 1498.57 412.614 1501.41ZM432.703 1426.15L439.564 1422.72C443.876 1427.32 446.521 1431.05 449.854 1437.12L442.993 1440.75C439.76 1434.77 437.015 1430.85 432.703 1426.15ZM461.516 1430.75L454.754 1434.57C451.814 1429.18 448.58 1424.58 444.758 1420.36L451.324 1416.93C455.734 1421.44 458.478 1425.17 461.516 1430.75Z" fill="black"/>
<path d="M349.02 1498.18H334.222C334.81 1494.35 335.006 1490.53 335.006 1485.44V1431.44H330.302C326.676 1431.44 323.834 1431.63 320.208 1432.03V1419.58C323.246 1420.07 325.402 1420.17 330.008 1420.17H339.024C344.022 1420.17 345.492 1420.07 349.02 1419.68C348.432 1425.46 348.236 1429.97 348.236 1435.85V1485.44C348.236 1490.63 348.432 1494.16 349.02 1498.18Z" fill="black"/>
<path d="M750.818 1728.02V1710.21H743.762C741.65 1710.21 740.306 1710.26 738.914 1710.45V1705.36C740.162 1705.55 741.554 1705.6 743.762 1705.6H762.146C764.402 1705.6 765.794 1705.55 767.09 1705.36V1710.45C765.746 1710.26 764.354 1710.21 762.146 1710.21H755.858V1716.35H764.93C767.138 1716.35 768.338 1716.3 769.634 1716.06V1721.2C768.194 1721.01 767.042 1720.96 764.93 1720.96H755.858V1729.22C758.21 1729.55 760.85 1729.7 763.682 1729.7C766.466 1729.7 769.73 1729.55 774.626 1729.12C773.858 1731.09 773.522 1732.38 773.282 1734.59C769.346 1734.69 766.85 1734.74 763.058 1734.74C751.826 1734.74 745.538 1732.29 741.602 1726.48C740.066 1729.79 738.242 1732.43 735.026 1735.89C733.778 1734.11 733.106 1733.49 730.898 1731.95C734.834 1728.4 737.618 1723.79 739.154 1718.37C739.682 1716.4 740.066 1714.24 740.114 1713.18L745.442 1714.19C745.202 1715.01 745.202 1715.06 744.77 1717.02C744.53 1717.98 744.242 1719.09 743.522 1721.34C745.442 1724.75 747.41 1726.53 750.818 1728.02ZM750.002 1696.58V1694.8C750.002 1693.6 749.906 1692.78 749.714 1691.73H755.618C755.426 1692.74 755.378 1693.5 755.378 1694.75V1696.58H768.338C770.258 1696.58 771.89 1696.53 773.666 1696.38C773.522 1697.49 773.474 1698.54 773.474 1699.94V1703.68C773.474 1705.07 773.522 1706.18 773.666 1707.42H768.482V1701.42H737.474V1707.42H732.146C732.338 1706.27 732.386 1705.31 732.386 1703.63V1699.94C732.386 1698.69 732.29 1697.49 732.194 1696.38C733.922 1696.53 735.554 1696.58 737.474 1696.58H750.002Z" fill="black"/>
<path d="M710.259 1714.86H706.803V1728.64C712.179 1727.44 712.179 1727.44 714.771 1726.58L714.915 1731.42C709.923 1732.91 706.707 1733.68 699.603 1735.26C698.547 1735.5 697.683 1735.74 697.155 1735.94L696.195 1730.51C697.155 1730.51 698.883 1730.22 701.859 1729.7V1698.4C701.859 1696.24 701.811 1695.09 701.667 1693.26C702.627 1693.46 703.779 1693.5 706.275 1693.5H720.003C722.307 1693.5 723.219 1693.46 724.467 1693.26C724.371 1694.42 724.323 1695.52 724.323 1698.59V1709.78C724.323 1712.51 724.371 1713.42 724.515 1715.01C723.603 1714.91 723.603 1714.91 723.171 1714.91L727.059 1718.22C726.819 1718.32 726.099 1718.9 725.715 1719.23C724.227 1720.53 721.299 1722.78 719.235 1724.22C721.587 1727.1 724.323 1729.22 728.067 1731.04C726.819 1732.48 726.051 1733.73 725.043 1735.94C720.387 1733.01 717.459 1730.27 715.011 1726.62C712.707 1723.17 711.459 1720.1 710.259 1714.86ZM720.627 1714.86H714.867C715.491 1717.36 715.875 1718.46 716.739 1720.29C719.619 1718.27 722.115 1716.06 722.979 1714.91C722.355 1714.86 721.299 1714.86 720.627 1714.86ZM706.803 1698.11V1702H719.427V1698.11H706.803ZM706.803 1706.22V1710.5H719.427V1706.22H706.803ZM684.819 1730.37V1697.39C684.819 1695.9 684.771 1695.09 684.675 1692.98C685.539 1693.07 686.451 1693.12 688.179 1693.12H695.235C697.155 1693.12 698.163 1693.02 698.739 1692.88L701.475 1696.24C701.139 1696.86 700.995 1697.25 699.987 1699.89C698.979 1702.53 697.875 1705.02 696.291 1708.1C698.259 1710.78 699.027 1712.18 699.699 1714.24C700.179 1715.73 700.467 1717.5 700.467 1718.99C700.467 1721.82 699.603 1723.65 697.875 1724.46C696.579 1725.14 695.235 1725.33 691.779 1725.33C691.683 1723.02 691.491 1721.92 690.771 1720.29C691.443 1720.38 692.259 1720.48 692.883 1720.48C694.755 1720.48 695.379 1719.95 695.379 1718.37C695.379 1716.74 694.995 1715.06 694.323 1713.42C693.603 1711.84 692.883 1710.74 690.963 1708.53C693.075 1704.45 693.603 1703.2 695.427 1697.73H689.859V1730.37C689.859 1732.38 689.955 1734.16 690.099 1735.89H684.531C684.723 1734.45 684.819 1732.62 684.819 1730.37Z" fill="black"/>
<path d="M651.651 1693.07L658.611 1694.42C658.083 1695.47 658.035 1695.57 657.363 1697.87C653.715 1709.87 650.931 1717.84 647.859 1725.23C655.395 1724.66 663.699 1723.65 667.827 1722.78C667.299 1721.63 666.723 1720.58 665.571 1718.42C663.459 1714.43 662.595 1713.04 661.011 1710.78L666.435 1708.67C670.899 1715.2 675.123 1723.26 678.051 1730.9L672.243 1733.92C671.619 1731.95 671.619 1731.95 669.939 1727.97C669.315 1728.11 669.315 1728.11 668.211 1728.35C663.363 1729.36 655.395 1730.37 641.043 1731.76C638.355 1732 637.635 1732.1 636.675 1732.34L635.811 1725.86C636.483 1725.86 636.483 1725.86 637.059 1725.86C638.019 1725.86 639.171 1725.81 641.187 1725.71C643.731 1719.66 645.651 1714.24 648.147 1706.37C650.403 1699.31 651.315 1695.9 651.651 1693.07Z" fill="black"/>
<path d="M625.867 1693.02L631.387 1696.86C630.571 1697.58 630.331 1697.78 629.611 1698.54C626.011 1702.29 622.411 1705.41 618.283 1708.43V1728.93C618.283 1731.57 618.331 1732.96 618.523 1734.26H611.803C612.043 1732.86 612.091 1731.9 612.091 1729.07V1712.18C606.475 1715.54 603.787 1716.78 594.955 1719.95C593.947 1717.46 593.419 1716.64 591.739 1714.48C601.243 1711.89 609.307 1707.9 616.939 1702C621.211 1698.69 624.475 1695.38 625.867 1693.02Z" fill="black"/>
<path d="M580.123 1697.54L583.339 1700.75C582.715 1701.57 582.619 1701.76 581.851 1703.97C580.315 1708.34 577.675 1713.95 575.707 1717.17C570.811 1725.14 564.043 1730.8 553.819 1735.5C552.283 1732.91 551.659 1732.1 549.835 1730.56C553.915 1728.88 556.315 1727.68 559.195 1725.76C562.603 1723.55 564.619 1721.82 567.067 1719.09C563.707 1716.21 560.827 1714.19 557.227 1712.22L560.875 1707.95C564.907 1710.21 566.923 1711.55 570.523 1714.38C572.779 1710.93 574.411 1707.57 575.899 1703.06L560.971 1703.2C557.995 1708.14 554.587 1712.03 549.739 1716.11C548.155 1714.34 547.435 1713.71 544.939 1712.27C550.219 1708.34 554.059 1703.97 556.987 1698.59C558.379 1696.05 559.339 1693.7 559.771 1691.92L566.011 1693.31C565.483 1694.18 565.483 1694.18 564.571 1696C563.995 1697.3 563.659 1697.87 563.419 1698.3C564.187 1698.21 564.187 1698.21 575.899 1698.11C577.867 1698.06 578.875 1697.97 580.123 1697.54Z" fill="black"/>
<path d="M496.604 1716.93V1710.26C498.716 1710.54 499.628 1710.59 504.38 1710.59H529.964C534.716 1710.59 535.628 1710.54 537.74 1710.26V1716.93C535.82 1716.69 535.292 1716.69 529.916 1716.69H504.428C499.052 1716.69 498.524 1716.69 496.604 1716.93Z" fill="black"/>
<path d="M473.563 1704.69H483.067C486.427 1704.69 487.435 1704.64 489.307 1704.35V1710.4C487.579 1710.21 486.331 1710.16 483.163 1710.16H473.323C472.891 1716.83 472.075 1720 469.867 1723.7C467.227 1728.06 463.867 1731.04 457.627 1734.45C455.995 1731.71 455.275 1730.85 453.259 1729.26C459.019 1726.77 462.667 1723.79 464.827 1719.81C466.267 1717.22 466.795 1715.06 467.179 1710.16H455.275C452.107 1710.16 450.859 1710.21 449.131 1710.4V1704.35C451.003 1704.64 452.059 1704.69 455.371 1704.69H467.467C467.515 1702.67 467.515 1701.81 467.515 1700.94V1698.11C467.515 1696.05 467.467 1694.8 467.275 1693.5H473.899C473.707 1695.04 473.707 1695.09 473.659 1698.11L473.611 1700.99C473.563 1704.16 473.563 1704.16 473.563 1704.69Z" fill="black"/>
<path d="M431.372 1700.99L436.268 1704.5C435.596 1705.02 435.596 1705.02 434.636 1706.08C432.236 1708.67 428.732 1711.79 425.708 1713.95V1730.27C425.708 1732.48 425.756 1733.68 425.948 1734.88L419.756 1734.83C419.948 1733.44 419.996 1732.53 419.996 1730.27V1717.41C415.676 1719.95 412.22 1721.49 406.412 1723.5C405.404 1721.3 404.972 1720.48 403.436 1718.51C407.948 1717.31 410.876 1716.21 414.812 1714.19C420.188 1711.41 424.412 1708.38 428.444 1704.45C430.028 1702.86 430.604 1702.19 431.372 1700.99Z" fill="black"/>
<path d="M385.773 1694.99V1700.85C384.285 1700.66 383.613 1700.61 379.677 1700.61H365.373C361.437 1700.61 360.813 1700.66 359.277 1700.85V1694.99C360.909 1695.28 361.869 1695.33 365.469 1695.33H379.581C383.229 1695.33 384.189 1695.28 385.773 1694.99ZM388.797 1712.61H378.525C377.997 1724.46 373.485 1730.8 362.637 1734.98C361.485 1732.58 360.669 1731.52 358.701 1729.65C368.109 1726.67 371.853 1721.92 372.189 1712.61H360.525C356.781 1712.61 356.061 1712.66 354.429 1712.85V1707.14C356.109 1707.42 357.069 1707.47 360.621 1707.47H388.701C392.253 1707.47 393.213 1707.42 394.893 1707.14V1712.85C393.261 1712.66 392.541 1712.61 388.797 1712.61ZM398.973 1697.3L395.421 1698.69C394.317 1695.95 392.925 1693.5 391.293 1691.25L394.749 1690C396.669 1692.54 397.821 1694.46 398.973 1697.3ZM385.005 1693.12L388.557 1691.87C390.381 1694.37 391.485 1696.29 392.829 1699.46L389.229 1700.8C387.885 1697.58 386.781 1695.62 385.005 1693.12Z" fill="black"/>
<path d="M327.117 1712.08L344.157 1695.04L345.693 1696.62L328.653 1713.76L345.693 1730.8L344.157 1732.38L327.117 1715.49L310.125 1732.38L308.541 1730.8L325.581 1713.76L308.541 1696.62L310.125 1695.04L327.117 1712.08ZM327.165 1696.19C329.181 1696.19 330.813 1697.82 330.813 1699.84C330.813 1701.9 329.181 1703.54 327.165 1703.54C325.149 1703.54 323.469 1701.86 323.469 1699.84C323.469 1697.82 325.149 1696.19 327.165 1696.19ZM313.389 1710.06C315.405 1710.06 317.037 1711.7 317.037 1713.71C317.037 1715.78 315.405 1717.41 313.389 1717.41C311.373 1717.41 309.693 1715.73 309.693 1713.71C309.693 1711.7 311.325 1710.06 313.389 1710.06ZM340.845 1710.11C342.861 1710.11 344.493 1711.74 344.493 1713.76C344.493 1715.78 342.861 1717.41 340.845 1717.41C338.829 1717.41 337.197 1715.78 337.197 1713.76C337.197 1711.74 338.829 1710.11 340.845 1710.11ZM327.117 1724.03C329.133 1724.03 330.765 1725.66 330.765 1727.73C330.765 1729.74 329.085 1731.42 327.117 1731.42C325.197 1731.42 323.421 1729.65 323.421 1727.73C323.421 1725.9 325.149 1724.03 326.781 1724.03C326.829 1724.03 326.877 1724.03 326.925 1724.08C326.973 1724.13 326.973 1724.13 327.021 1724.13C327.021 1724.13 327.021 1724.13 327.117 1724.03Z" fill="black"/>
<path d="M832.744 1319.23C831.832 1326.77 830.152 1333.39 827.752 1338.82C825.016 1345.01 821.944 1347.84 818.008 1347.84C812.536 1347.84 808.6 1342.27 808.6 1334.54C808.6 1329.26 810.472 1324.32 813.88 1320.58C817.912 1316.16 823.576 1313.86 830.392 1313.86C841.912 1313.86 849.4 1320.86 849.4 1331.66C849.4 1339.97 845.08 1346.59 837.736 1349.57C835.432 1350.53 833.56 1351.01 830.2 1351.58C829.384 1349.04 828.808 1347.98 827.272 1345.97C831.688 1345.39 834.568 1344.62 836.824 1343.33C841 1341.02 843.496 1336.46 843.496 1331.33C843.496 1326.72 841.432 1322.98 837.592 1320.67C836.104 1319.81 834.856 1319.42 832.744 1319.23ZM826.888 1319.28C824.392 1319.57 822.664 1320.24 820.696 1321.63C816.664 1324.51 814.168 1329.46 814.168 1334.59C814.168 1338.53 815.848 1341.65 817.96 1341.65C819.544 1341.65 821.176 1339.63 822.904 1335.5C824.728 1331.18 826.312 1324.7 826.888 1319.28Z" fill="black"/>
<path d="M795.016 1330.27H788.728C789.64 1332.91 789.928 1333.73 790.888 1335.5C793.288 1333.82 795.16 1332.14 796.168 1330.66L800.632 1333.82C800.104 1334.21 799.96 1334.35 799.432 1334.83C797.128 1336.85 795.016 1338.43 793.336 1339.44C796.168 1343.09 799.912 1345.82 803.944 1347.22C802.504 1348.99 801.496 1350.53 800.728 1352.35C795.496 1349.66 792.184 1346.74 788.92 1341.94C786.952 1339.06 784.984 1334.64 783.592 1330.27H782.296C781.528 1330.8 781.24 1331.04 780.328 1331.62C782.296 1333.63 783.64 1335.79 784.6 1338.62C785.608 1341.41 785.896 1343.04 785.896 1346.06C785.896 1352.06 783.88 1353.94 777.496 1353.94C776.92 1353.94 776.104 1353.89 775 1353.84C774.568 1351.44 774.28 1350.67 773.176 1348.75C774.904 1348.99 776.2 1349.14 777.256 1349.14C780.328 1349.14 780.856 1348.56 780.856 1345.3C780.856 1345.01 780.856 1344.82 780.76 1344.38C774.952 1348.03 768.664 1350.82 761.8 1352.78C761.032 1351.01 760.312 1349.86 759.016 1348.46C766.744 1346.74 774.136 1343.86 779.848 1340.3C779.56 1339.49 779.464 1339.25 779.176 1338.58C774.04 1341.41 768.232 1343.62 762.04 1345.15C761.08 1343.04 760.744 1342.46 759.688 1341.22C766.168 1339.97 771.928 1338.05 777.352 1335.31C776.92 1334.69 776.776 1334.5 776.248 1333.87C771.88 1335.94 767.08 1337.52 762.04 1338.48C761.224 1336.46 760.744 1335.65 759.736 1334.45C765.208 1333.68 770.584 1332.19 774.808 1330.27H768.616C766.696 1330.27 765.496 1330.32 763.912 1330.42C764.056 1329.41 764.104 1328.3 764.104 1326.19V1322.64C762.856 1323.46 762.376 1323.74 760.84 1324.56C760.216 1322.69 759.64 1321.63 758.488 1320.1C761.752 1318.7 764.776 1316.78 767.464 1314.48C769.864 1312.42 771.496 1310.59 772.696 1308.67L778.6 1309.63L776.776 1311.74H784.552C786.184 1311.74 788.632 1311.65 789.16 1311.55L791.848 1314C791.416 1314.48 791.224 1314.62 790.696 1315.25C789.4 1316.54 788.68 1317.26 787.24 1318.56H794.488C796.936 1318.56 798.232 1318.51 799.528 1318.37C799.384 1319.86 799.336 1320.82 799.336 1322.59V1326.19C799.336 1327.92 799.384 1329.17 799.528 1330.42C798.28 1330.32 797.032 1330.27 795.016 1330.27ZM769.864 1318.56H781.24C782.488 1317.46 783.256 1316.64 784.024 1315.68H773.128C771.928 1316.88 771.256 1317.46 769.864 1318.56ZM769.144 1325.86H778.888V1322.78H769.144V1325.86ZM783.832 1325.86H794.248V1322.78H783.832V1325.86Z" fill="black"/>
<path d="M720.184 1317.07V1314.38C720.184 1312.22 720.136 1311.17 719.896 1309.87H725.464C725.32 1311.17 725.224 1312.46 725.224 1314.38V1317.07H728.632C730.648 1317.07 731.8 1317.02 733.24 1316.78V1321.92C732.088 1321.82 731.464 1321.78 729.496 1321.78C729.16 1326.77 728.056 1331.62 726.232 1336.32C729.256 1340.16 729.64 1340.69 733.048 1345.49L729.256 1349.71C727.24 1346.26 726.52 1345.15 723.736 1341.41C721.048 1346.06 718.6 1349.09 714.184 1353.26C712.888 1351.15 712.12 1350.24 710.536 1348.8C714.952 1345.39 717.784 1341.98 720.376 1337.04C718.168 1334.26 715.528 1331.38 712.216 1328.21L715.72 1324.66C716.68 1325.62 716.68 1325.62 719.512 1328.54C719.896 1328.93 720.712 1329.84 722.536 1331.95C723.496 1328.83 724.168 1325.23 724.408 1321.78H715.528C713.752 1321.78 712.408 1321.82 711.064 1322.02V1316.78C712.504 1316.98 713.944 1317.07 715.816 1317.07H720.184ZM744.952 1324.37H738.856C736.792 1324.37 735.64 1324.42 734.296 1324.61V1319.33C735.592 1319.52 736.744 1319.57 738.856 1319.57H744.952V1315.78C744.952 1312.94 744.856 1311.41 744.616 1310.06H750.376C750.184 1311.55 750.088 1313.18 750.088 1315.78V1319.57H750.664C752.68 1319.57 753.976 1319.47 755.176 1319.28V1324.66C754.792 1324.61 754.792 1324.61 754.072 1324.51C753.592 1324.42 752.008 1324.37 750.712 1324.37H750.088V1347.55C750.088 1350.05 749.944 1350.86 749.224 1351.73C748.312 1352.88 746.584 1353.36 743.416 1353.36C741.448 1353.36 739.672 1353.31 737.752 1353.17C737.416 1350.77 737.08 1349.57 736.264 1347.84C737.992 1348.13 740.872 1348.42 742.072 1348.42C744.664 1348.42 744.952 1348.27 744.952 1347.26V1324.37ZM731.848 1329.7L736.168 1327.34C739.384 1331.71 740.728 1333.92 742.936 1338.43L738.568 1341.31C736.312 1336.03 734.728 1333.25 731.848 1329.7Z" fill="black"/>
<path d="M673.672 1351.15L667.864 1351.49C667.816 1350.62 667.768 1350.34 667.624 1349.23C666.712 1343.42 666.376 1339.73 666.376 1334.88C666.376 1328.69 666.952 1323.22 668.344 1316.11C668.872 1313.42 668.968 1312.94 669.064 1311.65L675.4 1312.32C674.248 1315.15 673.144 1320.53 672.376 1326.67C671.896 1330.27 671.704 1333.1 671.656 1337.28C671.656 1338.34 671.608 1338.72 671.56 1339.92C672.088 1338.24 672.184 1337.9 674.056 1333.58L677.896 1335.31C675.256 1340.88 673.624 1346.45 673.624 1349.86C673.624 1350.14 673.624 1350.53 673.672 1351.15ZM680.296 1322.4L680.392 1316.64C682.552 1317.22 685.096 1317.41 689.272 1317.41C694.6 1317.41 699.16 1316.98 702.328 1316.11L702.616 1321.92C702.232 1321.97 701.512 1322.06 699.208 1322.35C696.136 1322.74 692.488 1322.93 688.936 1322.93C685.432 1322.93 685.384 1322.93 680.296 1322.4ZM683.608 1330.32L688.312 1332.53C685.912 1335.31 684.904 1337.38 684.904 1339.44C684.904 1342.18 687.544 1343.62 692.536 1343.62C696.76 1343.62 700.936 1342.94 703.96 1341.79L704.44 1347.89C703.768 1347.94 703.576 1347.98 702.472 1348.18C698.632 1348.8 695.704 1349.09 692.536 1349.09C686.584 1349.09 682.744 1347.74 680.632 1344.91C679.72 1343.71 679.192 1341.94 679.192 1340.21C679.192 1337.09 680.632 1333.87 683.608 1330.32Z" fill="black"/>
<path d="M633.88 1316.69V1313.76C633.88 1312.18 633.784 1310.93 633.544 1309.78H639.736C639.544 1310.78 639.448 1312.03 639.448 1313.76V1316.69H652.648C655.336 1316.69 657.064 1316.59 658.696 1316.35V1322.16C657.208 1321.97 655.72 1321.87 652.84 1321.87H635.272C635.032 1325.47 635.032 1325.62 634.888 1327.06H648.184C650.68 1327.06 652.024 1327.01 653.128 1326.82C653.128 1327.06 653.128 1327.2 653.08 1327.3C652.984 1328.02 652.984 1328.59 652.888 1330.66C652.696 1337.86 652.072 1344.05 651.256 1347.5C650.152 1352.06 648.568 1353.26 643.768 1353.26C642.088 1353.26 640.984 1353.22 637.288 1352.93C637.096 1350.72 636.712 1349.14 635.896 1347.36C638.68 1347.79 640.888 1347.98 643.096 1347.98C645.208 1347.98 645.688 1347.46 646.312 1344.14C646.888 1341.26 647.176 1338.24 647.368 1332.1H634.12C632.104 1341.74 627.784 1347.89 618.712 1353.84C617.512 1351.73 616.6 1350.67 614.824 1349.28C619.048 1346.64 621.112 1344.96 623.416 1342.18C627.544 1337.23 629.176 1331.66 629.416 1321.87H621.544C619.144 1321.87 617.176 1321.97 615.544 1322.16V1316.35C617.272 1316.59 619.096 1316.69 621.544 1316.69H633.88Z" fill="black"/>
<path d="M592.744 1319.23C591.832 1326.77 590.152 1333.39 587.752 1338.82C585.016 1345.01 581.944 1347.84 578.008 1347.84C572.536 1347.84 568.6 1342.27 568.6 1334.54C568.6 1329.26 570.472 1324.32 573.88 1320.58C577.912 1316.16 583.576 1313.86 590.392 1313.86C601.912 1313.86 609.4 1320.86 609.4 1331.66C609.4 1339.97 605.08 1346.59 597.736 1349.57C595.432 1350.53 593.56 1351.01 590.2 1351.58C589.384 1349.04 588.808 1347.98 587.272 1345.97C591.688 1345.39 594.568 1344.62 596.824 1343.33C601 1341.02 603.496 1336.46 603.496 1331.33C603.496 1326.72 601.432 1322.98 597.592 1320.67C596.104 1319.81 594.856 1319.42 592.744 1319.23ZM586.888 1319.28C584.392 1319.57 582.664 1320.24 580.696 1321.63C576.664 1324.51 574.168 1329.46 574.168 1334.59C574.168 1338.53 575.848 1341.65 577.96 1341.65C579.544 1341.65 581.176 1339.63 582.904 1335.5C584.728 1331.18 586.312 1324.7 586.888 1319.28Z" fill="black"/>
<path d="M557.032 1321.87H554.488C553.24 1326.34 552.472 1328.3 550.744 1331.52C549.112 1334.54 547.336 1337.04 545.08 1339.63C550.36 1343.76 556.12 1346.35 563.848 1348.08C562.264 1349.95 561.592 1351.1 560.536 1353.7C552.376 1351.01 546.52 1347.89 541.192 1343.33C538.456 1345.63 535.192 1347.79 531.784 1349.57C528.856 1351.06 526.12 1352.16 521.56 1353.7C520.696 1351.63 519.88 1350.29 518.488 1348.56C527.08 1346.21 532.408 1343.71 537.352 1339.63C535.048 1337.09 533.32 1334.74 531.688 1331.95C529.864 1328.83 529 1326.77 527.368 1321.87H525.112C522.856 1321.87 520.984 1321.97 519.256 1322.16V1316.74C521.08 1316.98 522.712 1317.07 525.256 1317.07H538.024V1313.66C538.024 1312.22 537.928 1311.07 537.688 1309.97H543.784C543.544 1311.07 543.448 1312.22 543.448 1313.62V1317.07H556.84C559.432 1317.07 561.112 1316.98 562.888 1316.74V1322.16C561.16 1321.97 559.528 1321.87 557.032 1321.87ZM548.824 1321.87H532.888C534.088 1325.52 534.856 1327.25 536.536 1330.08C538.024 1332.48 539.32 1334.16 541.144 1336.08C542.824 1334.21 544.216 1332.29 545.512 1330.03C546.952 1327.44 547.672 1325.76 548.824 1321.87Z" fill="black"/>
<path d="M489.544 1319.42H500.824C497.608 1316.78 495.544 1315.49 490.84 1313.33L494.296 1309.39C499.576 1311.98 500.68 1312.61 504.616 1315.49L501.448 1319.42H508.648C511.288 1319.42 512.488 1319.38 514.024 1319.14V1324.51C512.536 1324.37 510.76 1324.27 508.648 1324.27H501.112V1332.62H507.304C509.32 1332.62 511.192 1332.53 512.536 1332.34V1337.62C511.048 1337.47 509.176 1337.38 507.304 1337.38H501.112V1347.31H509.32C511.528 1347.31 513.64 1347.22 515.032 1347.02V1352.4C513.496 1352.21 511.576 1352.11 509.32 1352.11H488.392C486.136 1352.11 484.12 1352.21 482.68 1352.4V1347.02C484.168 1347.22 486.328 1347.31 488.392 1347.31H495.736V1337.38H490.84C488.92 1337.38 487.048 1337.47 485.56 1337.62V1332.34C486.952 1332.53 488.728 1332.62 490.792 1332.62H495.736V1324.27H489.544C487.096 1324.27 485.896 1324.32 484.168 1324.51V1319.14C485.8 1319.33 487.192 1319.42 489.544 1319.42ZM472.792 1313.71L476.056 1309.97C479.656 1312.08 481.528 1313.47 484.552 1316.26L481.336 1320.53C478.312 1317.31 476.776 1316.06 472.792 1313.71ZM470.872 1325.66L473.944 1321.68C477.832 1323.94 479.464 1325.14 482.632 1327.92L479.752 1332.34C476.248 1328.98 474.424 1327.63 470.872 1325.66ZM478.696 1335.02L482.968 1338.05C480.76 1344 479.512 1346.93 477.64 1350.34C477.16 1351.2 476.872 1351.68 476.296 1352.64C475.912 1353.26 475.912 1353.26 475.624 1353.79L471.064 1349.81C473.32 1347.36 476.104 1342.03 478.696 1335.02Z" fill="black"/>
<path d="M430.552 1319.57L430.984 1313.86C434.68 1314.72 438.952 1315.06 445.384 1315.06C451.48 1315.06 454.888 1314.82 458.056 1314.14L458.248 1319.57C455.368 1320.82 449.464 1324.51 445.432 1327.49L441.256 1324.18C444.28 1322.26 444.808 1321.92 446.008 1321.25C446.488 1320.96 446.632 1320.86 447.256 1320.48C447.64 1320.29 447.688 1320.29 448.312 1319.9C446.2 1320.19 444.136 1320.29 441.112 1320.29C438.664 1320.29 434.68 1320.05 432.328 1319.71C431.752 1319.66 431.416 1319.62 431.224 1319.62C431.128 1319.62 430.888 1319.57 430.552 1319.57ZM434.104 1330.42L438.28 1333.58C435.256 1336.13 433.912 1338.14 433.912 1340.21C433.912 1343.33 437.416 1344.67 445.528 1344.67C451.24 1344.67 457.528 1343.81 460.6 1342.61L461.128 1349.18C460.264 1349.23 460.12 1349.23 459.016 1349.38C453.256 1350.24 450.184 1350.48 446.056 1350.48C440.824 1350.48 436.6 1349.95 434.056 1348.9C429.928 1347.26 427.912 1344.62 427.912 1340.88C427.912 1337.18 429.784 1334.02 434.104 1330.42ZM467.08 1328.45L463.768 1330.32C462.328 1327.68 460.744 1325.42 458.872 1323.36L462.088 1321.68C464.248 1323.89 465.592 1325.71 467.08 1328.45ZM452.968 1326.19L456.328 1324.51C458.44 1326.77 459.736 1328.59 461.368 1331.57L458.008 1333.34C456.424 1330.42 455.08 1328.5 452.968 1326.19Z" fill="black"/>
<path d="M378.28 1320.96L378.376 1315.49C380.344 1315.92 383.416 1316.11 389.512 1316.11C390.808 1313.23 391.24 1311.79 391.432 1310.16L397.72 1310.83C397.432 1311.31 397.432 1311.31 395.8 1315.15C395.56 1315.68 395.464 1315.82 395.368 1316.02C395.752 1315.97 395.752 1315.97 398.392 1315.82C403.96 1315.49 408.328 1314.96 410.968 1314.19L411.304 1319.66C409.96 1319.76 409.96 1319.76 407.512 1320.05C404.008 1320.48 397.912 1320.86 393.064 1321.01C391.672 1323.74 390.328 1325.66 388.648 1327.39L388.696 1327.49C389.032 1327.25 389.032 1327.25 389.656 1326.77C391.432 1325.42 393.976 1324.61 396.424 1324.61C400.168 1324.61 402.52 1326.38 403.288 1329.7C406.984 1328.35 409.432 1327.49 410.632 1327.1C413.224 1326.19 413.416 1326.14 414.184 1325.66L416.44 1331.18C415.096 1331.38 413.656 1331.76 411.112 1332.48C410.44 1332.67 408.04 1333.49 403.912 1334.93V1335.46C403.96 1336.7 403.96 1336.7 403.96 1337.38C403.96 1337.86 403.96 1338.67 403.96 1339.3C403.912 1340.11 403.912 1340.54 403.912 1340.88C403.912 1341.94 403.96 1342.61 404.056 1343.42L398.488 1343.57C398.68 1342.7 398.776 1340.26 398.776 1338C398.776 1337.33 398.776 1337.33 398.776 1336.85C396.424 1337.95 395.176 1338.62 394.168 1339.34C392.488 1340.59 391.672 1341.89 391.672 1343.28C391.672 1345.78 393.976 1346.78 399.784 1346.78C405.544 1346.78 410.488 1346.06 413.896 1344.77L414.376 1350.96C413.56 1350.96 413.32 1351.01 412.168 1351.15C408.712 1351.68 404.104 1352.02 399.88 1352.02C394.792 1352.02 391.624 1351.44 389.176 1350C386.968 1348.75 385.672 1346.45 385.672 1343.81C385.672 1341.84 386.248 1340.3 387.784 1338.48C389.944 1335.79 392.68 1333.97 398.104 1331.71C397.864 1329.94 396.904 1329.12 395.176 1329.12C392.392 1329.12 389.032 1330.8 385.336 1334.06C383.32 1335.74 382.216 1336.94 381.16 1338.43L376.792 1334.11C378.04 1333.15 379.432 1331.81 381.112 1329.84C382.984 1327.63 385.912 1323.46 386.872 1321.63C387.064 1321.25 387.064 1321.25 387.256 1321.01C387.064 1321.01 386.44 1321.06 386.44 1321.06C385.672 1321.06 381.448 1320.96 380.392 1320.96C379.48 1320.91 379.48 1320.91 379.048 1320.91C378.904 1320.91 378.616 1320.91 378.28 1320.96Z" fill="black"/>
<path d="M346.024 1335.89V1333.78H334.648C332.92 1333.78 331.528 1333.82 330.232 1333.97V1329.79C331.384 1329.94 332.632 1329.98 334.744 1329.98H346.024V1328.16H335.848C334.12 1328.16 332.92 1328.21 331.816 1328.3C331.912 1327.3 331.96 1326.29 331.96 1325.09V1321.92C331.96 1320.58 331.912 1319.71 331.816 1318.56C333.064 1318.66 334.072 1318.7 335.896 1318.7H346.024V1316.88H332.872C330.52 1316.88 328.936 1316.98 327.256 1317.17V1312.42C328.744 1312.61 330.376 1312.7 333.16 1312.7H346.024C345.976 1311.02 345.928 1310.5 345.736 1309.44H351.544C351.304 1310.5 351.256 1310.98 351.208 1312.7H364.696C367.48 1312.7 369.064 1312.61 370.6 1312.42V1317.17C368.968 1316.98 367.288 1316.88 364.984 1316.88H351.208V1318.7H362.056C363.88 1318.7 364.936 1318.66 366.088 1318.56C365.992 1319.62 365.944 1320.43 365.944 1321.92V1325.09C365.944 1326.53 365.992 1327.25 366.088 1328.3C365.032 1328.21 363.784 1328.16 362.248 1328.16H351.208V1329.98H361.96C364.792 1329.98 365.752 1329.94 367.096 1329.84C366.952 1331.04 366.952 1331.71 366.952 1334.21V1335.89C369.016 1335.89 370.168 1335.79 371.128 1335.65V1340.21C369.976 1340.06 369.064 1339.97 366.952 1339.97V1342.75C366.952 1345.25 367 1346.54 367.192 1347.94H361.816V1346.06H351.208V1348.75C351.208 1353.07 350.008 1353.98 344.152 1353.98C343 1353.98 341.08 1353.89 339.544 1353.79C339.256 1351.87 338.968 1350.91 338.056 1349.04C340.648 1349.33 342.424 1349.47 344.152 1349.47C345.64 1349.47 346.024 1349.23 346.024 1348.37V1346.06H334.744C332.584 1346.06 331.432 1346.11 329.992 1346.3V1341.84C331.288 1341.98 332.104 1342.03 334.552 1342.03H346.024V1339.97H332.248C329.512 1339.97 328.216 1340.02 326.968 1340.21V1335.65C328.216 1335.84 329.416 1335.89 332.152 1335.89H346.024ZM351.208 1335.89H361.816V1333.78H351.208V1335.89ZM351.208 1339.97V1342.03H361.816V1339.97H351.208ZM346.024 1322.45H337.048V1324.42H346.024V1322.45ZM351.208 1322.45V1324.42H360.856V1322.45H351.208Z" fill="black"/>
<path d="M296.824 1339.49H291.64V1347.65C296.248 1346.93 296.632 1346.88 301 1345.92V1350.53C295.912 1351.73 292.168 1352.45 283.576 1353.89C282.952 1354.03 282.328 1354.13 281.368 1354.37L280.456 1348.85H280.936C281.032 1348.85 281.128 1348.85 281.176 1348.85C281.8 1348.85 284.68 1348.61 286.6 1348.37V1326.72C286.6 1326.14 286.6 1325.81 286.552 1324.56C284.296 1325.71 283.24 1326.19 280.552 1327.3C279.688 1324.8 279.448 1324.27 278.2 1322.06C286.504 1319.42 293.56 1314.96 297.784 1309.73H303.448C305.896 1312.61 308.392 1314.72 311.992 1316.88C315.544 1319.04 319.528 1320.77 323.656 1321.92C322.648 1323.55 321.928 1325.14 321.256 1327.25C318.664 1326.29 317.032 1325.52 314.92 1324.42C314.92 1325.18 314.92 1325.47 314.92 1326.14V1336.13C314.92 1337.09 314.92 1337.52 314.968 1338.29C315.352 1337.86 315.448 1337.71 315.88 1337.23L320.728 1339.82C317.704 1342.51 315.064 1344.53 312.184 1346.45C315.592 1347.74 318.616 1348.42 323.08 1348.9C321.88 1351.01 321.256 1352.4 320.632 1354.22C313.096 1352.74 308.056 1350.67 303.832 1347.31C300.664 1344.82 298.792 1342.7 296.824 1339.49ZM310.744 1339.49H302.536C303.88 1341.36 305.416 1342.8 307.528 1344.14C310.072 1342.56 311.512 1341.5 313.672 1339.54C312.616 1339.49 311.8 1339.49 310.744 1339.49ZM291.208 1321.78H298.168V1320.38C298.168 1319.04 298.12 1318.27 297.928 1317.5H303.208C303.064 1318.37 303.016 1319.04 303.016 1320.38V1321.78H310.408C306.328 1319.23 303.4 1316.78 300.664 1313.76C297.976 1316.83 295.096 1319.28 291.208 1321.78ZM291.64 1326.1V1328.5H309.88V1326.1H291.64ZM291.64 1332.58V1335.26H309.88V1332.58H291.64Z" fill="black"/>
<path d="M248.824 1335.31L248.872 1344.77C248.872 1346.74 248.776 1347.89 248.488 1348.85C248.056 1350.53 246.328 1351.63 244.072 1351.63C241.048 1351.63 237.4 1350.29 235 1348.22C233.272 1346.74 232.36 1344.86 232.36 1342.8C232.36 1340.54 233.848 1338 236.488 1335.7C238.216 1334.21 240.328 1332.96 243.496 1331.62L243.448 1324.22C243.064 1324.22 243.064 1324.22 241.48 1324.32C240.76 1324.37 240.088 1324.37 238.888 1324.37C238.168 1324.37 236.824 1324.32 236.248 1324.32C235.624 1324.27 235.192 1324.27 235.048 1324.27C234.856 1324.27 234.472 1324.27 234.04 1324.32L233.992 1318.94C235.336 1319.23 237.256 1319.38 239.8 1319.38C240.28 1319.38 240.808 1319.38 241.48 1319.33C242.632 1319.28 242.872 1319.28 243.4 1319.28V1316.11C243.4 1313.38 243.352 1312.13 243.112 1310.59H249.112C248.872 1312.13 248.824 1313.14 248.824 1315.82V1318.9C252.424 1318.46 255.64 1317.84 258.088 1317.07L258.28 1322.45C257.416 1322.59 256.504 1322.74 253.192 1323.31C251.608 1323.6 250.648 1323.74 248.824 1323.94V1330.18C252.088 1329.22 255.112 1328.83 258.616 1328.83C266.632 1328.83 272.344 1333.73 272.344 1340.54C272.344 1346.78 267.688 1351.49 261.448 1351.49C257.56 1351.49 254.824 1349.62 253.576 1346.16C252.952 1344.53 252.76 1342.94 252.76 1340.02C255.208 1339.34 256.024 1339.01 258.088 1337.9C257.992 1338.82 257.992 1339.25 257.992 1340.02C257.992 1342.03 258.184 1343.33 258.664 1344.24C259.192 1345.25 260.344 1345.87 261.688 1345.87C264.52 1345.87 266.536 1343.62 266.536 1340.54C266.536 1336.42 263.176 1333.73 258.04 1333.73C255.16 1333.73 252.232 1334.26 248.824 1335.31ZM243.448 1344.05V1337.04C239.848 1338.96 237.736 1341.07 237.736 1342.8C237.736 1343.62 238.216 1344.34 239.32 1345.01C240.28 1345.68 241.48 1346.06 242.392 1346.06C243.208 1346.06 243.448 1345.63 243.448 1344.05ZM274.456 1323.79L270.04 1327.34C267.64 1323.55 264.136 1319.76 260.44 1316.98L264.952 1313.95C269.128 1317.17 271.912 1320.05 274.456 1323.79Z" fill="black"/>
<path d="M874.119 1207.82H864.327C864.735 1204.89 864.871 1202.78 864.871 1198.98V1177.62C864.871 1173.88 864.735 1171.57 864.327 1168.78H873.575V1172.39C873.575 1173.41 873.575 1173.61 873.439 1175.31C877.587 1170.01 881.191 1168.1 887.311 1168.1C892.547 1168.1 896.423 1169.8 898.871 1173.14C900.503 1175.38 901.183 1178.1 901.183 1182.66V1198.98C901.183 1202.72 901.319 1205.3 901.727 1207.82H891.867C892.207 1204.76 892.343 1202.44 892.343 1198.98V1183.88C892.343 1181.02 892.003 1179.19 891.187 1177.9C890.099 1176.13 888.059 1175.11 885.475 1175.11C880.579 1175.11 876.567 1178.51 873.575 1185.24V1198.98C873.575 1202.31 873.711 1204.89 874.119 1207.82Z" fill="black"/>
<path d="M845.866 1153.69H855.862V1162.32H845.866V1153.69ZM845.866 1168.78H855.794C855.454 1171.3 855.318 1173.54 855.318 1177.69V1198.91C855.318 1202.65 855.454 1204.96 855.794 1207.82H845.866C846.274 1204.76 846.41 1202.38 846.41 1198.98V1177.62C846.41 1173.88 846.274 1171.57 845.866 1168.78Z" fill="black"/>
<path d="M839.154 1190.54H809.573C809.913 1194.28 810.526 1196.19 812.09 1198.16C814.062 1200.61 817.122 1201.97 820.59 1201.97C823.922 1201.97 826.778 1200.74 828.75 1198.57C829.566 1197.62 830.041 1196.87 830.721 1195.03L838.746 1197.62C837.182 1200.88 836.298 1202.17 834.598 1203.87C831.062 1207.34 826.302 1209.11 820.59 1209.11C808.554 1209.11 800.938 1201.08 800.938 1188.37C800.938 1175.79 808.486 1167.56 820.114 1167.56C828.07 1167.56 834.326 1171.5 837.046 1178.3C838.338 1181.57 838.814 1184.02 839.018 1188.64C839.018 1188.78 839.018 1188.98 839.154 1190.54ZM809.778 1183.81H830.314C829.838 1180.82 829.022 1178.98 827.322 1177.28C825.486 1175.45 823.174 1174.56 819.978 1174.56C814.674 1174.56 810.798 1178.1 809.778 1183.81Z" fill="black"/>
<path d="M784.108 1153.69H793.968C793.628 1156.34 793.492 1158.52 793.492 1162.6V1198.98C793.492 1202.58 793.628 1204.82 793.968 1207.82H784.108C784.448 1204.89 784.584 1202.92 784.584 1198.98V1162.53C784.584 1158.45 784.448 1156.27 784.108 1153.69Z" fill="black"/>
<path d="M745.008 1168.78V1172.12C745.008 1172.86 745.008 1173.61 744.94 1174.5C748.68 1169.74 752.692 1167.83 758.812 1167.83C764.252 1167.83 768.604 1169.46 771.732 1172.59C775.336 1176.26 777.104 1181.36 777.104 1188.23C777.104 1200.74 770.236 1208.29 758.676 1208.29C752.692 1208.29 748.204 1206.18 744.94 1201.76C744.94 1202.58 744.94 1202.58 745.008 1203.94C745.076 1204.42 745.076 1205.64 745.076 1206.86V1212.03C745.076 1216.04 745.212 1218.22 745.552 1221.08H735.964C736.304 1217.88 736.44 1215.57 736.44 1212.1V1177.9C736.44 1173.95 736.304 1171.71 735.964 1168.78H745.008ZM768.264 1188.1C768.264 1180.07 764.048 1175.11 757.18 1175.11C750.448 1175.11 745.348 1180.68 745.348 1187.96C745.348 1195.71 750.38 1201.15 757.452 1201.15C764.116 1201.15 768.264 1196.12 768.264 1188.1Z" fill="black"/>
<path d="M683.609 1205.1L670.893 1177.22C667.901 1170.48 667.833 1170.28 667.017 1168.78H677.353C677.693 1170.76 678.713 1173.95 679.937 1176.74L688.233 1196.05L695.781 1176.81C697.413 1172.66 697.957 1170.96 698.365 1168.78H708.497C708.089 1169.67 706.865 1172.46 704.825 1177.22L689.321 1213.6C687.145 1218.76 683.133 1221.14 676.809 1221.14C674.769 1221.14 672.797 1220.94 669.669 1220.33L671.233 1212.58C673.137 1213.39 674.429 1213.73 675.993 1213.73C678.373 1213.73 680.345 1212.44 681.297 1210.33L683.609 1205.1Z" fill="black"/>
<path d="M631.652 1207.82H622.608C622.948 1204.82 623.084 1202.65 623.084 1198.64V1162.8C623.084 1159.33 622.948 1156.95 622.608 1153.69H632.196C631.856 1156.54 631.72 1158.79 631.72 1162.87V1169.67C631.72 1170.76 631.652 1172.46 631.584 1174.77C635.12 1170.01 639.336 1167.9 645.592 1167.9C657.016 1167.9 663.748 1175.31 663.748 1187.96C663.748 1194.62 661.844 1200.06 658.172 1203.87C654.976 1207.14 650.624 1208.77 645.116 1208.77C638.86 1208.77 634.984 1206.8 631.584 1202.04C631.652 1202.92 631.652 1203.67 631.652 1204.48V1207.82ZM654.908 1187.96C654.908 1180.14 650.828 1175.04 644.572 1175.04C640.764 1175.04 637.568 1176.33 635.324 1178.78C633.284 1181.02 631.992 1184.7 631.992 1188.23C631.992 1192.52 633.76 1196.8 636.48 1198.98C638.452 1200.54 641.104 1201.49 643.62 1201.49C650.488 1201.49 654.908 1196.19 654.908 1187.96Z" fill="black"/>
<path d="M592.649 1199.25V1208.29C590.201 1207.95 588.025 1207.82 583.877 1207.82H562.661C558.581 1207.82 556.745 1207.88 554.025 1208.02C554.433 1205.3 554.569 1203.06 554.569 1199.04V1162.26C554.569 1158.72 554.433 1156.68 554.025 1153.48C556.745 1153.62 558.513 1153.69 562.661 1153.69H583.197C586.597 1153.69 588.841 1153.55 591.969 1153.21V1162.19C589.385 1161.85 587.209 1161.71 583.197 1161.71H563.613V1175.72H580.137C583.673 1175.72 585.985 1175.58 588.977 1175.24V1184.15C586.189 1183.74 584.353 1183.68 580.137 1183.68H563.545V1199.72H583.945C587.753 1199.72 589.725 1199.59 592.649 1199.25Z" fill="black"/>
<path d="M534.104 1153.69H544.44C544.032 1156.27 543.896 1158.38 543.896 1162.46V1199.04C543.896 1203.06 544.032 1205.23 544.44 1207.82H534.104C534.512 1205.23 534.648 1203.06 534.648 1199.04V1162.46C534.648 1158.24 534.512 1156.41 534.104 1153.69Z" fill="black"/>
<path d="M527.274 1207.82H516.054C515.918 1206.18 514.762 1202.72 512.518 1196.94C508.846 1187.55 506.466 1185.04 501.23 1185.04H491.098V1198.91C491.098 1202.99 491.234 1205.16 491.642 1207.82H481.51C481.918 1204.96 482.054 1203.12 482.054 1198.98V1162.32C482.054 1158.72 481.918 1156.68 481.51 1153.48C484.366 1153.62 486.474 1153.69 490.214 1153.69H506.534C516.87 1153.69 522.786 1158.86 522.786 1167.83C522.786 1172.18 521.63 1175.58 519.318 1177.96C517.414 1179.94 515.646 1180.82 511.77 1181.91C516.054 1183.27 517.346 1185.17 524.078 1201.08C524.622 1202.31 526.322 1205.98 527.274 1207.82ZM491.098 1177.28H504.766C507.282 1177.28 509.662 1176.4 511.226 1174.84C512.654 1173.41 513.402 1171.44 513.402 1168.85C513.402 1163.96 510.614 1161.44 505.038 1161.44H491.098V1177.28Z" fill="black"/>
<path d="M473.583 1199.25V1208.29C471.135 1207.95 468.959 1207.82 464.811 1207.82H443.595C439.515 1207.82 437.679 1207.88 434.959 1208.02C435.367 1205.3 435.503 1203.06 435.503 1199.04V1162.26C435.503 1158.72 435.367 1156.68 434.959 1153.48C437.679 1153.62 439.447 1153.69 443.595 1153.69H464.131C467.531 1153.69 469.775 1153.55 472.903 1153.21V1162.19C470.319 1161.85 468.143 1161.71 464.131 1161.71H444.547V1175.72H461.071C464.607 1175.72 466.919 1175.58 469.911 1175.24V1184.15C467.123 1183.74 465.287 1183.68 461.071 1183.68H444.479V1199.72H464.879C468.687 1199.72 470.659 1199.59 473.583 1199.25Z" fill="black"/>
<path d="M384.581 1191.97L394.373 1190.95C394.645 1194.01 395.053 1195.37 396.277 1196.94C398.249 1199.52 401.785 1200.95 406.205 1200.95C413.005 1200.95 417.085 1197.89 417.085 1192.79C417.085 1190 415.793 1187.69 413.685 1186.53C411.645 1185.44 411.237 1185.38 401.853 1183.2C396.753 1182.04 394.033 1180.96 391.585 1179.05C388.117 1176.33 386.349 1172.59 386.349 1168.04C386.349 1158.58 393.965 1152.46 405.661 1152.46C413.413 1152.46 419.261 1154.84 422.593 1159.33C424.293 1161.58 425.109 1163.62 425.925 1167.22L416.201 1168.38C415.793 1166.06 415.317 1164.91 414.161 1163.55C412.393 1161.44 409.401 1160.28 405.661 1160.28C399.745 1160.28 395.733 1163.28 395.733 1167.7C395.733 1170.55 397.229 1172.52 400.357 1173.88C401.853 1174.5 402.397 1174.63 409.945 1176.33C415.317 1177.49 418.581 1178.78 421.029 1180.48C424.905 1183.34 426.673 1187.08 426.673 1192.18C426.673 1197 425.177 1200.95 422.389 1203.74C418.785 1207.2 413.413 1208.9 406.137 1208.9C400.561 1208.9 395.121 1207.54 391.857 1205.37C389.137 1203.53 387.165 1200.95 385.873 1197.62C385.261 1196.05 384.989 1194.76 384.581 1191.97Z" fill="black"/>
<path d="M335.972 1191.97L345.764 1190.95C346.036 1194.01 346.444 1195.37 347.668 1196.94C349.64 1199.52 353.176 1200.95 357.596 1200.95C364.396 1200.95 368.476 1197.89 368.476 1192.79C368.476 1190 367.184 1187.69 365.076 1186.53C363.036 1185.44 362.628 1185.38 353.244 1183.2C348.144 1182.04 345.424 1180.96 342.976 1179.05C339.508 1176.33 337.74 1172.59 337.74 1168.04C337.74 1158.58 345.356 1152.46 357.052 1152.46C364.804 1152.46 370.652 1154.84 373.984 1159.33C375.684 1161.58 376.5 1163.62 377.316 1167.22L367.592 1168.38C367.184 1166.06 366.708 1164.91 365.552 1163.55C363.784 1161.44 360.792 1160.28 357.052 1160.28C351.136 1160.28 347.124 1163.28 347.124 1167.7C347.124 1170.55 348.62 1172.52 351.748 1173.88C353.244 1174.5 353.788 1174.63 361.336 1176.33C366.708 1177.49 369.972 1178.78 372.42 1180.48C376.296 1183.34 378.064 1187.08 378.064 1192.18C378.064 1197 376.568 1200.95 373.78 1203.74C370.176 1207.2 364.804 1208.9 357.528 1208.9C351.952 1208.9 346.512 1207.54 343.248 1205.37C340.528 1203.53 338.556 1200.95 337.264 1197.62C336.652 1196.05 336.38 1194.76 335.972 1191.97Z" fill="black"/>
<path d="M332.19 1207.82H321.038C320.63 1205.57 319.882 1202.65 319.134 1200.68L316.414 1193.26H294.654L291.934 1200.68C290.71 1203.94 290.438 1204.96 289.894 1207.82H278.742C279.762 1205.98 281.122 1202.92 282.346 1199.79L297.306 1160.56C298.598 1157.16 299.142 1155.46 299.482 1153.69H311.314C311.654 1155.32 312.062 1156.41 313.626 1160.56L328.722 1199.79C330.422 1204.14 331.238 1206.05 332.19 1207.82ZM313.966 1185.44L306.69 1165.32C306.418 1164.57 306.214 1163.75 305.466 1161.51C304.378 1164.7 304.378 1164.7 304.174 1165.32L297.102 1185.44H313.966Z" fill="black"/>
<path d="M275.993 1207.82H264.773C264.637 1206.18 263.481 1202.72 261.237 1196.94C257.565 1187.55 255.185 1185.04 249.949 1185.04H239.817V1198.91C239.817 1202.99 239.953 1205.16 240.361 1207.82H230.229C230.637 1204.96 230.773 1203.12 230.773 1198.98V1162.32C230.773 1158.72 230.637 1156.68 230.229 1153.48C233.085 1153.62 235.193 1153.69 238.933 1153.69H255.253C265.589 1153.69 271.505 1158.86 271.505 1167.83C271.505 1172.18 270.349 1175.58 268.037 1177.96C266.133 1179.94 264.365 1180.82 260.489 1181.91C264.773 1183.27 266.065 1185.17 272.797 1201.08C273.341 1202.31 275.041 1205.98 275.993 1207.82ZM239.817 1177.28H253.485C256.001 1177.28 258.381 1176.4 259.945 1174.84C261.373 1173.41 262.121 1171.44 262.121 1168.85C262.121 1163.96 259.333 1161.44 253.757 1161.44H239.817V1177.28Z" fill="black"/>
<path d="M204.395 1207.82H187.667C183.723 1207.82 181.751 1207.88 178.963 1208.02C179.439 1205.16 179.575 1203.19 179.575 1198.84V1161.92C179.575 1158.79 179.371 1156.34 179.031 1153.55C181.887 1153.69 182.975 1153.69 187.599 1153.69H203.647C214.187 1153.69 220.103 1158.45 220.103 1166.95C220.103 1171.1 218.879 1174.16 216.295 1176.54C214.799 1177.96 213.575 1178.58 210.923 1179.39C214.391 1180.14 215.955 1180.82 217.791 1182.52C220.579 1185.1 222.007 1188.5 222.007 1192.92C222.007 1202.44 215.683 1207.82 204.395 1207.82ZM188.551 1175.86H202.695C207.863 1175.86 210.923 1173.07 210.923 1168.44C210.923 1166.27 210.243 1164.43 209.155 1163.41C207.659 1162.05 205.347 1161.3 202.627 1161.3H188.551V1175.86ZM188.551 1183.4V1200.13H203.171C209.223 1200.13 212.623 1197.14 212.623 1191.63C212.623 1188.91 211.943 1187.08 210.447 1185.72C208.747 1184.22 206.163 1183.4 203.035 1183.4H188.551Z" fill="black"/>
</svg>
