<svg width="1080" height="1920" viewBox="0 0 1080 1920" fill="none" xmlns="http://www.w3.org/2000/svg">
<path d="M1080 1920L1080 0L0 0L0 1920H1080Z" fill="#A5D4AD"/>
<path d="M1020 983.72V95C1020 75.67 1004.33 60 985 60H95.58C75.93 60 60 75.93 60 95.58V983.71C60 984.03 60.25 984.28 60.57 984.28C80.03 984.59 95.71 1000.46 95.71 1019.99C95.71 1039.52 80.03 1055.39 60.57 1055.7C60.25 1055.7 60 1055.96 60 1056.27V1824.99C60 1844.32 75.67 1859.99 95 1859.99H985C1004.33 1859.99 1020 1844.32 1020 1824.99V1056.27C1020 1055.95 1019.75 1055.7 1019.43 1055.7C999.97 1055.39 984.29 1039.52 984.29 1019.99C984.29 1000.46 999.97 984.59 1019.43 984.28C1019.75 984.28 1020 984.02 1020 983.71V983.72Z" fill="white"/>
<path d="M60.57 1055.71C60.25 1055.71 60 1055.97 60 1056.28V1825C60 1844.33 75.67 1860 95 1860H985C1004.33 1860 1020 1844.33 1020 1825V1056.28C1020 1055.96 1019.75 1055.71 1019.43 1055.71C999.97 1055.4 984.29 1039.53 984.29 1020H95.71C95.71 1039.53 80.03 1055.4 60.57 1055.71Z" fill="#E5F2E6"/>
<path d="M121 1020H160.9" stroke="black" stroke-width="6" stroke-miterlimit="10"/>
<path d="M187.512 1020H227.412" stroke="black" stroke-width="6" stroke-miterlimit="10"/>
<path d="M254.02 1020H293.92" stroke="black" stroke-width="6" stroke-miterlimit="10"/>
<path d="M320.52 1020H360.43" stroke="black" stroke-width="6" stroke-miterlimit="10"/>
<path d="M387.031 1020H426.941" stroke="black" stroke-width="6" stroke-miterlimit="10"/>
<path d="M453.539 1020H493.439" stroke="black" stroke-width="6" stroke-miterlimit="10"/>
<path d="M520.051 1020H559.951" stroke="black" stroke-width="6" stroke-miterlimit="10"/>
<path d="M586.559 1020H626.459" stroke="black" stroke-width="6" stroke-miterlimit="10"/>
<path d="M653.059 1020H692.969" stroke="black" stroke-width="6" stroke-miterlimit="10"/>
<path d="M719.57 1020H759.48" stroke="black" stroke-width="6" stroke-miterlimit="10"/>
<path d="M786.078 1020H825.978" stroke="black" stroke-width="6" stroke-miterlimit="10"/>
<path d="M852.59 1020H892.49" stroke="black" stroke-width="6" stroke-miterlimit="10"/>
<path d="M919.102 1020H959.002" stroke="black" stroke-width="6" stroke-miterlimit="10"/>
<path d="M1020 984.29V95C1020 75.67 1004.33 60 985 60H95C75.67 60 60 75.67 60 95V984.29C79.72 984.29 95.71 1000.28 95.71 1020C95.71 1039.72 79.72 1055.71 60 1055.71V1825C60 1844.33 75.67 1860 95 1860H985C1004.33 1860 1020 1844.33 1020 1825V1055.71C1000.28 1055.71 984.29 1039.72 984.29 1020C984.29 1000.28 1000.28 984.29 1020 984.29Z" stroke="black" stroke-width="6" stroke-miterlimit="10"/>
<path d="M912.642 525.66C908.772 525.66 905.532 522.64 905.312 518.73C900.582 435.62 868.782 358.85 813.362 296.74C810.662 293.71 810.922 289.06 813.952 286.36C816.982 283.66 821.622 283.92 824.332 286.95C881.992 351.57 915.062 431.43 919.992 517.89C920.222 521.94 917.122 525.42 913.072 525.65C912.932 525.65 912.792 525.66 912.652 525.66H912.642Z" fill="black"/>
<path d="M818.842 795.509C817.102 795.509 815.352 794.889 813.952 793.639C810.922 790.939 810.662 786.289 813.362 783.259C868.782 721.149 900.582 644.379 905.312 561.269C905.542 557.219 909.022 554.109 913.072 554.349C917.122 554.579 920.222 558.049 919.992 562.109C915.062 648.579 881.992 728.439 824.332 793.049C822.882 794.679 820.862 795.509 818.842 795.509Z" fill="black"/>
<path d="M167.352 525.66C167.212 525.66 167.072 525.66 166.932 525.65C162.882 525.42 159.782 521.95 160.012 517.89C164.942 431.42 198.012 351.56 255.672 286.95C258.372 283.92 263.022 283.66 266.052 286.36C269.082 289.06 269.342 293.71 266.642 296.74C211.222 358.85 179.422 435.61 174.692 518.73C174.472 522.64 171.232 525.66 167.362 525.66H167.352Z" fill="black"/>
<path d="M261.162 795.509C259.142 795.509 257.122 794.679 255.672 793.049C198.012 728.429 164.942 648.569 160.012 562.109C159.782 558.059 162.882 554.579 166.932 554.349C170.982 554.109 174.462 557.219 174.692 561.269C179.422 644.389 211.222 721.149 266.642 783.259C269.342 786.289 269.082 790.939 266.052 793.639C264.652 794.889 262.902 795.509 261.162 795.509Z" fill="black"/>
<path d="M788.164 268.509C786.424 268.509 784.674 267.889 783.274 266.639C721.164 211.219 644.394 179.419 561.284 174.689C557.234 174.459 554.134 170.989 554.364 166.929C554.594 162.879 558.034 159.789 562.124 160.009C648.594 164.939 728.454 198.009 793.064 255.669C796.094 258.369 796.354 263.019 793.654 266.049C792.204 267.679 790.184 268.509 788.164 268.509Z" fill="black"/>
<path d="M291.844 268.51C289.824 268.51 287.804 267.68 286.354 266.05C283.654 263.02 283.914 258.37 286.944 255.67C351.564 198.01 431.424 164.94 517.884 160.01C521.934 159.78 525.414 162.88 525.644 166.93C525.874 170.98 522.774 174.46 518.724 174.69C435.614 179.42 358.844 211.22 296.734 266.64C295.334 267.89 293.584 268.51 291.844 268.51Z" fill="black"/>
<path d="M561.682 920C557.812 920 554.572 916.98 554.352 913.07C554.122 909.02 557.222 905.54 561.272 905.31C644.392 900.58 721.152 868.78 783.262 813.36C786.292 810.66 790.942 810.92 793.642 813.95C796.342 816.98 796.082 821.63 793.052 824.33C728.432 881.99 648.572 915.06 562.112 919.99C561.972 919.99 561.832 920 561.692 920H561.682Z" fill="black"/>
<path d="M518.312 920C518.172 920 518.032 920 517.892 919.99C431.422 915.06 351.562 881.99 286.952 824.33C283.922 821.63 283.662 816.98 286.362 813.95C289.062 810.92 293.712 810.66 296.742 813.36C358.852 868.78 435.622 900.58 518.732 905.31C522.782 905.54 525.882 909.01 525.652 913.07C525.432 916.98 522.192 920 518.322 920H518.312Z" fill="black"/>
<path d="M875.37 526.191C872.36 526.191 869.84 523.841 869.67 520.801C865.4 445.791 836.7 376.521 786.69 320.461C784.59 318.101 784.79 314.491 787.15 312.391C789.5 310.291 793.12 310.491 795.22 312.851C846.97 370.851 876.67 442.541 881.09 520.151C881.27 523.301 878.86 526.001 875.71 526.181C875.6 526.181 875.49 526.181 875.38 526.181L875.37 526.191Z" fill="black"/>
<path d="M790.95 769.062C789.59 769.062 788.24 768.582 787.15 767.612C784.79 765.512 784.59 761.892 786.69 759.542C836.7 703.492 865.4 634.212 869.67 559.202C869.85 556.052 872.54 553.642 875.7 553.822C878.85 554.002 881.26 556.702 881.08 559.852C876.66 637.472 846.97 709.152 795.21 767.152C794.08 768.422 792.51 769.062 790.94 769.062H790.95Z" fill="black"/>
<path d="M204.622 526.191C204.512 526.191 204.402 526.191 204.292 526.191C201.142 526.011 198.732 523.311 198.912 520.161C203.332 442.541 233.022 370.861 284.782 312.861C286.882 310.501 290.502 310.301 292.852 312.401C295.212 314.501 295.412 318.121 293.312 320.471C243.302 376.521 214.602 445.801 210.332 520.811C210.162 523.851 207.642 526.201 204.632 526.201L204.622 526.191Z" fill="black"/>
<path d="M289.04 769.061C287.47 769.061 285.9 768.411 284.77 767.151C233.02 709.151 203.32 637.461 198.9 559.851C198.72 556.701 201.13 554.001 204.28 553.821C207.44 553.631 210.13 556.051 210.31 559.201C214.58 634.211 243.28 703.491 293.29 759.541C295.39 761.901 295.19 765.511 292.83 767.611C291.74 768.581 290.38 769.061 289.03 769.061H289.04Z" fill="black"/>
<path d="M763.342 294.762C761.982 294.762 760.632 294.282 759.542 293.312C703.492 243.302 634.212 214.602 559.202 210.332C556.052 210.152 553.642 207.452 553.822 204.302C554.002 201.152 556.692 198.742 559.852 198.922C637.472 203.342 709.152 233.032 767.152 284.792C769.512 286.892 769.712 290.512 767.612 292.862C766.482 294.132 764.912 294.772 763.342 294.772V294.762Z" fill="black"/>
<path d="M316.651 294.761C315.081 294.761 313.511 294.111 312.381 292.851C310.281 290.491 310.481 286.881 312.841 284.781C370.841 233.031 442.531 203.331 520.141 198.911C523.291 198.721 525.991 201.141 526.171 204.291C526.351 207.441 523.941 210.141 520.791 210.321C445.781 214.591 376.511 243.291 320.451 293.301C319.361 294.271 318.001 294.751 316.651 294.751V294.761Z" fill="black"/>
<path d="M559.518 881.102C556.508 881.102 553.988 878.752 553.818 875.712C553.638 872.562 556.048 869.862 559.198 869.682C634.208 865.412 703.478 836.712 759.538 786.702C761.888 784.602 765.508 784.802 767.608 787.162C769.708 789.522 769.508 793.132 767.148 795.232C709.148 846.982 637.458 876.682 559.848 881.102C559.738 881.102 559.628 881.102 559.518 881.102Z" fill="black"/>
<path d="M520.479 881.102C520.369 881.102 520.259 881.102 520.149 881.102C442.529 876.682 370.849 846.992 312.849 795.232C310.489 793.132 310.289 789.512 312.389 787.162C314.489 784.802 318.109 784.602 320.459 786.702C376.509 836.722 445.789 865.412 520.799 869.682C523.949 869.862 526.359 872.562 526.179 875.712C526.009 878.752 523.489 881.102 520.479 881.102Z" fill="black"/>
<path d="M841.843 526.51C839.693 526.51 837.893 524.83 837.773 522.66C833.913 454.91 807.993 392.34 762.823 341.71C761.323 340.03 761.473 337.45 763.153 335.94C764.833 334.44 767.413 334.58 768.923 336.27C815.343 388.29 841.973 452.58 845.933 522.19C846.063 524.44 844.343 526.37 842.083 526.5C842.003 526.5 841.923 526.5 841.843 526.5V526.51Z" fill="black"/>
<path d="M765.862 745.101C764.892 745.101 763.922 744.761 763.142 744.061C761.462 742.561 761.312 739.981 762.812 738.291C807.982 687.661 833.902 625.091 837.762 557.341C837.892 555.091 839.852 553.391 842.072 553.491C844.322 553.621 846.042 555.551 845.922 557.801C841.952 627.411 815.322 691.701 768.912 743.721C768.102 744.621 766.982 745.081 765.862 745.081V745.101Z" fill="black"/>
<path d="M238.162 526.51C238.082 526.51 238.002 526.51 237.922 526.51C235.672 526.38 233.952 524.45 234.072 522.2C238.042 452.59 264.672 388.3 311.082 336.28C312.582 334.6 315.162 334.45 316.852 335.95C318.532 337.45 318.682 340.03 317.182 341.72C272.012 392.35 246.092 454.92 242.232 522.67C242.112 524.84 240.312 526.52 238.162 526.52V526.51Z" fill="black"/>
<path d="M314.133 745.101C313.013 745.101 311.893 744.641 311.083 743.741C264.663 691.721 238.033 627.431 234.073 557.821C233.943 555.571 235.663 553.641 237.923 553.511C240.163 553.401 242.103 555.101 242.233 557.361C246.093 625.111 272.013 687.681 317.183 738.311C318.683 739.991 318.533 742.571 316.853 744.081C316.073 744.771 315.103 745.121 314.133 745.121V745.101Z" fill="black"/>
<path d="M741.014 318.219C740.044 318.219 739.074 317.879 738.294 317.179C687.664 272.009 625.094 246.089 557.344 242.229C555.094 242.099 553.374 240.169 553.494 237.919C553.624 235.669 555.544 233.959 557.804 234.069C627.414 238.039 691.704 264.669 743.734 311.079C745.414 312.579 745.564 315.159 744.064 316.849C743.254 317.749 742.134 318.209 741.014 318.209V318.219Z" fill="black"/>
<path d="M338.994 318.22C337.874 318.22 336.754 317.76 335.944 316.86C334.444 315.18 334.594 312.6 336.274 311.09C388.294 264.67 452.584 238.04 522.194 234.08C524.444 233.96 526.374 235.67 526.504 237.93C526.634 240.18 524.914 242.11 522.654 242.24C454.904 246.1 392.334 272.02 341.704 317.19C340.924 317.88 339.954 318.23 338.984 318.23L338.994 318.22Z" fill="black"/>
<path d="M557.565 845.929C555.415 845.929 553.615 844.249 553.495 842.079C553.365 839.829 555.085 837.899 557.345 837.769C625.095 833.909 687.665 807.989 738.295 762.819C739.975 761.319 742.555 761.469 744.065 763.149C745.565 764.829 745.415 767.409 743.735 768.919C691.715 815.339 627.425 841.969 557.805 845.929C557.725 845.929 557.645 845.929 557.565 845.929Z" fill="black"/>
<path d="M522.434 845.929C522.354 845.929 522.274 845.929 522.194 845.929C452.584 841.959 388.294 815.329 336.274 768.919C334.594 767.419 334.444 764.839 335.944 763.149C337.444 761.469 340.024 761.319 341.714 762.819C392.344 807.989 454.914 833.909 522.664 837.769C524.914 837.899 526.634 839.829 526.514 842.079C526.394 844.249 524.594 845.929 522.444 845.929H522.434Z" fill="black"/>
<path d="M320.642 546.17C320.642 544.6 321.782 543.27 323.332 543.02C324.632 542.81 326.262 542.52 327.972 542.12C332.392 541.08 337.582 539.11 343.402 536.27C349.282 533.4 354.912 529.41 359.162 523.67C366.332 513.97 367.852 501.4 368.182 496.89C368.252 495.97 367.522 495.19 366.592 495.19H317.082C315.322 495.19 313.902 493.76 313.902 492.01V470.69C313.902 468.93 315.332 467.51 317.082 467.51H367.062C367.942 467.51 368.652 466.8 368.652 465.92V447.18C368.652 446.3 367.942 445.59 367.062 445.59H328.612C326.852 445.59 325.432 444.16 325.432 442.41V421.09C325.432 419.33 326.862 417.91 328.612 417.91H428.952C430.712 417.91 432.132 419.34 432.132 421.09V442.41C432.132 444.17 430.702 445.59 428.952 445.59H398.512C397.632 445.59 396.922 446.3 396.922 447.18V465.92C396.922 466.8 397.632 467.51 398.512 467.51H438.572C440.332 467.51 441.752 468.94 441.752 470.69V492.01C441.752 493.77 440.322 495.19 438.572 495.19H398.382C397.532 495.19 396.832 495.86 396.792 496.71C396.562 501.75 395.142 518.44 386.172 532.85C380.722 541.61 373.642 548.26 366.532 553.54C359.402 558.84 352.252 562.93 345.262 565.7C338.232 568.49 332.332 570.44 327.742 571.51C326.652 571.76 325.482 571.99 324.392 572.18C322.442 572.53 320.652 571.03 320.652 569.04V546.16L320.642 546.17Z" fill="black"/>
<path d="M474.544 546.52C474.544 545.06 475.544 543.79 476.954 543.43C485.204 541.36 488.924 540.11 496.834 536.32C496.834 536.32 500.884 534.21 504.924 531.3C517.104 522.54 525.214 510.63 525.214 510.63C534.674 497.28 537.764 474.91 538.484 468.49C538.594 467.55 537.854 466.72 536.904 466.72H500.574C500.344 466.72 500.134 466.84 500.024 467.04L499.874 467.29C494.294 478.11 486.874 487.99 480.444 494.24C473.994 500.5 468.584 505.05 464.374 507.75L461.774 509.42C460.714 510.1 459.324 509.34 459.324 508.08V479.89C459.324 478.95 459.744 478.06 460.464 477.45C461.114 476.9 461.984 476.13 463.174 475.06C465.934 472.57 469.044 468.51 472.414 462.98C475.754 457.51 479.344 450.21 483.064 441.29C486.444 433.2 488.974 423.09 490.854 412.06C491.114 410.53 492.444 409.42 493.994 409.42H513.904C515.904 409.42 517.414 411.25 517.034 413.21C516.394 416.52 515.704 420.88 514.844 424.31C513.574 429.39 512.754 432.3 511.234 436.72C510.974 437.47 511.534 438.24 512.324 438.24H591.174C592.934 438.24 594.354 439.67 594.354 441.42V463.51C594.354 465.27 592.924 466.69 591.174 466.69H568.134C567.324 466.69 566.634 467.3 566.554 468.11C565.924 474.01 562.874 497.16 552.384 517.26C538.284 546 508.134 566.39 478.334 572.13C476.374 572.51 474.554 571 474.554 569V546.48L474.544 546.52Z" fill="black"/>
<path d="M675.895 411.029V468.869C675.895 469.749 676.604 470.459 677.484 470.459H764.515C765.395 470.459 766.104 469.749 766.104 468.869V411.029C766.104 410.149 765.395 409.439 764.515 409.439H677.484C676.604 409.439 675.895 410.149 675.895 411.029ZM738.455 452.739H702.294C701.414 452.739 700.705 452.029 700.705 451.149V446.869C700.705 445.989 701.414 445.279 702.294 445.279H738.455C739.335 445.279 740.044 445.989 740.044 446.869V451.149C740.044 452.029 739.335 452.739 738.455 452.739ZM738.455 434.449H702.294C701.414 434.449 700.705 433.739 700.705 432.859V428.749C700.705 427.869 701.414 427.159 702.294 427.159H738.455C739.335 427.159 740.044 427.869 740.044 428.749V432.859C740.044 433.739 739.335 434.449 738.455 434.449Z" fill="black"/>
<path d="M674.224 497.34H728.264C729.144 497.34 729.854 498.05 729.854 498.93V502.84C729.854 503.72 729.144 504.43 728.264 504.43H667.754C665.994 504.43 664.574 505.86 664.574 507.61V522.86C664.574 524.62 666.004 526.04 667.754 526.04H728.264C729.144 526.04 729.854 526.75 729.854 527.63V545.39C729.854 546.11 729.934 547.98 729.214 548.85C728.384 549.87 727.144 549.67 725.844 549.72C722.534 549.72 719.574 549.7 716.944 549.66C716.544 549.66 716.254 549.29 716.334 548.9C716.594 547.63 716.724 546.31 716.694 544.96C716.494 535.68 708.934 528.08 699.654 527.84C689.574 527.58 681.364 535.85 681.704 545.94C682.014 555.29 689.784 562.81 699.144 562.84C704.034 562.85 708.454 560.86 711.634 557.64C711.974 557.3 712.544 557.43 712.694 557.88C714.154 562.21 715.534 566.34 716.784 570.05C717.224 571.35 718.454 572.22 719.824 572.21C725.724 572.17 730.504 571.96 734.174 571.6C738.304 571.18 742.084 570.15 745.514 568.5C749.174 566.84 751.684 564.42 753.044 561.23C754.404 558.04 755.084 553.55 755.084 547.76V527.62C755.084 526.74 755.794 526.03 756.674 526.03H762.904C764.664 526.03 766.084 524.6 766.084 522.85V507.6C766.084 505.84 764.654 504.42 762.904 504.42H756.674C755.794 504.42 755.084 503.71 755.084 502.83V498.92C755.084 498.04 755.794 497.33 756.674 497.33H762.904C764.664 497.33 766.084 495.9 766.084 494.15V479.6C766.084 477.84 764.654 476.42 762.904 476.42H674.204C672.444 476.42 671.024 477.85 671.024 479.6V494.15C671.024 495.91 672.454 497.33 674.204 497.33L674.224 497.34Z" fill="black"/>
<path d="M668.824 409.439H650.254C649.394 409.439 648.574 409.789 647.974 410.399C635.224 423.349 618.284 434.569 612.124 438.479C610.774 439.329 610.274 441.059 610.944 442.499L620.694 463.569C621.624 465.569 624.254 466.049 625.824 464.499C646.114 444.459 664.444 419.799 670.114 411.959C670.874 410.909 670.114 409.439 668.824 409.439Z" fill="black"/>
<path d="M671.914 453.889V435.409C671.914 433.999 670.214 433.289 669.204 434.279C653.634 449.599 620.044 477.059 611.674 483.859C610.544 484.779 610.184 486.349 610.794 487.669L620.694 509.049C621.624 511.049 624.254 511.529 625.824 509.979C627.534 508.289 629.234 506.559 630.914 504.819C631.314 504.409 632.014 504.689 632.014 505.259V569.059C632.014 570.819 633.444 572.239 635.194 572.239H653.814C655.574 572.239 656.994 570.809 656.994 569.059V476.369C656.994 475.299 657.354 474.249 658.024 473.409C664.864 464.729 669.714 458.019 671.334 455.739C671.714 455.199 671.924 454.559 671.924 453.889H671.914Z" fill="black"/>
<path d="M653.261 623.33C640.841 623.33 634.801 628.28 634.801 638.47V655.6C634.801 665.67 640.841 670.56 653.261 670.56C659.131 670.56 663.471 669.48 666.551 667.27C669.991 664.8 671.731 660.87 671.731 655.59V638.46C671.731 628.27 665.691 623.32 653.271 623.32L653.261 623.33ZM646.081 639.3C646.081 633.93 648.831 632.91 653.261 632.91C657.691 632.91 660.441 633.95 660.441 639.3V654.68C660.441 659.95 657.591 660.98 653.261 660.98C648.931 660.98 646.081 659.98 646.081 654.68V639.3Z" fill="black"/>
<path d="M708.262 669.331H721.352L703.622 646.781L720.552 624.8H707.392L694.052 642.281V610.23H682.762V669.331H694.052V659.211L696.942 655.451L708.262 669.331Z" fill="black"/>
<path d="M754.812 624.801V653.291C754.812 659.041 751.872 660.891 746.822 660.891C743.552 660.891 740.272 660.351 740.272 653.881V624.811H728.992V656.771C728.992 665.741 733.702 670.481 742.612 670.481C749.292 670.481 753.872 666.861 755.572 662.801L757.382 669.341H766.102V624.811H754.822L754.812 624.801Z" fill="black"/>
<path d="M630.561 610.23H589.141V620.141V620.151H604.211V669.331H615.681V620.151H630.561V610.23Z" fill="black"/>
<path d="M459.681 669.331H472.771L455.041 646.781L471.971 624.8H458.811L445.471 642.281V610.23H434.191V669.331H445.471V659.211L448.361 655.451L459.681 669.331Z" fill="black"/>
<path d="M355.322 610.23H313.902V620.141V620.151H328.982V669.331H340.442V620.151H355.322V610.23Z" fill="black"/>
<path d="M421.794 658.89L421.194 659.04C417.614 659.96 413.284 660.89 409.404 660.89C404.854 660.89 401.684 658.82 401.684 652.83V640.97C401.684 634.9 404.854 632.82 409.404 632.82C413.354 632.82 417.874 633.7 421.224 634.4L421.804 634.52V625.19L421.494 625.12C417.684 624.23 412.044 623.33 407.524 623.33C402.004 623.33 397.964 624.4 395.164 626.59C391.964 629.09 390.414 633.85 390.414 639.34V654.64C390.414 664.77 396.014 670.56 407.534 670.56C411.404 670.56 417.264 669.49 421.524 668.31L421.814 668.23V658.88L421.794 658.89Z" fill="black"/>
<path d="M553.922 634.699V624.799H543.682V615.189H532.402V624.799H525.172V634.699H532.402V655.419C532.402 667.939 540.292 670.559 546.922 670.559C548.702 670.559 550.502 670.449 552.112 670.219V660.259C551.462 660.329 550.252 660.359 549.532 660.359C546.452 660.359 543.682 659.729 543.682 652.089V634.689H553.922V634.699Z" fill="black"/>
<path d="M489.733 650.741V650.561H515.163V641.481C515.163 635.571 513.543 630.241 510.353 627.341C507.413 624.671 502.773 623.311 497.253 623.311C485.073 623.311 478.453 629.221 478.453 639.591V654.451C478.453 664.701 483.833 670.551 496.313 670.551C500.973 670.551 506.283 669.561 511.963 668.401L512.353 668.321V659.051L511.703 659.201C507.133 660.251 504.613 661.141 500.283 661.141C494.073 661.141 489.733 658.621 489.733 652.201V650.721V650.741ZM489.733 639.721C489.733 634.071 493.793 632.741 497.163 632.741C500.533 632.741 504.063 634.071 504.063 639.721V643.231H489.733V642.711V639.721Z" fill="black"/>
<path d="M378.171 626.881H366.891V669.331H378.171V626.881Z" fill="black"/>
<path d="M372.534 622.22C376.416 622.22 379.564 619.073 379.564 615.19C379.564 611.308 376.416 608.16 372.534 608.16C368.651 608.16 365.504 611.308 365.504 615.19C365.504 619.073 368.651 622.22 372.534 622.22Z" fill="black"/>
<path d="M585.731 643.92H566.141V651.26H585.731V643.92Z" fill="black"/>
<path d="M725.434 1719.04L716.026 1729.23C707.892 1719.24 696.622 1708.26 685.94 1700.13C674.866 1712.48 663.596 1721.1 648.602 1728.45C645.858 1723.35 644.682 1721.79 640.664 1717.57C648.21 1714.63 652.914 1711.99 660.264 1706.79C675.062 1696.4 686.822 1682.19 693.192 1666.91L694.27 1664.36C692.702 1664.46 692.702 1664.46 661.832 1664.95C657.128 1665.04 654.482 1665.24 651.15 1665.73L650.758 1653.19C653.502 1653.68 655.364 1653.77 659.382 1653.77C659.774 1653.77 660.558 1653.77 661.734 1653.77L696.23 1653.28C701.718 1653.19 702.502 1653.09 704.952 1652.21L711.42 1658.87C710.146 1660.34 709.362 1661.71 708.284 1664.16C703.776 1674.65 698.974 1683.17 692.996 1691.21C699.17 1695.33 704.462 1699.44 711.126 1705.42C713.576 1707.58 713.576 1707.58 725.434 1719.04Z" fill="black"/>
<path d="M565.302 1659.26V1679.06C580.1 1676.31 601.758 1667.59 608.128 1661.61L615.968 1672.69C615.282 1672.98 612.342 1674.35 607.148 1676.9C593.82 1683.27 580.1 1687.68 565.302 1690.43V1703.36C565.204 1703.85 565.204 1704.34 565.204 1704.64C565.204 1710.32 565.596 1712.57 566.968 1713.95C568.634 1715.71 574.22 1716.49 583.726 1716.49C590.292 1716.49 599.308 1715.91 606.462 1714.93C611.166 1714.34 613.322 1713.85 617.634 1712.57L618.222 1725.61C616.164 1725.61 615.674 1725.71 605.286 1726.69C599.504 1727.27 587.156 1727.86 581.178 1727.86C568.83 1727.86 562.068 1726.59 558.246 1723.65C555.502 1721.59 554.032 1718.45 553.444 1713.65C553.248 1711.99 553.15 1710.32 553.15 1704.64L553.052 1659.16C553.052 1654.17 553.052 1652.6 552.66 1650.15H565.792C565.4 1652.5 565.302 1654.26 565.302 1659.26ZM604.894 1648.68L611.852 1645.54C615.772 1649.95 618.418 1653.97 621.652 1660.44L614.596 1663.67C611.558 1657.4 609.01 1653.48 604.894 1648.68ZM633.51 1654.46L626.552 1657.99C623.906 1652.6 620.868 1647.89 617.144 1643.39L623.906 1640.25C628.218 1645.15 630.864 1648.97 633.51 1654.46Z" fill="black"/>
<path d="M444.957 1695.23V1681.61C449.269 1682.19 451.131 1682.29 460.833 1682.29H513.067C522.769 1682.29 524.631 1682.19 528.943 1681.61V1695.23C525.023 1694.74 523.945 1694.74 512.969 1694.74H460.931C449.955 1694.74 448.877 1694.74 444.957 1695.23Z" fill="black"/>
<path d="M376.162 1665.63H401.642L401.74 1661.22V1658.09C401.74 1651.62 401.642 1649.46 401.25 1647.21H413.892C413.598 1649.46 413.5 1649.95 413.5 1653.77C413.5 1659.75 413.5 1659.75 413.402 1665.63H419.674C426.632 1665.63 428.592 1665.53 432.414 1664.95V1676.9C428.984 1676.51 426.338 1676.41 419.87 1676.41H413.304C413.108 1688.17 413.108 1688.86 412.618 1692.58C411.246 1705.13 407.032 1713.46 398.506 1720.71C393.214 1725.22 388.412 1727.76 379.396 1731C377.534 1726.78 376.26 1724.92 372.046 1720.61C381.356 1717.77 386.06 1715.42 390.764 1711.3C397.428 1705.52 400.27 1699.05 401.152 1687.78C401.348 1685.53 401.348 1683.17 401.544 1676.41H376.162V1691.11C376.162 1695.23 376.26 1696.8 376.554 1699.34H363.814C364.108 1697.19 364.206 1694.54 364.206 1690.92V1676.41H358.228C351.76 1676.41 349.114 1676.51 345.684 1676.9V1664.95C349.506 1665.53 351.466 1665.63 358.424 1665.63H364.206V1655.83C364.206 1651.72 364.108 1649.66 363.716 1647.11H376.554C376.162 1650.34 376.162 1650.54 376.162 1655.54V1665.63Z" fill="black"/>
<path d="M748.364 1530.11L754.636 1536.28C753.656 1537.75 753.264 1538.63 752.186 1542.16C747.678 1557.06 740.72 1570.29 732.096 1579.99C723.08 1590.28 712.3 1597.92 697.208 1604.88C694.464 1599.98 693.19 1598.31 688.878 1594.59C698.678 1590.57 704.166 1587.63 710.34 1583.03C724.354 1572.64 733.566 1559.21 738.956 1541.67L709.458 1542.16C703.48 1551.67 695.836 1560.09 686.526 1567.25C683.586 1563.23 682.116 1561.96 677.02 1558.82C688.192 1551.18 695.248 1543.34 702.402 1530.4C705.44 1524.81 707.008 1520.99 707.4 1517.46L720.826 1520.11C720.238 1520.99 720.238 1520.99 719.16 1523.15C718.866 1523.64 718.866 1523.64 717.886 1525.89C717.592 1526.48 717.592 1526.48 716.612 1528.44C716.024 1529.81 716.024 1529.81 715.044 1531.58C716.318 1531.48 717.886 1531.38 719.748 1531.38L741.21 1531.09C745.032 1531.09 746.11 1530.89 748.364 1530.11Z" fill="black"/>
<path d="M582.841 1536.08L590.975 1526.38C602.637 1533.63 608.713 1538.14 616.259 1545.3L607.831 1555.98C599.991 1547.65 591.955 1541.18 582.841 1536.08ZM586.271 1600.76L582.645 1587.24C591.073 1586.75 602.735 1583.91 611.653 1579.99C623.903 1574.7 633.017 1567.15 640.759 1555.98C645.071 1549.71 647.815 1544.32 650.755 1536.38C654.577 1540.98 656.145 1542.45 661.143 1545.98C652.813 1563.92 643.503 1575.48 630.077 1584.4C620.081 1591.06 607.929 1595.86 592.739 1599.1C588.819 1599.88 588.525 1599.98 586.271 1600.76Z" fill="black"/>
<path d="M492.875 1521.68L506.203 1521.78C505.811 1524.52 505.811 1525.4 505.811 1530.6V1557.64C505.811 1562.54 505.811 1563.82 506.203 1566.27H492.777C493.071 1564.01 493.267 1560.98 493.267 1557.45V1530.5C493.267 1525.5 493.169 1524.23 492.875 1521.68ZM537.073 1521.87H550.695C550.303 1524.32 550.205 1525.4 550.205 1530.99V1544.22C550.107 1559.51 549.421 1567.74 547.657 1573.91C544.815 1583.71 538.543 1591.06 528.351 1596.75C523.157 1599.69 518.257 1601.65 509.241 1604.29C507.477 1599.49 506.497 1597.82 502.381 1592.63C511.985 1590.77 517.669 1588.71 523.549 1584.79C532.761 1578.71 535.995 1572.74 537.073 1559.8C537.465 1555.59 537.563 1551.27 537.563 1543.43V1531.18C537.563 1526.19 537.465 1524.13 537.073 1521.87Z" fill="black"/>
<path d="M412.614 1603.41H399.188C399.579 1600.67 399.775 1598.02 399.775 1592.43V1529.62C399.677 1523.93 399.579 1521.97 399.188 1519.62H412.614C412.32 1522.27 412.221 1524.13 412.221 1529.91V1548.14C423.589 1551.86 441.23 1560.09 456.714 1568.82L449.854 1580.38C442.994 1575.48 429.078 1567.93 415.161 1561.66C412.907 1560.58 412.613 1560.49 411.829 1560C412.124 1562.74 412.221 1564.41 412.221 1566.66V1592.53C412.221 1597.82 412.32 1600.57 412.614 1603.41ZM432.703 1528.15L439.564 1524.72C443.876 1529.32 446.521 1533.05 449.854 1539.12L442.993 1542.75C439.76 1536.77 437.015 1532.85 432.703 1528.15ZM461.516 1532.75L454.754 1536.57C451.814 1531.18 448.58 1526.58 444.758 1522.36L451.324 1518.93C455.734 1523.44 458.478 1527.17 461.516 1532.75Z" fill="black"/>
<path d="M349.019 1600.18H334.221C334.809 1596.35 335.005 1592.53 335.005 1587.44V1533.44H330.301C326.675 1533.44 323.833 1533.63 320.207 1534.03V1521.58C323.245 1522.07 325.401 1522.17 330.007 1522.17H339.023C344.021 1522.17 345.491 1522.07 349.019 1521.68C348.431 1527.46 348.235 1531.97 348.235 1537.85V1587.44C348.235 1592.63 348.431 1596.16 349.019 1600.18Z" fill="black"/>
<path d="M816.484 1453.15L810.676 1453.49C810.628 1452.62 810.58 1452.34 810.436 1451.23C809.524 1445.42 809.188 1441.73 809.188 1436.88C809.188 1430.69 809.764 1425.22 811.156 1418.11C811.684 1415.42 811.78 1414.94 811.876 1413.65L818.212 1414.32C817.06 1417.15 815.956 1422.53 815.188 1428.67C814.707 1432.27 814.516 1435.1 814.468 1439.28C814.468 1440.34 814.42 1440.72 814.372 1441.92C814.9 1440.24 814.996 1439.9 816.868 1435.58L820.708 1437.31C818.068 1442.88 816.436 1448.45 816.436 1451.86C816.436 1452.14 816.436 1452.53 816.484 1453.15ZM823.108 1424.4L823.204 1418.64C825.364 1419.22 827.907 1419.41 832.083 1419.41C837.411 1419.41 841.972 1418.98 845.14 1418.11L845.428 1423.92C845.044 1423.97 844.324 1424.06 842.02 1424.35C838.948 1424.74 835.299 1424.93 831.747 1424.93C828.243 1424.93 828.196 1424.93 823.108 1424.4ZM826.419 1432.32L831.124 1434.53C828.724 1437.31 827.716 1439.38 827.716 1441.44C827.716 1444.18 830.356 1445.62 835.348 1445.62C839.572 1445.62 843.748 1444.94 846.772 1443.79L847.252 1449.89C846.58 1449.94 846.388 1449.98 845.284 1450.18C841.444 1450.8 838.516 1451.09 835.348 1451.09C829.396 1451.09 825.556 1449.74 823.444 1446.91C822.532 1445.71 822.004 1443.94 822.004 1442.21C822.004 1439.09 823.443 1435.87 826.419 1432.32Z" fill="black"/>
<path d="M776.693 1418.69V1415.76C776.693 1414.18 776.597 1412.93 776.357 1411.78H782.549C782.357 1412.78 782.261 1414.03 782.261 1415.76V1418.69H795.461C798.149 1418.69 799.877 1418.59 801.509 1418.35V1424.16C800.021 1423.97 798.533 1423.87 795.653 1423.87H778.085C777.845 1427.47 777.845 1427.62 777.701 1429.06H790.997C793.493 1429.06 794.837 1429.01 795.941 1428.82C795.941 1429.06 795.941 1429.2 795.893 1429.3C795.797 1430.02 795.797 1430.59 795.701 1432.66C795.509 1439.86 794.885 1446.05 794.069 1449.5C792.965 1454.06 791.381 1455.26 786.581 1455.26C784.901 1455.26 783.797 1455.22 780.101 1454.93C779.909 1452.72 779.525 1451.14 778.709 1449.36C781.493 1449.79 783.701 1449.98 785.909 1449.98C788.021 1449.98 788.501 1449.46 789.125 1446.14C789.701 1443.26 789.989 1440.24 790.181 1434.1H776.933C774.917 1443.74 770.597 1449.89 761.525 1455.84C760.325 1453.73 759.413 1452.67 757.637 1451.28C761.861 1448.64 763.925 1446.96 766.229 1444.18C770.357 1439.23 771.989 1433.66 772.229 1423.87H764.357C761.957 1423.87 759.989 1423.97 758.357 1424.16V1418.35C760.085 1418.59 761.909 1418.69 764.357 1418.69H776.693Z" fill="black"/>
<path d="M735.558 1421.23C734.646 1428.77 732.966 1435.39 730.566 1440.82C727.83 1447.01 724.758 1449.84 720.822 1449.84C715.35 1449.84 711.414 1444.27 711.414 1436.54C711.414 1431.26 713.286 1426.32 716.694 1422.58C720.726 1418.16 726.39 1415.86 733.206 1415.86C744.726 1415.86 752.214 1422.86 752.214 1433.66C752.214 1441.97 747.894 1448.59 740.55 1451.57C738.246 1452.53 736.374 1453.01 733.014 1453.58C732.198 1451.04 731.622 1449.98 730.086 1447.97C734.502 1447.39 737.382 1446.62 739.638 1445.33C743.814 1443.02 746.31 1438.46 746.31 1433.33C746.31 1428.72 744.246 1424.98 740.406 1422.67C738.918 1421.81 737.67 1421.42 735.558 1421.23ZM729.702 1421.28C727.206 1421.57 725.478 1422.24 723.51 1423.63C719.478 1426.51 716.982 1431.46 716.982 1436.59C716.982 1440.53 718.662 1443.65 720.774 1443.65C722.358 1443.65 723.99 1441.63 725.718 1437.5C727.542 1433.18 729.126 1426.7 729.702 1421.28Z" fill="black"/>
<path d="M699.845 1423.87H697.301C696.053 1428.34 695.285 1430.3 693.557 1433.52C691.925 1436.54 690.149 1439.04 687.893 1441.63C693.173 1445.76 698.933 1448.35 706.661 1450.08C705.077 1451.95 704.405 1453.1 703.349 1455.7C695.189 1453.01 689.333 1449.89 684.005 1445.33C681.269 1447.63 678.005 1449.79 674.597 1451.57C671.669 1453.06 668.933 1454.16 664.373 1455.7C663.509 1453.63 662.693 1452.29 661.301 1450.56C669.893 1448.21 675.221 1445.71 680.165 1441.63C677.861 1439.09 676.133 1436.74 674.501 1433.95C672.677 1430.83 671.813 1428.77 670.181 1423.87H667.925C665.669 1423.87 663.797 1423.97 662.069 1424.16V1418.74C663.893 1418.98 665.525 1419.07 668.069 1419.07H680.837V1415.66C680.837 1414.22 680.741 1413.07 680.501 1411.97H686.597C686.357 1413.07 686.261 1414.22 686.261 1415.62V1419.07H699.653C702.245 1419.07 703.925 1418.98 705.701 1418.74V1424.16C703.973 1423.97 702.341 1423.87 699.845 1423.87ZM691.637 1423.87H675.701C676.901 1427.52 677.669 1429.25 679.349 1432.08C680.837 1434.48 682.133 1436.16 683.957 1438.08C685.637 1436.21 687.029 1434.29 688.325 1432.03C689.765 1429.44 690.485 1427.76 691.637 1423.87Z" fill="black"/>
<path d="M632.356 1421.42H643.636C640.42 1418.78 638.356 1417.49 633.652 1415.33L637.108 1411.39C642.388 1413.98 643.492 1414.61 647.428 1417.49L644.26 1421.42H651.46C654.1 1421.42 655.3 1421.38 656.836 1421.14V1426.51C655.348 1426.37 653.572 1426.27 651.46 1426.27H643.924V1434.62H650.116C652.132 1434.62 654.004 1434.53 655.348 1434.34V1439.62C653.86 1439.47 651.988 1439.38 650.116 1439.38H643.924V1449.31H652.132C654.34 1449.31 656.452 1449.22 657.844 1449.02V1454.4C656.308 1454.21 654.388 1454.11 652.132 1454.11H631.204C628.948 1454.11 626.932 1454.21 625.492 1454.4V1449.02C626.98 1449.22 629.14 1449.31 631.204 1449.31H638.548V1439.38H633.652C631.732 1439.38 629.86 1439.47 628.372 1439.62V1434.34C629.764 1434.53 631.54 1434.62 633.604 1434.62H638.548V1426.27H632.356C629.908 1426.27 628.708 1426.32 626.98 1426.51V1421.14C628.612 1421.33 630.004 1421.42 632.356 1421.42ZM615.604 1415.71L618.868 1411.97C622.468 1414.08 624.34 1415.47 627.364 1418.26L624.148 1422.53C621.124 1419.31 619.588 1418.06 615.604 1415.71ZM613.684 1427.66L616.756 1423.68C620.644 1425.94 622.276 1427.14 625.444 1429.92L622.564 1434.34C619.06 1430.98 617.236 1429.63 613.684 1427.66ZM621.508 1437.02L625.78 1440.05C623.572 1446 622.324 1448.93 620.452 1452.34C619.972 1453.2 619.684 1453.68 619.108 1454.64C618.724 1455.26 618.724 1455.26 618.436 1455.79L613.876 1451.81C616.132 1449.36 618.916 1444.03 621.508 1437.02Z" fill="black"/>
<path d="M573.363 1421.57L573.795 1415.86C577.491 1416.72 581.763 1417.06 588.195 1417.06C594.291 1417.06 597.699 1416.82 600.867 1416.14L601.059 1421.57C598.179 1422.82 592.275 1426.51 588.243 1429.49L584.067 1426.18C587.091 1424.26 587.619 1423.92 588.819 1423.25C589.299 1422.96 589.443 1422.86 590.067 1422.48C590.451 1422.29 590.499 1422.29 591.123 1421.9C589.011 1422.19 586.947 1422.29 583.923 1422.29C581.475 1422.29 577.491 1422.05 575.139 1421.71C574.563 1421.66 574.227 1421.62 574.035 1421.62C573.939 1421.62 573.699 1421.57 573.363 1421.57ZM576.915 1432.42L581.091 1435.58C578.067 1438.13 576.723 1440.14 576.723 1442.21C576.723 1445.33 580.227 1446.67 588.339 1446.67C594.051 1446.67 600.339 1445.81 603.411 1444.61L603.939 1451.18C603.075 1451.23 602.931 1451.23 601.827 1451.38C596.067 1452.24 592.995 1452.48 588.867 1452.48C583.635 1452.48 579.411 1451.95 576.867 1450.9C572.739 1449.26 570.723 1446.62 570.723 1442.88C570.723 1439.18 572.595 1436.02 576.915 1432.42ZM609.891 1430.45L606.579 1432.32C605.139 1429.68 603.555 1427.42 601.683 1425.36L604.899 1423.68C607.059 1425.89 608.403 1427.71 609.891 1430.45ZM595.779 1428.19L599.139 1426.51C601.251 1428.77 602.547 1430.59 604.179 1433.57L600.819 1435.34C599.235 1432.42 597.891 1430.5 595.779 1428.19Z" fill="black"/>
<path d="M543.558 1421.23C542.646 1428.77 540.966 1435.39 538.566 1440.82C535.83 1447.01 532.758 1449.84 528.822 1449.84C523.35 1449.84 519.414 1444.27 519.414 1436.54C519.414 1431.26 521.286 1426.32 524.694 1422.58C528.726 1418.16 534.39 1415.86 541.206 1415.86C552.726 1415.86 560.214 1422.86 560.214 1433.66C560.214 1441.97 555.894 1448.59 548.55 1451.57C546.246 1452.53 544.374 1453.01 541.014 1453.58C540.198 1451.04 539.622 1449.98 538.086 1447.97C542.502 1447.39 545.382 1446.62 547.638 1445.33C551.814 1443.02 554.31 1438.46 554.31 1433.33C554.31 1428.72 552.246 1424.98 548.406 1422.67C546.918 1421.81 545.67 1421.42 543.558 1421.23ZM537.702 1421.28C535.206 1421.57 533.478 1422.24 531.51 1423.63C527.478 1426.51 524.982 1431.46 524.982 1436.59C524.982 1440.53 526.662 1443.65 528.774 1443.65C530.358 1443.65 531.99 1441.63 533.718 1437.5C535.542 1433.18 537.126 1426.7 537.702 1421.28Z" fill="black"/>
<path d="M471.699 1424.78L471.363 1418.5C472.419 1418.54 472.947 1418.54 473.187 1418.54C474.051 1418.54 474.051 1418.54 481.107 1418.06C484.611 1417.87 492.819 1417.44 505.635 1416.82C509.571 1416.62 509.811 1416.62 510.579 1416.43L510.915 1422.53C510.387 1422.48 510.387 1422.48 509.907 1422.48C507.027 1422.48 503.475 1423.44 500.403 1425.07C494.307 1428.24 490.707 1433.04 490.707 1437.89C490.707 1441.63 493.059 1444.51 497.091 1445.71C499.443 1446.43 502.515 1446.96 504.243 1446.96C504.291 1446.96 504.723 1446.96 505.203 1446.91L504.339 1453.44C503.715 1453.3 503.619 1453.3 502.707 1453.15C497.427 1452.48 494.403 1451.62 491.475 1449.98C487.059 1447.49 484.611 1443.41 484.611 1438.42C484.611 1434.34 486.243 1430.3 489.171 1427.14C490.995 1425.17 492.723 1423.87 495.843 1422.29C491.955 1422.86 488.979 1423.15 479.667 1423.82C475.395 1424.16 473.187 1424.45 471.699 1424.78ZM501.075 1429.39L504.435 1427.71C506.547 1429.97 507.843 1431.79 509.475 1434.77L506.115 1436.54C504.531 1433.62 503.187 1431.7 501.075 1429.39ZM515.187 1431.65L511.875 1433.52C510.435 1430.88 508.851 1428.62 506.979 1426.56L510.195 1424.88C512.355 1427.09 513.699 1428.91 515.187 1431.65Z" fill="black"/>
<path d="M425.67 1421.18L429.654 1416.43C435.366 1419.98 438.342 1422.19 442.038 1425.7L437.91 1430.93C434.07 1426.85 430.134 1423.68 425.67 1421.18ZM427.35 1452.86L425.574 1446.24C429.702 1446 435.414 1444.61 439.782 1442.69C445.782 1440.1 450.246 1436.4 454.038 1430.93C456.15 1427.86 457.494 1425.22 458.934 1421.33C460.806 1423.58 461.574 1424.3 464.022 1426.03C459.942 1434.82 455.382 1440.48 448.806 1444.85C443.91 1448.11 437.958 1450.46 430.518 1452.05C428.598 1452.43 428.454 1452.48 427.35 1452.86Z" fill="black"/>
<path d="M408.483 1413.02L414.003 1416.86C413.187 1417.58 412.947 1417.78 412.227 1418.54C408.627 1422.29 405.027 1425.41 400.899 1428.43V1448.93C400.899 1451.57 400.947 1452.96 401.139 1454.26H394.419C394.659 1452.86 394.707 1451.9 394.707 1449.07V1432.18C389.091 1435.54 386.403 1436.78 377.571 1439.95C376.563 1437.46 376.035 1436.64 374.355 1434.48C383.859 1431.89 391.923 1427.9 399.555 1422C403.827 1418.69 407.091 1415.38 408.483 1413.02Z" fill="black"/>
<path d="M343.107 1454.16H336.531C336.771 1452.62 336.819 1451.33 336.819 1448.78V1418.02C336.819 1415.66 336.723 1414.42 336.531 1413.12H343.107C342.915 1414.56 342.915 1415.18 342.915 1418.16V1427.09C349.491 1429.39 357.027 1432.9 364.707 1437.22L361.347 1442.88C357.363 1440.14 352.371 1437.41 344.355 1433.71C343.251 1433.18 343.107 1433.14 342.723 1432.9C342.867 1434.24 342.915 1434.82 342.915 1436.16V1448.83C342.915 1451.33 342.963 1452.58 343.107 1454.16Z" fill="black"/>
<path d="M279.219 1436.93V1430.26C281.331 1430.54 282.243 1430.59 286.995 1430.59H312.579C317.331 1430.59 318.243 1430.54 320.355 1430.26V1436.93C318.435 1436.69 317.907 1436.69 312.531 1436.69H287.043C281.667 1436.69 281.139 1436.69 279.219 1436.93Z" fill="black"/>
<path d="M267.858 1413.02L273.378 1416.86C272.562 1417.58 272.322 1417.78 271.602 1418.54C268.002 1422.29 264.402 1425.41 260.274 1428.43V1448.93C260.274 1451.57 260.322 1452.96 260.514 1454.26H253.794C254.034 1452.86 254.082 1451.9 254.082 1449.07V1432.18C248.466 1435.54 245.778 1436.78 236.946 1439.95C235.938 1437.46 235.41 1436.64 233.73 1434.48C243.234 1431.89 251.298 1427.9 258.93 1422C263.202 1418.69 266.466 1415.38 267.858 1413.02Z" fill="black"/>
<path d="M836.569 1312.82H826.777C827.185 1309.89 827.321 1307.78 827.321 1303.98V1282.62C827.321 1278.88 827.185 1276.57 826.777 1273.78H836.025V1277.39C836.025 1278.41 836.025 1278.61 835.889 1280.31C840.037 1275.01 843.641 1273.1 849.761 1273.1C854.997 1273.1 858.873 1274.8 861.321 1278.14C862.953 1280.38 863.633 1283.1 863.633 1287.66V1303.98C863.633 1307.72 863.769 1310.3 864.177 1312.82H854.317C854.657 1309.76 854.793 1307.44 854.793 1303.98V1288.88C854.793 1286.02 854.453 1284.19 853.637 1282.9C852.549 1281.13 850.509 1280.11 847.925 1280.11C843.029 1280.11 839.017 1283.51 836.025 1290.24V1303.98C836.025 1307.31 836.161 1309.89 836.569 1312.82Z" fill="black"/>
<path d="M799.922 1314.11C787.478 1314.11 779.59 1306.08 779.59 1293.37C779.59 1280.72 787.478 1272.63 799.854 1272.63C812.162 1272.63 819.982 1280.65 819.982 1293.23C819.982 1305.81 812.026 1314.11 799.922 1314.11ZM799.854 1279.7C792.714 1279.7 788.362 1284.87 788.362 1293.37C788.362 1301.73 792.714 1306.9 799.786 1306.9C806.858 1306.9 811.21 1301.8 811.21 1293.5C811.21 1284.73 807.062 1279.7 799.854 1279.7Z" fill="black"/>
<path d="M735.537 1258.69H745.193C744.853 1261.27 744.717 1263.79 744.717 1267.66V1277.39C744.717 1278.27 744.717 1278.61 744.581 1280.31C748.797 1275.01 752.469 1273.1 758.657 1273.1C767.361 1273.1 772.325 1278.07 772.325 1286.84V1303.98C772.325 1307.72 772.461 1310.3 772.869 1312.82H763.009C763.349 1309.76 763.485 1307.44 763.485 1303.98V1288.88C763.485 1285.75 762.805 1283.51 761.513 1282.15C760.289 1280.86 758.657 1280.18 756.821 1280.18C751.721 1280.18 747.777 1283.44 744.717 1290.24V1303.98C744.717 1307.31 744.853 1309.89 745.261 1312.82H735.469C735.877 1309.89 736.013 1307.85 736.013 1303.98V1267.6C736.013 1263.52 735.877 1261.41 735.537 1258.69Z" fill="black"/>
<path d="M728.396 1284.87L720.1 1286.84C719.352 1284.73 718.876 1283.78 717.992 1282.69C716.36 1280.65 713.98 1279.56 710.988 1279.56C704.324 1279.56 700.176 1284.8 700.176 1293.23C700.176 1301.73 704.392 1306.97 711.26 1306.97C714.66 1306.97 717.38 1305.61 719.08 1303.16C719.692 1302.21 720.032 1301.46 720.44 1299.76L728.872 1301.46C727.92 1304.18 727.24 1305.61 726.016 1307.24C722.752 1311.73 717.516 1314.11 711.056 1314.11C699.088 1314.11 691.336 1306.02 691.336 1293.44C691.336 1287.04 693.376 1281.54 697.116 1277.73C700.448 1274.33 705.208 1272.56 710.784 1272.56C717.448 1272.56 722.752 1275.14 726.016 1279.9C726.9 1281.26 727.444 1282.35 728.396 1284.87Z" fill="black"/>
<path d="M674.685 1273.78H684.477C684.001 1276.71 683.932 1278.82 683.932 1282.62V1303.98C683.932 1307.72 684.069 1310.03 684.477 1312.82H675.229V1309.21C675.229 1308.19 675.229 1307.99 675.297 1306.29C671.557 1311.59 667.817 1313.56 661.357 1313.56C657.889 1313.56 655.441 1312.95 653.197 1311.59C649.457 1309.21 647.689 1305.4 647.689 1299.83V1282.62C647.689 1278.88 647.485 1276.3 647.145 1273.78H657.005C656.597 1276.84 656.529 1279.16 656.529 1282.62V1297.72C656.529 1301.66 657.548 1304.18 659.656 1305.47C660.676 1306.02 662.105 1306.42 663.397 1306.42C668.293 1306.42 672.169 1303.09 675.229 1296.36V1282.62C675.229 1279.29 675.025 1276.71 674.685 1273.78Z" fill="black"/>
<path d="M608.247 1312.82H599.203C599.543 1309.82 599.679 1307.65 599.679 1303.64V1267.8C599.679 1264.33 599.543 1261.95 599.203 1258.69H608.791C608.451 1261.54 608.315 1263.79 608.315 1267.87V1274.67C608.315 1275.76 608.247 1277.46 608.179 1279.77C611.715 1275.01 615.931 1272.9 622.187 1272.9C633.611 1272.9 640.343 1280.31 640.343 1292.96C640.343 1299.62 638.439 1305.06 634.767 1308.87C631.571 1312.14 627.219 1313.77 621.711 1313.77C615.455 1313.77 611.579 1311.8 608.179 1307.04C608.247 1307.92 608.247 1308.67 608.247 1309.48V1312.82ZM631.503 1292.96C631.503 1285.14 627.423 1280.04 621.167 1280.04C617.359 1280.04 614.163 1281.33 611.919 1283.78C609.879 1286.02 608.587 1289.7 608.587 1293.23C608.587 1297.52 610.355 1301.8 613.075 1303.98C615.047 1305.54 617.699 1306.49 620.215 1306.49C627.083 1306.49 631.503 1301.19 631.503 1292.96Z" fill="black"/>
<path d="M572.348 1314.11C559.904 1314.11 552.016 1306.08 552.016 1293.37C552.016 1280.72 559.904 1272.63 572.28 1272.63C584.588 1272.63 592.408 1280.65 592.408 1293.23C592.408 1305.81 584.452 1314.11 572.348 1314.11ZM572.28 1279.7C565.14 1279.7 560.788 1284.87 560.788 1293.37C560.788 1301.73 565.14 1306.9 572.212 1306.9C579.284 1306.9 583.636 1301.8 583.636 1293.5C583.636 1284.73 579.488 1279.7 572.28 1279.7Z" fill="black"/>
<path d="M547.428 1312.82H536.208C536.072 1311.18 534.916 1307.72 532.672 1301.94C529 1292.55 526.62 1290.04 521.384 1290.04H511.252V1303.91C511.252 1307.99 511.388 1310.16 511.796 1312.82H501.664C502.072 1309.96 502.208 1308.12 502.208 1303.98V1267.32C502.208 1263.72 502.072 1261.68 501.664 1258.48C504.52 1258.62 506.628 1258.69 510.368 1258.69H526.688C537.024 1258.69 542.94 1263.86 542.94 1272.83C542.94 1277.18 541.784 1280.58 539.472 1282.96C537.568 1284.94 535.8 1285.82 531.924 1286.91C536.208 1288.27 537.5 1290.17 544.232 1306.08C544.776 1307.31 546.476 1310.98 547.428 1312.82ZM511.252 1282.28H524.92C527.436 1282.28 529.816 1281.4 531.38 1279.84C532.808 1278.41 533.556 1276.44 533.556 1273.85C533.556 1268.96 530.768 1266.44 525.192 1266.44H511.252V1282.28Z" fill="black"/>
<path d="M459.949 1258.69H469.809C469.469 1261.34 469.333 1263.52 469.333 1267.6V1303.98C469.333 1307.58 469.469 1309.82 469.809 1312.82H459.949C460.289 1309.89 460.425 1307.92 460.425 1303.98V1267.53C460.425 1263.45 460.289 1261.27 459.949 1258.69Z" fill="black"/>
<path d="M453.236 1295.54H423.656C423.996 1299.28 424.608 1301.19 426.172 1303.16C428.144 1305.61 431.204 1306.97 434.672 1306.97C438.004 1306.97 440.86 1305.74 442.832 1303.57C443.648 1302.62 444.124 1301.87 444.804 1300.03L452.828 1302.62C451.264 1305.88 450.38 1307.17 448.68 1308.87C445.144 1312.34 440.384 1314.11 434.672 1314.11C422.636 1314.11 415.02 1306.08 415.02 1293.37C415.02 1280.79 422.568 1272.56 434.196 1272.56C442.152 1272.56 448.408 1276.5 451.128 1283.3C452.42 1286.57 452.896 1289.02 453.1 1293.64C453.1 1293.78 453.1 1293.98 453.236 1295.54ZM423.86 1288.81H444.396C443.92 1285.82 443.104 1283.98 441.404 1282.28C439.568 1280.45 437.256 1279.56 434.06 1279.56C428.756 1279.56 424.88 1283.1 423.86 1288.81ZM422.296 1258.62H430.864V1267.26H422.296V1258.62ZM437.052 1258.62H445.62V1267.26H437.052V1258.62Z" fill="black"/>
<path d="M389.797 1314.11C377.353 1314.11 369.465 1306.08 369.465 1293.37C369.465 1280.72 377.353 1272.63 389.729 1272.63C402.037 1272.63 409.857 1280.65 409.857 1293.23C409.857 1305.81 401.901 1314.11 389.797 1314.11ZM389.729 1279.7C382.589 1279.7 378.237 1284.87 378.237 1293.37C378.237 1301.73 382.589 1306.9 389.661 1306.9C396.733 1306.9 401.085 1301.8 401.085 1293.5C401.085 1284.73 396.937 1279.7 389.729 1279.7Z" fill="black"/>
<path d="M351.799 1258.69H362.135C361.727 1261.48 361.591 1263.24 361.591 1267.46V1297.92C361.591 1302.68 360.299 1306.49 357.919 1309.08C354.995 1312.2 350.439 1313.84 344.727 1313.84C338.607 1313.84 334.187 1312.2 330.923 1308.74C329.359 1307.04 328.543 1305.61 327.047 1302.28L336.023 1299.01C337.043 1302.14 337.995 1303.5 339.695 1304.59C340.919 1305.4 342.959 1305.88 344.795 1305.88C347.243 1305.88 349.487 1305.06 350.711 1303.7C351.799 1302.48 352.343 1300.51 352.343 1297.79V1267.46C352.343 1263.38 352.207 1261.41 351.799 1258.69Z" fill="black"/>
<path d="M301.564 1295.54H271.984C272.324 1299.28 272.936 1301.19 274.5 1303.16C276.472 1305.61 279.532 1306.97 283 1306.97C286.332 1306.97 289.188 1305.74 291.16 1303.57C291.976 1302.62 292.452 1301.87 293.132 1300.03L301.156 1302.62C299.592 1305.88 298.708 1307.17 297.008 1308.87C293.472 1312.34 288.712 1314.11 283 1314.11C270.964 1314.11 263.348 1306.08 263.348 1293.37C263.348 1280.79 270.896 1272.56 282.524 1272.56C290.48 1272.56 296.736 1276.5 299.456 1283.3C300.748 1286.57 301.224 1289.02 301.428 1293.64C301.428 1293.78 301.428 1293.98 301.564 1295.54ZM272.188 1288.81H292.724C292.248 1285.82 291.432 1283.98 289.732 1282.28C287.896 1280.45 285.584 1279.56 282.388 1279.56C277.084 1279.56 273.208 1283.1 272.188 1288.81Z" fill="black"/>
<path d="M247.432 1312.82V1309.48C247.432 1308.67 247.432 1307.92 247.5 1307.04C243.964 1312 240.36 1313.77 233.764 1313.77C229.004 1313.77 225.4 1312.68 222.408 1310.3C217.852 1306.76 215.336 1300.58 215.336 1293.23C215.336 1280.79 222.476 1272.9 233.696 1272.9C237.912 1272.9 241.38 1273.92 244.032 1276.03C245.256 1276.98 246.004 1277.8 247.5 1279.77C247.5 1278.95 247.5 1278.95 247.432 1277.59C247.364 1277.12 247.364 1275.82 247.364 1274.67V1267.87C247.364 1263.79 247.228 1261.54 246.888 1258.69H256.476C256.136 1261.95 256 1264.33 256 1267.8V1303.64C256 1307.65 256.136 1309.82 256.476 1312.82H247.432ZM224.176 1293.3C224.176 1301.39 228.528 1306.49 235.328 1306.49C238.932 1306.49 242.4 1304.79 244.44 1302C246.14 1299.76 247.092 1296.43 247.092 1292.89C247.092 1289.56 245.8 1286.02 243.828 1283.85C241.72 1281.54 238.252 1280.04 234.988 1280.04C228.392 1280.04 224.176 1285.21 224.176 1293.3Z" fill="black"/>
<path d="M961.702 1199.25V1208.29C959.254 1207.95 957.078 1207.82 952.93 1207.82H931.714C927.634 1207.82 925.798 1207.88 923.078 1208.02C923.486 1205.3 923.622 1203.06 923.622 1199.04V1162.26C923.622 1158.72 923.486 1156.68 923.078 1153.48C925.798 1153.62 927.566 1153.69 931.714 1153.69H952.25C955.65 1153.69 957.894 1153.55 961.022 1153.21V1162.19C958.438 1161.85 956.262 1161.71 952.25 1161.71H932.666V1175.72H949.19C952.726 1175.72 955.038 1175.58 958.03 1175.24V1184.15C955.242 1183.74 953.406 1183.68 949.19 1183.68H932.598V1199.72H952.998C956.806 1199.72 958.778 1199.59 961.702 1199.25Z" fill="black"/>
<path d="M903.354 1153.69H913.486C913.078 1156.2 912.942 1158.65 912.942 1162.94V1187.08C912.942 1201.15 904.578 1209.04 889.754 1209.04C882.206 1209.04 875.95 1206.73 872.21 1202.65C868.742 1198.91 867.11 1193.81 867.11 1187.01V1163C867.11 1158.79 866.974 1156.14 866.566 1153.69H876.698C876.29 1156 876.154 1158.58 876.154 1163V1187.01C876.154 1196.19 880.914 1201.02 890.094 1201.02C899.206 1201.02 903.898 1196.19 903.898 1186.94V1163C903.898 1158.65 903.762 1156.2 903.354 1153.69Z" fill="black"/>
<path d="M857.801 1206.86L852.293 1212.64C850.933 1210.88 850.321 1210.26 845.833 1205.78C841.889 1208.02 838.285 1208.97 833.321 1208.97C826.113 1208.97 820.061 1206.66 815.641 1202.17C810.609 1197.07 807.957 1189.66 807.957 1180.96C807.957 1163.82 818.089 1152.6 833.525 1152.6C848.893 1152.6 858.753 1163.55 858.753 1180.62C858.753 1185.31 858.005 1189.39 856.577 1193.2C855.353 1196.26 854.265 1197.96 851.477 1201.22L853.381 1203.06C854.945 1204.55 856.237 1205.64 857.801 1206.86ZM834.137 1194.96L839.713 1189.52C840.869 1190.95 842.229 1192.31 845.017 1195.03C848.009 1191.36 849.233 1187.28 849.233 1180.48C849.233 1173.75 847.329 1168.17 843.793 1164.64C841.073 1161.92 837.469 1160.49 833.321 1160.49C829.173 1160.49 825.569 1161.92 822.781 1164.64C819.245 1168.17 817.341 1173.82 817.341 1180.82C817.341 1193.13 823.665 1201.08 833.457 1201.08C835.769 1201.08 837.673 1200.68 839.577 1199.72C837.469 1197.68 836.109 1196.46 834.137 1194.96Z" fill="black"/>
<path d="M789.801 1153.69H800.137C799.729 1156.27 799.593 1158.38 799.593 1162.46V1199.04C799.593 1203.06 799.729 1205.23 800.137 1207.82H789.801C790.209 1205.23 790.345 1203.06 790.345 1199.04V1162.46C790.345 1158.24 790.209 1156.41 789.801 1153.69Z" fill="black"/>
<path d="M765.461 1161.85V1198.98C765.461 1202.65 765.597 1205.03 766.005 1207.82H755.737C756.145 1204.96 756.281 1202.65 756.281 1198.98V1161.85H747.101C743.089 1161.85 740.165 1161.98 737.785 1162.32V1153.21C740.233 1153.55 743.157 1153.69 747.033 1153.69H773.961C778.857 1153.69 781.373 1153.55 783.957 1153.21V1162.32C781.441 1161.98 778.857 1161.85 773.961 1161.85H765.461Z" fill="black"/>
<path d="M721.866 1153.69H731.998C731.59 1156.2 731.454 1158.65 731.454 1162.94V1187.08C731.454 1201.15 723.09 1209.04 708.266 1209.04C700.718 1209.04 694.462 1206.73 690.722 1202.65C687.254 1198.91 685.622 1193.81 685.622 1187.01V1163C685.622 1158.79 685.486 1156.14 685.078 1153.69H695.21C694.802 1156 694.666 1158.58 694.666 1163V1187.01C694.666 1196.19 699.426 1201.02 708.606 1201.02C717.718 1201.02 722.41 1196.19 722.41 1186.94V1163C722.41 1158.65 722.274 1156.2 721.866 1153.69Z" fill="black"/>
<path d="M651.765 1152.6C659.245 1152.6 665.025 1154.78 669.649 1159.4C674.613 1164.36 677.265 1171.78 677.265 1180.62C677.265 1197.82 667.269 1208.97 651.833 1208.97C636.397 1208.97 626.469 1197.89 626.469 1180.62C626.469 1171.84 629.189 1164.3 634.221 1159.4C638.913 1154.78 644.557 1152.6 651.765 1152.6ZM651.969 1200.88C661.693 1200.88 667.745 1193.13 667.745 1180.62C667.745 1173.75 665.841 1168.24 662.373 1164.77C659.585 1162.05 655.981 1160.62 651.901 1160.62C642.109 1160.62 635.921 1168.38 635.921 1180.68C635.921 1187.48 637.893 1193.2 641.429 1196.73C644.217 1199.45 647.821 1200.88 651.969 1200.88Z" fill="black"/>
<path d="M602.401 1207.82H585.673C581.729 1207.82 579.757 1207.88 576.969 1208.02C577.445 1205.16 577.581 1203.19 577.581 1198.84V1161.92C577.581 1158.79 577.377 1156.34 577.037 1153.55C579.893 1153.69 580.981 1153.69 585.605 1153.69H601.653C612.193 1153.69 618.109 1158.45 618.109 1166.95C618.109 1171.1 616.885 1174.16 614.301 1176.54C612.805 1177.96 611.581 1178.58 608.929 1179.39C612.397 1180.14 613.961 1180.82 615.797 1182.52C618.585 1185.1 620.013 1188.5 620.013 1192.92C620.013 1202.44 613.689 1207.82 602.401 1207.82ZM586.557 1175.86H600.701C605.869 1175.86 608.929 1173.07 608.929 1168.44C608.929 1166.27 608.249 1164.43 607.161 1163.41C605.665 1162.05 603.353 1161.3 600.633 1161.3H586.557V1175.86ZM586.557 1183.4V1200.13H601.177C607.229 1200.13 610.629 1197.14 610.629 1191.63C610.629 1188.91 609.949 1187.08 608.453 1185.72C606.753 1184.22 604.169 1183.4 601.041 1183.4H586.557Z" fill="black"/>
<path d="M548.776 1207.82H537.624C537.216 1205.57 536.468 1202.65 535.72 1200.68L533 1193.26H511.24L508.52 1200.68C507.296 1203.94 507.024 1204.96 506.48 1207.82H495.328C496.348 1205.98 497.708 1202.92 498.932 1199.79L513.892 1160.56C515.184 1157.16 515.728 1155.46 516.068 1153.69H527.9C528.24 1155.32 528.648 1156.41 530.212 1160.56L545.308 1199.79C547.008 1204.14 547.824 1206.05 548.776 1207.82ZM530.552 1185.44L523.276 1165.32C523.004 1164.57 522.8 1163.75 522.052 1161.51C520.964 1164.7 520.964 1164.7 520.76 1165.32L513.688 1185.44H530.552Z" fill="black"/>
<path d="M494.131 1199.11V1208.29C491.683 1207.95 489.303 1207.82 484.475 1207.82H464.347C460.539 1207.82 458.159 1207.88 455.711 1208.02C456.119 1205.5 456.255 1202.99 456.255 1199.04V1163.75C456.255 1159.06 456.119 1156.61 455.711 1153.69H465.979C465.571 1156.48 465.435 1158.72 465.435 1163.68V1199.59H484.475C489.099 1199.59 491.275 1199.45 494.131 1199.11Z" fill="black"/>
<path d="M425.14 1199.25V1208.29C422.692 1207.95 420.516 1207.82 416.368 1207.82H395.152C391.072 1207.82 389.236 1207.88 386.516 1208.02C386.924 1205.3 387.06 1203.06 387.06 1199.04V1162.26C387.06 1158.72 386.924 1156.68 386.516 1153.48C389.236 1153.62 391.004 1153.69 395.152 1153.69H415.688C419.088 1153.69 421.332 1153.55 424.46 1153.21V1162.19C421.876 1161.85 419.7 1161.71 415.688 1161.71H396.104V1175.72H412.628C416.164 1175.72 418.476 1175.58 421.468 1175.24V1184.15C418.68 1183.74 416.844 1183.68 412.628 1183.68H396.036V1199.72H416.436C420.244 1199.72 422.216 1199.59 425.14 1199.25ZM419.7 1142.88L402.36 1152.12L399.844 1148.79L414.396 1136.01L419.7 1142.88Z" fill="black"/>
<path d="M352.342 1184.42V1198.02C352.342 1202.85 352.478 1205.23 352.886 1207.82H342.754C343.162 1205.5 343.298 1202.65 343.298 1198.16V1162.32C343.298 1158.58 343.162 1156.61 342.754 1153.48C345.542 1153.62 347.242 1153.69 351.39 1153.69H370.43C374.714 1153.69 376.89 1153.55 379.746 1153.21V1162.39C377.298 1162.05 374.782 1161.92 370.43 1161.92H352.342V1176.33H366.894C371.11 1176.33 373.49 1176.2 376.142 1175.86V1184.9C373.626 1184.56 371.042 1184.42 366.894 1184.42H352.342Z" fill="black"/>
<path d="M337.206 1207.82H326.054C325.646 1205.57 324.898 1202.65 324.15 1200.68L321.43 1193.26H299.67L296.95 1200.68C295.726 1203.94 295.454 1204.96 294.91 1207.82H283.758C284.778 1205.98 286.138 1202.92 287.362 1199.79L302.322 1160.56C303.614 1157.16 304.158 1155.46 304.498 1153.69H316.33C316.67 1155.32 317.078 1156.41 318.642 1160.56L333.738 1199.79C335.438 1204.14 336.254 1206.05 337.206 1207.82ZM318.982 1185.44L311.706 1165.32C311.434 1164.57 311.23 1163.75 310.482 1161.51C309.394 1164.7 309.394 1164.7 309.19 1165.32L302.118 1185.44H318.982Z" fill="black"/>
<path d="M270.432 1189.59L280.156 1191.29C278.864 1196.19 277.64 1198.84 275.6 1201.49C271.724 1206.25 265.196 1208.9 257.036 1208.9C249.624 1208.9 243.708 1206.66 239.56 1202.38C234.8 1197.41 232.148 1189.73 232.148 1181.02C232.148 1172.05 235.004 1164.16 240.104 1159.06C244.184 1154.91 250.304 1152.6 257.104 1152.6C262.408 1152.6 266.42 1153.62 270.16 1155.86C273.22 1157.77 275.668 1160.28 277.368 1163.28C278.184 1164.7 278.66 1165.93 279.476 1168.51L270.024 1170.69C269.072 1167.7 268.46 1166.4 267.1 1164.84C264.788 1162.05 261.388 1160.62 257.172 1160.62C247.516 1160.62 241.668 1168.17 241.668 1180.68C241.668 1193.13 247.652 1200.88 257.172 1200.88C261.932 1200.88 266.012 1199.04 268.188 1195.85C269.344 1194.15 269.888 1192.72 270.432 1189.59Z" fill="black"/>
<path d="M203.343 1199.25V1208.29C200.895 1207.95 198.719 1207.82 194.571 1207.82H173.355C169.275 1207.82 167.439 1207.88 164.719 1208.02C165.127 1205.3 165.263 1203.06 165.263 1199.04V1162.26C165.263 1158.72 165.127 1156.68 164.719 1153.48C167.439 1153.62 169.207 1153.69 173.355 1153.69H193.891C197.291 1153.69 199.535 1153.55 202.663 1153.21V1162.19C200.079 1161.85 197.903 1161.71 193.891 1161.71H174.307V1175.72H190.831C194.367 1175.72 196.679 1175.58 199.671 1175.24V1184.15C196.883 1183.74 195.047 1183.68 190.831 1183.68H174.239V1199.72H194.639C198.447 1199.72 200.419 1199.59 203.343 1199.25Z" fill="black"/>
<path d="M159.443 1199.11V1208.29C156.995 1207.95 154.615 1207.82 149.787 1207.82H129.659C125.851 1207.82 123.471 1207.88 121.023 1208.02C121.431 1205.5 121.567 1202.99 121.567 1199.04V1163.75C121.567 1159.06 121.431 1156.61 121.023 1153.69H131.291C130.883 1156.48 130.747 1158.72 130.747 1163.68V1199.59H149.787C154.411 1199.59 156.587 1199.45 159.443 1199.11Z" fill="black"/>
</svg>
