<svg width="1080" height="1920" viewBox="0 0 1080 1920" fill="none" xmlns="http://www.w3.org/2000/svg">
<path d="M1080 1920L1080 0L0 0L0 1920H1080Z" fill="#A5D4AD"/>
<path d="M1020 983.72V95C1020 75.67 1004.33 60 985 60H95.58C75.93 60 60 75.93 60 95.58V983.71C60 984.03 60.25 984.28 60.57 984.28C80.03 984.59 95.71 1000.46 95.71 1019.99C95.71 1039.52 80.03 1055.39 60.57 1055.7C60.25 1055.7 60 1055.96 60 1056.27V1824.99C60 1844.32 75.67 1859.99 95 1859.99H985C1004.33 1859.99 1020 1844.32 1020 1824.99V1056.27C1020 1055.95 1019.75 1055.7 1019.43 1055.7C999.97 1055.39 984.29 1039.52 984.29 1019.99C984.29 1000.46 999.97 984.59 1019.43 984.28C1019.75 984.28 1020 984.02 1020 983.71V983.72Z" fill="white"/>
<path d="M60.57 1055.71C60.25 1055.71 60 1055.97 60 1056.28V1825C60 1844.33 75.67 1860 95 1860H985C1004.33 1860 1020 1844.33 1020 1825V1056.28C1020 1055.96 1019.75 1055.71 1019.43 1055.71C999.97 1055.4 984.29 1039.53 984.29 1020H95.71C95.71 1039.53 80.03 1055.4 60.57 1055.71Z" fill="#E5F2E6"/>
<path d="M121 1020H160.9" stroke="black" stroke-width="6" stroke-miterlimit="10"/>
<path d="M187.51 1020H227.41" stroke="black" stroke-width="6" stroke-miterlimit="10"/>
<path d="M254.02 1020H293.92" stroke="black" stroke-width="6" stroke-miterlimit="10"/>
<path d="M320.52 1020H360.43" stroke="black" stroke-width="6" stroke-miterlimit="10"/>
<path d="M387.029 1020H426.939" stroke="black" stroke-width="6" stroke-miterlimit="10"/>
<path d="M453.539 1020H493.439" stroke="black" stroke-width="6" stroke-miterlimit="10"/>
<path d="M520.051 1020H559.951" stroke="black" stroke-width="6" stroke-miterlimit="10"/>
<path d="M586.561 1020H626.461" stroke="black" stroke-width="6" stroke-miterlimit="10"/>
<path d="M653.061 1020H692.971" stroke="black" stroke-width="6" stroke-miterlimit="10"/>
<path d="M719.57 1020H759.48" stroke="black" stroke-width="6" stroke-miterlimit="10"/>
<path d="M786.08 1020H825.98" stroke="black" stroke-width="6" stroke-miterlimit="10"/>
<path d="M852.59 1020H892.49" stroke="black" stroke-width="6" stroke-miterlimit="10"/>
<path d="M919.1 1020H959" stroke="black" stroke-width="6" stroke-miterlimit="10"/>
<path d="M1020 984.29V95C1020 75.67 1004.33 60 985 60H95C75.67 60 60 75.67 60 95V984.29C79.72 984.29 95.71 1000.28 95.71 1020C95.71 1039.72 79.72 1055.71 60 1055.71V1825C60 1844.33 75.67 1860 95 1860H985C1004.33 1860 1020 1844.33 1020 1825V1055.71C1000.28 1055.71 984.29 1039.72 984.29 1020C984.29 1000.28 1000.28 984.29 1020 984.29Z" stroke="black" stroke-width="6" stroke-miterlimit="10"/>
<path d="M912.642 525.66C908.772 525.66 905.532 522.64 905.312 518.73C900.582 435.62 868.782 358.85 813.362 296.74C810.662 293.71 810.922 289.06 813.952 286.36C816.982 283.66 821.622 283.92 824.332 286.95C881.992 351.57 915.062 431.43 919.992 517.89C920.222 521.94 917.122 525.42 913.072 525.65C912.932 525.65 912.792 525.66 912.652 525.66H912.642Z" fill="black"/>
<path d="M818.842 795.509C817.102 795.509 815.352 794.889 813.952 793.639C810.922 790.939 810.662 786.289 813.362 783.259C868.782 721.149 900.582 644.379 905.312 561.269C905.542 557.219 909.022 554.109 913.072 554.349C917.122 554.579 920.222 558.049 919.992 562.109C915.062 648.579 881.992 728.439 824.332 793.049C822.882 794.679 820.862 795.509 818.842 795.509Z" fill="black"/>
<path d="M167.352 525.66C167.212 525.66 167.072 525.66 166.932 525.65C162.882 525.42 159.782 521.95 160.012 517.89C164.942 431.42 198.012 351.56 255.672 286.95C258.372 283.92 263.022 283.66 266.052 286.36C269.082 289.06 269.342 293.71 266.642 296.74C211.222 358.85 179.422 435.61 174.692 518.73C174.472 522.64 171.232 525.66 167.362 525.66H167.352Z" fill="black"/>
<path d="M261.162 795.509C259.142 795.509 257.122 794.679 255.672 793.049C198.012 728.429 164.942 648.569 160.012 562.109C159.782 558.059 162.882 554.579 166.932 554.349C170.982 554.109 174.462 557.219 174.692 561.269C179.422 644.389 211.222 721.149 266.642 783.259C269.342 786.289 269.082 790.939 266.052 793.639C264.652 794.889 262.902 795.509 261.162 795.509Z" fill="black"/>
<path d="M788.162 268.509C786.422 268.509 784.672 267.889 783.272 266.639C721.162 211.219 644.392 179.419 561.282 174.689C557.232 174.459 554.132 170.989 554.362 166.929C554.592 162.879 558.032 159.789 562.122 160.009C648.592 164.939 728.452 198.009 793.062 255.669C796.092 258.369 796.352 263.019 793.652 266.049C792.202 267.679 790.182 268.509 788.162 268.509Z" fill="black"/>
<path d="M291.842 268.51C289.822 268.51 287.802 267.68 286.352 266.05C283.652 263.02 283.912 258.37 286.942 255.67C351.562 198.01 431.422 164.94 517.882 160.01C521.932 159.78 525.412 162.88 525.642 166.93C525.872 170.98 522.772 174.46 518.722 174.69C435.612 179.42 358.842 211.22 296.732 266.64C295.332 267.89 293.582 268.51 291.842 268.51Z" fill="black"/>
<path d="M561.682 920C557.812 920 554.572 916.98 554.352 913.07C554.122 909.02 557.222 905.54 561.272 905.31C644.392 900.58 721.152 868.78 783.262 813.36C786.292 810.66 790.942 810.92 793.642 813.95C796.342 816.98 796.082 821.63 793.052 824.33C728.432 881.99 648.572 915.06 562.112 919.99C561.972 919.99 561.832 920 561.692 920H561.682Z" fill="black"/>
<path d="M518.312 920C518.172 920 518.032 920 517.892 919.99C431.422 915.06 351.562 881.99 286.952 824.33C283.922 821.63 283.662 816.98 286.362 813.95C289.062 810.92 293.712 810.66 296.742 813.36C358.852 868.78 435.622 900.58 518.732 905.31C522.782 905.54 525.882 909.01 525.652 913.07C525.432 916.98 522.192 920 518.322 920H518.312Z" fill="black"/>
<path d="M875.372 526.191C872.362 526.191 869.842 523.841 869.672 520.801C865.402 445.791 836.702 376.521 786.692 320.461C784.592 318.101 784.792 314.491 787.152 312.391C789.502 310.291 793.122 310.491 795.222 312.851C846.972 370.851 876.672 442.541 881.092 520.151C881.272 523.301 878.862 526.001 875.712 526.181C875.602 526.181 875.492 526.181 875.382 526.181L875.372 526.191Z" fill="black"/>
<path d="M790.952 769.062C789.592 769.062 788.242 768.582 787.152 767.612C784.792 765.512 784.592 761.892 786.692 759.542C836.702 703.492 865.402 634.212 869.672 559.202C869.852 556.052 872.542 553.642 875.702 553.822C878.852 554.002 881.262 556.702 881.082 559.852C876.662 637.472 846.972 709.152 795.212 767.152C794.082 768.422 792.512 769.062 790.942 769.062H790.952Z" fill="black"/>
<path d="M204.622 526.191C204.512 526.191 204.402 526.191 204.292 526.191C201.142 526.011 198.732 523.311 198.912 520.161C203.332 442.541 233.022 370.861 284.782 312.861C286.882 310.501 290.502 310.301 292.852 312.401C295.212 314.501 295.412 318.121 293.312 320.471C243.302 376.521 214.602 445.801 210.332 520.811C210.162 523.851 207.642 526.201 204.632 526.201L204.622 526.191Z" fill="black"/>
<path d="M289.042 769.061C287.472 769.061 285.902 768.411 284.772 767.151C233.022 709.151 203.322 637.461 198.902 559.851C198.722 556.701 201.132 554.001 204.282 553.821C207.442 553.631 210.132 556.051 210.312 559.201C214.582 634.211 243.282 703.491 293.292 759.541C295.392 761.901 295.192 765.511 292.832 767.611C291.742 768.581 290.382 769.061 289.032 769.061H289.042Z" fill="black"/>
<path d="M763.342 294.762C761.982 294.762 760.632 294.282 759.542 293.312C703.492 243.302 634.212 214.602 559.202 210.332C556.052 210.152 553.642 207.452 553.822 204.302C554.002 201.152 556.692 198.742 559.852 198.922C637.472 203.342 709.152 233.032 767.152 284.792C769.512 286.892 769.712 290.512 767.612 292.862C766.482 294.132 764.912 294.772 763.342 294.772V294.762Z" fill="black"/>
<path d="M316.651 294.761C315.081 294.761 313.511 294.111 312.381 292.851C310.281 290.491 310.481 286.881 312.841 284.781C370.841 233.031 442.531 203.331 520.141 198.911C523.291 198.721 525.991 201.141 526.171 204.291C526.351 207.441 523.941 210.141 520.791 210.321C445.781 214.591 376.511 243.291 320.451 293.301C319.361 294.271 318.001 294.751 316.651 294.751V294.761Z" fill="black"/>
<path d="M559.522 881.102C556.512 881.102 553.992 878.752 553.822 875.712C553.642 872.562 556.052 869.862 559.202 869.682C634.212 865.412 703.482 836.712 759.542 786.702C761.892 784.602 765.512 784.802 767.612 787.162C769.712 789.522 769.512 793.132 767.152 795.232C709.152 846.982 637.462 876.682 559.852 881.102C559.742 881.102 559.632 881.102 559.522 881.102Z" fill="black"/>
<path d="M520.481 881.102C520.371 881.102 520.261 881.102 520.151 881.102C442.531 876.682 370.851 846.992 312.851 795.232C310.491 793.132 310.291 789.512 312.391 787.162C314.491 784.802 318.111 784.602 320.461 786.702C376.511 836.722 445.791 865.412 520.801 869.682C523.951 869.862 526.361 872.562 526.181 875.712C526.011 878.752 523.491 881.102 520.481 881.102Z" fill="black"/>
<path d="M841.841 526.51C839.691 526.51 837.891 524.83 837.771 522.66C833.911 454.91 807.991 392.34 762.821 341.71C761.321 340.03 761.471 337.45 763.151 335.94C764.831 334.44 767.411 334.58 768.921 336.27C815.341 388.29 841.971 452.58 845.931 522.19C846.061 524.44 844.341 526.37 842.081 526.5C842.001 526.5 841.921 526.5 841.841 526.5V526.51Z" fill="black"/>
<path d="M765.862 745.101C764.892 745.101 763.922 744.761 763.142 744.061C761.462 742.561 761.312 739.981 762.812 738.291C807.982 687.661 833.902 625.091 837.762 557.341C837.892 555.091 839.852 553.391 842.072 553.491C844.322 553.621 846.042 555.551 845.922 557.801C841.952 627.411 815.322 691.701 768.912 743.721C768.102 744.621 766.982 745.081 765.862 745.081V745.101Z" fill="black"/>
<path d="M238.162 526.51C238.082 526.51 238.002 526.51 237.922 526.51C235.672 526.38 233.952 524.45 234.072 522.2C238.042 452.59 264.672 388.3 311.082 336.28C312.582 334.6 315.162 334.45 316.852 335.95C318.532 337.45 318.682 340.03 317.182 341.72C272.012 392.35 246.092 454.92 242.232 522.67C242.112 524.84 240.312 526.52 238.162 526.52V526.51Z" fill="black"/>
<path d="M314.131 745.101C313.011 745.101 311.891 744.641 311.081 743.741C264.661 691.721 238.031 627.431 234.071 557.821C233.941 555.571 235.661 553.641 237.921 553.511C240.161 553.401 242.101 555.101 242.231 557.361C246.091 625.111 272.011 687.681 317.181 738.311C318.681 739.991 318.531 742.571 316.851 744.081C316.071 744.771 315.101 745.121 314.131 745.121V745.101Z" fill="black"/>
<path d="M741.01 318.219C740.04 318.219 739.07 317.879 738.29 317.179C687.66 272.009 625.09 246.089 557.34 242.229C555.09 242.099 553.37 240.169 553.49 237.919C553.62 235.669 555.54 233.959 557.8 234.069C627.41 238.039 691.7 264.669 743.73 311.079C745.41 312.579 745.56 315.159 744.06 316.849C743.25 317.749 742.13 318.209 741.01 318.209V318.219Z" fill="black"/>
<path d="M338.991 318.22C337.871 318.22 336.751 317.76 335.941 316.86C334.441 315.18 334.591 312.6 336.271 311.09C388.291 264.67 452.581 238.04 522.191 234.08C524.441 233.96 526.371 235.67 526.501 237.93C526.631 240.18 524.91 242.11 522.65 242.24C454.9 246.1 392.331 272.02 341.701 317.19C340.921 317.88 339.951 318.23 338.981 318.23L338.991 318.22Z" fill="black"/>
<path d="M557.561 845.929C555.411 845.929 553.611 844.249 553.491 842.079C553.361 839.829 555.081 837.899 557.341 837.769C625.091 833.909 687.661 807.989 738.291 762.819C739.971 761.319 742.551 761.469 744.061 763.149C745.561 764.829 745.411 767.409 743.731 768.919C691.711 815.339 627.421 841.969 557.801 845.929C557.721 845.929 557.641 845.929 557.561 845.929Z" fill="black"/>
<path d="M522.431 845.929C522.351 845.929 522.271 845.929 522.191 845.929C452.581 841.959 388.291 815.329 336.271 768.919C334.591 767.419 334.441 764.839 335.941 763.149C337.441 761.469 340.021 761.319 341.711 762.819C392.341 807.989 454.911 833.909 522.661 837.769C524.911 837.899 526.631 839.829 526.511 842.079C526.391 844.249 524.591 845.929 522.441 845.929H522.431Z" fill="black"/>
<path d="M320.642 546.17C320.642 544.6 321.782 543.27 323.332 543.02C324.632 542.81 326.262 542.52 327.972 542.12C332.392 541.08 337.582 539.11 343.402 536.27C349.282 533.4 354.912 529.41 359.162 523.67C366.332 513.97 367.852 501.4 368.182 496.89C368.252 495.97 367.522 495.19 366.592 495.19H317.082C315.322 495.19 313.902 493.76 313.902 492.01V470.69C313.902 468.93 315.332 467.51 317.082 467.51H367.062C367.942 467.51 368.652 466.8 368.652 465.92V447.18C368.652 446.3 367.942 445.59 367.062 445.59H328.612C326.852 445.59 325.432 444.16 325.432 442.41V421.09C325.432 419.33 326.862 417.91 328.612 417.91H428.952C430.712 417.91 432.132 419.34 432.132 421.09V442.41C432.132 444.17 430.702 445.59 428.952 445.59H398.512C397.632 445.59 396.922 446.3 396.922 447.18V465.92C396.922 466.8 397.632 467.51 398.512 467.51H438.572C440.332 467.51 441.752 468.94 441.752 470.69V492.01C441.752 493.77 440.322 495.19 438.572 495.19H398.382C397.532 495.19 396.832 495.86 396.792 496.71C396.562 501.75 395.142 518.44 386.172 532.85C380.722 541.61 373.642 548.26 366.532 553.54C359.402 558.84 352.252 562.93 345.262 565.7C338.232 568.49 332.332 570.44 327.742 571.51C326.652 571.76 325.482 571.99 324.392 572.18C322.442 572.53 320.652 571.03 320.652 569.04V546.16L320.642 546.17Z" fill="black"/>
<path d="M474.542 546.52C474.542 545.06 475.542 543.79 476.952 543.43C485.202 541.36 488.922 540.11 496.832 536.32C496.832 536.32 500.882 534.21 504.922 531.3C517.102 522.54 525.212 510.63 525.212 510.63C534.672 497.28 537.762 474.91 538.482 468.49C538.592 467.55 537.852 466.72 536.902 466.72H500.572C500.342 466.72 500.132 466.84 500.022 467.04L499.872 467.29C494.292 478.11 486.872 487.99 480.442 494.24C473.992 500.5 468.582 505.05 464.372 507.75L461.772 509.42C460.712 510.1 459.322 509.34 459.322 508.08V479.89C459.322 478.95 459.742 478.06 460.462 477.45C461.112 476.9 461.982 476.13 463.172 475.06C465.932 472.57 469.042 468.51 472.412 462.98C475.752 457.51 479.342 450.21 483.062 441.29C486.442 433.2 488.972 423.09 490.852 412.06C491.112 410.53 492.442 409.42 493.992 409.42H513.902C515.902 409.42 517.412 411.25 517.032 413.21C516.392 416.52 515.702 420.88 514.842 424.31C513.572 429.39 512.752 432.3 511.232 436.72C510.972 437.47 511.532 438.24 512.322 438.24H591.172C592.932 438.24 594.352 439.67 594.352 441.42V463.51C594.352 465.27 592.922 466.69 591.172 466.69H568.132C567.322 466.69 566.632 467.3 566.552 468.11C565.922 474.01 562.872 497.16 552.382 517.26C538.282 546 508.132 566.39 478.332 572.13C476.372 572.51 474.552 571 474.552 569V546.48L474.542 546.52Z" fill="black"/>
<path d="M675.893 411.029V468.869C675.893 469.749 676.603 470.459 677.483 470.459H764.513C765.393 470.459 766.103 469.749 766.103 468.869V411.029C766.103 410.149 765.393 409.439 764.513 409.439H677.483C676.603 409.439 675.893 410.149 675.893 411.029ZM738.453 452.739H702.293C701.413 452.739 700.703 452.029 700.703 451.149V446.869C700.703 445.989 701.413 445.279 702.293 445.279H738.453C739.333 445.279 740.043 445.989 740.043 446.869V451.149C740.043 452.029 739.333 452.739 738.453 452.739ZM738.453 434.449H702.293C701.413 434.449 700.703 433.739 700.703 432.859V428.749C700.703 427.869 701.413 427.159 702.293 427.159H738.453C739.333 427.159 740.043 427.869 740.043 428.749V432.859C740.043 433.739 739.333 434.449 738.453 434.449Z" fill="black"/>
<path d="M674.222 497.34H728.262C729.142 497.34 729.852 498.05 729.852 498.93V502.84C729.852 503.72 729.142 504.43 728.262 504.43H667.752C665.992 504.43 664.572 505.86 664.572 507.61V522.86C664.572 524.62 666.002 526.04 667.752 526.04H728.262C729.142 526.04 729.852 526.75 729.852 527.63V545.39C729.852 546.11 729.932 547.98 729.212 548.85C728.382 549.87 727.142 549.67 725.842 549.72C722.532 549.72 719.572 549.7 716.942 549.66C716.542 549.66 716.252 549.29 716.332 548.9C716.592 547.63 716.722 546.31 716.692 544.96C716.492 535.68 708.932 528.08 699.652 527.84C689.572 527.58 681.362 535.85 681.702 545.94C682.012 555.29 689.782 562.81 699.142 562.84C704.032 562.85 708.452 560.86 711.632 557.64C711.972 557.3 712.542 557.43 712.692 557.88C714.152 562.21 715.532 566.34 716.782 570.05C717.222 571.35 718.452 572.22 719.822 572.21C725.722 572.17 730.502 571.96 734.172 571.6C738.302 571.18 742.082 570.15 745.512 568.5C749.172 566.84 751.682 564.42 753.042 561.23C754.402 558.04 755.082 553.55 755.082 547.76V527.62C755.082 526.74 755.792 526.03 756.672 526.03H762.902C764.662 526.03 766.082 524.6 766.082 522.85V507.6C766.082 505.84 764.652 504.42 762.902 504.42H756.672C755.792 504.42 755.082 503.71 755.082 502.83V498.92C755.082 498.04 755.792 497.33 756.672 497.33H762.902C764.662 497.33 766.082 495.9 766.082 494.15V479.6C766.082 477.84 764.652 476.42 762.902 476.42H674.202C672.442 476.42 671.022 477.85 671.022 479.6V494.15C671.022 495.91 672.452 497.33 674.202 497.33L674.222 497.34Z" fill="black"/>
<path d="M668.822 409.439H650.252C649.392 409.439 648.572 409.789 647.972 410.399C635.222 423.349 618.282 434.569 612.122 438.479C610.772 439.329 610.272 441.059 610.942 442.499L620.692 463.569C621.622 465.569 624.252 466.049 625.822 464.499C646.112 444.459 664.442 419.799 670.112 411.959C670.872 410.909 670.112 409.439 668.822 409.439Z" fill="black"/>
<path d="M671.912 453.889V435.409C671.912 433.999 670.212 433.289 669.202 434.279C653.632 449.599 620.042 477.059 611.672 483.859C610.542 484.779 610.182 486.349 610.792 487.669L620.692 509.049C621.622 511.049 624.252 511.529 625.822 509.979C627.532 508.289 629.232 506.559 630.912 504.819C631.312 504.409 632.012 504.689 632.012 505.259V569.059C632.012 570.819 633.442 572.239 635.192 572.239H653.812C655.572 572.239 656.992 570.809 656.992 569.059V476.369C656.992 475.299 657.352 474.249 658.022 473.409C664.862 464.729 669.712 458.019 671.332 455.739C671.712 455.199 671.922 454.559 671.922 453.889H671.912Z" fill="black"/>
<path d="M653.263 623.33C640.843 623.33 634.803 628.28 634.803 638.47V655.6C634.803 665.67 640.843 670.56 653.263 670.56C659.133 670.56 663.473 669.48 666.553 667.27C669.993 664.8 671.733 660.87 671.733 655.59V638.46C671.733 628.27 665.693 623.32 653.273 623.32L653.263 623.33ZM646.083 639.3C646.083 633.93 648.833 632.91 653.263 632.91C657.693 632.91 660.443 633.95 660.443 639.3V654.68C660.443 659.95 657.593 660.98 653.263 660.98C648.933 660.98 646.083 659.98 646.083 654.68V639.3Z" fill="black"/>
<path d="M708.262 669.331H721.352L703.622 646.781L720.552 624.8H707.392L694.052 642.281V610.23H682.762V669.331H694.052V659.211L696.942 655.451L708.262 669.331Z" fill="black"/>
<path d="M754.812 624.801V653.291C754.812 659.041 751.872 660.891 746.822 660.891C743.552 660.891 740.272 660.351 740.272 653.881V624.811H728.992V656.771C728.992 665.741 733.702 670.481 742.612 670.481C749.292 670.481 753.872 666.861 755.572 662.801L757.382 669.341H766.102V624.811H754.822L754.812 624.801Z" fill="black"/>
<path d="M630.563 610.23H589.143V620.141V620.151H604.213V669.331H615.683V620.151H630.563V610.23Z" fill="black"/>
<path d="M459.681 669.331H472.771L455.041 646.781L471.971 624.8H458.811L445.471 642.281V610.23H434.191V669.331H445.471V659.211L448.361 655.451L459.681 669.331Z" fill="black"/>
<path d="M355.322 610.23H313.902V620.141V620.151H328.982V669.331H340.442V620.151H355.322V610.23Z" fill="black"/>
<path d="M421.792 658.89L421.192 659.04C417.612 659.96 413.282 660.89 409.402 660.89C404.852 660.89 401.682 658.82 401.682 652.83V640.97C401.682 634.9 404.852 632.82 409.402 632.82C413.352 632.82 417.872 633.7 421.222 634.4L421.802 634.52V625.19L421.492 625.12C417.682 624.23 412.042 623.33 407.522 623.33C402.002 623.33 397.962 624.4 395.162 626.59C391.962 629.09 390.412 633.85 390.412 639.34V654.64C390.412 664.77 396.012 670.56 407.532 670.56C411.402 670.56 417.262 669.49 421.522 668.31L421.812 668.23V658.88L421.792 658.89Z" fill="black"/>
<path d="M553.922 634.699V624.799H543.682V615.189H532.402V624.799H525.172V634.699H532.402V655.419C532.402 667.939 540.292 670.559 546.922 670.559C548.702 670.559 550.502 670.449 552.112 670.219V660.259C551.462 660.329 550.252 660.359 549.532 660.359C546.452 660.359 543.682 659.729 543.682 652.089V634.689H553.922V634.699Z" fill="black"/>
<path d="M489.733 650.741V650.561H515.163V641.481C515.163 635.571 513.543 630.241 510.353 627.341C507.413 624.671 502.773 623.311 497.253 623.311C485.073 623.311 478.453 629.221 478.453 639.591V654.451C478.453 664.701 483.833 670.551 496.313 670.551C500.973 670.551 506.283 669.561 511.963 668.401L512.353 668.321V659.051L511.703 659.201C507.133 660.251 504.613 661.141 500.283 661.141C494.073 661.141 489.733 658.621 489.733 652.201V650.721V650.741ZM489.733 639.721C489.733 634.071 493.793 632.741 497.163 632.741C500.533 632.741 504.063 634.071 504.063 639.721V643.231H489.733V642.711V639.721Z" fill="black"/>
<path d="M378.173 626.881H366.893V669.331H378.173V626.881Z" fill="black"/>
<path d="M372.532 622.22C376.415 622.22 379.562 619.073 379.562 615.19C379.562 611.308 376.415 608.16 372.532 608.16C368.649 608.16 365.502 611.308 365.502 615.19C365.502 619.073 368.649 622.22 372.532 622.22Z" fill="black"/>
<path d="M585.733 643.92H566.143V651.26H585.733V643.92Z" fill="black"/>
<path d="M777.528 1651.83V1676.03C777.528 1684.62 777.77 1688.85 778.496 1693.45H760.467C761.193 1689.34 761.435 1684.26 761.435 1676.27V1612.5C761.435 1605.85 761.193 1602.34 760.467 1596.77C765.428 1597.02 768.453 1597.14 775.834 1597.14H809.714C817.337 1597.14 821.209 1596.89 826.291 1596.29V1612.62C821.935 1612.02 817.458 1611.78 809.714 1611.78H777.528V1637.43H803.422C810.924 1637.43 815.159 1637.19 819.878 1636.58V1652.68C815.401 1652.07 810.803 1651.83 803.422 1651.83H777.528Z" fill="black"/>
<path d="M699.657 1651.83V1676.03C699.657 1684.62 699.899 1688.85 700.625 1693.45H682.596C683.322 1689.34 683.564 1684.26 683.564 1676.27V1612.5C683.564 1605.85 683.322 1602.34 682.596 1596.77C687.557 1597.02 690.582 1597.14 697.963 1597.14H731.843C739.466 1597.14 743.338 1596.89 748.42 1596.29V1612.62C744.064 1612.02 739.587 1611.78 731.843 1611.78H699.657V1637.43H725.551C733.053 1637.43 737.288 1637.19 742.007 1636.58V1652.68C737.53 1652.07 732.932 1651.83 725.551 1651.83H699.657Z" fill="black"/>
<path d="M623.078 1595.2C636.388 1595.2 646.673 1599.07 654.901 1607.3C663.734 1616.13 668.453 1629.32 668.453 1645.05C668.453 1675.66 650.666 1695.51 623.199 1695.51C595.732 1695.51 578.066 1675.79 578.066 1645.05C578.066 1629.44 582.906 1616.01 591.86 1607.3C600.209 1599.07 610.252 1595.2 623.078 1595.2ZM623.441 1681.11C640.744 1681.11 651.513 1667.32 651.513 1645.05C651.513 1632.83 648.125 1623.03 641.954 1616.86C636.993 1612.02 630.58 1609.48 623.32 1609.48C605.896 1609.48 594.885 1623.27 594.885 1645.17C594.885 1657.27 598.394 1667.44 604.686 1673.73C609.647 1678.57 616.06 1681.11 623.441 1681.11Z" fill="black"/>
<path d="M475.025 1691.64L551.134 1594.23L557.426 1599.07L481.196 1696.6L475.025 1691.64ZM544.721 1695.39C537.945 1695.39 532.379 1693.33 528.265 1689.22C523.667 1684.74 521.247 1677.48 521.247 1668.28C521.247 1659.21 523.667 1652.07 528.265 1647.47C532.379 1643.48 538.066 1641.3 544.721 1641.3C551.376 1641.3 557.063 1643.48 561.056 1647.47C565.654 1651.95 568.074 1659.21 568.074 1668.28C568.074 1677.48 565.654 1684.74 561.056 1689.22C556.942 1693.33 551.376 1695.39 544.721 1695.39ZM544.721 1651.59C541.212 1651.59 538.913 1652.68 536.977 1655.46C534.799 1658.48 533.71 1662.6 533.71 1668.04C533.71 1679.17 537.582 1685.22 544.721 1685.22C551.981 1685.22 555.732 1679.17 555.732 1667.44C555.732 1662.6 554.522 1658.24 552.465 1655.34C550.408 1652.68 548.23 1651.59 544.721 1651.59ZM487.73 1649.41C480.954 1649.41 475.388 1647.35 471.274 1643.24C466.676 1638.76 464.256 1631.38 464.256 1622.3C464.256 1605.36 472.968 1595.32 487.73 1595.32C494.385 1595.32 500.072 1597.5 504.065 1601.49C508.663 1605.97 511.083 1613.23 511.083 1622.3C511.083 1631.5 508.663 1638.76 504.065 1643.24C499.951 1647.35 494.385 1649.41 487.73 1649.41ZM487.73 1605.61C480.712 1605.61 476.719 1611.54 476.719 1622.06C476.719 1633.19 480.591 1639.24 487.73 1639.24C494.748 1639.24 498.741 1633.19 498.741 1622.3C498.741 1617.95 497.894 1613.59 496.563 1611.05C494.506 1607.3 491.723 1605.61 487.73 1605.61Z" fill="black"/>
<path d="M416.351 1695.39C406.066 1695.39 397.354 1692 390.941 1685.59C387.311 1681.96 384.528 1677.72 382.955 1673.37C379.809 1664.77 378.236 1655.34 378.236 1645.54C378.236 1632.71 381.14 1619.4 385.617 1612.02C392.151 1601.13 403.041 1595.2 416.472 1595.2C426.757 1595.2 435.59 1598.59 442.003 1605C445.633 1608.63 448.416 1612.87 449.989 1617.22C453.135 1625.69 454.708 1635.37 454.708 1645.29C454.708 1660.18 451.441 1673.24 445.754 1681.11C438.978 1690.55 428.935 1695.39 416.351 1695.39ZM416.472 1681.35C421.796 1681.35 426.515 1679.54 429.54 1676.27C434.985 1670.58 438.01 1659.33 438.01 1645.17C438.01 1631.14 434.985 1620.13 429.54 1614.2C426.636 1610.93 421.796 1609.11 416.351 1609.11C410.543 1609.11 406.308 1611.05 402.799 1615.29C397.475 1621.58 394.813 1631.5 394.813 1644.69C394.813 1657.39 397.112 1667.92 400.984 1673.49C404.735 1678.81 409.817 1681.35 416.472 1681.35Z" fill="black"/>
<path d="M341.463 1693.45H323.192C323.918 1688.73 324.16 1684.01 324.16 1677.72V1611.05H318.352C313.875 1611.05 310.366 1611.29 305.889 1611.78V1596.41C309.64 1597.02 312.302 1597.14 317.989 1597.14H329.121C335.292 1597.14 337.107 1597.02 341.463 1596.53C340.737 1603.67 340.495 1609.24 340.495 1616.5V1677.72C340.495 1684.14 340.737 1688.49 341.463 1693.45Z" fill="black"/>
<path d="M885.569 1492.15L879.761 1492.49C879.713 1491.62 879.665 1491.34 879.521 1490.23C878.609 1484.42 878.273 1480.73 878.273 1475.88C878.273 1469.69 878.849 1464.22 880.241 1457.11C880.769 1454.42 880.865 1453.94 880.961 1452.65L887.297 1453.32C886.145 1456.15 885.041 1461.53 884.273 1467.67C883.793 1471.27 883.601 1474.1 883.553 1478.28C883.553 1479.34 883.505 1479.72 883.457 1480.92C883.985 1479.24 884.081 1478.9 885.953 1474.58L889.793 1476.31C887.153 1481.88 885.521 1487.45 885.521 1490.86C885.521 1491.14 885.521 1491.53 885.569 1492.15ZM892.193 1463.4L892.289 1457.64C894.449 1458.22 896.993 1458.41 901.169 1458.41C906.497 1458.41 911.057 1457.98 914.225 1457.11L914.513 1462.92C914.129 1462.97 913.409 1463.06 911.105 1463.35C908.033 1463.74 904.385 1463.93 900.833 1463.93C897.329 1463.93 897.281 1463.93 892.193 1463.4ZM895.505 1471.32L900.209 1473.53C897.809 1476.31 896.801 1478.38 896.801 1480.44C896.801 1483.18 899.441 1484.62 904.433 1484.62C908.657 1484.62 912.833 1483.94 915.857 1482.79L916.337 1488.89C915.665 1488.94 915.473 1488.98 914.369 1489.18C910.529 1489.8 907.601 1490.09 904.433 1490.09C898.481 1490.09 894.641 1488.74 892.529 1485.91C891.617 1484.71 891.089 1482.94 891.089 1481.21C891.089 1478.09 892.529 1474.87 895.505 1471.32Z" fill="black"/>
<path d="M845.779 1457.69V1454.76C845.779 1453.18 845.683 1451.93 845.443 1450.78H851.635C851.443 1451.78 851.347 1453.03 851.347 1454.76V1457.69H864.547C867.235 1457.69 868.963 1457.59 870.595 1457.35V1463.16C869.107 1462.97 867.619 1462.87 864.739 1462.87H847.171C846.931 1466.47 846.931 1466.62 846.787 1468.06H860.083C862.579 1468.06 863.923 1468.01 865.027 1467.82C865.027 1468.06 865.027 1468.2 864.979 1468.3C864.883 1469.02 864.883 1469.59 864.787 1471.66C864.595 1478.86 863.971 1485.05 863.155 1488.5C862.051 1493.06 860.467 1494.26 855.667 1494.26C853.987 1494.26 852.883 1494.22 849.187 1493.93C848.995 1491.72 848.611 1490.14 847.795 1488.36C850.579 1488.79 852.787 1488.98 854.995 1488.98C857.107 1488.98 857.587 1488.46 858.211 1485.14C858.787 1482.26 859.075 1479.24 859.267 1473.1H846.019C844.003 1482.74 839.683 1488.89 830.611 1494.84C829.411 1492.73 828.499 1491.67 826.723 1490.28C830.947 1487.64 833.011 1485.96 835.315 1483.18C839.443 1478.23 841.075 1472.66 841.315 1462.87H833.443C831.043 1462.87 829.075 1462.97 827.443 1463.16V1457.35C829.171 1457.59 830.995 1457.69 833.443 1457.69H845.779Z" fill="black"/>
<path d="M804.642 1460.23C803.73 1467.77 802.05 1474.39 799.65 1479.82C796.914 1486.01 793.842 1488.84 789.906 1488.84C784.434 1488.84 780.498 1483.27 780.498 1475.54C780.498 1470.26 782.37 1465.32 785.778 1461.58C789.81 1457.16 795.474 1454.86 802.29 1454.86C813.81 1454.86 821.298 1461.86 821.298 1472.66C821.298 1480.97 816.978 1487.59 809.634 1490.57C807.33 1491.53 805.458 1492.01 802.098 1492.58C801.282 1490.04 800.706 1488.98 799.17 1486.97C803.586 1486.39 806.466 1485.62 808.722 1484.33C812.898 1482.02 815.394 1477.46 815.394 1472.33C815.394 1467.72 813.33 1463.98 809.49 1461.67C808.002 1460.81 806.754 1460.42 804.642 1460.23ZM798.786 1460.28C796.29 1460.57 794.562 1461.24 792.594 1462.63C788.562 1465.51 786.066 1470.46 786.066 1475.59C786.066 1479.53 787.746 1482.65 789.858 1482.65C791.442 1482.65 793.074 1480.63 794.802 1476.5C796.626 1472.18 798.21 1465.7 798.786 1460.28Z" fill="black"/>
<path d="M768.931 1462.87H766.387C765.139 1467.34 764.371 1469.3 762.643 1472.52C761.011 1475.54 759.235 1478.04 756.979 1480.63C762.259 1484.76 768.019 1487.35 775.747 1489.08C774.163 1490.95 773.491 1492.1 772.435 1494.7C764.275 1492.01 758.419 1488.89 753.091 1484.33C750.355 1486.63 747.091 1488.79 743.683 1490.57C740.755 1492.06 738.019 1493.16 733.459 1494.7C732.595 1492.63 731.779 1491.29 730.387 1489.56C738.979 1487.21 744.307 1484.71 749.251 1480.63C746.947 1478.09 745.219 1475.74 743.587 1472.95C741.763 1469.83 740.899 1467.77 739.267 1462.87H737.011C734.755 1462.87 732.883 1462.97 731.155 1463.16V1457.74C732.979 1457.98 734.611 1458.07 737.155 1458.07H749.923V1454.66C749.923 1453.22 749.827 1452.07 749.587 1450.97H755.683C755.443 1452.07 755.347 1453.22 755.347 1454.62V1458.07H768.739C771.331 1458.07 773.011 1457.98 774.787 1457.74V1463.16C773.059 1462.97 771.427 1462.87 768.931 1462.87ZM760.723 1462.87H744.787C745.987 1466.52 746.755 1468.25 748.435 1471.08C749.923 1473.48 751.219 1475.16 753.043 1477.08C754.723 1475.21 756.115 1473.29 757.411 1471.03C758.851 1468.44 759.571 1466.76 760.723 1462.87Z" fill="black"/>
<path d="M701.442 1460.42H712.721C709.505 1457.78 707.442 1456.49 702.738 1454.33L706.194 1450.39C711.474 1452.98 712.578 1453.61 716.514 1456.49L713.346 1460.42H720.546C723.186 1460.42 724.386 1460.38 725.922 1460.14V1465.51C724.434 1465.37 722.658 1465.27 720.546 1465.27H713.01V1473.62H719.202C721.218 1473.62 723.09 1473.53 724.434 1473.34V1478.62C722.946 1478.47 721.074 1478.38 719.202 1478.38H713.01V1488.31H721.218C723.426 1488.31 725.538 1488.22 726.93 1488.02V1493.4C725.394 1493.21 723.474 1493.11 721.218 1493.11H700.29C698.034 1493.11 696.018 1493.21 694.578 1493.4V1488.02C696.066 1488.22 698.226 1488.31 700.29 1488.31H707.634V1478.38H702.738C700.818 1478.38 698.946 1478.47 697.458 1478.62V1473.34C698.85 1473.53 700.626 1473.62 702.69 1473.62H707.634V1465.27H701.442C698.994 1465.27 697.794 1465.32 696.066 1465.51V1460.14C697.698 1460.33 699.09 1460.42 701.442 1460.42ZM684.69 1454.71L687.954 1450.97C691.554 1453.08 693.426 1454.47 696.45 1457.26L693.234 1461.53C690.21 1458.31 688.674 1457.06 684.69 1454.71ZM682.77 1466.66L685.842 1462.68C689.73 1464.94 691.362 1466.14 694.53 1468.92L691.65 1473.34C688.146 1469.98 686.322 1468.63 682.77 1466.66ZM690.594 1476.02L694.866 1479.05C692.658 1485 691.41 1487.93 689.538 1491.34C689.058 1492.2 688.77 1492.68 688.194 1493.64C687.81 1494.26 687.81 1494.26 687.522 1494.79L682.962 1490.81C685.218 1488.36 688.002 1483.03 690.594 1476.02Z" fill="black"/>
<path d="M642.451 1460.57L642.883 1454.86C646.579 1455.72 650.851 1456.06 657.283 1456.06C663.379 1456.06 666.787 1455.82 669.955 1455.14L670.147 1460.57C667.267 1461.82 661.363 1465.51 657.331 1468.49L653.155 1465.18C656.179 1463.26 656.707 1462.92 657.907 1462.25C658.387 1461.96 658.531 1461.86 659.155 1461.48C659.539 1461.29 659.587 1461.29 660.211 1460.9C658.099 1461.19 656.035 1461.29 653.011 1461.29C650.563 1461.29 646.579 1461.05 644.227 1460.71C643.651 1460.66 643.315 1460.62 643.123 1460.62C643.027 1460.62 642.787 1460.57 642.451 1460.57ZM646.003 1471.42L650.179 1474.58C647.155 1477.13 645.811 1479.14 645.811 1481.21C645.811 1484.33 649.315 1485.67 657.427 1485.67C663.139 1485.67 669.427 1484.81 672.499 1483.61L673.027 1490.18C672.163 1490.23 672.019 1490.23 670.915 1490.38C665.155 1491.24 662.083 1491.48 657.955 1491.48C652.723 1491.48 648.499 1490.95 645.955 1489.9C641.827 1488.26 639.811 1485.62 639.811 1481.88C639.811 1478.18 641.683 1475.02 646.003 1471.42ZM678.979 1469.45L675.667 1471.32C674.227 1468.68 672.643 1466.42 670.771 1464.36L673.987 1462.68C676.147 1464.89 677.491 1466.71 678.979 1469.45ZM664.867 1467.19L668.227 1465.51C670.339 1467.77 671.635 1469.59 673.267 1472.57L669.907 1474.34C668.323 1471.42 666.979 1469.5 664.867 1467.19Z" fill="black"/>
<path d="M610.483 1470.17V1487.83H624.307C626.851 1487.83 629.011 1487.74 630.787 1487.54V1493.3C628.771 1493.06 626.803 1492.97 624.403 1492.97H593.923C591.667 1492.97 589.459 1493.06 587.299 1493.3V1487.54C589.171 1487.74 591.187 1487.83 593.923 1487.83H604.867V1456.82C604.867 1454.71 604.771 1453.27 604.531 1451.3H610.819C610.579 1453.08 610.483 1454.66 610.483 1456.82V1465.03H621.763C623.875 1465.03 625.603 1464.94 627.331 1464.74V1470.46C625.603 1470.26 623.779 1470.17 621.763 1470.17H610.483Z" fill="black"/>
<path d="M572.945 1451.74L578.993 1451.83C578.945 1452.36 578.945 1452.36 578.513 1458.5C578.273 1462.82 577.313 1468.2 576.209 1471.9C575.441 1474.39 574.529 1476.5 573.185 1478.9C575.633 1483.18 578.993 1486.49 583.649 1489.22C582.257 1490.86 581.297 1492.44 580.289 1494.7C576.065 1491.67 572.801 1488.17 569.969 1483.61C566.081 1488.5 561.089 1492.06 553.889 1495.08C552.785 1492.92 551.969 1491.67 550.817 1490.33C559.265 1487.06 564.449 1483.18 567.953 1477.51C571.409 1471.94 573.137 1464.41 573.137 1454.9C573.137 1453.37 573.089 1452.84 572.945 1451.74ZM543.905 1482.74L543.665 1457.59C543.617 1455.05 543.521 1453.61 543.281 1451.88H549.377C549.233 1453.22 549.137 1454.66 549.137 1456.58V1457.64L549.377 1480.54C553.793 1478.57 558.497 1476.07 561.713 1474.01L562.865 1479.05C556.913 1482.7 552.881 1484.76 544.001 1488.6C542.177 1489.42 541.841 1489.56 540.641 1490.14L539.105 1484.28C540.785 1483.9 541.601 1483.61 543.905 1482.74ZM553.313 1457.59L557.921 1454.66C561.713 1458.5 563.873 1461.19 567.425 1466.42L562.481 1469.83C558.833 1463.78 557.681 1462.25 553.313 1457.59Z" fill="black"/>
<path d="M498.643 1476.12V1488.98C498.643 1492.01 498.691 1493.45 498.883 1494.55H492.979C493.171 1493.02 493.267 1491.29 493.267 1488.79V1457.4C493.267 1455.38 493.219 1454.18 493.075 1452.79C494.611 1452.94 495.859 1452.98 498.403 1452.98H527.587C530.227 1452.98 531.667 1452.94 532.819 1452.79C532.675 1454.18 532.627 1455.43 532.627 1458.02V1488.79C532.627 1491.24 532.051 1492.58 530.659 1493.3C529.747 1493.78 528.211 1493.98 525.619 1493.98C523.747 1493.98 521.107 1493.88 519.235 1493.78C518.947 1491.91 518.611 1490.57 517.747 1488.6C520.915 1488.94 523.315 1489.13 525.043 1489.13C526.915 1489.13 527.203 1488.98 527.203 1487.83V1476.12H498.643ZM510.019 1471.08V1458.07H498.643V1471.08H510.019ZM515.203 1471.08H527.203V1458.07H515.203V1471.08Z" fill="black"/>
<path d="M471.766 1492.34C467.686 1492.34 464.23 1491 461.686 1488.46C460.246 1487.02 459.142 1485.34 458.518 1483.61C457.27 1480.2 456.646 1476.46 456.646 1472.57C456.646 1467.48 457.798 1462.2 459.574 1459.27C462.166 1454.95 466.486 1452.6 471.814 1452.6C475.894 1452.6 479.398 1453.94 481.942 1456.49C483.382 1457.93 484.486 1459.61 485.11 1461.34C486.358 1464.7 486.982 1468.54 486.982 1472.47C486.982 1478.38 485.686 1483.56 483.43 1486.68C480.742 1490.42 476.758 1492.34 471.766 1492.34ZM471.814 1486.78C473.926 1486.78 475.798 1486.06 476.998 1484.76C479.158 1482.5 480.358 1478.04 480.358 1472.42C480.358 1466.86 479.158 1462.49 476.998 1460.14C475.846 1458.84 473.926 1458.12 471.766 1458.12C469.462 1458.12 467.782 1458.89 466.39 1460.57C464.278 1463.06 463.222 1467 463.222 1472.23C463.222 1477.27 464.134 1481.45 465.67 1483.66C467.158 1485.77 469.174 1486.78 471.814 1486.78Z" fill="black"/>
<path d="M437.595 1492.34C433.515 1492.34 430.059 1491 427.515 1488.46C426.075 1487.02 424.971 1485.34 424.347 1483.61C423.099 1480.2 422.475 1476.46 422.475 1472.57C422.475 1467.48 423.627 1462.2 425.403 1459.27C427.995 1454.95 432.315 1452.6 437.643 1452.6C441.723 1452.6 445.227 1453.94 447.771 1456.49C449.211 1457.93 450.315 1459.61 450.939 1461.34C452.187 1464.7 452.811 1468.54 452.811 1472.47C452.811 1478.38 451.515 1483.56 449.259 1486.68C446.571 1490.42 442.587 1492.34 437.595 1492.34ZM437.643 1486.78C439.755 1486.78 441.627 1486.06 442.827 1484.76C444.987 1482.5 446.187 1478.04 446.187 1472.42C446.187 1466.86 444.987 1462.49 442.827 1460.14C441.675 1458.84 439.755 1458.12 437.595 1458.12C435.291 1458.12 433.611 1458.89 432.219 1460.57C430.107 1463.06 429.051 1467 429.051 1472.23C429.051 1477.27 429.963 1481.45 431.499 1483.66C432.987 1485.77 435.003 1486.78 437.643 1486.78Z" fill="black"/>
<path d="M403.423 1492.34C399.343 1492.34 395.887 1491 393.343 1488.46C391.903 1487.02 390.799 1485.34 390.175 1483.61C388.927 1480.2 388.303 1476.46 388.303 1472.57C388.303 1467.48 389.455 1462.2 391.231 1459.27C393.823 1454.95 398.143 1452.6 403.471 1452.6C407.551 1452.6 411.055 1453.94 413.599 1456.49C415.039 1457.93 416.143 1459.61 416.767 1461.34C418.015 1464.7 418.639 1468.54 418.639 1472.47C418.639 1478.38 417.343 1483.56 415.087 1486.68C412.399 1490.42 408.415 1492.34 403.423 1492.34ZM403.471 1486.78C405.583 1486.78 407.455 1486.06 408.655 1484.76C410.815 1482.5 412.015 1478.04 412.015 1472.42C412.015 1466.86 410.815 1462.49 408.655 1460.14C407.503 1458.84 405.583 1458.12 403.423 1458.12C401.119 1458.12 399.439 1458.89 398.047 1460.57C395.935 1463.06 394.879 1467 394.879 1472.23C394.879 1477.27 395.791 1481.45 397.327 1483.66C398.815 1485.77 400.831 1486.78 403.471 1486.78Z" fill="black"/>
<path d="M383.429 1484.57V1491.58C383.429 1495.7 382.373 1497.24 378.485 1498.78L376.757 1496.23C379.685 1495.42 380.357 1494.55 380.405 1491.58H376.373V1484.57H383.429Z" fill="black"/>
<path d="M349.977 1471.56C347.961 1471.03 346.713 1470.31 345.321 1468.92C343.833 1467.38 342.969 1465.03 342.969 1462.58C342.969 1456.44 348.153 1452.55 356.361 1452.55C362.169 1452.55 366.441 1454.42 368.505 1457.78C369.321 1459.13 369.801 1460.86 369.801 1462.58C369.801 1467.05 367.257 1470.31 362.889 1471.56C365.049 1471.85 366.489 1472.47 368.073 1473.82C370.329 1475.64 371.433 1478.14 371.433 1481.3C371.433 1488.46 366.057 1492.39 356.217 1492.39C350.649 1492.39 346.809 1491.19 344.073 1488.55C342.297 1486.82 341.289 1484.23 341.289 1481.35C341.289 1477.99 342.585 1475.35 345.225 1473.48C346.809 1472.38 348.009 1471.9 349.977 1471.56ZM356.361 1457.74C352.137 1457.74 349.401 1459.9 349.401 1463.26C349.401 1466.76 352.089 1468.97 356.457 1468.97C360.729 1468.97 363.321 1466.81 363.321 1463.3C363.321 1459.9 360.633 1457.74 356.361 1457.74ZM356.265 1487.11C361.641 1487.11 364.665 1484.86 364.665 1480.82C364.665 1476.84 361.545 1474.44 356.361 1474.44C351.177 1474.44 348.009 1476.89 348.009 1480.87C348.009 1484.81 351.081 1487.11 356.265 1487.11Z" fill="black"/>
<path d="M318.394 1457.26H313.546C311.914 1457.26 310.762 1457.3 309.562 1457.5V1452.31C310.618 1452.5 311.626 1452.55 313.546 1452.55H320.41C321.946 1452.55 323.002 1452.5 323.914 1452.36C323.818 1453.46 323.818 1454.14 323.818 1454.95C323.818 1459.66 324.922 1464.5 326.986 1468.87C329.434 1474.15 332.314 1477.46 337.546 1481.21C336.202 1482.84 335.386 1484.18 334.378 1486.25C330.874 1483.61 328.906 1481.69 326.698 1478.76C324.298 1475.54 322.954 1472.62 321.322 1467.38C320.122 1472.47 318.778 1475.5 316.09 1479.1C314.314 1481.54 312.826 1483.08 309.61 1485.67C308.314 1483.94 307.594 1483.18 305.818 1481.5C308.746 1479.38 310.186 1477.94 312.154 1475.35C314.698 1471.94 316.522 1468.01 317.482 1463.93C317.962 1461.96 318.154 1460.57 318.394 1457.26ZM294.25 1454.95L298.09 1451.35C301.546 1454.38 304.138 1457.06 306.49 1460.14L302.506 1464.02C299.53 1459.99 297.994 1458.31 294.25 1454.95ZM293.53 1473.96V1468.68C294.778 1468.87 295.546 1468.92 297.37 1468.92H301.306C302.746 1468.92 303.85 1468.87 304.954 1468.68C304.81 1470.26 304.762 1471.27 304.762 1473.96V1483.99C305.482 1485.53 305.914 1486.01 307.498 1487.06C309.802 1488.5 312.298 1488.84 320.554 1488.84C327.514 1488.84 333.61 1488.5 338.362 1487.83C337.546 1490.14 337.258 1491.34 336.922 1493.54C332.65 1493.69 325.69 1493.83 322.378 1493.83C314.506 1493.83 310.618 1493.54 308.122 1492.73C305.626 1491.96 303.898 1490.66 302.026 1488.22C300.49 1489.75 299.338 1490.76 297.082 1492.49C296.266 1493.11 295.978 1493.35 295.642 1493.64C295.162 1494.02 295.162 1494.02 294.922 1494.22L292.57 1488.74C294.634 1487.88 297.658 1485.86 299.722 1484.04V1473.72H296.794C295.45 1473.72 294.73 1473.77 293.53 1473.96Z" fill="black"/>
<path d="M252.441 1463.11V1457.98C250.809 1458.31 249.945 1458.46 247.449 1458.84C247.209 1457.54 246.681 1456.34 245.577 1454.42C250.905 1453.8 254.457 1452.94 258.153 1451.4C258.873 1451.11 259.593 1450.73 260.217 1450.3L263.193 1454.47C262.713 1454.66 262.665 1454.71 261.945 1455.05C260.313 1455.72 259.161 1456.15 257.433 1456.68V1463.11H258.921C260.505 1463.11 261.369 1463.06 262.281 1462.92V1467.91C261.321 1467.77 260.457 1467.72 258.921 1467.72H257.577C257.673 1467.96 257.673 1467.96 257.913 1468.39C259.353 1471.56 260.505 1473.24 263.001 1475.78L262.569 1476.65C261.705 1478.28 261.561 1478.62 260.841 1480.39C259.161 1478.23 258.777 1477.56 257.145 1474.06C257.289 1475.21 257.433 1477.99 257.433 1479.53V1489.13C257.433 1491.91 257.481 1493.45 257.721 1495.03H252.153C252.345 1493.35 252.441 1491.82 252.441 1489.13V1480.82C252.441 1479.91 252.633 1476.12 252.729 1474.92C251.433 1479.19 249.705 1482.5 246.921 1485.96C246.105 1483.66 245.577 1482.5 244.473 1480.97C246.489 1478.62 247.593 1476.94 248.985 1474.39C250.041 1472.42 251.241 1469.54 251.769 1467.72H249.369C247.497 1467.72 246.585 1467.77 245.529 1467.96V1462.87C246.633 1463.06 247.497 1463.11 249.369 1463.11H252.441ZM267.417 1460.28H276.633C278.553 1456.73 279.417 1454.52 280.521 1450.54L285.849 1452.26C283.641 1457.11 283.161 1458.12 281.865 1460.28H283.353C285.033 1460.28 285.993 1460.23 287.337 1460.09C287.193 1461.24 287.145 1462.01 287.145 1463.45V1472.28C287.145 1473.72 287.193 1474.68 287.337 1475.83C286.041 1475.69 284.889 1475.64 283.353 1475.64H281.193V1488.7C281.193 1489.61 281.433 1489.7 283.257 1489.7C285.225 1489.7 285.321 1489.46 285.417 1482.84C287.241 1484.04 288.489 1484.66 289.929 1485C289.593 1490.23 289.305 1491.72 288.441 1492.87C287.529 1494.17 285.993 1494.5 281.481 1494.5C277.353 1494.5 276.201 1493.59 276.201 1490.42V1475.64H273.177C272.793 1480.87 272.265 1483.51 270.921 1486.49C269.097 1490.57 266.793 1492.97 262.569 1495.27C261.513 1493.45 260.841 1492.63 259.017 1491.05C265.209 1488.22 268.089 1483.32 268.089 1475.64H267.369C265.833 1475.64 264.873 1475.69 263.577 1475.83C263.673 1474.73 263.721 1473.58 263.721 1472.23V1463.59C263.721 1462.44 263.673 1461.19 263.577 1460.09C264.969 1460.23 265.737 1460.28 267.417 1460.28ZM268.521 1464.89V1470.94H282.009V1464.89H268.521ZM273.513 1457.93L268.809 1460.04C267.321 1456.49 266.361 1454.66 264.873 1452.65L269.529 1450.49C271.353 1453.27 272.409 1455.29 273.513 1457.93Z" fill="black"/>
<path d="M208.474 1465.7L212.458 1462.87C215.578 1465.08 215.674 1465.13 218.458 1467.67C221.818 1464.94 223.546 1463.16 226.666 1459.37H214.042C210.298 1463.4 206.41 1466.38 201.082 1469.35C200.266 1467.72 199.45 1466.76 197.818 1465.32C205.69 1461.48 212.026 1455.72 214.858 1449.82L220.522 1451.21C219.274 1453.03 218.842 1453.61 218.026 1454.71H227.866C229.69 1454.71 230.842 1454.66 232.09 1454.47L234.922 1457.5C234.346 1458.22 234.298 1458.26 233.194 1459.7C229.018 1465.18 224.41 1469.59 218.746 1473.58H234.298C236.218 1473.58 237.178 1473.53 238.33 1473.38C238.138 1474.68 238.09 1475.93 238.09 1477.8V1490.14C238.09 1492.06 238.186 1493.64 238.378 1494.89H232.906V1492.3H214.57V1494.89H209.002C209.194 1493.45 209.29 1491.86 209.29 1490.14V1479.72C206.362 1481.35 204.49 1482.22 200.17 1484.04C199.354 1481.98 198.682 1480.97 197.098 1479.24C201.226 1477.9 205.162 1476.22 208.618 1474.34C210.154 1473.48 211.738 1472.47 214.33 1470.74C212.314 1468.63 210.97 1467.48 208.474 1465.7ZM214.522 1478.28V1487.74H232.954V1478.28H214.522Z" fill="black"/>
<path d="M185.293 1491.58H169.885C166.141 1491.58 165.373 1491.62 163.693 1491.82C163.981 1489.08 164.317 1487.4 164.941 1485.67C166.237 1482.17 168.397 1479.1 171.517 1476.26C173.197 1474.78 174.637 1473.67 179.437 1470.46C183.853 1467.43 185.197 1465.85 185.197 1463.4C185.197 1460.14 182.653 1458.12 178.573 1458.12C175.789 1458.12 173.677 1459.08 172.477 1460.95C171.661 1462.1 171.325 1463.16 170.989 1465.37L164.125 1464.55C164.797 1460.9 165.661 1458.94 167.437 1456.87C169.837 1454.09 173.629 1452.6 178.429 1452.6C186.829 1452.6 192.013 1456.63 192.013 1463.21C192.013 1466.38 190.957 1468.68 188.605 1470.89C187.261 1472.14 186.781 1472.52 180.541 1476.79C178.429 1478.28 176.029 1480.3 174.829 1481.59C173.389 1483.13 172.813 1484.09 172.093 1485.91H185.533C188.557 1485.91 190.957 1485.77 192.541 1485.53V1491.86C190.285 1491.67 188.365 1491.58 185.293 1491.58Z" fill="black"/>
<path d="M746.586 1409.8L750.666 1406.01C755.082 1409.37 757.77 1412.01 761.466 1416.57L757.002 1420.74C753.498 1415.99 750.762 1413.11 746.586 1409.8Z" fill="black"/>
<path d="M722.491 1396.17V1413.83H736.315C738.859 1413.83 741.019 1413.74 742.795 1413.54V1419.3C740.779 1419.06 738.811 1418.97 736.411 1418.97H705.931C703.675 1418.97 701.467 1419.06 699.307 1419.3V1413.54C701.179 1413.74 703.195 1413.83 705.931 1413.83H716.875V1382.82C716.875 1380.71 716.779 1379.27 716.539 1377.3H722.827C722.587 1379.08 722.491 1380.66 722.491 1382.82V1391.03H733.771C735.883 1391.03 737.611 1390.94 739.339 1390.74V1396.46C737.611 1396.26 735.787 1396.17 733.771 1396.17H722.491Z" fill="black"/>
<path d="M684.953 1377.74L691.001 1377.83C690.953 1378.36 690.953 1378.36 690.521 1384.5C690.281 1388.82 689.321 1394.2 688.217 1397.9C687.449 1400.39 686.537 1402.5 685.193 1404.9C687.641 1409.18 691.001 1412.49 695.657 1415.22C694.265 1416.86 693.305 1418.44 692.297 1420.7C688.073 1417.67 684.809 1414.17 681.977 1409.61C678.089 1414.5 673.097 1418.06 665.897 1421.08C664.793 1418.92 663.977 1417.67 662.825 1416.33C671.273 1413.06 676.457 1409.18 679.961 1403.51C683.417 1397.94 685.145 1390.41 685.145 1380.9C685.145 1379.37 685.097 1378.84 684.953 1377.74ZM655.913 1408.74L655.673 1383.59C655.625 1381.05 655.529 1379.61 655.289 1377.88H661.385C661.241 1379.22 661.145 1380.66 661.145 1382.58V1383.64L661.385 1406.54C665.801 1404.57 670.505 1402.07 673.721 1400.01L674.873 1405.05C668.921 1408.7 664.889 1410.76 656.009 1414.6C654.185 1415.42 653.849 1415.56 652.649 1416.14L651.113 1410.28C652.793 1409.9 653.609 1409.61 655.913 1408.74ZM665.321 1383.59L669.929 1380.66C673.721 1384.5 675.881 1387.19 679.433 1392.42L674.489 1395.83C670.841 1389.78 669.689 1388.25 665.321 1383.59Z" fill="black"/>
<path d="M610.65 1402.12V1414.98C610.65 1418.01 610.698 1419.45 610.89 1420.55H604.986C605.178 1419.02 605.274 1417.29 605.274 1414.79V1383.4C605.274 1381.38 605.226 1380.18 605.082 1378.79C606.618 1378.94 607.866 1378.98 610.41 1378.98H639.594C642.234 1378.98 643.674 1378.94 644.826 1378.79C644.682 1380.18 644.634 1381.43 644.634 1384.02V1414.79C644.634 1417.24 644.058 1418.58 642.666 1419.3C641.754 1419.78 640.218 1419.98 637.626 1419.98C635.754 1419.98 633.114 1419.88 631.242 1419.78C630.954 1417.91 630.618 1416.57 629.754 1414.6C632.922 1414.94 635.322 1415.13 637.05 1415.13C638.922 1415.13 639.21 1414.98 639.21 1413.83V1402.12H610.65ZM622.026 1397.08V1384.07H610.65V1397.08H622.026ZM627.21 1397.08H639.21V1384.07H627.21V1397.08Z" fill="black"/>
<path d="M583.774 1418.34C579.694 1418.34 576.238 1417 573.694 1414.46C572.254 1413.02 571.15 1411.34 570.526 1409.61C569.278 1406.2 568.654 1402.46 568.654 1398.57C568.654 1393.48 569.806 1388.2 571.582 1385.27C574.174 1380.95 578.494 1378.6 583.822 1378.6C587.902 1378.6 591.406 1379.94 593.95 1382.49C595.39 1383.93 596.494 1385.61 597.118 1387.34C598.366 1390.7 598.99 1394.54 598.99 1398.47C598.99 1404.38 597.694 1409.56 595.438 1412.68C592.75 1416.42 588.766 1418.34 583.774 1418.34ZM583.822 1412.78C585.934 1412.78 587.806 1412.06 589.006 1410.76C591.166 1408.5 592.366 1404.04 592.366 1398.42C592.366 1392.86 591.166 1388.49 589.006 1386.14C587.854 1384.84 585.934 1384.12 583.774 1384.12C581.47 1384.12 579.79 1384.89 578.398 1386.57C576.286 1389.06 575.23 1393 575.23 1398.23C575.23 1403.27 576.142 1407.45 577.678 1409.66C579.166 1411.77 581.182 1412.78 583.822 1412.78Z" fill="black"/>
<path d="M549.602 1418.34C545.522 1418.34 542.066 1417 539.522 1414.46C538.082 1413.02 536.978 1411.34 536.354 1409.61C535.106 1406.2 534.482 1402.46 534.482 1398.57C534.482 1393.48 535.634 1388.2 537.41 1385.27C540.002 1380.95 544.322 1378.6 549.65 1378.6C553.73 1378.6 557.234 1379.94 559.778 1382.49C561.218 1383.93 562.322 1385.61 562.946 1387.34C564.194 1390.7 564.818 1394.54 564.818 1398.47C564.818 1404.38 563.522 1409.56 561.266 1412.68C558.578 1416.42 554.594 1418.34 549.602 1418.34ZM549.65 1412.78C551.762 1412.78 553.634 1412.06 554.834 1410.76C556.994 1408.5 558.194 1404.04 558.194 1398.42C558.194 1392.86 556.994 1388.49 554.834 1386.14C553.682 1384.84 551.762 1384.12 549.602 1384.12C547.298 1384.12 545.618 1384.89 544.226 1386.57C542.114 1389.06 541.058 1393 541.058 1398.23C541.058 1403.27 541.97 1407.45 543.506 1409.66C544.994 1411.77 547.01 1412.78 549.65 1412.78Z" fill="black"/>
<path d="M515.431 1418.34C511.351 1418.34 507.895 1417 505.351 1414.46C503.911 1413.02 502.807 1411.34 502.183 1409.61C500.935 1406.2 500.311 1402.46 500.311 1398.57C500.311 1393.48 501.463 1388.2 503.239 1385.27C505.831 1380.95 510.151 1378.6 515.479 1378.6C519.559 1378.6 523.063 1379.94 525.607 1382.49C527.047 1383.93 528.151 1385.61 528.775 1387.34C530.023 1390.7 530.647 1394.54 530.647 1398.47C530.647 1404.38 529.351 1409.56 527.095 1412.68C524.407 1416.42 520.423 1418.34 515.431 1418.34ZM515.479 1412.78C517.591 1412.78 519.463 1412.06 520.663 1410.76C522.823 1408.5 524.023 1404.04 524.023 1398.42C524.023 1392.86 522.823 1388.49 520.663 1386.14C519.511 1384.84 517.591 1384.12 515.431 1384.12C513.127 1384.12 511.447 1384.89 510.055 1386.57C507.943 1389.06 506.887 1393 506.887 1398.23C506.887 1403.27 507.799 1407.45 509.335 1409.66C510.823 1411.77 512.839 1412.78 515.479 1412.78Z" fill="black"/>
<path d="M495.437 1410.57V1417.58C495.437 1421.7 494.381 1423.24 490.493 1424.78L488.765 1422.23C491.693 1421.42 492.365 1420.55 492.413 1417.58H488.381V1410.57H495.437Z" fill="black"/>
<path d="M484.306 1402.89V1409.03C482.53 1408.79 481.522 1408.74 479.506 1408.7H477.778V1412.1C477.778 1414.55 477.874 1415.8 478.162 1417.58H471.346C471.634 1415.9 471.73 1414.41 471.73 1412.01V1408.7H458.434C455.602 1408.7 454.066 1408.74 452.434 1408.89V1402.98C454.066 1401.21 454.594 1400.58 456.274 1398.57L467.65 1384.65C469.762 1382.1 470.53 1381.1 471.634 1379.37H478.114C477.826 1382.15 477.778 1383.83 477.778 1387.48V1403.22H479.458C481.378 1403.22 482.53 1403.13 484.306 1402.89ZM471.778 1403.27V1393.34C471.778 1391.08 471.826 1389.54 472.018 1387.58C471.058 1388.97 470.482 1389.74 468.754 1391.85L459.538 1403.27H471.778Z" fill="black"/>
<path d="M430.402 1383.26H425.554C423.922 1383.26 422.77 1383.3 421.57 1383.5V1378.31C422.626 1378.5 423.634 1378.55 425.554 1378.55H432.418C433.954 1378.55 435.01 1378.5 435.922 1378.36C435.826 1379.46 435.826 1380.14 435.826 1380.95C435.826 1385.66 436.93 1390.5 438.994 1394.87C441.442 1400.15 444.322 1403.46 449.554 1407.21C448.21 1408.84 447.394 1410.18 446.386 1412.25C442.882 1409.61 440.914 1407.69 438.706 1404.76C436.306 1401.54 434.962 1398.62 433.33 1393.38C432.13 1398.47 430.786 1401.5 428.098 1405.1C426.322 1407.54 424.834 1409.08 421.618 1411.67C420.322 1409.94 419.602 1409.18 417.826 1407.5C420.754 1405.38 422.194 1403.94 424.162 1401.35C426.706 1397.94 428.53 1394.01 429.49 1389.93C429.97 1387.96 430.162 1386.57 430.402 1383.26ZM406.258 1380.95L410.098 1377.35C413.554 1380.38 416.146 1383.06 418.498 1386.14L414.514 1390.02C411.538 1385.99 410.002 1384.31 406.258 1380.95ZM405.538 1399.96V1394.68C406.786 1394.87 407.554 1394.92 409.378 1394.92H413.314C414.754 1394.92 415.858 1394.87 416.962 1394.68C416.818 1396.26 416.77 1397.27 416.77 1399.96V1409.99C417.49 1411.53 417.922 1412.01 419.506 1413.06C421.81 1414.5 424.306 1414.84 432.562 1414.84C439.522 1414.84 445.618 1414.5 450.37 1413.83C449.554 1416.14 449.266 1417.34 448.93 1419.54C444.658 1419.69 437.698 1419.83 434.386 1419.83C426.514 1419.83 422.626 1419.54 420.13 1418.73C417.634 1417.96 415.906 1416.66 414.034 1414.22C412.498 1415.75 411.346 1416.76 409.09 1418.49C408.274 1419.11 407.986 1419.35 407.65 1419.64C407.17 1420.02 407.17 1420.02 406.93 1420.22L404.578 1414.74C406.642 1413.88 409.666 1411.86 411.73 1410.04V1399.72H408.802C407.458 1399.72 406.738 1399.77 405.538 1399.96Z" fill="black"/>
<path d="M364.448 1389.11V1383.98C362.816 1384.31 361.952 1384.46 359.456 1384.84C359.216 1383.54 358.688 1382.34 357.584 1380.42C362.912 1379.8 366.464 1378.94 370.16 1377.4C370.88 1377.11 371.6 1376.73 372.224 1376.3L375.2 1380.47C374.72 1380.66 374.672 1380.71 373.952 1381.05C372.32 1381.72 371.168 1382.15 369.44 1382.68V1389.11H370.928C372.512 1389.11 373.376 1389.06 374.288 1388.92V1393.91C373.328 1393.77 372.464 1393.72 370.928 1393.72H369.584C369.68 1393.96 369.68 1393.96 369.92 1394.39C371.36 1397.56 372.512 1399.24 375.008 1401.78L374.576 1402.65C373.712 1404.28 373.568 1404.62 372.848 1406.39C371.168 1404.23 370.784 1403.56 369.152 1400.06C369.296 1401.21 369.44 1403.99 369.44 1405.53V1415.13C369.44 1417.91 369.488 1419.45 369.728 1421.03H364.16C364.352 1419.35 364.448 1417.82 364.448 1415.13V1406.82C364.448 1405.91 364.64 1402.12 364.736 1400.92C363.44 1405.19 361.712 1408.5 358.928 1411.96C358.112 1409.66 357.584 1408.5 356.48 1406.97C358.496 1404.62 359.6 1402.94 360.992 1400.39C362.048 1398.42 363.248 1395.54 363.776 1393.72H361.376C359.504 1393.72 358.592 1393.77 357.536 1393.96V1388.87C358.64 1389.06 359.504 1389.11 361.376 1389.11H364.448ZM379.424 1386.28H388.64C390.56 1382.73 391.424 1380.52 392.528 1376.54L397.856 1378.26C395.648 1383.11 395.168 1384.12 393.872 1386.28H395.36C397.04 1386.28 398 1386.23 399.344 1386.09C399.2 1387.24 399.152 1388.01 399.152 1389.45V1398.28C399.152 1399.72 399.2 1400.68 399.344 1401.83C398.048 1401.69 396.896 1401.64 395.36 1401.64H393.2V1414.7C393.2 1415.61 393.44 1415.7 395.264 1415.7C397.232 1415.7 397.328 1415.46 397.424 1408.84C399.248 1410.04 400.496 1410.66 401.936 1411C401.6 1416.23 401.312 1417.72 400.448 1418.87C399.536 1420.17 398 1420.5 393.488 1420.5C389.36 1420.5 388.208 1419.59 388.208 1416.42V1401.64H385.184C384.8 1406.87 384.272 1409.51 382.928 1412.49C381.104 1416.57 378.8 1418.97 374.576 1421.27C373.52 1419.45 372.848 1418.63 371.024 1417.05C377.216 1414.22 380.096 1409.32 380.096 1401.64H379.376C377.84 1401.64 376.88 1401.69 375.584 1401.83C375.68 1400.73 375.728 1399.58 375.728 1398.23V1389.59C375.728 1388.44 375.68 1387.19 375.584 1386.09C376.976 1386.23 377.744 1386.28 379.424 1386.28ZM380.528 1390.89V1396.94H394.016V1390.89H380.528ZM385.52 1383.93L380.816 1386.04C379.328 1382.49 378.368 1380.66 376.88 1378.65L381.536 1376.49C383.36 1379.27 384.416 1381.29 385.52 1383.93Z" fill="black"/>
<path d="M320.481 1391.7L324.465 1388.87C327.585 1391.08 327.681 1391.13 330.465 1393.67C333.825 1390.94 335.553 1389.16 338.673 1385.37H326.049C322.305 1389.4 318.417 1392.38 313.089 1395.35C312.273 1393.72 311.457 1392.76 309.825 1391.32C317.697 1387.48 324.033 1381.72 326.865 1375.82L332.529 1377.21C331.281 1379.03 330.849 1379.61 330.033 1380.71H339.873C341.697 1380.71 342.849 1380.66 344.097 1380.47L346.929 1383.5C346.353 1384.22 346.305 1384.26 345.201 1385.7C341.025 1391.18 336.417 1395.59 330.753 1399.58H346.305C348.225 1399.58 349.185 1399.53 350.337 1399.38C350.145 1400.68 350.097 1401.93 350.097 1403.8V1416.14C350.097 1418.06 350.193 1419.64 350.385 1420.89H344.913V1418.3H326.577V1420.89H321.009C321.201 1419.45 321.297 1417.86 321.297 1416.14V1405.72C318.369 1407.35 316.497 1408.22 312.177 1410.04C311.361 1407.98 310.689 1406.97 309.105 1405.24C313.233 1403.9 317.169 1402.22 320.625 1400.34C322.161 1399.48 323.745 1398.47 326.337 1396.74C324.321 1394.63 322.977 1393.48 320.481 1391.7ZM326.529 1404.28V1413.74H344.961V1404.28H326.529Z" fill="black"/>
<path d="M294.614 1417.58H287.366C287.654 1415.7 287.75 1413.83 287.75 1411.34V1384.89H285.446C283.67 1384.89 282.278 1384.98 280.502 1385.18V1379.08C281.99 1379.32 283.046 1379.37 285.302 1379.37H289.718C292.166 1379.37 292.886 1379.32 294.614 1379.13C294.326 1381.96 294.23 1384.17 294.23 1387.05V1411.34C294.23 1413.88 294.326 1415.61 294.614 1417.58Z" fill="black"/>
<path d="M662.628 1205.15V1231.87C662.628 1235.95 662.764 1238.33 663.036 1240.24H655.012C655.284 1238.06 655.42 1235.68 655.42 1231.8V1187.26C655.42 1183.66 655.352 1181.76 655.148 1179.58C657.12 1179.78 658.684 1179.85 662.084 1179.85H674.12C677.656 1179.85 679.22 1179.78 681.056 1179.58C680.92 1181.48 680.852 1183.25 680.852 1185.9V1199.23C680.852 1202.43 680.92 1203.79 681.056 1205.28C679.424 1205.22 677.18 1205.15 674.8 1205.15H662.628ZM662.628 1185.77V1190.12H674.188V1185.77H662.628ZM662.628 1195.42V1199.71H674.188V1195.42H662.628ZM711.86 1187.2V1231.8C711.86 1238.33 710.024 1239.56 700.232 1239.56C699.008 1239.56 697.444 1239.49 694.656 1239.42C694.248 1236.16 693.772 1234.25 692.82 1232.01C696.22 1232.42 698.94 1232.62 702 1232.62C704.108 1232.62 704.584 1232.35 704.584 1230.92V1205.22H691.8C689.352 1205.22 686.972 1205.28 685.544 1205.42C685.68 1203.86 685.748 1202.16 685.748 1199.23V1185.9C685.748 1183.59 685.68 1181.69 685.544 1179.58C687.516 1179.78 688.944 1179.85 692.48 1179.85H705.128C708.596 1179.85 710.16 1179.78 712.2 1179.58C711.928 1181.96 711.86 1183.8 711.86 1187.2ZM692.548 1185.77V1190.12H704.584V1185.77H692.548ZM692.548 1195.42V1199.71H704.584V1195.42H692.548Z" fill="black"/>
<path d="M629.989 1181.35L639.373 1184.54C638.625 1185.97 638.625 1185.97 636.993 1190.39C632.301 1202.56 626.249 1212.36 618.633 1219.97C612.105 1226.43 605.441 1231.12 595.105 1236.29C593.065 1232.48 592.181 1231.26 589.053 1228.06C604.965 1221.67 615.573 1212.49 623.189 1198.62C626.793 1192.02 629.309 1185.7 629.989 1181.35Z" fill="black"/>
<path d="M540.431 1197.06H529.211V1202.22C529.211 1212.63 528.055 1222.69 526.151 1229.15C524.791 1233.91 523.227 1237.04 520.643 1240.51C518.739 1237.86 517.039 1236.09 514.863 1234.39C520.235 1227.04 521.731 1219.36 521.731 1199.16C521.731 1195.29 521.663 1193.11 521.391 1190.46C523.907 1190.73 525.811 1190.8 528.939 1190.8H541.995V1182.91C541.995 1180.87 541.859 1179.31 541.587 1177.47H549.951C549.679 1178.7 549.611 1179.51 549.611 1181.48H563.211C566.543 1181.48 568.855 1181.35 571.031 1181.08V1187.88C568.923 1187.6 567.019 1187.54 563.415 1187.54H549.611V1190.8H566.815C571.031 1190.8 573.207 1190.73 574.567 1190.46L578.579 1194.74C578.307 1195.15 578.035 1195.56 577.627 1196.31C574.907 1201.34 573.819 1203.04 571.847 1205.62C570.215 1204.33 568.311 1203.31 565.455 1202.16C566.747 1200.73 568.039 1198.96 569.059 1197.06H547.571C547.571 1197.74 547.571 1197.74 547.571 1198.76V1201.75L559.879 1201.14C561.579 1201.07 563.279 1200.86 564.435 1200.66L564.503 1206.92C563.211 1206.78 563.211 1206.78 562.871 1206.78C561.919 1206.78 560.763 1206.85 559.811 1206.92L547.571 1207.46V1209.36C547.571 1210.66 547.775 1210.93 548.795 1211.13C550.087 1211.4 552.671 1211.47 557.635 1211.47C563.619 1211.47 565.319 1211.27 566.067 1210.52C566.679 1209.98 566.883 1208.62 566.883 1205.49C569.399 1206.64 571.303 1207.26 573.955 1207.73C573.547 1212.56 572.935 1214.33 571.507 1215.48C570.691 1216.16 569.535 1216.5 567.631 1216.71C564.639 1217.05 561.171 1217.18 557.703 1217.18C549.407 1217.18 544.443 1216.78 542.675 1215.96C541.111 1215.28 540.499 1214.12 540.499 1211.81V1207.87L535.467 1208.07C533.835 1208.21 532.339 1208.34 530.775 1208.55L530.707 1202.36C531.591 1202.43 532.407 1202.43 533.223 1202.43C533.563 1202.43 534.311 1202.43 535.535 1202.36L540.499 1202.09V1198.76C540.499 1198.42 540.499 1198.01 540.431 1197.06ZM539.071 1218.68L547.027 1219.36C546.891 1220.11 546.755 1220.52 546.619 1221.74C545.803 1228.13 544.035 1231.8 540.295 1235.2C537.711 1237.58 534.515 1239.35 530.027 1240.92C528.803 1238.33 528.055 1237.18 525.743 1234.32C529.755 1233.5 532.611 1232.28 534.855 1230.17C537.847 1227.45 539.139 1224.6 539.139 1220.58C539.139 1219.97 539.139 1219.36 539.071 1218.68ZM559.607 1224.8V1230.92C559.607 1232.76 559.947 1232.89 565.183 1232.89C568.923 1232.89 569.739 1232.62 570.147 1231.12C570.487 1229.9 570.623 1227.93 570.691 1223.64C573.071 1224.6 574.907 1225.07 577.967 1225.55C577.627 1232.76 577.151 1235.34 575.791 1236.97C574.159 1239.01 571.439 1239.62 563.959 1239.62C554.031 1239.62 552.195 1238.74 552.195 1233.84V1225C552.195 1222.28 552.127 1221.26 551.923 1219.36H559.947C559.675 1221.26 559.607 1222.62 559.607 1224.8Z" fill="black"/>
<path d="M477.885 1235.82V1231.4C475.165 1233.98 473.465 1234.93 470.677 1235.68C468.705 1236.22 466.529 1236.5 464.353 1236.5C456.057 1236.5 451.025 1232.21 451.025 1225.07C451.025 1220.31 454.017 1216.03 458.709 1214.06C463.129 1212.22 468.161 1211.54 477.885 1211.34V1207.87C477.885 1203.92 475.233 1201.88 470.065 1201.88C467.345 1201.88 464.557 1202.63 462.993 1203.86C461.701 1204.81 461.089 1205.76 460.273 1208.21L451.569 1206.64C453.133 1202.7 454.357 1200.93 456.941 1199.1C460.273 1196.65 464.081 1195.63 469.929 1195.63C476.457 1195.63 480.401 1196.78 483.325 1199.64C485.637 1201.82 486.521 1204.4 486.521 1209.02V1227.32C486.521 1230.92 486.657 1232.76 487.065 1235.82H477.885ZM477.885 1220.65V1217.25C464.897 1217.52 459.797 1219.77 459.797 1225.07C459.797 1228.27 462.177 1230.24 465.985 1230.24C469.589 1230.24 473.125 1228.88 475.437 1226.64C477.069 1225 477.885 1223.03 477.885 1220.65Z" fill="black"/>
<path d="M427.117 1186.31H436.841C436.569 1188.69 436.365 1191.62 436.365 1194.68V1196.78H439.221C442.417 1196.78 443.913 1196.72 446.089 1196.38V1204.4C443.845 1204.06 442.553 1203.99 439.425 1203.99H436.365V1225.07C436.365 1228.4 437.589 1229.63 440.853 1229.63C442.621 1229.63 443.709 1229.29 445.817 1228.13L447.041 1235.34C444.117 1236.43 442.077 1236.77 438.541 1236.77C430.721 1236.77 427.593 1233.98 427.593 1226.84V1203.99H425.009C422.493 1203.99 421.201 1204.06 418.957 1204.4V1196.38C420.929 1196.72 422.221 1196.78 425.077 1196.78H427.593V1194.68C427.593 1191.75 427.389 1188.76 427.117 1186.31Z" fill="black"/>
<path d="M417.624 1235.82H406.472C406.064 1233.57 405.316 1230.65 404.568 1228.68L401.848 1221.26H380.088L377.368 1228.68C376.144 1231.94 375.872 1232.96 375.328 1235.82H364.176C365.196 1233.98 366.556 1230.92 367.78 1227.79L382.74 1188.56C384.032 1185.16 384.576 1183.46 384.916 1181.69H396.748C397.088 1183.32 397.496 1184.41 399.06 1188.56L414.156 1227.79C415.856 1232.14 416.672 1234.05 417.624 1235.82ZM399.4 1213.44L392.124 1193.32C391.852 1192.57 391.648 1191.75 390.9 1189.51C389.812 1192.7 389.812 1192.7 389.608 1193.32L382.536 1213.44H399.4ZM378.116 1167.95H386.752V1176.66H378.116V1167.95ZM394.912 1167.95H403.548V1176.66H394.912V1167.95Z" fill="black"/>
</svg>
