<svg width="1080" height="1920" viewBox="0 0 1080 1920" fill="none" xmlns="http://www.w3.org/2000/svg">
<path d="M1080 1920L1080 0L0 0L0 1920H1080Z" fill="#A5D4AD"/>
<path d="M1020 983.72V95C1020 75.67 1004.33 60 985 60H95.58C75.93 60 60 75.93 60 95.58V983.71C60 984.03 60.25 984.28 60.57 984.28C80.03 984.59 95.71 1000.46 95.71 1019.99C95.71 1039.52 80.03 1055.39 60.57 1055.7C60.25 1055.7 60 1055.96 60 1056.27V1824.99C60 1844.32 75.67 1859.99 95 1859.99H985C1004.33 1859.99 1020 1844.32 1020 1824.99V1056.27C1020 1055.95 1019.75 1055.7 1019.43 1055.7C999.97 1055.39 984.29 1039.52 984.29 1019.99C984.29 1000.46 999.97 984.59 1019.43 984.28C1019.75 984.28 1020 984.02 1020 983.71V983.72Z" fill="white"/>
<path d="M60.57 1055.71C60.25 1055.71 60 1055.97 60 1056.28V1825C60 1844.33 75.67 1860 95 1860H985C1004.33 1860 1020 1844.33 1020 1825V1056.28C1020 1055.96 1019.75 1055.71 1019.43 1055.71C999.97 1055.4 984.29 1039.53 984.29 1020H95.71C95.71 1039.53 80.03 1055.4 60.57 1055.71Z" fill="#E5F2E6"/>
<path d="M121 1020H160.9" stroke="black" stroke-width="6" stroke-miterlimit="10"/>
<path d="M187.51 1020H227.41" stroke="black" stroke-width="6" stroke-miterlimit="10"/>
<path d="M254.02 1020H293.92" stroke="black" stroke-width="6" stroke-miterlimit="10"/>
<path d="M320.52 1020H360.43" stroke="black" stroke-width="6" stroke-miterlimit="10"/>
<path d="M387.029 1020H426.939" stroke="black" stroke-width="6" stroke-miterlimit="10"/>
<path d="M453.539 1020H493.439" stroke="black" stroke-width="6" stroke-miterlimit="10"/>
<path d="M520.051 1020H559.951" stroke="black" stroke-width="6" stroke-miterlimit="10"/>
<path d="M586.561 1020H626.461" stroke="black" stroke-width="6" stroke-miterlimit="10"/>
<path d="M653.061 1020H692.971" stroke="black" stroke-width="6" stroke-miterlimit="10"/>
<path d="M719.57 1020H759.48" stroke="black" stroke-width="6" stroke-miterlimit="10"/>
<path d="M786.08 1020H825.98" stroke="black" stroke-width="6" stroke-miterlimit="10"/>
<path d="M852.59 1020H892.49" stroke="black" stroke-width="6" stroke-miterlimit="10"/>
<path d="M919.1 1020H959" stroke="black" stroke-width="6" stroke-miterlimit="10"/>
<path d="M1020 984.29V95C1020 75.67 1004.33 60 985 60H95C75.67 60 60 75.67 60 95V984.29C79.72 984.29 95.71 1000.28 95.71 1020C95.71 1039.72 79.72 1055.71 60 1055.71V1825C60 1844.33 75.67 1860 95 1860H985C1004.33 1860 1020 1844.33 1020 1825V1055.71C1000.28 1055.71 984.29 1039.72 984.29 1020C984.29 1000.28 1000.28 984.29 1020 984.29Z" stroke="black" stroke-width="6" stroke-miterlimit="10"/>
<path d="M912.642 525.66C908.772 525.66 905.532 522.64 905.312 518.73C900.582 435.62 868.782 358.85 813.362 296.74C810.662 293.71 810.922 289.06 813.952 286.36C816.982 283.66 821.622 283.92 824.332 286.95C881.992 351.57 915.062 431.43 919.992 517.89C920.222 521.94 917.122 525.42 913.072 525.65C912.932 525.65 912.792 525.66 912.652 525.66H912.642Z" fill="black"/>
<path d="M818.842 795.509C817.102 795.509 815.352 794.889 813.952 793.639C810.922 790.939 810.662 786.289 813.362 783.259C868.782 721.149 900.582 644.379 905.312 561.269C905.542 557.219 909.022 554.109 913.072 554.349C917.122 554.579 920.222 558.049 919.992 562.109C915.062 648.579 881.992 728.439 824.332 793.049C822.882 794.679 820.862 795.509 818.842 795.509Z" fill="black"/>
<path d="M167.352 525.66C167.212 525.66 167.072 525.66 166.932 525.65C162.882 525.42 159.782 521.95 160.012 517.89C164.942 431.42 198.012 351.56 255.672 286.95C258.372 283.92 263.022 283.66 266.052 286.36C269.082 289.06 269.342 293.71 266.642 296.74C211.222 358.85 179.422 435.61 174.692 518.73C174.472 522.64 171.232 525.66 167.362 525.66H167.352Z" fill="black"/>
<path d="M261.162 795.509C259.142 795.509 257.122 794.679 255.672 793.049C198.012 728.429 164.942 648.569 160.012 562.109C159.782 558.059 162.882 554.579 166.932 554.349C170.982 554.109 174.462 557.219 174.692 561.269C179.422 644.389 211.222 721.149 266.642 783.259C269.342 786.289 269.082 790.939 266.052 793.639C264.652 794.889 262.902 795.509 261.162 795.509Z" fill="black"/>
<path d="M788.162 268.509C786.422 268.509 784.672 267.889 783.272 266.639C721.162 211.219 644.392 179.419 561.282 174.689C557.232 174.459 554.132 170.989 554.362 166.929C554.592 162.879 558.032 159.789 562.122 160.009C648.592 164.939 728.452 198.009 793.062 255.669C796.092 258.369 796.352 263.019 793.652 266.049C792.202 267.679 790.182 268.509 788.162 268.509Z" fill="black"/>
<path d="M291.842 268.51C289.822 268.51 287.802 267.68 286.352 266.05C283.652 263.02 283.912 258.37 286.942 255.67C351.562 198.01 431.422 164.94 517.882 160.01C521.932 159.78 525.412 162.88 525.642 166.93C525.872 170.98 522.772 174.46 518.722 174.69C435.612 179.42 358.842 211.22 296.732 266.64C295.332 267.89 293.582 268.51 291.842 268.51Z" fill="black"/>
<path d="M561.682 920C557.812 920 554.572 916.98 554.352 913.07C554.122 909.02 557.222 905.54 561.272 905.31C644.392 900.58 721.152 868.78 783.262 813.36C786.292 810.66 790.942 810.92 793.642 813.95C796.342 816.98 796.082 821.63 793.052 824.33C728.432 881.99 648.572 915.06 562.112 919.99C561.972 919.99 561.832 920 561.692 920H561.682Z" fill="black"/>
<path d="M518.312 920C518.172 920 518.032 920 517.892 919.99C431.422 915.06 351.562 881.99 286.952 824.33C283.922 821.63 283.662 816.98 286.362 813.95C289.062 810.92 293.712 810.66 296.742 813.36C358.852 868.78 435.622 900.58 518.732 905.31C522.782 905.54 525.882 909.01 525.652 913.07C525.432 916.98 522.192 920 518.322 920H518.312Z" fill="black"/>
<path d="M875.372 526.191C872.362 526.191 869.842 523.841 869.672 520.801C865.402 445.791 836.702 376.521 786.692 320.461C784.592 318.101 784.792 314.491 787.152 312.391C789.502 310.291 793.122 310.491 795.222 312.851C846.972 370.851 876.672 442.541 881.092 520.151C881.272 523.301 878.862 526.001 875.712 526.181C875.602 526.181 875.492 526.181 875.382 526.181L875.372 526.191Z" fill="black"/>
<path d="M790.952 769.062C789.592 769.062 788.242 768.582 787.152 767.612C784.792 765.512 784.592 761.892 786.692 759.542C836.702 703.492 865.402 634.212 869.672 559.202C869.852 556.052 872.542 553.642 875.702 553.822C878.852 554.002 881.262 556.702 881.082 559.852C876.662 637.472 846.972 709.152 795.212 767.152C794.082 768.422 792.512 769.062 790.942 769.062H790.952Z" fill="black"/>
<path d="M204.622 526.191C204.512 526.191 204.402 526.191 204.292 526.191C201.142 526.011 198.732 523.311 198.912 520.161C203.332 442.541 233.022 370.861 284.782 312.861C286.882 310.501 290.502 310.301 292.852 312.401C295.212 314.501 295.412 318.121 293.312 320.471C243.302 376.521 214.602 445.801 210.332 520.811C210.162 523.851 207.642 526.201 204.632 526.201L204.622 526.191Z" fill="black"/>
<path d="M289.042 769.061C287.472 769.061 285.902 768.411 284.772 767.151C233.022 709.151 203.322 637.461 198.902 559.851C198.722 556.701 201.132 554.001 204.282 553.821C207.442 553.631 210.132 556.051 210.312 559.201C214.582 634.211 243.282 703.491 293.292 759.541C295.392 761.901 295.192 765.511 292.832 767.611C291.742 768.581 290.382 769.061 289.032 769.061H289.042Z" fill="black"/>
<path d="M763.342 294.762C761.982 294.762 760.632 294.282 759.542 293.312C703.492 243.302 634.212 214.602 559.202 210.332C556.052 210.152 553.642 207.452 553.822 204.302C554.002 201.152 556.692 198.742 559.852 198.922C637.472 203.342 709.152 233.032 767.152 284.792C769.512 286.892 769.712 290.512 767.612 292.862C766.482 294.132 764.912 294.772 763.342 294.772V294.762Z" fill="black"/>
<path d="M316.651 294.761C315.081 294.761 313.511 294.111 312.381 292.851C310.281 290.491 310.481 286.881 312.841 284.781C370.841 233.031 442.531 203.331 520.141 198.911C523.291 198.721 525.991 201.141 526.171 204.291C526.351 207.441 523.941 210.141 520.791 210.321C445.781 214.591 376.511 243.291 320.451 293.301C319.361 294.271 318.001 294.751 316.651 294.751V294.761Z" fill="black"/>
<path d="M559.522 881.102C556.512 881.102 553.992 878.752 553.822 875.712C553.642 872.562 556.052 869.862 559.202 869.682C634.212 865.412 703.482 836.712 759.542 786.702C761.892 784.602 765.512 784.802 767.612 787.162C769.712 789.522 769.512 793.132 767.152 795.232C709.152 846.982 637.462 876.682 559.852 881.102C559.742 881.102 559.632 881.102 559.522 881.102Z" fill="black"/>
<path d="M520.481 881.102C520.371 881.102 520.261 881.102 520.151 881.102C442.531 876.682 370.851 846.992 312.851 795.232C310.491 793.132 310.291 789.512 312.391 787.162C314.491 784.802 318.111 784.602 320.461 786.702C376.511 836.722 445.791 865.412 520.801 869.682C523.951 869.862 526.361 872.562 526.181 875.712C526.011 878.752 523.491 881.102 520.481 881.102Z" fill="black"/>
<path d="M841.841 526.51C839.691 526.51 837.891 524.83 837.771 522.66C833.911 454.91 807.991 392.34 762.821 341.71C761.321 340.03 761.471 337.45 763.151 335.94C764.831 334.44 767.411 334.58 768.921 336.27C815.341 388.29 841.971 452.58 845.931 522.19C846.061 524.44 844.341 526.37 842.081 526.5C842.001 526.5 841.921 526.5 841.841 526.5V526.51Z" fill="black"/>
<path d="M765.862 745.101C764.892 745.101 763.922 744.761 763.142 744.061C761.462 742.561 761.312 739.981 762.812 738.291C807.982 687.661 833.902 625.091 837.762 557.341C837.892 555.091 839.852 553.391 842.072 553.491C844.322 553.621 846.042 555.551 845.922 557.801C841.952 627.411 815.322 691.701 768.912 743.721C768.102 744.621 766.982 745.081 765.862 745.081V745.101Z" fill="black"/>
<path d="M238.162 526.51C238.082 526.51 238.002 526.51 237.922 526.51C235.672 526.38 233.952 524.45 234.072 522.2C238.042 452.59 264.672 388.3 311.082 336.28C312.582 334.6 315.162 334.45 316.852 335.95C318.532 337.45 318.682 340.03 317.182 341.72C272.012 392.35 246.092 454.92 242.232 522.67C242.112 524.84 240.312 526.52 238.162 526.52V526.51Z" fill="black"/>
<path d="M314.131 745.101C313.011 745.101 311.891 744.641 311.081 743.741C264.661 691.721 238.031 627.431 234.071 557.821C233.941 555.571 235.661 553.641 237.921 553.511C240.161 553.401 242.101 555.101 242.231 557.361C246.091 625.111 272.011 687.681 317.181 738.311C318.681 739.991 318.531 742.571 316.851 744.081C316.071 744.771 315.101 745.121 314.131 745.121V745.101Z" fill="black"/>
<path d="M741.01 318.219C740.04 318.219 739.07 317.879 738.29 317.179C687.66 272.009 625.09 246.089 557.34 242.229C555.09 242.099 553.37 240.169 553.49 237.919C553.62 235.669 555.54 233.959 557.8 234.069C627.41 238.039 691.7 264.669 743.73 311.079C745.41 312.579 745.56 315.159 744.06 316.849C743.25 317.749 742.13 318.209 741.01 318.209V318.219Z" fill="black"/>
<path d="M338.991 318.22C337.871 318.22 336.751 317.76 335.941 316.86C334.441 315.18 334.591 312.6 336.271 311.09C388.291 264.67 452.581 238.04 522.191 234.08C524.441 233.96 526.371 235.67 526.501 237.93C526.631 240.18 524.91 242.11 522.65 242.24C454.9 246.1 392.331 272.02 341.701 317.19C340.921 317.88 339.951 318.23 338.981 318.23L338.991 318.22Z" fill="black"/>
<path d="M557.561 845.929C555.411 845.929 553.611 844.249 553.491 842.079C553.361 839.829 555.081 837.899 557.341 837.769C625.091 833.909 687.661 807.989 738.291 762.819C739.971 761.319 742.551 761.469 744.061 763.149C745.561 764.829 745.411 767.409 743.731 768.919C691.711 815.339 627.421 841.969 557.801 845.929C557.721 845.929 557.641 845.929 557.561 845.929Z" fill="black"/>
<path d="M522.431 845.929C522.351 845.929 522.271 845.929 522.191 845.929C452.581 841.959 388.291 815.329 336.271 768.919C334.591 767.419 334.441 764.839 335.941 763.149C337.441 761.469 340.021 761.319 341.711 762.819C392.341 807.989 454.911 833.909 522.661 837.769C524.911 837.899 526.631 839.829 526.511 842.079C526.391 844.249 524.591 845.929 522.441 845.929H522.431Z" fill="black"/>
<path d="M320.642 546.17C320.642 544.6 321.782 543.27 323.332 543.02C324.632 542.81 326.262 542.52 327.972 542.12C332.392 541.08 337.582 539.11 343.402 536.27C349.282 533.4 354.912 529.41 359.162 523.67C366.332 513.97 367.852 501.4 368.182 496.89C368.252 495.97 367.522 495.19 366.592 495.19H317.082C315.322 495.19 313.902 493.76 313.902 492.01V470.69C313.902 468.93 315.332 467.51 317.082 467.51H367.062C367.942 467.51 368.652 466.8 368.652 465.92V447.18C368.652 446.3 367.942 445.59 367.062 445.59H328.612C326.852 445.59 325.432 444.16 325.432 442.41V421.09C325.432 419.33 326.862 417.91 328.612 417.91H428.952C430.712 417.91 432.132 419.34 432.132 421.09V442.41C432.132 444.17 430.702 445.59 428.952 445.59H398.512C397.632 445.59 396.922 446.3 396.922 447.18V465.92C396.922 466.8 397.632 467.51 398.512 467.51H438.572C440.332 467.51 441.752 468.94 441.752 470.69V492.01C441.752 493.77 440.322 495.19 438.572 495.19H398.382C397.532 495.19 396.832 495.86 396.792 496.71C396.562 501.75 395.142 518.44 386.172 532.85C380.722 541.61 373.642 548.26 366.532 553.54C359.402 558.84 352.252 562.93 345.262 565.7C338.232 568.49 332.332 570.44 327.742 571.51C326.652 571.76 325.482 571.99 324.392 572.18C322.442 572.53 320.652 571.03 320.652 569.04V546.16L320.642 546.17Z" fill="black"/>
<path d="M474.542 546.52C474.542 545.06 475.542 543.79 476.952 543.43C485.202 541.36 488.922 540.11 496.832 536.32C496.832 536.32 500.882 534.21 504.922 531.3C517.102 522.54 525.212 510.63 525.212 510.63C534.672 497.28 537.762 474.91 538.482 468.49C538.592 467.55 537.852 466.72 536.902 466.72H500.572C500.342 466.72 500.132 466.84 500.022 467.04L499.872 467.29C494.292 478.11 486.872 487.99 480.442 494.24C473.992 500.5 468.582 505.05 464.372 507.75L461.772 509.42C460.712 510.1 459.322 509.34 459.322 508.08V479.89C459.322 478.95 459.742 478.06 460.462 477.45C461.112 476.9 461.982 476.13 463.172 475.06C465.932 472.57 469.042 468.51 472.412 462.98C475.752 457.51 479.342 450.21 483.062 441.29C486.442 433.2 488.972 423.09 490.852 412.06C491.112 410.53 492.442 409.42 493.992 409.42H513.902C515.902 409.42 517.412 411.25 517.032 413.21C516.392 416.52 515.702 420.88 514.842 424.31C513.572 429.39 512.752 432.3 511.232 436.72C510.972 437.47 511.532 438.24 512.322 438.24H591.172C592.932 438.24 594.352 439.67 594.352 441.42V463.51C594.352 465.27 592.922 466.69 591.172 466.69H568.132C567.322 466.69 566.632 467.3 566.552 468.11C565.922 474.01 562.872 497.16 552.382 517.26C538.282 546 508.132 566.39 478.332 572.13C476.372 572.51 474.552 571 474.552 569V546.48L474.542 546.52Z" fill="black"/>
<path d="M675.893 411.029V468.869C675.893 469.749 676.603 470.459 677.483 470.459H764.513C765.393 470.459 766.103 469.749 766.103 468.869V411.029C766.103 410.149 765.393 409.439 764.513 409.439H677.483C676.603 409.439 675.893 410.149 675.893 411.029ZM738.453 452.739H702.293C701.413 452.739 700.703 452.029 700.703 451.149V446.869C700.703 445.989 701.413 445.279 702.293 445.279H738.453C739.333 445.279 740.043 445.989 740.043 446.869V451.149C740.043 452.029 739.333 452.739 738.453 452.739ZM738.453 434.449H702.293C701.413 434.449 700.703 433.739 700.703 432.859V428.749C700.703 427.869 701.413 427.159 702.293 427.159H738.453C739.333 427.159 740.043 427.869 740.043 428.749V432.859C740.043 433.739 739.333 434.449 738.453 434.449Z" fill="black"/>
<path d="M674.222 497.34H728.262C729.142 497.34 729.852 498.05 729.852 498.93V502.84C729.852 503.72 729.142 504.43 728.262 504.43H667.752C665.992 504.43 664.572 505.86 664.572 507.61V522.86C664.572 524.62 666.002 526.04 667.752 526.04H728.262C729.142 526.04 729.852 526.75 729.852 527.63V545.39C729.852 546.11 729.932 547.98 729.212 548.85C728.382 549.87 727.142 549.67 725.842 549.72C722.532 549.72 719.572 549.7 716.942 549.66C716.542 549.66 716.252 549.29 716.332 548.9C716.592 547.63 716.722 546.31 716.692 544.96C716.492 535.68 708.932 528.08 699.652 527.84C689.572 527.58 681.362 535.85 681.702 545.94C682.012 555.29 689.782 562.81 699.142 562.84C704.032 562.85 708.452 560.86 711.632 557.64C711.972 557.3 712.542 557.43 712.692 557.88C714.152 562.21 715.532 566.34 716.782 570.05C717.222 571.35 718.452 572.22 719.822 572.21C725.722 572.17 730.502 571.96 734.172 571.6C738.302 571.18 742.082 570.15 745.512 568.5C749.172 566.84 751.682 564.42 753.042 561.23C754.402 558.04 755.082 553.55 755.082 547.76V527.62C755.082 526.74 755.792 526.03 756.672 526.03H762.902C764.662 526.03 766.082 524.6 766.082 522.85V507.6C766.082 505.84 764.652 504.42 762.902 504.42H756.672C755.792 504.42 755.082 503.71 755.082 502.83V498.92C755.082 498.04 755.792 497.33 756.672 497.33H762.902C764.662 497.33 766.082 495.9 766.082 494.15V479.6C766.082 477.84 764.652 476.42 762.902 476.42H674.202C672.442 476.42 671.022 477.85 671.022 479.6V494.15C671.022 495.91 672.452 497.33 674.202 497.33L674.222 497.34Z" fill="black"/>
<path d="M668.822 409.439H650.252C649.392 409.439 648.572 409.789 647.972 410.399C635.222 423.349 618.282 434.569 612.122 438.479C610.772 439.329 610.272 441.059 610.942 442.499L620.692 463.569C621.622 465.569 624.252 466.049 625.822 464.499C646.112 444.459 664.442 419.799 670.112 411.959C670.872 410.909 670.112 409.439 668.822 409.439Z" fill="black"/>
<path d="M671.912 453.889V435.409C671.912 433.999 670.212 433.289 669.202 434.279C653.632 449.599 620.042 477.059 611.672 483.859C610.542 484.779 610.182 486.349 610.792 487.669L620.692 509.049C621.622 511.049 624.252 511.529 625.822 509.979C627.532 508.289 629.232 506.559 630.912 504.819C631.312 504.409 632.012 504.689 632.012 505.259V569.059C632.012 570.819 633.442 572.239 635.192 572.239H653.812C655.572 572.239 656.992 570.809 656.992 569.059V476.369C656.992 475.299 657.352 474.249 658.022 473.409C664.862 464.729 669.712 458.019 671.332 455.739C671.712 455.199 671.922 454.559 671.922 453.889H671.912Z" fill="black"/>
<path d="M653.263 623.33C640.843 623.33 634.803 628.28 634.803 638.47V655.6C634.803 665.67 640.843 670.56 653.263 670.56C659.133 670.56 663.473 669.48 666.553 667.27C669.993 664.8 671.733 660.87 671.733 655.59V638.46C671.733 628.27 665.693 623.32 653.273 623.32L653.263 623.33ZM646.083 639.3C646.083 633.93 648.833 632.91 653.263 632.91C657.693 632.91 660.443 633.95 660.443 639.3V654.68C660.443 659.95 657.593 660.98 653.263 660.98C648.933 660.98 646.083 659.98 646.083 654.68V639.3Z" fill="black"/>
<path d="M708.262 669.331H721.352L703.622 646.781L720.552 624.8H707.392L694.052 642.281V610.23H682.762V669.331H694.052V659.211L696.942 655.451L708.262 669.331Z" fill="black"/>
<path d="M754.812 624.801V653.291C754.812 659.041 751.872 660.891 746.822 660.891C743.552 660.891 740.272 660.351 740.272 653.881V624.811H728.992V656.771C728.992 665.741 733.702 670.481 742.612 670.481C749.292 670.481 753.872 666.861 755.572 662.801L757.382 669.341H766.102V624.811H754.822L754.812 624.801Z" fill="black"/>
<path d="M630.563 610.23H589.143V620.141V620.151H604.213V669.331H615.683V620.151H630.563V610.23Z" fill="black"/>
<path d="M459.681 669.331H472.771L455.041 646.781L471.971 624.8H458.811L445.471 642.281V610.23H434.191V669.331H445.471V659.211L448.361 655.451L459.681 669.331Z" fill="black"/>
<path d="M355.322 610.23H313.902V620.141V620.151H328.982V669.331H340.442V620.151H355.322V610.23Z" fill="black"/>
<path d="M421.792 658.89L421.192 659.04C417.612 659.96 413.282 660.89 409.402 660.89C404.852 660.89 401.682 658.82 401.682 652.83V640.97C401.682 634.9 404.852 632.82 409.402 632.82C413.352 632.82 417.872 633.7 421.222 634.4L421.802 634.52V625.19L421.492 625.12C417.682 624.23 412.042 623.33 407.522 623.33C402.002 623.33 397.962 624.4 395.162 626.59C391.962 629.09 390.412 633.85 390.412 639.34V654.64C390.412 664.77 396.012 670.56 407.532 670.56C411.402 670.56 417.262 669.49 421.522 668.31L421.812 668.23V658.88L421.792 658.89Z" fill="black"/>
<path d="M553.922 634.699V624.799H543.682V615.189H532.402V624.799H525.172V634.699H532.402V655.419C532.402 667.939 540.292 670.559 546.922 670.559C548.702 670.559 550.502 670.449 552.112 670.219V660.259C551.462 660.329 550.252 660.359 549.532 660.359C546.452 660.359 543.682 659.729 543.682 652.089V634.689H553.922V634.699Z" fill="black"/>
<path d="M489.733 650.741V650.561H515.163V641.481C515.163 635.571 513.543 630.241 510.353 627.341C507.413 624.671 502.773 623.311 497.253 623.311C485.073 623.311 478.453 629.221 478.453 639.591V654.451C478.453 664.701 483.833 670.551 496.313 670.551C500.973 670.551 506.283 669.561 511.963 668.401L512.353 668.321V659.051L511.703 659.201C507.133 660.251 504.613 661.141 500.283 661.141C494.073 661.141 489.733 658.621 489.733 652.201V650.721V650.741ZM489.733 639.721C489.733 634.071 493.793 632.741 497.163 632.741C500.533 632.741 504.063 634.071 504.063 639.721V643.231H489.733V642.711V639.721Z" fill="black"/>
<path d="M378.173 626.881H366.893V669.331H378.173V626.881Z" fill="black"/>
<path d="M372.532 622.22C376.415 622.22 379.562 619.073 379.562 615.19C379.562 611.308 376.415 608.16 372.532 608.16C368.649 608.16 365.502 611.308 365.502 615.19C365.502 619.073 368.649 622.22 372.532 622.22Z" fill="black"/>
<path d="M585.733 643.92H566.143V651.26H585.733V643.92Z" fill="black"/>
<path d="M729.434 1636.04L720.026 1646.23C711.892 1636.24 700.622 1625.26 689.94 1617.13C678.866 1629.48 667.596 1638.1 652.602 1645.45C649.858 1640.35 648.682 1638.79 644.664 1634.57C652.21 1631.63 656.914 1628.99 664.264 1623.79C679.062 1613.4 690.822 1599.19 697.192 1583.91L698.27 1581.36C696.702 1581.46 696.702 1581.46 665.832 1581.95C661.128 1582.04 658.482 1582.24 655.15 1582.73L654.758 1570.19C657.502 1570.68 659.364 1570.77 663.382 1570.77C663.774 1570.77 664.558 1570.77 665.734 1570.77L700.23 1570.28C705.718 1570.19 706.502 1570.09 708.952 1569.21L715.42 1575.87C714.146 1577.34 713.362 1578.71 712.284 1581.16C707.776 1591.65 702.974 1600.17 696.996 1608.21C703.17 1612.33 708.462 1616.44 715.126 1622.42C717.576 1624.58 717.576 1624.58 729.434 1636.04Z" fill="black"/>
<path d="M569.302 1576.26V1596.06C584.1 1593.31 605.758 1584.59 612.128 1578.61L619.968 1589.69C619.282 1589.98 616.342 1591.35 611.148 1593.9C597.82 1600.27 584.1 1604.68 569.302 1607.43V1620.36C569.204 1620.85 569.204 1621.34 569.204 1621.64C569.204 1627.32 569.596 1629.57 570.968 1630.95C572.634 1632.71 578.22 1633.49 587.726 1633.49C594.292 1633.49 603.308 1632.91 610.462 1631.93C615.166 1631.34 617.322 1630.85 621.634 1629.57L622.222 1642.61C620.164 1642.61 619.674 1642.71 609.286 1643.69C603.504 1644.27 591.156 1644.86 585.178 1644.86C572.83 1644.86 566.068 1643.59 562.246 1640.65C559.502 1638.59 558.032 1635.45 557.444 1630.65C557.248 1628.99 557.15 1627.32 557.15 1621.64L557.052 1576.16C557.052 1571.17 557.052 1569.6 556.66 1567.15H569.792C569.4 1569.5 569.302 1571.26 569.302 1576.26ZM608.894 1565.68L615.852 1562.54C619.772 1566.95 622.418 1570.97 625.652 1577.44L618.596 1580.67C615.558 1574.4 613.01 1570.48 608.894 1565.68ZM637.51 1571.46L630.552 1574.99C627.906 1569.6 624.868 1564.89 621.144 1560.39L627.906 1557.25C632.218 1562.15 634.864 1565.97 637.51 1571.46Z" fill="black"/>
<path d="M448.957 1612.23V1598.61C453.269 1599.19 455.131 1599.29 464.833 1599.29H517.067C526.769 1599.29 528.631 1599.19 532.943 1598.61V1612.23C529.023 1611.74 527.945 1611.74 516.969 1611.74H464.931C453.955 1611.74 452.877 1611.74 448.957 1612.23Z" fill="black"/>
<path d="M380.162 1582.63H405.642L405.74 1578.22V1575.09C405.74 1568.62 405.642 1566.46 405.25 1564.21H417.892C417.598 1566.46 417.5 1566.95 417.5 1570.77C417.5 1576.75 417.5 1576.75 417.402 1582.63H423.674C430.632 1582.63 432.592 1582.53 436.414 1581.95V1593.9C432.984 1593.51 430.338 1593.41 423.87 1593.41H417.304C417.108 1605.17 417.108 1605.86 416.618 1609.58C415.246 1622.13 411.032 1630.46 402.506 1637.71C397.214 1642.22 392.412 1644.76 383.396 1648C381.534 1643.78 380.26 1641.92 376.046 1637.61C385.356 1634.77 390.06 1632.42 394.764 1628.3C401.428 1622.52 404.27 1616.05 405.152 1604.78C405.348 1602.53 405.348 1600.17 405.544 1593.41H380.162V1608.11C380.162 1612.23 380.26 1613.8 380.554 1616.34H367.814C368.108 1614.19 368.206 1611.54 368.206 1607.92V1593.41H362.228C355.76 1593.41 353.114 1593.51 349.684 1593.9V1581.95C353.506 1582.53 355.466 1582.63 362.424 1582.63H368.206V1572.83C368.206 1568.72 368.108 1566.66 367.716 1564.11H380.554C380.162 1567.34 380.162 1567.54 380.162 1572.54V1582.63Z" fill="black"/>
<path d="M752.362 1447.11L758.634 1453.28C757.654 1454.75 757.262 1455.63 756.184 1459.16C751.676 1474.06 744.718 1487.29 736.094 1496.99C727.078 1507.28 716.298 1514.92 701.206 1521.88C698.462 1516.98 697.188 1515.31 692.876 1511.59C702.676 1507.57 708.164 1504.63 714.338 1500.03C728.352 1489.64 737.564 1476.21 742.954 1458.67L713.456 1459.16C707.478 1468.67 699.834 1477.09 690.524 1484.25C687.584 1480.23 686.114 1478.96 681.018 1475.82C692.19 1468.18 699.246 1460.34 706.4 1447.4C709.438 1441.81 711.006 1437.99 711.398 1434.46L724.824 1437.11C724.236 1437.99 724.236 1437.99 723.158 1440.15C722.864 1440.64 722.864 1440.64 721.884 1442.89C721.59 1443.48 721.59 1443.48 720.61 1445.44C720.022 1446.81 720.022 1446.81 719.042 1448.58C720.316 1448.48 721.884 1448.38 723.746 1448.38L745.208 1448.09C749.03 1448.09 750.108 1447.89 752.362 1447.11Z" fill="black"/>
<path d="M586.841 1453.08L594.975 1443.38C606.637 1450.63 612.713 1455.14 620.259 1462.3L611.831 1472.98C603.991 1464.65 595.955 1458.18 586.841 1453.08ZM590.271 1517.76L586.645 1504.24C595.073 1503.75 606.735 1500.91 615.653 1496.99C627.903 1491.7 637.017 1484.15 644.759 1472.98C649.071 1466.71 651.815 1461.32 654.755 1453.38C658.577 1457.98 660.145 1459.45 665.143 1462.98C656.813 1480.92 647.503 1492.48 634.077 1501.4C624.081 1508.06 611.929 1512.86 596.739 1516.1C592.819 1516.88 592.525 1516.98 590.271 1517.76Z" fill="black"/>
<path d="M496.875 1438.68L510.203 1438.78C509.811 1441.52 509.811 1442.4 509.811 1447.6V1474.64C509.811 1479.54 509.811 1480.82 510.203 1483.27H496.777C497.071 1481.01 497.267 1477.98 497.267 1474.45V1447.5C497.267 1442.5 497.169 1441.23 496.875 1438.68ZM541.073 1438.87H554.695C554.303 1441.32 554.205 1442.4 554.205 1447.99V1461.22C554.107 1476.51 553.421 1484.74 551.657 1490.91C548.815 1500.71 542.543 1508.06 532.351 1513.75C527.157 1516.69 522.257 1518.65 513.241 1521.29C511.477 1516.49 510.497 1514.82 506.381 1509.63C515.985 1507.77 521.669 1505.71 527.549 1501.79C536.761 1495.71 539.995 1489.74 541.073 1476.8C541.465 1472.59 541.563 1468.27 541.563 1460.43V1448.18C541.563 1443.19 541.465 1441.13 541.073 1438.87Z" fill="black"/>
<path d="M416.614 1520.41H403.188C403.579 1517.67 403.775 1515.02 403.775 1509.43V1446.62C403.677 1440.93 403.579 1438.97 403.188 1436.62H416.614C416.32 1439.27 416.221 1441.13 416.221 1446.91V1465.14C427.589 1468.86 445.23 1477.09 460.714 1485.82L453.854 1497.38C446.994 1492.48 433.078 1484.93 419.161 1478.66C416.907 1477.58 416.613 1477.49 415.829 1477C416.124 1479.74 416.221 1481.41 416.221 1483.66V1509.53C416.221 1514.82 416.32 1517.57 416.614 1520.41ZM436.703 1445.15L443.564 1441.72C447.876 1446.32 450.521 1450.05 453.854 1456.12L446.993 1459.75C443.76 1453.77 441.015 1449.85 436.703 1445.15ZM465.516 1449.75L458.754 1453.57C455.814 1448.18 452.58 1443.58 448.758 1439.36L455.324 1435.93C459.734 1440.44 462.478 1444.17 465.516 1449.75Z" fill="black"/>
<path d="M353.021 1517.18H338.223C338.811 1513.35 339.007 1509.53 339.007 1504.44V1450.44H334.303C330.677 1450.44 327.835 1450.63 324.209 1451.03V1438.58C327.247 1439.07 329.403 1439.17 334.009 1439.17H343.025C348.023 1439.17 349.493 1439.07 353.021 1438.68C352.433 1444.46 352.237 1448.97 352.237 1454.85V1504.44C352.237 1509.63 352.433 1513.16 353.021 1517.18Z" fill="black"/>
<path d="M711.7 1258.15V1284.87C711.7 1288.95 711.836 1291.33 712.108 1293.24H704.084C704.356 1291.06 704.492 1288.68 704.492 1284.8V1240.26C704.492 1236.66 704.424 1234.76 704.22 1232.58C706.192 1232.78 707.756 1232.85 711.156 1232.85H723.192C726.728 1232.85 728.292 1232.78 730.128 1232.58C729.992 1234.48 729.924 1236.25 729.924 1238.9V1252.23C729.924 1255.43 729.992 1256.79 730.128 1258.28C728.496 1258.22 726.252 1258.15 723.872 1258.15H711.7ZM711.7 1238.77V1243.12H723.26V1238.77H711.7ZM711.7 1248.42V1252.71H723.26V1248.42H711.7ZM760.932 1240.2V1284.8C760.932 1291.33 759.096 1292.56 749.304 1292.56C748.08 1292.56 746.516 1292.49 743.728 1292.42C743.32 1289.16 742.844 1287.25 741.892 1285.01C745.292 1285.42 748.012 1285.62 751.072 1285.62C753.18 1285.62 753.656 1285.35 753.656 1283.92V1258.22H740.872C738.424 1258.22 736.044 1258.28 734.616 1258.42C734.752 1256.86 734.82 1255.16 734.82 1252.23V1238.9C734.82 1236.59 734.752 1234.69 734.616 1232.58C736.588 1232.78 738.016 1232.85 741.552 1232.85H754.2C757.668 1232.85 759.232 1232.78 761.272 1232.58C761 1234.96 760.932 1236.8 760.932 1240.2ZM741.62 1238.77V1243.12H753.656V1238.77H741.62ZM741.62 1248.42V1252.71H753.656V1248.42H741.62Z" fill="black"/>
<path d="M679.061 1234.35L688.445 1237.54C687.697 1238.97 687.697 1238.97 686.065 1243.39C681.373 1255.56 675.321 1265.36 667.705 1272.97C661.177 1279.43 654.513 1284.12 644.177 1289.29C642.137 1285.48 641.253 1284.26 638.125 1281.06C654.037 1274.67 664.645 1265.49 672.261 1251.62C675.865 1245.02 678.381 1238.7 679.061 1234.35Z" fill="black"/>
<path d="M589.506 1250.06H578.286V1255.22C578.286 1265.63 577.129 1275.69 575.225 1282.15C573.865 1286.91 572.301 1290.04 569.717 1293.51C567.813 1290.86 566.114 1289.09 563.938 1287.39C569.31 1280.04 570.805 1272.36 570.805 1252.16C570.805 1248.29 570.737 1246.11 570.465 1243.46C572.982 1243.73 574.886 1243.8 578.014 1243.8H591.07V1235.91C591.07 1233.87 590.933 1232.31 590.661 1230.47H599.025C598.753 1231.7 598.686 1232.51 598.686 1234.48H612.286C615.618 1234.48 617.929 1234.35 620.105 1234.08V1240.88C617.997 1240.6 616.093 1240.54 612.489 1240.54H598.686V1243.8H615.89C620.106 1243.8 622.281 1243.73 623.641 1243.46L627.653 1247.74C627.381 1248.15 627.109 1248.56 626.701 1249.31C623.981 1254.34 622.893 1256.04 620.921 1258.62C619.289 1257.33 617.385 1256.31 614.529 1255.16C615.821 1253.73 617.114 1251.96 618.133 1250.06H596.645C596.645 1250.74 596.645 1250.74 596.645 1251.76V1254.75L608.954 1254.14C610.654 1254.07 612.354 1253.86 613.51 1253.66L613.577 1259.92C612.285 1259.78 612.285 1259.78 611.945 1259.78C610.993 1259.78 609.837 1259.85 608.885 1259.92L596.645 1260.46V1262.36C596.645 1263.66 596.849 1263.93 597.869 1264.13C599.161 1264.4 601.745 1264.47 606.709 1264.47C612.693 1264.47 614.393 1264.27 615.141 1263.52C615.753 1262.98 615.958 1261.62 615.958 1258.49C618.474 1259.64 620.377 1260.26 623.029 1260.73C622.621 1265.56 622.009 1267.33 620.581 1268.48C619.765 1269.16 618.609 1269.5 616.705 1269.71C613.713 1270.05 610.245 1270.18 606.777 1270.18C598.481 1270.18 593.517 1269.78 591.749 1268.96C590.185 1268.28 589.574 1267.12 589.574 1264.81V1260.87L584.541 1261.07C582.909 1261.21 581.414 1261.34 579.85 1261.55L579.781 1255.36C580.665 1255.43 581.482 1255.43 582.298 1255.43C582.638 1255.43 583.385 1255.43 584.609 1255.36L589.574 1255.09V1251.76C589.574 1251.42 589.574 1251.01 589.506 1250.06ZM588.145 1271.68L596.101 1272.36C595.965 1273.11 595.829 1273.52 595.693 1274.74C594.877 1281.13 593.109 1284.8 589.369 1288.2C586.785 1290.58 583.589 1292.35 579.101 1293.92C577.877 1291.33 577.129 1290.18 574.817 1287.32C578.829 1286.5 581.685 1285.28 583.929 1283.17C586.921 1280.45 588.213 1277.6 588.213 1273.58C588.213 1272.97 588.213 1272.36 588.145 1271.68ZM608.682 1277.8V1283.92C608.682 1285.76 609.021 1285.89 614.257 1285.89C617.997 1285.89 618.813 1285.62 619.221 1284.12C619.561 1282.9 619.697 1280.93 619.765 1276.64C622.145 1277.6 623.981 1278.07 627.041 1278.55C626.701 1285.76 626.225 1288.34 624.865 1289.97C623.233 1292.01 620.513 1292.62 613.033 1292.62C603.105 1292.62 601.269 1291.74 601.269 1286.84V1278C601.269 1275.28 601.201 1274.26 600.997 1272.36H609.021C608.749 1274.26 608.682 1275.62 608.682 1277.8Z" fill="black"/>
<path d="M501.172 1269.64H495.936C490.836 1269.71 490.836 1269.71 489.408 1269.91V1263.11C490.632 1263.32 492.876 1263.38 496.276 1263.38H506.544V1258.96H488.32C487.98 1268.21 487.64 1271.68 486.28 1277.32C484.648 1284.46 482.608 1288.95 479.072 1293.44C477.508 1291.2 476.148 1289.84 473.428 1287.86C476.624 1283.92 478.256 1280.18 479.684 1273.18C480.568 1268.82 481.18 1260.32 481.18 1251.96C481.18 1246.04 481.18 1245.09 480.84 1242.71C482.404 1242.92 484.716 1242.98 488.388 1242.98H526.06C529.052 1242.98 530.752 1242.92 532.248 1242.78C532.112 1244.07 532.044 1245.3 532.044 1247.61V1254C532.044 1256.45 532.112 1257.94 532.248 1259.17C530.48 1259.03 528.508 1258.96 526.128 1258.96H513.684V1263.38H529.052C532.316 1263.38 534.152 1263.32 535.92 1263.04V1269.91C533.88 1269.71 532.18 1269.64 529.052 1269.64H508.584C508.312 1271.48 508.176 1272.29 507.904 1273.86H524.972C528.372 1273.86 529.528 1273.79 531.024 1273.58C530.888 1274.67 530.888 1274.67 530.344 1280.25C529.324 1291.47 527.828 1292.9 517.22 1292.9C515.996 1292.9 515.996 1292.9 510.896 1292.62C510.76 1289.9 510.488 1288.61 509.332 1285.69C512.596 1286.16 515.52 1286.37 518.376 1286.37C520.144 1286.37 521.232 1286.03 521.776 1285.28C522.116 1284.8 522.456 1283.58 522.592 1282.08C522.592 1282.08 522.728 1281.34 522.864 1279.91H505.796C502.464 1286.3 497.432 1290.72 489.408 1294.12C488.456 1291.74 487.164 1289.97 484.92 1287.86C490.7 1285.96 494.168 1283.65 497.092 1279.91C499.336 1277.12 500.832 1273.31 501.172 1269.64ZM488.388 1253.05H524.836V1248.97H488.456V1250.53C488.456 1251.76 488.456 1252.3 488.388 1253.05ZM536.532 1232.58V1239.92C534.084 1239.65 531.772 1239.58 528.44 1239.58H484.784C481.18 1239.58 479.004 1239.65 476.692 1239.92V1232.58C478.8 1232.85 481.384 1232.99 485.056 1232.99H528.1C532.044 1232.99 534.696 1232.85 536.532 1232.58Z" fill="black"/>
<path d="M433.511 1256.52V1243.39C423.923 1244.48 421.543 1244.68 413.587 1245.02C413.043 1242.3 412.295 1240.47 410.799 1237.88C425.623 1237.82 439.835 1236.18 450.171 1233.26C453.775 1232.31 455.611 1231.56 457.651 1230.4L462.751 1237.2C460.507 1237.75 460.439 1237.82 458.399 1238.36C451.191 1240.47 447.451 1241.35 441.535 1242.3V1256.52H460.847C464.383 1256.52 466.627 1256.38 468.735 1256.04V1264C466.287 1263.66 464.043 1263.52 460.915 1263.52H441.535V1285.55C441.535 1289.7 441.671 1291.74 442.011 1293.92H433.035C433.375 1291.6 433.511 1289.56 433.511 1285.42V1263.52H415.287C412.159 1263.52 410.119 1263.66 407.535 1264V1256.04C409.847 1256.38 411.955 1256.52 415.287 1256.52H433.511Z" fill="black"/>
<path d="M350.143 1260.12L344.975 1260.53C344.907 1269.84 344.771 1271.88 343.819 1276.78C342.595 1282.9 340.555 1287.93 337.155 1293.17C335.387 1291.2 333.891 1290.04 330.899 1288.48C334.299 1283.65 335.659 1280.86 336.679 1276.71C337.631 1272.97 338.107 1265.63 338.107 1255.9C338.107 1249.31 338.039 1246.79 337.699 1243.26C340.351 1243.53 341.983 1243.6 345.451 1243.6H351.911V1236.39C351.911 1233.94 351.843 1232.72 351.503 1230.95H359.459C359.187 1232.17 359.119 1232.85 359.051 1234.69H367.959C371.359 1234.69 373.603 1234.55 375.779 1234.35V1240.81C373.467 1240.6 371.223 1240.54 368.095 1240.54H359.051V1243.6H366.259C370.679 1243.6 372.719 1243.53 374.079 1243.26L378.907 1247.06C378.499 1248.02 377.751 1249.78 377.139 1251.28C376.255 1253.66 375.575 1255.09 374.283 1257.67C372.107 1256.38 370.407 1255.7 368.027 1255.09C369.251 1253.39 369.455 1252.91 371.019 1249.65H356.739V1253.86L362.451 1253.39C364.899 1253.18 365.715 1253.12 367.551 1252.78L367.687 1258.96C367.007 1258.96 366.803 1258.96 366.055 1258.96C364.899 1258.96 363.947 1258.96 363.063 1259.03L356.739 1259.58V1261.28C356.739 1262.98 357.487 1263.18 363.131 1263.18C370.543 1263.18 370.747 1263.04 370.815 1258.01C372.583 1259.03 374.079 1259.64 376.799 1260.39C376.391 1264.47 376.119 1265.36 374.895 1266.65C373.263 1268.35 370.611 1268.82 362.383 1268.82C351.911 1268.82 350.143 1268.08 350.143 1263.59V1260.12ZM350.143 1254.34V1250.06V1249.65H344.975V1254.75L350.143 1254.34ZM323.555 1241.15H321.787C319.271 1241.15 318.387 1241.22 316.823 1241.49V1233.94C318.659 1234.21 320.359 1234.35 322.807 1234.35H331.035C333.483 1234.35 335.319 1234.21 337.087 1233.94V1241.42C335.523 1241.22 334.503 1241.15 332.327 1241.15H330.627V1254H331.783C333.619 1254 334.707 1253.86 336.135 1253.66V1261C334.639 1260.8 333.483 1260.73 331.647 1260.73H330.627V1273.86C332.463 1273.18 333.007 1272.97 335.319 1272.02L335.455 1278.62C331.443 1280.66 327.091 1282.42 320.087 1284.94C318.727 1285.42 318.115 1285.69 317.299 1286.1L315.871 1278.28C317.299 1278.14 319.271 1277.6 323.555 1276.3V1260.73H322.331C320.495 1260.73 319.135 1260.8 317.775 1261.07V1253.66C319.339 1253.86 320.563 1254 322.399 1254H323.555V1241.15ZM349.599 1270.46L356.875 1270.73C356.739 1271.61 356.739 1271.61 356.535 1274.47C356.127 1280.11 355.311 1283.17 353.271 1286.5C351.707 1289.16 350.075 1290.79 346.199 1293.44C343.411 1290.18 343.275 1290.04 340.827 1288.41C347.287 1285.28 349.735 1280.93 349.735 1272.63C349.735 1271.88 349.667 1271.48 349.599 1270.46ZM360.207 1270.86H367.619C367.415 1272.29 367.279 1273.99 367.279 1275.76V1284.4C367.279 1285.62 367.687 1285.89 369.727 1285.89C372.991 1285.89 372.991 1285.89 373.127 1277.53C375.303 1278.75 376.459 1279.16 379.247 1279.7C379.111 1285.76 378.499 1288.88 377.139 1290.45C375.915 1291.88 374.011 1292.28 368.911 1292.28C361.975 1292.28 360.547 1291.33 360.547 1286.91V1275.76C360.547 1273.79 360.479 1272.63 360.207 1270.86Z" fill="black"/>
</svg>
