<svg width="1080" height="1920" viewBox="0 0 1080 1920" fill="none" xmlns="http://www.w3.org/2000/svg">
<path d="M1080 1920L1080 0L0 0L0 1920H1080Z" fill="#A5D4AD"/>
<path d="M1020 983.72V95C1020 75.67 1004.33 60 985 60H95.58C75.93 60 60 75.93 60 95.58V983.71C60 984.03 60.25 984.28 60.57 984.28C80.03 984.59 95.71 1000.46 95.71 1019.99C95.71 1039.52 80.03 1055.39 60.57 1055.7C60.25 1055.7 60 1055.96 60 1056.27V1824.99C60 1844.32 75.67 1859.99 95 1859.99H985C1004.33 1859.99 1020 1844.32 1020 1824.99V1056.27C1020 1055.95 1019.75 1055.7 1019.43 1055.7C999.97 1055.39 984.29 1039.52 984.29 1019.99C984.29 1000.46 999.97 984.59 1019.43 984.28C1019.75 984.28 1020 984.02 1020 983.71V983.72Z" fill="white"/>
<path d="M60.57 1055.71C60.25 1055.71 60 1055.97 60 1056.28V1825C60 1844.33 75.67 1860 95 1860H985C1004.33 1860 1020 1844.33 1020 1825V1056.28C1020 1055.96 1019.75 1055.71 1019.43 1055.71C999.97 1055.4 984.29 1039.53 984.29 1020H95.71C95.71 1039.53 80.03 1055.4 60.57 1055.71Z" fill="#E5F2E6"/>
<path d="M121 1020H160.9" stroke="black" stroke-width="6" stroke-miterlimit="10"/>
<path d="M187.51 1020H227.41" stroke="black" stroke-width="6" stroke-miterlimit="10"/>
<path d="M254.02 1020H293.92" stroke="black" stroke-width="6" stroke-miterlimit="10"/>
<path d="M320.52 1020H360.43" stroke="black" stroke-width="6" stroke-miterlimit="10"/>
<path d="M387.03 1020H426.94" stroke="black" stroke-width="6" stroke-miterlimit="10"/>
<path d="M453.54 1020H493.44" stroke="black" stroke-width="6" stroke-miterlimit="10"/>
<path d="M520.05 1020H559.95" stroke="black" stroke-width="6" stroke-miterlimit="10"/>
<path d="M586.56 1020H626.46" stroke="black" stroke-width="6" stroke-miterlimit="10"/>
<path d="M653.06 1020H692.97" stroke="black" stroke-width="6" stroke-miterlimit="10"/>
<path d="M719.57 1020H759.48" stroke="black" stroke-width="6" stroke-miterlimit="10"/>
<path d="M786.08 1020H825.98" stroke="black" stroke-width="6" stroke-miterlimit="10"/>
<path d="M852.59 1020H892.49" stroke="black" stroke-width="6" stroke-miterlimit="10"/>
<path d="M919.1 1020H959" stroke="black" stroke-width="6" stroke-miterlimit="10"/>
<path d="M1020 984.29V95C1020 75.67 1004.33 60 985 60H95C75.67 60 60 75.67 60 95V984.29C79.72 984.29 95.71 1000.28 95.71 1020C95.71 1039.72 79.72 1055.71 60 1055.71V1825C60 1844.33 75.67 1860 95 1860H985C1004.33 1860 1020 1844.33 1020 1825V1055.71C1000.28 1055.71 984.29 1039.72 984.29 1020C984.29 1000.28 1000.28 984.29 1020 984.29Z" stroke="black" stroke-width="6" stroke-miterlimit="10"/>
<path d="M912.642 525.66C908.772 525.66 905.532 522.64 905.312 518.73C900.582 435.62 868.782 358.85 813.362 296.74C810.662 293.71 810.922 289.06 813.952 286.36C816.982 283.66 821.622 283.92 824.332 286.95C881.992 351.57 915.062 431.43 919.992 517.89C920.222 521.94 917.122 525.42 913.072 525.65C912.932 525.65 912.792 525.66 912.652 525.66H912.642Z" fill="black"/>
<path d="M818.842 795.509C817.102 795.509 815.352 794.889 813.952 793.639C810.922 790.939 810.662 786.289 813.362 783.259C868.782 721.149 900.582 644.379 905.312 561.269C905.542 557.219 909.022 554.109 913.072 554.349C917.122 554.579 920.222 558.049 919.992 562.109C915.062 648.579 881.992 728.439 824.332 793.049C822.882 794.679 820.862 795.509 818.842 795.509Z" fill="black"/>
<path d="M167.352 525.66C167.212 525.66 167.072 525.66 166.932 525.65C162.882 525.42 159.782 521.95 160.012 517.89C164.942 431.42 198.012 351.56 255.672 286.95C258.372 283.92 263.022 283.66 266.052 286.36C269.082 289.06 269.342 293.71 266.642 296.74C211.222 358.85 179.422 435.61 174.692 518.73C174.472 522.64 171.232 525.66 167.362 525.66H167.352Z" fill="black"/>
<path d="M261.162 795.509C259.142 795.509 257.122 794.679 255.672 793.049C198.012 728.429 164.942 648.569 160.012 562.109C159.782 558.059 162.882 554.579 166.932 554.349C170.982 554.109 174.462 557.219 174.692 561.269C179.422 644.389 211.222 721.149 266.642 783.259C269.342 786.289 269.082 790.939 266.052 793.639C264.652 794.889 262.902 795.509 261.162 795.509Z" fill="black"/>
<path d="M788.162 268.509C786.422 268.509 784.672 267.889 783.272 266.639C721.162 211.219 644.392 179.419 561.282 174.689C557.232 174.459 554.132 170.989 554.362 166.929C554.592 162.879 558.032 159.789 562.122 160.009C648.592 164.939 728.452 198.009 793.062 255.669C796.092 258.369 796.352 263.019 793.652 266.049C792.202 267.679 790.182 268.509 788.162 268.509Z" fill="black"/>
<path d="M291.842 268.51C289.822 268.51 287.802 267.68 286.352 266.05C283.652 263.02 283.912 258.37 286.942 255.67C351.562 198.01 431.422 164.94 517.882 160.01C521.932 159.78 525.412 162.88 525.642 166.93C525.872 170.98 522.772 174.46 518.722 174.69C435.612 179.42 358.842 211.22 296.732 266.64C295.332 267.89 293.582 268.51 291.842 268.51Z" fill="black"/>
<path d="M561.682 920C557.812 920 554.572 916.98 554.352 913.07C554.122 909.02 557.222 905.54 561.272 905.31C644.392 900.58 721.152 868.78 783.262 813.36C786.292 810.66 790.942 810.92 793.642 813.95C796.342 816.98 796.082 821.63 793.052 824.33C728.432 881.99 648.572 915.06 562.112 919.99C561.972 919.99 561.832 920 561.692 920H561.682Z" fill="black"/>
<path d="M518.312 920C518.172 920 518.032 920 517.892 919.99C431.422 915.06 351.562 881.99 286.952 824.33C283.922 821.63 283.662 816.98 286.362 813.95C289.062 810.92 293.712 810.66 296.742 813.36C358.852 868.78 435.622 900.58 518.732 905.31C522.782 905.54 525.882 909.01 525.652 913.07C525.432 916.98 522.192 920 518.322 920H518.312Z" fill="black"/>
<path d="M875.372 526.191C872.362 526.191 869.842 523.841 869.672 520.801C865.402 445.791 836.702 376.521 786.692 320.461C784.592 318.101 784.792 314.491 787.152 312.391C789.502 310.291 793.122 310.491 795.222 312.851C846.972 370.851 876.672 442.541 881.092 520.151C881.272 523.301 878.862 526.001 875.712 526.181C875.602 526.181 875.492 526.181 875.382 526.181L875.372 526.191Z" fill="black"/>
<path d="M790.952 769.062C789.592 769.062 788.242 768.582 787.152 767.612C784.792 765.512 784.592 761.892 786.692 759.542C836.702 703.492 865.402 634.212 869.672 559.202C869.852 556.052 872.542 553.642 875.702 553.822C878.852 554.002 881.262 556.702 881.082 559.852C876.662 637.472 846.972 709.152 795.212 767.152C794.082 768.422 792.512 769.062 790.942 769.062H790.952Z" fill="black"/>
<path d="M204.622 526.191C204.512 526.191 204.402 526.191 204.292 526.191C201.142 526.011 198.732 523.311 198.912 520.161C203.332 442.541 233.022 370.861 284.782 312.861C286.882 310.501 290.502 310.301 292.852 312.401C295.212 314.501 295.412 318.121 293.312 320.471C243.302 376.521 214.602 445.801 210.332 520.811C210.162 523.851 207.642 526.201 204.632 526.201L204.622 526.191Z" fill="black"/>
<path d="M289.042 769.061C287.472 769.061 285.902 768.411 284.772 767.151C233.022 709.151 203.322 637.461 198.902 559.851C198.722 556.701 201.132 554.001 204.282 553.821C207.442 553.631 210.132 556.051 210.312 559.201C214.582 634.211 243.282 703.491 293.292 759.541C295.392 761.901 295.192 765.511 292.832 767.611C291.742 768.581 290.382 769.061 289.032 769.061H289.042Z" fill="black"/>
<path d="M763.342 294.762C761.982 294.762 760.632 294.282 759.542 293.312C703.492 243.302 634.212 214.602 559.202 210.332C556.052 210.152 553.642 207.452 553.822 204.302C554.002 201.152 556.692 198.742 559.852 198.922C637.472 203.342 709.152 233.032 767.152 284.792C769.512 286.892 769.712 290.512 767.612 292.862C766.482 294.132 764.912 294.772 763.342 294.772V294.762Z" fill="black"/>
<path d="M316.652 294.761C315.082 294.761 313.512 294.111 312.382 292.851C310.282 290.491 310.482 286.881 312.842 284.781C370.842 233.031 442.532 203.331 520.142 198.911C523.292 198.721 525.992 201.141 526.172 204.291C526.352 207.441 523.942 210.141 520.792 210.321C445.782 214.591 376.512 243.291 320.452 293.301C319.362 294.271 318.002 294.751 316.652 294.751V294.761Z" fill="black"/>
<path d="M559.522 881.102C556.512 881.102 553.992 878.752 553.822 875.712C553.642 872.562 556.052 869.862 559.202 869.682C634.212 865.412 703.482 836.712 759.542 786.702C761.892 784.602 765.512 784.802 767.612 787.162C769.712 789.522 769.512 793.132 767.152 795.232C709.152 846.982 637.462 876.682 559.852 881.102C559.742 881.102 559.632 881.102 559.522 881.102Z" fill="black"/>
<path d="M520.482 881.102C520.372 881.102 520.262 881.102 520.152 881.102C442.532 876.682 370.852 846.992 312.852 795.232C310.492 793.132 310.292 789.512 312.392 787.162C314.492 784.802 318.112 784.602 320.462 786.702C376.512 836.722 445.792 865.412 520.802 869.682C523.952 869.862 526.362 872.562 526.182 875.712C526.012 878.752 523.492 881.102 520.482 881.102Z" fill="black"/>
<path d="M841.842 526.51C839.692 526.51 837.892 524.83 837.772 522.66C833.912 454.91 807.992 392.34 762.822 341.71C761.322 340.03 761.472 337.45 763.152 335.94C764.832 334.44 767.412 334.58 768.922 336.27C815.342 388.29 841.972 452.58 845.932 522.19C846.062 524.44 844.342 526.37 842.082 526.5C842.002 526.5 841.922 526.5 841.842 526.5V526.51Z" fill="black"/>
<path d="M765.863 745.101C764.893 745.101 763.923 744.761 763.143 744.061C761.463 742.561 761.313 739.981 762.813 738.291C807.983 687.661 833.903 625.091 837.763 557.341C837.893 555.091 839.853 553.391 842.073 553.491C844.323 553.621 846.043 555.551 845.923 557.801C841.953 627.411 815.323 691.701 768.913 743.721C768.103 744.621 766.983 745.081 765.863 745.081V745.101Z" fill="black"/>
<path d="M238.162 526.51C238.082 526.51 238.002 526.51 237.922 526.51C235.672 526.38 233.952 524.45 234.072 522.2C238.042 452.59 264.672 388.3 311.082 336.28C312.582 334.6 315.162 334.45 316.852 335.95C318.532 337.45 318.682 340.03 317.182 341.72C272.012 392.35 246.092 454.92 242.232 522.67C242.112 524.84 240.312 526.52 238.162 526.52V526.51Z" fill="black"/>
<path d="M314.132 745.101C313.012 745.101 311.892 744.641 311.082 743.741C264.662 691.721 238.032 627.431 234.072 557.821C233.942 555.571 235.662 553.641 237.922 553.511C240.162 553.401 242.102 555.101 242.232 557.361C246.092 625.111 272.012 687.681 317.182 738.311C318.682 739.991 318.532 742.571 316.852 744.081C316.072 744.771 315.102 745.121 314.132 745.121V745.101Z" fill="black"/>
<path d="M741.012 318.219C740.042 318.219 739.072 317.879 738.292 317.179C687.662 272.009 625.092 246.089 557.342 242.229C555.092 242.099 553.372 240.169 553.492 237.919C553.622 235.669 555.542 233.959 557.802 234.069C627.412 238.039 691.702 264.669 743.732 311.079C745.412 312.579 745.562 315.159 744.062 316.849C743.252 317.749 742.132 318.209 741.012 318.209V318.219Z" fill="black"/>
<path d="M338.992 318.22C337.872 318.22 336.752 317.76 335.942 316.86C334.442 315.18 334.592 312.6 336.272 311.09C388.292 264.67 452.582 238.04 522.192 234.08C524.442 233.96 526.372 235.67 526.502 237.93C526.632 240.18 524.912 242.11 522.652 242.24C454.902 246.1 392.332 272.02 341.702 317.19C340.922 317.88 339.952 318.23 338.982 318.23L338.992 318.22Z" fill="black"/>
<path d="M557.562 845.929C555.412 845.929 553.612 844.249 553.492 842.079C553.362 839.829 555.082 837.899 557.342 837.769C625.092 833.909 687.662 807.989 738.292 762.819C739.972 761.319 742.552 761.469 744.062 763.149C745.562 764.829 745.412 767.409 743.732 768.919C691.712 815.339 627.422 841.969 557.802 845.929C557.722 845.929 557.642 845.929 557.562 845.929Z" fill="black"/>
<path d="M522.432 845.929C522.352 845.929 522.272 845.929 522.192 845.929C452.582 841.959 388.292 815.329 336.272 768.919C334.592 767.419 334.442 764.839 335.942 763.149C337.442 761.469 340.022 761.319 341.712 762.819C392.342 807.989 454.912 833.909 522.662 837.769C524.912 837.899 526.632 839.829 526.512 842.079C526.392 844.249 524.592 845.929 522.442 845.929H522.432Z" fill="black"/>
<path d="M320.642 546.17C320.642 544.6 321.782 543.27 323.332 543.02C324.632 542.81 326.262 542.52 327.972 542.12C332.392 541.08 337.582 539.11 343.402 536.27C349.282 533.4 354.912 529.41 359.162 523.67C366.332 513.97 367.852 501.4 368.182 496.89C368.252 495.97 367.522 495.19 366.592 495.19H317.082C315.322 495.19 313.902 493.76 313.902 492.01V470.69C313.902 468.93 315.332 467.51 317.082 467.51H367.062C367.942 467.51 368.652 466.8 368.652 465.92V447.18C368.652 446.3 367.942 445.59 367.062 445.59H328.612C326.852 445.59 325.432 444.16 325.432 442.41V421.09C325.432 419.33 326.862 417.91 328.612 417.91H428.952C430.712 417.91 432.132 419.34 432.132 421.09V442.41C432.132 444.17 430.702 445.59 428.952 445.59H398.512C397.632 445.59 396.922 446.3 396.922 447.18V465.92C396.922 466.8 397.632 467.51 398.512 467.51H438.572C440.332 467.51 441.752 468.94 441.752 470.69V492.01C441.752 493.77 440.322 495.19 438.572 495.19H398.382C397.532 495.19 396.832 495.86 396.792 496.71C396.562 501.75 395.142 518.44 386.172 532.85C380.722 541.61 373.642 548.26 366.532 553.54C359.402 558.84 352.252 562.93 345.262 565.7C338.232 568.49 332.332 570.44 327.742 571.51C326.652 571.76 325.482 571.99 324.392 572.18C322.442 572.53 320.652 571.03 320.652 569.04V546.16L320.642 546.17Z" fill="black"/>
<path d="M474.542 546.52C474.542 545.06 475.542 543.79 476.952 543.43C485.202 541.36 488.922 540.11 496.832 536.32C496.832 536.32 500.882 534.21 504.922 531.3C517.102 522.54 525.212 510.63 525.212 510.63C534.672 497.28 537.762 474.91 538.482 468.49C538.592 467.55 537.852 466.72 536.902 466.72H500.572C500.342 466.72 500.132 466.84 500.022 467.04L499.872 467.29C494.292 478.11 486.872 487.99 480.442 494.24C473.992 500.5 468.582 505.05 464.372 507.75L461.772 509.42C460.712 510.1 459.322 509.34 459.322 508.08V479.89C459.322 478.95 459.742 478.06 460.462 477.45C461.112 476.9 461.982 476.13 463.172 475.06C465.932 472.57 469.042 468.51 472.412 462.98C475.752 457.51 479.342 450.21 483.062 441.29C486.442 433.2 488.972 423.09 490.852 412.06C491.112 410.53 492.442 409.42 493.992 409.42H513.902C515.902 409.42 517.412 411.25 517.032 413.21C516.392 416.52 515.702 420.88 514.842 424.31C513.572 429.39 512.752 432.3 511.232 436.72C510.972 437.47 511.532 438.24 512.322 438.24H591.172C592.932 438.24 594.352 439.67 594.352 441.42V463.51C594.352 465.27 592.922 466.69 591.172 466.69H568.132C567.322 466.69 566.632 467.3 566.552 468.11C565.922 474.01 562.872 497.16 552.382 517.26C538.282 546 508.132 566.39 478.332 572.13C476.372 572.51 474.552 571 474.552 569V546.48L474.542 546.52Z" fill="black"/>
<path d="M675.893 411.029V468.869C675.893 469.749 676.603 470.459 677.483 470.459H764.513C765.393 470.459 766.103 469.749 766.103 468.869V411.029C766.103 410.149 765.393 409.439 764.513 409.439H677.483C676.603 409.439 675.893 410.149 675.893 411.029ZM738.453 452.739H702.293C701.413 452.739 700.703 452.029 700.703 451.149V446.869C700.703 445.989 701.413 445.279 702.293 445.279H738.453C739.333 445.279 740.043 445.989 740.043 446.869V451.149C740.043 452.029 739.333 452.739 738.453 452.739ZM738.453 434.449H702.293C701.413 434.449 700.703 433.739 700.703 432.859V428.749C700.703 427.869 701.413 427.159 702.293 427.159H738.453C739.333 427.159 740.043 427.869 740.043 428.749V432.859C740.043 433.739 739.333 434.449 738.453 434.449Z" fill="black"/>
<path d="M674.222 497.34H728.262C729.142 497.34 729.852 498.05 729.852 498.93V502.84C729.852 503.72 729.142 504.43 728.262 504.43H667.752C665.992 504.43 664.572 505.86 664.572 507.61V522.86C664.572 524.62 666.002 526.04 667.752 526.04H728.262C729.142 526.04 729.852 526.75 729.852 527.63V545.39C729.852 546.11 729.932 547.98 729.212 548.85C728.382 549.87 727.142 549.67 725.842 549.72C722.532 549.72 719.572 549.7 716.942 549.66C716.542 549.66 716.252 549.29 716.332 548.9C716.592 547.63 716.722 546.31 716.692 544.96C716.492 535.68 708.932 528.08 699.652 527.84C689.572 527.58 681.362 535.85 681.702 545.94C682.012 555.29 689.782 562.81 699.142 562.84C704.032 562.85 708.452 560.86 711.632 557.64C711.972 557.3 712.542 557.43 712.692 557.88C714.152 562.21 715.532 566.34 716.782 570.05C717.222 571.35 718.452 572.22 719.822 572.21C725.722 572.17 730.502 571.96 734.172 571.6C738.302 571.18 742.082 570.15 745.512 568.5C749.172 566.84 751.682 564.42 753.042 561.23C754.402 558.04 755.082 553.55 755.082 547.76V527.62C755.082 526.74 755.792 526.03 756.672 526.03H762.902C764.662 526.03 766.082 524.6 766.082 522.85V507.6C766.082 505.84 764.652 504.42 762.902 504.42H756.672C755.792 504.42 755.082 503.71 755.082 502.83V498.92C755.082 498.04 755.792 497.33 756.672 497.33H762.902C764.662 497.33 766.082 495.9 766.082 494.15V479.6C766.082 477.84 764.652 476.42 762.902 476.42H674.202C672.442 476.42 671.022 477.85 671.022 479.6V494.15C671.022 495.91 672.452 497.33 674.202 497.33L674.222 497.34Z" fill="black"/>
<path d="M668.822 409.439H650.252C649.392 409.439 648.572 409.789 647.972 410.399C635.222 423.349 618.282 434.569 612.122 438.479C610.772 439.329 610.272 441.059 610.942 442.499L620.692 463.569C621.622 465.569 624.252 466.049 625.822 464.499C646.112 444.459 664.442 419.799 670.112 411.959C670.872 410.909 670.112 409.439 668.822 409.439Z" fill="black"/>
<path d="M671.912 453.889V435.409C671.912 433.999 670.212 433.289 669.202 434.279C653.632 449.599 620.042 477.059 611.672 483.859C610.542 484.779 610.182 486.349 610.792 487.669L620.692 509.049C621.622 511.049 624.252 511.529 625.822 509.979C627.532 508.289 629.232 506.559 630.912 504.819C631.312 504.409 632.012 504.689 632.012 505.259V569.059C632.012 570.819 633.442 572.239 635.192 572.239H653.812C655.572 572.239 656.992 570.809 656.992 569.059V476.369C656.992 475.299 657.352 474.249 658.022 473.409C664.862 464.729 669.712 458.019 671.332 455.739C671.712 455.199 671.922 454.559 671.922 453.889H671.912Z" fill="black"/>
<path d="M653.263 623.33C640.843 623.33 634.803 628.28 634.803 638.47V655.6C634.803 665.67 640.843 670.56 653.263 670.56C659.133 670.56 663.473 669.48 666.553 667.27C669.993 664.8 671.733 660.87 671.733 655.59V638.46C671.733 628.27 665.693 623.32 653.273 623.32L653.263 623.33ZM646.083 639.3C646.083 633.93 648.833 632.91 653.263 632.91C657.693 632.91 660.443 633.95 660.443 639.3V654.68C660.443 659.95 657.593 660.98 653.263 660.98C648.933 660.98 646.083 659.98 646.083 654.68V639.3Z" fill="black"/>
<path d="M708.263 669.331H721.353L703.623 646.781L720.553 624.8H707.393L694.053 642.281V610.23H682.763V669.331H694.053V659.211L696.943 655.451L708.263 669.331Z" fill="black"/>
<path d="M754.812 624.801V653.291C754.812 659.041 751.872 660.891 746.822 660.891C743.552 660.891 740.272 660.351 740.272 653.881V624.811H728.992V656.771C728.992 665.741 733.702 670.481 742.612 670.481C749.292 670.481 753.872 666.861 755.572 662.801L757.382 669.341H766.102V624.811H754.822L754.812 624.801Z" fill="black"/>
<path d="M630.563 610.23H589.143V620.141V620.151H604.213V669.331H615.683V620.151H630.563V610.23Z" fill="black"/>
<path d="M459.682 669.331H472.772L455.042 646.781L471.972 624.8H458.812L445.472 642.281V610.23H434.192V669.331H445.472V659.211L448.362 655.451L459.682 669.331Z" fill="black"/>
<path d="M355.322 610.23H313.902V620.141V620.151H328.982V669.331H340.442V620.151H355.322V610.23Z" fill="black"/>
<path d="M421.792 658.89L421.192 659.04C417.612 659.96 413.282 660.89 409.402 660.89C404.852 660.89 401.682 658.82 401.682 652.83V640.97C401.682 634.9 404.852 632.82 409.402 632.82C413.352 632.82 417.872 633.7 421.222 634.4L421.802 634.52V625.19L421.492 625.12C417.682 624.23 412.042 623.33 407.522 623.33C402.002 623.33 397.962 624.4 395.162 626.59C391.962 629.09 390.412 633.85 390.412 639.34V654.64C390.412 664.77 396.012 670.56 407.532 670.56C411.402 670.56 417.262 669.49 421.522 668.31L421.812 668.23V658.88L421.792 658.89Z" fill="black"/>
<path d="M553.922 634.699V624.799H543.682V615.189H532.402V624.799H525.172V634.699H532.402V655.419C532.402 667.939 540.292 670.559 546.922 670.559C548.702 670.559 550.502 670.449 552.112 670.219V660.259C551.462 660.329 550.252 660.359 549.532 660.359C546.452 660.359 543.682 659.729 543.682 652.089V634.689H553.922V634.699Z" fill="black"/>
<path d="M489.732 650.741V650.561H515.162V641.481C515.162 635.571 513.542 630.241 510.352 627.341C507.412 624.671 502.772 623.311 497.252 623.311C485.072 623.311 478.452 629.221 478.452 639.591V654.451C478.452 664.701 483.832 670.551 496.312 670.551C500.972 670.551 506.282 669.561 511.962 668.401L512.352 668.321V659.051L511.702 659.201C507.132 660.251 504.612 661.141 500.282 661.141C494.072 661.141 489.732 658.621 489.732 652.201V650.721V650.741ZM489.732 639.721C489.732 634.071 493.792 632.741 497.162 632.741C500.532 632.741 504.062 634.071 504.062 639.721V643.231H489.732V642.711V639.721Z" fill="black"/>
<path d="M378.173 626.881H366.893V669.331H378.173V626.881Z" fill="black"/>
<path d="M372.532 622.22C376.415 622.22 379.562 619.073 379.562 615.19C379.562 611.308 376.415 608.16 372.532 608.16C368.649 608.16 365.502 611.308 365.502 615.19C365.502 619.073 368.649 622.22 372.532 622.22Z" fill="black"/>
<path d="M585.733 643.92H566.143V651.26H585.733V643.92Z" fill="black"/>
<path d="M716.457 1600.83V1625.03C716.457 1633.62 716.698 1637.85 717.424 1642.45H699.396C700.122 1638.34 700.363 1633.26 700.363 1625.27V1561.5C700.363 1554.85 700.122 1551.34 699.396 1545.77C704.357 1546.02 707.382 1546.14 714.763 1546.14H748.643C756.266 1546.14 760.138 1545.89 765.22 1545.29V1561.62C760.864 1561.02 756.387 1560.78 748.643 1560.78H716.457V1586.43H742.35C749.852 1586.43 754.088 1586.19 758.807 1585.58V1601.68C754.33 1601.07 749.731 1600.83 742.35 1600.83H716.457Z" fill="black"/>
<path d="M638.586 1600.83V1625.03C638.586 1633.62 638.828 1637.85 639.554 1642.45H621.525C622.251 1638.34 622.493 1633.26 622.493 1625.27V1561.5C622.493 1554.85 622.251 1551.34 621.525 1545.77C626.486 1546.02 629.511 1546.14 636.892 1546.14H670.772C678.395 1546.14 682.267 1545.89 687.349 1545.29V1561.62C682.993 1561.02 678.516 1560.78 670.772 1560.78H638.586V1586.43H664.48C671.982 1586.43 676.217 1586.19 680.936 1585.58V1601.68C676.459 1601.07 671.861 1600.83 664.48 1600.83H638.586Z" fill="black"/>
<path d="M562.007 1544.2C575.317 1544.2 585.602 1548.07 593.83 1556.3C602.663 1565.13 607.382 1578.32 607.382 1594.05C607.382 1624.66 589.595 1644.51 562.128 1644.51C534.661 1644.51 516.995 1624.79 516.995 1594.05C516.995 1578.44 521.835 1565.01 530.789 1556.3C539.138 1548.07 549.181 1544.2 562.007 1544.2ZM562.37 1630.11C579.673 1630.11 590.442 1616.32 590.442 1594.05C590.442 1581.83 587.054 1572.03 580.883 1565.86C575.922 1561.02 569.509 1558.48 562.249 1558.48C544.825 1558.48 533.814 1572.27 533.814 1594.17C533.814 1606.27 537.323 1616.44 543.615 1622.73C548.576 1627.57 554.989 1630.11 562.37 1630.11Z" fill="black"/>
<path d="M413.955 1640.64L490.064 1543.23L496.356 1548.07L420.126 1645.6L413.955 1640.64ZM483.651 1644.39C476.875 1644.39 471.309 1642.33 467.195 1638.22C462.597 1633.74 460.177 1626.48 460.177 1617.28C460.177 1608.21 462.597 1601.07 467.195 1596.47C471.309 1592.48 476.996 1590.3 483.651 1590.3C490.306 1590.3 495.993 1592.48 499.986 1596.47C504.584 1600.95 507.004 1608.21 507.004 1617.28C507.004 1626.48 504.584 1633.74 499.986 1638.22C495.872 1642.33 490.306 1644.39 483.651 1644.39ZM483.651 1600.59C480.142 1600.59 477.843 1601.68 475.907 1604.46C473.729 1607.48 472.64 1611.6 472.64 1617.04C472.64 1628.17 476.512 1634.22 483.651 1634.22C490.911 1634.22 494.662 1628.17 494.662 1616.44C494.662 1611.6 493.452 1607.24 491.395 1604.34C489.338 1601.68 487.16 1600.59 483.651 1600.59ZM426.66 1598.41C419.884 1598.41 414.318 1596.35 410.204 1592.24C405.606 1587.76 403.186 1580.38 403.186 1571.3C403.186 1554.36 411.898 1544.32 426.66 1544.32C433.315 1544.32 439.002 1546.5 442.995 1550.49C447.593 1554.97 450.013 1562.23 450.013 1571.3C450.013 1580.5 447.593 1587.76 442.995 1592.24C438.881 1596.35 433.315 1598.41 426.66 1598.41ZM426.66 1554.61C419.642 1554.61 415.649 1560.54 415.649 1571.06C415.649 1582.19 419.521 1588.24 426.66 1588.24C433.678 1588.24 437.671 1582.19 437.671 1571.3C437.671 1566.95 436.824 1562.59 435.493 1560.05C433.436 1556.3 430.653 1554.61 426.66 1554.61Z" fill="black"/>
<path d="M319.464 1620.91L336.162 1617.4C337.251 1620.91 338.098 1622.49 339.792 1624.42C343.18 1628.54 348.262 1630.59 354.675 1630.59C366.654 1630.59 374.519 1622.61 374.519 1610.63C374.519 1598.77 367.017 1591.15 355.522 1591.15C349.593 1591.15 344.269 1593.08 340.518 1596.71C338.824 1598.41 337.977 1599.5 336.888 1602.16L321.763 1600.71C322.973 1592.12 323.094 1591.51 323.336 1588.12L326.119 1558.11C326.24 1555.94 326.482 1551.82 326.603 1545.77C330.233 1546.01 333.016 1546.14 339.429 1546.14H369.195C377.544 1546.14 380.569 1546.01 386.014 1545.17V1560.41C380.69 1559.69 375.971 1559.45 369.316 1559.45H340.881L338.945 1580.62C338.824 1581.59 338.582 1583.28 338.219 1585.7C344.148 1580.62 350.561 1578.32 358.91 1578.32C368.711 1578.32 376.576 1581.23 382.505 1587.4C388.434 1593.2 391.096 1600.46 391.096 1610.14C391.096 1631.44 377.181 1644.63 354.675 1644.63C342.696 1644.63 333.742 1641.24 327.087 1634.1C323.82 1630.59 322.126 1627.69 319.464 1620.91Z" fill="black"/>
<path d="M700.94 1374.97L710.732 1373.95C711.004 1377.01 711.412 1378.37 712.636 1379.94C714.608 1382.52 718.144 1383.95 722.564 1383.95C729.364 1383.95 733.444 1380.89 733.444 1375.79C733.444 1373 732.152 1370.69 730.044 1369.53C728.004 1368.44 727.596 1368.38 718.212 1366.2C713.112 1365.04 710.392 1363.96 707.944 1362.05C704.476 1359.33 702.708 1355.59 702.708 1351.04C702.708 1341.58 710.324 1335.46 722.02 1335.46C729.772 1335.46 735.62 1337.84 738.952 1342.33C740.652 1344.58 741.468 1346.62 742.284 1350.22L732.56 1351.38C732.152 1349.06 731.676 1347.91 730.52 1346.55C728.752 1344.44 725.76 1343.28 722.02 1343.28C716.104 1343.28 712.092 1346.28 712.092 1350.7C712.092 1353.55 713.588 1355.52 716.716 1356.88C718.212 1357.5 718.756 1357.63 726.304 1359.33C731.676 1360.49 734.94 1361.78 737.388 1363.48C741.264 1366.34 743.032 1370.08 743.032 1375.18C743.032 1380 741.536 1383.95 738.748 1386.74C735.144 1390.2 729.772 1391.9 722.496 1391.9C716.92 1391.9 711.48 1390.54 708.216 1388.37C705.496 1386.53 703.524 1383.95 702.232 1380.62C701.62 1379.05 701.348 1377.76 700.94 1374.97Z" fill="black"/>
<path d="M695.879 1390.82H684.659C684.523 1389.18 683.367 1385.72 681.123 1379.94C677.451 1370.55 675.071 1368.04 669.835 1368.04H659.703V1381.91C659.703 1385.99 659.839 1388.16 660.247 1390.82H650.115C650.523 1387.96 650.659 1386.12 650.659 1381.98V1345.32C650.659 1341.72 650.523 1339.68 650.115 1336.48C652.971 1336.62 655.079 1336.69 658.819 1336.69H675.139C685.475 1336.69 691.391 1341.86 691.391 1350.83C691.391 1355.18 690.235 1358.58 687.923 1360.96C686.019 1362.94 684.251 1363.82 680.375 1364.91C684.659 1366.27 685.951 1368.17 692.683 1384.08C693.227 1385.31 694.927 1388.98 695.879 1390.82ZM659.703 1360.28H673.371C675.887 1360.28 678.267 1359.4 679.831 1357.84C681.259 1356.41 682.007 1354.44 682.007 1351.85C682.007 1346.96 679.219 1344.44 673.643 1344.44H659.703V1360.28Z" fill="black"/>
<path d="M642.188 1382.25V1391.29C639.74 1390.95 637.564 1390.82 633.416 1390.82H612.2C608.12 1390.82 606.284 1390.88 603.564 1391.02C603.972 1388.3 604.108 1386.06 604.108 1382.04V1345.26C604.108 1341.72 603.972 1339.68 603.564 1336.48C606.284 1336.62 608.052 1336.69 612.2 1336.69H632.736C636.136 1336.69 638.38 1336.55 641.508 1336.21V1345.19C638.924 1344.85 636.748 1344.71 632.736 1344.71H613.152V1358.72H629.676C633.212 1358.72 635.524 1358.58 638.516 1358.24V1367.15C635.728 1366.74 633.892 1366.68 629.676 1366.68H613.084V1382.72H633.484C637.292 1382.72 639.264 1382.59 642.188 1382.25Z" fill="black"/>
<path d="M583.765 1336.69H593.897C593.489 1339.48 593.353 1341.52 593.353 1345.39V1382.04C593.353 1385.99 593.489 1387.96 593.897 1390.82H583.765C584.173 1388.16 584.309 1386.06 584.309 1382.04V1366.68H556.973V1382.04C556.973 1385.99 557.109 1388.03 557.517 1390.82H547.385C547.793 1388.23 547.929 1386.06 547.929 1382.04V1345.46C547.929 1341.45 547.793 1339.34 547.385 1336.69H557.517C557.109 1339.54 556.973 1341.79 556.973 1345.39V1358.52H584.309V1345.46C584.309 1341.58 584.173 1339.14 583.765 1336.69Z" fill="black"/>
<path d="M523.041 1344.85V1381.98C523.041 1385.65 523.177 1388.03 523.585 1390.82H513.317C513.725 1387.96 513.861 1385.65 513.861 1381.98V1344.85H504.681C500.669 1344.85 497.745 1344.98 495.365 1345.32V1336.21C497.813 1336.55 500.737 1336.69 504.613 1336.69H531.541C536.437 1336.69 538.953 1336.55 541.537 1336.21V1345.32C539.021 1344.98 536.437 1344.85 531.541 1344.85H523.041Z" fill="black"/>
<path d="M465.725 1335.6C473.205 1335.6 478.985 1337.78 483.609 1342.4C488.573 1347.36 491.225 1354.78 491.225 1363.62C491.225 1380.82 481.229 1391.97 465.793 1391.97C450.357 1391.97 440.429 1380.89 440.429 1363.62C440.429 1354.84 443.149 1347.3 448.181 1342.4C452.873 1337.78 458.517 1335.6 465.725 1335.6ZM465.929 1383.88C475.653 1383.88 481.705 1376.13 481.705 1363.62C481.705 1356.75 479.801 1351.24 476.333 1347.77C473.545 1345.05 469.941 1343.62 465.861 1343.62C456.069 1343.62 449.881 1351.38 449.881 1363.68C449.881 1370.48 451.853 1376.2 455.389 1379.73C458.177 1382.45 461.781 1383.88 465.929 1383.88Z" fill="black"/>
<path d="M435.368 1390.82H424.148C424.012 1389.18 422.856 1385.72 420.612 1379.94C416.94 1370.55 414.56 1368.04 409.324 1368.04H399.192V1381.91C399.192 1385.99 399.328 1388.16 399.736 1390.82H389.604C390.012 1387.96 390.148 1386.12 390.148 1381.98V1345.32C390.148 1341.72 390.012 1339.68 389.604 1336.48C392.46 1336.62 394.568 1336.69 398.308 1336.69H414.628C424.964 1336.69 430.88 1341.86 430.88 1350.83C430.88 1355.18 429.724 1358.58 427.412 1360.96C425.508 1362.94 423.74 1363.82 419.864 1364.91C424.148 1366.27 425.44 1368.17 432.172 1384.08C432.716 1385.31 434.416 1388.98 435.368 1390.82ZM399.192 1360.28H412.86C415.376 1360.28 417.756 1359.4 419.32 1357.84C420.748 1356.41 421.496 1354.44 421.496 1351.85C421.496 1346.96 418.708 1344.44 413.132 1344.44H399.192V1360.28Z" fill="black"/>
<path d="M363.77 1390.82H347.042C343.098 1390.82 341.126 1390.88 338.338 1391.02C338.814 1388.16 338.95 1386.19 338.95 1381.84V1344.92C338.95 1341.79 338.746 1339.34 338.406 1336.55C341.262 1336.69 342.35 1336.69 346.974 1336.69H363.022C373.562 1336.69 379.478 1341.45 379.478 1349.95C379.478 1354.1 378.254 1357.16 375.67 1359.54C374.174 1360.96 372.95 1361.58 370.298 1362.39C373.766 1363.14 375.33 1363.82 377.166 1365.52C379.954 1368.1 381.382 1371.5 381.382 1375.92C381.382 1385.44 375.058 1390.82 363.77 1390.82ZM347.926 1358.86H362.07C367.238 1358.86 370.298 1356.07 370.298 1351.44C370.298 1349.27 369.618 1347.43 368.53 1346.41C367.034 1345.05 364.722 1344.3 362.002 1344.3H347.926V1358.86ZM347.926 1366.4V1383.13H362.546C368.598 1383.13 371.998 1380.14 371.998 1374.63C371.998 1371.91 371.318 1370.08 369.822 1368.72C368.122 1367.22 365.538 1366.4 362.41 1366.4H347.926Z" fill="black"/>
<path d="M782.177 1277.04V1240.32C782.177 1236.52 782.041 1234.48 781.633 1231.48C784.353 1231.62 785.985 1231.69 790.269 1231.69H802.577C811.077 1231.69 816.585 1233.46 820.937 1237.67C825.901 1242.36 828.485 1249.44 828.485 1258.28C828.485 1267.52 825.765 1274.87 820.461 1279.9C816.109 1283.98 810.669 1285.82 802.645 1285.82H790.269C786.121 1285.82 784.421 1285.88 781.633 1286.02C782.041 1283.23 782.177 1281.12 782.177 1277.04ZM791.221 1277.79H802.033C807.609 1277.79 811.213 1276.5 814.069 1273.44C817.333 1269.97 819.033 1264.74 819.033 1258.34C819.033 1251.88 817.469 1247.06 814.341 1243.79C811.553 1240.87 808.017 1239.71 802.101 1239.71H791.221V1277.79Z" fill="black"/>
<path d="M776.083 1285.82H764.931C764.523 1283.57 763.775 1280.65 763.027 1278.68L760.307 1271.26H738.547L735.827 1278.68C734.603 1281.94 734.331 1282.96 733.787 1285.82H722.635C723.655 1283.98 725.015 1280.92 726.239 1277.79L741.199 1238.56C742.491 1235.16 743.035 1233.46 743.375 1231.69H755.207C755.547 1233.32 755.955 1234.41 757.519 1238.56L772.615 1277.79C774.315 1282.14 775.131 1284.05 776.083 1285.82ZM757.859 1263.44L750.583 1243.32C750.311 1242.57 750.107 1241.75 749.359 1239.51C748.271 1242.7 748.271 1242.7 748.067 1243.32L740.995 1263.44H757.859Z" fill="black"/>
<path d="M718.788 1277.25V1286.29C716.34 1285.95 714.164 1285.82 710.016 1285.82H688.8C684.72 1285.82 682.884 1285.88 680.164 1286.02C680.572 1283.3 680.708 1281.06 680.708 1277.04V1240.26C680.708 1236.72 680.572 1234.68 680.164 1231.48C682.884 1231.62 684.652 1231.69 688.8 1231.69H709.336C712.736 1231.69 714.98 1231.55 718.108 1231.21V1240.19C715.524 1239.85 713.348 1239.71 709.336 1239.71H689.752V1253.72H706.276C709.812 1253.72 712.124 1253.58 715.116 1253.24V1262.15C712.328 1261.74 710.492 1261.68 706.276 1261.68H689.684V1277.72H710.084C713.892 1277.72 715.864 1277.59 718.788 1277.25Z" fill="black"/>
<path d="M673.334 1285.82H662.114C661.978 1284.18 660.822 1280.72 658.578 1274.94C654.906 1265.55 652.526 1263.04 647.29 1263.04H637.158V1276.91C637.158 1280.99 637.294 1283.16 637.702 1285.82H627.57C627.978 1282.96 628.114 1281.12 628.114 1276.98V1240.32C628.114 1236.72 627.978 1234.68 627.57 1231.48C630.426 1231.62 632.534 1231.69 636.274 1231.69H652.594C662.93 1231.69 668.846 1236.86 668.846 1245.83C668.846 1250.18 667.69 1253.58 665.378 1255.96C663.474 1257.94 661.706 1258.82 657.83 1259.91C662.114 1261.27 663.406 1263.17 670.138 1279.08C670.682 1280.31 672.382 1283.98 673.334 1285.82ZM637.158 1255.28H650.826C653.342 1255.28 655.722 1254.4 657.286 1252.84C658.714 1251.41 659.462 1249.44 659.462 1246.85C659.462 1241.96 656.674 1239.44 651.098 1239.44H637.158V1255.28Z" fill="black"/>
<path d="M601.737 1285.82H585.009C581.065 1285.82 579.093 1285.88 576.305 1286.02C576.781 1283.16 576.917 1281.19 576.917 1276.84V1239.92C576.917 1236.79 576.713 1234.34 576.373 1231.55C579.229 1231.69 580.317 1231.69 584.941 1231.69H600.989C611.529 1231.69 617.445 1236.45 617.445 1244.95C617.445 1249.1 616.221 1252.16 613.637 1254.54C612.141 1255.96 610.917 1256.58 608.265 1257.39C611.733 1258.14 613.297 1258.82 615.133 1260.52C617.921 1263.1 619.349 1266.5 619.349 1270.92C619.349 1280.44 613.025 1285.82 601.737 1285.82ZM585.893 1253.86H600.037C605.205 1253.86 608.265 1251.07 608.265 1246.44C608.265 1244.27 607.585 1242.43 606.497 1241.41C605.001 1240.05 602.689 1239.3 599.969 1239.3H585.893V1253.86ZM585.893 1261.4V1278.13H600.513C606.565 1278.13 609.965 1275.14 609.965 1269.63C609.965 1266.91 609.285 1265.08 607.789 1263.72C606.089 1262.22 603.505 1261.4 600.377 1261.4H585.893Z" fill="black"/>
<path d="M546.83 1285.82H535.61C535.474 1284.18 534.318 1280.72 532.074 1274.94C528.402 1265.55 526.022 1263.04 520.786 1263.04H510.654V1276.91C510.654 1280.99 510.79 1283.16 511.198 1285.82H501.066C501.474 1282.96 501.61 1281.12 501.61 1276.98V1240.32C501.61 1236.72 501.474 1234.68 501.066 1231.48C503.922 1231.62 506.03 1231.69 509.77 1231.69H526.09C536.426 1231.69 542.342 1236.86 542.342 1245.83C542.342 1250.18 541.186 1253.58 538.874 1255.96C536.97 1257.94 535.202 1258.82 531.326 1259.91C535.61 1261.27 536.902 1263.17 543.634 1279.08C544.178 1280.31 545.878 1283.98 546.83 1285.82ZM510.654 1255.28H524.322C526.838 1255.28 529.218 1254.4 530.782 1252.84C532.21 1251.41 532.958 1249.44 532.958 1246.85C532.958 1241.96 530.17 1239.44 524.594 1239.44H510.654V1255.28Z" fill="black"/>
<path d="M493.14 1277.25V1286.29C490.692 1285.95 488.516 1285.82 484.368 1285.82H463.152C459.072 1285.82 457.236 1285.88 454.516 1286.02C454.924 1283.3 455.06 1281.06 455.06 1277.04V1240.26C455.06 1236.72 454.924 1234.68 454.516 1231.48C457.236 1231.62 459.004 1231.69 463.152 1231.69H483.688C487.088 1231.69 489.332 1231.55 492.46 1231.21V1240.19C489.876 1239.85 487.7 1239.71 483.688 1239.71H464.104V1253.72H480.628C484.164 1253.72 486.476 1253.58 489.468 1253.24V1262.15C486.68 1261.74 484.844 1261.68 480.628 1261.68H464.036V1277.72H484.436C488.244 1277.72 490.216 1277.59 493.14 1277.25Z" fill="black"/>
<path d="M428.935 1285.82H417.239C416.967 1284.32 416.219 1282.21 415.063 1279.02L400.511 1239.78C399.015 1235.7 398.063 1233.52 397.111 1231.69H408.331C408.671 1233.93 409.351 1236.38 410.167 1238.83L421.455 1272.42C421.795 1273.24 422.611 1275.96 423.087 1277.59C423.699 1275.55 424.243 1273.64 424.651 1272.42L435.939 1238.83C437.027 1235.43 437.435 1234 437.775 1231.69H448.995C448.043 1233.39 447.227 1235.29 445.595 1239.78L431.043 1279.02C429.887 1282.08 429.207 1284.25 428.935 1285.82Z" fill="black"/>
<path d="M400.423 1285.82H389.271C388.863 1283.57 388.115 1280.65 387.367 1278.68L384.647 1271.26H362.887L360.167 1278.68C358.943 1281.94 358.671 1282.96 358.127 1285.82H346.975C347.995 1283.98 349.355 1280.92 350.579 1277.79L365.539 1238.56C366.831 1235.16 367.375 1233.46 367.715 1231.69H379.547C379.887 1233.32 380.295 1234.41 381.859 1238.56L396.955 1277.79C398.655 1282.14 399.471 1284.05 400.423 1285.82ZM382.199 1263.44L374.923 1243.32C374.651 1242.57 374.447 1241.75 373.699 1239.51C372.611 1242.7 372.611 1242.7 372.407 1243.32L365.335 1263.44H382.199Z" fill="black"/>
<path d="M343.128 1277.25V1286.29C340.68 1285.95 338.504 1285.82 334.356 1285.82H313.14C309.06 1285.82 307.224 1285.88 304.504 1286.02C304.912 1283.3 305.048 1281.06 305.048 1277.04V1240.26C305.048 1236.72 304.912 1234.68 304.504 1231.48C307.224 1231.62 308.992 1231.69 313.14 1231.69H333.676C337.076 1231.69 339.32 1231.55 342.448 1231.21V1240.19C339.864 1239.85 337.688 1239.71 333.676 1239.71H314.092V1253.72H330.616C334.152 1253.72 336.464 1253.58 339.456 1253.24V1262.15C336.668 1261.74 334.832 1261.68 330.616 1261.68H314.024V1277.72H334.424C338.232 1277.72 340.204 1277.59 343.128 1277.25Z" fill="black"/>
<path d="M278.67 1285.82H261.942C257.998 1285.82 256.026 1285.88 253.238 1286.02C253.714 1283.16 253.85 1281.19 253.85 1276.84V1239.92C253.85 1236.79 253.646 1234.34 253.306 1231.55C256.162 1231.69 257.25 1231.69 261.874 1231.69H277.922C288.462 1231.69 294.378 1236.45 294.378 1244.95C294.378 1249.1 293.154 1252.16 290.57 1254.54C289.074 1255.96 287.85 1256.58 285.198 1257.39C288.666 1258.14 290.23 1258.82 292.066 1260.52C294.854 1263.1 296.282 1266.5 296.282 1270.92C296.282 1280.44 289.958 1285.82 278.67 1285.82ZM262.826 1253.86H276.97C282.138 1253.86 285.198 1251.07 285.198 1246.44C285.198 1244.27 284.518 1242.43 283.43 1241.41C281.934 1240.05 279.622 1239.3 276.902 1239.3H262.826V1253.86ZM262.826 1261.4V1278.13H277.446C283.498 1278.13 286.898 1275.14 286.898 1269.63C286.898 1266.91 286.218 1265.08 284.722 1263.72C283.022 1262.22 280.438 1261.4 277.31 1261.4H262.826Z" fill="black"/>
</svg>
