<svg width="1080" height="1920" viewBox="0 0 1080 1920" fill="none" xmlns="http://www.w3.org/2000/svg">
<path d="M1080 1920L1080 0L0 0L0 1920H1080Z" fill="#A5D4AD"/>
<path d="M1020 983.72V95C1020 75.67 1004.33 60 985 60H95.58C75.93 60 60 75.93 60 95.58V983.71C60 984.03 60.25 984.28 60.57 984.28C80.03 984.59 95.71 1000.46 95.71 1019.99C95.71 1039.52 80.03 1055.39 60.57 1055.7C60.25 1055.7 60 1055.96 60 1056.27V1824.99C60 1844.32 75.67 1859.99 95 1859.99H985C1004.33 1859.99 1020 1844.32 1020 1824.99V1056.27C1020 1055.95 1019.75 1055.7 1019.43 1055.7C999.97 1055.39 984.29 1039.52 984.29 1019.99C984.29 1000.46 999.97 984.59 1019.43 984.28C1019.75 984.28 1020 984.02 1020 983.71V983.72Z" fill="white"/>
<path d="M60.57 1055.71C60.25 1055.71 60 1055.97 60 1056.28V1825C60 1844.33 75.67 1860 95 1860H985C1004.33 1860 1020 1844.33 1020 1825V1056.28C1020 1055.96 1019.75 1055.71 1019.43 1055.71C999.97 1055.4 984.29 1039.53 984.29 1020H95.71C95.71 1039.53 80.03 1055.4 60.57 1055.71Z" fill="#E5F2E6"/>
<path d="M121 1020H160.9" stroke="black" stroke-width="6" stroke-miterlimit="10"/>
<path d="M187.512 1020H227.412" stroke="black" stroke-width="6" stroke-miterlimit="10"/>
<path d="M254.02 1020H293.92" stroke="black" stroke-width="6" stroke-miterlimit="10"/>
<path d="M320.52 1020H360.43" stroke="black" stroke-width="6" stroke-miterlimit="10"/>
<path d="M387.031 1020H426.941" stroke="black" stroke-width="6" stroke-miterlimit="10"/>
<path d="M453.539 1020H493.439" stroke="black" stroke-width="6" stroke-miterlimit="10"/>
<path d="M520.051 1020H559.951" stroke="black" stroke-width="6" stroke-miterlimit="10"/>
<path d="M586.559 1020H626.459" stroke="black" stroke-width="6" stroke-miterlimit="10"/>
<path d="M653.059 1020H692.969" stroke="black" stroke-width="6" stroke-miterlimit="10"/>
<path d="M719.57 1020H759.48" stroke="black" stroke-width="6" stroke-miterlimit="10"/>
<path d="M786.078 1020H825.978" stroke="black" stroke-width="6" stroke-miterlimit="10"/>
<path d="M852.59 1020H892.49" stroke="black" stroke-width="6" stroke-miterlimit="10"/>
<path d="M919.102 1020H959.002" stroke="black" stroke-width="6" stroke-miterlimit="10"/>
<path d="M1020 984.29V95C1020 75.67 1004.33 60 985 60H95C75.67 60 60 75.67 60 95V984.29C79.72 984.29 95.71 1000.28 95.71 1020C95.71 1039.72 79.72 1055.71 60 1055.71V1825C60 1844.33 75.67 1860 95 1860H985C1004.33 1860 1020 1844.33 1020 1825V1055.71C1000.28 1055.71 984.29 1039.72 984.29 1020C984.29 1000.28 1000.28 984.29 1020 984.29Z" stroke="black" stroke-width="6" stroke-miterlimit="10"/>
<path d="M912.642 525.66C908.772 525.66 905.532 522.64 905.312 518.73C900.582 435.62 868.782 358.85 813.362 296.74C810.662 293.71 810.922 289.06 813.952 286.36C816.982 283.66 821.622 283.92 824.332 286.95C881.992 351.57 915.062 431.43 919.992 517.89C920.222 521.94 917.122 525.42 913.072 525.65C912.932 525.65 912.792 525.66 912.652 525.66H912.642Z" fill="black"/>
<path d="M818.842 795.509C817.102 795.509 815.352 794.889 813.952 793.639C810.922 790.939 810.662 786.289 813.362 783.259C868.782 721.149 900.582 644.379 905.312 561.269C905.542 557.219 909.022 554.109 913.072 554.349C917.122 554.579 920.222 558.049 919.992 562.109C915.062 648.579 881.992 728.439 824.332 793.049C822.882 794.679 820.862 795.509 818.842 795.509Z" fill="black"/>
<path d="M167.352 525.66C167.212 525.66 167.072 525.66 166.932 525.65C162.882 525.42 159.782 521.95 160.012 517.89C164.942 431.42 198.012 351.56 255.672 286.95C258.372 283.92 263.022 283.66 266.052 286.36C269.082 289.06 269.342 293.71 266.642 296.74C211.222 358.85 179.422 435.61 174.692 518.73C174.472 522.64 171.232 525.66 167.362 525.66H167.352Z" fill="black"/>
<path d="M261.162 795.509C259.142 795.509 257.122 794.679 255.672 793.049C198.012 728.429 164.942 648.569 160.012 562.109C159.782 558.059 162.882 554.579 166.932 554.349C170.982 554.109 174.462 557.219 174.692 561.269C179.422 644.389 211.222 721.149 266.642 783.259C269.342 786.289 269.082 790.939 266.052 793.639C264.652 794.889 262.902 795.509 261.162 795.509Z" fill="black"/>
<path d="M788.164 268.509C786.424 268.509 784.674 267.889 783.274 266.639C721.164 211.219 644.394 179.419 561.284 174.689C557.234 174.459 554.134 170.989 554.364 166.929C554.594 162.879 558.034 159.789 562.124 160.009C648.594 164.939 728.454 198.009 793.064 255.669C796.094 258.369 796.354 263.019 793.654 266.049C792.204 267.679 790.184 268.509 788.164 268.509Z" fill="black"/>
<path d="M291.844 268.51C289.824 268.51 287.804 267.68 286.354 266.05C283.654 263.02 283.914 258.37 286.944 255.67C351.564 198.01 431.424 164.94 517.884 160.01C521.934 159.78 525.414 162.88 525.644 166.93C525.874 170.98 522.774 174.46 518.724 174.69C435.614 179.42 358.844 211.22 296.734 266.64C295.334 267.89 293.584 268.51 291.844 268.51Z" fill="black"/>
<path d="M561.682 920C557.812 920 554.572 916.98 554.352 913.07C554.122 909.02 557.222 905.54 561.272 905.31C644.392 900.58 721.152 868.78 783.262 813.36C786.292 810.66 790.942 810.92 793.642 813.95C796.342 816.98 796.082 821.63 793.052 824.33C728.432 881.99 648.572 915.06 562.112 919.99C561.972 919.99 561.832 920 561.692 920H561.682Z" fill="black"/>
<path d="M518.312 920C518.172 920 518.032 920 517.892 919.99C431.422 915.06 351.562 881.99 286.952 824.33C283.922 821.63 283.662 816.98 286.362 813.95C289.062 810.92 293.712 810.66 296.742 813.36C358.852 868.78 435.622 900.58 518.732 905.31C522.782 905.54 525.882 909.01 525.652 913.07C525.432 916.98 522.192 920 518.322 920H518.312Z" fill="black"/>
<path d="M875.37 526.191C872.36 526.191 869.84 523.841 869.67 520.801C865.4 445.791 836.7 376.521 786.69 320.461C784.59 318.101 784.79 314.491 787.15 312.391C789.5 310.291 793.12 310.491 795.22 312.851C846.97 370.851 876.67 442.541 881.09 520.151C881.27 523.301 878.86 526.001 875.71 526.181C875.6 526.181 875.49 526.181 875.38 526.181L875.37 526.191Z" fill="black"/>
<path d="M790.95 769.062C789.59 769.062 788.24 768.582 787.15 767.612C784.79 765.512 784.59 761.892 786.69 759.542C836.7 703.492 865.4 634.212 869.67 559.202C869.85 556.052 872.54 553.642 875.7 553.822C878.85 554.002 881.26 556.702 881.08 559.852C876.66 637.472 846.97 709.152 795.21 767.152C794.08 768.422 792.51 769.062 790.94 769.062H790.95Z" fill="black"/>
<path d="M204.622 526.191C204.512 526.191 204.402 526.191 204.292 526.191C201.142 526.011 198.732 523.311 198.912 520.161C203.332 442.541 233.022 370.861 284.782 312.861C286.882 310.501 290.502 310.301 292.852 312.401C295.212 314.501 295.412 318.121 293.312 320.471C243.302 376.521 214.602 445.801 210.332 520.811C210.162 523.851 207.642 526.201 204.632 526.201L204.622 526.191Z" fill="black"/>
<path d="M289.04 769.061C287.47 769.061 285.9 768.411 284.77 767.151C233.02 709.151 203.32 637.461 198.9 559.851C198.72 556.701 201.13 554.001 204.28 553.821C207.44 553.631 210.13 556.051 210.31 559.201C214.58 634.211 243.28 703.491 293.29 759.541C295.39 761.901 295.19 765.511 292.83 767.611C291.74 768.581 290.38 769.061 289.03 769.061H289.04Z" fill="black"/>
<path d="M763.342 294.762C761.982 294.762 760.632 294.282 759.542 293.312C703.492 243.302 634.212 214.602 559.202 210.332C556.052 210.152 553.642 207.452 553.822 204.302C554.002 201.152 556.692 198.742 559.852 198.922C637.472 203.342 709.152 233.032 767.152 284.792C769.512 286.892 769.712 290.512 767.612 292.862C766.482 294.132 764.912 294.772 763.342 294.772V294.762Z" fill="black"/>
<path d="M316.651 294.761C315.081 294.761 313.511 294.111 312.381 292.851C310.281 290.491 310.481 286.881 312.841 284.781C370.841 233.031 442.531 203.331 520.141 198.911C523.291 198.721 525.991 201.141 526.171 204.291C526.351 207.441 523.941 210.141 520.791 210.321C445.781 214.591 376.511 243.291 320.451 293.301C319.361 294.271 318.001 294.751 316.651 294.751V294.761Z" fill="black"/>
<path d="M559.518 881.102C556.508 881.102 553.988 878.752 553.818 875.712C553.638 872.562 556.048 869.862 559.198 869.682C634.208 865.412 703.478 836.712 759.538 786.702C761.888 784.602 765.508 784.802 767.608 787.162C769.708 789.522 769.508 793.132 767.148 795.232C709.148 846.982 637.458 876.682 559.848 881.102C559.738 881.102 559.628 881.102 559.518 881.102Z" fill="black"/>
<path d="M520.479 881.102C520.369 881.102 520.259 881.102 520.149 881.102C442.529 876.682 370.849 846.992 312.849 795.232C310.489 793.132 310.289 789.512 312.389 787.162C314.489 784.802 318.109 784.602 320.459 786.702C376.509 836.722 445.789 865.412 520.799 869.682C523.949 869.862 526.359 872.562 526.179 875.712C526.009 878.752 523.489 881.102 520.479 881.102Z" fill="black"/>
<path d="M841.843 526.51C839.693 526.51 837.893 524.83 837.773 522.66C833.913 454.91 807.993 392.34 762.823 341.71C761.323 340.03 761.473 337.45 763.153 335.94C764.833 334.44 767.413 334.58 768.923 336.27C815.343 388.29 841.973 452.58 845.933 522.19C846.063 524.44 844.343 526.37 842.083 526.5C842.003 526.5 841.923 526.5 841.843 526.5V526.51Z" fill="black"/>
<path d="M765.862 745.101C764.892 745.101 763.922 744.761 763.142 744.061C761.462 742.561 761.312 739.981 762.812 738.291C807.982 687.661 833.902 625.091 837.762 557.341C837.892 555.091 839.852 553.391 842.072 553.491C844.322 553.621 846.042 555.551 845.922 557.801C841.952 627.411 815.322 691.701 768.912 743.721C768.102 744.621 766.982 745.081 765.862 745.081V745.101Z" fill="black"/>
<path d="M238.162 526.51C238.082 526.51 238.002 526.51 237.922 526.51C235.672 526.38 233.952 524.45 234.072 522.2C238.042 452.59 264.672 388.3 311.082 336.28C312.582 334.6 315.162 334.45 316.852 335.95C318.532 337.45 318.682 340.03 317.182 341.72C272.012 392.35 246.092 454.92 242.232 522.67C242.112 524.84 240.312 526.52 238.162 526.52V526.51Z" fill="black"/>
<path d="M314.133 745.101C313.013 745.101 311.893 744.641 311.083 743.741C264.663 691.721 238.033 627.431 234.073 557.821C233.943 555.571 235.663 553.641 237.923 553.511C240.163 553.401 242.103 555.101 242.233 557.361C246.093 625.111 272.013 687.681 317.183 738.311C318.683 739.991 318.533 742.571 316.853 744.081C316.073 744.771 315.103 745.121 314.133 745.121V745.101Z" fill="black"/>
<path d="M741.014 318.219C740.044 318.219 739.074 317.879 738.294 317.179C687.664 272.009 625.094 246.089 557.344 242.229C555.094 242.099 553.374 240.169 553.494 237.919C553.624 235.669 555.544 233.959 557.804 234.069C627.414 238.039 691.704 264.669 743.734 311.079C745.414 312.579 745.564 315.159 744.064 316.849C743.254 317.749 742.134 318.209 741.014 318.209V318.219Z" fill="black"/>
<path d="M338.994 318.22C337.874 318.22 336.754 317.76 335.944 316.86C334.444 315.18 334.594 312.6 336.274 311.09C388.294 264.67 452.584 238.04 522.194 234.08C524.444 233.96 526.374 235.67 526.504 237.93C526.634 240.18 524.914 242.11 522.654 242.24C454.904 246.1 392.334 272.02 341.704 317.19C340.924 317.88 339.954 318.23 338.984 318.23L338.994 318.22Z" fill="black"/>
<path d="M557.565 845.929C555.415 845.929 553.615 844.249 553.495 842.079C553.365 839.829 555.085 837.899 557.345 837.769C625.095 833.909 687.665 807.989 738.295 762.819C739.975 761.319 742.555 761.469 744.065 763.149C745.565 764.829 745.415 767.409 743.735 768.919C691.715 815.339 627.425 841.969 557.805 845.929C557.725 845.929 557.645 845.929 557.565 845.929Z" fill="black"/>
<path d="M522.434 845.929C522.354 845.929 522.274 845.929 522.194 845.929C452.584 841.959 388.294 815.329 336.274 768.919C334.594 767.419 334.444 764.839 335.944 763.149C337.444 761.469 340.024 761.319 341.714 762.819C392.344 807.989 454.914 833.909 522.664 837.769C524.914 837.899 526.634 839.829 526.514 842.079C526.394 844.249 524.594 845.929 522.444 845.929H522.434Z" fill="black"/>
<path d="M320.642 546.17C320.642 544.6 321.782 543.27 323.332 543.02C324.632 542.81 326.262 542.52 327.972 542.12C332.392 541.08 337.582 539.11 343.402 536.27C349.282 533.4 354.912 529.41 359.162 523.67C366.332 513.97 367.852 501.4 368.182 496.89C368.252 495.97 367.522 495.19 366.592 495.19H317.082C315.322 495.19 313.902 493.76 313.902 492.01V470.69C313.902 468.93 315.332 467.51 317.082 467.51H367.062C367.942 467.51 368.652 466.8 368.652 465.92V447.18C368.652 446.3 367.942 445.59 367.062 445.59H328.612C326.852 445.59 325.432 444.16 325.432 442.41V421.09C325.432 419.33 326.862 417.91 328.612 417.91H428.952C430.712 417.91 432.132 419.34 432.132 421.09V442.41C432.132 444.17 430.702 445.59 428.952 445.59H398.512C397.632 445.59 396.922 446.3 396.922 447.18V465.92C396.922 466.8 397.632 467.51 398.512 467.51H438.572C440.332 467.51 441.752 468.94 441.752 470.69V492.01C441.752 493.77 440.322 495.19 438.572 495.19H398.382C397.532 495.19 396.832 495.86 396.792 496.71C396.562 501.75 395.142 518.44 386.172 532.85C380.722 541.61 373.642 548.26 366.532 553.54C359.402 558.84 352.252 562.93 345.262 565.7C338.232 568.49 332.332 570.44 327.742 571.51C326.652 571.76 325.482 571.99 324.392 572.18C322.442 572.53 320.652 571.03 320.652 569.04V546.16L320.642 546.17Z" fill="black"/>
<path d="M474.544 546.52C474.544 545.06 475.544 543.79 476.954 543.43C485.204 541.36 488.924 540.11 496.834 536.32C496.834 536.32 500.884 534.21 504.924 531.3C517.104 522.54 525.214 510.63 525.214 510.63C534.674 497.28 537.764 474.91 538.484 468.49C538.594 467.55 537.854 466.72 536.904 466.72H500.574C500.344 466.72 500.134 466.84 500.024 467.04L499.874 467.29C494.294 478.11 486.874 487.99 480.444 494.24C473.994 500.5 468.584 505.05 464.374 507.75L461.774 509.42C460.714 510.1 459.324 509.34 459.324 508.08V479.89C459.324 478.95 459.744 478.06 460.464 477.45C461.114 476.9 461.984 476.13 463.174 475.06C465.934 472.57 469.044 468.51 472.414 462.98C475.754 457.51 479.344 450.21 483.064 441.29C486.444 433.2 488.974 423.09 490.854 412.06C491.114 410.53 492.444 409.42 493.994 409.42H513.904C515.904 409.42 517.414 411.25 517.034 413.21C516.394 416.52 515.704 420.88 514.844 424.31C513.574 429.39 512.754 432.3 511.234 436.72C510.974 437.47 511.534 438.24 512.324 438.24H591.174C592.934 438.24 594.354 439.67 594.354 441.42V463.51C594.354 465.27 592.924 466.69 591.174 466.69H568.134C567.324 466.69 566.634 467.3 566.554 468.11C565.924 474.01 562.874 497.16 552.384 517.26C538.284 546 508.134 566.39 478.334 572.13C476.374 572.51 474.554 571 474.554 569V546.48L474.544 546.52Z" fill="black"/>
<path d="M675.895 411.029V468.869C675.895 469.749 676.604 470.459 677.484 470.459H764.515C765.395 470.459 766.104 469.749 766.104 468.869V411.029C766.104 410.149 765.395 409.439 764.515 409.439H677.484C676.604 409.439 675.895 410.149 675.895 411.029ZM738.455 452.739H702.294C701.414 452.739 700.705 452.029 700.705 451.149V446.869C700.705 445.989 701.414 445.279 702.294 445.279H738.455C739.335 445.279 740.044 445.989 740.044 446.869V451.149C740.044 452.029 739.335 452.739 738.455 452.739ZM738.455 434.449H702.294C701.414 434.449 700.705 433.739 700.705 432.859V428.749C700.705 427.869 701.414 427.159 702.294 427.159H738.455C739.335 427.159 740.044 427.869 740.044 428.749V432.859C740.044 433.739 739.335 434.449 738.455 434.449Z" fill="black"/>
<path d="M674.224 497.34H728.264C729.144 497.34 729.854 498.05 729.854 498.93V502.84C729.854 503.72 729.144 504.43 728.264 504.43H667.754C665.994 504.43 664.574 505.86 664.574 507.61V522.86C664.574 524.62 666.004 526.04 667.754 526.04H728.264C729.144 526.04 729.854 526.75 729.854 527.63V545.39C729.854 546.11 729.934 547.98 729.214 548.85C728.384 549.87 727.144 549.67 725.844 549.72C722.534 549.72 719.574 549.7 716.944 549.66C716.544 549.66 716.254 549.29 716.334 548.9C716.594 547.63 716.724 546.31 716.694 544.96C716.494 535.68 708.934 528.08 699.654 527.84C689.574 527.58 681.364 535.85 681.704 545.94C682.014 555.29 689.784 562.81 699.144 562.84C704.034 562.85 708.454 560.86 711.634 557.64C711.974 557.3 712.544 557.43 712.694 557.88C714.154 562.21 715.534 566.34 716.784 570.05C717.224 571.35 718.454 572.22 719.824 572.21C725.724 572.17 730.504 571.96 734.174 571.6C738.304 571.18 742.084 570.15 745.514 568.5C749.174 566.84 751.684 564.42 753.044 561.23C754.404 558.04 755.084 553.55 755.084 547.76V527.62C755.084 526.74 755.794 526.03 756.674 526.03H762.904C764.664 526.03 766.084 524.6 766.084 522.85V507.6C766.084 505.84 764.654 504.42 762.904 504.42H756.674C755.794 504.42 755.084 503.71 755.084 502.83V498.92C755.084 498.04 755.794 497.33 756.674 497.33H762.904C764.664 497.33 766.084 495.9 766.084 494.15V479.6C766.084 477.84 764.654 476.42 762.904 476.42H674.204C672.444 476.42 671.024 477.85 671.024 479.6V494.15C671.024 495.91 672.454 497.33 674.204 497.33L674.224 497.34Z" fill="black"/>
<path d="M668.824 409.439H650.254C649.394 409.439 648.574 409.789 647.974 410.399C635.224 423.349 618.284 434.569 612.124 438.479C610.774 439.329 610.274 441.059 610.944 442.499L620.694 463.569C621.624 465.569 624.254 466.049 625.824 464.499C646.114 444.459 664.444 419.799 670.114 411.959C670.874 410.909 670.114 409.439 668.824 409.439Z" fill="black"/>
<path d="M671.914 453.889V435.409C671.914 433.999 670.214 433.289 669.204 434.279C653.634 449.599 620.044 477.059 611.674 483.859C610.544 484.779 610.184 486.349 610.794 487.669L620.694 509.049C621.624 511.049 624.254 511.529 625.824 509.979C627.534 508.289 629.234 506.559 630.914 504.819C631.314 504.409 632.014 504.689 632.014 505.259V569.059C632.014 570.819 633.444 572.239 635.194 572.239H653.814C655.574 572.239 656.994 570.809 656.994 569.059V476.369C656.994 475.299 657.354 474.249 658.024 473.409C664.864 464.729 669.714 458.019 671.334 455.739C671.714 455.199 671.924 454.559 671.924 453.889H671.914Z" fill="black"/>
<path d="M653.261 623.33C640.841 623.33 634.801 628.28 634.801 638.47V655.6C634.801 665.67 640.841 670.56 653.261 670.56C659.131 670.56 663.471 669.48 666.551 667.27C669.991 664.8 671.731 660.87 671.731 655.59V638.46C671.731 628.27 665.691 623.32 653.271 623.32L653.261 623.33ZM646.081 639.3C646.081 633.93 648.831 632.91 653.261 632.91C657.691 632.91 660.441 633.95 660.441 639.3V654.68C660.441 659.95 657.591 660.98 653.261 660.98C648.931 660.98 646.081 659.98 646.081 654.68V639.3Z" fill="black"/>
<path d="M708.262 669.331H721.352L703.622 646.781L720.552 624.8H707.392L694.052 642.281V610.23H682.762V669.331H694.052V659.211L696.942 655.451L708.262 669.331Z" fill="black"/>
<path d="M754.812 624.801V653.291C754.812 659.041 751.872 660.891 746.822 660.891C743.552 660.891 740.272 660.351 740.272 653.881V624.811H728.992V656.771C728.992 665.741 733.702 670.481 742.612 670.481C749.292 670.481 753.872 666.861 755.572 662.801L757.382 669.341H766.102V624.811H754.822L754.812 624.801Z" fill="black"/>
<path d="M630.561 610.23H589.141V620.141V620.151H604.211V669.331H615.681V620.151H630.561V610.23Z" fill="black"/>
<path d="M459.681 669.331H472.771L455.041 646.781L471.971 624.8H458.811L445.471 642.281V610.23H434.191V669.331H445.471V659.211L448.361 655.451L459.681 669.331Z" fill="black"/>
<path d="M355.322 610.23H313.902V620.141V620.151H328.982V669.331H340.442V620.151H355.322V610.23Z" fill="black"/>
<path d="M421.794 658.89L421.194 659.04C417.614 659.96 413.284 660.89 409.404 660.89C404.854 660.89 401.684 658.82 401.684 652.83V640.97C401.684 634.9 404.854 632.82 409.404 632.82C413.354 632.82 417.874 633.7 421.224 634.4L421.804 634.52V625.19L421.494 625.12C417.684 624.23 412.044 623.33 407.524 623.33C402.004 623.33 397.964 624.4 395.164 626.59C391.964 629.09 390.414 633.85 390.414 639.34V654.64C390.414 664.77 396.014 670.56 407.534 670.56C411.404 670.56 417.264 669.49 421.524 668.31L421.814 668.23V658.88L421.794 658.89Z" fill="black"/>
<path d="M553.922 634.699V624.799H543.682V615.189H532.402V624.799H525.172V634.699H532.402V655.419C532.402 667.939 540.292 670.559 546.922 670.559C548.702 670.559 550.502 670.449 552.112 670.219V660.259C551.462 660.329 550.252 660.359 549.532 660.359C546.452 660.359 543.682 659.729 543.682 652.089V634.689H553.922V634.699Z" fill="black"/>
<path d="M489.733 650.741V650.561H515.163V641.481C515.163 635.571 513.543 630.241 510.353 627.341C507.413 624.671 502.773 623.311 497.253 623.311C485.073 623.311 478.453 629.221 478.453 639.591V654.451C478.453 664.701 483.833 670.551 496.313 670.551C500.973 670.551 506.283 669.561 511.963 668.401L512.353 668.321V659.051L511.703 659.201C507.133 660.251 504.613 661.141 500.283 661.141C494.073 661.141 489.733 658.621 489.733 652.201V650.721V650.741ZM489.733 639.721C489.733 634.071 493.793 632.741 497.163 632.741C500.533 632.741 504.063 634.071 504.063 639.721V643.231H489.733V642.711V639.721Z" fill="black"/>
<path d="M378.171 626.881H366.891V669.331H378.171V626.881Z" fill="black"/>
<path d="M372.534 622.22C376.416 622.22 379.564 619.073 379.564 615.19C379.564 611.308 376.416 608.16 372.534 608.16C368.651 608.16 365.504 611.308 365.504 615.19C365.504 619.073 368.651 622.22 372.534 622.22Z" fill="black"/>
<path d="M585.731 643.92H566.141V651.26H585.731V643.92Z" fill="black"/>
<path d="M777.526 1665.83V1690.03C777.526 1698.62 777.768 1702.85 778.494 1707.45H760.465C761.191 1703.34 761.433 1698.26 761.433 1690.27V1626.5C761.433 1619.85 761.191 1616.34 760.465 1610.77C765.426 1611.02 768.451 1611.14 775.832 1611.14H809.712C817.335 1611.14 821.207 1610.89 826.289 1610.29V1626.62C821.933 1626.02 817.456 1625.78 809.712 1625.78H777.526V1651.43H803.42C810.922 1651.43 815.157 1651.19 819.876 1650.58V1666.68C815.399 1666.07 810.801 1665.83 803.42 1665.83H777.526Z" fill="black"/>
<path d="M699.659 1665.83V1690.03C699.659 1698.62 699.901 1702.85 700.627 1707.45H682.598C683.324 1703.34 683.566 1698.26 683.566 1690.27V1626.5C683.566 1619.85 683.324 1616.34 682.598 1610.77C687.559 1611.02 690.584 1611.14 697.965 1611.14H731.845C739.468 1611.14 743.34 1610.89 748.422 1610.29V1626.62C744.066 1626.02 739.589 1625.78 731.845 1625.78H699.659V1651.43H725.553C733.055 1651.43 737.29 1651.19 742.009 1650.58V1666.68C737.532 1666.07 732.934 1665.83 725.553 1665.83H699.659Z" fill="black"/>
<path d="M623.078 1609.2C636.388 1609.2 646.673 1613.07 654.901 1621.3C663.734 1630.13 668.453 1643.32 668.453 1659.05C668.453 1689.66 650.666 1709.51 623.199 1709.51C595.732 1709.51 578.066 1689.79 578.066 1659.05C578.066 1643.44 582.906 1630.01 591.86 1621.3C600.209 1613.07 610.252 1609.2 623.078 1609.2ZM623.441 1695.11C640.744 1695.11 651.513 1681.32 651.513 1659.05C651.513 1646.83 648.125 1637.03 641.954 1630.86C636.993 1626.02 630.58 1623.48 623.32 1623.48C605.896 1623.48 594.885 1637.27 594.885 1659.17C594.885 1671.27 598.394 1681.44 604.686 1687.73C609.647 1692.57 616.06 1695.11 623.441 1695.11Z" fill="black"/>
<path d="M475.027 1705.64L551.136 1608.23L557.428 1613.07L481.198 1710.6L475.027 1705.64ZM544.723 1709.39C537.947 1709.39 532.381 1707.33 528.267 1703.22C523.669 1698.74 521.249 1691.48 521.249 1682.28C521.249 1673.21 523.669 1666.07 528.267 1661.47C532.381 1657.48 538.068 1655.3 544.723 1655.3C551.378 1655.3 557.065 1657.48 561.058 1661.47C565.656 1665.95 568.076 1673.21 568.076 1682.28C568.076 1691.48 565.656 1698.74 561.058 1703.22C556.944 1707.33 551.378 1709.39 544.723 1709.39ZM544.723 1665.59C541.214 1665.59 538.915 1666.68 536.979 1669.46C534.801 1672.48 533.712 1676.6 533.712 1682.04C533.712 1693.17 537.584 1699.22 544.723 1699.22C551.983 1699.22 555.734 1693.17 555.734 1681.44C555.734 1676.6 554.524 1672.24 552.467 1669.34C550.41 1666.68 548.232 1665.59 544.723 1665.59ZM487.732 1663.41C480.956 1663.41 475.39 1661.35 471.276 1657.24C466.678 1652.76 464.258 1645.38 464.258 1636.3C464.258 1619.36 472.97 1609.32 487.732 1609.32C494.387 1609.32 500.074 1611.5 504.067 1615.49C508.665 1619.97 511.085 1627.23 511.085 1636.3C511.085 1645.5 508.665 1652.76 504.067 1657.24C499.953 1661.35 494.387 1663.41 487.732 1663.41ZM487.732 1619.61C480.714 1619.61 476.721 1625.54 476.721 1636.06C476.721 1647.19 480.593 1653.24 487.732 1653.24C494.75 1653.24 498.743 1647.19 498.743 1636.3C498.743 1631.95 497.896 1627.59 496.565 1625.05C494.508 1621.3 491.725 1619.61 487.732 1619.61Z" fill="black"/>
<path d="M416.349 1709.39C406.064 1709.39 397.352 1706 390.939 1699.59C387.309 1695.96 384.526 1691.72 382.953 1687.37C379.807 1678.77 378.234 1669.34 378.234 1659.54C378.234 1646.71 381.138 1633.4 385.615 1626.02C392.149 1615.13 403.039 1609.2 416.47 1609.2C426.755 1609.2 435.588 1612.59 442.001 1619C445.631 1622.63 448.414 1626.87 449.987 1631.22C453.133 1639.69 454.706 1649.37 454.706 1659.29C454.706 1674.18 451.439 1687.24 445.752 1695.11C438.976 1704.55 428.933 1709.39 416.349 1709.39ZM416.47 1695.35C421.794 1695.35 426.513 1693.54 429.538 1690.27C434.983 1684.58 438.008 1673.33 438.008 1659.17C438.008 1645.14 434.983 1634.13 429.538 1628.2C426.634 1624.93 421.794 1623.11 416.349 1623.11C410.541 1623.11 406.306 1625.05 402.797 1629.29C397.473 1635.58 394.811 1645.5 394.811 1658.69C394.811 1671.39 397.11 1681.92 400.982 1687.49C404.733 1692.81 409.815 1695.35 416.47 1695.35Z" fill="black"/>
<path d="M341.461 1707.45H323.19C323.916 1702.73 324.158 1698.01 324.158 1691.72V1625.05H318.35C313.873 1625.05 310.364 1625.29 305.887 1625.78V1610.41C309.638 1611.02 312.3 1611.14 317.987 1611.14H329.119C335.29 1611.14 337.105 1611.02 341.461 1610.53C340.735 1617.67 340.493 1623.24 340.493 1630.5V1691.72C340.493 1698.14 340.735 1702.49 341.461 1707.45Z" fill="black"/>
<path d="M627.928 1471.26L631 1474.28C630.52 1475 630.328 1475.43 629.8 1477.16C627.592 1484.46 624.184 1490.94 619.96 1495.69C615.544 1500.73 610.264 1504.47 602.872 1507.88C601.528 1505.48 600.904 1504.66 598.792 1502.84C603.592 1500.87 606.28 1499.43 609.304 1497.18C616.168 1492.09 620.68 1485.51 623.32 1476.92L608.872 1477.16C605.944 1481.82 602.2 1485.94 597.64 1489.45C596.2 1487.48 595.48 1486.86 592.984 1485.32C598.456 1481.58 601.912 1477.74 605.416 1471.4C606.904 1468.66 607.672 1466.79 607.864 1465.06L614.44 1466.36C614.152 1466.79 614.152 1466.79 613.624 1467.85C613.48 1468.09 613.48 1468.09 613 1469.19C612.856 1469.48 612.856 1469.48 612.376 1470.44C612.088 1471.11 612.088 1471.11 611.608 1471.98C612.232 1471.93 613 1471.88 613.912 1471.88L624.424 1471.74C626.296 1471.74 626.824 1471.64 627.928 1471.26Z" fill="black"/>
<path d="M546.858 1474.18L550.842 1469.43C556.554 1472.98 559.53 1475.19 563.226 1478.7L559.098 1483.93C555.258 1479.85 551.322 1476.68 546.858 1474.18ZM548.538 1505.86L546.762 1499.24C550.89 1499 556.602 1497.61 560.97 1495.69C566.97 1493.1 571.434 1489.4 575.226 1483.93C577.338 1480.86 578.682 1478.22 580.122 1474.33C581.994 1476.58 582.762 1477.3 585.21 1479.03C581.13 1487.82 576.57 1493.48 569.994 1497.85C565.098 1501.11 559.146 1503.46 551.706 1505.05C549.786 1505.43 549.642 1505.48 548.538 1505.86Z" fill="black"/>
<path d="M502.79 1467.13L509.318 1467.18C509.126 1468.52 509.126 1468.95 509.126 1471.5V1484.74C509.126 1487.14 509.126 1487.77 509.318 1488.97H502.742C502.886 1487.86 502.982 1486.38 502.982 1484.65V1471.45C502.982 1469 502.934 1468.38 502.79 1467.13ZM524.438 1467.22H531.11C530.918 1468.42 530.87 1468.95 530.87 1471.69V1478.17C530.822 1485.66 530.486 1489.69 529.622 1492.71C528.23 1497.51 525.158 1501.11 520.166 1503.9C517.622 1505.34 515.222 1506.3 510.806 1507.59C509.942 1505.24 509.462 1504.42 507.446 1501.88C512.15 1500.97 514.934 1499.96 517.814 1498.04C522.326 1495.06 523.91 1492.14 524.438 1485.8C524.63 1483.74 524.678 1481.62 524.678 1477.78V1471.78C524.678 1469.34 524.63 1468.33 524.438 1467.22Z" fill="black"/>
<path d="M463.478 1507.16H456.902C457.094 1505.82 457.19 1504.52 457.19 1501.78V1471.02C457.142 1468.23 457.094 1467.27 456.902 1466.12H463.478C463.334 1467.42 463.286 1468.33 463.286 1471.16V1480.09C468.854 1481.91 477.494 1485.94 485.078 1490.22L481.718 1495.88C478.358 1493.48 471.542 1489.78 464.726 1486.71C463.622 1486.18 463.478 1486.14 463.094 1485.9C463.238 1487.24 463.286 1488.06 463.286 1489.16V1501.83C463.286 1504.42 463.334 1505.77 463.478 1507.16ZM473.318 1470.3L476.678 1468.62C478.79 1470.87 480.086 1472.7 481.718 1475.67L478.358 1477.45C476.774 1474.52 475.43 1472.6 473.318 1470.3ZM487.43 1472.55L484.118 1474.42C482.678 1471.78 481.094 1469.53 479.222 1467.46L482.438 1465.78C484.598 1467.99 485.942 1469.82 487.43 1472.55Z" fill="black"/>
<path d="M636.976 1315.25V1324.29C634.528 1323.95 632.352 1323.82 628.204 1323.82H606.988C602.908 1323.82 601.072 1323.88 598.352 1324.02C598.76 1321.3 598.896 1319.06 598.896 1315.04V1278.26C598.896 1274.72 598.76 1272.68 598.352 1269.48C601.072 1269.62 602.84 1269.69 606.988 1269.69H627.524C630.924 1269.69 633.168 1269.55 636.296 1269.21V1278.19C633.712 1277.85 631.536 1277.71 627.524 1277.71H607.94V1291.72H624.464C628 1291.72 630.312 1291.58 633.304 1291.24V1300.15C630.516 1299.74 628.68 1299.68 624.464 1299.68H607.872V1315.72H628.272C632.08 1315.72 634.052 1315.59 636.976 1315.25Z" fill="black"/>
<path d="M564.178 1300.42V1314.02C564.178 1318.85 564.314 1321.23 564.722 1323.82H554.59C554.998 1321.5 555.134 1318.65 555.134 1314.16V1278.32C555.134 1274.58 554.998 1272.61 554.59 1269.48C557.378 1269.62 559.078 1269.69 563.226 1269.69H582.266C586.55 1269.69 588.726 1269.55 591.582 1269.21V1278.39C589.134 1278.05 586.618 1277.92 582.266 1277.92H564.178V1292.33H578.73C582.946 1292.33 585.326 1292.2 587.978 1291.86V1300.9C585.462 1300.56 582.878 1300.42 578.73 1300.42H564.178Z" fill="black"/>
<path d="M549.042 1323.82H537.89C537.482 1321.57 536.734 1318.65 535.986 1316.68L533.266 1309.26H511.506L508.786 1316.68C507.562 1319.94 507.29 1320.96 506.746 1323.82H495.594C496.614 1321.98 497.974 1318.92 499.198 1315.79L514.158 1276.56C515.45 1273.16 515.994 1271.46 516.334 1269.69H528.166C528.506 1271.32 528.914 1272.41 530.478 1276.56L545.574 1315.79C547.274 1320.14 548.09 1322.05 549.042 1323.82ZM530.818 1301.44L523.542 1281.32C523.27 1280.57 523.066 1279.75 522.318 1277.51C521.23 1280.7 521.23 1280.7 521.026 1281.32L513.954 1301.44H530.818Z" fill="black"/>
<path d="M482.268 1305.59L491.992 1307.29C490.7 1312.19 489.476 1314.84 487.436 1317.49C483.56 1322.25 477.032 1324.9 468.872 1324.9C461.46 1324.9 455.544 1322.66 451.396 1318.38C446.636 1313.41 443.984 1305.73 443.984 1297.02C443.984 1288.05 446.84 1280.16 451.94 1275.06C456.02 1270.91 462.14 1268.6 468.94 1268.6C474.244 1268.6 478.256 1269.62 481.996 1271.86C485.056 1273.77 487.504 1276.28 489.204 1279.28C490.02 1280.7 490.496 1281.93 491.312 1284.51L481.86 1286.69C480.908 1283.7 480.296 1282.4 478.936 1280.84C476.624 1278.05 473.224 1276.62 469.008 1276.62C459.352 1276.62 453.504 1284.17 453.504 1296.68C453.504 1309.13 459.488 1316.88 469.008 1316.88C473.768 1316.88 477.848 1315.04 480.024 1311.85C481.18 1310.15 481.724 1308.72 482.268 1305.59Z" fill="black"/>
<path d="M852.85 1218.82H841.698C841.29 1216.57 840.542 1213.65 839.794 1211.68L837.074 1204.26H815.314L812.594 1211.68C811.37 1214.94 811.098 1215.96 810.554 1218.82H799.402C800.422 1216.98 801.782 1213.92 803.006 1210.79L817.966 1171.56C819.258 1168.16 819.802 1166.46 820.142 1164.69H831.974C832.314 1166.32 832.722 1167.41 834.286 1171.56L849.382 1210.79C851.082 1215.14 851.898 1217.05 852.85 1218.82ZM834.626 1196.44L827.35 1176.32C827.078 1175.57 826.874 1174.75 826.126 1172.51C825.038 1175.7 825.038 1175.7 824.834 1176.32L817.762 1196.44H834.626Z" fill="black"/>
<path d="M786.077 1200.59L795.801 1202.29C794.509 1207.19 793.285 1209.84 791.245 1212.49C787.369 1217.25 780.841 1219.9 772.681 1219.9C765.269 1219.9 759.353 1217.66 755.205 1213.38C750.445 1208.41 747.793 1200.73 747.793 1192.02C747.793 1183.05 750.649 1175.16 755.749 1170.06C759.829 1165.91 765.949 1163.6 772.749 1163.6C778.053 1163.6 782.065 1164.62 785.805 1166.86C788.865 1168.77 791.313 1171.28 793.013 1174.28C793.829 1175.7 794.305 1176.93 795.121 1179.51L785.669 1181.69C784.717 1178.7 784.105 1177.4 782.745 1175.84C780.433 1173.05 777.033 1171.62 772.817 1171.62C763.161 1171.62 757.313 1179.17 757.313 1191.68C757.313 1204.13 763.297 1211.88 772.817 1211.88C777.577 1211.88 781.657 1210.04 783.833 1206.85C784.989 1205.15 785.533 1203.72 786.077 1200.59Z" fill="black"/>
<path d="M729.835 1164.69H739.967C739.559 1167.2 739.423 1169.65 739.423 1173.94V1198.08C739.423 1212.15 731.059 1220.04 716.235 1220.04C708.687 1220.04 702.431 1217.73 698.691 1213.65C695.223 1209.91 693.591 1204.81 693.591 1198.01V1174C693.591 1169.79 693.455 1167.14 693.047 1164.69H703.179C702.771 1167 702.635 1169.58 702.635 1174V1198.01C702.635 1207.19 707.395 1212.02 716.575 1212.02C725.687 1212.02 730.379 1207.19 730.379 1197.94V1174C730.379 1169.65 730.243 1167.2 729.835 1164.69Z" fill="black"/>
<path d="M687.904 1210.11V1219.29C685.456 1218.95 683.076 1218.82 678.248 1218.82H658.12C654.312 1218.82 651.932 1218.88 649.484 1219.02C649.892 1216.5 650.028 1213.99 650.028 1210.04V1174.75C650.028 1170.06 649.892 1167.61 649.484 1164.69H659.752C659.344 1167.48 659.208 1169.72 659.208 1174.68V1210.59H678.248C682.872 1210.59 685.048 1210.45 687.904 1210.11Z" fill="black"/>
<path d="M641.558 1210.25V1219.29C639.11 1218.95 636.934 1218.82 632.786 1218.82H611.57C607.49 1218.82 605.654 1218.88 602.934 1219.02C603.342 1216.3 603.478 1214.06 603.478 1210.04V1173.26C603.478 1169.72 603.342 1167.68 602.934 1164.48C605.654 1164.62 607.422 1164.69 611.57 1164.69H632.106C635.506 1164.69 637.75 1164.55 640.878 1164.21V1173.19C638.294 1172.85 636.118 1172.71 632.106 1172.71H612.522V1186.72H629.046C632.582 1186.72 634.894 1186.58 637.886 1186.24V1195.15C635.098 1194.74 633.262 1194.68 629.046 1194.68H612.454V1210.72H632.854C636.662 1210.72 638.634 1210.59 641.558 1210.25Z" fill="black"/>
<path d="M548.692 1210.04V1173.32C548.692 1169.52 548.556 1167.48 548.148 1164.48C550.868 1164.62 552.5 1164.69 556.784 1164.69H569.092C577.592 1164.69 583.1 1166.46 587.452 1170.67C592.416 1175.36 595 1182.44 595 1191.28C595 1200.52 592.28 1207.87 586.976 1212.9C582.624 1216.98 577.184 1218.82 569.16 1218.82H556.784C552.636 1218.82 550.936 1218.88 548.148 1219.02C548.556 1216.23 548.692 1214.12 548.692 1210.04ZM557.736 1210.79H568.548C574.124 1210.79 577.728 1209.5 580.584 1206.44C583.848 1202.97 585.548 1197.74 585.548 1191.34C585.548 1184.88 583.984 1180.06 580.856 1176.79C578.068 1173.87 574.532 1172.71 568.616 1172.71H557.736V1210.79Z" fill="black"/>
<path d="M519.498 1218.82H506.102C504.742 1216.98 503.586 1215.55 502.566 1214.46L501.478 1213.31C498.01 1216.03 496.174 1217.12 493.386 1218.2C490.326 1219.36 487.062 1219.97 483.39 1219.97C477.27 1219.97 472.442 1218.34 469.314 1215.21C466.73 1212.63 465.234 1208.82 465.234 1204.67C465.234 1200.52 466.662 1197.12 469.722 1193.93C471.898 1191.68 473.802 1190.46 478.29 1188.28L476.25 1186.11C473.054 1182.64 471.694 1179.65 471.694 1176.11C471.694 1168.43 477.95 1163.53 487.742 1163.53C497.194 1163.53 503.45 1168.29 503.45 1175.57C503.45 1179.85 501.682 1183.25 497.942 1185.9C496.446 1186.99 494.882 1187.81 490.598 1189.85L502.77 1202.09C506.238 1197.53 507.802 1194.34 509.366 1188.35L516.37 1191.75C513.174 1199.78 511.542 1202.63 507.666 1207.12L512.63 1212.15C514.806 1214.33 516.37 1215.89 519.498 1218.82ZM483.39 1182.44L485.702 1184.82C490.122 1182.91 490.938 1182.5 492.026 1181.76C494.066 1180.33 495.018 1178.63 495.018 1176.38C495.018 1172.71 492.23 1170.47 487.81 1170.47C483.322 1170.47 480.534 1172.78 480.534 1176.52C480.534 1178.76 481.282 1180.26 483.39 1182.44ZM496.65 1207.87L483.05 1193.59C479.65 1195.29 478.358 1196.1 476.862 1197.53C475.026 1199.23 474.074 1201.41 474.074 1203.92C474.074 1209.23 478.018 1212.63 484.138 1212.63C488.83 1212.63 492.638 1211.13 496.65 1207.87Z" fill="black"/>
<path d="M434.68 1218.82H423.936C422.78 1216.5 421.556 1214.53 419.584 1211.54L402.04 1185.09C400.748 1183.05 399.048 1180.12 397.416 1176.93C397.484 1177.88 397.484 1177.88 397.688 1180.4C397.756 1181.69 397.892 1184.75 397.892 1186.31V1208.62C397.892 1213.17 398.096 1216.37 398.436 1218.82H388.508C388.848 1216.57 389.052 1213.17 389.052 1208.55V1173.46C389.052 1169.92 388.916 1167.48 388.508 1164.69H399.116C399.728 1166.39 400.952 1168.43 403.264 1171.9L420.468 1197.8C422.1 1200.25 424.276 1203.79 425.772 1206.51C425.5 1203.86 425.296 1199.78 425.296 1196.92V1174.07C425.296 1170.06 425.16 1167.27 424.752 1164.69H434.68C434.272 1167.41 434.136 1169.92 434.136 1174.07V1210.04C434.136 1213.85 434.272 1216.44 434.68 1218.82Z" fill="black"/>
<path d="M382.96 1218.82H371.808C371.4 1216.57 370.652 1213.65 369.904 1211.68L367.184 1204.26H345.424L342.704 1211.68C341.48 1214.94 341.208 1215.96 340.664 1218.82H329.512C330.532 1216.98 331.892 1213.92 333.116 1210.79L348.076 1171.56C349.368 1168.16 349.912 1166.46 350.252 1164.69H362.084C362.424 1166.32 362.832 1167.41 364.396 1171.56L379.492 1210.79C381.192 1215.14 382.008 1217.05 382.96 1218.82ZM364.736 1196.44L357.46 1176.32C357.188 1175.57 356.984 1174.75 356.236 1172.51C355.148 1175.7 355.148 1175.7 354.944 1176.32L347.872 1196.44H364.736Z" fill="black"/>
<path d="M325.663 1210.25V1219.29C323.215 1218.95 321.039 1218.82 316.891 1218.82H295.675C291.595 1218.82 289.759 1218.88 287.039 1219.02C287.447 1216.3 287.583 1214.06 287.583 1210.04V1173.26C287.583 1169.72 287.447 1167.68 287.039 1164.48C289.759 1164.62 291.527 1164.69 295.675 1164.69H316.211C319.611 1164.69 321.855 1164.55 324.983 1164.21V1173.19C322.399 1172.85 320.223 1172.71 316.211 1172.71H296.627V1186.72H313.151C316.687 1186.72 318.999 1186.58 321.991 1186.24V1195.15C319.203 1194.74 317.367 1194.68 313.151 1194.68H296.559V1210.72H316.959C320.767 1210.72 322.739 1210.59 325.663 1210.25Z" fill="black"/>
<path d="M232.798 1210.04V1173.32C232.798 1169.52 232.662 1167.48 232.254 1164.48C234.974 1164.62 236.606 1164.69 240.89 1164.69H253.198C261.698 1164.69 267.206 1166.46 271.558 1170.67C276.522 1175.36 279.106 1182.44 279.106 1191.28C279.106 1200.52 276.386 1207.87 271.082 1212.9C266.73 1216.98 261.29 1218.82 253.266 1218.82H240.89C236.742 1218.82 235.042 1218.88 232.254 1219.02C232.662 1216.23 232.798 1214.12 232.798 1210.04ZM241.842 1210.79H252.654C258.23 1210.79 261.834 1209.5 264.69 1206.44C267.954 1202.97 269.654 1197.74 269.654 1191.34C269.654 1184.88 268.09 1180.06 264.962 1176.79C262.174 1173.87 258.638 1172.71 252.722 1172.71H241.842V1210.79Z" fill="black"/>
</svg>
