<svg width="1080" height="1920" viewBox="0 0 1080 1920" fill="none" xmlns="http://www.w3.org/2000/svg">
<path d="M1080 1920L1080 0L0 0L0 1920H1080Z" fill="#A5D4AD"/>
<path d="M1020 983.72V95C1020 75.67 1004.33 60 985 60H95.58C75.93 60 60 75.93 60 95.58V983.71C60 984.03 60.25 984.28 60.57 984.28C80.03 984.59 95.71 1000.46 95.71 1019.99C95.71 1039.52 80.03 1055.39 60.57 1055.7C60.25 1055.7 60 1055.96 60 1056.27V1824.99C60 1844.32 75.67 1859.99 95 1859.99H985C1004.33 1859.99 1020 1844.32 1020 1824.99V1056.27C1020 1055.95 1019.75 1055.7 1019.43 1055.7C999.97 1055.39 984.29 1039.52 984.29 1019.99C984.29 1000.46 999.97 984.59 1019.43 984.28C1019.75 984.28 1020 984.02 1020 983.71V983.72Z" fill="white"/>
<path d="M60.57 1055.71C60.25 1055.71 60 1055.97 60 1056.28V1825C60 1844.33 75.67 1860 95 1860H985C1004.33 1860 1020 1844.33 1020 1825V1056.28C1020 1055.96 1019.75 1055.71 1019.43 1055.71C999.97 1055.4 984.29 1039.53 984.29 1020H95.71C95.71 1039.53 80.03 1055.4 60.57 1055.71Z" fill="#E5F2E6"/>
<path d="M121 1020H160.9" stroke="black" stroke-width="6" stroke-miterlimit="10"/>
<path d="M187.51 1020H227.41" stroke="black" stroke-width="6" stroke-miterlimit="10"/>
<path d="M254.02 1020H293.92" stroke="black" stroke-width="6" stroke-miterlimit="10"/>
<path d="M320.52 1020H360.43" stroke="black" stroke-width="6" stroke-miterlimit="10"/>
<path d="M387.03 1020H426.94" stroke="black" stroke-width="6" stroke-miterlimit="10"/>
<path d="M453.54 1020H493.44" stroke="black" stroke-width="6" stroke-miterlimit="10"/>
<path d="M520.05 1020H559.95" stroke="black" stroke-width="6" stroke-miterlimit="10"/>
<path d="M586.56 1020H626.46" stroke="black" stroke-width="6" stroke-miterlimit="10"/>
<path d="M653.06 1020H692.97" stroke="black" stroke-width="6" stroke-miterlimit="10"/>
<path d="M719.57 1020H759.48" stroke="black" stroke-width="6" stroke-miterlimit="10"/>
<path d="M786.08 1020H825.98" stroke="black" stroke-width="6" stroke-miterlimit="10"/>
<path d="M852.59 1020H892.49" stroke="black" stroke-width="6" stroke-miterlimit="10"/>
<path d="M919.1 1020H959" stroke="black" stroke-width="6" stroke-miterlimit="10"/>
<path d="M1020 984.29V95C1020 75.67 1004.33 60 985 60H95C75.67 60 60 75.67 60 95V984.29C79.72 984.29 95.71 1000.28 95.71 1020C95.71 1039.72 79.72 1055.71 60 1055.71V1825C60 1844.33 75.67 1860 95 1860H985C1004.33 1860 1020 1844.33 1020 1825V1055.71C1000.28 1055.71 984.29 1039.72 984.29 1020C984.29 1000.28 1000.28 984.29 1020 984.29Z" stroke="black" stroke-width="6" stroke-miterlimit="10"/>
<path d="M912.642 525.66C908.772 525.66 905.532 522.64 905.312 518.73C900.582 435.62 868.782 358.85 813.362 296.74C810.662 293.71 810.922 289.06 813.952 286.36C816.982 283.66 821.622 283.92 824.332 286.95C881.992 351.57 915.062 431.43 919.992 517.89C920.222 521.94 917.122 525.42 913.072 525.65C912.932 525.65 912.792 525.66 912.652 525.66H912.642Z" fill="black"/>
<path d="M818.842 795.509C817.102 795.509 815.352 794.889 813.952 793.639C810.922 790.939 810.662 786.289 813.362 783.259C868.782 721.149 900.582 644.379 905.312 561.269C905.542 557.219 909.022 554.109 913.072 554.349C917.122 554.579 920.222 558.049 919.992 562.109C915.062 648.579 881.992 728.439 824.332 793.049C822.882 794.679 820.862 795.509 818.842 795.509Z" fill="black"/>
<path d="M167.352 525.66C167.212 525.66 167.072 525.66 166.932 525.65C162.882 525.42 159.782 521.95 160.012 517.89C164.942 431.42 198.012 351.56 255.672 286.95C258.372 283.92 263.022 283.66 266.052 286.36C269.082 289.06 269.342 293.71 266.642 296.74C211.222 358.85 179.422 435.61 174.692 518.73C174.472 522.64 171.232 525.66 167.362 525.66H167.352Z" fill="black"/>
<path d="M261.162 795.509C259.142 795.509 257.122 794.679 255.672 793.049C198.012 728.429 164.942 648.569 160.012 562.109C159.782 558.059 162.882 554.579 166.932 554.349C170.982 554.109 174.462 557.219 174.692 561.269C179.422 644.389 211.222 721.149 266.642 783.259C269.342 786.289 269.082 790.939 266.052 793.639C264.652 794.889 262.902 795.509 261.162 795.509Z" fill="black"/>
<path d="M788.162 268.509C786.422 268.509 784.672 267.889 783.272 266.639C721.162 211.219 644.392 179.419 561.282 174.689C557.232 174.459 554.132 170.989 554.362 166.929C554.592 162.879 558.032 159.789 562.122 160.009C648.592 164.939 728.452 198.009 793.062 255.669C796.092 258.369 796.352 263.019 793.652 266.049C792.202 267.679 790.182 268.509 788.162 268.509Z" fill="black"/>
<path d="M291.842 268.51C289.822 268.51 287.802 267.68 286.352 266.05C283.652 263.02 283.912 258.37 286.942 255.67C351.562 198.01 431.422 164.94 517.882 160.01C521.932 159.78 525.412 162.88 525.642 166.93C525.872 170.98 522.772 174.46 518.722 174.69C435.612 179.42 358.842 211.22 296.732 266.64C295.332 267.89 293.582 268.51 291.842 268.51Z" fill="black"/>
<path d="M561.682 920C557.812 920 554.572 916.98 554.352 913.07C554.122 909.02 557.222 905.54 561.272 905.31C644.392 900.58 721.152 868.78 783.262 813.36C786.292 810.66 790.942 810.92 793.642 813.95C796.342 816.98 796.082 821.63 793.052 824.33C728.432 881.99 648.572 915.06 562.112 919.99C561.972 919.99 561.832 920 561.692 920H561.682Z" fill="black"/>
<path d="M518.312 920C518.172 920 518.032 920 517.892 919.99C431.422 915.06 351.562 881.99 286.952 824.33C283.922 821.63 283.662 816.98 286.362 813.95C289.062 810.92 293.712 810.66 296.742 813.36C358.852 868.78 435.622 900.58 518.732 905.31C522.782 905.54 525.882 909.01 525.652 913.07C525.432 916.98 522.192 920 518.322 920H518.312Z" fill="black"/>
<path d="M875.372 526.191C872.362 526.191 869.842 523.841 869.672 520.801C865.402 445.791 836.702 376.521 786.692 320.461C784.592 318.101 784.792 314.491 787.152 312.391C789.502 310.291 793.122 310.491 795.222 312.851C846.972 370.851 876.672 442.541 881.092 520.151C881.272 523.301 878.862 526.001 875.712 526.181C875.602 526.181 875.492 526.181 875.382 526.181L875.372 526.191Z" fill="black"/>
<path d="M790.952 769.062C789.592 769.062 788.242 768.582 787.152 767.612C784.792 765.512 784.592 761.892 786.692 759.542C836.702 703.492 865.402 634.212 869.672 559.202C869.852 556.052 872.542 553.642 875.702 553.822C878.852 554.002 881.262 556.702 881.082 559.852C876.662 637.472 846.972 709.152 795.212 767.152C794.082 768.422 792.512 769.062 790.942 769.062H790.952Z" fill="black"/>
<path d="M204.622 526.191C204.512 526.191 204.402 526.191 204.292 526.191C201.142 526.011 198.732 523.311 198.912 520.161C203.332 442.541 233.022 370.861 284.782 312.861C286.882 310.501 290.502 310.301 292.852 312.401C295.212 314.501 295.412 318.121 293.312 320.471C243.302 376.521 214.602 445.801 210.332 520.811C210.162 523.851 207.642 526.201 204.632 526.201L204.622 526.191Z" fill="black"/>
<path d="M289.042 769.061C287.472 769.061 285.902 768.411 284.772 767.151C233.022 709.151 203.322 637.461 198.902 559.851C198.722 556.701 201.132 554.001 204.282 553.821C207.442 553.631 210.132 556.051 210.312 559.201C214.582 634.211 243.282 703.491 293.292 759.541C295.392 761.901 295.192 765.511 292.832 767.611C291.742 768.581 290.382 769.061 289.032 769.061H289.042Z" fill="black"/>
<path d="M763.342 294.762C761.982 294.762 760.632 294.282 759.542 293.312C703.492 243.302 634.212 214.602 559.202 210.332C556.052 210.152 553.642 207.452 553.822 204.302C554.002 201.152 556.692 198.742 559.852 198.922C637.472 203.342 709.152 233.032 767.152 284.792C769.512 286.892 769.712 290.512 767.612 292.862C766.482 294.132 764.912 294.772 763.342 294.772V294.762Z" fill="black"/>
<path d="M316.652 294.761C315.082 294.761 313.512 294.111 312.382 292.851C310.282 290.491 310.482 286.881 312.842 284.781C370.842 233.031 442.532 203.331 520.142 198.911C523.292 198.721 525.992 201.141 526.172 204.291C526.352 207.441 523.942 210.141 520.792 210.321C445.782 214.591 376.512 243.291 320.452 293.301C319.362 294.271 318.002 294.751 316.652 294.751V294.761Z" fill="black"/>
<path d="M559.522 881.102C556.512 881.102 553.992 878.752 553.822 875.712C553.642 872.562 556.052 869.862 559.202 869.682C634.212 865.412 703.482 836.712 759.542 786.702C761.892 784.602 765.512 784.802 767.612 787.162C769.712 789.522 769.512 793.132 767.152 795.232C709.152 846.982 637.462 876.682 559.852 881.102C559.742 881.102 559.632 881.102 559.522 881.102Z" fill="black"/>
<path d="M520.482 881.102C520.372 881.102 520.262 881.102 520.152 881.102C442.532 876.682 370.852 846.992 312.852 795.232C310.492 793.132 310.292 789.512 312.392 787.162C314.492 784.802 318.112 784.602 320.462 786.702C376.512 836.722 445.792 865.412 520.802 869.682C523.952 869.862 526.362 872.562 526.182 875.712C526.012 878.752 523.492 881.102 520.482 881.102Z" fill="black"/>
<path d="M841.842 526.51C839.692 526.51 837.892 524.83 837.772 522.66C833.912 454.91 807.992 392.34 762.822 341.71C761.322 340.03 761.472 337.45 763.152 335.94C764.832 334.44 767.412 334.58 768.922 336.27C815.342 388.29 841.972 452.58 845.932 522.19C846.062 524.44 844.342 526.37 842.082 526.5C842.002 526.5 841.922 526.5 841.842 526.5V526.51Z" fill="black"/>
<path d="M765.863 745.101C764.893 745.101 763.923 744.761 763.143 744.061C761.463 742.561 761.313 739.981 762.813 738.291C807.983 687.661 833.903 625.091 837.763 557.341C837.893 555.091 839.853 553.391 842.073 553.491C844.323 553.621 846.043 555.551 845.923 557.801C841.953 627.411 815.323 691.701 768.913 743.721C768.103 744.621 766.983 745.081 765.863 745.081V745.101Z" fill="black"/>
<path d="M238.162 526.51C238.082 526.51 238.002 526.51 237.922 526.51C235.672 526.38 233.952 524.45 234.072 522.2C238.042 452.59 264.672 388.3 311.082 336.28C312.582 334.6 315.162 334.45 316.852 335.95C318.532 337.45 318.682 340.03 317.182 341.72C272.012 392.35 246.092 454.92 242.232 522.67C242.112 524.84 240.312 526.52 238.162 526.52V526.51Z" fill="black"/>
<path d="M314.132 745.101C313.012 745.101 311.892 744.641 311.082 743.741C264.662 691.721 238.032 627.431 234.072 557.821C233.942 555.571 235.662 553.641 237.922 553.511C240.162 553.401 242.102 555.101 242.232 557.361C246.092 625.111 272.012 687.681 317.182 738.311C318.682 739.991 318.532 742.571 316.852 744.081C316.072 744.771 315.102 745.121 314.132 745.121V745.101Z" fill="black"/>
<path d="M741.012 318.219C740.042 318.219 739.072 317.879 738.292 317.179C687.662 272.009 625.092 246.089 557.342 242.229C555.092 242.099 553.372 240.169 553.492 237.919C553.622 235.669 555.542 233.959 557.802 234.069C627.412 238.039 691.702 264.669 743.732 311.079C745.412 312.579 745.562 315.159 744.062 316.849C743.252 317.749 742.132 318.209 741.012 318.209V318.219Z" fill="black"/>
<path d="M338.992 318.22C337.872 318.22 336.752 317.76 335.942 316.86C334.442 315.18 334.592 312.6 336.272 311.09C388.292 264.67 452.582 238.04 522.192 234.08C524.442 233.96 526.372 235.67 526.502 237.93C526.632 240.18 524.912 242.11 522.652 242.24C454.902 246.1 392.332 272.02 341.702 317.19C340.922 317.88 339.952 318.23 338.982 318.23L338.992 318.22Z" fill="black"/>
<path d="M557.562 845.929C555.412 845.929 553.612 844.249 553.492 842.079C553.362 839.829 555.082 837.899 557.342 837.769C625.092 833.909 687.662 807.989 738.292 762.819C739.972 761.319 742.552 761.469 744.062 763.149C745.562 764.829 745.412 767.409 743.732 768.919C691.712 815.339 627.422 841.969 557.802 845.929C557.722 845.929 557.642 845.929 557.562 845.929Z" fill="black"/>
<path d="M522.432 845.929C522.352 845.929 522.272 845.929 522.192 845.929C452.582 841.959 388.292 815.329 336.272 768.919C334.592 767.419 334.442 764.839 335.942 763.149C337.442 761.469 340.022 761.319 341.712 762.819C392.342 807.989 454.912 833.909 522.662 837.769C524.912 837.899 526.632 839.829 526.512 842.079C526.392 844.249 524.592 845.929 522.442 845.929H522.432Z" fill="black"/>
<path d="M320.642 546.17C320.642 544.6 321.782 543.27 323.332 543.02C324.632 542.81 326.262 542.52 327.972 542.12C332.392 541.08 337.582 539.11 343.402 536.27C349.282 533.4 354.912 529.41 359.162 523.67C366.332 513.97 367.852 501.4 368.182 496.89C368.252 495.97 367.522 495.19 366.592 495.19H317.082C315.322 495.19 313.902 493.76 313.902 492.01V470.69C313.902 468.93 315.332 467.51 317.082 467.51H367.062C367.942 467.51 368.652 466.8 368.652 465.92V447.18C368.652 446.3 367.942 445.59 367.062 445.59H328.612C326.852 445.59 325.432 444.16 325.432 442.41V421.09C325.432 419.33 326.862 417.91 328.612 417.91H428.952C430.712 417.91 432.132 419.34 432.132 421.09V442.41C432.132 444.17 430.702 445.59 428.952 445.59H398.512C397.632 445.59 396.922 446.3 396.922 447.18V465.92C396.922 466.8 397.632 467.51 398.512 467.51H438.572C440.332 467.51 441.752 468.94 441.752 470.69V492.01C441.752 493.77 440.322 495.19 438.572 495.19H398.382C397.532 495.19 396.832 495.86 396.792 496.71C396.562 501.75 395.142 518.44 386.172 532.85C380.722 541.61 373.642 548.26 366.532 553.54C359.402 558.84 352.252 562.93 345.262 565.7C338.232 568.49 332.332 570.44 327.742 571.51C326.652 571.76 325.482 571.99 324.392 572.18C322.442 572.53 320.652 571.03 320.652 569.04V546.16L320.642 546.17Z" fill="black"/>
<path d="M474.542 546.52C474.542 545.06 475.542 543.79 476.952 543.43C485.202 541.36 488.922 540.11 496.832 536.32C496.832 536.32 500.882 534.21 504.922 531.3C517.102 522.54 525.212 510.63 525.212 510.63C534.672 497.28 537.762 474.91 538.482 468.49C538.592 467.55 537.852 466.72 536.902 466.72H500.572C500.342 466.72 500.132 466.84 500.022 467.04L499.872 467.29C494.292 478.11 486.872 487.99 480.442 494.24C473.992 500.5 468.582 505.05 464.372 507.75L461.772 509.42C460.712 510.1 459.322 509.34 459.322 508.08V479.89C459.322 478.95 459.742 478.06 460.462 477.45C461.112 476.9 461.982 476.13 463.172 475.06C465.932 472.57 469.042 468.51 472.412 462.98C475.752 457.51 479.342 450.21 483.062 441.29C486.442 433.2 488.972 423.09 490.852 412.06C491.112 410.53 492.442 409.42 493.992 409.42H513.902C515.902 409.42 517.412 411.25 517.032 413.21C516.392 416.52 515.702 420.88 514.842 424.31C513.572 429.39 512.752 432.3 511.232 436.72C510.972 437.47 511.532 438.24 512.322 438.24H591.172C592.932 438.24 594.352 439.67 594.352 441.42V463.51C594.352 465.27 592.922 466.69 591.172 466.69H568.132C567.322 466.69 566.632 467.3 566.552 468.11C565.922 474.01 562.872 497.16 552.382 517.26C538.282 546 508.132 566.39 478.332 572.13C476.372 572.51 474.552 571 474.552 569V546.48L474.542 546.52Z" fill="black"/>
<path d="M675.893 411.029V468.869C675.893 469.749 676.603 470.459 677.483 470.459H764.513C765.393 470.459 766.103 469.749 766.103 468.869V411.029C766.103 410.149 765.393 409.439 764.513 409.439H677.483C676.603 409.439 675.893 410.149 675.893 411.029ZM738.453 452.739H702.293C701.413 452.739 700.703 452.029 700.703 451.149V446.869C700.703 445.989 701.413 445.279 702.293 445.279H738.453C739.333 445.279 740.043 445.989 740.043 446.869V451.149C740.043 452.029 739.333 452.739 738.453 452.739ZM738.453 434.449H702.293C701.413 434.449 700.703 433.739 700.703 432.859V428.749C700.703 427.869 701.413 427.159 702.293 427.159H738.453C739.333 427.159 740.043 427.869 740.043 428.749V432.859C740.043 433.739 739.333 434.449 738.453 434.449Z" fill="black"/>
<path d="M674.222 497.34H728.262C729.142 497.34 729.852 498.05 729.852 498.93V502.84C729.852 503.72 729.142 504.43 728.262 504.43H667.752C665.992 504.43 664.572 505.86 664.572 507.61V522.86C664.572 524.62 666.002 526.04 667.752 526.04H728.262C729.142 526.04 729.852 526.75 729.852 527.63V545.39C729.852 546.11 729.932 547.98 729.212 548.85C728.382 549.87 727.142 549.67 725.842 549.72C722.532 549.72 719.572 549.7 716.942 549.66C716.542 549.66 716.252 549.29 716.332 548.9C716.592 547.63 716.722 546.31 716.692 544.96C716.492 535.68 708.932 528.08 699.652 527.84C689.572 527.58 681.362 535.85 681.702 545.94C682.012 555.29 689.782 562.81 699.142 562.84C704.032 562.85 708.452 560.86 711.632 557.64C711.972 557.3 712.542 557.43 712.692 557.88C714.152 562.21 715.532 566.34 716.782 570.05C717.222 571.35 718.452 572.22 719.822 572.21C725.722 572.17 730.502 571.96 734.172 571.6C738.302 571.18 742.082 570.15 745.512 568.5C749.172 566.84 751.682 564.42 753.042 561.23C754.402 558.04 755.082 553.55 755.082 547.76V527.62C755.082 526.74 755.792 526.03 756.672 526.03H762.902C764.662 526.03 766.082 524.6 766.082 522.85V507.6C766.082 505.84 764.652 504.42 762.902 504.42H756.672C755.792 504.42 755.082 503.71 755.082 502.83V498.92C755.082 498.04 755.792 497.33 756.672 497.33H762.902C764.662 497.33 766.082 495.9 766.082 494.15V479.6C766.082 477.84 764.652 476.42 762.902 476.42H674.202C672.442 476.42 671.022 477.85 671.022 479.6V494.15C671.022 495.91 672.452 497.33 674.202 497.33L674.222 497.34Z" fill="black"/>
<path d="M668.822 409.439H650.252C649.392 409.439 648.572 409.789 647.972 410.399C635.222 423.349 618.282 434.569 612.122 438.479C610.772 439.329 610.272 441.059 610.942 442.499L620.692 463.569C621.622 465.569 624.252 466.049 625.822 464.499C646.112 444.459 664.442 419.799 670.112 411.959C670.872 410.909 670.112 409.439 668.822 409.439Z" fill="black"/>
<path d="M671.912 453.889V435.409C671.912 433.999 670.212 433.289 669.202 434.279C653.632 449.599 620.042 477.059 611.672 483.859C610.542 484.779 610.182 486.349 610.792 487.669L620.692 509.049C621.622 511.049 624.252 511.529 625.822 509.979C627.532 508.289 629.232 506.559 630.912 504.819C631.312 504.409 632.012 504.689 632.012 505.259V569.059C632.012 570.819 633.442 572.239 635.192 572.239H653.812C655.572 572.239 656.992 570.809 656.992 569.059V476.369C656.992 475.299 657.352 474.249 658.022 473.409C664.862 464.729 669.712 458.019 671.332 455.739C671.712 455.199 671.922 454.559 671.922 453.889H671.912Z" fill="black"/>
<path d="M653.263 623.33C640.843 623.33 634.803 628.28 634.803 638.47V655.6C634.803 665.67 640.843 670.56 653.263 670.56C659.133 670.56 663.473 669.48 666.553 667.27C669.993 664.8 671.733 660.87 671.733 655.59V638.46C671.733 628.27 665.693 623.32 653.273 623.32L653.263 623.33ZM646.083 639.3C646.083 633.93 648.833 632.91 653.263 632.91C657.693 632.91 660.443 633.95 660.443 639.3V654.68C660.443 659.95 657.593 660.98 653.263 660.98C648.933 660.98 646.083 659.98 646.083 654.68V639.3Z" fill="black"/>
<path d="M708.263 669.331H721.353L703.623 646.781L720.553 624.8H707.393L694.053 642.281V610.23H682.763V669.331H694.053V659.211L696.943 655.451L708.263 669.331Z" fill="black"/>
<path d="M754.812 624.801V653.291C754.812 659.041 751.872 660.891 746.822 660.891C743.552 660.891 740.272 660.351 740.272 653.881V624.811H728.992V656.771C728.992 665.741 733.702 670.481 742.612 670.481C749.292 670.481 753.872 666.861 755.572 662.801L757.382 669.341H766.102V624.811H754.822L754.812 624.801Z" fill="black"/>
<path d="M630.563 610.23H589.143V620.141V620.151H604.213V669.331H615.683V620.151H630.563V610.23Z" fill="black"/>
<path d="M459.682 669.331H472.772L455.042 646.781L471.972 624.8H458.812L445.472 642.281V610.23H434.192V669.331H445.472V659.211L448.362 655.451L459.682 669.331Z" fill="black"/>
<path d="M355.322 610.23H313.902V620.141V620.151H328.982V669.331H340.442V620.151H355.322V610.23Z" fill="black"/>
<path d="M421.792 658.89L421.192 659.04C417.612 659.96 413.282 660.89 409.402 660.89C404.852 660.89 401.682 658.82 401.682 652.83V640.97C401.682 634.9 404.852 632.82 409.402 632.82C413.352 632.82 417.872 633.7 421.222 634.4L421.802 634.52V625.19L421.492 625.12C417.682 624.23 412.042 623.33 407.522 623.33C402.002 623.33 397.962 624.4 395.162 626.59C391.962 629.09 390.412 633.85 390.412 639.34V654.64C390.412 664.77 396.012 670.56 407.532 670.56C411.402 670.56 417.262 669.49 421.522 668.31L421.812 668.23V658.88L421.792 658.89Z" fill="black"/>
<path d="M553.922 634.699V624.799H543.682V615.189H532.402V624.799H525.172V634.699H532.402V655.419C532.402 667.939 540.292 670.559 546.922 670.559C548.702 670.559 550.502 670.449 552.112 670.219V660.259C551.462 660.329 550.252 660.359 549.532 660.359C546.452 660.359 543.682 659.729 543.682 652.089V634.689H553.922V634.699Z" fill="black"/>
<path d="M489.732 650.741V650.561H515.162V641.481C515.162 635.571 513.542 630.241 510.352 627.341C507.412 624.671 502.772 623.311 497.252 623.311C485.072 623.311 478.452 629.221 478.452 639.591V654.451C478.452 664.701 483.832 670.551 496.312 670.551C500.972 670.551 506.282 669.561 511.962 668.401L512.352 668.321V659.051L511.702 659.201C507.132 660.251 504.612 661.141 500.282 661.141C494.072 661.141 489.732 658.621 489.732 652.201V650.721V650.741ZM489.732 639.721C489.732 634.071 493.792 632.741 497.162 632.741C500.532 632.741 504.062 634.071 504.062 639.721V643.231H489.732V642.711V639.721Z" fill="black"/>
<path d="M378.173 626.881H366.893V669.331H378.173V626.881Z" fill="black"/>
<path d="M372.532 622.22C376.415 622.22 379.562 619.073 379.562 615.19C379.562 611.308 376.415 608.16 372.532 608.16C368.649 608.16 365.502 611.308 365.502 615.19C365.502 619.073 368.649 622.22 372.532 622.22Z" fill="black"/>
<path d="M585.733 643.92H566.143V651.26H585.733V643.92Z" fill="black"/>
<path d="M877.208 1674.16L882.728 1678.38C881.912 1678.96 881 1679.78 876.824 1683.66C874.376 1685.92 871.016 1688.61 865.4 1692.88C863.912 1693.98 863.576 1694.37 863.576 1694.9C863.576 1695.62 863.672 1695.71 867.896 1698.88C875.384 1704.54 876.776 1705.74 883.016 1711.41C883.496 1711.89 883.784 1712.13 884.408 1712.61L879.464 1717.6C878.216 1715.87 876.488 1714.05 873.224 1711.02C869.816 1707.86 868.232 1706.56 860.84 1700.8C857.672 1698.35 856.808 1697.06 856.808 1694.85C856.808 1693.41 857.336 1692.11 858.392 1690.96C859.016 1690.29 859.064 1690.24 862.616 1687.5C867.8 1683.57 870.488 1681.26 873.704 1678.14C875.864 1675.98 876.392 1675.36 877.208 1674.16Z" fill="black"/>
<path d="M827.767 1700.03H817.879C817.831 1705.26 815.959 1707.09 810.679 1707.09C810.535 1707.09 810.199 1707.09 809.815 1707.09C809.767 1704.74 809.575 1703.87 808.855 1702.29C810.103 1702.38 810.535 1702.43 811.111 1702.43C812.599 1702.43 813.079 1701.76 813.079 1699.74C813.079 1698.16 812.887 1696.62 812.455 1695.33C811.783 1693.07 811.063 1691.97 809.191 1690.1C811.351 1686.4 812.503 1683.71 813.655 1679.68H808.471V1711.98C808.471 1714 808.567 1716.21 808.711 1717.84H803.191C803.383 1716.26 803.479 1714.19 803.479 1711.94V1679.49C803.479 1677.76 803.431 1676.27 803.335 1674.93C804.199 1675.02 805.447 1675.07 806.983 1675.07H813.367C814.951 1675.07 815.959 1675.02 816.775 1674.88L819.559 1677.28C819.127 1678.24 819.079 1678.34 818.839 1679.01C817.975 1681.55 817.495 1682.8 816.535 1685.01C818.839 1683.76 820.231 1682.75 822.055 1681.02C824.647 1678.62 826.039 1676.85 827.671 1673.87H832.999C836.071 1679.01 840.679 1682.85 847.063 1685.58C845.959 1687.46 845.527 1688.51 844.903 1690.91C842.839 1689.81 842.023 1689.33 840.535 1688.32V1691.58C838.951 1691.44 838.567 1691.44 836.455 1691.44H832.855V1695.33H840.727C842.935 1695.33 843.847 1695.28 845.335 1695.09V1700.32C844.135 1700.13 842.695 1700.03 840.727 1700.03H832.855V1712.66C832.855 1716.5 831.511 1717.5 826.423 1717.5C825.463 1717.5 824.311 1717.46 822.151 1717.36C822.007 1715.44 821.671 1714.14 820.807 1712.27C822.247 1712.51 824.263 1712.7 825.415 1712.7C827.239 1712.7 827.767 1712.42 827.767 1711.46V1700.03ZM827.767 1695.33V1691.44H824.983C822.871 1691.44 822.535 1691.44 820.903 1691.58V1688.46C819.847 1689.18 819.511 1689.42 818.215 1690.19C817.255 1688.08 817.015 1687.7 815.959 1686.35C815.527 1687.36 815.287 1687.84 814.423 1689.57C816.199 1692.06 816.727 1693.12 817.303 1695.33H827.767ZM825.031 1686.93H836.455C837.463 1686.93 837.895 1686.93 838.567 1686.88C835.255 1684.38 832.711 1681.7 830.503 1678.43C828.007 1682.22 826.231 1684.19 822.919 1686.93C823.591 1686.93 823.879 1686.93 825.031 1686.93ZM835.255 1703.25L839.527 1701.57C840.631 1704.16 841.207 1705.31 842.647 1707.38C843.943 1709.3 844.663 1710.11 846.583 1711.84C845.143 1713.14 844.327 1714.1 843.031 1716.11C838.951 1711.41 837.415 1708.86 835.255 1703.25ZM820.471 1701.38L825.079 1703.15C823.687 1706.9 822.775 1708.67 821.047 1711.26C819.703 1713.18 818.887 1714.14 816.727 1716.16C815.383 1714.29 814.663 1713.52 813.079 1712.27C815.191 1710.59 816.103 1709.68 817.351 1707.9C818.791 1705.84 819.463 1704.45 820.471 1701.38Z" fill="black"/>
<path d="M756.968 1684.96L757.063 1679.49C759.031 1679.92 762.104 1680.11 768.2 1680.11C769.496 1677.23 769.928 1675.79 770.12 1674.16L776.408 1674.83C776.12 1675.31 776.119 1675.31 774.487 1679.15C774.247 1679.68 774.151 1679.82 774.055 1680.02C774.439 1679.97 774.44 1679.97 777.08 1679.82C782.648 1679.49 787.016 1678.96 789.656 1678.19L789.992 1683.66C788.648 1683.76 788.648 1683.76 786.2 1684.05C782.696 1684.48 776.6 1684.86 771.752 1685.01C770.36 1687.74 769.016 1689.66 767.336 1691.39L767.383 1691.49C767.719 1691.25 767.72 1691.25 768.344 1690.77C770.12 1689.42 772.664 1688.61 775.112 1688.61C778.856 1688.61 781.208 1690.38 781.976 1693.7C785.672 1692.35 788.12 1691.49 789.32 1691.1C791.912 1690.19 792.104 1690.14 792.872 1689.66L795.128 1695.18C793.784 1695.38 792.344 1695.76 789.799 1696.48C789.127 1696.67 786.727 1697.49 782.599 1698.93V1699.46C782.647 1700.7 782.648 1700.7 782.648 1701.38C782.648 1701.86 782.648 1702.67 782.648 1703.3C782.6 1704.11 782.599 1704.54 782.599 1704.88C782.599 1705.94 782.648 1706.61 782.744 1707.42L777.175 1707.57C777.367 1706.7 777.464 1704.26 777.464 1702C777.464 1701.33 777.464 1701.33 777.464 1700.85C775.112 1701.95 773.864 1702.62 772.856 1703.34C771.176 1704.59 770.359 1705.89 770.359 1707.28C770.359 1709.78 772.663 1710.78 778.471 1710.78C784.231 1710.78 789.175 1710.06 792.583 1708.77L793.063 1714.96C792.247 1714.96 792.008 1715.01 790.856 1715.15C787.4 1715.68 782.792 1716.02 778.568 1716.02C773.48 1716.02 770.312 1715.44 767.864 1714C765.656 1712.75 764.359 1710.45 764.359 1707.81C764.359 1705.84 764.935 1704.3 766.471 1702.48C768.631 1699.79 771.368 1697.97 776.792 1695.71C776.552 1693.94 775.592 1693.12 773.864 1693.12C771.08 1693.12 767.719 1694.8 764.023 1698.06C762.007 1699.74 760.903 1700.94 759.847 1702.43L755.479 1698.11C756.727 1697.15 758.119 1695.81 759.799 1693.84C761.671 1691.63 764.6 1687.46 765.56 1685.63C765.752 1685.25 765.751 1685.25 765.943 1685.01C765.751 1685.01 765.128 1685.06 765.128 1685.06C764.36 1685.06 760.136 1684.96 759.08 1684.96C758.168 1684.91 758.167 1684.91 757.735 1684.91C757.591 1684.91 757.304 1684.91 756.968 1684.96Z" fill="black"/>
<path d="M707.096 1698.93V1692.26C709.208 1692.54 710.12 1692.59 714.872 1692.59H740.456C745.208 1692.59 746.12 1692.54 748.232 1692.26V1698.93C746.312 1698.69 745.784 1698.69 740.408 1698.69H714.92C709.544 1698.69 709.016 1698.69 707.096 1698.93Z" fill="black"/>
<path d="M687.079 1709.78H692.119C694.327 1709.78 695.239 1709.73 696.535 1709.49V1714.96C695.239 1714.82 694.135 1714.77 692.119 1714.77H667.207C665.095 1714.77 664.087 1714.82 662.791 1714.96V1709.49C664.135 1709.73 664.999 1709.78 667.207 1709.78H681.367C682.183 1705.5 683.191 1698.74 683.671 1694.37H671.767C669.463 1694.37 668.743 1694.42 667.495 1694.56V1689.14C668.695 1689.33 670.039 1689.42 671.911 1689.42H684.055C685.735 1689.42 686.455 1689.33 687.607 1688.99L690.247 1691.3C689.671 1692.78 689.671 1692.78 689.143 1696.77C688.423 1702.05 687.895 1705.46 687.079 1709.78Z" fill="black"/>
<path d="M616.568 1687.17V1680.83C618.296 1681.12 619.4 1681.17 622.232 1681.17H641.096C643.928 1681.17 645.032 1681.12 646.76 1680.83V1687.17C645.176 1686.98 644.024 1686.93 641.144 1686.93H622.184C619.304 1686.93 618.152 1686.98 616.568 1687.17ZM611.72 1710.64V1704.21C613.544 1704.5 614.6 1704.54 617.864 1704.54H645.416C648.68 1704.54 649.736 1704.5 651.56 1704.21V1710.64C649.88 1710.45 648.632 1710.4 645.512 1710.4H617.768C614.648 1710.4 613.4 1710.45 611.72 1710.64Z" fill="black"/>
<path d="M591.991 1675.55L598.519 1677.81C597.991 1678.72 597.799 1679.1 596.839 1681.26C593.815 1688.42 591.943 1692.06 590.071 1694.85C594.103 1698.26 596.599 1700.61 600.775 1705.02L596.167 1709.97C593.671 1706.7 590.791 1703.73 586.423 1699.84C584.359 1702.58 581.863 1705.26 578.935 1707.86C575.479 1710.88 572.407 1713.04 567.511 1715.78C566.215 1713.47 565.447 1712.61 563.287 1710.78C568.615 1708.14 571.927 1705.94 575.719 1702.48C578.023 1700.42 579.943 1698.35 581.815 1695.95C577.975 1692.78 573.367 1689.66 569.095 1687.31L573.319 1683.09C576.823 1685.15 578.887 1686.5 581.239 1688.18C584.839 1690.77 584.839 1690.77 585.223 1691.01C588.295 1685.97 591.367 1679.01 591.991 1675.55Z" fill="black"/>
<path d="M552.672 1675.02L558.192 1678.86C557.376 1679.58 557.136 1679.78 556.416 1680.54C552.816 1684.29 549.216 1687.41 545.088 1690.43V1710.93C545.088 1713.57 545.136 1714.96 545.328 1716.26H538.608C538.848 1714.86 538.896 1713.9 538.896 1711.07V1694.18C533.28 1697.54 530.592 1698.78 521.76 1701.95C520.752 1699.46 520.224 1698.64 518.544 1696.48C528.048 1693.89 536.112 1689.9 543.744 1684C548.016 1680.69 551.28 1677.38 552.672 1675.02Z" fill="black"/>
<path d="M494.592 1694.27V1709.73H504.384C506.64 1709.73 507.504 1709.68 508.848 1709.44V1714.82C507.456 1714.67 506.496 1714.62 504.384 1714.62H479.664C477.504 1714.62 476.544 1714.67 475.2 1714.82V1709.44C476.544 1709.68 477.408 1709.73 479.616 1709.73H489.024V1694.27H482.592C480.816 1694.27 479.808 1694.32 478.176 1694.56V1689.04C479.472 1689.28 480.624 1689.38 482.544 1689.38H501.408C503.424 1689.38 504.48 1689.28 505.824 1689.04V1694.46C504.528 1694.32 503.808 1694.27 501.456 1694.27H494.592Z" fill="black"/>
<path d="M460.272 1681.94L463.056 1684.77C462.624 1685.68 462.576 1685.97 462.336 1687.41C461.52 1692.93 460.8 1695.62 459.312 1699.02C456.96 1704.54 453.12 1708.82 447.456 1712.27C444.576 1714.05 442.08 1715.15 437.904 1716.59C436.8 1714.14 436.224 1713.28 434.064 1710.88C438.624 1709.78 441.264 1708.77 444.288 1706.9C451.248 1702.58 454.896 1696.48 455.808 1687.65H432.384V1693.84C432.384 1695.33 432.432 1696.62 432.528 1697.68H426.096C426.24 1696.48 426.336 1694.99 426.336 1693.65V1686.69C426.336 1684.67 426.288 1683.42 426.144 1682.13C427.824 1682.32 428.688 1682.37 431.328 1682.37H440.736V1678.24C440.736 1676.7 440.688 1675.84 440.496 1674.74H447.168C447.024 1675.55 446.928 1676.85 446.928 1678.19V1682.32H455.568C459.12 1682.32 459.12 1682.32 460.272 1681.94Z" fill="black"/>
<path d="M413.712 1677.28L416.928 1680.93C416.256 1681.74 416.256 1681.79 415.008 1684.29C413.328 1687.84 410.544 1691.44 407.616 1693.94C405.696 1695.62 404.112 1696.67 401.856 1697.92C400.416 1695.9 399.696 1695.18 397.536 1693.55C400.752 1692.11 402.576 1691.01 404.544 1689.14C406.512 1687.31 408 1685.34 409.104 1683.04H383.904C380.544 1683.04 379.344 1683.09 377.376 1683.33V1677.33C379.2 1677.62 380.688 1677.71 384 1677.71H409.056C411.936 1677.71 412.368 1677.66 413.712 1677.28ZM390.912 1686.98H397.44C397.296 1687.89 397.296 1687.94 397.248 1690.86C397.056 1699.07 395.76 1703.68 392.496 1707.86C389.616 1711.55 386.112 1714 380.112 1716.5C378.864 1713.9 378.24 1713.04 376.32 1711.02C380.208 1709.87 382.368 1708.82 384.72 1706.94C389.616 1703.06 391.152 1698.93 391.152 1689.86C391.152 1688.42 391.104 1687.98 390.912 1686.98Z" fill="black"/>
<path d="M362.928 1680.26L366 1683.28C365.52 1684 365.328 1684.43 364.8 1686.16C362.592 1693.46 359.184 1699.94 354.96 1704.69C350.544 1709.73 345.264 1713.47 337.872 1716.88C336.528 1714.48 335.904 1713.66 333.792 1711.84C338.592 1709.87 341.28 1708.43 344.304 1706.18C351.168 1701.09 355.68 1694.51 358.32 1685.92L343.872 1686.16C340.944 1690.82 337.2 1694.94 332.64 1698.45C331.2 1696.48 330.48 1695.86 327.984 1694.32C333.456 1690.58 336.912 1686.74 340.416 1680.4C341.904 1677.66 342.672 1675.79 342.864 1674.06L349.44 1675.36C349.152 1675.79 349.152 1675.79 348.624 1676.85C348.48 1677.09 348.48 1677.09 348 1678.19C347.856 1678.48 347.856 1678.48 347.376 1679.44C347.088 1680.11 347.088 1680.11 346.608 1680.98C347.232 1680.93 348 1680.88 348.912 1680.88L359.424 1680.74C361.296 1680.74 361.824 1680.64 362.928 1680.26Z" fill="black"/>
<path d="M316.984 1675.02L322.504 1678.86C321.688 1679.58 321.448 1679.78 320.728 1680.54C317.128 1684.29 313.528 1687.41 309.4 1690.43V1710.93C309.4 1713.57 309.448 1714.96 309.64 1716.26H302.92C303.16 1714.86 303.208 1713.9 303.208 1711.07V1694.18C297.592 1697.54 294.904 1698.78 286.072 1701.95C285.064 1699.46 284.536 1698.64 282.856 1696.48C292.36 1693.89 300.424 1689.9 308.056 1684C312.328 1680.69 315.592 1677.38 316.984 1675.02Z" fill="black"/>
<path d="M270.425 1694.42H260.153C259.913 1699.94 258.857 1703.92 256.793 1707.33C254.249 1711.55 250.745 1714.19 244.265 1716.78C243.065 1714.34 242.441 1713.52 240.377 1711.5C246.137 1709.73 249.737 1707.18 251.753 1703.49C253.001 1701.28 253.721 1698.16 253.865 1694.42H242.153C238.889 1694.42 237.785 1694.46 236.057 1694.66V1688.94C237.881 1689.23 238.937 1689.28 242.249 1689.28H270.329C273.593 1689.28 274.697 1689.23 276.521 1688.94V1694.66C274.793 1694.46 273.689 1694.42 270.425 1694.42ZM240.905 1682.7V1676.85C242.681 1677.14 243.641 1677.18 247.097 1677.18H265.529C268.985 1677.18 269.945 1677.14 271.721 1676.85V1682.7C270.137 1682.51 268.985 1682.46 265.625 1682.46H247.001C243.641 1682.46 242.489 1682.51 240.905 1682.7Z" fill="black"/>
<path d="M869.406 1632.8L873.486 1629.01C877.902 1632.37 880.59 1635.01 884.286 1639.57L879.822 1643.74C876.318 1638.99 873.582 1636.11 869.406 1632.8Z" fill="black"/>
<path d="M853.106 1605.63H859.97C859.778 1607.31 859.634 1609.38 859.634 1611.54V1613.02H861.65C863.906 1613.02 864.962 1612.98 866.498 1612.74V1618.4C864.914 1618.16 864.002 1618.11 861.794 1618.11H859.634V1632.99C859.634 1635.34 860.498 1636.21 862.802 1636.21C864.05 1636.21 864.818 1635.97 866.306 1635.15L867.17 1640.24C865.106 1641.01 863.666 1641.25 861.17 1641.25C855.65 1641.25 853.442 1639.28 853.442 1634.24V1618.11H851.618C849.842 1618.11 848.93 1618.16 847.346 1618.4V1612.74C848.738 1612.98 849.65 1613.02 851.666 1613.02H853.442V1611.54C853.442 1609.47 853.298 1607.36 853.106 1605.63Z" fill="black"/>
<path d="M824.505 1640.58H817.593C817.881 1638.51 817.977 1637.02 817.977 1634.34V1619.26C817.977 1616.62 817.881 1614.99 817.593 1613.02H824.121V1615.57C824.121 1616.29 824.121 1616.43 824.025 1617.63C826.953 1613.89 829.497 1612.54 833.817 1612.54C837.513 1612.54 840.249 1613.74 841.977 1616.1C843.129 1617.68 843.609 1619.6 843.609 1622.82V1634.34C843.609 1636.98 843.705 1638.8 843.993 1640.58H837.033C837.273 1638.42 837.369 1636.78 837.369 1634.34V1623.68C837.369 1621.66 837.129 1620.37 836.553 1619.46C835.785 1618.21 834.345 1617.49 832.521 1617.49C829.065 1617.49 826.233 1619.89 824.121 1624.64V1634.34C824.121 1636.69 824.217 1638.51 824.505 1640.58Z" fill="black"/>
<path d="M812.855 1628.38H791.975C792.215 1631.02 792.647 1632.37 793.751 1633.76C795.143 1635.49 797.303 1636.45 799.751 1636.45C802.103 1636.45 804.119 1635.58 805.511 1634.05C806.087 1633.38 806.423 1632.85 806.903 1631.55L812.567 1633.38C811.463 1635.68 810.839 1636.59 809.639 1637.79C807.143 1640.24 803.783 1641.49 799.751 1641.49C791.255 1641.49 785.879 1635.82 785.879 1626.85C785.879 1617.97 791.207 1612.16 799.415 1612.16C805.031 1612.16 809.447 1614.94 811.367 1619.74C812.279 1622.05 812.615 1623.78 812.759 1627.04C812.759 1627.14 812.759 1627.28 812.855 1628.38ZM792.119 1623.63H806.615C806.279 1621.52 805.703 1620.22 804.503 1619.02C803.207 1617.73 801.575 1617.1 799.319 1617.1C795.575 1617.1 792.839 1619.6 792.119 1623.63Z" fill="black"/>
<path d="M745.33 1640.58H738.562C738.802 1638.51 738.898 1636.93 738.898 1634.34V1619.26C738.898 1616.24 738.802 1614.85 738.562 1613.02H744.994V1615.47C744.994 1615.76 744.993 1616.48 744.945 1617.25C746.337 1614.32 749.89 1612.45 753.874 1612.45C756.466 1612.45 758.577 1613.17 760.065 1614.61C760.929 1615.38 761.314 1616 761.89 1617.49C763.522 1615.33 764.434 1614.46 765.922 1613.7C767.506 1612.83 769.137 1612.45 771.297 1612.45C774.369 1612.45 776.865 1613.41 778.497 1615.18C780.081 1616.91 780.754 1619.07 780.754 1622.48V1634.34C780.754 1637.02 780.85 1638.61 781.138 1640.58H774.13C774.418 1638.61 774.513 1637.17 774.513 1634.34V1623.58C774.513 1619.36 773.026 1617.44 769.81 1617.44C768.226 1617.44 767.026 1617.87 765.874 1618.88C764.194 1620.32 763.425 1621.86 762.849 1624.83V1634.34C762.849 1636.98 762.945 1638.61 763.185 1640.58H756.273C756.561 1638.56 756.658 1637.07 756.658 1634.34V1623.58C756.658 1619.55 755.122 1617.54 752.002 1617.54C749.986 1617.54 748.353 1618.35 747.057 1620.03C746.001 1621.42 745.522 1622.53 744.994 1624.83V1634.34C744.994 1636.93 745.09 1638.37 745.33 1640.58Z" fill="black"/>
<path d="M719.606 1641.49C710.822 1641.49 705.254 1635.82 705.254 1626.85C705.254 1617.92 710.822 1612.21 719.558 1612.21C728.246 1612.21 733.766 1617.87 733.766 1626.75C733.766 1635.63 728.15 1641.49 719.606 1641.49ZM719.558 1617.2C714.518 1617.2 711.446 1620.85 711.446 1626.85C711.446 1632.75 714.518 1636.4 719.51 1636.4C724.502 1636.4 727.574 1632.8 727.574 1626.94C727.574 1620.75 724.646 1617.2 719.558 1617.2Z" fill="black"/>
<path d="M682.535 1640.58H676.871C676.631 1639.04 675.863 1636.78 674.759 1634.1L667.847 1617.63C666.935 1615.47 666.503 1614.18 665.399 1610.29C665.591 1612.83 665.783 1616.77 665.783 1617.82V1633.57C665.783 1636.88 665.879 1638.7 666.167 1640.58H659.447C659.735 1638.66 659.831 1636.78 659.831 1633.57V1609.47C659.831 1606.35 659.735 1604.34 659.447 1602.37H668.231C668.567 1604.05 669.191 1606.06 670.007 1608.08L679.751 1631.89L689.447 1608.08C690.407 1605.73 690.839 1604.19 691.175 1602.37H700.007C699.719 1604.67 699.623 1606.26 699.623 1609.47V1633.57C699.623 1637.07 699.719 1638.8 700.007 1640.58H693.287C693.575 1638.61 693.671 1636.88 693.671 1633.57V1617.63C693.863 1613.46 694.007 1611.01 694.055 1610.29C693.431 1612.88 692.519 1615.57 691.847 1617.3L684.647 1634.19C683.687 1636.45 682.823 1639.14 682.535 1640.58Z" fill="black"/>
<path d="M624.075 1641.49C615.291 1641.49 609.723 1635.82 609.723 1626.85C609.723 1617.92 615.291 1612.21 624.027 1612.21C632.715 1612.21 638.235 1617.87 638.235 1626.75C638.235 1635.63 632.619 1641.49 624.075 1641.49ZM624.027 1617.2C618.987 1617.2 615.915 1620.85 615.915 1626.85C615.915 1632.75 618.987 1636.4 623.979 1636.4C628.971 1636.4 632.043 1632.8 632.043 1626.94C632.043 1620.75 629.115 1617.2 624.027 1617.2Z" fill="black"/>
<path d="M596.422 1640.58H589.558C589.27 1639.28 589.078 1638.7 588.118 1636.3L580.774 1618.06C580.246 1616.82 579.478 1615.04 578.518 1613.02H585.862C586.006 1614.08 586.438 1615.71 587.062 1617.49L591.958 1631.41C592.246 1632.18 592.678 1633.62 592.966 1634.62C593.302 1633.57 593.686 1632.37 594.022 1631.41L598.918 1617.49C599.686 1615.23 599.926 1614.37 600.118 1613.02H607.414C606.742 1614.37 606.166 1615.71 605.254 1618.06L597.862 1636.3C596.902 1638.75 596.758 1639.18 596.422 1640.58Z" fill="black"/>
<path d="M568.03 1602.37H575.086V1608.46H568.03V1602.37ZM568.03 1613.02H575.038C574.798 1614.8 574.702 1616.38 574.702 1619.31V1634.29C574.702 1636.93 574.798 1638.56 575.038 1640.58H568.03C568.318 1638.42 568.414 1636.74 568.414 1634.34V1619.26C568.414 1616.62 568.318 1614.99 568.03 1613.02Z" fill="black"/>
<path d="M550.434 1605.63H557.298C557.106 1607.31 556.962 1609.38 556.962 1611.54V1613.02H558.978C561.234 1613.02 562.29 1612.98 563.826 1612.74V1618.4C562.242 1618.16 561.33 1618.11 559.122 1618.11H556.962V1632.99C556.962 1635.34 557.826 1636.21 560.13 1636.21C561.378 1636.21 562.146 1635.97 563.634 1635.15L564.498 1640.24C562.434 1641.01 560.994 1641.25 558.498 1641.25C552.978 1641.25 550.77 1639.28 550.77 1634.24V1618.11H548.946C547.17 1618.11 546.258 1618.16 544.674 1618.4V1612.74C546.066 1612.98 546.978 1613.02 548.994 1613.02H550.77V1611.54C550.77 1609.47 550.626 1607.36 550.434 1605.63Z" fill="black"/>
<path d="M534.187 1602.37H541.243V1608.46H534.187V1602.37ZM534.187 1613.02H541.195C540.955 1614.8 540.859 1616.38 540.859 1619.31V1634.29C540.859 1636.93 540.955 1638.56 541.195 1640.58H534.187C534.475 1638.42 534.57 1636.74 534.57 1634.34V1619.26C534.57 1616.62 534.475 1614.99 534.187 1613.02Z" fill="black"/>
<path d="M530.674 1613.02L528.994 1619.07C526.978 1618.5 525.97 1618.3 524.722 1618.3C522.322 1618.3 520.498 1619.07 519.154 1620.66C517.954 1622.05 517.474 1623.15 517.186 1625.46V1634.34C517.186 1636.93 517.282 1638.32 517.522 1640.58H510.658C510.898 1638.22 510.994 1636.83 510.994 1634.34V1619.26C510.994 1616.34 510.946 1614.99 510.658 1613.02H517.186V1617.54C518.914 1614.13 521.89 1612.5 526.21 1612.5C527.362 1612.5 528.514 1612.64 530.674 1613.02Z" fill="black"/>
<path d="M505.824 1628.38H484.944C485.184 1631.02 485.616 1632.37 486.72 1633.76C488.112 1635.49 490.272 1636.45 492.72 1636.45C495.072 1636.45 497.088 1635.58 498.48 1634.05C499.056 1633.38 499.392 1632.85 499.872 1631.55L505.536 1633.38C504.432 1635.68 503.808 1636.59 502.608 1637.79C500.112 1640.24 496.752 1641.49 492.72 1641.49C484.224 1641.49 478.848 1635.82 478.848 1626.85C478.848 1617.97 484.176 1612.16 492.384 1612.16C498 1612.16 502.416 1614.94 504.336 1619.74C505.248 1622.05 505.584 1623.78 505.728 1627.04C505.728 1627.14 505.728 1627.28 505.824 1628.38ZM485.088 1623.63H499.584C499.248 1621.52 498.672 1620.22 497.472 1619.02C496.176 1617.73 494.544 1617.1 492.288 1617.1C488.544 1617.1 485.808 1619.6 485.088 1623.63Z" fill="black"/>
<path d="M452.399 1613.02V1615.38C452.399 1615.9 452.399 1616.43 452.351 1617.06C454.991 1613.7 457.823 1612.35 462.143 1612.35C465.983 1612.35 469.055 1613.5 471.263 1615.71C473.807 1618.3 475.055 1621.9 475.055 1626.75C475.055 1635.58 470.207 1640.91 462.047 1640.91C457.823 1640.91 454.655 1639.42 452.351 1636.3C452.351 1636.88 452.351 1636.88 452.399 1637.84C452.447 1638.18 452.447 1639.04 452.447 1639.9V1643.55C452.447 1646.38 452.543 1647.92 452.783 1649.94H446.015C446.255 1647.68 446.351 1646.05 446.351 1643.6V1619.46C446.351 1616.67 446.255 1615.09 446.015 1613.02H452.399ZM468.815 1626.66C468.815 1620.99 465.839 1617.49 460.991 1617.49C456.239 1617.49 452.639 1621.42 452.639 1626.56C452.639 1632.03 456.191 1635.87 461.183 1635.87C465.887 1635.87 468.815 1632.32 468.815 1626.66Z" fill="black"/>
<path d="M442.53 1640.58H434.658C434.37 1638.99 433.842 1636.93 433.314 1635.54L431.394 1630.3H416.034L414.114 1635.54C413.25 1637.84 413.058 1638.56 412.674 1640.58H404.802C405.522 1639.28 406.482 1637.12 407.346 1634.91L417.906 1607.22C418.818 1604.82 419.202 1603.62 419.442 1602.37H427.794C428.034 1603.52 428.322 1604.29 429.426 1607.22L440.082 1634.91C441.282 1637.98 441.858 1639.33 442.53 1640.58ZM429.666 1624.78L424.53 1610.58C424.338 1610.05 424.194 1609.47 423.666 1607.89C422.898 1610.14 422.898 1610.14 422.754 1610.58L417.762 1624.78H429.666Z" fill="black"/>
<path d="M382.866 1620.27V1635.73H392.658C394.914 1635.73 395.778 1635.68 397.122 1635.44V1640.82C395.73 1640.67 394.77 1640.62 392.658 1640.62H367.938C365.778 1640.62 364.818 1640.67 363.474 1640.82V1635.44C364.818 1635.68 365.682 1635.73 367.89 1635.73H377.298V1620.27H370.866C369.09 1620.27 368.082 1620.32 366.45 1620.56V1615.04C367.746 1615.28 368.898 1615.38 370.818 1615.38H389.682C391.698 1615.38 392.754 1615.28 394.098 1615.04V1620.46C392.802 1620.32 392.082 1620.27 389.73 1620.27H382.866Z" fill="black"/>
<path d="M347.538 1604.53L350.802 1607.65C350.37 1608.46 350.226 1608.8 349.986 1609.81C347.586 1618.98 344.754 1624.74 340.146 1629.92C335.442 1635.2 330.306 1638.7 322.29 1642.16C320.946 1639.57 320.322 1638.66 318.066 1636.45C322.29 1635.1 325.026 1633.86 328.578 1631.55C336.066 1626.7 340.77 1619.94 343.122 1610.62H320.274C317.058 1610.62 315.954 1610.67 314.226 1610.91V1604.67C316.098 1604.96 317.106 1605.01 320.37 1605.01H342.402C345.09 1605.01 346.05 1604.91 347.538 1604.53Z" fill="black"/>
<path d="M299.921 1609.23L302.657 1611.63C302.273 1612.5 302.177 1613.17 302.129 1614.85C301.985 1620.27 301.457 1627.66 300.977 1630.83C299.729 1639.14 298.049 1641.1 292.289 1641.1C290.465 1641.1 288.833 1640.96 286.337 1640.58C286.241 1637.55 286.097 1636.64 285.233 1634.43C288.065 1635.2 289.985 1635.54 291.569 1635.54C293.633 1635.54 294.353 1634.48 295.121 1630.3C295.697 1626.99 296.177 1620.46 296.177 1614.94L284.993 1614.99C284.321 1620.99 283.313 1624.59 281.153 1628.72C278.513 1633.81 274.241 1638.18 268.193 1642.02C266.561 1639.47 265.889 1638.7 263.873 1636.93C269.873 1633.76 273.809 1629.97 276.353 1624.83C277.649 1622.19 278.369 1619.84 278.801 1616.48C278.897 1615.81 278.993 1615.33 279.041 1614.99L271.073 1615.04C268.145 1615.04 267.473 1615.09 265.889 1615.28L265.841 1609.38C267.473 1609.66 268.769 1609.76 271.169 1609.76L279.569 1609.71C279.713 1607.89 279.809 1605.1 279.809 1603.71V1602.51C279.809 1601.89 279.809 1601.5 279.665 1600.64L286.097 1600.78C286.001 1601.41 285.953 1601.6 285.905 1602.27C285.905 1602.56 285.857 1602.85 285.857 1603.18C285.761 1604.19 285.761 1604.19 285.665 1606.69C285.617 1607.74 285.617 1608.18 285.473 1609.71L296.129 1609.66C298.289 1609.66 298.721 1609.62 299.921 1609.23Z" fill="black"/>
<path d="M236.273 1620.08L253.313 1603.04L254.849 1604.62L237.809 1621.76L254.849 1638.8L253.313 1640.38L236.273 1623.49L219.281 1640.38L217.697 1638.8L234.737 1621.76L217.697 1604.62L219.281 1603.04L236.273 1620.08ZM236.321 1604.19C238.337 1604.19 239.969 1605.82 239.969 1607.84C239.969 1609.9 238.337 1611.54 236.321 1611.54C234.305 1611.54 232.625 1609.86 232.625 1607.84C232.625 1605.82 234.305 1604.19 236.321 1604.19ZM222.545 1618.06C224.561 1618.06 226.193 1619.7 226.193 1621.71C226.193 1623.78 224.561 1625.41 222.545 1625.41C220.529 1625.41 218.849 1623.73 218.849 1621.71C218.849 1619.7 220.481 1618.06 222.545 1618.06ZM250.001 1618.11C252.017 1618.11 253.649 1619.74 253.649 1621.76C253.649 1623.78 252.017 1625.41 250.001 1625.41C247.985 1625.41 246.353 1623.78 246.353 1621.76C246.353 1619.74 247.985 1618.11 250.001 1618.11ZM236.273 1632.03C238.289 1632.03 239.921 1633.66 239.921 1635.73C239.921 1637.74 238.241 1639.42 236.273 1639.42C234.353 1639.42 232.577 1637.65 232.577 1635.73C232.577 1633.9 234.305 1632.03 235.937 1632.03C235.985 1632.03 236.033 1632.03 236.081 1632.08C236.129 1632.13 236.129 1632.13 236.177 1632.13C236.177 1632.13 236.177 1632.13 236.273 1632.03Z" fill="black"/>
<path d="M759.528 1484.83V1509.03C759.528 1517.62 759.77 1521.85 760.496 1526.45H742.467C743.193 1522.34 743.435 1517.26 743.435 1509.27V1445.5C743.435 1438.85 743.193 1435.34 742.467 1429.77C747.428 1430.02 750.453 1430.14 757.834 1430.14H791.714C799.337 1430.14 803.209 1429.89 808.291 1429.29V1445.62C803.935 1445.02 799.458 1444.78 791.714 1444.78H759.528V1470.43H785.422C792.924 1470.43 797.159 1470.19 801.878 1469.58V1485.68C797.401 1485.07 792.803 1484.83 785.422 1484.83H759.528Z" fill="black"/>
<path d="M681.658 1484.83V1509.03C681.658 1517.62 681.9 1521.85 682.626 1526.45H664.597C665.323 1522.34 665.565 1517.26 665.565 1509.27V1445.5C665.565 1438.85 665.323 1435.34 664.597 1429.77C669.558 1430.02 672.583 1430.14 679.964 1430.14H713.844C721.467 1430.14 725.339 1429.89 730.421 1429.29V1445.62C726.065 1445.02 721.588 1444.78 713.844 1444.78H681.658V1470.43H707.552C715.054 1470.43 719.289 1470.19 724.008 1469.58V1485.68C719.531 1485.07 714.933 1484.83 707.552 1484.83H681.658Z" fill="black"/>
<path d="M605.077 1428.2C618.387 1428.2 628.672 1432.07 636.9 1440.3C645.733 1449.13 650.452 1462.32 650.452 1478.05C650.452 1508.66 632.665 1528.51 605.198 1528.51C577.731 1528.51 560.065 1508.79 560.065 1478.05C560.065 1462.44 564.905 1449.01 573.859 1440.3C582.208 1432.07 592.251 1428.2 605.077 1428.2ZM605.44 1514.11C622.743 1514.11 633.512 1500.32 633.512 1478.05C633.512 1465.83 630.124 1456.03 623.953 1449.86C618.992 1445.02 612.579 1442.48 605.319 1442.48C587.895 1442.48 576.884 1456.27 576.884 1478.17C576.884 1490.27 580.393 1500.44 586.685 1506.73C591.646 1511.57 598.059 1514.11 605.44 1514.11Z" fill="black"/>
<path d="M457.026 1524.64L533.135 1427.23L539.427 1432.07L463.197 1529.6L457.026 1524.64ZM526.722 1528.39C519.946 1528.39 514.38 1526.33 510.266 1522.22C505.668 1517.74 503.248 1510.48 503.248 1501.28C503.248 1492.21 505.668 1485.07 510.266 1480.47C514.38 1476.48 520.067 1474.3 526.722 1474.3C533.377 1474.3 539.064 1476.48 543.057 1480.47C547.655 1484.95 550.075 1492.21 550.075 1501.28C550.075 1510.48 547.655 1517.74 543.057 1522.22C538.943 1526.33 533.377 1528.39 526.722 1528.39ZM526.722 1484.59C523.213 1484.59 520.914 1485.68 518.978 1488.46C516.8 1491.48 515.711 1495.6 515.711 1501.04C515.711 1512.17 519.583 1518.22 526.722 1518.22C533.982 1518.22 537.733 1512.17 537.733 1500.44C537.733 1495.6 536.523 1491.24 534.466 1488.34C532.409 1485.68 530.231 1484.59 526.722 1484.59ZM469.731 1482.41C462.955 1482.41 457.389 1480.35 453.275 1476.24C448.677 1471.76 446.257 1464.38 446.257 1455.3C446.257 1438.36 454.969 1428.32 469.731 1428.32C476.386 1428.32 482.073 1430.5 486.066 1434.49C490.664 1438.97 493.084 1446.23 493.084 1455.3C493.084 1464.5 490.664 1471.76 486.066 1476.24C481.952 1480.35 476.386 1482.41 469.731 1482.41ZM469.731 1438.61C462.713 1438.61 458.72 1444.54 458.72 1455.06C458.72 1466.19 462.592 1472.24 469.731 1472.24C476.749 1472.24 480.742 1466.19 480.742 1455.3C480.742 1450.95 479.895 1446.59 478.564 1444.05C476.507 1440.3 473.724 1438.61 469.731 1438.61Z" fill="black"/>
<path d="M398.351 1528.39C388.066 1528.39 379.354 1525 372.941 1518.59C369.311 1514.96 366.528 1510.72 364.955 1506.37C361.809 1497.77 360.236 1488.34 360.236 1478.54C360.236 1465.71 363.14 1452.4 367.617 1445.02C374.151 1434.13 385.041 1428.2 398.472 1428.2C408.757 1428.2 417.59 1431.59 424.003 1438C427.633 1441.63 430.416 1445.87 431.989 1450.22C435.135 1458.69 436.708 1468.37 436.708 1478.29C436.708 1493.18 433.441 1506.24 427.754 1514.11C420.978 1523.55 410.935 1528.39 398.351 1528.39ZM398.472 1514.35C403.796 1514.35 408.515 1512.54 411.54 1509.27C416.985 1503.58 420.01 1492.33 420.01 1478.17C420.01 1464.14 416.985 1453.13 411.54 1447.2C408.636 1443.93 403.796 1442.11 398.351 1442.11C392.543 1442.11 388.308 1444.05 384.799 1448.29C379.475 1454.58 376.813 1464.5 376.813 1477.69C376.813 1490.39 379.112 1500.92 382.984 1506.49C386.735 1511.81 391.817 1514.35 398.472 1514.35Z" fill="black"/>
<path d="M323.463 1526.45H305.192C305.918 1521.73 306.16 1517.01 306.16 1510.72V1444.05H300.352C295.875 1444.05 292.366 1444.29 287.889 1444.78V1429.41C291.64 1430.02 294.302 1430.14 299.989 1430.14H311.121C317.292 1430.14 319.107 1430.02 323.463 1429.53C322.737 1436.67 322.495 1442.24 322.495 1449.5V1510.72C322.495 1517.14 322.737 1521.49 323.463 1526.45Z" fill="black"/>
<path d="M830.836 1339.59L831.364 1334.07C833.572 1334.94 834.916 1335.22 839.812 1335.9C840.004 1334.17 840.436 1330.95 840.676 1329.18C837.844 1328.79 837.076 1328.7 833.812 1327.98C833.14 1327.83 832.9 1327.78 832.18 1327.64L832.66 1322.36C834.676 1323.13 838.084 1323.8 841.348 1324.09C842.02 1320.06 842.308 1317.56 842.308 1316.12C842.308 1315.98 842.308 1315.88 842.26 1315.64L848.644 1316.22C848.116 1317.7 847.972 1318.42 847.108 1324.33C852.532 1324.23 855.316 1323.99 858.052 1323.32L857.86 1328.94C857.236 1328.98 856.996 1329.03 855.94 1329.13C852.484 1329.42 850.948 1329.51 849.22 1329.51C848.74 1329.51 848.308 1329.51 846.244 1329.46C845.764 1332.97 845.62 1333.93 845.332 1336.23C846.772 1336.28 847.156 1336.28 847.684 1336.28C851.092 1336.28 854.548 1335.94 856.852 1335.32L856.708 1340.84C856.228 1340.84 856.084 1340.84 855.268 1340.98C853.156 1341.22 850.324 1341.42 848.068 1341.42C847.3 1341.42 846.868 1341.42 844.996 1341.32C844.852 1342.62 844.756 1343.86 844.756 1344.73C844.756 1347.08 845.284 1348.57 846.532 1349.67C847.924 1350.87 849.844 1351.45 852.484 1351.45C858.58 1351.45 862.084 1348.76 862.084 1344.06C862.084 1341.27 860.644 1338.58 857.764 1335.94C860.452 1335.75 861.46 1335.56 863.716 1334.74C864.916 1336.14 865.444 1336.86 865.972 1337.77C867.22 1339.88 868.036 1342.62 868.036 1344.82C868.036 1348.23 866.356 1351.54 863.428 1353.8C860.692 1355.91 857.092 1356.97 852.58 1356.97C843.844 1356.97 839.092 1352.79 839.092 1345.06C839.092 1343.82 839.14 1342.62 839.332 1340.98C836.452 1340.6 834.58 1340.31 832.66 1339.88C831.652 1339.64 831.508 1339.64 830.836 1339.59Z" fill="black"/>
<path d="M795.185 1332.39H795.233C796.625 1330.86 797.633 1329.99 801.089 1327.4C805.265 1324.23 808.289 1322.89 811.217 1322.89C815.249 1322.89 817.937 1325.43 817.937 1329.27C817.937 1330.86 817.601 1332.92 816.737 1336.62C815.105 1343.86 814.721 1345.88 814.721 1347.42C814.721 1348.95 815.441 1349.82 816.689 1349.82C817.745 1349.82 819.041 1348.86 820.049 1347.37C821.201 1345.69 822.257 1343.62 822.833 1341.9C823.889 1344.44 824.465 1345.45 826.049 1347.66C824.609 1350.15 823.937 1351.06 822.689 1352.41C820.577 1354.76 818.225 1355.86 815.585 1355.86C814.001 1355.86 812.513 1355.38 811.457 1354.62C809.729 1353.27 808.961 1351.5 808.961 1348.57C808.961 1345.78 809.153 1344.49 810.929 1336.52C811.649 1333.45 811.937 1331.58 811.937 1330.47C811.937 1329.32 811.265 1328.7 809.969 1328.7C808.433 1328.7 806.369 1329.61 804.017 1331.29C800.513 1333.88 797.105 1336.9 795.281 1339.11C795.185 1341.27 795.185 1342.62 795.185 1343.96C795.185 1344.34 795.185 1344.34 795.233 1349.67C795.281 1355.67 795.281 1355.82 795.473 1357.59H789.281C789.569 1355.62 789.569 1355.62 789.617 1349.96C789.617 1344.82 789.617 1344.82 789.713 1343.53L789.617 1343.58C789.185 1344.25 788.657 1344.87 786.209 1347.61C785.153 1348.81 784.481 1349.62 784.001 1350.34L781.217 1344.63C782.321 1343.86 783.089 1343.14 784.337 1341.9C788.849 1337.43 788.849 1337.43 789.761 1336.42C789.809 1334.12 789.809 1333.59 789.905 1331.72C789.905 1330.62 789.953 1330.52 789.953 1329.22C784.865 1329.56 783.905 1329.66 782.609 1329.9L782.321 1324.47C783.185 1324.57 783.617 1324.57 784.289 1324.57C785.201 1324.57 787.841 1324.42 790.097 1324.28C790.145 1323.56 790.145 1323.56 790.193 1322.46C790.193 1321.11 790.241 1319.62 790.241 1318.52C790.241 1317.27 790.241 1316.94 790.097 1315.83L796.193 1315.93C796.049 1316.5 796.049 1316.6 796.001 1317.7C796.001 1317.94 795.953 1318.57 795.857 1319.53C795.809 1320.49 795.761 1320.87 795.665 1323.8C795.713 1323.8 795.905 1323.7 796.241 1323.61L798.017 1325.62C797.537 1326.01 797.345 1326.2 796.625 1327.06C796.385 1327.3 796.385 1327.3 795.953 1327.93C795.761 1328.22 795.665 1328.31 795.377 1328.7L795.281 1331.53C795.281 1331.53 795.233 1331.82 795.185 1332.39Z" fill="black"/>
<path d="M756.065 1316.7H762.113C761.921 1318.09 761.921 1318.47 761.873 1322.36C763.985 1322.36 766.193 1322.36 768.497 1322.31C767.201 1319.58 766.001 1317.61 764.129 1315.4L767.585 1313.86C769.409 1316.07 770.705 1318.14 772.001 1320.92L768.977 1322.31C769.985 1322.26 770.081 1322.26 771.137 1322.26C773.729 1322.22 774.449 1322.22 775.745 1322.07L775.793 1327.59C774.065 1327.45 771.473 1327.35 767.777 1327.35C766.865 1327.35 766.865 1327.35 761.921 1327.4V1335.8C762.977 1338.01 763.457 1339.98 763.457 1342.57C763.457 1347.85 760.961 1352.36 756.305 1355.58C754.289 1356.92 752.081 1357.93 747.617 1359.46C746.321 1356.63 745.697 1355.67 744.209 1354.04C752.033 1352.7 757.169 1349.05 757.937 1344.25C756.545 1346.46 754.049 1347.66 750.881 1347.66C748.673 1347.66 746.993 1347.13 745.361 1345.93C743.105 1344.3 742.049 1342.18 742.049 1339.45C742.049 1334.36 746.033 1330.71 751.553 1330.71C753.665 1330.71 755.441 1331.24 756.545 1332.15C756.497 1332.01 756.497 1331.91 756.497 1331.86V1331.58C756.449 1330.28 756.449 1328.94 756.449 1327.5C750.641 1327.64 746.561 1327.78 744.209 1327.93C736.145 1328.46 735.761 1328.5 734.417 1328.74L734.225 1322.98C735.281 1323.08 735.713 1323.08 736.577 1323.08C737.777 1323.08 738.545 1323.08 744.737 1322.84C747.041 1322.79 750.929 1322.7 756.353 1322.55L756.305 1319.53C756.257 1318.04 756.257 1317.7 756.065 1316.7ZM752.369 1335.13C749.633 1335.13 747.665 1336.76 747.665 1339.02C747.665 1341.18 749.393 1342.76 751.745 1342.76C754.385 1342.76 756.401 1340.94 756.401 1338.44C756.401 1337.53 756.113 1336.81 755.489 1336.28C754.673 1335.56 753.521 1335.13 752.369 1335.13ZM778.865 1319.53L775.505 1321.26C774.113 1318.38 772.865 1316.41 771.233 1314.39L774.449 1312.9C776.273 1315.02 777.617 1317.03 778.865 1319.53Z" fill="black"/>
<path d="M688.433 1319.72H695.009C694.769 1321.5 694.625 1323.85 694.625 1327.02C694.625 1331.19 695.009 1336.95 695.537 1339.88C696.353 1344.87 697.889 1347.94 699.425 1347.94C700.145 1347.94 700.817 1347.22 701.393 1345.88C702.545 1343.29 703.409 1340.41 703.937 1337.19C705.617 1339.11 706.385 1339.83 708.737 1341.56C706.241 1350.92 703.457 1354.81 699.377 1354.81C696.161 1354.81 693.569 1352.46 691.649 1347.85C689.681 1343.05 688.817 1336.09 688.625 1322.79C688.577 1321.11 688.577 1320.78 688.433 1319.72ZM712.673 1324.28L717.713 1321.88C723.761 1329.13 727.121 1337.14 728.513 1347.7L722.561 1349.96C722.273 1345.45 721.169 1340.46 719.489 1336.09C717.857 1331.72 715.553 1327.83 712.673 1324.28Z" fill="black"/>
<path d="M661.889 1335.27V1350.73H671.681C673.937 1350.73 674.801 1350.68 676.145 1350.44V1355.82C674.753 1355.67 673.793 1355.62 671.681 1355.62H646.961C644.801 1355.62 643.841 1355.67 642.497 1355.82V1350.44C643.841 1350.68 644.705 1350.73 646.913 1350.73H656.321V1335.27H649.889C648.113 1335.27 647.105 1335.32 645.473 1335.56V1330.04C646.769 1330.28 647.921 1330.38 649.841 1330.38H668.705C670.721 1330.38 671.777 1330.28 673.121 1330.04V1335.46C671.825 1335.32 671.105 1335.27 668.753 1335.27H661.889Z" fill="black"/>
<path d="M626.561 1319.53L629.825 1322.65C629.393 1323.46 629.249 1323.8 629.009 1324.81C626.609 1333.98 623.777 1339.74 619.169 1344.92C614.465 1350.2 609.329 1353.7 601.313 1357.16C599.969 1354.57 599.345 1353.66 597.089 1351.45C601.313 1350.1 604.049 1348.86 607.601 1346.55C615.089 1341.7 619.793 1334.94 622.145 1325.62H599.297C596.081 1325.62 594.977 1325.67 593.249 1325.91V1319.67C595.121 1319.96 596.129 1320.01 599.393 1320.01H621.425C624.113 1320.01 625.073 1319.91 626.561 1319.53Z" fill="black"/>
<path d="M578.944 1324.23L581.68 1326.63C581.296 1327.5 581.2 1328.17 581.152 1329.85C581.008 1335.27 580.48 1342.66 580 1345.83C578.752 1354.14 577.072 1356.1 571.312 1356.1C569.488 1356.1 567.856 1355.96 565.36 1355.58C565.264 1352.55 565.12 1351.64 564.256 1349.43C567.088 1350.2 569.008 1350.54 570.592 1350.54C572.656 1350.54 573.376 1349.48 574.144 1345.3C574.72 1341.99 575.2 1335.46 575.2 1329.94L564.016 1329.99C563.344 1335.99 562.336 1339.59 560.176 1343.72C557.536 1348.81 553.264 1353.18 547.216 1357.02C545.584 1354.47 544.912 1353.7 542.896 1351.93C548.896 1348.76 552.832 1344.97 555.376 1339.83C556.672 1337.19 557.392 1334.84 557.824 1331.48C557.92 1330.81 558.016 1330.33 558.064 1329.99L550.096 1330.04C547.168 1330.04 546.496 1330.09 544.912 1330.28L544.864 1324.38C546.496 1324.66 547.792 1324.76 550.192 1324.76L558.592 1324.71C558.736 1322.89 558.832 1320.1 558.832 1318.71V1317.51C558.832 1316.89 558.832 1316.5 558.688 1315.64L565.12 1315.78C565.024 1316.41 564.976 1316.6 564.928 1317.27C564.928 1317.56 564.88 1317.85 564.88 1318.18C564.784 1319.19 564.784 1319.19 564.688 1321.69C564.64 1322.74 564.64 1323.18 564.496 1324.71L575.152 1324.66C577.312 1324.66 577.744 1324.62 578.944 1324.23Z" fill="black"/>
<path d="M515.297 1331.05C518.465 1331.05 521.009 1333.59 521.009 1336.76C521.009 1339.93 518.465 1342.47 515.297 1342.47C512.129 1342.47 509.585 1339.93 509.585 1336.76C509.585 1333.59 512.129 1331.05 515.297 1331.05Z" fill="black"/>
<path d="M449.153 1324.18L453.137 1319.43C458.849 1322.98 461.825 1325.19 465.521 1328.7L461.393 1333.93C457.553 1329.85 453.617 1326.68 449.153 1324.18ZM450.833 1355.86L449.057 1349.24C453.185 1349 458.897 1347.61 463.265 1345.69C469.265 1343.1 473.729 1339.4 477.521 1333.93C479.633 1330.86 480.977 1328.22 482.417 1324.33C484.289 1326.58 485.057 1327.3 487.505 1329.03C483.425 1337.82 478.865 1343.48 472.289 1347.85C467.393 1351.11 461.441 1353.46 454.001 1355.05C452.081 1355.43 451.937 1355.48 450.833 1355.86Z" fill="black"/>
<path d="M404.993 1323.18V1317.27C406.577 1317.56 407.585 1317.61 410.609 1317.61H427.361C430.385 1317.61 431.393 1317.56 432.977 1317.27V1323.18C431.489 1322.98 430.577 1322.94 427.457 1322.94H410.513C407.393 1322.94 406.481 1322.98 404.993 1323.18ZM435.425 1328.74L438.161 1331.82C437.681 1332.68 437.393 1333.35 436.817 1334.84C434.321 1341.9 430.673 1347.22 425.681 1351.06C422.273 1353.7 419.153 1355.34 413.105 1357.59C412.049 1355.19 411.473 1354.38 409.361 1352.02C415.217 1350.54 419.009 1348.76 422.705 1345.69C426.257 1342.71 428.321 1339.78 430.433 1334.46H407.057C403.841 1334.46 402.641 1334.5 400.913 1334.7V1328.84C402.737 1329.13 403.793 1329.18 407.153 1329.18H430.001C432.977 1329.18 433.937 1329.08 435.425 1328.74Z" fill="black"/>
<path d="M366.593 1357.16H360.017C360.257 1355.62 360.305 1354.33 360.305 1351.78V1321.02C360.305 1318.66 360.209 1317.42 360.017 1316.12H366.593C366.401 1317.56 366.401 1318.18 366.401 1321.16V1330.09C372.977 1332.39 380.513 1335.9 388.193 1340.22L384.833 1345.88C380.849 1343.14 375.857 1340.41 367.841 1336.71C366.737 1336.18 366.593 1336.14 366.209 1335.9C366.353 1337.24 366.401 1337.82 366.401 1339.16V1351.83C366.401 1354.33 366.449 1355.58 366.593 1357.16Z" fill="black"/>
<path d="M344.081 1351.59L339.473 1356.58C335.489 1351.69 329.969 1346.31 324.737 1342.33C319.313 1348.38 313.793 1352.6 306.449 1356.2C305.105 1353.7 304.529 1352.94 302.561 1350.87C306.257 1349.43 308.561 1348.14 312.161 1345.59C319.409 1340.5 325.169 1333.54 328.289 1326.06L328.817 1324.81C328.049 1324.86 328.049 1324.86 312.929 1325.1C310.625 1325.14 309.329 1325.24 307.697 1325.48L307.505 1319.34C308.849 1319.58 309.761 1319.62 311.729 1319.62C311.921 1319.62 312.305 1319.62 312.881 1319.62L329.777 1319.38C332.465 1319.34 332.849 1319.29 334.049 1318.86L337.217 1322.12C336.593 1322.84 336.209 1323.51 335.681 1324.71C333.473 1329.85 331.121 1334.02 328.193 1337.96C331.217 1339.98 333.809 1341.99 337.073 1344.92C338.273 1345.98 338.273 1345.98 344.081 1351.59Z" fill="black"/>
<path d="M263.756 1317.22L270.572 1317.27C270.38 1318.57 270.332 1319.77 270.284 1322.12L270.044 1349.53C275.036 1348.57 279.548 1346.74 283.148 1344.25C287.564 1341.22 290.54 1337.91 292.94 1333.26C294.812 1335.75 295.436 1336.42 297.5 1338.15C294.188 1343.24 291.116 1346.46 286.796 1349.34C281.996 1352.55 277.1 1354.42 269.324 1355.91C268.028 1356.15 267.452 1356.34 266.444 1356.73L263.372 1353.03C263.708 1351.74 263.804 1350.87 263.804 1348.09L263.996 1322.17C263.996 1318.81 263.996 1318.81 263.756 1317.22Z" fill="black"/>
<path d="M832.926 1227.11C820.482 1227.11 812.594 1219.08 812.594 1206.37C812.594 1193.72 820.482 1185.63 832.858 1185.63C845.166 1185.63 852.986 1193.65 852.986 1206.23C852.986 1218.81 845.03 1227.11 832.926 1227.11ZM832.858 1192.7C825.718 1192.7 821.366 1197.87 821.366 1206.37C821.366 1214.73 825.718 1219.9 832.79 1219.9C839.862 1219.9 844.214 1214.8 844.214 1206.5C844.214 1197.73 840.066 1192.7 832.858 1192.7Z" fill="black"/>
<path d="M784.515 1223.1L771.799 1195.22C768.807 1188.48 768.739 1188.28 767.923 1186.78H778.259C778.599 1188.76 779.619 1191.95 780.843 1194.74L789.139 1214.05L796.687 1194.81C798.319 1190.66 798.863 1188.96 799.271 1186.78H809.403C808.995 1187.67 807.771 1190.46 805.731 1195.22L790.227 1231.6C788.051 1236.76 784.039 1239.14 777.715 1239.14C775.675 1239.14 773.703 1238.94 770.575 1238.33L772.139 1230.58C774.043 1231.39 775.335 1231.73 776.899 1231.73C779.279 1231.73 781.251 1230.44 782.203 1228.33L784.515 1223.1Z" fill="black"/>
<path d="M727.303 1171.69H736.891C736.551 1174.27 736.415 1176.65 736.415 1180.6V1202.97L746.615 1192.84C749.743 1189.84 750.899 1188.48 751.987 1186.78H764.703C760.827 1190.25 760.827 1190.25 757.903 1193.04L748.247 1202.22L759.739 1217.93C764.363 1224.25 764.363 1224.25 765.927 1225.82H753.823C753.007 1223.64 752.191 1222.28 749.335 1218.13L741.991 1207.39L736.415 1212.69V1217.11C736.415 1221.53 736.483 1223.16 736.891 1225.82H727.303C727.643 1223.03 727.779 1220.72 727.779 1216.98V1180.6C727.779 1176.52 727.643 1174.27 727.303 1171.69Z" fill="black"/>
<path d="M700.312 1227.11C687.868 1227.11 679.98 1219.08 679.98 1206.37C679.98 1193.72 687.868 1185.63 700.244 1185.63C712.552 1185.63 720.372 1193.65 720.372 1206.23C720.372 1218.81 712.416 1227.11 700.312 1227.11ZM700.244 1192.7C693.104 1192.7 688.752 1197.87 688.752 1206.37C688.752 1214.73 693.104 1219.9 700.176 1219.9C707.248 1219.9 711.6 1214.8 711.6 1206.5C711.6 1197.73 707.452 1192.7 700.244 1192.7Z" fill="black"/>
<path d="M663.99 1179.85V1216.98C663.99 1220.65 664.126 1223.03 664.534 1225.82H654.266C654.674 1222.96 654.81 1220.65 654.81 1216.98V1179.85H645.63C641.618 1179.85 638.694 1179.98 636.314 1180.32V1171.21C638.762 1171.55 641.686 1171.69 645.562 1171.69H672.49C677.386 1171.69 679.902 1171.55 682.486 1171.21V1180.32C679.97 1179.98 677.386 1179.85 672.49 1179.85H663.99Z" fill="black"/>
<path d="M610.153 1208.54H580.573C580.913 1212.28 581.525 1214.19 583.089 1216.16C585.061 1218.61 588.121 1219.97 591.589 1219.97C594.921 1219.97 597.777 1218.74 599.749 1216.57C600.565 1215.62 601.041 1214.87 601.721 1213.03L609.745 1215.62C608.181 1218.88 607.298 1220.17 605.598 1221.87C602.062 1225.34 597.301 1227.11 591.589 1227.11C579.553 1227.11 571.938 1219.08 571.938 1206.37C571.938 1193.79 579.485 1185.56 591.113 1185.56C599.069 1185.56 605.325 1189.5 608.045 1196.3C609.337 1199.57 609.813 1202.02 610.017 1206.64C610.017 1206.78 610.017 1206.98 610.153 1208.54ZM580.777 1201.81H601.313C600.837 1198.82 600.021 1196.98 598.321 1195.28C596.485 1193.45 594.173 1192.56 590.977 1192.56C585.673 1192.56 581.797 1196.1 580.777 1201.81Z" fill="black"/>
<path d="M537.607 1225.82H527.815C528.223 1222.89 528.359 1220.78 528.359 1216.98V1195.62C528.359 1191.88 528.223 1189.57 527.815 1186.78H537.063V1190.39C537.063 1191.41 537.063 1191.61 536.927 1193.31C541.075 1188.01 544.679 1186.1 550.799 1186.1C556.035 1186.1 559.911 1187.8 562.359 1191.14C563.991 1193.38 564.671 1196.1 564.671 1200.66V1216.98C564.671 1220.72 564.807 1223.3 565.215 1225.82H555.355C555.695 1222.76 555.831 1220.44 555.831 1216.98V1201.88C555.831 1199.02 555.491 1197.19 554.675 1195.9C553.587 1194.13 551.547 1193.11 548.963 1193.11C544.067 1193.11 540.055 1196.51 537.063 1203.24V1216.98C537.063 1220.31 537.199 1222.89 537.607 1225.82Z" fill="black"/>
<path d="M509.354 1171.69H519.35V1180.32H509.354V1171.69ZM509.354 1186.78H519.283C518.943 1189.3 518.806 1191.54 518.806 1195.69V1216.91C518.806 1220.65 518.943 1222.96 519.283 1225.82H509.354C509.762 1222.76 509.898 1220.38 509.898 1216.98V1195.62C509.898 1191.88 509.762 1189.57 509.354 1186.78Z" fill="black"/>
<path d="M484.427 1176.31H494.151C493.879 1178.69 493.675 1181.62 493.675 1184.68V1186.78H496.531C499.727 1186.78 501.223 1186.72 503.399 1186.38V1194.4C501.155 1194.06 499.863 1193.99 496.735 1193.99H493.675V1215.07C493.675 1218.4 494.899 1219.63 498.163 1219.63C499.931 1219.63 501.019 1219.29 503.127 1218.13L504.351 1225.34C501.427 1226.43 499.387 1226.77 495.851 1226.77C488.031 1226.77 484.903 1223.98 484.903 1216.84V1193.99H482.319C479.803 1193.99 478.511 1194.06 476.267 1194.4V1186.38C478.239 1186.72 479.531 1186.78 482.387 1186.78H484.903V1184.68C484.903 1181.75 484.699 1178.76 484.427 1176.31Z" fill="black"/>
<path d="M437.861 1214.73L447.177 1213.58C448.333 1218.2 450.849 1220.04 456.153 1220.04C461.185 1220.04 464.313 1218.06 464.313 1214.87C464.313 1213.51 463.633 1212.22 462.545 1211.47C461.253 1210.58 460.845 1210.52 455.405 1209.29C450.033 1208.14 447.925 1207.46 445.613 1206.37C441.737 1204.53 439.629 1201.27 439.629 1197.32C439.629 1194.94 440.377 1192.7 441.737 1191C444.525 1187.46 449.149 1185.7 455.337 1185.7C460.913 1185.7 465.333 1187.06 468.121 1189.64C469.889 1191.34 470.841 1193.04 471.793 1196.37L462.817 1197.53C462.069 1193.79 459.757 1192.16 455.337 1192.16C451.121 1192.16 448.265 1194.06 448.265 1196.92C448.265 1198.21 449.013 1199.36 450.373 1200.11C451.869 1200.86 453.297 1201.27 457.173 1202.15C464.109 1203.65 466.897 1204.6 469.141 1206.3C471.793 1208.2 473.085 1210.99 473.085 1214.73C473.085 1217.52 471.793 1220.51 469.753 1222.42C466.625 1225.34 461.865 1226.84 455.677 1226.84C448.673 1226.84 443.437 1224.73 440.513 1220.78C439.289 1219.15 438.677 1217.79 437.861 1214.73Z" fill="black"/>
<path d="M421.101 1171.69H431.097V1180.32H421.101V1171.69ZM421.101 1186.78H431.029C430.689 1189.3 430.553 1191.54 430.553 1195.69V1216.91C430.553 1220.65 430.689 1222.96 431.029 1225.82H421.101C421.509 1222.76 421.645 1220.38 421.645 1216.98V1195.62C421.645 1191.88 421.509 1189.57 421.101 1186.78Z" fill="black"/>
<path d="M416.124 1186.78L413.744 1195.35C410.888 1194.54 409.46 1194.26 407.692 1194.26C404.292 1194.26 401.708 1195.35 399.804 1197.6C398.104 1199.57 397.424 1201.13 397.016 1204.4V1216.98C397.016 1220.65 397.152 1222.62 397.492 1225.82H387.768C388.108 1222.48 388.244 1220.51 388.244 1216.98V1195.62C388.244 1191.48 388.176 1189.57 387.768 1186.78H397.016V1193.18C399.464 1188.35 403.68 1186.04 409.8 1186.04C411.432 1186.04 413.064 1186.24 416.124 1186.78Z" fill="black"/>
<path d="M349.964 1225.82H339.9C340.308 1223.1 340.444 1220.72 340.444 1217.04V1180.26C340.444 1176.99 340.308 1174.54 339.9 1171.48C342.824 1171.62 344.932 1171.69 348.536 1171.69H362.748C369.344 1171.69 373.968 1173.25 377.232 1176.52C380.02 1179.24 381.448 1183.32 381.448 1188.21C381.448 1193.38 379.884 1197.6 376.892 1200.72C373.56 1204.06 368.936 1205.62 362.408 1205.62H349.42V1216.98C349.42 1220.65 349.556 1223.23 349.964 1225.82ZM349.42 1197.8H362.408C368.664 1197.8 372.064 1194.47 372.064 1188.48C372.064 1185.76 371.316 1183.52 369.82 1181.96C368.256 1180.26 366.012 1179.51 362.408 1179.51H349.42V1197.8Z" fill="black"/>
<path d="M309.931 1208.54H280.351C280.691 1212.28 281.303 1214.19 282.867 1216.16C284.839 1218.61 287.899 1219.97 291.367 1219.97C294.699 1219.97 297.555 1218.74 299.527 1216.57C300.343 1215.62 300.819 1214.87 301.499 1213.03L309.523 1215.62C307.959 1218.88 307.075 1220.17 305.375 1221.87C301.839 1225.34 297.079 1227.11 291.367 1227.11C279.331 1227.11 271.715 1219.08 271.715 1206.37C271.715 1193.79 279.263 1185.56 290.891 1185.56C298.847 1185.56 305.103 1189.5 307.823 1196.3C309.115 1199.57 309.591 1202.02 309.795 1206.64C309.795 1206.78 309.795 1206.98 309.931 1208.54ZM280.555 1201.81H301.091C300.615 1198.82 299.799 1196.98 298.099 1195.28C296.263 1193.45 293.951 1192.56 290.755 1192.56C285.451 1192.56 281.575 1196.1 280.555 1201.81Z" fill="black"/>
<path d="M268.684 1217.11V1226.29C266.236 1225.95 263.856 1225.82 259.028 1225.82H238.9C235.092 1225.82 232.712 1225.88 230.264 1226.02C230.672 1223.5 230.808 1220.99 230.808 1217.04V1181.75C230.808 1177.06 230.672 1174.61 230.264 1171.69H240.532C240.124 1174.48 239.988 1176.72 239.988 1181.68V1217.59H259.028C263.652 1217.59 265.828 1217.45 268.684 1217.11Z" fill="black"/>
</svg>
