<svg width="1080" height="1920" viewBox="0 0 1080 1920" fill="none" xmlns="http://www.w3.org/2000/svg">
<path d="M1080 1920L1080 0L0 0L0 1920H1080Z" fill="#A5D4AD"/>
<path d="M1020 983.72V95C1020 75.67 1004.33 60 985 60H95.58C75.93 60 60 75.93 60 95.58V983.71C60 984.03 60.25 984.28 60.57 984.28C80.03 984.59 95.71 1000.46 95.71 1019.99C95.71 1039.52 80.03 1055.39 60.57 1055.7C60.25 1055.7 60 1055.96 60 1056.27V1824.99C60 1844.32 75.67 1859.99 95 1859.99H985C1004.33 1859.99 1020 1844.32 1020 1824.99V1056.27C1020 1055.95 1019.75 1055.7 1019.43 1055.7C999.97 1055.39 984.29 1039.52 984.29 1019.99C984.29 1000.46 999.97 984.59 1019.43 984.28C1019.75 984.28 1020 984.02 1020 983.71V983.72Z" fill="white"/>
<path d="M60.57 1055.71C60.25 1055.71 60 1055.97 60 1056.28V1825C60 1844.33 75.67 1860 95 1860H985C1004.33 1860 1020 1844.33 1020 1825V1056.28C1020 1055.96 1019.75 1055.71 1019.43 1055.71C999.97 1055.4 984.29 1039.53 984.29 1020H95.71C95.71 1039.53 80.03 1055.4 60.57 1055.71Z" fill="#E5F2E6"/>
<path d="M121 1020H160.9" stroke="black" stroke-width="6" stroke-miterlimit="10"/>
<path d="M187.512 1020H227.412" stroke="black" stroke-width="6" stroke-miterlimit="10"/>
<path d="M254.02 1020H293.92" stroke="black" stroke-width="6" stroke-miterlimit="10"/>
<path d="M320.52 1020H360.43" stroke="black" stroke-width="6" stroke-miterlimit="10"/>
<path d="M387.031 1020H426.941" stroke="black" stroke-width="6" stroke-miterlimit="10"/>
<path d="M453.539 1020H493.439" stroke="black" stroke-width="6" stroke-miterlimit="10"/>
<path d="M520.051 1020H559.951" stroke="black" stroke-width="6" stroke-miterlimit="10"/>
<path d="M586.559 1020H626.459" stroke="black" stroke-width="6" stroke-miterlimit="10"/>
<path d="M653.059 1020H692.969" stroke="black" stroke-width="6" stroke-miterlimit="10"/>
<path d="M719.57 1020H759.48" stroke="black" stroke-width="6" stroke-miterlimit="10"/>
<path d="M786.078 1020H825.978" stroke="black" stroke-width="6" stroke-miterlimit="10"/>
<path d="M852.59 1020H892.49" stroke="black" stroke-width="6" stroke-miterlimit="10"/>
<path d="M919.102 1020H959.002" stroke="black" stroke-width="6" stroke-miterlimit="10"/>
<path d="M1020 984.29V95C1020 75.67 1004.33 60 985 60H95C75.67 60 60 75.67 60 95V984.29C79.72 984.29 95.71 1000.28 95.71 1020C95.71 1039.72 79.72 1055.71 60 1055.71V1825C60 1844.33 75.67 1860 95 1860H985C1004.33 1860 1020 1844.33 1020 1825V1055.71C1000.28 1055.71 984.29 1039.72 984.29 1020C984.29 1000.28 1000.28 984.29 1020 984.29Z" stroke="black" stroke-width="6" stroke-miterlimit="10"/>
<path d="M912.642 525.66C908.772 525.66 905.532 522.64 905.312 518.73C900.582 435.62 868.782 358.85 813.362 296.74C810.662 293.71 810.922 289.06 813.952 286.36C816.982 283.66 821.622 283.92 824.332 286.95C881.992 351.57 915.062 431.43 919.992 517.89C920.222 521.94 917.122 525.42 913.072 525.65C912.932 525.65 912.792 525.66 912.652 525.66H912.642Z" fill="black"/>
<path d="M818.842 795.509C817.102 795.509 815.352 794.889 813.952 793.639C810.922 790.939 810.662 786.289 813.362 783.259C868.782 721.149 900.582 644.379 905.312 561.269C905.542 557.219 909.022 554.109 913.072 554.349C917.122 554.579 920.222 558.049 919.992 562.109C915.062 648.579 881.992 728.439 824.332 793.049C822.882 794.679 820.862 795.509 818.842 795.509Z" fill="black"/>
<path d="M167.352 525.66C167.212 525.66 167.072 525.66 166.932 525.65C162.882 525.42 159.782 521.95 160.012 517.89C164.942 431.42 198.012 351.56 255.672 286.95C258.372 283.92 263.022 283.66 266.052 286.36C269.082 289.06 269.342 293.71 266.642 296.74C211.222 358.85 179.422 435.61 174.692 518.73C174.472 522.64 171.232 525.66 167.362 525.66H167.352Z" fill="black"/>
<path d="M261.162 795.509C259.142 795.509 257.122 794.679 255.672 793.049C198.012 728.429 164.942 648.569 160.012 562.109C159.782 558.059 162.882 554.579 166.932 554.349C170.982 554.109 174.462 557.219 174.692 561.269C179.422 644.389 211.222 721.149 266.642 783.259C269.342 786.289 269.082 790.939 266.052 793.639C264.652 794.889 262.902 795.509 261.162 795.509Z" fill="black"/>
<path d="M788.164 268.509C786.424 268.509 784.674 267.889 783.274 266.639C721.164 211.219 644.394 179.419 561.284 174.689C557.234 174.459 554.134 170.989 554.364 166.929C554.594 162.879 558.034 159.789 562.124 160.009C648.594 164.939 728.454 198.009 793.064 255.669C796.094 258.369 796.354 263.019 793.654 266.049C792.204 267.679 790.184 268.509 788.164 268.509Z" fill="black"/>
<path d="M291.844 268.51C289.824 268.51 287.804 267.68 286.354 266.05C283.654 263.02 283.914 258.37 286.944 255.67C351.564 198.01 431.424 164.94 517.884 160.01C521.934 159.78 525.414 162.88 525.644 166.93C525.874 170.98 522.774 174.46 518.724 174.69C435.614 179.42 358.844 211.22 296.734 266.64C295.334 267.89 293.584 268.51 291.844 268.51Z" fill="black"/>
<path d="M561.682 920C557.812 920 554.572 916.98 554.352 913.07C554.122 909.02 557.222 905.54 561.272 905.31C644.392 900.58 721.152 868.78 783.262 813.36C786.292 810.66 790.942 810.92 793.642 813.95C796.342 816.98 796.082 821.63 793.052 824.33C728.432 881.99 648.572 915.06 562.112 919.99C561.972 919.99 561.832 920 561.692 920H561.682Z" fill="black"/>
<path d="M518.312 920C518.172 920 518.032 920 517.892 919.99C431.422 915.06 351.562 881.99 286.952 824.33C283.922 821.63 283.662 816.98 286.362 813.95C289.062 810.92 293.712 810.66 296.742 813.36C358.852 868.78 435.622 900.58 518.732 905.31C522.782 905.54 525.882 909.01 525.652 913.07C525.432 916.98 522.192 920 518.322 920H518.312Z" fill="black"/>
<path d="M875.37 526.191C872.36 526.191 869.84 523.841 869.67 520.801C865.4 445.791 836.7 376.521 786.69 320.461C784.59 318.101 784.79 314.491 787.15 312.391C789.5 310.291 793.12 310.491 795.22 312.851C846.97 370.851 876.67 442.541 881.09 520.151C881.27 523.301 878.86 526.001 875.71 526.181C875.6 526.181 875.49 526.181 875.38 526.181L875.37 526.191Z" fill="black"/>
<path d="M790.95 769.062C789.59 769.062 788.24 768.582 787.15 767.612C784.79 765.512 784.59 761.892 786.69 759.542C836.7 703.492 865.4 634.212 869.67 559.202C869.85 556.052 872.54 553.642 875.7 553.822C878.85 554.002 881.26 556.702 881.08 559.852C876.66 637.472 846.97 709.152 795.21 767.152C794.08 768.422 792.51 769.062 790.94 769.062H790.95Z" fill="black"/>
<path d="M204.622 526.191C204.512 526.191 204.402 526.191 204.292 526.191C201.142 526.011 198.732 523.311 198.912 520.161C203.332 442.541 233.022 370.861 284.782 312.861C286.882 310.501 290.502 310.301 292.852 312.401C295.212 314.501 295.412 318.121 293.312 320.471C243.302 376.521 214.602 445.801 210.332 520.811C210.162 523.851 207.642 526.201 204.632 526.201L204.622 526.191Z" fill="black"/>
<path d="M289.04 769.061C287.47 769.061 285.9 768.411 284.77 767.151C233.02 709.151 203.32 637.461 198.9 559.851C198.72 556.701 201.13 554.001 204.28 553.821C207.44 553.631 210.13 556.051 210.31 559.201C214.58 634.211 243.28 703.491 293.29 759.541C295.39 761.901 295.19 765.511 292.83 767.611C291.74 768.581 290.38 769.061 289.03 769.061H289.04Z" fill="black"/>
<path d="M763.342 294.762C761.982 294.762 760.632 294.282 759.542 293.312C703.492 243.302 634.212 214.602 559.202 210.332C556.052 210.152 553.642 207.452 553.822 204.302C554.002 201.152 556.692 198.742 559.852 198.922C637.472 203.342 709.152 233.032 767.152 284.792C769.512 286.892 769.712 290.512 767.612 292.862C766.482 294.132 764.912 294.772 763.342 294.772V294.762Z" fill="black"/>
<path d="M316.651 294.761C315.081 294.761 313.511 294.111 312.381 292.851C310.281 290.491 310.481 286.881 312.841 284.781C370.841 233.031 442.531 203.331 520.141 198.911C523.291 198.721 525.991 201.141 526.171 204.291C526.351 207.441 523.941 210.141 520.791 210.321C445.781 214.591 376.511 243.291 320.451 293.301C319.361 294.271 318.001 294.751 316.651 294.751V294.761Z" fill="black"/>
<path d="M559.518 881.102C556.508 881.102 553.988 878.752 553.818 875.712C553.638 872.562 556.048 869.862 559.198 869.682C634.208 865.412 703.478 836.712 759.538 786.702C761.888 784.602 765.508 784.802 767.608 787.162C769.708 789.522 769.508 793.132 767.148 795.232C709.148 846.982 637.458 876.682 559.848 881.102C559.738 881.102 559.628 881.102 559.518 881.102Z" fill="black"/>
<path d="M520.479 881.102C520.369 881.102 520.259 881.102 520.149 881.102C442.529 876.682 370.849 846.992 312.849 795.232C310.489 793.132 310.289 789.512 312.389 787.162C314.489 784.802 318.109 784.602 320.459 786.702C376.509 836.722 445.789 865.412 520.799 869.682C523.949 869.862 526.359 872.562 526.179 875.712C526.009 878.752 523.489 881.102 520.479 881.102Z" fill="black"/>
<path d="M841.843 526.51C839.693 526.51 837.893 524.83 837.773 522.66C833.913 454.91 807.993 392.34 762.823 341.71C761.323 340.03 761.473 337.45 763.153 335.94C764.833 334.44 767.413 334.58 768.923 336.27C815.343 388.29 841.973 452.58 845.933 522.19C846.063 524.44 844.343 526.37 842.083 526.5C842.003 526.5 841.923 526.5 841.843 526.5V526.51Z" fill="black"/>
<path d="M765.862 745.101C764.892 745.101 763.922 744.761 763.142 744.061C761.462 742.561 761.312 739.981 762.812 738.291C807.982 687.661 833.902 625.091 837.762 557.341C837.892 555.091 839.852 553.391 842.072 553.491C844.322 553.621 846.042 555.551 845.922 557.801C841.952 627.411 815.322 691.701 768.912 743.721C768.102 744.621 766.982 745.081 765.862 745.081V745.101Z" fill="black"/>
<path d="M238.162 526.51C238.082 526.51 238.002 526.51 237.922 526.51C235.672 526.38 233.952 524.45 234.072 522.2C238.042 452.59 264.672 388.3 311.082 336.28C312.582 334.6 315.162 334.45 316.852 335.95C318.532 337.45 318.682 340.03 317.182 341.72C272.012 392.35 246.092 454.92 242.232 522.67C242.112 524.84 240.312 526.52 238.162 526.52V526.51Z" fill="black"/>
<path d="M314.133 745.101C313.013 745.101 311.893 744.641 311.083 743.741C264.663 691.721 238.033 627.431 234.073 557.821C233.943 555.571 235.663 553.641 237.923 553.511C240.163 553.401 242.103 555.101 242.233 557.361C246.093 625.111 272.013 687.681 317.183 738.311C318.683 739.991 318.533 742.571 316.853 744.081C316.073 744.771 315.103 745.121 314.133 745.121V745.101Z" fill="black"/>
<path d="M741.014 318.219C740.044 318.219 739.074 317.879 738.294 317.179C687.664 272.009 625.094 246.089 557.344 242.229C555.094 242.099 553.374 240.169 553.494 237.919C553.624 235.669 555.544 233.959 557.804 234.069C627.414 238.039 691.704 264.669 743.734 311.079C745.414 312.579 745.564 315.159 744.064 316.849C743.254 317.749 742.134 318.209 741.014 318.209V318.219Z" fill="black"/>
<path d="M338.994 318.22C337.874 318.22 336.754 317.76 335.944 316.86C334.444 315.18 334.594 312.6 336.274 311.09C388.294 264.67 452.584 238.04 522.194 234.08C524.444 233.96 526.374 235.67 526.504 237.93C526.634 240.18 524.914 242.11 522.654 242.24C454.904 246.1 392.334 272.02 341.704 317.19C340.924 317.88 339.954 318.23 338.984 318.23L338.994 318.22Z" fill="black"/>
<path d="M557.565 845.929C555.415 845.929 553.615 844.249 553.495 842.079C553.365 839.829 555.085 837.899 557.345 837.769C625.095 833.909 687.665 807.989 738.295 762.819C739.975 761.319 742.555 761.469 744.065 763.149C745.565 764.829 745.415 767.409 743.735 768.919C691.715 815.339 627.425 841.969 557.805 845.929C557.725 845.929 557.645 845.929 557.565 845.929Z" fill="black"/>
<path d="M522.434 845.929C522.354 845.929 522.274 845.929 522.194 845.929C452.584 841.959 388.294 815.329 336.274 768.919C334.594 767.419 334.444 764.839 335.944 763.149C337.444 761.469 340.024 761.319 341.714 762.819C392.344 807.989 454.914 833.909 522.664 837.769C524.914 837.899 526.634 839.829 526.514 842.079C526.394 844.249 524.594 845.929 522.444 845.929H522.434Z" fill="black"/>
<path d="M320.642 546.17C320.642 544.6 321.782 543.27 323.332 543.02C324.632 542.81 326.262 542.52 327.972 542.12C332.392 541.08 337.582 539.11 343.402 536.27C349.282 533.4 354.912 529.41 359.162 523.67C366.332 513.97 367.852 501.4 368.182 496.89C368.252 495.97 367.522 495.19 366.592 495.19H317.082C315.322 495.19 313.902 493.76 313.902 492.01V470.69C313.902 468.93 315.332 467.51 317.082 467.51H367.062C367.942 467.51 368.652 466.8 368.652 465.92V447.18C368.652 446.3 367.942 445.59 367.062 445.59H328.612C326.852 445.59 325.432 444.16 325.432 442.41V421.09C325.432 419.33 326.862 417.91 328.612 417.91H428.952C430.712 417.91 432.132 419.34 432.132 421.09V442.41C432.132 444.17 430.702 445.59 428.952 445.59H398.512C397.632 445.59 396.922 446.3 396.922 447.18V465.92C396.922 466.8 397.632 467.51 398.512 467.51H438.572C440.332 467.51 441.752 468.94 441.752 470.69V492.01C441.752 493.77 440.322 495.19 438.572 495.19H398.382C397.532 495.19 396.832 495.86 396.792 496.71C396.562 501.75 395.142 518.44 386.172 532.85C380.722 541.61 373.642 548.26 366.532 553.54C359.402 558.84 352.252 562.93 345.262 565.7C338.232 568.49 332.332 570.44 327.742 571.51C326.652 571.76 325.482 571.99 324.392 572.18C322.442 572.53 320.652 571.03 320.652 569.04V546.16L320.642 546.17Z" fill="black"/>
<path d="M474.544 546.52C474.544 545.06 475.544 543.79 476.954 543.43C485.204 541.36 488.924 540.11 496.834 536.32C496.834 536.32 500.884 534.21 504.924 531.3C517.104 522.54 525.214 510.63 525.214 510.63C534.674 497.28 537.764 474.91 538.484 468.49C538.594 467.55 537.854 466.72 536.904 466.72H500.574C500.344 466.72 500.134 466.84 500.024 467.04L499.874 467.29C494.294 478.11 486.874 487.99 480.444 494.24C473.994 500.5 468.584 505.05 464.374 507.75L461.774 509.42C460.714 510.1 459.324 509.34 459.324 508.08V479.89C459.324 478.95 459.744 478.06 460.464 477.45C461.114 476.9 461.984 476.13 463.174 475.06C465.934 472.57 469.044 468.51 472.414 462.98C475.754 457.51 479.344 450.21 483.064 441.29C486.444 433.2 488.974 423.09 490.854 412.06C491.114 410.53 492.444 409.42 493.994 409.42H513.904C515.904 409.42 517.414 411.25 517.034 413.21C516.394 416.52 515.704 420.88 514.844 424.31C513.574 429.39 512.754 432.3 511.234 436.72C510.974 437.47 511.534 438.24 512.324 438.24H591.174C592.934 438.24 594.354 439.67 594.354 441.42V463.51C594.354 465.27 592.924 466.69 591.174 466.69H568.134C567.324 466.69 566.634 467.3 566.554 468.11C565.924 474.01 562.874 497.16 552.384 517.26C538.284 546 508.134 566.39 478.334 572.13C476.374 572.51 474.554 571 474.554 569V546.48L474.544 546.52Z" fill="black"/>
<path d="M675.895 411.029V468.869C675.895 469.749 676.604 470.459 677.484 470.459H764.515C765.395 470.459 766.104 469.749 766.104 468.869V411.029C766.104 410.149 765.395 409.439 764.515 409.439H677.484C676.604 409.439 675.895 410.149 675.895 411.029ZM738.455 452.739H702.294C701.414 452.739 700.705 452.029 700.705 451.149V446.869C700.705 445.989 701.414 445.279 702.294 445.279H738.455C739.335 445.279 740.044 445.989 740.044 446.869V451.149C740.044 452.029 739.335 452.739 738.455 452.739ZM738.455 434.449H702.294C701.414 434.449 700.705 433.739 700.705 432.859V428.749C700.705 427.869 701.414 427.159 702.294 427.159H738.455C739.335 427.159 740.044 427.869 740.044 428.749V432.859C740.044 433.739 739.335 434.449 738.455 434.449Z" fill="black"/>
<path d="M674.224 497.34H728.264C729.144 497.34 729.854 498.05 729.854 498.93V502.84C729.854 503.72 729.144 504.43 728.264 504.43H667.754C665.994 504.43 664.574 505.86 664.574 507.61V522.86C664.574 524.62 666.004 526.04 667.754 526.04H728.264C729.144 526.04 729.854 526.75 729.854 527.63V545.39C729.854 546.11 729.934 547.98 729.214 548.85C728.384 549.87 727.144 549.67 725.844 549.72C722.534 549.72 719.574 549.7 716.944 549.66C716.544 549.66 716.254 549.29 716.334 548.9C716.594 547.63 716.724 546.31 716.694 544.96C716.494 535.68 708.934 528.08 699.654 527.84C689.574 527.58 681.364 535.85 681.704 545.94C682.014 555.29 689.784 562.81 699.144 562.84C704.034 562.85 708.454 560.86 711.634 557.64C711.974 557.3 712.544 557.43 712.694 557.88C714.154 562.21 715.534 566.34 716.784 570.05C717.224 571.35 718.454 572.22 719.824 572.21C725.724 572.17 730.504 571.96 734.174 571.6C738.304 571.18 742.084 570.15 745.514 568.5C749.174 566.84 751.684 564.42 753.044 561.23C754.404 558.04 755.084 553.55 755.084 547.76V527.62C755.084 526.74 755.794 526.03 756.674 526.03H762.904C764.664 526.03 766.084 524.6 766.084 522.85V507.6C766.084 505.84 764.654 504.42 762.904 504.42H756.674C755.794 504.42 755.084 503.71 755.084 502.83V498.92C755.084 498.04 755.794 497.33 756.674 497.33H762.904C764.664 497.33 766.084 495.9 766.084 494.15V479.6C766.084 477.84 764.654 476.42 762.904 476.42H674.204C672.444 476.42 671.024 477.85 671.024 479.6V494.15C671.024 495.91 672.454 497.33 674.204 497.33L674.224 497.34Z" fill="black"/>
<path d="M668.824 409.439H650.254C649.394 409.439 648.574 409.789 647.974 410.399C635.224 423.349 618.284 434.569 612.124 438.479C610.774 439.329 610.274 441.059 610.944 442.499L620.694 463.569C621.624 465.569 624.254 466.049 625.824 464.499C646.114 444.459 664.444 419.799 670.114 411.959C670.874 410.909 670.114 409.439 668.824 409.439Z" fill="black"/>
<path d="M671.914 453.889V435.409C671.914 433.999 670.214 433.289 669.204 434.279C653.634 449.599 620.044 477.059 611.674 483.859C610.544 484.779 610.184 486.349 610.794 487.669L620.694 509.049C621.624 511.049 624.254 511.529 625.824 509.979C627.534 508.289 629.234 506.559 630.914 504.819C631.314 504.409 632.014 504.689 632.014 505.259V569.059C632.014 570.819 633.444 572.239 635.194 572.239H653.814C655.574 572.239 656.994 570.809 656.994 569.059V476.369C656.994 475.299 657.354 474.249 658.024 473.409C664.864 464.729 669.714 458.019 671.334 455.739C671.714 455.199 671.924 454.559 671.924 453.889H671.914Z" fill="black"/>
<path d="M653.261 623.33C640.841 623.33 634.801 628.28 634.801 638.47V655.6C634.801 665.67 640.841 670.56 653.261 670.56C659.131 670.56 663.471 669.48 666.551 667.27C669.991 664.8 671.731 660.87 671.731 655.59V638.46C671.731 628.27 665.691 623.32 653.271 623.32L653.261 623.33ZM646.081 639.3C646.081 633.93 648.831 632.91 653.261 632.91C657.691 632.91 660.441 633.95 660.441 639.3V654.68C660.441 659.95 657.591 660.98 653.261 660.98C648.931 660.98 646.081 659.98 646.081 654.68V639.3Z" fill="black"/>
<path d="M708.262 669.331H721.352L703.622 646.781L720.552 624.8H707.392L694.052 642.281V610.23H682.762V669.331H694.052V659.211L696.942 655.451L708.262 669.331Z" fill="black"/>
<path d="M754.812 624.801V653.291C754.812 659.041 751.872 660.891 746.822 660.891C743.552 660.891 740.272 660.351 740.272 653.881V624.811H728.992V656.771C728.992 665.741 733.702 670.481 742.612 670.481C749.292 670.481 753.872 666.861 755.572 662.801L757.382 669.341H766.102V624.811H754.822L754.812 624.801Z" fill="black"/>
<path d="M630.561 610.23H589.141V620.141V620.151H604.211V669.331H615.681V620.151H630.561V610.23Z" fill="black"/>
<path d="M459.681 669.331H472.771L455.041 646.781L471.971 624.8H458.811L445.471 642.281V610.23H434.191V669.331H445.471V659.211L448.361 655.451L459.681 669.331Z" fill="black"/>
<path d="M355.322 610.23H313.902V620.141V620.151H328.982V669.331H340.442V620.151H355.322V610.23Z" fill="black"/>
<path d="M421.794 658.89L421.194 659.04C417.614 659.96 413.284 660.89 409.404 660.89C404.854 660.89 401.684 658.82 401.684 652.83V640.97C401.684 634.9 404.854 632.82 409.404 632.82C413.354 632.82 417.874 633.7 421.224 634.4L421.804 634.52V625.19L421.494 625.12C417.684 624.23 412.044 623.33 407.524 623.33C402.004 623.33 397.964 624.4 395.164 626.59C391.964 629.09 390.414 633.85 390.414 639.34V654.64C390.414 664.77 396.014 670.56 407.534 670.56C411.404 670.56 417.264 669.49 421.524 668.31L421.814 668.23V658.88L421.794 658.89Z" fill="black"/>
<path d="M553.922 634.699V624.799H543.682V615.189H532.402V624.799H525.172V634.699H532.402V655.419C532.402 667.939 540.292 670.559 546.922 670.559C548.702 670.559 550.502 670.449 552.112 670.219V660.259C551.462 660.329 550.252 660.359 549.532 660.359C546.452 660.359 543.682 659.729 543.682 652.089V634.689H553.922V634.699Z" fill="black"/>
<path d="M489.733 650.741V650.561H515.163V641.481C515.163 635.571 513.543 630.241 510.353 627.341C507.413 624.671 502.773 623.311 497.253 623.311C485.073 623.311 478.453 629.221 478.453 639.591V654.451C478.453 664.701 483.833 670.551 496.313 670.551C500.973 670.551 506.283 669.561 511.963 668.401L512.353 668.321V659.051L511.703 659.201C507.133 660.251 504.613 661.141 500.283 661.141C494.073 661.141 489.733 658.621 489.733 652.201V650.721V650.741ZM489.733 639.721C489.733 634.071 493.793 632.741 497.163 632.741C500.533 632.741 504.063 634.071 504.063 639.721V643.231H489.733V642.711V639.721Z" fill="black"/>
<path d="M378.171 626.881H366.891V669.331H378.171V626.881Z" fill="black"/>
<path d="M372.534 622.22C376.416 622.22 379.564 619.073 379.564 615.19C379.564 611.308 376.416 608.16 372.534 608.16C368.651 608.16 365.504 611.308 365.504 615.19C365.504 619.073 368.651 622.22 372.534 622.22Z" fill="black"/>
<path d="M585.731 643.92H566.141V651.26H585.731V643.92Z" fill="black"/>
<path d="M777.526 1613.83V1638.03C777.526 1646.62 777.768 1650.85 778.494 1655.45H760.465C761.191 1651.34 761.433 1646.26 761.433 1638.27V1574.5C761.433 1567.85 761.191 1564.34 760.465 1558.77C765.426 1559.02 768.451 1559.14 775.832 1559.14H809.712C817.335 1559.14 821.207 1558.89 826.289 1558.29V1574.62C821.933 1574.02 817.456 1573.78 809.712 1573.78H777.526V1599.43H803.42C810.922 1599.43 815.157 1599.19 819.876 1598.58V1614.68C815.399 1614.07 810.801 1613.83 803.42 1613.83H777.526Z" fill="black"/>
<path d="M699.659 1613.83V1638.03C699.659 1646.62 699.901 1650.85 700.627 1655.45H682.598C683.324 1651.34 683.566 1646.26 683.566 1638.27V1574.5C683.566 1567.85 683.324 1564.34 682.598 1558.77C687.559 1559.02 690.584 1559.14 697.965 1559.14H731.845C739.468 1559.14 743.34 1558.89 748.422 1558.29V1574.62C744.066 1574.02 739.589 1573.78 731.845 1573.78H699.659V1599.43H725.553C733.055 1599.43 737.29 1599.19 742.009 1598.58V1614.68C737.532 1614.07 732.934 1613.83 725.553 1613.83H699.659Z" fill="black"/>
<path d="M623.078 1557.2C636.388 1557.2 646.673 1561.07 654.901 1569.3C663.734 1578.13 668.453 1591.32 668.453 1607.05C668.453 1637.66 650.666 1657.51 623.199 1657.51C595.732 1657.51 578.066 1637.79 578.066 1607.05C578.066 1591.44 582.906 1578.01 591.86 1569.3C600.209 1561.07 610.252 1557.2 623.078 1557.2ZM623.441 1643.11C640.744 1643.11 651.513 1629.32 651.513 1607.05C651.513 1594.83 648.125 1585.03 641.954 1578.86C636.993 1574.02 630.58 1571.48 623.32 1571.48C605.896 1571.48 594.885 1585.27 594.885 1607.17C594.885 1619.27 598.394 1629.44 604.686 1635.73C609.647 1640.57 616.06 1643.11 623.441 1643.11Z" fill="black"/>
<path d="M475.027 1653.64L551.136 1556.23L557.428 1561.07L481.198 1658.6L475.027 1653.64ZM544.723 1657.39C537.947 1657.39 532.381 1655.33 528.267 1651.22C523.669 1646.74 521.249 1639.48 521.249 1630.28C521.249 1621.21 523.669 1614.07 528.267 1609.47C532.381 1605.48 538.068 1603.3 544.723 1603.3C551.378 1603.3 557.065 1605.48 561.058 1609.47C565.656 1613.95 568.076 1621.21 568.076 1630.28C568.076 1639.48 565.656 1646.74 561.058 1651.22C556.944 1655.33 551.378 1657.39 544.723 1657.39ZM544.723 1613.59C541.214 1613.59 538.915 1614.68 536.979 1617.46C534.801 1620.48 533.712 1624.6 533.712 1630.04C533.712 1641.17 537.584 1647.22 544.723 1647.22C551.983 1647.22 555.734 1641.17 555.734 1629.44C555.734 1624.6 554.524 1620.24 552.467 1617.34C550.41 1614.68 548.232 1613.59 544.723 1613.59ZM487.732 1611.41C480.956 1611.41 475.39 1609.35 471.276 1605.24C466.678 1600.76 464.258 1593.38 464.258 1584.3C464.258 1567.36 472.97 1557.32 487.732 1557.32C494.387 1557.32 500.074 1559.5 504.067 1563.49C508.665 1567.97 511.085 1575.23 511.085 1584.3C511.085 1593.5 508.665 1600.76 504.067 1605.24C499.953 1609.35 494.387 1611.41 487.732 1611.41ZM487.732 1567.61C480.714 1567.61 476.721 1573.54 476.721 1584.06C476.721 1595.19 480.593 1601.24 487.732 1601.24C494.75 1601.24 498.743 1595.19 498.743 1584.3C498.743 1579.95 497.896 1575.59 496.565 1573.05C494.508 1569.3 491.725 1567.61 487.732 1567.61Z" fill="black"/>
<path d="M416.349 1657.39C406.064 1657.39 397.352 1654 390.939 1647.59C387.309 1643.96 384.526 1639.72 382.953 1635.37C379.807 1626.77 378.234 1617.34 378.234 1607.54C378.234 1594.71 381.138 1581.4 385.615 1574.02C392.149 1563.13 403.039 1557.2 416.47 1557.2C426.755 1557.2 435.588 1560.59 442.001 1567C445.631 1570.63 448.414 1574.87 449.987 1579.22C453.133 1587.69 454.706 1597.37 454.706 1607.29C454.706 1622.18 451.439 1635.24 445.752 1643.11C438.976 1652.55 428.933 1657.39 416.349 1657.39ZM416.47 1643.35C421.794 1643.35 426.513 1641.54 429.538 1638.27C434.983 1632.58 438.008 1621.33 438.008 1607.17C438.008 1593.14 434.983 1582.13 429.538 1576.2C426.634 1572.93 421.794 1571.11 416.349 1571.11C410.541 1571.11 406.306 1573.05 402.797 1577.29C397.473 1583.58 394.811 1593.5 394.811 1606.69C394.811 1619.39 397.11 1629.92 400.982 1635.49C404.733 1640.81 409.815 1643.35 416.47 1643.35Z" fill="black"/>
<path d="M341.461 1655.45H323.19C323.916 1650.73 324.158 1646.01 324.158 1639.72V1573.05H318.35C313.873 1573.05 310.364 1573.29 305.887 1573.78V1558.41C309.638 1559.02 312.3 1559.14 317.987 1559.14H329.119C335.29 1559.14 337.105 1559.02 341.461 1558.53C340.735 1565.67 340.493 1571.24 340.493 1578.5V1639.72C340.493 1646.14 340.735 1650.49 341.461 1655.45Z" fill="black"/>
<path d="M844.484 1454.15L838.676 1454.49C838.628 1453.62 838.58 1453.34 838.436 1452.23C837.524 1446.42 837.188 1442.73 837.188 1437.88C837.188 1431.69 837.764 1426.22 839.156 1419.11C839.684 1416.42 839.78 1415.94 839.876 1414.65L846.212 1415.32C845.06 1418.15 843.956 1423.53 843.188 1429.67C842.707 1433.27 842.516 1436.1 842.468 1440.28C842.468 1441.34 842.42 1441.72 842.372 1442.92C842.9 1441.24 842.996 1440.9 844.868 1436.58L848.708 1438.31C846.068 1443.88 844.436 1449.45 844.436 1452.86C844.436 1453.14 844.436 1453.53 844.484 1454.15ZM851.108 1425.4L851.204 1419.64C853.364 1420.22 855.907 1420.41 860.083 1420.41C865.411 1420.41 869.972 1419.98 873.14 1419.11L873.428 1424.92C873.044 1424.97 872.324 1425.06 870.02 1425.35C866.948 1425.74 863.299 1425.93 859.747 1425.93C856.243 1425.93 856.196 1425.93 851.108 1425.4ZM854.419 1433.32L859.124 1435.53C856.724 1438.31 855.716 1440.38 855.716 1442.44C855.716 1445.18 858.356 1446.62 863.348 1446.62C867.572 1446.62 871.748 1445.94 874.772 1444.79L875.252 1450.89C874.58 1450.94 874.388 1450.98 873.284 1451.18C869.444 1451.8 866.516 1452.09 863.348 1452.09C857.396 1452.09 853.556 1450.74 851.444 1447.91C850.532 1446.71 850.004 1444.94 850.004 1443.21C850.004 1440.09 851.443 1436.87 854.419 1433.32Z" fill="black"/>
<path d="M804.693 1419.69V1416.76C804.693 1415.18 804.597 1413.93 804.357 1412.78H810.549C810.357 1413.78 810.261 1415.03 810.261 1416.76V1419.69H823.461C826.149 1419.69 827.877 1419.59 829.509 1419.35V1425.16C828.021 1424.97 826.533 1424.87 823.653 1424.87H806.085C805.845 1428.47 805.845 1428.62 805.701 1430.06H818.997C821.493 1430.06 822.837 1430.01 823.941 1429.82C823.941 1430.06 823.941 1430.2 823.893 1430.3C823.797 1431.02 823.797 1431.59 823.701 1433.66C823.509 1440.86 822.885 1447.05 822.069 1450.5C820.965 1455.06 819.381 1456.26 814.581 1456.26C812.901 1456.26 811.797 1456.22 808.101 1455.93C807.909 1453.72 807.525 1452.14 806.709 1450.36C809.493 1450.79 811.701 1450.98 813.909 1450.98C816.021 1450.98 816.501 1450.46 817.125 1447.14C817.701 1444.26 817.989 1441.24 818.181 1435.1H804.933C802.917 1444.74 798.597 1450.89 789.525 1456.84C788.325 1454.73 787.413 1453.67 785.637 1452.28C789.861 1449.64 791.925 1447.96 794.229 1445.18C798.357 1440.23 799.989 1434.66 800.229 1424.87H792.357C789.957 1424.87 787.989 1424.97 786.357 1425.16V1419.35C788.085 1419.59 789.909 1419.69 792.357 1419.69H804.693Z" fill="black"/>
<path d="M763.558 1422.23C762.646 1429.77 760.966 1436.39 758.566 1441.82C755.83 1448.01 752.758 1450.84 748.822 1450.84C743.35 1450.84 739.414 1445.27 739.414 1437.54C739.414 1432.26 741.286 1427.32 744.694 1423.58C748.726 1419.16 754.39 1416.86 761.206 1416.86C772.726 1416.86 780.214 1423.86 780.214 1434.66C780.214 1442.97 775.894 1449.59 768.55 1452.57C766.246 1453.53 764.374 1454.01 761.014 1454.58C760.198 1452.04 759.622 1450.98 758.086 1448.97C762.502 1448.39 765.382 1447.62 767.638 1446.33C771.814 1444.02 774.31 1439.46 774.31 1434.33C774.31 1429.72 772.246 1425.98 768.406 1423.67C766.918 1422.81 765.67 1422.42 763.558 1422.23ZM757.702 1422.28C755.206 1422.57 753.478 1423.24 751.51 1424.63C747.478 1427.51 744.982 1432.46 744.982 1437.59C744.982 1441.53 746.662 1444.65 748.774 1444.65C750.358 1444.65 751.99 1442.63 753.718 1438.5C755.542 1434.18 757.126 1427.7 757.702 1422.28Z" fill="black"/>
<path d="M727.845 1424.87H725.301C724.053 1429.34 723.285 1431.3 721.557 1434.52C719.925 1437.54 718.149 1440.04 715.893 1442.63C721.173 1446.76 726.933 1449.35 734.661 1451.08C733.077 1452.95 732.405 1454.1 731.349 1456.7C723.189 1454.01 717.333 1450.89 712.005 1446.33C709.269 1448.63 706.005 1450.79 702.597 1452.57C699.669 1454.06 696.933 1455.16 692.373 1456.7C691.509 1454.63 690.693 1453.29 689.301 1451.56C697.893 1449.21 703.221 1446.71 708.165 1442.63C705.861 1440.09 704.133 1437.74 702.501 1434.95C700.677 1431.83 699.813 1429.77 698.181 1424.87H695.925C693.669 1424.87 691.797 1424.97 690.069 1425.16V1419.74C691.893 1419.98 693.525 1420.07 696.069 1420.07H708.837V1416.66C708.837 1415.22 708.741 1414.07 708.501 1412.97H714.597C714.357 1414.07 714.261 1415.22 714.261 1416.62V1420.07H727.653C730.245 1420.07 731.925 1419.98 733.701 1419.74V1425.16C731.973 1424.97 730.341 1424.87 727.845 1424.87ZM719.637 1424.87H703.701C704.901 1428.52 705.669 1430.25 707.349 1433.08C708.837 1435.48 710.133 1437.16 711.957 1439.08C713.637 1437.21 715.029 1435.29 716.325 1433.03C717.765 1430.44 718.485 1428.76 719.637 1424.87Z" fill="black"/>
<path d="M660.356 1422.42H671.636C668.42 1419.78 666.356 1418.49 661.652 1416.33L665.108 1412.39C670.388 1414.98 671.492 1415.61 675.428 1418.49L672.26 1422.42H679.46C682.1 1422.42 683.3 1422.38 684.836 1422.14V1427.51C683.348 1427.37 681.572 1427.27 679.46 1427.27H671.924V1435.62H678.116C680.132 1435.62 682.004 1435.53 683.348 1435.34V1440.62C681.86 1440.47 679.988 1440.38 678.116 1440.38H671.924V1450.31H680.132C682.34 1450.31 684.452 1450.22 685.844 1450.02V1455.4C684.308 1455.21 682.388 1455.11 680.132 1455.11H659.204C656.948 1455.11 654.932 1455.21 653.492 1455.4V1450.02C654.98 1450.22 657.14 1450.31 659.204 1450.31H666.548V1440.38H661.652C659.732 1440.38 657.86 1440.47 656.372 1440.62V1435.34C657.764 1435.53 659.54 1435.62 661.604 1435.62H666.548V1427.27H660.356C657.908 1427.27 656.708 1427.32 654.98 1427.51V1422.14C656.612 1422.33 658.004 1422.42 660.356 1422.42ZM643.604 1416.71L646.868 1412.97C650.468 1415.08 652.34 1416.47 655.364 1419.26L652.148 1423.53C649.124 1420.31 647.588 1419.06 643.604 1416.71ZM641.684 1428.66L644.756 1424.68C648.644 1426.94 650.276 1428.14 653.444 1430.92L650.564 1435.34C647.06 1431.98 645.236 1430.63 641.684 1428.66ZM649.508 1438.02L653.78 1441.05C651.572 1447 650.324 1449.93 648.452 1453.34C647.972 1454.2 647.684 1454.68 647.108 1455.64C646.724 1456.26 646.724 1456.26 646.436 1456.79L641.876 1452.81C644.132 1450.36 646.916 1445.03 649.508 1438.02Z" fill="black"/>
<path d="M601.363 1422.57L601.795 1416.86C605.491 1417.72 609.763 1418.06 616.195 1418.06C622.291 1418.06 625.699 1417.82 628.867 1417.14L629.059 1422.57C626.179 1423.82 620.275 1427.51 616.243 1430.49L612.067 1427.18C615.091 1425.26 615.619 1424.92 616.819 1424.25C617.299 1423.96 617.443 1423.86 618.067 1423.48C618.451 1423.29 618.499 1423.29 619.123 1422.9C617.011 1423.19 614.947 1423.29 611.923 1423.29C609.475 1423.29 605.491 1423.05 603.139 1422.71C602.563 1422.66 602.227 1422.62 602.035 1422.62C601.939 1422.62 601.699 1422.57 601.363 1422.57ZM604.915 1433.42L609.091 1436.58C606.067 1439.13 604.723 1441.14 604.723 1443.21C604.723 1446.33 608.227 1447.67 616.339 1447.67C622.051 1447.67 628.339 1446.81 631.411 1445.61L631.939 1452.18C631.075 1452.23 630.931 1452.23 629.827 1452.38C624.067 1453.24 620.995 1453.48 616.867 1453.48C611.635 1453.48 607.411 1452.95 604.867 1451.9C600.739 1450.26 598.723 1447.62 598.723 1443.88C598.723 1440.18 600.595 1437.02 604.915 1433.42ZM637.891 1431.45L634.579 1433.32C633.139 1430.68 631.555 1428.42 629.683 1426.36L632.899 1424.68C635.059 1426.89 636.403 1428.71 637.891 1431.45ZM623.779 1429.19L627.139 1427.51C629.251 1429.77 630.547 1431.59 632.179 1434.57L628.819 1436.34C627.235 1433.42 625.891 1431.5 623.779 1429.19Z" fill="black"/>
<path d="M569.395 1432.17V1449.83H583.219C585.763 1449.83 587.923 1449.74 589.699 1449.54V1455.3C587.683 1455.06 585.715 1454.97 583.315 1454.97H552.835C550.579 1454.97 548.371 1455.06 546.211 1455.3V1449.54C548.083 1449.74 550.099 1449.83 552.835 1449.83H563.779V1418.82C563.779 1416.71 563.683 1415.27 563.443 1413.3H569.731C569.491 1415.08 569.395 1416.66 569.395 1418.82V1427.03H580.675C582.787 1427.03 584.515 1426.94 586.243 1426.74V1432.46C584.515 1432.26 582.691 1432.17 580.675 1432.17H569.395Z" fill="black"/>
<path d="M531.86 1413.74L537.908 1413.83C537.86 1414.36 537.86 1414.36 537.428 1420.5C537.188 1424.82 536.228 1430.2 535.124 1433.9C534.356 1436.39 533.444 1438.5 532.1 1440.9C534.548 1445.18 537.908 1448.49 542.564 1451.22C541.172 1452.86 540.212 1454.44 539.204 1456.7C534.98 1453.67 531.716 1450.17 528.884 1445.61C524.996 1450.5 520.004 1454.06 512.804 1457.08C511.7 1454.92 510.884 1453.67 509.732 1452.33C518.18 1449.06 523.364 1445.18 526.868 1439.51C530.324 1433.94 532.052 1426.41 532.052 1416.9C532.052 1415.37 532.004 1414.84 531.86 1413.74ZM502.82 1444.74L502.58 1419.59C502.532 1417.05 502.436 1415.61 502.196 1413.88H508.292C508.148 1415.22 508.052 1416.66 508.052 1418.58V1419.64L508.292 1442.54C512.708 1440.57 517.412 1438.07 520.628 1436.01L521.78 1441.05C515.828 1444.7 511.796 1446.76 502.916 1450.6C501.092 1451.42 500.756 1451.56 499.556 1452.14L498.02 1446.28C499.7 1445.9 500.516 1445.61 502.82 1444.74ZM512.228 1419.59L516.836 1416.66C520.628 1420.5 522.788 1423.19 526.34 1428.42L521.396 1431.83C517.748 1425.78 516.596 1424.25 512.228 1419.59Z" fill="black"/>
<path d="M457.555 1438.12V1450.98C457.555 1454.01 457.603 1455.45 457.795 1456.55H451.891C452.083 1455.02 452.179 1453.29 452.179 1450.79V1419.4C452.179 1417.38 452.131 1416.18 451.987 1414.79C453.523 1414.94 454.771 1414.98 457.315 1414.98H486.499C489.139 1414.98 490.579 1414.94 491.731 1414.79C491.587 1416.18 491.539 1417.43 491.539 1420.02V1450.79C491.539 1453.24 490.963 1454.58 489.571 1455.3C488.659 1455.78 487.123 1455.98 484.531 1455.98C482.659 1455.98 480.019 1455.88 478.147 1455.78C477.859 1453.91 477.523 1452.57 476.659 1450.6C479.827 1450.94 482.227 1451.13 483.955 1451.13C485.827 1451.13 486.115 1450.98 486.115 1449.83V1438.12H457.555ZM468.931 1433.08V1420.07H457.555V1433.08H468.931ZM474.115 1433.08H486.115V1420.07H474.115V1433.08Z" fill="black"/>
<path d="M430.683 1454.34C426.603 1454.34 423.147 1453 420.603 1450.46C419.163 1449.02 418.059 1447.34 417.435 1445.61C416.187 1442.2 415.562 1438.46 415.562 1434.57C415.562 1429.48 416.715 1424.2 418.491 1421.27C421.083 1416.95 425.402 1414.6 430.73 1414.6C434.81 1414.6 438.315 1415.94 440.859 1418.49C442.299 1419.93 443.403 1421.61 444.027 1423.34C445.275 1426.7 445.898 1430.54 445.898 1434.47C445.898 1440.38 444.603 1445.56 442.347 1448.68C439.659 1452.42 435.675 1454.34 430.683 1454.34ZM430.73 1448.78C432.842 1448.78 434.715 1448.06 435.915 1446.76C438.075 1444.5 439.275 1440.04 439.275 1434.42C439.275 1428.86 438.075 1424.49 435.915 1422.14C434.763 1420.84 432.843 1420.12 430.683 1420.12C428.379 1420.12 426.699 1420.89 425.307 1422.57C423.195 1425.06 422.139 1429 422.139 1434.23C422.139 1439.27 423.051 1443.45 424.587 1445.66C426.075 1447.77 428.091 1448.78 430.73 1448.78Z" fill="black"/>
<path d="M396.511 1454.34C392.431 1454.34 388.975 1453 386.431 1450.46C384.991 1449.02 383.887 1447.34 383.263 1445.61C382.015 1442.2 381.391 1438.46 381.391 1434.57C381.391 1429.48 382.543 1424.2 384.319 1421.27C386.911 1416.95 391.231 1414.6 396.559 1414.6C400.639 1414.6 404.143 1415.94 406.687 1418.49C408.127 1419.93 409.231 1421.61 409.855 1423.34C411.103 1426.7 411.727 1430.54 411.727 1434.47C411.727 1440.38 410.431 1445.56 408.175 1448.68C405.487 1452.42 401.503 1454.34 396.511 1454.34ZM396.559 1448.78C398.671 1448.78 400.543 1448.06 401.743 1446.76C403.903 1444.5 405.103 1440.04 405.103 1434.42C405.103 1428.86 403.903 1424.49 401.743 1422.14C400.591 1420.84 398.671 1420.12 396.511 1420.12C394.207 1420.12 392.527 1420.89 391.135 1422.57C389.023 1425.06 387.967 1429 387.967 1434.23C387.967 1439.27 388.879 1443.45 390.415 1445.66C391.903 1447.77 393.919 1448.78 396.559 1448.78Z" fill="black"/>
<path d="M362.339 1454.34C358.259 1454.34 354.803 1453 352.259 1450.46C350.819 1449.02 349.715 1447.34 349.091 1445.61C347.843 1442.2 347.219 1438.46 347.219 1434.57C347.219 1429.48 348.371 1424.2 350.147 1421.27C352.739 1416.95 357.059 1414.6 362.387 1414.6C366.467 1414.6 369.971 1415.94 372.515 1418.49C373.955 1419.93 375.059 1421.61 375.683 1423.34C376.931 1426.7 377.555 1430.54 377.555 1434.47C377.555 1440.38 376.259 1445.56 374.003 1448.68C371.315 1452.42 367.331 1454.34 362.339 1454.34ZM362.387 1448.78C364.499 1448.78 366.371 1448.06 367.571 1446.76C369.731 1444.5 370.931 1440.04 370.931 1434.42C370.931 1428.86 369.731 1424.49 367.571 1422.14C366.419 1420.84 364.499 1420.12 362.339 1420.12C360.035 1420.12 358.355 1420.89 356.963 1422.57C354.851 1425.06 353.795 1429 353.795 1434.23C353.795 1439.27 354.707 1443.45 356.243 1445.66C357.731 1447.77 359.747 1448.78 362.387 1448.78Z" fill="black"/>
<path d="M342.345 1446.57V1453.58C342.345 1457.7 341.289 1459.24 337.401 1460.78L335.673 1458.23C338.601 1457.42 339.273 1456.55 339.321 1453.58H335.289V1446.57H342.345Z" fill="black"/>
<path d="M322.381 1453.58H306.973C303.229 1453.58 302.461 1453.62 300.781 1453.82C301.069 1451.08 301.405 1449.4 302.029 1447.67C303.325 1444.17 305.485 1441.1 308.605 1438.26C310.285 1436.78 311.725 1435.67 316.525 1432.46C320.941 1429.43 322.285 1427.85 322.285 1425.4C322.285 1422.14 319.741 1420.12 315.661 1420.12C312.877 1420.12 310.765 1421.08 309.565 1422.95C308.749 1424.1 308.413 1425.16 308.077 1427.37L301.213 1426.55C301.885 1422.9 302.749 1420.94 304.525 1418.87C306.925 1416.09 310.717 1414.6 315.517 1414.6C323.917 1414.6 329.101 1418.63 329.101 1425.21C329.101 1428.38 328.045 1430.68 325.693 1432.89C324.349 1434.14 323.869 1434.52 317.629 1438.79C315.517 1440.28 313.117 1442.3 311.917 1443.59C310.477 1445.13 309.901 1446.09 309.181 1447.91H322.621C325.645 1447.91 328.045 1447.77 329.629 1447.53V1453.86C327.373 1453.67 325.453 1453.58 322.381 1453.58Z" fill="black"/>
<path d="M277.308 1419.26H272.46C270.828 1419.26 269.676 1419.3 268.476 1419.5V1414.31C269.532 1414.5 270.54 1414.55 272.46 1414.55H279.324C280.86 1414.55 281.916 1414.5 282.828 1414.36C282.732 1415.46 282.732 1416.14 282.732 1416.95C282.732 1421.66 283.836 1426.5 285.9 1430.87C288.348 1436.15 291.228 1439.46 296.46 1443.21C295.116 1444.84 294.3 1446.18 293.292 1448.25C289.788 1445.61 287.82 1443.69 285.612 1440.76C283.212 1437.54 281.868 1434.62 280.236 1429.38C279.036 1434.47 277.692 1437.5 275.004 1441.1C273.228 1443.54 271.74 1445.08 268.524 1447.67C267.228 1445.94 266.508 1445.18 264.732 1443.5C267.66 1441.38 269.1 1439.94 271.068 1437.35C273.612 1433.94 275.436 1430.01 276.396 1425.93C276.876 1423.96 277.068 1422.57 277.308 1419.26ZM253.164 1416.95L257.004 1413.35C260.46 1416.38 263.052 1419.06 265.404 1422.14L261.42 1426.02C258.444 1421.99 256.908 1420.31 253.164 1416.95ZM252.444 1435.96V1430.68C253.692 1430.87 254.46 1430.92 256.284 1430.92H260.22C261.66 1430.92 262.764 1430.87 263.868 1430.68C263.724 1432.26 263.676 1433.27 263.676 1435.96V1445.99C264.396 1447.53 264.828 1448.01 266.412 1449.06C268.716 1450.5 271.212 1450.84 279.468 1450.84C286.428 1450.84 292.524 1450.5 297.276 1449.83C296.46 1452.14 296.172 1453.34 295.836 1455.54C291.564 1455.69 284.604 1455.83 281.292 1455.83C273.42 1455.83 269.532 1455.54 267.036 1454.73C264.54 1453.96 262.812 1452.66 260.94 1450.22C259.404 1451.75 258.252 1452.76 255.996 1454.49C255.18 1455.11 254.892 1455.35 254.556 1455.64C254.076 1456.02 254.076 1456.02 253.836 1456.22L251.484 1450.74C253.548 1449.88 256.572 1447.86 258.636 1446.04V1435.72H255.708C254.364 1435.72 253.644 1435.77 252.444 1435.96Z" fill="black"/>
<path d="M211.355 1425.11V1419.98C209.723 1420.31 208.859 1420.46 206.363 1420.84C206.123 1419.54 205.595 1418.34 204.491 1416.42C209.819 1415.8 213.371 1414.94 217.067 1413.4C217.787 1413.11 218.507 1412.73 219.131 1412.3L222.107 1416.47C221.627 1416.66 221.579 1416.71 220.859 1417.05C219.227 1417.72 218.075 1418.15 216.347 1418.68V1425.11H217.835C219.419 1425.11 220.283 1425.06 221.195 1424.92V1429.91C220.235 1429.77 219.371 1429.72 217.835 1429.72H216.491C216.587 1429.96 216.587 1429.96 216.827 1430.39C218.267 1433.56 219.419 1435.24 221.915 1437.78L221.483 1438.65C220.619 1440.28 220.475 1440.62 219.755 1442.39C218.075 1440.23 217.691 1439.56 216.059 1436.06C216.203 1437.21 216.347 1439.99 216.347 1441.53V1451.13C216.347 1453.91 216.395 1455.45 216.635 1457.03H211.067C211.259 1455.35 211.355 1453.82 211.355 1451.13V1442.82C211.355 1441.91 211.547 1438.12 211.643 1436.92C210.347 1441.19 208.619 1444.5 205.835 1447.96C205.019 1445.66 204.491 1444.5 203.387 1442.97C205.403 1440.62 206.507 1438.94 207.899 1436.39C208.955 1434.42 210.155 1431.54 210.683 1429.72H208.283C206.411 1429.72 205.499 1429.77 204.443 1429.96V1424.87C205.547 1425.06 206.411 1425.11 208.283 1425.11H211.355ZM226.331 1422.28H235.547C237.467 1418.73 238.331 1416.52 239.435 1412.54L244.763 1414.26C242.555 1419.11 242.075 1420.12 240.779 1422.28H242.267C243.947 1422.28 244.907 1422.23 246.251 1422.09C246.107 1423.24 246.059 1424.01 246.059 1425.45V1434.28C246.059 1435.72 246.107 1436.68 246.251 1437.83C244.955 1437.69 243.803 1437.64 242.267 1437.64H240.107V1450.7C240.107 1451.61 240.347 1451.7 242.171 1451.7C244.139 1451.7 244.235 1451.46 244.331 1444.84C246.155 1446.04 247.403 1446.66 248.843 1447C248.507 1452.23 248.219 1453.72 247.355 1454.87C246.443 1456.17 244.907 1456.5 240.395 1456.5C236.267 1456.5 235.115 1455.59 235.115 1452.42V1437.64H232.091C231.707 1442.87 231.179 1445.51 229.835 1448.49C228.011 1452.57 225.707 1454.97 221.483 1457.27C220.427 1455.45 219.755 1454.63 217.931 1453.05C224.123 1450.22 227.003 1445.32 227.003 1437.64H226.283C224.747 1437.64 223.787 1437.69 222.491 1437.83C222.587 1436.73 222.635 1435.58 222.635 1434.23V1425.59C222.635 1424.44 222.587 1423.19 222.491 1422.09C223.883 1422.23 224.651 1422.28 226.331 1422.28ZM227.435 1426.89V1432.94H240.923V1426.89H227.435ZM232.427 1419.93L227.723 1422.04C226.235 1418.49 225.275 1416.66 223.787 1414.65L228.443 1412.49C230.267 1415.27 231.323 1417.29 232.427 1419.93Z" fill="black"/>
<path d="M716.04 1233.53V1269.91C716.04 1274.74 714.136 1276.24 708.016 1276.24C707.2 1276.24 707.2 1276.24 702.712 1276.1C702.508 1274.13 702.304 1273.31 701.828 1271.68C701.352 1272.5 701.148 1272.9 700.604 1273.99C695.64 1271.34 693.94 1270.18 690.404 1266.85C690.54 1269.57 690.54 1269.64 690.54 1270.32V1272.09C690.54 1273.38 690.676 1274.67 690.812 1275.76H684.216C684.42 1274.67 684.556 1273.52 684.556 1272.22V1270.52C684.556 1269.23 684.624 1268.35 684.692 1266.92C680.68 1271 678.232 1272.63 671.704 1275.49C670.344 1273.04 669.664 1272.16 667.692 1270.32C673.812 1268.35 677.688 1266.38 680.34 1264H677.552C675.512 1264 673.676 1264.06 672.112 1264.13C672.248 1262.77 672.316 1261.34 672.316 1259.64V1254.75C672.316 1252.64 672.248 1251.48 672.18 1250.06C673.472 1250.12 675.58 1250.19 677.552 1250.19H684.556V1248.15H676.26C673.676 1248.15 672.112 1248.22 670.344 1248.42V1243.53C672.044 1243.73 673.676 1243.8 676.328 1243.8H684.556C684.556 1243.12 684.488 1242.3 684.42 1241.83C683.264 1241.76 681.088 1241.69 678.98 1241.69H666.672V1268.35C666.672 1272.43 666.74 1274.4 667.08 1276.98H659.464C659.736 1274.26 659.872 1271.82 659.872 1267.94V1233.53C659.872 1230.13 659.804 1228.09 659.6 1225.92C661.232 1226.12 663.272 1226.19 666.468 1226.19H673.404V1223.13H664.632C661.368 1223.13 659.26 1223.26 657.152 1223.54V1216.87C659.396 1217.21 661.436 1217.28 664.768 1217.28H673.404V1217.01C673.404 1215.38 673.336 1214.49 673.132 1213.27H680.68C680.476 1214.56 680.408 1215.24 680.408 1217.01V1217.28H694.484V1217.01C694.484 1215.38 694.416 1214.49 694.28 1213.27H701.76C701.556 1214.42 701.488 1215.38 701.488 1217.01V1217.28H710.872C714.204 1217.28 716.244 1217.21 718.488 1216.87V1223.54C716.244 1223.2 714.476 1223.13 711.076 1223.13H701.488V1226.19H709.376C712.572 1226.19 714.612 1226.12 716.312 1225.92C716.108 1228.09 716.04 1230.13 716.04 1233.53ZM685.1 1240.54H690.064C690.132 1239.11 690.132 1237.82 690.132 1236.66V1231.29C690.132 1229.45 690.064 1227.62 689.928 1225.92C691.22 1226.12 692.172 1226.12 694.484 1226.19V1223.13H680.408V1226.19C682.788 1226.12 684.42 1226.05 685.236 1225.92C685.1 1227.62 685.032 1229.25 685.032 1231.29V1236.73C685.032 1238.56 685.032 1239.58 685.1 1240.54ZM709.172 1241.69H696.252C694.212 1241.69 691.9 1241.76 690.676 1241.83C690.608 1242.71 690.54 1242.78 690.54 1243.8H699.312C702.236 1243.8 703.596 1243.73 705.432 1243.53V1248.42C703.596 1248.22 701.964 1248.15 699.38 1248.15H690.54V1250.19H698.564C700.536 1250.19 702.508 1250.12 703.868 1250.06C703.732 1251.48 703.664 1252.37 703.664 1254.41V1259.51C703.664 1261.75 703.664 1262.64 703.868 1264.13C702.372 1264.06 700.264 1264 698.496 1264H694.688C696.66 1265.56 700.196 1267.19 704.208 1268.48C703.596 1269.3 703.596 1269.3 702.916 1270.12C703.936 1270.25 705.772 1270.39 706.724 1270.39C708.764 1270.39 709.172 1270.12 709.172 1268.76V1241.69ZM690.54 1255.56H697.952V1253.73H690.54V1255.56ZM684.556 1255.56V1253.73H678.028V1255.56H684.556ZM690.54 1260.46H698.02V1258.62H690.54V1260.46ZM684.556 1260.46V1258.62H677.96V1260.46H684.556ZM666.672 1230.34V1232.1H678.64V1230.34H666.672ZM666.672 1235.84V1237.68H678.64V1235.84H666.672ZM696.66 1230.34V1232.1H709.172V1230.34H696.66ZM696.66 1235.84V1237.68H709.172V1235.84H696.66Z" fill="black"/>
<path d="M603.979 1267.8V1260.8H596.431C592.555 1260.8 591.127 1260.87 589.359 1261.07V1254.14C591.059 1254.41 592.419 1254.48 596.363 1254.48H603.979V1248.9H597.519C592.963 1248.9 591.399 1248.97 589.359 1249.1C589.495 1247.54 589.495 1247.54 589.631 1240.67V1225.3C589.631 1220.68 589.563 1218.44 589.291 1216.19C591.875 1216.46 594.051 1216.53 598.471 1216.53H617.239C622.271 1216.53 624.311 1216.46 626.011 1216.19C625.807 1218.16 625.739 1221.36 625.739 1225.51V1239.99C625.739 1244.75 625.807 1247.13 626.011 1249.1C623.767 1248.9 622.679 1248.9 618.599 1248.9H610.779V1254.48H619.483C623.223 1254.48 624.719 1254.41 626.691 1254.14V1261.14C624.719 1260.87 623.019 1260.8 619.551 1260.8H610.779V1267.8H621.727C625.331 1267.8 627.099 1267.74 628.935 1267.46V1274.74C626.759 1274.47 624.923 1274.4 621.251 1274.4H592.623C589.019 1274.4 587.251 1274.47 584.939 1274.74V1267.46C586.775 1267.74 588.271 1267.8 591.807 1267.8H603.979ZM603.979 1223.13H596.431V1229.93H603.979V1223.13ZM610.779 1223.13V1229.93H618.667V1223.13H610.779ZM603.979 1235.64H596.431V1242.51H603.979V1235.64ZM610.779 1235.64V1242.51H618.667V1235.64H610.779ZM573.719 1223.81H571.135C568.959 1223.81 567.735 1223.88 566.035 1224.15V1216.8C567.667 1217.08 569.435 1217.21 572.223 1217.21H581.811C584.531 1217.21 586.163 1217.14 587.863 1216.8V1224.08C586.163 1223.88 584.735 1223.81 582.831 1223.81H580.791V1237.07H582.355C584.123 1237.07 585.143 1237 586.639 1236.73V1243.66C585.279 1243.46 583.919 1243.39 582.355 1243.39H580.791V1256.79C583.647 1255.56 584.463 1255.22 587.455 1253.73L587.659 1260.94C581.743 1263.86 579.091 1265.02 568.551 1269.3C568.211 1269.44 567.871 1269.57 567.191 1269.84L565.355 1262.16C567.667 1261.68 569.095 1261.21 573.719 1259.58V1243.39H571.475C569.503 1243.39 568.415 1243.46 566.851 1243.73V1236.73C568.483 1237 569.503 1237.07 571.611 1237.07H573.719V1223.81Z" fill="black"/>
<path d="M525.914 1265.36L524.35 1258.08C524.01 1258.96 523.942 1259.3 523.602 1260.39C520.746 1257.2 518.842 1254.54 516.734 1250.8C517.074 1255.43 517.142 1256.38 517.142 1258.56V1269.78C517.142 1273.04 517.21 1274.81 517.55 1276.85H509.662C510.002 1274.67 510.138 1272.63 510.138 1269.64V1260.87C510.138 1258.15 510.274 1254.95 510.41 1252.71C507.35 1260.19 505.174 1264 501.57 1268.01C500.822 1265.36 499.598 1262.91 498.102 1261C500.958 1258.08 503.134 1255.09 505.446 1250.94C506.874 1248.42 507.146 1247.74 509.05 1243.26H505.514C502.522 1243.26 501.026 1243.32 499.394 1243.6V1236.39C500.958 1236.66 502.386 1236.73 505.514 1236.73H510.07V1220.61C510.07 1217.55 510.002 1215.58 509.73 1213.95H517.482C517.21 1215.72 517.142 1217.28 517.142 1220.54V1236.73H520.338C522.922 1236.73 524.078 1236.66 525.574 1236.46V1243.53C523.942 1243.32 522.582 1243.26 520.202 1243.26H517.754C520.27 1247.54 522.786 1250.6 526.526 1253.66C525.574 1255.36 525.302 1255.97 524.622 1257.47C526.186 1257.4 528.566 1256.99 530.878 1256.52L546.79 1252.98V1221.9C546.79 1217.96 546.722 1216.12 546.382 1214.02H554.61C554.27 1216.26 554.202 1218.1 554.202 1221.84V1251.35C556.99 1250.67 558.214 1250.33 559.982 1249.65L561.41 1257.4C559.574 1257.6 557.67 1257.94 554.882 1258.62L554.202 1258.76V1268.69C554.202 1272.5 554.27 1274.54 554.61 1276.71H546.382C546.722 1274.4 546.79 1272.77 546.79 1268.62V1260.39L532.374 1263.66C529.382 1264.34 527.41 1264.88 525.914 1265.36ZM498.918 1220.27L504.698 1217.69C506.874 1223.74 507.894 1227.21 508.846 1232.38L503.134 1234.82C502.046 1228.57 500.822 1224.35 498.918 1220.27ZM522.31 1217.55L528.022 1220.07C526.254 1226.32 525.37 1228.7 522.582 1234.82L517.618 1232.24C519.794 1227.68 520.95 1224.15 522.31 1217.55ZM528.77 1223.74L533.53 1218.5C539.378 1222.58 541.554 1224.49 545.43 1228.5L540.806 1234.21C535.774 1228.84 535.434 1228.57 528.77 1223.74ZM526.662 1240.54L531.422 1235.5C536.794 1239.18 539.718 1241.69 543.254 1245.5L538.63 1251.01C533.87 1245.91 531.558 1243.87 526.662 1240.54Z" fill="black"/>
<path d="M443.974 1247V1241.49C443.974 1239.58 443.906 1237.88 443.702 1236.52C445.334 1236.66 446.422 1236.73 448.394 1236.73H456.826C458.934 1236.73 460.158 1236.66 461.518 1236.52C461.382 1237.75 461.314 1239.04 461.314 1241.22V1247.2C461.314 1249.85 461.382 1250.87 461.518 1252.16C460.226 1252.1 459.002 1252.03 457.234 1252.03H448.326C446.082 1252.03 445.13 1252.1 443.702 1252.23C443.906 1250.67 443.974 1249.24 443.974 1247ZM449.686 1241.9V1246.79H455.67V1241.9H449.686ZM439.146 1276.44H431.598C431.87 1274.33 432.006 1272.02 432.006 1267.67V1223.74C432.006 1220.54 431.87 1218.1 431.598 1215.58C434.318 1215.85 436.358 1215.92 439.826 1215.92H482.802C486.134 1215.92 488.31 1215.85 490.826 1215.58C490.554 1218.1 490.418 1220.34 490.418 1223.74V1267.74C490.418 1271.82 490.554 1274.47 490.826 1276.44H483.21V1273.45H439.146V1276.44ZM483.21 1222.18H475.254C477.09 1223.33 477.906 1223.94 479.674 1225.44L477.09 1227.89C478.994 1227.82 479.81 1227.75 481.17 1227.55V1234.14C479.47 1233.87 477.634 1233.8 474.71 1233.8H469.134C469.474 1238.9 470.018 1242.64 470.834 1246.52C472.534 1242.98 473.758 1239.24 474.03 1236.46L480.218 1238.5C479.742 1239.52 479.742 1239.52 478.382 1243.05C476.886 1246.93 475.39 1249.99 473.146 1253.66C474.438 1256.58 475.594 1258.22 476.342 1258.22C477.022 1258.22 477.43 1256.52 477.906 1252.5C480.014 1254.82 480.898 1255.56 482.666 1256.52C481.918 1260.53 481.238 1262.3 479.878 1264.06C479.062 1265.08 477.906 1265.63 476.546 1265.63C473.758 1265.63 471.446 1263.66 469.066 1259.3C466.55 1262.36 464.578 1264.2 461.314 1266.65C459.818 1264.61 458.662 1263.38 456.894 1261.75C459.07 1260.46 459.75 1260.05 461.178 1258.96C456.486 1259.98 451.794 1260.8 445.47 1261.82C443.294 1262.16 443.158 1262.16 442.002 1262.43L440.914 1255.77C441.458 1255.84 441.866 1255.84 442.206 1255.84C446.694 1255.84 455.466 1254.68 462.742 1253.18V1257.6C464.17 1256.31 464.986 1255.43 466.55 1253.39C464.85 1248.42 463.626 1241.28 463.082 1233.8H447.918C445.198 1233.8 443.566 1233.87 441.662 1234.14V1227.48C443.294 1227.75 445.266 1227.89 447.918 1227.89H462.81C462.606 1225.03 462.606 1224.69 462.402 1223.54H469.202C468.998 1224.76 468.998 1225.58 468.93 1227.89H474.778C473.01 1226.39 472.058 1225.64 470.63 1224.83L473.418 1222.18H439.146V1267.4H483.21V1222.18Z" fill="black"/>
<path d="M388.892 1225.3V1221.16C388.892 1217.62 388.824 1215.99 388.484 1213.74H397.052C396.78 1215.85 396.644 1217.62 396.644 1220.88V1225.3H415.276C418.268 1225.3 419.696 1225.24 421.464 1225.03C421.26 1226.94 421.192 1228.36 421.192 1231.02V1251.76C421.192 1254.82 421.26 1256.58 421.532 1258.56H413.508V1254.48H396.644V1268.28C396.644 1272.36 396.78 1274.33 397.12 1276.71H388.416C388.756 1274.2 388.892 1272.09 388.892 1268.28V1254.48H372.844V1258.56H364.82C365.092 1256.31 365.16 1254.61 365.16 1251.76V1230.95C365.16 1228.43 365.092 1227.21 364.888 1225.03C366.86 1225.24 368.288 1225.3 371.008 1225.3H388.892ZM388.892 1232.51H372.844V1247.27H388.892V1232.51ZM396.644 1247.27H413.508V1232.51H396.644V1247.27Z" fill="black"/>
</svg>
