<svg width="1080" height="1920" viewBox="0 0 1080 1920" fill="none" xmlns="http://www.w3.org/2000/svg">
<path d="M1080 1920L1080 0L0 0L0 1920H1080Z" fill="#A5D4AD"/>
<path d="M1020 983.72V95C1020 75.67 1004.33 60 985 60H95.58C75.93 60 60 75.93 60 95.58V983.71C60 984.03 60.25 984.28 60.57 984.28C80.03 984.59 95.71 1000.46 95.71 1019.99C95.71 1039.52 80.03 1055.39 60.57 1055.7C60.25 1055.7 60 1055.96 60 1056.27V1824.99C60 1844.32 75.67 1859.99 95 1859.99H985C1004.33 1859.99 1020 1844.32 1020 1824.99V1056.27C1020 1055.95 1019.75 1055.7 1019.43 1055.7C999.97 1055.39 984.29 1039.52 984.29 1019.99C984.29 1000.46 999.97 984.59 1019.43 984.28C1019.75 984.28 1020 984.02 1020 983.71V983.72Z" fill="white"/>
<path d="M60.57 1055.71C60.25 1055.71 60 1055.97 60 1056.28V1825C60 1844.33 75.67 1860 95 1860H985C1004.33 1860 1020 1844.33 1020 1825V1056.28C1020 1055.96 1019.75 1055.71 1019.43 1055.71C999.97 1055.4 984.29 1039.53 984.29 1020H95.71C95.71 1039.53 80.03 1055.4 60.57 1055.71Z" fill="#E5F2E6"/>
<path d="M121 1020H160.9" stroke="black" stroke-width="6" stroke-miterlimit="10"/>
<path d="M187.51 1020H227.41" stroke="black" stroke-width="6" stroke-miterlimit="10"/>
<path d="M254.02 1020H293.92" stroke="black" stroke-width="6" stroke-miterlimit="10"/>
<path d="M320.52 1020H360.43" stroke="black" stroke-width="6" stroke-miterlimit="10"/>
<path d="M387.029 1020H426.939" stroke="black" stroke-width="6" stroke-miterlimit="10"/>
<path d="M453.539 1020H493.439" stroke="black" stroke-width="6" stroke-miterlimit="10"/>
<path d="M520.051 1020H559.951" stroke="black" stroke-width="6" stroke-miterlimit="10"/>
<path d="M586.559 1020H626.459" stroke="black" stroke-width="6" stroke-miterlimit="10"/>
<path d="M653.059 1020H692.969" stroke="black" stroke-width="6" stroke-miterlimit="10"/>
<path d="M719.57 1020H759.48" stroke="black" stroke-width="6" stroke-miterlimit="10"/>
<path d="M786.078 1020H825.978" stroke="black" stroke-width="6" stroke-miterlimit="10"/>
<path d="M852.59 1020H892.49" stroke="black" stroke-width="6" stroke-miterlimit="10"/>
<path d="M919.102 1020H959.002" stroke="black" stroke-width="6" stroke-miterlimit="10"/>
<path d="M1020 984.29V95C1020 75.67 1004.33 60 985 60H95C75.67 60 60 75.67 60 95V984.29C79.72 984.29 95.71 1000.28 95.71 1020C95.71 1039.72 79.72 1055.71 60 1055.71V1825C60 1844.33 75.67 1860 95 1860H985C1004.33 1860 1020 1844.33 1020 1825V1055.71C1000.28 1055.71 984.29 1039.72 984.29 1020C984.29 1000.28 1000.28 984.29 1020 984.29Z" stroke="black" stroke-width="6" stroke-miterlimit="10"/>
<path d="M912.642 525.66C908.772 525.66 905.532 522.64 905.312 518.73C900.582 435.62 868.782 358.85 813.362 296.74C810.662 293.71 810.922 289.06 813.952 286.36C816.982 283.66 821.622 283.92 824.332 286.95C881.992 351.57 915.062 431.43 919.992 517.89C920.222 521.94 917.122 525.42 913.072 525.65C912.932 525.65 912.792 525.66 912.652 525.66H912.642Z" fill="black"/>
<path d="M818.842 795.509C817.102 795.509 815.352 794.889 813.952 793.639C810.922 790.939 810.662 786.289 813.362 783.259C868.782 721.149 900.582 644.379 905.312 561.269C905.542 557.219 909.022 554.109 913.072 554.349C917.122 554.579 920.222 558.049 919.992 562.109C915.062 648.579 881.992 728.439 824.332 793.049C822.882 794.679 820.862 795.509 818.842 795.509Z" fill="black"/>
<path d="M167.352 525.66C167.212 525.66 167.072 525.66 166.932 525.65C162.882 525.42 159.782 521.95 160.012 517.89C164.942 431.42 198.012 351.56 255.672 286.95C258.372 283.92 263.022 283.66 266.052 286.36C269.082 289.06 269.342 293.71 266.642 296.74C211.222 358.85 179.422 435.61 174.692 518.73C174.472 522.64 171.232 525.66 167.362 525.66H167.352Z" fill="black"/>
<path d="M261.162 795.509C259.142 795.509 257.122 794.679 255.672 793.049C198.012 728.429 164.942 648.569 160.012 562.109C159.782 558.059 162.882 554.579 166.932 554.349C170.982 554.109 174.462 557.219 174.692 561.269C179.422 644.389 211.222 721.149 266.642 783.259C269.342 786.289 269.082 790.939 266.052 793.639C264.652 794.889 262.902 795.509 261.162 795.509Z" fill="black"/>
<path d="M788.164 268.509C786.424 268.509 784.674 267.889 783.274 266.639C721.164 211.219 644.394 179.419 561.284 174.689C557.234 174.459 554.134 170.989 554.364 166.929C554.594 162.879 558.034 159.789 562.124 160.009C648.594 164.939 728.454 198.009 793.064 255.669C796.094 258.369 796.354 263.019 793.654 266.049C792.204 267.679 790.184 268.509 788.164 268.509Z" fill="black"/>
<path d="M291.842 268.51C289.822 268.51 287.802 267.68 286.352 266.05C283.652 263.02 283.912 258.37 286.942 255.67C351.562 198.01 431.422 164.94 517.882 160.01C521.932 159.78 525.412 162.88 525.642 166.93C525.872 170.98 522.772 174.46 518.722 174.69C435.612 179.42 358.842 211.22 296.732 266.64C295.332 267.89 293.582 268.51 291.842 268.51Z" fill="black"/>
<path d="M561.682 920C557.812 920 554.572 916.98 554.352 913.07C554.122 909.02 557.222 905.54 561.272 905.31C644.392 900.58 721.152 868.78 783.262 813.36C786.292 810.66 790.942 810.92 793.642 813.95C796.342 816.98 796.082 821.63 793.052 824.33C728.432 881.99 648.572 915.06 562.112 919.99C561.972 919.99 561.832 920 561.692 920H561.682Z" fill="black"/>
<path d="M518.312 920C518.172 920 518.032 920 517.892 919.99C431.422 915.06 351.562 881.99 286.952 824.33C283.922 821.63 283.662 816.98 286.362 813.95C289.062 810.92 293.712 810.66 296.742 813.36C358.852 868.78 435.622 900.58 518.732 905.31C522.782 905.54 525.882 909.01 525.652 913.07C525.432 916.98 522.192 920 518.322 920H518.312Z" fill="black"/>
<path d="M875.374 526.191C872.364 526.191 869.844 523.841 869.674 520.801C865.404 445.791 836.704 376.521 786.694 320.461C784.594 318.101 784.794 314.491 787.154 312.391C789.504 310.291 793.124 310.491 795.224 312.851C846.974 370.851 876.674 442.541 881.094 520.151C881.274 523.301 878.864 526.001 875.714 526.181C875.604 526.181 875.494 526.181 875.384 526.181L875.374 526.191Z" fill="black"/>
<path d="M790.954 769.062C789.594 769.062 788.244 768.582 787.154 767.612C784.794 765.512 784.594 761.892 786.694 759.542C836.704 703.492 865.404 634.212 869.674 559.202C869.854 556.052 872.544 553.642 875.704 553.822C878.854 554.002 881.264 556.702 881.084 559.852C876.664 637.472 846.974 709.152 795.214 767.152C794.084 768.422 792.514 769.062 790.944 769.062H790.954Z" fill="black"/>
<path d="M204.622 526.191C204.512 526.191 204.402 526.191 204.292 526.191C201.142 526.011 198.732 523.311 198.912 520.161C203.332 442.541 233.022 370.861 284.782 312.861C286.882 310.501 290.502 310.301 292.852 312.401C295.212 314.501 295.412 318.121 293.312 320.471C243.302 376.521 214.602 445.801 210.332 520.811C210.162 523.851 207.642 526.201 204.632 526.201L204.622 526.191Z" fill="black"/>
<path d="M289.042 769.061C287.472 769.061 285.902 768.411 284.772 767.151C233.022 709.151 203.322 637.461 198.902 559.851C198.722 556.701 201.132 554.001 204.282 553.821C207.442 553.631 210.132 556.051 210.312 559.201C214.582 634.211 243.282 703.491 293.292 759.541C295.392 761.901 295.192 765.511 292.832 767.611C291.742 768.581 290.382 769.061 289.032 769.061H289.042Z" fill="black"/>
<path d="M763.342 294.762C761.982 294.762 760.632 294.282 759.542 293.312C703.492 243.302 634.212 214.602 559.202 210.332C556.052 210.152 553.642 207.452 553.822 204.302C554.002 201.152 556.692 198.742 559.852 198.922C637.472 203.342 709.152 233.032 767.152 284.792C769.512 286.892 769.712 290.512 767.612 292.862C766.482 294.132 764.912 294.772 763.342 294.772V294.762Z" fill="black"/>
<path d="M316.651 294.761C315.081 294.761 313.511 294.111 312.381 292.851C310.281 290.491 310.481 286.881 312.841 284.781C370.841 233.031 442.531 203.331 520.141 198.911C523.291 198.721 525.991 201.141 526.171 204.291C526.351 207.441 523.941 210.141 520.791 210.321C445.781 214.591 376.511 243.291 320.451 293.301C319.361 294.271 318.001 294.751 316.651 294.751V294.761Z" fill="black"/>
<path d="M559.522 881.102C556.512 881.102 553.992 878.752 553.822 875.712C553.642 872.562 556.052 869.862 559.202 869.682C634.212 865.412 703.482 836.712 759.542 786.702C761.892 784.602 765.512 784.802 767.612 787.162C769.712 789.522 769.512 793.132 767.152 795.232C709.152 846.982 637.462 876.682 559.852 881.102C559.742 881.102 559.632 881.102 559.522 881.102Z" fill="black"/>
<path d="M520.481 881.102C520.371 881.102 520.261 881.102 520.151 881.102C442.531 876.682 370.851 846.992 312.851 795.232C310.491 793.132 310.291 789.512 312.391 787.162C314.491 784.802 318.111 784.602 320.461 786.702C376.511 836.722 445.791 865.412 520.801 869.682C523.951 869.862 526.361 872.562 526.181 875.712C526.011 878.752 523.491 881.102 520.481 881.102Z" fill="black"/>
<path d="M841.843 526.51C839.693 526.51 837.893 524.83 837.773 522.66C833.913 454.91 807.993 392.34 762.823 341.71C761.323 340.03 761.473 337.45 763.153 335.94C764.833 334.44 767.413 334.58 768.923 336.27C815.343 388.29 841.973 452.58 845.933 522.19C846.063 524.44 844.343 526.37 842.083 526.5C842.003 526.5 841.923 526.5 841.843 526.5V526.51Z" fill="black"/>
<path d="M765.862 745.101C764.892 745.101 763.922 744.761 763.142 744.061C761.462 742.561 761.312 739.981 762.812 738.291C807.982 687.661 833.902 625.091 837.762 557.341C837.892 555.091 839.852 553.391 842.072 553.491C844.322 553.621 846.042 555.551 845.922 557.801C841.952 627.411 815.322 691.701 768.912 743.721C768.102 744.621 766.982 745.081 765.862 745.081V745.101Z" fill="black"/>
<path d="M238.162 526.51C238.082 526.51 238.002 526.51 237.922 526.51C235.672 526.38 233.952 524.45 234.072 522.2C238.042 452.59 264.672 388.3 311.082 336.28C312.582 334.6 315.162 334.45 316.852 335.95C318.532 337.45 318.682 340.03 317.182 341.72C272.012 392.35 246.092 454.92 242.232 522.67C242.112 524.84 240.312 526.52 238.162 526.52V526.51Z" fill="black"/>
<path d="M314.131 745.101C313.011 745.101 311.891 744.641 311.081 743.741C264.661 691.721 238.031 627.431 234.071 557.821C233.941 555.571 235.661 553.641 237.921 553.511C240.161 553.401 242.101 555.101 242.231 557.361C246.091 625.111 272.011 687.681 317.181 738.311C318.681 739.991 318.531 742.571 316.851 744.081C316.071 744.771 315.101 745.121 314.131 745.121V745.101Z" fill="black"/>
<path d="M741.01 318.219C740.04 318.219 739.07 317.879 738.29 317.179C687.66 272.009 625.09 246.089 557.34 242.229C555.09 242.099 553.37 240.169 553.49 237.919C553.62 235.669 555.54 233.959 557.8 234.069C627.41 238.039 691.7 264.669 743.73 311.079C745.41 312.579 745.56 315.159 744.06 316.849C743.25 317.749 742.13 318.209 741.01 318.209V318.219Z" fill="black"/>
<path d="M338.991 318.22C337.871 318.22 336.751 317.76 335.941 316.86C334.441 315.18 334.591 312.6 336.271 311.09C388.291 264.67 452.581 238.04 522.191 234.08C524.441 233.96 526.371 235.67 526.501 237.93C526.631 240.18 524.91 242.11 522.65 242.24C454.9 246.1 392.331 272.02 341.701 317.19C340.921 317.88 339.951 318.23 338.981 318.23L338.991 318.22Z" fill="black"/>
<path d="M557.561 845.929C555.411 845.929 553.611 844.249 553.491 842.079C553.361 839.829 555.081 837.899 557.341 837.769C625.091 833.909 687.661 807.989 738.291 762.819C739.971 761.319 742.551 761.469 744.061 763.149C745.561 764.829 745.411 767.409 743.731 768.919C691.711 815.339 627.421 841.969 557.801 845.929C557.721 845.929 557.641 845.929 557.561 845.929Z" fill="black"/>
<path d="M522.431 845.929C522.351 845.929 522.271 845.929 522.191 845.929C452.581 841.959 388.291 815.329 336.271 768.919C334.591 767.419 334.441 764.839 335.941 763.149C337.441 761.469 340.021 761.319 341.711 762.819C392.341 807.989 454.911 833.909 522.661 837.769C524.911 837.899 526.631 839.829 526.511 842.079C526.391 844.249 524.591 845.929 522.441 845.929H522.431Z" fill="black"/>
<path d="M320.642 546.17C320.642 544.6 321.782 543.27 323.332 543.02C324.632 542.81 326.262 542.52 327.972 542.12C332.392 541.08 337.582 539.11 343.402 536.27C349.282 533.4 354.912 529.41 359.162 523.67C366.332 513.97 367.852 501.4 368.182 496.89C368.252 495.97 367.522 495.19 366.592 495.19H317.082C315.322 495.19 313.902 493.76 313.902 492.01V470.69C313.902 468.93 315.332 467.51 317.082 467.51H367.062C367.942 467.51 368.652 466.8 368.652 465.92V447.18C368.652 446.3 367.942 445.59 367.062 445.59H328.612C326.852 445.59 325.432 444.16 325.432 442.41V421.09C325.432 419.33 326.862 417.91 328.612 417.91H428.952C430.712 417.91 432.132 419.34 432.132 421.09V442.41C432.132 444.17 430.702 445.59 428.952 445.59H398.512C397.632 445.59 396.922 446.3 396.922 447.18V465.92C396.922 466.8 397.632 467.51 398.512 467.51H438.572C440.332 467.51 441.752 468.94 441.752 470.69V492.01C441.752 493.77 440.322 495.19 438.572 495.19H398.382C397.532 495.19 396.832 495.86 396.792 496.71C396.562 501.75 395.142 518.44 386.172 532.85C380.722 541.61 373.642 548.26 366.532 553.54C359.402 558.84 352.252 562.93 345.262 565.7C338.232 568.49 332.332 570.44 327.742 571.51C326.652 571.76 325.482 571.99 324.392 572.18C322.442 572.53 320.652 571.03 320.652 569.04V546.16L320.642 546.17Z" fill="black"/>
<path d="M474.544 546.52C474.544 545.06 475.544 543.79 476.954 543.43C485.204 541.36 488.924 540.11 496.834 536.32C496.834 536.32 500.884 534.21 504.924 531.3C517.104 522.54 525.214 510.63 525.214 510.63C534.674 497.28 537.764 474.91 538.484 468.49C538.594 467.55 537.854 466.72 536.904 466.72H500.574C500.344 466.72 500.134 466.84 500.024 467.04L499.874 467.29C494.294 478.11 486.874 487.99 480.444 494.24C473.994 500.5 468.584 505.05 464.374 507.75L461.774 509.42C460.714 510.1 459.324 509.34 459.324 508.08V479.89C459.324 478.95 459.744 478.06 460.464 477.45C461.114 476.9 461.984 476.13 463.174 475.06C465.934 472.57 469.044 468.51 472.414 462.98C475.754 457.51 479.344 450.21 483.064 441.29C486.444 433.2 488.974 423.09 490.854 412.06C491.114 410.53 492.444 409.42 493.994 409.42H513.904C515.904 409.42 517.414 411.25 517.034 413.21C516.394 416.52 515.704 420.88 514.844 424.31C513.574 429.39 512.754 432.3 511.234 436.72C510.974 437.47 511.534 438.24 512.324 438.24H591.174C592.934 438.24 594.354 439.67 594.354 441.42V463.51C594.354 465.27 592.924 466.69 591.174 466.69H568.134C567.324 466.69 566.634 467.3 566.554 468.11C565.924 474.01 562.874 497.16 552.384 517.26C538.284 546 508.134 566.39 478.334 572.13C476.374 572.51 474.554 571 474.554 569V546.48L474.544 546.52Z" fill="black"/>
<path d="M675.895 411.029V468.869C675.895 469.749 676.604 470.459 677.484 470.459H764.515C765.395 470.459 766.104 469.749 766.104 468.869V411.029C766.104 410.149 765.395 409.439 764.515 409.439H677.484C676.604 409.439 675.895 410.149 675.895 411.029ZM738.455 452.739H702.294C701.414 452.739 700.705 452.029 700.705 451.149V446.869C700.705 445.989 701.414 445.279 702.294 445.279H738.455C739.335 445.279 740.044 445.989 740.044 446.869V451.149C740.044 452.029 739.335 452.739 738.455 452.739ZM738.455 434.449H702.294C701.414 434.449 700.705 433.739 700.705 432.859V428.749C700.705 427.869 701.414 427.159 702.294 427.159H738.455C739.335 427.159 740.044 427.869 740.044 428.749V432.859C740.044 433.739 739.335 434.449 738.455 434.449Z" fill="black"/>
<path d="M674.224 497.34H728.264C729.144 497.34 729.854 498.05 729.854 498.93V502.84C729.854 503.72 729.144 504.43 728.264 504.43H667.754C665.994 504.43 664.574 505.86 664.574 507.61V522.86C664.574 524.62 666.004 526.04 667.754 526.04H728.264C729.144 526.04 729.854 526.75 729.854 527.63V545.39C729.854 546.11 729.934 547.98 729.214 548.85C728.384 549.87 727.144 549.67 725.844 549.72C722.534 549.72 719.574 549.7 716.944 549.66C716.544 549.66 716.254 549.29 716.334 548.9C716.594 547.63 716.724 546.31 716.694 544.96C716.494 535.68 708.934 528.08 699.654 527.84C689.574 527.58 681.364 535.85 681.704 545.94C682.014 555.29 689.784 562.81 699.144 562.84C704.034 562.85 708.454 560.86 711.634 557.64C711.974 557.3 712.544 557.43 712.694 557.88C714.154 562.21 715.534 566.34 716.784 570.05C717.224 571.35 718.454 572.22 719.824 572.21C725.724 572.17 730.504 571.96 734.174 571.6C738.304 571.18 742.084 570.15 745.514 568.5C749.174 566.84 751.684 564.42 753.044 561.23C754.404 558.04 755.084 553.55 755.084 547.76V527.62C755.084 526.74 755.794 526.03 756.674 526.03H762.904C764.664 526.03 766.084 524.6 766.084 522.85V507.6C766.084 505.84 764.654 504.42 762.904 504.42H756.674C755.794 504.42 755.084 503.71 755.084 502.83V498.92C755.084 498.04 755.794 497.33 756.674 497.33H762.904C764.664 497.33 766.084 495.9 766.084 494.15V479.6C766.084 477.84 764.654 476.42 762.904 476.42H674.204C672.444 476.42 671.024 477.85 671.024 479.6V494.15C671.024 495.91 672.454 497.33 674.204 497.33L674.224 497.34Z" fill="black"/>
<path d="M668.824 409.439H650.254C649.394 409.439 648.574 409.789 647.974 410.399C635.224 423.349 618.284 434.569 612.124 438.479C610.774 439.329 610.274 441.059 610.944 442.499L620.694 463.569C621.624 465.569 624.254 466.049 625.824 464.499C646.114 444.459 664.444 419.799 670.114 411.959C670.874 410.909 670.114 409.439 668.824 409.439Z" fill="black"/>
<path d="M671.914 453.889V435.409C671.914 433.999 670.214 433.289 669.204 434.279C653.634 449.599 620.044 477.059 611.674 483.859C610.544 484.779 610.184 486.349 610.794 487.669L620.694 509.049C621.624 511.049 624.254 511.529 625.824 509.979C627.534 508.289 629.234 506.559 630.914 504.819C631.314 504.409 632.014 504.689 632.014 505.259V569.059C632.014 570.819 633.444 572.239 635.194 572.239H653.814C655.574 572.239 656.994 570.809 656.994 569.059V476.369C656.994 475.299 657.354 474.249 658.024 473.409C664.864 464.729 669.714 458.019 671.334 455.739C671.714 455.199 671.924 454.559 671.924 453.889H671.914Z" fill="black"/>
<path d="M653.261 623.33C640.841 623.33 634.801 628.28 634.801 638.47V655.6C634.801 665.67 640.841 670.56 653.261 670.56C659.131 670.56 663.471 669.48 666.551 667.27C669.991 664.8 671.731 660.87 671.731 655.59V638.46C671.731 628.27 665.691 623.32 653.271 623.32L653.261 623.33ZM646.081 639.3C646.081 633.93 648.831 632.91 653.261 632.91C657.691 632.91 660.441 633.95 660.441 639.3V654.68C660.441 659.95 657.591 660.98 653.261 660.98C648.931 660.98 646.081 659.98 646.081 654.68V639.3Z" fill="black"/>
<path d="M708.262 669.331H721.352L703.622 646.781L720.552 624.8H707.392L694.052 642.281V610.23H682.762V669.331H694.052V659.211L696.942 655.451L708.262 669.331Z" fill="black"/>
<path d="M754.812 624.801V653.291C754.812 659.041 751.872 660.891 746.822 660.891C743.552 660.891 740.272 660.351 740.272 653.881V624.811H728.992V656.771C728.992 665.741 733.702 670.481 742.612 670.481C749.292 670.481 753.872 666.861 755.572 662.801L757.382 669.341H766.102V624.811H754.822L754.812 624.801Z" fill="black"/>
<path d="M630.561 610.23H589.141V620.141V620.151H604.211V669.331H615.681V620.151H630.561V610.23Z" fill="black"/>
<path d="M459.681 669.331H472.771L455.041 646.781L471.971 624.8H458.811L445.471 642.281V610.23H434.191V669.331H445.471V659.211L448.361 655.451L459.681 669.331Z" fill="black"/>
<path d="M355.322 610.23H313.902V620.141V620.151H328.982V669.331H340.442V620.151H355.322V610.23Z" fill="black"/>
<path d="M421.792 658.89L421.192 659.04C417.612 659.96 413.282 660.89 409.402 660.89C404.852 660.89 401.682 658.82 401.682 652.83V640.97C401.682 634.9 404.852 632.82 409.402 632.82C413.352 632.82 417.872 633.7 421.222 634.4L421.802 634.52V625.19L421.492 625.12C417.682 624.23 412.042 623.33 407.522 623.33C402.002 623.33 397.962 624.4 395.162 626.59C391.962 629.09 390.412 633.85 390.412 639.34V654.64C390.412 664.77 396.012 670.56 407.532 670.56C411.402 670.56 417.262 669.49 421.522 668.31L421.812 668.23V658.88L421.792 658.89Z" fill="black"/>
<path d="M553.922 634.699V624.799H543.682V615.189H532.402V624.799H525.172V634.699H532.402V655.419C532.402 667.939 540.292 670.559 546.922 670.559C548.702 670.559 550.502 670.449 552.112 670.219V660.259C551.462 660.329 550.252 660.359 549.532 660.359C546.452 660.359 543.682 659.729 543.682 652.089V634.689H553.922V634.699Z" fill="black"/>
<path d="M489.733 650.741V650.561H515.163V641.481C515.163 635.571 513.543 630.241 510.353 627.341C507.413 624.671 502.773 623.311 497.253 623.311C485.073 623.311 478.453 629.221 478.453 639.591V654.451C478.453 664.701 483.833 670.551 496.313 670.551C500.973 670.551 506.283 669.561 511.963 668.401L512.353 668.321V659.051L511.703 659.201C507.133 660.251 504.613 661.141 500.283 661.141C494.073 661.141 489.733 658.621 489.733 652.201V650.721V650.741ZM489.733 639.721C489.733 634.071 493.793 632.741 497.163 632.741C500.533 632.741 504.063 634.071 504.063 639.721V643.231H489.733V642.711V639.721Z" fill="black"/>
<path d="M378.173 626.881H366.893V669.331H378.173V626.881Z" fill="black"/>
<path d="M372.532 622.22C376.415 622.22 379.562 619.073 379.562 615.19C379.562 611.308 376.415 608.16 372.532 608.16C368.649 608.16 365.502 611.308 365.502 615.19C365.502 619.073 368.649 622.22 372.532 622.22Z" fill="black"/>
<path d="M585.731 643.92H566.141V651.26H585.731V643.92Z" fill="black"/>
<path d="M712.456 1530.83V1555.03C712.456 1563.62 712.698 1567.85 713.424 1572.45H695.395C696.121 1568.34 696.363 1563.26 696.363 1555.27V1491.5C696.363 1484.85 696.121 1481.34 695.395 1475.77C700.356 1476.02 703.381 1476.14 710.762 1476.14H744.642C752.265 1476.14 756.137 1475.89 761.219 1475.29V1491.62C756.863 1491.02 752.386 1490.78 744.642 1490.78H712.456V1516.43H738.35C745.852 1516.43 750.087 1516.19 754.806 1515.58V1531.68C750.329 1531.07 745.731 1530.83 738.35 1530.83H712.456Z" fill="black"/>
<path d="M634.588 1530.83V1555.03C634.588 1563.62 634.83 1567.85 635.556 1572.45H617.527C618.253 1568.34 618.495 1563.26 618.495 1555.27V1491.5C618.495 1484.85 618.253 1481.34 617.527 1475.77C622.488 1476.02 625.513 1476.14 632.894 1476.14H666.774C674.397 1476.14 678.269 1475.89 683.351 1475.29V1491.62C678.995 1491.02 674.518 1490.78 666.774 1490.78H634.588V1516.43H660.482C667.984 1516.43 672.219 1516.19 676.938 1515.58V1531.68C672.461 1531.07 667.863 1530.83 660.482 1530.83H634.588Z" fill="black"/>
<path d="M558.008 1474.2C571.318 1474.2 581.603 1478.07 589.831 1486.3C598.664 1495.13 603.383 1508.32 603.383 1524.05C603.383 1554.66 585.596 1574.51 558.129 1574.51C530.662 1574.51 512.996 1554.79 512.996 1524.05C512.996 1508.44 517.836 1495.01 526.79 1486.3C535.139 1478.07 545.182 1474.2 558.008 1474.2ZM558.371 1560.11C575.674 1560.11 586.443 1546.32 586.443 1524.05C586.443 1511.83 583.055 1502.03 576.884 1495.86C571.923 1491.02 565.51 1488.48 558.25 1488.48C540.826 1488.48 529.815 1502.27 529.815 1524.17C529.815 1536.27 533.324 1546.44 539.616 1552.73C544.577 1557.57 550.99 1560.11 558.371 1560.11Z" fill="black"/>
<path d="M409.955 1570.64L486.064 1473.23L492.356 1478.07L416.126 1575.6L409.955 1570.64ZM479.651 1574.39C472.875 1574.39 467.309 1572.33 463.195 1568.22C458.597 1563.74 456.177 1556.48 456.177 1547.28C456.177 1538.21 458.597 1531.07 463.195 1526.47C467.309 1522.48 472.996 1520.3 479.651 1520.3C486.306 1520.3 491.993 1522.48 495.986 1526.47C500.584 1530.95 503.004 1538.21 503.004 1547.28C503.004 1556.48 500.584 1563.74 495.986 1568.22C491.872 1572.33 486.306 1574.39 479.651 1574.39ZM479.651 1530.59C476.142 1530.59 473.843 1531.68 471.907 1534.46C469.729 1537.48 468.64 1541.6 468.64 1547.04C468.64 1558.17 472.512 1564.22 479.651 1564.22C486.911 1564.22 490.662 1558.17 490.662 1546.44C490.662 1541.6 489.452 1537.24 487.395 1534.34C485.338 1531.68 483.16 1530.59 479.651 1530.59ZM422.66 1528.41C415.884 1528.41 410.318 1526.35 406.204 1522.24C401.606 1517.76 399.186 1510.38 399.186 1501.3C399.186 1484.36 407.898 1474.32 422.66 1474.32C429.315 1474.32 435.002 1476.5 438.995 1480.49C443.593 1484.97 446.013 1492.23 446.013 1501.3C446.013 1510.5 443.593 1517.76 438.995 1522.24C434.881 1526.35 429.315 1528.41 422.66 1528.41ZM422.66 1484.61C415.642 1484.61 411.649 1490.54 411.649 1501.06C411.649 1512.19 415.521 1518.24 422.66 1518.24C429.678 1518.24 433.671 1512.19 433.671 1501.3C433.671 1496.95 432.824 1492.59 431.493 1490.05C429.436 1486.3 426.653 1484.61 422.66 1484.61Z" fill="black"/>
<path d="M315.465 1550.91L332.163 1547.4C333.252 1550.91 334.099 1552.49 335.793 1554.42C339.181 1558.54 344.263 1560.59 350.676 1560.59C362.655 1560.59 370.52 1552.61 370.52 1540.63C370.52 1528.77 363.018 1521.15 351.523 1521.15C345.594 1521.15 340.27 1523.08 336.519 1526.71C334.825 1528.41 333.978 1529.5 332.889 1532.16L317.764 1530.71C318.974 1522.12 319.095 1521.51 319.337 1518.12L322.12 1488.11C322.241 1485.94 322.483 1481.82 322.604 1475.77C326.234 1476.01 329.017 1476.14 335.43 1476.14H365.196C373.545 1476.14 376.57 1476.01 382.015 1475.17V1490.41C376.691 1489.69 371.972 1489.45 365.317 1489.45H336.882L334.946 1510.62C334.825 1511.59 334.583 1513.28 334.22 1515.7C340.149 1510.62 346.562 1508.32 354.911 1508.32C364.712 1508.32 372.577 1511.23 378.506 1517.4C384.435 1523.2 387.097 1530.46 387.097 1540.14C387.097 1561.44 373.182 1574.63 350.676 1574.63C338.697 1574.63 329.743 1571.24 323.088 1564.1C319.821 1560.59 318.127 1557.69 315.465 1550.91Z" fill="black"/>
<path d="M791.185 1630.5H764.689C762.577 1630.5 760.705 1630.59 758.785 1630.78V1625.36C760.513 1625.55 762.289 1625.65 764.593 1625.65H796.033C798.193 1625.65 800.209 1625.55 801.937 1625.36V1630.78C800.353 1630.59 798.817 1630.54 796.561 1630.5V1662.27C796.561 1666.78 795.265 1667.6 788.449 1667.6C787.057 1667.6 785.281 1667.55 783.169 1667.46C782.977 1665.63 782.545 1663.81 781.825 1662.13C784.657 1662.46 787.057 1662.66 789.025 1662.66C790.801 1662.66 791.185 1662.42 791.185 1661.17V1630.5ZM784.609 1639.57V1651.66C784.609 1653.15 784.657 1654.3 784.801 1655.55C783.985 1655.46 783.793 1655.46 782.929 1655.41C782.449 1655.41 782.065 1655.41 781.681 1655.41C781.057 1655.36 780.625 1655.36 780.433 1655.36H769.153V1659.34H763.633C763.825 1657.81 763.921 1656.46 763.921 1655.02V1639.9C763.921 1638.03 763.873 1636.83 763.681 1635.49C764.929 1635.63 766.225 1635.68 768.145 1635.68H780.241C782.161 1635.68 783.505 1635.63 784.849 1635.49C784.657 1636.74 784.609 1637.6 784.609 1639.57ZM769.105 1640.34V1650.7H779.473V1640.34H769.105Z" fill="black"/>
<path d="M731.233 1631.31H716.881C714.817 1631.31 712.225 1631.41 710.305 1631.6V1625.94C712.225 1626.13 714.289 1626.22 716.689 1626.22H747.217C750.049 1626.22 752.065 1626.13 753.601 1625.94V1631.6C751.681 1631.41 749.425 1631.31 747.361 1631.31H737.665C736.705 1633.18 736.129 1634.1 734.257 1636.64V1661.84C734.257 1664.1 734.353 1666.06 734.593 1667.89H728.401C728.593 1666.06 728.737 1663.86 728.737 1661.84V1647.44C728.737 1645.71 728.737 1645.09 728.785 1642.98C727.105 1645.18 724.801 1647.49 721.777 1649.98C719.425 1651.9 716.929 1653.63 712.657 1656.32C711.889 1654.59 711.025 1653.34 709.297 1651.42C715.489 1648.16 719.953 1644.85 724.417 1640.24C727.585 1637.02 729.169 1634.91 731.233 1631.31ZM734.641 1641.97L738.145 1638.08C740.545 1640.86 742.369 1642.64 745.153 1644.9C748.753 1647.78 751.489 1649.5 754.993 1651.04C753.601 1652.86 752.737 1654.16 751.681 1656.27C744.433 1652.1 739.393 1647.82 734.641 1641.97Z" fill="black"/>
<path d="M681.936 1652.86H670.896C670.224 1659.25 668.784 1663.76 666 1668.03C663.984 1666.11 663.312 1665.58 661.344 1664.24C663.072 1661.74 664.176 1659.2 664.848 1656.13C665.328 1653.87 665.664 1651.38 665.808 1648.78C666.048 1644.75 666.24 1637.94 666.24 1632.27C666.24 1628.82 666.192 1627.28 666 1625.31C667.68 1625.46 668.928 1625.5 671.52 1625.5H698.448C701.136 1625.5 702.48 1625.46 703.968 1625.31C703.824 1626.94 703.776 1628.14 703.776 1630.74V1662.27C703.776 1666.26 702.336 1667.26 696.864 1667.26C695.376 1667.26 692.928 1667.17 691.488 1667.07C691.248 1665.25 690.912 1664.1 690.144 1662.08C692.544 1662.32 694.656 1662.46 696.192 1662.46C698.16 1662.46 698.592 1662.27 698.592 1661.26V1652.86H687.072V1660.74C687.072 1663.52 687.12 1665.06 687.312 1666.45H681.648C681.84 1665.01 681.936 1663.62 681.936 1660.78V1652.86ZM681.936 1648.11V1641.54H671.328C671.328 1642.93 671.28 1643.89 671.28 1644.56C671.232 1646.82 671.232 1647.15 671.232 1648.11H681.936ZM687.072 1648.11H698.592V1641.54H687.072V1648.11ZM681.936 1636.83V1630.54H671.472V1635.49L671.424 1636.83H681.936ZM687.072 1636.83H698.592V1630.54H687.072V1636.83Z" fill="black"/>
<path d="M633.502 1638.42H631.15C629.278 1638.42 628.222 1638.46 627.118 1638.66V1633.38C628.318 1633.57 629.47 1633.62 631.294 1633.62H635.23C633.694 1630.21 632.878 1628.86 630.526 1625.89L635.134 1623.73C637.342 1626.61 638.158 1627.86 640.126 1631.6L636.142 1633.62H643.726C645.646 1630.21 646.798 1627.52 648.094 1623.54L653.374 1625.31C652.126 1628.14 650.542 1631.26 649.198 1633.62H652.51C654.574 1633.62 655.918 1633.52 657.214 1633.33V1638.66C656.014 1638.46 654.718 1638.42 652.942 1638.42H650.542V1646.19H653.854C655.918 1646.19 657.262 1646.1 658.27 1645.9V1651.28C657.07 1651.09 655.63 1650.99 653.854 1650.99H650.542V1662.9C650.542 1665.01 650.638 1666.5 650.83 1668.13H645.022C645.214 1666.59 645.31 1665.06 645.31 1662.9V1650.99H638.254C637.39 1658.77 634.702 1663.62 628.846 1668.08C627.454 1666.26 626.446 1665.2 624.862 1663.9C630.19 1660.11 632.302 1656.85 633.07 1650.99H629.758C627.838 1650.99 626.878 1651.04 625.774 1651.23V1645.95C626.974 1646.14 627.934 1646.19 629.662 1646.19H633.406C633.454 1645.04 633.454 1642.45 633.502 1638.42ZM645.31 1638.42H638.734C638.686 1644.22 638.686 1644.22 638.638 1646.19H645.31V1638.42ZM623.854 1635.92V1662.46C623.854 1664.53 623.95 1666.11 624.094 1668.03H618.574C618.766 1666.11 618.862 1664.67 618.862 1662.42V1648.78C618.862 1647.63 618.91 1645.9 619.006 1643.5C617.566 1645.86 616.99 1646.67 615.454 1648.4C614.878 1646.58 613.918 1644.42 612.91 1642.74C616.318 1639.23 618.91 1635.06 620.974 1629.63C621.886 1627.18 622.558 1624.83 622.798 1623.15L628.27 1624.69C627.886 1625.6 627.646 1626.37 627.31 1627.38C626.782 1629.3 625.294 1632.9 623.854 1635.92Z" fill="black"/>
<path d="M591.746 1633.23C590.834 1640.77 589.154 1647.39 586.754 1652.82C584.018 1659.01 580.946 1661.84 577.01 1661.84C571.538 1661.84 567.602 1656.27 567.602 1648.54C567.602 1643.26 569.474 1638.32 572.882 1634.58C576.914 1630.16 582.578 1627.86 589.394 1627.86C600.914 1627.86 608.402 1634.86 608.402 1645.66C608.402 1653.97 604.082 1660.59 596.738 1663.57C594.434 1664.53 592.562 1665.01 589.202 1665.58C588.386 1663.04 587.81 1661.98 586.274 1659.97C590.69 1659.39 593.57 1658.62 595.826 1657.33C600.002 1655.02 602.498 1650.46 602.498 1645.33C602.498 1640.72 600.434 1636.98 596.594 1634.67C595.106 1633.81 593.858 1633.42 591.746 1633.23ZM585.89 1633.28C583.394 1633.57 581.666 1634.24 579.698 1635.63C575.666 1638.51 573.17 1643.46 573.17 1648.59C573.17 1652.53 574.85 1655.65 576.962 1655.65C578.546 1655.65 580.178 1653.63 581.906 1649.5C583.73 1645.18 585.314 1638.7 585.89 1633.28Z" fill="black"/>
<path d="M530.304 1625.55L536.544 1624.54C536.736 1627.76 538.176 1634.67 539.712 1639.57C542.832 1638.42 542.832 1638.42 552.144 1635.34C553.008 1635.06 553.248 1634.96 553.968 1634.62L556.032 1640.67C551.856 1641.49 545.568 1643.31 540.192 1645.28C533.184 1647.87 529.68 1650.94 529.68 1654.4C529.68 1657.9 532.944 1659.39 540.672 1659.39C546.672 1659.39 552.576 1658.67 556.176 1657.42L556.704 1664C555.648 1664 555.408 1664.05 552.816 1664.34C547.632 1664.86 544.944 1665.06 541.584 1665.06C534.912 1665.06 530.736 1664.24 527.664 1662.42C525.024 1660.83 523.488 1657.86 523.488 1654.4C523.488 1651.18 525.024 1648.11 527.76 1645.81C529.632 1644.22 531.168 1643.26 534.288 1641.68C533.088 1637.79 532.272 1634.58 531.072 1628.67C530.592 1626.37 530.544 1626.27 530.304 1625.55Z" fill="black"/>
<path d="M478.08 1646.43H490.512C492.24 1646.43 493.296 1646.38 494.448 1646.24C494.352 1647.2 494.304 1647.54 494.256 1648.78C493.968 1655.36 492.96 1660.83 491.424 1663.81C490.224 1666.21 488.16 1667.02 483.552 1667.02C481.296 1667.02 479.04 1666.88 475.968 1666.59C475.728 1664.38 475.44 1663.23 474.72 1661.12C478.368 1661.74 481.056 1662.03 483.6 1662.03C485.472 1662.03 486.288 1661.74 486.72 1660.83C487.68 1658.91 488.256 1655.89 488.64 1651.04H475.392C474.048 1651.04 472.944 1651.09 471.84 1651.18C473.136 1646.34 474 1640.58 474.144 1635.92C475.2 1636.06 476.208 1636.11 477.888 1636.11H488.592V1630.26H477.312C475.536 1630.26 473.856 1630.35 472.272 1630.54V1625.22C473.712 1625.41 475.44 1625.5 477.36 1625.5H489.408C491.28 1625.5 492.72 1625.46 494.064 1625.31C493.968 1626.51 493.92 1627.62 493.92 1629.2V1637.07C493.92 1638.66 493.968 1639.66 494.064 1640.82C492.864 1640.72 491.328 1640.67 489.792 1640.67H479.088C478.8 1642.74 478.512 1644.37 478.08 1646.43ZM503.616 1624.35H509.712C509.472 1626.08 509.424 1627.18 509.424 1629.68V1661.6C509.424 1664.48 509.472 1665.82 509.712 1667.74H503.616C503.856 1665.73 503.952 1664.38 503.952 1661.6V1629.68C503.952 1627.18 503.904 1626.22 503.616 1624.35Z" fill="black"/>
<path d="M433.584 1638.32H429.84C427.872 1638.32 426.96 1638.37 425.52 1638.56V1636.5H422.496C422.64 1635.44 422.688 1634.62 422.688 1633.04V1630.5C422.688 1628.96 422.64 1628.1 422.496 1626.99C423.936 1627.14 424.992 1627.18 427.392 1627.18H433.44V1626.9C433.44 1625.46 433.392 1624.5 433.2 1623.58H438.912C438.72 1624.54 438.672 1625.36 438.672 1626.85V1627.18H443.568C446.064 1627.18 447.36 1627.14 448.896 1626.99C448.8 1628.05 448.752 1628.96 448.752 1630.45V1632.85C448.752 1634.29 448.8 1635.2 448.896 1636.21H446.208V1638.56C444.768 1638.37 443.904 1638.32 441.984 1638.32H438.288V1640.48H442.704C444.432 1640.48 445.344 1640.43 446.496 1640.29V1644.51C445.344 1644.37 444.672 1644.32 442.704 1644.32H438.288V1646.72H444.576C446.592 1646.72 447.504 1646.67 448.752 1646.48V1651.14C447.552 1650.99 446.544 1650.94 444.576 1650.94H426.528C424.8 1650.94 423.456 1650.99 422.256 1651.14V1646.48C423.504 1646.67 424.464 1646.72 426.528 1646.72H433.584V1644.32H428.784C426.816 1644.32 426.096 1644.37 424.896 1644.51V1640.29C426.048 1640.43 427.056 1640.48 428.784 1640.48H433.584V1638.32ZM429.84 1634.43H433.584C433.536 1633.33 433.488 1632.94 433.344 1632.27H438.528C438.384 1632.94 438.336 1633.38 438.288 1634.43H441.984C442.944 1634.43 443.52 1634.43 444.24 1634.38V1631.31H427.344V1634.38C428.208 1634.43 428.688 1634.43 429.84 1634.43ZM429.216 1653.01H442.608C444.24 1653.01 445.296 1652.96 446.4 1652.86C446.256 1654.06 446.208 1655.07 446.208 1657.09V1663.14C446.208 1665.25 446.256 1666.26 446.448 1667.46H441.216V1665.97H430.368V1667.98H425.04C425.28 1666.64 425.328 1665.54 425.328 1663.71V1657.33C425.328 1655.65 425.28 1654.3 425.136 1652.86C426.24 1652.96 427.488 1653.01 429.216 1653.01ZM430.368 1657.04V1661.7H441.216V1657.04H430.368ZM450.672 1626.99H456.096C455.904 1628.24 455.856 1629.54 455.856 1631.98V1651.42C455.856 1654.26 455.904 1655.26 456.096 1656.51H450.672C450.864 1655.12 450.912 1654.11 450.912 1651.38V1632.08C450.912 1629.44 450.864 1628.34 450.672 1626.99ZM459.216 1623.97H464.832C464.592 1625.26 464.496 1626.9 464.496 1629.78V1661.79C464.496 1666.26 463.056 1667.36 457.248 1667.36C456.096 1667.36 455.28 1667.31 452.784 1667.17C452.496 1665.1 452.16 1663.81 451.44 1662.18C454.272 1662.46 455.76 1662.61 456.864 1662.61C459.072 1662.61 459.504 1662.37 459.504 1661.12V1629.92C459.504 1626.99 459.456 1625.55 459.216 1623.97Z" fill="black"/>
<path d="M399.744 1633.23C398.832 1640.77 397.152 1647.39 394.752 1652.82C392.016 1659.01 388.944 1661.84 385.008 1661.84C379.536 1661.84 375.6 1656.27 375.6 1648.54C375.6 1643.26 377.472 1638.32 380.88 1634.58C384.912 1630.16 390.576 1627.86 397.392 1627.86C408.912 1627.86 416.4 1634.86 416.4 1645.66C416.4 1653.97 412.08 1660.59 404.736 1663.57C402.432 1664.53 400.56 1665.01 397.2 1665.58C396.384 1663.04 395.808 1661.98 394.272 1659.97C398.688 1659.39 401.568 1658.62 403.824 1657.33C408 1655.02 410.496 1650.46 410.496 1645.33C410.496 1640.72 408.432 1636.98 404.592 1634.67C403.104 1633.81 401.856 1633.42 399.744 1633.23ZM393.888 1633.28C391.392 1633.57 389.664 1634.24 387.696 1635.63C383.664 1638.51 381.168 1643.46 381.168 1648.59C381.168 1652.53 382.848 1655.65 384.96 1655.65C386.544 1655.65 388.176 1653.63 389.904 1649.5C391.728 1645.18 393.312 1638.7 393.888 1633.28Z" fill="black"/>
<path d="M352.129 1641.49L347.185 1643.07V1659.87C347.185 1660.83 347.425 1661.12 348.481 1661.36C349.681 1661.65 351.121 1661.74 354.529 1661.74C359.953 1661.74 362.017 1661.55 363.073 1660.83C363.601 1660.5 364.033 1659.68 364.225 1658.62C364.369 1657.71 364.417 1657.14 364.561 1654.83C366.673 1655.7 367.537 1655.94 369.793 1656.37C369.217 1661.84 368.593 1663.71 367.105 1664.86C365.281 1666.16 362.065 1666.59 353.329 1666.59C344.353 1666.59 342.097 1665.63 342.097 1661.79V1644.75C341.665 1644.9 341.329 1644.99 341.137 1645.04C339.745 1645.52 339.265 1645.71 338.353 1646.14L337.921 1640.67C339.073 1640.53 340.465 1640.19 342.097 1639.71V1634.05C342.097 1631.79 342.049 1630.5 341.809 1628.96H347.473C347.233 1630.35 347.185 1631.6 347.185 1633.86V1638.13L352.129 1636.54V1628.72C352.129 1626.8 352.033 1625.55 351.841 1623.92H357.409C357.217 1625.41 357.121 1626.61 357.121 1628.58V1634.96L364.129 1632.7C366.001 1632.13 367.105 1631.7 368.017 1631.26C367.969 1632.27 367.969 1632.66 367.969 1633.86C367.873 1639.62 367.537 1646.24 367.153 1649.36C366.673 1652.96 365.473 1654.02 361.777 1654.02C360.865 1654.02 360.337 1653.97 359.137 1653.87C358.897 1652 358.609 1650.9 357.793 1648.98C359.041 1649.22 360.289 1649.41 361.057 1649.41C362.113 1649.41 362.305 1649.07 362.593 1646.82C362.833 1644.94 362.977 1641.78 362.977 1637.94L357.121 1639.86V1652.34C357.121 1654.3 357.169 1655.5 357.409 1657.14H351.841C352.081 1655.65 352.129 1654.4 352.129 1652.19V1641.49ZM331.105 1662.18V1648.35C331.105 1647.2 331.105 1647.2 331.249 1643.07C330.097 1645.04 328.897 1646.67 327.217 1648.59C326.545 1646.58 325.969 1645.28 324.721 1642.93C328.273 1639.42 331.105 1634.91 333.217 1629.68C334.177 1627.28 334.849 1624.93 335.089 1623.2L340.513 1624.83C340.129 1625.94 340.033 1626.22 339.553 1627.57C338.449 1630.78 337.777 1632.42 336.193 1635.49V1662.22C336.193 1664.48 336.289 1666.21 336.433 1668.03H330.817C331.009 1666.3 331.105 1664.77 331.105 1662.18Z" fill="black"/>
<path d="M300 1644.08L317.04 1627.04L318.576 1628.62L301.536 1645.76L318.576 1662.8L317.04 1664.38L300 1647.49L283.008 1664.38L281.424 1662.8L298.464 1645.76L281.424 1628.62L283.008 1627.04L300 1644.08ZM300.048 1628.19C302.064 1628.19 303.696 1629.82 303.696 1631.84C303.696 1633.9 302.064 1635.54 300.048 1635.54C298.032 1635.54 296.352 1633.86 296.352 1631.84C296.352 1629.82 298.032 1628.19 300.048 1628.19ZM286.272 1642.06C288.288 1642.06 289.92 1643.7 289.92 1645.71C289.92 1647.78 288.288 1649.41 286.272 1649.41C284.256 1649.41 282.576 1647.73 282.576 1645.71C282.576 1643.7 284.208 1642.06 286.272 1642.06ZM313.728 1642.11C315.744 1642.11 317.376 1643.74 317.376 1645.76C317.376 1647.78 315.744 1649.41 313.728 1649.41C311.712 1649.41 310.08 1647.78 310.08 1645.76C310.08 1643.74 311.712 1642.11 313.728 1642.11ZM300 1656.03C302.016 1656.03 303.648 1657.66 303.648 1659.73C303.648 1661.74 301.968 1663.42 300 1663.42C298.08 1663.42 296.304 1661.65 296.304 1659.73C296.304 1657.9 298.032 1656.03 299.664 1656.03C299.712 1656.03 299.76 1656.03 299.808 1656.08C299.856 1656.13 299.856 1656.13 299.904 1656.13C299.904 1656.13 299.904 1656.13 300 1656.03Z" fill="black"/>
<path d="M742.942 1713.45L749.038 1713.78C748.462 1715.42 748.222 1716.66 747.31 1723.05C746.974 1725.06 746.782 1726.7 746.686 1727.85H746.83C746.926 1727.56 746.926 1727.56 747.118 1726.79C747.598 1725.11 748.846 1722.76 750.142 1721.08C752.782 1717.82 755.758 1716.18 759.262 1716.18C762.526 1716.18 765.406 1717.72 767.47 1720.5C769.87 1723.72 770.926 1727.61 770.926 1733.27C770.926 1742.54 766.606 1749.45 758.542 1753C756.094 1754.1 752.734 1755.06 749.134 1755.69C748.174 1752.95 747.646 1751.9 746.302 1750.02C751.102 1749.5 753.886 1748.78 756.814 1747.29C762.382 1744.46 764.926 1739.9 764.926 1732.6C764.926 1725.69 762.622 1721.85 758.494 1721.85C756.67 1721.85 754.99 1722.66 753.31 1724.39C749.566 1728.28 747.262 1734.18 747.262 1739.9C747.262 1740.14 747.262 1740.47 747.262 1740.9L741.502 1741C741.55 1740.71 741.55 1740.47 741.55 1740.38C741.55 1740.18 741.55 1739.9 741.55 1739.46C741.502 1738.07 741.406 1734.52 741.406 1733.56C741.406 1729.67 741.694 1724.34 742.078 1721.03L742.798 1715.08C742.894 1714.26 742.942 1714.07 742.942 1713.45Z" fill="black"/>
<path d="M714.001 1724.82L719.425 1726.36C719.233 1726.74 719.233 1726.74 718.849 1727.75C718.369 1729.1 718.321 1729.14 718.177 1729.58C720.145 1730.06 721.537 1730.73 723.169 1731.93C726.241 1734.23 727.729 1737.21 727.729 1741C727.729 1746.23 724.897 1750.31 719.473 1753C716.641 1754.39 713.905 1755.11 709.681 1755.54C709.153 1753.48 708.721 1752.62 707.137 1750.12C711.025 1750.07 713.473 1749.54 716.305 1748.2C720.145 1746.38 721.921 1744.02 721.921 1740.71C721.921 1737.69 719.953 1735.24 716.545 1734.09C713.905 1739.8 711.649 1743.26 708.193 1746.86C703.873 1751.42 699.601 1753.77 695.617 1753.77C691.153 1753.77 688.129 1750.36 688.129 1745.37C688.129 1741.43 689.809 1737.64 692.881 1734.62C694.801 1732.74 696.577 1731.54 699.457 1730.3C699.457 1728.76 699.553 1726.84 699.649 1724.54C699.121 1724.54 696.529 1724.49 691.873 1724.34C691.393 1724.34 691.057 1724.34 690.961 1724.34C690.817 1724.34 690.385 1724.34 689.857 1724.39V1719.02C692.017 1719.5 694.849 1719.74 698.833 1719.74C698.881 1719.74 698.929 1719.74 699.889 1719.74C699.937 1718.78 699.937 1718.78 700.081 1716.86C700.129 1716.23 700.177 1715.03 700.177 1714.12C700.177 1713.93 700.177 1713.74 700.081 1713.35L706.033 1713.64C705.649 1714.94 705.457 1716.18 705.169 1719.54C712.849 1719.11 719.665 1718.15 723.361 1717L723.601 1722.52C722.929 1722.57 722.737 1722.57 721.729 1722.71C716.449 1723.58 708.673 1724.3 704.833 1724.39C704.689 1726.46 704.641 1727.99 704.593 1729C707.185 1728.47 708.289 1728.38 711.217 1728.38C711.793 1728.38 712.177 1728.38 713.041 1728.47C713.569 1726.94 713.857 1725.93 714.001 1724.82ZM699.553 1735.77C697.441 1737.16 696.625 1737.88 695.665 1739.08C694.225 1740.95 693.505 1742.92 693.505 1744.94C693.505 1747.1 694.561 1748.44 696.241 1748.44C697.585 1748.44 698.881 1747.86 700.417 1746.62C699.793 1743.5 699.553 1740.42 699.553 1735.77ZM704.977 1743.02L705.073 1743.06C705.265 1742.78 705.265 1742.78 705.601 1742.39C707.857 1739.85 709.777 1736.78 711.553 1732.79C711.025 1732.74 710.785 1732.74 710.305 1732.74C708.193 1732.74 706.465 1732.98 704.545 1733.61C704.593 1738.02 704.593 1738.5 704.881 1741.86C704.929 1742.15 704.929 1742.15 704.929 1742.49C704.929 1742.73 704.929 1742.78 704.977 1743.02Z" fill="black"/>
<path d="M645.745 1727.13V1718.25C645.745 1716.52 645.697 1715.22 645.553 1713.98C646.993 1714.17 648.385 1714.22 650.977 1714.22H669.073C671.761 1714.22 673.297 1714.17 674.545 1713.98C674.401 1715.18 674.353 1716.38 674.353 1718.2V1727.08C674.353 1729.05 674.401 1730.25 674.545 1731.54C673.057 1731.4 672.097 1731.35 669.553 1731.35H650.545C648.049 1731.35 646.993 1731.4 645.553 1731.54C645.697 1730.2 645.745 1728.9 645.745 1727.13ZM650.881 1719.02V1726.7H669.169V1719.02H650.881ZM639.361 1751.75V1739.42C639.361 1737.69 639.313 1736.2 639.169 1734.81C640.609 1734.95 641.857 1735 643.825 1735H654.337C655.729 1735 656.785 1734.95 657.937 1734.86C657.793 1735.86 657.793 1736.58 657.793 1739.03V1751.85C657.793 1753.82 657.841 1755.11 657.985 1756.17H652.801V1754.44H644.449V1756.94H639.121C639.313 1755.54 639.361 1754.25 639.361 1751.75ZM644.401 1739.66V1749.78H652.801V1739.66H644.401ZM664.897 1735H676.609C678.577 1735 679.681 1734.95 680.881 1734.81C680.737 1736.15 680.689 1737.45 680.689 1739.42V1751.8C680.689 1754.39 680.737 1755.64 680.929 1756.94H675.553V1754.44H666.433V1756.94H661.297C661.393 1755.59 661.441 1754.63 661.441 1752.66V1738.79C661.441 1736.63 661.441 1735.86 661.345 1734.86C662.449 1734.95 663.457 1735 664.897 1735ZM666.433 1739.66V1749.78H675.601V1739.66H666.433Z" fill="black"/>
<path d="M602.159 1750.17V1741.96C602.159 1740.86 602.159 1740.57 602.063 1739.66C601.247 1740.09 600.815 1740.28 599.615 1740.81C598.895 1739.51 598.319 1738.7 597.263 1737.5V1751.08C597.263 1753.67 597.311 1755.21 597.551 1756.94H591.887C592.079 1755.16 592.175 1753.62 592.175 1751.13V1729.14C592.175 1727.66 592.127 1726.46 591.983 1725.02C592.751 1725.11 595.199 1725.21 596.735 1725.21H602.399C602.015 1723.77 601.391 1722.28 600.575 1720.94H595.535C593.183 1720.94 591.599 1720.98 590.207 1721.18V1716.04C591.935 1716.23 593.615 1716.33 595.871 1716.33H609.071V1715.08C609.071 1714.02 608.975 1713.06 608.831 1712.1H614.687L614.639 1712.58C614.495 1713.5 614.447 1714.22 614.447 1715.08V1716.33H628.319C630.719 1716.33 632.447 1716.23 633.983 1716.04V1721.18C632.591 1720.98 631.055 1720.94 628.655 1720.94H623.423C622.463 1723.24 622.079 1724.01 621.311 1725.21H627.503C629.999 1725.21 630.863 1725.16 632.015 1725.02C631.871 1726.26 631.823 1727.08 631.823 1729.14V1751.27C631.823 1755.35 630.335 1756.6 625.391 1756.6C624.815 1756.6 623.039 1756.55 620.063 1756.46C619.823 1754.34 619.679 1753.67 618.911 1751.66C618.191 1751.66 618.191 1751.66 617.855 1751.66H607.007V1753.77H601.967C602.111 1752.66 602.159 1751.85 602.159 1750.17ZM613.391 1729.77H609.599C608.975 1733.99 607.247 1736.49 603.215 1739.03C604.607 1739.08 604.895 1739.08 605.999 1739.08H617.903C619.727 1739.08 621.311 1739.03 621.887 1738.94C621.791 1740.18 621.743 1741.34 621.743 1742.44V1748.1C621.743 1749.59 621.791 1750.55 621.935 1751.7C623.231 1751.8 624.287 1751.85 625.103 1751.85C626.399 1751.85 626.735 1751.61 626.735 1750.55V1735.34C625.871 1737.11 624.623 1737.5 619.871 1737.5C616.751 1737.5 615.455 1737.3 614.591 1736.78C613.775 1736.3 613.391 1735.58 613.391 1734.42V1729.77ZM607.919 1725.21H615.791C616.607 1723.86 617.279 1722.42 617.759 1720.94H606.143C606.959 1722.47 607.295 1723.24 607.919 1725.21ZM604.607 1729.77H597.263V1736.63C602.111 1735.14 604.175 1733.22 604.607 1729.77ZM626.735 1731.98V1729.77H618.287V1732.55C618.287 1733.37 618.623 1733.51 620.879 1733.51C622.559 1733.51 623.231 1733.37 623.471 1732.94C623.711 1732.6 623.807 1731.83 623.807 1730.78C625.103 1731.35 625.775 1731.64 626.735 1731.98ZM607.055 1743.26V1747.48H617.135V1743.26H607.055Z" fill="black"/>
<path d="M550.415 1733.85L553.295 1729.96C555.551 1731.74 556.895 1732.98 558.527 1734.81C559.967 1731.21 560.687 1728.57 561.599 1723.43H554.591C552.383 1729.05 549.503 1733.66 545.375 1738.26C544.415 1736.15 543.935 1735.48 542.207 1733.66C546.095 1729.67 549.023 1724.63 550.991 1718.73C551.615 1716.81 552.239 1713.93 552.383 1712.44L557.903 1713.4C557.567 1714.36 557.375 1714.94 557.039 1716.18C556.703 1717.29 556.511 1717.96 556.223 1718.87H563.135C564.959 1718.87 565.871 1718.82 567.023 1718.73C566.831 1719.74 566.831 1719.93 566.591 1721.99C567.887 1724.82 568.751 1726.07 571.295 1728.95V1718.3C571.295 1715.85 571.199 1714.55 570.959 1712.78H576.863C576.575 1714.55 576.527 1715.8 576.527 1718.3V1733.9C577.823 1734.86 578.783 1735.48 581.087 1736.82C584.591 1738.89 585.167 1739.13 587.567 1740.04C586.511 1741.53 585.647 1743.21 584.783 1745.27C580.847 1743.21 579.407 1742.3 576.527 1740.18V1750.55C576.527 1753.43 576.623 1754.82 576.863 1756.94H570.959C571.199 1754.87 571.295 1753.24 571.295 1750.55V1735.77C568.415 1732.94 567.167 1731.45 565.535 1728.81C564.191 1735.05 562.031 1740.38 559.055 1744.84C556.127 1749.16 551.999 1753.34 547.055 1756.84C545.903 1754.97 544.751 1753.62 543.263 1752.47C545.759 1750.98 546.623 1750.31 548.927 1748.25C552.431 1745.08 554.255 1742.87 556.223 1739.46C554.447 1737.3 552.815 1735.77 550.415 1733.85Z" fill="black"/>
<path d="M530.016 1733.27H523.728C524.64 1735.91 524.928 1736.73 525.888 1738.5C528.288 1736.82 530.16 1735.14 531.168 1733.66L535.632 1736.82C535.104 1737.21 534.96 1737.35 534.432 1737.83C532.128 1739.85 530.016 1741.43 528.336 1742.44C531.168 1746.09 534.912 1748.82 538.944 1750.22C537.504 1751.99 536.496 1753.53 535.728 1755.35C530.496 1752.66 527.184 1749.74 523.92 1744.94C521.952 1742.06 519.984 1737.64 518.592 1733.27H517.296C516.528 1733.8 516.24 1734.04 515.328 1734.62C517.296 1736.63 518.64 1738.79 519.6 1741.62C520.608 1744.41 520.896 1746.04 520.896 1749.06C520.896 1755.06 518.88 1756.94 512.496 1756.94C511.92 1756.94 511.104 1756.89 510 1756.84C509.568 1754.44 509.28 1753.67 508.176 1751.75C509.904 1751.99 511.2 1752.14 512.256 1752.14C515.328 1752.14 515.856 1751.56 515.856 1748.3C515.856 1748.01 515.856 1747.82 515.76 1747.38C509.952 1751.03 503.664 1753.82 496.8 1755.78C496.032 1754.01 495.312 1752.86 494.016 1751.46C501.744 1749.74 509.136 1746.86 514.848 1743.3C514.56 1742.49 514.464 1742.25 514.176 1741.58C509.04 1744.41 503.232 1746.62 497.04 1748.15C496.08 1746.04 495.744 1745.46 494.688 1744.22C501.168 1742.97 506.928 1741.05 512.352 1738.31C511.92 1737.69 511.776 1737.5 511.248 1736.87C506.88 1738.94 502.08 1740.52 497.04 1741.48C496.224 1739.46 495.744 1738.65 494.736 1737.45C500.208 1736.68 505.584 1735.19 509.808 1733.27H503.616C501.696 1733.27 500.496 1733.32 498.912 1733.42C499.056 1732.41 499.104 1731.3 499.104 1729.19V1725.64C497.856 1726.46 497.376 1726.74 495.84 1727.56C495.216 1725.69 494.64 1724.63 493.488 1723.1C496.752 1721.7 499.776 1719.78 502.464 1717.48C504.864 1715.42 506.496 1713.59 507.696 1711.67L513.6 1712.63L511.776 1714.74H519.552C521.184 1714.74 523.632 1714.65 524.16 1714.55L526.848 1717C526.416 1717.48 526.224 1717.62 525.696 1718.25C524.4 1719.54 523.68 1720.26 522.24 1721.56H529.488C531.936 1721.56 533.232 1721.51 534.528 1721.37C534.384 1722.86 534.336 1723.82 534.336 1725.59V1729.19C534.336 1730.92 534.384 1732.17 534.528 1733.42C533.28 1733.32 532.032 1733.27 530.016 1733.27ZM504.864 1721.56H516.24C517.488 1720.46 518.256 1719.64 519.024 1718.68H508.128C506.928 1719.88 506.256 1720.46 504.864 1721.56ZM504.144 1728.86H513.888V1725.78H504.144V1728.86ZM518.832 1728.86H529.248V1725.78H518.832V1728.86Z" fill="black"/>
<path d="M455.183 1720.07V1717.38C455.183 1715.22 455.135 1714.17 454.895 1712.87H460.463C460.319 1714.17 460.223 1715.46 460.223 1717.38V1720.07H463.631C465.647 1720.07 466.799 1720.02 468.239 1719.78V1724.92C467.087 1724.82 466.463 1724.78 464.495 1724.78C464.159 1729.77 463.055 1734.62 461.231 1739.32C464.255 1743.16 464.639 1743.69 468.047 1748.49L464.255 1752.71C462.239 1749.26 461.519 1748.15 458.735 1744.41C456.047 1749.06 453.599 1752.09 449.183 1756.26C447.887 1754.15 447.119 1753.24 445.535 1751.8C449.951 1748.39 452.783 1744.98 455.375 1740.04C453.167 1737.26 450.527 1734.38 447.215 1731.21L450.719 1727.66C451.679 1728.62 451.679 1728.62 454.511 1731.54C454.895 1731.93 455.711 1732.84 457.535 1734.95C458.495 1731.83 459.167 1728.23 459.407 1724.78H450.527C448.751 1724.78 447.407 1724.82 446.063 1725.02V1719.78C447.503 1719.98 448.943 1720.07 450.815 1720.07H455.183ZM479.951 1727.37H473.855C471.791 1727.37 470.639 1727.42 469.295 1727.61V1722.33C470.591 1722.52 471.743 1722.57 473.855 1722.57H479.951V1718.78C479.951 1715.94 479.855 1714.41 479.615 1713.06H485.375C485.183 1714.55 485.087 1716.18 485.087 1718.78V1722.57H485.663C487.679 1722.57 488.975 1722.47 490.175 1722.28V1727.66C489.791 1727.61 489.791 1727.61 489.071 1727.51C488.591 1727.42 487.007 1727.37 485.711 1727.37H485.087V1750.55C485.087 1753.05 484.943 1753.86 484.223 1754.73C483.311 1755.88 481.583 1756.36 478.415 1756.36C476.447 1756.36 474.671 1756.31 472.751 1756.17C472.415 1753.77 472.079 1752.57 471.263 1750.84C472.991 1751.13 475.871 1751.42 477.071 1751.42C479.663 1751.42 479.951 1751.27 479.951 1750.26V1727.37ZM466.847 1732.7L471.167 1730.34C474.383 1734.71 475.727 1736.92 477.935 1741.43L473.567 1744.31C471.311 1739.03 469.727 1736.25 466.847 1732.7Z" fill="black"/>
<path d="M413.712 1717.34H418.032C420.192 1717.34 421.248 1717.29 422.4 1717.1V1722.28C421.392 1722.09 420.432 1722.04 418.368 1722.04H403.008C401.232 1722.04 400.128 1722.09 399.072 1722.28V1717.1C400.176 1717.29 401.28 1717.34 403.632 1717.34H408.528V1715.99C408.528 1714.65 408.432 1713.59 408.24 1712.63H413.952C413.808 1713.59 413.712 1714.6 413.712 1715.99V1717.34ZM417.264 1730.3H418.704C420.768 1730.3 421.92 1730.25 422.832 1730.06V1735.34C421.776 1735.14 420.528 1735.1 418.944 1735.1H402.864C400.512 1735.1 399.456 1735.14 398.064 1735.34V1730.06C399.36 1730.25 400.464 1730.3 402.912 1730.3H412.368C413.52 1727.61 414.24 1725.4 414.864 1722.47L419.808 1723.72C419.136 1726.02 418.32 1728.09 417.264 1730.3ZM402.192 1723.53L406.704 1722.09C407.808 1724.3 408.48 1726.12 409.2 1728.81L404.448 1730.25C403.776 1727.37 403.248 1725.74 402.192 1723.53ZM405.936 1754.01V1756.79H400.752C400.896 1755.45 400.944 1754.3 400.944 1752.28V1741.86C400.944 1739.9 400.896 1739.03 400.8 1737.93C401.904 1738.02 402.864 1738.07 404.64 1738.07H417.024C418.992 1738.07 419.808 1738.02 420.528 1737.93C420.432 1738.79 420.384 1739.42 420.384 1741.48V1753.14C420.384 1754.82 420.432 1755.69 420.576 1756.74H415.296V1754.01H405.936ZM405.936 1742.68V1749.4H415.344V1742.68H405.936ZM440.16 1713.78L442.512 1717.1C442.176 1717.72 441.984 1718.1 441.552 1719.21C439.92 1723.48 438.384 1726.79 436.368 1730.63C439.008 1733.66 440.064 1735.24 440.976 1737.59C441.84 1739.66 442.32 1742.1 442.32 1744.26C442.32 1747.29 441.072 1749.5 438.912 1750.26C437.712 1750.74 436.368 1750.89 434.016 1750.89C433.2 1750.89 432.768 1750.89 431.616 1750.79C431.52 1748.3 431.28 1747.14 430.512 1745.56C431.76 1745.75 432.72 1745.85 434.112 1745.85C436.512 1745.85 437.28 1745.32 437.28 1743.78C437.28 1741.77 436.752 1739.66 435.744 1737.59C434.64 1735.38 433.584 1733.99 430.752 1731.35C433.536 1726.22 434.976 1722.81 436.032 1718.78H429.36V1751.46C429.36 1754.06 429.456 1755.69 429.696 1757.08H424.032C424.224 1755.54 424.32 1753.67 424.32 1751.61V1717.86C424.32 1716.47 424.272 1715.13 424.128 1713.83C425.424 1713.98 426.48 1714.02 428.064 1714.02H436.368C438.24 1714.02 439.248 1713.98 440.16 1713.78Z" fill="black"/>
<path d="M393.552 1730.78V1737.11C391.344 1736.87 389.136 1736.78 386.256 1736.78H357.84C355.152 1736.78 352.656 1736.92 350.496 1737.11V1730.78C352.56 1731.02 354.72 1731.11 357.84 1731.11H386.256C389.472 1731.11 391.68 1731.02 393.552 1730.78Z" fill="black"/>
<path d="M324 1733.08L341.04 1716.04L342.576 1717.62L325.536 1734.76L342.576 1751.8L341.04 1753.38L324 1736.49L307.008 1753.38L305.424 1751.8L322.464 1734.76L305.424 1717.62L307.008 1716.04L324 1733.08ZM324.048 1717.19C326.064 1717.19 327.696 1718.82 327.696 1720.84C327.696 1722.9 326.064 1724.54 324.048 1724.54C322.032 1724.54 320.352 1722.86 320.352 1720.84C320.352 1718.82 322.032 1717.19 324.048 1717.19ZM310.272 1731.06C312.288 1731.06 313.92 1732.7 313.92 1734.71C313.92 1736.78 312.288 1738.41 310.272 1738.41C308.256 1738.41 306.576 1736.73 306.576 1734.71C306.576 1732.7 308.208 1731.06 310.272 1731.06ZM337.728 1731.11C339.744 1731.11 341.376 1732.74 341.376 1734.76C341.376 1736.78 339.744 1738.41 337.728 1738.41C335.712 1738.41 334.08 1736.78 334.08 1734.76C334.08 1732.74 335.712 1731.11 337.728 1731.11ZM324 1745.03C326.016 1745.03 327.648 1746.66 327.648 1748.73C327.648 1750.74 325.968 1752.42 324 1752.42C322.08 1752.42 320.304 1750.65 320.304 1748.73C320.304 1746.9 322.032 1745.03 323.664 1745.03C323.712 1745.03 323.76 1745.03 323.808 1745.08C323.856 1745.13 323.856 1745.13 323.904 1745.13C323.904 1745.13 323.904 1745.13 324 1745.03Z" fill="black"/>
<path d="M634.025 1378.34H629.609C627.689 1378.34 626.297 1378.39 624.905 1378.58V1376.28C622.169 1377.91 620.249 1378.92 617.081 1380.22C615.929 1377.67 615.593 1377.05 614.297 1375.27C623.225 1372.15 630.425 1366.97 633.881 1361.21H639.833C641.753 1364.04 643.817 1366.1 647.225 1368.6C651.161 1371.58 654.761 1373.4 659.945 1375.08C658.793 1376.86 658.073 1378.39 657.353 1380.36C653.561 1378.78 651.977 1378.01 648.953 1376.14V1378.58C647.561 1378.39 646.265 1378.34 644.249 1378.34H639.353V1383H651.497C653.993 1383 655.481 1382.9 656.729 1382.71V1388.04C655.385 1387.85 653.705 1387.75 651.449 1387.75H639.353V1398.5H652.409C654.857 1398.5 656.489 1398.41 658.073 1398.22V1403.74C656.297 1403.5 654.281 1403.4 652.313 1403.4H621.977C619.769 1403.4 618.041 1403.5 616.025 1403.74V1398.22C617.753 1398.41 619.529 1398.5 621.977 1398.5H634.025V1387.75H622.649C620.585 1387.75 618.905 1387.85 617.465 1388.04V1382.71C618.761 1382.9 620.297 1383 622.697 1383H634.025V1378.34ZM628.457 1373.83H629.465L644.345 1373.88C644.777 1373.88 644.777 1373.88 645.497 1373.83C641.705 1371.14 639.353 1368.94 636.857 1365.77C634.409 1369.03 632.441 1370.95 628.457 1373.83ZM621.449 1390.1L626.201 1388.18C627.833 1391.06 628.745 1392.89 630.041 1396.15L625.241 1398.07C624.233 1395.05 622.985 1392.5 621.449 1390.1ZM647.321 1388.23L652.409 1390.15C651.785 1391.26 651.785 1391.26 650.009 1394.76C649.865 1395.05 649.673 1395.38 648.041 1398.17L643.529 1396.49C645.017 1394.09 646.169 1391.54 647.321 1388.23Z" fill="black"/>
<path d="M605.847 1377.72L595.671 1378.54C596.631 1384.82 598.119 1389.34 600.567 1393.32C602.199 1396.01 604.407 1398.41 605.271 1398.41C606.231 1398.41 606.855 1396.06 607.335 1390.34C609.255 1391.98 610.263 1392.65 611.895 1393.46C610.791 1401.67 609.111 1404.74 605.703 1404.74C603.399 1404.74 600.903 1403.06 598.359 1399.85C594.135 1394.57 591.543 1387.75 590.295 1378.97L585.207 1379.4C583.095 1379.54 581.895 1379.69 580.407 1379.98L580.263 1374.6C581.031 1374.65 581.415 1374.65 581.751 1374.65C582.663 1374.65 584.199 1374.55 585.399 1374.46L589.767 1374.12C589.431 1370.28 589.431 1369.8 589.335 1365C589.335 1364.04 589.191 1362.26 589.095 1361.45L594.903 1361.35C594.711 1362.36 594.663 1363.32 594.663 1364.95C594.663 1367.78 594.759 1369.8 595.143 1373.64L605.415 1372.82C608.247 1372.58 609.303 1372.44 610.647 1372.15L610.791 1377.58C610.023 1377.53 609.687 1377.53 609.399 1377.53C608.631 1377.53 607.431 1377.58 605.847 1377.72ZM573.159 1399.08V1386.07C573.159 1383.62 573.207 1382.38 573.303 1380.55C571.383 1383.38 570.711 1384.2 568.407 1386.55C567.447 1383.72 566.967 1382.66 565.863 1381.03C570.279 1376.62 573.207 1372.34 575.511 1366.78C576.471 1364.42 577.143 1362.17 577.383 1360.49L582.855 1362.36C581.367 1366.39 580.311 1368.89 578.391 1372.58V1399.18C578.391 1401.53 578.487 1403.21 578.727 1404.98H572.823C573.063 1403.35 573.159 1401.77 573.159 1399.08ZM596.967 1364.47L600.711 1361.3C603.399 1363.66 604.023 1364.28 608.055 1368.74L604.071 1372.39C602.967 1370.76 602.727 1370.52 600.567 1368.17C598.311 1365.72 598.311 1365.72 596.967 1364.47Z" fill="black"/>
<path d="M522.858 1370.18L526.842 1365.43C532.554 1368.98 535.53 1371.19 539.226 1374.7L535.098 1379.93C531.258 1375.85 527.322 1372.68 522.858 1370.18ZM524.538 1401.86L522.762 1395.24C526.89 1395 532.602 1393.61 536.97 1391.69C542.97 1389.1 547.434 1385.4 551.226 1379.93C553.338 1376.86 554.682 1374.22 556.122 1370.33C557.994 1372.58 558.762 1373.3 561.21 1375.03C557.13 1383.82 552.57 1389.48 545.994 1393.85C541.098 1397.11 535.146 1399.46 527.706 1401.05C525.786 1401.43 525.642 1401.48 524.538 1401.86Z" fill="black"/>
<path d="M505.671 1362.02L511.191 1365.86C510.375 1366.58 510.135 1366.78 509.415 1367.54C505.815 1371.29 502.215 1374.41 498.087 1377.43V1397.93C498.087 1400.57 498.135 1401.96 498.327 1403.26H491.607C491.847 1401.86 491.895 1400.9 491.895 1398.07V1381.18C486.279 1384.54 483.591 1385.78 474.759 1388.95C473.751 1386.46 473.223 1385.64 471.543 1383.48C481.047 1380.89 489.111 1376.9 496.743 1371C501.015 1367.69 504.279 1364.38 505.671 1362.02Z" fill="black"/>
<path d="M460.695 1364.95L463.863 1367.88C463.383 1369.27 463.239 1369.75 463.047 1371.29C461.511 1382.52 459.255 1388.18 454.263 1393.56C450.519 1397.54 445.719 1400.62 439.383 1403.06C437.991 1400.47 437.415 1399.66 435.447 1397.54C439.527 1396.34 442.071 1395.19 445.191 1393.08C452.055 1388.42 455.655 1381.37 456.615 1370.95L433.767 1371V1378.15C433.815 1381.56 433.815 1381.56 433.959 1382.38L427.527 1382.42C427.671 1381.27 427.719 1380.46 427.719 1378.3V1369.13C427.719 1367.11 427.719 1366.54 427.575 1365.24C428.871 1365.38 430.407 1365.48 431.559 1365.48H454.791C458.007 1365.48 459.015 1365.38 460.695 1364.95Z" fill="black"/>
<path d="M678.516 1296.35H669.336C669.608 1294.52 669.744 1292.54 669.744 1290.3V1276.02C669.744 1275.54 669.744 1274.39 669.744 1272.55C669.064 1273.1 668.588 1273.37 667.704 1273.84C662.604 1276.56 656.824 1278.88 648.528 1281.46C647.236 1278.2 646.624 1277.04 644.516 1274.05C651.248 1272.62 656.552 1270.85 663.42 1267.72C671.308 1264.12 678.652 1259.16 684.5 1253.31C683.956 1253.31 683.956 1253.31 683.072 1253.31C682.664 1253.38 682.664 1253.38 658.184 1253.51C654.24 1253.51 653.492 1253.58 650.976 1253.85V1245.62C652.744 1246.03 655.328 1246.24 658.252 1246.24H669.608V1240.66C669.54 1238.14 669.54 1237.19 669.268 1235.76H678.38C678.108 1237.06 678.04 1238.28 678.04 1240.52V1246.17H689.532C691.572 1246.17 692.864 1245.96 694.156 1245.56L698.1 1250.18C696.944 1251.06 696.876 1251.13 695.108 1253.1C691.3 1257.52 687.764 1260.72 681.236 1265.82C689.464 1268.4 696.876 1271.74 704.968 1276.5L700.48 1283.64C693.544 1279.15 688.24 1276.36 679.74 1272.76C678.856 1272.35 678.72 1272.35 678.04 1272.01C678.108 1272.82 678.176 1274.73 678.176 1275.34V1290.3C678.176 1293.29 678.176 1294.38 678.516 1296.35Z" fill="black"/>
<path d="M621.056 1248.07L627.992 1253.04C627.04 1253.78 627.04 1253.78 625.68 1255.28C622.28 1258.95 617.316 1263.37 613.032 1266.43V1289.55C613.032 1292.68 613.1 1294.38 613.372 1296.08L604.6 1296.01C604.872 1294.04 604.94 1292.75 604.94 1289.55V1271.33C598.82 1274.93 593.924 1277.11 585.696 1279.96C584.268 1276.84 583.656 1275.68 581.48 1272.89C587.872 1271.19 592.02 1269.63 597.596 1266.77C605.212 1262.83 611.196 1258.54 616.908 1252.97C619.152 1250.72 619.968 1249.77 621.056 1248.07Z" fill="black"/>
<path d="M563.936 1247.46L567.676 1251.27C567.132 1252.56 566.996 1253.04 566.656 1255.01C564.956 1267.45 561.488 1275.82 555.3 1282.41C549.52 1288.53 541.836 1293.16 532.044 1296.35C530.548 1293.09 529.528 1291.59 526.604 1288.26C545.032 1284.25 555.844 1272.62 557.408 1255.35H524.224V1264.12C524.224 1267.04 524.292 1268.27 524.428 1269.56H515.316C515.52 1268.06 515.588 1266.7 515.656 1263.85V1253.99C515.588 1250.38 515.588 1249.23 515.384 1247.6C517.56 1247.8 518.92 1247.87 522.728 1247.87H536.056V1242.02C536.056 1239.64 535.92 1238.48 535.716 1237.06H545.168C544.964 1238.21 544.896 1238.82 544.828 1241.95V1247.87H557.068C560.128 1247.87 560.468 1247.87 561.012 1247.8C559.312 1243.72 557.748 1240.93 555.3 1237.6L560.264 1235.76C562.916 1239.3 564.48 1242.02 566.316 1246.51L563.936 1247.46ZM574.816 1242.97L569.852 1245.08C568.22 1241.07 566.248 1237.6 564.004 1234.54L568.832 1232.64C571.62 1236.24 573.184 1238.96 574.816 1242.97Z" fill="black"/>
<path d="M473.362 1258.07C477.85 1258.07 481.454 1261.67 481.454 1266.16C481.454 1270.65 477.85 1274.25 473.362 1274.25C468.874 1274.25 465.27 1270.65 465.27 1266.16C465.27 1261.67 468.874 1258.07 473.362 1258.07Z" fill="black"/>
<path d="M385.096 1246.92V1238.55C387.34 1238.96 388.768 1239.03 393.052 1239.03H416.784C421.068 1239.03 422.496 1238.96 424.74 1238.55V1246.92C422.632 1246.64 421.34 1246.58 416.92 1246.58H392.916C388.496 1246.58 387.204 1246.64 385.096 1246.92ZM428.208 1254.8L432.084 1259.16C431.404 1260.38 430.996 1261.33 430.18 1263.44C426.644 1273.44 421.476 1280.98 414.404 1286.42C409.576 1290.16 405.156 1292.48 396.588 1295.67C395.092 1292.27 394.276 1291.12 391.284 1287.78C399.58 1285.68 404.952 1283.16 410.188 1278.81C415.22 1274.59 418.144 1270.44 421.136 1262.9H388.02C383.464 1262.9 381.764 1262.96 379.316 1263.24V1254.94C381.9 1255.35 383.396 1255.42 388.156 1255.42H420.524C424.74 1255.42 426.1 1255.28 428.208 1254.8Z" fill="black"/>
<path d="M843.88 1165.99V1151.37C843.88 1147.63 843.812 1146.34 843.54 1144.64H851.292C851.088 1146.2 851.02 1147.63 851.02 1151.37V1152.18H865.3C868.768 1152.18 870.944 1152.05 872.508 1151.78V1159.26C870.536 1158.98 868.224 1158.85 865.572 1158.85H851.02V1165.99H863.464C866.32 1165.99 867.816 1165.92 869.448 1165.72C869.244 1167.89 869.176 1169.66 869.176 1172.58V1183.67C869.176 1187.88 869.244 1190.33 869.584 1192.51H861.832V1189.58H836.672V1192.44H828.988C829.26 1190.54 829.396 1187.82 829.396 1184.08V1171.7C829.396 1169.18 829.328 1167.48 829.124 1165.72C830.824 1165.92 832.32 1165.99 835.176 1165.99H843.88ZM836.672 1172.79V1182.85H861.832V1172.79H836.672ZM841.296 1136.14V1133.62C841.296 1131.78 841.16 1130.7 840.956 1129.47H849.116C848.844 1130.56 848.776 1131.72 848.776 1133.69V1136.14H865.64C869.652 1136.14 872.372 1136 874.208 1135.73V1143.28C872.168 1143.07 869.108 1142.94 865.776 1142.94H825.52C825.588 1171.77 823.956 1182.04 817.7 1192.24C815.66 1189.72 814.64 1188.7 811.648 1186.39C814.368 1182.17 815.66 1178.5 816.748 1172.58C817.768 1166.8 818.176 1159.53 818.176 1146.13C818.176 1140.35 818.108 1138.18 817.904 1135.8C820.284 1136 822.868 1136.14 825.928 1136.14H841.296Z" fill="black"/>
<path d="M754.667 1157.15V1183.87C754.667 1187.95 754.803 1190.33 755.075 1192.24H747.051C747.323 1190.06 747.459 1187.68 747.459 1183.8V1139.26C747.459 1135.66 747.391 1133.76 747.187 1131.58C749.159 1131.78 750.723 1131.85 754.123 1131.85H766.159C769.695 1131.85 771.259 1131.78 773.095 1131.58C772.959 1133.48 772.891 1135.25 772.891 1137.9V1151.23C772.891 1154.43 772.959 1155.79 773.095 1157.28C771.463 1157.22 769.219 1157.15 766.839 1157.15H754.667ZM754.667 1137.77V1142.12H766.227V1137.77H754.667ZM754.667 1147.42V1151.71H766.227V1147.42H754.667ZM803.899 1139.2V1183.8C803.899 1190.33 802.063 1191.56 792.271 1191.56C791.047 1191.56 789.483 1191.49 786.695 1191.42C786.287 1188.16 785.811 1186.25 784.859 1184.01C788.259 1184.42 790.979 1184.62 794.039 1184.62C796.147 1184.62 796.623 1184.35 796.623 1182.92V1157.22H783.839C781.391 1157.22 779.011 1157.28 777.583 1157.42C777.719 1155.86 777.787 1154.16 777.787 1151.23V1137.9C777.787 1135.59 777.719 1133.69 777.583 1131.58C779.555 1131.78 780.983 1131.85 784.519 1131.85H797.167C800.635 1131.85 802.199 1131.78 804.239 1131.58C803.967 1133.96 803.899 1135.8 803.899 1139.2ZM784.587 1137.77V1142.12H796.623V1137.77H784.587ZM784.587 1147.42V1151.71H796.623V1147.42H784.587Z" fill="black"/>
<path d="M703.528 1140.9H684.692C681.632 1140.9 679.592 1141.03 677.484 1141.3V1134.37C679.524 1134.64 681.36 1134.78 684.828 1134.78H703.528C703.528 1132.53 703.392 1131.24 703.12 1129.61H711.076C710.804 1131.24 710.668 1132.74 710.668 1134.78H730.66C734.06 1134.78 735.896 1134.71 737.936 1134.37V1141.3C735.828 1141.03 733.788 1140.9 730.796 1140.9H710.668V1144.09H725.832C729.164 1144.09 730.456 1144.02 732.292 1143.82C732.088 1145.86 732.02 1146.95 732.02 1149.26V1162.66C732.02 1164.97 732.088 1166.06 732.292 1168.1C730.252 1167.89 729.028 1167.82 725.492 1167.82V1171.02H730.728C734.128 1171.02 735.964 1170.95 738.004 1170.61V1177.62C735.76 1177.34 733.312 1177.21 730.864 1177.21H725.492V1186.05C725.492 1188.56 724.88 1189.86 723.384 1190.81C721.82 1191.83 719.44 1192.17 714.544 1192.17C713.592 1192.17 712.096 1192.1 709.852 1192.03C709.24 1188.84 708.764 1187.2 707.812 1185.1C710.804 1185.5 713.048 1185.64 715.428 1185.64C717.944 1185.64 718.352 1185.44 718.352 1184.08V1177.21H684.692C682.244 1177.21 679.66 1177.34 677.484 1177.62V1170.61C679.524 1170.88 681.36 1171.02 684.828 1171.02H718.352V1167.82H689.588C686.46 1167.82 685.032 1167.89 683.128 1168.1C683.332 1165.99 683.4 1164.83 683.4 1162.66V1149.26C683.4 1147.08 683.332 1145.86 683.128 1143.82C684.964 1144.02 686.256 1144.09 689.588 1144.09H703.528V1140.9ZM703.528 1149.74H690.472V1153.27H703.528V1149.74ZM710.668 1149.74V1153.27H724.88V1149.74H710.668ZM703.528 1158.44H690.472V1162.18H703.528V1158.44ZM710.668 1158.44V1162.18H724.88V1158.44H710.668ZM704.82 1185.98L699.108 1190.88C695.3 1186.32 693.668 1184.76 689.588 1181.9L695.028 1177.55C699.516 1180.47 702.032 1182.65 704.82 1185.98Z" fill="black"/>
<path d="M613.906 1143.34L619.55 1136.61C627.642 1141.64 631.858 1144.77 637.094 1149.74L631.246 1157.15C625.806 1151.37 620.23 1146.88 613.906 1143.34ZM616.286 1188.22L613.77 1178.84C619.618 1178.5 627.71 1176.53 633.898 1173.81C642.398 1170.14 648.722 1164.9 654.094 1157.15C657.086 1152.8 658.99 1149.06 661.03 1143.55C663.682 1146.74 664.77 1147.76 668.238 1150.21C662.458 1162.66 655.998 1170.68 646.682 1176.87C639.746 1181.49 631.314 1184.82 620.774 1187.07C618.054 1187.61 617.85 1187.68 616.286 1188.22Z" fill="black"/>
<path d="M589.563 1131.78L597.383 1137.22C596.227 1138.24 595.887 1138.52 594.867 1139.6C589.767 1144.91 584.667 1149.33 578.819 1153.61V1182.65C578.819 1186.39 578.887 1188.36 579.159 1190.2H569.639C569.979 1188.22 570.047 1186.86 570.047 1182.85V1158.92C562.091 1163.68 558.283 1165.44 545.771 1169.93C544.343 1166.4 543.595 1165.24 541.215 1162.18C554.679 1158.51 566.103 1152.86 576.915 1144.5C582.967 1139.81 587.591 1135.12 589.563 1131.78Z" fill="black"/>
<path d="M525.843 1135.93L530.331 1140.08C529.651 1142.05 529.447 1142.73 529.175 1144.91C526.999 1160.82 523.803 1168.84 516.731 1176.46C511.427 1182.1 504.627 1186.46 495.651 1189.92C493.679 1186.25 492.863 1185.1 490.075 1182.1C495.855 1180.4 499.459 1178.77 503.879 1175.78C513.603 1169.18 518.703 1159.19 520.063 1144.43L487.695 1144.5V1154.63C487.763 1159.46 487.763 1159.46 487.967 1160.62L478.855 1160.68C479.059 1159.05 479.127 1157.9 479.127 1154.84V1141.85C479.127 1138.99 479.127 1138.18 478.923 1136.34C480.759 1136.54 482.935 1136.68 484.567 1136.68H517.479C522.035 1136.68 523.463 1136.54 525.843 1135.93Z" fill="black"/>
<path d="M467.775 1182.17L461.247 1189.24C455.603 1182.31 447.783 1174.69 440.371 1169.05C432.687 1177.62 424.867 1183.6 414.463 1188.7C412.559 1185.16 411.743 1184.08 408.955 1181.15C414.191 1179.11 417.455 1177.28 422.555 1173.67C432.823 1166.46 440.983 1156.6 445.403 1146L446.151 1144.23C445.063 1144.3 445.063 1144.3 423.643 1144.64C420.379 1144.7 418.543 1144.84 416.231 1145.18L415.959 1136.48C417.863 1136.82 419.155 1136.88 421.943 1136.88C422.215 1136.88 422.759 1136.88 423.575 1136.88L447.511 1136.54C451.319 1136.48 451.863 1136.41 453.563 1135.8L458.051 1140.42C457.167 1141.44 456.623 1142.39 455.875 1144.09C452.747 1151.37 449.415 1157.28 445.267 1162.86C449.551 1165.72 453.223 1168.57 457.847 1172.72C459.547 1174.22 459.547 1174.22 467.775 1182.17Z" fill="black"/>
<path d="M346.687 1143.34L352.331 1136.61C360.423 1141.64 364.639 1144.77 369.875 1149.74L364.027 1157.15C358.587 1151.37 353.011 1146.88 346.687 1143.34ZM349.067 1188.22L346.551 1178.84C352.399 1178.5 360.491 1176.53 366.679 1173.81C375.179 1170.14 381.503 1164.9 386.875 1157.15C389.867 1152.8 391.771 1149.06 393.811 1143.55C396.463 1146.74 397.551 1147.76 401.019 1150.21C395.239 1162.66 388.779 1170.68 379.463 1176.87C372.527 1181.49 364.095 1184.82 353.555 1187.07C350.835 1187.61 350.631 1187.68 349.067 1188.22Z" fill="black"/>
<path d="M284.126 1141.92V1133.55C286.37 1133.96 287.798 1134.03 292.082 1134.03H315.814C320.098 1134.03 321.526 1133.96 323.77 1133.55V1141.92C321.662 1141.64 320.37 1141.58 315.95 1141.58H291.946C287.526 1141.58 286.234 1141.64 284.126 1141.92ZM327.238 1149.8L331.114 1154.16C330.434 1155.38 330.026 1156.33 329.21 1158.44C325.674 1168.44 320.506 1175.98 313.434 1181.42C308.606 1185.16 304.186 1187.48 295.618 1190.67C294.122 1187.27 293.306 1186.12 290.314 1182.78C298.61 1180.68 303.982 1178.16 309.218 1173.81C314.25 1169.59 317.174 1165.44 320.166 1157.9H287.05C282.494 1157.9 280.794 1157.96 278.346 1158.24V1149.94C280.93 1150.35 282.426 1150.42 287.186 1150.42H319.554C323.77 1150.42 325.13 1150.28 327.238 1149.8Z" fill="black"/>
<path d="M258.014 1136.75L262.638 1141.17C262.026 1142.32 261.822 1142.8 261.482 1144.23C258.082 1157.22 254.07 1165.38 247.542 1172.72C240.878 1180.2 233.602 1185.16 222.246 1190.06C220.342 1186.39 219.458 1185.1 216.262 1181.97C222.246 1180.06 226.122 1178.3 231.154 1175.03C241.762 1168.16 248.426 1158.58 251.758 1145.38H219.39C214.834 1145.38 213.27 1145.45 210.822 1145.79V1136.95C213.474 1137.36 214.902 1137.43 219.526 1137.43H250.738C254.546 1137.43 255.906 1137.29 258.014 1136.75Z" fill="black"/>
</svg>
