<svg width="1080" height="1920" viewBox="0 0 1080 1920" fill="none" xmlns="http://www.w3.org/2000/svg">
<path d="M1080 1920L1080 0L0 0L0 1920H1080Z" fill="#A5D4AD"/>
<path d="M1020 983.72V95C1020 75.67 1004.33 60 985 60H95.58C75.93 60 60 75.93 60 95.58V983.71C60 984.03 60.25 984.28 60.57 984.28C80.03 984.59 95.71 1000.46 95.71 1019.99C95.71 1039.52 80.03 1055.39 60.57 1055.7C60.25 1055.7 60 1055.96 60 1056.27V1824.99C60 1844.32 75.67 1859.99 95 1859.99H985C1004.33 1859.99 1020 1844.32 1020 1824.99V1056.27C1020 1055.95 1019.75 1055.7 1019.43 1055.7C999.97 1055.39 984.29 1039.52 984.29 1019.99C984.29 1000.46 999.97 984.59 1019.43 984.28C1019.75 984.28 1020 984.02 1020 983.71V983.72Z" fill="white"/>
<path d="M60.57 1055.71C60.25 1055.71 60 1055.97 60 1056.28V1825C60 1844.33 75.67 1860 95 1860H985C1004.33 1860 1020 1844.33 1020 1825V1056.28C1020 1055.96 1019.75 1055.71 1019.43 1055.71C999.97 1055.4 984.29 1039.53 984.29 1020H95.71C95.71 1039.53 80.03 1055.4 60.57 1055.71Z" fill="#E5F2E6"/>
<path d="M121 1020H160.9" stroke="black" stroke-width="6" stroke-miterlimit="10"/>
<path d="M187.512 1020H227.412" stroke="black" stroke-width="6" stroke-miterlimit="10"/>
<path d="M254.02 1020H293.92" stroke="black" stroke-width="6" stroke-miterlimit="10"/>
<path d="M320.52 1020H360.43" stroke="black" stroke-width="6" stroke-miterlimit="10"/>
<path d="M387.031 1020H426.941" stroke="black" stroke-width="6" stroke-miterlimit="10"/>
<path d="M453.539 1020H493.439" stroke="black" stroke-width="6" stroke-miterlimit="10"/>
<path d="M520.051 1020H559.951" stroke="black" stroke-width="6" stroke-miterlimit="10"/>
<path d="M586.559 1020H626.459" stroke="black" stroke-width="6" stroke-miterlimit="10"/>
<path d="M653.059 1020H692.969" stroke="black" stroke-width="6" stroke-miterlimit="10"/>
<path d="M719.57 1020H759.48" stroke="black" stroke-width="6" stroke-miterlimit="10"/>
<path d="M786.078 1020H825.978" stroke="black" stroke-width="6" stroke-miterlimit="10"/>
<path d="M852.59 1020H892.49" stroke="black" stroke-width="6" stroke-miterlimit="10"/>
<path d="M919.102 1020H959.002" stroke="black" stroke-width="6" stroke-miterlimit="10"/>
<path d="M1020 984.29V95C1020 75.67 1004.33 60 985 60H95C75.67 60 60 75.67 60 95V984.29C79.72 984.29 95.71 1000.28 95.71 1020C95.71 1039.72 79.72 1055.71 60 1055.71V1825C60 1844.33 75.67 1860 95 1860H985C1004.33 1860 1020 1844.33 1020 1825V1055.71C1000.28 1055.71 984.29 1039.72 984.29 1020C984.29 1000.28 1000.28 984.29 1020 984.29Z" stroke="black" stroke-width="6" stroke-miterlimit="10"/>
<path d="M912.642 525.66C908.772 525.66 905.532 522.64 905.312 518.73C900.582 435.62 868.782 358.85 813.362 296.74C810.662 293.71 810.922 289.06 813.952 286.36C816.982 283.66 821.622 283.92 824.332 286.95C881.992 351.57 915.062 431.43 919.992 517.89C920.222 521.94 917.122 525.42 913.072 525.65C912.932 525.65 912.792 525.66 912.652 525.66H912.642Z" fill="black"/>
<path d="M818.842 795.509C817.102 795.509 815.352 794.889 813.952 793.639C810.922 790.939 810.662 786.289 813.362 783.259C868.782 721.149 900.582 644.379 905.312 561.269C905.542 557.219 909.022 554.109 913.072 554.349C917.122 554.579 920.222 558.049 919.992 562.109C915.062 648.579 881.992 728.439 824.332 793.049C822.882 794.679 820.862 795.509 818.842 795.509Z" fill="black"/>
<path d="M167.352 525.66C167.212 525.66 167.072 525.66 166.932 525.65C162.882 525.42 159.782 521.95 160.012 517.89C164.942 431.42 198.012 351.56 255.672 286.95C258.372 283.92 263.022 283.66 266.052 286.36C269.082 289.06 269.342 293.71 266.642 296.74C211.222 358.85 179.422 435.61 174.692 518.73C174.472 522.64 171.232 525.66 167.362 525.66H167.352Z" fill="black"/>
<path d="M261.162 795.509C259.142 795.509 257.122 794.679 255.672 793.049C198.012 728.429 164.942 648.569 160.012 562.109C159.782 558.059 162.882 554.579 166.932 554.349C170.982 554.109 174.462 557.219 174.692 561.269C179.422 644.389 211.222 721.149 266.642 783.259C269.342 786.289 269.082 790.939 266.052 793.639C264.652 794.889 262.902 795.509 261.162 795.509Z" fill="black"/>
<path d="M788.164 268.509C786.424 268.509 784.674 267.889 783.274 266.639C721.164 211.219 644.394 179.419 561.284 174.689C557.234 174.459 554.134 170.989 554.364 166.929C554.594 162.879 558.034 159.789 562.124 160.009C648.594 164.939 728.454 198.009 793.064 255.669C796.094 258.369 796.354 263.019 793.654 266.049C792.204 267.679 790.184 268.509 788.164 268.509Z" fill="black"/>
<path d="M291.844 268.51C289.824 268.51 287.804 267.68 286.354 266.05C283.654 263.02 283.914 258.37 286.944 255.67C351.564 198.01 431.424 164.94 517.884 160.01C521.934 159.78 525.414 162.88 525.644 166.93C525.874 170.98 522.774 174.46 518.724 174.69C435.614 179.42 358.844 211.22 296.734 266.64C295.334 267.89 293.584 268.51 291.844 268.51Z" fill="black"/>
<path d="M561.682 920C557.812 920 554.572 916.98 554.352 913.07C554.122 909.02 557.222 905.54 561.272 905.31C644.392 900.58 721.152 868.78 783.262 813.36C786.292 810.66 790.942 810.92 793.642 813.95C796.342 816.98 796.082 821.63 793.052 824.33C728.432 881.99 648.572 915.06 562.112 919.99C561.972 919.99 561.832 920 561.692 920H561.682Z" fill="black"/>
<path d="M518.312 920C518.172 920 518.032 920 517.892 919.99C431.422 915.06 351.562 881.99 286.952 824.33C283.922 821.63 283.662 816.98 286.362 813.95C289.062 810.92 293.712 810.66 296.742 813.36C358.852 868.78 435.622 900.58 518.732 905.31C522.782 905.54 525.882 909.01 525.652 913.07C525.432 916.98 522.192 920 518.322 920H518.312Z" fill="black"/>
<path d="M875.37 526.191C872.36 526.191 869.84 523.841 869.67 520.801C865.4 445.791 836.7 376.521 786.69 320.461C784.59 318.101 784.79 314.491 787.15 312.391C789.5 310.291 793.12 310.491 795.22 312.851C846.97 370.851 876.67 442.541 881.09 520.151C881.27 523.301 878.86 526.001 875.71 526.181C875.6 526.181 875.49 526.181 875.38 526.181L875.37 526.191Z" fill="black"/>
<path d="M790.95 769.062C789.59 769.062 788.24 768.582 787.15 767.612C784.79 765.512 784.59 761.892 786.69 759.542C836.7 703.492 865.4 634.212 869.67 559.202C869.85 556.052 872.54 553.642 875.7 553.822C878.85 554.002 881.26 556.702 881.08 559.852C876.66 637.472 846.97 709.152 795.21 767.152C794.08 768.422 792.51 769.062 790.94 769.062H790.95Z" fill="black"/>
<path d="M204.622 526.191C204.512 526.191 204.402 526.191 204.292 526.191C201.142 526.011 198.732 523.311 198.912 520.161C203.332 442.541 233.022 370.861 284.782 312.861C286.882 310.501 290.502 310.301 292.852 312.401C295.212 314.501 295.412 318.121 293.312 320.471C243.302 376.521 214.602 445.801 210.332 520.811C210.162 523.851 207.642 526.201 204.632 526.201L204.622 526.191Z" fill="black"/>
<path d="M289.04 769.061C287.47 769.061 285.9 768.411 284.77 767.151C233.02 709.151 203.32 637.461 198.9 559.851C198.72 556.701 201.13 554.001 204.28 553.821C207.44 553.631 210.13 556.051 210.31 559.201C214.58 634.211 243.28 703.491 293.29 759.541C295.39 761.901 295.19 765.511 292.83 767.611C291.74 768.581 290.38 769.061 289.03 769.061H289.04Z" fill="black"/>
<path d="M763.342 294.762C761.982 294.762 760.632 294.282 759.542 293.312C703.492 243.302 634.212 214.602 559.202 210.332C556.052 210.152 553.642 207.452 553.822 204.302C554.002 201.152 556.692 198.742 559.852 198.922C637.472 203.342 709.152 233.032 767.152 284.792C769.512 286.892 769.712 290.512 767.612 292.862C766.482 294.132 764.912 294.772 763.342 294.772V294.762Z" fill="black"/>
<path d="M316.651 294.761C315.081 294.761 313.511 294.111 312.381 292.851C310.281 290.491 310.481 286.881 312.841 284.781C370.841 233.031 442.531 203.331 520.141 198.911C523.291 198.721 525.991 201.141 526.171 204.291C526.351 207.441 523.941 210.141 520.791 210.321C445.781 214.591 376.511 243.291 320.451 293.301C319.361 294.271 318.001 294.751 316.651 294.751V294.761Z" fill="black"/>
<path d="M559.518 881.102C556.508 881.102 553.988 878.752 553.818 875.712C553.638 872.562 556.048 869.862 559.198 869.682C634.208 865.412 703.478 836.712 759.538 786.702C761.888 784.602 765.508 784.802 767.608 787.162C769.708 789.522 769.508 793.132 767.148 795.232C709.148 846.982 637.458 876.682 559.848 881.102C559.738 881.102 559.628 881.102 559.518 881.102Z" fill="black"/>
<path d="M520.479 881.102C520.369 881.102 520.259 881.102 520.149 881.102C442.529 876.682 370.849 846.992 312.849 795.232C310.489 793.132 310.289 789.512 312.389 787.162C314.489 784.802 318.109 784.602 320.459 786.702C376.509 836.722 445.789 865.412 520.799 869.682C523.949 869.862 526.359 872.562 526.179 875.712C526.009 878.752 523.489 881.102 520.479 881.102Z" fill="black"/>
<path d="M841.843 526.51C839.693 526.51 837.893 524.83 837.773 522.66C833.913 454.91 807.993 392.34 762.823 341.71C761.323 340.03 761.473 337.45 763.153 335.94C764.833 334.44 767.413 334.58 768.923 336.27C815.343 388.29 841.973 452.58 845.933 522.19C846.063 524.44 844.343 526.37 842.083 526.5C842.003 526.5 841.923 526.5 841.843 526.5V526.51Z" fill="black"/>
<path d="M765.862 745.101C764.892 745.101 763.922 744.761 763.142 744.061C761.462 742.561 761.312 739.981 762.812 738.291C807.982 687.661 833.902 625.091 837.762 557.341C837.892 555.091 839.852 553.391 842.072 553.491C844.322 553.621 846.042 555.551 845.922 557.801C841.952 627.411 815.322 691.701 768.912 743.721C768.102 744.621 766.982 745.081 765.862 745.081V745.101Z" fill="black"/>
<path d="M238.162 526.51C238.082 526.51 238.002 526.51 237.922 526.51C235.672 526.38 233.952 524.45 234.072 522.2C238.042 452.59 264.672 388.3 311.082 336.28C312.582 334.6 315.162 334.45 316.852 335.95C318.532 337.45 318.682 340.03 317.182 341.72C272.012 392.35 246.092 454.92 242.232 522.67C242.112 524.84 240.312 526.52 238.162 526.52V526.51Z" fill="black"/>
<path d="M314.133 745.101C313.013 745.101 311.893 744.641 311.083 743.741C264.663 691.721 238.033 627.431 234.073 557.821C233.943 555.571 235.663 553.641 237.923 553.511C240.163 553.401 242.103 555.101 242.233 557.361C246.093 625.111 272.013 687.681 317.183 738.311C318.683 739.991 318.533 742.571 316.853 744.081C316.073 744.771 315.103 745.121 314.133 745.121V745.101Z" fill="black"/>
<path d="M741.014 318.219C740.044 318.219 739.074 317.879 738.294 317.179C687.664 272.009 625.094 246.089 557.344 242.229C555.094 242.099 553.374 240.169 553.494 237.919C553.624 235.669 555.544 233.959 557.804 234.069C627.414 238.039 691.704 264.669 743.734 311.079C745.414 312.579 745.564 315.159 744.064 316.849C743.254 317.749 742.134 318.209 741.014 318.209V318.219Z" fill="black"/>
<path d="M338.994 318.22C337.874 318.22 336.754 317.76 335.944 316.86C334.444 315.18 334.594 312.6 336.274 311.09C388.294 264.67 452.584 238.04 522.194 234.08C524.444 233.96 526.374 235.67 526.504 237.93C526.634 240.18 524.914 242.11 522.654 242.24C454.904 246.1 392.334 272.02 341.704 317.19C340.924 317.88 339.954 318.23 338.984 318.23L338.994 318.22Z" fill="black"/>
<path d="M557.565 845.929C555.415 845.929 553.615 844.249 553.495 842.079C553.365 839.829 555.085 837.899 557.345 837.769C625.095 833.909 687.665 807.989 738.295 762.819C739.975 761.319 742.555 761.469 744.065 763.149C745.565 764.829 745.415 767.409 743.735 768.919C691.715 815.339 627.425 841.969 557.805 845.929C557.725 845.929 557.645 845.929 557.565 845.929Z" fill="black"/>
<path d="M522.434 845.929C522.354 845.929 522.274 845.929 522.194 845.929C452.584 841.959 388.294 815.329 336.274 768.919C334.594 767.419 334.444 764.839 335.944 763.149C337.444 761.469 340.024 761.319 341.714 762.819C392.344 807.989 454.914 833.909 522.664 837.769C524.914 837.899 526.634 839.829 526.514 842.079C526.394 844.249 524.594 845.929 522.444 845.929H522.434Z" fill="black"/>
<path d="M320.642 546.17C320.642 544.6 321.782 543.27 323.332 543.02C324.632 542.81 326.262 542.52 327.972 542.12C332.392 541.08 337.582 539.11 343.402 536.27C349.282 533.4 354.912 529.41 359.162 523.67C366.332 513.97 367.852 501.4 368.182 496.89C368.252 495.97 367.522 495.19 366.592 495.19H317.082C315.322 495.19 313.902 493.76 313.902 492.01V470.69C313.902 468.93 315.332 467.51 317.082 467.51H367.062C367.942 467.51 368.652 466.8 368.652 465.92V447.18C368.652 446.3 367.942 445.59 367.062 445.59H328.612C326.852 445.59 325.432 444.16 325.432 442.41V421.09C325.432 419.33 326.862 417.91 328.612 417.91H428.952C430.712 417.91 432.132 419.34 432.132 421.09V442.41C432.132 444.17 430.702 445.59 428.952 445.59H398.512C397.632 445.59 396.922 446.3 396.922 447.18V465.92C396.922 466.8 397.632 467.51 398.512 467.51H438.572C440.332 467.51 441.752 468.94 441.752 470.69V492.01C441.752 493.77 440.322 495.19 438.572 495.19H398.382C397.532 495.19 396.832 495.86 396.792 496.71C396.562 501.75 395.142 518.44 386.172 532.85C380.722 541.61 373.642 548.26 366.532 553.54C359.402 558.84 352.252 562.93 345.262 565.7C338.232 568.49 332.332 570.44 327.742 571.51C326.652 571.76 325.482 571.99 324.392 572.18C322.442 572.53 320.652 571.03 320.652 569.04V546.16L320.642 546.17Z" fill="black"/>
<path d="M474.544 546.52C474.544 545.06 475.544 543.79 476.954 543.43C485.204 541.36 488.924 540.11 496.834 536.32C496.834 536.32 500.884 534.21 504.924 531.3C517.104 522.54 525.214 510.63 525.214 510.63C534.674 497.28 537.764 474.91 538.484 468.49C538.594 467.55 537.854 466.72 536.904 466.72H500.574C500.344 466.72 500.134 466.84 500.024 467.04L499.874 467.29C494.294 478.11 486.874 487.99 480.444 494.24C473.994 500.5 468.584 505.05 464.374 507.75L461.774 509.42C460.714 510.1 459.324 509.34 459.324 508.08V479.89C459.324 478.95 459.744 478.06 460.464 477.45C461.114 476.9 461.984 476.13 463.174 475.06C465.934 472.57 469.044 468.51 472.414 462.98C475.754 457.51 479.344 450.21 483.064 441.29C486.444 433.2 488.974 423.09 490.854 412.06C491.114 410.53 492.444 409.42 493.994 409.42H513.904C515.904 409.42 517.414 411.25 517.034 413.21C516.394 416.52 515.704 420.88 514.844 424.31C513.574 429.39 512.754 432.3 511.234 436.72C510.974 437.47 511.534 438.24 512.324 438.24H591.174C592.934 438.24 594.354 439.67 594.354 441.42V463.51C594.354 465.27 592.924 466.69 591.174 466.69H568.134C567.324 466.69 566.634 467.3 566.554 468.11C565.924 474.01 562.874 497.16 552.384 517.26C538.284 546 508.134 566.39 478.334 572.13C476.374 572.51 474.554 571 474.554 569V546.48L474.544 546.52Z" fill="black"/>
<path d="M675.895 411.029V468.869C675.895 469.749 676.604 470.459 677.484 470.459H764.515C765.395 470.459 766.104 469.749 766.104 468.869V411.029C766.104 410.149 765.395 409.439 764.515 409.439H677.484C676.604 409.439 675.895 410.149 675.895 411.029ZM738.455 452.739H702.294C701.414 452.739 700.705 452.029 700.705 451.149V446.869C700.705 445.989 701.414 445.279 702.294 445.279H738.455C739.335 445.279 740.044 445.989 740.044 446.869V451.149C740.044 452.029 739.335 452.739 738.455 452.739ZM738.455 434.449H702.294C701.414 434.449 700.705 433.739 700.705 432.859V428.749C700.705 427.869 701.414 427.159 702.294 427.159H738.455C739.335 427.159 740.044 427.869 740.044 428.749V432.859C740.044 433.739 739.335 434.449 738.455 434.449Z" fill="black"/>
<path d="M674.224 497.34H728.264C729.144 497.34 729.854 498.05 729.854 498.93V502.84C729.854 503.72 729.144 504.43 728.264 504.43H667.754C665.994 504.43 664.574 505.86 664.574 507.61V522.86C664.574 524.62 666.004 526.04 667.754 526.04H728.264C729.144 526.04 729.854 526.75 729.854 527.63V545.39C729.854 546.11 729.934 547.98 729.214 548.85C728.384 549.87 727.144 549.67 725.844 549.72C722.534 549.72 719.574 549.7 716.944 549.66C716.544 549.66 716.254 549.29 716.334 548.9C716.594 547.63 716.724 546.31 716.694 544.96C716.494 535.68 708.934 528.08 699.654 527.84C689.574 527.58 681.364 535.85 681.704 545.94C682.014 555.29 689.784 562.81 699.144 562.84C704.034 562.85 708.454 560.86 711.634 557.64C711.974 557.3 712.544 557.43 712.694 557.88C714.154 562.21 715.534 566.34 716.784 570.05C717.224 571.35 718.454 572.22 719.824 572.21C725.724 572.17 730.504 571.96 734.174 571.6C738.304 571.18 742.084 570.15 745.514 568.5C749.174 566.84 751.684 564.42 753.044 561.23C754.404 558.04 755.084 553.55 755.084 547.76V527.62C755.084 526.74 755.794 526.03 756.674 526.03H762.904C764.664 526.03 766.084 524.6 766.084 522.85V507.6C766.084 505.84 764.654 504.42 762.904 504.42H756.674C755.794 504.42 755.084 503.71 755.084 502.83V498.92C755.084 498.04 755.794 497.33 756.674 497.33H762.904C764.664 497.33 766.084 495.9 766.084 494.15V479.6C766.084 477.84 764.654 476.42 762.904 476.42H674.204C672.444 476.42 671.024 477.85 671.024 479.6V494.15C671.024 495.91 672.454 497.33 674.204 497.33L674.224 497.34Z" fill="black"/>
<path d="M668.824 409.439H650.254C649.394 409.439 648.574 409.789 647.974 410.399C635.224 423.349 618.284 434.569 612.124 438.479C610.774 439.329 610.274 441.059 610.944 442.499L620.694 463.569C621.624 465.569 624.254 466.049 625.824 464.499C646.114 444.459 664.444 419.799 670.114 411.959C670.874 410.909 670.114 409.439 668.824 409.439Z" fill="black"/>
<path d="M671.914 453.889V435.409C671.914 433.999 670.214 433.289 669.204 434.279C653.634 449.599 620.044 477.059 611.674 483.859C610.544 484.779 610.184 486.349 610.794 487.669L620.694 509.049C621.624 511.049 624.254 511.529 625.824 509.979C627.534 508.289 629.234 506.559 630.914 504.819C631.314 504.409 632.014 504.689 632.014 505.259V569.059C632.014 570.819 633.444 572.239 635.194 572.239H653.814C655.574 572.239 656.994 570.809 656.994 569.059V476.369C656.994 475.299 657.354 474.249 658.024 473.409C664.864 464.729 669.714 458.019 671.334 455.739C671.714 455.199 671.924 454.559 671.924 453.889H671.914Z" fill="black"/>
<path d="M653.261 623.33C640.841 623.33 634.801 628.28 634.801 638.47V655.6C634.801 665.67 640.841 670.56 653.261 670.56C659.131 670.56 663.471 669.48 666.551 667.27C669.991 664.8 671.731 660.87 671.731 655.59V638.46C671.731 628.27 665.691 623.32 653.271 623.32L653.261 623.33ZM646.081 639.3C646.081 633.93 648.831 632.91 653.261 632.91C657.691 632.91 660.441 633.95 660.441 639.3V654.68C660.441 659.95 657.591 660.98 653.261 660.98C648.931 660.98 646.081 659.98 646.081 654.68V639.3Z" fill="black"/>
<path d="M708.262 669.331H721.352L703.622 646.781L720.552 624.8H707.392L694.052 642.281V610.23H682.762V669.331H694.052V659.211L696.942 655.451L708.262 669.331Z" fill="black"/>
<path d="M754.812 624.801V653.291C754.812 659.041 751.872 660.891 746.822 660.891C743.552 660.891 740.272 660.351 740.272 653.881V624.811H728.992V656.771C728.992 665.741 733.702 670.481 742.612 670.481C749.292 670.481 753.872 666.861 755.572 662.801L757.382 669.341H766.102V624.811H754.822L754.812 624.801Z" fill="black"/>
<path d="M630.561 610.23H589.141V620.141V620.151H604.211V669.331H615.681V620.151H630.561V610.23Z" fill="black"/>
<path d="M459.681 669.331H472.771L455.041 646.781L471.971 624.8H458.811L445.471 642.281V610.23H434.191V669.331H445.471V659.211L448.361 655.451L459.681 669.331Z" fill="black"/>
<path d="M355.322 610.23H313.902V620.141V620.151H328.982V669.331H340.442V620.151H355.322V610.23Z" fill="black"/>
<path d="M421.794 658.89L421.194 659.04C417.614 659.96 413.284 660.89 409.404 660.89C404.854 660.89 401.684 658.82 401.684 652.83V640.97C401.684 634.9 404.854 632.82 409.404 632.82C413.354 632.82 417.874 633.7 421.224 634.4L421.804 634.52V625.19L421.494 625.12C417.684 624.23 412.044 623.33 407.524 623.33C402.004 623.33 397.964 624.4 395.164 626.59C391.964 629.09 390.414 633.85 390.414 639.34V654.64C390.414 664.77 396.014 670.56 407.534 670.56C411.404 670.56 417.264 669.49 421.524 668.31L421.814 668.23V658.88L421.794 658.89Z" fill="black"/>
<path d="M553.922 634.699V624.799H543.682V615.189H532.402V624.799H525.172V634.699H532.402V655.419C532.402 667.939 540.292 670.559 546.922 670.559C548.702 670.559 550.502 670.449 552.112 670.219V660.259C551.462 660.329 550.252 660.359 549.532 660.359C546.452 660.359 543.682 659.729 543.682 652.089V634.689H553.922V634.699Z" fill="black"/>
<path d="M489.733 650.741V650.561H515.163V641.481C515.163 635.571 513.543 630.241 510.353 627.341C507.413 624.671 502.773 623.311 497.253 623.311C485.073 623.311 478.453 629.221 478.453 639.591V654.451C478.453 664.701 483.833 670.551 496.313 670.551C500.973 670.551 506.283 669.561 511.963 668.401L512.353 668.321V659.051L511.703 659.201C507.133 660.251 504.613 661.141 500.283 661.141C494.073 661.141 489.733 658.621 489.733 652.201V650.721V650.741ZM489.733 639.721C489.733 634.071 493.793 632.741 497.163 632.741C500.533 632.741 504.063 634.071 504.063 639.721V643.231H489.733V642.711V639.721Z" fill="black"/>
<path d="M378.171 626.881H366.891V669.331H378.171V626.881Z" fill="black"/>
<path d="M372.534 622.22C376.416 622.22 379.564 619.073 379.564 615.19C379.564 611.308 376.416 608.16 372.534 608.16C368.651 608.16 365.504 611.308 365.504 615.19C365.504 619.073 368.651 622.22 372.534 622.22Z" fill="black"/>
<path d="M585.731 643.92H566.141V651.26H585.731V643.92Z" fill="black"/>
<path d="M716.456 1546.83V1571.03C716.456 1579.62 716.698 1583.85 717.424 1588.45H699.395C700.121 1584.34 700.363 1579.26 700.363 1571.27V1507.5C700.363 1500.85 700.121 1497.34 699.395 1491.77C704.356 1492.02 707.381 1492.14 714.762 1492.14H748.642C756.265 1492.14 760.137 1491.89 765.219 1491.29V1507.62C760.863 1507.02 756.386 1506.78 748.642 1506.78H716.456V1532.43H742.35C749.852 1532.43 754.087 1532.19 758.806 1531.58V1547.68C754.329 1547.07 749.731 1546.83 742.35 1546.83H716.456Z" fill="black"/>
<path d="M638.588 1546.83V1571.03C638.588 1579.62 638.83 1583.85 639.556 1588.45H621.527C622.253 1584.34 622.495 1579.26 622.495 1571.27V1507.5C622.495 1500.85 622.253 1497.34 621.527 1491.77C626.488 1492.02 629.513 1492.14 636.894 1492.14H670.774C678.397 1492.14 682.269 1491.89 687.351 1491.29V1507.62C682.995 1507.02 678.518 1506.78 670.774 1506.78H638.588V1532.43H664.482C671.984 1532.43 676.219 1532.19 680.938 1531.58V1547.68C676.461 1547.07 671.863 1546.83 664.482 1546.83H638.588Z" fill="black"/>
<path d="M562.008 1490.2C575.318 1490.2 585.603 1494.07 593.831 1502.3C602.664 1511.13 607.383 1524.32 607.383 1540.05C607.383 1570.66 589.596 1590.51 562.129 1590.51C534.662 1590.51 516.996 1570.79 516.996 1540.05C516.996 1524.44 521.836 1511.01 530.79 1502.3C539.139 1494.07 549.182 1490.2 562.008 1490.2ZM562.371 1576.11C579.674 1576.11 590.443 1562.32 590.443 1540.05C590.443 1527.83 587.055 1518.03 580.884 1511.86C575.923 1507.02 569.51 1504.48 562.25 1504.48C544.826 1504.48 533.815 1518.27 533.815 1540.17C533.815 1552.27 537.324 1562.44 543.616 1568.73C548.577 1573.57 554.99 1576.11 562.371 1576.11Z" fill="black"/>
<path d="M413.956 1586.64L490.065 1489.23L496.358 1494.07L420.128 1591.6L413.956 1586.64ZM483.653 1590.39C476.876 1590.39 471.31 1588.33 467.196 1584.22C462.598 1579.74 460.179 1572.48 460.179 1563.28C460.179 1554.21 462.598 1547.07 467.196 1542.47C471.31 1538.48 476.998 1536.3 483.653 1536.3C490.308 1536.3 495.995 1538.48 499.988 1542.47C504.586 1546.95 507.006 1554.21 507.006 1563.28C507.006 1572.48 504.586 1579.74 499.988 1584.22C495.874 1588.33 490.308 1590.39 483.653 1590.39ZM483.653 1546.59C480.143 1546.59 477.844 1547.68 475.909 1550.46C473.73 1553.48 472.642 1557.6 472.642 1563.04C472.642 1574.17 476.514 1580.22 483.653 1580.22C490.913 1580.22 494.664 1574.17 494.664 1562.44C494.664 1557.6 493.453 1553.24 491.396 1550.34C489.339 1547.68 487.162 1546.59 483.653 1546.59ZM426.661 1544.41C419.885 1544.41 414.319 1542.35 410.205 1538.24C405.607 1533.76 403.188 1526.38 403.188 1517.3C403.188 1500.36 411.899 1490.32 426.661 1490.32C433.316 1490.32 439.003 1492.5 442.996 1496.49C447.594 1500.97 450.015 1508.23 450.015 1517.3C450.015 1526.5 447.594 1533.76 442.996 1538.24C438.882 1542.35 433.316 1544.41 426.661 1544.41ZM426.661 1500.61C419.643 1500.61 415.65 1506.54 415.65 1517.06C415.65 1528.19 419.522 1534.24 426.661 1534.24C433.679 1534.24 437.673 1528.19 437.673 1517.3C437.673 1512.95 436.825 1508.59 435.494 1506.05C433.437 1502.3 430.654 1500.61 426.661 1500.61Z" fill="black"/>
<path d="M319.465 1566.91L336.163 1563.4C337.252 1566.91 338.099 1568.49 339.793 1570.42C343.181 1574.54 348.263 1576.59 354.676 1576.59C366.655 1576.59 374.52 1568.61 374.52 1556.63C374.52 1544.77 367.018 1537.15 355.523 1537.15C349.594 1537.15 344.27 1539.08 340.519 1542.71C338.825 1544.41 337.978 1545.5 336.889 1548.16L321.764 1546.71C322.974 1538.12 323.095 1537.51 323.337 1534.12L326.12 1504.11C326.241 1501.94 326.483 1497.82 326.604 1491.77C330.234 1492.01 333.017 1492.14 339.43 1492.14H369.196C377.545 1492.14 380.57 1492.01 386.015 1491.17V1506.41C380.691 1505.69 375.972 1505.45 369.317 1505.45H340.882L338.946 1526.62C338.825 1527.59 338.583 1529.28 338.22 1531.7C344.149 1526.62 350.562 1524.32 358.911 1524.32C368.712 1524.32 376.577 1527.23 382.506 1533.4C388.435 1539.2 391.097 1546.46 391.097 1556.14C391.097 1577.44 377.182 1590.63 354.676 1590.63C342.697 1590.63 333.743 1587.24 327.088 1580.1C323.821 1576.59 322.127 1573.69 319.465 1566.91Z" fill="black"/>
<path d="M859.509 1328.04V1291.32C859.509 1287.52 859.373 1285.48 858.965 1282.48C861.685 1282.62 863.317 1282.69 867.601 1282.69H879.909C888.409 1282.69 893.917 1284.46 898.269 1288.67C903.233 1293.36 905.817 1300.44 905.817 1309.28C905.817 1318.52 903.097 1325.87 897.793 1330.9C893.441 1334.98 888.001 1336.82 879.977 1336.82H867.601C863.453 1336.82 861.753 1336.88 858.965 1337.02C859.373 1334.23 859.509 1332.12 859.509 1328.04ZM868.553 1328.79H879.365C884.941 1328.79 888.545 1327.5 891.401 1324.44C894.665 1320.97 896.365 1315.74 896.365 1309.34C896.365 1302.88 894.801 1298.06 891.673 1294.79C888.885 1291.87 885.349 1290.71 879.433 1290.71H868.553V1328.79Z" fill="black"/>
<path d="M839.237 1282.69H849.369C848.961 1285.2 848.825 1287.65 848.825 1291.94V1316.08C848.825 1330.15 840.461 1338.04 825.637 1338.04C818.089 1338.04 811.833 1335.73 808.093 1331.65C804.625 1327.91 802.993 1322.81 802.993 1316.01V1292C802.993 1287.79 802.857 1285.14 802.449 1282.69H812.581C812.173 1285 812.037 1287.58 812.037 1292V1316.01C812.037 1325.19 816.797 1330.02 825.977 1330.02C835.089 1330.02 839.781 1325.19 839.781 1315.94V1292C839.781 1287.65 839.645 1285.2 839.237 1282.69Z" fill="black"/>
<path d="M797.034 1336.82H785.882C785.474 1334.57 784.726 1331.65 783.978 1329.68L781.258 1322.26H759.498L756.778 1329.68C755.554 1332.94 755.282 1333.96 754.738 1336.82H743.586C744.606 1334.98 745.966 1331.92 747.19 1328.79L762.15 1289.56C763.442 1286.16 763.986 1284.46 764.326 1282.69H776.158C776.498 1284.32 776.906 1285.41 778.47 1289.56L793.566 1328.79C795.266 1333.14 796.082 1335.05 797.034 1336.82ZM778.81 1314.44L771.534 1294.32C771.262 1293.57 771.058 1292.75 770.31 1290.51C769.222 1293.7 769.222 1293.7 769.018 1294.32L761.946 1314.44H778.81Z" fill="black"/>
<path d="M726.867 1336.82H715.171C714.899 1335.32 714.151 1333.21 712.995 1330.02L698.443 1290.78C696.947 1286.7 695.995 1284.52 695.043 1282.69H706.263C706.603 1284.93 707.283 1287.38 708.099 1289.83L719.387 1323.42C719.727 1324.24 720.543 1326.96 721.019 1328.59C721.631 1326.55 722.175 1324.64 722.583 1323.42L733.871 1289.83C734.959 1286.43 735.367 1285 735.707 1282.69H746.927C745.975 1284.39 745.159 1286.29 743.527 1290.78L728.975 1330.02C727.819 1333.08 727.139 1335.25 726.867 1336.82Z" fill="black"/>
<path d="M679.397 1282.69H689.529C689.121 1285.2 688.985 1287.65 688.985 1291.94V1316.08C688.985 1330.15 680.621 1338.04 665.797 1338.04C658.249 1338.04 651.993 1335.73 648.253 1331.65C644.785 1327.91 643.153 1322.81 643.153 1316.01V1292C643.153 1287.79 643.017 1285.14 642.609 1282.69H652.741C652.333 1285 652.197 1287.58 652.197 1292V1316.01C652.197 1325.19 656.957 1330.02 666.137 1330.02C675.249 1330.02 679.941 1325.19 679.941 1315.94V1292C679.941 1287.65 679.805 1285.2 679.397 1282.69Z" fill="black"/>
<path d="M609.296 1281.6C616.776 1281.6 622.556 1283.78 627.18 1288.4C632.144 1293.36 634.796 1300.78 634.796 1309.62C634.796 1326.82 624.8 1337.97 609.364 1337.97C593.928 1337.97 584 1326.89 584 1309.62C584 1300.84 586.72 1293.3 591.752 1288.4C596.444 1283.78 602.088 1281.6 609.296 1281.6ZM609.5 1329.88C619.224 1329.88 625.276 1322.13 625.276 1309.62C625.276 1302.75 623.372 1297.24 619.904 1293.77C617.116 1291.05 613.512 1289.62 609.432 1289.62C599.64 1289.62 593.452 1297.38 593.452 1309.68C593.452 1316.48 595.424 1322.2 598.96 1325.73C601.748 1328.45 605.352 1329.88 609.5 1329.88Z" fill="black"/>
<path d="M565.857 1282.69H576.193C575.785 1285.48 575.649 1287.24 575.649 1291.46V1321.92C575.649 1326.68 574.357 1330.49 571.977 1333.08C569.053 1336.2 564.497 1337.84 558.785 1337.84C552.665 1337.84 548.245 1336.2 544.981 1332.74C543.417 1331.04 542.601 1329.61 541.105 1326.28L550.081 1323.01C551.101 1326.14 552.053 1327.5 553.753 1328.59C554.977 1329.4 557.017 1329.88 558.853 1329.88C561.301 1329.88 563.545 1329.06 564.769 1327.7C565.857 1326.48 566.401 1324.51 566.401 1321.79V1291.46C566.401 1287.38 566.265 1285.41 565.857 1282.69Z" fill="black"/>
<path d="M486.374 1336.82H476.582C476.99 1333.89 477.126 1331.78 477.126 1327.98V1306.62C477.126 1302.88 476.99 1300.57 476.582 1297.78H485.83V1301.39C485.83 1302.41 485.83 1302.61 485.694 1304.31C489.842 1299.01 493.446 1297.1 499.566 1297.1C504.802 1297.1 508.678 1298.8 511.126 1302.14C512.758 1304.38 513.438 1307.1 513.438 1311.66V1327.98C513.438 1331.72 513.574 1334.3 513.982 1336.82H504.122C504.462 1333.76 504.598 1331.44 504.598 1327.98V1312.88C504.598 1310.02 504.258 1308.19 503.442 1306.9C502.354 1305.13 500.314 1304.11 497.73 1304.11C492.834 1304.11 488.822 1307.51 485.83 1314.24V1327.98C485.83 1331.31 485.966 1333.89 486.374 1336.82Z" fill="black"/>
<path d="M449.73 1338.11C437.286 1338.11 429.398 1330.08 429.398 1317.37C429.398 1304.72 437.286 1296.63 449.662 1296.63C461.97 1296.63 469.79 1304.65 469.79 1317.23C469.79 1329.81 461.834 1338.11 449.73 1338.11ZM449.662 1303.7C442.522 1303.7 438.17 1308.87 438.17 1317.37C438.17 1325.73 442.522 1330.9 449.594 1330.9C456.666 1330.9 461.018 1325.8 461.018 1317.5C461.018 1308.73 456.87 1303.7 449.662 1303.7Z" fill="black"/>
<path d="M389.02 1325.73L398.336 1324.58C399.492 1329.2 402.008 1331.04 407.312 1331.04C412.344 1331.04 415.472 1329.06 415.472 1325.87C415.472 1324.51 414.792 1323.22 413.704 1322.47C412.412 1321.58 412.004 1321.52 406.564 1320.29C401.192 1319.14 399.084 1318.46 396.772 1317.37C392.896 1315.53 390.788 1312.27 390.788 1308.32C390.788 1305.94 391.536 1303.7 392.896 1302C395.684 1298.46 400.308 1296.7 406.496 1296.7C412.072 1296.7 416.492 1298.06 419.28 1300.64C421.048 1302.34 422 1304.04 422.952 1307.37L413.976 1308.53C413.228 1304.79 410.916 1303.16 406.496 1303.16C402.28 1303.16 399.424 1305.06 399.424 1307.92C399.424 1309.21 400.172 1310.36 401.532 1311.11C403.028 1311.86 404.456 1312.27 408.332 1313.15C415.268 1314.65 418.056 1315.6 420.3 1317.3C422.952 1319.2 424.244 1321.99 424.244 1325.73C424.244 1328.52 422.952 1331.51 420.912 1333.42C417.784 1336.34 413.024 1337.84 406.836 1337.84C399.832 1337.84 394.596 1335.73 391.672 1331.78C390.448 1330.15 389.836 1328.79 389.02 1325.73Z" fill="black"/>
<path d="M372.258 1282.69H382.254V1291.32H372.258V1282.69ZM372.258 1297.78H382.186C381.846 1300.3 381.71 1302.54 381.71 1306.69V1327.91C381.71 1331.65 381.846 1333.96 382.186 1336.82H372.258C372.666 1333.76 372.802 1331.38 372.802 1327.98V1306.62C372.802 1302.88 372.666 1300.57 372.258 1297.78Z" fill="black"/>
<path d="M355.001 1336.82V1332.4C352.281 1334.98 350.581 1335.93 347.793 1336.68C345.821 1337.22 343.645 1337.5 341.469 1337.5C333.173 1337.5 328.141 1333.21 328.141 1326.07C328.141 1321.31 331.133 1317.03 335.825 1315.06C340.245 1313.22 345.277 1312.54 355.001 1312.34V1308.87C355.001 1304.92 352.349 1302.88 347.181 1302.88C344.461 1302.88 341.673 1303.63 340.109 1304.86C338.817 1305.81 338.205 1306.76 337.389 1309.21L328.685 1307.64C330.249 1303.7 331.473 1301.93 334.057 1300.1C337.389 1297.65 341.197 1296.63 347.045 1296.63C353.573 1296.63 357.517 1297.78 360.441 1300.64C362.753 1302.82 363.637 1305.4 363.637 1310.02V1328.32C363.637 1331.92 363.773 1333.76 364.181 1336.82H355.001ZM355.001 1321.65V1318.25C342.013 1318.52 336.913 1320.77 336.913 1326.07C336.913 1329.27 339.293 1331.24 343.101 1331.24C346.705 1331.24 350.241 1329.88 352.553 1327.64C354.185 1326 355.001 1324.03 355.001 1321.65Z" fill="black"/>
<path d="M270.084 1336.82H260.496C260.836 1333.89 260.972 1331.65 260.972 1327.98V1306.62C260.972 1302.34 260.836 1300.37 260.496 1297.78H269.608V1301.25C269.608 1301.66 269.608 1302.68 269.54 1303.77C271.512 1299.62 276.544 1296.97 282.188 1296.97C285.86 1296.97 288.852 1297.99 290.96 1300.03C292.184 1301.12 292.728 1302 293.544 1304.11C295.856 1301.05 297.148 1299.82 299.256 1298.74C301.5 1297.51 303.812 1296.97 306.872 1296.97C311.224 1296.97 314.76 1298.33 317.072 1300.84C319.316 1303.29 320.268 1306.35 320.268 1311.18V1327.98C320.268 1331.78 320.404 1334.03 320.812 1336.82H310.884C311.292 1334.03 311.428 1331.99 311.428 1327.98V1312.74C311.428 1306.76 309.32 1304.04 304.764 1304.04C302.52 1304.04 300.82 1304.65 299.188 1306.08C296.808 1308.12 295.72 1310.3 294.904 1314.51V1327.98C294.904 1331.72 295.04 1334.03 295.38 1336.82H285.588C285.996 1333.96 286.132 1331.85 286.132 1327.98V1312.74C286.132 1307.03 283.956 1304.18 279.536 1304.18C276.68 1304.18 274.368 1305.33 272.532 1307.71C271.036 1309.68 270.356 1311.25 269.608 1314.51V1327.98C269.608 1331.65 269.744 1333.69 270.084 1336.82Z" fill="black"/>
<path d="M220.594 1336.82V1332.4C217.874 1334.98 216.174 1335.93 213.386 1336.68C211.414 1337.22 209.238 1337.5 207.062 1337.5C198.766 1337.5 193.734 1333.21 193.734 1326.07C193.734 1321.31 196.726 1317.03 201.418 1315.06C205.838 1313.22 210.87 1312.54 220.594 1312.34V1308.87C220.594 1304.92 217.942 1302.88 212.774 1302.88C210.054 1302.88 207.266 1303.63 205.702 1304.86C204.41 1305.81 203.798 1306.76 202.982 1309.21L194.278 1307.64C195.842 1303.7 197.066 1301.93 199.65 1300.1C202.982 1297.65 206.79 1296.63 212.638 1296.63C219.166 1296.63 223.11 1297.78 226.034 1300.64C228.346 1302.82 229.23 1305.4 229.23 1310.02V1328.32C229.23 1331.92 229.366 1333.76 229.774 1336.82H220.594ZM220.594 1321.65V1318.25C207.606 1318.52 202.506 1320.77 202.506 1326.07C202.506 1329.27 204.886 1331.24 208.694 1331.24C212.298 1331.24 215.834 1329.88 218.146 1327.64C219.778 1326 220.594 1324.03 220.594 1321.65Z" fill="black"/>
<path d="M176.293 1282.69H186.153C185.813 1285.34 185.677 1287.52 185.677 1291.6V1327.98C185.677 1331.58 185.813 1333.82 186.153 1336.82H176.293C176.633 1333.89 176.769 1331.92 176.769 1327.98V1291.53C176.769 1287.45 176.633 1285.27 176.293 1282.69Z" fill="black"/>
</svg>
