<svg width="1080" height="1920" viewBox="0 0 1080 1920" fill="none" xmlns="http://www.w3.org/2000/svg">
<path d="M1080 1920L1080 0L0 0L0 1920H1080Z" fill="#A5D4AD"/>
<path d="M1020 983.72V95C1020 75.67 1004.33 60 985 60H95.58C75.93 60 60 75.93 60 95.58V983.71C60 984.03 60.25 984.28 60.57 984.28C80.03 984.59 95.71 1000.46 95.71 1019.99C95.71 1039.52 80.03 1055.39 60.57 1055.7C60.25 1055.7 60 1055.96 60 1056.27V1824.99C60 1844.32 75.67 1859.99 95 1859.99H985C1004.33 1859.99 1020 1844.32 1020 1824.99V1056.27C1020 1055.95 1019.75 1055.7 1019.43 1055.7C999.97 1055.39 984.29 1039.52 984.29 1019.99C984.29 1000.46 999.97 984.59 1019.43 984.28C1019.75 984.28 1020 984.02 1020 983.71V983.72Z" fill="white"/>
<path d="M60.57 1055.71C60.25 1055.71 60 1055.97 60 1056.28V1825C60 1844.33 75.67 1860 95 1860H985C1004.33 1860 1020 1844.33 1020 1825V1056.28C1020 1055.96 1019.75 1055.71 1019.43 1055.71C999.97 1055.4 984.29 1039.53 984.29 1020H95.71C95.71 1039.53 80.03 1055.4 60.57 1055.71Z" fill="#E5F2E6"/>
<path d="M121 1020H160.9" stroke="black" stroke-width="6" stroke-miterlimit="10"/>
<path d="M187.51 1020H227.41" stroke="black" stroke-width="6" stroke-miterlimit="10"/>
<path d="M254.02 1020H293.92" stroke="black" stroke-width="6" stroke-miterlimit="10"/>
<path d="M320.52 1020H360.43" stroke="black" stroke-width="6" stroke-miterlimit="10"/>
<path d="M387.03 1020H426.94" stroke="black" stroke-width="6" stroke-miterlimit="10"/>
<path d="M453.54 1020H493.44" stroke="black" stroke-width="6" stroke-miterlimit="10"/>
<path d="M520.05 1020H559.95" stroke="black" stroke-width="6" stroke-miterlimit="10"/>
<path d="M586.56 1020H626.46" stroke="black" stroke-width="6" stroke-miterlimit="10"/>
<path d="M653.06 1020H692.97" stroke="black" stroke-width="6" stroke-miterlimit="10"/>
<path d="M719.57 1020H759.48" stroke="black" stroke-width="6" stroke-miterlimit="10"/>
<path d="M786.08 1020H825.98" stroke="black" stroke-width="6" stroke-miterlimit="10"/>
<path d="M852.59 1020H892.49" stroke="black" stroke-width="6" stroke-miterlimit="10"/>
<path d="M919.1 1020H959" stroke="black" stroke-width="6" stroke-miterlimit="10"/>
<path d="M1020 984.29V95C1020 75.67 1004.33 60 985 60H95C75.67 60 60 75.67 60 95V984.29C79.72 984.29 95.71 1000.28 95.71 1020C95.71 1039.72 79.72 1055.71 60 1055.71V1825C60 1844.33 75.67 1860 95 1860H985C1004.33 1860 1020 1844.33 1020 1825V1055.71C1000.28 1055.71 984.29 1039.72 984.29 1020C984.29 1000.28 1000.28 984.29 1020 984.29Z" stroke="black" stroke-width="6" stroke-miterlimit="10"/>
<path d="M912.642 525.66C908.772 525.66 905.532 522.64 905.312 518.73C900.582 435.62 868.782 358.85 813.362 296.74C810.662 293.71 810.922 289.06 813.952 286.36C816.982 283.66 821.622 283.92 824.332 286.95C881.992 351.57 915.062 431.43 919.992 517.89C920.222 521.94 917.122 525.42 913.072 525.65C912.932 525.65 912.792 525.66 912.652 525.66H912.642Z" fill="black"/>
<path d="M818.842 795.509C817.102 795.509 815.352 794.889 813.952 793.639C810.922 790.939 810.662 786.289 813.362 783.259C868.782 721.149 900.582 644.379 905.312 561.269C905.542 557.219 909.022 554.109 913.072 554.349C917.122 554.579 920.222 558.049 919.992 562.109C915.062 648.579 881.992 728.439 824.332 793.049C822.882 794.679 820.862 795.509 818.842 795.509Z" fill="black"/>
<path d="M167.352 525.66C167.212 525.66 167.072 525.66 166.932 525.65C162.882 525.42 159.782 521.95 160.012 517.89C164.942 431.42 198.012 351.56 255.672 286.95C258.372 283.92 263.022 283.66 266.052 286.36C269.082 289.06 269.342 293.71 266.642 296.74C211.222 358.85 179.422 435.61 174.692 518.73C174.472 522.64 171.232 525.66 167.362 525.66H167.352Z" fill="black"/>
<path d="M261.162 795.509C259.142 795.509 257.122 794.679 255.672 793.049C198.012 728.429 164.942 648.569 160.012 562.109C159.782 558.059 162.882 554.579 166.932 554.349C170.982 554.109 174.462 557.219 174.692 561.269C179.422 644.389 211.222 721.149 266.642 783.259C269.342 786.289 269.082 790.939 266.052 793.639C264.652 794.889 262.902 795.509 261.162 795.509Z" fill="black"/>
<path d="M788.162 268.509C786.422 268.509 784.672 267.889 783.272 266.639C721.162 211.219 644.392 179.419 561.282 174.689C557.232 174.459 554.132 170.989 554.362 166.929C554.592 162.879 558.032 159.789 562.122 160.009C648.592 164.939 728.452 198.009 793.062 255.669C796.092 258.369 796.352 263.019 793.652 266.049C792.202 267.679 790.182 268.509 788.162 268.509Z" fill="black"/>
<path d="M291.842 268.51C289.822 268.51 287.802 267.68 286.352 266.05C283.652 263.02 283.912 258.37 286.942 255.67C351.562 198.01 431.422 164.94 517.882 160.01C521.932 159.78 525.412 162.88 525.642 166.93C525.872 170.98 522.772 174.46 518.722 174.69C435.612 179.42 358.842 211.22 296.732 266.64C295.332 267.89 293.582 268.51 291.842 268.51Z" fill="black"/>
<path d="M561.682 920C557.812 920 554.572 916.98 554.352 913.07C554.122 909.02 557.222 905.54 561.272 905.31C644.392 900.58 721.152 868.78 783.262 813.36C786.292 810.66 790.942 810.92 793.642 813.95C796.342 816.98 796.082 821.63 793.052 824.33C728.432 881.99 648.572 915.06 562.112 919.99C561.972 919.99 561.832 920 561.692 920H561.682Z" fill="black"/>
<path d="M518.312 920C518.172 920 518.032 920 517.892 919.99C431.422 915.06 351.562 881.99 286.952 824.33C283.922 821.63 283.662 816.98 286.362 813.95C289.062 810.92 293.712 810.66 296.742 813.36C358.852 868.78 435.622 900.58 518.732 905.31C522.782 905.54 525.882 909.01 525.652 913.07C525.432 916.98 522.192 920 518.322 920H518.312Z" fill="black"/>
<path d="M875.372 526.191C872.362 526.191 869.842 523.841 869.672 520.801C865.402 445.791 836.702 376.521 786.692 320.461C784.592 318.101 784.792 314.491 787.152 312.391C789.502 310.291 793.122 310.491 795.222 312.851C846.972 370.851 876.672 442.541 881.092 520.151C881.272 523.301 878.862 526.001 875.712 526.181C875.602 526.181 875.492 526.181 875.382 526.181L875.372 526.191Z" fill="black"/>
<path d="M790.952 769.062C789.592 769.062 788.242 768.582 787.152 767.612C784.792 765.512 784.592 761.892 786.692 759.542C836.702 703.492 865.402 634.212 869.672 559.202C869.852 556.052 872.542 553.642 875.702 553.822C878.852 554.002 881.262 556.702 881.082 559.852C876.662 637.472 846.972 709.152 795.212 767.152C794.082 768.422 792.512 769.062 790.942 769.062H790.952Z" fill="black"/>
<path d="M204.622 526.191C204.512 526.191 204.402 526.191 204.292 526.191C201.142 526.011 198.732 523.311 198.912 520.161C203.332 442.541 233.022 370.861 284.782 312.861C286.882 310.501 290.502 310.301 292.852 312.401C295.212 314.501 295.412 318.121 293.312 320.471C243.302 376.521 214.602 445.801 210.332 520.811C210.162 523.851 207.642 526.201 204.632 526.201L204.622 526.191Z" fill="black"/>
<path d="M289.042 769.061C287.472 769.061 285.902 768.411 284.772 767.151C233.022 709.151 203.322 637.461 198.902 559.851C198.722 556.701 201.132 554.001 204.282 553.821C207.442 553.631 210.132 556.051 210.312 559.201C214.582 634.211 243.282 703.491 293.292 759.541C295.392 761.901 295.192 765.511 292.832 767.611C291.742 768.581 290.382 769.061 289.032 769.061H289.042Z" fill="black"/>
<path d="M763.342 294.762C761.982 294.762 760.632 294.282 759.542 293.312C703.492 243.302 634.212 214.602 559.202 210.332C556.052 210.152 553.642 207.452 553.822 204.302C554.002 201.152 556.692 198.742 559.852 198.922C637.472 203.342 709.152 233.032 767.152 284.792C769.512 286.892 769.712 290.512 767.612 292.862C766.482 294.132 764.912 294.772 763.342 294.772V294.762Z" fill="black"/>
<path d="M316.652 294.761C315.082 294.761 313.512 294.111 312.382 292.851C310.282 290.491 310.482 286.881 312.842 284.781C370.842 233.031 442.532 203.331 520.142 198.911C523.292 198.721 525.992 201.141 526.172 204.291C526.352 207.441 523.942 210.141 520.792 210.321C445.782 214.591 376.512 243.291 320.452 293.301C319.362 294.271 318.002 294.751 316.652 294.751V294.761Z" fill="black"/>
<path d="M559.522 881.102C556.512 881.102 553.992 878.752 553.822 875.712C553.642 872.562 556.052 869.862 559.202 869.682C634.212 865.412 703.482 836.712 759.542 786.702C761.892 784.602 765.512 784.802 767.612 787.162C769.712 789.522 769.512 793.132 767.152 795.232C709.152 846.982 637.462 876.682 559.852 881.102C559.742 881.102 559.632 881.102 559.522 881.102Z" fill="black"/>
<path d="M520.482 881.102C520.372 881.102 520.262 881.102 520.152 881.102C442.532 876.682 370.852 846.992 312.852 795.232C310.492 793.132 310.292 789.512 312.392 787.162C314.492 784.802 318.112 784.602 320.462 786.702C376.512 836.722 445.792 865.412 520.802 869.682C523.952 869.862 526.362 872.562 526.182 875.712C526.012 878.752 523.492 881.102 520.482 881.102Z" fill="black"/>
<path d="M841.842 526.51C839.692 526.51 837.892 524.83 837.772 522.66C833.912 454.91 807.992 392.34 762.822 341.71C761.322 340.03 761.472 337.45 763.152 335.94C764.832 334.44 767.412 334.58 768.922 336.27C815.342 388.29 841.972 452.58 845.932 522.19C846.062 524.44 844.342 526.37 842.082 526.5C842.002 526.5 841.922 526.5 841.842 526.5V526.51Z" fill="black"/>
<path d="M765.863 745.101C764.893 745.101 763.923 744.761 763.143 744.061C761.463 742.561 761.313 739.981 762.813 738.291C807.983 687.661 833.903 625.091 837.763 557.341C837.893 555.091 839.853 553.391 842.073 553.491C844.323 553.621 846.043 555.551 845.923 557.801C841.953 627.411 815.323 691.701 768.913 743.721C768.103 744.621 766.983 745.081 765.863 745.081V745.101Z" fill="black"/>
<path d="M238.162 526.51C238.082 526.51 238.002 526.51 237.922 526.51C235.672 526.38 233.952 524.45 234.072 522.2C238.042 452.59 264.672 388.3 311.082 336.28C312.582 334.6 315.162 334.45 316.852 335.95C318.532 337.45 318.682 340.03 317.182 341.72C272.012 392.35 246.092 454.92 242.232 522.67C242.112 524.84 240.312 526.52 238.162 526.52V526.51Z" fill="black"/>
<path d="M314.132 745.101C313.012 745.101 311.892 744.641 311.082 743.741C264.662 691.721 238.032 627.431 234.072 557.821C233.942 555.571 235.662 553.641 237.922 553.511C240.162 553.401 242.102 555.101 242.232 557.361C246.092 625.111 272.012 687.681 317.182 738.311C318.682 739.991 318.532 742.571 316.852 744.081C316.072 744.771 315.102 745.121 314.132 745.121V745.101Z" fill="black"/>
<path d="M741.012 318.219C740.042 318.219 739.072 317.879 738.292 317.179C687.662 272.009 625.092 246.089 557.342 242.229C555.092 242.099 553.372 240.169 553.492 237.919C553.622 235.669 555.542 233.959 557.802 234.069C627.412 238.039 691.702 264.669 743.732 311.079C745.412 312.579 745.562 315.159 744.062 316.849C743.252 317.749 742.132 318.209 741.012 318.209V318.219Z" fill="black"/>
<path d="M338.992 318.22C337.872 318.22 336.752 317.76 335.942 316.86C334.442 315.18 334.592 312.6 336.272 311.09C388.292 264.67 452.582 238.04 522.192 234.08C524.442 233.96 526.372 235.67 526.502 237.93C526.632 240.18 524.912 242.11 522.652 242.24C454.902 246.1 392.332 272.02 341.702 317.19C340.922 317.88 339.952 318.23 338.982 318.23L338.992 318.22Z" fill="black"/>
<path d="M557.562 845.929C555.412 845.929 553.612 844.249 553.492 842.079C553.362 839.829 555.082 837.899 557.342 837.769C625.092 833.909 687.662 807.989 738.292 762.819C739.972 761.319 742.552 761.469 744.062 763.149C745.562 764.829 745.412 767.409 743.732 768.919C691.712 815.339 627.422 841.969 557.802 845.929C557.722 845.929 557.642 845.929 557.562 845.929Z" fill="black"/>
<path d="M522.432 845.929C522.352 845.929 522.272 845.929 522.192 845.929C452.582 841.959 388.292 815.329 336.272 768.919C334.592 767.419 334.442 764.839 335.942 763.149C337.442 761.469 340.022 761.319 341.712 762.819C392.342 807.989 454.912 833.909 522.662 837.769C524.912 837.899 526.632 839.829 526.512 842.079C526.392 844.249 524.592 845.929 522.442 845.929H522.432Z" fill="black"/>
<path d="M320.642 546.17C320.642 544.6 321.782 543.27 323.332 543.02C324.632 542.81 326.262 542.52 327.972 542.12C332.392 541.08 337.582 539.11 343.402 536.27C349.282 533.4 354.912 529.41 359.162 523.67C366.332 513.97 367.852 501.4 368.182 496.89C368.252 495.97 367.522 495.19 366.592 495.19H317.082C315.322 495.19 313.902 493.76 313.902 492.01V470.69C313.902 468.93 315.332 467.51 317.082 467.51H367.062C367.942 467.51 368.652 466.8 368.652 465.92V447.18C368.652 446.3 367.942 445.59 367.062 445.59H328.612C326.852 445.59 325.432 444.16 325.432 442.41V421.09C325.432 419.33 326.862 417.91 328.612 417.91H428.952C430.712 417.91 432.132 419.34 432.132 421.09V442.41C432.132 444.17 430.702 445.59 428.952 445.59H398.512C397.632 445.59 396.922 446.3 396.922 447.18V465.92C396.922 466.8 397.632 467.51 398.512 467.51H438.572C440.332 467.51 441.752 468.94 441.752 470.69V492.01C441.752 493.77 440.322 495.19 438.572 495.19H398.382C397.532 495.19 396.832 495.86 396.792 496.71C396.562 501.75 395.142 518.44 386.172 532.85C380.722 541.61 373.642 548.26 366.532 553.54C359.402 558.84 352.252 562.93 345.262 565.7C338.232 568.49 332.332 570.44 327.742 571.51C326.652 571.76 325.482 571.99 324.392 572.18C322.442 572.53 320.652 571.03 320.652 569.04V546.16L320.642 546.17Z" fill="black"/>
<path d="M474.542 546.52C474.542 545.06 475.542 543.79 476.952 543.43C485.202 541.36 488.922 540.11 496.832 536.32C496.832 536.32 500.882 534.21 504.922 531.3C517.102 522.54 525.212 510.63 525.212 510.63C534.672 497.28 537.762 474.91 538.482 468.49C538.592 467.55 537.852 466.72 536.902 466.72H500.572C500.342 466.72 500.132 466.84 500.022 467.04L499.872 467.29C494.292 478.11 486.872 487.99 480.442 494.24C473.992 500.5 468.582 505.05 464.372 507.75L461.772 509.42C460.712 510.1 459.322 509.34 459.322 508.08V479.89C459.322 478.95 459.742 478.06 460.462 477.45C461.112 476.9 461.982 476.13 463.172 475.06C465.932 472.57 469.042 468.51 472.412 462.98C475.752 457.51 479.342 450.21 483.062 441.29C486.442 433.2 488.972 423.09 490.852 412.06C491.112 410.53 492.442 409.42 493.992 409.42H513.902C515.902 409.42 517.412 411.25 517.032 413.21C516.392 416.52 515.702 420.88 514.842 424.31C513.572 429.39 512.752 432.3 511.232 436.72C510.972 437.47 511.532 438.24 512.322 438.24H591.172C592.932 438.24 594.352 439.67 594.352 441.42V463.51C594.352 465.27 592.922 466.69 591.172 466.69H568.132C567.322 466.69 566.632 467.3 566.552 468.11C565.922 474.01 562.872 497.16 552.382 517.26C538.282 546 508.132 566.39 478.332 572.13C476.372 572.51 474.552 571 474.552 569V546.48L474.542 546.52Z" fill="black"/>
<path d="M675.893 411.029V468.869C675.893 469.749 676.603 470.459 677.483 470.459H764.513C765.393 470.459 766.103 469.749 766.103 468.869V411.029C766.103 410.149 765.393 409.439 764.513 409.439H677.483C676.603 409.439 675.893 410.149 675.893 411.029ZM738.453 452.739H702.293C701.413 452.739 700.703 452.029 700.703 451.149V446.869C700.703 445.989 701.413 445.279 702.293 445.279H738.453C739.333 445.279 740.043 445.989 740.043 446.869V451.149C740.043 452.029 739.333 452.739 738.453 452.739ZM738.453 434.449H702.293C701.413 434.449 700.703 433.739 700.703 432.859V428.749C700.703 427.869 701.413 427.159 702.293 427.159H738.453C739.333 427.159 740.043 427.869 740.043 428.749V432.859C740.043 433.739 739.333 434.449 738.453 434.449Z" fill="black"/>
<path d="M674.222 497.34H728.262C729.142 497.34 729.852 498.05 729.852 498.93V502.84C729.852 503.72 729.142 504.43 728.262 504.43H667.752C665.992 504.43 664.572 505.86 664.572 507.61V522.86C664.572 524.62 666.002 526.04 667.752 526.04H728.262C729.142 526.04 729.852 526.75 729.852 527.63V545.39C729.852 546.11 729.932 547.98 729.212 548.85C728.382 549.87 727.142 549.67 725.842 549.72C722.532 549.72 719.572 549.7 716.942 549.66C716.542 549.66 716.252 549.29 716.332 548.9C716.592 547.63 716.722 546.31 716.692 544.96C716.492 535.68 708.932 528.08 699.652 527.84C689.572 527.58 681.362 535.85 681.702 545.94C682.012 555.29 689.782 562.81 699.142 562.84C704.032 562.85 708.452 560.86 711.632 557.64C711.972 557.3 712.542 557.43 712.692 557.88C714.152 562.21 715.532 566.34 716.782 570.05C717.222 571.35 718.452 572.22 719.822 572.21C725.722 572.17 730.502 571.96 734.172 571.6C738.302 571.18 742.082 570.15 745.512 568.5C749.172 566.84 751.682 564.42 753.042 561.23C754.402 558.04 755.082 553.55 755.082 547.76V527.62C755.082 526.74 755.792 526.03 756.672 526.03H762.902C764.662 526.03 766.082 524.6 766.082 522.85V507.6C766.082 505.84 764.652 504.42 762.902 504.42H756.672C755.792 504.42 755.082 503.71 755.082 502.83V498.92C755.082 498.04 755.792 497.33 756.672 497.33H762.902C764.662 497.33 766.082 495.9 766.082 494.15V479.6C766.082 477.84 764.652 476.42 762.902 476.42H674.202C672.442 476.42 671.022 477.85 671.022 479.6V494.15C671.022 495.91 672.452 497.33 674.202 497.33L674.222 497.34Z" fill="black"/>
<path d="M668.822 409.439H650.252C649.392 409.439 648.572 409.789 647.972 410.399C635.222 423.349 618.282 434.569 612.122 438.479C610.772 439.329 610.272 441.059 610.942 442.499L620.692 463.569C621.622 465.569 624.252 466.049 625.822 464.499C646.112 444.459 664.442 419.799 670.112 411.959C670.872 410.909 670.112 409.439 668.822 409.439Z" fill="black"/>
<path d="M671.912 453.889V435.409C671.912 433.999 670.212 433.289 669.202 434.279C653.632 449.599 620.042 477.059 611.672 483.859C610.542 484.779 610.182 486.349 610.792 487.669L620.692 509.049C621.622 511.049 624.252 511.529 625.822 509.979C627.532 508.289 629.232 506.559 630.912 504.819C631.312 504.409 632.012 504.689 632.012 505.259V569.059C632.012 570.819 633.442 572.239 635.192 572.239H653.812C655.572 572.239 656.992 570.809 656.992 569.059V476.369C656.992 475.299 657.352 474.249 658.022 473.409C664.862 464.729 669.712 458.019 671.332 455.739C671.712 455.199 671.922 454.559 671.922 453.889H671.912Z" fill="black"/>
<path d="M653.263 623.33C640.843 623.33 634.803 628.28 634.803 638.47V655.6C634.803 665.67 640.843 670.56 653.263 670.56C659.133 670.56 663.473 669.48 666.553 667.27C669.993 664.8 671.733 660.87 671.733 655.59V638.46C671.733 628.27 665.693 623.32 653.273 623.32L653.263 623.33ZM646.083 639.3C646.083 633.93 648.833 632.91 653.263 632.91C657.693 632.91 660.443 633.95 660.443 639.3V654.68C660.443 659.95 657.593 660.98 653.263 660.98C648.933 660.98 646.083 659.98 646.083 654.68V639.3Z" fill="black"/>
<path d="M708.263 669.331H721.353L703.623 646.781L720.553 624.8H707.393L694.053 642.281V610.23H682.763V669.331H694.053V659.211L696.943 655.451L708.263 669.331Z" fill="black"/>
<path d="M754.812 624.801V653.291C754.812 659.041 751.872 660.891 746.822 660.891C743.552 660.891 740.272 660.351 740.272 653.881V624.811H728.992V656.771C728.992 665.741 733.702 670.481 742.612 670.481C749.292 670.481 753.872 666.861 755.572 662.801L757.382 669.341H766.102V624.811H754.822L754.812 624.801Z" fill="black"/>
<path d="M630.563 610.23H589.143V620.141V620.151H604.213V669.331H615.683V620.151H630.563V610.23Z" fill="black"/>
<path d="M459.682 669.331H472.772L455.042 646.781L471.972 624.8H458.812L445.472 642.281V610.23H434.192V669.331H445.472V659.211L448.362 655.451L459.682 669.331Z" fill="black"/>
<path d="M355.322 610.23H313.902V620.141V620.151H328.982V669.331H340.442V620.151H355.322V610.23Z" fill="black"/>
<path d="M421.792 658.89L421.192 659.04C417.612 659.96 413.282 660.89 409.402 660.89C404.852 660.89 401.682 658.82 401.682 652.83V640.97C401.682 634.9 404.852 632.82 409.402 632.82C413.352 632.82 417.872 633.7 421.222 634.4L421.802 634.52V625.19L421.492 625.12C417.682 624.23 412.042 623.33 407.522 623.33C402.002 623.33 397.962 624.4 395.162 626.59C391.962 629.09 390.412 633.85 390.412 639.34V654.64C390.412 664.77 396.012 670.56 407.532 670.56C411.402 670.56 417.262 669.49 421.522 668.31L421.812 668.23V658.88L421.792 658.89Z" fill="black"/>
<path d="M553.922 634.699V624.799H543.682V615.189H532.402V624.799H525.172V634.699H532.402V655.419C532.402 667.939 540.292 670.559 546.922 670.559C548.702 670.559 550.502 670.449 552.112 670.219V660.259C551.462 660.329 550.252 660.359 549.532 660.359C546.452 660.359 543.682 659.729 543.682 652.089V634.689H553.922V634.699Z" fill="black"/>
<path d="M489.732 650.741V650.561H515.162V641.481C515.162 635.571 513.542 630.241 510.352 627.341C507.412 624.671 502.772 623.311 497.252 623.311C485.072 623.311 478.452 629.221 478.452 639.591V654.451C478.452 664.701 483.832 670.551 496.312 670.551C500.972 670.551 506.282 669.561 511.962 668.401L512.352 668.321V659.051L511.702 659.201C507.132 660.251 504.612 661.141 500.282 661.141C494.072 661.141 489.732 658.621 489.732 652.201V650.721V650.741ZM489.732 639.721C489.732 634.071 493.792 632.741 497.162 632.741C500.532 632.741 504.062 634.071 504.062 639.721V643.231H489.732V642.711V639.721Z" fill="black"/>
<path d="M378.173 626.881H366.893V669.331H378.173V626.881Z" fill="black"/>
<path d="M372.532 622.22C376.415 622.22 379.562 619.073 379.562 615.19C379.562 611.308 376.415 608.16 372.532 608.16C368.649 608.16 365.502 611.308 365.502 615.19C365.502 619.073 368.649 622.22 372.532 622.22Z" fill="black"/>
<path d="M585.733 643.92H566.143V651.26H585.733V643.92Z" fill="black"/>
<path d="M729.434 1618.04L720.026 1628.23C711.892 1618.24 700.622 1607.26 689.94 1599.13C678.866 1611.48 667.596 1620.1 652.602 1627.45C649.858 1622.35 648.682 1620.79 644.664 1616.57C652.21 1613.63 656.914 1610.99 664.264 1605.79C679.062 1595.4 690.822 1581.19 697.192 1565.91L698.27 1563.36C696.702 1563.46 696.702 1563.46 665.832 1563.95C661.128 1564.04 658.482 1564.24 655.15 1564.73L654.758 1552.19C657.502 1552.68 659.364 1552.77 663.382 1552.77C663.774 1552.77 664.558 1552.77 665.734 1552.77L700.23 1552.28C705.718 1552.19 706.502 1552.09 708.952 1551.21L715.42 1557.87C714.146 1559.34 713.362 1560.71 712.284 1563.16C707.776 1573.65 702.974 1582.17 696.996 1590.21C703.17 1594.33 708.462 1598.44 715.126 1604.42C717.576 1606.58 717.576 1606.58 729.434 1618.04Z" fill="black"/>
<path d="M569.302 1558.26V1578.06C584.1 1575.31 605.758 1566.59 612.128 1560.61L619.968 1571.69C619.282 1571.98 616.342 1573.35 611.148 1575.9C597.82 1582.27 584.1 1586.68 569.302 1589.43V1602.36C569.204 1602.85 569.204 1603.34 569.204 1603.64C569.204 1609.32 569.596 1611.57 570.968 1612.95C572.634 1614.71 578.22 1615.49 587.726 1615.49C594.292 1615.49 603.308 1614.91 610.462 1613.93C615.166 1613.34 617.322 1612.85 621.634 1611.57L622.222 1624.61C620.164 1624.61 619.674 1624.71 609.286 1625.69C603.504 1626.27 591.156 1626.86 585.178 1626.86C572.83 1626.86 566.068 1625.59 562.246 1622.65C559.502 1620.59 558.032 1617.45 557.444 1612.65C557.248 1610.99 557.15 1609.32 557.15 1603.64L557.052 1558.16C557.052 1553.17 557.052 1551.6 556.66 1549.15H569.792C569.4 1551.5 569.302 1553.26 569.302 1558.26ZM608.894 1547.68L615.852 1544.54C619.772 1548.95 622.418 1552.97 625.652 1559.44L618.596 1562.67C615.558 1556.4 613.01 1552.48 608.894 1547.68ZM637.51 1553.46L630.552 1556.99C627.906 1551.6 624.868 1546.89 621.144 1542.39L627.906 1539.25C632.218 1544.15 634.864 1547.97 637.51 1553.46Z" fill="black"/>
<path d="M448.958 1594.23V1580.61C453.27 1581.19 455.132 1581.29 464.834 1581.29H517.068C526.77 1581.29 528.632 1581.19 532.944 1580.61V1594.23C529.024 1593.74 527.946 1593.74 516.97 1593.74H464.932C453.956 1593.74 452.878 1593.74 448.958 1594.23Z" fill="black"/>
<path d="M380.162 1564.63H405.642L405.74 1560.22V1557.09C405.74 1550.62 405.642 1548.46 405.25 1546.21H417.892C417.598 1548.46 417.5 1548.95 417.5 1552.77C417.5 1558.75 417.5 1558.75 417.402 1564.63H423.674C430.632 1564.63 432.592 1564.53 436.414 1563.95V1575.9C432.984 1575.51 430.338 1575.41 423.87 1575.41H417.304C417.108 1587.17 417.108 1587.86 416.618 1591.58C415.246 1604.13 411.032 1612.46 402.506 1619.71C397.214 1624.22 392.412 1626.76 383.396 1630C381.534 1625.78 380.26 1623.92 376.046 1619.61C385.356 1616.77 390.06 1614.42 394.764 1610.3C401.428 1604.52 404.27 1598.05 405.152 1586.78C405.348 1584.53 405.348 1582.17 405.544 1575.41H380.162V1590.11C380.162 1594.23 380.26 1595.8 380.554 1598.34H367.814C368.108 1596.19 368.206 1593.54 368.206 1589.92V1575.41H362.228C355.76 1575.41 353.114 1575.51 349.684 1575.9V1563.95C353.506 1564.53 355.466 1564.63 362.424 1564.63H368.206V1554.83C368.206 1550.72 368.108 1548.66 367.716 1546.11H380.554C380.162 1549.34 380.162 1549.54 380.162 1554.54V1564.63Z" fill="black"/>
<path d="M752.362 1429.11L758.634 1435.28C757.654 1436.75 757.262 1437.63 756.184 1441.16C751.676 1456.06 744.718 1469.29 736.094 1478.99C727.078 1489.28 716.298 1496.92 701.206 1503.88C698.462 1498.98 697.188 1497.31 692.876 1493.59C702.676 1489.57 708.164 1486.63 714.338 1482.03C728.352 1471.64 737.564 1458.21 742.954 1440.67L713.456 1441.16C707.478 1450.67 699.834 1459.09 690.524 1466.25C687.584 1462.23 686.114 1460.96 681.018 1457.82C692.19 1450.18 699.246 1442.34 706.4 1429.4C709.438 1423.81 711.006 1419.99 711.398 1416.46L724.824 1419.11C724.236 1419.99 724.236 1419.99 723.158 1422.15C722.864 1422.64 722.864 1422.64 721.884 1424.89C721.59 1425.48 721.59 1425.48 720.61 1427.44C720.022 1428.81 720.022 1428.81 719.042 1430.58C720.316 1430.48 721.884 1430.38 723.746 1430.38L745.208 1430.09C749.03 1430.09 750.108 1429.89 752.362 1429.11Z" fill="black"/>
<path d="M586.84 1435.08L594.974 1425.38C606.636 1432.63 612.712 1437.14 620.258 1444.3L611.83 1454.98C603.99 1446.65 595.954 1440.18 586.84 1435.08ZM590.27 1499.76L586.644 1486.24C595.072 1485.75 606.734 1482.91 615.652 1478.99C627.902 1473.7 637.016 1466.15 644.758 1454.98C649.07 1448.71 651.814 1443.32 654.754 1435.38C658.576 1439.98 660.144 1441.45 665.142 1444.98C656.812 1462.92 647.502 1474.48 634.076 1483.4C624.08 1490.06 611.928 1494.86 596.738 1498.1C592.818 1498.88 592.524 1498.98 590.27 1499.76Z" fill="black"/>
<path d="M496.875 1420.68L510.203 1420.78C509.811 1423.52 509.811 1424.4 509.811 1429.6V1456.64C509.811 1461.54 509.811 1462.82 510.203 1465.27H496.777C497.071 1463.01 497.267 1459.98 497.267 1456.45V1429.5C497.267 1424.5 497.169 1423.23 496.875 1420.68ZM541.073 1420.87H554.695C554.303 1423.32 554.205 1424.4 554.205 1429.99V1443.22C554.107 1458.51 553.421 1466.74 551.657 1472.91C548.815 1482.71 542.543 1490.06 532.351 1495.75C527.157 1498.69 522.257 1500.65 513.241 1503.29C511.477 1498.49 510.497 1496.82 506.381 1491.63C515.985 1489.77 521.669 1487.71 527.549 1483.79C536.761 1477.71 539.995 1471.74 541.073 1458.8C541.465 1454.59 541.563 1450.27 541.563 1442.43V1430.18C541.563 1425.19 541.465 1423.13 541.073 1420.87Z" fill="black"/>
<path d="M416.614 1502.41H403.188C403.579 1499.67 403.775 1497.02 403.775 1491.43V1428.62C403.677 1422.93 403.579 1420.97 403.188 1418.62H416.614C416.32 1421.27 416.221 1423.13 416.221 1428.91V1447.14C427.589 1450.86 445.23 1459.09 460.714 1467.82L453.854 1479.38C446.994 1474.48 433.078 1466.93 419.161 1460.66C416.907 1459.58 416.613 1459.49 415.829 1459C416.124 1461.74 416.221 1463.41 416.221 1465.66V1491.53C416.221 1496.82 416.32 1499.57 416.614 1502.41ZM436.703 1427.15L443.564 1423.72C447.876 1428.32 450.521 1432.05 453.854 1438.12L446.993 1441.75C443.76 1435.77 441.015 1431.85 436.703 1427.15ZM465.516 1431.75L458.754 1435.57C455.814 1430.18 452.58 1425.58 448.758 1421.36L455.324 1417.93C459.734 1422.44 462.478 1426.17 465.516 1431.75Z" fill="black"/>
<path d="M353.02 1499.18H338.222C338.81 1495.35 339.006 1491.53 339.006 1486.44V1432.44H334.302C330.676 1432.44 327.834 1432.63 324.208 1433.03V1420.58C327.246 1421.07 329.402 1421.17 334.008 1421.17H343.024C348.022 1421.17 349.492 1421.07 353.02 1420.68C352.432 1426.46 352.236 1430.97 352.236 1436.85V1486.44C352.236 1491.63 352.432 1495.16 353.02 1499.18Z" fill="black"/>
<path d="M726.818 1354.02V1336.21H719.762C717.65 1336.21 716.306 1336.26 714.914 1336.45V1331.36C716.162 1331.55 717.554 1331.6 719.762 1331.6H738.146C740.402 1331.6 741.794 1331.55 743.09 1331.36V1336.45C741.746 1336.26 740.354 1336.21 738.146 1336.21H731.858V1342.35H740.93C743.138 1342.35 744.338 1342.3 745.634 1342.06V1347.2C744.194 1347.01 743.042 1346.96 740.93 1346.96H731.858V1355.22C734.21 1355.55 736.85 1355.7 739.682 1355.7C742.466 1355.7 745.73 1355.55 750.626 1355.12C749.858 1357.09 749.522 1358.38 749.282 1360.59C745.346 1360.69 742.85 1360.74 739.058 1360.74C727.826 1360.74 721.538 1358.29 717.602 1352.48C716.066 1355.79 714.242 1358.43 711.026 1361.89C709.778 1360.11 709.106 1359.49 706.898 1357.95C710.834 1354.4 713.618 1349.79 715.154 1344.37C715.682 1342.4 716.066 1340.24 716.114 1339.18L721.442 1340.19C721.202 1341.01 721.202 1341.06 720.77 1343.02C720.53 1343.98 720.242 1345.09 719.522 1347.34C721.442 1350.75 723.41 1352.53 726.818 1354.02ZM726.002 1322.58V1320.8C726.002 1319.6 725.906 1318.78 725.714 1317.73H731.618C731.426 1318.74 731.378 1319.5 731.378 1320.75V1322.58H744.338C746.258 1322.58 747.89 1322.53 749.666 1322.38C749.522 1323.49 749.474 1324.54 749.474 1325.94V1329.68C749.474 1331.07 749.522 1332.18 749.666 1333.42H744.482V1327.42H713.474V1333.42H708.146C708.338 1332.27 708.386 1331.31 708.386 1329.63V1325.94C708.386 1324.69 708.29 1323.49 708.194 1322.38C709.922 1322.53 711.554 1322.58 713.474 1322.58H726.002Z" fill="black"/>
<path d="M686.259 1340.86H682.803V1354.64C688.179 1353.44 688.179 1353.44 690.771 1352.58L690.915 1357.42C685.923 1358.91 682.707 1359.68 675.603 1361.26C674.547 1361.5 673.683 1361.74 673.155 1361.94L672.195 1356.51C673.155 1356.51 674.883 1356.22 677.859 1355.7V1324.4C677.859 1322.24 677.811 1321.09 677.667 1319.26C678.627 1319.46 679.779 1319.5 682.275 1319.5H696.003C698.307 1319.5 699.219 1319.46 700.467 1319.26C700.371 1320.42 700.323 1321.52 700.323 1324.59V1335.78C700.323 1338.51 700.371 1339.42 700.515 1341.01C699.603 1340.91 699.603 1340.91 699.171 1340.91L703.059 1344.22C702.819 1344.32 702.099 1344.9 701.715 1345.23C700.227 1346.53 697.299 1348.78 695.235 1350.22C697.587 1353.1 700.323 1355.22 704.067 1357.04C702.819 1358.48 702.051 1359.73 701.043 1361.94C696.387 1359.01 693.459 1356.27 691.011 1352.62C688.707 1349.17 687.459 1346.1 686.259 1340.86ZM696.627 1340.86H690.867C691.491 1343.36 691.875 1344.46 692.739 1346.29C695.619 1344.27 698.115 1342.06 698.979 1340.91C698.355 1340.86 697.299 1340.86 696.627 1340.86ZM682.803 1324.11V1328H695.427V1324.11H682.803ZM682.803 1332.22V1336.5H695.427V1332.22H682.803ZM660.819 1356.37V1323.39C660.819 1321.9 660.771 1321.09 660.675 1318.98C661.539 1319.07 662.451 1319.12 664.179 1319.12H671.235C673.155 1319.12 674.163 1319.02 674.739 1318.88L677.475 1322.24C677.139 1322.86 676.995 1323.25 675.987 1325.89C674.979 1328.53 673.875 1331.02 672.291 1334.1C674.259 1336.78 675.027 1338.18 675.699 1340.24C676.179 1341.73 676.467 1343.5 676.467 1344.99C676.467 1347.82 675.603 1349.65 673.875 1350.46C672.579 1351.14 671.235 1351.33 667.779 1351.33C667.683 1349.02 667.491 1347.92 666.771 1346.29C667.443 1346.38 668.259 1346.48 668.883 1346.48C670.755 1346.48 671.379 1345.95 671.379 1344.37C671.379 1342.74 670.995 1341.06 670.323 1339.42C669.603 1337.84 668.883 1336.74 666.963 1334.53C669.075 1330.45 669.603 1329.2 671.427 1323.73H665.859V1356.37C665.859 1358.38 665.955 1360.16 666.099 1361.89H660.531C660.723 1360.45 660.819 1358.62 660.819 1356.37Z" fill="black"/>
<path d="M627.651 1319.07L634.611 1320.42C634.083 1321.47 634.035 1321.57 633.363 1323.87C629.715 1335.87 626.931 1343.84 623.859 1351.23C631.395 1350.66 639.699 1349.65 643.827 1348.78C643.299 1347.63 642.723 1346.58 641.571 1344.42C639.459 1340.43 638.595 1339.04 637.011 1336.78L642.435 1334.67C646.899 1341.2 651.123 1349.26 654.051 1356.9L648.243 1359.92C647.619 1357.95 647.619 1357.95 645.939 1353.97C645.315 1354.11 645.315 1354.11 644.211 1354.35C639.363 1355.36 631.395 1356.37 617.043 1357.76C614.355 1358 613.635 1358.1 612.675 1358.34L611.811 1351.86C612.483 1351.86 612.483 1351.86 613.059 1351.86C614.019 1351.86 615.171 1351.81 617.187 1351.71C619.731 1345.66 621.651 1340.24 624.147 1332.37C626.403 1325.31 627.315 1321.9 627.651 1319.07Z" fill="black"/>
<path d="M601.867 1319.02L607.387 1322.86C606.571 1323.58 606.331 1323.78 605.611 1324.54C602.011 1328.29 598.411 1331.41 594.283 1334.43V1354.93C594.283 1357.57 594.331 1358.96 594.523 1360.26H587.803C588.043 1358.86 588.091 1357.9 588.091 1355.07V1338.18C582.475 1341.54 579.787 1342.78 570.955 1345.95C569.947 1343.46 569.419 1342.64 567.739 1340.48C577.243 1337.89 585.307 1333.9 592.939 1328C597.211 1324.69 600.475 1321.38 601.867 1319.02Z" fill="black"/>
<path d="M556.123 1323.54L559.339 1326.75C558.715 1327.57 558.619 1327.76 557.851 1329.97C556.315 1334.34 553.675 1339.95 551.707 1343.17C546.811 1351.14 540.043 1356.8 529.819 1361.5C528.283 1358.91 527.659 1358.1 525.835 1356.56C529.915 1354.88 532.315 1353.68 535.195 1351.76C538.603 1349.55 540.619 1347.82 543.067 1345.09C539.707 1342.21 536.827 1340.19 533.227 1338.22L536.875 1333.95C540.907 1336.21 542.923 1337.55 546.523 1340.38C548.779 1336.93 550.411 1333.57 551.899 1329.06L536.971 1329.2C533.995 1334.14 530.587 1338.03 525.739 1342.11C524.155 1340.34 523.435 1339.71 520.939 1338.27C526.219 1334.34 530.059 1329.97 532.987 1324.59C534.379 1322.05 535.339 1319.7 535.771 1317.92L542.011 1319.31C541.483 1320.18 541.483 1320.18 540.571 1322C539.995 1323.3 539.659 1323.87 539.419 1324.3C540.187 1324.21 540.187 1324.21 551.899 1324.11C553.867 1324.06 554.875 1323.97 556.123 1323.54Z" fill="black"/>
<path d="M472.604 1342.93V1336.26C474.716 1336.54 475.628 1336.59 480.38 1336.59H505.964C510.716 1336.59 511.628 1336.54 513.74 1336.26V1342.93C511.82 1342.69 511.292 1342.69 505.916 1342.69H480.428C475.052 1342.69 474.524 1342.69 472.604 1342.93Z" fill="black"/>
<path d="M449.563 1330.69H459.067C462.427 1330.69 463.435 1330.64 465.307 1330.35V1336.4C463.579 1336.21 462.331 1336.16 459.163 1336.16H449.323C448.891 1342.83 448.075 1346 445.867 1349.7C443.227 1354.06 439.867 1357.04 433.627 1360.45C431.995 1357.71 431.275 1356.85 429.259 1355.26C435.019 1352.77 438.667 1349.79 440.827 1345.81C442.267 1343.22 442.795 1341.06 443.179 1336.16H431.275C428.107 1336.16 426.859 1336.21 425.131 1336.4V1330.35C427.003 1330.64 428.059 1330.69 431.371 1330.69H443.467C443.515 1328.67 443.515 1327.81 443.515 1326.94V1324.11C443.515 1322.05 443.467 1320.8 443.275 1319.5H449.899C449.707 1321.04 449.707 1321.09 449.659 1324.11L449.611 1326.99C449.563 1330.16 449.563 1330.16 449.563 1330.69Z" fill="black"/>
<path d="M407.372 1326.99L412.268 1330.5C411.596 1331.02 411.596 1331.02 410.636 1332.08C408.236 1334.67 404.732 1337.79 401.708 1339.95V1356.27C401.708 1358.48 401.756 1359.68 401.948 1360.88L395.756 1360.83C395.948 1359.44 395.996 1358.53 395.996 1356.27V1343.41C391.676 1345.95 388.22 1347.49 382.412 1349.5C381.404 1347.3 380.972 1346.48 379.436 1344.51C383.948 1343.31 386.876 1342.21 390.812 1340.19C396.188 1337.41 400.412 1334.38 404.444 1330.45C406.028 1328.86 406.604 1328.19 407.372 1326.99Z" fill="black"/>
<path d="M361.773 1320.99V1326.85C360.285 1326.66 359.613 1326.61 355.677 1326.61H341.373C337.437 1326.61 336.813 1326.66 335.277 1326.85V1320.99C336.909 1321.28 337.869 1321.33 341.469 1321.33H355.581C359.229 1321.33 360.189 1321.28 361.773 1320.99ZM364.797 1338.61H354.525C353.997 1350.46 349.485 1356.8 338.637 1360.98C337.485 1358.58 336.669 1357.52 334.701 1355.65C344.109 1352.67 347.853 1347.92 348.189 1338.61H336.525C332.781 1338.61 332.061 1338.66 330.429 1338.85V1333.14C332.109 1333.42 333.069 1333.47 336.621 1333.47H364.701C368.253 1333.47 369.213 1333.42 370.893 1333.14V1338.85C369.261 1338.66 368.541 1338.61 364.797 1338.61ZM374.973 1323.3L371.421 1324.69C370.317 1321.95 368.925 1319.5 367.293 1317.25L370.749 1316C372.669 1318.54 373.821 1320.46 374.973 1323.3ZM361.005 1319.12L364.557 1317.87C366.381 1320.37 367.485 1322.29 368.829 1325.46L365.229 1326.8C363.885 1323.58 362.781 1321.62 361.005 1319.12Z" fill="black"/>
<path d="M643.646 1698.78L643.31 1692.5C644.366 1692.54 644.894 1692.54 645.134 1692.54C645.998 1692.54 645.998 1692.54 653.054 1692.06C656.558 1691.87 664.766 1691.44 677.582 1690.82C681.518 1690.62 681.758 1690.62 682.526 1690.43L682.862 1696.53C682.334 1696.48 682.334 1696.48 681.854 1696.48C678.974 1696.48 675.422 1697.44 672.35 1699.07C666.254 1702.24 662.654 1707.04 662.654 1711.89C662.654 1715.63 665.006 1718.51 669.038 1719.71C671.39 1720.43 674.462 1720.96 676.19 1720.96C676.238 1720.96 676.67 1720.96 677.15 1720.91L676.286 1727.44C675.662 1727.3 675.566 1727.3 674.654 1727.15C669.374 1726.48 666.35 1725.62 663.422 1723.98C659.006 1721.49 656.558 1717.41 656.558 1712.42C656.558 1708.34 658.19 1704.3 661.118 1701.14C662.942 1699.17 664.67 1697.87 667.79 1696.29C663.902 1696.86 660.926 1697.15 651.614 1697.82C647.342 1698.16 645.134 1698.45 643.646 1698.78ZM673.022 1703.39L676.382 1701.71C678.494 1703.97 679.79 1705.79 681.422 1708.77L678.062 1710.54C676.478 1707.62 675.134 1705.7 673.022 1703.39ZM687.134 1705.65L683.822 1707.52C682.382 1704.88 680.798 1702.62 678.926 1700.56L682.142 1698.88C684.302 1701.09 685.646 1702.91 687.134 1705.65Z" fill="black"/>
<path d="M634.91 1720.91L631.646 1726.53C629.534 1724.18 626.222 1721.73 622.766 1719.95C621.71 1719.38 621.326 1719.23 620.174 1718.75C620.174 1718.99 620.174 1719.18 620.174 1719.28C620.174 1722.3 619.31 1724.37 617.486 1725.76C615.662 1727.15 613.07 1727.82 609.566 1727.82C602.558 1727.82 598.526 1725.09 598.526 1720.34C598.526 1715.1 603.278 1712.03 611.342 1712.03C612.494 1712.03 613.31 1712.08 614.558 1712.22C614.558 1711.65 614.558 1711.65 614.51 1711.07C614.51 1710.83 614.51 1710.5 614.51 1710.02C614.462 1709.34 614.462 1709.34 614.414 1707.42C612.11 1707.47 610.622 1707.52 609.614 1707.52C606.686 1707.52 604.91 1707.47 600.926 1707.18C600.302 1707.14 599.822 1707.14 599.102 1707.14L599.198 1701.95C601.262 1702.43 605.822 1702.77 610.382 1702.77C611.342 1702.77 612.974 1702.72 614.318 1702.67C614.318 1702.24 614.318 1700.61 614.27 1697.87C612.734 1697.92 611.966 1697.92 611.246 1697.92C608.894 1697.92 602.702 1697.68 599.486 1697.44C598.958 1697.39 598.574 1697.39 598.43 1697.39C598.238 1697.39 597.998 1697.39 597.662 1697.39L597.71 1692.06C600.158 1692.69 605.102 1693.07 610.622 1693.07C611.39 1693.07 613.022 1693.02 614.222 1692.98C614.174 1688.18 614.174 1688.13 613.982 1686.93H620.078C619.838 1688.22 619.79 1688.85 619.742 1692.78C626.27 1692.4 630.446 1691.87 633.566 1690.96L633.806 1696.29C632.75 1696.34 632.75 1696.34 630.014 1696.72C625.79 1697.3 623.918 1697.44 619.694 1697.68C619.742 1698.88 619.742 1699.46 619.79 1702.43C622.19 1702.29 622.19 1702.29 626.606 1701.81C629.63 1701.42 630.398 1701.33 632.558 1700.75L632.702 1706.03C631.886 1706.08 630.686 1706.22 629.582 1706.37C628.862 1706.46 626.702 1706.7 623.102 1707.04C622.43 1707.09 621.71 1707.14 619.838 1707.23C619.982 1711.89 619.982 1711.89 620.03 1713.04C624.254 1714.29 627.998 1716.16 633.182 1719.81C633.998 1720.34 634.238 1720.53 634.91 1720.91ZM614.654 1717.22C613.07 1716.88 612.11 1716.78 610.67 1716.78C606.782 1716.78 604.43 1718.03 604.43 1720.1C604.43 1721.87 606.494 1722.98 609.902 1722.98C611.918 1722.98 613.406 1722.4 614.078 1721.44C614.462 1720.82 614.654 1719.81 614.654 1718.37C614.654 1718.18 614.654 1717.22 614.654 1717.22Z" fill="black"/>
<path d="M553.502 1711.12V1723.98C553.502 1727.01 553.55 1728.45 553.742 1729.55H547.838C548.03 1728.02 548.126 1726.29 548.126 1723.79V1692.4C548.126 1690.38 548.078 1689.18 547.934 1687.79C549.47 1687.94 550.718 1687.98 553.262 1687.98H582.446C585.086 1687.98 586.526 1687.94 587.678 1687.79C587.534 1689.18 587.486 1690.43 587.486 1693.02V1723.79C587.486 1726.24 586.91 1727.58 585.518 1728.3C584.606 1728.78 583.07 1728.98 580.478 1728.98C578.606 1728.98 575.966 1728.88 574.094 1728.78C573.806 1726.91 573.47 1725.57 572.606 1723.6C575.774 1723.94 578.174 1724.13 579.902 1724.13C581.774 1724.13 582.062 1723.98 582.062 1722.83V1711.12H553.502ZM564.878 1706.08V1693.07H553.502V1706.08H564.878ZM570.062 1706.08H582.062V1693.07H570.062V1706.08Z" fill="black"/>
<path d="M526.626 1727.34C522.546 1727.34 519.09 1726 516.546 1723.46C515.106 1722.02 514.002 1720.34 513.378 1718.61C512.13 1715.2 511.506 1711.46 511.506 1707.57C511.506 1702.48 512.658 1697.2 514.434 1694.27C517.026 1689.95 521.346 1687.6 526.674 1687.6C530.754 1687.6 534.258 1688.94 536.802 1691.49C538.242 1692.93 539.346 1694.61 539.97 1696.34C541.218 1699.7 541.842 1703.54 541.842 1707.47C541.842 1713.38 540.546 1718.56 538.29 1721.68C535.602 1725.42 531.618 1727.34 526.626 1727.34ZM526.674 1721.78C528.786 1721.78 530.658 1721.06 531.858 1719.76C534.018 1717.5 535.218 1713.04 535.218 1707.42C535.218 1701.86 534.018 1697.49 531.858 1695.14C530.706 1693.84 528.786 1693.12 526.626 1693.12C524.322 1693.12 522.642 1693.89 521.25 1695.57C519.138 1698.06 518.082 1702 518.082 1707.23C518.082 1712.27 518.994 1716.45 520.53 1718.66C522.018 1720.77 524.034 1721.78 526.674 1721.78Z" fill="black"/>
<path d="M492.454 1727.34C488.374 1727.34 484.918 1726 482.374 1723.46C480.934 1722.02 479.83 1720.34 479.206 1718.61C477.958 1715.2 477.334 1711.46 477.334 1707.57C477.334 1702.48 478.486 1697.2 480.262 1694.27C482.854 1689.95 487.174 1687.6 492.502 1687.6C496.582 1687.6 500.086 1688.94 502.63 1691.49C504.07 1692.93 505.174 1694.61 505.798 1696.34C507.046 1699.7 507.67 1703.54 507.67 1707.47C507.67 1713.38 506.374 1718.56 504.118 1721.68C501.43 1725.42 497.446 1727.34 492.454 1727.34ZM492.502 1721.78C494.614 1721.78 496.486 1721.06 497.686 1719.76C499.846 1717.5 501.046 1713.04 501.046 1707.42C501.046 1701.86 499.846 1697.49 497.686 1695.14C496.534 1693.84 494.614 1693.12 492.454 1693.12C490.15 1693.12 488.47 1693.89 487.078 1695.57C484.966 1698.06 483.91 1702 483.91 1707.23C483.91 1712.27 484.822 1716.45 486.358 1718.66C487.846 1720.77 489.862 1721.78 492.502 1721.78Z" fill="black"/>
<path d="M451.946 1706.56C449.93 1706.03 448.682 1705.31 447.29 1703.92C445.802 1702.38 444.938 1700.03 444.938 1697.58C444.938 1691.44 450.122 1687.55 458.33 1687.55C464.138 1687.55 468.41 1689.42 470.474 1692.78C471.29 1694.13 471.77 1695.86 471.77 1697.58C471.77 1702.05 469.226 1705.31 464.858 1706.56C467.018 1706.85 468.458 1707.47 470.042 1708.82C472.298 1710.64 473.402 1713.14 473.402 1716.3C473.402 1723.46 468.026 1727.39 458.186 1727.39C452.618 1727.39 448.778 1726.19 446.042 1723.55C444.266 1721.82 443.258 1719.23 443.258 1716.35C443.258 1712.99 444.554 1710.35 447.194 1708.48C448.778 1707.38 449.978 1706.9 451.946 1706.56ZM458.33 1692.74C454.106 1692.74 451.37 1694.9 451.37 1698.26C451.37 1701.76 454.058 1703.97 458.426 1703.97C462.698 1703.97 465.29 1701.81 465.29 1698.3C465.29 1694.9 462.602 1692.74 458.33 1692.74ZM458.234 1722.11C463.61 1722.11 466.634 1719.86 466.634 1715.82C466.634 1711.84 463.514 1709.44 458.33 1709.44C453.146 1709.44 449.978 1711.89 449.978 1715.87C449.978 1719.81 453.05 1722.11 458.234 1722.11Z" fill="black"/>
<path d="M417.242 1706.08L434.282 1689.04L435.818 1690.62L418.778 1707.76L435.818 1724.8L434.282 1726.38L417.242 1709.49L400.25 1726.38L398.666 1724.8L415.706 1707.76L398.666 1690.62L400.25 1689.04L417.242 1706.08ZM417.29 1690.19C419.306 1690.19 420.938 1691.82 420.938 1693.84C420.938 1695.9 419.306 1697.54 417.29 1697.54C415.274 1697.54 413.594 1695.86 413.594 1693.84C413.594 1691.82 415.274 1690.19 417.29 1690.19ZM403.514 1704.06C405.53 1704.06 407.162 1705.7 407.162 1707.71C407.162 1709.78 405.53 1711.41 403.514 1711.41C401.498 1711.41 399.818 1709.73 399.818 1707.71C399.818 1705.7 401.45 1704.06 403.514 1704.06ZM430.97 1704.11C432.986 1704.11 434.618 1705.74 434.618 1707.76C434.618 1709.78 432.986 1711.41 430.97 1711.41C428.954 1711.41 427.322 1709.78 427.322 1707.76C427.322 1705.74 428.954 1704.11 430.97 1704.11ZM417.242 1718.03C419.258 1718.03 420.89 1719.66 420.89 1721.73C420.89 1723.74 419.21 1725.42 417.242 1725.42C415.322 1725.42 413.546 1723.65 413.546 1721.73C413.546 1719.9 415.274 1718.03 416.906 1718.03C416.954 1718.03 417.002 1718.03 417.05 1718.08C417.098 1718.13 417.098 1718.13 417.146 1718.13C417.146 1718.13 417.146 1718.13 417.242 1718.03Z" fill="black"/>
<path d="M695.896 1213.82V1209.4C693.176 1211.98 691.476 1212.93 688.688 1213.68C686.716 1214.22 684.54 1214.5 682.364 1214.5C674.068 1214.5 669.036 1210.21 669.036 1203.07C669.036 1198.31 672.028 1194.03 676.72 1192.06C681.14 1190.22 686.172 1189.54 695.896 1189.34V1185.87C695.896 1181.92 693.244 1179.88 688.076 1179.88C685.356 1179.88 682.568 1180.63 681.004 1181.86C679.712 1182.81 679.1 1183.76 678.284 1186.21L669.58 1184.64C671.144 1180.7 672.368 1178.93 674.952 1177.1C678.284 1174.65 682.092 1173.63 687.94 1173.63C694.468 1173.63 698.412 1174.78 701.336 1177.64C703.648 1179.82 704.532 1182.4 704.532 1187.02V1205.32C704.532 1208.92 704.668 1210.76 705.076 1213.82H695.896ZM695.896 1198.65V1195.25C682.908 1195.52 677.808 1197.77 677.808 1203.07C677.808 1206.27 680.188 1208.24 683.996 1208.24C687.6 1208.24 691.136 1206.88 693.448 1204.64C695.08 1203 695.896 1201.03 695.896 1198.65Z" fill="black"/>
<path d="M652.51 1213.82V1210.48C652.51 1209.67 652.51 1208.92 652.578 1208.04C649.042 1213 645.438 1214.77 638.842 1214.77C634.082 1214.77 630.478 1213.68 627.486 1211.3C622.93 1207.76 620.414 1201.58 620.414 1194.23C620.414 1181.79 627.554 1173.9 638.774 1173.9C642.99 1173.9 646.458 1174.92 649.11 1177.03C650.334 1177.98 651.082 1178.8 652.578 1180.77C652.578 1179.95 652.578 1179.95 652.51 1178.59C652.442 1178.12 652.442 1176.82 652.442 1175.67V1168.87C652.442 1164.79 652.306 1162.54 651.966 1159.69H661.554C661.214 1162.95 661.078 1165.33 661.078 1168.8V1204.64C661.078 1208.65 661.214 1210.82 661.554 1213.82H652.51ZM629.254 1194.3C629.254 1202.39 633.606 1207.49 640.406 1207.49C644.01 1207.49 647.478 1205.79 649.518 1203C651.218 1200.76 652.17 1197.43 652.17 1193.89C652.17 1190.56 650.878 1187.02 648.906 1184.85C646.798 1182.54 643.33 1181.04 640.066 1181.04C633.47 1181.04 629.254 1186.21 629.254 1194.3Z" fill="black"/>
<path d="M604.72 1213.82V1209.4C602 1211.98 600.3 1212.93 597.512 1213.68C595.54 1214.22 593.364 1214.5 591.188 1214.5C582.892 1214.5 577.86 1210.21 577.86 1203.07C577.86 1198.31 580.852 1194.03 585.544 1192.06C589.964 1190.22 594.996 1189.54 604.72 1189.34V1185.87C604.72 1181.92 602.068 1179.88 596.9 1179.88C594.18 1179.88 591.392 1180.63 589.828 1181.86C588.536 1182.81 587.924 1183.76 587.108 1186.21L578.404 1184.64C579.968 1180.7 581.192 1178.93 583.776 1177.1C587.108 1174.65 590.916 1173.63 596.764 1173.63C603.292 1173.63 607.236 1174.78 610.16 1177.64C612.472 1179.82 613.356 1182.4 613.356 1187.02V1205.32C613.356 1208.92 613.492 1210.76 613.9 1213.82H604.72ZM604.72 1198.65V1195.25C591.732 1195.52 586.632 1197.77 586.632 1203.07C586.632 1206.27 589.012 1208.24 592.82 1208.24C596.424 1208.24 599.96 1206.88 602.272 1204.64C603.904 1203 604.72 1201.03 604.72 1198.65Z" fill="black"/>
<path d="M539.779 1174.78V1178.12C539.779 1178.86 539.779 1179.61 539.711 1180.5C543.451 1175.74 547.463 1173.83 553.583 1173.83C559.023 1173.83 563.375 1175.46 566.503 1178.59C570.107 1182.26 571.875 1187.36 571.875 1194.23C571.875 1206.74 565.007 1214.29 553.447 1214.29C547.463 1214.29 542.975 1212.18 539.711 1207.76C539.711 1208.58 539.711 1208.58 539.779 1209.94C539.847 1210.42 539.847 1211.64 539.847 1212.86V1218.03C539.847 1222.04 539.983 1224.22 540.323 1227.08H530.735C531.075 1223.88 531.211 1221.57 531.211 1218.1V1183.9C531.211 1179.95 531.075 1177.71 530.735 1174.78H539.779ZM563.035 1194.1C563.035 1186.07 558.819 1181.11 551.951 1181.11C545.219 1181.11 540.119 1186.68 540.119 1193.96C540.119 1201.71 545.151 1207.15 552.223 1207.15C558.887 1207.15 563.035 1202.12 563.035 1194.1Z" fill="black"/>
<path d="M471.659 1213.82H462.071C462.411 1210.89 462.547 1208.65 462.547 1204.98V1183.62C462.547 1179.34 462.411 1177.37 462.071 1174.78H471.183V1178.25C471.183 1178.66 471.183 1179.68 471.115 1180.77C473.087 1176.62 478.119 1173.97 483.763 1173.97C487.435 1173.97 490.427 1174.99 492.535 1177.03C493.759 1178.12 494.303 1179 495.119 1181.11C497.431 1178.05 498.723 1176.82 500.831 1175.74C503.075 1174.51 505.387 1173.97 508.447 1173.97C512.799 1173.97 516.335 1175.33 518.647 1177.84C520.891 1180.29 521.843 1183.35 521.843 1188.18V1204.98C521.843 1208.78 521.979 1211.03 522.387 1213.82H512.459C512.867 1211.03 513.003 1208.99 513.003 1204.98V1189.74C513.003 1183.76 510.895 1181.04 506.339 1181.04C504.095 1181.04 502.395 1181.65 500.763 1183.08C498.383 1185.12 497.295 1187.3 496.479 1191.51V1204.98C496.479 1208.72 496.615 1211.03 496.955 1213.82H487.163C487.571 1210.96 487.707 1208.85 487.707 1204.98V1189.74C487.707 1184.03 485.531 1181.18 481.111 1181.18C478.255 1181.18 475.943 1182.33 474.107 1184.71C472.611 1186.68 471.931 1188.25 471.183 1191.51V1204.98C471.183 1208.65 471.319 1210.69 471.659 1213.82Z" fill="black"/>
<path d="M444.814 1213.82V1209.4C442.094 1211.98 440.394 1212.93 437.606 1213.68C435.634 1214.22 433.458 1214.5 431.282 1214.5C422.986 1214.5 417.954 1210.21 417.954 1203.07C417.954 1198.31 420.946 1194.03 425.638 1192.06C430.058 1190.22 435.09 1189.54 444.814 1189.34V1185.87C444.814 1181.92 442.162 1179.88 436.994 1179.88C434.274 1179.88 431.486 1180.63 429.922 1181.86C428.63 1182.81 428.018 1183.76 427.202 1186.21L418.498 1184.64C420.062 1180.7 421.286 1178.93 423.87 1177.1C427.202 1174.65 431.01 1173.63 436.858 1173.63C443.386 1173.63 447.33 1174.78 450.254 1177.64C452.566 1179.82 453.45 1182.4 453.45 1187.02V1205.32C453.45 1208.92 453.586 1210.76 453.994 1213.82H444.814ZM444.814 1198.65V1195.25C431.826 1195.52 426.726 1197.77 426.726 1203.07C426.726 1206.27 429.106 1208.24 432.914 1208.24C436.518 1208.24 440.054 1206.88 442.366 1204.64C443.998 1203 444.814 1201.03 444.814 1198.65Z" fill="black"/>
<path d="M414.311 1205.11V1214.29C411.863 1213.95 409.483 1213.82 404.655 1213.82H384.527C380.719 1213.82 378.339 1213.88 375.891 1214.02C376.299 1211.5 376.435 1208.99 376.435 1205.04V1169.75C376.435 1165.06 376.299 1162.61 375.891 1159.69H386.159C385.751 1162.48 385.615 1164.72 385.615 1169.68V1205.59H404.655C409.279 1205.59 411.455 1205.45 414.311 1205.11Z" fill="black"/>
</svg>
