<svg width="1080" height="1920" viewBox="0 0 1080 1920" fill="none" xmlns="http://www.w3.org/2000/svg">
<path d="M1080 1920L1080 0L0 0L0 1920H1080Z" fill="#A5D4AD"/>
<path d="M1020 983.72V95C1020 75.67 1004.33 60 985 60H95.58C75.93 60 60 75.93 60 95.58V983.71C60 984.03 60.25 984.28 60.57 984.28C80.03 984.59 95.71 1000.46 95.71 1019.99C95.71 1039.52 80.03 1055.39 60.57 1055.7C60.25 1055.7 60 1055.96 60 1056.27V1824.99C60 1844.32 75.67 1859.99 95 1859.99H985C1004.33 1859.99 1020 1844.32 1020 1824.99V1056.27C1020 1055.95 1019.75 1055.7 1019.43 1055.7C999.97 1055.39 984.29 1039.52 984.29 1019.99C984.29 1000.46 999.97 984.59 1019.43 984.28C1019.75 984.28 1020 984.02 1020 983.71V983.72Z" fill="white"/>
<path d="M60.57 1055.71C60.25 1055.71 60 1055.97 60 1056.28V1825C60 1844.33 75.67 1860 95 1860H985C1004.33 1860 1020 1844.33 1020 1825V1056.28C1020 1055.96 1019.75 1055.71 1019.43 1055.71C999.97 1055.4 984.29 1039.53 984.29 1020H95.71C95.71 1039.53 80.03 1055.4 60.57 1055.71Z" fill="#E5F2E6"/>
<path d="M121 1020H160.9" stroke="black" stroke-width="6" stroke-miterlimit="10"/>
<path d="M187.51 1020H227.41" stroke="black" stroke-width="6" stroke-miterlimit="10"/>
<path d="M254.02 1020H293.92" stroke="black" stroke-width="6" stroke-miterlimit="10"/>
<path d="M320.52 1020H360.43" stroke="black" stroke-width="6" stroke-miterlimit="10"/>
<path d="M387.03 1020H426.94" stroke="black" stroke-width="6" stroke-miterlimit="10"/>
<path d="M453.54 1020H493.44" stroke="black" stroke-width="6" stroke-miterlimit="10"/>
<path d="M520.05 1020H559.95" stroke="black" stroke-width="6" stroke-miterlimit="10"/>
<path d="M586.56 1020H626.46" stroke="black" stroke-width="6" stroke-miterlimit="10"/>
<path d="M653.06 1020H692.97" stroke="black" stroke-width="6" stroke-miterlimit="10"/>
<path d="M719.57 1020H759.48" stroke="black" stroke-width="6" stroke-miterlimit="10"/>
<path d="M786.08 1020H825.98" stroke="black" stroke-width="6" stroke-miterlimit="10"/>
<path d="M852.59 1020H892.49" stroke="black" stroke-width="6" stroke-miterlimit="10"/>
<path d="M919.1 1020H959" stroke="black" stroke-width="6" stroke-miterlimit="10"/>
<path d="M1020 984.29V95C1020 75.67 1004.33 60 985 60H95C75.67 60 60 75.67 60 95V984.29C79.72 984.29 95.71 1000.28 95.71 1020C95.71 1039.72 79.72 1055.71 60 1055.71V1825C60 1844.33 75.67 1860 95 1860H985C1004.33 1860 1020 1844.33 1020 1825V1055.71C1000.28 1055.71 984.29 1039.72 984.29 1020C984.29 1000.28 1000.28 984.29 1020 984.29Z" stroke="black" stroke-width="6" stroke-miterlimit="10"/>
<path d="M912.642 525.66C908.772 525.66 905.532 522.64 905.312 518.73C900.582 435.62 868.782 358.85 813.362 296.74C810.662 293.71 810.922 289.06 813.952 286.36C816.982 283.66 821.622 283.92 824.332 286.95C881.992 351.57 915.062 431.43 919.992 517.89C920.222 521.94 917.122 525.42 913.072 525.65C912.932 525.65 912.792 525.66 912.652 525.66H912.642Z" fill="black"/>
<path d="M818.842 795.509C817.102 795.509 815.352 794.889 813.952 793.639C810.922 790.939 810.662 786.289 813.362 783.259C868.782 721.149 900.582 644.379 905.312 561.269C905.542 557.219 909.022 554.109 913.072 554.349C917.122 554.579 920.222 558.049 919.992 562.109C915.062 648.579 881.992 728.439 824.332 793.049C822.882 794.679 820.862 795.509 818.842 795.509Z" fill="black"/>
<path d="M167.352 525.66C167.212 525.66 167.072 525.66 166.932 525.65C162.882 525.42 159.782 521.95 160.012 517.89C164.942 431.42 198.012 351.56 255.672 286.95C258.372 283.92 263.022 283.66 266.052 286.36C269.082 289.06 269.342 293.71 266.642 296.74C211.222 358.85 179.422 435.61 174.692 518.73C174.472 522.64 171.232 525.66 167.362 525.66H167.352Z" fill="black"/>
<path d="M261.162 795.509C259.142 795.509 257.122 794.679 255.672 793.049C198.012 728.429 164.942 648.569 160.012 562.109C159.782 558.059 162.882 554.579 166.932 554.349C170.982 554.109 174.462 557.219 174.692 561.269C179.422 644.389 211.222 721.149 266.642 783.259C269.342 786.289 269.082 790.939 266.052 793.639C264.652 794.889 262.902 795.509 261.162 795.509Z" fill="black"/>
<path d="M788.162 268.509C786.422 268.509 784.672 267.889 783.272 266.639C721.162 211.219 644.392 179.419 561.282 174.689C557.232 174.459 554.132 170.989 554.362 166.929C554.592 162.879 558.032 159.789 562.122 160.009C648.592 164.939 728.452 198.009 793.062 255.669C796.092 258.369 796.352 263.019 793.652 266.049C792.202 267.679 790.182 268.509 788.162 268.509Z" fill="black"/>
<path d="M291.842 268.51C289.822 268.51 287.802 267.68 286.352 266.05C283.652 263.02 283.912 258.37 286.942 255.67C351.562 198.01 431.422 164.94 517.882 160.01C521.932 159.78 525.412 162.88 525.642 166.93C525.872 170.98 522.772 174.46 518.722 174.69C435.612 179.42 358.842 211.22 296.732 266.64C295.332 267.89 293.582 268.51 291.842 268.51Z" fill="black"/>
<path d="M561.682 920C557.812 920 554.572 916.98 554.352 913.07C554.122 909.02 557.222 905.54 561.272 905.31C644.392 900.58 721.152 868.78 783.262 813.36C786.292 810.66 790.942 810.92 793.642 813.95C796.342 816.98 796.082 821.63 793.052 824.33C728.432 881.99 648.572 915.06 562.112 919.99C561.972 919.99 561.832 920 561.692 920H561.682Z" fill="black"/>
<path d="M518.312 920C518.172 920 518.032 920 517.892 919.99C431.422 915.06 351.562 881.99 286.952 824.33C283.922 821.63 283.662 816.98 286.362 813.95C289.062 810.92 293.712 810.66 296.742 813.36C358.852 868.78 435.622 900.58 518.732 905.31C522.782 905.54 525.882 909.01 525.652 913.07C525.432 916.98 522.192 920 518.322 920H518.312Z" fill="black"/>
<path d="M875.372 526.191C872.362 526.191 869.842 523.841 869.672 520.801C865.402 445.791 836.702 376.521 786.692 320.461C784.592 318.101 784.792 314.491 787.152 312.391C789.502 310.291 793.122 310.491 795.222 312.851C846.972 370.851 876.672 442.541 881.092 520.151C881.272 523.301 878.862 526.001 875.712 526.181C875.602 526.181 875.492 526.181 875.382 526.181L875.372 526.191Z" fill="black"/>
<path d="M790.952 769.062C789.592 769.062 788.242 768.582 787.152 767.612C784.792 765.512 784.592 761.892 786.692 759.542C836.702 703.492 865.402 634.212 869.672 559.202C869.852 556.052 872.542 553.642 875.702 553.822C878.852 554.002 881.262 556.702 881.082 559.852C876.662 637.472 846.972 709.152 795.212 767.152C794.082 768.422 792.512 769.062 790.942 769.062H790.952Z" fill="black"/>
<path d="M204.622 526.191C204.512 526.191 204.402 526.191 204.292 526.191C201.142 526.011 198.732 523.311 198.912 520.161C203.332 442.541 233.022 370.861 284.782 312.861C286.882 310.501 290.502 310.301 292.852 312.401C295.212 314.501 295.412 318.121 293.312 320.471C243.302 376.521 214.602 445.801 210.332 520.811C210.162 523.851 207.642 526.201 204.632 526.201L204.622 526.191Z" fill="black"/>
<path d="M289.042 769.061C287.472 769.061 285.902 768.411 284.772 767.151C233.022 709.151 203.322 637.461 198.902 559.851C198.722 556.701 201.132 554.001 204.282 553.821C207.442 553.631 210.132 556.051 210.312 559.201C214.582 634.211 243.282 703.491 293.292 759.541C295.392 761.901 295.192 765.511 292.832 767.611C291.742 768.581 290.382 769.061 289.032 769.061H289.042Z" fill="black"/>
<path d="M763.342 294.762C761.982 294.762 760.632 294.282 759.542 293.312C703.492 243.302 634.212 214.602 559.202 210.332C556.052 210.152 553.642 207.452 553.822 204.302C554.002 201.152 556.692 198.742 559.852 198.922C637.472 203.342 709.152 233.032 767.152 284.792C769.512 286.892 769.712 290.512 767.612 292.862C766.482 294.132 764.912 294.772 763.342 294.772V294.762Z" fill="black"/>
<path d="M316.652 294.761C315.082 294.761 313.512 294.111 312.382 292.851C310.282 290.491 310.482 286.881 312.842 284.781C370.842 233.031 442.532 203.331 520.142 198.911C523.292 198.721 525.992 201.141 526.172 204.291C526.352 207.441 523.942 210.141 520.792 210.321C445.782 214.591 376.512 243.291 320.452 293.301C319.362 294.271 318.002 294.751 316.652 294.751V294.761Z" fill="black"/>
<path d="M559.522 881.102C556.512 881.102 553.992 878.752 553.822 875.712C553.642 872.562 556.052 869.862 559.202 869.682C634.212 865.412 703.482 836.712 759.542 786.702C761.892 784.602 765.512 784.802 767.612 787.162C769.712 789.522 769.512 793.132 767.152 795.232C709.152 846.982 637.462 876.682 559.852 881.102C559.742 881.102 559.632 881.102 559.522 881.102Z" fill="black"/>
<path d="M520.482 881.102C520.372 881.102 520.262 881.102 520.152 881.102C442.532 876.682 370.852 846.992 312.852 795.232C310.492 793.132 310.292 789.512 312.392 787.162C314.492 784.802 318.112 784.602 320.462 786.702C376.512 836.722 445.792 865.412 520.802 869.682C523.952 869.862 526.362 872.562 526.182 875.712C526.012 878.752 523.492 881.102 520.482 881.102Z" fill="black"/>
<path d="M841.842 526.51C839.692 526.51 837.892 524.83 837.772 522.66C833.912 454.91 807.992 392.34 762.822 341.71C761.322 340.03 761.472 337.45 763.152 335.94C764.832 334.44 767.412 334.58 768.922 336.27C815.342 388.29 841.972 452.58 845.932 522.19C846.062 524.44 844.342 526.37 842.082 526.5C842.002 526.5 841.922 526.5 841.842 526.5V526.51Z" fill="black"/>
<path d="M765.863 745.101C764.893 745.101 763.923 744.761 763.143 744.061C761.463 742.561 761.313 739.981 762.813 738.291C807.983 687.661 833.903 625.091 837.763 557.341C837.893 555.091 839.853 553.391 842.073 553.491C844.323 553.621 846.043 555.551 845.923 557.801C841.953 627.411 815.323 691.701 768.913 743.721C768.103 744.621 766.983 745.081 765.863 745.081V745.101Z" fill="black"/>
<path d="M238.162 526.51C238.082 526.51 238.002 526.51 237.922 526.51C235.672 526.38 233.952 524.45 234.072 522.2C238.042 452.59 264.672 388.3 311.082 336.28C312.582 334.6 315.162 334.45 316.852 335.95C318.532 337.45 318.682 340.03 317.182 341.72C272.012 392.35 246.092 454.92 242.232 522.67C242.112 524.84 240.312 526.52 238.162 526.52V526.51Z" fill="black"/>
<path d="M314.132 745.101C313.012 745.101 311.892 744.641 311.082 743.741C264.662 691.721 238.032 627.431 234.072 557.821C233.942 555.571 235.662 553.641 237.922 553.511C240.162 553.401 242.102 555.101 242.232 557.361C246.092 625.111 272.012 687.681 317.182 738.311C318.682 739.991 318.532 742.571 316.852 744.081C316.072 744.771 315.102 745.121 314.132 745.121V745.101Z" fill="black"/>
<path d="M741.012 318.219C740.042 318.219 739.072 317.879 738.292 317.179C687.662 272.009 625.092 246.089 557.342 242.229C555.092 242.099 553.372 240.169 553.492 237.919C553.622 235.669 555.542 233.959 557.802 234.069C627.412 238.039 691.702 264.669 743.732 311.079C745.412 312.579 745.562 315.159 744.062 316.849C743.252 317.749 742.132 318.209 741.012 318.209V318.219Z" fill="black"/>
<path d="M338.992 318.22C337.872 318.22 336.752 317.76 335.942 316.86C334.442 315.18 334.592 312.6 336.272 311.09C388.292 264.67 452.582 238.04 522.192 234.08C524.442 233.96 526.372 235.67 526.502 237.93C526.632 240.18 524.912 242.11 522.652 242.24C454.902 246.1 392.332 272.02 341.702 317.19C340.922 317.88 339.952 318.23 338.982 318.23L338.992 318.22Z" fill="black"/>
<path d="M557.562 845.929C555.412 845.929 553.612 844.249 553.492 842.079C553.362 839.829 555.082 837.899 557.342 837.769C625.092 833.909 687.662 807.989 738.292 762.819C739.972 761.319 742.552 761.469 744.062 763.149C745.562 764.829 745.412 767.409 743.732 768.919C691.712 815.339 627.422 841.969 557.802 845.929C557.722 845.929 557.642 845.929 557.562 845.929Z" fill="black"/>
<path d="M522.432 845.929C522.352 845.929 522.272 845.929 522.192 845.929C452.582 841.959 388.292 815.329 336.272 768.919C334.592 767.419 334.442 764.839 335.942 763.149C337.442 761.469 340.022 761.319 341.712 762.819C392.342 807.989 454.912 833.909 522.662 837.769C524.912 837.899 526.632 839.829 526.512 842.079C526.392 844.249 524.592 845.929 522.442 845.929H522.432Z" fill="black"/>
<path d="M320.642 546.17C320.642 544.6 321.782 543.27 323.332 543.02C324.632 542.81 326.262 542.52 327.972 542.12C332.392 541.08 337.582 539.11 343.402 536.27C349.282 533.4 354.912 529.41 359.162 523.67C366.332 513.97 367.852 501.4 368.182 496.89C368.252 495.97 367.522 495.19 366.592 495.19H317.082C315.322 495.19 313.902 493.76 313.902 492.01V470.69C313.902 468.93 315.332 467.51 317.082 467.51H367.062C367.942 467.51 368.652 466.8 368.652 465.92V447.18C368.652 446.3 367.942 445.59 367.062 445.59H328.612C326.852 445.59 325.432 444.16 325.432 442.41V421.09C325.432 419.33 326.862 417.91 328.612 417.91H428.952C430.712 417.91 432.132 419.34 432.132 421.09V442.41C432.132 444.17 430.702 445.59 428.952 445.59H398.512C397.632 445.59 396.922 446.3 396.922 447.18V465.92C396.922 466.8 397.632 467.51 398.512 467.51H438.572C440.332 467.51 441.752 468.94 441.752 470.69V492.01C441.752 493.77 440.322 495.19 438.572 495.19H398.382C397.532 495.19 396.832 495.86 396.792 496.71C396.562 501.75 395.142 518.44 386.172 532.85C380.722 541.61 373.642 548.26 366.532 553.54C359.402 558.84 352.252 562.93 345.262 565.7C338.232 568.49 332.332 570.44 327.742 571.51C326.652 571.76 325.482 571.99 324.392 572.18C322.442 572.53 320.652 571.03 320.652 569.04V546.16L320.642 546.17Z" fill="black"/>
<path d="M474.542 546.52C474.542 545.06 475.542 543.79 476.952 543.43C485.202 541.36 488.922 540.11 496.832 536.32C496.832 536.32 500.882 534.21 504.922 531.3C517.102 522.54 525.212 510.63 525.212 510.63C534.672 497.28 537.762 474.91 538.482 468.49C538.592 467.55 537.852 466.72 536.902 466.72H500.572C500.342 466.72 500.132 466.84 500.022 467.04L499.872 467.29C494.292 478.11 486.872 487.99 480.442 494.24C473.992 500.5 468.582 505.05 464.372 507.75L461.772 509.42C460.712 510.1 459.322 509.34 459.322 508.08V479.89C459.322 478.95 459.742 478.06 460.462 477.45C461.112 476.9 461.982 476.13 463.172 475.06C465.932 472.57 469.042 468.51 472.412 462.98C475.752 457.51 479.342 450.21 483.062 441.29C486.442 433.2 488.972 423.09 490.852 412.06C491.112 410.53 492.442 409.42 493.992 409.42H513.902C515.902 409.42 517.412 411.25 517.032 413.21C516.392 416.52 515.702 420.88 514.842 424.31C513.572 429.39 512.752 432.3 511.232 436.72C510.972 437.47 511.532 438.24 512.322 438.24H591.172C592.932 438.24 594.352 439.67 594.352 441.42V463.51C594.352 465.27 592.922 466.69 591.172 466.69H568.132C567.322 466.69 566.632 467.3 566.552 468.11C565.922 474.01 562.872 497.16 552.382 517.26C538.282 546 508.132 566.39 478.332 572.13C476.372 572.51 474.552 571 474.552 569V546.48L474.542 546.52Z" fill="black"/>
<path d="M675.893 411.029V468.869C675.893 469.749 676.603 470.459 677.483 470.459H764.513C765.393 470.459 766.103 469.749 766.103 468.869V411.029C766.103 410.149 765.393 409.439 764.513 409.439H677.483C676.603 409.439 675.893 410.149 675.893 411.029ZM738.453 452.739H702.293C701.413 452.739 700.703 452.029 700.703 451.149V446.869C700.703 445.989 701.413 445.279 702.293 445.279H738.453C739.333 445.279 740.043 445.989 740.043 446.869V451.149C740.043 452.029 739.333 452.739 738.453 452.739ZM738.453 434.449H702.293C701.413 434.449 700.703 433.739 700.703 432.859V428.749C700.703 427.869 701.413 427.159 702.293 427.159H738.453C739.333 427.159 740.043 427.869 740.043 428.749V432.859C740.043 433.739 739.333 434.449 738.453 434.449Z" fill="black"/>
<path d="M674.222 497.34H728.262C729.142 497.34 729.852 498.05 729.852 498.93V502.84C729.852 503.72 729.142 504.43 728.262 504.43H667.752C665.992 504.43 664.572 505.86 664.572 507.61V522.86C664.572 524.62 666.002 526.04 667.752 526.04H728.262C729.142 526.04 729.852 526.75 729.852 527.63V545.39C729.852 546.11 729.932 547.98 729.212 548.85C728.382 549.87 727.142 549.67 725.842 549.72C722.532 549.72 719.572 549.7 716.942 549.66C716.542 549.66 716.252 549.29 716.332 548.9C716.592 547.63 716.722 546.31 716.692 544.96C716.492 535.68 708.932 528.08 699.652 527.84C689.572 527.58 681.362 535.85 681.702 545.94C682.012 555.29 689.782 562.81 699.142 562.84C704.032 562.85 708.452 560.86 711.632 557.64C711.972 557.3 712.542 557.43 712.692 557.88C714.152 562.21 715.532 566.34 716.782 570.05C717.222 571.35 718.452 572.22 719.822 572.21C725.722 572.17 730.502 571.96 734.172 571.6C738.302 571.18 742.082 570.15 745.512 568.5C749.172 566.84 751.682 564.42 753.042 561.23C754.402 558.04 755.082 553.55 755.082 547.76V527.62C755.082 526.74 755.792 526.03 756.672 526.03H762.902C764.662 526.03 766.082 524.6 766.082 522.85V507.6C766.082 505.84 764.652 504.42 762.902 504.42H756.672C755.792 504.42 755.082 503.71 755.082 502.83V498.92C755.082 498.04 755.792 497.33 756.672 497.33H762.902C764.662 497.33 766.082 495.9 766.082 494.15V479.6C766.082 477.84 764.652 476.42 762.902 476.42H674.202C672.442 476.42 671.022 477.85 671.022 479.6V494.15C671.022 495.91 672.452 497.33 674.202 497.33L674.222 497.34Z" fill="black"/>
<path d="M668.822 409.439H650.252C649.392 409.439 648.572 409.789 647.972 410.399C635.222 423.349 618.282 434.569 612.122 438.479C610.772 439.329 610.272 441.059 610.942 442.499L620.692 463.569C621.622 465.569 624.252 466.049 625.822 464.499C646.112 444.459 664.442 419.799 670.112 411.959C670.872 410.909 670.112 409.439 668.822 409.439Z" fill="black"/>
<path d="M671.912 453.889V435.409C671.912 433.999 670.212 433.289 669.202 434.279C653.632 449.599 620.042 477.059 611.672 483.859C610.542 484.779 610.182 486.349 610.792 487.669L620.692 509.049C621.622 511.049 624.252 511.529 625.822 509.979C627.532 508.289 629.232 506.559 630.912 504.819C631.312 504.409 632.012 504.689 632.012 505.259V569.059C632.012 570.819 633.442 572.239 635.192 572.239H653.812C655.572 572.239 656.992 570.809 656.992 569.059V476.369C656.992 475.299 657.352 474.249 658.022 473.409C664.862 464.729 669.712 458.019 671.332 455.739C671.712 455.199 671.922 454.559 671.922 453.889H671.912Z" fill="black"/>
<path d="M653.263 623.33C640.843 623.33 634.803 628.28 634.803 638.47V655.6C634.803 665.67 640.843 670.56 653.263 670.56C659.133 670.56 663.473 669.48 666.553 667.27C669.993 664.8 671.733 660.87 671.733 655.59V638.46C671.733 628.27 665.693 623.32 653.273 623.32L653.263 623.33ZM646.083 639.3C646.083 633.93 648.833 632.91 653.263 632.91C657.693 632.91 660.443 633.95 660.443 639.3V654.68C660.443 659.95 657.593 660.98 653.263 660.98C648.933 660.98 646.083 659.98 646.083 654.68V639.3Z" fill="black"/>
<path d="M708.263 669.331H721.353L703.623 646.781L720.553 624.8H707.393L694.053 642.281V610.23H682.763V669.331H694.053V659.211L696.943 655.451L708.263 669.331Z" fill="black"/>
<path d="M754.812 624.801V653.291C754.812 659.041 751.872 660.891 746.822 660.891C743.552 660.891 740.272 660.351 740.272 653.881V624.811H728.992V656.771C728.992 665.741 733.702 670.481 742.612 670.481C749.292 670.481 753.872 666.861 755.572 662.801L757.382 669.341H766.102V624.811H754.822L754.812 624.801Z" fill="black"/>
<path d="M630.563 610.23H589.143V620.141V620.151H604.213V669.331H615.683V620.151H630.563V610.23Z" fill="black"/>
<path d="M459.682 669.331H472.772L455.042 646.781L471.972 624.8H458.812L445.472 642.281V610.23H434.192V669.331H445.472V659.211L448.362 655.451L459.682 669.331Z" fill="black"/>
<path d="M355.322 610.23H313.902V620.141V620.151H328.982V669.331H340.442V620.151H355.322V610.23Z" fill="black"/>
<path d="M421.792 658.89L421.192 659.04C417.612 659.96 413.282 660.89 409.402 660.89C404.852 660.89 401.682 658.82 401.682 652.83V640.97C401.682 634.9 404.852 632.82 409.402 632.82C413.352 632.82 417.872 633.7 421.222 634.4L421.802 634.52V625.19L421.492 625.12C417.682 624.23 412.042 623.33 407.522 623.33C402.002 623.33 397.962 624.4 395.162 626.59C391.962 629.09 390.412 633.85 390.412 639.34V654.64C390.412 664.77 396.012 670.56 407.532 670.56C411.402 670.56 417.262 669.49 421.522 668.31L421.812 668.23V658.88L421.792 658.89Z" fill="black"/>
<path d="M553.922 634.699V624.799H543.682V615.189H532.402V624.799H525.172V634.699H532.402V655.419C532.402 667.939 540.292 670.559 546.922 670.559C548.702 670.559 550.502 670.449 552.112 670.219V660.259C551.462 660.329 550.252 660.359 549.532 660.359C546.452 660.359 543.682 659.729 543.682 652.089V634.689H553.922V634.699Z" fill="black"/>
<path d="M489.732 650.741V650.561H515.162V641.481C515.162 635.571 513.542 630.241 510.352 627.341C507.412 624.671 502.772 623.311 497.252 623.311C485.072 623.311 478.452 629.221 478.452 639.591V654.451C478.452 664.701 483.832 670.551 496.312 670.551C500.972 670.551 506.282 669.561 511.962 668.401L512.352 668.321V659.051L511.702 659.201C507.132 660.251 504.612 661.141 500.282 661.141C494.072 661.141 489.732 658.621 489.732 652.201V650.721V650.741ZM489.732 639.721C489.732 634.071 493.792 632.741 497.162 632.741C500.532 632.741 504.062 634.071 504.062 639.721V643.231H489.732V642.711V639.721Z" fill="black"/>
<path d="M378.173 626.881H366.893V669.331H378.173V626.881Z" fill="black"/>
<path d="M372.532 622.22C376.415 622.22 379.562 619.073 379.562 615.19C379.562 611.308 376.415 608.16 372.532 608.16C368.649 608.16 365.502 611.308 365.502 615.19C365.502 619.073 368.649 622.22 372.532 622.22Z" fill="black"/>
<path d="M585.733 643.92H566.143V651.26H585.733V643.92Z" fill="black"/>
<path d="M777.528 1613.83V1638.03C777.528 1646.62 777.77 1650.85 778.496 1655.45H760.467C761.193 1651.34 761.435 1646.26 761.435 1638.27V1574.5C761.435 1567.85 761.193 1564.34 760.467 1558.77C765.428 1559.02 768.453 1559.14 775.834 1559.14H809.714C817.337 1559.14 821.209 1558.89 826.291 1558.29V1574.62C821.935 1574.02 817.458 1573.78 809.714 1573.78H777.528V1599.43H803.422C810.924 1599.43 815.159 1599.19 819.878 1598.58V1614.68C815.401 1614.07 810.803 1613.83 803.422 1613.83H777.528Z" fill="black"/>
<path d="M699.658 1613.83V1638.03C699.658 1646.62 699.9 1650.85 700.626 1655.45H682.597C683.323 1651.34 683.565 1646.26 683.565 1638.27V1574.5C683.565 1567.85 683.323 1564.34 682.597 1558.77C687.558 1559.02 690.583 1559.14 697.964 1559.14H731.844C739.467 1559.14 743.339 1558.89 748.421 1558.29V1574.62C744.065 1574.02 739.588 1573.78 731.844 1573.78H699.658V1599.43H725.552C733.054 1599.43 737.289 1599.19 742.008 1598.58V1614.68C737.531 1614.07 732.933 1613.83 725.552 1613.83H699.658Z" fill="black"/>
<path d="M623.077 1557.2C636.387 1557.2 646.672 1561.07 654.9 1569.3C663.733 1578.13 668.452 1591.32 668.452 1607.05C668.452 1637.66 650.665 1657.51 623.198 1657.51C595.731 1657.51 578.065 1637.79 578.065 1607.05C578.065 1591.44 582.905 1578.01 591.859 1569.3C600.208 1561.07 610.251 1557.2 623.077 1557.2ZM623.44 1643.11C640.743 1643.11 651.512 1629.32 651.512 1607.05C651.512 1594.83 648.124 1585.03 641.953 1578.86C636.992 1574.02 630.579 1571.48 623.319 1571.48C605.895 1571.48 594.884 1585.27 594.884 1607.17C594.884 1619.27 598.393 1629.44 604.685 1635.73C609.646 1640.57 616.059 1643.11 623.44 1643.11Z" fill="black"/>
<path d="M475.026 1653.64L551.135 1556.23L557.427 1561.07L481.197 1658.6L475.026 1653.64ZM544.722 1657.39C537.946 1657.39 532.38 1655.33 528.266 1651.22C523.668 1646.74 521.248 1639.48 521.248 1630.28C521.248 1621.21 523.668 1614.07 528.266 1609.47C532.38 1605.48 538.067 1603.3 544.722 1603.3C551.377 1603.3 557.064 1605.48 561.057 1609.47C565.655 1613.95 568.075 1621.21 568.075 1630.28C568.075 1639.48 565.655 1646.74 561.057 1651.22C556.943 1655.33 551.377 1657.39 544.722 1657.39ZM544.722 1613.59C541.213 1613.59 538.914 1614.68 536.978 1617.46C534.8 1620.48 533.711 1624.6 533.711 1630.04C533.711 1641.17 537.583 1647.22 544.722 1647.22C551.982 1647.22 555.733 1641.17 555.733 1629.44C555.733 1624.6 554.523 1620.24 552.466 1617.34C550.409 1614.68 548.231 1613.59 544.722 1613.59ZM487.731 1611.41C480.955 1611.41 475.389 1609.35 471.275 1605.24C466.677 1600.76 464.257 1593.38 464.257 1584.3C464.257 1567.36 472.969 1557.32 487.731 1557.32C494.386 1557.32 500.073 1559.5 504.066 1563.49C508.664 1567.97 511.084 1575.23 511.084 1584.3C511.084 1593.5 508.664 1600.76 504.066 1605.24C499.952 1609.35 494.386 1611.41 487.731 1611.41ZM487.731 1567.61C480.713 1567.61 476.72 1573.54 476.72 1584.06C476.72 1595.19 480.592 1601.24 487.731 1601.24C494.749 1601.24 498.742 1595.19 498.742 1584.3C498.742 1579.95 497.895 1575.59 496.564 1573.05C494.507 1569.3 491.724 1567.61 487.731 1567.61Z" fill="black"/>
<path d="M416.351 1657.39C406.066 1657.39 397.354 1654 390.941 1647.59C387.311 1643.96 384.528 1639.72 382.955 1635.37C379.809 1626.77 378.236 1617.34 378.236 1607.54C378.236 1594.71 381.14 1581.4 385.617 1574.02C392.151 1563.13 403.041 1557.2 416.472 1557.2C426.757 1557.2 435.59 1560.59 442.003 1567C445.633 1570.63 448.416 1574.87 449.989 1579.22C453.135 1587.69 454.708 1597.37 454.708 1607.29C454.708 1622.18 451.441 1635.24 445.754 1643.11C438.978 1652.55 428.935 1657.39 416.351 1657.39ZM416.472 1643.35C421.796 1643.35 426.515 1641.54 429.54 1638.27C434.985 1632.58 438.01 1621.33 438.01 1607.17C438.01 1593.14 434.985 1582.13 429.54 1576.2C426.636 1572.93 421.796 1571.11 416.351 1571.11C410.543 1571.11 406.308 1573.05 402.799 1577.29C397.475 1583.58 394.813 1593.5 394.813 1606.69C394.813 1619.39 397.112 1629.92 400.984 1635.49C404.735 1640.81 409.817 1643.35 416.472 1643.35Z" fill="black"/>
<path d="M341.463 1655.45H323.192C323.918 1650.73 324.16 1646.01 324.16 1639.72V1573.05H318.352C313.875 1573.05 310.366 1573.29 305.889 1573.78V1558.41C309.64 1559.02 312.302 1559.14 317.989 1559.14H329.121C335.292 1559.14 337.107 1559.02 341.463 1558.53C340.737 1565.67 340.495 1571.24 340.495 1578.5V1639.72C340.495 1646.14 340.737 1650.49 341.463 1655.45Z" fill="black"/>
<path d="M844.484 1454.15L838.677 1454.49C838.629 1453.62 838.581 1453.34 838.437 1452.23C837.525 1446.42 837.188 1442.73 837.188 1437.88C837.188 1431.69 837.764 1426.22 839.156 1419.11C839.684 1416.42 839.781 1415.94 839.877 1414.65L846.213 1415.32C845.061 1418.15 843.956 1423.53 843.188 1429.67C842.708 1433.27 842.517 1436.1 842.469 1440.28C842.469 1441.34 842.42 1441.72 842.372 1442.92C842.9 1441.24 842.997 1440.9 844.869 1436.58L848.708 1438.31C846.068 1443.88 844.437 1449.45 844.437 1452.86C844.437 1453.14 844.436 1453.53 844.484 1454.15ZM851.109 1425.4L851.205 1419.64C853.365 1420.22 855.908 1420.41 860.084 1420.41C865.412 1420.41 869.973 1419.98 873.141 1419.11L873.429 1424.92C873.045 1424.97 872.325 1425.06 870.021 1425.35C866.949 1425.74 863.3 1425.93 859.748 1425.93C856.244 1425.93 856.197 1425.93 851.109 1425.4ZM854.42 1433.32L859.125 1435.53C856.725 1438.31 855.716 1440.38 855.716 1442.44C855.716 1445.18 858.357 1446.62 863.349 1446.62C867.573 1446.62 871.749 1445.94 874.773 1444.79L875.253 1450.89C874.581 1450.94 874.388 1450.98 873.284 1451.18C869.444 1451.8 866.517 1452.09 863.349 1452.09C857.397 1452.09 853.557 1450.74 851.445 1447.91C850.533 1446.71 850.005 1444.94 850.005 1443.21C850.005 1440.09 851.444 1436.87 854.42 1433.32Z" fill="black"/>
<path d="M804.693 1419.69V1416.76C804.693 1415.18 804.597 1413.93 804.357 1412.78H810.549C810.357 1413.78 810.261 1415.03 810.261 1416.76V1419.69H823.461C826.149 1419.69 827.877 1419.59 829.509 1419.35V1425.16C828.021 1424.97 826.533 1424.87 823.653 1424.87H806.085C805.845 1428.47 805.845 1428.62 805.701 1430.06H818.997C821.493 1430.06 822.837 1430.01 823.941 1429.82C823.941 1430.06 823.941 1430.2 823.893 1430.3C823.797 1431.02 823.797 1431.59 823.701 1433.66C823.509 1440.86 822.885 1447.05 822.069 1450.5C820.965 1455.06 819.381 1456.26 814.581 1456.26C812.901 1456.26 811.797 1456.22 808.101 1455.93C807.909 1453.72 807.525 1452.14 806.709 1450.36C809.493 1450.79 811.701 1450.98 813.909 1450.98C816.021 1450.98 816.501 1450.46 817.125 1447.14C817.701 1444.26 817.989 1441.24 818.181 1435.1H804.933C802.917 1444.74 798.597 1450.89 789.525 1456.84C788.325 1454.73 787.413 1453.67 785.637 1452.28C789.861 1449.64 791.925 1447.96 794.229 1445.18C798.357 1440.23 799.989 1434.66 800.229 1424.87H792.357C789.957 1424.87 787.989 1424.97 786.357 1425.16V1419.35C788.085 1419.59 789.909 1419.69 792.357 1419.69H804.693Z" fill="black"/>
<path d="M763.556 1422.23C762.644 1429.77 760.964 1436.39 758.564 1441.82C755.828 1448.01 752.756 1450.84 748.82 1450.84C743.348 1450.84 739.412 1445.27 739.412 1437.54C739.412 1432.26 741.284 1427.32 744.692 1423.58C748.724 1419.16 754.388 1416.86 761.204 1416.86C772.724 1416.86 780.212 1423.86 780.212 1434.66C780.212 1442.97 775.892 1449.59 768.548 1452.57C766.244 1453.53 764.372 1454.01 761.012 1454.58C760.196 1452.04 759.62 1450.98 758.084 1448.97C762.5 1448.39 765.38 1447.62 767.636 1446.33C771.812 1444.02 774.308 1439.46 774.308 1434.33C774.308 1429.72 772.244 1425.98 768.404 1423.67C766.916 1422.81 765.668 1422.42 763.556 1422.23ZM757.7 1422.28C755.204 1422.57 753.476 1423.24 751.508 1424.63C747.476 1427.51 744.98 1432.46 744.98 1437.59C744.98 1441.53 746.66 1444.65 748.772 1444.65C750.356 1444.65 751.988 1442.63 753.716 1438.5C755.54 1434.18 757.124 1427.7 757.7 1422.28Z" fill="black"/>
<path d="M727.845 1424.87H725.301C724.053 1429.34 723.285 1431.3 721.557 1434.52C719.925 1437.54 718.149 1440.04 715.893 1442.63C721.173 1446.76 726.933 1449.35 734.661 1451.08C733.077 1452.95 732.405 1454.1 731.349 1456.7C723.189 1454.01 717.333 1450.89 712.005 1446.33C709.269 1448.63 706.005 1450.79 702.597 1452.57C699.669 1454.06 696.933 1455.16 692.373 1456.7C691.509 1454.63 690.693 1453.29 689.301 1451.56C697.893 1449.21 703.221 1446.71 708.165 1442.63C705.861 1440.09 704.133 1437.74 702.501 1434.95C700.677 1431.83 699.813 1429.77 698.181 1424.87H695.925C693.669 1424.87 691.797 1424.97 690.069 1425.16V1419.74C691.893 1419.98 693.525 1420.07 696.069 1420.07H708.837V1416.66C708.837 1415.22 708.741 1414.07 708.501 1412.97H714.597C714.357 1414.07 714.261 1415.22 714.261 1416.62V1420.07H727.653C730.245 1420.07 731.925 1419.98 733.701 1419.74V1425.16C731.973 1424.97 730.341 1424.87 727.845 1424.87ZM719.637 1424.87H703.701C704.901 1428.52 705.669 1430.25 707.349 1433.08C708.837 1435.48 710.133 1437.16 711.957 1439.08C713.637 1437.21 715.029 1435.29 716.325 1433.03C717.765 1430.44 718.485 1428.76 719.637 1424.87Z" fill="black"/>
<path d="M660.357 1422.42H671.637C668.421 1419.78 666.357 1418.49 661.653 1416.33L665.109 1412.39C670.389 1414.98 671.493 1415.61 675.429 1418.49L672.261 1422.42H679.461C682.101 1422.42 683.301 1422.38 684.837 1422.14V1427.51C683.349 1427.37 681.573 1427.27 679.461 1427.27H671.925V1435.62H678.117C680.133 1435.62 682.005 1435.53 683.349 1435.34V1440.62C681.861 1440.47 679.989 1440.38 678.117 1440.38H671.925V1450.31H680.133C682.341 1450.31 684.453 1450.22 685.845 1450.02V1455.4C684.309 1455.21 682.389 1455.11 680.133 1455.11H659.205C656.949 1455.11 654.933 1455.21 653.493 1455.4V1450.02C654.981 1450.22 657.141 1450.31 659.205 1450.31H666.549V1440.38H661.653C659.733 1440.38 657.861 1440.47 656.373 1440.62V1435.34C657.765 1435.53 659.541 1435.62 661.605 1435.62H666.549V1427.27H660.357C657.909 1427.27 656.709 1427.32 654.981 1427.51V1422.14C656.613 1422.33 658.005 1422.42 660.357 1422.42ZM643.605 1416.71L646.869 1412.97C650.469 1415.08 652.341 1416.47 655.365 1419.26L652.149 1423.53C649.125 1420.31 647.589 1419.06 643.605 1416.71ZM641.685 1428.66L644.757 1424.68C648.645 1426.94 650.277 1428.14 653.445 1430.92L650.565 1435.34C647.061 1431.98 645.237 1430.63 641.685 1428.66ZM649.509 1438.02L653.781 1441.05C651.573 1447 650.325 1449.93 648.453 1453.34C647.973 1454.2 647.685 1454.68 647.109 1455.64C646.725 1456.26 646.725 1456.26 646.437 1456.79L641.877 1452.81C644.133 1450.36 646.917 1445.03 649.509 1438.02Z" fill="black"/>
<path d="M601.365 1422.57L601.797 1416.86C605.493 1417.72 609.765 1418.06 616.197 1418.06C622.293 1418.06 625.701 1417.82 628.869 1417.14L629.061 1422.57C626.181 1423.82 620.277 1427.51 616.245 1430.49L612.069 1427.18C615.093 1425.26 615.621 1424.92 616.821 1424.25C617.301 1423.96 617.445 1423.86 618.069 1423.48C618.453 1423.29 618.501 1423.29 619.125 1422.9C617.013 1423.19 614.949 1423.29 611.925 1423.29C609.477 1423.29 605.493 1423.05 603.141 1422.71C602.565 1422.66 602.229 1422.62 602.037 1422.62C601.941 1422.62 601.701 1422.57 601.365 1422.57ZM604.917 1433.42L609.093 1436.58C606.069 1439.13 604.725 1441.14 604.725 1443.21C604.725 1446.33 608.229 1447.67 616.341 1447.67C622.053 1447.67 628.341 1446.81 631.413 1445.61L631.941 1452.18C631.077 1452.23 630.933 1452.23 629.829 1452.38C624.069 1453.24 620.997 1453.48 616.869 1453.48C611.637 1453.48 607.413 1452.95 604.869 1451.9C600.741 1450.26 598.725 1447.62 598.725 1443.88C598.725 1440.18 600.597 1437.02 604.917 1433.42ZM637.893 1431.45L634.581 1433.32C633.141 1430.68 631.557 1428.42 629.685 1426.36L632.901 1424.68C635.061 1426.89 636.405 1428.71 637.893 1431.45ZM623.781 1429.19L627.141 1427.51C629.253 1429.77 630.549 1431.59 632.181 1434.57L628.821 1436.34C627.237 1433.42 625.893 1431.5 623.781 1429.19Z" fill="black"/>
<path d="M569.397 1432.17V1449.83H583.221C585.765 1449.83 587.925 1449.74 589.701 1449.54V1455.3C587.685 1455.06 585.717 1454.97 583.317 1454.97H552.837C550.581 1454.97 548.373 1455.06 546.213 1455.3V1449.54C548.085 1449.74 550.101 1449.83 552.837 1449.83H563.781V1418.82C563.781 1416.71 563.685 1415.27 563.445 1413.3H569.733C569.493 1415.08 569.397 1416.66 569.397 1418.82V1427.03H580.677C582.789 1427.03 584.517 1426.94 586.245 1426.74V1432.46C584.517 1432.26 582.693 1432.17 580.677 1432.17H569.397Z" fill="black"/>
<path d="M531.861 1413.74L537.909 1413.83C537.861 1414.36 537.86 1414.36 537.428 1420.5C537.188 1424.82 536.229 1430.2 535.125 1433.9C534.357 1436.39 533.444 1438.5 532.1 1440.9C534.548 1445.18 537.909 1448.49 542.565 1451.22C541.173 1452.86 540.212 1454.44 539.204 1456.7C534.98 1453.67 531.716 1450.17 528.884 1445.61C524.996 1450.5 520.005 1454.06 512.805 1457.08C511.701 1454.92 510.885 1453.67 509.733 1452.33C518.181 1449.06 523.364 1445.18 526.868 1439.51C530.325 1433.94 532.052 1426.41 532.052 1416.9C532.052 1415.37 532.005 1414.84 531.861 1413.74ZM502.82 1444.74L502.581 1419.59C502.533 1417.05 502.437 1415.61 502.197 1413.88H508.293C508.149 1415.22 508.052 1416.66 508.052 1418.58V1419.64L508.293 1442.54C512.709 1440.57 517.413 1438.07 520.629 1436.01L521.78 1441.05C515.828 1444.7 511.797 1446.76 502.917 1450.6C501.093 1451.42 500.756 1451.56 499.556 1452.14L498.021 1446.28C499.701 1445.9 500.516 1445.61 502.82 1444.74ZM512.229 1419.59L516.836 1416.66C520.628 1420.5 522.789 1423.19 526.341 1428.42L521.397 1431.83C517.749 1425.78 516.597 1424.25 512.229 1419.59Z" fill="black"/>
<path d="M457.557 1438.12V1450.98C457.557 1454.01 457.605 1455.45 457.797 1456.55H451.893C452.085 1455.02 452.181 1453.29 452.181 1450.79V1419.4C452.181 1417.38 452.133 1416.18 451.989 1414.79C453.525 1414.94 454.773 1414.98 457.317 1414.98H486.501C489.141 1414.98 490.581 1414.94 491.733 1414.79C491.589 1416.18 491.541 1417.43 491.541 1420.02V1450.79C491.541 1453.24 490.965 1454.58 489.573 1455.3C488.661 1455.78 487.125 1455.98 484.533 1455.98C482.661 1455.98 480.021 1455.88 478.149 1455.78C477.861 1453.91 477.525 1452.57 476.661 1450.6C479.829 1450.94 482.229 1451.13 483.957 1451.13C485.829 1451.13 486.117 1450.98 486.117 1449.83V1438.12H457.557ZM468.933 1433.08V1420.07H457.557V1433.08H468.933ZM474.117 1433.08H486.117V1420.07H474.117V1433.08Z" fill="black"/>
<path d="M430.681 1454.34C426.601 1454.34 423.145 1453 420.601 1450.46C419.161 1449.02 418.057 1447.34 417.433 1445.61C416.185 1442.2 415.561 1438.46 415.561 1434.57C415.561 1429.48 416.713 1424.2 418.489 1421.27C421.081 1416.95 425.401 1414.6 430.729 1414.6C434.809 1414.6 438.313 1415.94 440.857 1418.49C442.297 1419.93 443.401 1421.61 444.025 1423.34C445.273 1426.7 445.897 1430.54 445.897 1434.47C445.897 1440.38 444.601 1445.56 442.345 1448.68C439.657 1452.42 435.673 1454.34 430.681 1454.34ZM430.729 1448.78C432.841 1448.78 434.713 1448.06 435.913 1446.76C438.073 1444.5 439.273 1440.04 439.273 1434.42C439.273 1428.86 438.073 1424.49 435.913 1422.14C434.761 1420.84 432.841 1420.12 430.681 1420.12C428.377 1420.12 426.697 1420.89 425.305 1422.57C423.193 1425.06 422.137 1429 422.137 1434.23C422.137 1439.27 423.049 1443.45 424.585 1445.66C426.073 1447.77 428.089 1448.78 430.729 1448.78Z" fill="black"/>
<path d="M396.509 1454.34C392.429 1454.34 388.973 1453 386.429 1450.46C384.989 1449.02 383.885 1447.34 383.261 1445.61C382.013 1442.2 381.389 1438.46 381.389 1434.57C381.389 1429.48 382.541 1424.2 384.317 1421.27C386.909 1416.95 391.229 1414.6 396.557 1414.6C400.637 1414.6 404.141 1415.94 406.685 1418.49C408.125 1419.93 409.229 1421.61 409.853 1423.34C411.101 1426.7 411.725 1430.54 411.725 1434.47C411.725 1440.38 410.429 1445.56 408.173 1448.68C405.485 1452.42 401.501 1454.34 396.509 1454.34ZM396.557 1448.78C398.669 1448.78 400.541 1448.06 401.741 1446.76C403.901 1444.5 405.101 1440.04 405.101 1434.42C405.101 1428.86 403.901 1424.49 401.741 1422.14C400.589 1420.84 398.669 1420.12 396.509 1420.12C394.205 1420.12 392.525 1420.89 391.133 1422.57C389.021 1425.06 387.965 1429 387.965 1434.23C387.965 1439.27 388.877 1443.45 390.413 1445.66C391.901 1447.77 393.917 1448.78 396.557 1448.78Z" fill="black"/>
<path d="M348.129 1445.03L354.753 1443.64C355.185 1445.03 355.521 1445.66 356.193 1446.42C357.537 1448.06 359.553 1448.87 362.097 1448.87C366.849 1448.87 369.969 1445.7 369.969 1440.95C369.969 1436.25 366.993 1433.22 362.433 1433.22C360.081 1433.22 357.969 1433.99 356.481 1435.43C355.809 1436.1 355.473 1436.54 355.041 1437.59L349.041 1437.02C349.521 1433.61 349.569 1433.37 349.665 1432.02L350.769 1420.12C350.817 1419.26 350.913 1417.62 350.961 1415.22C352.401 1415.32 353.505 1415.37 356.049 1415.37H367.857C371.169 1415.37 372.369 1415.32 374.529 1414.98V1421.03C372.417 1420.74 370.545 1420.65 367.905 1420.65H356.625L355.857 1429.05C355.809 1429.43 355.713 1430.1 355.569 1431.06C357.921 1429.05 360.465 1428.14 363.777 1428.14C367.665 1428.14 370.785 1429.29 373.137 1431.74C375.489 1434.04 376.545 1436.92 376.545 1440.76C376.545 1449.21 371.025 1454.44 362.097 1454.44C357.345 1454.44 353.793 1453.1 351.153 1450.26C349.857 1448.87 349.185 1447.72 348.129 1445.03Z" fill="black"/>
<path d="M342.343 1446.57V1453.58C342.343 1457.7 341.287 1459.24 337.399 1460.78L335.671 1458.23C338.599 1457.42 339.271 1456.55 339.319 1453.58H335.287V1446.57H342.343Z" fill="black"/>
<path d="M319.691 1453.58H312.443C312.731 1451.7 312.827 1449.83 312.827 1447.34V1420.89H310.523C308.747 1420.89 307.355 1420.98 305.579 1421.18V1415.08C307.067 1415.32 308.123 1415.37 310.379 1415.37H314.795C317.243 1415.37 317.963 1415.32 319.691 1415.13C319.403 1417.96 319.307 1420.17 319.307 1423.05V1447.34C319.307 1449.88 319.403 1451.61 319.691 1453.58Z" fill="black"/>
<path d="M277.307 1419.26H272.459C270.827 1419.26 269.675 1419.3 268.475 1419.5V1414.31C269.531 1414.5 270.539 1414.55 272.459 1414.55H279.323C280.859 1414.55 281.915 1414.5 282.827 1414.36C282.731 1415.46 282.731 1416.14 282.731 1416.95C282.731 1421.66 283.835 1426.5 285.899 1430.87C288.347 1436.15 291.227 1439.46 296.459 1443.21C295.115 1444.84 294.299 1446.18 293.291 1448.25C289.787 1445.61 287.819 1443.69 285.611 1440.76C283.211 1437.54 281.867 1434.62 280.235 1429.38C279.035 1434.47 277.691 1437.5 275.003 1441.1C273.227 1443.54 271.739 1445.08 268.523 1447.67C267.227 1445.94 266.507 1445.18 264.731 1443.5C267.659 1441.38 269.099 1439.94 271.067 1437.35C273.611 1433.94 275.435 1430.01 276.395 1425.93C276.875 1423.96 277.067 1422.57 277.307 1419.26ZM253.163 1416.95L257.003 1413.35C260.459 1416.38 263.051 1419.06 265.403 1422.14L261.419 1426.02C258.443 1421.99 256.907 1420.31 253.163 1416.95ZM252.443 1435.96V1430.68C253.691 1430.87 254.459 1430.92 256.283 1430.92H260.219C261.659 1430.92 262.763 1430.87 263.867 1430.68C263.723 1432.26 263.675 1433.27 263.675 1435.96V1445.99C264.395 1447.53 264.827 1448.01 266.411 1449.06C268.715 1450.5 271.211 1450.84 279.467 1450.84C286.427 1450.84 292.523 1450.5 297.275 1449.83C296.459 1452.14 296.171 1453.34 295.835 1455.54C291.563 1455.69 284.603 1455.83 281.291 1455.83C273.419 1455.83 269.531 1455.54 267.035 1454.73C264.539 1453.96 262.811 1452.66 260.939 1450.22C259.403 1451.75 258.251 1452.76 255.995 1454.49C255.179 1455.11 254.891 1455.35 254.555 1455.64C254.075 1456.02 254.075 1456.02 253.835 1456.22L251.483 1450.74C253.547 1449.88 256.571 1447.86 258.635 1446.04V1435.72H255.707C254.363 1435.72 253.643 1435.77 252.443 1435.96Z" fill="black"/>
<path d="M211.356 1425.11V1419.98C209.724 1420.31 208.86 1420.46 206.364 1420.84C206.124 1419.54 205.596 1418.34 204.492 1416.42C209.82 1415.8 213.372 1414.94 217.068 1413.4C217.788 1413.11 218.508 1412.73 219.132 1412.3L222.108 1416.47C221.628 1416.66 221.58 1416.71 220.86 1417.05C219.228 1417.72 218.076 1418.15 216.348 1418.68V1425.11H217.836C219.42 1425.11 220.284 1425.06 221.196 1424.92V1429.91C220.236 1429.77 219.372 1429.72 217.836 1429.72H216.492C216.588 1429.96 216.588 1429.96 216.828 1430.39C218.268 1433.56 219.42 1435.24 221.916 1437.78L221.484 1438.65C220.62 1440.28 220.476 1440.62 219.756 1442.39C218.076 1440.23 217.692 1439.56 216.06 1436.06C216.204 1437.21 216.348 1439.99 216.348 1441.53V1451.13C216.348 1453.91 216.396 1455.45 216.636 1457.03H211.068C211.26 1455.35 211.356 1453.82 211.356 1451.13V1442.82C211.356 1441.91 211.548 1438.12 211.644 1436.92C210.348 1441.19 208.62 1444.5 205.836 1447.96C205.02 1445.66 204.492 1444.5 203.388 1442.97C205.404 1440.62 206.508 1438.94 207.9 1436.39C208.956 1434.42 210.156 1431.54 210.684 1429.72H208.284C206.412 1429.72 205.5 1429.77 204.444 1429.96V1424.87C205.548 1425.06 206.412 1425.11 208.284 1425.11H211.356ZM226.332 1422.28H235.548C237.468 1418.73 238.332 1416.52 239.436 1412.54L244.764 1414.26C242.556 1419.11 242.076 1420.12 240.78 1422.28H242.268C243.948 1422.28 244.908 1422.23 246.252 1422.09C246.108 1423.24 246.06 1424.01 246.06 1425.45V1434.28C246.06 1435.72 246.108 1436.68 246.252 1437.83C244.956 1437.69 243.804 1437.64 242.268 1437.64H240.108V1450.7C240.108 1451.61 240.348 1451.7 242.172 1451.7C244.14 1451.7 244.236 1451.46 244.332 1444.84C246.156 1446.04 247.404 1446.66 248.844 1447C248.508 1452.23 248.22 1453.72 247.356 1454.87C246.444 1456.17 244.908 1456.5 240.396 1456.5C236.268 1456.5 235.116 1455.59 235.116 1452.42V1437.64H232.092C231.708 1442.87 231.18 1445.51 229.836 1448.49C228.012 1452.57 225.708 1454.97 221.484 1457.27C220.428 1455.45 219.756 1454.63 217.932 1453.05C224.124 1450.22 227.004 1445.32 227.004 1437.64H226.284C224.748 1437.64 223.788 1437.69 222.492 1437.83C222.588 1436.73 222.636 1435.58 222.636 1434.23V1425.59C222.636 1424.44 222.588 1423.19 222.492 1422.09C223.884 1422.23 224.652 1422.28 226.332 1422.28ZM227.436 1426.89V1432.94H240.924V1426.89H227.436ZM232.428 1419.93L227.724 1422.04C226.236 1418.49 225.276 1416.66 223.788 1414.65L228.444 1412.49C230.268 1415.27 231.324 1417.29 232.428 1419.93Z" fill="black"/>
<path d="M835.676 1271.82H824.932C823.776 1269.5 822.552 1267.53 820.58 1264.54L803.036 1238.09C801.744 1236.05 800.044 1233.12 798.412 1229.93C798.48 1230.88 798.48 1230.88 798.684 1233.4C798.752 1234.69 798.888 1237.75 798.888 1239.31V1261.62C798.888 1266.17 799.092 1269.37 799.432 1271.82H789.504C789.844 1269.57 790.048 1266.17 790.048 1261.55V1226.46C790.048 1222.92 789.912 1220.48 789.504 1217.69H800.112C800.724 1219.39 801.948 1221.43 804.26 1224.9L821.464 1250.8C823.096 1253.25 825.272 1256.79 826.768 1259.51C826.496 1256.86 826.292 1252.78 826.292 1249.92V1227.07C826.292 1223.06 826.156 1220.27 825.748 1217.69H835.676C835.268 1220.41 835.132 1222.92 835.132 1227.07V1263.04C835.132 1266.85 835.268 1269.44 835.676 1271.82Z" fill="black"/>
<path d="M756.055 1216.6C763.535 1216.6 769.315 1218.78 773.939 1223.4C778.903 1228.36 781.555 1235.78 781.555 1244.62C781.555 1261.82 771.559 1272.97 756.123 1272.97C740.687 1272.97 730.759 1261.89 730.759 1244.62C730.759 1235.84 733.479 1228.3 738.511 1223.4C743.203 1218.78 748.847 1216.6 756.055 1216.6ZM756.259 1264.88C765.983 1264.88 772.035 1257.13 772.035 1244.62C772.035 1237.75 770.131 1232.24 766.663 1228.77C763.875 1226.05 760.271 1224.62 756.191 1224.62C746.399 1224.62 740.211 1232.38 740.211 1244.68C740.211 1251.48 742.183 1257.2 745.719 1260.73C748.507 1263.45 752.111 1264.88 756.259 1264.88Z" fill="black"/>
<path d="M698.099 1271.82H690.075C689.735 1269.64 688.647 1266.44 687.083 1262.64L677.291 1239.31C675.999 1236.25 675.387 1234.42 673.823 1228.91C674.095 1232.51 674.367 1238.09 674.367 1239.58V1261.89C674.367 1266.58 674.503 1269.16 674.911 1271.82H665.391C665.799 1269.1 665.935 1266.44 665.935 1261.89V1227.75C665.935 1223.33 665.799 1220.48 665.391 1217.69H677.835C678.311 1220.07 679.195 1222.92 680.351 1225.78L694.155 1259.51L707.891 1225.78C709.251 1222.45 709.863 1220.27 710.339 1217.69H722.851C722.443 1220.95 722.307 1223.2 722.307 1227.75V1261.89C722.307 1266.85 722.443 1269.3 722.851 1271.82H713.331C713.739 1269.03 713.875 1266.58 713.875 1261.89V1239.31C714.147 1233.4 714.351 1229.93 714.419 1228.91C713.535 1232.58 712.243 1236.39 711.291 1238.84L701.091 1262.77C699.731 1265.97 698.507 1269.78 698.099 1271.82Z" fill="black"/>
<path d="M631.941 1216.6C639.421 1216.6 645.202 1218.78 649.826 1223.4C654.79 1228.36 657.442 1235.78 657.442 1244.62C657.442 1261.82 647.446 1272.97 632.01 1272.97C616.574 1272.97 606.646 1261.89 606.646 1244.62C606.646 1235.84 609.366 1228.3 614.398 1223.4C619.09 1218.78 624.733 1216.6 631.941 1216.6ZM632.146 1264.88C641.87 1264.88 647.922 1257.13 647.922 1244.62C647.922 1237.75 646.017 1232.24 642.549 1228.77C639.761 1226.05 636.158 1224.62 632.078 1224.62C622.286 1224.62 616.098 1232.38 616.098 1244.68C616.098 1251.48 618.069 1257.2 621.605 1260.73C624.393 1263.45 627.998 1264.88 632.146 1264.88Z" fill="black"/>
<path d="M598.738 1271.82H587.994C586.838 1269.5 585.614 1267.53 583.642 1264.54L566.098 1238.09C564.806 1236.05 563.106 1233.12 561.474 1229.93C561.542 1230.88 561.542 1230.88 561.746 1233.4C561.814 1234.69 561.95 1237.75 561.95 1239.31V1261.62C561.95 1266.17 562.154 1269.37 562.494 1271.82H552.566C552.906 1269.57 553.11 1266.17 553.11 1261.55V1226.46C553.11 1222.92 552.974 1220.48 552.566 1217.69H563.174C563.786 1219.39 565.01 1221.43 567.322 1224.9L584.526 1250.8C586.158 1253.25 588.334 1256.79 589.83 1259.51C589.558 1256.86 589.354 1252.78 589.354 1249.92V1227.07C589.354 1223.06 589.218 1220.27 588.81 1217.69H598.738C598.33 1220.41 598.194 1222.92 598.194 1227.07V1263.04C598.194 1266.85 598.33 1269.44 598.738 1271.82Z" fill="black"/>
<path d="M547.016 1271.82H535.864C535.456 1269.57 534.708 1266.65 533.96 1264.68L531.24 1257.26H509.48L506.76 1264.68C505.536 1267.94 505.264 1268.96 504.72 1271.82H493.568C494.588 1269.98 495.948 1266.92 497.172 1263.79L512.132 1224.56C513.424 1221.16 513.968 1219.46 514.308 1217.69H526.14C526.48 1219.32 526.888 1220.41 528.452 1224.56L543.548 1263.79C545.248 1268.14 546.064 1270.05 547.016 1271.82ZM528.792 1249.44L521.516 1229.32C521.244 1228.57 521.04 1227.75 520.292 1225.51C519.204 1228.7 519.204 1228.7 519 1229.32L511.928 1249.44H528.792Z" fill="black"/>
<path d="M490.819 1271.82H479.599C479.463 1270.18 478.307 1266.72 476.063 1260.94C472.391 1251.55 470.011 1249.04 464.775 1249.04H454.643V1262.91C454.643 1266.99 454.779 1269.16 455.187 1271.82H445.055C445.463 1268.96 445.599 1267.12 445.599 1262.98V1226.32C445.599 1222.72 445.463 1220.68 445.055 1217.48C447.911 1217.62 450.019 1217.69 453.759 1217.69H470.079C480.415 1217.69 486.331 1222.86 486.331 1231.83C486.331 1236.18 485.175 1239.58 482.863 1241.96C480.959 1243.94 479.191 1244.82 475.315 1245.91C479.599 1247.27 480.891 1249.17 487.623 1265.08C488.167 1266.31 489.867 1269.98 490.819 1271.82ZM454.643 1241.28H468.311C470.827 1241.28 473.207 1240.4 474.771 1238.84C476.199 1237.41 476.947 1235.44 476.947 1232.85C476.947 1227.96 474.159 1225.44 468.583 1225.44H454.643V1241.28Z" fill="black"/>
<path d="M411.606 1216.6C419.086 1216.6 424.866 1218.78 429.49 1223.4C434.454 1228.36 437.106 1235.78 437.106 1244.62C437.106 1261.82 427.11 1272.97 411.674 1272.97C396.238 1272.97 386.31 1261.89 386.31 1244.62C386.31 1235.84 389.03 1228.3 394.062 1223.4C398.754 1218.78 404.398 1216.6 411.606 1216.6ZM411.81 1264.88C421.534 1264.88 427.586 1257.13 427.586 1244.62C427.586 1237.75 425.682 1232.24 422.214 1228.77C419.426 1226.05 415.822 1224.62 411.742 1224.62C401.95 1224.62 395.762 1232.38 395.762 1244.68C395.762 1251.48 397.734 1257.2 401.27 1260.73C404.058 1263.45 407.662 1264.88 411.81 1264.88Z" fill="black"/>
<path d="M363.735 1225.85V1262.98C363.735 1266.65 363.871 1269.03 364.279 1271.82H354.011C354.419 1268.96 354.555 1266.65 354.555 1262.98V1225.85H345.375C341.363 1225.85 338.439 1225.98 336.059 1226.32V1217.21C338.507 1217.55 341.431 1217.69 345.307 1217.69H372.235C377.131 1217.69 379.647 1217.55 382.231 1217.21V1226.32C379.715 1225.98 377.131 1225.85 372.235 1225.85H363.735Z" fill="black"/>
<path d="M296.441 1271.82H287.329C287.057 1270.18 286.377 1267.26 285.697 1264.95L278.421 1239.65C277.673 1237 277.061 1234.42 276.449 1230.95C275.701 1234.82 275.021 1237.48 274.409 1239.65L267.201 1264.95C266.385 1268.01 265.841 1270.18 265.637 1271.82H256.593C256.253 1270.12 256.253 1270.12 254.757 1264.81L243.945 1225.78C242.789 1221.84 242.109 1219.73 241.225 1217.69H252.105C252.241 1220 252.581 1222.04 253.329 1225.03L259.653 1250.94C260.129 1253.05 260.877 1256.52 261.285 1258.9C262.169 1254.68 262.645 1252.78 263.189 1250.87L270.737 1224.62C271.553 1221.77 272.029 1219.52 272.233 1217.69H280.597C280.801 1219.32 281.413 1221.97 282.161 1224.49L289.777 1250.67C290.253 1252.44 290.593 1253.8 291.681 1258.9C292.021 1257.33 292.021 1257.33 292.429 1254.95C292.633 1253.86 293.177 1251.21 293.313 1250.6L299.637 1224.96C300.317 1222.38 300.725 1219.59 300.793 1217.69H311.673C310.721 1220 310.109 1221.84 309.021 1225.78L298.141 1264.74C297.665 1266.65 297.325 1267.87 297.189 1268.48C296.645 1270.39 296.645 1270.39 296.441 1271.82Z" fill="black"/>
</svg>
