<svg width="1080" height="1920" viewBox="0 0 1080 1920" fill="none" xmlns="http://www.w3.org/2000/svg">
<path d="M1080 1920L1080 0L0 0L0 1920H1080Z" fill="#A5D4AD"/>
<path d="M1020 983.72V95C1020 75.67 1004.33 60 985 60H95.58C75.93 60 60 75.93 60 95.58V983.71C60 984.03 60.25 984.28 60.57 984.28C80.03 984.59 95.71 1000.46 95.71 1019.99C95.71 1039.52 80.03 1055.39 60.57 1055.7C60.25 1055.7 60 1055.96 60 1056.27V1824.99C60 1844.32 75.67 1859.99 95 1859.99H985C1004.33 1859.99 1020 1844.32 1020 1824.99V1056.27C1020 1055.95 1019.75 1055.7 1019.43 1055.7C999.97 1055.39 984.29 1039.52 984.29 1019.99C984.29 1000.46 999.97 984.59 1019.43 984.28C1019.75 984.28 1020 984.02 1020 983.71V983.72Z" fill="white"/>
<path d="M60.57 1055.71C60.25 1055.71 60 1055.97 60 1056.28V1825C60 1844.33 75.67 1860 95 1860H985C1004.33 1860 1020 1844.33 1020 1825V1056.28C1020 1055.96 1019.75 1055.71 1019.43 1055.71C999.97 1055.4 984.29 1039.53 984.29 1020H95.71C95.71 1039.53 80.03 1055.4 60.57 1055.71Z" fill="#E5F2E6"/>
<path d="M121 1020H160.9" stroke="black" stroke-width="6" stroke-miterlimit="10"/>
<path d="M187.51 1020H227.41" stroke="black" stroke-width="6" stroke-miterlimit="10"/>
<path d="M254.02 1020H293.92" stroke="black" stroke-width="6" stroke-miterlimit="10"/>
<path d="M320.52 1020H360.43" stroke="black" stroke-width="6" stroke-miterlimit="10"/>
<path d="M387.029 1020H426.939" stroke="black" stroke-width="6" stroke-miterlimit="10"/>
<path d="M453.539 1020H493.439" stroke="black" stroke-width="6" stroke-miterlimit="10"/>
<path d="M520.051 1020H559.951" stroke="black" stroke-width="6" stroke-miterlimit="10"/>
<path d="M586.561 1020H626.461" stroke="black" stroke-width="6" stroke-miterlimit="10"/>
<path d="M653.061 1020H692.971" stroke="black" stroke-width="6" stroke-miterlimit="10"/>
<path d="M719.57 1020H759.48" stroke="black" stroke-width="6" stroke-miterlimit="10"/>
<path d="M786.08 1020H825.98" stroke="black" stroke-width="6" stroke-miterlimit="10"/>
<path d="M852.59 1020H892.49" stroke="black" stroke-width="6" stroke-miterlimit="10"/>
<path d="M919.1 1020H959" stroke="black" stroke-width="6" stroke-miterlimit="10"/>
<path d="M1020 984.29V95C1020 75.67 1004.33 60 985 60H95C75.67 60 60 75.67 60 95V984.29C79.72 984.29 95.71 1000.28 95.71 1020C95.71 1039.72 79.72 1055.71 60 1055.71V1825C60 1844.33 75.67 1860 95 1860H985C1004.33 1860 1020 1844.33 1020 1825V1055.71C1000.28 1055.71 984.29 1039.72 984.29 1020C984.29 1000.28 1000.28 984.29 1020 984.29Z" stroke="black" stroke-width="6" stroke-miterlimit="10"/>
<path d="M912.642 525.66C908.772 525.66 905.532 522.64 905.312 518.73C900.582 435.62 868.782 358.85 813.362 296.74C810.662 293.71 810.922 289.06 813.952 286.36C816.982 283.66 821.622 283.92 824.332 286.95C881.992 351.57 915.062 431.43 919.992 517.89C920.222 521.94 917.122 525.42 913.072 525.65C912.932 525.65 912.792 525.66 912.652 525.66H912.642Z" fill="black"/>
<path d="M818.842 795.509C817.102 795.509 815.352 794.889 813.952 793.639C810.922 790.939 810.662 786.289 813.362 783.259C868.782 721.149 900.582 644.379 905.312 561.269C905.542 557.219 909.022 554.109 913.072 554.349C917.122 554.579 920.222 558.049 919.992 562.109C915.062 648.579 881.992 728.439 824.332 793.049C822.882 794.679 820.862 795.509 818.842 795.509Z" fill="black"/>
<path d="M167.352 525.66C167.212 525.66 167.072 525.66 166.932 525.65C162.882 525.42 159.782 521.95 160.012 517.89C164.942 431.42 198.012 351.56 255.672 286.95C258.372 283.92 263.022 283.66 266.052 286.36C269.082 289.06 269.342 293.71 266.642 296.74C211.222 358.85 179.422 435.61 174.692 518.73C174.472 522.64 171.232 525.66 167.362 525.66H167.352Z" fill="black"/>
<path d="M261.162 795.509C259.142 795.509 257.122 794.679 255.672 793.049C198.012 728.429 164.942 648.569 160.012 562.109C159.782 558.059 162.882 554.579 166.932 554.349C170.982 554.109 174.462 557.219 174.692 561.269C179.422 644.389 211.222 721.149 266.642 783.259C269.342 786.289 269.082 790.939 266.052 793.639C264.652 794.889 262.902 795.509 261.162 795.509Z" fill="black"/>
<path d="M788.162 268.509C786.422 268.509 784.672 267.889 783.272 266.639C721.162 211.219 644.392 179.419 561.282 174.689C557.232 174.459 554.132 170.989 554.362 166.929C554.592 162.879 558.032 159.789 562.122 160.009C648.592 164.939 728.452 198.009 793.062 255.669C796.092 258.369 796.352 263.019 793.652 266.049C792.202 267.679 790.182 268.509 788.162 268.509Z" fill="black"/>
<path d="M291.842 268.51C289.822 268.51 287.802 267.68 286.352 266.05C283.652 263.02 283.912 258.37 286.942 255.67C351.562 198.01 431.422 164.94 517.882 160.01C521.932 159.78 525.412 162.88 525.642 166.93C525.872 170.98 522.772 174.46 518.722 174.69C435.612 179.42 358.842 211.22 296.732 266.64C295.332 267.89 293.582 268.51 291.842 268.51Z" fill="black"/>
<path d="M561.682 920C557.812 920 554.572 916.98 554.352 913.07C554.122 909.02 557.222 905.54 561.272 905.31C644.392 900.58 721.152 868.78 783.262 813.36C786.292 810.66 790.942 810.92 793.642 813.95C796.342 816.98 796.082 821.63 793.052 824.33C728.432 881.99 648.572 915.06 562.112 919.99C561.972 919.99 561.832 920 561.692 920H561.682Z" fill="black"/>
<path d="M518.312 920C518.172 920 518.032 920 517.892 919.99C431.422 915.06 351.562 881.99 286.952 824.33C283.922 821.63 283.662 816.98 286.362 813.95C289.062 810.92 293.712 810.66 296.742 813.36C358.852 868.78 435.622 900.58 518.732 905.31C522.782 905.54 525.882 909.01 525.652 913.07C525.432 916.98 522.192 920 518.322 920H518.312Z" fill="black"/>
<path d="M875.372 526.191C872.362 526.191 869.842 523.841 869.672 520.801C865.402 445.791 836.702 376.521 786.692 320.461C784.592 318.101 784.792 314.491 787.152 312.391C789.502 310.291 793.122 310.491 795.222 312.851C846.972 370.851 876.672 442.541 881.092 520.151C881.272 523.301 878.862 526.001 875.712 526.181C875.602 526.181 875.492 526.181 875.382 526.181L875.372 526.191Z" fill="black"/>
<path d="M790.952 769.062C789.592 769.062 788.242 768.582 787.152 767.612C784.792 765.512 784.592 761.892 786.692 759.542C836.702 703.492 865.402 634.212 869.672 559.202C869.852 556.052 872.542 553.642 875.702 553.822C878.852 554.002 881.262 556.702 881.082 559.852C876.662 637.472 846.972 709.152 795.212 767.152C794.082 768.422 792.512 769.062 790.942 769.062H790.952Z" fill="black"/>
<path d="M204.622 526.191C204.512 526.191 204.402 526.191 204.292 526.191C201.142 526.011 198.732 523.311 198.912 520.161C203.332 442.541 233.022 370.861 284.782 312.861C286.882 310.501 290.502 310.301 292.852 312.401C295.212 314.501 295.412 318.121 293.312 320.471C243.302 376.521 214.602 445.801 210.332 520.811C210.162 523.851 207.642 526.201 204.632 526.201L204.622 526.191Z" fill="black"/>
<path d="M289.042 769.061C287.472 769.061 285.902 768.411 284.772 767.151C233.022 709.151 203.322 637.461 198.902 559.851C198.722 556.701 201.132 554.001 204.282 553.821C207.442 553.631 210.132 556.051 210.312 559.201C214.582 634.211 243.282 703.491 293.292 759.541C295.392 761.901 295.192 765.511 292.832 767.611C291.742 768.581 290.382 769.061 289.032 769.061H289.042Z" fill="black"/>
<path d="M763.342 294.762C761.982 294.762 760.632 294.282 759.542 293.312C703.492 243.302 634.212 214.602 559.202 210.332C556.052 210.152 553.642 207.452 553.822 204.302C554.002 201.152 556.692 198.742 559.852 198.922C637.472 203.342 709.152 233.032 767.152 284.792C769.512 286.892 769.712 290.512 767.612 292.862C766.482 294.132 764.912 294.772 763.342 294.772V294.762Z" fill="black"/>
<path d="M316.651 294.761C315.081 294.761 313.511 294.111 312.381 292.851C310.281 290.491 310.481 286.881 312.841 284.781C370.841 233.031 442.531 203.331 520.141 198.911C523.291 198.721 525.991 201.141 526.171 204.291C526.351 207.441 523.941 210.141 520.791 210.321C445.781 214.591 376.511 243.291 320.451 293.301C319.361 294.271 318.001 294.751 316.651 294.751V294.761Z" fill="black"/>
<path d="M559.522 881.102C556.512 881.102 553.992 878.752 553.822 875.712C553.642 872.562 556.052 869.862 559.202 869.682C634.212 865.412 703.482 836.712 759.542 786.702C761.892 784.602 765.512 784.802 767.612 787.162C769.712 789.522 769.512 793.132 767.152 795.232C709.152 846.982 637.462 876.682 559.852 881.102C559.742 881.102 559.632 881.102 559.522 881.102Z" fill="black"/>
<path d="M520.481 881.102C520.371 881.102 520.261 881.102 520.151 881.102C442.531 876.682 370.851 846.992 312.851 795.232C310.491 793.132 310.291 789.512 312.391 787.162C314.491 784.802 318.111 784.602 320.461 786.702C376.511 836.722 445.791 865.412 520.801 869.682C523.951 869.862 526.361 872.562 526.181 875.712C526.011 878.752 523.491 881.102 520.481 881.102Z" fill="black"/>
<path d="M841.841 526.51C839.691 526.51 837.891 524.83 837.771 522.66C833.911 454.91 807.991 392.34 762.821 341.71C761.321 340.03 761.471 337.45 763.151 335.94C764.831 334.44 767.411 334.58 768.921 336.27C815.341 388.29 841.971 452.58 845.931 522.19C846.061 524.44 844.341 526.37 842.081 526.5C842.001 526.5 841.921 526.5 841.841 526.5V526.51Z" fill="black"/>
<path d="M765.862 745.101C764.892 745.101 763.922 744.761 763.142 744.061C761.462 742.561 761.312 739.981 762.812 738.291C807.982 687.661 833.902 625.091 837.762 557.341C837.892 555.091 839.852 553.391 842.072 553.491C844.322 553.621 846.042 555.551 845.922 557.801C841.952 627.411 815.322 691.701 768.912 743.721C768.102 744.621 766.982 745.081 765.862 745.081V745.101Z" fill="black"/>
<path d="M238.162 526.51C238.082 526.51 238.002 526.51 237.922 526.51C235.672 526.38 233.952 524.45 234.072 522.2C238.042 452.59 264.672 388.3 311.082 336.28C312.582 334.6 315.162 334.45 316.852 335.95C318.532 337.45 318.682 340.03 317.182 341.72C272.012 392.35 246.092 454.92 242.232 522.67C242.112 524.84 240.312 526.52 238.162 526.52V526.51Z" fill="black"/>
<path d="M314.131 745.101C313.011 745.101 311.891 744.641 311.081 743.741C264.661 691.721 238.031 627.431 234.071 557.821C233.941 555.571 235.661 553.641 237.921 553.511C240.161 553.401 242.101 555.101 242.231 557.361C246.091 625.111 272.011 687.681 317.181 738.311C318.681 739.991 318.531 742.571 316.851 744.081C316.071 744.771 315.101 745.121 314.131 745.121V745.101Z" fill="black"/>
<path d="M741.01 318.219C740.04 318.219 739.07 317.879 738.29 317.179C687.66 272.009 625.09 246.089 557.34 242.229C555.09 242.099 553.37 240.169 553.49 237.919C553.62 235.669 555.54 233.959 557.8 234.069C627.41 238.039 691.7 264.669 743.73 311.079C745.41 312.579 745.56 315.159 744.06 316.849C743.25 317.749 742.13 318.209 741.01 318.209V318.219Z" fill="black"/>
<path d="M338.991 318.22C337.871 318.22 336.751 317.76 335.941 316.86C334.441 315.18 334.591 312.6 336.271 311.09C388.291 264.67 452.581 238.04 522.191 234.08C524.441 233.96 526.371 235.67 526.501 237.93C526.631 240.18 524.91 242.11 522.65 242.24C454.9 246.1 392.331 272.02 341.701 317.19C340.921 317.88 339.951 318.23 338.981 318.23L338.991 318.22Z" fill="black"/>
<path d="M557.561 845.929C555.411 845.929 553.611 844.249 553.491 842.079C553.361 839.829 555.081 837.899 557.341 837.769C625.091 833.909 687.661 807.989 738.291 762.819C739.971 761.319 742.551 761.469 744.061 763.149C745.561 764.829 745.411 767.409 743.731 768.919C691.711 815.339 627.421 841.969 557.801 845.929C557.721 845.929 557.641 845.929 557.561 845.929Z" fill="black"/>
<path d="M522.431 845.929C522.351 845.929 522.271 845.929 522.191 845.929C452.581 841.959 388.291 815.329 336.271 768.919C334.591 767.419 334.441 764.839 335.941 763.149C337.441 761.469 340.021 761.319 341.711 762.819C392.341 807.989 454.911 833.909 522.661 837.769C524.911 837.899 526.631 839.829 526.511 842.079C526.391 844.249 524.591 845.929 522.441 845.929H522.431Z" fill="black"/>
<path d="M320.642 546.17C320.642 544.6 321.782 543.27 323.332 543.02C324.632 542.81 326.262 542.52 327.972 542.12C332.392 541.08 337.582 539.11 343.402 536.27C349.282 533.4 354.912 529.41 359.162 523.67C366.332 513.97 367.852 501.4 368.182 496.89C368.252 495.97 367.522 495.19 366.592 495.19H317.082C315.322 495.19 313.902 493.76 313.902 492.01V470.69C313.902 468.93 315.332 467.51 317.082 467.51H367.062C367.942 467.51 368.652 466.8 368.652 465.92V447.18C368.652 446.3 367.942 445.59 367.062 445.59H328.612C326.852 445.59 325.432 444.16 325.432 442.41V421.09C325.432 419.33 326.862 417.91 328.612 417.91H428.952C430.712 417.91 432.132 419.34 432.132 421.09V442.41C432.132 444.17 430.702 445.59 428.952 445.59H398.512C397.632 445.59 396.922 446.3 396.922 447.18V465.92C396.922 466.8 397.632 467.51 398.512 467.51H438.572C440.332 467.51 441.752 468.94 441.752 470.69V492.01C441.752 493.77 440.322 495.19 438.572 495.19H398.382C397.532 495.19 396.832 495.86 396.792 496.71C396.562 501.75 395.142 518.44 386.172 532.85C380.722 541.61 373.642 548.26 366.532 553.54C359.402 558.84 352.252 562.93 345.262 565.7C338.232 568.49 332.332 570.44 327.742 571.51C326.652 571.76 325.482 571.99 324.392 572.18C322.442 572.53 320.652 571.03 320.652 569.04V546.16L320.642 546.17Z" fill="black"/>
<path d="M474.542 546.52C474.542 545.06 475.542 543.79 476.952 543.43C485.202 541.36 488.922 540.11 496.832 536.32C496.832 536.32 500.882 534.21 504.922 531.3C517.102 522.54 525.212 510.63 525.212 510.63C534.672 497.28 537.762 474.91 538.482 468.49C538.592 467.55 537.852 466.72 536.902 466.72H500.572C500.342 466.72 500.132 466.84 500.022 467.04L499.872 467.29C494.292 478.11 486.872 487.99 480.442 494.24C473.992 500.5 468.582 505.05 464.372 507.75L461.772 509.42C460.712 510.1 459.322 509.34 459.322 508.08V479.89C459.322 478.95 459.742 478.06 460.462 477.45C461.112 476.9 461.982 476.13 463.172 475.06C465.932 472.57 469.042 468.51 472.412 462.98C475.752 457.51 479.342 450.21 483.062 441.29C486.442 433.2 488.972 423.09 490.852 412.06C491.112 410.53 492.442 409.42 493.992 409.42H513.902C515.902 409.42 517.412 411.25 517.032 413.21C516.392 416.52 515.702 420.88 514.842 424.31C513.572 429.39 512.752 432.3 511.232 436.72C510.972 437.47 511.532 438.24 512.322 438.24H591.172C592.932 438.24 594.352 439.67 594.352 441.42V463.51C594.352 465.27 592.922 466.69 591.172 466.69H568.132C567.322 466.69 566.632 467.3 566.552 468.11C565.922 474.01 562.872 497.16 552.382 517.26C538.282 546 508.132 566.39 478.332 572.13C476.372 572.51 474.552 571 474.552 569V546.48L474.542 546.52Z" fill="black"/>
<path d="M675.893 411.029V468.869C675.893 469.749 676.603 470.459 677.483 470.459H764.513C765.393 470.459 766.103 469.749 766.103 468.869V411.029C766.103 410.149 765.393 409.439 764.513 409.439H677.483C676.603 409.439 675.893 410.149 675.893 411.029ZM738.453 452.739H702.293C701.413 452.739 700.703 452.029 700.703 451.149V446.869C700.703 445.989 701.413 445.279 702.293 445.279H738.453C739.333 445.279 740.043 445.989 740.043 446.869V451.149C740.043 452.029 739.333 452.739 738.453 452.739ZM738.453 434.449H702.293C701.413 434.449 700.703 433.739 700.703 432.859V428.749C700.703 427.869 701.413 427.159 702.293 427.159H738.453C739.333 427.159 740.043 427.869 740.043 428.749V432.859C740.043 433.739 739.333 434.449 738.453 434.449Z" fill="black"/>
<path d="M674.222 497.34H728.262C729.142 497.34 729.852 498.05 729.852 498.93V502.84C729.852 503.72 729.142 504.43 728.262 504.43H667.752C665.992 504.43 664.572 505.86 664.572 507.61V522.86C664.572 524.62 666.002 526.04 667.752 526.04H728.262C729.142 526.04 729.852 526.75 729.852 527.63V545.39C729.852 546.11 729.932 547.98 729.212 548.85C728.382 549.87 727.142 549.67 725.842 549.72C722.532 549.72 719.572 549.7 716.942 549.66C716.542 549.66 716.252 549.29 716.332 548.9C716.592 547.63 716.722 546.31 716.692 544.96C716.492 535.68 708.932 528.08 699.652 527.84C689.572 527.58 681.362 535.85 681.702 545.94C682.012 555.29 689.782 562.81 699.142 562.84C704.032 562.85 708.452 560.86 711.632 557.64C711.972 557.3 712.542 557.43 712.692 557.88C714.152 562.21 715.532 566.34 716.782 570.05C717.222 571.35 718.452 572.22 719.822 572.21C725.722 572.17 730.502 571.96 734.172 571.6C738.302 571.18 742.082 570.15 745.512 568.5C749.172 566.84 751.682 564.42 753.042 561.23C754.402 558.04 755.082 553.55 755.082 547.76V527.62C755.082 526.74 755.792 526.03 756.672 526.03H762.902C764.662 526.03 766.082 524.6 766.082 522.85V507.6C766.082 505.84 764.652 504.42 762.902 504.42H756.672C755.792 504.42 755.082 503.71 755.082 502.83V498.92C755.082 498.04 755.792 497.33 756.672 497.33H762.902C764.662 497.33 766.082 495.9 766.082 494.15V479.6C766.082 477.84 764.652 476.42 762.902 476.42H674.202C672.442 476.42 671.022 477.85 671.022 479.6V494.15C671.022 495.91 672.452 497.33 674.202 497.33L674.222 497.34Z" fill="black"/>
<path d="M668.822 409.439H650.252C649.392 409.439 648.572 409.789 647.972 410.399C635.222 423.349 618.282 434.569 612.122 438.479C610.772 439.329 610.272 441.059 610.942 442.499L620.692 463.569C621.622 465.569 624.252 466.049 625.822 464.499C646.112 444.459 664.442 419.799 670.112 411.959C670.872 410.909 670.112 409.439 668.822 409.439Z" fill="black"/>
<path d="M671.912 453.889V435.409C671.912 433.999 670.212 433.289 669.202 434.279C653.632 449.599 620.042 477.059 611.672 483.859C610.542 484.779 610.182 486.349 610.792 487.669L620.692 509.049C621.622 511.049 624.252 511.529 625.822 509.979C627.532 508.289 629.232 506.559 630.912 504.819C631.312 504.409 632.012 504.689 632.012 505.259V569.059C632.012 570.819 633.442 572.239 635.192 572.239H653.812C655.572 572.239 656.992 570.809 656.992 569.059V476.369C656.992 475.299 657.352 474.249 658.022 473.409C664.862 464.729 669.712 458.019 671.332 455.739C671.712 455.199 671.922 454.559 671.922 453.889H671.912Z" fill="black"/>
<path d="M653.263 623.33C640.843 623.33 634.803 628.28 634.803 638.47V655.6C634.803 665.67 640.843 670.56 653.263 670.56C659.133 670.56 663.473 669.48 666.553 667.27C669.993 664.8 671.733 660.87 671.733 655.59V638.46C671.733 628.27 665.693 623.32 653.273 623.32L653.263 623.33ZM646.083 639.3C646.083 633.93 648.833 632.91 653.263 632.91C657.693 632.91 660.443 633.95 660.443 639.3V654.68C660.443 659.95 657.593 660.98 653.263 660.98C648.933 660.98 646.083 659.98 646.083 654.68V639.3Z" fill="black"/>
<path d="M708.262 669.331H721.352L703.622 646.781L720.552 624.8H707.392L694.052 642.281V610.23H682.762V669.331H694.052V659.211L696.942 655.451L708.262 669.331Z" fill="black"/>
<path d="M754.812 624.801V653.291C754.812 659.041 751.872 660.891 746.822 660.891C743.552 660.891 740.272 660.351 740.272 653.881V624.811H728.992V656.771C728.992 665.741 733.702 670.481 742.612 670.481C749.292 670.481 753.872 666.861 755.572 662.801L757.382 669.341H766.102V624.811H754.822L754.812 624.801Z" fill="black"/>
<path d="M630.563 610.23H589.143V620.141V620.151H604.213V669.331H615.683V620.151H630.563V610.23Z" fill="black"/>
<path d="M459.681 669.331H472.771L455.041 646.781L471.971 624.8H458.811L445.471 642.281V610.23H434.191V669.331H445.471V659.211L448.361 655.451L459.681 669.331Z" fill="black"/>
<path d="M355.322 610.23H313.902V620.141V620.151H328.982V669.331H340.442V620.151H355.322V610.23Z" fill="black"/>
<path d="M421.792 658.89L421.192 659.04C417.612 659.96 413.282 660.89 409.402 660.89C404.852 660.89 401.682 658.82 401.682 652.83V640.97C401.682 634.9 404.852 632.82 409.402 632.82C413.352 632.82 417.872 633.7 421.222 634.4L421.802 634.52V625.19L421.492 625.12C417.682 624.23 412.042 623.33 407.522 623.33C402.002 623.33 397.962 624.4 395.162 626.59C391.962 629.09 390.412 633.85 390.412 639.34V654.64C390.412 664.77 396.012 670.56 407.532 670.56C411.402 670.56 417.262 669.49 421.522 668.31L421.812 668.23V658.88L421.792 658.89Z" fill="black"/>
<path d="M553.922 634.699V624.799H543.682V615.189H532.402V624.799H525.172V634.699H532.402V655.419C532.402 667.939 540.292 670.559 546.922 670.559C548.702 670.559 550.502 670.449 552.112 670.219V660.259C551.462 660.329 550.252 660.359 549.532 660.359C546.452 660.359 543.682 659.729 543.682 652.089V634.689H553.922V634.699Z" fill="black"/>
<path d="M489.733 650.741V650.561H515.163V641.481C515.163 635.571 513.543 630.241 510.353 627.341C507.413 624.671 502.773 623.311 497.253 623.311C485.073 623.311 478.453 629.221 478.453 639.591V654.451C478.453 664.701 483.833 670.551 496.313 670.551C500.973 670.551 506.283 669.561 511.963 668.401L512.353 668.321V659.051L511.703 659.201C507.133 660.251 504.613 661.141 500.283 661.141C494.073 661.141 489.733 658.621 489.733 652.201V650.721V650.741ZM489.733 639.721C489.733 634.071 493.793 632.741 497.163 632.741C500.533 632.741 504.063 634.071 504.063 639.721V643.231H489.733V642.711V639.721Z" fill="black"/>
<path d="M378.173 626.881H366.893V669.331H378.173V626.881Z" fill="black"/>
<path d="M372.532 622.22C376.415 622.22 379.562 619.073 379.562 615.19C379.562 611.308 376.415 608.16 372.532 608.16C368.649 608.16 365.502 611.308 365.502 615.19C365.502 619.073 368.649 622.22 372.532 622.22Z" fill="black"/>
<path d="M585.733 643.92H566.143V651.26H585.733V643.92Z" fill="black"/>
<path d="M348.238 1654.45H309.397C299.959 1654.45 298.023 1654.57 293.788 1655.06C294.514 1648.16 295.361 1643.92 296.934 1639.57C300.201 1630.74 305.646 1622.99 313.511 1615.85C317.746 1612.1 321.376 1609.32 333.476 1601.21C344.608 1593.59 347.996 1589.6 347.996 1583.42C347.996 1575.2 341.583 1570.11 331.298 1570.11C324.28 1570.11 318.956 1572.53 315.931 1577.25C313.874 1580.16 313.027 1582.82 312.18 1588.39L294.877 1586.33C296.571 1577.13 298.749 1572.17 303.226 1566.97C309.276 1559.95 318.835 1556.2 330.935 1556.2C352.11 1556.2 365.178 1566.36 365.178 1582.94C365.178 1590.93 362.516 1596.73 356.587 1602.3C353.199 1605.45 351.989 1606.41 336.259 1617.18C330.935 1620.93 324.885 1626.02 321.86 1629.28C318.23 1633.16 316.778 1635.58 314.963 1640.17H348.843C356.466 1640.17 362.516 1639.81 366.509 1639.21V1655.18C360.822 1654.69 355.982 1654.45 348.238 1654.45Z" fill="black"/>
<path d="M416.35 1656.39C406.065 1656.39 397.353 1653 390.94 1646.59C387.31 1642.96 384.527 1638.72 382.954 1634.37C379.808 1625.77 378.235 1616.34 378.235 1606.54C378.235 1593.71 381.139 1580.4 385.616 1573.02C392.15 1562.13 403.04 1556.2 416.471 1556.2C426.756 1556.2 435.589 1559.59 442.002 1566C445.632 1569.63 448.415 1573.87 449.988 1578.22C453.134 1586.69 454.707 1596.37 454.707 1606.29C454.707 1621.18 451.44 1634.24 445.753 1642.11C438.977 1651.55 428.934 1656.39 416.35 1656.39ZM416.471 1642.35C421.795 1642.35 426.514 1640.54 429.539 1637.27C434.984 1631.58 438.009 1620.33 438.009 1606.17C438.009 1592.14 434.984 1581.13 429.539 1575.2C426.635 1571.93 421.795 1570.11 416.35 1570.11C410.542 1570.11 406.307 1572.05 402.798 1576.29C397.474 1582.58 394.812 1592.5 394.812 1605.69C394.812 1618.39 397.111 1628.92 400.983 1634.49C404.734 1639.81 409.816 1642.35 416.471 1642.35Z" fill="black"/>
<path d="M475.025 1652.64L551.134 1555.23L557.426 1560.07L481.196 1657.6L475.025 1652.64ZM544.721 1656.39C537.945 1656.39 532.379 1654.33 528.265 1650.22C523.667 1645.74 521.247 1638.48 521.247 1629.28C521.247 1620.21 523.667 1613.07 528.265 1608.47C532.379 1604.48 538.066 1602.3 544.721 1602.3C551.376 1602.3 557.063 1604.48 561.056 1608.47C565.654 1612.95 568.074 1620.21 568.074 1629.28C568.074 1638.48 565.654 1645.74 561.056 1650.22C556.942 1654.33 551.376 1656.39 544.721 1656.39ZM544.721 1612.59C541.212 1612.59 538.913 1613.67 536.977 1616.46C534.799 1619.48 533.71 1623.6 533.71 1629.04C533.71 1640.17 537.582 1646.22 544.721 1646.22C551.981 1646.22 555.732 1640.17 555.732 1628.44C555.732 1623.6 554.522 1619.24 552.465 1616.34C550.408 1613.67 548.23 1612.59 544.721 1612.59ZM487.73 1610.41C480.954 1610.41 475.388 1608.35 471.274 1604.24C466.676 1599.76 464.256 1592.38 464.256 1583.3C464.256 1566.36 472.968 1556.32 487.73 1556.32C494.385 1556.32 500.072 1558.5 504.065 1562.49C508.663 1566.97 511.083 1574.23 511.083 1583.3C511.083 1592.5 508.663 1599.76 504.065 1604.24C499.951 1608.35 494.385 1610.41 487.73 1610.41ZM487.73 1566.61C480.712 1566.61 476.719 1572.53 476.719 1583.06C476.719 1594.19 480.591 1600.24 487.73 1600.24C494.748 1600.24 498.741 1594.19 498.741 1583.3C498.741 1578.95 497.894 1574.59 496.563 1572.05C494.506 1568.3 491.723 1566.61 487.73 1566.61Z" fill="black"/>
<path d="M623.077 1556.2C636.387 1556.2 646.672 1560.07 654.9 1568.3C663.733 1577.13 668.452 1590.32 668.452 1606.05C668.452 1636.66 650.665 1656.51 623.198 1656.51C595.731 1656.51 578.065 1636.79 578.065 1606.05C578.065 1590.44 582.905 1577.01 591.859 1568.3C600.208 1560.07 610.251 1556.2 623.077 1556.2ZM623.44 1642.11C640.743 1642.11 651.512 1628.32 651.512 1606.05C651.512 1593.83 648.124 1584.03 641.953 1577.86C636.992 1573.02 630.579 1570.48 623.319 1570.48C605.895 1570.48 594.884 1584.27 594.884 1606.17C594.884 1618.27 598.393 1628.44 604.685 1634.73C609.646 1639.57 616.059 1642.11 623.44 1642.11Z" fill="black"/>
<path d="M699.657 1612.83V1637.03C699.657 1645.62 699.899 1649.85 700.625 1654.45H682.596C683.322 1650.34 683.564 1645.26 683.564 1637.27V1573.5C683.564 1566.85 683.322 1563.34 682.596 1557.77C687.557 1558.01 690.582 1558.14 697.963 1558.14H731.843C739.466 1558.14 743.338 1557.89 748.42 1557.29V1573.62C744.064 1573.02 739.587 1572.78 731.843 1572.78H699.657V1598.43H725.551C733.053 1598.43 737.288 1598.19 742.007 1597.58V1613.67C737.53 1613.07 732.932 1612.83 725.551 1612.83H699.657Z" fill="black"/>
<path d="M777.527 1612.83V1637.03C777.527 1645.62 777.769 1649.85 778.495 1654.45H760.466C761.192 1650.34 761.434 1645.26 761.434 1637.27V1573.5C761.434 1566.85 761.192 1563.34 760.466 1557.77C765.427 1558.01 768.452 1558.14 775.833 1558.14H809.713C817.336 1558.14 821.208 1557.89 826.29 1557.29V1573.62C821.934 1573.02 817.457 1572.78 809.713 1572.78H777.527V1598.43H803.421C810.923 1598.43 815.158 1598.19 819.877 1597.58V1613.67C815.4 1613.07 810.802 1612.83 803.421 1612.83H777.527Z" fill="black"/>
<path d="M190.695 1420.18V1414.27C192.279 1414.56 193.287 1414.61 196.311 1414.61H213.063C216.087 1414.61 217.095 1414.56 218.679 1414.27V1420.18C217.191 1419.98 216.279 1419.94 213.159 1419.94H196.215C193.095 1419.94 192.183 1419.98 190.695 1420.18ZM221.127 1425.74L223.863 1428.82C223.383 1429.68 223.095 1430.35 222.519 1431.84C220.023 1438.9 216.375 1444.22 211.383 1448.06C207.975 1450.7 204.855 1452.34 198.807 1454.59C197.751 1452.19 197.175 1451.38 195.063 1449.02C200.919 1447.54 204.711 1445.76 208.407 1442.69C211.959 1439.71 214.023 1436.78 216.135 1431.46H192.759C189.543 1431.46 188.343 1431.5 186.615 1431.7V1425.84C188.439 1426.13 189.495 1426.18 192.855 1426.18H215.703C218.679 1426.18 219.639 1426.08 221.127 1425.74Z" fill="black"/>
<path d="M269.271 1419.94L272.055 1422.77C271.623 1423.68 271.575 1423.97 271.335 1425.41C270.519 1430.93 269.799 1433.62 268.311 1437.02C265.959 1442.54 262.119 1446.82 256.455 1450.27C253.575 1452.05 251.079 1453.15 246.903 1454.59C245.799 1452.14 245.223 1451.28 243.063 1448.88C247.623 1447.78 250.263 1446.77 253.287 1444.9C260.247 1440.58 263.895 1434.48 264.807 1425.65H241.383V1431.84C241.383 1433.33 241.431 1434.62 241.527 1435.68H235.095C235.239 1434.48 235.335 1432.99 235.335 1431.65V1424.69C235.335 1422.67 235.287 1421.42 235.143 1420.13C236.823 1420.32 237.687 1420.37 240.327 1420.37H249.735V1416.24C249.735 1414.7 249.687 1413.84 249.495 1412.74H256.167C256.023 1413.55 255.927 1414.85 255.927 1416.19V1420.32H264.567C268.119 1420.32 268.119 1420.32 269.271 1419.94Z" fill="black"/>
<path d="M282.855 1421.18L286.839 1416.43C292.551 1419.98 295.527 1422.19 299.223 1425.7L295.095 1430.93C291.255 1426.85 287.319 1423.68 282.855 1421.18ZM284.535 1452.86L282.759 1446.24C286.887 1446 292.599 1444.61 296.967 1442.69C302.967 1440.1 307.431 1436.4 311.223 1430.93C313.335 1427.86 314.679 1425.22 316.119 1421.33C317.991 1423.58 318.759 1424.3 321.207 1426.03C317.127 1434.82 312.567 1440.48 305.991 1444.85C301.095 1448.11 295.143 1450.46 287.703 1452.05C285.783 1452.43 285.639 1452.48 284.535 1452.86Z" fill="black"/>
<path d="M333.303 1419.17L336.423 1414.27C340.935 1416 345.735 1418.3 349.191 1420.46L346.119 1425.74C342.231 1423.1 336.807 1420.27 333.303 1419.17ZM329.511 1430.83L332.727 1425.89C337.191 1427.66 341.895 1430.06 345.495 1432.42L342.519 1437.84C339.351 1435.39 333.927 1432.46 329.511 1430.83ZM358.023 1414.99L361.383 1413.31C363.495 1415.57 364.791 1417.39 366.423 1420.37L363.063 1422.14C361.479 1419.22 360.135 1417.3 358.023 1414.99ZM332.247 1453.97L330.567 1447.39C334.311 1447.34 339.351 1446.24 344.439 1444.27C353.223 1441.2 360.423 1433.33 363.879 1423.1C365.751 1425.12 366.663 1425.89 368.871 1427.38C362.919 1441.92 352.791 1449.79 335.607 1453.15C333.543 1453.58 333.159 1453.68 332.247 1453.97ZM372.135 1417.25L368.823 1419.12C367.383 1416.48 365.799 1414.22 363.927 1412.16L367.143 1410.48C369.303 1412.69 370.647 1414.51 372.135 1417.25Z" fill="black"/>
<path d="M382.551 1421.57L382.983 1415.86C386.679 1416.72 390.951 1417.06 397.383 1417.06C403.479 1417.06 406.887 1416.82 410.055 1416.14L410.247 1421.57C407.367 1422.82 401.463 1426.51 397.431 1429.49L393.255 1426.18C396.279 1424.26 396.807 1423.92 398.007 1423.25C398.487 1422.96 398.631 1422.86 399.255 1422.48C399.639 1422.29 399.687 1422.29 400.311 1421.9C398.199 1422.19 396.135 1422.29 393.111 1422.29C390.663 1422.29 386.679 1422.05 384.327 1421.71C383.751 1421.66 383.415 1421.62 383.223 1421.62C383.127 1421.62 382.887 1421.57 382.551 1421.57ZM386.103 1432.42L390.279 1435.58C387.255 1438.13 385.911 1440.14 385.911 1442.21C385.911 1445.33 389.415 1446.67 397.527 1446.67C403.239 1446.67 409.527 1445.81 412.599 1444.61L413.127 1451.18C412.263 1451.23 412.119 1451.23 411.015 1451.38C405.255 1452.24 402.183 1452.48 398.055 1452.48C392.823 1452.48 388.599 1451.95 386.055 1450.9C381.927 1449.26 379.911 1446.62 379.911 1442.88C379.911 1439.18 381.783 1436.02 386.103 1432.42ZM419.079 1430.45L415.767 1432.32C414.327 1429.68 412.743 1427.42 410.871 1425.36L414.087 1423.68C416.247 1425.89 417.591 1427.71 419.079 1430.45ZM404.967 1428.19L408.327 1426.51C410.439 1428.77 411.735 1430.59 413.367 1433.57L410.007 1435.34C408.423 1432.42 407.079 1430.5 404.967 1428.19Z" fill="black"/>
<path d="M432.711 1424.78V1419.74C429.591 1420.37 428.583 1420.51 425.703 1420.94C425.319 1419.31 424.839 1418.16 423.927 1416.34C431.847 1415.52 439.431 1413.65 442.407 1411.73L445.527 1416.14C442.071 1417.34 439.863 1418.02 437.751 1418.59V1424.78H441.591C443.319 1424.78 444.519 1424.74 445.623 1424.54V1429.78C444.423 1429.58 443.271 1429.54 441.495 1429.54H437.991C439.863 1432.99 442.119 1435.63 445.671 1438.51C444.711 1439.81 443.751 1441.63 443.127 1443.22C440.295 1440.34 439.239 1438.85 437.511 1435.54C437.655 1437.17 437.751 1439.14 437.751 1441.58V1449.94C437.751 1452.96 437.799 1454.35 438.039 1456.03H432.327C432.567 1454.26 432.663 1452.67 432.663 1449.94V1441.92C432.663 1440 432.759 1437.79 432.903 1436.16C431.511 1439.66 430.839 1441.01 429.639 1442.93C428.295 1444.99 427.287 1446.29 425.463 1448.21C424.503 1445.95 423.783 1444.61 422.775 1443.17C424.839 1441.25 426.375 1439.38 428.007 1436.74C429.255 1434.72 431.127 1431.17 431.751 1429.54H428.295C426.423 1429.54 425.223 1429.63 423.879 1429.82V1424.5C425.127 1424.74 426.231 1424.78 428.391 1424.78H432.711ZM448.071 1415.23H453.831C453.591 1416.82 453.543 1418.21 453.543 1421.04V1439.18C453.543 1442.26 453.591 1443.46 453.783 1444.9H448.119C448.311 1443.5 448.359 1442.5 448.359 1439.28V1421.04C448.359 1418.26 448.311 1416.91 448.071 1415.23ZM459.399 1412.35H465.255C465.015 1414.27 464.919 1416.14 464.919 1418.88V1449.74C464.919 1452.29 464.295 1453.68 462.759 1454.5C461.607 1455.12 459.975 1455.31 456.087 1455.31C454.887 1455.31 454.167 1455.31 452.535 1455.22C452.151 1453.06 451.767 1451.95 450.903 1449.89C453.639 1450.18 455.463 1450.32 457.239 1450.32C459.351 1450.32 459.687 1450.13 459.687 1448.88V1418.88C459.687 1416.48 459.591 1414.46 459.399 1412.35Z" fill="black"/>
<path d="M490.935 1440.86H479.895C479.223 1447.25 477.783 1451.76 474.999 1456.03C472.983 1454.11 472.311 1453.58 470.343 1452.24C472.071 1449.74 473.175 1447.2 473.847 1444.13C474.327 1441.87 474.663 1439.38 474.807 1436.78C475.047 1432.75 475.239 1425.94 475.239 1420.27C475.239 1416.82 475.191 1415.28 474.999 1413.31C476.679 1413.46 477.927 1413.5 480.519 1413.5H507.447C510.135 1413.5 511.479 1413.46 512.967 1413.31C512.823 1414.94 512.775 1416.14 512.775 1418.74V1450.27C512.775 1454.26 511.335 1455.26 505.863 1455.26C504.375 1455.26 501.927 1455.17 500.487 1455.07C500.247 1453.25 499.911 1452.1 499.143 1450.08C501.543 1450.32 503.655 1450.46 505.191 1450.46C507.159 1450.46 507.591 1450.27 507.591 1449.26V1440.86H496.071V1448.74C496.071 1451.52 496.119 1453.06 496.311 1454.45H490.647C490.839 1453.01 490.935 1451.62 490.935 1448.78V1440.86ZM490.935 1436.11V1429.54H480.327C480.327 1430.93 480.279 1431.89 480.279 1432.56C480.231 1434.82 480.231 1435.15 480.231 1436.11H490.935ZM496.071 1436.11H507.591V1429.54H496.071V1436.11ZM490.935 1424.83V1418.54H480.471V1423.49L480.423 1424.83H490.935ZM496.071 1424.83H507.591V1418.54H496.071V1424.83Z" fill="black"/>
<path d="M544.743 1421.23C543.831 1428.77 542.151 1435.39 539.751 1440.82C537.015 1447.01 533.943 1449.84 530.007 1449.84C524.535 1449.84 520.599 1444.27 520.599 1436.54C520.599 1431.26 522.471 1426.32 525.879 1422.58C529.911 1418.16 535.575 1415.86 542.391 1415.86C553.911 1415.86 561.399 1422.86 561.399 1433.66C561.399 1441.97 557.079 1448.59 549.735 1451.57C547.431 1452.53 545.559 1453.01 542.199 1453.58C541.383 1451.04 540.807 1449.98 539.271 1447.97C543.687 1447.39 546.567 1446.62 548.823 1445.33C552.999 1443.02 555.495 1438.46 555.495 1433.33C555.495 1428.72 553.431 1424.98 549.591 1422.67C548.103 1421.81 546.855 1421.42 544.743 1421.23ZM538.887 1421.28C536.391 1421.57 534.663 1422.24 532.695 1423.63C528.663 1426.51 526.167 1431.46 526.167 1436.59C526.167 1440.53 527.847 1443.65 529.959 1443.65C531.543 1443.65 533.175 1441.63 534.903 1437.5C536.727 1433.18 538.311 1426.7 538.887 1421.28Z" fill="black"/>
<path d="M585.879 1418.69V1415.76C585.879 1414.18 585.783 1412.93 585.543 1411.78H591.735C591.543 1412.78 591.447 1414.03 591.447 1415.76V1418.69H604.647C607.335 1418.69 609.063 1418.59 610.695 1418.35V1424.16C609.207 1423.97 607.719 1423.87 604.839 1423.87H587.271C587.031 1427.47 587.031 1427.62 586.887 1429.06H600.183C602.679 1429.06 604.023 1429.01 605.127 1428.82C605.127 1429.06 605.127 1429.2 605.079 1429.3C604.983 1430.02 604.983 1430.59 604.887 1432.66C604.695 1439.86 604.071 1446.05 603.255 1449.5C602.151 1454.06 600.567 1455.26 595.767 1455.26C594.087 1455.26 592.983 1455.22 589.287 1454.93C589.095 1452.72 588.711 1451.14 587.895 1449.36C590.679 1449.79 592.887 1449.98 595.095 1449.98C597.207 1449.98 597.687 1449.46 598.311 1446.14C598.887 1443.26 599.175 1440.24 599.367 1434.1H586.119C584.103 1443.74 579.783 1449.89 570.711 1455.84C569.511 1453.73 568.599 1452.67 566.823 1451.28C571.047 1448.64 573.111 1446.96 575.415 1444.18C579.543 1439.23 581.175 1433.66 581.415 1423.87H573.543C571.143 1423.87 569.175 1423.97 567.543 1424.16V1418.35C569.271 1418.59 571.095 1418.69 573.543 1418.69H585.879Z" fill="black"/>
<path d="M640.743 1421.23C639.831 1428.77 638.151 1435.39 635.751 1440.82C633.015 1447.01 629.943 1449.84 626.007 1449.84C620.535 1449.84 616.599 1444.27 616.599 1436.54C616.599 1431.26 618.471 1426.32 621.879 1422.58C625.911 1418.16 631.575 1415.86 638.391 1415.86C649.911 1415.86 657.399 1422.86 657.399 1433.66C657.399 1441.97 653.079 1448.59 645.735 1451.57C643.431 1452.53 641.559 1453.01 638.199 1453.58C637.383 1451.04 636.807 1449.98 635.271 1447.97C639.687 1447.39 642.567 1446.62 644.823 1445.33C648.999 1443.02 651.495 1438.46 651.495 1433.33C651.495 1428.72 649.431 1424.98 645.591 1422.67C644.103 1421.81 642.855 1421.42 640.743 1421.23ZM634.887 1421.28C632.391 1421.57 630.663 1422.24 628.695 1423.63C624.663 1426.51 622.167 1431.46 622.167 1436.59C622.167 1440.53 623.847 1443.65 625.959 1443.65C627.543 1443.65 629.175 1441.63 630.903 1437.5C632.727 1433.18 634.311 1426.7 634.887 1421.28Z" fill="black"/>
<path d="M685.191 1437.17V1426.85C685.191 1424.21 685.143 1423.3 684.951 1422.1H690.423C690.279 1423.2 690.231 1424.21 690.231 1426.85V1427.42H700.311C702.759 1427.42 704.295 1427.33 705.399 1427.14V1432.42C704.007 1432.22 702.375 1432.13 700.503 1432.13H690.231V1437.17H699.015C701.031 1437.17 702.087 1437.12 703.239 1436.98C703.095 1438.51 703.047 1439.76 703.047 1441.82V1449.65C703.047 1452.62 703.095 1454.35 703.335 1455.89H697.863V1453.82H680.103V1455.84H674.679C674.871 1454.5 674.967 1452.58 674.967 1449.94V1441.2C674.967 1439.42 674.919 1438.22 674.775 1436.98C675.975 1437.12 677.031 1437.17 679.047 1437.17H685.191ZM680.103 1441.97V1449.07H697.863V1441.97H680.103ZM683.367 1416.1V1414.32C683.367 1413.02 683.271 1412.26 683.127 1411.39H688.887C688.695 1412.16 688.647 1412.98 688.647 1414.37V1416.1H700.551C703.383 1416.1 705.303 1416 706.599 1415.81V1421.14C705.159 1420.99 702.999 1420.9 700.647 1420.9H672.231C672.279 1441.25 671.127 1448.5 666.711 1455.7C665.271 1453.92 664.551 1453.2 662.439 1451.57C664.359 1448.59 665.271 1446 666.039 1441.82C666.759 1437.74 667.047 1432.61 667.047 1423.15C667.047 1419.07 666.999 1417.54 666.855 1415.86C668.535 1416 670.359 1416.1 672.519 1416.1H683.367Z" fill="black"/>
<path d="M736.743 1446.53H736.167C734.679 1446.53 734.007 1446.53 732.375 1446.62C732.423 1445.04 732.519 1442.93 732.519 1441.82V1426.08C732.519 1424.21 732.471 1422.91 732.375 1421.57C733.527 1421.71 734.343 1421.71 736.455 1421.71H738.663C739.335 1420.27 739.719 1419.31 740.055 1418.16H736.887C734.487 1418.16 733.239 1418.21 731.799 1418.4V1413.22C733.143 1413.41 734.775 1413.5 737.511 1413.5H749.031C751.671 1413.5 753.399 1413.41 754.647 1413.22V1418.4C753.159 1418.21 752.007 1418.16 749.511 1418.16H745.239C744.807 1419.31 744.279 1420.61 743.799 1421.71H748.167C750.711 1421.71 751.815 1421.66 752.871 1421.57C752.775 1422.91 752.727 1424.06 752.727 1425.79V1441.87C752.727 1443.55 752.775 1445.09 752.919 1446.67C751.623 1446.58 750.135 1446.53 748.743 1446.53H747.495C750.087 1449.02 752.391 1450.51 756.279 1452.34C754.455 1454.11 754.167 1454.4 752.439 1456.51C748.359 1454.06 746.391 1452.48 743.127 1449.07L746.775 1446.53H737.319L740.967 1449.26C737.127 1452.96 735.399 1454.21 730.935 1456.42C729.063 1454.26 729.063 1454.26 727.143 1452.48C730.455 1451.23 732.423 1450.13 734.823 1448.3C735.495 1447.78 735.879 1447.44 736.743 1446.53ZM737.271 1426.08V1428.58H747.927V1426.08H737.271ZM737.271 1432.66V1435.2H747.927V1432.66H737.271ZM737.271 1439.33V1442.06H747.927V1439.33H737.271ZM712.071 1454.74L710.871 1449.36C713.223 1449.26 716.679 1448.74 720.999 1447.73C722.535 1444.03 723.687 1440.43 724.215 1437.46L729.303 1438.75C728.871 1439.86 728.871 1439.86 728.151 1441.82C727.527 1443.65 726.999 1444.9 726.327 1446.38C728.007 1445.86 728.631 1445.66 730.791 1444.94V1449.6C726.663 1451.14 720.471 1452.86 714.903 1454.02C713.271 1454.4 712.887 1454.5 712.071 1454.74ZM711.399 1418.3V1413.12C712.983 1413.31 714.423 1413.41 716.871 1413.41H724.887C727.287 1413.41 728.679 1413.31 730.263 1413.12V1418.26C728.679 1418.11 727.431 1418.06 725.175 1418.06H716.535C714.039 1418.06 713.127 1418.11 711.399 1418.3ZM713.031 1431.46V1426.37C713.031 1424.21 712.983 1423.01 712.839 1421.47C714.231 1421.62 715.623 1421.66 717.879 1421.66H724.551C727.287 1421.66 728.055 1421.62 729.495 1421.47C729.351 1422.91 729.303 1423.68 729.303 1426.27V1431.7C729.303 1434.34 729.351 1435.15 729.495 1436.35C727.863 1436.26 726.471 1436.21 724.887 1436.21H717.591C715.767 1436.21 714.327 1436.26 712.839 1436.4C712.983 1434.77 713.031 1433.62 713.031 1431.46ZM717.831 1425.79V1432.03H724.551V1425.79H717.831ZM720.807 1445.62L716.151 1447.39C715.287 1443.94 714.519 1441.78 713.127 1438.9L717.639 1437.17C719.079 1440.14 719.799 1442.02 720.807 1445.62Z" fill="black"/>
<path d="M776.007 1431.02V1432.08C774.855 1431.94 774.135 1431.89 772.455 1431.89H770.919C771.255 1432.7 771.591 1433.38 772.359 1434.58C773.991 1437.31 774.951 1438.51 777.111 1440.53C775.911 1442.69 775.911 1442.69 775.047 1445.04C772.935 1442.5 772.167 1441.25 770.535 1437.6C770.679 1439.18 770.823 1441.73 770.823 1443.41V1450.9C770.823 1453.34 770.919 1454.78 771.111 1456.08H765.735C765.927 1454.74 765.975 1453.25 765.975 1450.9V1445.33C765.975 1444.18 766.119 1442.16 766.359 1439.23C765.015 1443.6 763.383 1447.01 761.223 1449.94C760.647 1448.3 759.495 1446 758.727 1445.04C761.511 1441.73 764.055 1436.83 765.495 1431.89H763.479C761.703 1431.89 760.743 1431.94 759.783 1432.08V1427.09C760.647 1427.23 761.319 1427.28 763.383 1427.28H765.975V1416.34C765.975 1414.13 765.927 1412.74 765.735 1411.54H771.063C770.919 1412.54 770.823 1414.03 770.823 1416.29V1427.28H772.455C773.703 1427.28 774.087 1427.28 775.431 1427.18V1426.46C776.487 1426.7 777.735 1426.75 780.279 1426.75H786.519V1424.59H782.199C780.279 1424.59 779.463 1424.64 778.167 1424.78V1420.75C779.415 1420.9 780.279 1420.94 782.247 1420.94H786.519V1418.93H781.623C779.415 1418.93 778.455 1418.98 777.111 1419.17V1416C776.151 1420.8 775.815 1422.14 774.615 1425.65L771.255 1424.16C772.263 1421.28 772.791 1418.74 773.271 1414.51L777.111 1415.95V1414.61C778.503 1414.8 779.751 1414.9 781.959 1414.9H786.519C786.519 1413.46 786.471 1412.74 786.279 1411.63H791.559C791.319 1412.78 791.271 1413.41 791.271 1414.9H797.271C799.527 1414.9 800.727 1414.85 802.167 1414.61V1419.17C800.823 1418.98 799.575 1418.93 797.511 1418.93H791.271V1420.94H796.503C798.567 1420.94 799.383 1420.9 800.487 1420.75V1424.78C799.095 1424.64 798.423 1424.59 796.407 1424.59H791.271V1426.75H798.471C800.823 1426.75 801.927 1426.7 803.223 1426.46V1431.07C801.879 1430.88 800.727 1430.83 798.471 1430.83H780.279C778.359 1430.83 777.015 1430.88 776.007 1431.02ZM782.871 1448.45V1450.61C782.871 1452.96 782.967 1454.64 783.111 1456.08H777.879C778.071 1454.54 778.119 1453.39 778.119 1450.61V1436.5C778.119 1434.67 778.071 1433.76 777.975 1432.42C779.127 1432.51 780.135 1432.56 781.815 1432.56H796.119C798.279 1432.56 799.431 1432.51 800.439 1432.37C800.295 1433.62 800.247 1435.01 800.247 1437.31V1451.09C800.247 1452.96 799.911 1453.97 799.143 1454.69C798.183 1455.5 797.127 1455.74 794.151 1455.74C793.335 1455.74 792.759 1455.74 790.311 1455.6C790.023 1453.25 789.927 1452.86 789.207 1450.8C791.223 1451.14 792.375 1451.23 793.719 1451.23C795.207 1451.23 795.495 1451.04 795.495 1450.03V1448.45H782.871ZM782.871 1444.61H795.495V1442.45H782.871V1444.61ZM782.871 1438.7H795.495V1436.59H782.871V1438.7ZM759.063 1415.95L762.807 1414.51C764.007 1417.97 764.727 1420.66 765.447 1424.16L761.703 1425.74C760.887 1421.57 760.311 1419.5 759.063 1415.95Z" fill="black"/>
<path d="M818.007 1418.83H815.511C813.639 1421.52 812.391 1422.96 810.279 1424.93C809.367 1423.54 808.215 1422.24 806.871 1420.99C809.223 1419.02 810.519 1417.63 811.959 1415.52C813.303 1413.6 813.927 1412.26 814.263 1410.96L819.303 1412.16C819.159 1412.45 818.775 1413.22 818.103 1414.51H824.103C826.167 1414.51 827.463 1414.42 828.615 1414.22V1418.4C830.823 1415.81 832.215 1413.36 832.935 1410.82L837.927 1412.11C837.447 1413.07 837.447 1413.07 836.727 1414.51H845.847C848.103 1414.51 849.495 1414.42 850.743 1414.22V1419.07C849.351 1418.88 847.959 1418.83 845.847 1418.83H842.103C843.111 1420.42 843.303 1420.66 843.927 1421.86L840.759 1422.91C843.207 1422.91 844.119 1422.86 845.367 1422.77C845.271 1424.06 845.223 1425.55 845.223 1428V1436.98C845.223 1439.66 845.271 1440.96 845.415 1442.06C843.879 1441.97 842.967 1441.92 840.327 1441.92H839.127V1443.98H845.175C847.767 1443.98 849.399 1443.89 850.743 1443.7V1448.59C849.159 1448.4 847.431 1448.3 845.175 1448.3H839.127V1451.66C839.127 1453.39 839.223 1454.59 839.415 1455.98H833.847C834.039 1454.78 834.135 1453.54 834.135 1451.66V1448.3H824.487C823.479 1450.85 822.087 1452.58 819.831 1453.92C817.767 1455.12 815.943 1455.74 812.247 1456.51C811.479 1454.98 810.807 1454.02 809.223 1452.14C812.967 1451.71 813.543 1451.62 814.983 1451.18C817.095 1450.51 818.295 1449.7 819.255 1448.3H812.919C810.807 1448.3 809.175 1448.4 807.495 1448.59V1443.7C808.935 1443.89 810.519 1443.98 812.919 1443.98H820.359C820.407 1443.22 820.407 1442.88 820.407 1441.92H818.391C815.799 1441.92 814.887 1441.97 813.303 1442.06C813.447 1440.86 813.495 1439.71 813.495 1437.26V1426.22C813.495 1424.78 813.447 1423.87 813.399 1422.77C814.455 1422.86 815.223 1422.91 817.239 1422.91H819.975C819.303 1421.14 818.871 1420.27 818.007 1418.83ZM824.583 1418.83H822.807C823.575 1419.98 823.863 1420.51 824.583 1421.9L821.175 1422.91H829.863C828.855 1421.86 828.135 1421.33 826.599 1420.42C827.319 1419.74 827.559 1419.55 828.135 1418.93C827.175 1418.88 825.975 1418.83 824.583 1418.83ZM831.015 1422.91H839.415C838.551 1421.04 838.215 1420.42 837.159 1418.83H834.231C833.079 1420.51 832.119 1421.76 831.015 1422.91ZM825.303 1443.98H834.135V1441.92H825.399C825.399 1442.83 825.399 1443.12 825.303 1443.98ZM818.391 1426.46V1428.14H840.279V1426.46H818.391ZM818.391 1431.46V1433.23H840.279V1431.46H818.391ZM818.391 1436.54V1438.32H840.279V1436.54H818.391Z" fill="black"/>
<path d="M858.279 1422.96L858.375 1417.49C860.343 1417.92 863.415 1418.11 869.511 1418.11C870.807 1415.23 871.239 1413.79 871.431 1412.16L877.719 1412.83C877.431 1413.31 877.431 1413.31 875.799 1417.15C875.559 1417.68 875.463 1417.82 875.367 1418.02C875.751 1417.97 875.751 1417.97 878.391 1417.82C883.959 1417.49 888.327 1416.96 890.967 1416.19L891.303 1421.66C889.959 1421.76 889.959 1421.76 887.511 1422.05C884.007 1422.48 877.911 1422.86 873.063 1423.01C871.671 1425.74 870.327 1427.66 868.647 1429.39L868.695 1429.49C869.031 1429.25 869.031 1429.25 869.655 1428.77C871.431 1427.42 873.975 1426.61 876.423 1426.61C880.167 1426.61 882.519 1428.38 883.287 1431.7C886.983 1430.35 889.431 1429.49 890.631 1429.1C893.223 1428.19 893.415 1428.14 894.183 1427.66L896.439 1433.18C895.095 1433.38 893.655 1433.76 891.111 1434.48C890.439 1434.67 888.039 1435.49 883.911 1436.93V1437.46C883.959 1438.7 883.959 1438.7 883.959 1439.38C883.959 1439.86 883.959 1440.67 883.959 1441.3C883.911 1442.11 883.911 1442.54 883.911 1442.88C883.911 1443.94 883.959 1444.61 884.055 1445.42L878.487 1445.57C878.679 1444.7 878.775 1442.26 878.775 1440C878.775 1439.33 878.775 1439.33 878.775 1438.85C876.423 1439.95 875.175 1440.62 874.167 1441.34C872.487 1442.59 871.671 1443.89 871.671 1445.28C871.671 1447.78 873.975 1448.78 879.783 1448.78C885.543 1448.78 890.487 1448.06 893.895 1446.77L894.375 1452.96C893.559 1452.96 893.319 1453.01 892.167 1453.15C888.711 1453.68 884.103 1454.02 879.879 1454.02C874.791 1454.02 871.623 1453.44 869.175 1452C866.967 1450.75 865.671 1448.45 865.671 1445.81C865.671 1443.84 866.247 1442.3 867.783 1440.48C869.943 1437.79 872.679 1435.97 878.103 1433.71C877.863 1431.94 876.903 1431.12 875.175 1431.12C872.391 1431.12 869.031 1432.8 865.335 1436.06C863.319 1437.74 862.215 1438.94 861.159 1440.43L856.791 1436.11C858.039 1435.15 859.431 1433.81 861.111 1431.84C862.983 1429.63 865.911 1425.46 866.871 1423.63C867.063 1423.25 867.063 1423.25 867.255 1423.01C867.063 1423.01 866.439 1423.06 866.439 1423.06C865.671 1423.06 861.447 1422.96 860.391 1422.96C859.479 1422.91 859.479 1422.91 859.047 1422.91C858.903 1422.91 858.615 1422.91 858.279 1422.96Z" fill="black"/>
<path d="M307.106 1270.82H297.518C297.858 1267.89 297.994 1265.65 297.994 1261.98V1240.62C297.994 1236.34 297.858 1234.37 297.518 1231.78H306.63V1235.25C306.63 1235.66 306.63 1236.68 306.562 1237.77C308.534 1233.62 313.566 1230.97 319.21 1230.97C322.882 1230.97 325.874 1231.99 327.982 1234.03C329.206 1235.12 329.75 1236 330.566 1238.11C332.878 1235.05 334.17 1233.82 336.278 1232.74C338.522 1231.51 340.834 1230.97 343.894 1230.97C348.246 1230.97 351.782 1232.33 354.094 1234.84C356.338 1237.29 357.29 1240.35 357.29 1245.18V1261.98C357.29 1265.78 357.426 1268.03 357.834 1270.82H347.906C348.314 1268.03 348.45 1265.99 348.45 1261.98V1246.74C348.45 1240.76 346.342 1238.04 341.786 1238.04C339.542 1238.04 337.842 1238.65 336.21 1240.08C333.83 1242.12 332.742 1244.3 331.926 1248.51V1261.98C331.926 1265.72 332.062 1268.03 332.402 1270.82H322.61C323.018 1267.96 323.154 1265.85 323.154 1261.98V1246.74C323.154 1241.03 320.978 1238.18 316.558 1238.18C313.702 1238.18 311.39 1239.33 309.554 1241.71C308.058 1243.68 307.378 1245.25 306.63 1248.51V1261.98C306.63 1265.65 306.766 1267.69 307.106 1270.82Z" fill="black"/>
<path d="M392.022 1270.82V1266.4C389.302 1268.98 387.602 1269.93 384.814 1270.68C382.842 1271.22 380.666 1271.5 378.49 1271.5C370.194 1271.5 365.162 1267.21 365.162 1260.07C365.162 1255.31 368.154 1251.03 372.846 1249.06C377.266 1247.22 382.298 1246.54 392.022 1246.34V1242.87C392.022 1238.92 389.37 1236.88 384.202 1236.88C381.482 1236.88 378.694 1237.63 377.13 1238.86C375.838 1239.81 375.226 1240.76 374.41 1243.21L365.706 1241.64C367.27 1237.7 368.494 1235.93 371.078 1234.1C374.41 1231.65 378.218 1230.63 384.066 1230.63C390.594 1230.63 394.538 1231.78 397.462 1234.64C399.774 1236.82 400.658 1239.4 400.658 1244.02V1262.32C400.658 1265.92 400.794 1267.76 401.202 1270.82H392.022ZM392.022 1255.65V1252.25C379.034 1252.52 373.934 1254.77 373.934 1260.07C373.934 1263.27 376.314 1265.24 380.122 1265.24C383.726 1265.24 387.262 1263.88 389.574 1261.64C391.206 1260 392.022 1258.03 392.022 1255.65Z" fill="black"/>
<path d="M408.464 1277.07L415.264 1272.38C417.916 1276.05 420.908 1277.55 425.804 1277.55C431.04 1277.55 435.052 1275.71 436.956 1272.45C438.112 1270.41 438.588 1268.03 438.724 1263.4C435.324 1267.69 431.312 1269.59 425.396 1269.59C414.584 1269.59 407.648 1262.18 407.648 1250.55C407.648 1238.79 414.788 1231.17 425.804 1231.17C431.856 1231.17 435.868 1233.01 438.792 1237.16C438.656 1235.8 438.656 1235.66 438.656 1234.91V1231.78H447.768C447.428 1234.71 447.292 1236.61 447.292 1240.28V1263.06C447.292 1271.22 445.524 1276.46 441.58 1279.79C438.18 1282.58 432.536 1284.14 425.532 1284.14C417.576 1284.14 413.088 1282.31 408.464 1277.07ZM416.556 1250.76C416.556 1254.77 417.644 1258.1 419.684 1260.14C421.384 1261.98 424.308 1263.2 426.892 1263.2C430.632 1263.2 434.44 1261.02 436.344 1257.83C437.636 1255.72 438.248 1253.2 438.248 1250.08C438.248 1245.72 436.888 1242.32 434.168 1240.01C432.264 1238.45 430.02 1237.56 427.572 1237.56C420.772 1237.56 416.556 1242.66 416.556 1250.76Z" fill="black"/>
<path d="M465.95 1270.82H456.362C456.702 1267.89 456.838 1265.65 456.838 1261.98V1240.62C456.838 1236.34 456.702 1234.37 456.362 1231.78H465.474V1235.25C465.474 1235.66 465.474 1236.68 465.406 1237.77C467.378 1233.62 472.41 1230.97 478.054 1230.97C481.726 1230.97 484.718 1231.99 486.826 1234.03C488.05 1235.12 488.594 1236 489.41 1238.11C491.722 1235.05 493.014 1233.82 495.122 1232.74C497.366 1231.51 499.678 1230.97 502.738 1230.97C507.09 1230.97 510.626 1232.33 512.938 1234.84C515.182 1237.29 516.134 1240.35 516.134 1245.18V1261.98C516.134 1265.78 516.27 1268.03 516.678 1270.82H506.75C507.158 1268.03 507.294 1265.99 507.294 1261.98V1246.74C507.294 1240.76 505.186 1238.04 500.63 1238.04C498.386 1238.04 496.686 1238.65 495.054 1240.08C492.674 1242.12 491.586 1244.3 490.77 1248.51V1261.98C490.77 1265.72 490.906 1268.03 491.246 1270.82H481.454C481.862 1267.96 481.998 1265.85 481.998 1261.98V1246.74C481.998 1241.03 479.822 1238.18 475.402 1238.18C472.546 1238.18 470.234 1239.33 468.398 1241.71C466.902 1243.68 466.222 1245.25 465.474 1248.51V1261.98C465.474 1265.65 465.61 1267.69 465.95 1270.82Z" fill="black"/>
<path d="M550.866 1270.82V1266.4C548.146 1268.98 546.446 1269.93 543.658 1270.68C541.686 1271.22 539.51 1271.5 537.334 1271.5C529.038 1271.5 524.006 1267.21 524.006 1260.07C524.006 1255.31 526.998 1251.03 531.69 1249.06C536.11 1247.22 541.142 1246.54 550.866 1246.34V1242.87C550.866 1238.92 548.214 1236.88 543.046 1236.88C540.326 1236.88 537.538 1237.63 535.974 1238.86C534.682 1239.81 534.07 1240.76 533.254 1243.21L524.55 1241.64C526.114 1237.7 527.338 1235.93 529.922 1234.1C533.254 1231.65 537.062 1230.63 542.91 1230.63C549.438 1230.63 553.382 1231.78 556.306 1234.64C558.618 1236.82 559.502 1239.4 559.502 1244.02V1262.32C559.502 1265.92 559.638 1267.76 560.046 1270.82H550.866ZM550.866 1255.65V1252.25C537.878 1252.52 532.778 1254.77 532.778 1260.07C532.778 1263.27 535.158 1265.24 538.966 1265.24C542.57 1265.24 546.106 1263.88 548.418 1261.64C550.05 1260 550.866 1258.03 550.866 1255.65Z" fill="black"/>
<path d="M577.167 1270.82H568.123C568.463 1267.82 568.599 1265.65 568.599 1261.64V1225.8C568.599 1222.33 568.463 1219.95 568.123 1216.69H577.711C577.371 1219.54 577.235 1221.79 577.235 1225.87V1232.67C577.235 1233.76 577.167 1235.46 577.099 1237.77C580.635 1233.01 584.851 1230.9 591.107 1230.9C602.531 1230.9 609.263 1238.31 609.263 1250.96C609.263 1257.62 607.359 1263.06 603.687 1266.87C600.491 1270.14 596.139 1271.77 590.631 1271.77C584.375 1271.77 580.499 1269.8 577.099 1265.04C577.167 1265.92 577.167 1266.67 577.167 1267.48V1270.82ZM600.423 1250.96C600.423 1243.14 596.343 1238.04 590.087 1238.04C586.279 1238.04 583.083 1239.33 580.839 1241.78C578.799 1244.02 577.507 1247.7 577.507 1251.23C577.507 1255.52 579.275 1259.8 581.995 1261.98C583.967 1263.54 586.619 1264.49 589.135 1264.49C596.003 1264.49 600.423 1259.19 600.423 1250.96Z" fill="black"/>
<path d="M634.835 1272.11C622.391 1272.11 614.503 1264.08 614.503 1251.37C614.503 1238.72 622.391 1230.63 634.767 1230.63C647.075 1230.63 654.895 1238.65 654.895 1251.23C654.895 1263.81 646.939 1272.11 634.835 1272.11ZM634.767 1237.7C627.627 1237.7 623.275 1242.87 623.275 1251.37C623.275 1259.73 627.627 1264.9 634.699 1264.9C641.771 1264.9 646.123 1259.8 646.123 1251.5C646.123 1242.73 641.975 1237.7 634.767 1237.7Z" fill="black"/>
<path d="M680.39 1272.11C667.946 1272.11 660.058 1264.08 660.058 1251.37C660.058 1238.72 667.946 1230.63 680.322 1230.63C692.63 1230.63 700.45 1238.65 700.45 1251.23C700.45 1263.81 692.494 1272.11 680.39 1272.11ZM680.322 1237.7C673.182 1237.7 668.83 1242.87 668.83 1251.37C668.83 1259.73 673.182 1264.9 680.254 1264.9C687.326 1264.9 691.678 1259.8 691.678 1251.5C691.678 1242.73 687.53 1237.7 680.322 1237.7Z" fill="black"/>
<path d="M707.381 1216.69H716.969C716.629 1219.27 716.493 1221.65 716.493 1225.6V1247.97L726.693 1237.84C729.821 1234.84 730.977 1233.48 732.065 1231.78H744.781C740.905 1235.25 740.905 1235.25 737.981 1238.04L728.325 1247.22L739.817 1262.93C744.441 1269.25 744.441 1269.25 746.005 1270.82H733.901C733.085 1268.64 732.269 1267.28 729.413 1263.13L722.069 1252.39L716.493 1257.69V1262.11C716.493 1266.53 716.561 1268.16 716.969 1270.82H707.381C707.721 1268.03 707.857 1265.72 707.857 1261.98V1225.6C707.857 1221.52 707.721 1219.27 707.381 1216.69Z" fill="black"/>
<path d="M749.904 1259.73L759.22 1258.58C760.376 1263.2 762.892 1265.04 768.196 1265.04C773.228 1265.04 776.356 1263.06 776.356 1259.87C776.356 1258.51 775.676 1257.22 774.588 1256.47C773.296 1255.58 772.888 1255.52 767.448 1254.29C762.076 1253.14 759.968 1252.46 757.656 1251.37C753.78 1249.53 751.672 1246.27 751.672 1242.32C751.672 1239.94 752.42 1237.7 753.78 1236C756.568 1232.46 761.192 1230.7 767.38 1230.7C772.956 1230.7 777.376 1232.06 780.164 1234.64C781.932 1236.34 782.884 1238.04 783.836 1241.37L774.86 1242.53C774.112 1238.79 771.8 1237.16 767.38 1237.16C763.164 1237.16 760.308 1239.06 760.308 1241.92C760.308 1243.21 761.056 1244.36 762.416 1245.11C763.912 1245.86 765.34 1246.27 769.216 1247.15C776.152 1248.65 778.94 1249.6 781.184 1251.3C783.836 1253.2 785.128 1255.99 785.128 1259.73C785.128 1262.52 783.836 1265.51 781.796 1267.42C778.668 1270.34 773.908 1271.84 767.72 1271.84C760.716 1271.84 755.48 1269.73 752.556 1265.78C751.332 1264.15 750.72 1262.79 749.904 1259.73Z" fill="black"/>
</svg>
