<svg width="1080" height="1920" viewBox="0 0 1080 1920" fill="none" xmlns="http://www.w3.org/2000/svg">
<path d="M1080 1920L1080 0L0 0L0 1920H1080Z" fill="#A5D4AD"/>
<path d="M1020 983.72V95C1020 75.67 1004.33 60 985 60H95.58C75.93 60 60 75.93 60 95.58V983.71C60 984.03 60.25 984.28 60.57 984.28C80.03 984.59 95.71 1000.46 95.71 1019.99C95.71 1039.52 80.03 1055.39 60.57 1055.7C60.25 1055.7 60 1055.96 60 1056.27V1824.99C60 1844.32 75.67 1859.99 95 1859.99H985C1004.33 1859.99 1020 1844.32 1020 1824.99V1056.27C1020 1055.95 1019.75 1055.7 1019.43 1055.7C999.97 1055.39 984.29 1039.52 984.29 1019.99C984.29 1000.46 999.97 984.59 1019.43 984.28C1019.75 984.28 1020 984.02 1020 983.71V983.72Z" fill="white"/>
<path d="M60.57 1055.71C60.25 1055.71 60 1055.97 60 1056.28V1825C60 1844.33 75.67 1860 95 1860H985C1004.33 1860 1020 1844.33 1020 1825V1056.28C1020 1055.96 1019.75 1055.71 1019.43 1055.71C999.97 1055.4 984.29 1039.53 984.29 1020H95.71C95.71 1039.53 80.03 1055.4 60.57 1055.71Z" fill="#E5F2E6"/>
<path d="M121 1020H160.9" stroke="black" stroke-width="6" stroke-miterlimit="10"/>
<path d="M187.51 1020H227.41" stroke="black" stroke-width="6" stroke-miterlimit="10"/>
<path d="M254.02 1020H293.92" stroke="black" stroke-width="6" stroke-miterlimit="10"/>
<path d="M320.52 1020H360.43" stroke="black" stroke-width="6" stroke-miterlimit="10"/>
<path d="M387.029 1020H426.939" stroke="black" stroke-width="6" stroke-miterlimit="10"/>
<path d="M453.539 1020H493.439" stroke="black" stroke-width="6" stroke-miterlimit="10"/>
<path d="M520.051 1020H559.951" stroke="black" stroke-width="6" stroke-miterlimit="10"/>
<path d="M586.561 1020H626.461" stroke="black" stroke-width="6" stroke-miterlimit="10"/>
<path d="M653.061 1020H692.971" stroke="black" stroke-width="6" stroke-miterlimit="10"/>
<path d="M719.57 1020H759.48" stroke="black" stroke-width="6" stroke-miterlimit="10"/>
<path d="M786.08 1020H825.98" stroke="black" stroke-width="6" stroke-miterlimit="10"/>
<path d="M852.59 1020H892.49" stroke="black" stroke-width="6" stroke-miterlimit="10"/>
<path d="M919.1 1020H959" stroke="black" stroke-width="6" stroke-miterlimit="10"/>
<path d="M1020 984.29V95C1020 75.67 1004.33 60 985 60H95C75.67 60 60 75.67 60 95V984.29C79.72 984.29 95.71 1000.28 95.71 1020C95.71 1039.72 79.72 1055.71 60 1055.71V1825C60 1844.33 75.67 1860 95 1860H985C1004.33 1860 1020 1844.33 1020 1825V1055.71C1000.28 1055.71 984.29 1039.72 984.29 1020C984.29 1000.28 1000.28 984.29 1020 984.29Z" stroke="black" stroke-width="6" stroke-miterlimit="10"/>
<path d="M912.642 525.66C908.772 525.66 905.532 522.64 905.312 518.73C900.582 435.62 868.782 358.85 813.362 296.74C810.662 293.71 810.922 289.06 813.952 286.36C816.982 283.66 821.622 283.92 824.332 286.95C881.992 351.57 915.062 431.43 919.992 517.89C920.222 521.94 917.122 525.42 913.072 525.65C912.932 525.65 912.792 525.66 912.652 525.66H912.642Z" fill="black"/>
<path d="M818.842 795.509C817.102 795.509 815.352 794.889 813.952 793.639C810.922 790.939 810.662 786.289 813.362 783.259C868.782 721.149 900.582 644.379 905.312 561.269C905.542 557.219 909.022 554.109 913.072 554.349C917.122 554.579 920.222 558.049 919.992 562.109C915.062 648.579 881.992 728.439 824.332 793.049C822.882 794.679 820.862 795.509 818.842 795.509Z" fill="black"/>
<path d="M167.352 525.66C167.212 525.66 167.072 525.66 166.932 525.65C162.882 525.42 159.782 521.95 160.012 517.89C164.942 431.42 198.012 351.56 255.672 286.95C258.372 283.92 263.022 283.66 266.052 286.36C269.082 289.06 269.342 293.71 266.642 296.74C211.222 358.85 179.422 435.61 174.692 518.73C174.472 522.64 171.232 525.66 167.362 525.66H167.352Z" fill="black"/>
<path d="M261.162 795.509C259.142 795.509 257.122 794.679 255.672 793.049C198.012 728.429 164.942 648.569 160.012 562.109C159.782 558.059 162.882 554.579 166.932 554.349C170.982 554.109 174.462 557.219 174.692 561.269C179.422 644.389 211.222 721.149 266.642 783.259C269.342 786.289 269.082 790.939 266.052 793.639C264.652 794.889 262.902 795.509 261.162 795.509Z" fill="black"/>
<path d="M788.162 268.509C786.422 268.509 784.672 267.889 783.272 266.639C721.162 211.219 644.392 179.419 561.282 174.689C557.232 174.459 554.132 170.989 554.362 166.929C554.592 162.879 558.032 159.789 562.122 160.009C648.592 164.939 728.452 198.009 793.062 255.669C796.092 258.369 796.352 263.019 793.652 266.049C792.202 267.679 790.182 268.509 788.162 268.509Z" fill="black"/>
<path d="M291.842 268.51C289.822 268.51 287.802 267.68 286.352 266.05C283.652 263.02 283.912 258.37 286.942 255.67C351.562 198.01 431.422 164.94 517.882 160.01C521.932 159.78 525.412 162.88 525.642 166.93C525.872 170.98 522.772 174.46 518.722 174.69C435.612 179.42 358.842 211.22 296.732 266.64C295.332 267.89 293.582 268.51 291.842 268.51Z" fill="black"/>
<path d="M561.682 920C557.812 920 554.572 916.98 554.352 913.07C554.122 909.02 557.222 905.54 561.272 905.31C644.392 900.58 721.152 868.78 783.262 813.36C786.292 810.66 790.942 810.92 793.642 813.95C796.342 816.98 796.082 821.63 793.052 824.33C728.432 881.99 648.572 915.06 562.112 919.99C561.972 919.99 561.832 920 561.692 920H561.682Z" fill="black"/>
<path d="M518.312 920C518.172 920 518.032 920 517.892 919.99C431.422 915.06 351.562 881.99 286.952 824.33C283.922 821.63 283.662 816.98 286.362 813.95C289.062 810.92 293.712 810.66 296.742 813.36C358.852 868.78 435.622 900.58 518.732 905.31C522.782 905.54 525.882 909.01 525.652 913.07C525.432 916.98 522.192 920 518.322 920H518.312Z" fill="black"/>
<path d="M875.372 526.191C872.362 526.191 869.842 523.841 869.672 520.801C865.402 445.791 836.702 376.521 786.692 320.461C784.592 318.101 784.792 314.491 787.152 312.391C789.502 310.291 793.122 310.491 795.222 312.851C846.972 370.851 876.672 442.541 881.092 520.151C881.272 523.301 878.862 526.001 875.712 526.181C875.602 526.181 875.492 526.181 875.382 526.181L875.372 526.191Z" fill="black"/>
<path d="M790.952 769.062C789.592 769.062 788.242 768.582 787.152 767.612C784.792 765.512 784.592 761.892 786.692 759.542C836.702 703.492 865.402 634.212 869.672 559.202C869.852 556.052 872.542 553.642 875.702 553.822C878.852 554.002 881.262 556.702 881.082 559.852C876.662 637.472 846.972 709.152 795.212 767.152C794.082 768.422 792.512 769.062 790.942 769.062H790.952Z" fill="black"/>
<path d="M204.622 526.191C204.512 526.191 204.402 526.191 204.292 526.191C201.142 526.011 198.732 523.311 198.912 520.161C203.332 442.541 233.022 370.861 284.782 312.861C286.882 310.501 290.502 310.301 292.852 312.401C295.212 314.501 295.412 318.121 293.312 320.471C243.302 376.521 214.602 445.801 210.332 520.811C210.162 523.851 207.642 526.201 204.632 526.201L204.622 526.191Z" fill="black"/>
<path d="M289.042 769.061C287.472 769.061 285.902 768.411 284.772 767.151C233.022 709.151 203.322 637.461 198.902 559.851C198.722 556.701 201.132 554.001 204.282 553.821C207.442 553.631 210.132 556.051 210.312 559.201C214.582 634.211 243.282 703.491 293.292 759.541C295.392 761.901 295.192 765.511 292.832 767.611C291.742 768.581 290.382 769.061 289.032 769.061H289.042Z" fill="black"/>
<path d="M763.342 294.762C761.982 294.762 760.632 294.282 759.542 293.312C703.492 243.302 634.212 214.602 559.202 210.332C556.052 210.152 553.642 207.452 553.822 204.302C554.002 201.152 556.692 198.742 559.852 198.922C637.472 203.342 709.152 233.032 767.152 284.792C769.512 286.892 769.712 290.512 767.612 292.862C766.482 294.132 764.912 294.772 763.342 294.772V294.762Z" fill="black"/>
<path d="M316.651 294.761C315.081 294.761 313.511 294.111 312.381 292.851C310.281 290.491 310.481 286.881 312.841 284.781C370.841 233.031 442.531 203.331 520.141 198.911C523.291 198.721 525.991 201.141 526.171 204.291C526.351 207.441 523.941 210.141 520.791 210.321C445.781 214.591 376.511 243.291 320.451 293.301C319.361 294.271 318.001 294.751 316.651 294.751V294.761Z" fill="black"/>
<path d="M559.522 881.102C556.512 881.102 553.992 878.752 553.822 875.712C553.642 872.562 556.052 869.862 559.202 869.682C634.212 865.412 703.482 836.712 759.542 786.702C761.892 784.602 765.512 784.802 767.612 787.162C769.712 789.522 769.512 793.132 767.152 795.232C709.152 846.982 637.462 876.682 559.852 881.102C559.742 881.102 559.632 881.102 559.522 881.102Z" fill="black"/>
<path d="M520.481 881.102C520.371 881.102 520.261 881.102 520.151 881.102C442.531 876.682 370.851 846.992 312.851 795.232C310.491 793.132 310.291 789.512 312.391 787.162C314.491 784.802 318.111 784.602 320.461 786.702C376.511 836.722 445.791 865.412 520.801 869.682C523.951 869.862 526.361 872.562 526.181 875.712C526.011 878.752 523.491 881.102 520.481 881.102Z" fill="black"/>
<path d="M841.841 526.51C839.691 526.51 837.891 524.83 837.771 522.66C833.911 454.91 807.991 392.34 762.821 341.71C761.321 340.03 761.471 337.45 763.151 335.94C764.831 334.44 767.411 334.58 768.921 336.27C815.341 388.29 841.971 452.58 845.931 522.19C846.061 524.44 844.341 526.37 842.081 526.5C842.001 526.5 841.921 526.5 841.841 526.5V526.51Z" fill="black"/>
<path d="M765.862 745.101C764.892 745.101 763.922 744.761 763.142 744.061C761.462 742.561 761.312 739.981 762.812 738.291C807.982 687.661 833.902 625.091 837.762 557.341C837.892 555.091 839.852 553.391 842.072 553.491C844.322 553.621 846.042 555.551 845.922 557.801C841.952 627.411 815.322 691.701 768.912 743.721C768.102 744.621 766.982 745.081 765.862 745.081V745.101Z" fill="black"/>
<path d="M238.162 526.51C238.082 526.51 238.002 526.51 237.922 526.51C235.672 526.38 233.952 524.45 234.072 522.2C238.042 452.59 264.672 388.3 311.082 336.28C312.582 334.6 315.162 334.45 316.852 335.95C318.532 337.45 318.682 340.03 317.182 341.72C272.012 392.35 246.092 454.92 242.232 522.67C242.112 524.84 240.312 526.52 238.162 526.52V526.51Z" fill="black"/>
<path d="M314.131 745.101C313.011 745.101 311.891 744.641 311.081 743.741C264.661 691.721 238.031 627.431 234.071 557.821C233.941 555.571 235.661 553.641 237.921 553.511C240.161 553.401 242.101 555.101 242.231 557.361C246.091 625.111 272.011 687.681 317.181 738.311C318.681 739.991 318.531 742.571 316.851 744.081C316.071 744.771 315.101 745.121 314.131 745.121V745.101Z" fill="black"/>
<path d="M741.01 318.219C740.04 318.219 739.07 317.879 738.29 317.179C687.66 272.009 625.09 246.089 557.34 242.229C555.09 242.099 553.37 240.169 553.49 237.919C553.62 235.669 555.54 233.959 557.8 234.069C627.41 238.039 691.7 264.669 743.73 311.079C745.41 312.579 745.56 315.159 744.06 316.849C743.25 317.749 742.13 318.209 741.01 318.209V318.219Z" fill="black"/>
<path d="M338.991 318.22C337.871 318.22 336.751 317.76 335.941 316.86C334.441 315.18 334.591 312.6 336.271 311.09C388.291 264.67 452.581 238.04 522.191 234.08C524.441 233.96 526.371 235.67 526.501 237.93C526.631 240.18 524.91 242.11 522.65 242.24C454.9 246.1 392.331 272.02 341.701 317.19C340.921 317.88 339.951 318.23 338.981 318.23L338.991 318.22Z" fill="black"/>
<path d="M557.561 845.929C555.411 845.929 553.611 844.249 553.491 842.079C553.361 839.829 555.081 837.899 557.341 837.769C625.091 833.909 687.661 807.989 738.291 762.819C739.971 761.319 742.551 761.469 744.061 763.149C745.561 764.829 745.411 767.409 743.731 768.919C691.711 815.339 627.421 841.969 557.801 845.929C557.721 845.929 557.641 845.929 557.561 845.929Z" fill="black"/>
<path d="M522.431 845.929C522.351 845.929 522.271 845.929 522.191 845.929C452.581 841.959 388.291 815.329 336.271 768.919C334.591 767.419 334.441 764.839 335.941 763.149C337.441 761.469 340.021 761.319 341.711 762.819C392.341 807.989 454.911 833.909 522.661 837.769C524.911 837.899 526.631 839.829 526.511 842.079C526.391 844.249 524.591 845.929 522.441 845.929H522.431Z" fill="black"/>
<path d="M320.642 546.17C320.642 544.6 321.782 543.27 323.332 543.02C324.632 542.81 326.262 542.52 327.972 542.12C332.392 541.08 337.582 539.11 343.402 536.27C349.282 533.4 354.912 529.41 359.162 523.67C366.332 513.97 367.852 501.4 368.182 496.89C368.252 495.97 367.522 495.19 366.592 495.19H317.082C315.322 495.19 313.902 493.76 313.902 492.01V470.69C313.902 468.93 315.332 467.51 317.082 467.51H367.062C367.942 467.51 368.652 466.8 368.652 465.92V447.18C368.652 446.3 367.942 445.59 367.062 445.59H328.612C326.852 445.59 325.432 444.16 325.432 442.41V421.09C325.432 419.33 326.862 417.91 328.612 417.91H428.952C430.712 417.91 432.132 419.34 432.132 421.09V442.41C432.132 444.17 430.702 445.59 428.952 445.59H398.512C397.632 445.59 396.922 446.3 396.922 447.18V465.92C396.922 466.8 397.632 467.51 398.512 467.51H438.572C440.332 467.51 441.752 468.94 441.752 470.69V492.01C441.752 493.77 440.322 495.19 438.572 495.19H398.382C397.532 495.19 396.832 495.86 396.792 496.71C396.562 501.75 395.142 518.44 386.172 532.85C380.722 541.61 373.642 548.26 366.532 553.54C359.402 558.84 352.252 562.93 345.262 565.7C338.232 568.49 332.332 570.44 327.742 571.51C326.652 571.76 325.482 571.99 324.392 572.18C322.442 572.53 320.652 571.03 320.652 569.04V546.16L320.642 546.17Z" fill="black"/>
<path d="M474.542 546.52C474.542 545.06 475.542 543.79 476.952 543.43C485.202 541.36 488.922 540.11 496.832 536.32C496.832 536.32 500.882 534.21 504.922 531.3C517.102 522.54 525.212 510.63 525.212 510.63C534.672 497.28 537.762 474.91 538.482 468.49C538.592 467.55 537.852 466.72 536.902 466.72H500.572C500.342 466.72 500.132 466.84 500.022 467.04L499.872 467.29C494.292 478.11 486.872 487.99 480.442 494.24C473.992 500.5 468.582 505.05 464.372 507.75L461.772 509.42C460.712 510.1 459.322 509.34 459.322 508.08V479.89C459.322 478.95 459.742 478.06 460.462 477.45C461.112 476.9 461.982 476.13 463.172 475.06C465.932 472.57 469.042 468.51 472.412 462.98C475.752 457.51 479.342 450.21 483.062 441.29C486.442 433.2 488.972 423.09 490.852 412.06C491.112 410.53 492.442 409.42 493.992 409.42H513.902C515.902 409.42 517.412 411.25 517.032 413.21C516.392 416.52 515.702 420.88 514.842 424.31C513.572 429.39 512.752 432.3 511.232 436.72C510.972 437.47 511.532 438.24 512.322 438.24H591.172C592.932 438.24 594.352 439.67 594.352 441.42V463.51C594.352 465.27 592.922 466.69 591.172 466.69H568.132C567.322 466.69 566.632 467.3 566.552 468.11C565.922 474.01 562.872 497.16 552.382 517.26C538.282 546 508.132 566.39 478.332 572.13C476.372 572.51 474.552 571 474.552 569V546.48L474.542 546.52Z" fill="black"/>
<path d="M675.893 411.029V468.869C675.893 469.749 676.603 470.459 677.483 470.459H764.513C765.393 470.459 766.103 469.749 766.103 468.869V411.029C766.103 410.149 765.393 409.439 764.513 409.439H677.483C676.603 409.439 675.893 410.149 675.893 411.029ZM738.453 452.739H702.293C701.413 452.739 700.703 452.029 700.703 451.149V446.869C700.703 445.989 701.413 445.279 702.293 445.279H738.453C739.333 445.279 740.043 445.989 740.043 446.869V451.149C740.043 452.029 739.333 452.739 738.453 452.739ZM738.453 434.449H702.293C701.413 434.449 700.703 433.739 700.703 432.859V428.749C700.703 427.869 701.413 427.159 702.293 427.159H738.453C739.333 427.159 740.043 427.869 740.043 428.749V432.859C740.043 433.739 739.333 434.449 738.453 434.449Z" fill="black"/>
<path d="M674.222 497.34H728.262C729.142 497.34 729.852 498.05 729.852 498.93V502.84C729.852 503.72 729.142 504.43 728.262 504.43H667.752C665.992 504.43 664.572 505.86 664.572 507.61V522.86C664.572 524.62 666.002 526.04 667.752 526.04H728.262C729.142 526.04 729.852 526.75 729.852 527.63V545.39C729.852 546.11 729.932 547.98 729.212 548.85C728.382 549.87 727.142 549.67 725.842 549.72C722.532 549.72 719.572 549.7 716.942 549.66C716.542 549.66 716.252 549.29 716.332 548.9C716.592 547.63 716.722 546.31 716.692 544.96C716.492 535.68 708.932 528.08 699.652 527.84C689.572 527.58 681.362 535.85 681.702 545.94C682.012 555.29 689.782 562.81 699.142 562.84C704.032 562.85 708.452 560.86 711.632 557.64C711.972 557.3 712.542 557.43 712.692 557.88C714.152 562.21 715.532 566.34 716.782 570.05C717.222 571.35 718.452 572.22 719.822 572.21C725.722 572.17 730.502 571.96 734.172 571.6C738.302 571.18 742.082 570.15 745.512 568.5C749.172 566.84 751.682 564.42 753.042 561.23C754.402 558.04 755.082 553.55 755.082 547.76V527.62C755.082 526.74 755.792 526.03 756.672 526.03H762.902C764.662 526.03 766.082 524.6 766.082 522.85V507.6C766.082 505.84 764.652 504.42 762.902 504.42H756.672C755.792 504.42 755.082 503.71 755.082 502.83V498.92C755.082 498.04 755.792 497.33 756.672 497.33H762.902C764.662 497.33 766.082 495.9 766.082 494.15V479.6C766.082 477.84 764.652 476.42 762.902 476.42H674.202C672.442 476.42 671.022 477.85 671.022 479.6V494.15C671.022 495.91 672.452 497.33 674.202 497.33L674.222 497.34Z" fill="black"/>
<path d="M668.822 409.439H650.252C649.392 409.439 648.572 409.789 647.972 410.399C635.222 423.349 618.282 434.569 612.122 438.479C610.772 439.329 610.272 441.059 610.942 442.499L620.692 463.569C621.622 465.569 624.252 466.049 625.822 464.499C646.112 444.459 664.442 419.799 670.112 411.959C670.872 410.909 670.112 409.439 668.822 409.439Z" fill="black"/>
<path d="M671.912 453.889V435.409C671.912 433.999 670.212 433.289 669.202 434.279C653.632 449.599 620.042 477.059 611.672 483.859C610.542 484.779 610.182 486.349 610.792 487.669L620.692 509.049C621.622 511.049 624.252 511.529 625.822 509.979C627.532 508.289 629.232 506.559 630.912 504.819C631.312 504.409 632.012 504.689 632.012 505.259V569.059C632.012 570.819 633.442 572.239 635.192 572.239H653.812C655.572 572.239 656.992 570.809 656.992 569.059V476.369C656.992 475.299 657.352 474.249 658.022 473.409C664.862 464.729 669.712 458.019 671.332 455.739C671.712 455.199 671.922 454.559 671.922 453.889H671.912Z" fill="black"/>
<path d="M653.263 623.33C640.843 623.33 634.803 628.28 634.803 638.47V655.6C634.803 665.67 640.843 670.56 653.263 670.56C659.133 670.56 663.473 669.48 666.553 667.27C669.993 664.8 671.733 660.87 671.733 655.59V638.46C671.733 628.27 665.693 623.32 653.273 623.32L653.263 623.33ZM646.083 639.3C646.083 633.93 648.833 632.91 653.263 632.91C657.693 632.91 660.443 633.95 660.443 639.3V654.68C660.443 659.95 657.593 660.98 653.263 660.98C648.933 660.98 646.083 659.98 646.083 654.68V639.3Z" fill="black"/>
<path d="M708.262 669.331H721.352L703.622 646.781L720.552 624.8H707.392L694.052 642.281V610.23H682.762V669.331H694.052V659.211L696.942 655.451L708.262 669.331Z" fill="black"/>
<path d="M754.812 624.801V653.291C754.812 659.041 751.872 660.891 746.822 660.891C743.552 660.891 740.272 660.351 740.272 653.881V624.811H728.992V656.771C728.992 665.741 733.702 670.481 742.612 670.481C749.292 670.481 753.872 666.861 755.572 662.801L757.382 669.341H766.102V624.811H754.822L754.812 624.801Z" fill="black"/>
<path d="M630.563 610.23H589.143V620.141V620.151H604.213V669.331H615.683V620.151H630.563V610.23Z" fill="black"/>
<path d="M459.681 669.331H472.771L455.041 646.781L471.971 624.8H458.811L445.471 642.281V610.23H434.191V669.331H445.471V659.211L448.361 655.451L459.681 669.331Z" fill="black"/>
<path d="M355.322 610.23H313.902V620.141V620.151H328.982V669.331H340.442V620.151H355.322V610.23Z" fill="black"/>
<path d="M421.792 658.89L421.192 659.04C417.612 659.96 413.282 660.89 409.402 660.89C404.852 660.89 401.682 658.82 401.682 652.83V640.97C401.682 634.9 404.852 632.82 409.402 632.82C413.352 632.82 417.872 633.7 421.222 634.4L421.802 634.52V625.19L421.492 625.12C417.682 624.23 412.042 623.33 407.522 623.33C402.002 623.33 397.962 624.4 395.162 626.59C391.962 629.09 390.412 633.85 390.412 639.34V654.64C390.412 664.77 396.012 670.56 407.532 670.56C411.402 670.56 417.262 669.49 421.522 668.31L421.812 668.23V658.88L421.792 658.89Z" fill="black"/>
<path d="M553.922 634.699V624.799H543.682V615.189H532.402V624.799H525.172V634.699H532.402V655.419C532.402 667.939 540.292 670.559 546.922 670.559C548.702 670.559 550.502 670.449 552.112 670.219V660.259C551.462 660.329 550.252 660.359 549.532 660.359C546.452 660.359 543.682 659.729 543.682 652.089V634.689H553.922V634.699Z" fill="black"/>
<path d="M489.733 650.741V650.561H515.163V641.481C515.163 635.571 513.543 630.241 510.353 627.341C507.413 624.671 502.773 623.311 497.253 623.311C485.073 623.311 478.453 629.221 478.453 639.591V654.451C478.453 664.701 483.833 670.551 496.313 670.551C500.973 670.551 506.283 669.561 511.963 668.401L512.353 668.321V659.051L511.703 659.201C507.133 660.251 504.613 661.141 500.283 661.141C494.073 661.141 489.733 658.621 489.733 652.201V650.721V650.741ZM489.733 639.721C489.733 634.071 493.793 632.741 497.163 632.741C500.533 632.741 504.063 634.071 504.063 639.721V643.231H489.733V642.711V639.721Z" fill="black"/>
<path d="M378.173 626.881H366.893V669.331H378.173V626.881Z" fill="black"/>
<path d="M372.532 622.22C376.415 622.22 379.562 619.073 379.562 615.19C379.562 611.308 376.415 608.16 372.532 608.16C368.649 608.16 365.502 611.308 365.502 615.19C365.502 619.073 368.649 622.22 372.532 622.22Z" fill="black"/>
<path d="M585.733 643.92H566.143V651.26H585.733V643.92Z" fill="black"/>
<path d="M725.434 1735.04L716.026 1745.23C707.892 1735.24 696.622 1724.26 685.94 1716.13C674.866 1728.48 663.596 1737.1 648.602 1744.45C645.858 1739.35 644.682 1737.79 640.664 1733.57C648.21 1730.63 652.914 1727.99 660.264 1722.79C675.062 1712.4 686.822 1698.19 693.192 1682.91L694.27 1680.36C692.702 1680.46 692.702 1680.46 661.832 1680.95C657.128 1681.04 654.482 1681.24 651.15 1681.73L650.758 1669.19C653.502 1669.68 655.364 1669.77 659.382 1669.77C659.774 1669.77 660.558 1669.77 661.734 1669.77L696.23 1669.28C701.718 1669.19 702.502 1669.09 704.952 1668.21L711.42 1674.87C710.146 1676.34 709.362 1677.71 708.284 1680.16C703.776 1690.65 698.974 1699.17 692.996 1707.21C699.17 1711.33 704.462 1715.44 711.126 1721.42C713.576 1723.58 713.576 1723.58 725.434 1735.04Z" fill="black"/>
<path d="M565.302 1675.26V1695.06C580.1 1692.31 601.758 1683.59 608.128 1677.61L615.968 1688.69C615.282 1688.98 612.342 1690.35 607.148 1692.9C593.82 1699.27 580.1 1703.68 565.302 1706.43V1719.36C565.204 1719.85 565.204 1720.34 565.204 1720.64C565.204 1726.32 565.596 1728.57 566.968 1729.95C568.634 1731.71 574.22 1732.49 583.726 1732.49C590.292 1732.49 599.308 1731.91 606.462 1730.93C611.166 1730.34 613.322 1729.85 617.634 1728.57L618.222 1741.61C616.164 1741.61 615.674 1741.71 605.286 1742.69C599.504 1743.27 587.156 1743.86 581.178 1743.86C568.83 1743.86 562.068 1742.59 558.246 1739.65C555.502 1737.59 554.032 1734.45 553.444 1729.65C553.248 1727.99 553.15 1726.32 553.15 1720.64L553.052 1675.16C553.052 1670.17 553.052 1668.6 552.66 1666.15H565.792C565.4 1668.5 565.302 1670.26 565.302 1675.26ZM604.894 1664.68L611.852 1661.54C615.772 1665.95 618.418 1669.97 621.652 1676.44L614.596 1679.67C611.558 1673.4 609.01 1669.48 604.894 1664.68ZM633.51 1670.46L626.552 1673.99C623.906 1668.6 620.868 1663.89 617.144 1659.39L623.906 1656.25C628.218 1661.15 630.864 1664.97 633.51 1670.46Z" fill="black"/>
<path d="M444.957 1711.23V1697.61C449.269 1698.19 451.131 1698.29 460.833 1698.29H513.067C522.769 1698.29 524.631 1698.19 528.943 1697.61V1711.23C525.023 1710.74 523.945 1710.74 512.969 1710.74H460.931C449.955 1710.74 448.877 1710.74 444.957 1711.23Z" fill="black"/>
<path d="M376.162 1681.63H401.642L401.74 1677.22V1674.09C401.74 1667.62 401.642 1665.46 401.25 1663.21H413.892C413.598 1665.46 413.5 1665.95 413.5 1669.77C413.5 1675.75 413.5 1675.75 413.402 1681.63H419.674C426.632 1681.63 428.592 1681.53 432.414 1680.95V1692.9C428.984 1692.51 426.338 1692.41 419.87 1692.41H413.304C413.108 1704.17 413.108 1704.86 412.618 1708.58C411.246 1721.13 407.032 1729.46 398.506 1736.71C393.214 1741.22 388.412 1743.76 379.396 1747C377.534 1742.78 376.26 1740.92 372.046 1736.61C381.356 1733.77 386.06 1731.42 390.764 1727.3C397.428 1721.52 400.27 1715.05 401.152 1703.78C401.348 1701.53 401.348 1699.17 401.544 1692.41H376.162V1707.11C376.162 1711.23 376.26 1712.8 376.554 1715.34H363.814C364.108 1713.19 364.206 1710.54 364.206 1706.92V1692.41H358.228C351.76 1692.41 349.114 1692.51 345.684 1692.9V1680.95C349.506 1681.53 351.466 1681.63 358.424 1681.63H364.206V1671.83C364.206 1667.72 364.108 1665.66 363.716 1663.11H376.554C376.162 1666.34 376.162 1666.54 376.162 1671.54V1681.63Z" fill="black"/>
<path d="M748.362 1546.11L754.634 1552.28C753.654 1553.75 753.262 1554.63 752.184 1558.16C747.676 1573.06 740.718 1586.29 732.094 1595.99C723.078 1606.28 712.298 1613.92 697.206 1620.88C694.462 1615.98 693.188 1614.31 688.876 1610.59C698.676 1606.57 704.164 1603.63 710.338 1599.03C724.352 1588.64 733.564 1575.21 738.954 1557.67L709.456 1558.16C703.478 1567.67 695.834 1576.09 686.524 1583.25C683.584 1579.23 682.114 1577.96 677.018 1574.82C688.19 1567.18 695.246 1559.34 702.4 1546.4C705.438 1540.81 707.006 1536.99 707.398 1533.46L720.824 1536.11C720.236 1536.99 720.236 1536.99 719.158 1539.15C718.864 1539.64 718.864 1539.64 717.884 1541.89C717.59 1542.48 717.59 1542.48 716.61 1544.44C716.022 1545.81 716.022 1545.81 715.042 1547.58C716.316 1547.48 717.884 1547.38 719.746 1547.38L741.208 1547.09C745.03 1547.09 746.108 1546.89 748.362 1546.11Z" fill="black"/>
<path d="M582.841 1552.08L590.975 1542.38C602.637 1549.63 608.713 1554.14 616.259 1561.3L607.831 1571.98C599.991 1563.65 591.955 1557.18 582.841 1552.08ZM586.271 1616.76L582.645 1603.24C591.073 1602.75 602.735 1599.91 611.653 1595.99C623.903 1590.7 633.017 1583.15 640.759 1571.98C645.071 1565.71 647.815 1560.32 650.755 1552.38C654.577 1556.98 656.145 1558.45 661.143 1561.98C652.813 1579.92 643.503 1591.48 630.077 1600.4C620.081 1607.06 607.929 1611.86 592.739 1615.1C588.819 1615.88 588.525 1615.98 586.271 1616.76Z" fill="black"/>
<path d="M492.875 1537.68L506.203 1537.78C505.811 1540.52 505.811 1541.4 505.811 1546.6V1573.64C505.811 1578.54 505.811 1579.82 506.203 1582.27H492.777C493.071 1580.01 493.267 1576.98 493.267 1573.45V1546.5C493.267 1541.5 493.169 1540.23 492.875 1537.68ZM537.073 1537.87H550.695C550.303 1540.32 550.205 1541.4 550.205 1546.99V1560.22C550.107 1575.51 549.421 1583.74 547.657 1589.91C544.815 1599.71 538.543 1607.06 528.351 1612.75C523.157 1615.69 518.257 1617.65 509.241 1620.29C507.477 1615.49 506.497 1613.82 502.381 1608.63C511.985 1606.77 517.669 1604.71 523.549 1600.79C532.761 1594.71 535.995 1588.74 537.073 1575.8C537.465 1571.59 537.563 1567.27 537.563 1559.43V1547.18C537.563 1542.19 537.465 1540.13 537.073 1537.87Z" fill="black"/>
<path d="M412.614 1619.41H399.188C399.579 1616.67 399.775 1614.02 399.775 1608.43V1545.62C399.677 1539.93 399.579 1537.97 399.188 1535.62H412.614C412.32 1538.27 412.221 1540.13 412.221 1545.91V1564.14C423.589 1567.86 441.23 1576.09 456.714 1584.82L449.854 1596.38C442.994 1591.48 429.078 1583.93 415.161 1577.66C412.907 1576.58 412.613 1576.49 411.829 1576C412.124 1578.74 412.221 1580.41 412.221 1582.66V1608.53C412.221 1613.82 412.32 1616.57 412.614 1619.41ZM432.703 1544.15L439.564 1540.72C443.876 1545.32 446.521 1549.05 449.854 1555.12L442.993 1558.75C439.76 1552.77 437.015 1548.85 432.703 1544.15ZM461.516 1548.75L454.754 1552.57C451.814 1547.18 448.58 1542.58 444.758 1538.36L451.324 1534.93C455.734 1539.44 458.478 1543.17 461.516 1548.75Z" fill="black"/>
<path d="M349.021 1616.18H334.223C334.811 1612.35 335.007 1608.53 335.007 1603.44V1549.44H330.303C326.677 1549.44 323.835 1549.63 320.209 1550.03V1537.58C323.247 1538.07 325.403 1538.17 330.009 1538.17H339.025C344.023 1538.17 345.493 1538.07 349.021 1537.68C348.433 1543.46 348.237 1547.97 348.237 1553.85V1603.44C348.237 1608.63 348.433 1612.16 349.021 1616.18Z" fill="black"/>
<path d="M844.484 1438.15L838.676 1438.49C838.628 1437.62 838.58 1437.34 838.436 1436.23C837.524 1430.42 837.188 1426.73 837.188 1421.88C837.188 1415.69 837.764 1410.22 839.156 1403.11C839.684 1400.42 839.78 1399.94 839.876 1398.65L846.212 1399.32C845.06 1402.15 843.956 1407.53 843.188 1413.67C842.707 1417.27 842.516 1420.1 842.468 1424.28C842.468 1425.34 842.42 1425.72 842.372 1426.92C842.9 1425.24 842.996 1424.9 844.868 1420.58L848.708 1422.31C846.068 1427.88 844.436 1433.45 844.436 1436.86C844.436 1437.14 844.436 1437.53 844.484 1438.15ZM851.108 1409.4L851.204 1403.64C853.364 1404.22 855.907 1404.41 860.083 1404.41C865.411 1404.41 869.972 1403.98 873.14 1403.11L873.428 1408.92C873.044 1408.97 872.324 1409.06 870.02 1409.35C866.948 1409.74 863.299 1409.93 859.747 1409.93C856.243 1409.93 856.196 1409.93 851.108 1409.4ZM854.419 1417.32L859.124 1419.53C856.724 1422.31 855.716 1424.38 855.716 1426.44C855.716 1429.18 858.356 1430.62 863.348 1430.62C867.572 1430.62 871.748 1429.94 874.772 1428.79L875.252 1434.89C874.58 1434.94 874.388 1434.98 873.284 1435.18C869.444 1435.8 866.516 1436.09 863.348 1436.09C857.396 1436.09 853.556 1434.74 851.444 1431.91C850.532 1430.71 850.004 1428.94 850.004 1427.21C850.004 1424.09 851.443 1420.87 854.419 1417.32Z" fill="black"/>
<path d="M804.693 1403.69V1400.76C804.693 1399.18 804.597 1397.93 804.357 1396.78H810.549C810.357 1397.78 810.261 1399.03 810.261 1400.76V1403.69H823.461C826.149 1403.69 827.877 1403.59 829.509 1403.35V1409.16C828.021 1408.97 826.533 1408.87 823.653 1408.87H806.085C805.845 1412.47 805.845 1412.62 805.701 1414.06H818.997C821.493 1414.06 822.837 1414.01 823.941 1413.82C823.941 1414.06 823.941 1414.2 823.893 1414.3C823.797 1415.02 823.797 1415.59 823.701 1417.66C823.509 1424.86 822.885 1431.05 822.069 1434.5C820.965 1439.06 819.381 1440.26 814.581 1440.26C812.901 1440.26 811.797 1440.22 808.101 1439.93C807.909 1437.72 807.525 1436.14 806.709 1434.36C809.493 1434.79 811.701 1434.98 813.909 1434.98C816.021 1434.98 816.501 1434.46 817.125 1431.14C817.701 1428.26 817.989 1425.24 818.181 1419.1H804.933C802.917 1428.74 798.597 1434.89 789.525 1440.84C788.325 1438.73 787.413 1437.67 785.637 1436.28C789.861 1433.64 791.925 1431.96 794.229 1429.18C798.357 1424.23 799.989 1418.66 800.229 1408.87H792.357C789.957 1408.87 787.989 1408.97 786.357 1409.16V1403.35C788.085 1403.59 789.909 1403.69 792.357 1403.69H804.693Z" fill="black"/>
<path d="M763.556 1406.23C762.644 1413.77 760.964 1420.39 758.564 1425.82C755.828 1432.01 752.756 1434.84 748.82 1434.84C743.348 1434.84 739.412 1429.27 739.412 1421.54C739.412 1416.26 741.284 1411.32 744.692 1407.58C748.724 1403.16 754.388 1400.86 761.204 1400.86C772.724 1400.86 780.212 1407.86 780.212 1418.66C780.212 1426.97 775.892 1433.59 768.548 1436.57C766.244 1437.53 764.372 1438.01 761.012 1438.58C760.196 1436.04 759.62 1434.98 758.084 1432.97C762.5 1432.39 765.38 1431.62 767.636 1430.33C771.812 1428.02 774.308 1423.46 774.308 1418.33C774.308 1413.72 772.244 1409.98 768.404 1407.67C766.916 1406.81 765.668 1406.42 763.556 1406.23ZM757.7 1406.28C755.204 1406.57 753.476 1407.24 751.508 1408.63C747.476 1411.51 744.98 1416.46 744.98 1421.59C744.98 1425.53 746.66 1428.65 748.772 1428.65C750.356 1428.65 751.988 1426.63 753.716 1422.5C755.54 1418.18 757.124 1411.7 757.7 1406.28Z" fill="black"/>
<path d="M727.845 1408.87H725.301C724.053 1413.34 723.285 1415.3 721.557 1418.52C719.925 1421.54 718.149 1424.04 715.893 1426.63C721.173 1430.76 726.933 1433.35 734.661 1435.08C733.077 1436.95 732.405 1438.1 731.349 1440.7C723.189 1438.01 717.333 1434.89 712.005 1430.33C709.269 1432.63 706.005 1434.79 702.597 1436.57C699.669 1438.06 696.933 1439.16 692.373 1440.7C691.509 1438.63 690.693 1437.29 689.301 1435.56C697.893 1433.21 703.221 1430.71 708.165 1426.63C705.861 1424.09 704.133 1421.74 702.501 1418.95C700.677 1415.83 699.813 1413.77 698.181 1408.87H695.925C693.669 1408.87 691.797 1408.97 690.069 1409.16V1403.74C691.893 1403.98 693.525 1404.07 696.069 1404.07H708.837V1400.66C708.837 1399.22 708.741 1398.07 708.501 1396.97H714.597C714.357 1398.07 714.261 1399.22 714.261 1400.62V1404.07H727.653C730.245 1404.07 731.925 1403.98 733.701 1403.74V1409.16C731.973 1408.97 730.341 1408.87 727.845 1408.87ZM719.637 1408.87H703.701C704.901 1412.52 705.669 1414.25 707.349 1417.08C708.837 1419.48 710.133 1421.16 711.957 1423.08C713.637 1421.21 715.029 1419.29 716.325 1417.03C717.765 1414.44 718.485 1412.76 719.637 1408.87Z" fill="black"/>
<path d="M660.356 1406.42H671.636C668.42 1403.78 666.356 1402.49 661.652 1400.33L665.108 1396.39C670.388 1398.98 671.492 1399.61 675.428 1402.49L672.26 1406.42H679.46C682.1 1406.42 683.3 1406.38 684.836 1406.14V1411.51C683.348 1411.37 681.572 1411.27 679.46 1411.27H671.924V1419.62H678.116C680.132 1419.62 682.004 1419.53 683.348 1419.34V1424.62C681.86 1424.47 679.988 1424.38 678.116 1424.38H671.924V1434.31H680.132C682.34 1434.31 684.452 1434.22 685.844 1434.02V1439.4C684.308 1439.21 682.388 1439.11 680.132 1439.11H659.204C656.948 1439.11 654.932 1439.21 653.492 1439.4V1434.02C654.98 1434.22 657.14 1434.31 659.204 1434.31H666.548V1424.38H661.652C659.732 1424.38 657.86 1424.47 656.372 1424.62V1419.34C657.764 1419.53 659.54 1419.62 661.604 1419.62H666.548V1411.27H660.356C657.908 1411.27 656.708 1411.32 654.98 1411.51V1406.14C656.612 1406.33 658.004 1406.42 660.356 1406.42ZM643.604 1400.71L646.868 1396.97C650.468 1399.08 652.34 1400.47 655.364 1403.26L652.148 1407.53C649.124 1404.31 647.588 1403.06 643.604 1400.71ZM641.684 1412.66L644.756 1408.68C648.644 1410.94 650.276 1412.14 653.444 1414.92L650.564 1419.34C647.06 1415.98 645.236 1414.63 641.684 1412.66ZM649.508 1422.02L653.78 1425.05C651.572 1431 650.324 1433.93 648.452 1437.34C647.972 1438.2 647.684 1438.68 647.108 1439.64C646.724 1440.26 646.724 1440.26 646.436 1440.79L641.876 1436.81C644.132 1434.36 646.916 1429.03 649.508 1422.02Z" fill="black"/>
<path d="M601.365 1406.57L601.797 1400.86C605.493 1401.72 609.765 1402.06 616.197 1402.06C622.293 1402.06 625.701 1401.82 628.869 1401.14L629.061 1406.57C626.181 1407.82 620.277 1411.51 616.245 1414.49L612.069 1411.18C615.093 1409.26 615.621 1408.92 616.821 1408.25C617.301 1407.96 617.445 1407.86 618.069 1407.48C618.453 1407.29 618.501 1407.29 619.125 1406.9C617.013 1407.19 614.949 1407.29 611.925 1407.29C609.477 1407.29 605.493 1407.05 603.141 1406.71C602.565 1406.66 602.229 1406.62 602.037 1406.62C601.941 1406.62 601.701 1406.57 601.365 1406.57ZM604.917 1417.42L609.093 1420.58C606.069 1423.13 604.725 1425.14 604.725 1427.21C604.725 1430.33 608.229 1431.67 616.341 1431.67C622.053 1431.67 628.341 1430.81 631.413 1429.61L631.941 1436.18C631.077 1436.23 630.933 1436.23 629.829 1436.38C624.069 1437.24 620.997 1437.48 616.869 1437.48C611.637 1437.48 607.413 1436.95 604.869 1435.9C600.741 1434.26 598.725 1431.62 598.725 1427.88C598.725 1424.18 600.597 1421.02 604.917 1417.42ZM637.893 1415.45L634.581 1417.32C633.141 1414.68 631.557 1412.42 629.685 1410.36L632.901 1408.68C635.061 1410.89 636.405 1412.71 637.893 1415.45ZM623.781 1413.19L627.141 1411.51C629.253 1413.77 630.549 1415.59 632.181 1418.57L628.821 1420.34C627.237 1417.42 625.893 1415.5 623.781 1413.19Z" fill="black"/>
<path d="M569.397 1416.17V1433.83H583.221C585.765 1433.83 587.925 1433.74 589.701 1433.54V1439.3C587.685 1439.06 585.717 1438.97 583.317 1438.97H552.837C550.581 1438.97 548.373 1439.06 546.213 1439.3V1433.54C548.085 1433.74 550.101 1433.83 552.837 1433.83H563.781V1402.82C563.781 1400.71 563.685 1399.27 563.445 1397.3H569.733C569.493 1399.08 569.397 1400.66 569.397 1402.82V1411.03H580.677C582.789 1411.03 584.517 1410.94 586.245 1410.74V1416.46C584.517 1416.26 582.693 1416.17 580.677 1416.17H569.397Z" fill="black"/>
<path d="M531.86 1397.74L537.908 1397.83C537.86 1398.36 537.86 1398.36 537.428 1404.5C537.188 1408.82 536.228 1414.2 535.124 1417.9C534.356 1420.39 533.444 1422.5 532.1 1424.9C534.548 1429.18 537.908 1432.49 542.564 1435.22C541.172 1436.86 540.212 1438.44 539.204 1440.7C534.98 1437.67 531.716 1434.17 528.884 1429.61C524.996 1434.5 520.004 1438.06 512.804 1441.08C511.7 1438.92 510.884 1437.67 509.732 1436.33C518.18 1433.06 523.364 1429.18 526.868 1423.51C530.324 1417.94 532.052 1410.41 532.052 1400.9C532.052 1399.37 532.004 1398.84 531.86 1397.74ZM502.82 1428.74L502.58 1403.59C502.532 1401.05 502.436 1399.61 502.196 1397.88H508.292C508.148 1399.22 508.052 1400.66 508.052 1402.58V1403.64L508.292 1426.54C512.708 1424.57 517.412 1422.07 520.628 1420.01L521.78 1425.05C515.828 1428.7 511.796 1430.76 502.916 1434.6C501.092 1435.42 500.756 1435.56 499.556 1436.14L498.02 1430.28C499.7 1429.9 500.516 1429.61 502.82 1428.74ZM512.228 1403.59L516.836 1400.66C520.628 1404.5 522.788 1407.19 526.34 1412.42L521.396 1415.83C517.748 1409.78 516.596 1408.25 512.228 1403.59Z" fill="black"/>
<path d="M457.557 1422.12V1434.98C457.557 1438.01 457.605 1439.45 457.797 1440.55H451.893C452.085 1439.02 452.181 1437.29 452.181 1434.79V1403.4C452.181 1401.38 452.133 1400.18 451.989 1398.79C453.525 1398.94 454.773 1398.98 457.317 1398.98H486.501C489.141 1398.98 490.581 1398.94 491.733 1398.79C491.589 1400.18 491.541 1401.43 491.541 1404.02V1434.79C491.541 1437.24 490.965 1438.58 489.573 1439.3C488.661 1439.78 487.125 1439.98 484.533 1439.98C482.661 1439.98 480.021 1439.88 478.149 1439.78C477.861 1437.91 477.525 1436.57 476.661 1434.6C479.829 1434.94 482.229 1435.13 483.957 1435.13C485.829 1435.13 486.117 1434.98 486.117 1433.83V1422.12H457.557ZM468.933 1417.08V1404.07H457.557V1417.08H468.933ZM474.117 1417.08H486.117V1404.07H474.117V1417.08Z" fill="black"/>
<path d="M430.681 1438.34C426.601 1438.34 423.145 1437 420.601 1434.46C419.161 1433.02 418.057 1431.34 417.433 1429.61C416.185 1426.2 415.561 1422.46 415.561 1418.57C415.561 1413.48 416.713 1408.2 418.489 1405.27C421.081 1400.95 425.401 1398.6 430.729 1398.6C434.809 1398.6 438.313 1399.94 440.857 1402.49C442.297 1403.93 443.401 1405.61 444.025 1407.34C445.273 1410.7 445.897 1414.54 445.897 1418.47C445.897 1424.38 444.601 1429.56 442.345 1432.68C439.657 1436.42 435.673 1438.34 430.681 1438.34ZM430.729 1432.78C432.841 1432.78 434.713 1432.06 435.913 1430.76C438.073 1428.5 439.273 1424.04 439.273 1418.42C439.273 1412.86 438.073 1408.49 435.913 1406.14C434.761 1404.84 432.841 1404.12 430.681 1404.12C428.377 1404.12 426.697 1404.89 425.305 1406.57C423.193 1409.06 422.137 1413 422.137 1418.23C422.137 1423.27 423.049 1427.45 424.585 1429.66C426.073 1431.77 428.089 1432.78 430.729 1432.78Z" fill="black"/>
<path d="M396.509 1438.34C392.429 1438.34 388.973 1437 386.429 1434.46C384.989 1433.02 383.885 1431.34 383.261 1429.61C382.013 1426.2 381.389 1422.46 381.389 1418.57C381.389 1413.48 382.541 1408.2 384.317 1405.27C386.909 1400.95 391.229 1398.6 396.557 1398.6C400.637 1398.6 404.141 1399.94 406.685 1402.49C408.125 1403.93 409.229 1405.61 409.853 1407.34C411.101 1410.7 411.725 1414.54 411.725 1418.47C411.725 1424.38 410.429 1429.56 408.173 1432.68C405.485 1436.42 401.501 1438.34 396.509 1438.34ZM396.557 1432.78C398.669 1432.78 400.541 1432.06 401.741 1430.76C403.901 1428.5 405.101 1424.04 405.101 1418.42C405.101 1412.86 403.901 1408.49 401.741 1406.14C400.589 1404.84 398.669 1404.12 396.509 1404.12C394.205 1404.12 392.525 1404.89 391.133 1406.57C389.021 1409.06 387.965 1413 387.965 1418.23C387.965 1423.27 388.877 1427.45 390.413 1429.66C391.901 1431.77 393.917 1432.78 396.557 1432.78Z" fill="black"/>
<path d="M362.337 1438.34C358.257 1438.34 354.801 1437 352.257 1434.46C350.817 1433.02 349.713 1431.34 349.089 1429.61C347.841 1426.2 347.217 1422.46 347.217 1418.57C347.217 1413.48 348.369 1408.2 350.145 1405.27C352.737 1400.95 357.057 1398.6 362.385 1398.6C366.465 1398.6 369.969 1399.94 372.513 1402.49C373.953 1403.93 375.057 1405.61 375.681 1407.34C376.929 1410.7 377.553 1414.54 377.553 1418.47C377.553 1424.38 376.257 1429.56 374.001 1432.68C371.313 1436.42 367.329 1438.34 362.337 1438.34ZM362.385 1432.78C364.497 1432.78 366.369 1432.06 367.569 1430.76C369.729 1428.5 370.929 1424.04 370.929 1418.42C370.929 1412.86 369.729 1408.49 367.569 1406.14C366.417 1404.84 364.497 1404.12 362.337 1404.12C360.033 1404.12 358.353 1404.89 356.961 1406.57C354.849 1409.06 353.793 1413 353.793 1418.23C353.793 1423.27 354.705 1427.45 356.241 1429.66C357.729 1431.77 359.745 1432.78 362.385 1432.78Z" fill="black"/>
<path d="M342.343 1430.57V1437.58C342.343 1441.7 341.287 1443.24 337.399 1444.78L335.671 1442.23C338.599 1441.42 339.271 1440.55 339.319 1437.58H335.287V1430.57H342.343Z" fill="black"/>
<path d="M322.379 1437.58H306.971C303.227 1437.58 302.459 1437.62 300.779 1437.82C301.067 1435.08 301.403 1433.4 302.027 1431.67C303.323 1428.17 305.483 1425.1 308.603 1422.26C310.283 1420.78 311.723 1419.67 316.523 1416.46C320.939 1413.43 322.283 1411.85 322.283 1409.4C322.283 1406.14 319.739 1404.12 315.659 1404.12C312.875 1404.12 310.763 1405.08 309.563 1406.95C308.747 1408.1 308.411 1409.16 308.075 1411.37L301.211 1410.55C301.883 1406.9 302.747 1404.94 304.523 1402.87C306.923 1400.09 310.715 1398.6 315.515 1398.6C323.915 1398.6 329.099 1402.63 329.099 1409.21C329.099 1412.38 328.043 1414.68 325.691 1416.89C324.347 1418.14 323.867 1418.52 317.627 1422.79C315.515 1424.28 313.115 1426.3 311.915 1427.59C310.475 1429.13 309.899 1430.09 309.179 1431.91H322.619C325.643 1431.91 328.043 1431.77 329.627 1431.53V1437.86C327.371 1437.67 325.451 1437.58 322.379 1437.58Z" fill="black"/>
<path d="M277.308 1403.26H272.46C270.828 1403.26 269.676 1403.3 268.476 1403.5V1398.31C269.532 1398.5 270.54 1398.55 272.46 1398.55H279.324C280.86 1398.55 281.916 1398.5 282.828 1398.36C282.732 1399.46 282.732 1400.14 282.732 1400.95C282.732 1405.66 283.836 1410.5 285.9 1414.87C288.348 1420.15 291.228 1423.46 296.46 1427.21C295.116 1428.84 294.3 1430.18 293.292 1432.25C289.788 1429.61 287.82 1427.69 285.612 1424.76C283.212 1421.54 281.868 1418.62 280.236 1413.38C279.036 1418.47 277.692 1421.5 275.004 1425.1C273.228 1427.54 271.74 1429.08 268.524 1431.67C267.228 1429.94 266.508 1429.18 264.732 1427.5C267.66 1425.38 269.1 1423.94 271.068 1421.35C273.612 1417.94 275.436 1414.01 276.396 1409.93C276.876 1407.96 277.068 1406.57 277.308 1403.26ZM253.164 1400.95L257.004 1397.35C260.46 1400.38 263.052 1403.06 265.404 1406.14L261.42 1410.02C258.444 1405.99 256.908 1404.31 253.164 1400.95ZM252.444 1419.96V1414.68C253.692 1414.87 254.46 1414.92 256.284 1414.92H260.22C261.66 1414.92 262.764 1414.87 263.868 1414.68C263.724 1416.26 263.676 1417.27 263.676 1419.96V1429.99C264.396 1431.53 264.828 1432.01 266.412 1433.06C268.716 1434.5 271.212 1434.84 279.468 1434.84C286.428 1434.84 292.524 1434.5 297.276 1433.83C296.46 1436.14 296.172 1437.34 295.836 1439.54C291.564 1439.69 284.604 1439.83 281.292 1439.83C273.42 1439.83 269.532 1439.54 267.036 1438.73C264.54 1437.96 262.812 1436.66 260.94 1434.22C259.404 1435.75 258.252 1436.76 255.996 1438.49C255.18 1439.11 254.892 1439.35 254.556 1439.64C254.076 1440.02 254.076 1440.02 253.836 1440.22L251.484 1434.74C253.548 1433.88 256.572 1431.86 258.636 1430.04V1419.72H255.708C254.364 1419.72 253.644 1419.77 252.444 1419.96Z" fill="black"/>
<path d="M211.355 1409.11V1403.98C209.723 1404.31 208.859 1404.46 206.363 1404.84C206.123 1403.54 205.595 1402.34 204.491 1400.42C209.819 1399.8 213.371 1398.94 217.067 1397.4C217.787 1397.11 218.507 1396.73 219.131 1396.3L222.107 1400.47C221.627 1400.66 221.579 1400.71 220.859 1401.05C219.227 1401.72 218.075 1402.15 216.347 1402.68V1409.11H217.835C219.419 1409.11 220.283 1409.06 221.195 1408.92V1413.91C220.235 1413.77 219.371 1413.72 217.835 1413.72H216.491C216.587 1413.96 216.587 1413.96 216.827 1414.39C218.267 1417.56 219.419 1419.24 221.915 1421.78L221.483 1422.65C220.619 1424.28 220.475 1424.62 219.755 1426.39C218.075 1424.23 217.691 1423.56 216.059 1420.06C216.203 1421.21 216.347 1423.99 216.347 1425.53V1435.13C216.347 1437.91 216.395 1439.45 216.635 1441.03H211.067C211.259 1439.35 211.355 1437.82 211.355 1435.13V1426.82C211.355 1425.91 211.547 1422.12 211.643 1420.92C210.347 1425.19 208.619 1428.5 205.835 1431.96C205.019 1429.66 204.491 1428.5 203.387 1426.97C205.403 1424.62 206.507 1422.94 207.899 1420.39C208.955 1418.42 210.155 1415.54 210.683 1413.72H208.283C206.411 1413.72 205.499 1413.77 204.443 1413.96V1408.87C205.547 1409.06 206.411 1409.11 208.283 1409.11H211.355ZM226.331 1406.28H235.547C237.467 1402.73 238.331 1400.52 239.435 1396.54L244.763 1398.26C242.555 1403.11 242.075 1404.12 240.779 1406.28H242.267C243.947 1406.28 244.907 1406.23 246.251 1406.09C246.107 1407.24 246.059 1408.01 246.059 1409.45V1418.28C246.059 1419.72 246.107 1420.68 246.251 1421.83C244.955 1421.69 243.803 1421.64 242.267 1421.64H240.107V1434.7C240.107 1435.61 240.347 1435.7 242.171 1435.7C244.139 1435.7 244.235 1435.46 244.331 1428.84C246.155 1430.04 247.403 1430.66 248.843 1431C248.507 1436.23 248.219 1437.72 247.355 1438.87C246.443 1440.17 244.907 1440.5 240.395 1440.5C236.267 1440.5 235.115 1439.59 235.115 1436.42V1421.64H232.091C231.707 1426.87 231.179 1429.51 229.835 1432.49C228.011 1436.57 225.707 1438.97 221.483 1441.27C220.427 1439.45 219.755 1438.63 217.931 1437.05C224.123 1434.22 227.003 1429.32 227.003 1421.64H226.283C224.747 1421.64 223.787 1421.69 222.491 1421.83C222.587 1420.73 222.635 1419.58 222.635 1418.23V1409.59C222.635 1408.44 222.587 1407.19 222.491 1406.09C223.883 1406.23 224.651 1406.28 226.331 1406.28ZM227.435 1410.89V1416.94H240.923V1410.89H227.435ZM232.427 1403.93L227.723 1406.04C226.235 1402.49 225.275 1400.66 223.787 1398.65L228.443 1396.49C230.267 1399.27 231.323 1401.29 232.427 1403.93Z" fill="black"/>
<path d="M781.406 1272.52V1271.57C781.406 1271.23 781.542 1267.76 781.61 1266.67C780.182 1269.6 778.074 1272.45 774.674 1276.19C770.934 1280.27 765.97 1284.62 761.278 1288.02C758.626 1289.93 756.382 1291.36 751.214 1294.28C749.582 1291.08 748.562 1289.86 745.57 1287.21C753.662 1283.54 760.19 1279.05 766.99 1272.45C770.458 1269.05 773.858 1264.84 776.102 1261.23H757.47C752.37 1261.3 751.554 1261.3 749.106 1261.57V1253.28C751.69 1253.75 752.846 1253.75 757.674 1253.75H781.202L781.134 1248.31C781.066 1244.64 781.066 1244.64 780.794 1242.06H789.77C789.566 1243.82 789.498 1245.05 789.498 1247.84V1248.24L789.634 1253.75H796.502C801.058 1253.75 802.146 1253.68 804.526 1253.28V1261.5C802.486 1261.3 800.922 1261.23 796.706 1261.23H789.702L790.042 1292.78C790.11 1296.12 790.246 1298.7 790.45 1300.6H781.202C781.474 1298.7 781.61 1296.86 781.61 1294.08C781.61 1293.67 781.61 1293.33 781.61 1292.85L781.406 1272.52Z" fill="black"/>
<path d="M686.071 1250.49L690.491 1243.55C696.883 1246 703.683 1249.26 708.579 1252.32L704.227 1259.8C698.719 1256.06 691.035 1252.05 686.071 1250.49ZM680.699 1267.01L685.255 1260.01C691.579 1262.52 698.243 1265.92 703.343 1269.26L699.127 1276.94C694.639 1273.47 686.955 1269.32 680.699 1267.01ZM721.091 1244.57L725.851 1242.19C728.843 1245.39 730.679 1247.97 732.991 1252.19L728.231 1254.7C725.987 1250.56 724.083 1247.84 721.091 1244.57ZM684.575 1299.79L682.195 1290.47C687.499 1290.4 694.639 1288.84 701.847 1286.05C714.291 1281.7 724.491 1270.55 729.387 1256.06C732.039 1258.92 733.331 1260.01 736.459 1262.12C728.027 1282.72 713.679 1293.87 689.335 1298.63C686.411 1299.24 685.867 1299.38 684.575 1299.79ZM741.083 1247.77L736.391 1250.42C734.351 1246.68 732.107 1243.48 729.455 1240.56L734.011 1238.18C737.071 1241.31 738.975 1243.89 741.083 1247.77Z" fill="black"/>
<path d="M611.135 1275.65V1266.2C614.127 1266.6 615.419 1266.67 622.151 1266.67H658.395C665.127 1266.67 666.419 1266.6 669.411 1266.2V1275.65C666.691 1275.31 665.943 1275.31 658.327 1275.31H622.219C614.603 1275.31 613.855 1275.31 611.135 1275.65Z" fill="black"/>
<path d="M552.179 1243.35L561.427 1243.42C561.155 1245.32 561.155 1245.93 561.155 1249.54V1268.3C561.155 1271.7 561.155 1272.59 561.427 1274.29H552.111C552.315 1272.72 552.451 1270.62 552.451 1268.17V1249.47C552.451 1246 552.383 1245.12 552.179 1243.35ZM582.847 1243.48H592.299C592.027 1245.18 591.959 1245.93 591.959 1249.81V1258.99C591.891 1269.6 591.415 1275.31 590.191 1279.59C588.219 1286.39 583.867 1291.49 576.795 1295.44C573.191 1297.48 569.791 1298.84 563.535 1300.67C562.311 1297.34 561.631 1296.18 558.775 1292.58C565.439 1291.29 569.383 1289.86 573.463 1287.14C579.855 1282.92 582.099 1278.78 582.847 1269.8C583.119 1266.88 583.187 1263.88 583.187 1258.44V1249.94C583.187 1246.48 583.119 1245.05 582.847 1243.48Z" fill="black"/>
<path d="M525.93 1246.75L530.554 1251.17C529.942 1252.32 529.738 1252.8 529.398 1254.23C525.998 1267.22 521.986 1275.38 515.458 1282.72C508.794 1290.2 501.518 1295.16 490.162 1300.06C488.258 1296.39 487.374 1295.1 484.178 1291.97C490.162 1290.06 494.038 1288.3 499.07 1285.03C509.678 1278.16 516.342 1268.58 519.674 1255.38H487.306C482.75 1255.38 481.186 1255.45 478.738 1255.79V1246.95C481.39 1247.36 482.818 1247.43 487.442 1247.43H518.654C522.462 1247.43 523.822 1247.29 525.93 1246.75Z" fill="black"/>
<path d="M436.307 1263.07C440.795 1263.07 444.399 1266.67 444.399 1271.16C444.399 1275.65 440.795 1279.25 436.307 1279.25C431.819 1279.25 428.215 1275.65 428.215 1271.16C428.215 1266.67 431.819 1263.07 436.307 1263.07Z" fill="black"/>
<path d="M350.151 1243.82L359.399 1244.3C359.127 1246.2 359.127 1246.2 358.719 1259.53C358.243 1272.79 356.747 1280.48 353.211 1287.48C350.899 1292.17 348.315 1295.64 343.827 1300.06C341.175 1296.66 340.155 1295.64 336.959 1293.46C340.291 1290.74 341.923 1288.91 343.963 1285.64C348.859 1277.82 350.423 1269.05 350.423 1250.01C350.423 1246.27 350.423 1245.66 350.151 1243.82ZM368.171 1243.35L377.419 1243.48C377.079 1245.46 377.011 1246.61 376.943 1249.94L376.603 1288.64C381.363 1286.39 384.083 1284.35 387.007 1280.88C390.135 1277.21 392.107 1273.47 393.671 1268.44C396.051 1271.5 396.935 1272.38 400.063 1274.83C397.275 1281.56 393.739 1286.66 389.251 1290.68C385.375 1294.01 381.839 1296.05 374.767 1298.84C373.271 1299.38 372.727 1299.65 371.843 1300.06L367.491 1295.44C367.967 1293.46 368.035 1291.97 368.103 1288.23L368.443 1249.88V1247.84C368.443 1246.14 368.375 1244.64 368.171 1243.35Z" fill="black"/>
<path d="M321.645 1241.78L329.465 1247.22C328.309 1248.24 327.969 1248.52 326.949 1249.6C321.849 1254.91 316.749 1259.33 310.901 1263.61V1292.65C310.901 1296.39 310.969 1298.36 311.241 1300.2H301.721C302.061 1298.22 302.129 1296.86 302.129 1292.85V1268.92C294.173 1273.68 290.365 1275.44 277.853 1279.93C276.425 1276.4 275.677 1275.24 273.297 1272.18C286.761 1268.51 298.185 1262.86 308.997 1254.5C315.049 1249.81 319.673 1245.12 321.645 1241.78Z" fill="black"/>
<path d="M783.242 1148.34L788.885 1141.61C796.977 1146.64 801.194 1149.77 806.43 1154.74L800.581 1162.15C795.141 1156.37 789.566 1151.88 783.242 1148.34ZM785.622 1193.22L783.105 1183.84C788.953 1183.5 797.046 1181.53 803.234 1178.81C811.734 1175.14 818.058 1169.9 823.43 1162.15C826.422 1157.8 828.325 1154.06 830.365 1148.55C833.017 1151.74 834.105 1152.76 837.573 1155.21C831.793 1167.66 825.334 1175.68 816.018 1181.87C809.082 1186.49 800.649 1189.82 790.109 1192.07C787.389 1192.61 787.186 1192.68 785.622 1193.22Z" fill="black"/>
<path d="M766.036 1139.98L770.592 1145.15C769.64 1146.3 769.64 1146.37 767.872 1149.91C765.492 1154.94 761.548 1160.04 757.4 1163.58C754.68 1165.96 752.436 1167.45 749.24 1169.22C747.2 1166.36 746.18 1165.34 743.12 1163.03C747.676 1160.99 750.26 1159.43 753.048 1156.78C755.836 1154.19 757.944 1151.4 759.508 1148.14H723.808C719.048 1148.14 717.348 1148.21 714.56 1148.55V1140.05C717.144 1140.46 719.252 1140.59 723.944 1140.59H759.44C763.52 1140.59 764.132 1140.52 766.036 1139.98ZM733.736 1153.72H742.984C742.78 1155.01 742.78 1155.08 742.712 1159.22C742.44 1170.85 740.604 1177.38 735.98 1183.3C731.9 1188.53 726.936 1192 718.436 1195.54C716.668 1191.86 715.784 1190.64 713.064 1187.78C718.572 1186.15 721.632 1184.66 724.964 1182C731.9 1176.5 734.076 1170.65 734.076 1157.8C734.076 1155.76 734.008 1155.14 733.736 1153.72Z" fill="black"/>
<path d="M652.818 1138.35L662.066 1138.42C661.794 1140.32 661.794 1140.93 661.794 1144.54V1163.3C661.794 1166.7 661.794 1167.59 662.066 1169.29H652.75C652.954 1167.72 653.09 1165.62 653.09 1163.17V1144.47C653.09 1141 653.022 1140.12 652.818 1138.35ZM683.486 1138.48H692.938C692.666 1140.18 692.598 1140.93 692.598 1144.81V1153.99C692.53 1164.6 692.054 1170.31 690.83 1174.59C688.858 1181.39 684.506 1186.49 677.434 1190.44C673.83 1192.48 670.43 1193.84 664.174 1195.67C662.95 1192.34 662.27 1191.18 659.414 1187.58C666.078 1186.29 670.022 1184.86 674.102 1182.14C680.494 1177.92 682.738 1173.78 683.486 1164.8C683.758 1161.88 683.826 1158.88 683.826 1153.44V1144.94C683.826 1141.48 683.758 1140.05 683.486 1138.48Z" fill="black"/>
<path d="M626.094 1143.18L630.65 1147.73C629.766 1148.89 629.63 1149.16 628.542 1152.29C626.366 1158.48 622.626 1166.43 619.838 1170.99C612.902 1182.28 603.314 1190.3 588.83 1196.96C586.654 1193.29 585.77 1192.14 583.186 1189.96C588.966 1187.58 592.366 1185.88 596.446 1183.16C601.274 1180.03 604.13 1177.58 607.598 1173.71C602.838 1169.63 598.758 1166.77 593.658 1163.98L598.826 1157.93C604.538 1161.13 607.394 1163.03 612.494 1167.04C615.69 1162.15 618.002 1157.39 620.11 1151L598.962 1151.2C594.746 1158.2 589.918 1163.71 583.05 1169.49C580.806 1166.98 579.786 1166.09 576.25 1164.05C583.73 1158.48 589.17 1152.29 593.318 1144.67C595.29 1141.07 596.65 1137.74 597.262 1135.22L606.102 1137.19C605.354 1138.42 605.354 1138.42 604.062 1141C603.246 1142.84 602.77 1143.65 602.43 1144.26C603.518 1144.13 603.518 1144.13 620.11 1143.99C622.898 1143.92 624.326 1143.79 626.094 1143.18Z" fill="black"/>
<path d="M561.006 1136.78L568.826 1142.22C567.67 1143.24 567.33 1143.52 566.31 1144.6C561.21 1149.91 556.11 1154.33 550.262 1158.61V1187.65C550.262 1191.39 550.33 1193.36 550.602 1195.2H541.082C541.422 1193.22 541.49 1191.86 541.49 1187.85V1163.92C533.534 1168.68 529.726 1170.44 517.214 1174.93C515.786 1171.4 515.038 1170.24 512.658 1167.18C526.122 1163.51 537.546 1157.86 548.358 1149.5C554.41 1144.81 559.034 1140.12 561.006 1136.78Z" fill="black"/>
<path d="M461.318 1137.53L470.158 1136.1C470.43 1140.66 472.47 1150.45 474.646 1157.39C479.066 1155.76 479.066 1155.76 492.258 1151.4C493.482 1151 493.822 1150.86 494.842 1150.38L497.766 1158.95C491.85 1160.11 482.942 1162.69 475.326 1165.48C465.398 1169.15 460.434 1173.5 460.434 1178.4C460.434 1183.36 465.058 1185.47 476.006 1185.47C484.506 1185.47 492.87 1184.45 497.97 1182.68L498.718 1192C497.222 1192 496.882 1192.07 493.21 1192.48C485.866 1193.22 482.058 1193.5 477.298 1193.5C467.846 1193.5 461.93 1192.34 457.578 1189.76C453.838 1187.51 451.662 1183.3 451.662 1178.4C451.662 1173.84 453.838 1169.49 457.714 1166.23C460.366 1163.98 462.542 1162.62 466.962 1160.38C465.262 1154.87 464.106 1150.32 462.406 1141.95C461.726 1138.69 461.658 1138.55 461.318 1137.53Z" fill="black"/>
<path d="M383.05 1152.83V1143.31C383.05 1139.98 382.914 1137.8 382.642 1135.76H390.53C390.19 1138.01 390.122 1139.78 390.122 1143.38V1152.83H390.87C393.114 1152.83 393.862 1152.76 395.29 1152.63V1159.7C393.454 1159.5 392.434 1159.43 391.006 1159.43H390.122V1177.18C392.026 1176.36 392.706 1176.09 395.222 1174.93L395.358 1182C389.102 1184.79 386.586 1185.88 379.65 1188.67C378.29 1189.21 377.542 1189.55 376.59 1190.03L375.162 1182.14C376.794 1181.94 379.106 1181.26 383.05 1179.9V1159.43H380.738C378.97 1159.43 377.61 1159.5 376.046 1159.77V1152.49C377.678 1152.76 378.97 1152.83 380.806 1152.83H383.05ZM399.982 1164.12V1155.28C399.982 1154.67 399.982 1154.46 399.982 1153.92C399.234 1154.67 398.962 1154.94 398.078 1155.76C396.718 1153.51 395.154 1151.74 393.25 1150.25C396.99 1147.19 399.37 1144.4 401.342 1140.73C402.566 1138.55 403.518 1135.97 403.858 1134.13L411.474 1136.24C411.134 1136.99 411.134 1136.99 409.23 1140.8H429.562C432.962 1140.8 435.206 1140.66 437.246 1140.39V1147.66C435.138 1147.46 432.826 1147.32 429.698 1147.32H405.422C404.402 1148.82 403.926 1149.5 402.498 1151.13C403.722 1151.2 404.198 1151.2 405.15 1151.2H427.25C429.902 1151.2 431.058 1151.13 432.69 1151C432.554 1152.22 432.486 1153.58 432.486 1155.28V1163.98C432.486 1165.89 432.554 1167.04 432.69 1168.34C430.922 1168.13 430.106 1168.13 427.522 1168.13H405.15C402.634 1168.13 401.478 1168.2 399.778 1168.34C399.914 1167.04 399.982 1165.75 399.982 1164.12ZM406.782 1157.12V1162.22H425.482V1157.12H406.782ZM434.526 1188.67H435.342C436.566 1188.67 437.654 1188.6 438.742 1188.4V1195.94C436.566 1195.74 434.186 1195.6 431.194 1195.6H398.758C395.63 1195.6 393.454 1195.74 391.346 1195.94V1188.46C392.57 1188.6 393.726 1188.67 395.562 1188.67H397.262V1178.06C397.262 1174.73 397.194 1173.5 396.99 1171.33C398.962 1171.53 399.642 1171.53 403.45 1171.53H428.202C432.078 1171.53 432.826 1171.53 434.73 1171.33C434.594 1173.37 434.526 1174.86 434.526 1177.99V1188.67ZM403.722 1177.72V1188.67H407.938V1177.72H403.722ZM413.718 1177.72V1188.67H417.866V1177.72H413.718ZM423.646 1177.72V1188.67H427.93V1177.72H423.646Z" fill="black"/>
<path d="M320.559 1135.97L329.195 1136.44C328.379 1138.76 328.039 1140.52 326.747 1149.57C326.271 1152.42 325.999 1154.74 325.863 1156.37H326.067C326.203 1155.96 326.203 1155.96 326.475 1154.87C327.155 1152.49 328.923 1149.16 330.759 1146.78C334.499 1142.16 338.715 1139.84 343.679 1139.84C348.303 1139.84 352.383 1142.02 355.307 1145.96C358.707 1150.52 360.203 1156.03 360.203 1164.05C360.203 1177.18 354.083 1186.97 342.659 1192C339.191 1193.56 334.431 1194.92 329.331 1195.81C327.971 1191.93 327.223 1190.44 325.319 1187.78C332.119 1187.04 336.063 1186.02 340.211 1183.91C348.099 1179.9 351.703 1173.44 351.703 1163.1C351.703 1153.31 348.439 1147.87 342.591 1147.87C340.007 1147.87 337.627 1149.02 335.247 1151.47C329.943 1156.98 326.679 1165.34 326.679 1173.44C326.679 1173.78 326.679 1174.25 326.679 1174.86L318.519 1175C318.587 1174.59 318.587 1174.25 318.587 1174.12C318.587 1173.84 318.587 1173.44 318.587 1172.82C318.519 1170.85 318.383 1165.82 318.383 1164.46C318.383 1158.95 318.791 1151.4 319.335 1146.71L320.355 1138.28C320.491 1137.12 320.559 1136.85 320.559 1135.97Z" fill="black"/>
<path d="M296.895 1165.96H288.939C289.619 1170.58 289.823 1171.67 290.707 1174.46C293.699 1172.48 295.399 1170.99 297.643 1168.4L302.403 1173.1C301.043 1174.18 301.043 1174.18 296.963 1177.52C296.011 1178.4 294.923 1179.15 293.223 1180.24C295.739 1184.72 298.187 1187.31 302.947 1190.78C300.839 1193.02 299.547 1194.72 298.187 1197.17C292.883 1192.2 289.959 1188.4 287.511 1183.23C284.859 1177.65 283.839 1173.98 282.751 1165.96H279.011V1186.97C282.139 1186.15 283.431 1185.81 287.307 1184.52V1191.12C282.479 1192.82 278.671 1193.84 269.627 1196.01C268.267 1196.35 267.927 1196.42 266.499 1196.9L264.867 1189.35C266.839 1189.35 268.539 1189.14 272.143 1188.46V1165.96H268.403C267.927 1174.86 267.383 1179.08 265.955 1184.32C264.663 1189.01 263.099 1192.75 260.719 1197.1C258.611 1194.58 257.523 1193.5 255.007 1191.52C260.923 1182 262.079 1174.39 262.079 1146.1C262.079 1141.41 262.011 1139.57 261.807 1137.46C264.119 1137.67 266.975 1137.8 269.831 1137.8H293.699C296.895 1137.8 299.207 1137.67 301.247 1137.4V1144.67C299.683 1144.47 297.711 1144.4 294.175 1144.4H268.811V1151.54C268.811 1154.67 268.743 1156.37 268.675 1159.7H296.079C298.935 1159.7 300.431 1159.63 301.995 1159.36V1166.23C300.635 1166.02 299.207 1165.96 296.895 1165.96ZM247.527 1154.4H245.079C243.379 1154.4 242.019 1154.46 240.319 1154.74V1147.46C241.951 1147.73 243.107 1147.8 245.147 1147.8H247.527V1142.02C247.527 1138.82 247.459 1137.12 247.119 1135.15H254.939C254.667 1137.26 254.599 1138.76 254.599 1142.02V1147.8H256.707C258.271 1147.8 259.087 1147.73 260.243 1147.53V1154.6C258.951 1154.46 258.067 1154.4 256.775 1154.4H254.599V1164.66C256.231 1163.98 257.183 1163.51 259.835 1162.22V1169.08C257.047 1170.51 256.231 1170.92 254.599 1171.67V1190.71C254.599 1195.88 252.831 1197.37 246.711 1197.37C245.419 1197.37 245.079 1197.37 241.815 1197.24C241.475 1194.31 241.203 1193.16 240.183 1190.16C242.087 1190.44 244.331 1190.64 245.691 1190.64C247.187 1190.64 247.527 1190.3 247.527 1188.74V1174.52C245.215 1175.41 243.651 1176.02 241.815 1176.63C241.407 1176.77 241.203 1176.84 240.795 1177.04L239.707 1169.56C241.815 1169.22 244.127 1168.61 247.527 1167.38V1154.4ZM298.459 1148.75V1155.35C297.099 1155.14 295.739 1155.08 293.563 1155.08H275.815C273.639 1155.08 272.619 1155.14 271.259 1155.28V1148.75C272.415 1148.96 273.571 1149.02 275.815 1149.02H293.495C295.875 1149.02 297.099 1148.96 298.459 1148.75Z" fill="black"/>
</svg>
