<svg width="1080" height="1920" viewBox="0 0 1080 1920" fill="none" xmlns="http://www.w3.org/2000/svg">
<path d="M1080 1920L1080 0L0 0L0 1920H1080Z" fill="#A5D4AD"/>
<path d="M1020 983.72V95C1020 75.67 1004.33 60 985 60H95.58C75.93 60 60 75.93 60 95.58V983.71C60 984.03 60.25 984.28 60.57 984.28C80.03 984.59 95.71 1000.46 95.71 1019.99C95.71 1039.52 80.03 1055.39 60.57 1055.7C60.25 1055.7 60 1055.96 60 1056.27V1824.99C60 1844.32 75.67 1859.99 95 1859.99H985C1004.33 1859.99 1020 1844.32 1020 1824.99V1056.27C1020 1055.95 1019.75 1055.7 1019.43 1055.7C999.97 1055.39 984.29 1039.52 984.29 1019.99C984.29 1000.46 999.97 984.59 1019.43 984.28C1019.75 984.28 1020 984.02 1020 983.71V983.72Z" fill="white"/>
<path d="M60.57 1055.71C60.25 1055.71 60 1055.97 60 1056.28V1825C60 1844.33 75.67 1860 95 1860H985C1004.33 1860 1020 1844.33 1020 1825V1056.28C1020 1055.96 1019.75 1055.71 1019.43 1055.71C999.97 1055.4 984.29 1039.53 984.29 1020H95.71C95.71 1039.53 80.03 1055.4 60.57 1055.71Z" fill="#E5F2E6"/>
<path d="M121 1020H160.9" stroke="black" stroke-width="6" stroke-miterlimit="10"/>
<path d="M187.51 1020H227.41" stroke="black" stroke-width="6" stroke-miterlimit="10"/>
<path d="M254.02 1020H293.92" stroke="black" stroke-width="6" stroke-miterlimit="10"/>
<path d="M320.52 1020H360.43" stroke="black" stroke-width="6" stroke-miterlimit="10"/>
<path d="M387.029 1020H426.939" stroke="black" stroke-width="6" stroke-miterlimit="10"/>
<path d="M453.539 1020H493.439" stroke="black" stroke-width="6" stroke-miterlimit="10"/>
<path d="M520.051 1020H559.951" stroke="black" stroke-width="6" stroke-miterlimit="10"/>
<path d="M586.561 1020H626.461" stroke="black" stroke-width="6" stroke-miterlimit="10"/>
<path d="M653.061 1020H692.971" stroke="black" stroke-width="6" stroke-miterlimit="10"/>
<path d="M719.57 1020H759.48" stroke="black" stroke-width="6" stroke-miterlimit="10"/>
<path d="M786.08 1020H825.98" stroke="black" stroke-width="6" stroke-miterlimit="10"/>
<path d="M852.59 1020H892.49" stroke="black" stroke-width="6" stroke-miterlimit="10"/>
<path d="M919.1 1020H959" stroke="black" stroke-width="6" stroke-miterlimit="10"/>
<path d="M1020 984.29V95C1020 75.67 1004.33 60 985 60H95C75.67 60 60 75.67 60 95V984.29C79.72 984.29 95.71 1000.28 95.71 1020C95.71 1039.72 79.72 1055.71 60 1055.71V1825C60 1844.33 75.67 1860 95 1860H985C1004.33 1860 1020 1844.33 1020 1825V1055.71C1000.28 1055.71 984.29 1039.72 984.29 1020C984.29 1000.28 1000.28 984.29 1020 984.29Z" stroke="black" stroke-width="6" stroke-miterlimit="10"/>
<path d="M912.642 525.66C908.772 525.66 905.532 522.64 905.312 518.73C900.582 435.62 868.782 358.85 813.362 296.74C810.662 293.71 810.922 289.06 813.952 286.36C816.982 283.66 821.622 283.92 824.332 286.95C881.992 351.57 915.062 431.43 919.992 517.89C920.222 521.94 917.122 525.42 913.072 525.65C912.932 525.65 912.792 525.66 912.652 525.66H912.642Z" fill="black"/>
<path d="M818.842 795.509C817.102 795.509 815.352 794.889 813.952 793.639C810.922 790.939 810.662 786.289 813.362 783.259C868.782 721.149 900.582 644.379 905.312 561.269C905.542 557.219 909.022 554.109 913.072 554.349C917.122 554.579 920.222 558.049 919.992 562.109C915.062 648.579 881.992 728.439 824.332 793.049C822.882 794.679 820.862 795.509 818.842 795.509Z" fill="black"/>
<path d="M167.352 525.66C167.212 525.66 167.072 525.66 166.932 525.65C162.882 525.42 159.782 521.95 160.012 517.89C164.942 431.42 198.012 351.56 255.672 286.95C258.372 283.92 263.022 283.66 266.052 286.36C269.082 289.06 269.342 293.71 266.642 296.74C211.222 358.85 179.422 435.61 174.692 518.73C174.472 522.64 171.232 525.66 167.362 525.66H167.352Z" fill="black"/>
<path d="M261.162 795.509C259.142 795.509 257.122 794.679 255.672 793.049C198.012 728.429 164.942 648.569 160.012 562.109C159.782 558.059 162.882 554.579 166.932 554.349C170.982 554.109 174.462 557.219 174.692 561.269C179.422 644.389 211.222 721.149 266.642 783.259C269.342 786.289 269.082 790.939 266.052 793.639C264.652 794.889 262.902 795.509 261.162 795.509Z" fill="black"/>
<path d="M788.162 268.509C786.422 268.509 784.672 267.889 783.272 266.639C721.162 211.219 644.392 179.419 561.282 174.689C557.232 174.459 554.132 170.989 554.362 166.929C554.592 162.879 558.032 159.789 562.122 160.009C648.592 164.939 728.452 198.009 793.062 255.669C796.092 258.369 796.352 263.019 793.652 266.049C792.202 267.679 790.182 268.509 788.162 268.509Z" fill="black"/>
<path d="M291.842 268.51C289.822 268.51 287.802 267.68 286.352 266.05C283.652 263.02 283.912 258.37 286.942 255.67C351.562 198.01 431.422 164.94 517.882 160.01C521.932 159.78 525.412 162.88 525.642 166.93C525.872 170.98 522.772 174.46 518.722 174.69C435.612 179.42 358.842 211.22 296.732 266.64C295.332 267.89 293.582 268.51 291.842 268.51Z" fill="black"/>
<path d="M561.682 920C557.812 920 554.572 916.98 554.352 913.07C554.122 909.02 557.222 905.54 561.272 905.31C644.392 900.58 721.152 868.78 783.262 813.36C786.292 810.66 790.942 810.92 793.642 813.95C796.342 816.98 796.082 821.63 793.052 824.33C728.432 881.99 648.572 915.06 562.112 919.99C561.972 919.99 561.832 920 561.692 920H561.682Z" fill="black"/>
<path d="M518.312 920C518.172 920 518.032 920 517.892 919.99C431.422 915.06 351.562 881.99 286.952 824.33C283.922 821.63 283.662 816.98 286.362 813.95C289.062 810.92 293.712 810.66 296.742 813.36C358.852 868.78 435.622 900.58 518.732 905.31C522.782 905.54 525.882 909.01 525.652 913.07C525.432 916.98 522.192 920 518.322 920H518.312Z" fill="black"/>
<path d="M875.372 526.191C872.362 526.191 869.842 523.841 869.672 520.801C865.402 445.791 836.702 376.521 786.692 320.461C784.592 318.101 784.792 314.491 787.152 312.391C789.502 310.291 793.122 310.491 795.222 312.851C846.972 370.851 876.672 442.541 881.092 520.151C881.272 523.301 878.862 526.001 875.712 526.181C875.602 526.181 875.492 526.181 875.382 526.181L875.372 526.191Z" fill="black"/>
<path d="M790.952 769.062C789.592 769.062 788.242 768.582 787.152 767.612C784.792 765.512 784.592 761.892 786.692 759.542C836.702 703.492 865.402 634.212 869.672 559.202C869.852 556.052 872.542 553.642 875.702 553.822C878.852 554.002 881.262 556.702 881.082 559.852C876.662 637.472 846.972 709.152 795.212 767.152C794.082 768.422 792.512 769.062 790.942 769.062H790.952Z" fill="black"/>
<path d="M204.622 526.191C204.512 526.191 204.402 526.191 204.292 526.191C201.142 526.011 198.732 523.311 198.912 520.161C203.332 442.541 233.022 370.861 284.782 312.861C286.882 310.501 290.502 310.301 292.852 312.401C295.212 314.501 295.412 318.121 293.312 320.471C243.302 376.521 214.602 445.801 210.332 520.811C210.162 523.851 207.642 526.201 204.632 526.201L204.622 526.191Z" fill="black"/>
<path d="M289.042 769.061C287.472 769.061 285.902 768.411 284.772 767.151C233.022 709.151 203.322 637.461 198.902 559.851C198.722 556.701 201.132 554.001 204.282 553.821C207.442 553.631 210.132 556.051 210.312 559.201C214.582 634.211 243.282 703.491 293.292 759.541C295.392 761.901 295.192 765.511 292.832 767.611C291.742 768.581 290.382 769.061 289.032 769.061H289.042Z" fill="black"/>
<path d="M763.342 294.762C761.982 294.762 760.632 294.282 759.542 293.312C703.492 243.302 634.212 214.602 559.202 210.332C556.052 210.152 553.642 207.452 553.822 204.302C554.002 201.152 556.692 198.742 559.852 198.922C637.472 203.342 709.152 233.032 767.152 284.792C769.512 286.892 769.712 290.512 767.612 292.862C766.482 294.132 764.912 294.772 763.342 294.772V294.762Z" fill="black"/>
<path d="M316.651 294.761C315.081 294.761 313.511 294.111 312.381 292.851C310.281 290.491 310.481 286.881 312.841 284.781C370.841 233.031 442.531 203.331 520.141 198.911C523.291 198.721 525.991 201.141 526.171 204.291C526.351 207.441 523.941 210.141 520.791 210.321C445.781 214.591 376.511 243.291 320.451 293.301C319.361 294.271 318.001 294.751 316.651 294.751V294.761Z" fill="black"/>
<path d="M559.522 881.102C556.512 881.102 553.992 878.752 553.822 875.712C553.642 872.562 556.052 869.862 559.202 869.682C634.212 865.412 703.482 836.712 759.542 786.702C761.892 784.602 765.512 784.802 767.612 787.162C769.712 789.522 769.512 793.132 767.152 795.232C709.152 846.982 637.462 876.682 559.852 881.102C559.742 881.102 559.632 881.102 559.522 881.102Z" fill="black"/>
<path d="M520.481 881.102C520.371 881.102 520.261 881.102 520.151 881.102C442.531 876.682 370.851 846.992 312.851 795.232C310.491 793.132 310.291 789.512 312.391 787.162C314.491 784.802 318.111 784.602 320.461 786.702C376.511 836.722 445.791 865.412 520.801 869.682C523.951 869.862 526.361 872.562 526.181 875.712C526.011 878.752 523.491 881.102 520.481 881.102Z" fill="black"/>
<path d="M841.841 526.51C839.691 526.51 837.891 524.83 837.771 522.66C833.911 454.91 807.991 392.34 762.821 341.71C761.321 340.03 761.471 337.45 763.151 335.94C764.831 334.44 767.411 334.58 768.921 336.27C815.341 388.29 841.971 452.58 845.931 522.19C846.061 524.44 844.341 526.37 842.081 526.5C842.001 526.5 841.921 526.5 841.841 526.5V526.51Z" fill="black"/>
<path d="M765.862 745.101C764.892 745.101 763.922 744.761 763.142 744.061C761.462 742.561 761.312 739.981 762.812 738.291C807.982 687.661 833.902 625.091 837.762 557.341C837.892 555.091 839.852 553.391 842.072 553.491C844.322 553.621 846.042 555.551 845.922 557.801C841.952 627.411 815.322 691.701 768.912 743.721C768.102 744.621 766.982 745.081 765.862 745.081V745.101Z" fill="black"/>
<path d="M238.162 526.51C238.082 526.51 238.002 526.51 237.922 526.51C235.672 526.38 233.952 524.45 234.072 522.2C238.042 452.59 264.672 388.3 311.082 336.28C312.582 334.6 315.162 334.45 316.852 335.95C318.532 337.45 318.682 340.03 317.182 341.72C272.012 392.35 246.092 454.92 242.232 522.67C242.112 524.84 240.312 526.52 238.162 526.52V526.51Z" fill="black"/>
<path d="M314.131 745.101C313.011 745.101 311.891 744.641 311.081 743.741C264.661 691.721 238.031 627.431 234.071 557.821C233.941 555.571 235.661 553.641 237.921 553.511C240.161 553.401 242.101 555.101 242.231 557.361C246.091 625.111 272.011 687.681 317.181 738.311C318.681 739.991 318.531 742.571 316.851 744.081C316.071 744.771 315.101 745.121 314.131 745.121V745.101Z" fill="black"/>
<path d="M741.01 318.219C740.04 318.219 739.07 317.879 738.29 317.179C687.66 272.009 625.09 246.089 557.34 242.229C555.09 242.099 553.37 240.169 553.49 237.919C553.62 235.669 555.54 233.959 557.8 234.069C627.41 238.039 691.7 264.669 743.73 311.079C745.41 312.579 745.56 315.159 744.06 316.849C743.25 317.749 742.13 318.209 741.01 318.209V318.219Z" fill="black"/>
<path d="M338.991 318.22C337.871 318.22 336.751 317.76 335.941 316.86C334.441 315.18 334.591 312.6 336.271 311.09C388.291 264.67 452.581 238.04 522.191 234.08C524.441 233.96 526.371 235.67 526.501 237.93C526.631 240.18 524.91 242.11 522.65 242.24C454.9 246.1 392.331 272.02 341.701 317.19C340.921 317.88 339.951 318.23 338.981 318.23L338.991 318.22Z" fill="black"/>
<path d="M557.561 845.929C555.411 845.929 553.611 844.249 553.491 842.079C553.361 839.829 555.081 837.899 557.341 837.769C625.091 833.909 687.661 807.989 738.291 762.819C739.971 761.319 742.551 761.469 744.061 763.149C745.561 764.829 745.411 767.409 743.731 768.919C691.711 815.339 627.421 841.969 557.801 845.929C557.721 845.929 557.641 845.929 557.561 845.929Z" fill="black"/>
<path d="M522.431 845.929C522.351 845.929 522.271 845.929 522.191 845.929C452.581 841.959 388.291 815.329 336.271 768.919C334.591 767.419 334.441 764.839 335.941 763.149C337.441 761.469 340.021 761.319 341.711 762.819C392.341 807.989 454.911 833.909 522.661 837.769C524.911 837.899 526.631 839.829 526.511 842.079C526.391 844.249 524.591 845.929 522.441 845.929H522.431Z" fill="black"/>
<path d="M320.642 546.17C320.642 544.6 321.782 543.27 323.332 543.02C324.632 542.81 326.262 542.52 327.972 542.12C332.392 541.08 337.582 539.11 343.402 536.27C349.282 533.4 354.912 529.41 359.162 523.67C366.332 513.97 367.852 501.4 368.182 496.89C368.252 495.97 367.522 495.19 366.592 495.19H317.082C315.322 495.19 313.902 493.76 313.902 492.01V470.69C313.902 468.93 315.332 467.51 317.082 467.51H367.062C367.942 467.51 368.652 466.8 368.652 465.92V447.18C368.652 446.3 367.942 445.59 367.062 445.59H328.612C326.852 445.59 325.432 444.16 325.432 442.41V421.09C325.432 419.33 326.862 417.91 328.612 417.91H428.952C430.712 417.91 432.132 419.34 432.132 421.09V442.41C432.132 444.17 430.702 445.59 428.952 445.59H398.512C397.632 445.59 396.922 446.3 396.922 447.18V465.92C396.922 466.8 397.632 467.51 398.512 467.51H438.572C440.332 467.51 441.752 468.94 441.752 470.69V492.01C441.752 493.77 440.322 495.19 438.572 495.19H398.382C397.532 495.19 396.832 495.86 396.792 496.71C396.562 501.75 395.142 518.44 386.172 532.85C380.722 541.61 373.642 548.26 366.532 553.54C359.402 558.84 352.252 562.93 345.262 565.7C338.232 568.49 332.332 570.44 327.742 571.51C326.652 571.76 325.482 571.99 324.392 572.18C322.442 572.53 320.652 571.03 320.652 569.04V546.16L320.642 546.17Z" fill="black"/>
<path d="M474.542 546.52C474.542 545.06 475.542 543.79 476.952 543.43C485.202 541.36 488.922 540.11 496.832 536.32C496.832 536.32 500.882 534.21 504.922 531.3C517.102 522.54 525.212 510.63 525.212 510.63C534.672 497.28 537.762 474.91 538.482 468.49C538.592 467.55 537.852 466.72 536.902 466.72H500.572C500.342 466.72 500.132 466.84 500.022 467.04L499.872 467.29C494.292 478.11 486.872 487.99 480.442 494.24C473.992 500.5 468.582 505.05 464.372 507.75L461.772 509.42C460.712 510.1 459.322 509.34 459.322 508.08V479.89C459.322 478.95 459.742 478.06 460.462 477.45C461.112 476.9 461.982 476.13 463.172 475.06C465.932 472.57 469.042 468.51 472.412 462.98C475.752 457.51 479.342 450.21 483.062 441.29C486.442 433.2 488.972 423.09 490.852 412.06C491.112 410.53 492.442 409.42 493.992 409.42H513.902C515.902 409.42 517.412 411.25 517.032 413.21C516.392 416.52 515.702 420.88 514.842 424.31C513.572 429.39 512.752 432.3 511.232 436.72C510.972 437.47 511.532 438.24 512.322 438.24H591.172C592.932 438.24 594.352 439.67 594.352 441.42V463.51C594.352 465.27 592.922 466.69 591.172 466.69H568.132C567.322 466.69 566.632 467.3 566.552 468.11C565.922 474.01 562.872 497.16 552.382 517.26C538.282 546 508.132 566.39 478.332 572.13C476.372 572.51 474.552 571 474.552 569V546.48L474.542 546.52Z" fill="black"/>
<path d="M675.893 411.029V468.869C675.893 469.749 676.603 470.459 677.483 470.459H764.513C765.393 470.459 766.103 469.749 766.103 468.869V411.029C766.103 410.149 765.393 409.439 764.513 409.439H677.483C676.603 409.439 675.893 410.149 675.893 411.029ZM738.453 452.739H702.293C701.413 452.739 700.703 452.029 700.703 451.149V446.869C700.703 445.989 701.413 445.279 702.293 445.279H738.453C739.333 445.279 740.043 445.989 740.043 446.869V451.149C740.043 452.029 739.333 452.739 738.453 452.739ZM738.453 434.449H702.293C701.413 434.449 700.703 433.739 700.703 432.859V428.749C700.703 427.869 701.413 427.159 702.293 427.159H738.453C739.333 427.159 740.043 427.869 740.043 428.749V432.859C740.043 433.739 739.333 434.449 738.453 434.449Z" fill="black"/>
<path d="M674.222 497.34H728.262C729.142 497.34 729.852 498.05 729.852 498.93V502.84C729.852 503.72 729.142 504.43 728.262 504.43H667.752C665.992 504.43 664.572 505.86 664.572 507.61V522.86C664.572 524.62 666.002 526.04 667.752 526.04H728.262C729.142 526.04 729.852 526.75 729.852 527.63V545.39C729.852 546.11 729.932 547.98 729.212 548.85C728.382 549.87 727.142 549.67 725.842 549.72C722.532 549.72 719.572 549.7 716.942 549.66C716.542 549.66 716.252 549.29 716.332 548.9C716.592 547.63 716.722 546.31 716.692 544.96C716.492 535.68 708.932 528.08 699.652 527.84C689.572 527.58 681.362 535.85 681.702 545.94C682.012 555.29 689.782 562.81 699.142 562.84C704.032 562.85 708.452 560.86 711.632 557.64C711.972 557.3 712.542 557.43 712.692 557.88C714.152 562.21 715.532 566.34 716.782 570.05C717.222 571.35 718.452 572.22 719.822 572.21C725.722 572.17 730.502 571.96 734.172 571.6C738.302 571.18 742.082 570.15 745.512 568.5C749.172 566.84 751.682 564.42 753.042 561.23C754.402 558.04 755.082 553.55 755.082 547.76V527.62C755.082 526.74 755.792 526.03 756.672 526.03H762.902C764.662 526.03 766.082 524.6 766.082 522.85V507.6C766.082 505.84 764.652 504.42 762.902 504.42H756.672C755.792 504.42 755.082 503.71 755.082 502.83V498.92C755.082 498.04 755.792 497.33 756.672 497.33H762.902C764.662 497.33 766.082 495.9 766.082 494.15V479.6C766.082 477.84 764.652 476.42 762.902 476.42H674.202C672.442 476.42 671.022 477.85 671.022 479.6V494.15C671.022 495.91 672.452 497.33 674.202 497.33L674.222 497.34Z" fill="black"/>
<path d="M668.822 409.439H650.252C649.392 409.439 648.572 409.789 647.972 410.399C635.222 423.349 618.282 434.569 612.122 438.479C610.772 439.329 610.272 441.059 610.942 442.499L620.692 463.569C621.622 465.569 624.252 466.049 625.822 464.499C646.112 444.459 664.442 419.799 670.112 411.959C670.872 410.909 670.112 409.439 668.822 409.439Z" fill="black"/>
<path d="M671.912 453.889V435.409C671.912 433.999 670.212 433.289 669.202 434.279C653.632 449.599 620.042 477.059 611.672 483.859C610.542 484.779 610.182 486.349 610.792 487.669L620.692 509.049C621.622 511.049 624.252 511.529 625.822 509.979C627.532 508.289 629.232 506.559 630.912 504.819C631.312 504.409 632.012 504.689 632.012 505.259V569.059C632.012 570.819 633.442 572.239 635.192 572.239H653.812C655.572 572.239 656.992 570.809 656.992 569.059V476.369C656.992 475.299 657.352 474.249 658.022 473.409C664.862 464.729 669.712 458.019 671.332 455.739C671.712 455.199 671.922 454.559 671.922 453.889H671.912Z" fill="black"/>
<path d="M653.263 623.33C640.843 623.33 634.803 628.28 634.803 638.47V655.6C634.803 665.67 640.843 670.56 653.263 670.56C659.133 670.56 663.473 669.48 666.553 667.27C669.993 664.8 671.733 660.87 671.733 655.59V638.46C671.733 628.27 665.693 623.32 653.273 623.32L653.263 623.33ZM646.083 639.3C646.083 633.93 648.833 632.91 653.263 632.91C657.693 632.91 660.443 633.95 660.443 639.3V654.68C660.443 659.95 657.593 660.98 653.263 660.98C648.933 660.98 646.083 659.98 646.083 654.68V639.3Z" fill="black"/>
<path d="M708.262 669.331H721.352L703.622 646.781L720.552 624.8H707.392L694.052 642.281V610.23H682.762V669.331H694.052V659.211L696.942 655.451L708.262 669.331Z" fill="black"/>
<path d="M754.812 624.801V653.291C754.812 659.041 751.872 660.891 746.822 660.891C743.552 660.891 740.272 660.351 740.272 653.881V624.811H728.992V656.771C728.992 665.741 733.702 670.481 742.612 670.481C749.292 670.481 753.872 666.861 755.572 662.801L757.382 669.341H766.102V624.811H754.822L754.812 624.801Z" fill="black"/>
<path d="M630.563 610.23H589.143V620.141V620.151H604.213V669.331H615.683V620.151H630.563V610.23Z" fill="black"/>
<path d="M459.681 669.331H472.771L455.041 646.781L471.971 624.8H458.811L445.471 642.281V610.23H434.191V669.331H445.471V659.211L448.361 655.451L459.681 669.331Z" fill="black"/>
<path d="M355.322 610.23H313.902V620.141V620.151H328.982V669.331H340.442V620.151H355.322V610.23Z" fill="black"/>
<path d="M421.792 658.89L421.192 659.04C417.612 659.96 413.282 660.89 409.402 660.89C404.852 660.89 401.682 658.82 401.682 652.83V640.97C401.682 634.9 404.852 632.82 409.402 632.82C413.352 632.82 417.872 633.7 421.222 634.4L421.802 634.52V625.19L421.492 625.12C417.682 624.23 412.042 623.33 407.522 623.33C402.002 623.33 397.962 624.4 395.162 626.59C391.962 629.09 390.412 633.85 390.412 639.34V654.64C390.412 664.77 396.012 670.56 407.532 670.56C411.402 670.56 417.262 669.49 421.522 668.31L421.812 668.23V658.88L421.792 658.89Z" fill="black"/>
<path d="M553.922 634.699V624.799H543.682V615.189H532.402V624.799H525.172V634.699H532.402V655.419C532.402 667.939 540.292 670.559 546.922 670.559C548.702 670.559 550.502 670.449 552.112 670.219V660.259C551.462 660.329 550.252 660.359 549.532 660.359C546.452 660.359 543.682 659.729 543.682 652.089V634.689H553.922V634.699Z" fill="black"/>
<path d="M489.733 650.741V650.561H515.163V641.481C515.163 635.571 513.543 630.241 510.353 627.341C507.413 624.671 502.773 623.311 497.253 623.311C485.073 623.311 478.453 629.221 478.453 639.591V654.451C478.453 664.701 483.833 670.551 496.313 670.551C500.973 670.551 506.283 669.561 511.963 668.401L512.353 668.321V659.051L511.703 659.201C507.133 660.251 504.613 661.141 500.283 661.141C494.073 661.141 489.733 658.621 489.733 652.201V650.721V650.741ZM489.733 639.721C489.733 634.071 493.793 632.741 497.163 632.741C500.533 632.741 504.063 634.071 504.063 639.721V643.231H489.733V642.711V639.721Z" fill="black"/>
<path d="M378.173 626.881H366.893V669.331H378.173V626.881Z" fill="black"/>
<path d="M372.532 622.22C376.415 622.22 379.562 619.073 379.562 615.19C379.562 611.308 376.415 608.16 372.532 608.16C368.649 608.16 365.502 611.308 365.502 615.19C365.502 619.073 368.649 622.22 372.532 622.22Z" fill="black"/>
<path d="M585.733 643.92H566.143V651.26H585.733V643.92Z" fill="black"/>
<path d="M725.434 1703.04L716.026 1713.23C707.892 1703.24 696.622 1692.26 685.94 1684.13C674.866 1696.48 663.596 1705.1 648.602 1712.45C645.858 1707.35 644.682 1705.79 640.664 1701.57C648.21 1698.63 652.914 1695.99 660.264 1690.79C675.062 1680.4 686.822 1666.19 693.192 1650.91L694.27 1648.36C692.702 1648.46 692.702 1648.46 661.832 1648.95C657.128 1649.04 654.482 1649.24 651.15 1649.73L650.758 1637.19C653.502 1637.68 655.364 1637.77 659.382 1637.77C659.774 1637.77 660.558 1637.77 661.734 1637.77L696.23 1637.28C701.718 1637.19 702.502 1637.09 704.952 1636.21L711.42 1642.87C710.146 1644.34 709.362 1645.71 708.284 1648.16C703.776 1658.65 698.974 1667.17 692.996 1675.21C699.17 1679.33 704.462 1683.44 711.126 1689.42C713.576 1691.58 713.576 1691.58 725.434 1703.04Z" fill="black"/>
<path d="M565.302 1643.26V1663.06C580.1 1660.31 601.758 1651.59 608.128 1645.61L615.968 1656.69C615.282 1656.98 612.342 1658.35 607.148 1660.9C593.82 1667.27 580.1 1671.68 565.302 1674.43V1687.36C565.204 1687.85 565.204 1688.34 565.204 1688.64C565.204 1694.32 565.596 1696.57 566.968 1697.95C568.634 1699.71 574.22 1700.49 583.726 1700.49C590.292 1700.49 599.308 1699.91 606.462 1698.93C611.166 1698.34 613.322 1697.85 617.634 1696.57L618.222 1709.61C616.164 1709.61 615.674 1709.71 605.286 1710.69C599.504 1711.27 587.156 1711.86 581.178 1711.86C568.83 1711.86 562.068 1710.59 558.246 1707.65C555.502 1705.59 554.032 1702.45 553.444 1697.65C553.248 1695.99 553.15 1694.32 553.15 1688.64L553.052 1643.16C553.052 1638.17 553.052 1636.6 552.66 1634.15H565.792C565.4 1636.5 565.302 1638.26 565.302 1643.26ZM604.894 1632.68L611.852 1629.54C615.772 1633.95 618.418 1637.97 621.652 1644.44L614.596 1647.67C611.558 1641.4 609.01 1637.48 604.894 1632.68ZM633.51 1638.46L626.552 1641.99C623.906 1636.6 620.868 1631.89 617.144 1627.39L623.906 1624.25C628.218 1629.15 630.864 1632.97 633.51 1638.46Z" fill="black"/>
<path d="M444.957 1679.23V1665.61C449.269 1666.19 451.131 1666.29 460.833 1666.29H513.067C522.769 1666.29 524.631 1666.19 528.943 1665.61V1679.23C525.023 1678.74 523.945 1678.74 512.969 1678.74H460.931C449.955 1678.74 448.877 1678.74 444.957 1679.23Z" fill="black"/>
<path d="M376.162 1649.63H401.642L401.74 1645.22V1642.09C401.74 1635.62 401.642 1633.46 401.25 1631.21H413.892C413.598 1633.46 413.5 1633.95 413.5 1637.77C413.5 1643.75 413.5 1643.75 413.402 1649.63H419.674C426.632 1649.63 428.592 1649.53 432.414 1648.95V1660.9C428.984 1660.51 426.338 1660.41 419.87 1660.41H413.304C413.108 1672.17 413.108 1672.86 412.618 1676.58C411.246 1689.13 407.032 1697.46 398.506 1704.71C393.214 1709.22 388.412 1711.76 379.396 1715C377.534 1710.78 376.26 1708.92 372.046 1704.61C381.356 1701.77 386.06 1699.42 390.764 1695.3C397.428 1689.52 400.27 1683.05 401.152 1671.78C401.348 1669.53 401.348 1667.17 401.544 1660.41H376.162V1675.11C376.162 1679.23 376.26 1680.8 376.554 1683.34H363.814C364.108 1681.19 364.206 1678.54 364.206 1674.92V1660.41H358.228C351.76 1660.41 349.114 1660.51 345.684 1660.9V1648.95C349.506 1649.53 351.466 1649.63 358.424 1649.63H364.206V1639.83C364.206 1635.72 364.108 1633.66 363.716 1631.11H376.554C376.162 1634.34 376.162 1634.54 376.162 1639.54V1649.63Z" fill="black"/>
<path d="M748.362 1514.11L754.634 1520.28C753.654 1521.75 753.262 1522.63 752.184 1526.16C747.676 1541.06 740.718 1554.29 732.094 1563.99C723.078 1574.28 712.298 1581.92 697.206 1588.88C694.462 1583.98 693.188 1582.31 688.876 1578.59C698.676 1574.57 704.164 1571.63 710.338 1567.03C724.352 1556.64 733.564 1543.21 738.954 1525.67L709.456 1526.16C703.478 1535.67 695.834 1544.09 686.524 1551.25C683.584 1547.23 682.114 1545.96 677.018 1542.82C688.19 1535.18 695.246 1527.34 702.4 1514.4C705.438 1508.81 707.006 1504.99 707.398 1501.46L720.824 1504.11C720.236 1504.99 720.236 1504.99 719.158 1507.15C718.864 1507.64 718.864 1507.64 717.884 1509.89C717.59 1510.48 717.59 1510.48 716.61 1512.44C716.022 1513.81 716.022 1513.81 715.042 1515.58C716.316 1515.48 717.884 1515.38 719.746 1515.38L741.208 1515.09C745.03 1515.09 746.108 1514.89 748.362 1514.11Z" fill="black"/>
<path d="M582.841 1520.08L590.975 1510.38C602.637 1517.63 608.713 1522.14 616.259 1529.3L607.831 1539.98C599.991 1531.65 591.955 1525.18 582.841 1520.08ZM586.271 1584.76L582.645 1571.24C591.073 1570.75 602.735 1567.91 611.653 1563.99C623.903 1558.7 633.017 1551.15 640.759 1539.98C645.071 1533.71 647.815 1528.32 650.755 1520.38C654.577 1524.98 656.145 1526.45 661.143 1529.98C652.813 1547.92 643.503 1559.48 630.077 1568.4C620.081 1575.06 607.929 1579.86 592.739 1583.1C588.819 1583.88 588.525 1583.98 586.271 1584.76Z" fill="black"/>
<path d="M492.875 1505.68L506.203 1505.78C505.811 1508.52 505.811 1509.4 505.811 1514.6V1541.64C505.811 1546.54 505.811 1547.82 506.203 1550.27H492.777C493.071 1548.01 493.267 1544.98 493.267 1541.45V1514.5C493.267 1509.5 493.169 1508.23 492.875 1505.68ZM537.073 1505.87H550.695C550.303 1508.32 550.205 1509.4 550.205 1514.99V1528.22C550.107 1543.51 549.421 1551.74 547.657 1557.91C544.815 1567.71 538.543 1575.06 528.351 1580.75C523.157 1583.69 518.257 1585.65 509.241 1588.29C507.477 1583.49 506.497 1581.82 502.381 1576.63C511.985 1574.77 517.669 1572.71 523.549 1568.79C532.761 1562.71 535.995 1556.74 537.073 1543.8C537.465 1539.59 537.563 1535.27 537.563 1527.43V1515.18C537.563 1510.19 537.465 1508.13 537.073 1505.87Z" fill="black"/>
<path d="M412.614 1587.41H399.188C399.579 1584.67 399.775 1582.02 399.775 1576.43V1513.62C399.677 1507.93 399.579 1505.97 399.188 1503.62H412.614C412.32 1506.27 412.221 1508.13 412.221 1513.91V1532.14C423.589 1535.86 441.23 1544.09 456.714 1552.82L449.854 1564.38C442.994 1559.48 429.078 1551.93 415.161 1545.66C412.907 1544.58 412.613 1544.49 411.829 1544C412.124 1546.74 412.221 1548.41 412.221 1550.66V1576.53C412.221 1581.82 412.32 1584.57 412.614 1587.41ZM432.703 1512.15L439.564 1508.72C443.876 1513.32 446.521 1517.05 449.854 1523.12L442.993 1526.75C439.76 1520.77 437.015 1516.85 432.703 1512.15ZM461.516 1516.75L454.754 1520.57C451.814 1515.18 448.58 1510.58 444.758 1506.36L451.324 1502.93C455.734 1507.44 458.478 1511.17 461.516 1516.75Z" fill="black"/>
<path d="M349.021 1584.18H334.223C334.811 1580.35 335.007 1576.53 335.007 1571.44V1517.44H330.303C326.677 1517.44 323.835 1517.63 320.209 1518.03V1505.58C323.247 1506.07 325.403 1506.17 330.009 1506.17H339.025C344.023 1506.17 345.493 1506.07 349.021 1505.68C348.433 1511.46 348.237 1515.97 348.237 1521.85V1571.44C348.237 1576.63 348.433 1580.16 349.021 1584.18Z" fill="black"/>
<path d="M592.744 1374.23C591.832 1381.77 590.152 1388.39 587.752 1393.82C585.016 1400.01 581.944 1402.84 578.008 1402.84C572.536 1402.84 568.6 1397.27 568.6 1389.54C568.6 1384.26 570.472 1379.32 573.88 1375.58C577.912 1371.16 583.576 1368.86 590.392 1368.86C601.912 1368.86 609.4 1375.86 609.4 1386.66C609.4 1394.97 605.08 1401.59 597.736 1404.57C595.432 1405.53 593.56 1406.01 590.2 1406.58C589.384 1404.04 588.808 1402.98 587.272 1400.97C591.688 1400.39 594.568 1399.62 596.824 1398.33C601 1396.02 603.496 1391.46 603.496 1386.33C603.496 1381.72 601.432 1377.98 597.592 1375.67C596.104 1374.81 594.856 1374.42 592.744 1374.23ZM586.888 1374.28C584.392 1374.57 582.664 1375.24 580.696 1376.63C576.664 1379.51 574.168 1384.46 574.168 1389.59C574.168 1393.53 575.848 1396.65 577.96 1396.65C579.544 1396.65 581.176 1394.63 582.904 1390.5C584.728 1386.18 586.312 1379.7 586.888 1374.28Z" fill="black"/>
<path d="M555.016 1385.27H548.728C549.64 1387.91 549.928 1388.73 550.888 1390.5C553.288 1388.82 555.16 1387.14 556.168 1385.66L560.632 1388.82C560.104 1389.21 559.96 1389.35 559.432 1389.83C557.128 1391.85 555.016 1393.43 553.336 1394.44C556.168 1398.09 559.912 1400.82 563.944 1402.22C562.504 1403.99 561.496 1405.53 560.728 1407.35C555.496 1404.66 552.184 1401.74 548.92 1396.94C546.952 1394.06 544.984 1389.64 543.592 1385.27H542.296C541.528 1385.8 541.24 1386.04 540.328 1386.62C542.296 1388.63 543.64 1390.79 544.6 1393.62C545.608 1396.41 545.896 1398.04 545.896 1401.06C545.896 1407.06 543.88 1408.94 537.496 1408.94C536.92 1408.94 536.104 1408.89 535 1408.84C534.568 1406.44 534.28 1405.67 533.176 1403.75C534.904 1403.99 536.2 1404.14 537.256 1404.14C540.328 1404.14 540.856 1403.56 540.856 1400.3C540.856 1400.01 540.856 1399.82 540.76 1399.38C534.952 1403.03 528.664 1405.82 521.8 1407.78C521.032 1406.01 520.312 1404.86 519.016 1403.46C526.744 1401.74 534.136 1398.86 539.848 1395.3C539.56 1394.49 539.464 1394.25 539.176 1393.58C534.04 1396.41 528.232 1398.62 522.04 1400.15C521.08 1398.04 520.744 1397.46 519.688 1396.22C526.168 1394.97 531.928 1393.05 537.352 1390.31C536.92 1389.69 536.776 1389.5 536.248 1388.87C531.88 1390.94 527.08 1392.52 522.04 1393.48C521.224 1391.46 520.744 1390.65 519.736 1389.45C525.208 1388.68 530.584 1387.19 534.808 1385.27H528.616C526.696 1385.27 525.496 1385.32 523.912 1385.42C524.056 1384.41 524.104 1383.3 524.104 1381.19V1377.64C522.856 1378.46 522.376 1378.74 520.84 1379.56C520.216 1377.69 519.64 1376.63 518.488 1375.1C521.752 1373.7 524.776 1371.78 527.464 1369.48C529.864 1367.42 531.496 1365.59 532.696 1363.67L538.6 1364.63L536.776 1366.74H544.552C546.184 1366.74 548.632 1366.65 549.16 1366.55L551.848 1369C551.416 1369.48 551.224 1369.62 550.696 1370.25C549.4 1371.54 548.68 1372.26 547.24 1373.56H554.488C556.936 1373.56 558.232 1373.51 559.528 1373.37C559.384 1374.86 559.336 1375.82 559.336 1377.59V1381.19C559.336 1382.92 559.384 1384.17 559.528 1385.42C558.28 1385.32 557.032 1385.27 555.016 1385.27ZM529.864 1373.56H541.24C542.488 1372.46 543.256 1371.64 544.024 1370.68H533.128C531.928 1371.88 531.256 1372.46 529.864 1373.56ZM529.144 1380.86H538.888V1377.78H529.144V1380.86ZM543.832 1380.86H554.248V1377.78H543.832V1380.86Z" fill="black"/>
<path d="M480.183 1372.07V1369.38C480.183 1367.22 480.135 1366.17 479.895 1364.87H485.463C485.319 1366.17 485.223 1367.46 485.223 1369.38V1372.07H488.631C490.647 1372.07 491.799 1372.02 493.239 1371.78V1376.92C492.087 1376.82 491.463 1376.78 489.495 1376.78C489.159 1381.77 488.055 1386.62 486.231 1391.32C489.255 1395.16 489.639 1395.69 493.047 1400.49L489.255 1404.71C487.239 1401.26 486.519 1400.15 483.735 1396.41C481.047 1401.06 478.599 1404.09 474.183 1408.26C472.887 1406.15 472.119 1405.24 470.535 1403.8C474.951 1400.39 477.783 1396.98 480.375 1392.04C478.167 1389.26 475.527 1386.38 472.215 1383.21L475.719 1379.66C476.679 1380.62 476.679 1380.62 479.511 1383.54C479.895 1383.93 480.711 1384.84 482.535 1386.95C483.495 1383.83 484.167 1380.23 484.407 1376.78H475.527C473.751 1376.78 472.407 1376.82 471.063 1377.02V1371.78C472.503 1371.98 473.943 1372.07 475.815 1372.07H480.183ZM504.951 1379.37H498.855C496.791 1379.37 495.639 1379.42 494.295 1379.61V1374.33C495.591 1374.52 496.743 1374.57 498.855 1374.57H504.951V1370.78C504.951 1367.94 504.855 1366.41 504.615 1365.06H510.375C510.183 1366.55 510.087 1368.18 510.087 1370.78V1374.57H510.663C512.679 1374.57 513.975 1374.47 515.175 1374.28V1379.66C514.791 1379.61 514.791 1379.61 514.071 1379.51C513.591 1379.42 512.007 1379.37 510.711 1379.37H510.087V1402.55C510.087 1405.05 509.943 1405.86 509.223 1406.73C508.311 1407.88 506.583 1408.36 503.415 1408.36C501.447 1408.36 499.671 1408.31 497.751 1408.17C497.415 1405.77 497.079 1404.57 496.263 1402.84C497.991 1403.13 500.871 1403.42 502.071 1403.42C504.663 1403.42 504.951 1403.27 504.951 1402.26V1379.37ZM491.847 1384.7L496.167 1382.34C499.383 1386.71 500.727 1388.92 502.935 1393.43L498.567 1396.31C496.311 1391.03 494.727 1388.25 491.847 1384.7Z" fill="black"/>
<path d="M834.784 1223.82V1219.4C832.064 1221.98 830.364 1222.93 827.576 1223.68C825.604 1224.22 823.428 1224.5 821.252 1224.5C812.956 1224.5 807.924 1220.21 807.924 1213.07C807.924 1208.31 810.916 1204.03 815.608 1202.06C820.028 1200.22 825.06 1199.54 834.784 1199.34V1195.87C834.784 1191.92 832.132 1189.88 826.964 1189.88C824.244 1189.88 821.456 1190.63 819.892 1191.86C818.6 1192.81 817.988 1193.76 817.172 1196.21L808.468 1194.64C810.032 1190.7 811.256 1188.93 813.84 1187.1C817.172 1184.65 820.98 1183.63 826.828 1183.63C833.356 1183.63 837.3 1184.78 840.224 1187.64C842.536 1189.82 843.42 1192.4 843.42 1197.02V1215.32C843.42 1218.92 843.556 1220.76 843.964 1223.82H834.784ZM834.784 1208.65V1205.25C821.796 1205.52 816.696 1207.77 816.696 1213.07C816.696 1216.27 819.076 1218.24 822.884 1218.24C826.488 1218.24 830.024 1216.88 832.336 1214.64C833.968 1213 834.784 1211.03 834.784 1208.65Z" fill="black"/>
<path d="M802.232 1206.54H772.652C772.992 1210.28 773.604 1212.19 775.168 1214.16C777.14 1216.61 780.2 1217.97 783.668 1217.97C787 1217.97 789.856 1216.74 791.828 1214.57C792.644 1213.62 793.12 1212.87 793.8 1211.03L801.824 1213.62C800.26 1216.88 799.376 1218.17 797.676 1219.87C794.14 1223.34 789.38 1225.11 783.668 1225.11C771.632 1225.11 764.016 1217.08 764.016 1204.37C764.016 1191.79 771.564 1183.56 783.192 1183.56C791.148 1183.56 797.404 1187.5 800.124 1194.3C801.416 1197.57 801.892 1200.02 802.096 1204.64C802.096 1204.78 802.096 1204.98 802.232 1206.54ZM772.856 1199.81H793.392C792.916 1196.82 792.1 1194.98 790.4 1193.28C788.564 1191.45 786.252 1190.56 783.056 1190.56C777.752 1190.56 773.876 1194.1 772.856 1199.81Z" fill="black"/>
<path d="M723.639 1212.73L732.955 1211.58C734.111 1216.2 736.627 1218.04 741.931 1218.04C746.963 1218.04 750.091 1216.06 750.091 1212.87C750.091 1211.51 749.411 1210.22 748.323 1209.47C747.031 1208.58 746.623 1208.52 741.183 1207.29C735.811 1206.14 733.703 1205.46 731.391 1204.37C727.515 1202.53 725.407 1199.27 725.407 1195.32C725.407 1192.94 726.155 1190.7 727.515 1189C730.303 1185.46 734.927 1183.7 741.115 1183.7C746.691 1183.7 751.111 1185.06 753.899 1187.64C755.667 1189.34 756.619 1191.04 757.571 1194.37L748.595 1195.53C747.847 1191.79 745.535 1190.16 741.115 1190.16C736.899 1190.16 734.043 1192.06 734.043 1194.92C734.043 1196.21 734.791 1197.36 736.151 1198.11C737.647 1198.86 739.075 1199.27 742.951 1200.15C749.887 1201.65 752.675 1202.6 754.919 1204.3C757.571 1206.2 758.863 1208.99 758.863 1212.73C758.863 1215.52 757.571 1218.51 755.531 1220.42C752.403 1223.34 747.643 1224.84 741.455 1224.84C734.451 1224.84 729.215 1222.73 726.291 1218.78C725.067 1217.15 724.455 1215.79 723.639 1212.73Z" fill="black"/>
<path d="M695.982 1206.54H666.402C666.742 1210.28 667.354 1212.19 668.918 1214.16C670.89 1216.61 673.95 1217.97 677.418 1217.97C680.75 1217.97 683.606 1216.74 685.578 1214.57C686.394 1213.62 686.87 1212.87 687.55 1211.03L695.574 1213.62C694.01 1216.88 693.126 1218.17 691.426 1219.87C687.89 1223.34 683.13 1225.11 677.418 1225.11C665.382 1225.11 657.766 1217.08 657.766 1204.37C657.766 1191.79 665.314 1183.56 676.942 1183.56C684.898 1183.56 691.154 1187.5 693.874 1194.3C695.166 1197.57 695.642 1200.02 695.846 1204.64C695.846 1204.78 695.846 1204.98 695.982 1206.54ZM666.606 1199.81H687.142C686.666 1196.82 685.85 1194.98 684.15 1193.28C682.314 1191.45 680.002 1190.56 676.806 1190.56C671.502 1190.56 667.626 1194.1 666.606 1199.81Z" fill="black"/>
<path d="M641.852 1223.82V1220.48C641.852 1219.67 641.852 1218.92 641.92 1218.04C638.384 1223 634.78 1224.77 628.184 1224.77C623.424 1224.77 619.82 1223.68 616.828 1221.3C612.272 1217.76 609.756 1211.58 609.756 1204.23C609.756 1191.79 616.896 1183.9 628.116 1183.9C632.332 1183.9 635.8 1184.92 638.452 1187.03C639.676 1187.98 640.424 1188.8 641.92 1190.77C641.92 1189.95 641.92 1189.95 641.852 1188.59C641.784 1188.12 641.784 1186.82 641.784 1185.67V1178.87C641.784 1174.79 641.648 1172.54 641.308 1169.69H650.896C650.556 1172.95 650.42 1175.33 650.42 1178.8V1214.64C650.42 1218.65 650.556 1220.82 650.896 1223.82H641.852ZM618.596 1204.3C618.596 1212.39 622.948 1217.49 629.748 1217.49C633.352 1217.49 636.82 1215.79 638.86 1213C640.56 1210.76 641.512 1207.43 641.512 1203.89C641.512 1200.56 640.22 1197.02 638.248 1194.85C636.14 1192.54 632.672 1191.04 629.408 1191.04C622.812 1191.04 618.596 1196.21 618.596 1204.3Z" fill="black"/>
<path d="M575.358 1223.82H565.566C565.974 1220.89 566.11 1218.78 566.11 1214.98V1193.62C566.11 1189.88 565.974 1187.57 565.566 1184.78H574.814V1188.39C574.814 1189.41 574.814 1189.61 574.678 1191.31C578.826 1186.01 582.43 1184.1 588.55 1184.1C593.786 1184.1 597.662 1185.8 600.11 1189.14C601.742 1191.38 602.422 1194.1 602.422 1198.66V1214.98C602.422 1218.72 602.558 1221.3 602.966 1223.82H593.106C593.446 1220.76 593.582 1218.44 593.582 1214.98V1199.88C593.582 1197.02 593.242 1195.19 592.426 1193.9C591.338 1192.13 589.298 1191.11 586.714 1191.11C581.818 1191.11 577.806 1194.51 574.814 1201.24V1214.98C574.814 1218.31 574.95 1220.89 575.358 1223.82Z" fill="black"/>
<path d="M538.711 1225.11C526.267 1225.11 518.379 1217.08 518.379 1204.37C518.379 1191.72 526.267 1183.63 538.643 1183.63C550.951 1183.63 558.771 1191.65 558.771 1204.23C558.771 1216.81 550.815 1225.11 538.711 1225.11ZM538.643 1190.7C531.503 1190.7 527.151 1195.87 527.151 1204.37C527.151 1212.73 531.503 1217.9 538.575 1217.9C545.647 1217.9 549.999 1212.8 549.999 1204.5C549.999 1195.73 545.851 1190.7 538.643 1190.7Z" fill="black"/>
<path d="M502.465 1223.82V1220.48C502.465 1219.67 502.465 1218.92 502.533 1218.04C498.997 1223 495.393 1224.77 488.797 1224.77C484.037 1224.77 480.433 1223.68 477.441 1221.3C472.885 1217.76 470.369 1211.58 470.369 1204.23C470.369 1191.79 477.509 1183.9 488.729 1183.9C492.945 1183.9 496.413 1184.92 499.065 1187.03C500.289 1187.98 501.037 1188.8 502.533 1190.77C502.533 1189.95 502.533 1189.95 502.465 1188.59C502.397 1188.12 502.397 1186.82 502.397 1185.67V1178.87C502.397 1174.79 502.261 1172.54 501.921 1169.69H511.509C511.169 1172.95 511.033 1175.33 511.033 1178.8V1214.64C511.033 1218.65 511.169 1220.82 511.509 1223.82H502.465ZM479.209 1204.3C479.209 1212.39 483.561 1217.49 490.361 1217.49C493.965 1217.49 497.433 1215.79 499.473 1213C501.173 1210.76 502.125 1207.43 502.125 1203.89C502.125 1200.56 500.833 1197.02 498.861 1194.85C496.753 1192.54 493.285 1191.04 490.021 1191.04C483.425 1191.04 479.209 1196.21 479.209 1204.3Z" fill="black"/>
<path d="M407.279 1212.73L416.595 1211.58C417.751 1216.2 420.267 1218.04 425.571 1218.04C430.603 1218.04 433.731 1216.06 433.731 1212.87C433.731 1211.51 433.051 1210.22 431.963 1209.47C430.671 1208.58 430.263 1208.52 424.823 1207.29C419.451 1206.14 417.343 1205.46 415.031 1204.37C411.155 1202.53 409.047 1199.27 409.047 1195.32C409.047 1192.94 409.795 1190.7 411.155 1189C413.943 1185.46 418.567 1183.7 424.755 1183.7C430.331 1183.7 434.751 1185.06 437.539 1187.64C439.307 1189.34 440.259 1191.04 441.211 1194.37L432.235 1195.53C431.487 1191.79 429.175 1190.16 424.755 1190.16C420.539 1190.16 417.683 1192.06 417.683 1194.92C417.683 1196.21 418.431 1197.36 419.791 1198.11C421.287 1198.86 422.715 1199.27 426.591 1200.15C433.527 1201.65 436.315 1202.6 438.559 1204.3C441.211 1206.2 442.503 1208.99 442.503 1212.73C442.503 1215.52 441.211 1218.51 439.171 1220.42C436.043 1223.34 431.283 1224.84 425.095 1224.84C418.091 1224.84 412.855 1222.73 409.931 1218.78C408.707 1217.15 408.095 1215.79 407.279 1212.73Z" fill="black"/>
<path d="M382.125 1225.11C369.681 1225.11 361.793 1217.08 361.793 1204.37C361.793 1191.72 369.681 1183.63 382.057 1183.63C394.365 1183.63 402.185 1191.65 402.185 1204.23C402.185 1216.81 394.229 1225.11 382.125 1225.11ZM382.057 1190.7C374.917 1190.7 370.565 1195.87 370.565 1204.37C370.565 1212.73 374.917 1217.9 381.989 1217.9C389.061 1217.9 393.413 1212.8 393.413 1204.5C393.413 1195.73 389.265 1190.7 382.057 1190.7Z" fill="black"/>
<path d="M356.353 1195.87L348.057 1197.84C347.309 1195.73 346.833 1194.78 345.949 1193.69C344.317 1191.65 341.937 1190.56 338.945 1190.56C332.281 1190.56 328.133 1195.8 328.133 1204.23C328.133 1212.73 332.349 1217.97 339.217 1217.97C342.617 1217.97 345.337 1216.61 347.037 1214.16C347.649 1213.21 347.989 1212.46 348.397 1210.76L356.829 1212.46C355.877 1215.18 355.197 1216.61 353.973 1218.24C350.709 1222.73 345.473 1225.11 339.013 1225.11C327.045 1225.11 319.293 1217.02 319.293 1204.44C319.293 1198.04 321.333 1192.54 325.073 1188.73C328.405 1185.33 333.165 1183.56 338.741 1183.56C345.405 1183.56 350.709 1186.14 353.973 1190.9C354.857 1192.26 355.401 1193.35 356.353 1195.87Z" fill="black"/>
<path d="M303.667 1223.82V1219.4C300.947 1221.98 299.247 1222.93 296.459 1223.68C294.487 1224.22 292.311 1224.5 290.135 1224.5C281.839 1224.5 276.807 1220.21 276.807 1213.07C276.807 1208.31 279.799 1204.03 284.491 1202.06C288.911 1200.22 293.943 1199.54 303.667 1199.34V1195.87C303.667 1191.92 301.015 1189.88 295.847 1189.88C293.127 1189.88 290.339 1190.63 288.775 1191.86C287.483 1192.81 286.871 1193.76 286.055 1196.21L277.351 1194.64C278.915 1190.7 280.139 1188.93 282.723 1187.1C286.055 1184.65 289.863 1183.63 295.711 1183.63C302.239 1183.63 306.183 1184.78 309.107 1187.64C311.419 1189.82 312.303 1192.4 312.303 1197.02V1215.32C312.303 1218.92 312.439 1220.76 312.847 1223.82H303.667ZM303.667 1208.65V1205.25C290.679 1205.52 285.579 1207.77 285.579 1213.07C285.579 1216.27 287.959 1218.24 291.767 1218.24C295.371 1218.24 298.907 1216.88 301.219 1214.64C302.851 1213 303.667 1211.03 303.667 1208.65Z" fill="black"/>
<path d="M260.869 1177.85V1214.98C260.869 1218.65 261.005 1221.03 261.413 1223.82H251.145C251.553 1220.96 251.689 1218.65 251.689 1214.98V1177.85H242.509C238.497 1177.85 235.573 1177.98 233.193 1178.32V1169.21C235.641 1169.55 238.565 1169.69 242.441 1169.69H269.369C274.265 1169.69 276.781 1169.55 279.365 1169.21V1178.32C276.849 1177.98 274.265 1177.85 269.369 1177.85H260.869Z" fill="black"/>
</svg>
