<svg width="1080" height="1920" viewBox="0 0 1080 1920" fill="none" xmlns="http://www.w3.org/2000/svg">
<path d="M1080 1920L1080 0L0 0L0 1920H1080Z" fill="#A5D4AD"/>
<path d="M1020 983.72V95C1020 75.67 1004.33 60 985 60H95.58C75.93 60 60 75.93 60 95.58V983.71C60 984.03 60.25 984.28 60.57 984.28C80.03 984.59 95.71 1000.46 95.71 1019.99C95.71 1039.52 80.03 1055.39 60.57 1055.7C60.25 1055.7 60 1055.96 60 1056.27V1824.99C60 1844.32 75.67 1859.99 95 1859.99H985C1004.33 1859.99 1020 1844.32 1020 1824.99V1056.27C1020 1055.95 1019.75 1055.7 1019.43 1055.7C999.97 1055.39 984.29 1039.52 984.29 1019.99C984.29 1000.46 999.97 984.59 1019.43 984.28C1019.75 984.28 1020 984.02 1020 983.71V983.72Z" fill="white"/>
<path d="M60.57 1055.71C60.25 1055.71 60 1055.97 60 1056.28V1825C60 1844.33 75.67 1860 95 1860H985C1004.33 1860 1020 1844.33 1020 1825V1056.28C1020 1055.96 1019.75 1055.71 1019.43 1055.71C999.97 1055.4 984.29 1039.53 984.29 1020H95.71C95.71 1039.53 80.03 1055.4 60.57 1055.71Z" fill="#E5F2E6"/>
<path d="M121 1020H160.9" stroke="black" stroke-width="6" stroke-miterlimit="10"/>
<path d="M187.512 1020H227.412" stroke="black" stroke-width="6" stroke-miterlimit="10"/>
<path d="M254.02 1020H293.92" stroke="black" stroke-width="6" stroke-miterlimit="10"/>
<path d="M320.52 1020H360.43" stroke="black" stroke-width="6" stroke-miterlimit="10"/>
<path d="M387.031 1020H426.941" stroke="black" stroke-width="6" stroke-miterlimit="10"/>
<path d="M453.539 1020H493.439" stroke="black" stroke-width="6" stroke-miterlimit="10"/>
<path d="M520.051 1020H559.951" stroke="black" stroke-width="6" stroke-miterlimit="10"/>
<path d="M586.559 1020H626.459" stroke="black" stroke-width="6" stroke-miterlimit="10"/>
<path d="M653.059 1020H692.969" stroke="black" stroke-width="6" stroke-miterlimit="10"/>
<path d="M719.57 1020H759.48" stroke="black" stroke-width="6" stroke-miterlimit="10"/>
<path d="M786.078 1020H825.978" stroke="black" stroke-width="6" stroke-miterlimit="10"/>
<path d="M852.59 1020H892.49" stroke="black" stroke-width="6" stroke-miterlimit="10"/>
<path d="M919.102 1020H959.002" stroke="black" stroke-width="6" stroke-miterlimit="10"/>
<path d="M1020 984.29V95C1020 75.67 1004.33 60 985 60H95C75.67 60 60 75.67 60 95V984.29C79.72 984.29 95.71 1000.28 95.71 1020C95.71 1039.72 79.72 1055.71 60 1055.71V1825C60 1844.33 75.67 1860 95 1860H985C1004.33 1860 1020 1844.33 1020 1825V1055.71C1000.28 1055.71 984.29 1039.72 984.29 1020C984.29 1000.28 1000.28 984.29 1020 984.29Z" stroke="black" stroke-width="6" stroke-miterlimit="10"/>
<path d="M912.642 525.66C908.772 525.66 905.532 522.64 905.312 518.73C900.582 435.62 868.782 358.85 813.362 296.74C810.662 293.71 810.922 289.06 813.952 286.36C816.982 283.66 821.622 283.92 824.332 286.95C881.992 351.57 915.062 431.43 919.992 517.89C920.222 521.94 917.122 525.42 913.072 525.65C912.932 525.65 912.792 525.66 912.652 525.66H912.642Z" fill="black"/>
<path d="M818.842 795.509C817.102 795.509 815.352 794.889 813.952 793.639C810.922 790.939 810.662 786.289 813.362 783.259C868.782 721.149 900.582 644.379 905.312 561.269C905.542 557.219 909.022 554.109 913.072 554.349C917.122 554.579 920.222 558.049 919.992 562.109C915.062 648.579 881.992 728.439 824.332 793.049C822.882 794.679 820.862 795.509 818.842 795.509Z" fill="black"/>
<path d="M167.352 525.66C167.212 525.66 167.072 525.66 166.932 525.65C162.882 525.42 159.782 521.95 160.012 517.89C164.942 431.42 198.012 351.56 255.672 286.95C258.372 283.92 263.022 283.66 266.052 286.36C269.082 289.06 269.342 293.71 266.642 296.74C211.222 358.85 179.422 435.61 174.692 518.73C174.472 522.64 171.232 525.66 167.362 525.66H167.352Z" fill="black"/>
<path d="M261.162 795.509C259.142 795.509 257.122 794.679 255.672 793.049C198.012 728.429 164.942 648.569 160.012 562.109C159.782 558.059 162.882 554.579 166.932 554.349C170.982 554.109 174.462 557.219 174.692 561.269C179.422 644.389 211.222 721.149 266.642 783.259C269.342 786.289 269.082 790.939 266.052 793.639C264.652 794.889 262.902 795.509 261.162 795.509Z" fill="black"/>
<path d="M788.164 268.509C786.424 268.509 784.674 267.889 783.274 266.639C721.164 211.219 644.394 179.419 561.284 174.689C557.234 174.459 554.134 170.989 554.364 166.929C554.594 162.879 558.034 159.789 562.124 160.009C648.594 164.939 728.454 198.009 793.064 255.669C796.094 258.369 796.354 263.019 793.654 266.049C792.204 267.679 790.184 268.509 788.164 268.509Z" fill="black"/>
<path d="M291.844 268.51C289.824 268.51 287.804 267.68 286.354 266.05C283.654 263.02 283.914 258.37 286.944 255.67C351.564 198.01 431.424 164.94 517.884 160.01C521.934 159.78 525.414 162.88 525.644 166.93C525.874 170.98 522.774 174.46 518.724 174.69C435.614 179.42 358.844 211.22 296.734 266.64C295.334 267.89 293.584 268.51 291.844 268.51Z" fill="black"/>
<path d="M561.682 920C557.812 920 554.572 916.98 554.352 913.07C554.122 909.02 557.222 905.54 561.272 905.31C644.392 900.58 721.152 868.78 783.262 813.36C786.292 810.66 790.942 810.92 793.642 813.95C796.342 816.98 796.082 821.63 793.052 824.33C728.432 881.99 648.572 915.06 562.112 919.99C561.972 919.99 561.832 920 561.692 920H561.682Z" fill="black"/>
<path d="M518.312 920C518.172 920 518.032 920 517.892 919.99C431.422 915.06 351.562 881.99 286.952 824.33C283.922 821.63 283.662 816.98 286.362 813.95C289.062 810.92 293.712 810.66 296.742 813.36C358.852 868.78 435.622 900.58 518.732 905.31C522.782 905.54 525.882 909.01 525.652 913.07C525.432 916.98 522.192 920 518.322 920H518.312Z" fill="black"/>
<path d="M875.37 526.191C872.36 526.191 869.84 523.841 869.67 520.801C865.4 445.791 836.7 376.521 786.69 320.461C784.59 318.101 784.79 314.491 787.15 312.391C789.5 310.291 793.12 310.491 795.22 312.851C846.97 370.851 876.67 442.541 881.09 520.151C881.27 523.301 878.86 526.001 875.71 526.181C875.6 526.181 875.49 526.181 875.38 526.181L875.37 526.191Z" fill="black"/>
<path d="M790.95 769.062C789.59 769.062 788.24 768.582 787.15 767.612C784.79 765.512 784.59 761.892 786.69 759.542C836.7 703.492 865.4 634.212 869.67 559.202C869.85 556.052 872.54 553.642 875.7 553.822C878.85 554.002 881.26 556.702 881.08 559.852C876.66 637.472 846.97 709.152 795.21 767.152C794.08 768.422 792.51 769.062 790.94 769.062H790.95Z" fill="black"/>
<path d="M204.622 526.191C204.512 526.191 204.402 526.191 204.292 526.191C201.142 526.011 198.732 523.311 198.912 520.161C203.332 442.541 233.022 370.861 284.782 312.861C286.882 310.501 290.502 310.301 292.852 312.401C295.212 314.501 295.412 318.121 293.312 320.471C243.302 376.521 214.602 445.801 210.332 520.811C210.162 523.851 207.642 526.201 204.632 526.201L204.622 526.191Z" fill="black"/>
<path d="M289.04 769.061C287.47 769.061 285.9 768.411 284.77 767.151C233.02 709.151 203.32 637.461 198.9 559.851C198.72 556.701 201.13 554.001 204.28 553.821C207.44 553.631 210.13 556.051 210.31 559.201C214.58 634.211 243.28 703.491 293.29 759.541C295.39 761.901 295.19 765.511 292.83 767.611C291.74 768.581 290.38 769.061 289.03 769.061H289.04Z" fill="black"/>
<path d="M763.342 294.762C761.982 294.762 760.632 294.282 759.542 293.312C703.492 243.302 634.212 214.602 559.202 210.332C556.052 210.152 553.642 207.452 553.822 204.302C554.002 201.152 556.692 198.742 559.852 198.922C637.472 203.342 709.152 233.032 767.152 284.792C769.512 286.892 769.712 290.512 767.612 292.862C766.482 294.132 764.912 294.772 763.342 294.772V294.762Z" fill="black"/>
<path d="M316.651 294.761C315.081 294.761 313.511 294.111 312.381 292.851C310.281 290.491 310.481 286.881 312.841 284.781C370.841 233.031 442.531 203.331 520.141 198.911C523.291 198.721 525.991 201.141 526.171 204.291C526.351 207.441 523.941 210.141 520.791 210.321C445.781 214.591 376.511 243.291 320.451 293.301C319.361 294.271 318.001 294.751 316.651 294.751V294.761Z" fill="black"/>
<path d="M559.518 881.102C556.508 881.102 553.988 878.752 553.818 875.712C553.638 872.562 556.048 869.862 559.198 869.682C634.208 865.412 703.478 836.712 759.538 786.702C761.888 784.602 765.508 784.802 767.608 787.162C769.708 789.522 769.508 793.132 767.148 795.232C709.148 846.982 637.458 876.682 559.848 881.102C559.738 881.102 559.628 881.102 559.518 881.102Z" fill="black"/>
<path d="M520.479 881.102C520.369 881.102 520.259 881.102 520.149 881.102C442.529 876.682 370.849 846.992 312.849 795.232C310.489 793.132 310.289 789.512 312.389 787.162C314.489 784.802 318.109 784.602 320.459 786.702C376.509 836.722 445.789 865.412 520.799 869.682C523.949 869.862 526.359 872.562 526.179 875.712C526.009 878.752 523.489 881.102 520.479 881.102Z" fill="black"/>
<path d="M841.843 526.51C839.693 526.51 837.893 524.83 837.773 522.66C833.913 454.91 807.993 392.34 762.823 341.71C761.323 340.03 761.473 337.45 763.153 335.94C764.833 334.44 767.413 334.58 768.923 336.27C815.343 388.29 841.973 452.58 845.933 522.19C846.063 524.44 844.343 526.37 842.083 526.5C842.003 526.5 841.923 526.5 841.843 526.5V526.51Z" fill="black"/>
<path d="M765.862 745.101C764.892 745.101 763.922 744.761 763.142 744.061C761.462 742.561 761.312 739.981 762.812 738.291C807.982 687.661 833.902 625.091 837.762 557.341C837.892 555.091 839.852 553.391 842.072 553.491C844.322 553.621 846.042 555.551 845.922 557.801C841.952 627.411 815.322 691.701 768.912 743.721C768.102 744.621 766.982 745.081 765.862 745.081V745.101Z" fill="black"/>
<path d="M238.162 526.51C238.082 526.51 238.002 526.51 237.922 526.51C235.672 526.38 233.952 524.45 234.072 522.2C238.042 452.59 264.672 388.3 311.082 336.28C312.582 334.6 315.162 334.45 316.852 335.95C318.532 337.45 318.682 340.03 317.182 341.72C272.012 392.35 246.092 454.92 242.232 522.67C242.112 524.84 240.312 526.52 238.162 526.52V526.51Z" fill="black"/>
<path d="M314.133 745.101C313.013 745.101 311.893 744.641 311.083 743.741C264.663 691.721 238.033 627.431 234.073 557.821C233.943 555.571 235.663 553.641 237.923 553.511C240.163 553.401 242.103 555.101 242.233 557.361C246.093 625.111 272.013 687.681 317.183 738.311C318.683 739.991 318.533 742.571 316.853 744.081C316.073 744.771 315.103 745.121 314.133 745.121V745.101Z" fill="black"/>
<path d="M741.014 318.219C740.044 318.219 739.074 317.879 738.294 317.179C687.664 272.009 625.094 246.089 557.344 242.229C555.094 242.099 553.374 240.169 553.494 237.919C553.624 235.669 555.544 233.959 557.804 234.069C627.414 238.039 691.704 264.669 743.734 311.079C745.414 312.579 745.564 315.159 744.064 316.849C743.254 317.749 742.134 318.209 741.014 318.209V318.219Z" fill="black"/>
<path d="M338.994 318.22C337.874 318.22 336.754 317.76 335.944 316.86C334.444 315.18 334.594 312.6 336.274 311.09C388.294 264.67 452.584 238.04 522.194 234.08C524.444 233.96 526.374 235.67 526.504 237.93C526.634 240.18 524.914 242.11 522.654 242.24C454.904 246.1 392.334 272.02 341.704 317.19C340.924 317.88 339.954 318.23 338.984 318.23L338.994 318.22Z" fill="black"/>
<path d="M557.565 845.929C555.415 845.929 553.615 844.249 553.495 842.079C553.365 839.829 555.085 837.899 557.345 837.769C625.095 833.909 687.665 807.989 738.295 762.819C739.975 761.319 742.555 761.469 744.065 763.149C745.565 764.829 745.415 767.409 743.735 768.919C691.715 815.339 627.425 841.969 557.805 845.929C557.725 845.929 557.645 845.929 557.565 845.929Z" fill="black"/>
<path d="M522.434 845.929C522.354 845.929 522.274 845.929 522.194 845.929C452.584 841.959 388.294 815.329 336.274 768.919C334.594 767.419 334.444 764.839 335.944 763.149C337.444 761.469 340.024 761.319 341.714 762.819C392.344 807.989 454.914 833.909 522.664 837.769C524.914 837.899 526.634 839.829 526.514 842.079C526.394 844.249 524.594 845.929 522.444 845.929H522.434Z" fill="black"/>
<path d="M320.642 546.17C320.642 544.6 321.782 543.27 323.332 543.02C324.632 542.81 326.262 542.52 327.972 542.12C332.392 541.08 337.582 539.11 343.402 536.27C349.282 533.4 354.912 529.41 359.162 523.67C366.332 513.97 367.852 501.4 368.182 496.89C368.252 495.97 367.522 495.19 366.592 495.19H317.082C315.322 495.19 313.902 493.76 313.902 492.01V470.69C313.902 468.93 315.332 467.51 317.082 467.51H367.062C367.942 467.51 368.652 466.8 368.652 465.92V447.18C368.652 446.3 367.942 445.59 367.062 445.59H328.612C326.852 445.59 325.432 444.16 325.432 442.41V421.09C325.432 419.33 326.862 417.91 328.612 417.91H428.952C430.712 417.91 432.132 419.34 432.132 421.09V442.41C432.132 444.17 430.702 445.59 428.952 445.59H398.512C397.632 445.59 396.922 446.3 396.922 447.18V465.92C396.922 466.8 397.632 467.51 398.512 467.51H438.572C440.332 467.51 441.752 468.94 441.752 470.69V492.01C441.752 493.77 440.322 495.19 438.572 495.19H398.382C397.532 495.19 396.832 495.86 396.792 496.71C396.562 501.75 395.142 518.44 386.172 532.85C380.722 541.61 373.642 548.26 366.532 553.54C359.402 558.84 352.252 562.93 345.262 565.7C338.232 568.49 332.332 570.44 327.742 571.51C326.652 571.76 325.482 571.99 324.392 572.18C322.442 572.53 320.652 571.03 320.652 569.04V546.16L320.642 546.17Z" fill="black"/>
<path d="M474.544 546.52C474.544 545.06 475.544 543.79 476.954 543.43C485.204 541.36 488.924 540.11 496.834 536.32C496.834 536.32 500.884 534.21 504.924 531.3C517.104 522.54 525.214 510.63 525.214 510.63C534.674 497.28 537.764 474.91 538.484 468.49C538.594 467.55 537.854 466.72 536.904 466.72H500.574C500.344 466.72 500.134 466.84 500.024 467.04L499.874 467.29C494.294 478.11 486.874 487.99 480.444 494.24C473.994 500.5 468.584 505.05 464.374 507.75L461.774 509.42C460.714 510.1 459.324 509.34 459.324 508.08V479.89C459.324 478.95 459.744 478.06 460.464 477.45C461.114 476.9 461.984 476.13 463.174 475.06C465.934 472.57 469.044 468.51 472.414 462.98C475.754 457.51 479.344 450.21 483.064 441.29C486.444 433.2 488.974 423.09 490.854 412.06C491.114 410.53 492.444 409.42 493.994 409.42H513.904C515.904 409.42 517.414 411.25 517.034 413.21C516.394 416.52 515.704 420.88 514.844 424.31C513.574 429.39 512.754 432.3 511.234 436.72C510.974 437.47 511.534 438.24 512.324 438.24H591.174C592.934 438.24 594.354 439.67 594.354 441.42V463.51C594.354 465.27 592.924 466.69 591.174 466.69H568.134C567.324 466.69 566.634 467.3 566.554 468.11C565.924 474.01 562.874 497.16 552.384 517.26C538.284 546 508.134 566.39 478.334 572.13C476.374 572.51 474.554 571 474.554 569V546.48L474.544 546.52Z" fill="black"/>
<path d="M675.895 411.029V468.869C675.895 469.749 676.604 470.459 677.484 470.459H764.515C765.395 470.459 766.104 469.749 766.104 468.869V411.029C766.104 410.149 765.395 409.439 764.515 409.439H677.484C676.604 409.439 675.895 410.149 675.895 411.029ZM738.455 452.739H702.294C701.414 452.739 700.705 452.029 700.705 451.149V446.869C700.705 445.989 701.414 445.279 702.294 445.279H738.455C739.335 445.279 740.044 445.989 740.044 446.869V451.149C740.044 452.029 739.335 452.739 738.455 452.739ZM738.455 434.449H702.294C701.414 434.449 700.705 433.739 700.705 432.859V428.749C700.705 427.869 701.414 427.159 702.294 427.159H738.455C739.335 427.159 740.044 427.869 740.044 428.749V432.859C740.044 433.739 739.335 434.449 738.455 434.449Z" fill="black"/>
<path d="M674.224 497.34H728.264C729.144 497.34 729.854 498.05 729.854 498.93V502.84C729.854 503.72 729.144 504.43 728.264 504.43H667.754C665.994 504.43 664.574 505.86 664.574 507.61V522.86C664.574 524.62 666.004 526.04 667.754 526.04H728.264C729.144 526.04 729.854 526.75 729.854 527.63V545.39C729.854 546.11 729.934 547.98 729.214 548.85C728.384 549.87 727.144 549.67 725.844 549.72C722.534 549.72 719.574 549.7 716.944 549.66C716.544 549.66 716.254 549.29 716.334 548.9C716.594 547.63 716.724 546.31 716.694 544.96C716.494 535.68 708.934 528.08 699.654 527.84C689.574 527.58 681.364 535.85 681.704 545.94C682.014 555.29 689.784 562.81 699.144 562.84C704.034 562.85 708.454 560.86 711.634 557.64C711.974 557.3 712.544 557.43 712.694 557.88C714.154 562.21 715.534 566.34 716.784 570.05C717.224 571.35 718.454 572.22 719.824 572.21C725.724 572.17 730.504 571.96 734.174 571.6C738.304 571.18 742.084 570.15 745.514 568.5C749.174 566.84 751.684 564.42 753.044 561.23C754.404 558.04 755.084 553.55 755.084 547.76V527.62C755.084 526.74 755.794 526.03 756.674 526.03H762.904C764.664 526.03 766.084 524.6 766.084 522.85V507.6C766.084 505.84 764.654 504.42 762.904 504.42H756.674C755.794 504.42 755.084 503.71 755.084 502.83V498.92C755.084 498.04 755.794 497.33 756.674 497.33H762.904C764.664 497.33 766.084 495.9 766.084 494.15V479.6C766.084 477.84 764.654 476.42 762.904 476.42H674.204C672.444 476.42 671.024 477.85 671.024 479.6V494.15C671.024 495.91 672.454 497.33 674.204 497.33L674.224 497.34Z" fill="black"/>
<path d="M668.824 409.439H650.254C649.394 409.439 648.574 409.789 647.974 410.399C635.224 423.349 618.284 434.569 612.124 438.479C610.774 439.329 610.274 441.059 610.944 442.499L620.694 463.569C621.624 465.569 624.254 466.049 625.824 464.499C646.114 444.459 664.444 419.799 670.114 411.959C670.874 410.909 670.114 409.439 668.824 409.439Z" fill="black"/>
<path d="M671.914 453.889V435.409C671.914 433.999 670.214 433.289 669.204 434.279C653.634 449.599 620.044 477.059 611.674 483.859C610.544 484.779 610.184 486.349 610.794 487.669L620.694 509.049C621.624 511.049 624.254 511.529 625.824 509.979C627.534 508.289 629.234 506.559 630.914 504.819C631.314 504.409 632.014 504.689 632.014 505.259V569.059C632.014 570.819 633.444 572.239 635.194 572.239H653.814C655.574 572.239 656.994 570.809 656.994 569.059V476.369C656.994 475.299 657.354 474.249 658.024 473.409C664.864 464.729 669.714 458.019 671.334 455.739C671.714 455.199 671.924 454.559 671.924 453.889H671.914Z" fill="black"/>
<path d="M653.261 623.33C640.841 623.33 634.801 628.28 634.801 638.47V655.6C634.801 665.67 640.841 670.56 653.261 670.56C659.131 670.56 663.471 669.48 666.551 667.27C669.991 664.8 671.731 660.87 671.731 655.59V638.46C671.731 628.27 665.691 623.32 653.271 623.32L653.261 623.33ZM646.081 639.3C646.081 633.93 648.831 632.91 653.261 632.91C657.691 632.91 660.441 633.95 660.441 639.3V654.68C660.441 659.95 657.591 660.98 653.261 660.98C648.931 660.98 646.081 659.98 646.081 654.68V639.3Z" fill="black"/>
<path d="M708.262 669.331H721.352L703.622 646.781L720.552 624.8H707.392L694.052 642.281V610.23H682.762V669.331H694.052V659.211L696.942 655.451L708.262 669.331Z" fill="black"/>
<path d="M754.812 624.801V653.291C754.812 659.041 751.872 660.891 746.822 660.891C743.552 660.891 740.272 660.351 740.272 653.881V624.811H728.992V656.771C728.992 665.741 733.702 670.481 742.612 670.481C749.292 670.481 753.872 666.861 755.572 662.801L757.382 669.341H766.102V624.811H754.822L754.812 624.801Z" fill="black"/>
<path d="M630.561 610.23H589.141V620.141V620.151H604.211V669.331H615.681V620.151H630.561V610.23Z" fill="black"/>
<path d="M459.681 669.331H472.771L455.041 646.781L471.971 624.8H458.811L445.471 642.281V610.23H434.191V669.331H445.471V659.211L448.361 655.451L459.681 669.331Z" fill="black"/>
<path d="M355.322 610.23H313.902V620.141V620.151H328.982V669.331H340.442V620.151H355.322V610.23Z" fill="black"/>
<path d="M421.794 658.89L421.194 659.04C417.614 659.96 413.284 660.89 409.404 660.89C404.854 660.89 401.684 658.82 401.684 652.83V640.97C401.684 634.9 404.854 632.82 409.404 632.82C413.354 632.82 417.874 633.7 421.224 634.4L421.804 634.52V625.19L421.494 625.12C417.684 624.23 412.044 623.33 407.524 623.33C402.004 623.33 397.964 624.4 395.164 626.59C391.964 629.09 390.414 633.85 390.414 639.34V654.64C390.414 664.77 396.014 670.56 407.534 670.56C411.404 670.56 417.264 669.49 421.524 668.31L421.814 668.23V658.88L421.794 658.89Z" fill="black"/>
<path d="M553.922 634.699V624.799H543.682V615.189H532.402V624.799H525.172V634.699H532.402V655.419C532.402 667.939 540.292 670.559 546.922 670.559C548.702 670.559 550.502 670.449 552.112 670.219V660.259C551.462 660.329 550.252 660.359 549.532 660.359C546.452 660.359 543.682 659.729 543.682 652.089V634.689H553.922V634.699Z" fill="black"/>
<path d="M489.733 650.741V650.561H515.163V641.481C515.163 635.571 513.543 630.241 510.353 627.341C507.413 624.671 502.773 623.311 497.253 623.311C485.073 623.311 478.453 629.221 478.453 639.591V654.451C478.453 664.701 483.833 670.551 496.313 670.551C500.973 670.551 506.283 669.561 511.963 668.401L512.353 668.321V659.051L511.703 659.201C507.133 660.251 504.613 661.141 500.283 661.141C494.073 661.141 489.733 658.621 489.733 652.201V650.721V650.741ZM489.733 639.721C489.733 634.071 493.793 632.741 497.163 632.741C500.533 632.741 504.063 634.071 504.063 639.721V643.231H489.733V642.711V639.721Z" fill="black"/>
<path d="M378.171 626.881H366.891V669.331H378.171V626.881Z" fill="black"/>
<path d="M372.534 622.22C376.416 622.22 379.564 619.073 379.564 615.19C379.564 611.308 376.416 608.16 372.534 608.16C368.651 608.16 365.504 611.308 365.504 615.19C365.504 619.073 368.651 622.22 372.534 622.22Z" fill="black"/>
<path d="M585.731 643.92H566.141V651.26H585.731V643.92Z" fill="black"/>
<path d="M714.521 1629.16L720.041 1633.38C719.225 1633.96 718.313 1634.78 714.137 1638.66C711.689 1640.92 708.329 1643.61 702.713 1647.88C701.225 1648.98 700.889 1649.37 700.889 1649.9C700.889 1650.62 700.985 1650.71 705.209 1653.88C712.697 1659.54 714.089 1660.74 720.329 1666.41C720.809 1666.89 721.097 1667.13 721.721 1667.61L716.777 1672.6C715.529 1670.87 713.801 1669.05 710.537 1666.02C707.129 1662.86 705.545 1661.56 698.153 1655.8C694.985 1653.35 694.121 1652.06 694.121 1649.85C694.121 1648.41 694.649 1647.11 695.705 1645.96C696.329 1645.29 696.377 1645.24 699.929 1642.5C705.113 1638.57 707.801 1636.26 711.017 1633.14C713.177 1630.98 713.705 1630.36 714.521 1629.16Z" fill="black"/>
<path d="M665.08 1655.03H655.192C655.144 1660.26 653.272 1662.09 647.992 1662.09C647.848 1662.09 647.512 1662.09 647.128 1662.09C647.08 1659.74 646.888 1658.87 646.168 1657.29C647.416 1657.38 647.848 1657.43 648.424 1657.43C649.912 1657.43 650.392 1656.76 650.392 1654.74C650.392 1653.16 650.2 1651.62 649.768 1650.33C649.096 1648.07 648.376 1646.97 646.504 1645.1C648.664 1641.4 649.816 1638.71 650.968 1634.68H645.784V1666.98C645.784 1669 645.88 1671.21 646.024 1672.84H640.504C640.696 1671.26 640.792 1669.19 640.792 1666.94V1634.49C640.792 1632.76 640.744 1631.27 640.648 1629.93C641.512 1630.02 642.76 1630.07 644.296 1630.07H650.68C652.264 1630.07 653.272 1630.02 654.088 1629.88L656.872 1632.28C656.44 1633.24 656.392 1633.34 656.152 1634.01C655.288 1636.55 654.808 1637.8 653.848 1640.01C656.152 1638.76 657.544 1637.75 659.368 1636.02C661.96 1633.62 663.352 1631.85 664.984 1628.87H670.312C673.384 1634.01 677.992 1637.85 684.376 1640.58C683.272 1642.46 682.84 1643.51 682.216 1645.91C680.152 1644.81 679.336 1644.33 677.848 1643.32V1646.58C676.264 1646.44 675.88 1646.44 673.768 1646.44H670.168V1650.33H678.04C680.248 1650.33 681.16 1650.28 682.648 1650.09V1655.32C681.448 1655.13 680.008 1655.03 678.04 1655.03H670.168V1667.66C670.168 1671.5 668.824 1672.5 663.736 1672.5C662.776 1672.5 661.624 1672.46 659.464 1672.36C659.32 1670.44 658.984 1669.14 658.12 1667.27C659.56 1667.51 661.576 1667.7 662.728 1667.7C664.552 1667.7 665.08 1667.42 665.08 1666.46V1655.03ZM665.08 1650.33V1646.44H662.296C660.184 1646.44 659.848 1646.44 658.216 1646.58V1643.46C657.16 1644.18 656.824 1644.42 655.528 1645.19C654.568 1643.08 654.328 1642.7 653.272 1641.35C652.84 1642.36 652.6 1642.84 651.736 1644.57C653.512 1647.06 654.04 1648.12 654.616 1650.33H665.08ZM662.344 1641.93H673.768C674.776 1641.93 675.208 1641.93 675.88 1641.88C672.568 1639.38 670.024 1636.7 667.816 1633.43C665.32 1637.22 663.544 1639.19 660.232 1641.93C660.904 1641.93 661.192 1641.93 662.344 1641.93ZM672.568 1658.25L676.84 1656.57C677.944 1659.16 678.52 1660.31 679.96 1662.38C681.256 1664.3 681.976 1665.11 683.896 1666.84C682.456 1668.14 681.64 1669.1 680.344 1671.11C676.264 1666.41 674.728 1663.86 672.568 1658.25ZM657.784 1656.38L662.392 1658.15C661 1661.9 660.088 1663.67 658.36 1666.26C657.016 1668.18 656.2 1669.14 654.04 1671.16C652.696 1669.29 651.976 1668.52 650.392 1667.27C652.504 1665.59 653.416 1664.68 654.664 1662.9C656.104 1660.84 656.776 1659.45 657.784 1656.38Z" fill="black"/>
<path d="M594.281 1639.96L594.377 1634.49C596.345 1634.92 599.417 1635.11 605.513 1635.11C606.809 1632.23 607.241 1630.79 607.433 1629.16L613.721 1629.83C613.433 1630.31 613.433 1630.31 611.801 1634.15C611.561 1634.68 611.465 1634.82 611.369 1635.02C611.753 1634.97 611.753 1634.97 614.393 1634.82C619.961 1634.49 624.329 1633.96 626.969 1633.19L627.305 1638.66C625.961 1638.76 625.961 1638.76 623.513 1639.05C620.009 1639.48 613.913 1639.86 609.065 1640.01C607.673 1642.74 606.329 1644.66 604.649 1646.39L604.697 1646.49C605.033 1646.25 605.033 1646.25 605.657 1645.77C607.433 1644.42 609.977 1643.61 612.425 1643.61C616.169 1643.61 618.521 1645.38 619.289 1648.7C622.985 1647.35 625.433 1646.49 626.633 1646.1C629.225 1645.19 629.417 1645.14 630.185 1644.66L632.441 1650.18C631.097 1650.38 629.657 1650.76 627.113 1651.48C626.441 1651.67 624.041 1652.49 619.913 1653.93V1654.46C619.961 1655.7 619.961 1655.7 619.961 1656.38C619.961 1656.86 619.961 1657.67 619.961 1658.3C619.913 1659.11 619.913 1659.54 619.913 1659.88C619.913 1660.94 619.961 1661.61 620.057 1662.42L614.489 1662.57C614.681 1661.7 614.777 1659.26 614.777 1657C614.777 1656.33 614.777 1656.33 614.777 1655.85C612.425 1656.95 611.177 1657.62 610.169 1658.34C608.489 1659.59 607.673 1660.89 607.673 1662.28C607.673 1664.78 609.977 1665.78 615.785 1665.78C621.545 1665.78 626.489 1665.06 629.897 1663.77L630.377 1669.96C629.561 1669.96 629.321 1670.01 628.169 1670.15C624.713 1670.68 620.105 1671.02 615.881 1671.02C610.793 1671.02 607.625 1670.44 605.177 1669C602.969 1667.75 601.673 1665.45 601.673 1662.81C601.673 1660.84 602.249 1659.3 603.785 1657.48C605.945 1654.79 608.681 1652.97 614.105 1650.71C613.865 1648.94 612.905 1648.12 611.177 1648.12C608.393 1648.12 605.033 1649.8 601.337 1653.06C599.321 1654.74 598.217 1655.94 597.161 1657.43L592.793 1653.11C594.041 1652.15 595.433 1650.81 597.113 1648.84C598.985 1646.63 601.913 1642.46 602.873 1640.63C603.065 1640.25 603.065 1640.25 603.257 1640.01C603.065 1640.01 602.441 1640.06 602.441 1640.06C601.673 1640.06 597.449 1639.96 596.393 1639.96C595.481 1639.91 595.481 1639.91 595.049 1639.91C594.905 1639.91 594.617 1639.91 594.281 1639.96Z" fill="black"/>
<path d="M553.624 1636.31H550.984C549.352 1638.57 548.392 1639.62 546.088 1641.69C544.936 1640.3 543.976 1639.34 542.488 1638.23C545.32 1636.12 546.76 1634.63 548.2 1632.28C549.016 1630.94 549.592 1629.74 549.928 1628.39L555.112 1629.35C554.104 1631.32 554.104 1631.32 553.768 1631.9H559.912C562.024 1631.9 563.368 1631.8 564.568 1631.61V1635.54C566.632 1633.38 568.12 1630.89 568.84 1628.49L573.64 1629.78C573.544 1629.98 573.208 1630.7 572.584 1631.94H581.368C583.864 1631.94 585.256 1631.85 586.648 1631.66V1636.6C585.16 1636.41 583.768 1636.36 581.608 1636.36H577.864C578.728 1637.7 578.92 1638.04 579.736 1639.72L574.984 1641.21C574.12 1639.05 573.64 1638.04 572.632 1636.36H569.992C569.032 1637.7 568.168 1638.71 567.112 1639.77C566.968 1640.44 566.968 1640.82 566.92 1642.22H577.768C580.216 1642.22 581.704 1642.17 583 1641.98V1646.78C581.608 1646.58 579.784 1646.49 577.816 1646.49H566.92V1649.61H580.936C583.432 1649.61 585.112 1649.51 586.504 1649.32V1654.31C584.872 1654.12 583.24 1654.02 580.984 1654.02H576.76V1657.14H580.552C582.712 1657.14 584.536 1657.05 586.12 1656.86V1661.8C584.536 1661.61 582.808 1661.51 580.504 1661.51H576.76V1668.18C576.76 1670.49 576.04 1671.74 574.264 1672.36C573.304 1672.7 571.528 1672.84 568.6 1672.84C567.592 1672.84 566.776 1672.79 565 1672.74C564.664 1670.68 564.376 1669.67 563.56 1667.75C565.768 1667.99 567.4 1668.09 569.56 1668.09C571.288 1668.09 571.672 1667.9 571.672 1666.94V1661.51H556.024C558.664 1663.62 559.432 1664.34 562.648 1667.75L558.328 1671.06C555.88 1667.94 554.632 1666.65 551.704 1664.3L555.304 1661.51H549.448C547.144 1661.51 545.416 1661.61 543.88 1661.8V1656.86C545.464 1657.05 547.24 1657.14 549.4 1657.14H571.672V1654.02H549.16C547.048 1654.02 545.176 1654.12 543.544 1654.31V1649.32C544.888 1649.51 546.616 1649.61 549.064 1649.61H561.928V1646.49H552.616C550.312 1646.49 548.584 1646.58 547.336 1646.73V1641.98C548.68 1642.17 550.264 1642.22 552.664 1642.22H561.928C561.928 1640.92 561.832 1640.3 561.64 1639.43H565.144C564.136 1638.42 563.704 1638.09 562.6 1637.37C563.08 1636.94 563.272 1636.79 563.656 1636.41C562.984 1636.36 561.88 1636.31 561.064 1636.31H558.616C559.384 1637.66 559.672 1638.18 560.296 1639.72L555.592 1641.16C554.728 1638.52 554.44 1637.9 553.624 1636.31Z" fill="black"/>
<path d="M514.695 1665.02L513.59 1659.88C513.351 1660.5 513.302 1660.74 513.062 1661.51C511.047 1659.26 509.703 1657.38 508.215 1654.74C508.455 1658.01 508.503 1658.68 508.503 1660.22V1668.14C508.503 1670.44 508.551 1671.69 508.791 1673.13H503.223C503.463 1671.59 503.559 1670.15 503.559 1668.04V1661.85C503.559 1659.93 503.655 1657.67 503.751 1656.09C501.591 1661.37 500.054 1664.06 497.51 1666.89C496.982 1665.02 496.119 1663.29 495.062 1661.94C497.079 1659.88 498.615 1657.77 500.247 1654.84C501.255 1653.06 501.447 1652.58 502.791 1649.42H500.295C498.183 1649.42 497.127 1649.46 495.975 1649.66V1644.57C497.079 1644.76 498.087 1644.81 500.295 1644.81H503.51V1633.43C503.51 1631.27 503.463 1629.88 503.271 1628.73H508.743C508.551 1629.98 508.503 1631.08 508.503 1633.38V1644.81H510.758C512.582 1644.81 513.398 1644.76 514.454 1644.62V1649.61C513.302 1649.46 512.343 1649.42 510.663 1649.42H508.935C510.711 1652.44 512.487 1654.6 515.127 1656.76C514.455 1657.96 514.263 1658.39 513.783 1659.45C514.887 1659.4 516.567 1659.11 518.199 1658.78L529.431 1656.28V1634.34C529.431 1631.56 529.383 1630.26 529.143 1628.78H534.951C534.711 1630.36 534.663 1631.66 534.663 1634.3V1655.13C536.631 1654.65 537.495 1654.41 538.743 1653.93L539.751 1659.4C538.455 1659.54 537.111 1659.78 535.143 1660.26L534.663 1660.36V1667.37C534.663 1670.06 534.711 1671.5 534.951 1673.03H529.143C529.383 1671.4 529.431 1670.25 529.431 1667.32V1661.51L519.255 1663.82C517.142 1664.3 515.751 1664.68 514.695 1665.02ZM495.639 1633.19L499.719 1631.37C501.255 1635.64 501.974 1638.09 502.646 1641.74L498.615 1643.46C497.847 1639.05 496.983 1636.07 495.639 1633.19ZM512.151 1631.27L516.183 1633.05C514.935 1637.46 514.31 1639.14 512.342 1643.46L508.839 1641.64C510.375 1638.42 511.191 1635.93 512.151 1631.27ZM516.711 1635.64L520.071 1631.94C524.199 1634.82 525.735 1636.17 528.471 1639L525.207 1643.03C521.655 1639.24 521.415 1639.05 516.711 1635.64ZM515.223 1647.5L518.583 1643.94C522.375 1646.54 524.439 1648.31 526.935 1651L523.671 1654.89C520.31 1651.29 518.679 1649.85 515.223 1647.5Z" fill="black"/>
<path d="M472.166 1641.11H466.07C464.438 1641.11 463.142 1641.21 461.75 1641.35V1636.26C463.094 1636.41 464.534 1636.5 466.118 1636.5H467.99C466.982 1633.96 466.31 1632.71 464.582 1630.31L469.19 1628.15C470.63 1630.17 471.686 1632.04 472.742 1634.44L468.566 1636.5H476.294C478.022 1633.67 479.222 1631.08 480.182 1628.2L485.366 1629.93C484.79 1630.94 484.79 1630.94 483.686 1633.1C483.014 1634.34 482.486 1635.3 481.766 1636.5H484.55C486.278 1636.5 487.43 1636.46 488.774 1636.26V1641.35C487.19 1641.21 485.75 1641.11 484.166 1641.11H477.302C477.302 1643.75 477.254 1644.81 477.062 1646.58H486.182C487.958 1646.58 489.206 1646.54 490.502 1646.34V1651.53C488.918 1651.38 487.43 1651.29 485.75 1651.29H477.974C479.03 1653.16 480.278 1654.65 482.006 1656.04C484.406 1657.96 486.47 1658.97 490.838 1660.31C489.638 1662.04 488.918 1663.53 488.438 1665.4C483.974 1663.82 482.006 1662.71 479.366 1660.41C477.398 1658.73 476.102 1657.14 474.854 1655.03C473.654 1657.53 472.454 1659.11 470.438 1660.84C468.326 1662.71 466.598 1663.82 463.478 1665.26C462.614 1663.38 461.558 1661.94 460.118 1660.7C463.526 1659.4 465.494 1658.34 467.126 1656.9C468.806 1655.46 470.054 1653.59 470.918 1651.29H464.39C462.806 1651.29 461.222 1651.38 459.926 1651.53V1646.34C461.27 1646.49 462.758 1646.58 464.39 1646.58H471.926C472.118 1644.9 472.118 1644.38 472.166 1641.11ZM447.638 1632.86L451.478 1629.3C455.03 1632.47 455.798 1633.29 459.782 1637.94L455.798 1641.83C452.87 1637.94 451.19 1636.02 447.638 1632.86ZM447.302 1651.96V1646.78C448.55 1646.97 449.318 1647.02 451.142 1647.02H454.742C455.99 1647.02 457.286 1646.97 458.39 1646.82C458.246 1648.26 458.198 1649.46 458.198 1652.01V1662.04C459.158 1663.67 459.686 1664.3 460.934 1665.11C463.142 1666.55 465.686 1666.94 472.886 1666.94C481.094 1666.94 487.19 1666.6 492.134 1665.88C491.222 1668.47 491.078 1668.95 490.694 1671.54C488.822 1671.59 488.822 1671.59 485.366 1671.74C483.926 1671.78 476.87 1671.88 474.422 1671.88C468.566 1671.88 464.534 1671.59 462.422 1671.02C459.446 1670.2 457.958 1669.14 455.702 1666.41C453.686 1668.33 452.198 1669.58 450.134 1671.02C449.798 1671.26 448.982 1671.88 448.55 1672.26L446.246 1666.79C448.358 1665.88 450.806 1664.2 453.158 1662.04V1651.72H450.518C449.27 1651.72 448.502 1651.77 447.302 1651.96Z" fill="black"/>
<path d="M406.553 1634.73H404.873C402.809 1634.73 400.985 1634.82 399.641 1634.97V1629.83C401.177 1630.02 402.905 1630.12 404.921 1630.12H416.681C418.745 1630.12 420.473 1630.02 422.057 1629.83V1634.92C420.761 1634.82 418.889 1634.73 417.161 1634.73H415.673V1638.66H416.345C418.841 1638.66 419.897 1638.62 421.289 1638.47C421.193 1639.96 421.145 1641.74 421.145 1643.75V1666.79C421.145 1669.1 421.193 1670.68 421.337 1672.12H416.729V1670.3H405.353V1672.98H400.553C400.745 1671.11 400.841 1669.29 400.841 1666.46V1644.23C400.841 1641.78 400.793 1640.15 400.649 1638.47C401.993 1638.62 403.097 1638.66 405.545 1638.66H406.553V1634.73ZM410.441 1634.73V1638.66H411.785V1634.73H410.441ZM405.353 1653.88V1657.96H416.729V1654.22C416.297 1654.22 415.865 1654.22 415.385 1654.22C412.265 1654.22 411.785 1653.93 411.785 1652.06V1642.7H410.441V1643.27C410.441 1646.1 410.057 1649.94 409.481 1652.3C409.049 1654.22 408.617 1655.22 407.369 1657.43C406.841 1655.99 406.313 1655.13 405.353 1653.88ZM405.353 1642.7V1653.35C406.697 1650.62 407.129 1648.22 407.225 1642.7H405.353ZM414.953 1642.7V1649.37C414.953 1650.14 415.001 1650.18 416.729 1650.23V1642.7H414.953ZM405.353 1662.09V1665.83H416.729V1662.09H405.353ZM441.257 1634.78V1645.38C441.257 1647.35 441.305 1648.7 441.449 1650.09C439.913 1649.94 438.809 1649.9 436.649 1649.9H428.921V1665.59C428.921 1666.46 429.017 1666.7 429.305 1666.89C429.737 1667.13 431.033 1667.27 432.713 1667.27C436.265 1667.27 437.225 1666.98 437.657 1665.78C437.993 1664.78 438.185 1662.23 438.185 1658.73C440.201 1659.83 441.449 1660.31 443.225 1660.7C442.937 1666.46 442.505 1668.81 441.545 1670.06C440.297 1671.59 437.993 1672.12 432.425 1672.12C424.937 1672.12 423.833 1671.5 423.833 1667.13V1649.56C423.833 1647.26 423.785 1646.39 423.641 1644.86C425.081 1645 426.377 1645.05 428.441 1645.05H436.169L436.121 1634.97H428.537C426.089 1634.97 424.697 1635.02 423.209 1635.21V1629.83C424.745 1630.02 426.377 1630.12 428.585 1630.12H436.505C438.665 1630.12 440.057 1630.07 441.449 1629.93C441.305 1631.61 441.257 1632.47 441.257 1634.78Z" fill="black"/>
<path d="M373.002 1649.08L390.042 1632.04L391.578 1633.62L374.538 1650.76L391.578 1667.8L390.042 1669.38L373.002 1652.49L356.01 1669.38L354.426 1667.8L371.466 1650.76L354.426 1633.62L356.01 1632.04L373.002 1649.08ZM373.05 1633.19C375.066 1633.19 376.698 1634.82 376.698 1636.84C376.698 1638.9 375.066 1640.54 373.05 1640.54C371.034 1640.54 369.354 1638.86 369.354 1636.84C369.354 1634.82 371.034 1633.19 373.05 1633.19ZM359.274 1647.06C361.29 1647.06 362.922 1648.7 362.922 1650.71C362.922 1652.78 361.29 1654.41 359.274 1654.41C357.258 1654.41 355.578 1652.73 355.578 1650.71C355.578 1648.7 357.21 1647.06 359.274 1647.06ZM386.73 1647.11C388.746 1647.11 390.378 1648.74 390.378 1650.76C390.378 1652.78 388.746 1654.41 386.73 1654.41C384.714 1654.41 383.082 1652.78 383.082 1650.76C383.082 1648.74 384.714 1647.11 386.73 1647.11ZM373.002 1661.03C375.018 1661.03 376.65 1662.66 376.65 1664.73C376.65 1666.74 374.97 1668.42 373.002 1668.42C371.082 1668.42 369.306 1666.65 369.306 1664.73C369.306 1662.9 371.034 1661.03 372.666 1661.03C372.714 1661.03 372.762 1661.03 372.81 1661.08C372.858 1661.13 372.858 1661.13 372.906 1661.13C372.906 1661.13 372.906 1661.13 373.002 1661.03Z" fill="black"/>
<path d="M777.526 1482.83V1507.03C777.526 1515.62 777.768 1519.85 778.494 1524.45H760.465C761.191 1520.34 761.433 1515.26 761.433 1507.27V1443.5C761.433 1436.85 761.191 1433.34 760.465 1427.77C765.426 1428.02 768.451 1428.14 775.832 1428.14H809.712C817.335 1428.14 821.207 1427.89 826.289 1427.29V1443.62C821.933 1443.02 817.456 1442.78 809.712 1442.78H777.526V1468.43H803.42C810.922 1468.43 815.157 1468.19 819.876 1467.58V1483.68C815.399 1483.07 810.801 1482.83 803.42 1482.83H777.526Z" fill="black"/>
<path d="M699.659 1482.83V1507.03C699.659 1515.62 699.901 1519.85 700.627 1524.45H682.598C683.324 1520.34 683.566 1515.26 683.566 1507.27V1443.5C683.566 1436.85 683.324 1433.34 682.598 1427.77C687.559 1428.02 690.584 1428.14 697.965 1428.14H731.845C739.468 1428.14 743.34 1427.89 748.422 1427.29V1443.62C744.066 1443.02 739.589 1442.78 731.845 1442.78H699.659V1468.43H725.553C733.055 1468.43 737.29 1468.19 742.009 1467.58V1483.68C737.532 1483.07 732.934 1482.83 725.553 1482.83H699.659Z" fill="black"/>
<path d="M623.078 1426.2C636.388 1426.2 646.673 1430.07 654.901 1438.3C663.734 1447.13 668.453 1460.32 668.453 1476.05C668.453 1506.66 650.666 1526.51 623.199 1526.51C595.732 1526.51 578.066 1506.79 578.066 1476.05C578.066 1460.44 582.906 1447.01 591.86 1438.3C600.209 1430.07 610.252 1426.2 623.078 1426.2ZM623.441 1512.11C640.744 1512.11 651.513 1498.32 651.513 1476.05C651.513 1463.83 648.125 1454.03 641.954 1447.86C636.993 1443.02 630.58 1440.48 623.32 1440.48C605.896 1440.48 594.885 1454.27 594.885 1476.17C594.885 1488.27 598.394 1498.44 604.686 1504.73C609.647 1509.57 616.06 1512.11 623.441 1512.11Z" fill="black"/>
<path d="M475.027 1522.64L551.136 1425.23L557.428 1430.07L481.198 1527.6L475.027 1522.64ZM544.723 1526.39C537.947 1526.39 532.381 1524.33 528.267 1520.22C523.669 1515.74 521.249 1508.48 521.249 1499.28C521.249 1490.21 523.669 1483.07 528.267 1478.47C532.381 1474.48 538.068 1472.3 544.723 1472.3C551.378 1472.3 557.065 1474.48 561.058 1478.47C565.656 1482.95 568.076 1490.21 568.076 1499.28C568.076 1508.48 565.656 1515.74 561.058 1520.22C556.944 1524.33 551.378 1526.39 544.723 1526.39ZM544.723 1482.59C541.214 1482.59 538.915 1483.68 536.979 1486.46C534.801 1489.48 533.712 1493.6 533.712 1499.04C533.712 1510.17 537.584 1516.22 544.723 1516.22C551.983 1516.22 555.734 1510.17 555.734 1498.44C555.734 1493.6 554.524 1489.24 552.467 1486.34C550.41 1483.68 548.232 1482.59 544.723 1482.59ZM487.732 1480.41C480.956 1480.41 475.39 1478.35 471.276 1474.24C466.678 1469.76 464.258 1462.38 464.258 1453.3C464.258 1436.36 472.97 1426.32 487.732 1426.32C494.387 1426.32 500.074 1428.5 504.067 1432.49C508.665 1436.97 511.085 1444.23 511.085 1453.3C511.085 1462.5 508.665 1469.76 504.067 1474.24C499.953 1478.35 494.387 1480.41 487.732 1480.41ZM487.732 1436.61C480.714 1436.61 476.721 1442.54 476.721 1453.06C476.721 1464.19 480.593 1470.24 487.732 1470.24C494.75 1470.24 498.743 1464.19 498.743 1453.3C498.743 1448.95 497.896 1444.59 496.565 1442.05C494.508 1438.3 491.725 1436.61 487.732 1436.61Z" fill="black"/>
<path d="M416.349 1526.39C406.064 1526.39 397.352 1523 390.939 1516.59C387.309 1512.96 384.526 1508.72 382.953 1504.37C379.807 1495.77 378.234 1486.34 378.234 1476.54C378.234 1463.71 381.138 1450.4 385.615 1443.02C392.149 1432.13 403.039 1426.2 416.47 1426.2C426.755 1426.2 435.588 1429.59 442.001 1436C445.631 1439.63 448.414 1443.87 449.987 1448.22C453.133 1456.69 454.706 1466.37 454.706 1476.29C454.706 1491.18 451.439 1504.24 445.752 1512.11C438.976 1521.55 428.933 1526.39 416.349 1526.39ZM416.47 1512.35C421.794 1512.35 426.513 1510.54 429.538 1507.27C434.983 1501.58 438.008 1490.33 438.008 1476.17C438.008 1462.14 434.983 1451.13 429.538 1445.2C426.634 1441.93 421.794 1440.11 416.349 1440.11C410.541 1440.11 406.306 1442.05 402.797 1446.29C397.473 1452.58 394.811 1462.5 394.811 1475.69C394.811 1488.39 397.11 1498.92 400.982 1504.49C404.733 1509.81 409.815 1512.35 416.47 1512.35Z" fill="black"/>
<path d="M341.461 1524.45H323.19C323.916 1519.73 324.158 1515.01 324.158 1508.72V1442.05H318.35C313.873 1442.05 310.364 1442.29 305.887 1442.78V1427.41C309.638 1428.02 312.3 1428.14 317.987 1428.14H329.119C335.29 1428.14 337.105 1428.02 341.461 1427.53C340.735 1434.67 340.493 1440.24 340.493 1447.5V1508.72C340.493 1515.14 340.735 1519.49 341.461 1524.45Z" fill="black"/>
<path d="M783.651 1242.15V1268.87C783.651 1272.95 783.787 1275.33 784.059 1277.24H776.035C776.307 1275.06 776.443 1272.68 776.443 1268.8V1224.26C776.443 1220.66 776.375 1218.76 776.171 1216.58C778.143 1216.78 779.707 1216.85 783.107 1216.85H795.143C798.679 1216.85 800.243 1216.78 802.079 1216.58C801.943 1218.48 801.875 1220.25 801.875 1222.9V1236.23C801.875 1239.43 801.943 1240.79 802.079 1242.28C800.447 1242.22 798.203 1242.15 795.823 1242.15H783.651ZM783.651 1222.77V1227.12H795.211V1222.77H783.651ZM783.651 1232.42V1236.71H795.211V1232.42H783.651ZM832.883 1224.2V1268.8C832.883 1275.33 831.047 1276.56 821.255 1276.56C820.031 1276.56 818.467 1276.49 815.679 1276.42C815.271 1273.16 814.795 1271.25 813.843 1269.01C817.243 1269.42 819.963 1269.62 823.023 1269.62C825.131 1269.62 825.607 1269.35 825.607 1267.92V1242.22H812.823C810.375 1242.22 807.995 1242.28 806.567 1242.42C806.703 1240.86 806.771 1239.16 806.771 1236.23V1222.9C806.771 1220.59 806.703 1218.69 806.567 1216.58C808.539 1216.78 809.967 1216.85 813.503 1216.85H826.151C829.619 1216.85 831.183 1216.78 833.223 1216.58C832.951 1218.96 832.883 1220.8 832.883 1224.2ZM813.571 1222.77V1227.12H825.607V1222.77H813.571ZM813.571 1232.42V1236.71H825.607V1232.42H813.571Z" fill="black"/>
<path d="M751.01 1218.35L760.394 1221.54C759.646 1222.97 759.646 1222.97 758.014 1227.39C753.322 1239.56 747.27 1249.36 739.654 1256.97C733.126 1263.43 726.462 1268.12 716.126 1273.29C714.086 1269.48 713.202 1268.26 710.074 1265.06C725.986 1258.67 736.594 1249.49 744.21 1235.62C747.814 1229.02 750.33 1222.7 751.01 1218.35Z" fill="black"/>
<path d="M661.455 1234.06H650.235V1239.22C650.235 1249.63 649.079 1259.69 647.175 1266.15C645.815 1270.91 644.251 1274.04 641.667 1277.51C639.763 1274.86 638.063 1273.09 635.887 1271.39C641.259 1264.04 642.755 1256.36 642.755 1236.16C642.755 1232.29 642.687 1230.11 642.415 1227.46C644.931 1227.73 646.835 1227.8 649.963 1227.8H663.019V1219.91C663.019 1217.87 662.883 1216.31 662.611 1214.47H670.975C670.703 1215.7 670.635 1216.51 670.635 1218.48H684.235C687.567 1218.48 689.879 1218.35 692.055 1218.08V1224.88C689.947 1224.6 688.043 1224.54 684.439 1224.54H670.635V1227.8H687.839C692.055 1227.8 694.231 1227.73 695.591 1227.46L699.603 1231.74C699.331 1232.15 699.059 1232.56 698.651 1233.31C695.931 1238.34 694.843 1240.04 692.871 1242.62C691.239 1241.33 689.335 1240.31 686.479 1239.16C687.771 1237.73 689.063 1235.96 690.083 1234.06H668.595C668.595 1234.74 668.595 1234.74 668.595 1235.76V1238.75L680.903 1238.14C682.603 1238.07 684.303 1237.86 685.459 1237.66L685.527 1243.92C684.235 1243.78 684.235 1243.78 683.895 1243.78C682.943 1243.78 681.787 1243.85 680.835 1243.92L668.595 1244.46V1246.36C668.595 1247.66 668.799 1247.93 669.819 1248.13C671.111 1248.4 673.695 1248.47 678.659 1248.47C684.643 1248.47 686.343 1248.27 687.091 1247.52C687.703 1246.98 687.907 1245.62 687.907 1242.49C690.423 1243.64 692.327 1244.26 694.979 1244.73C694.571 1249.56 693.959 1251.33 692.531 1252.48C691.715 1253.16 690.559 1253.5 688.655 1253.71C685.663 1254.05 682.195 1254.18 678.727 1254.18C670.431 1254.18 665.467 1253.78 663.699 1252.96C662.135 1252.28 661.523 1251.12 661.523 1248.81V1244.87L656.491 1245.07C654.859 1245.21 653.363 1245.34 651.799 1245.55L651.731 1239.36C652.615 1239.43 653.431 1239.43 654.247 1239.43C654.587 1239.43 655.335 1239.43 656.559 1239.36L661.523 1239.09V1235.76C661.523 1235.42 661.523 1235.01 661.455 1234.06ZM660.095 1255.68L668.051 1256.36C667.915 1257.11 667.779 1257.52 667.643 1258.74C666.827 1265.13 665.059 1268.8 661.319 1272.2C658.735 1274.58 655.539 1276.35 651.051 1277.92C649.827 1275.33 649.079 1274.18 646.767 1271.32C650.779 1270.5 653.635 1269.28 655.879 1267.17C658.871 1264.45 660.163 1261.6 660.163 1257.58C660.163 1256.97 660.163 1256.36 660.095 1255.68ZM680.631 1261.8V1267.92C680.631 1269.76 680.971 1269.89 686.207 1269.89C689.947 1269.89 690.763 1269.62 691.171 1268.12C691.511 1266.9 691.647 1264.93 691.715 1260.64C694.095 1261.6 695.931 1262.07 698.991 1262.55C698.651 1269.76 698.175 1272.34 696.815 1273.97C695.183 1276.01 692.463 1276.62 684.983 1276.62C675.055 1276.62 673.219 1275.74 673.219 1270.84V1262C673.219 1259.28 673.151 1258.26 672.947 1256.36H680.971C680.699 1258.26 680.631 1259.62 680.631 1261.8Z" fill="black"/>
<path d="M609.454 1255.54H579.874C580.214 1259.28 580.826 1261.19 582.39 1263.16C584.362 1265.61 587.422 1266.97 590.89 1266.97C594.222 1266.97 597.078 1265.74 599.05 1263.57C599.866 1262.62 600.342 1261.87 601.022 1260.03L609.046 1262.62C607.482 1265.88 606.598 1267.17 604.898 1268.87C601.362 1272.34 596.602 1274.11 590.89 1274.11C578.854 1274.11 571.238 1266.08 571.238 1253.37C571.238 1240.79 578.786 1232.56 590.414 1232.56C598.37 1232.56 604.626 1236.5 607.346 1243.3C608.638 1246.57 609.114 1249.02 609.318 1253.64C609.318 1253.78 609.318 1253.98 609.454 1255.54ZM580.078 1248.81H600.614C600.138 1245.82 599.322 1243.98 597.622 1242.28C595.786 1240.45 593.474 1239.56 590.278 1239.56C584.974 1239.56 581.098 1243.1 580.078 1248.81Z" fill="black"/>
<path d="M567.895 1233.78L565.515 1242.35C562.659 1241.54 561.231 1241.26 559.463 1241.26C556.063 1241.26 553.479 1242.35 551.575 1244.6C549.875 1246.57 549.195 1248.13 548.787 1251.4V1263.98C548.787 1267.65 548.923 1269.62 549.263 1272.82H539.539C539.879 1269.48 540.015 1267.51 540.015 1263.98V1242.62C540.015 1238.48 539.947 1236.57 539.539 1233.78H548.787V1240.18C551.235 1235.35 555.451 1233.04 561.571 1233.04C563.203 1233.04 564.835 1233.24 567.895 1233.78Z" fill="black"/>
<path d="M520.941 1218.69H530.937V1227.32H520.941V1218.69ZM520.941 1233.78H530.869C530.529 1236.3 530.393 1238.54 530.393 1242.69V1263.91C530.393 1267.65 530.529 1269.96 530.869 1272.82H520.941C521.349 1269.76 521.485 1267.38 521.485 1263.98V1242.62C521.485 1238.88 521.349 1236.57 520.941 1233.78Z" fill="black"/>
<path d="M503.684 1272.82V1268.4C500.964 1270.98 499.264 1271.93 496.476 1272.68C494.504 1273.22 492.328 1273.5 490.152 1273.5C481.856 1273.5 476.824 1269.21 476.824 1262.07C476.824 1257.31 479.816 1253.03 484.508 1251.06C488.928 1249.22 493.96 1248.54 503.684 1248.34V1244.87C503.684 1240.92 501.032 1238.88 495.864 1238.88C493.144 1238.88 490.356 1239.63 488.792 1240.86C487.5 1241.81 486.888 1242.76 486.072 1245.21L477.368 1243.64C478.932 1239.7 480.156 1237.93 482.74 1236.1C486.072 1233.65 489.88 1232.63 495.728 1232.63C502.256 1232.63 506.2 1233.78 509.124 1236.64C511.436 1238.82 512.32 1241.4 512.32 1246.02V1264.32C512.32 1267.92 512.456 1269.76 512.864 1272.82H503.684ZM503.684 1257.65V1254.25C490.696 1254.52 485.596 1256.77 485.596 1262.07C485.596 1265.27 487.976 1267.24 491.784 1267.24C495.388 1267.24 498.924 1265.88 501.236 1263.64C502.868 1262 503.684 1260.03 503.684 1257.65Z" fill="black"/>
<path d="M457.368 1272.82H447.644C447.236 1270.98 446.964 1270.16 445.604 1266.76L435.2 1240.92C434.452 1239.16 433.364 1236.64 432.004 1233.78H442.408C442.612 1235.28 443.224 1237.59 444.108 1240.11L451.044 1259.83C451.452 1260.92 452.064 1262.96 452.472 1264.38C452.948 1262.89 453.492 1261.19 453.968 1259.83L460.904 1240.11C461.992 1236.91 462.332 1235.69 462.604 1233.78H472.94C471.988 1235.69 471.172 1237.59 469.88 1240.92L459.408 1266.76C458.048 1270.23 457.844 1270.84 457.368 1272.82Z" fill="black"/>
<path d="M428.896 1255.54H399.316C399.656 1259.28 400.268 1261.19 401.832 1263.16C403.804 1265.61 406.864 1266.97 410.332 1266.97C413.664 1266.97 416.52 1265.74 418.492 1263.57C419.308 1262.62 419.784 1261.87 420.464 1260.03L428.488 1262.62C426.924 1265.88 426.04 1267.17 424.34 1268.87C420.804 1272.34 416.044 1274.11 410.332 1274.11C398.296 1274.11 390.68 1266.08 390.68 1253.37C390.68 1240.79 398.228 1232.56 409.856 1232.56C417.812 1232.56 424.068 1236.5 426.788 1243.3C428.08 1246.57 428.556 1249.02 428.76 1253.64C428.76 1253.78 428.76 1253.98 428.896 1255.54ZM399.52 1248.81H420.056C419.58 1245.82 418.764 1243.98 417.064 1242.28C415.228 1240.45 412.916 1239.56 409.72 1239.56C404.416 1239.56 400.54 1243.1 399.52 1248.81Z" fill="black"/>
<path d="M373.852 1218.69H383.712C383.372 1221.34 383.236 1223.52 383.236 1227.6V1263.98C383.236 1267.58 383.372 1269.82 383.712 1272.82H373.852C374.192 1269.89 374.328 1267.92 374.328 1263.98V1227.53C374.328 1223.45 374.192 1221.27 373.852 1218.69Z" fill="black"/>
<path d="M355.391 1218.69H365.251C364.911 1221.34 364.775 1223.52 364.775 1227.6V1263.98C364.775 1267.58 364.911 1269.82 365.251 1272.82H355.391C355.731 1269.89 355.867 1267.92 355.867 1263.98V1227.53C355.867 1223.45 355.731 1221.27 355.391 1218.69Z" fill="black"/>
<path d="M336.93 1218.69H346.926V1227.32H336.93V1218.69ZM336.93 1233.78H346.858C346.518 1236.3 346.382 1238.54 346.382 1242.69V1263.91C346.382 1267.65 346.518 1269.96 346.858 1272.82H336.93C337.338 1269.76 337.474 1267.38 337.474 1263.98V1242.62C337.474 1238.88 337.338 1236.57 336.93 1233.78Z" fill="black"/>
<path d="M330.216 1255.54H300.636C300.976 1259.28 301.588 1261.19 303.152 1263.16C305.124 1265.61 308.184 1266.97 311.652 1266.97C314.984 1266.97 317.84 1265.74 319.812 1263.57C320.628 1262.62 321.104 1261.87 321.784 1260.03L329.808 1262.62C328.244 1265.88 327.36 1267.17 325.66 1268.87C322.124 1272.34 317.364 1274.11 311.652 1274.11C299.616 1274.11 292 1266.08 292 1253.37C292 1240.79 299.548 1232.56 311.176 1232.56C319.132 1232.56 325.388 1236.5 328.108 1243.3C329.4 1246.57 329.876 1249.02 330.08 1253.64C330.08 1253.78 330.08 1253.98 330.216 1255.54ZM300.84 1248.81H321.376C320.9 1245.82 320.084 1243.98 318.384 1242.28C316.548 1240.45 314.236 1239.56 311.04 1239.56C305.736 1239.56 301.86 1243.1 300.84 1248.81Z" fill="black"/>
<path d="M254.665 1272.82H245.621C245.961 1269.82 246.097 1267.65 246.097 1263.64V1227.8C246.097 1224.33 245.961 1221.95 245.621 1218.69H255.209C254.869 1221.54 254.733 1223.79 254.733 1227.87V1234.67C254.733 1235.76 254.665 1237.46 254.597 1239.77C258.133 1235.01 262.349 1232.9 268.605 1232.9C280.029 1232.9 286.761 1240.31 286.761 1252.96C286.761 1259.62 284.857 1265.06 281.185 1268.87C277.989 1272.14 273.637 1273.77 268.129 1273.77C261.873 1273.77 257.997 1271.8 254.597 1267.04C254.665 1267.92 254.665 1268.67 254.665 1269.48V1272.82ZM277.921 1252.96C277.921 1245.14 273.841 1240.04 267.585 1240.04C263.777 1240.04 260.581 1241.33 258.337 1243.78C256.297 1246.02 255.005 1249.7 255.005 1253.23C255.005 1257.52 256.773 1261.8 259.493 1263.98C261.465 1265.54 264.117 1266.49 266.633 1266.49C273.501 1266.49 277.921 1261.19 277.921 1252.96Z" fill="black"/>
</svg>
