<svg width="1080" height="1920" viewBox="0 0 1080 1920" fill="none" xmlns="http://www.w3.org/2000/svg">
<path d="M1080 1920L1080 0L0 0L0 1920H1080Z" fill="#A5D4AD"/>
<path d="M1020 983.72V95C1020 75.67 1004.33 60 985 60H95.58C75.93 60 60 75.93 60 95.58V983.71C60 984.03 60.25 984.28 60.57 984.28C80.03 984.59 95.71 1000.46 95.71 1019.99C95.71 1039.52 80.03 1055.39 60.57 1055.7C60.25 1055.7 60 1055.96 60 1056.27V1824.99C60 1844.32 75.67 1859.99 95 1859.99H985C1004.33 1859.99 1020 1844.32 1020 1824.99V1056.27C1020 1055.95 1019.75 1055.7 1019.43 1055.7C999.97 1055.39 984.29 1039.52 984.29 1019.99C984.29 1000.46 999.97 984.59 1019.43 984.28C1019.75 984.28 1020 984.02 1020 983.71V983.72Z" fill="white"/>
<path d="M60.57 1055.71C60.25 1055.71 60 1055.97 60 1056.28V1825C60 1844.33 75.67 1860 95 1860H985C1004.33 1860 1020 1844.33 1020 1825V1056.28C1020 1055.96 1019.75 1055.71 1019.43 1055.71C999.97 1055.4 984.29 1039.53 984.29 1020H95.71C95.71 1039.53 80.03 1055.4 60.57 1055.71Z" fill="#E5F2E6"/>
<path d="M121 1020H160.9" stroke="black" stroke-width="6" stroke-miterlimit="10"/>
<path d="M187.512 1020H227.412" stroke="black" stroke-width="6" stroke-miterlimit="10"/>
<path d="M254.02 1020H293.92" stroke="black" stroke-width="6" stroke-miterlimit="10"/>
<path d="M320.52 1020H360.43" stroke="black" stroke-width="6" stroke-miterlimit="10"/>
<path d="M387.031 1020H426.941" stroke="black" stroke-width="6" stroke-miterlimit="10"/>
<path d="M453.539 1020H493.439" stroke="black" stroke-width="6" stroke-miterlimit="10"/>
<path d="M520.051 1020H559.951" stroke="black" stroke-width="6" stroke-miterlimit="10"/>
<path d="M586.559 1020H626.459" stroke="black" stroke-width="6" stroke-miterlimit="10"/>
<path d="M653.059 1020H692.969" stroke="black" stroke-width="6" stroke-miterlimit="10"/>
<path d="M719.57 1020H759.48" stroke="black" stroke-width="6" stroke-miterlimit="10"/>
<path d="M786.078 1020H825.978" stroke="black" stroke-width="6" stroke-miterlimit="10"/>
<path d="M852.59 1020H892.49" stroke="black" stroke-width="6" stroke-miterlimit="10"/>
<path d="M919.102 1020H959.002" stroke="black" stroke-width="6" stroke-miterlimit="10"/>
<path d="M1020 984.29V95C1020 75.67 1004.33 60 985 60H95C75.67 60 60 75.67 60 95V984.29C79.72 984.29 95.71 1000.28 95.71 1020C95.71 1039.72 79.72 1055.71 60 1055.71V1825C60 1844.33 75.67 1860 95 1860H985C1004.33 1860 1020 1844.33 1020 1825V1055.71C1000.28 1055.71 984.29 1039.72 984.29 1020C984.29 1000.28 1000.28 984.29 1020 984.29Z" stroke="black" stroke-width="6" stroke-miterlimit="10"/>
<path d="M912.642 525.66C908.772 525.66 905.532 522.64 905.312 518.73C900.582 435.62 868.782 358.85 813.362 296.74C810.662 293.71 810.922 289.06 813.952 286.36C816.982 283.66 821.622 283.92 824.332 286.95C881.992 351.57 915.062 431.43 919.992 517.89C920.222 521.94 917.122 525.42 913.072 525.65C912.932 525.65 912.792 525.66 912.652 525.66H912.642Z" fill="black"/>
<path d="M818.842 795.509C817.102 795.509 815.352 794.889 813.952 793.639C810.922 790.939 810.662 786.289 813.362 783.259C868.782 721.149 900.582 644.379 905.312 561.269C905.542 557.219 909.022 554.109 913.072 554.349C917.122 554.579 920.222 558.049 919.992 562.109C915.062 648.579 881.992 728.439 824.332 793.049C822.882 794.679 820.862 795.509 818.842 795.509Z" fill="black"/>
<path d="M167.352 525.66C167.212 525.66 167.072 525.66 166.932 525.65C162.882 525.42 159.782 521.95 160.012 517.89C164.942 431.42 198.012 351.56 255.672 286.95C258.372 283.92 263.022 283.66 266.052 286.36C269.082 289.06 269.342 293.71 266.642 296.74C211.222 358.85 179.422 435.61 174.692 518.73C174.472 522.64 171.232 525.66 167.362 525.66H167.352Z" fill="black"/>
<path d="M261.162 795.509C259.142 795.509 257.122 794.679 255.672 793.049C198.012 728.429 164.942 648.569 160.012 562.109C159.782 558.059 162.882 554.579 166.932 554.349C170.982 554.109 174.462 557.219 174.692 561.269C179.422 644.389 211.222 721.149 266.642 783.259C269.342 786.289 269.082 790.939 266.052 793.639C264.652 794.889 262.902 795.509 261.162 795.509Z" fill="black"/>
<path d="M788.164 268.509C786.424 268.509 784.674 267.889 783.274 266.639C721.164 211.219 644.394 179.419 561.284 174.689C557.234 174.459 554.134 170.989 554.364 166.929C554.594 162.879 558.034 159.789 562.124 160.009C648.594 164.939 728.454 198.009 793.064 255.669C796.094 258.369 796.354 263.019 793.654 266.049C792.204 267.679 790.184 268.509 788.164 268.509Z" fill="black"/>
<path d="M291.844 268.51C289.824 268.51 287.804 267.68 286.354 266.05C283.654 263.02 283.914 258.37 286.944 255.67C351.564 198.01 431.424 164.94 517.884 160.01C521.934 159.78 525.414 162.88 525.644 166.93C525.874 170.98 522.774 174.46 518.724 174.69C435.614 179.42 358.844 211.22 296.734 266.64C295.334 267.89 293.584 268.51 291.844 268.51Z" fill="black"/>
<path d="M561.682 920C557.812 920 554.572 916.98 554.352 913.07C554.122 909.02 557.222 905.54 561.272 905.31C644.392 900.58 721.152 868.78 783.262 813.36C786.292 810.66 790.942 810.92 793.642 813.95C796.342 816.98 796.082 821.63 793.052 824.33C728.432 881.99 648.572 915.06 562.112 919.99C561.972 919.99 561.832 920 561.692 920H561.682Z" fill="black"/>
<path d="M518.312 920C518.172 920 518.032 920 517.892 919.99C431.422 915.06 351.562 881.99 286.952 824.33C283.922 821.63 283.662 816.98 286.362 813.95C289.062 810.92 293.712 810.66 296.742 813.36C358.852 868.78 435.622 900.58 518.732 905.31C522.782 905.54 525.882 909.01 525.652 913.07C525.432 916.98 522.192 920 518.322 920H518.312Z" fill="black"/>
<path d="M875.37 526.191C872.36 526.191 869.84 523.841 869.67 520.801C865.4 445.791 836.7 376.521 786.69 320.461C784.59 318.101 784.79 314.491 787.15 312.391C789.5 310.291 793.12 310.491 795.22 312.851C846.97 370.851 876.67 442.541 881.09 520.151C881.27 523.301 878.86 526.001 875.71 526.181C875.6 526.181 875.49 526.181 875.38 526.181L875.37 526.191Z" fill="black"/>
<path d="M790.95 769.062C789.59 769.062 788.24 768.582 787.15 767.612C784.79 765.512 784.59 761.892 786.69 759.542C836.7 703.492 865.4 634.212 869.67 559.202C869.85 556.052 872.54 553.642 875.7 553.822C878.85 554.002 881.26 556.702 881.08 559.852C876.66 637.472 846.97 709.152 795.21 767.152C794.08 768.422 792.51 769.062 790.94 769.062H790.95Z" fill="black"/>
<path d="M204.622 526.191C204.512 526.191 204.402 526.191 204.292 526.191C201.142 526.011 198.732 523.311 198.912 520.161C203.332 442.541 233.022 370.861 284.782 312.861C286.882 310.501 290.502 310.301 292.852 312.401C295.212 314.501 295.412 318.121 293.312 320.471C243.302 376.521 214.602 445.801 210.332 520.811C210.162 523.851 207.642 526.201 204.632 526.201L204.622 526.191Z" fill="black"/>
<path d="M289.04 769.061C287.47 769.061 285.9 768.411 284.77 767.151C233.02 709.151 203.32 637.461 198.9 559.851C198.72 556.701 201.13 554.001 204.28 553.821C207.44 553.631 210.13 556.051 210.31 559.201C214.58 634.211 243.28 703.491 293.29 759.541C295.39 761.901 295.19 765.511 292.83 767.611C291.74 768.581 290.38 769.061 289.03 769.061H289.04Z" fill="black"/>
<path d="M763.342 294.762C761.982 294.762 760.632 294.282 759.542 293.312C703.492 243.302 634.212 214.602 559.202 210.332C556.052 210.152 553.642 207.452 553.822 204.302C554.002 201.152 556.692 198.742 559.852 198.922C637.472 203.342 709.152 233.032 767.152 284.792C769.512 286.892 769.712 290.512 767.612 292.862C766.482 294.132 764.912 294.772 763.342 294.772V294.762Z" fill="black"/>
<path d="M316.651 294.761C315.081 294.761 313.511 294.111 312.381 292.851C310.281 290.491 310.481 286.881 312.841 284.781C370.841 233.031 442.531 203.331 520.141 198.911C523.291 198.721 525.991 201.141 526.171 204.291C526.351 207.441 523.941 210.141 520.791 210.321C445.781 214.591 376.511 243.291 320.451 293.301C319.361 294.271 318.001 294.751 316.651 294.751V294.761Z" fill="black"/>
<path d="M559.518 881.102C556.508 881.102 553.988 878.752 553.818 875.712C553.638 872.562 556.048 869.862 559.198 869.682C634.208 865.412 703.478 836.712 759.538 786.702C761.888 784.602 765.508 784.802 767.608 787.162C769.708 789.522 769.508 793.132 767.148 795.232C709.148 846.982 637.458 876.682 559.848 881.102C559.738 881.102 559.628 881.102 559.518 881.102Z" fill="black"/>
<path d="M520.479 881.102C520.369 881.102 520.259 881.102 520.149 881.102C442.529 876.682 370.849 846.992 312.849 795.232C310.489 793.132 310.289 789.512 312.389 787.162C314.489 784.802 318.109 784.602 320.459 786.702C376.509 836.722 445.789 865.412 520.799 869.682C523.949 869.862 526.359 872.562 526.179 875.712C526.009 878.752 523.489 881.102 520.479 881.102Z" fill="black"/>
<path d="M841.843 526.51C839.693 526.51 837.893 524.83 837.773 522.66C833.913 454.91 807.993 392.34 762.823 341.71C761.323 340.03 761.473 337.45 763.153 335.94C764.833 334.44 767.413 334.58 768.923 336.27C815.343 388.29 841.973 452.58 845.933 522.19C846.063 524.44 844.343 526.37 842.083 526.5C842.003 526.5 841.923 526.5 841.843 526.5V526.51Z" fill="black"/>
<path d="M765.862 745.101C764.892 745.101 763.922 744.761 763.142 744.061C761.462 742.561 761.312 739.981 762.812 738.291C807.982 687.661 833.902 625.091 837.762 557.341C837.892 555.091 839.852 553.391 842.072 553.491C844.322 553.621 846.042 555.551 845.922 557.801C841.952 627.411 815.322 691.701 768.912 743.721C768.102 744.621 766.982 745.081 765.862 745.081V745.101Z" fill="black"/>
<path d="M238.162 526.51C238.082 526.51 238.002 526.51 237.922 526.51C235.672 526.38 233.952 524.45 234.072 522.2C238.042 452.59 264.672 388.3 311.082 336.28C312.582 334.6 315.162 334.45 316.852 335.95C318.532 337.45 318.682 340.03 317.182 341.72C272.012 392.35 246.092 454.92 242.232 522.67C242.112 524.84 240.312 526.52 238.162 526.52V526.51Z" fill="black"/>
<path d="M314.133 745.101C313.013 745.101 311.893 744.641 311.083 743.741C264.663 691.721 238.033 627.431 234.073 557.821C233.943 555.571 235.663 553.641 237.923 553.511C240.163 553.401 242.103 555.101 242.233 557.361C246.093 625.111 272.013 687.681 317.183 738.311C318.683 739.991 318.533 742.571 316.853 744.081C316.073 744.771 315.103 745.121 314.133 745.121V745.101Z" fill="black"/>
<path d="M741.014 318.219C740.044 318.219 739.074 317.879 738.294 317.179C687.664 272.009 625.094 246.089 557.344 242.229C555.094 242.099 553.374 240.169 553.494 237.919C553.624 235.669 555.544 233.959 557.804 234.069C627.414 238.039 691.704 264.669 743.734 311.079C745.414 312.579 745.564 315.159 744.064 316.849C743.254 317.749 742.134 318.209 741.014 318.209V318.219Z" fill="black"/>
<path d="M338.994 318.22C337.874 318.22 336.754 317.76 335.944 316.86C334.444 315.18 334.594 312.6 336.274 311.09C388.294 264.67 452.584 238.04 522.194 234.08C524.444 233.96 526.374 235.67 526.504 237.93C526.634 240.18 524.914 242.11 522.654 242.24C454.904 246.1 392.334 272.02 341.704 317.19C340.924 317.88 339.954 318.23 338.984 318.23L338.994 318.22Z" fill="black"/>
<path d="M557.565 845.929C555.415 845.929 553.615 844.249 553.495 842.079C553.365 839.829 555.085 837.899 557.345 837.769C625.095 833.909 687.665 807.989 738.295 762.819C739.975 761.319 742.555 761.469 744.065 763.149C745.565 764.829 745.415 767.409 743.735 768.919C691.715 815.339 627.425 841.969 557.805 845.929C557.725 845.929 557.645 845.929 557.565 845.929Z" fill="black"/>
<path d="M522.434 845.929C522.354 845.929 522.274 845.929 522.194 845.929C452.584 841.959 388.294 815.329 336.274 768.919C334.594 767.419 334.444 764.839 335.944 763.149C337.444 761.469 340.024 761.319 341.714 762.819C392.344 807.989 454.914 833.909 522.664 837.769C524.914 837.899 526.634 839.829 526.514 842.079C526.394 844.249 524.594 845.929 522.444 845.929H522.434Z" fill="black"/>
<path d="M320.642 546.17C320.642 544.6 321.782 543.27 323.332 543.02C324.632 542.81 326.262 542.52 327.972 542.12C332.392 541.08 337.582 539.11 343.402 536.27C349.282 533.4 354.912 529.41 359.162 523.67C366.332 513.97 367.852 501.4 368.182 496.89C368.252 495.97 367.522 495.19 366.592 495.19H317.082C315.322 495.19 313.902 493.76 313.902 492.01V470.69C313.902 468.93 315.332 467.51 317.082 467.51H367.062C367.942 467.51 368.652 466.8 368.652 465.92V447.18C368.652 446.3 367.942 445.59 367.062 445.59H328.612C326.852 445.59 325.432 444.16 325.432 442.41V421.09C325.432 419.33 326.862 417.91 328.612 417.91H428.952C430.712 417.91 432.132 419.34 432.132 421.09V442.41C432.132 444.17 430.702 445.59 428.952 445.59H398.512C397.632 445.59 396.922 446.3 396.922 447.18V465.92C396.922 466.8 397.632 467.51 398.512 467.51H438.572C440.332 467.51 441.752 468.94 441.752 470.69V492.01C441.752 493.77 440.322 495.19 438.572 495.19H398.382C397.532 495.19 396.832 495.86 396.792 496.71C396.562 501.75 395.142 518.44 386.172 532.85C380.722 541.61 373.642 548.26 366.532 553.54C359.402 558.84 352.252 562.93 345.262 565.7C338.232 568.49 332.332 570.44 327.742 571.51C326.652 571.76 325.482 571.99 324.392 572.18C322.442 572.53 320.652 571.03 320.652 569.04V546.16L320.642 546.17Z" fill="black"/>
<path d="M474.544 546.52C474.544 545.06 475.544 543.79 476.954 543.43C485.204 541.36 488.924 540.11 496.834 536.32C496.834 536.32 500.884 534.21 504.924 531.3C517.104 522.54 525.214 510.63 525.214 510.63C534.674 497.28 537.764 474.91 538.484 468.49C538.594 467.55 537.854 466.72 536.904 466.72H500.574C500.344 466.72 500.134 466.84 500.024 467.04L499.874 467.29C494.294 478.11 486.874 487.99 480.444 494.24C473.994 500.5 468.584 505.05 464.374 507.75L461.774 509.42C460.714 510.1 459.324 509.34 459.324 508.08V479.89C459.324 478.95 459.744 478.06 460.464 477.45C461.114 476.9 461.984 476.13 463.174 475.06C465.934 472.57 469.044 468.51 472.414 462.98C475.754 457.51 479.344 450.21 483.064 441.29C486.444 433.2 488.974 423.09 490.854 412.06C491.114 410.53 492.444 409.42 493.994 409.42H513.904C515.904 409.42 517.414 411.25 517.034 413.21C516.394 416.52 515.704 420.88 514.844 424.31C513.574 429.39 512.754 432.3 511.234 436.72C510.974 437.47 511.534 438.24 512.324 438.24H591.174C592.934 438.24 594.354 439.67 594.354 441.42V463.51C594.354 465.27 592.924 466.69 591.174 466.69H568.134C567.324 466.69 566.634 467.3 566.554 468.11C565.924 474.01 562.874 497.16 552.384 517.26C538.284 546 508.134 566.39 478.334 572.13C476.374 572.51 474.554 571 474.554 569V546.48L474.544 546.52Z" fill="black"/>
<path d="M675.895 411.029V468.869C675.895 469.749 676.604 470.459 677.484 470.459H764.515C765.395 470.459 766.104 469.749 766.104 468.869V411.029C766.104 410.149 765.395 409.439 764.515 409.439H677.484C676.604 409.439 675.895 410.149 675.895 411.029ZM738.455 452.739H702.294C701.414 452.739 700.705 452.029 700.705 451.149V446.869C700.705 445.989 701.414 445.279 702.294 445.279H738.455C739.335 445.279 740.044 445.989 740.044 446.869V451.149C740.044 452.029 739.335 452.739 738.455 452.739ZM738.455 434.449H702.294C701.414 434.449 700.705 433.739 700.705 432.859V428.749C700.705 427.869 701.414 427.159 702.294 427.159H738.455C739.335 427.159 740.044 427.869 740.044 428.749V432.859C740.044 433.739 739.335 434.449 738.455 434.449Z" fill="black"/>
<path d="M674.224 497.34H728.264C729.144 497.34 729.854 498.05 729.854 498.93V502.84C729.854 503.72 729.144 504.43 728.264 504.43H667.754C665.994 504.43 664.574 505.86 664.574 507.61V522.86C664.574 524.62 666.004 526.04 667.754 526.04H728.264C729.144 526.04 729.854 526.75 729.854 527.63V545.39C729.854 546.11 729.934 547.98 729.214 548.85C728.384 549.87 727.144 549.67 725.844 549.72C722.534 549.72 719.574 549.7 716.944 549.66C716.544 549.66 716.254 549.29 716.334 548.9C716.594 547.63 716.724 546.31 716.694 544.96C716.494 535.68 708.934 528.08 699.654 527.84C689.574 527.58 681.364 535.85 681.704 545.94C682.014 555.29 689.784 562.81 699.144 562.84C704.034 562.85 708.454 560.86 711.634 557.64C711.974 557.3 712.544 557.43 712.694 557.88C714.154 562.21 715.534 566.34 716.784 570.05C717.224 571.35 718.454 572.22 719.824 572.21C725.724 572.17 730.504 571.96 734.174 571.6C738.304 571.18 742.084 570.15 745.514 568.5C749.174 566.84 751.684 564.42 753.044 561.23C754.404 558.04 755.084 553.55 755.084 547.76V527.62C755.084 526.74 755.794 526.03 756.674 526.03H762.904C764.664 526.03 766.084 524.6 766.084 522.85V507.6C766.084 505.84 764.654 504.42 762.904 504.42H756.674C755.794 504.42 755.084 503.71 755.084 502.83V498.92C755.084 498.04 755.794 497.33 756.674 497.33H762.904C764.664 497.33 766.084 495.9 766.084 494.15V479.6C766.084 477.84 764.654 476.42 762.904 476.42H674.204C672.444 476.42 671.024 477.85 671.024 479.6V494.15C671.024 495.91 672.454 497.33 674.204 497.33L674.224 497.34Z" fill="black"/>
<path d="M668.824 409.439H650.254C649.394 409.439 648.574 409.789 647.974 410.399C635.224 423.349 618.284 434.569 612.124 438.479C610.774 439.329 610.274 441.059 610.944 442.499L620.694 463.569C621.624 465.569 624.254 466.049 625.824 464.499C646.114 444.459 664.444 419.799 670.114 411.959C670.874 410.909 670.114 409.439 668.824 409.439Z" fill="black"/>
<path d="M671.914 453.889V435.409C671.914 433.999 670.214 433.289 669.204 434.279C653.634 449.599 620.044 477.059 611.674 483.859C610.544 484.779 610.184 486.349 610.794 487.669L620.694 509.049C621.624 511.049 624.254 511.529 625.824 509.979C627.534 508.289 629.234 506.559 630.914 504.819C631.314 504.409 632.014 504.689 632.014 505.259V569.059C632.014 570.819 633.444 572.239 635.194 572.239H653.814C655.574 572.239 656.994 570.809 656.994 569.059V476.369C656.994 475.299 657.354 474.249 658.024 473.409C664.864 464.729 669.714 458.019 671.334 455.739C671.714 455.199 671.924 454.559 671.924 453.889H671.914Z" fill="black"/>
<path d="M653.261 623.33C640.841 623.33 634.801 628.28 634.801 638.47V655.6C634.801 665.67 640.841 670.56 653.261 670.56C659.131 670.56 663.471 669.48 666.551 667.27C669.991 664.8 671.731 660.87 671.731 655.59V638.46C671.731 628.27 665.691 623.32 653.271 623.32L653.261 623.33ZM646.081 639.3C646.081 633.93 648.831 632.91 653.261 632.91C657.691 632.91 660.441 633.95 660.441 639.3V654.68C660.441 659.95 657.591 660.98 653.261 660.98C648.931 660.98 646.081 659.98 646.081 654.68V639.3Z" fill="black"/>
<path d="M708.262 669.331H721.352L703.622 646.781L720.552 624.8H707.392L694.052 642.281V610.23H682.762V669.331H694.052V659.211L696.942 655.451L708.262 669.331Z" fill="black"/>
<path d="M754.812 624.801V653.291C754.812 659.041 751.872 660.891 746.822 660.891C743.552 660.891 740.272 660.351 740.272 653.881V624.811H728.992V656.771C728.992 665.741 733.702 670.481 742.612 670.481C749.292 670.481 753.872 666.861 755.572 662.801L757.382 669.341H766.102V624.811H754.822L754.812 624.801Z" fill="black"/>
<path d="M630.561 610.23H589.141V620.141V620.151H604.211V669.331H615.681V620.151H630.561V610.23Z" fill="black"/>
<path d="M459.681 669.331H472.771L455.041 646.781L471.971 624.8H458.811L445.471 642.281V610.23H434.191V669.331H445.471V659.211L448.361 655.451L459.681 669.331Z" fill="black"/>
<path d="M355.322 610.23H313.902V620.141V620.151H328.982V669.331H340.442V620.151H355.322V610.23Z" fill="black"/>
<path d="M421.794 658.89L421.194 659.04C417.614 659.96 413.284 660.89 409.404 660.89C404.854 660.89 401.684 658.82 401.684 652.83V640.97C401.684 634.9 404.854 632.82 409.404 632.82C413.354 632.82 417.874 633.7 421.224 634.4L421.804 634.52V625.19L421.494 625.12C417.684 624.23 412.044 623.33 407.524 623.33C402.004 623.33 397.964 624.4 395.164 626.59C391.964 629.09 390.414 633.85 390.414 639.34V654.64C390.414 664.77 396.014 670.56 407.534 670.56C411.404 670.56 417.264 669.49 421.524 668.31L421.814 668.23V658.88L421.794 658.89Z" fill="black"/>
<path d="M553.922 634.699V624.799H543.682V615.189H532.402V624.799H525.172V634.699H532.402V655.419C532.402 667.939 540.292 670.559 546.922 670.559C548.702 670.559 550.502 670.449 552.112 670.219V660.259C551.462 660.329 550.252 660.359 549.532 660.359C546.452 660.359 543.682 659.729 543.682 652.089V634.689H553.922V634.699Z" fill="black"/>
<path d="M489.733 650.741V650.561H515.163V641.481C515.163 635.571 513.543 630.241 510.353 627.341C507.413 624.671 502.773 623.311 497.253 623.311C485.073 623.311 478.453 629.221 478.453 639.591V654.451C478.453 664.701 483.833 670.551 496.313 670.551C500.973 670.551 506.283 669.561 511.963 668.401L512.353 668.321V659.051L511.703 659.201C507.133 660.251 504.613 661.141 500.283 661.141C494.073 661.141 489.733 658.621 489.733 652.201V650.721V650.741ZM489.733 639.721C489.733 634.071 493.793 632.741 497.163 632.741C500.533 632.741 504.063 634.071 504.063 639.721V643.231H489.733V642.711V639.721Z" fill="black"/>
<path d="M378.171 626.881H366.891V669.331H378.171V626.881Z" fill="black"/>
<path d="M372.534 622.22C376.416 622.22 379.564 619.073 379.564 615.19C379.564 611.308 376.416 608.16 372.534 608.16C368.651 608.16 365.504 611.308 365.504 615.19C365.504 619.073 368.651 622.22 372.534 622.22Z" fill="black"/>
<path d="M585.731 643.92H566.141V651.26H585.731V643.92Z" fill="black"/>
<path d="M734.456 1644.83V1669.03C734.456 1677.62 734.698 1681.85 735.424 1686.45H717.395C718.121 1682.34 718.363 1677.26 718.363 1669.27V1605.5C718.363 1598.85 718.121 1595.34 717.395 1589.77C722.356 1590.02 725.381 1590.14 732.762 1590.14H766.642C774.265 1590.14 778.137 1589.89 783.219 1589.29V1605.62C778.863 1605.02 774.386 1604.78 766.642 1604.78H734.456V1630.43H760.35C767.852 1630.43 772.087 1630.19 776.806 1629.58V1645.68C772.329 1645.07 767.731 1644.83 760.35 1644.83H734.456Z" fill="black"/>
<path d="M656.588 1644.83V1669.03C656.588 1677.62 656.83 1681.85 657.556 1686.45H639.527C640.253 1682.34 640.495 1677.26 640.495 1669.27V1605.5C640.495 1598.85 640.253 1595.34 639.527 1589.77C644.488 1590.02 647.513 1590.14 654.894 1590.14H688.774C696.397 1590.14 700.269 1589.89 705.351 1589.29V1605.62C700.995 1605.02 696.518 1604.78 688.774 1604.78H656.588V1630.43H682.482C689.984 1630.43 694.219 1630.19 698.938 1629.58V1645.68C694.461 1645.07 689.863 1644.83 682.482 1644.83H656.588Z" fill="black"/>
<path d="M580.008 1588.2C593.318 1588.2 603.603 1592.07 611.831 1600.3C620.664 1609.13 625.383 1622.32 625.383 1638.05C625.383 1668.66 607.596 1688.51 580.129 1688.51C552.662 1688.51 534.996 1668.79 534.996 1638.05C534.996 1622.44 539.836 1609.01 548.79 1600.3C557.139 1592.07 567.182 1588.2 580.008 1588.2ZM580.371 1674.11C597.674 1674.11 608.443 1660.32 608.443 1638.05C608.443 1625.83 605.055 1616.03 598.884 1609.86C593.923 1605.02 587.51 1602.48 580.25 1602.48C562.826 1602.48 551.815 1616.27 551.815 1638.17C551.815 1650.27 555.324 1660.44 561.616 1666.73C566.577 1671.57 572.99 1674.11 580.371 1674.11Z" fill="black"/>
<path d="M431.956 1684.64L508.065 1587.23L514.358 1592.07L438.128 1689.6L431.956 1684.64ZM501.653 1688.39C494.876 1688.39 489.31 1686.33 485.196 1682.22C480.598 1677.74 478.179 1670.48 478.179 1661.28C478.179 1652.21 480.598 1645.07 485.196 1640.47C489.31 1636.48 494.998 1634.3 501.653 1634.3C508.308 1634.3 513.995 1636.48 517.988 1640.47C522.586 1644.95 525.006 1652.21 525.006 1661.28C525.006 1670.48 522.586 1677.74 517.988 1682.22C513.874 1686.33 508.308 1688.39 501.653 1688.39ZM501.653 1644.59C498.143 1644.59 495.844 1645.68 493.909 1648.46C491.73 1651.48 490.642 1655.6 490.642 1661.04C490.642 1672.17 494.514 1678.22 501.653 1678.22C508.913 1678.22 512.664 1672.17 512.664 1660.44C512.664 1655.6 511.453 1651.24 509.396 1648.34C507.339 1645.68 505.162 1644.59 501.653 1644.59ZM444.661 1642.41C437.885 1642.41 432.319 1640.35 428.205 1636.24C423.607 1631.76 421.188 1624.38 421.188 1615.3C421.188 1598.36 429.899 1588.32 444.661 1588.32C451.316 1588.32 457.003 1590.5 460.996 1594.49C465.594 1598.97 468.015 1606.23 468.015 1615.3C468.015 1624.5 465.594 1631.76 460.996 1636.24C456.882 1640.35 451.316 1642.41 444.661 1642.41ZM444.661 1598.61C437.643 1598.61 433.65 1604.54 433.65 1615.06C433.65 1626.19 437.522 1632.24 444.661 1632.24C451.679 1632.24 455.673 1626.19 455.673 1615.3C455.673 1610.95 454.825 1606.59 453.494 1604.05C451.437 1600.3 448.654 1598.61 444.661 1598.61Z" fill="black"/>
<path d="M337.465 1664.91L354.163 1661.4C355.252 1664.91 356.099 1666.49 357.793 1668.42C361.181 1672.54 366.263 1674.59 372.676 1674.59C384.655 1674.59 392.52 1666.61 392.52 1654.63C392.52 1642.77 385.018 1635.15 373.523 1635.15C367.594 1635.15 362.27 1637.08 358.519 1640.71C356.825 1642.41 355.978 1643.5 354.889 1646.16L339.764 1644.71C340.974 1636.12 341.095 1635.51 341.337 1632.12L344.12 1602.11C344.241 1599.94 344.483 1595.82 344.604 1589.77C348.234 1590.01 351.017 1590.14 357.43 1590.14H387.196C395.545 1590.14 398.57 1590.01 404.015 1589.17V1604.41C398.691 1603.69 393.972 1603.45 387.317 1603.45H358.882L356.946 1624.62C356.825 1625.59 356.583 1627.28 356.22 1629.7C362.149 1624.62 368.562 1622.32 376.911 1622.32C386.712 1622.32 394.577 1625.23 400.506 1631.4C406.435 1637.2 409.097 1644.46 409.097 1654.14C409.097 1675.44 395.182 1688.63 372.676 1688.63C360.697 1688.63 351.743 1685.24 345.088 1678.1C341.821 1674.59 340.127 1671.69 337.465 1664.91Z" fill="black"/>
<path d="M868.484 1485.15L862.676 1485.49C862.628 1484.62 862.58 1484.34 862.436 1483.23C861.524 1477.42 861.188 1473.73 861.188 1468.88C861.188 1462.69 861.764 1457.22 863.156 1450.11C863.684 1447.42 863.78 1446.94 863.876 1445.65L870.212 1446.32C869.06 1449.15 867.956 1454.53 867.188 1460.67C866.707 1464.27 866.516 1467.1 866.468 1471.28C866.468 1472.34 866.42 1472.72 866.372 1473.92C866.9 1472.24 866.996 1471.9 868.868 1467.58L872.708 1469.31C870.068 1474.88 868.436 1480.45 868.436 1483.86C868.436 1484.14 868.436 1484.53 868.484 1485.15ZM875.108 1456.4L875.204 1450.64C877.364 1451.22 879.907 1451.41 884.083 1451.41C889.411 1451.41 893.972 1450.98 897.14 1450.11L897.428 1455.92C897.044 1455.97 896.324 1456.06 894.02 1456.35C890.948 1456.74 887.299 1456.93 883.747 1456.93C880.243 1456.93 880.196 1456.93 875.108 1456.4ZM878.419 1464.32L883.124 1466.53C880.724 1469.31 879.716 1471.38 879.716 1473.44C879.716 1476.18 882.356 1477.62 887.348 1477.62C891.572 1477.62 895.748 1476.94 898.772 1475.79L899.252 1481.89C898.58 1481.94 898.388 1481.98 897.284 1482.18C893.444 1482.8 890.516 1483.09 887.348 1483.09C881.396 1483.09 877.556 1481.74 875.444 1478.91C874.532 1477.71 874.004 1475.94 874.004 1474.21C874.004 1471.09 875.443 1467.87 878.419 1464.32Z" fill="black"/>
<path d="M828.693 1450.69V1447.76C828.693 1446.18 828.597 1444.93 828.357 1443.78H834.549C834.357 1444.78 834.261 1446.03 834.261 1447.76V1450.69H847.461C850.149 1450.69 851.877 1450.59 853.509 1450.35V1456.16C852.021 1455.97 850.533 1455.87 847.653 1455.87H830.085C829.845 1459.47 829.845 1459.62 829.701 1461.06H842.997C845.493 1461.06 846.837 1461.01 847.941 1460.82C847.941 1461.06 847.941 1461.2 847.893 1461.3C847.797 1462.02 847.797 1462.59 847.701 1464.66C847.509 1471.86 846.885 1478.05 846.069 1481.5C844.965 1486.06 843.381 1487.26 838.581 1487.26C836.901 1487.26 835.797 1487.22 832.101 1486.93C831.909 1484.72 831.525 1483.14 830.709 1481.36C833.493 1481.79 835.701 1481.98 837.909 1481.98C840.021 1481.98 840.501 1481.46 841.125 1478.14C841.701 1475.26 841.989 1472.24 842.181 1466.1H828.933C826.917 1475.74 822.597 1481.89 813.525 1487.84C812.325 1485.73 811.413 1484.67 809.637 1483.28C813.861 1480.64 815.925 1478.96 818.229 1476.18C822.357 1471.23 823.989 1465.66 824.229 1455.87H816.357C813.957 1455.87 811.989 1455.97 810.357 1456.16V1450.35C812.085 1450.59 813.909 1450.69 816.357 1450.69H828.693Z" fill="black"/>
<path d="M787.558 1453.23C786.646 1460.77 784.966 1467.39 782.566 1472.82C779.83 1479.01 776.758 1481.84 772.822 1481.84C767.35 1481.84 763.414 1476.27 763.414 1468.54C763.414 1463.26 765.286 1458.32 768.694 1454.58C772.726 1450.16 778.39 1447.86 785.206 1447.86C796.726 1447.86 804.214 1454.86 804.214 1465.66C804.214 1473.97 799.894 1480.59 792.55 1483.57C790.246 1484.53 788.374 1485.01 785.014 1485.58C784.198 1483.04 783.622 1481.98 782.086 1479.97C786.502 1479.39 789.382 1478.62 791.638 1477.33C795.814 1475.02 798.31 1470.46 798.31 1465.33C798.31 1460.72 796.246 1456.98 792.406 1454.67C790.918 1453.81 789.67 1453.42 787.558 1453.23ZM781.702 1453.28C779.206 1453.57 777.478 1454.24 775.51 1455.63C771.478 1458.51 768.982 1463.46 768.982 1468.59C768.982 1472.53 770.662 1475.65 772.774 1475.65C774.358 1475.65 775.99 1473.63 777.718 1469.5C779.542 1465.18 781.126 1458.7 781.702 1453.28Z" fill="black"/>
<path d="M751.845 1455.87H749.301C748.053 1460.34 747.285 1462.3 745.557 1465.52C743.925 1468.54 742.149 1471.04 739.893 1473.63C745.173 1477.76 750.933 1480.35 758.661 1482.08C757.077 1483.95 756.405 1485.1 755.349 1487.7C747.189 1485.01 741.333 1481.89 736.005 1477.33C733.269 1479.63 730.005 1481.79 726.597 1483.57C723.669 1485.06 720.933 1486.16 716.373 1487.7C715.509 1485.63 714.693 1484.29 713.301 1482.56C721.893 1480.21 727.221 1477.71 732.165 1473.63C729.861 1471.09 728.133 1468.74 726.501 1465.95C724.677 1462.83 723.813 1460.77 722.181 1455.87H719.925C717.669 1455.87 715.797 1455.97 714.069 1456.16V1450.74C715.893 1450.98 717.525 1451.07 720.069 1451.07H732.837V1447.66C732.837 1446.22 732.741 1445.07 732.501 1443.97H738.597C738.357 1445.07 738.261 1446.22 738.261 1447.62V1451.07H751.653C754.245 1451.07 755.925 1450.98 757.701 1450.74V1456.16C755.973 1455.97 754.341 1455.87 751.845 1455.87ZM743.637 1455.87H727.701C728.901 1459.52 729.669 1461.25 731.349 1464.08C732.837 1466.48 734.133 1468.16 735.957 1470.08C737.637 1468.21 739.029 1466.29 740.325 1464.03C741.765 1461.44 742.485 1459.76 743.637 1455.87Z" fill="black"/>
<path d="M684.356 1453.42H695.636C692.42 1450.78 690.356 1449.49 685.652 1447.33L689.108 1443.39C694.388 1445.98 695.492 1446.61 699.428 1449.49L696.26 1453.42H703.46C706.1 1453.42 707.3 1453.38 708.836 1453.14V1458.51C707.348 1458.37 705.572 1458.27 703.46 1458.27H695.924V1466.62H702.116C704.132 1466.62 706.004 1466.53 707.348 1466.34V1471.62C705.86 1471.47 703.988 1471.38 702.116 1471.38H695.924V1481.31H704.132C706.34 1481.31 708.452 1481.22 709.844 1481.02V1486.4C708.308 1486.21 706.388 1486.11 704.132 1486.11H683.204C680.948 1486.11 678.932 1486.21 677.492 1486.4V1481.02C678.98 1481.22 681.14 1481.31 683.204 1481.31H690.548V1471.38H685.652C683.732 1471.38 681.86 1471.47 680.372 1471.62V1466.34C681.764 1466.53 683.54 1466.62 685.604 1466.62H690.548V1458.27H684.356C681.908 1458.27 680.708 1458.32 678.98 1458.51V1453.14C680.612 1453.33 682.004 1453.42 684.356 1453.42ZM667.604 1447.71L670.868 1443.97C674.468 1446.08 676.34 1447.47 679.364 1450.26L676.148 1454.53C673.124 1451.31 671.588 1450.06 667.604 1447.71ZM665.684 1459.66L668.756 1455.68C672.644 1457.94 674.276 1459.14 677.444 1461.92L674.564 1466.34C671.06 1462.98 669.236 1461.63 665.684 1459.66ZM673.508 1469.02L677.78 1472.05C675.572 1478 674.324 1480.93 672.452 1484.34C671.972 1485.2 671.684 1485.68 671.108 1486.64C670.724 1487.26 670.724 1487.26 670.436 1487.79L665.876 1483.81C668.132 1481.36 670.916 1476.03 673.508 1469.02Z" fill="black"/>
<path d="M625.363 1453.57L625.795 1447.86C629.491 1448.72 633.763 1449.06 640.195 1449.06C646.291 1449.06 649.699 1448.82 652.867 1448.14L653.059 1453.57C650.179 1454.82 644.275 1458.51 640.243 1461.49L636.067 1458.18C639.091 1456.26 639.619 1455.92 640.819 1455.25C641.299 1454.96 641.443 1454.86 642.067 1454.48C642.451 1454.29 642.499 1454.29 643.123 1453.9C641.011 1454.19 638.947 1454.29 635.923 1454.29C633.475 1454.29 629.491 1454.05 627.139 1453.71C626.563 1453.66 626.227 1453.62 626.035 1453.62C625.939 1453.62 625.699 1453.57 625.363 1453.57ZM628.915 1464.42L633.091 1467.58C630.067 1470.13 628.723 1472.14 628.723 1474.21C628.723 1477.33 632.227 1478.67 640.339 1478.67C646.051 1478.67 652.339 1477.81 655.411 1476.61L655.939 1483.18C655.075 1483.23 654.931 1483.23 653.827 1483.38C648.067 1484.24 644.995 1484.48 640.867 1484.48C635.635 1484.48 631.411 1483.95 628.867 1482.9C624.739 1481.26 622.723 1478.62 622.723 1474.88C622.723 1471.18 624.595 1468.02 628.915 1464.42ZM661.891 1462.45L658.579 1464.32C657.139 1461.68 655.555 1459.42 653.683 1457.36L656.899 1455.68C659.059 1457.89 660.403 1459.71 661.891 1462.45ZM647.779 1460.19L651.139 1458.51C653.251 1460.77 654.547 1462.59 656.179 1465.57L652.819 1467.34C651.235 1464.42 649.891 1462.5 647.779 1460.19Z" fill="black"/>
<path d="M595.558 1453.23C594.646 1460.77 592.966 1467.39 590.566 1472.82C587.83 1479.01 584.758 1481.84 580.822 1481.84C575.35 1481.84 571.414 1476.27 571.414 1468.54C571.414 1463.26 573.286 1458.32 576.694 1454.58C580.726 1450.16 586.39 1447.86 593.206 1447.86C604.726 1447.86 612.214 1454.86 612.214 1465.66C612.214 1473.97 607.894 1480.59 600.55 1483.57C598.246 1484.53 596.374 1485.01 593.014 1485.58C592.198 1483.04 591.622 1481.98 590.086 1479.97C594.502 1479.39 597.382 1478.62 599.638 1477.33C603.814 1475.02 606.31 1470.46 606.31 1465.33C606.31 1460.72 604.246 1456.98 600.406 1454.67C598.918 1453.81 597.67 1453.42 595.558 1453.23ZM589.702 1453.28C587.206 1453.57 585.478 1454.24 583.51 1455.63C579.478 1458.51 576.982 1463.46 576.982 1468.59C576.982 1472.53 578.662 1475.65 580.774 1475.65C582.358 1475.65 583.99 1473.63 585.718 1469.5C587.542 1465.18 589.126 1458.7 589.702 1453.28Z" fill="black"/>
<path d="M545.395 1463.17V1480.83H559.219C561.763 1480.83 563.923 1480.74 565.699 1480.54V1486.3C563.683 1486.06 561.715 1485.97 559.315 1485.97H528.835C526.579 1485.97 524.371 1486.06 522.211 1486.3V1480.54C524.083 1480.74 526.099 1480.83 528.835 1480.83H539.779V1449.82C539.779 1447.71 539.683 1446.27 539.443 1444.3H545.731C545.491 1446.08 545.395 1447.66 545.395 1449.82V1458.03H556.675C558.787 1458.03 560.515 1457.94 562.243 1457.74V1463.46C560.515 1463.26 558.691 1463.17 556.675 1463.17H545.395Z" fill="black"/>
<path d="M507.86 1444.74L513.908 1444.83C513.86 1445.36 513.86 1445.36 513.428 1451.5C513.188 1455.82 512.228 1461.2 511.124 1464.9C510.356 1467.39 509.444 1469.5 508.1 1471.9C510.548 1476.18 513.908 1479.49 518.564 1482.22C517.172 1483.86 516.212 1485.44 515.204 1487.7C510.98 1484.67 507.716 1481.17 504.884 1476.61C500.996 1481.5 496.004 1485.06 488.804 1488.08C487.7 1485.92 486.884 1484.67 485.732 1483.33C494.18 1480.06 499.364 1476.18 502.868 1470.51C506.324 1464.94 508.052 1457.41 508.052 1447.9C508.052 1446.37 508.004 1445.84 507.86 1444.74ZM478.82 1475.74L478.58 1450.59C478.532 1448.05 478.436 1446.61 478.196 1444.88H484.292C484.148 1446.22 484.052 1447.66 484.052 1449.58V1450.64L484.292 1473.54C488.708 1471.57 493.412 1469.07 496.628 1467.01L497.78 1472.05C491.828 1475.7 487.796 1477.76 478.916 1481.6C477.092 1482.42 476.756 1482.56 475.556 1483.14L474.02 1477.28C475.7 1476.9 476.516 1476.61 478.82 1475.74ZM488.228 1450.59L492.836 1447.66C496.628 1451.5 498.788 1454.19 502.34 1459.42L497.396 1462.83C493.748 1456.78 492.596 1455.25 488.228 1450.59Z" fill="black"/>
<path d="M433.555 1469.12V1481.98C433.555 1485.01 433.603 1486.45 433.795 1487.55H427.891C428.083 1486.02 428.179 1484.29 428.179 1481.79V1450.4C428.179 1448.38 428.131 1447.18 427.987 1445.79C429.523 1445.94 430.771 1445.98 433.315 1445.98H462.499C465.139 1445.98 466.579 1445.94 467.731 1445.79C467.587 1447.18 467.539 1448.43 467.539 1451.02V1481.79C467.539 1484.24 466.963 1485.58 465.571 1486.3C464.659 1486.78 463.123 1486.98 460.531 1486.98C458.659 1486.98 456.019 1486.88 454.147 1486.78C453.859 1484.91 453.523 1483.57 452.659 1481.6C455.827 1481.94 458.227 1482.13 459.955 1482.13C461.827 1482.13 462.115 1481.98 462.115 1480.83V1469.12H433.555ZM444.931 1464.08V1451.07H433.555V1464.08H444.931ZM450.115 1464.08H462.115V1451.07H450.115V1464.08Z" fill="black"/>
<path d="M406.683 1485.34C402.603 1485.34 399.147 1484 396.603 1481.46C395.163 1480.02 394.059 1478.34 393.435 1476.61C392.187 1473.2 391.562 1469.46 391.562 1465.57C391.562 1460.48 392.715 1455.2 394.491 1452.27C397.083 1447.95 401.402 1445.6 406.73 1445.6C410.81 1445.6 414.315 1446.94 416.859 1449.49C418.299 1450.93 419.403 1452.61 420.027 1454.34C421.275 1457.7 421.898 1461.54 421.898 1465.47C421.898 1471.38 420.603 1476.56 418.347 1479.68C415.659 1483.42 411.675 1485.34 406.683 1485.34ZM406.73 1479.78C408.842 1479.78 410.715 1479.06 411.915 1477.76C414.075 1475.5 415.275 1471.04 415.275 1465.42C415.275 1459.86 414.075 1455.49 411.915 1453.14C410.763 1451.84 408.843 1451.12 406.683 1451.12C404.379 1451.12 402.699 1451.89 401.307 1453.57C399.195 1456.06 398.139 1460 398.139 1465.23C398.139 1470.27 399.051 1474.45 400.587 1476.66C402.075 1478.77 404.091 1479.78 406.73 1479.78Z" fill="black"/>
<path d="M372.511 1485.34C368.431 1485.34 364.975 1484 362.431 1481.46C360.991 1480.02 359.887 1478.34 359.263 1476.61C358.015 1473.2 357.391 1469.46 357.391 1465.57C357.391 1460.48 358.543 1455.2 360.319 1452.27C362.911 1447.95 367.231 1445.6 372.559 1445.6C376.639 1445.6 380.143 1446.94 382.687 1449.49C384.127 1450.93 385.231 1452.61 385.855 1454.34C387.103 1457.7 387.727 1461.54 387.727 1465.47C387.727 1471.38 386.431 1476.56 384.175 1479.68C381.487 1483.42 377.503 1485.34 372.511 1485.34ZM372.559 1479.78C374.671 1479.78 376.543 1479.06 377.743 1477.76C379.903 1475.5 381.103 1471.04 381.103 1465.42C381.103 1459.86 379.903 1455.49 377.743 1453.14C376.591 1451.84 374.671 1451.12 372.511 1451.12C370.207 1451.12 368.527 1451.89 367.135 1453.57C365.023 1456.06 363.967 1460 363.967 1465.23C363.967 1470.27 364.879 1474.45 366.415 1476.66C367.903 1478.77 369.919 1479.78 372.559 1479.78Z" fill="black"/>
<path d="M338.339 1485.34C334.259 1485.34 330.803 1484 328.259 1481.46C326.819 1480.02 325.715 1478.34 325.091 1476.61C323.843 1473.2 323.219 1469.46 323.219 1465.57C323.219 1460.48 324.371 1455.2 326.147 1452.27C328.739 1447.95 333.059 1445.6 338.387 1445.6C342.467 1445.6 345.971 1446.94 348.515 1449.49C349.955 1450.93 351.059 1452.61 351.683 1454.34C352.931 1457.7 353.555 1461.54 353.555 1465.47C353.555 1471.38 352.259 1476.56 350.003 1479.68C347.315 1483.42 343.331 1485.34 338.339 1485.34ZM338.387 1479.78C340.499 1479.78 342.371 1479.06 343.571 1477.76C345.731 1475.5 346.931 1471.04 346.931 1465.42C346.931 1459.86 345.731 1455.49 343.571 1453.14C342.419 1451.84 340.499 1451.12 338.339 1451.12C336.035 1451.12 334.355 1451.89 332.963 1453.57C330.851 1456.06 329.795 1460 329.795 1465.23C329.795 1470.27 330.707 1474.45 332.243 1476.66C333.731 1478.77 335.747 1479.78 338.387 1479.78Z" fill="black"/>
<path d="M318.345 1477.57V1484.58C318.345 1488.7 317.289 1490.24 313.401 1491.78L311.673 1489.23C314.601 1488.42 315.273 1487.55 315.321 1484.58H311.289V1477.57H318.345Z" fill="black"/>
<path d="M277.02 1476.03L283.644 1474.64C284.076 1476.03 284.412 1476.66 285.084 1477.42C286.428 1479.06 288.444 1479.87 290.988 1479.87C295.74 1479.87 298.86 1476.7 298.86 1471.95C298.86 1467.25 295.884 1464.22 291.324 1464.22C288.972 1464.22 286.86 1464.99 285.372 1466.43C284.7 1467.1 284.364 1467.54 283.932 1468.59L277.932 1468.02C278.412 1464.61 278.46 1464.37 278.556 1463.02L279.66 1451.12C279.708 1450.26 279.804 1448.62 279.852 1446.22C281.292 1446.32 282.396 1446.37 284.94 1446.37H296.748C300.06 1446.37 301.26 1446.32 303.42 1445.98V1452.03C301.308 1451.74 299.436 1451.65 296.796 1451.65H285.516L284.748 1460.05C284.7 1460.43 284.604 1461.1 284.46 1462.06C286.812 1460.05 289.356 1459.14 292.668 1459.14C296.556 1459.14 299.676 1460.29 302.028 1462.74C304.38 1465.04 305.436 1467.92 305.436 1471.76C305.436 1480.21 299.916 1485.44 290.988 1485.44C286.236 1485.44 282.684 1484.1 280.044 1481.26C278.748 1479.87 278.076 1478.72 277.02 1476.03Z" fill="black"/>
<path d="M253.308 1450.26H248.46C246.828 1450.26 245.676 1450.3 244.476 1450.5V1445.31C245.532 1445.5 246.54 1445.55 248.46 1445.55H255.324C256.86 1445.55 257.916 1445.5 258.828 1445.36C258.732 1446.46 258.732 1447.14 258.732 1447.95C258.732 1452.66 259.836 1457.5 261.9 1461.87C264.348 1467.15 267.228 1470.46 272.46 1474.21C271.116 1475.84 270.3 1477.18 269.292 1479.25C265.788 1476.61 263.82 1474.69 261.612 1471.76C259.212 1468.54 257.868 1465.62 256.236 1460.38C255.036 1465.47 253.692 1468.5 251.004 1472.1C249.228 1474.54 247.74 1476.08 244.524 1478.67C243.228 1476.94 242.508 1476.18 240.732 1474.5C243.66 1472.38 245.1 1470.94 247.068 1468.35C249.612 1464.94 251.436 1461.01 252.396 1456.93C252.876 1454.96 253.068 1453.57 253.308 1450.26ZM229.164 1447.95L233.004 1444.35C236.46 1447.38 239.052 1450.06 241.404 1453.14L237.42 1457.02C234.444 1452.99 232.908 1451.31 229.164 1447.95ZM228.444 1466.96V1461.68C229.692 1461.87 230.46 1461.92 232.284 1461.92H236.22C237.66 1461.92 238.764 1461.87 239.868 1461.68C239.724 1463.26 239.676 1464.27 239.676 1466.96V1476.99C240.396 1478.53 240.828 1479.01 242.412 1480.06C244.716 1481.5 247.212 1481.84 255.468 1481.84C262.428 1481.84 268.524 1481.5 273.276 1480.83C272.46 1483.14 272.172 1484.34 271.836 1486.54C267.564 1486.69 260.604 1486.83 257.292 1486.83C249.42 1486.83 245.532 1486.54 243.036 1485.73C240.54 1484.96 238.812 1483.66 236.94 1481.22C235.404 1482.75 234.252 1483.76 231.996 1485.49C231.18 1486.11 230.892 1486.35 230.556 1486.64C230.076 1487.02 230.076 1487.02 229.836 1487.22L227.484 1481.74C229.548 1480.88 232.572 1478.86 234.636 1477.04V1466.72H231.708C230.364 1466.72 229.644 1466.77 228.444 1466.96Z" fill="black"/>
<path d="M187.355 1456.11V1450.98C185.723 1451.31 184.859 1451.46 182.363 1451.84C182.123 1450.54 181.595 1449.34 180.491 1447.42C185.819 1446.8 189.371 1445.94 193.067 1444.4C193.787 1444.11 194.507 1443.73 195.131 1443.3L198.107 1447.47C197.627 1447.66 197.579 1447.71 196.859 1448.05C195.227 1448.72 194.075 1449.15 192.347 1449.68V1456.11H193.835C195.419 1456.11 196.283 1456.06 197.195 1455.92V1460.91C196.235 1460.77 195.371 1460.72 193.835 1460.72H192.491C192.587 1460.96 192.587 1460.96 192.827 1461.39C194.267 1464.56 195.419 1466.24 197.915 1468.78L197.483 1469.65C196.619 1471.28 196.475 1471.62 195.755 1473.39C194.075 1471.23 193.691 1470.56 192.059 1467.06C192.203 1468.21 192.347 1470.99 192.347 1472.53V1482.13C192.347 1484.91 192.395 1486.45 192.635 1488.03H187.067C187.259 1486.35 187.355 1484.82 187.355 1482.13V1473.82C187.355 1472.91 187.547 1469.12 187.643 1467.92C186.347 1472.19 184.619 1475.5 181.835 1478.96C181.019 1476.66 180.491 1475.5 179.387 1473.97C181.403 1471.62 182.507 1469.94 183.899 1467.39C184.955 1465.42 186.155 1462.54 186.683 1460.72H184.283C182.411 1460.72 181.499 1460.77 180.443 1460.96V1455.87C181.547 1456.06 182.411 1456.11 184.283 1456.11H187.355ZM202.331 1453.28H211.547C213.467 1449.73 214.331 1447.52 215.435 1443.54L220.763 1445.26C218.555 1450.11 218.075 1451.12 216.779 1453.28H218.267C219.947 1453.28 220.907 1453.23 222.251 1453.09C222.107 1454.24 222.059 1455.01 222.059 1456.45V1465.28C222.059 1466.72 222.107 1467.68 222.251 1468.83C220.955 1468.69 219.803 1468.64 218.267 1468.64H216.107V1481.7C216.107 1482.61 216.347 1482.7 218.171 1482.7C220.139 1482.7 220.235 1482.46 220.331 1475.84C222.155 1477.04 223.403 1477.66 224.843 1478C224.507 1483.23 224.219 1484.72 223.355 1485.87C222.443 1487.17 220.907 1487.5 216.395 1487.5C212.267 1487.5 211.115 1486.59 211.115 1483.42V1468.64H208.091C207.707 1473.87 207.179 1476.51 205.835 1479.49C204.011 1483.57 201.707 1485.97 197.483 1488.27C196.427 1486.45 195.755 1485.63 193.931 1484.05C200.123 1481.22 203.003 1476.32 203.003 1468.64H202.283C200.747 1468.64 199.787 1468.69 198.491 1468.83C198.587 1467.73 198.635 1466.58 198.635 1465.23V1456.59C198.635 1455.44 198.587 1454.19 198.491 1453.09C199.883 1453.23 200.651 1453.28 202.331 1453.28ZM203.435 1457.89V1463.94H216.923V1457.89H203.435ZM208.427 1450.93L203.723 1453.04C202.235 1449.49 201.275 1447.66 199.787 1445.65L204.443 1443.49C206.267 1446.27 207.323 1448.29 208.427 1450.93Z" fill="black"/>
<path d="M628.188 1318.77L628.324 1318.91C628.732 1318.43 628.732 1318.43 629.616 1317.41C631.792 1315.03 635.328 1313.4 638.388 1313.4C641.516 1313.4 644.508 1314.96 646.004 1317.28C647.364 1319.45 647.704 1321.9 647.704 1329.72C647.704 1334.62 647.976 1335.98 649.2 1337C649.948 1337.61 651.172 1337.95 652.804 1337.95C656.408 1337.95 659.332 1335.43 661.304 1330.67C662.528 1327.61 663.548 1323.4 663.888 1319.86C666.132 1322.17 667.152 1322.85 671.368 1324.96C668.444 1339.04 661.78 1346.11 651.512 1346.11C646.276 1346.11 642.536 1344.07 640.836 1340.19C640.088 1338.42 639.68 1335.98 639.68 1332.64C639.68 1332.58 639.68 1332.24 639.68 1331.96C639.748 1329.52 639.748 1327.88 639.748 1327.2C639.748 1325.1 639.612 1324.08 639.204 1323.19C638.728 1322.24 637.504 1321.63 636.144 1321.63C632.472 1321.63 628.664 1325.03 625.332 1331.15C623.292 1335.02 620.504 1342.57 619.62 1346.72L610.848 1343.86C611.8 1341.89 612.412 1340.26 614.588 1334.34C630.228 1290.89 630.228 1290.89 630.704 1288.1L639.884 1290.42C638.932 1292.25 638.592 1293 636.552 1298.24C632.676 1308.16 629.684 1315.58 628.188 1318.77Z" fill="black"/>
<path d="M556.058 1312.31L549.258 1312.79C546.81 1312.99 545.722 1313.13 543.478 1313.54L542.934 1305.58C543.954 1305.65 544.702 1305.65 544.906 1305.65C545.45 1305.65 549.19 1305.44 556.058 1305.04V1302.45C556.058 1295.18 555.99 1293.88 555.582 1291.37H564.762C564.286 1293.82 564.286 1294.7 564.15 1304.63L573.806 1304.15L576.866 1304.02L583.802 1303.68V1296.67C583.802 1294.09 583.734 1293.2 583.394 1290.96H591.758C591.554 1292.46 591.486 1293.41 591.486 1295.11C591.486 1295.79 591.486 1296.4 591.486 1297.49C591.554 1298.24 591.554 1298.85 591.554 1299.19C591.554 1299.8 591.554 1300.41 591.486 1301.23C591.486 1301.91 591.486 1302.32 591.486 1302.59C591.486 1302.72 591.486 1303.06 591.486 1303.4L599.714 1303.13C602.162 1303.06 602.91 1303 604.678 1302.79L604.882 1310.88C603.25 1310.68 602.706 1310.68 600.734 1310.68C598.354 1310.68 595.09 1310.68 591.486 1310.75C591.418 1317.62 590.806 1322.72 589.718 1325.16C588.222 1328.56 585.434 1330.26 581.49 1330.26C578.226 1330.26 575.302 1329.58 571.698 1327.95C571.834 1326.59 571.834 1326.18 571.834 1325.23C571.834 1323.4 571.698 1322.1 571.358 1319.66C574.962 1321.76 578.226 1322.99 580.266 1322.99C582.034 1322.99 582.714 1322.1 583.19 1319.45C583.53 1317.48 583.734 1314.76 583.802 1310.95L573.602 1311.36C573.262 1311.36 572.106 1311.43 570.678 1311.5L563.946 1311.9C564.014 1312.65 564.014 1313.06 564.014 1313.54C564.014 1314.08 564.014 1314.08 563.946 1317.68C563.946 1318.09 563.946 1318.77 563.946 1319.11C563.946 1322.65 564.15 1330.06 564.286 1331.42C564.83 1337.13 567.754 1338.56 578.838 1338.56C587.61 1338.56 594.002 1337.74 598.422 1335.98L599.034 1345.09L598.014 1345.16L595.906 1345.43C590.942 1345.97 582.034 1346.45 577.546 1346.45C564.83 1346.45 559.322 1344 557.282 1337.47C556.33 1334.41 556.058 1330.54 556.058 1319.25C556.058 1318.7 556.058 1317.14 556.058 1312.31ZM591.486 1287.56L596.11 1286.27C598.218 1289.6 599.646 1292.86 600.802 1296.88L596.11 1298.24C594.886 1293.88 593.458 1290.55 591.486 1287.56ZM608.826 1294.56L604.406 1296.13C603.318 1292.46 601.686 1288.65 599.85 1285.72L604.202 1284.36C606.038 1287.22 607.534 1290.42 608.826 1294.56Z" fill="black"/>
<path d="M485.268 1299.12L484.928 1291.16C486.492 1291.44 488.192 1291.5 491.796 1291.5C495.876 1291.5 501.928 1291.23 504.444 1290.89C505.804 1290.76 506.28 1290.62 507.164 1290.08L512.536 1294.7C511.924 1295.52 511.584 1296.26 511.108 1297.56C510.768 1298.37 506.62 1310.88 506.008 1312.99C511.312 1313.74 515.868 1315.03 521.036 1317.28C521.58 1313.81 521.716 1311.02 521.716 1304.7C521.716 1303.2 521.648 1302.45 521.444 1301.09L530.012 1301.43C529.74 1302.86 529.672 1303.4 529.604 1305.99C529.4 1311.97 529.06 1316.05 528.38 1320.4C530.556 1321.49 533.548 1323.06 535.656 1324.28C537.492 1325.37 537.764 1325.44 538.784 1325.91L535.724 1334.89C533.752 1333.19 529.808 1330.54 526.34 1328.56C524.436 1333.6 522.396 1336.93 518.928 1340.53C515.936 1343.66 512.536 1346.18 508.66 1348.22C505.804 1344.68 505.124 1344 502.472 1342.1C507.572 1339.65 510.224 1337.88 513.012 1334.96C515.732 1332.03 517.976 1328.36 519.064 1324.89C514.236 1322.58 510.224 1321.29 503.764 1320.2C500.772 1329.18 499.004 1333.53 497.032 1336.93C494.516 1341.28 491.456 1343.39 487.716 1343.39C481.46 1343.39 476.836 1337.88 476.836 1330.47C476.836 1324.21 479.896 1318.91 485.268 1315.58C488.804 1313.4 492.408 1312.52 498.12 1312.31C499.888 1306.94 500.704 1304.36 502.404 1298.1C498.936 1298.37 497.304 1298.44 490.64 1298.71C487.852 1298.85 486.628 1298.92 485.268 1299.12ZM496.012 1319.45C491.456 1320.13 489.076 1321.22 486.968 1323.53C485.268 1325.37 484.384 1327.68 484.384 1330.06C484.384 1332.85 485.88 1335.09 487.716 1335.09C489.008 1335.09 490.028 1333.87 491.592 1330.81C492.952 1328.09 494.584 1323.87 496.012 1319.45Z" fill="black"/>
<path d="M452.221 1294.84L452.085 1302.86C450.249 1303.2 448.617 1303.88 446.305 1305.31C441.953 1308.03 439.573 1310.95 439.573 1313.47C439.573 1314.22 439.845 1315.3 440.185 1315.92C440.865 1317.28 441.137 1317.55 445.217 1321.9C447.665 1324.62 449.025 1326.39 449.909 1328.36C450.793 1330.4 451.269 1332.44 451.269 1334.34C451.269 1337.88 449.637 1341.42 446.917 1343.66C444.537 1345.7 441.477 1346.65 437.669 1346.65C432.841 1346.65 428.217 1344.95 423.389 1341.35C424.409 1338.36 424.681 1337.13 425.293 1333.12C429.101 1336.66 433.317 1338.7 436.989 1338.7C440.117 1338.7 442.293 1336.79 442.293 1334C442.293 1332.85 441.953 1331.62 441.205 1330.2C440.389 1328.5 439.641 1327.54 436.989 1324.55C433.045 1320.13 431.821 1317.62 431.821 1314.22C431.821 1311.09 433.113 1308.1 435.561 1305.31C436.921 1303.74 437.669 1303.2 440.457 1301.3C439.709 1301.23 439.709 1301.23 438.213 1301.02C434.133 1300.62 430.529 1299.66 424.545 1297.42C423.389 1297.01 423.185 1296.94 422.233 1296.67L425.225 1289.06C427.197 1290.21 429.985 1291.23 434.269 1292.39C439.233 1293.75 446.985 1294.9 450.861 1294.9C451.065 1294.9 451.541 1294.9 452.221 1294.84ZM416.861 1316.8L424.749 1319.32C424.477 1320.27 424.409 1320.4 423.933 1322.31C422.505 1327.88 419.989 1334.89 417.813 1339.58C417.541 1340.12 416.657 1341.69 415.229 1344.14C412.373 1341.82 411.149 1341.08 407.953 1339.65C410.129 1336.52 411.353 1334.07 413.393 1328.84C415.093 1324.48 416.113 1320.95 416.861 1316.8ZM452.289 1318.64L459.633 1315.51C463.033 1320.68 464.529 1323.26 466.365 1327.48C468.541 1332.17 469.561 1334.82 470.717 1339.04L462.693 1342.84C462.013 1339.1 460.653 1335.02 458.341 1329.58C456.097 1324.35 454.261 1321.08 452.289 1318.64Z" fill="black"/>
<path d="M784.527 1207.04L782.555 1197.38C784.867 1197.18 785.955 1197.04 790.511 1196.02C806.015 1192.69 809.687 1192.15 817.575 1192.15C831.039 1192.15 839.811 1199.7 839.811 1211.26C839.811 1220.5 834.371 1228.32 824.715 1233.02C818.527 1236.08 813.223 1237.3 800.779 1238.66C799.895 1234.99 799.283 1233.56 797.311 1229.89C808.191 1229.41 813.903 1228.39 819.683 1225.88C824.579 1223.7 828.591 1219.82 829.951 1215.81C830.427 1214.45 830.699 1212.75 830.699 1210.98C830.699 1207.24 828.795 1203.98 825.531 1202.14C823.355 1200.92 820.499 1200.31 816.759 1200.31C809.687 1200.31 800.915 1201.87 789.967 1205.14C786.499 1206.16 785.955 1206.29 784.527 1207.04Z" fill="black"/>
<path d="M730.604 1183.17L739.444 1184.12C739.24 1184.74 739.036 1185.48 738.9 1186.23C738.764 1187.12 738.696 1187.46 738.492 1188.54C738.288 1189.97 738.288 1189.97 737.336 1195.07C737.064 1196.57 737.064 1196.7 736.86 1197.59C738.832 1197.45 739.784 1197.38 741.076 1197.38C745.564 1197.38 748.896 1198.61 751.14 1200.99C753.452 1203.57 754.336 1206.84 754.336 1213.02C754.336 1224.72 752.364 1234.04 749.1 1237.78C747.196 1240.02 745.156 1240.84 741.552 1240.84C738.424 1240.84 735.636 1240.29 731.08 1238.86C731.148 1237.5 731.216 1236.55 731.216 1235.87C731.216 1234.1 731.08 1232.74 730.536 1230.09C734.208 1231.72 738.084 1232.74 740.464 1232.74C742.436 1232.74 743.524 1231.45 744.544 1228.12C745.632 1224.58 746.312 1218.4 746.312 1212.62C746.312 1206.36 744.748 1204.52 739.376 1204.52C738.016 1204.52 736.996 1204.59 735.432 1204.73C733.392 1213.02 732.78 1215.06 731.284 1219.48C728.904 1226.28 727.068 1230.64 723.124 1238.59C722.784 1239.27 722.784 1239.27 722.104 1240.63C721.9 1241.04 721.9 1241.11 721.56 1241.79L713.672 1237.44C715.712 1234.72 718.432 1229.82 720.744 1224.65C723.668 1217.99 724.62 1215.13 727.34 1205.41C723.872 1205.82 717.412 1206.97 715.168 1207.58L714.352 1199.56C716.868 1199.56 725.096 1198.74 728.836 1198.2C730.06 1190.86 730.604 1186.71 730.604 1184.46C730.604 1184.19 730.604 1183.72 730.604 1183.17ZM754.948 1196.23L761.952 1192.83C768.752 1200.78 773.036 1208.88 775.96 1219.35L768.208 1223.29C766.916 1217.44 765.352 1212.96 762.768 1207.86C760.32 1202.82 758.144 1199.7 754.948 1196.23Z" fill="black"/>
<path d="M663.215 1213.77L663.351 1213.91C663.759 1213.43 663.759 1213.43 664.643 1212.41C666.819 1210.03 670.355 1208.4 673.415 1208.4C676.543 1208.4 679.535 1209.96 681.031 1212.28C682.391 1214.45 682.731 1216.9 682.731 1224.72C682.731 1229.62 683.003 1230.98 684.227 1232C684.975 1232.61 686.199 1232.95 687.831 1232.95C691.435 1232.95 694.359 1230.43 696.331 1225.67C697.555 1222.61 698.575 1218.4 698.915 1214.86C701.159 1217.17 702.179 1217.85 706.395 1219.96C703.471 1234.04 696.807 1241.11 686.539 1241.11C681.303 1241.11 677.563 1239.07 675.863 1235.19C675.115 1233.42 674.707 1230.98 674.707 1227.64C674.707 1227.58 674.707 1227.24 674.707 1226.96C674.775 1224.52 674.775 1222.88 674.775 1222.2C674.775 1220.1 674.639 1219.08 674.231 1218.19C673.755 1217.24 672.531 1216.63 671.171 1216.63C667.499 1216.63 663.691 1220.03 660.359 1226.15C658.319 1230.02 655.531 1237.57 654.647 1241.72L645.875 1238.86C646.827 1236.89 647.439 1235.26 649.615 1229.34C665.255 1185.89 665.255 1185.89 665.731 1183.1L674.911 1185.42C673.959 1187.25 673.619 1188 671.579 1193.24C667.703 1203.16 664.711 1210.58 663.215 1213.77Z" fill="black"/>
<path d="M594.265 1184.53L603.105 1183.1C603.377 1187.66 605.417 1197.45 607.593 1204.39C612.013 1202.76 612.013 1202.76 625.205 1198.4C626.429 1198 626.769 1197.86 627.789 1197.38L630.713 1205.95C624.797 1207.11 615.889 1209.69 608.273 1212.48C598.345 1216.15 593.381 1220.5 593.381 1225.4C593.381 1230.36 598.005 1232.47 608.953 1232.47C617.453 1232.47 625.817 1231.45 630.917 1229.68L631.665 1239C630.169 1239 629.829 1239.07 626.157 1239.48C618.813 1240.22 615.005 1240.5 610.245 1240.5C600.793 1240.5 594.877 1239.34 590.525 1236.76C586.785 1234.51 584.609 1230.3 584.609 1225.4C584.609 1220.84 586.785 1216.49 590.661 1213.23C593.313 1210.98 595.489 1209.62 599.909 1207.38C598.209 1201.87 597.053 1197.32 595.353 1188.95C594.673 1185.69 594.605 1185.55 594.265 1184.53Z" fill="black"/>
<path d="M539.998 1205.07C544.486 1205.07 548.09 1208.67 548.09 1213.16C548.09 1217.65 544.486 1221.25 539.998 1221.25C535.51 1221.25 531.906 1217.65 531.906 1213.16C531.906 1208.67 535.51 1205.07 539.998 1205.07Z" fill="black"/>
<path d="M478.8 1235.8V1228.8H471.252C467.376 1228.8 465.948 1228.87 464.18 1229.07V1222.14C465.88 1222.41 467.24 1222.48 471.184 1222.48H478.8V1216.9H472.34C467.784 1216.9 466.22 1216.97 464.18 1217.1C464.316 1215.54 464.316 1215.54 464.452 1208.67V1193.3C464.452 1188.68 464.384 1186.44 464.112 1184.19C466.696 1184.46 468.872 1184.53 473.292 1184.53H492.06C497.092 1184.53 499.132 1184.46 500.832 1184.19C500.628 1186.16 500.56 1189.36 500.56 1193.51V1207.99C500.56 1212.75 500.628 1215.13 500.832 1217.1C498.588 1216.9 497.5 1216.9 493.42 1216.9H485.6V1222.48H494.304C498.044 1222.48 499.54 1222.41 501.512 1222.14V1229.14C499.54 1228.87 497.84 1228.8 494.372 1228.8H485.6V1235.8H496.548C500.152 1235.8 501.92 1235.74 503.756 1235.46V1242.74C501.58 1242.47 499.744 1242.4 496.072 1242.4H467.444C463.84 1242.4 462.072 1242.47 459.76 1242.74V1235.46C461.596 1235.74 463.092 1235.8 466.628 1235.8H478.8ZM478.8 1191.13H471.252V1197.93H478.8V1191.13ZM485.6 1191.13V1197.93H493.488V1191.13H485.6ZM478.8 1203.64H471.252V1210.51H478.8V1203.64ZM485.6 1203.64V1210.51H493.488V1203.64H485.6ZM448.54 1191.81H445.956C443.78 1191.81 442.556 1191.88 440.856 1192.15V1184.8C442.488 1185.08 444.256 1185.21 447.044 1185.21H456.632C459.352 1185.21 460.984 1185.14 462.684 1184.8V1192.08C460.984 1191.88 459.556 1191.81 457.652 1191.81H455.612V1205.07H457.176C458.944 1205.07 459.964 1205 461.46 1204.73V1211.66C460.1 1211.46 458.74 1211.39 457.176 1211.39H455.612V1224.79C458.468 1223.56 459.284 1223.22 462.276 1221.73L462.48 1228.94C456.564 1231.86 453.912 1233.02 443.372 1237.3C443.032 1237.44 442.692 1237.57 442.012 1237.84L440.176 1230.16C442.488 1229.68 443.916 1229.21 448.54 1227.58V1211.39H446.296C444.324 1211.39 443.236 1211.46 441.672 1211.73V1204.73C443.304 1205 444.324 1205.07 446.432 1205.07H448.54V1191.81Z" fill="black"/>
<path d="M400.738 1233.36L399.174 1226.08C398.834 1226.96 398.766 1227.3 398.426 1228.39C395.57 1225.2 393.666 1222.54 391.558 1218.8C391.898 1223.43 391.966 1224.38 391.966 1226.56V1237.78C391.966 1241.04 392.034 1242.81 392.374 1244.85H384.486C384.826 1242.67 384.962 1240.63 384.962 1237.64V1228.87C384.962 1226.15 385.098 1222.95 385.234 1220.71C382.174 1228.19 379.998 1232 376.394 1236.01C375.646 1233.36 374.422 1230.91 372.926 1229C375.782 1226.08 377.958 1223.09 380.27 1218.94C381.698 1216.42 381.97 1215.74 383.874 1211.26H380.338C377.346 1211.26 375.85 1211.32 374.218 1211.6V1204.39C375.782 1204.66 377.21 1204.73 380.338 1204.73H384.894V1188.61C384.894 1185.55 384.826 1183.58 384.554 1181.95H392.306C392.034 1183.72 391.966 1185.28 391.966 1188.54V1204.73H395.162C397.746 1204.73 398.902 1204.66 400.398 1204.46V1211.53C398.766 1211.32 397.406 1211.26 395.026 1211.26H392.578C395.094 1215.54 397.61 1218.6 401.35 1221.66C400.398 1223.36 400.126 1223.97 399.446 1225.47C401.01 1225.4 403.39 1224.99 405.702 1224.52L421.614 1220.98V1189.9C421.614 1185.96 421.546 1184.12 421.206 1182.02H429.434C429.094 1184.26 429.026 1186.1 429.026 1189.84V1219.35C431.814 1218.67 433.038 1218.33 434.806 1217.65L436.234 1225.4C434.398 1225.6 432.494 1225.94 429.706 1226.62L429.026 1226.76V1236.69C429.026 1240.5 429.094 1242.54 429.434 1244.71H421.206C421.546 1242.4 421.614 1240.77 421.614 1236.62V1228.39L407.198 1231.66C404.206 1232.34 402.234 1232.88 400.738 1233.36ZM373.742 1188.27L379.522 1185.69C381.698 1191.74 382.718 1195.21 383.67 1200.38L377.958 1202.82C376.87 1196.57 375.646 1192.35 373.742 1188.27ZM397.134 1185.55L402.846 1188.07C401.078 1194.32 400.194 1196.7 397.406 1202.82L392.442 1200.24C394.618 1195.68 395.774 1192.15 397.134 1185.55ZM403.594 1191.74L408.354 1186.5C414.202 1190.58 416.378 1192.49 420.254 1196.5L415.63 1202.21C410.598 1196.84 410.258 1196.57 403.594 1191.74ZM401.486 1208.54L406.246 1203.5C411.618 1207.18 414.542 1209.69 418.078 1213.5L413.454 1219.01C408.694 1213.91 406.382 1211.87 401.486 1208.54Z" fill="black"/>
<path d="M337.973 1240.5L331.377 1243.62C330.357 1240.77 329.949 1239.82 329.133 1237.84C324.781 1239.41 320.633 1240.63 313.561 1242.26C310.161 1243.01 309.957 1243.08 306.693 1244.03L304.585 1236.55C306.081 1236.48 306.489 1236.48 309.277 1236.08V1208.2C309.277 1204.86 309.209 1203.57 309.141 1202.14C306.829 1200.1 305.673 1199.29 303.633 1198.27C306.761 1195.21 308.665 1192.83 310.569 1189.63C312.405 1186.57 313.493 1183.99 314.105 1181.47L321.721 1182.97C321.313 1183.85 320.565 1185.35 319.613 1187.39H329.405C332.533 1187.39 334.233 1187.25 336.069 1186.98V1193.37C338.789 1189.63 340.761 1185.48 341.645 1181.61L348.989 1182.97C347.833 1185.89 347.833 1185.89 347.221 1187.32H359.393C362.997 1187.32 364.629 1187.25 366.873 1186.91V1193.78C364.561 1193.51 362.793 1193.44 359.393 1193.44H355.109C356.469 1195.68 356.741 1196.36 357.557 1198.27L350.893 1200.31C350.077 1197.59 349.465 1196.23 348.105 1193.44H344.025C342.121 1196.57 341.169 1197.79 338.517 1200.92C336.817 1199.36 335.525 1198.47 332.873 1197.11C334.369 1195.55 334.845 1195 335.797 1193.78C334.029 1193.58 332.533 1193.51 330.289 1193.51H326.685C327.637 1195.28 328.113 1196.3 328.997 1198.4L322.129 1200.31C321.653 1197.93 320.905 1195.82 319.817 1193.51H316.349C314.377 1196.5 312.541 1198.88 310.909 1200.78C312.065 1200.85 312.745 1200.85 314.581 1200.85H329.133C332.465 1200.85 333.689 1200.78 335.321 1200.58C335.117 1202.35 335.117 1203.57 335.117 1207.11V1219.08C335.117 1222.41 335.117 1223.84 335.321 1225.47C333.825 1225.26 332.533 1225.2 329.337 1225.2H316.281V1234.78C320.905 1233.83 321.653 1233.7 326.481 1232.4C325.529 1230.7 325.053 1229.96 323.557 1227.78L329.405 1225.47C333.621 1231.38 335.321 1234.44 337.973 1240.5ZM316.281 1206.56V1209.96H328.521V1206.56H316.281ZM316.281 1215.4V1218.94H328.521V1215.4H316.281ZM364.425 1206.43V1229.62C364.357 1234.1 363.881 1235.94 362.453 1237.1C360.957 1238.12 358.917 1238.52 354.429 1238.52C353.817 1238.52 352.865 1238.52 351.573 1238.52C351.301 1235.12 350.825 1233.42 349.465 1230.64C351.233 1230.98 353.273 1231.18 354.497 1231.18C357.217 1231.18 357.217 1231.11 357.285 1228.05V1207.11L347.153 1207.04V1238.05C347.153 1241.18 347.221 1242.54 347.493 1244.3L339.605 1244.37C339.877 1242.06 339.945 1240.97 339.945 1238.52V1206.5C339.945 1203.44 339.877 1202.55 339.741 1200.65C341.441 1200.85 343.481 1200.92 345.521 1200.92H356.945C360.073 1200.92 361.093 1200.85 364.629 1200.65C364.493 1202.62 364.425 1204.73 364.425 1206.43Z" fill="black"/>
<path d="M263.989 1194.8V1190.79C258.413 1191.2 253.857 1191.33 248.145 1191.33C247.261 1191.33 246.037 1191.33 244.473 1191.33C243.997 1189.09 243.385 1187.73 241.889 1185.01C245.765 1185.14 247.601 1185.14 249.505 1185.14C263.173 1185.14 280.241 1183.51 287.857 1181.4L293.297 1187.93C292.413 1188.07 292.277 1188.07 290.713 1188.27C284.185 1189.09 275.413 1190.04 271.061 1190.31V1194.8H290.101C293.841 1194.8 295.949 1194.66 297.921 1194.39V1201.53C295.745 1201.26 293.433 1201.12 290.101 1201.12H278.269C280.377 1202.69 282.417 1203.84 285.545 1205.41C290.101 1207.58 291.597 1208.13 299.757 1210.3C298.125 1212.14 297.037 1214.04 295.745 1216.97C291.529 1215.54 286.837 1213.5 282.757 1211.32C278.065 1208.67 274.393 1205.88 270.857 1202.28C270.993 1203.44 271.061 1204.59 271.061 1205V1205.82C271.061 1207.86 271.129 1209.08 271.333 1210.24H263.649C263.853 1208.88 263.989 1207.58 263.989 1205.88V1205.2C263.989 1204.39 263.989 1203.37 264.125 1202.28C259.705 1206.63 256.917 1208.88 252.429 1211.46C253.721 1211.53 254.401 1211.53 256.373 1211.53H277.589C280.037 1211.53 281.329 1211.46 282.621 1211.26L286.429 1214.79C280.785 1219.42 276.705 1222.14 272.829 1224.04H289.557C293.569 1224.04 295.745 1223.9 297.921 1223.63V1230.77C295.677 1230.5 293.093 1230.36 289.489 1230.36H272.285V1237.57C272.285 1241.04 271.197 1242.81 268.545 1243.69C266.913 1244.17 265.009 1244.37 261.745 1244.37C259.025 1244.37 257.937 1244.37 254.945 1244.17C254.537 1241.11 254.129 1239.68 253.041 1237.16C256.781 1237.64 258.957 1237.84 261.541 1237.84C264.329 1237.84 265.009 1237.5 265.009 1236.14V1230.36H246.241C242.637 1230.36 240.121 1230.5 237.877 1230.77V1223.63C239.917 1223.9 242.161 1224.04 246.173 1224.04H265.009C264.941 1222.82 264.941 1222.82 264.805 1221.18H267.049C269.497 1220.03 271.605 1218.87 273.169 1217.65H256.917C253.585 1217.65 251.817 1217.72 250.117 1217.99V1212.68C245.153 1215.2 243.861 1215.81 240.393 1217.04C239.101 1214.32 238.557 1213.5 236.449 1210.85C244.133 1208.74 250.933 1205.48 256.713 1201.12H245.629C242.501 1201.12 240.121 1201.26 237.945 1201.53V1194.39C239.849 1194.66 242.297 1194.8 245.697 1194.8H263.989Z" fill="black"/>
</svg>
