<svg width="1080" height="1920" viewBox="0 0 1080 1920" fill="none" xmlns="http://www.w3.org/2000/svg">
<path d="M1080 1920L1080 0L0 0L0 1920H1080Z" fill="#A5D4AD"/>
<path d="M1020 983.72V95C1020 75.67 1004.33 60 985 60H95.58C75.93 60 60 75.93 60 95.58V983.71C60 984.03 60.25 984.28 60.57 984.28C80.03 984.59 95.71 1000.46 95.71 1019.99C95.71 1039.52 80.03 1055.39 60.57 1055.7C60.25 1055.7 60 1055.96 60 1056.27V1824.99C60 1844.32 75.67 1859.99 95 1859.99H985C1004.33 1859.99 1020 1844.32 1020 1824.99V1056.27C1020 1055.95 1019.75 1055.7 1019.43 1055.7C999.97 1055.39 984.29 1039.52 984.29 1019.99C984.29 1000.46 999.97 984.59 1019.43 984.28C1019.75 984.28 1020 984.02 1020 983.71V983.72Z" fill="white"/>
<path d="M60.57 1055.71C60.25 1055.71 60 1055.97 60 1056.28V1825C60 1844.33 75.67 1860 95 1860H985C1004.33 1860 1020 1844.33 1020 1825V1056.28C1020 1055.96 1019.75 1055.71 1019.43 1055.71C999.97 1055.4 984.29 1039.53 984.29 1020H95.71C95.71 1039.53 80.03 1055.4 60.57 1055.71Z" fill="#E5F2E6"/>
<path d="M121 1020H160.9" stroke="black" stroke-width="6" stroke-miterlimit="10"/>
<path d="M187.51 1020H227.41" stroke="black" stroke-width="6" stroke-miterlimit="10"/>
<path d="M254.02 1020H293.92" stroke="black" stroke-width="6" stroke-miterlimit="10"/>
<path d="M320.52 1020H360.43" stroke="black" stroke-width="6" stroke-miterlimit="10"/>
<path d="M387.029 1020H426.939" stroke="black" stroke-width="6" stroke-miterlimit="10"/>
<path d="M453.539 1020H493.439" stroke="black" stroke-width="6" stroke-miterlimit="10"/>
<path d="M520.051 1020H559.951" stroke="black" stroke-width="6" stroke-miterlimit="10"/>
<path d="M586.561 1020H626.461" stroke="black" stroke-width="6" stroke-miterlimit="10"/>
<path d="M653.061 1020H692.971" stroke="black" stroke-width="6" stroke-miterlimit="10"/>
<path d="M719.57 1020H759.48" stroke="black" stroke-width="6" stroke-miterlimit="10"/>
<path d="M786.08 1020H825.98" stroke="black" stroke-width="6" stroke-miterlimit="10"/>
<path d="M852.59 1020H892.49" stroke="black" stroke-width="6" stroke-miterlimit="10"/>
<path d="M919.1 1020H959" stroke="black" stroke-width="6" stroke-miterlimit="10"/>
<path d="M1020 984.29V95C1020 75.67 1004.33 60 985 60H95C75.67 60 60 75.67 60 95V984.29C79.72 984.29 95.71 1000.28 95.71 1020C95.71 1039.72 79.72 1055.71 60 1055.71V1825C60 1844.33 75.67 1860 95 1860H985C1004.33 1860 1020 1844.33 1020 1825V1055.71C1000.28 1055.71 984.29 1039.72 984.29 1020C984.29 1000.28 1000.28 984.29 1020 984.29Z" stroke="black" stroke-width="6" stroke-miterlimit="10"/>
<path d="M912.642 525.66C908.772 525.66 905.532 522.64 905.312 518.73C900.582 435.62 868.782 358.85 813.362 296.74C810.662 293.71 810.922 289.06 813.952 286.36C816.982 283.66 821.622 283.92 824.332 286.95C881.992 351.57 915.062 431.43 919.992 517.89C920.222 521.94 917.122 525.42 913.072 525.65C912.932 525.65 912.792 525.66 912.652 525.66H912.642Z" fill="black"/>
<path d="M818.842 795.509C817.102 795.509 815.352 794.889 813.952 793.639C810.922 790.939 810.662 786.289 813.362 783.259C868.782 721.149 900.582 644.379 905.312 561.269C905.542 557.219 909.022 554.109 913.072 554.349C917.122 554.579 920.222 558.049 919.992 562.109C915.062 648.579 881.992 728.439 824.332 793.049C822.882 794.679 820.862 795.509 818.842 795.509Z" fill="black"/>
<path d="M167.352 525.66C167.212 525.66 167.072 525.66 166.932 525.65C162.882 525.42 159.782 521.95 160.012 517.89C164.942 431.42 198.012 351.56 255.672 286.95C258.372 283.92 263.022 283.66 266.052 286.36C269.082 289.06 269.342 293.71 266.642 296.74C211.222 358.85 179.422 435.61 174.692 518.73C174.472 522.64 171.232 525.66 167.362 525.66H167.352Z" fill="black"/>
<path d="M261.162 795.509C259.142 795.509 257.122 794.679 255.672 793.049C198.012 728.429 164.942 648.569 160.012 562.109C159.782 558.059 162.882 554.579 166.932 554.349C170.982 554.109 174.462 557.219 174.692 561.269C179.422 644.389 211.222 721.149 266.642 783.259C269.342 786.289 269.082 790.939 266.052 793.639C264.652 794.889 262.902 795.509 261.162 795.509Z" fill="black"/>
<path d="M788.162 268.509C786.422 268.509 784.672 267.889 783.272 266.639C721.162 211.219 644.392 179.419 561.282 174.689C557.232 174.459 554.132 170.989 554.362 166.929C554.592 162.879 558.032 159.789 562.122 160.009C648.592 164.939 728.452 198.009 793.062 255.669C796.092 258.369 796.352 263.019 793.652 266.049C792.202 267.679 790.182 268.509 788.162 268.509Z" fill="black"/>
<path d="M291.842 268.51C289.822 268.51 287.802 267.68 286.352 266.05C283.652 263.02 283.912 258.37 286.942 255.67C351.562 198.01 431.422 164.94 517.882 160.01C521.932 159.78 525.412 162.88 525.642 166.93C525.872 170.98 522.772 174.46 518.722 174.69C435.612 179.42 358.842 211.22 296.732 266.64C295.332 267.89 293.582 268.51 291.842 268.51Z" fill="black"/>
<path d="M561.682 920C557.812 920 554.572 916.98 554.352 913.07C554.122 909.02 557.222 905.54 561.272 905.31C644.392 900.58 721.152 868.78 783.262 813.36C786.292 810.66 790.942 810.92 793.642 813.95C796.342 816.98 796.082 821.63 793.052 824.33C728.432 881.99 648.572 915.06 562.112 919.99C561.972 919.99 561.832 920 561.692 920H561.682Z" fill="black"/>
<path d="M518.312 920C518.172 920 518.032 920 517.892 919.99C431.422 915.06 351.562 881.99 286.952 824.33C283.922 821.63 283.662 816.98 286.362 813.95C289.062 810.92 293.712 810.66 296.742 813.36C358.852 868.78 435.622 900.58 518.732 905.31C522.782 905.54 525.882 909.01 525.652 913.07C525.432 916.98 522.192 920 518.322 920H518.312Z" fill="black"/>
<path d="M875.372 526.191C872.362 526.191 869.842 523.841 869.672 520.801C865.402 445.791 836.702 376.521 786.692 320.461C784.592 318.101 784.792 314.491 787.152 312.391C789.502 310.291 793.122 310.491 795.222 312.851C846.972 370.851 876.672 442.541 881.092 520.151C881.272 523.301 878.862 526.001 875.712 526.181C875.602 526.181 875.492 526.181 875.382 526.181L875.372 526.191Z" fill="black"/>
<path d="M790.952 769.062C789.592 769.062 788.242 768.582 787.152 767.612C784.792 765.512 784.592 761.892 786.692 759.542C836.702 703.492 865.402 634.212 869.672 559.202C869.852 556.052 872.542 553.642 875.702 553.822C878.852 554.002 881.262 556.702 881.082 559.852C876.662 637.472 846.972 709.152 795.212 767.152C794.082 768.422 792.512 769.062 790.942 769.062H790.952Z" fill="black"/>
<path d="M204.622 526.191C204.512 526.191 204.402 526.191 204.292 526.191C201.142 526.011 198.732 523.311 198.912 520.161C203.332 442.541 233.022 370.861 284.782 312.861C286.882 310.501 290.502 310.301 292.852 312.401C295.212 314.501 295.412 318.121 293.312 320.471C243.302 376.521 214.602 445.801 210.332 520.811C210.162 523.851 207.642 526.201 204.632 526.201L204.622 526.191Z" fill="black"/>
<path d="M289.042 769.061C287.472 769.061 285.902 768.411 284.772 767.151C233.022 709.151 203.322 637.461 198.902 559.851C198.722 556.701 201.132 554.001 204.282 553.821C207.442 553.631 210.132 556.051 210.312 559.201C214.582 634.211 243.282 703.491 293.292 759.541C295.392 761.901 295.192 765.511 292.832 767.611C291.742 768.581 290.382 769.061 289.032 769.061H289.042Z" fill="black"/>
<path d="M763.342 294.762C761.982 294.762 760.632 294.282 759.542 293.312C703.492 243.302 634.212 214.602 559.202 210.332C556.052 210.152 553.642 207.452 553.822 204.302C554.002 201.152 556.692 198.742 559.852 198.922C637.472 203.342 709.152 233.032 767.152 284.792C769.512 286.892 769.712 290.512 767.612 292.862C766.482 294.132 764.912 294.772 763.342 294.772V294.762Z" fill="black"/>
<path d="M316.651 294.761C315.081 294.761 313.511 294.111 312.381 292.851C310.281 290.491 310.481 286.881 312.841 284.781C370.841 233.031 442.531 203.331 520.141 198.911C523.291 198.721 525.991 201.141 526.171 204.291C526.351 207.441 523.941 210.141 520.791 210.321C445.781 214.591 376.511 243.291 320.451 293.301C319.361 294.271 318.001 294.751 316.651 294.751V294.761Z" fill="black"/>
<path d="M559.522 881.102C556.512 881.102 553.992 878.752 553.822 875.712C553.642 872.562 556.052 869.862 559.202 869.682C634.212 865.412 703.482 836.712 759.542 786.702C761.892 784.602 765.512 784.802 767.612 787.162C769.712 789.522 769.512 793.132 767.152 795.232C709.152 846.982 637.462 876.682 559.852 881.102C559.742 881.102 559.632 881.102 559.522 881.102Z" fill="black"/>
<path d="M520.481 881.102C520.371 881.102 520.261 881.102 520.151 881.102C442.531 876.682 370.851 846.992 312.851 795.232C310.491 793.132 310.291 789.512 312.391 787.162C314.491 784.802 318.111 784.602 320.461 786.702C376.511 836.722 445.791 865.412 520.801 869.682C523.951 869.862 526.361 872.562 526.181 875.712C526.011 878.752 523.491 881.102 520.481 881.102Z" fill="black"/>
<path d="M841.841 526.51C839.691 526.51 837.891 524.83 837.771 522.66C833.911 454.91 807.991 392.34 762.821 341.71C761.321 340.03 761.471 337.45 763.151 335.94C764.831 334.44 767.411 334.58 768.921 336.27C815.341 388.29 841.971 452.58 845.931 522.19C846.061 524.44 844.341 526.37 842.081 526.5C842.001 526.5 841.921 526.5 841.841 526.5V526.51Z" fill="black"/>
<path d="M765.862 745.101C764.892 745.101 763.922 744.761 763.142 744.061C761.462 742.561 761.312 739.981 762.812 738.291C807.982 687.661 833.902 625.091 837.762 557.341C837.892 555.091 839.852 553.391 842.072 553.491C844.322 553.621 846.042 555.551 845.922 557.801C841.952 627.411 815.322 691.701 768.912 743.721C768.102 744.621 766.982 745.081 765.862 745.081V745.101Z" fill="black"/>
<path d="M238.162 526.51C238.082 526.51 238.002 526.51 237.922 526.51C235.672 526.38 233.952 524.45 234.072 522.2C238.042 452.59 264.672 388.3 311.082 336.28C312.582 334.6 315.162 334.45 316.852 335.95C318.532 337.45 318.682 340.03 317.182 341.72C272.012 392.35 246.092 454.92 242.232 522.67C242.112 524.84 240.312 526.52 238.162 526.52V526.51Z" fill="black"/>
<path d="M314.131 745.101C313.011 745.101 311.891 744.641 311.081 743.741C264.661 691.721 238.031 627.431 234.071 557.821C233.941 555.571 235.661 553.641 237.921 553.511C240.161 553.401 242.101 555.101 242.231 557.361C246.091 625.111 272.011 687.681 317.181 738.311C318.681 739.991 318.531 742.571 316.851 744.081C316.071 744.771 315.101 745.121 314.131 745.121V745.101Z" fill="black"/>
<path d="M741.01 318.219C740.04 318.219 739.07 317.879 738.29 317.179C687.66 272.009 625.09 246.089 557.34 242.229C555.09 242.099 553.37 240.169 553.49 237.919C553.62 235.669 555.54 233.959 557.8 234.069C627.41 238.039 691.7 264.669 743.73 311.079C745.41 312.579 745.56 315.159 744.06 316.849C743.25 317.749 742.13 318.209 741.01 318.209V318.219Z" fill="black"/>
<path d="M338.991 318.22C337.871 318.22 336.751 317.76 335.941 316.86C334.441 315.18 334.591 312.6 336.271 311.09C388.291 264.67 452.581 238.04 522.191 234.08C524.441 233.96 526.371 235.67 526.501 237.93C526.631 240.18 524.91 242.11 522.65 242.24C454.9 246.1 392.331 272.02 341.701 317.19C340.921 317.88 339.951 318.23 338.981 318.23L338.991 318.22Z" fill="black"/>
<path d="M557.561 845.929C555.411 845.929 553.611 844.249 553.491 842.079C553.361 839.829 555.081 837.899 557.341 837.769C625.091 833.909 687.661 807.989 738.291 762.819C739.971 761.319 742.551 761.469 744.061 763.149C745.561 764.829 745.411 767.409 743.731 768.919C691.711 815.339 627.421 841.969 557.801 845.929C557.721 845.929 557.641 845.929 557.561 845.929Z" fill="black"/>
<path d="M522.431 845.929C522.351 845.929 522.271 845.929 522.191 845.929C452.581 841.959 388.291 815.329 336.271 768.919C334.591 767.419 334.441 764.839 335.941 763.149C337.441 761.469 340.021 761.319 341.711 762.819C392.341 807.989 454.911 833.909 522.661 837.769C524.911 837.899 526.631 839.829 526.511 842.079C526.391 844.249 524.591 845.929 522.441 845.929H522.431Z" fill="black"/>
<path d="M320.642 546.17C320.642 544.6 321.782 543.27 323.332 543.02C324.632 542.81 326.262 542.52 327.972 542.12C332.392 541.08 337.582 539.11 343.402 536.27C349.282 533.4 354.912 529.41 359.162 523.67C366.332 513.97 367.852 501.4 368.182 496.89C368.252 495.97 367.522 495.19 366.592 495.19H317.082C315.322 495.19 313.902 493.76 313.902 492.01V470.69C313.902 468.93 315.332 467.51 317.082 467.51H367.062C367.942 467.51 368.652 466.8 368.652 465.92V447.18C368.652 446.3 367.942 445.59 367.062 445.59H328.612C326.852 445.59 325.432 444.16 325.432 442.41V421.09C325.432 419.33 326.862 417.91 328.612 417.91H428.952C430.712 417.91 432.132 419.34 432.132 421.09V442.41C432.132 444.17 430.702 445.59 428.952 445.59H398.512C397.632 445.59 396.922 446.3 396.922 447.18V465.92C396.922 466.8 397.632 467.51 398.512 467.51H438.572C440.332 467.51 441.752 468.94 441.752 470.69V492.01C441.752 493.77 440.322 495.19 438.572 495.19H398.382C397.532 495.19 396.832 495.86 396.792 496.71C396.562 501.75 395.142 518.44 386.172 532.85C380.722 541.61 373.642 548.26 366.532 553.54C359.402 558.84 352.252 562.93 345.262 565.7C338.232 568.49 332.332 570.44 327.742 571.51C326.652 571.76 325.482 571.99 324.392 572.18C322.442 572.53 320.652 571.03 320.652 569.04V546.16L320.642 546.17Z" fill="black"/>
<path d="M474.542 546.52C474.542 545.06 475.542 543.79 476.952 543.43C485.202 541.36 488.922 540.11 496.832 536.32C496.832 536.32 500.882 534.21 504.922 531.3C517.102 522.54 525.212 510.63 525.212 510.63C534.672 497.28 537.762 474.91 538.482 468.49C538.592 467.55 537.852 466.72 536.902 466.72H500.572C500.342 466.72 500.132 466.84 500.022 467.04L499.872 467.29C494.292 478.11 486.872 487.99 480.442 494.24C473.992 500.5 468.582 505.05 464.372 507.75L461.772 509.42C460.712 510.1 459.322 509.34 459.322 508.08V479.89C459.322 478.95 459.742 478.06 460.462 477.45C461.112 476.9 461.982 476.13 463.172 475.06C465.932 472.57 469.042 468.51 472.412 462.98C475.752 457.51 479.342 450.21 483.062 441.29C486.442 433.2 488.972 423.09 490.852 412.06C491.112 410.53 492.442 409.42 493.992 409.42H513.902C515.902 409.42 517.412 411.25 517.032 413.21C516.392 416.52 515.702 420.88 514.842 424.31C513.572 429.39 512.752 432.3 511.232 436.72C510.972 437.47 511.532 438.24 512.322 438.24H591.172C592.932 438.24 594.352 439.67 594.352 441.42V463.51C594.352 465.27 592.922 466.69 591.172 466.69H568.132C567.322 466.69 566.632 467.3 566.552 468.11C565.922 474.01 562.872 497.16 552.382 517.26C538.282 546 508.132 566.39 478.332 572.13C476.372 572.51 474.552 571 474.552 569V546.48L474.542 546.52Z" fill="black"/>
<path d="M675.893 411.029V468.869C675.893 469.749 676.603 470.459 677.483 470.459H764.513C765.393 470.459 766.103 469.749 766.103 468.869V411.029C766.103 410.149 765.393 409.439 764.513 409.439H677.483C676.603 409.439 675.893 410.149 675.893 411.029ZM738.453 452.739H702.293C701.413 452.739 700.703 452.029 700.703 451.149V446.869C700.703 445.989 701.413 445.279 702.293 445.279H738.453C739.333 445.279 740.043 445.989 740.043 446.869V451.149C740.043 452.029 739.333 452.739 738.453 452.739ZM738.453 434.449H702.293C701.413 434.449 700.703 433.739 700.703 432.859V428.749C700.703 427.869 701.413 427.159 702.293 427.159H738.453C739.333 427.159 740.043 427.869 740.043 428.749V432.859C740.043 433.739 739.333 434.449 738.453 434.449Z" fill="black"/>
<path d="M674.222 497.34H728.262C729.142 497.34 729.852 498.05 729.852 498.93V502.84C729.852 503.72 729.142 504.43 728.262 504.43H667.752C665.992 504.43 664.572 505.86 664.572 507.61V522.86C664.572 524.62 666.002 526.04 667.752 526.04H728.262C729.142 526.04 729.852 526.75 729.852 527.63V545.39C729.852 546.11 729.932 547.98 729.212 548.85C728.382 549.87 727.142 549.67 725.842 549.72C722.532 549.72 719.572 549.7 716.942 549.66C716.542 549.66 716.252 549.29 716.332 548.9C716.592 547.63 716.722 546.31 716.692 544.96C716.492 535.68 708.932 528.08 699.652 527.84C689.572 527.58 681.362 535.85 681.702 545.94C682.012 555.29 689.782 562.81 699.142 562.84C704.032 562.85 708.452 560.86 711.632 557.64C711.972 557.3 712.542 557.43 712.692 557.88C714.152 562.21 715.532 566.34 716.782 570.05C717.222 571.35 718.452 572.22 719.822 572.21C725.722 572.17 730.502 571.96 734.172 571.6C738.302 571.18 742.082 570.15 745.512 568.5C749.172 566.84 751.682 564.42 753.042 561.23C754.402 558.04 755.082 553.55 755.082 547.76V527.62C755.082 526.74 755.792 526.03 756.672 526.03H762.902C764.662 526.03 766.082 524.6 766.082 522.85V507.6C766.082 505.84 764.652 504.42 762.902 504.42H756.672C755.792 504.42 755.082 503.71 755.082 502.83V498.92C755.082 498.04 755.792 497.33 756.672 497.33H762.902C764.662 497.33 766.082 495.9 766.082 494.15V479.6C766.082 477.84 764.652 476.42 762.902 476.42H674.202C672.442 476.42 671.022 477.85 671.022 479.6V494.15C671.022 495.91 672.452 497.33 674.202 497.33L674.222 497.34Z" fill="black"/>
<path d="M668.822 409.439H650.252C649.392 409.439 648.572 409.789 647.972 410.399C635.222 423.349 618.282 434.569 612.122 438.479C610.772 439.329 610.272 441.059 610.942 442.499L620.692 463.569C621.622 465.569 624.252 466.049 625.822 464.499C646.112 444.459 664.442 419.799 670.112 411.959C670.872 410.909 670.112 409.439 668.822 409.439Z" fill="black"/>
<path d="M671.912 453.889V435.409C671.912 433.999 670.212 433.289 669.202 434.279C653.632 449.599 620.042 477.059 611.672 483.859C610.542 484.779 610.182 486.349 610.792 487.669L620.692 509.049C621.622 511.049 624.252 511.529 625.822 509.979C627.532 508.289 629.232 506.559 630.912 504.819C631.312 504.409 632.012 504.689 632.012 505.259V569.059C632.012 570.819 633.442 572.239 635.192 572.239H653.812C655.572 572.239 656.992 570.809 656.992 569.059V476.369C656.992 475.299 657.352 474.249 658.022 473.409C664.862 464.729 669.712 458.019 671.332 455.739C671.712 455.199 671.922 454.559 671.922 453.889H671.912Z" fill="black"/>
<path d="M653.263 623.33C640.843 623.33 634.803 628.28 634.803 638.47V655.6C634.803 665.67 640.843 670.56 653.263 670.56C659.133 670.56 663.473 669.48 666.553 667.27C669.993 664.8 671.733 660.87 671.733 655.59V638.46C671.733 628.27 665.693 623.32 653.273 623.32L653.263 623.33ZM646.083 639.3C646.083 633.93 648.833 632.91 653.263 632.91C657.693 632.91 660.443 633.95 660.443 639.3V654.68C660.443 659.95 657.593 660.98 653.263 660.98C648.933 660.98 646.083 659.98 646.083 654.68V639.3Z" fill="black"/>
<path d="M708.262 669.331H721.352L703.622 646.781L720.552 624.8H707.392L694.052 642.281V610.23H682.762V669.331H694.052V659.211L696.942 655.451L708.262 669.331Z" fill="black"/>
<path d="M754.812 624.801V653.291C754.812 659.041 751.872 660.891 746.822 660.891C743.552 660.891 740.272 660.351 740.272 653.881V624.811H728.992V656.771C728.992 665.741 733.702 670.481 742.612 670.481C749.292 670.481 753.872 666.861 755.572 662.801L757.382 669.341H766.102V624.811H754.822L754.812 624.801Z" fill="black"/>
<path d="M630.563 610.23H589.143V620.141V620.151H604.213V669.331H615.683V620.151H630.563V610.23Z" fill="black"/>
<path d="M459.681 669.331H472.771L455.041 646.781L471.971 624.8H458.811L445.471 642.281V610.23H434.191V669.331H445.471V659.211L448.361 655.451L459.681 669.331Z" fill="black"/>
<path d="M355.322 610.23H313.902V620.141V620.151H328.982V669.331H340.442V620.151H355.322V610.23Z" fill="black"/>
<path d="M421.792 658.89L421.192 659.04C417.612 659.96 413.282 660.89 409.402 660.89C404.852 660.89 401.682 658.82 401.682 652.83V640.97C401.682 634.9 404.852 632.82 409.402 632.82C413.352 632.82 417.872 633.7 421.222 634.4L421.802 634.52V625.19L421.492 625.12C417.682 624.23 412.042 623.33 407.522 623.33C402.002 623.33 397.962 624.4 395.162 626.59C391.962 629.09 390.412 633.85 390.412 639.34V654.64C390.412 664.77 396.012 670.56 407.532 670.56C411.402 670.56 417.262 669.49 421.522 668.31L421.812 668.23V658.88L421.792 658.89Z" fill="black"/>
<path d="M553.922 634.699V624.799H543.682V615.189H532.402V624.799H525.172V634.699H532.402V655.419C532.402 667.939 540.292 670.559 546.922 670.559C548.702 670.559 550.502 670.449 552.112 670.219V660.259C551.462 660.329 550.252 660.359 549.532 660.359C546.452 660.359 543.682 659.729 543.682 652.089V634.689H553.922V634.699Z" fill="black"/>
<path d="M489.733 650.741V650.561H515.163V641.481C515.163 635.571 513.543 630.241 510.353 627.341C507.413 624.671 502.773 623.311 497.253 623.311C485.073 623.311 478.453 629.221 478.453 639.591V654.451C478.453 664.701 483.833 670.551 496.313 670.551C500.973 670.551 506.283 669.561 511.963 668.401L512.353 668.321V659.051L511.703 659.201C507.133 660.251 504.613 661.141 500.283 661.141C494.073 661.141 489.733 658.621 489.733 652.201V650.721V650.741ZM489.733 639.721C489.733 634.071 493.793 632.741 497.163 632.741C500.533 632.741 504.063 634.071 504.063 639.721V643.231H489.733V642.711V639.721Z" fill="black"/>
<path d="M378.173 626.881H366.893V669.331H378.173V626.881Z" fill="black"/>
<path d="M372.532 622.22C376.415 622.22 379.562 619.073 379.562 615.19C379.562 611.308 376.415 608.16 372.532 608.16C368.649 608.16 365.502 611.308 365.502 615.19C365.502 619.073 368.649 622.22 372.532 622.22Z" fill="black"/>
<path d="M585.733 643.92H566.143V651.26H585.733V643.92Z" fill="black"/>
<path d="M759.528 1548.83V1573.03C759.528 1581.62 759.77 1585.85 760.496 1590.45H742.467C743.193 1586.34 743.435 1581.26 743.435 1573.27V1509.5C743.435 1502.85 743.193 1499.34 742.467 1493.77C747.428 1494.02 750.453 1494.14 757.834 1494.14H791.714C799.337 1494.14 803.209 1493.89 808.291 1493.29V1509.62C803.935 1509.02 799.458 1508.78 791.714 1508.78H759.528V1534.43H785.422C792.924 1534.43 797.159 1534.19 801.878 1533.58V1549.68C797.401 1549.07 792.803 1548.83 785.422 1548.83H759.528Z" fill="black"/>
<path d="M681.657 1548.83V1573.03C681.657 1581.62 681.899 1585.85 682.625 1590.45H664.596C665.322 1586.34 665.564 1581.26 665.564 1573.27V1509.5C665.564 1502.85 665.322 1499.34 664.596 1493.77C669.557 1494.02 672.582 1494.14 679.963 1494.14H713.843C721.466 1494.14 725.338 1493.89 730.42 1493.29V1509.62C726.064 1509.02 721.587 1508.78 713.843 1508.78H681.657V1534.43H707.551C715.053 1534.43 719.288 1534.19 724.007 1533.58V1549.68C719.53 1549.07 714.932 1548.83 707.551 1548.83H681.657Z" fill="black"/>
<path d="M605.078 1492.2C618.388 1492.2 628.673 1496.07 636.901 1504.3C645.734 1513.13 650.453 1526.32 650.453 1542.05C650.453 1572.66 632.666 1592.51 605.199 1592.51C577.732 1592.51 560.066 1572.79 560.066 1542.05C560.066 1526.44 564.906 1513.01 573.86 1504.3C582.209 1496.07 592.252 1492.2 605.078 1492.2ZM605.441 1578.11C622.744 1578.11 633.513 1564.32 633.513 1542.05C633.513 1529.83 630.125 1520.03 623.954 1513.86C618.993 1509.02 612.58 1506.48 605.32 1506.48C587.896 1506.48 576.885 1520.27 576.885 1542.17C576.885 1554.27 580.394 1564.44 586.686 1570.73C591.647 1575.57 598.06 1578.11 605.441 1578.11Z" fill="black"/>
<path d="M457.025 1588.64L533.134 1491.23L539.426 1496.07L463.196 1593.6L457.025 1588.64ZM526.721 1592.39C519.945 1592.39 514.379 1590.33 510.265 1586.22C505.667 1581.74 503.247 1574.48 503.247 1565.28C503.247 1556.21 505.667 1549.07 510.265 1544.47C514.379 1540.48 520.066 1538.3 526.721 1538.3C533.376 1538.3 539.063 1540.48 543.056 1544.47C547.654 1548.95 550.074 1556.21 550.074 1565.28C550.074 1574.48 547.654 1581.74 543.056 1586.22C538.942 1590.33 533.376 1592.39 526.721 1592.39ZM526.721 1548.59C523.212 1548.59 520.913 1549.68 518.977 1552.46C516.799 1555.48 515.71 1559.6 515.71 1565.04C515.71 1576.17 519.582 1582.22 526.721 1582.22C533.981 1582.22 537.732 1576.17 537.732 1564.44C537.732 1559.6 536.522 1555.24 534.465 1552.34C532.408 1549.68 530.23 1548.59 526.721 1548.59ZM469.73 1546.41C462.954 1546.41 457.388 1544.35 453.274 1540.24C448.676 1535.76 446.256 1528.38 446.256 1519.3C446.256 1502.36 454.968 1492.32 469.73 1492.32C476.385 1492.32 482.072 1494.5 486.065 1498.49C490.663 1502.97 493.083 1510.23 493.083 1519.3C493.083 1528.5 490.663 1535.76 486.065 1540.24C481.951 1544.35 476.385 1546.41 469.73 1546.41ZM469.73 1502.61C462.712 1502.61 458.719 1508.54 458.719 1519.06C458.719 1530.19 462.591 1536.24 469.73 1536.24C476.748 1536.24 480.741 1530.19 480.741 1519.3C480.741 1514.95 479.894 1510.59 478.563 1508.05C476.506 1504.3 473.723 1502.61 469.73 1502.61Z" fill="black"/>
<path d="M398.351 1592.39C388.066 1592.39 379.354 1589 372.941 1582.59C369.311 1578.96 366.528 1574.72 364.955 1570.37C361.809 1561.77 360.236 1552.34 360.236 1542.54C360.236 1529.71 363.14 1516.4 367.617 1509.02C374.151 1498.13 385.041 1492.2 398.472 1492.2C408.757 1492.2 417.59 1495.59 424.003 1502C427.633 1505.63 430.416 1509.87 431.989 1514.22C435.135 1522.69 436.708 1532.37 436.708 1542.29C436.708 1557.18 433.441 1570.24 427.754 1578.11C420.978 1587.55 410.935 1592.39 398.351 1592.39ZM398.472 1578.35C403.796 1578.35 408.515 1576.54 411.54 1573.27C416.985 1567.58 420.01 1556.33 420.01 1542.17C420.01 1528.14 416.985 1517.13 411.54 1511.2C408.636 1507.93 403.796 1506.11 398.351 1506.11C392.543 1506.11 388.308 1508.05 384.799 1512.29C379.475 1518.58 376.813 1528.5 376.813 1541.69C376.813 1554.39 379.112 1564.92 382.984 1570.49C386.735 1575.81 391.817 1578.35 398.472 1578.35Z" fill="black"/>
<path d="M323.463 1590.45H305.192C305.918 1585.73 306.16 1581.01 306.16 1574.72V1508.05H300.352C295.875 1508.05 292.366 1508.29 287.889 1508.78V1493.41C291.64 1494.02 294.302 1494.14 299.989 1494.14H311.121C317.292 1494.14 319.107 1494.02 323.463 1493.53C322.737 1500.67 322.495 1506.24 322.495 1513.5V1574.72C322.495 1581.14 322.737 1585.49 323.463 1590.45Z" fill="black"/>
<path d="M841.299 1308.69H833.275C832.867 1316.99 831.983 1322.36 830.283 1327.26C828.855 1331.34 826.951 1335.01 824.367 1338.27C823.347 1339.7 822.327 1340.86 820.015 1343.37C818.179 1340.86 816.751 1339.43 814.371 1337.73C819.607 1332.83 822.327 1328.55 824.027 1322.7C825.523 1317.53 826.203 1309.92 826.203 1297.54C826.203 1291.15 826.135 1289.04 825.931 1286.8C834.295 1286.73 845.855 1284.14 851.295 1281.08L855.171 1288.02C853.947 1288.29 853.539 1288.43 852.043 1288.9C845.039 1291.08 840.619 1292.03 833.479 1293.05V1301.55H848.915C852.111 1301.55 853.539 1301.48 855.511 1301.14V1309.03C853.675 1308.76 852.111 1308.69 849.527 1308.69H848.507V1335.62C848.507 1339.16 848.575 1340.86 848.915 1342.96H840.891C841.163 1340.79 841.299 1338.88 841.299 1335.55V1308.69ZM794.175 1291.15V1283.53C796.147 1283.8 797.983 1283.87 801.519 1283.87H816.207C820.219 1283.87 821.851 1283.8 823.619 1283.53V1291.15C821.851 1290.88 820.083 1290.81 816.547 1290.81H801.111C797.983 1290.81 796.079 1290.88 794.175 1291.15ZM821.647 1302.03V1313.72C821.647 1316.72 821.647 1317.46 821.783 1319.16C821.103 1319.16 818.859 1319.1 815.119 1319.03H803.831C803.287 1330.38 801.791 1336.23 797.779 1343.24C795.739 1340.72 794.243 1339.43 791.727 1337.86C795.943 1330.66 797.099 1323.72 797.099 1305.36C797.099 1300.8 797.031 1298.42 796.759 1295.91C799.003 1296.04 800.703 1296.11 803.967 1296.11H814.983C818.111 1296.11 819.743 1296.04 821.851 1295.91C821.715 1297.34 821.647 1299.38 821.647 1302.03ZM803.967 1312.57H814.643V1302.5H804.035V1307.4C804.035 1309.98 804.035 1310.6 803.967 1312.57Z" fill="black"/>
<path d="M736.171 1291.01L736.579 1302.98C740.591 1301.89 742.631 1301.28 745.691 1300.19C744.535 1298.15 743.855 1297.13 742.087 1294.62L747.867 1292.37C751.471 1297.34 752.627 1299.31 755.007 1304.34C760.447 1300.67 762.487 1297.27 763.167 1290.67H761.059C758.611 1290.67 757.047 1290.74 755.823 1291.01V1283.74C757.455 1283.94 759.563 1284.08 762.759 1284.08H779.487C782.207 1284.08 783.975 1284.01 785.403 1283.87C785.335 1284.62 785.267 1284.89 785.199 1286.12C784.043 1302.44 783.431 1306.31 781.731 1308.42C780.235 1310.26 777.923 1310.94 773.435 1310.94C772.007 1310.94 770.375 1310.87 767.995 1310.66C767.859 1308.62 767.383 1306.45 766.635 1304.14C769.559 1304.75 771.191 1304.95 773.027 1304.95C774.863 1304.95 775.679 1304.54 776.087 1303.39C776.903 1301.28 777.379 1297.13 777.583 1290.67H770.035C769.287 1296.32 768.335 1299.31 766.091 1302.98C763.915 1306.58 760.719 1309.51 756.299 1312.16C755.619 1310.53 755.347 1310.12 753.783 1307.94L749.771 1309.64C749.023 1307.67 748.887 1307.33 748.343 1305.84C742.563 1308.08 739.775 1308.96 728.555 1312.16C728.079 1312.3 727.807 1312.36 726.515 1312.84L724.951 1305.36C726.719 1305.22 727.807 1305.09 729.643 1304.68L729.099 1290.4C728.963 1288.29 728.895 1286.93 728.691 1285.3C734.199 1284.96 741.339 1283.6 746.779 1281.76C748.139 1281.36 748.819 1281.02 749.975 1280.27L755.007 1286.52C743.787 1289.65 741.883 1290.13 736.171 1291.01ZM738.279 1313.04H773.707C776.903 1313.04 778.535 1312.98 780.439 1312.77C780.235 1314.47 780.167 1316.38 780.167 1319.57V1336.23C780.167 1338.95 780.235 1341.13 780.507 1343.37H772.891V1340.58H739.163V1343.37H731.751C732.023 1341.26 732.159 1338.95 732.159 1336.23V1319.57C732.159 1316.51 732.091 1314.74 731.887 1312.77C733.859 1312.98 735.287 1313.04 738.279 1313.04ZM739.231 1318.69V1323.86H752.219V1318.69H739.231ZM759.223 1318.69V1323.86H773.027V1318.69H759.223ZM739.231 1329.43V1334.74H752.219V1329.43H739.231ZM759.223 1329.43V1334.74H773.027V1329.43H759.223Z" fill="black"/>
<path d="M693.126 1307.88L691.766 1308.56V1316.51C691.766 1318.76 691.086 1320.18 689.658 1320.93C688.57 1321.61 687.006 1321.82 683.81 1321.82C681.158 1321.82 680.478 1321.82 677.622 1321.61C677.418 1318.96 677.01 1317.53 676.058 1315.42C678.574 1315.9 680.954 1316.17 683.13 1316.17C684.49 1316.17 684.898 1315.9 684.898 1314.88V1308.56C684.898 1307.6 684.83 1306.65 684.694 1305.22H687.142C690.95 1303.59 692.038 1302.98 694.826 1301.21H674.97C671.978 1301.21 670.346 1301.28 668.51 1301.48V1295.16C670.618 1295.43 672.386 1295.5 675.446 1295.5H695.914C698.838 1295.5 700.334 1295.43 701.626 1295.3L705.298 1299.44C704.278 1300.26 704.278 1300.26 701.286 1302.71C700.47 1303.39 699.586 1304 698.362 1304.88C699.518 1306.45 699.926 1306.92 701.354 1308.28C704.958 1305.84 708.086 1302.78 710.126 1299.92L716.178 1304.14C712.03 1308.08 709.514 1310.12 706.318 1312.3C710.058 1314.88 714.002 1316.72 719.442 1318.48C717.878 1320.73 717.062 1322.36 715.906 1325.42C707.95 1321.88 704.414 1319.78 699.926 1315.7C697.07 1313.18 695.302 1311.07 693.126 1307.88ZM673.61 1285.03V1284.48C673.61 1282.99 673.542 1282.17 673.338 1280.81H680.886C680.682 1282.04 680.614 1282.99 680.614 1284.48V1285.03H694.622V1284.48C694.622 1283.12 694.554 1281.97 694.35 1280.81H701.898C701.694 1281.97 701.626 1282.99 701.626 1284.48V1285.03H710.398C713.934 1285.03 716.246 1284.89 718.49 1284.62V1291.76C716.246 1291.49 713.662 1291.35 710.398 1291.35H701.626C701.694 1292.51 701.694 1293.19 701.898 1294.41H694.486C694.622 1293.46 694.622 1292.85 694.622 1291.35H680.614C680.682 1293.19 680.682 1293.32 680.818 1294.41H673.406C673.542 1293.26 673.61 1292.64 673.61 1291.35H665.314C661.914 1291.35 659.602 1291.49 657.426 1291.76V1284.62C659.534 1284.89 661.846 1285.03 665.314 1285.03H673.61ZM709.99 1322.84V1329.3C714.206 1333.85 716.178 1336.3 718.694 1340.11L712.098 1343.98C709.446 1339.09 707.542 1336.37 703.87 1332.02L708.766 1329.3C706.794 1329.16 705.23 1329.09 702.646 1329.09H672.862C669.598 1329.09 667.558 1329.23 665.518 1329.5V1323.24C663.546 1324.33 662.73 1324.74 660.418 1325.83C659.398 1323.45 658.31 1321.75 656.542 1319.84C664.362 1317.12 668.714 1314.34 672.794 1309.51H665.246C662.798 1309.51 661.098 1309.58 659.466 1309.78V1303.39C661.438 1303.66 663.274 1303.73 665.722 1303.73H672.182C674.698 1303.73 675.99 1303.66 677.282 1303.52L681.838 1307.67C681.158 1308.42 681.158 1308.49 680.138 1310.12C679.05 1311.68 676.398 1314.81 674.63 1316.65C672.046 1319.23 669.802 1320.86 666.13 1322.9C667.626 1323.11 669.87 1323.18 672.25 1323.18H703.19C706.114 1323.18 708.154 1323.11 709.99 1322.84ZM662.322 1344.26L656.338 1339.63C660.622 1336.3 662.662 1333.92 664.838 1329.98L671.094 1332.63C668.51 1337.46 666.674 1339.9 662.322 1344.26ZM684.558 1342.96L677.146 1343.64C677.01 1338.75 676.602 1335.62 675.786 1331.81L682.586 1331.06C683.538 1334.53 684.218 1338.48 684.558 1342.96ZM700.402 1342.01L692.99 1343.64C692.038 1338.95 691.154 1336.1 689.386 1332.02L695.982 1330.52C698.022 1334.67 699.042 1337.46 700.402 1342.01Z" fill="black"/>
<path d="M598.878 1308.15V1334.87C598.878 1338.95 599.014 1341.33 599.286 1343.24H591.262C591.534 1341.06 591.67 1338.68 591.67 1334.8V1290.26C591.67 1286.66 591.602 1284.76 591.398 1282.58C593.37 1282.78 594.934 1282.85 598.334 1282.85H610.37C613.906 1282.85 615.47 1282.78 617.306 1282.58C617.17 1284.48 617.102 1286.25 617.102 1288.9V1302.23C617.102 1305.43 617.17 1306.79 617.306 1308.28C615.674 1308.22 613.43 1308.15 611.05 1308.15H598.878ZM598.878 1288.77V1293.12H610.438V1288.77H598.878ZM598.878 1298.42V1302.71H610.438V1298.42H598.878ZM648.11 1290.2V1334.8C648.11 1341.33 646.274 1342.56 636.482 1342.56C635.258 1342.56 633.694 1342.49 630.906 1342.42C630.498 1339.16 630.022 1337.25 629.07 1335.01C632.47 1335.42 635.19 1335.62 638.25 1335.62C640.358 1335.62 640.834 1335.35 640.834 1333.92V1308.22H628.05C625.602 1308.22 623.222 1308.28 621.794 1308.42C621.93 1306.86 621.998 1305.16 621.998 1302.23V1288.9C621.998 1286.59 621.93 1284.69 621.794 1282.58C623.766 1282.78 625.194 1282.85 628.73 1282.85H641.378C644.846 1282.85 646.41 1282.78 648.45 1282.58C648.178 1284.96 648.11 1286.8 648.11 1290.2ZM628.798 1288.77V1293.12H640.834V1288.77H628.798ZM628.798 1298.42V1302.71H640.834V1298.42H628.798Z" fill="black"/>
<path d="M566.239 1284.35L575.623 1287.54C574.875 1288.97 574.875 1288.97 573.243 1293.39C568.551 1305.56 562.499 1315.36 554.883 1322.97C548.355 1329.43 541.691 1334.12 531.355 1339.29C529.315 1335.48 528.431 1334.26 525.303 1331.06C541.215 1324.67 551.823 1315.49 559.439 1301.62C563.043 1295.02 565.559 1288.7 566.239 1284.35Z" fill="black"/>
<path d="M476.683 1300.06H465.463V1305.22C465.463 1315.63 464.307 1325.69 462.403 1332.15C461.043 1336.91 459.479 1340.04 456.895 1343.51C454.991 1340.86 453.291 1339.09 451.115 1337.39C456.487 1330.04 457.983 1322.36 457.983 1302.16C457.983 1298.29 457.915 1296.11 457.643 1293.46C460.159 1293.73 462.063 1293.8 465.191 1293.8H478.247V1285.91C478.247 1283.87 478.111 1282.31 477.839 1280.47H486.203C485.931 1281.7 485.863 1282.51 485.863 1284.48H499.463C502.795 1284.48 505.107 1284.35 507.283 1284.08V1290.88C505.175 1290.6 503.271 1290.54 499.667 1290.54H485.863V1293.8H503.067C507.283 1293.8 509.459 1293.73 510.819 1293.46L514.831 1297.74C514.559 1298.15 514.287 1298.56 513.879 1299.31C511.159 1304.34 510.071 1306.04 508.099 1308.62C506.467 1307.33 504.563 1306.31 501.707 1305.16C502.999 1303.73 504.291 1301.96 505.311 1300.06H483.823C483.823 1300.74 483.823 1300.74 483.823 1301.76V1304.75L496.131 1304.14C497.831 1304.07 499.531 1303.86 500.687 1303.66L500.755 1309.92C499.463 1309.78 499.463 1309.78 499.123 1309.78C498.171 1309.78 497.015 1309.85 496.063 1309.92L483.823 1310.46V1312.36C483.823 1313.66 484.027 1313.93 485.047 1314.13C486.339 1314.4 488.923 1314.47 493.887 1314.47C499.871 1314.47 501.571 1314.27 502.319 1313.52C502.931 1312.98 503.135 1311.62 503.135 1308.49C505.651 1309.64 507.555 1310.26 510.207 1310.73C509.799 1315.56 509.187 1317.33 507.759 1318.48C506.943 1319.16 505.787 1319.5 503.883 1319.71C500.891 1320.05 497.423 1320.18 493.955 1320.18C485.659 1320.18 480.695 1319.78 478.927 1318.96C477.363 1318.28 476.751 1317.12 476.751 1314.81V1310.87L471.719 1311.07C470.087 1311.21 468.591 1311.34 467.027 1311.55L466.959 1305.36C467.843 1305.43 468.659 1305.43 469.475 1305.43C469.815 1305.43 470.563 1305.43 471.787 1305.36L476.751 1305.09V1301.76C476.751 1301.42 476.751 1301.01 476.683 1300.06ZM475.323 1321.68L483.279 1322.36C483.143 1323.11 483.007 1323.52 482.871 1324.74C482.055 1331.13 480.287 1334.8 476.547 1338.2C473.963 1340.58 470.767 1342.35 466.279 1343.92C465.055 1341.33 464.307 1340.18 461.995 1337.32C466.007 1336.5 468.863 1335.28 471.107 1333.17C474.099 1330.45 475.391 1327.6 475.391 1323.58C475.391 1322.97 475.391 1322.36 475.323 1321.68ZM495.859 1327.8V1333.92C495.859 1335.76 496.199 1335.89 501.435 1335.89C505.175 1335.89 505.991 1335.62 506.399 1334.12C506.739 1332.9 506.875 1330.93 506.943 1326.64C509.323 1327.6 511.159 1328.07 514.219 1328.55C513.879 1335.76 513.403 1338.34 512.043 1339.97C510.411 1342.01 507.691 1342.62 500.211 1342.62C490.283 1342.62 488.447 1341.74 488.447 1336.84V1328C488.447 1325.28 488.379 1324.26 488.175 1322.36H496.199C495.927 1324.26 495.859 1325.62 495.859 1327.8Z" fill="black"/>
<path d="M389.167 1291.56V1286.25C389.167 1284.14 389.099 1282.58 388.827 1280.95H396.851C396.579 1282.58 396.511 1284.08 396.511 1286.25V1291.56H403.243C405.759 1287.95 406.711 1286.25 408.751 1281.63L415.891 1284.96C415.075 1286.05 415.075 1286.05 412.831 1289.38C412.491 1289.92 412.015 1290.54 411.199 1291.56H415.687C418.679 1291.56 420.923 1291.49 422.963 1291.28C422.759 1293.39 422.691 1295.09 422.691 1297.68V1303.59C422.691 1305.36 422.827 1306.86 423.031 1308.35H415.959V1298.02H370.943V1308.28H363.939C364.143 1306.38 364.211 1305.09 364.211 1303.39V1296.93C364.211 1294.75 364.143 1292.92 363.939 1291.28C365.911 1291.49 367.951 1291.56 370.943 1291.56H375.907C374.615 1289.31 372.779 1286.8 371.079 1284.89L377.267 1281.9C381.007 1286.66 381.415 1287.34 383.727 1291.56H389.167ZM389.235 1318.82H380.463C377.403 1318.82 375.567 1318.89 374.003 1319.1C374.139 1317.53 374.207 1316.17 374.207 1312.84V1306.92C374.207 1304.82 374.139 1303.12 374.003 1301.76C375.295 1301.89 376.791 1301.96 378.627 1301.96H408.343C410.383 1301.96 411.539 1301.89 412.763 1301.76C412.559 1303.12 412.559 1304 412.559 1307.13V1312.84C412.559 1316.85 412.559 1317.8 412.763 1319.03C410.859 1318.89 408.751 1318.82 405.963 1318.82H396.443V1323.18H411.675C414.803 1323.18 416.571 1323.11 418.543 1322.77V1329.64C416.571 1329.36 414.939 1329.3 411.675 1329.3H396.443V1335.21H416.095C419.359 1335.21 421.603 1335.08 423.643 1334.8V1342.22C421.263 1341.88 419.019 1341.74 416.095 1341.74H370.739C367.815 1341.74 365.435 1341.88 363.055 1342.22V1334.8C365.027 1335.08 367.543 1335.21 370.739 1335.21H389.235V1329.3H375.091C371.827 1329.3 370.127 1329.36 368.223 1329.64V1322.77C370.331 1323.11 372.031 1323.18 375.091 1323.18H389.235V1318.82ZM381.483 1307.94V1313.18H405.283V1307.94H381.483Z" fill="black"/>
<path d="M319.261 1323.11H311.917V1334.67C318.445 1333.65 318.989 1333.58 325.177 1332.22V1338.75C317.969 1340.45 312.665 1341.47 300.493 1343.51C299.609 1343.71 298.725 1343.85 297.365 1344.19L296.073 1336.37H296.753C296.889 1336.37 297.025 1336.37 297.093 1336.37C297.977 1336.37 302.057 1336.03 304.777 1335.69V1305.02C304.777 1304.2 304.777 1303.73 304.709 1301.96C301.513 1303.59 300.017 1304.27 296.209 1305.84C294.985 1302.3 294.645 1301.55 292.877 1298.42C304.641 1294.68 314.637 1288.36 320.621 1280.95H328.645C332.113 1285.03 335.649 1288.02 340.749 1291.08C345.781 1294.14 351.425 1296.59 357.273 1298.22C355.845 1300.53 354.825 1302.78 353.873 1305.77C350.201 1304.41 347.889 1303.32 344.897 1301.76C344.897 1302.84 344.897 1303.25 344.897 1304.2V1318.35C344.897 1319.71 344.897 1320.32 344.965 1321.41C345.509 1320.8 345.645 1320.59 346.257 1319.91L353.125 1323.58C348.841 1327.39 345.101 1330.25 341.021 1332.97C345.849 1334.8 350.133 1335.76 356.457 1336.44C354.757 1339.43 353.873 1341.4 352.989 1343.98C342.313 1341.88 335.173 1338.95 329.189 1334.19C324.701 1330.66 322.049 1327.66 319.261 1323.11ZM338.981 1323.11H327.353C329.257 1325.76 331.433 1327.8 334.425 1329.7C338.029 1327.46 340.069 1325.96 343.129 1323.18C341.633 1323.11 340.477 1323.11 338.981 1323.11ZM311.305 1298.02H321.165V1296.04C321.165 1294.14 321.097 1293.05 320.825 1291.96H328.305C328.101 1293.19 328.033 1294.14 328.033 1296.04V1298.02H338.505C332.725 1294.41 328.577 1290.94 324.701 1286.66C320.893 1291.01 316.813 1294.48 311.305 1298.02ZM311.917 1304.14V1307.54H337.757V1304.14H311.917ZM311.917 1313.32V1317.12H337.757V1313.32H311.917Z" fill="black"/>
<path d="M242.422 1289.18V1282.92C244.598 1283.26 246.502 1283.33 249.97 1283.33H280.434C283.766 1283.33 285.874 1283.19 288.05 1282.92V1290.26C285.738 1290.06 283.494 1289.92 280.774 1289.92H273.226V1295.98H279.482C282.27 1295.98 284.786 1295.84 286.078 1295.7C285.942 1297.13 285.874 1299.78 285.874 1303.25V1334.53C285.874 1338.68 285.942 1340.99 286.282 1343.3H279.006V1339.9H250.99V1343.3H243.782C244.054 1340.52 244.19 1338 244.19 1334.74V1302.78C244.19 1299.72 244.122 1297.2 243.918 1295.77C245.822 1295.91 247.318 1295.98 250.786 1295.98H256.294V1289.92H249.766C247.25 1289.92 244.802 1289.99 243.034 1290.2L238.682 1295.84C233.99 1291.22 232.086 1289.72 227.394 1286.8L232.154 1281.29C236.778 1284.21 238.75 1285.78 242.422 1289.18ZM266.766 1302.23H262.754C262.346 1311.55 260.918 1315.49 256.158 1320.59C254.322 1318.28 253.37 1317.4 250.99 1315.97V1322.43H279.006V1317.26C277.306 1317.4 276.83 1317.4 275.674 1317.4C271.866 1317.4 270.302 1317.19 268.942 1316.44C267.446 1315.63 266.766 1314.34 266.766 1312.3V1302.23ZM262.822 1295.98H266.766V1289.92H262.822V1295.98ZM256.226 1302.23H250.99V1315.36C253.03 1313.59 253.846 1312.57 254.73 1310.53C255.75 1308.15 256.022 1306.72 256.226 1302.23ZM279.006 1311.28V1302.23H273.226V1309.64C273.226 1311 273.702 1311.34 275.674 1311.34C276.15 1311.34 276.422 1311.34 279.006 1311.28ZM250.99 1328.55V1333.31H279.006V1328.55H250.99ZM225.014 1303.8L229.502 1297.95C234.874 1301.14 236.166 1302.1 241.402 1306.58L237.118 1312.98C232.154 1308.28 229.978 1306.65 225.014 1303.8ZM235.35 1317.12L241.198 1321.61C239.43 1327.26 237.934 1331 235.35 1336.5C234.466 1338.34 234.194 1338.82 233.106 1340.72C232.63 1341.67 232.562 1341.67 232.086 1342.76L225.626 1337.05C229.162 1332.76 231.882 1327.26 235.35 1317.12Z" fill="black"/>
</svg>
