<svg width="1080" height="1920" viewBox="0 0 1080 1920" fill="none" xmlns="http://www.w3.org/2000/svg">
<path d="M1080 1920L1080 0L0 0L0 1920H1080Z" fill="#A5D4AD"/>
<path d="M1020 983.72V95C1020 75.67 1004.33 60 985 60H95.58C75.93 60 60 75.93 60 95.58V983.71C60 984.03 60.25 984.28 60.57 984.28C80.03 984.59 95.71 1000.46 95.71 1019.99C95.71 1039.52 80.03 1055.39 60.57 1055.7C60.25 1055.7 60 1055.96 60 1056.27V1824.99C60 1844.32 75.67 1859.99 95 1859.99H985C1004.33 1859.99 1020 1844.32 1020 1824.99V1056.27C1020 1055.95 1019.75 1055.7 1019.43 1055.7C999.97 1055.39 984.29 1039.52 984.29 1019.99C984.29 1000.46 999.97 984.59 1019.43 984.28C1019.75 984.28 1020 984.02 1020 983.71V983.72Z" fill="white"/>
<path d="M60.57 1055.71C60.25 1055.71 60 1055.97 60 1056.28V1825C60 1844.33 75.67 1860 95 1860H985C1004.33 1860 1020 1844.33 1020 1825V1056.28C1020 1055.96 1019.75 1055.71 1019.43 1055.71C999.97 1055.4 984.29 1039.53 984.29 1020H95.71C95.71 1039.53 80.03 1055.4 60.57 1055.71Z" fill="#E5F2E6"/>
<path d="M121 1020H160.9" stroke="black" stroke-width="6" stroke-miterlimit="10"/>
<path d="M187.512 1020H227.412" stroke="black" stroke-width="6" stroke-miterlimit="10"/>
<path d="M254.02 1020H293.92" stroke="black" stroke-width="6" stroke-miterlimit="10"/>
<path d="M320.52 1020H360.43" stroke="black" stroke-width="6" stroke-miterlimit="10"/>
<path d="M387.031 1020H426.941" stroke="black" stroke-width="6" stroke-miterlimit="10"/>
<path d="M453.539 1020H493.439" stroke="black" stroke-width="6" stroke-miterlimit="10"/>
<path d="M520.051 1020H559.951" stroke="black" stroke-width="6" stroke-miterlimit="10"/>
<path d="M586.559 1020H626.459" stroke="black" stroke-width="6" stroke-miterlimit="10"/>
<path d="M653.059 1020H692.969" stroke="black" stroke-width="6" stroke-miterlimit="10"/>
<path d="M719.57 1020H759.48" stroke="black" stroke-width="6" stroke-miterlimit="10"/>
<path d="M786.078 1020H825.978" stroke="black" stroke-width="6" stroke-miterlimit="10"/>
<path d="M852.59 1020H892.49" stroke="black" stroke-width="6" stroke-miterlimit="10"/>
<path d="M919.102 1020H959.002" stroke="black" stroke-width="6" stroke-miterlimit="10"/>
<path d="M1020 984.29V95C1020 75.67 1004.33 60 985 60H95C75.67 60 60 75.67 60 95V984.29C79.72 984.29 95.71 1000.28 95.71 1020C95.71 1039.72 79.72 1055.71 60 1055.71V1825C60 1844.33 75.67 1860 95 1860H985C1004.33 1860 1020 1844.33 1020 1825V1055.71C1000.28 1055.71 984.29 1039.72 984.29 1020C984.29 1000.28 1000.28 984.29 1020 984.29Z" stroke="black" stroke-width="6" stroke-miterlimit="10"/>
<path d="M912.642 525.66C908.772 525.66 905.532 522.64 905.312 518.73C900.582 435.62 868.782 358.85 813.362 296.74C810.662 293.71 810.922 289.06 813.952 286.36C816.982 283.66 821.622 283.92 824.332 286.95C881.992 351.57 915.062 431.43 919.992 517.89C920.222 521.94 917.122 525.42 913.072 525.65C912.932 525.65 912.792 525.66 912.652 525.66H912.642Z" fill="black"/>
<path d="M818.842 795.509C817.102 795.509 815.352 794.889 813.952 793.639C810.922 790.939 810.662 786.289 813.362 783.259C868.782 721.149 900.582 644.379 905.312 561.269C905.542 557.219 909.022 554.109 913.072 554.349C917.122 554.579 920.222 558.049 919.992 562.109C915.062 648.579 881.992 728.439 824.332 793.049C822.882 794.679 820.862 795.509 818.842 795.509Z" fill="black"/>
<path d="M167.352 525.66C167.212 525.66 167.072 525.66 166.932 525.65C162.882 525.42 159.782 521.95 160.012 517.89C164.942 431.42 198.012 351.56 255.672 286.95C258.372 283.92 263.022 283.66 266.052 286.36C269.082 289.06 269.342 293.71 266.642 296.74C211.222 358.85 179.422 435.61 174.692 518.73C174.472 522.64 171.232 525.66 167.362 525.66H167.352Z" fill="black"/>
<path d="M261.162 795.509C259.142 795.509 257.122 794.679 255.672 793.049C198.012 728.429 164.942 648.569 160.012 562.109C159.782 558.059 162.882 554.579 166.932 554.349C170.982 554.109 174.462 557.219 174.692 561.269C179.422 644.389 211.222 721.149 266.642 783.259C269.342 786.289 269.082 790.939 266.052 793.639C264.652 794.889 262.902 795.509 261.162 795.509Z" fill="black"/>
<path d="M788.164 268.509C786.424 268.509 784.674 267.889 783.274 266.639C721.164 211.219 644.394 179.419 561.284 174.689C557.234 174.459 554.134 170.989 554.364 166.929C554.594 162.879 558.034 159.789 562.124 160.009C648.594 164.939 728.454 198.009 793.064 255.669C796.094 258.369 796.354 263.019 793.654 266.049C792.204 267.679 790.184 268.509 788.164 268.509Z" fill="black"/>
<path d="M291.844 268.51C289.824 268.51 287.804 267.68 286.354 266.05C283.654 263.02 283.914 258.37 286.944 255.67C351.564 198.01 431.424 164.94 517.884 160.01C521.934 159.78 525.414 162.88 525.644 166.93C525.874 170.98 522.774 174.46 518.724 174.69C435.614 179.42 358.844 211.22 296.734 266.64C295.334 267.89 293.584 268.51 291.844 268.51Z" fill="black"/>
<path d="M561.682 920C557.812 920 554.572 916.98 554.352 913.07C554.122 909.02 557.222 905.54 561.272 905.31C644.392 900.58 721.152 868.78 783.262 813.36C786.292 810.66 790.942 810.92 793.642 813.95C796.342 816.98 796.082 821.63 793.052 824.33C728.432 881.99 648.572 915.06 562.112 919.99C561.972 919.99 561.832 920 561.692 920H561.682Z" fill="black"/>
<path d="M518.312 920C518.172 920 518.032 920 517.892 919.99C431.422 915.06 351.562 881.99 286.952 824.33C283.922 821.63 283.662 816.98 286.362 813.95C289.062 810.92 293.712 810.66 296.742 813.36C358.852 868.78 435.622 900.58 518.732 905.31C522.782 905.54 525.882 909.01 525.652 913.07C525.432 916.98 522.192 920 518.322 920H518.312Z" fill="black"/>
<path d="M875.37 526.191C872.36 526.191 869.84 523.841 869.67 520.801C865.4 445.791 836.7 376.521 786.69 320.461C784.59 318.101 784.79 314.491 787.15 312.391C789.5 310.291 793.12 310.491 795.22 312.851C846.97 370.851 876.67 442.541 881.09 520.151C881.27 523.301 878.86 526.001 875.71 526.181C875.6 526.181 875.49 526.181 875.38 526.181L875.37 526.191Z" fill="black"/>
<path d="M790.95 769.062C789.59 769.062 788.24 768.582 787.15 767.612C784.79 765.512 784.59 761.892 786.69 759.542C836.7 703.492 865.4 634.212 869.67 559.202C869.85 556.052 872.54 553.642 875.7 553.822C878.85 554.002 881.26 556.702 881.08 559.852C876.66 637.472 846.97 709.152 795.21 767.152C794.08 768.422 792.51 769.062 790.94 769.062H790.95Z" fill="black"/>
<path d="M204.622 526.191C204.512 526.191 204.402 526.191 204.292 526.191C201.142 526.011 198.732 523.311 198.912 520.161C203.332 442.541 233.022 370.861 284.782 312.861C286.882 310.501 290.502 310.301 292.852 312.401C295.212 314.501 295.412 318.121 293.312 320.471C243.302 376.521 214.602 445.801 210.332 520.811C210.162 523.851 207.642 526.201 204.632 526.201L204.622 526.191Z" fill="black"/>
<path d="M289.04 769.061C287.47 769.061 285.9 768.411 284.77 767.151C233.02 709.151 203.32 637.461 198.9 559.851C198.72 556.701 201.13 554.001 204.28 553.821C207.44 553.631 210.13 556.051 210.31 559.201C214.58 634.211 243.28 703.491 293.29 759.541C295.39 761.901 295.19 765.511 292.83 767.611C291.74 768.581 290.38 769.061 289.03 769.061H289.04Z" fill="black"/>
<path d="M763.342 294.762C761.982 294.762 760.632 294.282 759.542 293.312C703.492 243.302 634.212 214.602 559.202 210.332C556.052 210.152 553.642 207.452 553.822 204.302C554.002 201.152 556.692 198.742 559.852 198.922C637.472 203.342 709.152 233.032 767.152 284.792C769.512 286.892 769.712 290.512 767.612 292.862C766.482 294.132 764.912 294.772 763.342 294.772V294.762Z" fill="black"/>
<path d="M316.651 294.761C315.081 294.761 313.511 294.111 312.381 292.851C310.281 290.491 310.481 286.881 312.841 284.781C370.841 233.031 442.531 203.331 520.141 198.911C523.291 198.721 525.991 201.141 526.171 204.291C526.351 207.441 523.941 210.141 520.791 210.321C445.781 214.591 376.511 243.291 320.451 293.301C319.361 294.271 318.001 294.751 316.651 294.751V294.761Z" fill="black"/>
<path d="M559.518 881.102C556.508 881.102 553.988 878.752 553.818 875.712C553.638 872.562 556.048 869.862 559.198 869.682C634.208 865.412 703.478 836.712 759.538 786.702C761.888 784.602 765.508 784.802 767.608 787.162C769.708 789.522 769.508 793.132 767.148 795.232C709.148 846.982 637.458 876.682 559.848 881.102C559.738 881.102 559.628 881.102 559.518 881.102Z" fill="black"/>
<path d="M520.479 881.102C520.369 881.102 520.259 881.102 520.149 881.102C442.529 876.682 370.849 846.992 312.849 795.232C310.489 793.132 310.289 789.512 312.389 787.162C314.489 784.802 318.109 784.602 320.459 786.702C376.509 836.722 445.789 865.412 520.799 869.682C523.949 869.862 526.359 872.562 526.179 875.712C526.009 878.752 523.489 881.102 520.479 881.102Z" fill="black"/>
<path d="M841.843 526.51C839.693 526.51 837.893 524.83 837.773 522.66C833.913 454.91 807.993 392.34 762.823 341.71C761.323 340.03 761.473 337.45 763.153 335.94C764.833 334.44 767.413 334.58 768.923 336.27C815.343 388.29 841.973 452.58 845.933 522.19C846.063 524.44 844.343 526.37 842.083 526.5C842.003 526.5 841.923 526.5 841.843 526.5V526.51Z" fill="black"/>
<path d="M765.862 745.101C764.892 745.101 763.922 744.761 763.142 744.061C761.462 742.561 761.312 739.981 762.812 738.291C807.982 687.661 833.902 625.091 837.762 557.341C837.892 555.091 839.852 553.391 842.072 553.491C844.322 553.621 846.042 555.551 845.922 557.801C841.952 627.411 815.322 691.701 768.912 743.721C768.102 744.621 766.982 745.081 765.862 745.081V745.101Z" fill="black"/>
<path d="M238.162 526.51C238.082 526.51 238.002 526.51 237.922 526.51C235.672 526.38 233.952 524.45 234.072 522.2C238.042 452.59 264.672 388.3 311.082 336.28C312.582 334.6 315.162 334.45 316.852 335.95C318.532 337.45 318.682 340.03 317.182 341.72C272.012 392.35 246.092 454.92 242.232 522.67C242.112 524.84 240.312 526.52 238.162 526.52V526.51Z" fill="black"/>
<path d="M314.133 745.101C313.013 745.101 311.893 744.641 311.083 743.741C264.663 691.721 238.033 627.431 234.073 557.821C233.943 555.571 235.663 553.641 237.923 553.511C240.163 553.401 242.103 555.101 242.233 557.361C246.093 625.111 272.013 687.681 317.183 738.311C318.683 739.991 318.533 742.571 316.853 744.081C316.073 744.771 315.103 745.121 314.133 745.121V745.101Z" fill="black"/>
<path d="M741.014 318.219C740.044 318.219 739.074 317.879 738.294 317.179C687.664 272.009 625.094 246.089 557.344 242.229C555.094 242.099 553.374 240.169 553.494 237.919C553.624 235.669 555.544 233.959 557.804 234.069C627.414 238.039 691.704 264.669 743.734 311.079C745.414 312.579 745.564 315.159 744.064 316.849C743.254 317.749 742.134 318.209 741.014 318.209V318.219Z" fill="black"/>
<path d="M338.994 318.22C337.874 318.22 336.754 317.76 335.944 316.86C334.444 315.18 334.594 312.6 336.274 311.09C388.294 264.67 452.584 238.04 522.194 234.08C524.444 233.96 526.374 235.67 526.504 237.93C526.634 240.18 524.914 242.11 522.654 242.24C454.904 246.1 392.334 272.02 341.704 317.19C340.924 317.88 339.954 318.23 338.984 318.23L338.994 318.22Z" fill="black"/>
<path d="M557.565 845.929C555.415 845.929 553.615 844.249 553.495 842.079C553.365 839.829 555.085 837.899 557.345 837.769C625.095 833.909 687.665 807.989 738.295 762.819C739.975 761.319 742.555 761.469 744.065 763.149C745.565 764.829 745.415 767.409 743.735 768.919C691.715 815.339 627.425 841.969 557.805 845.929C557.725 845.929 557.645 845.929 557.565 845.929Z" fill="black"/>
<path d="M522.434 845.929C522.354 845.929 522.274 845.929 522.194 845.929C452.584 841.959 388.294 815.329 336.274 768.919C334.594 767.419 334.444 764.839 335.944 763.149C337.444 761.469 340.024 761.319 341.714 762.819C392.344 807.989 454.914 833.909 522.664 837.769C524.914 837.899 526.634 839.829 526.514 842.079C526.394 844.249 524.594 845.929 522.444 845.929H522.434Z" fill="black"/>
<path d="M320.642 546.17C320.642 544.6 321.782 543.27 323.332 543.02C324.632 542.81 326.262 542.52 327.972 542.12C332.392 541.08 337.582 539.11 343.402 536.27C349.282 533.4 354.912 529.41 359.162 523.67C366.332 513.97 367.852 501.4 368.182 496.89C368.252 495.97 367.522 495.19 366.592 495.19H317.082C315.322 495.19 313.902 493.76 313.902 492.01V470.69C313.902 468.93 315.332 467.51 317.082 467.51H367.062C367.942 467.51 368.652 466.8 368.652 465.92V447.18C368.652 446.3 367.942 445.59 367.062 445.59H328.612C326.852 445.59 325.432 444.16 325.432 442.41V421.09C325.432 419.33 326.862 417.91 328.612 417.91H428.952C430.712 417.91 432.132 419.34 432.132 421.09V442.41C432.132 444.17 430.702 445.59 428.952 445.59H398.512C397.632 445.59 396.922 446.3 396.922 447.18V465.92C396.922 466.8 397.632 467.51 398.512 467.51H438.572C440.332 467.51 441.752 468.94 441.752 470.69V492.01C441.752 493.77 440.322 495.19 438.572 495.19H398.382C397.532 495.19 396.832 495.86 396.792 496.71C396.562 501.75 395.142 518.44 386.172 532.85C380.722 541.61 373.642 548.26 366.532 553.54C359.402 558.84 352.252 562.93 345.262 565.7C338.232 568.49 332.332 570.44 327.742 571.51C326.652 571.76 325.482 571.99 324.392 572.18C322.442 572.53 320.652 571.03 320.652 569.04V546.16L320.642 546.17Z" fill="black"/>
<path d="M474.544 546.52C474.544 545.06 475.544 543.79 476.954 543.43C485.204 541.36 488.924 540.11 496.834 536.32C496.834 536.32 500.884 534.21 504.924 531.3C517.104 522.54 525.214 510.63 525.214 510.63C534.674 497.28 537.764 474.91 538.484 468.49C538.594 467.55 537.854 466.72 536.904 466.72H500.574C500.344 466.72 500.134 466.84 500.024 467.04L499.874 467.29C494.294 478.11 486.874 487.99 480.444 494.24C473.994 500.5 468.584 505.05 464.374 507.75L461.774 509.42C460.714 510.1 459.324 509.34 459.324 508.08V479.89C459.324 478.95 459.744 478.06 460.464 477.45C461.114 476.9 461.984 476.13 463.174 475.06C465.934 472.57 469.044 468.51 472.414 462.98C475.754 457.51 479.344 450.21 483.064 441.29C486.444 433.2 488.974 423.09 490.854 412.06C491.114 410.53 492.444 409.42 493.994 409.42H513.904C515.904 409.42 517.414 411.25 517.034 413.21C516.394 416.52 515.704 420.88 514.844 424.31C513.574 429.39 512.754 432.3 511.234 436.72C510.974 437.47 511.534 438.24 512.324 438.24H591.174C592.934 438.24 594.354 439.67 594.354 441.42V463.51C594.354 465.27 592.924 466.69 591.174 466.69H568.134C567.324 466.69 566.634 467.3 566.554 468.11C565.924 474.01 562.874 497.16 552.384 517.26C538.284 546 508.134 566.39 478.334 572.13C476.374 572.51 474.554 571 474.554 569V546.48L474.544 546.52Z" fill="black"/>
<path d="M675.895 411.029V468.869C675.895 469.749 676.604 470.459 677.484 470.459H764.515C765.395 470.459 766.104 469.749 766.104 468.869V411.029C766.104 410.149 765.395 409.439 764.515 409.439H677.484C676.604 409.439 675.895 410.149 675.895 411.029ZM738.455 452.739H702.294C701.414 452.739 700.705 452.029 700.705 451.149V446.869C700.705 445.989 701.414 445.279 702.294 445.279H738.455C739.335 445.279 740.044 445.989 740.044 446.869V451.149C740.044 452.029 739.335 452.739 738.455 452.739ZM738.455 434.449H702.294C701.414 434.449 700.705 433.739 700.705 432.859V428.749C700.705 427.869 701.414 427.159 702.294 427.159H738.455C739.335 427.159 740.044 427.869 740.044 428.749V432.859C740.044 433.739 739.335 434.449 738.455 434.449Z" fill="black"/>
<path d="M674.224 497.34H728.264C729.144 497.34 729.854 498.05 729.854 498.93V502.84C729.854 503.72 729.144 504.43 728.264 504.43H667.754C665.994 504.43 664.574 505.86 664.574 507.61V522.86C664.574 524.62 666.004 526.04 667.754 526.04H728.264C729.144 526.04 729.854 526.75 729.854 527.63V545.39C729.854 546.11 729.934 547.98 729.214 548.85C728.384 549.87 727.144 549.67 725.844 549.72C722.534 549.72 719.574 549.7 716.944 549.66C716.544 549.66 716.254 549.29 716.334 548.9C716.594 547.63 716.724 546.31 716.694 544.96C716.494 535.68 708.934 528.08 699.654 527.84C689.574 527.58 681.364 535.85 681.704 545.94C682.014 555.29 689.784 562.81 699.144 562.84C704.034 562.85 708.454 560.86 711.634 557.64C711.974 557.3 712.544 557.43 712.694 557.88C714.154 562.21 715.534 566.34 716.784 570.05C717.224 571.35 718.454 572.22 719.824 572.21C725.724 572.17 730.504 571.96 734.174 571.6C738.304 571.18 742.084 570.15 745.514 568.5C749.174 566.84 751.684 564.42 753.044 561.23C754.404 558.04 755.084 553.55 755.084 547.76V527.62C755.084 526.74 755.794 526.03 756.674 526.03H762.904C764.664 526.03 766.084 524.6 766.084 522.85V507.6C766.084 505.84 764.654 504.42 762.904 504.42H756.674C755.794 504.42 755.084 503.71 755.084 502.83V498.92C755.084 498.04 755.794 497.33 756.674 497.33H762.904C764.664 497.33 766.084 495.9 766.084 494.15V479.6C766.084 477.84 764.654 476.42 762.904 476.42H674.204C672.444 476.42 671.024 477.85 671.024 479.6V494.15C671.024 495.91 672.454 497.33 674.204 497.33L674.224 497.34Z" fill="black"/>
<path d="M668.824 409.439H650.254C649.394 409.439 648.574 409.789 647.974 410.399C635.224 423.349 618.284 434.569 612.124 438.479C610.774 439.329 610.274 441.059 610.944 442.499L620.694 463.569C621.624 465.569 624.254 466.049 625.824 464.499C646.114 444.459 664.444 419.799 670.114 411.959C670.874 410.909 670.114 409.439 668.824 409.439Z" fill="black"/>
<path d="M671.914 453.889V435.409C671.914 433.999 670.214 433.289 669.204 434.279C653.634 449.599 620.044 477.059 611.674 483.859C610.544 484.779 610.184 486.349 610.794 487.669L620.694 509.049C621.624 511.049 624.254 511.529 625.824 509.979C627.534 508.289 629.234 506.559 630.914 504.819C631.314 504.409 632.014 504.689 632.014 505.259V569.059C632.014 570.819 633.444 572.239 635.194 572.239H653.814C655.574 572.239 656.994 570.809 656.994 569.059V476.369C656.994 475.299 657.354 474.249 658.024 473.409C664.864 464.729 669.714 458.019 671.334 455.739C671.714 455.199 671.924 454.559 671.924 453.889H671.914Z" fill="black"/>
<path d="M653.261 623.33C640.841 623.33 634.801 628.28 634.801 638.47V655.6C634.801 665.67 640.841 670.56 653.261 670.56C659.131 670.56 663.471 669.48 666.551 667.27C669.991 664.8 671.731 660.87 671.731 655.59V638.46C671.731 628.27 665.691 623.32 653.271 623.32L653.261 623.33ZM646.081 639.3C646.081 633.93 648.831 632.91 653.261 632.91C657.691 632.91 660.441 633.95 660.441 639.3V654.68C660.441 659.95 657.591 660.98 653.261 660.98C648.931 660.98 646.081 659.98 646.081 654.68V639.3Z" fill="black"/>
<path d="M708.262 669.331H721.352L703.622 646.781L720.552 624.8H707.392L694.052 642.281V610.23H682.762V669.331H694.052V659.211L696.942 655.451L708.262 669.331Z" fill="black"/>
<path d="M754.812 624.801V653.291C754.812 659.041 751.872 660.891 746.822 660.891C743.552 660.891 740.272 660.351 740.272 653.881V624.811H728.992V656.771C728.992 665.741 733.702 670.481 742.612 670.481C749.292 670.481 753.872 666.861 755.572 662.801L757.382 669.341H766.102V624.811H754.822L754.812 624.801Z" fill="black"/>
<path d="M630.561 610.23H589.141V620.141V620.151H604.211V669.331H615.681V620.151H630.561V610.23Z" fill="black"/>
<path d="M459.681 669.331H472.771L455.041 646.781L471.971 624.8H458.811L445.471 642.281V610.23H434.191V669.331H445.471V659.211L448.361 655.451L459.681 669.331Z" fill="black"/>
<path d="M355.322 610.23H313.902V620.141V620.151H328.982V669.331H340.442V620.151H355.322V610.23Z" fill="black"/>
<path d="M421.794 658.89L421.194 659.04C417.614 659.96 413.284 660.89 409.404 660.89C404.854 660.89 401.684 658.82 401.684 652.83V640.97C401.684 634.9 404.854 632.82 409.404 632.82C413.354 632.82 417.874 633.7 421.224 634.4L421.804 634.52V625.19L421.494 625.12C417.684 624.23 412.044 623.33 407.524 623.33C402.004 623.33 397.964 624.4 395.164 626.59C391.964 629.09 390.414 633.85 390.414 639.34V654.64C390.414 664.77 396.014 670.56 407.534 670.56C411.404 670.56 417.264 669.49 421.524 668.31L421.814 668.23V658.88L421.794 658.89Z" fill="black"/>
<path d="M553.922 634.699V624.799H543.682V615.189H532.402V624.799H525.172V634.699H532.402V655.419C532.402 667.939 540.292 670.559 546.922 670.559C548.702 670.559 550.502 670.449 552.112 670.219V660.259C551.462 660.329 550.252 660.359 549.532 660.359C546.452 660.359 543.682 659.729 543.682 652.089V634.689H553.922V634.699Z" fill="black"/>
<path d="M489.733 650.741V650.561H515.163V641.481C515.163 635.571 513.543 630.241 510.353 627.341C507.413 624.671 502.773 623.311 497.253 623.311C485.073 623.311 478.453 629.221 478.453 639.591V654.451C478.453 664.701 483.833 670.551 496.313 670.551C500.973 670.551 506.283 669.561 511.963 668.401L512.353 668.321V659.051L511.703 659.201C507.133 660.251 504.613 661.141 500.283 661.141C494.073 661.141 489.733 658.621 489.733 652.201V650.721V650.741ZM489.733 639.721C489.733 634.071 493.793 632.741 497.163 632.741C500.533 632.741 504.063 634.071 504.063 639.721V643.231H489.733V642.711V639.721Z" fill="black"/>
<path d="M378.171 626.881H366.891V669.331H378.171V626.881Z" fill="black"/>
<path d="M372.534 622.22C376.416 622.22 379.564 619.073 379.564 615.19C379.564 611.308 376.416 608.16 372.534 608.16C368.651 608.16 365.504 611.308 365.504 615.19C365.504 619.073 368.651 622.22 372.534 622.22Z" fill="black"/>
<path d="M585.731 643.92H566.141V651.26H585.731V643.92Z" fill="black"/>
<path d="M759.526 1547.83V1572.03C759.526 1580.62 759.768 1584.85 760.494 1589.45H742.465C743.191 1585.34 743.433 1580.26 743.433 1572.27V1508.5C743.433 1501.85 743.191 1498.34 742.465 1492.77C747.426 1493.02 750.451 1493.14 757.832 1493.14H791.712C799.335 1493.14 803.207 1492.89 808.289 1492.29V1508.62C803.933 1508.02 799.456 1507.78 791.712 1507.78H759.526V1533.43H785.42C792.922 1533.43 797.157 1533.19 801.876 1532.58V1548.68C797.399 1548.07 792.801 1547.83 785.42 1547.83H759.526Z" fill="black"/>
<path d="M681.659 1547.83V1572.03C681.659 1580.62 681.901 1584.85 682.627 1589.45H664.598C665.324 1585.34 665.566 1580.26 665.566 1572.27V1508.5C665.566 1501.85 665.324 1498.34 664.598 1492.77C669.559 1493.02 672.584 1493.14 679.965 1493.14H713.845C721.468 1493.14 725.34 1492.89 730.422 1492.29V1508.62C726.066 1508.02 721.589 1507.78 713.845 1507.78H681.659V1533.43H707.553C715.055 1533.43 719.29 1533.19 724.009 1532.58V1548.68C719.532 1548.07 714.934 1547.83 707.553 1547.83H681.659Z" fill="black"/>
<path d="M605.078 1491.2C618.388 1491.2 628.673 1495.07 636.901 1503.3C645.734 1512.13 650.453 1525.32 650.453 1541.05C650.453 1571.66 632.666 1591.51 605.199 1591.51C577.732 1591.51 560.066 1571.79 560.066 1541.05C560.066 1525.44 564.906 1512.01 573.86 1503.3C582.209 1495.07 592.252 1491.2 605.078 1491.2ZM605.441 1577.11C622.744 1577.11 633.513 1563.32 633.513 1541.05C633.513 1528.83 630.125 1519.03 623.954 1512.86C618.993 1508.02 612.58 1505.48 605.32 1505.48C587.896 1505.48 576.885 1519.27 576.885 1541.17C576.885 1553.27 580.394 1563.44 586.686 1569.73C591.647 1574.57 598.06 1577.11 605.441 1577.11Z" fill="black"/>
<path d="M457.027 1587.64L533.136 1490.23L539.428 1495.07L463.198 1592.6L457.027 1587.64ZM526.723 1591.39C519.947 1591.39 514.381 1589.33 510.267 1585.22C505.669 1580.74 503.249 1573.48 503.249 1564.28C503.249 1555.21 505.669 1548.07 510.267 1543.47C514.381 1539.48 520.068 1537.3 526.723 1537.3C533.378 1537.3 539.065 1539.48 543.058 1543.47C547.656 1547.95 550.076 1555.21 550.076 1564.28C550.076 1573.48 547.656 1580.74 543.058 1585.22C538.944 1589.33 533.378 1591.39 526.723 1591.39ZM526.723 1547.59C523.214 1547.59 520.915 1548.68 518.979 1551.46C516.801 1554.48 515.712 1558.6 515.712 1564.04C515.712 1575.17 519.584 1581.22 526.723 1581.22C533.983 1581.22 537.734 1575.17 537.734 1563.44C537.734 1558.6 536.524 1554.24 534.467 1551.34C532.41 1548.68 530.232 1547.59 526.723 1547.59ZM469.732 1545.41C462.956 1545.41 457.39 1543.35 453.276 1539.24C448.678 1534.76 446.258 1527.38 446.258 1518.3C446.258 1501.36 454.97 1491.32 469.732 1491.32C476.387 1491.32 482.074 1493.5 486.067 1497.49C490.665 1501.97 493.085 1509.23 493.085 1518.3C493.085 1527.5 490.665 1534.76 486.067 1539.24C481.953 1543.35 476.387 1545.41 469.732 1545.41ZM469.732 1501.61C462.714 1501.61 458.721 1507.54 458.721 1518.06C458.721 1529.19 462.593 1535.24 469.732 1535.24C476.75 1535.24 480.743 1529.19 480.743 1518.3C480.743 1513.95 479.896 1509.59 478.565 1507.05C476.508 1503.3 473.725 1501.61 469.732 1501.61Z" fill="black"/>
<path d="M398.349 1591.39C388.064 1591.39 379.352 1588 372.939 1581.59C369.309 1577.96 366.526 1573.72 364.953 1569.37C361.807 1560.77 360.234 1551.34 360.234 1541.54C360.234 1528.71 363.138 1515.4 367.615 1508.02C374.149 1497.13 385.039 1491.2 398.47 1491.2C408.755 1491.2 417.588 1494.59 424.001 1501C427.631 1504.63 430.414 1508.87 431.987 1513.22C435.133 1521.69 436.706 1531.37 436.706 1541.29C436.706 1556.18 433.439 1569.24 427.752 1577.11C420.976 1586.55 410.933 1591.39 398.349 1591.39ZM398.47 1577.35C403.794 1577.35 408.513 1575.54 411.538 1572.27C416.983 1566.58 420.008 1555.33 420.008 1541.17C420.008 1527.14 416.983 1516.13 411.538 1510.2C408.634 1506.93 403.794 1505.11 398.349 1505.11C392.541 1505.11 388.306 1507.05 384.797 1511.29C379.473 1517.58 376.811 1527.5 376.811 1540.69C376.811 1553.39 379.11 1563.92 382.982 1569.49C386.733 1574.81 391.815 1577.35 398.47 1577.35Z" fill="black"/>
<path d="M323.461 1589.45H305.19C305.916 1584.73 306.158 1580.01 306.158 1573.72V1507.05H300.35C295.873 1507.05 292.364 1507.29 287.887 1507.78V1492.41C291.638 1493.02 294.3 1493.14 299.987 1493.14H311.119C317.29 1493.14 319.105 1493.02 323.461 1492.53C322.735 1499.67 322.493 1505.24 322.493 1512.5V1573.72C322.493 1580.14 322.735 1584.49 323.461 1589.45Z" fill="black"/>
<path d="M749.866 1329.25V1338.29C747.418 1337.95 745.242 1337.82 741.094 1337.82H719.878C715.798 1337.82 713.962 1337.88 711.242 1338.02C711.65 1335.3 711.786 1333.06 711.786 1329.04V1292.26C711.786 1288.72 711.65 1286.68 711.242 1283.48C713.962 1283.62 715.73 1283.69 719.878 1283.69H740.414C743.814 1283.69 746.058 1283.55 749.186 1283.21V1292.19C746.602 1291.85 744.426 1291.71 740.414 1291.71H720.83V1305.72H737.354C740.89 1305.72 743.202 1305.58 746.194 1305.24V1314.15C743.406 1313.74 741.57 1313.68 737.354 1313.68H720.762V1329.72H741.162C744.97 1329.72 746.942 1329.59 749.866 1329.25Z" fill="black"/>
<path d="M677.068 1314.42V1328.02C677.068 1332.85 677.204 1335.23 677.612 1337.82H667.48C667.888 1335.5 668.024 1332.65 668.024 1328.16V1292.32C668.024 1288.58 667.888 1286.61 667.48 1283.48C670.268 1283.62 671.968 1283.69 676.116 1283.69H695.156C699.44 1283.69 701.616 1283.55 704.472 1283.21V1292.39C702.024 1292.05 699.508 1291.92 695.156 1291.92H677.068V1306.33H691.62C695.836 1306.33 698.216 1306.2 700.868 1305.86V1314.9C698.352 1314.56 695.768 1314.42 691.62 1314.42H677.068Z" fill="black"/>
<path d="M661.928 1337.82H650.776C650.368 1335.57 649.621 1332.65 648.872 1330.68L646.152 1323.26H624.392L621.672 1330.68C620.448 1333.94 620.176 1334.96 619.632 1337.82H608.48C609.5 1335.98 610.86 1332.92 612.084 1329.79L627.044 1290.56C628.336 1287.16 628.88 1285.46 629.22 1283.69H641.052C641.392 1285.32 641.8 1286.41 643.364 1290.56L658.46 1329.79C660.16 1334.14 660.976 1336.05 661.928 1337.82ZM643.704 1315.44L636.428 1295.32C636.156 1294.57 635.952 1293.75 635.204 1291.51C634.116 1294.7 634.116 1294.7 633.912 1295.32L626.84 1315.44H643.704Z" fill="black"/>
<path d="M595.155 1319.59L604.879 1321.29C603.587 1326.19 602.363 1328.84 600.323 1331.49C596.447 1336.25 589.919 1338.9 581.759 1338.9C574.347 1338.9 568.431 1336.66 564.283 1332.38C559.523 1327.41 556.871 1319.73 556.871 1311.02C556.871 1302.05 559.727 1294.16 564.827 1289.06C568.907 1284.91 575.027 1282.6 581.827 1282.6C587.131 1282.6 591.143 1283.62 594.883 1285.86C597.943 1287.77 600.391 1290.28 602.091 1293.28C602.907 1294.7 603.383 1295.93 604.199 1298.51L594.747 1300.69C593.795 1297.7 593.183 1296.4 591.823 1294.84C589.511 1292.05 586.111 1290.62 581.895 1290.62C572.239 1290.62 566.391 1298.17 566.391 1310.68C566.391 1323.13 572.375 1330.88 581.895 1330.88C586.655 1330.88 590.735 1329.04 592.911 1325.85C594.067 1324.15 594.611 1322.72 595.155 1319.59Z" fill="black"/>
<path d="M530.721 1329.11V1338.29C528.273 1337.95 525.893 1337.82 521.065 1337.82H500.937C497.129 1337.82 494.749 1337.88 492.301 1338.02C492.709 1335.5 492.845 1332.99 492.845 1329.04V1293.75C492.845 1289.06 492.709 1286.61 492.301 1283.69H502.569C502.161 1286.48 502.025 1288.72 502.025 1293.68V1329.59H521.065C525.689 1329.59 527.865 1329.45 530.721 1329.11Z" fill="black"/>
<path d="M486.749 1337.82H475.597C475.189 1335.57 474.441 1332.65 473.693 1330.68L470.973 1323.26H449.213L446.493 1330.68C445.269 1333.94 444.997 1334.96 444.453 1337.82H433.301C434.321 1335.98 435.681 1332.92 436.905 1329.79L451.865 1290.56C453.157 1287.16 453.701 1285.46 454.041 1283.69H465.873C466.213 1285.32 466.621 1286.41 468.185 1290.56L483.281 1329.79C484.981 1334.14 485.797 1336.05 486.749 1337.82ZM468.525 1315.44L461.249 1295.32C460.977 1294.57 460.773 1293.75 460.025 1291.51C458.937 1294.7 458.937 1294.7 458.733 1295.32L451.661 1315.44H468.525Z" fill="black"/>
<path d="M416.582 1337.82H404.886C404.614 1336.32 403.866 1334.21 402.71 1331.02L388.158 1291.78C386.662 1287.7 385.71 1285.52 384.758 1283.69H395.978C396.318 1285.93 396.998 1288.38 397.814 1290.83L409.102 1324.42C409.442 1325.24 410.258 1327.96 410.734 1329.59C411.346 1327.55 411.89 1325.64 412.298 1324.42L423.586 1290.83C424.674 1287.43 425.082 1286 425.422 1283.69H436.642C435.69 1285.39 434.874 1287.29 433.242 1291.78L418.69 1331.02C417.534 1334.08 416.854 1336.25 416.582 1337.82Z" fill="black"/>
<path d="M355.39 1282.6C362.87 1282.6 368.65 1284.78 373.274 1289.4C378.238 1294.36 380.89 1301.78 380.89 1310.62C380.89 1327.82 370.894 1338.97 355.458 1338.97C340.022 1338.97 330.094 1327.89 330.094 1310.62C330.094 1301.84 332.814 1294.3 337.846 1289.4C342.538 1284.78 348.182 1282.6 355.39 1282.6ZM355.594 1330.88C365.318 1330.88 371.37 1323.13 371.37 1310.62C371.37 1303.75 369.466 1298.24 365.998 1294.77C363.21 1292.05 359.606 1290.62 355.526 1290.62C345.734 1290.62 339.546 1298.38 339.546 1310.68C339.546 1317.48 341.518 1323.2 345.054 1326.73C347.842 1329.45 351.446 1330.88 355.594 1330.88Z" fill="black"/>
</svg>
