<svg width="1080" height="1920" viewBox="0 0 1080 1920" fill="none" xmlns="http://www.w3.org/2000/svg">
<path d="M1080 1920L1080 0L0 0L0 1920H1080Z" fill="#A5D4AD"/>
<path d="M1020 983.72V95C1020 75.67 1004.33 60 985 60H95.58C75.93 60 60 75.93 60 95.58V983.71C60 984.03 60.25 984.28 60.57 984.28C80.03 984.59 95.71 1000.46 95.71 1019.99C95.71 1039.52 80.03 1055.39 60.57 1055.7C60.25 1055.7 60 1055.96 60 1056.27V1824.99C60 1844.32 75.67 1859.99 95 1859.99H985C1004.33 1859.99 1020 1844.32 1020 1824.99V1056.27C1020 1055.95 1019.75 1055.7 1019.43 1055.7C999.97 1055.39 984.29 1039.52 984.29 1019.99C984.29 1000.46 999.97 984.59 1019.43 984.28C1019.75 984.28 1020 984.02 1020 983.71V983.72Z" fill="white"/>
<path d="M60.57 1055.71C60.25 1055.71 60 1055.97 60 1056.28V1825C60 1844.33 75.67 1860 95 1860H985C1004.33 1860 1020 1844.33 1020 1825V1056.28C1020 1055.96 1019.75 1055.71 1019.43 1055.71C999.97 1055.4 984.29 1039.53 984.29 1020H95.71C95.71 1039.53 80.03 1055.4 60.57 1055.71Z" fill="#E5F2E6"/>
<path d="M121 1020H160.9" stroke="black" stroke-width="6" stroke-miterlimit="10"/>
<path d="M187.51 1020H227.41" stroke="black" stroke-width="6" stroke-miterlimit="10"/>
<path d="M254.02 1020H293.92" stroke="black" stroke-width="6" stroke-miterlimit="10"/>
<path d="M320.52 1020H360.43" stroke="black" stroke-width="6" stroke-miterlimit="10"/>
<path d="M387.03 1020H426.94" stroke="black" stroke-width="6" stroke-miterlimit="10"/>
<path d="M453.54 1020H493.44" stroke="black" stroke-width="6" stroke-miterlimit="10"/>
<path d="M520.05 1020H559.95" stroke="black" stroke-width="6" stroke-miterlimit="10"/>
<path d="M586.56 1020H626.46" stroke="black" stroke-width="6" stroke-miterlimit="10"/>
<path d="M653.06 1020H692.97" stroke="black" stroke-width="6" stroke-miterlimit="10"/>
<path d="M719.57 1020H759.48" stroke="black" stroke-width="6" stroke-miterlimit="10"/>
<path d="M786.08 1020H825.98" stroke="black" stroke-width="6" stroke-miterlimit="10"/>
<path d="M852.59 1020H892.49" stroke="black" stroke-width="6" stroke-miterlimit="10"/>
<path d="M919.1 1020H959" stroke="black" stroke-width="6" stroke-miterlimit="10"/>
<path d="M1020 984.29V95C1020 75.67 1004.33 60 985 60H95C75.67 60 60 75.67 60 95V984.29C79.72 984.29 95.71 1000.28 95.71 1020C95.71 1039.72 79.72 1055.71 60 1055.71V1825C60 1844.33 75.67 1860 95 1860H985C1004.33 1860 1020 1844.33 1020 1825V1055.71C1000.28 1055.71 984.29 1039.72 984.29 1020C984.29 1000.28 1000.28 984.29 1020 984.29Z" stroke="black" stroke-width="6" stroke-miterlimit="10"/>
<path d="M912.642 525.66C908.772 525.66 905.532 522.64 905.312 518.73C900.582 435.62 868.782 358.85 813.362 296.74C810.662 293.71 810.922 289.06 813.952 286.36C816.982 283.66 821.622 283.92 824.332 286.95C881.992 351.57 915.062 431.43 919.992 517.89C920.222 521.94 917.122 525.42 913.072 525.65C912.932 525.65 912.792 525.66 912.652 525.66H912.642Z" fill="black"/>
<path d="M818.842 795.509C817.102 795.509 815.352 794.889 813.952 793.639C810.922 790.939 810.662 786.289 813.362 783.259C868.782 721.149 900.582 644.379 905.312 561.269C905.542 557.219 909.022 554.109 913.072 554.349C917.122 554.579 920.222 558.049 919.992 562.109C915.062 648.579 881.992 728.439 824.332 793.049C822.882 794.679 820.862 795.509 818.842 795.509Z" fill="black"/>
<path d="M167.352 525.66C167.212 525.66 167.072 525.66 166.932 525.65C162.882 525.42 159.782 521.95 160.012 517.89C164.942 431.42 198.012 351.56 255.672 286.95C258.372 283.92 263.022 283.66 266.052 286.36C269.082 289.06 269.342 293.71 266.642 296.74C211.222 358.85 179.422 435.61 174.692 518.73C174.472 522.64 171.232 525.66 167.362 525.66H167.352Z" fill="black"/>
<path d="M261.162 795.509C259.142 795.509 257.122 794.679 255.672 793.049C198.012 728.429 164.942 648.569 160.012 562.109C159.782 558.059 162.882 554.579 166.932 554.349C170.982 554.109 174.462 557.219 174.692 561.269C179.422 644.389 211.222 721.149 266.642 783.259C269.342 786.289 269.082 790.939 266.052 793.639C264.652 794.889 262.902 795.509 261.162 795.509Z" fill="black"/>
<path d="M788.162 268.509C786.422 268.509 784.672 267.889 783.272 266.639C721.162 211.219 644.392 179.419 561.282 174.689C557.232 174.459 554.132 170.989 554.362 166.929C554.592 162.879 558.032 159.789 562.122 160.009C648.592 164.939 728.452 198.009 793.062 255.669C796.092 258.369 796.352 263.019 793.652 266.049C792.202 267.679 790.182 268.509 788.162 268.509Z" fill="black"/>
<path d="M291.842 268.51C289.822 268.51 287.802 267.68 286.352 266.05C283.652 263.02 283.912 258.37 286.942 255.67C351.562 198.01 431.422 164.94 517.882 160.01C521.932 159.78 525.412 162.88 525.642 166.93C525.872 170.98 522.772 174.46 518.722 174.69C435.612 179.42 358.842 211.22 296.732 266.64C295.332 267.89 293.582 268.51 291.842 268.51Z" fill="black"/>
<path d="M561.682 920C557.812 920 554.572 916.98 554.352 913.07C554.122 909.02 557.222 905.54 561.272 905.31C644.392 900.58 721.152 868.78 783.262 813.36C786.292 810.66 790.942 810.92 793.642 813.95C796.342 816.98 796.082 821.63 793.052 824.33C728.432 881.99 648.572 915.06 562.112 919.99C561.972 919.99 561.832 920 561.692 920H561.682Z" fill="black"/>
<path d="M518.312 920C518.172 920 518.032 920 517.892 919.99C431.422 915.06 351.562 881.99 286.952 824.33C283.922 821.63 283.662 816.98 286.362 813.95C289.062 810.92 293.712 810.66 296.742 813.36C358.852 868.78 435.622 900.58 518.732 905.31C522.782 905.54 525.882 909.01 525.652 913.07C525.432 916.98 522.192 920 518.322 920H518.312Z" fill="black"/>
<path d="M875.372 526.191C872.362 526.191 869.842 523.841 869.672 520.801C865.402 445.791 836.702 376.521 786.692 320.461C784.592 318.101 784.792 314.491 787.152 312.391C789.502 310.291 793.122 310.491 795.222 312.851C846.972 370.851 876.672 442.541 881.092 520.151C881.272 523.301 878.862 526.001 875.712 526.181C875.602 526.181 875.492 526.181 875.382 526.181L875.372 526.191Z" fill="black"/>
<path d="M790.952 769.062C789.592 769.062 788.242 768.582 787.152 767.612C784.792 765.512 784.592 761.892 786.692 759.542C836.702 703.492 865.402 634.212 869.672 559.202C869.852 556.052 872.542 553.642 875.702 553.822C878.852 554.002 881.262 556.702 881.082 559.852C876.662 637.472 846.972 709.152 795.212 767.152C794.082 768.422 792.512 769.062 790.942 769.062H790.952Z" fill="black"/>
<path d="M204.622 526.191C204.512 526.191 204.402 526.191 204.292 526.191C201.142 526.011 198.732 523.311 198.912 520.161C203.332 442.541 233.022 370.861 284.782 312.861C286.882 310.501 290.502 310.301 292.852 312.401C295.212 314.501 295.412 318.121 293.312 320.471C243.302 376.521 214.602 445.801 210.332 520.811C210.162 523.851 207.642 526.201 204.632 526.201L204.622 526.191Z" fill="black"/>
<path d="M289.042 769.061C287.472 769.061 285.902 768.411 284.772 767.151C233.022 709.151 203.322 637.461 198.902 559.851C198.722 556.701 201.132 554.001 204.282 553.821C207.442 553.631 210.132 556.051 210.312 559.201C214.582 634.211 243.282 703.491 293.292 759.541C295.392 761.901 295.192 765.511 292.832 767.611C291.742 768.581 290.382 769.061 289.032 769.061H289.042Z" fill="black"/>
<path d="M763.342 294.762C761.982 294.762 760.632 294.282 759.542 293.312C703.492 243.302 634.212 214.602 559.202 210.332C556.052 210.152 553.642 207.452 553.822 204.302C554.002 201.152 556.692 198.742 559.852 198.922C637.472 203.342 709.152 233.032 767.152 284.792C769.512 286.892 769.712 290.512 767.612 292.862C766.482 294.132 764.912 294.772 763.342 294.772V294.762Z" fill="black"/>
<path d="M316.652 294.761C315.082 294.761 313.512 294.111 312.382 292.851C310.282 290.491 310.482 286.881 312.842 284.781C370.842 233.031 442.532 203.331 520.142 198.911C523.292 198.721 525.992 201.141 526.172 204.291C526.352 207.441 523.942 210.141 520.792 210.321C445.782 214.591 376.512 243.291 320.452 293.301C319.362 294.271 318.002 294.751 316.652 294.751V294.761Z" fill="black"/>
<path d="M559.522 881.102C556.512 881.102 553.992 878.752 553.822 875.712C553.642 872.562 556.052 869.862 559.202 869.682C634.212 865.412 703.482 836.712 759.542 786.702C761.892 784.602 765.512 784.802 767.612 787.162C769.712 789.522 769.512 793.132 767.152 795.232C709.152 846.982 637.462 876.682 559.852 881.102C559.742 881.102 559.632 881.102 559.522 881.102Z" fill="black"/>
<path d="M520.482 881.102C520.372 881.102 520.262 881.102 520.152 881.102C442.532 876.682 370.852 846.992 312.852 795.232C310.492 793.132 310.292 789.512 312.392 787.162C314.492 784.802 318.112 784.602 320.462 786.702C376.512 836.722 445.792 865.412 520.802 869.682C523.952 869.862 526.362 872.562 526.182 875.712C526.012 878.752 523.492 881.102 520.482 881.102Z" fill="black"/>
<path d="M841.841 526.51C839.691 526.51 837.891 524.83 837.771 522.66C833.911 454.91 807.991 392.34 762.821 341.71C761.321 340.03 761.471 337.45 763.151 335.94C764.831 334.44 767.411 334.58 768.921 336.27C815.341 388.29 841.971 452.58 845.931 522.19C846.061 524.44 844.341 526.37 842.081 526.5C842.001 526.5 841.921 526.5 841.841 526.5V526.51Z" fill="black"/>
<path d="M765.862 745.101C764.892 745.101 763.922 744.761 763.142 744.061C761.462 742.561 761.312 739.981 762.812 738.291C807.982 687.661 833.902 625.091 837.762 557.341C837.892 555.091 839.852 553.391 842.072 553.491C844.322 553.621 846.042 555.551 845.922 557.801C841.952 627.411 815.322 691.701 768.912 743.721C768.102 744.621 766.982 745.081 765.862 745.081V745.101Z" fill="black"/>
<path d="M238.162 526.51C238.082 526.51 238.002 526.51 237.922 526.51C235.672 526.38 233.952 524.45 234.072 522.2C238.042 452.59 264.672 388.3 311.082 336.28C312.582 334.6 315.162 334.45 316.852 335.95C318.532 337.45 318.682 340.03 317.182 341.72C272.012 392.35 246.092 454.92 242.232 522.67C242.112 524.84 240.312 526.52 238.162 526.52V526.51Z" fill="black"/>
<path d="M314.132 745.101C313.012 745.101 311.892 744.641 311.082 743.741C264.662 691.721 238.032 627.431 234.072 557.821C233.942 555.571 235.662 553.641 237.922 553.511C240.162 553.401 242.102 555.101 242.232 557.361C246.092 625.111 272.012 687.681 317.182 738.311C318.682 739.991 318.532 742.571 316.852 744.081C316.072 744.771 315.102 745.121 314.132 745.121V745.101Z" fill="black"/>
<path d="M741.012 318.219C740.042 318.219 739.072 317.879 738.292 317.179C687.662 272.009 625.092 246.089 557.342 242.229C555.092 242.099 553.372 240.169 553.492 237.919C553.622 235.669 555.542 233.959 557.802 234.069C627.412 238.039 691.702 264.669 743.732 311.079C745.412 312.579 745.562 315.159 744.062 316.849C743.252 317.749 742.132 318.209 741.012 318.209V318.219Z" fill="black"/>
<path d="M338.992 318.22C337.872 318.22 336.752 317.76 335.942 316.86C334.442 315.18 334.592 312.6 336.272 311.09C388.292 264.67 452.582 238.04 522.192 234.08C524.442 233.96 526.372 235.67 526.502 237.93C526.632 240.18 524.912 242.11 522.652 242.24C454.902 246.1 392.332 272.02 341.702 317.19C340.922 317.88 339.952 318.23 338.982 318.23L338.992 318.22Z" fill="black"/>
<path d="M557.562 845.929C555.412 845.929 553.612 844.249 553.492 842.079C553.362 839.829 555.082 837.899 557.342 837.769C625.092 833.909 687.662 807.989 738.292 762.819C739.972 761.319 742.552 761.469 744.062 763.149C745.562 764.829 745.412 767.409 743.732 768.919C691.712 815.339 627.422 841.969 557.802 845.929C557.722 845.929 557.642 845.929 557.562 845.929Z" fill="black"/>
<path d="M522.432 845.929C522.352 845.929 522.272 845.929 522.192 845.929C452.582 841.959 388.292 815.329 336.272 768.919C334.592 767.419 334.442 764.839 335.942 763.149C337.442 761.469 340.022 761.319 341.712 762.819C392.342 807.989 454.912 833.909 522.662 837.769C524.912 837.899 526.632 839.829 526.512 842.079C526.392 844.249 524.592 845.929 522.442 845.929H522.432Z" fill="black"/>
<path d="M320.642 546.17C320.642 544.6 321.782 543.27 323.332 543.02C324.632 542.81 326.262 542.52 327.972 542.12C332.392 541.08 337.582 539.11 343.402 536.27C349.282 533.4 354.912 529.41 359.162 523.67C366.332 513.97 367.852 501.4 368.182 496.89C368.252 495.97 367.522 495.19 366.592 495.19H317.082C315.322 495.19 313.902 493.76 313.902 492.01V470.69C313.902 468.93 315.332 467.51 317.082 467.51H367.062C367.942 467.51 368.652 466.8 368.652 465.92V447.18C368.652 446.3 367.942 445.59 367.062 445.59H328.612C326.852 445.59 325.432 444.16 325.432 442.41V421.09C325.432 419.33 326.862 417.91 328.612 417.91H428.952C430.712 417.91 432.132 419.34 432.132 421.09V442.41C432.132 444.17 430.702 445.59 428.952 445.59H398.512C397.632 445.59 396.922 446.3 396.922 447.18V465.92C396.922 466.8 397.632 467.51 398.512 467.51H438.572C440.332 467.51 441.752 468.94 441.752 470.69V492.01C441.752 493.77 440.322 495.19 438.572 495.19H398.382C397.532 495.19 396.832 495.86 396.792 496.71C396.562 501.75 395.142 518.44 386.172 532.85C380.722 541.61 373.642 548.26 366.532 553.54C359.402 558.84 352.252 562.93 345.262 565.7C338.232 568.49 332.332 570.44 327.742 571.51C326.652 571.76 325.482 571.99 324.392 572.18C322.442 572.53 320.652 571.03 320.652 569.04V546.16L320.642 546.17Z" fill="black"/>
<path d="M474.542 546.52C474.542 545.06 475.542 543.79 476.952 543.43C485.202 541.36 488.922 540.11 496.832 536.32C496.832 536.32 500.882 534.21 504.922 531.3C517.102 522.54 525.212 510.63 525.212 510.63C534.672 497.28 537.762 474.91 538.482 468.49C538.592 467.55 537.852 466.72 536.902 466.72H500.572C500.342 466.72 500.132 466.84 500.022 467.04L499.872 467.29C494.292 478.11 486.872 487.99 480.442 494.24C473.992 500.5 468.582 505.05 464.372 507.75L461.772 509.42C460.712 510.1 459.322 509.34 459.322 508.08V479.89C459.322 478.95 459.742 478.06 460.462 477.45C461.112 476.9 461.982 476.13 463.172 475.06C465.932 472.57 469.042 468.51 472.412 462.98C475.752 457.51 479.342 450.21 483.062 441.29C486.442 433.2 488.972 423.09 490.852 412.06C491.112 410.53 492.442 409.42 493.992 409.42H513.902C515.902 409.42 517.412 411.25 517.032 413.21C516.392 416.52 515.702 420.88 514.842 424.31C513.572 429.39 512.752 432.3 511.232 436.72C510.972 437.47 511.532 438.24 512.322 438.24H591.172C592.932 438.24 594.352 439.67 594.352 441.42V463.51C594.352 465.27 592.922 466.69 591.172 466.69H568.132C567.322 466.69 566.632 467.3 566.552 468.11C565.922 474.01 562.872 497.16 552.382 517.26C538.282 546 508.132 566.39 478.332 572.13C476.372 572.51 474.552 571 474.552 569V546.48L474.542 546.52Z" fill="black"/>
<path d="M675.893 411.029V468.869C675.893 469.749 676.603 470.459 677.483 470.459H764.513C765.393 470.459 766.103 469.749 766.103 468.869V411.029C766.103 410.149 765.393 409.439 764.513 409.439H677.483C676.603 409.439 675.893 410.149 675.893 411.029ZM738.453 452.739H702.293C701.413 452.739 700.703 452.029 700.703 451.149V446.869C700.703 445.989 701.413 445.279 702.293 445.279H738.453C739.333 445.279 740.043 445.989 740.043 446.869V451.149C740.043 452.029 739.333 452.739 738.453 452.739ZM738.453 434.449H702.293C701.413 434.449 700.703 433.739 700.703 432.859V428.749C700.703 427.869 701.413 427.159 702.293 427.159H738.453C739.333 427.159 740.043 427.869 740.043 428.749V432.859C740.043 433.739 739.333 434.449 738.453 434.449Z" fill="black"/>
<path d="M674.222 497.34H728.262C729.142 497.34 729.852 498.05 729.852 498.93V502.84C729.852 503.72 729.142 504.43 728.262 504.43H667.752C665.992 504.43 664.572 505.86 664.572 507.61V522.86C664.572 524.62 666.002 526.04 667.752 526.04H728.262C729.142 526.04 729.852 526.75 729.852 527.63V545.39C729.852 546.11 729.932 547.98 729.212 548.85C728.382 549.87 727.142 549.67 725.842 549.72C722.532 549.72 719.572 549.7 716.942 549.66C716.542 549.66 716.252 549.29 716.332 548.9C716.592 547.63 716.722 546.31 716.692 544.96C716.492 535.68 708.932 528.08 699.652 527.84C689.572 527.58 681.362 535.85 681.702 545.94C682.012 555.29 689.782 562.81 699.142 562.84C704.032 562.85 708.452 560.86 711.632 557.64C711.972 557.3 712.542 557.43 712.692 557.88C714.152 562.21 715.532 566.34 716.782 570.05C717.222 571.35 718.452 572.22 719.822 572.21C725.722 572.17 730.502 571.96 734.172 571.6C738.302 571.18 742.082 570.15 745.512 568.5C749.172 566.84 751.682 564.42 753.042 561.23C754.402 558.04 755.082 553.55 755.082 547.76V527.62C755.082 526.74 755.792 526.03 756.672 526.03H762.902C764.662 526.03 766.082 524.6 766.082 522.85V507.6C766.082 505.84 764.652 504.42 762.902 504.42H756.672C755.792 504.42 755.082 503.71 755.082 502.83V498.92C755.082 498.04 755.792 497.33 756.672 497.33H762.902C764.662 497.33 766.082 495.9 766.082 494.15V479.6C766.082 477.84 764.652 476.42 762.902 476.42H674.202C672.442 476.42 671.022 477.85 671.022 479.6V494.15C671.022 495.91 672.452 497.33 674.202 497.33L674.222 497.34Z" fill="black"/>
<path d="M668.822 409.439H650.252C649.392 409.439 648.572 409.789 647.972 410.399C635.222 423.349 618.282 434.569 612.122 438.479C610.772 439.329 610.272 441.059 610.942 442.499L620.692 463.569C621.622 465.569 624.252 466.049 625.822 464.499C646.112 444.459 664.442 419.799 670.112 411.959C670.872 410.909 670.112 409.439 668.822 409.439Z" fill="black"/>
<path d="M671.912 453.889V435.409C671.912 433.999 670.212 433.289 669.202 434.279C653.632 449.599 620.042 477.059 611.672 483.859C610.542 484.779 610.182 486.349 610.792 487.669L620.692 509.049C621.622 511.049 624.252 511.529 625.822 509.979C627.532 508.289 629.232 506.559 630.912 504.819C631.312 504.409 632.012 504.689 632.012 505.259V569.059C632.012 570.819 633.442 572.239 635.192 572.239H653.812C655.572 572.239 656.992 570.809 656.992 569.059V476.369C656.992 475.299 657.352 474.249 658.022 473.409C664.862 464.729 669.712 458.019 671.332 455.739C671.712 455.199 671.922 454.559 671.922 453.889H671.912Z" fill="black"/>
<path d="M653.262 623.33C640.842 623.33 634.802 628.28 634.802 638.47V655.6C634.802 665.67 640.842 670.56 653.262 670.56C659.132 670.56 663.472 669.48 666.552 667.27C669.992 664.8 671.732 660.87 671.732 655.59V638.46C671.732 628.27 665.692 623.32 653.272 623.32L653.262 623.33ZM646.082 639.3C646.082 633.93 648.832 632.91 653.262 632.91C657.692 632.91 660.442 633.95 660.442 639.3V654.68C660.442 659.95 657.592 660.98 653.262 660.98C648.932 660.98 646.082 659.98 646.082 654.68V639.3Z" fill="black"/>
<path d="M708.262 669.331H721.352L703.622 646.781L720.552 624.8H707.392L694.052 642.281V610.23H682.762V669.331H694.052V659.211L696.942 655.451L708.262 669.331Z" fill="black"/>
<path d="M754.811 624.801V653.291C754.811 659.041 751.871 660.891 746.821 660.891C743.551 660.891 740.271 660.351 740.271 653.881V624.811H728.991V656.771C728.991 665.741 733.701 670.481 742.611 670.481C749.291 670.481 753.871 666.861 755.571 662.801L757.381 669.341H766.101V624.811H754.821L754.811 624.801Z" fill="black"/>
<path d="M630.562 610.23H589.142V620.141V620.151H604.212V669.331H615.682V620.151H630.562V610.23Z" fill="black"/>
<path d="M459.682 669.331H472.772L455.042 646.781L471.972 624.8H458.812L445.472 642.281V610.23H434.192V669.331H445.472V659.211L448.362 655.451L459.682 669.331Z" fill="black"/>
<path d="M355.322 610.23H313.902V620.141V620.151H328.982V669.331H340.442V620.151H355.322V610.23Z" fill="black"/>
<path d="M421.792 658.89L421.192 659.04C417.612 659.96 413.282 660.89 409.402 660.89C404.852 660.89 401.682 658.82 401.682 652.83V640.97C401.682 634.9 404.852 632.82 409.402 632.82C413.352 632.82 417.872 633.7 421.222 634.4L421.802 634.52V625.19L421.492 625.12C417.682 624.23 412.042 623.33 407.522 623.33C402.002 623.33 397.962 624.4 395.162 626.59C391.962 629.09 390.412 633.85 390.412 639.34V654.64C390.412 664.77 396.012 670.56 407.532 670.56C411.402 670.56 417.262 669.49 421.522 668.31L421.812 668.23V658.88L421.792 658.89Z" fill="black"/>
<path d="M553.922 634.699V624.799H543.682V615.189H532.402V624.799H525.172V634.699H532.402V655.419C532.402 667.939 540.292 670.559 546.922 670.559C548.702 670.559 550.502 670.449 552.112 670.219V660.259C551.462 660.329 550.252 660.359 549.532 660.359C546.452 660.359 543.682 659.729 543.682 652.089V634.689H553.922V634.699Z" fill="black"/>
<path d="M489.732 650.741V650.561H515.162V641.481C515.162 635.571 513.542 630.241 510.352 627.341C507.412 624.671 502.772 623.311 497.252 623.311C485.072 623.311 478.452 629.221 478.452 639.591V654.451C478.452 664.701 483.832 670.551 496.312 670.551C500.972 670.551 506.282 669.561 511.962 668.401L512.352 668.321V659.051L511.702 659.201C507.132 660.251 504.612 661.141 500.282 661.141C494.072 661.141 489.732 658.621 489.732 652.201V650.721V650.741ZM489.732 639.721C489.732 634.071 493.792 632.741 497.162 632.741C500.532 632.741 504.062 634.071 504.062 639.721V643.231H489.732V642.711V639.721Z" fill="black"/>
<path d="M378.172 626.881H366.892V669.331H378.172V626.881Z" fill="black"/>
<path d="M372.532 622.22C376.415 622.22 379.562 619.073 379.562 615.19C379.562 611.308 376.415 608.16 372.532 608.16C368.649 608.16 365.502 611.308 365.502 615.19C365.502 619.073 368.649 622.22 372.532 622.22Z" fill="black"/>
<path d="M585.732 643.92H566.142V651.26H585.732V643.92Z" fill="black"/>
<path d="M722.396 1732.41H708.97C709.46 1729.27 709.558 1726.63 709.558 1721.43V1658.62C709.558 1653.81 709.362 1651.27 708.97 1648.62H722.396C722.004 1651.56 722.004 1652.83 722.004 1658.91V1677.14C735.43 1681.84 750.816 1689 766.496 1697.82L759.636 1709.38C751.502 1703.79 741.31 1698.21 724.944 1690.66C722.69 1689.58 722.396 1689.49 721.612 1689C721.906 1691.74 722.004 1692.92 722.004 1695.66V1721.53C722.004 1726.63 722.102 1729.18 722.396 1732.41Z" fill="black"/>
<path d="M596.956 1665.08L605.09 1655.38C616.752 1662.63 622.828 1667.14 630.374 1674.3L621.946 1684.98C614.106 1676.65 606.07 1670.18 596.956 1665.08ZM600.386 1729.76L596.76 1716.24C605.188 1715.75 616.85 1712.91 625.768 1708.99C638.018 1703.7 647.132 1696.15 654.874 1684.98C659.186 1678.71 661.93 1673.32 664.87 1665.38C668.692 1669.98 670.26 1671.45 675.258 1674.98C666.928 1692.92 657.618 1704.48 644.192 1713.4C634.196 1720.06 622.044 1724.86 606.854 1728.1C602.934 1728.88 602.64 1728.98 600.386 1729.76Z" fill="black"/>
<path d="M569.222 1666.06L576.474 1672.53C575.298 1674.2 575.102 1674.59 573.73 1677.33C568.438 1688.7 560.794 1697.91 549.72 1705.95C545.996 1701.93 544.232 1700.46 539.92 1698.11C548.74 1693.11 555.404 1686.55 559.814 1678.41C558.344 1678.71 557.56 1678.8 556.09 1679C547.27 1679.98 542.272 1680.67 525.906 1682.92V1704.97C525.906 1713.3 526.2 1714.97 527.964 1716.44C529.532 1717.81 533.354 1718.4 540.116 1718.4C551.386 1718.4 562.068 1717.02 570.202 1714.57L570.79 1727.8C568.242 1727.8 567.36 1727.9 564.812 1728.2C554.228 1729.37 546.976 1729.86 540.508 1729.86C532.57 1729.86 526.788 1729.27 523.064 1728.2C519.046 1726.92 515.714 1723.39 514.636 1719.18C513.754 1716.14 513.656 1714.67 513.656 1706.73V1684.29L504.444 1685.47L498.074 1686.35C496.702 1686.55 495.624 1686.84 493.566 1687.33L492.292 1675.28C493.37 1675.28 494.154 1675.28 494.644 1675.28C496.408 1675.28 500.622 1674.98 503.268 1674.69L513.656 1673.41V1659.89C513.656 1655.09 513.558 1653.81 513.068 1650.58H526.592C526.2 1653.13 526.004 1655.09 526.004 1659.69V1672.04L561.676 1667.73C566.674 1667.14 566.968 1667.04 569.222 1666.06ZM555.404 1648.62L562.754 1646.07C566.772 1651.17 569.124 1655.09 571.77 1661.26L564.518 1664.01C561.872 1657.93 559.324 1653.62 555.404 1648.62ZM584.608 1656.85L577.356 1659.79C575.102 1654.4 572.162 1649.4 568.634 1644.8L575.592 1642.15C579.61 1646.95 581.962 1650.87 584.608 1656.85Z" fill="black"/>
<path d="M408.6 1650.88L422.516 1650.97C422.124 1653.62 422.026 1656.07 421.928 1660.87L421.438 1716.83C431.63 1714.87 440.842 1711.15 448.192 1706.05C457.208 1699.88 463.284 1693.11 468.184 1683.61C472.006 1688.7 473.28 1690.08 477.494 1693.6C470.732 1703.99 464.46 1710.56 455.64 1716.44C445.84 1723 435.844 1726.83 419.968 1729.86C417.322 1730.35 416.146 1730.75 414.088 1731.53L407.816 1723.98C408.502 1721.34 408.698 1719.57 408.698 1713.89L409.09 1660.97C409.09 1654.11 409.09 1654.11 408.6 1650.88Z" fill="black"/>
<path d="M314.226 1656.75H359.208C362.148 1656.75 363.324 1656.66 364.99 1656.56C365.088 1650.19 369.988 1645.19 376.26 1645.19C382.532 1645.19 387.628 1650.29 387.628 1656.46C387.628 1662.73 382.532 1667.83 376.26 1667.83C375.672 1667.83 375.084 1667.73 374.398 1667.63C366.46 1699.68 349.114 1719.67 318.146 1732.61C315.598 1727.51 313.932 1725.26 309.522 1720.94C336.668 1712.52 354.406 1694.29 360.678 1668.22H314.03C306.778 1668.22 304.916 1668.32 301.682 1668.81V1656.07C305.21 1656.66 307.562 1656.75 314.226 1656.75ZM376.26 1650.09C372.732 1650.09 369.89 1652.93 369.89 1656.46C369.89 1659.99 372.732 1662.93 376.26 1662.93C379.886 1662.93 382.728 1659.99 382.728 1656.46C382.728 1652.93 379.886 1650.09 376.26 1650.09Z" fill="black"/>
<path d="M824.61 1537.99V1529.75C824.61 1524.85 824.512 1522.4 824.022 1519.07H835.096C834.606 1522.4 834.508 1524.76 834.508 1529.75V1537.99H839.016C843.328 1537.99 845.288 1537.89 847.934 1537.5V1545.34C849.6 1545.53 850.482 1545.53 852.834 1545.53H867.632C871.552 1545.53 873.414 1545.43 875.668 1545.04V1555.92C873.218 1555.63 871.944 1555.53 867.338 1555.53V1597.47C867.338 1602.67 866.064 1605.31 862.83 1606.59C861.164 1607.17 857.636 1607.57 852.736 1607.57C850.874 1607.57 849.698 1607.57 844.896 1607.37C844.602 1603.16 844.014 1600.41 842.642 1597.08C846.954 1597.67 850.384 1597.96 854.206 1597.96C856.656 1597.96 857.342 1597.47 857.342 1595.71V1555.53H852.834C849.894 1555.53 848.424 1555.63 846.562 1555.92V1547.98C844.896 1547.88 843.622 1547.79 841.368 1547.79H834.508V1596.79C834.508 1602.37 834.606 1605.02 835.096 1608.55H824.022C824.512 1604.82 824.61 1602.18 824.61 1596.79V1547.79H815.986C813.144 1547.79 811.772 1547.88 809.812 1548.18C807.166 1552.59 804.912 1555.92 803.246 1558.27V1597.57C803.246 1602.96 803.344 1605.8 803.736 1608.64H792.662C793.054 1605.51 793.25 1602.67 793.25 1597.28V1579.15C793.25 1575.23 793.25 1575.13 793.446 1568.46C791.682 1570.72 789.232 1573.17 786.88 1574.93C785.606 1569.44 784.92 1567.68 783.058 1564.15C788.644 1560.13 793.25 1555.23 797.66 1548.57C800.012 1545.14 801.874 1541.91 802.56 1539.75L809.616 1543.96V1537.5C812.36 1537.89 814.124 1537.99 818.534 1537.99H824.61ZM849.796 1532.2L843.034 1536.42C840.29 1530.83 839.31 1529.36 835.194 1524.17L842.642 1519.76C845.778 1523.38 847.444 1525.64 849.796 1529.56V1523.78C851.952 1524.17 854.206 1524.27 857.44 1524.27H866.456C869.886 1524.27 872.14 1524.17 874.1 1523.78V1534.75C871.748 1534.36 869.69 1534.26 866.456 1534.26H857.44C854.5 1534.26 852.148 1534.36 849.796 1534.75V1532.2ZM801.482 1517.99L810.792 1523.38C810.4 1523.87 808.734 1525.93 805.696 1529.75C801.09 1535.54 796.288 1539.95 788.546 1545.53C787.174 1542 786.096 1539.75 783.744 1536.22C791.682 1531.22 798.346 1524.27 801.482 1517.99ZM811.87 1553.86L820.788 1555.14C819.514 1577.19 817.75 1588.06 813.928 1598.75C811.184 1596.98 809.322 1595.9 805.01 1593.75C807.558 1588.16 808.93 1583.56 809.91 1577.38C810.89 1571.4 811.674 1562.29 811.87 1553.86ZM836.664 1555.82L844.994 1553.76C848.032 1564.64 850.286 1575.52 852.148 1588.26L843.034 1591.3C841.368 1576.3 839.408 1565.43 836.664 1555.82Z" fill="black"/>
<path d="M745.72 1565.72L737.978 1567.97V1593.65C737.978 1595.61 738.37 1596.49 739.35 1596.88C740.722 1597.47 743.564 1597.67 748.072 1597.67C761.792 1597.67 764.144 1597.47 765.516 1596.3C766.888 1595.32 767.28 1592.77 767.476 1585.61C771.886 1587.48 773.062 1587.87 777.276 1588.65C776.492 1597.77 775.12 1602.08 772.18 1604.43C769.338 1606.78 765.81 1607.27 750.032 1607.27C732.588 1607.27 728.57 1605.51 728.57 1597.86V1570.62C727.296 1571.01 726.316 1571.4 725.336 1571.89L722.886 1561.9L723.964 1561.7C726.218 1561.31 726.512 1561.21 728.57 1560.62V1555.82C728.57 1554.35 728.57 1553.47 728.472 1552C727.59 1553.18 727.198 1553.67 726.022 1555.14C723.376 1551.51 721.71 1549.84 718.574 1547.49C720.828 1545.04 721.514 1544.26 722.984 1542.3C720.73 1542.1 719.554 1542.1 716.124 1542.1H705.638C705.54 1551.22 705.54 1551.22 705.442 1552.69H714.654C717.986 1552.69 719.946 1552.59 722.102 1552.29C722.004 1553.08 721.906 1556.7 721.906 1557.29C721.906 1558.37 721.906 1559.35 721.906 1560.43C721.906 1560.82 721.906 1561.21 721.906 1561.7C721.906 1567.88 721.514 1580.62 721.122 1586.3C720.338 1596.98 719.26 1602.18 717.104 1604.72C715.634 1606.49 712.89 1607.27 708.382 1607.27C707.696 1607.27 707.696 1607.27 704.854 1607.17C703.776 1607.08 703.776 1607.08 702.208 1607.08C701.914 1602.47 701.522 1600.22 700.248 1596.69C700.836 1596.88 701.326 1596.88 701.62 1596.98C704.07 1597.37 705.54 1597.57 707.01 1597.57C709.754 1597.57 710.244 1596.79 711.126 1591.3C712.106 1585.03 712.694 1574.25 712.792 1562.09H705.05C704.07 1573.95 703.286 1579.93 701.718 1586.3C699.464 1595.61 696.622 1602.27 692.016 1608.84C689.468 1604.82 687.508 1602.47 684.568 1599.92C690.056 1591.79 692.506 1584.63 694.074 1572.19C695.544 1561.11 695.642 1558.17 695.838 1542.1H694.76C691.33 1542.1 688.586 1542.3 686.724 1542.59V1532.01C689.566 1532.5 691.428 1532.6 695.74 1532.6H701.326V1527.5C701.326 1523.97 701.13 1521.42 700.738 1518.88H712.302C711.91 1521.62 711.812 1523.38 711.812 1527.5V1532.6H716.026C720.24 1532.6 722.396 1532.5 724.944 1532.11V1539.65C729.452 1532.89 733.568 1523.58 734.548 1518.19L745.622 1520.35C745.132 1521.03 744.642 1522.21 743.956 1524.07C743.662 1524.76 742.976 1526.32 741.408 1529.95H766.398C770.71 1529.95 773.944 1529.75 776.492 1529.36V1539.95C774.14 1539.75 770.024 1539.55 766.496 1539.55H736.704C734.842 1542.69 733.47 1544.94 731.216 1548.28H738.468C738.076 1550.82 737.978 1551.9 737.978 1555.92V1558.08L745.72 1556.02V1550.73C745.72 1547.2 745.524 1544.26 745.328 1542.59H755.422C755.03 1544.45 754.834 1546.81 754.834 1550.24V1553.57L764.732 1550.82C765.222 1550.73 766.398 1550.33 768.162 1549.75C769.044 1549.45 769.828 1549.16 770.514 1548.96C772.278 1548.57 772.376 1548.47 773.552 1547.98C773.062 1571.8 772.572 1577.77 771.004 1581.3C769.632 1584.24 767.574 1585.12 762.086 1585.12C761.4 1585.12 761.4 1585.12 758.264 1585.03C757.872 1581.3 757.284 1579.05 756.01 1575.81C757.872 1576.21 759.342 1576.4 760.714 1576.4C762.772 1576.4 763.066 1575.81 763.458 1571.7C763.752 1568.27 763.85 1564.84 763.85 1560.62L754.834 1563.17V1580.62C754.834 1585.03 754.932 1586.5 755.226 1588.75H745.328C745.622 1586.2 745.72 1584.83 745.72 1580.62V1565.72Z" fill="black"/>
<path d="M664.478 1532.11L670.75 1538.28C669.77 1539.75 669.378 1540.63 668.3 1544.16C663.792 1559.06 656.834 1572.29 648.21 1581.99C639.194 1592.28 628.414 1599.92 613.322 1606.88C610.578 1601.98 609.304 1600.31 604.992 1596.59C614.792 1592.57 620.28 1589.63 626.454 1585.03C640.468 1574.64 649.68 1561.21 655.07 1543.67L625.572 1544.16C619.594 1553.67 611.95 1562.09 602.64 1569.25C599.7 1565.23 598.23 1563.96 593.134 1560.82C604.306 1553.18 611.362 1545.34 618.516 1532.4C621.554 1526.81 623.122 1522.99 623.514 1519.46L636.94 1522.11C636.352 1522.99 636.352 1522.99 635.274 1525.15C634.98 1525.64 634.98 1525.64 634 1527.89C633.706 1528.48 633.706 1528.48 632.726 1530.44C632.138 1531.81 632.138 1531.81 631.158 1533.58C632.432 1533.48 634 1533.38 635.862 1533.38L657.324 1533.09C661.146 1533.09 662.224 1532.89 664.478 1532.11Z" fill="black"/>
<path d="M578.434 1594.04L569.026 1604.23C560.892 1594.24 549.622 1583.26 538.94 1575.13C527.866 1587.48 516.596 1596.1 501.602 1603.45C498.858 1598.35 497.682 1596.79 493.664 1592.57C501.21 1589.63 505.914 1586.99 513.264 1581.79C528.062 1571.4 539.822 1557.19 546.192 1541.91L547.27 1539.36C545.702 1539.46 545.702 1539.46 514.832 1539.95C510.128 1540.04 507.482 1540.24 504.15 1540.73L503.758 1528.19C506.502 1528.68 508.364 1528.77 512.382 1528.77C512.774 1528.77 513.558 1528.77 514.734 1528.77L549.23 1528.28C554.718 1528.19 555.502 1528.09 557.952 1527.21L564.42 1533.87C563.146 1535.34 562.362 1536.71 561.284 1539.16C556.776 1549.65 551.974 1558.17 545.996 1566.21C552.17 1570.33 557.462 1574.44 564.126 1580.42C566.576 1582.58 566.576 1582.58 578.434 1594.04Z" fill="black"/>
<path d="M408.502 1560.92L418.106 1553.96C423.3 1558.27 426.24 1560.92 430.258 1564.84C435.648 1570.33 435.648 1570.33 436.334 1570.91C441.43 1566.6 445.546 1562.68 449.172 1558.57C453.386 1553.86 458.776 1546.51 461.128 1542.59C461.422 1542.1 461.422 1542.1 461.716 1541.71C461.814 1541.42 461.814 1541.42 461.912 1541.22C460.932 1541.32 459.462 1541.42 457.404 1541.42H421.732C418.204 1541.42 415.362 1541.42 410.658 1541.42C402.72 1541.51 401.74 1541.51 398.114 1541.91V1529.46C401.936 1530.05 404.19 1530.15 410.854 1530.15L465.342 1530.05C469.556 1530.05 471.026 1529.95 473.476 1529.26L480.336 1537.01C478.866 1538.57 478.278 1539.26 476.024 1542.79C466.714 1557.78 456.424 1569.84 444.37 1579.93C448.486 1584.63 452.21 1589.34 457.306 1596.3L447.016 1604.53C441.528 1595.71 436.334 1588.95 428.102 1579.83C420.556 1571.5 415.656 1566.7 408.502 1560.92Z" fill="black"/>
<path d="M376.162 1526.03L382.728 1533.48C381.356 1535.14 381.356 1535.24 378.808 1540.34C375.378 1547.59 369.694 1554.94 363.716 1560.04C359.796 1563.47 356.562 1565.62 351.956 1568.17C349.016 1564.05 347.546 1562.58 343.136 1559.25C349.702 1556.31 353.426 1554.06 357.444 1550.24C361.462 1546.51 364.5 1542.49 366.754 1537.79H315.304C308.444 1537.79 305.994 1537.89 301.976 1538.38V1526.13C305.7 1526.72 308.738 1526.91 315.5 1526.91H366.656C372.536 1526.91 373.418 1526.81 376.162 1526.03ZM329.612 1545.83H342.94C342.646 1547.69 342.646 1547.79 342.548 1553.76C342.156 1570.52 339.51 1579.93 332.846 1588.46C326.966 1596 319.812 1601 307.562 1606.1C305.014 1600.8 303.74 1599.04 299.82 1594.92C307.758 1592.57 312.168 1590.42 316.97 1586.59C326.966 1578.66 330.102 1570.23 330.102 1551.71C330.102 1548.77 330.004 1547.88 329.612 1545.83Z" fill="black"/>
<path d="M205.054 1580.32L196.724 1568.27C198.292 1567.19 199.076 1566.6 200.252 1565.33C203.094 1562.49 212.698 1551.12 217.794 1544.55C221.126 1540.14 223.184 1537.99 225.144 1536.81C227.202 1535.44 229.456 1534.85 231.808 1534.85C236.61 1534.85 238.962 1536.42 246.41 1544.85C256.504 1556.12 266.598 1566.11 278.162 1576.21C283.356 1580.62 285.12 1582.09 287.472 1583.56L281.298 1596.98C261.698 1578.95 257.288 1574.64 239.844 1555.53C233.572 1548.67 233.572 1548.67 231.906 1548.67C230.338 1548.67 229.946 1548.96 225.928 1554.35C221.812 1559.84 215.246 1567.97 208.386 1576.21C206.916 1577.87 206.426 1578.56 205.054 1580.32Z" fill="black"/>
<path d="M650.172 1424.15L644.364 1424.49C644.316 1423.62 644.268 1423.34 644.124 1422.23C643.212 1416.42 642.876 1412.73 642.876 1407.88C642.876 1401.69 643.452 1396.22 644.844 1389.11C645.372 1386.42 645.468 1385.94 645.564 1384.65L651.9 1385.32C650.748 1388.15 649.644 1393.53 648.876 1399.67C648.396 1403.27 648.204 1406.1 648.156 1410.28C648.156 1411.34 648.108 1411.72 648.06 1412.92C648.588 1411.24 648.684 1410.9 650.556 1406.58L654.396 1408.31C651.756 1413.88 650.124 1419.45 650.124 1422.86C650.124 1423.14 650.124 1423.53 650.172 1424.15ZM656.796 1395.4L656.892 1389.64C659.052 1390.22 661.596 1390.41 665.772 1390.41C671.1 1390.41 675.66 1389.98 678.828 1389.11L679.116 1394.92C678.732 1394.97 678.012 1395.06 675.708 1395.35C672.636 1395.74 668.988 1395.93 665.436 1395.93C661.932 1395.93 661.884 1395.93 656.796 1395.4ZM660.108 1403.32L664.812 1405.53C662.412 1408.31 661.404 1410.38 661.404 1412.44C661.404 1415.18 664.044 1416.62 669.036 1416.62C673.26 1416.62 677.436 1415.94 680.46 1414.79L680.94 1420.89C680.268 1420.94 680.076 1420.98 678.972 1421.18C675.132 1421.8 672.204 1422.09 669.036 1422.09C663.084 1422.09 659.244 1420.74 657.132 1417.91C656.22 1416.71 655.692 1414.94 655.692 1413.21C655.692 1410.09 657.132 1406.87 660.108 1403.32Z" fill="black"/>
<path d="M610.38 1389.69V1386.76C610.38 1385.18 610.284 1383.93 610.044 1382.78H616.236C616.044 1383.78 615.948 1385.03 615.948 1386.76V1389.69H629.148C631.836 1389.69 633.564 1389.59 635.196 1389.35V1395.16C633.708 1394.97 632.22 1394.87 629.34 1394.87H611.772C611.532 1398.47 611.532 1398.62 611.388 1400.06H624.684C627.18 1400.06 628.524 1400.01 629.628 1399.82C629.628 1400.06 629.628 1400.2 629.58 1400.3C629.484 1401.02 629.484 1401.59 629.388 1403.66C629.196 1410.86 628.572 1417.05 627.756 1420.5C626.652 1425.06 625.068 1426.26 620.268 1426.26C618.588 1426.26 617.484 1426.22 613.788 1425.93C613.596 1423.72 613.212 1422.14 612.396 1420.36C615.18 1420.79 617.388 1420.98 619.596 1420.98C621.708 1420.98 622.188 1420.46 622.812 1417.14C623.388 1414.26 623.676 1411.24 623.868 1405.1H610.62C608.604 1414.74 604.284 1420.89 595.212 1426.84C594.012 1424.73 593.1 1423.67 591.324 1422.28C595.548 1419.64 597.612 1417.96 599.916 1415.18C604.044 1410.23 605.676 1404.66 605.916 1394.87H598.044C595.644 1394.87 593.676 1394.97 592.044 1395.16V1389.35C593.772 1389.59 595.596 1389.69 598.044 1389.69H610.38Z" fill="black"/>
<path d="M569.244 1392.23C568.332 1399.77 566.652 1406.39 564.252 1411.82C561.516 1418.01 558.444 1420.84 554.508 1420.84C549.036 1420.84 545.1 1415.27 545.1 1407.54C545.1 1402.26 546.972 1397.32 550.38 1393.58C554.412 1389.16 560.076 1386.86 566.892 1386.86C578.412 1386.86 585.9 1393.86 585.9 1404.66C585.9 1412.97 581.58 1419.59 574.236 1422.57C571.932 1423.53 570.06 1424.01 566.7 1424.58C565.884 1422.04 565.308 1420.98 563.772 1418.97C568.188 1418.39 571.068 1417.62 573.324 1416.33C577.5 1414.02 579.996 1409.46 579.996 1404.33C579.996 1399.72 577.932 1395.98 574.092 1393.67C572.604 1392.81 571.356 1392.42 569.244 1392.23ZM563.388 1392.28C560.892 1392.57 559.164 1393.24 557.196 1394.63C553.164 1397.51 550.668 1402.46 550.668 1407.59C550.668 1411.53 552.348 1414.65 554.46 1414.65C556.044 1414.65 557.676 1412.63 559.404 1408.5C561.228 1404.18 562.812 1397.7 563.388 1392.28Z" fill="black"/>
<path d="M496.332 1407.93L495.804 1402.98C496.524 1403.08 496.908 1403.13 497.868 1403.13C498.204 1403.13 498.684 1403.13 499.788 1403.08C501.42 1401.06 501.612 1400.82 502.572 1399.58C499.98 1396.26 499.5 1395.74 495.996 1392.47L498.732 1388.49C499.404 1389.3 499.692 1389.59 500.172 1390.17C501.996 1387.38 503.676 1384.12 504.156 1382.39L508.716 1384.26C508.428 1384.7 508.236 1385.03 507.708 1385.99C506.604 1388.2 504.444 1391.7 503.244 1393.34C504.06 1394.3 504.588 1394.87 505.26 1395.74C508.38 1391.22 509.772 1388.92 510.444 1387.34L514.86 1389.88C514.38 1390.41 514.092 1390.89 513.276 1392.09C510.588 1396.07 507.228 1400.54 505.164 1402.89C507.996 1402.74 508.188 1402.74 510.636 1402.46C510.204 1401.26 510.012 1400.78 509.244 1399.19L512.844 1397.75C514.092 1400.2 515.388 1403.42 516.636 1407.11L512.604 1408.79C512.364 1407.69 512.268 1407.3 512.076 1406.54C510.636 1406.68 509.532 1406.82 508.668 1406.87V1421.99C508.668 1424.39 508.764 1425.69 508.956 1427.13H503.676C503.868 1425.69 503.964 1424.39 503.964 1421.99V1407.3C501.9 1407.45 500.412 1407.54 499.452 1407.64C497.388 1407.78 497.244 1407.78 496.332 1407.93ZM533.484 1394.68H522.396C520.668 1398.14 519.852 1399.48 517.596 1402.26C516.636 1400.78 515.532 1399.67 513.756 1398.38C516.156 1395.64 518.172 1392.23 519.42 1388.82C520.332 1386.42 520.908 1384.36 521.148 1382.78L526.524 1383.74C526.284 1384.36 526.284 1384.36 525.9 1385.7C525.276 1387.67 525.084 1388.25 524.508 1389.74H534.972C536.988 1389.74 537.852 1389.69 538.908 1389.54C538.716 1391.08 538.716 1391.08 538.668 1397.9C538.62 1403.37 538.092 1411.72 537.564 1415.66C536.796 1421.18 535.932 1423.82 534.348 1425.06C533.244 1425.93 531.324 1426.31 528.204 1426.31C526.956 1426.31 525.468 1426.26 523.74 1426.12C523.5 1424.01 523.164 1422.81 522.396 1420.74C524.844 1421.18 527.004 1421.37 528.684 1421.37C530.844 1421.37 531.372 1420.79 531.948 1417.82C532.908 1413.16 533.484 1404.66 533.484 1394.68ZM497.82 1409.56L502.188 1410.23C501.852 1416.23 501.18 1420.26 499.836 1424.44L495.564 1422.47C496.908 1418.34 497.532 1415.03 497.82 1409.56ZM510.492 1410.23L514.38 1409.27C515.388 1413.5 516.156 1417.48 516.684 1421.51L512.316 1422.57C511.98 1418.87 511.308 1414.02 510.492 1410.23ZM529.212 1412.3L524.604 1414.74C522.588 1408.89 521.628 1406.73 519.132 1402.55L523.308 1400.25C526.14 1404.76 527.388 1407.35 529.212 1412.3Z" fill="black"/>
<path d="M484.092 1384.36L487.068 1387.86C483.852 1390.7 483.564 1390.94 481.5 1392.42C478.572 1394.39 476.556 1395.74 474.06 1397.27C475.116 1397.94 475.164 1397.99 476.316 1398.76L474.876 1400.2H483.468C486.252 1400.2 487.788 1400.1 488.796 1399.96L491.82 1403.18C491.772 1403.22 490.716 1404.57 488.7 1407.26C486.444 1410.23 484.62 1412.15 481.068 1415.18C479.532 1413.45 478.62 1412.63 476.844 1411.58C480.396 1408.94 481.644 1407.74 483.804 1405.05H472.668V1421.56C472.668 1425.5 471.084 1426.55 465.18 1426.55C463.596 1426.55 461.196 1426.5 459.708 1426.41C459.42 1424.3 459.084 1423 458.316 1421.08C461.196 1421.46 462.876 1421.56 465.324 1421.56C466.908 1421.56 467.244 1421.32 467.244 1420.26V1405.05H454.524C451.836 1405.05 450.156 1405.14 448.476 1405.34V1399.91C450.012 1400.1 451.644 1400.2 454.764 1400.2H469.596C465.516 1397.22 463.068 1395.69 459.036 1393.38L462.54 1390.12C465.708 1391.85 466.764 1392.52 469.596 1394.3C472.044 1393 473.052 1392.38 477.228 1389.35H458.508C455.436 1389.35 454.332 1389.4 452.7 1389.59V1384.26C454.38 1384.5 455.82 1384.55 458.604 1384.55H479.964C482.076 1384.55 482.94 1384.5 484.092 1384.36Z" fill="black"/>
<path d="M407.052 1392.57L407.484 1386.86C411.18 1387.72 415.452 1388.06 421.884 1388.06C427.98 1388.06 431.388 1387.82 434.556 1387.14L434.748 1392.57C431.868 1393.82 425.964 1397.51 421.932 1400.49L417.756 1397.18C420.78 1395.26 421.308 1394.92 422.508 1394.25C422.988 1393.96 423.132 1393.86 423.756 1393.48C424.14 1393.29 424.188 1393.29 424.812 1392.9C422.7 1393.19 420.636 1393.29 417.612 1393.29C415.164 1393.29 411.18 1393.05 408.828 1392.71C408.252 1392.66 407.916 1392.62 407.724 1392.62C407.628 1392.62 407.388 1392.57 407.052 1392.57ZM410.604 1403.42L414.78 1406.58C411.756 1409.13 410.412 1411.14 410.412 1413.21C410.412 1416.33 413.916 1417.67 422.028 1417.67C427.74 1417.67 434.028 1416.81 437.1 1415.61L437.628 1422.18C436.764 1422.23 436.62 1422.23 435.516 1422.38C429.756 1423.24 426.684 1423.48 422.556 1423.48C417.324 1423.48 413.1 1422.95 410.556 1421.9C406.428 1420.26 404.412 1417.62 404.412 1413.88C404.412 1410.18 406.284 1407.02 410.604 1403.42ZM443.58 1401.45L440.268 1403.32C438.828 1400.68 437.244 1398.42 435.372 1396.36L438.588 1394.68C440.748 1396.89 442.092 1398.71 443.58 1401.45ZM429.468 1399.19L432.828 1397.51C434.94 1399.77 436.236 1401.59 437.868 1404.57L434.508 1406.34C432.924 1403.42 431.58 1401.5 429.468 1399.19Z" fill="black"/>
<path d="M783.7 1321.78L783.364 1315.5C784.42 1315.54 784.948 1315.54 785.188 1315.54C786.052 1315.54 786.052 1315.54 793.108 1315.06C796.612 1314.87 804.82 1314.44 817.636 1313.82C821.572 1313.62 821.812 1313.62 822.58 1313.43L822.916 1319.53C822.388 1319.48 822.388 1319.48 821.908 1319.48C819.028 1319.48 815.476 1320.44 812.404 1322.07C806.308 1325.24 802.708 1330.04 802.708 1334.89C802.708 1338.63 805.06 1341.51 809.092 1342.71C811.444 1343.43 814.516 1343.96 816.244 1343.96C816.292 1343.96 816.724 1343.96 817.204 1343.91L816.34 1350.44C815.716 1350.3 815.62 1350.3 814.708 1350.15C809.428 1349.48 806.404 1348.62 803.476 1346.98C799.06 1344.49 796.612 1340.41 796.612 1335.42C796.612 1331.34 798.244 1327.3 801.172 1324.14C802.996 1322.17 804.724 1320.87 807.844 1319.29C803.956 1319.86 800.98 1320.15 791.668 1320.82C787.396 1321.16 785.188 1321.45 783.7 1321.78ZM813.076 1326.39L816.436 1324.71C818.548 1326.97 819.844 1328.79 821.476 1331.77L818.116 1333.54C816.532 1330.62 815.188 1328.7 813.076 1326.39ZM827.188 1328.65L823.876 1330.52C822.436 1327.88 820.852 1325.62 818.98 1323.56L822.196 1321.88C824.356 1324.09 825.7 1325.91 827.188 1328.65Z" fill="black"/>
<path d="M735.221 1333.93V1327.26C737.333 1327.54 738.245 1327.59 742.997 1327.59H768.581C773.333 1327.59 774.245 1327.54 776.357 1327.26V1333.93C774.437 1333.69 773.909 1333.69 768.533 1333.69H743.045C737.669 1333.69 737.141 1333.69 735.221 1333.93Z" fill="black"/>
<path d="M715.204 1344.78H720.244C722.452 1344.78 723.364 1344.73 724.66 1344.49V1349.96C723.364 1349.82 722.26 1349.77 720.244 1349.77H695.332C693.22 1349.77 692.212 1349.82 690.916 1349.96V1344.49C692.26 1344.73 693.124 1344.78 695.332 1344.78H709.492C710.308 1340.5 711.316 1333.74 711.796 1329.37H699.892C697.588 1329.37 696.868 1329.42 695.62 1329.56V1324.14C696.82 1324.33 698.164 1324.42 700.036 1324.42H712.18C713.86 1324.42 714.58 1324.33 715.732 1323.99L718.372 1326.3C717.796 1327.78 717.796 1327.78 717.268 1331.77C716.548 1337.05 716.02 1340.46 715.204 1344.78Z" fill="black"/>
<path d="M644.693 1322.17V1315.83C646.421 1316.12 647.525 1316.17 650.357 1316.17H669.221C672.053 1316.17 673.157 1316.12 674.885 1315.83V1322.17C673.301 1321.98 672.149 1321.93 669.269 1321.93H650.309C647.429 1321.93 646.277 1321.98 644.693 1322.17ZM639.845 1345.64V1339.21C641.669 1339.5 642.725 1339.54 645.989 1339.54H673.541C676.805 1339.54 677.861 1339.5 679.685 1339.21V1345.64C678.005 1345.45 676.757 1345.4 673.637 1345.4H645.893C642.773 1345.4 641.525 1345.45 639.845 1345.64Z" fill="black"/>
<path d="M620.116 1310.55L626.644 1312.81C626.116 1313.72 625.924 1314.1 624.964 1316.26C621.94 1323.42 620.068 1327.06 618.196 1329.85C622.228 1333.26 624.724 1335.61 628.9 1340.02L624.292 1344.97C621.796 1341.7 618.916 1338.73 614.548 1334.84C612.484 1337.58 609.988 1340.26 607.06 1342.86C603.604 1345.88 600.532 1348.04 595.636 1350.78C594.34 1348.47 593.572 1347.61 591.412 1345.78C596.74 1343.14 600.052 1340.94 603.844 1337.48C606.148 1335.42 608.068 1333.35 609.94 1330.95C606.1 1327.78 601.492 1324.66 597.22 1322.31L601.444 1318.09C604.948 1320.15 607.012 1321.5 609.364 1323.18C612.964 1325.77 612.964 1325.77 613.348 1326.01C616.42 1320.97 619.492 1314.01 620.116 1310.55Z" fill="black"/>
<path d="M546.484 1321.35L546.244 1316.26C547.636 1316.41 548.74 1316.46 550.852 1316.46C554.5 1316.46 557.092 1316.31 560.74 1315.93C560.596 1315.54 560.596 1315.54 560.212 1314.68C559.012 1311.9 558.34 1310.41 558.292 1310.31L564.292 1309.5C564.484 1310.7 564.964 1312.14 566.26 1315.3C570.34 1314.78 575.908 1313.53 579.22 1312.42L579.7 1317.51C579.22 1317.61 579.22 1317.61 578.068 1317.85C574.852 1318.62 569.524 1319.67 568.036 1319.86C568.804 1321.64 569.092 1322.26 569.908 1323.8C574.036 1322.94 576.244 1322.46 576.532 1322.41C579.268 1321.74 579.844 1321.54 581.092 1321.02L581.572 1326.25C580.66 1326.39 579.652 1326.58 578.548 1326.87C576.58 1327.35 574.996 1327.69 573.844 1327.93C572.644 1328.17 572.644 1328.17 572.068 1328.31C574.564 1332.44 575.332 1333.45 578.5 1337.1L574.276 1340.12C570.82 1338.68 567.94 1338.15 563.236 1338.15C559.588 1338.15 556.804 1338.63 555.172 1339.5C553.828 1340.26 553.108 1341.27 553.108 1342.42C553.108 1343.58 553.924 1344.68 555.172 1345.21C556.708 1345.88 559.252 1346.26 562.036 1346.26C567.028 1346.26 573.796 1344.82 576.82 1343.14L577.684 1349.05C576.772 1349.19 576.772 1349.19 574.564 1349.77C570.484 1350.87 566.5 1351.4 562.276 1351.4C556.756 1351.4 553.252 1350.68 550.564 1349.05C548.26 1347.61 546.868 1345.16 546.868 1342.47C546.868 1339.88 548.308 1337.48 550.9 1335.8C553.396 1334.22 557.236 1333.4 562.084 1333.4C565.012 1333.4 567.796 1333.74 570.388 1334.41C569.62 1333.69 568.708 1332.34 566.692 1329.03C561.604 1329.8 558.532 1329.99 548.116 1330.33C547.3 1330.38 546.964 1330.38 546.148 1330.47L545.956 1325.24C547.348 1325.43 547.636 1325.43 550.9 1325.43C555.94 1325.43 559.924 1325.14 564.484 1324.52C564.196 1323.94 564.004 1323.66 563.62 1322.74C563.14 1321.74 562.996 1321.45 562.612 1320.58C558.772 1321.02 555.316 1321.21 549.748 1321.26C547.732 1321.26 547.492 1321.3 546.484 1321.35Z" fill="black"/>
<path d="M526.229 1319.14V1314.92C526.229 1312.62 526.133 1310.65 525.893 1308.97H531.7C531.508 1310.79 531.412 1312.52 531.412 1314.92V1319.14H532.804C534.916 1319.14 536.212 1319.05 537.46 1318.86V1324.14C536.164 1324.04 534.628 1323.94 532.949 1323.94H531.412V1346.36C531.412 1348.86 530.884 1350.34 529.78 1351.06C528.724 1351.78 527.428 1351.98 523.876 1351.98C522.148 1351.98 520.852 1351.93 518.788 1351.78C518.5 1349.67 518.164 1348.42 517.252 1346.36C519.988 1346.7 521.476 1346.84 523.156 1346.84C525.844 1346.84 526.229 1346.7 526.229 1345.64V1323.94H513.173C511.205 1323.94 509.092 1324.04 507.508 1324.23V1318.86C508.996 1319.05 510.724 1319.14 512.932 1319.14H526.229ZM505.348 1319.86V1347.13C505.348 1349.29 505.444 1351.06 505.588 1352.89H499.828C500.02 1351.16 500.116 1349.53 500.116 1347.13V1332.97C500.116 1330.62 500.116 1329.51 500.212 1327.59C498.58 1330.28 497.812 1331.29 496.084 1333.06C495.364 1330.95 494.644 1329.46 493.396 1327.59C497.14 1323.85 499.972 1319.62 502.276 1314.25C503.428 1311.61 503.956 1309.98 504.244 1308.25L509.764 1309.78C509.428 1310.5 509.092 1311.32 508.612 1312.57C508.036 1314.15 506.692 1317.18 505.348 1319.86ZM509.716 1329.85L513.892 1327.16C517.204 1331.19 519.029 1333.98 521.285 1338.34L516.82 1341.51C514.516 1336.42 512.836 1333.69 509.716 1329.85Z" fill="black"/>
<path d="M447.221 1333.93V1327.26C449.333 1327.54 450.245 1327.59 454.997 1327.59H480.581C485.333 1327.59 486.245 1327.54 488.357 1327.26V1333.93C486.437 1333.69 485.909 1333.69 480.533 1333.69H455.045C449.669 1333.69 449.141 1333.69 447.221 1333.93Z" fill="black"/>
<path d="M409.11 1314.1H431.142C432.582 1314.1 433.158 1314.06 433.974 1314.01C434.022 1310.89 436.422 1308.44 439.494 1308.44C442.566 1308.44 445.062 1310.94 445.062 1313.96C445.062 1317.03 442.566 1319.53 439.494 1319.53C439.206 1319.53 438.918 1319.48 438.582 1319.43C434.694 1335.13 426.198 1344.92 411.03 1351.26C409.782 1348.76 408.966 1347.66 406.806 1345.54C420.102 1341.42 428.79 1332.49 431.862 1319.72H409.014C405.462 1319.72 404.55 1319.77 402.966 1320.01V1313.77C404.694 1314.06 405.846 1314.1 409.11 1314.1ZM439.494 1310.84C437.766 1310.84 436.374 1312.23 436.374 1313.96C436.374 1315.69 437.766 1317.13 439.494 1317.13C441.27 1317.13 442.662 1315.69 442.662 1313.96C442.662 1312.23 441.27 1310.84 439.494 1310.84Z" fill="black"/>
<path d="M355.59 1318.18L359.574 1313.43C365.286 1316.98 368.262 1319.19 371.958 1322.7L367.83 1327.93C363.99 1323.85 360.054 1320.68 355.59 1318.18ZM357.27 1349.86L355.494 1343.24C359.622 1343 365.334 1341.61 369.702 1339.69C375.702 1337.1 380.166 1333.4 383.958 1327.93C386.07 1324.86 387.414 1322.22 388.854 1318.33C390.726 1320.58 391.494 1321.3 393.942 1323.03C389.862 1331.82 385.302 1337.48 378.726 1341.85C373.83 1345.11 367.878 1347.46 360.438 1349.05C358.518 1349.43 358.374 1349.48 357.27 1349.86Z" fill="black"/>
<path d="M318.115 1325.77L317.395 1321.98C317.011 1319.91 316.915 1319.43 316.483 1318.38L322.195 1317.51C322.195 1318.47 322.339 1319.53 322.675 1321.21L323.395 1324.9L337.747 1322.5C339.139 1322.31 339.955 1322.07 340.915 1321.69L344.275 1324.71C343.843 1325.34 343.555 1325.86 343.075 1327.02C340.963 1332.34 338.227 1335.94 333.619 1339.5C331.891 1337.67 331.171 1337.14 329.155 1336.09C332.707 1333.88 335.347 1331.1 337.315 1327.5C336.739 1327.64 336.739 1327.64 335.539 1327.83L324.259 1329.7L327.667 1347.46C328.147 1350.1 328.147 1350.1 328.579 1351.35L322.579 1352.41C322.579 1351.16 322.483 1350.1 322.195 1348.52L318.931 1330.62L314.803 1331.29C313.123 1331.58 311.971 1331.86 310.579 1332.34L309.571 1326.87C311.107 1326.87 312.307 1326.73 314.131 1326.44L318.115 1325.77Z" fill="black"/>
<path d="M264.355 1315.74L267.475 1310.89C272.419 1312.81 276.211 1314.63 280.243 1317.08L277.171 1322.36C272.803 1319.43 268.531 1317.18 264.355 1315.74ZM260.563 1327.4L263.779 1322.5C268.723 1324.47 272.419 1326.34 276.547 1329.03L273.571 1334.46C269.731 1331.62 265.459 1329.32 260.563 1327.4ZM263.299 1350.54L261.619 1344.01C265.267 1343.96 270.499 1342.81 275.491 1340.89C281.443 1338.58 285.523 1335.46 289.363 1330.33C291.955 1326.87 293.443 1323.99 294.931 1319.72C296.899 1321.78 297.619 1322.41 299.923 1323.99C297.715 1329.32 295.699 1332.63 292.723 1336.14C286.627 1343.14 278.467 1347.42 266.659 1349.77C264.931 1350.1 264.259 1350.25 263.299 1350.54Z" fill="black"/>
<path d="M628.738 1156.46H638.033C637.773 1158.74 637.578 1161.53 637.578 1164.46V1166.47H640.308C643.363 1166.47 644.793 1166.41 646.873 1166.08V1173.75C644.728 1173.43 643.493 1173.36 640.503 1173.36H637.578V1193.51C637.578 1196.7 638.748 1197.87 641.868 1197.87C643.558 1197.87 644.598 1197.54 646.613 1196.44L647.783 1203.33C644.988 1204.37 643.038 1204.69 639.658 1204.69C632.183 1204.69 629.193 1202.03 629.193 1195.2V1173.36H626.723C624.318 1173.36 623.083 1173.43 620.938 1173.75V1166.08C622.823 1166.41 624.058 1166.47 626.788 1166.47H629.193V1164.46C629.193 1161.66 628.998 1158.8 628.738 1156.46Z" fill="black"/>
<path d="M617.967 1187.27H589.692C590.017 1190.85 590.602 1192.67 592.097 1194.55C593.982 1196.89 596.907 1198.19 600.222 1198.19C603.407 1198.19 606.137 1197.02 608.022 1194.94C608.802 1194.03 609.257 1193.32 609.907 1191.56L617.577 1194.03C616.082 1197.15 615.237 1198.39 613.612 1200.01C610.232 1203.33 605.682 1205.02 600.222 1205.02C588.717 1205.02 581.437 1197.35 581.437 1185.19C581.437 1173.17 588.652 1165.3 599.767 1165.3C607.372 1165.3 613.352 1169.07 615.952 1175.57C617.187 1178.69 617.642 1181.03 617.837 1185.45C617.837 1185.58 617.837 1185.78 617.967 1187.27ZM589.887 1180.84H609.517C609.062 1177.98 608.282 1176.22 606.657 1174.6C604.902 1172.84 602.692 1172 599.637 1172C594.567 1172 590.862 1175.38 589.887 1180.84Z" fill="black"/>
<path d="M542.842 1193.18L551.747 1192.08C552.852 1196.5 555.257 1198.25 560.327 1198.25C565.137 1198.25 568.127 1196.37 568.127 1193.31C568.127 1192.01 567.477 1190.78 566.437 1190.06C565.202 1189.22 564.812 1189.15 559.612 1187.98C554.477 1186.88 552.462 1186.23 550.252 1185.19C546.547 1183.43 544.532 1180.31 544.532 1176.54C544.532 1174.27 545.247 1172.12 546.547 1170.5C549.212 1167.12 553.632 1165.43 559.547 1165.43C564.877 1165.43 569.102 1166.73 571.767 1169.2C573.457 1170.82 574.367 1172.45 575.277 1175.63L566.697 1176.74C565.982 1173.16 563.772 1171.6 559.547 1171.6C555.517 1171.6 552.787 1173.42 552.787 1176.15C552.787 1177.39 553.502 1178.49 554.802 1179.21C556.232 1179.92 557.597 1180.31 561.302 1181.16C567.932 1182.59 570.597 1183.5 572.742 1185.12C575.277 1186.94 576.512 1189.61 576.512 1193.18C576.512 1195.85 575.277 1198.71 573.327 1200.53C570.337 1203.32 565.787 1204.75 559.872 1204.75C553.177 1204.75 548.172 1202.74 545.377 1198.97C544.207 1197.41 543.622 1196.11 542.842 1193.18Z" fill="black"/>
<path d="M520.638 1156.46H529.933C529.673 1158.74 529.478 1161.53 529.478 1164.46V1166.47H532.208C535.263 1166.47 536.693 1166.41 538.773 1166.08V1173.75C536.628 1173.43 535.393 1173.36 532.403 1173.36H529.478V1193.51C529.478 1196.7 530.648 1197.87 533.768 1197.87C535.458 1197.87 536.498 1197.54 538.513 1196.44L539.683 1203.33C536.888 1204.37 534.938 1204.69 531.558 1204.69C524.083 1204.69 521.093 1202.03 521.093 1195.2V1173.36H518.623C516.218 1173.36 514.983 1173.43 512.838 1173.75V1166.08C514.723 1166.41 515.958 1166.47 518.688 1166.47H521.093V1164.46C521.093 1161.66 520.898 1158.8 520.638 1156.46Z" fill="black"/>
<path d="M509.866 1187.27H481.591C481.916 1190.85 482.501 1192.67 483.996 1194.55C485.881 1196.89 488.806 1198.19 492.121 1198.19C495.306 1198.19 498.036 1197.02 499.921 1194.94C500.701 1194.03 501.156 1193.32 501.806 1191.56L509.476 1194.03C507.981 1197.15 507.136 1198.39 505.511 1200.01C502.131 1203.33 497.581 1205.02 492.121 1205.02C480.616 1205.02 473.336 1197.35 473.336 1185.19C473.336 1173.17 480.551 1165.3 491.666 1165.3C499.271 1165.3 505.251 1169.07 507.851 1175.57C509.086 1178.69 509.541 1181.03 509.736 1185.45C509.736 1185.58 509.736 1185.78 509.866 1187.27ZM481.786 1180.84H501.416C500.961 1177.98 500.181 1176.22 498.556 1174.6C496.801 1172.84 494.591 1172 491.536 1172C486.466 1172 482.761 1175.38 481.786 1180.84Z" fill="black"/>
<path d="M456.448 1152.04H466.328C465.938 1154.7 465.808 1156.39 465.808 1160.42V1189.54C465.808 1194.09 464.573 1197.73 462.298 1200.2C459.503 1203.19 455.148 1204.75 449.688 1204.75C443.838 1204.75 439.613 1203.19 436.493 1199.88C434.998 1198.25 434.218 1196.89 432.788 1193.7L441.368 1190.58C442.343 1193.57 443.253 1194.87 444.878 1195.91C446.048 1196.69 447.998 1197.15 449.753 1197.15C452.093 1197.15 454.238 1196.37 455.408 1195.07C456.448 1193.9 456.968 1192.01 456.968 1189.41V1160.42C456.968 1156.52 456.838 1154.64 456.448 1152.04Z" fill="black"/>
</svg>
