<svg width="1080" height="1920" viewBox="0 0 1080 1920" fill="none" xmlns="http://www.w3.org/2000/svg">
<path d="M1080 1920L1080 0L0 0L0 1920H1080Z" fill="#A5D4AD"/>
<path d="M1020 983.72V95C1020 75.67 1004.33 60 985 60H95.58C75.93 60 60 75.93 60 95.58V983.71C60 984.03 60.25 984.28 60.57 984.28C80.03 984.59 95.71 1000.46 95.71 1019.99C95.71 1039.52 80.03 1055.39 60.57 1055.7C60.25 1055.7 60 1055.96 60 1056.27V1824.99C60 1844.32 75.67 1859.99 95 1859.99H985C1004.33 1859.99 1020 1844.32 1020 1824.99V1056.27C1020 1055.95 1019.75 1055.7 1019.43 1055.7C999.97 1055.39 984.29 1039.52 984.29 1019.99C984.29 1000.46 999.97 984.59 1019.43 984.28C1019.75 984.28 1020 984.02 1020 983.71V983.72Z" fill="white"/>
<path d="M60.57 1055.71C60.25 1055.71 60 1055.97 60 1056.28V1825C60 1844.33 75.67 1860 95 1860H985C1004.33 1860 1020 1844.33 1020 1825V1056.28C1020 1055.96 1019.75 1055.71 1019.43 1055.71C999.97 1055.4 984.29 1039.53 984.29 1020H95.71C95.71 1039.53 80.03 1055.4 60.57 1055.71Z" fill="#E5F2E6"/>
<path d="M121 1020H160.9" stroke="black" stroke-width="6" stroke-miterlimit="10"/>
<path d="M187.51 1020H227.41" stroke="black" stroke-width="6" stroke-miterlimit="10"/>
<path d="M254.02 1020H293.92" stroke="black" stroke-width="6" stroke-miterlimit="10"/>
<path d="M320.52 1020H360.43" stroke="black" stroke-width="6" stroke-miterlimit="10"/>
<path d="M387.029 1020H426.939" stroke="black" stroke-width="6" stroke-miterlimit="10"/>
<path d="M453.539 1020H493.439" stroke="black" stroke-width="6" stroke-miterlimit="10"/>
<path d="M520.051 1020H559.951" stroke="black" stroke-width="6" stroke-miterlimit="10"/>
<path d="M586.561 1020H626.461" stroke="black" stroke-width="6" stroke-miterlimit="10"/>
<path d="M653.061 1020H692.971" stroke="black" stroke-width="6" stroke-miterlimit="10"/>
<path d="M719.57 1020H759.48" stroke="black" stroke-width="6" stroke-miterlimit="10"/>
<path d="M786.08 1020H825.98" stroke="black" stroke-width="6" stroke-miterlimit="10"/>
<path d="M852.59 1020H892.49" stroke="black" stroke-width="6" stroke-miterlimit="10"/>
<path d="M919.1 1020H959" stroke="black" stroke-width="6" stroke-miterlimit="10"/>
<path d="M1020 984.29V95C1020 75.67 1004.33 60 985 60H95C75.67 60 60 75.67 60 95V984.29C79.72 984.29 95.71 1000.28 95.71 1020C95.71 1039.72 79.72 1055.71 60 1055.71V1825C60 1844.33 75.67 1860 95 1860H985C1004.33 1860 1020 1844.33 1020 1825V1055.71C1000.28 1055.71 984.29 1039.72 984.29 1020C984.29 1000.28 1000.28 984.29 1020 984.29Z" stroke="black" stroke-width="6" stroke-miterlimit="10"/>
<path d="M912.642 525.66C908.772 525.66 905.532 522.64 905.312 518.73C900.582 435.62 868.782 358.85 813.362 296.74C810.662 293.71 810.922 289.06 813.952 286.36C816.982 283.66 821.622 283.92 824.332 286.95C881.992 351.57 915.062 431.43 919.992 517.89C920.222 521.94 917.122 525.42 913.072 525.65C912.932 525.65 912.792 525.66 912.652 525.66H912.642Z" fill="black"/>
<path d="M818.842 795.509C817.102 795.509 815.352 794.889 813.952 793.639C810.922 790.939 810.662 786.289 813.362 783.259C868.782 721.149 900.582 644.379 905.312 561.269C905.542 557.219 909.022 554.109 913.072 554.349C917.122 554.579 920.222 558.049 919.992 562.109C915.062 648.579 881.992 728.439 824.332 793.049C822.882 794.679 820.862 795.509 818.842 795.509Z" fill="black"/>
<path d="M167.352 525.66C167.212 525.66 167.072 525.66 166.932 525.65C162.882 525.42 159.782 521.95 160.012 517.89C164.942 431.42 198.012 351.56 255.672 286.95C258.372 283.92 263.022 283.66 266.052 286.36C269.082 289.06 269.342 293.71 266.642 296.74C211.222 358.85 179.422 435.61 174.692 518.73C174.472 522.64 171.232 525.66 167.362 525.66H167.352Z" fill="black"/>
<path d="M261.162 795.509C259.142 795.509 257.122 794.679 255.672 793.049C198.012 728.429 164.942 648.569 160.012 562.109C159.782 558.059 162.882 554.579 166.932 554.349C170.982 554.109 174.462 557.219 174.692 561.269C179.422 644.389 211.222 721.149 266.642 783.259C269.342 786.289 269.082 790.939 266.052 793.639C264.652 794.889 262.902 795.509 261.162 795.509Z" fill="black"/>
<path d="M788.162 268.509C786.422 268.509 784.672 267.889 783.272 266.639C721.162 211.219 644.392 179.419 561.282 174.689C557.232 174.459 554.132 170.989 554.362 166.929C554.592 162.879 558.032 159.789 562.122 160.009C648.592 164.939 728.452 198.009 793.062 255.669C796.092 258.369 796.352 263.019 793.652 266.049C792.202 267.679 790.182 268.509 788.162 268.509Z" fill="black"/>
<path d="M291.842 268.51C289.822 268.51 287.802 267.68 286.352 266.05C283.652 263.02 283.912 258.37 286.942 255.67C351.562 198.01 431.422 164.94 517.882 160.01C521.932 159.78 525.412 162.88 525.642 166.93C525.872 170.98 522.772 174.46 518.722 174.69C435.612 179.42 358.842 211.22 296.732 266.64C295.332 267.89 293.582 268.51 291.842 268.51Z" fill="black"/>
<path d="M561.682 920C557.812 920 554.572 916.98 554.352 913.07C554.122 909.02 557.222 905.54 561.272 905.31C644.392 900.58 721.152 868.78 783.262 813.36C786.292 810.66 790.942 810.92 793.642 813.95C796.342 816.98 796.082 821.63 793.052 824.33C728.432 881.99 648.572 915.06 562.112 919.99C561.972 919.99 561.832 920 561.692 920H561.682Z" fill="black"/>
<path d="M518.312 920C518.172 920 518.032 920 517.892 919.99C431.422 915.06 351.562 881.99 286.952 824.33C283.922 821.63 283.662 816.98 286.362 813.95C289.062 810.92 293.712 810.66 296.742 813.36C358.852 868.78 435.622 900.58 518.732 905.31C522.782 905.54 525.882 909.01 525.652 913.07C525.432 916.98 522.192 920 518.322 920H518.312Z" fill="black"/>
<path d="M875.372 526.191C872.362 526.191 869.842 523.841 869.672 520.801C865.402 445.791 836.702 376.521 786.692 320.461C784.592 318.101 784.792 314.491 787.152 312.391C789.502 310.291 793.122 310.491 795.222 312.851C846.972 370.851 876.672 442.541 881.092 520.151C881.272 523.301 878.862 526.001 875.712 526.181C875.602 526.181 875.492 526.181 875.382 526.181L875.372 526.191Z" fill="black"/>
<path d="M790.952 769.062C789.592 769.062 788.242 768.582 787.152 767.612C784.792 765.512 784.592 761.892 786.692 759.542C836.702 703.492 865.402 634.212 869.672 559.202C869.852 556.052 872.542 553.642 875.702 553.822C878.852 554.002 881.262 556.702 881.082 559.852C876.662 637.472 846.972 709.152 795.212 767.152C794.082 768.422 792.512 769.062 790.942 769.062H790.952Z" fill="black"/>
<path d="M204.622 526.191C204.512 526.191 204.402 526.191 204.292 526.191C201.142 526.011 198.732 523.311 198.912 520.161C203.332 442.541 233.022 370.861 284.782 312.861C286.882 310.501 290.502 310.301 292.852 312.401C295.212 314.501 295.412 318.121 293.312 320.471C243.302 376.521 214.602 445.801 210.332 520.811C210.162 523.851 207.642 526.201 204.632 526.201L204.622 526.191Z" fill="black"/>
<path d="M289.042 769.061C287.472 769.061 285.902 768.411 284.772 767.151C233.022 709.151 203.322 637.461 198.902 559.851C198.722 556.701 201.132 554.001 204.282 553.821C207.442 553.631 210.132 556.051 210.312 559.201C214.582 634.211 243.282 703.491 293.292 759.541C295.392 761.901 295.192 765.511 292.832 767.611C291.742 768.581 290.382 769.061 289.032 769.061H289.042Z" fill="black"/>
<path d="M763.342 294.762C761.982 294.762 760.632 294.282 759.542 293.312C703.492 243.302 634.212 214.602 559.202 210.332C556.052 210.152 553.642 207.452 553.822 204.302C554.002 201.152 556.692 198.742 559.852 198.922C637.472 203.342 709.152 233.032 767.152 284.792C769.512 286.892 769.712 290.512 767.612 292.862C766.482 294.132 764.912 294.772 763.342 294.772V294.762Z" fill="black"/>
<path d="M316.651 294.761C315.081 294.761 313.511 294.111 312.381 292.851C310.281 290.491 310.481 286.881 312.841 284.781C370.841 233.031 442.531 203.331 520.141 198.911C523.291 198.721 525.991 201.141 526.171 204.291C526.351 207.441 523.941 210.141 520.791 210.321C445.781 214.591 376.511 243.291 320.451 293.301C319.361 294.271 318.001 294.751 316.651 294.751V294.761Z" fill="black"/>
<path d="M559.522 881.102C556.512 881.102 553.992 878.752 553.822 875.712C553.642 872.562 556.052 869.862 559.202 869.682C634.212 865.412 703.482 836.712 759.542 786.702C761.892 784.602 765.512 784.802 767.612 787.162C769.712 789.522 769.512 793.132 767.152 795.232C709.152 846.982 637.462 876.682 559.852 881.102C559.742 881.102 559.632 881.102 559.522 881.102Z" fill="black"/>
<path d="M520.481 881.102C520.371 881.102 520.261 881.102 520.151 881.102C442.531 876.682 370.851 846.992 312.851 795.232C310.491 793.132 310.291 789.512 312.391 787.162C314.491 784.802 318.111 784.602 320.461 786.702C376.511 836.722 445.791 865.412 520.801 869.682C523.951 869.862 526.361 872.562 526.181 875.712C526.011 878.752 523.491 881.102 520.481 881.102Z" fill="black"/>
<path d="M841.841 526.51C839.691 526.51 837.891 524.83 837.771 522.66C833.911 454.91 807.991 392.34 762.821 341.71C761.321 340.03 761.471 337.45 763.151 335.94C764.831 334.44 767.411 334.58 768.921 336.27C815.341 388.29 841.971 452.58 845.931 522.19C846.061 524.44 844.341 526.37 842.081 526.5C842.001 526.5 841.921 526.5 841.841 526.5V526.51Z" fill="black"/>
<path d="M765.862 745.101C764.892 745.101 763.922 744.761 763.142 744.061C761.462 742.561 761.312 739.981 762.812 738.291C807.982 687.661 833.902 625.091 837.762 557.341C837.892 555.091 839.852 553.391 842.072 553.491C844.322 553.621 846.042 555.551 845.922 557.801C841.952 627.411 815.322 691.701 768.912 743.721C768.102 744.621 766.982 745.081 765.862 745.081V745.101Z" fill="black"/>
<path d="M238.162 526.51C238.082 526.51 238.002 526.51 237.922 526.51C235.672 526.38 233.952 524.45 234.072 522.2C238.042 452.59 264.672 388.3 311.082 336.28C312.582 334.6 315.162 334.45 316.852 335.95C318.532 337.45 318.682 340.03 317.182 341.72C272.012 392.35 246.092 454.92 242.232 522.67C242.112 524.84 240.312 526.52 238.162 526.52V526.51Z" fill="black"/>
<path d="M314.131 745.101C313.011 745.101 311.891 744.641 311.081 743.741C264.661 691.721 238.031 627.431 234.071 557.821C233.941 555.571 235.661 553.641 237.921 553.511C240.161 553.401 242.101 555.101 242.231 557.361C246.091 625.111 272.011 687.681 317.181 738.311C318.681 739.991 318.531 742.571 316.851 744.081C316.071 744.771 315.101 745.121 314.131 745.121V745.101Z" fill="black"/>
<path d="M741.01 318.219C740.04 318.219 739.07 317.879 738.29 317.179C687.66 272.009 625.09 246.089 557.34 242.229C555.09 242.099 553.37 240.169 553.49 237.919C553.62 235.669 555.54 233.959 557.8 234.069C627.41 238.039 691.7 264.669 743.73 311.079C745.41 312.579 745.56 315.159 744.06 316.849C743.25 317.749 742.13 318.209 741.01 318.209V318.219Z" fill="black"/>
<path d="M338.991 318.22C337.871 318.22 336.751 317.76 335.941 316.86C334.441 315.18 334.591 312.6 336.271 311.09C388.291 264.67 452.581 238.04 522.191 234.08C524.441 233.96 526.371 235.67 526.501 237.93C526.631 240.18 524.91 242.11 522.65 242.24C454.9 246.1 392.331 272.02 341.701 317.19C340.921 317.88 339.951 318.23 338.981 318.23L338.991 318.22Z" fill="black"/>
<path d="M557.561 845.929C555.411 845.929 553.611 844.249 553.491 842.079C553.361 839.829 555.081 837.899 557.341 837.769C625.091 833.909 687.661 807.989 738.291 762.819C739.971 761.319 742.551 761.469 744.061 763.149C745.561 764.829 745.411 767.409 743.731 768.919C691.711 815.339 627.421 841.969 557.801 845.929C557.721 845.929 557.641 845.929 557.561 845.929Z" fill="black"/>
<path d="M522.431 845.929C522.351 845.929 522.271 845.929 522.191 845.929C452.581 841.959 388.291 815.329 336.271 768.919C334.591 767.419 334.441 764.839 335.941 763.149C337.441 761.469 340.021 761.319 341.711 762.819C392.341 807.989 454.911 833.909 522.661 837.769C524.911 837.899 526.631 839.829 526.511 842.079C526.391 844.249 524.591 845.929 522.441 845.929H522.431Z" fill="black"/>
<path d="M320.642 546.17C320.642 544.6 321.782 543.27 323.332 543.02C324.632 542.81 326.262 542.52 327.972 542.12C332.392 541.08 337.582 539.11 343.402 536.27C349.282 533.4 354.912 529.41 359.162 523.67C366.332 513.97 367.852 501.4 368.182 496.89C368.252 495.97 367.522 495.19 366.592 495.19H317.082C315.322 495.19 313.902 493.76 313.902 492.01V470.69C313.902 468.93 315.332 467.51 317.082 467.51H367.062C367.942 467.51 368.652 466.8 368.652 465.92V447.18C368.652 446.3 367.942 445.59 367.062 445.59H328.612C326.852 445.59 325.432 444.16 325.432 442.41V421.09C325.432 419.33 326.862 417.91 328.612 417.91H428.952C430.712 417.91 432.132 419.34 432.132 421.09V442.41C432.132 444.17 430.702 445.59 428.952 445.59H398.512C397.632 445.59 396.922 446.3 396.922 447.18V465.92C396.922 466.8 397.632 467.51 398.512 467.51H438.572C440.332 467.51 441.752 468.94 441.752 470.69V492.01C441.752 493.77 440.322 495.19 438.572 495.19H398.382C397.532 495.19 396.832 495.86 396.792 496.71C396.562 501.75 395.142 518.44 386.172 532.85C380.722 541.61 373.642 548.26 366.532 553.54C359.402 558.84 352.252 562.93 345.262 565.7C338.232 568.49 332.332 570.44 327.742 571.51C326.652 571.76 325.482 571.99 324.392 572.18C322.442 572.53 320.652 571.03 320.652 569.04V546.16L320.642 546.17Z" fill="black"/>
<path d="M474.542 546.52C474.542 545.06 475.542 543.79 476.952 543.43C485.202 541.36 488.922 540.11 496.832 536.32C496.832 536.32 500.882 534.21 504.922 531.3C517.102 522.54 525.212 510.63 525.212 510.63C534.672 497.28 537.762 474.91 538.482 468.49C538.592 467.55 537.852 466.72 536.902 466.72H500.572C500.342 466.72 500.132 466.84 500.022 467.04L499.872 467.29C494.292 478.11 486.872 487.99 480.442 494.24C473.992 500.5 468.582 505.05 464.372 507.75L461.772 509.42C460.712 510.1 459.322 509.34 459.322 508.08V479.89C459.322 478.95 459.742 478.06 460.462 477.45C461.112 476.9 461.982 476.13 463.172 475.06C465.932 472.57 469.042 468.51 472.412 462.98C475.752 457.51 479.342 450.21 483.062 441.29C486.442 433.2 488.972 423.09 490.852 412.06C491.112 410.53 492.442 409.42 493.992 409.42H513.902C515.902 409.42 517.412 411.25 517.032 413.21C516.392 416.52 515.702 420.88 514.842 424.31C513.572 429.39 512.752 432.3 511.232 436.72C510.972 437.47 511.532 438.24 512.322 438.24H591.172C592.932 438.24 594.352 439.67 594.352 441.42V463.51C594.352 465.27 592.922 466.69 591.172 466.69H568.132C567.322 466.69 566.632 467.3 566.552 468.11C565.922 474.01 562.872 497.16 552.382 517.26C538.282 546 508.132 566.39 478.332 572.13C476.372 572.51 474.552 571 474.552 569V546.48L474.542 546.52Z" fill="black"/>
<path d="M675.893 411.029V468.869C675.893 469.749 676.603 470.459 677.483 470.459H764.513C765.393 470.459 766.103 469.749 766.103 468.869V411.029C766.103 410.149 765.393 409.439 764.513 409.439H677.483C676.603 409.439 675.893 410.149 675.893 411.029ZM738.453 452.739H702.293C701.413 452.739 700.703 452.029 700.703 451.149V446.869C700.703 445.989 701.413 445.279 702.293 445.279H738.453C739.333 445.279 740.043 445.989 740.043 446.869V451.149C740.043 452.029 739.333 452.739 738.453 452.739ZM738.453 434.449H702.293C701.413 434.449 700.703 433.739 700.703 432.859V428.749C700.703 427.869 701.413 427.159 702.293 427.159H738.453C739.333 427.159 740.043 427.869 740.043 428.749V432.859C740.043 433.739 739.333 434.449 738.453 434.449Z" fill="black"/>
<path d="M674.222 497.34H728.262C729.142 497.34 729.852 498.05 729.852 498.93V502.84C729.852 503.72 729.142 504.43 728.262 504.43H667.752C665.992 504.43 664.572 505.86 664.572 507.61V522.86C664.572 524.62 666.002 526.04 667.752 526.04H728.262C729.142 526.04 729.852 526.75 729.852 527.63V545.39C729.852 546.11 729.932 547.98 729.212 548.85C728.382 549.87 727.142 549.67 725.842 549.72C722.532 549.72 719.572 549.7 716.942 549.66C716.542 549.66 716.252 549.29 716.332 548.9C716.592 547.63 716.722 546.31 716.692 544.96C716.492 535.68 708.932 528.08 699.652 527.84C689.572 527.58 681.362 535.85 681.702 545.94C682.012 555.29 689.782 562.81 699.142 562.84C704.032 562.85 708.452 560.86 711.632 557.64C711.972 557.3 712.542 557.43 712.692 557.88C714.152 562.21 715.532 566.34 716.782 570.05C717.222 571.35 718.452 572.22 719.822 572.21C725.722 572.17 730.502 571.96 734.172 571.6C738.302 571.18 742.082 570.15 745.512 568.5C749.172 566.84 751.682 564.42 753.042 561.23C754.402 558.04 755.082 553.55 755.082 547.76V527.62C755.082 526.74 755.792 526.03 756.672 526.03H762.902C764.662 526.03 766.082 524.6 766.082 522.85V507.6C766.082 505.84 764.652 504.42 762.902 504.42H756.672C755.792 504.42 755.082 503.71 755.082 502.83V498.92C755.082 498.04 755.792 497.33 756.672 497.33H762.902C764.662 497.33 766.082 495.9 766.082 494.15V479.6C766.082 477.84 764.652 476.42 762.902 476.42H674.202C672.442 476.42 671.022 477.85 671.022 479.6V494.15C671.022 495.91 672.452 497.33 674.202 497.33L674.222 497.34Z" fill="black"/>
<path d="M668.822 409.439H650.252C649.392 409.439 648.572 409.789 647.972 410.399C635.222 423.349 618.282 434.569 612.122 438.479C610.772 439.329 610.272 441.059 610.942 442.499L620.692 463.569C621.622 465.569 624.252 466.049 625.822 464.499C646.112 444.459 664.442 419.799 670.112 411.959C670.872 410.909 670.112 409.439 668.822 409.439Z" fill="black"/>
<path d="M671.912 453.889V435.409C671.912 433.999 670.212 433.289 669.202 434.279C653.632 449.599 620.042 477.059 611.672 483.859C610.542 484.779 610.182 486.349 610.792 487.669L620.692 509.049C621.622 511.049 624.252 511.529 625.822 509.979C627.532 508.289 629.232 506.559 630.912 504.819C631.312 504.409 632.012 504.689 632.012 505.259V569.059C632.012 570.819 633.442 572.239 635.192 572.239H653.812C655.572 572.239 656.992 570.809 656.992 569.059V476.369C656.992 475.299 657.352 474.249 658.022 473.409C664.862 464.729 669.712 458.019 671.332 455.739C671.712 455.199 671.922 454.559 671.922 453.889H671.912Z" fill="black"/>
<path d="M653.263 623.33C640.843 623.33 634.803 628.28 634.803 638.47V655.6C634.803 665.67 640.843 670.56 653.263 670.56C659.133 670.56 663.473 669.48 666.553 667.27C669.993 664.8 671.733 660.87 671.733 655.59V638.46C671.733 628.27 665.693 623.32 653.273 623.32L653.263 623.33ZM646.083 639.3C646.083 633.93 648.833 632.91 653.263 632.91C657.693 632.91 660.443 633.95 660.443 639.3V654.68C660.443 659.95 657.593 660.98 653.263 660.98C648.933 660.98 646.083 659.98 646.083 654.68V639.3Z" fill="black"/>
<path d="M708.262 669.331H721.352L703.622 646.781L720.552 624.8H707.392L694.052 642.281V610.23H682.762V669.331H694.052V659.211L696.942 655.451L708.262 669.331Z" fill="black"/>
<path d="M754.812 624.801V653.291C754.812 659.041 751.872 660.891 746.822 660.891C743.552 660.891 740.272 660.351 740.272 653.881V624.811H728.992V656.771C728.992 665.741 733.702 670.481 742.612 670.481C749.292 670.481 753.872 666.861 755.572 662.801L757.382 669.341H766.102V624.811H754.822L754.812 624.801Z" fill="black"/>
<path d="M630.563 610.23H589.143V620.141V620.151H604.213V669.331H615.683V620.151H630.563V610.23Z" fill="black"/>
<path d="M459.681 669.331H472.771L455.041 646.781L471.971 624.8H458.811L445.471 642.281V610.23H434.191V669.331H445.471V659.211L448.361 655.451L459.681 669.331Z" fill="black"/>
<path d="M355.322 610.23H313.902V620.141V620.151H328.982V669.331H340.442V620.151H355.322V610.23Z" fill="black"/>
<path d="M421.792 658.89L421.192 659.04C417.612 659.96 413.282 660.89 409.402 660.89C404.852 660.89 401.682 658.82 401.682 652.83V640.97C401.682 634.9 404.852 632.82 409.402 632.82C413.352 632.82 417.872 633.7 421.222 634.4L421.802 634.52V625.19L421.492 625.12C417.682 624.23 412.042 623.33 407.522 623.33C402.002 623.33 397.962 624.4 395.162 626.59C391.962 629.09 390.412 633.85 390.412 639.34V654.64C390.412 664.77 396.012 670.56 407.532 670.56C411.402 670.56 417.262 669.49 421.522 668.31L421.812 668.23V658.88L421.792 658.89Z" fill="black"/>
<path d="M553.922 634.699V624.799H543.682V615.189H532.402V624.799H525.172V634.699H532.402V655.419C532.402 667.939 540.292 670.559 546.922 670.559C548.702 670.559 550.502 670.449 552.112 670.219V660.259C551.462 660.329 550.252 660.359 549.532 660.359C546.452 660.359 543.682 659.729 543.682 652.089V634.689H553.922V634.699Z" fill="black"/>
<path d="M489.733 650.741V650.561H515.163V641.481C515.163 635.571 513.543 630.241 510.353 627.341C507.413 624.671 502.773 623.311 497.253 623.311C485.073 623.311 478.453 629.221 478.453 639.591V654.451C478.453 664.701 483.833 670.551 496.313 670.551C500.973 670.551 506.283 669.561 511.963 668.401L512.353 668.321V659.051L511.703 659.201C507.133 660.251 504.613 661.141 500.283 661.141C494.073 661.141 489.733 658.621 489.733 652.201V650.721V650.741ZM489.733 639.721C489.733 634.071 493.793 632.741 497.163 632.741C500.533 632.741 504.063 634.071 504.063 639.721V643.231H489.733V642.711V639.721Z" fill="black"/>
<path d="M378.173 626.881H366.893V669.331H378.173V626.881Z" fill="black"/>
<path d="M372.532 622.22C376.415 622.22 379.562 619.073 379.562 615.19C379.562 611.308 376.415 608.16 372.532 608.16C368.649 608.16 365.502 611.308 365.502 615.19C365.502 619.073 368.649 622.22 372.532 622.22Z" fill="black"/>
<path d="M585.733 643.92H566.143V651.26H585.733V643.92Z" fill="black"/>
<path d="M751.818 1699.02V1681.21H744.762C742.65 1681.21 741.306 1681.26 739.914 1681.45V1676.36C741.162 1676.55 742.554 1676.6 744.762 1676.6H763.146C765.402 1676.6 766.794 1676.55 768.09 1676.36V1681.45C766.746 1681.26 765.354 1681.21 763.146 1681.21H756.858V1687.35H765.93C768.138 1687.35 769.338 1687.3 770.634 1687.06V1692.2C769.194 1692.01 768.042 1691.96 765.93 1691.96H756.858V1700.22C759.21 1700.55 761.85 1700.7 764.682 1700.7C767.466 1700.7 770.73 1700.55 775.626 1700.12C774.858 1702.09 774.522 1703.38 774.282 1705.59C770.346 1705.69 767.85 1705.74 764.058 1705.74C752.826 1705.74 746.538 1703.29 742.602 1697.48C741.066 1700.79 739.242 1703.43 736.026 1706.89C734.778 1705.11 734.106 1704.49 731.898 1702.95C735.834 1699.4 738.618 1694.79 740.154 1689.37C740.682 1687.4 741.066 1685.24 741.114 1684.18L746.442 1685.19C746.202 1686.01 746.202 1686.06 745.77 1688.02C745.53 1688.98 745.242 1690.09 744.522 1692.34C746.442 1695.75 748.41 1697.53 751.818 1699.02ZM751.002 1667.58V1665.8C751.002 1664.6 750.906 1663.78 750.714 1662.73H756.618C756.426 1663.74 756.378 1664.5 756.378 1665.75V1667.58H769.338C771.258 1667.58 772.89 1667.53 774.666 1667.38C774.522 1668.49 774.474 1669.54 774.474 1670.94V1674.68C774.474 1676.07 774.522 1677.18 774.666 1678.42H769.482V1672.42H738.474V1678.42H733.146C733.338 1677.27 733.386 1676.31 733.386 1674.63V1670.94C733.386 1669.69 733.29 1668.49 733.194 1667.38C734.922 1667.53 736.554 1667.58 738.474 1667.58H751.002Z" fill="black"/>
<path d="M711.259 1685.86H707.803V1699.64C713.179 1698.44 713.179 1698.44 715.771 1697.58L715.915 1702.42C710.923 1703.91 707.707 1704.68 700.603 1706.26C699.547 1706.5 698.683 1706.74 698.155 1706.94L697.195 1701.51C698.155 1701.51 699.883 1701.22 702.859 1700.7V1669.4C702.859 1667.24 702.811 1666.09 702.667 1664.26C703.627 1664.46 704.779 1664.5 707.275 1664.5H721.003C723.307 1664.5 724.219 1664.46 725.467 1664.26C725.371 1665.42 725.323 1666.52 725.323 1669.59V1680.78C725.323 1683.51 725.371 1684.42 725.515 1686.01C724.603 1685.91 724.603 1685.91 724.171 1685.91L728.059 1689.22C727.819 1689.32 727.099 1689.9 726.715 1690.23C725.227 1691.53 722.299 1693.78 720.235 1695.22C722.587 1698.1 725.323 1700.22 729.067 1702.04C727.819 1703.48 727.051 1704.73 726.043 1706.94C721.387 1704.01 718.459 1701.27 716.011 1697.62C713.707 1694.17 712.459 1691.1 711.259 1685.86ZM721.627 1685.86H715.867C716.491 1688.36 716.875 1689.46 717.739 1691.29C720.619 1689.27 723.115 1687.06 723.979 1685.91C723.355 1685.86 722.299 1685.86 721.627 1685.86ZM707.803 1669.11V1673H720.427V1669.11H707.803ZM707.803 1677.22V1681.5H720.427V1677.22H707.803ZM685.819 1701.37V1668.39C685.819 1666.9 685.771 1666.09 685.675 1663.98C686.539 1664.07 687.451 1664.12 689.179 1664.12H696.235C698.155 1664.12 699.163 1664.02 699.739 1663.88L702.475 1667.24C702.139 1667.86 701.995 1668.25 700.987 1670.89C699.979 1673.53 698.875 1676.02 697.291 1679.1C699.259 1681.78 700.027 1683.18 700.699 1685.24C701.179 1686.73 701.467 1688.5 701.467 1689.99C701.467 1692.82 700.603 1694.65 698.875 1695.46C697.579 1696.14 696.235 1696.33 692.779 1696.33C692.683 1694.02 692.491 1692.92 691.771 1691.29C692.443 1691.38 693.259 1691.48 693.883 1691.48C695.755 1691.48 696.379 1690.95 696.379 1689.37C696.379 1687.74 695.995 1686.06 695.323 1684.42C694.603 1682.84 693.883 1681.74 691.963 1679.53C694.075 1675.45 694.603 1674.2 696.427 1668.73H690.859V1701.37C690.859 1703.38 690.955 1705.16 691.099 1706.89H685.531C685.723 1705.45 685.819 1703.62 685.819 1701.37Z" fill="black"/>
<path d="M652.651 1664.07L659.611 1665.42C659.083 1666.47 659.035 1666.57 658.363 1668.87C654.715 1680.87 651.931 1688.84 648.859 1696.23C656.395 1695.66 664.699 1694.65 668.827 1693.78C668.299 1692.63 667.723 1691.58 666.571 1689.42C664.459 1685.43 663.595 1684.04 662.011 1681.78L667.435 1679.67C671.899 1686.2 676.123 1694.26 679.051 1701.9L673.243 1704.92C672.619 1702.95 672.619 1702.95 670.939 1698.97C670.315 1699.11 670.315 1699.11 669.211 1699.35C664.363 1700.36 656.395 1701.37 642.043 1702.76C639.355 1703 638.635 1703.1 637.675 1703.34L636.811 1696.86C637.483 1696.86 637.483 1696.86 638.059 1696.86C639.019 1696.86 640.171 1696.81 642.187 1696.71C644.731 1690.66 646.651 1685.24 649.147 1677.37C651.403 1670.31 652.315 1666.9 652.651 1664.07Z" fill="black"/>
<path d="M626.868 1664.02L632.388 1667.86C631.572 1668.58 631.332 1668.78 630.612 1669.54C627.012 1673.29 623.412 1676.41 619.284 1679.43V1699.93C619.284 1702.57 619.332 1703.96 619.524 1705.26H612.804C613.044 1703.86 613.092 1702.9 613.092 1700.07V1683.18C607.476 1686.54 604.788 1687.78 595.956 1690.95C594.948 1688.46 594.42 1687.64 592.74 1685.48C602.244 1682.89 610.308 1678.9 617.94 1673C622.212 1669.69 625.476 1666.38 626.868 1664.02Z" fill="black"/>
<path d="M581.123 1668.54L584.339 1671.75C583.715 1672.57 583.619 1672.76 582.851 1674.97C581.315 1679.34 578.675 1684.95 576.707 1688.17C571.811 1696.14 565.043 1701.8 554.819 1706.5C553.283 1703.91 552.659 1703.1 550.835 1701.56C554.915 1699.88 557.315 1698.68 560.195 1696.76C563.603 1694.55 565.619 1692.82 568.067 1690.09C564.707 1687.21 561.827 1685.19 558.227 1683.22L561.875 1678.95C565.907 1681.21 567.923 1682.55 571.523 1685.38C573.779 1681.93 575.411 1678.57 576.899 1674.06L561.971 1674.2C558.995 1679.14 555.587 1683.03 550.739 1687.11C549.155 1685.34 548.435 1684.71 545.939 1683.27C551.219 1679.34 555.059 1674.97 557.987 1669.59C559.379 1667.05 560.339 1664.7 560.771 1662.92L567.011 1664.31C566.483 1665.18 566.483 1665.18 565.571 1667C564.995 1668.3 564.659 1668.87 564.419 1669.3C565.187 1669.21 565.187 1669.21 576.899 1669.11C578.867 1669.06 579.875 1668.97 581.123 1668.54Z" fill="black"/>
<path d="M497.604 1687.93V1681.26C499.716 1681.54 500.628 1681.59 505.38 1681.59H530.964C535.716 1681.59 536.628 1681.54 538.74 1681.26V1687.93C536.82 1687.69 536.292 1687.69 530.916 1687.69H505.428C500.052 1687.69 499.524 1687.69 497.604 1687.93Z" fill="black"/>
<path d="M474.563 1675.69H484.067C487.427 1675.69 488.435 1675.64 490.307 1675.35V1681.4C488.579 1681.21 487.331 1681.16 484.163 1681.16H474.323C473.891 1687.83 473.075 1691 470.867 1694.7C468.227 1699.06 464.867 1702.04 458.627 1705.45C456.995 1702.71 456.275 1701.85 454.259 1700.26C460.019 1697.77 463.667 1694.79 465.827 1690.81C467.267 1688.22 467.795 1686.06 468.179 1681.16H456.275C453.107 1681.16 451.859 1681.21 450.131 1681.4V1675.35C452.003 1675.64 453.059 1675.69 456.371 1675.69H468.467C468.515 1673.67 468.515 1672.81 468.515 1671.94V1669.11C468.515 1667.05 468.467 1665.8 468.275 1664.5H474.899C474.707 1666.04 474.707 1666.09 474.659 1669.11L474.611 1671.99C474.563 1675.16 474.563 1675.16 474.563 1675.69Z" fill="black"/>
<path d="M432.372 1671.99L437.268 1675.5C436.596 1676.02 436.596 1676.02 435.636 1677.08C433.236 1679.67 429.732 1682.79 426.708 1684.95V1701.27C426.708 1703.48 426.756 1704.68 426.948 1705.88L420.756 1705.83C420.948 1704.44 420.996 1703.53 420.996 1701.27V1688.41C416.676 1690.95 413.22 1692.49 407.412 1694.5C406.404 1692.3 405.972 1691.48 404.436 1689.51C408.948 1688.31 411.876 1687.21 415.812 1685.19C421.188 1682.41 425.412 1679.38 429.444 1675.45C431.028 1673.86 431.604 1673.19 432.372 1671.99Z" fill="black"/>
<path d="M386.774 1665.99V1671.85C385.286 1671.66 384.614 1671.61 380.678 1671.61H366.374C362.438 1671.61 361.814 1671.66 360.278 1671.85V1665.99C361.91 1666.28 362.87 1666.33 366.47 1666.33H380.582C384.23 1666.33 385.19 1666.28 386.774 1665.99ZM389.798 1683.61H379.526C378.998 1695.46 374.486 1701.8 363.638 1705.98C362.486 1703.58 361.67 1702.52 359.702 1700.65C369.11 1697.67 372.854 1692.92 373.19 1683.61H361.526C357.782 1683.61 357.062 1683.66 355.43 1683.85V1678.14C357.11 1678.42 358.07 1678.47 361.622 1678.47H389.702C393.254 1678.47 394.214 1678.42 395.894 1678.14V1683.85C394.262 1683.66 393.542 1683.61 389.798 1683.61ZM399.974 1668.3L396.422 1669.69C395.318 1666.95 393.926 1664.5 392.294 1662.25L395.75 1661C397.67 1663.54 398.822 1665.46 399.974 1668.3ZM386.006 1664.12L389.558 1662.87C391.382 1665.37 392.486 1667.29 393.83 1670.46L390.23 1671.8C388.886 1668.58 387.782 1666.62 386.006 1664.12Z" fill="black"/>
<path d="M328.117 1683.08L345.157 1666.04L346.693 1667.62L329.653 1684.76L346.693 1701.8L345.157 1703.38L328.117 1686.49L311.125 1703.38L309.541 1701.8L326.581 1684.76L309.541 1667.62L311.125 1666.04L328.117 1683.08ZM328.165 1667.19C330.181 1667.19 331.813 1668.82 331.813 1670.84C331.813 1672.9 330.181 1674.54 328.165 1674.54C326.149 1674.54 324.469 1672.86 324.469 1670.84C324.469 1668.82 326.149 1667.19 328.165 1667.19ZM314.389 1681.06C316.405 1681.06 318.037 1682.7 318.037 1684.71C318.037 1686.78 316.405 1688.41 314.389 1688.41C312.373 1688.41 310.693 1686.73 310.693 1684.71C310.693 1682.7 312.325 1681.06 314.389 1681.06ZM341.845 1681.11C343.861 1681.11 345.493 1682.74 345.493 1684.76C345.493 1686.78 343.861 1688.41 341.845 1688.41C339.829 1688.41 338.197 1686.78 338.197 1684.76C338.197 1682.74 339.829 1681.11 341.845 1681.11ZM328.117 1695.03C330.133 1695.03 331.765 1696.66 331.765 1698.73C331.765 1700.74 330.085 1702.42 328.117 1702.42C326.197 1702.42 324.421 1700.65 324.421 1698.73C324.421 1696.9 326.149 1695.03 327.781 1695.03C327.829 1695.03 327.877 1695.03 327.925 1695.08C327.973 1695.13 327.973 1695.13 328.021 1695.13C328.021 1695.13 328.021 1695.13 328.117 1695.03Z" fill="black"/>
<path d="M777.528 1547.83V1572.03C777.528 1580.62 777.77 1584.85 778.496 1589.45H760.467C761.193 1585.34 761.435 1580.26 761.435 1572.27V1508.5C761.435 1501.85 761.193 1498.34 760.467 1492.77C765.428 1493.02 768.453 1493.14 775.834 1493.14H809.714C817.337 1493.14 821.209 1492.89 826.291 1492.29V1508.62C821.935 1508.02 817.458 1507.78 809.714 1507.78H777.528V1533.43H803.422C810.924 1533.43 815.159 1533.19 819.878 1532.58V1548.68C815.401 1548.07 810.803 1547.83 803.422 1547.83H777.528Z" fill="black"/>
<path d="M699.657 1547.83V1572.03C699.657 1580.62 699.899 1584.85 700.625 1589.45H682.596C683.322 1585.34 683.564 1580.26 683.564 1572.27V1508.5C683.564 1501.85 683.322 1498.34 682.596 1492.77C687.557 1493.02 690.582 1493.14 697.963 1493.14H731.843C739.466 1493.14 743.338 1492.89 748.42 1492.29V1508.62C744.064 1508.02 739.587 1507.78 731.843 1507.78H699.657V1533.43H725.551C733.053 1533.43 737.288 1533.19 742.007 1532.58V1548.68C737.53 1548.07 732.932 1547.83 725.551 1547.83H699.657Z" fill="black"/>
<path d="M623.078 1491.2C636.388 1491.2 646.673 1495.07 654.901 1503.3C663.734 1512.13 668.453 1525.32 668.453 1541.05C668.453 1571.66 650.666 1591.51 623.199 1591.51C595.732 1591.51 578.066 1571.79 578.066 1541.05C578.066 1525.44 582.906 1512.01 591.86 1503.3C600.209 1495.07 610.252 1491.2 623.078 1491.2ZM623.441 1577.11C640.744 1577.11 651.513 1563.32 651.513 1541.05C651.513 1528.83 648.125 1519.03 641.954 1512.86C636.993 1508.02 630.58 1505.48 623.32 1505.48C605.896 1505.48 594.885 1519.27 594.885 1541.17C594.885 1553.27 598.394 1563.44 604.686 1569.73C609.647 1574.57 616.06 1577.11 623.441 1577.11Z" fill="black"/>
<path d="M475.025 1587.64L551.134 1490.23L557.426 1495.07L481.196 1592.6L475.025 1587.64ZM544.721 1591.39C537.945 1591.39 532.379 1589.33 528.265 1585.22C523.667 1580.74 521.247 1573.48 521.247 1564.28C521.247 1555.21 523.667 1548.07 528.265 1543.47C532.379 1539.48 538.066 1537.3 544.721 1537.3C551.376 1537.3 557.063 1539.48 561.056 1543.47C565.654 1547.95 568.074 1555.21 568.074 1564.28C568.074 1573.48 565.654 1580.74 561.056 1585.22C556.942 1589.33 551.376 1591.39 544.721 1591.39ZM544.721 1547.59C541.212 1547.59 538.913 1548.68 536.977 1551.46C534.799 1554.48 533.71 1558.6 533.71 1564.04C533.71 1575.17 537.582 1581.22 544.721 1581.22C551.981 1581.22 555.732 1575.17 555.732 1563.44C555.732 1558.6 554.522 1554.24 552.465 1551.34C550.408 1548.68 548.23 1547.59 544.721 1547.59ZM487.73 1545.41C480.954 1545.41 475.388 1543.35 471.274 1539.24C466.676 1534.76 464.256 1527.38 464.256 1518.3C464.256 1501.36 472.968 1491.32 487.73 1491.32C494.385 1491.32 500.072 1493.5 504.065 1497.49C508.663 1501.97 511.083 1509.23 511.083 1518.3C511.083 1527.5 508.663 1534.76 504.065 1539.24C499.951 1543.35 494.385 1545.41 487.73 1545.41ZM487.73 1501.61C480.712 1501.61 476.719 1507.54 476.719 1518.06C476.719 1529.19 480.591 1535.24 487.73 1535.24C494.748 1535.24 498.741 1529.19 498.741 1518.3C498.741 1513.95 497.894 1509.59 496.563 1507.05C494.506 1503.3 491.723 1501.61 487.73 1501.61Z" fill="black"/>
<path d="M416.351 1591.39C406.066 1591.39 397.354 1588 390.941 1581.59C387.311 1577.96 384.528 1573.72 382.955 1569.37C379.809 1560.77 378.236 1551.34 378.236 1541.54C378.236 1528.71 381.14 1515.4 385.617 1508.02C392.151 1497.13 403.041 1491.2 416.472 1491.2C426.757 1491.2 435.59 1494.59 442.003 1501C445.633 1504.63 448.416 1508.87 449.989 1513.22C453.135 1521.69 454.708 1531.37 454.708 1541.29C454.708 1556.18 451.441 1569.24 445.754 1577.11C438.978 1586.55 428.935 1591.39 416.351 1591.39ZM416.472 1577.35C421.796 1577.35 426.515 1575.54 429.54 1572.27C434.985 1566.58 438.01 1555.33 438.01 1541.17C438.01 1527.14 434.985 1516.13 429.54 1510.2C426.636 1506.93 421.796 1505.11 416.351 1505.11C410.543 1505.11 406.308 1507.05 402.799 1511.29C397.475 1517.58 394.813 1527.5 394.813 1540.69C394.813 1553.39 397.112 1563.92 400.984 1569.49C404.735 1574.81 409.817 1577.35 416.472 1577.35Z" fill="black"/>
<path d="M341.463 1589.45H323.192C323.918 1584.73 324.16 1580.01 324.16 1573.72V1507.05H318.352C313.875 1507.05 310.366 1507.29 305.889 1507.78V1492.41C309.64 1493.02 312.302 1493.14 317.989 1493.14H329.121C335.292 1493.14 337.107 1493.02 341.463 1492.53C340.737 1499.67 340.495 1505.24 340.495 1512.5V1573.72C340.495 1580.14 340.737 1584.49 341.463 1589.45Z" fill="black"/>
<path d="M844.484 1419.15L838.676 1419.49C838.628 1418.62 838.58 1418.34 838.436 1417.23C837.524 1411.42 837.188 1407.73 837.188 1402.88C837.188 1396.69 837.764 1391.22 839.156 1384.11C839.684 1381.42 839.78 1380.94 839.876 1379.65L846.212 1380.32C845.06 1383.15 843.956 1388.53 843.188 1394.67C842.707 1398.27 842.516 1401.1 842.468 1405.28C842.468 1406.34 842.42 1406.72 842.372 1407.92C842.9 1406.24 842.996 1405.9 844.868 1401.58L848.708 1403.31C846.068 1408.88 844.436 1414.45 844.436 1417.86C844.436 1418.14 844.436 1418.53 844.484 1419.15ZM851.108 1390.4L851.204 1384.64C853.364 1385.22 855.907 1385.41 860.083 1385.41C865.411 1385.41 869.972 1384.98 873.14 1384.11L873.428 1389.92C873.044 1389.97 872.324 1390.06 870.02 1390.35C866.948 1390.74 863.299 1390.93 859.747 1390.93C856.243 1390.93 856.196 1390.93 851.108 1390.4ZM854.419 1398.32L859.124 1400.53C856.724 1403.31 855.716 1405.38 855.716 1407.44C855.716 1410.18 858.356 1411.62 863.348 1411.62C867.572 1411.62 871.748 1410.94 874.772 1409.79L875.252 1415.89C874.58 1415.94 874.388 1415.98 873.284 1416.18C869.444 1416.8 866.516 1417.09 863.348 1417.09C857.396 1417.09 853.556 1415.74 851.444 1412.91C850.532 1411.71 850.004 1409.94 850.004 1408.21C850.004 1405.09 851.443 1401.87 854.419 1398.32Z" fill="black"/>
<path d="M804.693 1384.69V1381.76C804.693 1380.18 804.597 1378.93 804.357 1377.78H810.549C810.357 1378.78 810.261 1380.03 810.261 1381.76V1384.69H823.461C826.149 1384.69 827.877 1384.59 829.509 1384.35V1390.16C828.021 1389.97 826.533 1389.87 823.653 1389.87H806.085C805.845 1393.47 805.845 1393.62 805.701 1395.06H818.997C821.493 1395.06 822.837 1395.01 823.941 1394.82C823.941 1395.06 823.941 1395.2 823.893 1395.3C823.797 1396.02 823.797 1396.59 823.701 1398.66C823.509 1405.86 822.885 1412.05 822.069 1415.5C820.965 1420.06 819.381 1421.26 814.581 1421.26C812.901 1421.26 811.797 1421.22 808.101 1420.93C807.909 1418.72 807.525 1417.14 806.709 1415.36C809.493 1415.79 811.701 1415.98 813.909 1415.98C816.021 1415.98 816.501 1415.46 817.125 1412.14C817.701 1409.26 817.989 1406.24 818.181 1400.1H804.933C802.917 1409.74 798.597 1415.89 789.525 1421.84C788.325 1419.73 787.413 1418.67 785.637 1417.28C789.861 1414.64 791.925 1412.96 794.229 1410.18C798.357 1405.23 799.989 1399.66 800.229 1389.87H792.357C789.957 1389.87 787.989 1389.97 786.357 1390.16V1384.35C788.085 1384.59 789.909 1384.69 792.357 1384.69H804.693Z" fill="black"/>
<path d="M763.556 1387.23C762.644 1394.77 760.964 1401.39 758.564 1406.82C755.828 1413.01 752.756 1415.84 748.82 1415.84C743.348 1415.84 739.412 1410.27 739.412 1402.54C739.412 1397.26 741.284 1392.32 744.692 1388.58C748.724 1384.16 754.388 1381.86 761.204 1381.86C772.724 1381.86 780.212 1388.86 780.212 1399.66C780.212 1407.97 775.892 1414.59 768.548 1417.57C766.244 1418.53 764.372 1419.01 761.012 1419.58C760.196 1417.04 759.62 1415.98 758.084 1413.97C762.5 1413.39 765.38 1412.62 767.636 1411.33C771.812 1409.02 774.308 1404.46 774.308 1399.33C774.308 1394.72 772.244 1390.98 768.404 1388.67C766.916 1387.81 765.668 1387.42 763.556 1387.23ZM757.7 1387.28C755.204 1387.57 753.476 1388.24 751.508 1389.63C747.476 1392.51 744.98 1397.46 744.98 1402.59C744.98 1406.53 746.66 1409.65 748.772 1409.65C750.356 1409.65 751.988 1407.63 753.716 1403.5C755.54 1399.18 757.124 1392.7 757.7 1387.28Z" fill="black"/>
<path d="M727.845 1389.87H725.301C724.053 1394.34 723.285 1396.3 721.557 1399.52C719.925 1402.54 718.149 1405.04 715.893 1407.63C721.173 1411.76 726.933 1414.35 734.661 1416.08C733.077 1417.95 732.405 1419.1 731.349 1421.7C723.189 1419.01 717.333 1415.89 712.005 1411.33C709.269 1413.63 706.005 1415.79 702.597 1417.57C699.669 1419.06 696.933 1420.16 692.373 1421.7C691.509 1419.63 690.693 1418.29 689.301 1416.56C697.893 1414.21 703.221 1411.71 708.165 1407.63C705.861 1405.09 704.133 1402.74 702.501 1399.95C700.677 1396.83 699.813 1394.77 698.181 1389.87H695.925C693.669 1389.87 691.797 1389.97 690.069 1390.16V1384.74C691.893 1384.98 693.525 1385.07 696.069 1385.07H708.837V1381.66C708.837 1380.22 708.741 1379.07 708.501 1377.97H714.597C714.357 1379.07 714.261 1380.22 714.261 1381.62V1385.07H727.653C730.245 1385.07 731.925 1384.98 733.701 1384.74V1390.16C731.973 1389.97 730.341 1389.87 727.845 1389.87ZM719.637 1389.87H703.701C704.901 1393.52 705.669 1395.25 707.349 1398.08C708.837 1400.48 710.133 1402.16 711.957 1404.08C713.637 1402.21 715.029 1400.29 716.325 1398.03C717.765 1395.44 718.485 1393.76 719.637 1389.87Z" fill="black"/>
<path d="M660.356 1387.42H671.636C668.42 1384.78 666.356 1383.49 661.652 1381.33L665.108 1377.39C670.388 1379.98 671.492 1380.61 675.428 1383.49L672.26 1387.42H679.46C682.1 1387.42 683.3 1387.38 684.836 1387.14V1392.51C683.348 1392.37 681.572 1392.27 679.46 1392.27H671.924V1400.62H678.116C680.132 1400.62 682.004 1400.53 683.348 1400.34V1405.62C681.86 1405.47 679.988 1405.38 678.116 1405.38H671.924V1415.31H680.132C682.34 1415.31 684.452 1415.22 685.844 1415.02V1420.4C684.308 1420.21 682.388 1420.11 680.132 1420.11H659.204C656.948 1420.11 654.932 1420.21 653.492 1420.4V1415.02C654.98 1415.22 657.14 1415.31 659.204 1415.31H666.548V1405.38H661.652C659.732 1405.38 657.86 1405.47 656.372 1405.62V1400.34C657.764 1400.53 659.54 1400.62 661.604 1400.62H666.548V1392.27H660.356C657.908 1392.27 656.708 1392.32 654.98 1392.51V1387.14C656.612 1387.33 658.004 1387.42 660.356 1387.42ZM643.604 1381.71L646.868 1377.97C650.468 1380.08 652.34 1381.47 655.364 1384.26L652.148 1388.53C649.124 1385.31 647.588 1384.06 643.604 1381.71ZM641.684 1393.66L644.756 1389.68C648.644 1391.94 650.276 1393.14 653.444 1395.92L650.564 1400.34C647.06 1396.98 645.236 1395.63 641.684 1393.66ZM649.508 1403.02L653.78 1406.05C651.572 1412 650.324 1414.93 648.452 1418.34C647.972 1419.2 647.684 1419.68 647.108 1420.64C646.724 1421.26 646.724 1421.26 646.436 1421.79L641.876 1417.81C644.132 1415.36 646.916 1410.03 649.508 1403.02Z" fill="black"/>
<path d="M601.365 1387.57L601.797 1381.86C605.493 1382.72 609.765 1383.06 616.197 1383.06C622.293 1383.06 625.701 1382.82 628.869 1382.14L629.061 1387.57C626.181 1388.82 620.277 1392.51 616.245 1395.49L612.069 1392.18C615.093 1390.26 615.621 1389.92 616.821 1389.25C617.301 1388.96 617.445 1388.86 618.069 1388.48C618.453 1388.29 618.501 1388.29 619.125 1387.9C617.013 1388.19 614.949 1388.29 611.925 1388.29C609.477 1388.29 605.493 1388.05 603.141 1387.71C602.565 1387.66 602.229 1387.62 602.037 1387.62C601.941 1387.62 601.701 1387.57 601.365 1387.57ZM604.917 1398.42L609.093 1401.58C606.069 1404.13 604.725 1406.14 604.725 1408.21C604.725 1411.33 608.229 1412.67 616.341 1412.67C622.053 1412.67 628.341 1411.81 631.413 1410.61L631.941 1417.18C631.077 1417.23 630.933 1417.23 629.829 1417.38C624.069 1418.24 620.997 1418.48 616.869 1418.48C611.637 1418.48 607.413 1417.95 604.869 1416.9C600.741 1415.26 598.725 1412.62 598.725 1408.88C598.725 1405.18 600.597 1402.02 604.917 1398.42ZM637.893 1396.45L634.581 1398.32C633.141 1395.68 631.557 1393.42 629.685 1391.36L632.901 1389.68C635.061 1391.89 636.405 1393.71 637.893 1396.45ZM623.781 1394.19L627.141 1392.51C629.253 1394.77 630.549 1396.59 632.181 1399.57L628.821 1401.34C627.237 1398.42 625.893 1396.5 623.781 1394.19Z" fill="black"/>
<path d="M569.397 1397.17V1414.83H583.221C585.765 1414.83 587.925 1414.74 589.701 1414.54V1420.3C587.685 1420.06 585.717 1419.97 583.317 1419.97H552.837C550.581 1419.97 548.373 1420.06 546.213 1420.3V1414.54C548.085 1414.74 550.101 1414.83 552.837 1414.83H563.781V1383.82C563.781 1381.71 563.685 1380.27 563.445 1378.3H569.733C569.493 1380.08 569.397 1381.66 569.397 1383.82V1392.03H580.677C582.789 1392.03 584.517 1391.94 586.245 1391.74V1397.46C584.517 1397.26 582.693 1397.17 580.677 1397.17H569.397Z" fill="black"/>
<path d="M531.86 1378.74L537.908 1378.83C537.86 1379.36 537.86 1379.36 537.428 1385.5C537.188 1389.82 536.228 1395.2 535.124 1398.9C534.356 1401.39 533.444 1403.5 532.1 1405.9C534.548 1410.18 537.908 1413.49 542.564 1416.22C541.172 1417.86 540.212 1419.44 539.204 1421.7C534.98 1418.67 531.716 1415.17 528.884 1410.61C524.996 1415.5 520.004 1419.06 512.804 1422.08C511.7 1419.92 510.884 1418.67 509.732 1417.33C518.18 1414.06 523.364 1410.18 526.868 1404.51C530.324 1398.94 532.052 1391.41 532.052 1381.9C532.052 1380.37 532.004 1379.84 531.86 1378.74ZM502.82 1409.74L502.58 1384.59C502.532 1382.05 502.436 1380.61 502.196 1378.88H508.292C508.148 1380.22 508.052 1381.66 508.052 1383.58V1384.64L508.292 1407.54C512.708 1405.57 517.412 1403.07 520.628 1401.01L521.78 1406.05C515.828 1409.7 511.796 1411.76 502.916 1415.6C501.092 1416.42 500.756 1416.56 499.556 1417.14L498.02 1411.28C499.7 1410.9 500.516 1410.61 502.82 1409.74ZM512.228 1384.59L516.836 1381.66C520.628 1385.5 522.788 1388.19 526.34 1393.42L521.396 1396.83C517.748 1390.78 516.596 1389.25 512.228 1384.59Z" fill="black"/>
<path d="M457.557 1403.12V1415.98C457.557 1419.01 457.605 1420.45 457.797 1421.55H451.893C452.085 1420.02 452.181 1418.29 452.181 1415.79V1384.4C452.181 1382.38 452.133 1381.18 451.989 1379.79C453.525 1379.94 454.773 1379.98 457.317 1379.98H486.501C489.141 1379.98 490.581 1379.94 491.733 1379.79C491.589 1381.18 491.541 1382.43 491.541 1385.02V1415.79C491.541 1418.24 490.965 1419.58 489.573 1420.3C488.661 1420.78 487.125 1420.98 484.533 1420.98C482.661 1420.98 480.021 1420.88 478.149 1420.78C477.861 1418.91 477.525 1417.57 476.661 1415.6C479.829 1415.94 482.229 1416.13 483.957 1416.13C485.829 1416.13 486.117 1415.98 486.117 1414.83V1403.12H457.557ZM468.933 1398.08V1385.07H457.557V1398.08H468.933ZM474.117 1398.08H486.117V1385.07H474.117V1398.08Z" fill="black"/>
<path d="M430.681 1419.34C426.601 1419.34 423.145 1418 420.601 1415.46C419.161 1414.02 418.057 1412.34 417.433 1410.61C416.185 1407.2 415.561 1403.46 415.561 1399.57C415.561 1394.48 416.713 1389.2 418.489 1386.27C421.081 1381.95 425.401 1379.6 430.729 1379.6C434.809 1379.6 438.313 1380.94 440.857 1383.49C442.297 1384.93 443.401 1386.61 444.025 1388.34C445.273 1391.7 445.897 1395.54 445.897 1399.47C445.897 1405.38 444.601 1410.56 442.345 1413.68C439.657 1417.42 435.673 1419.34 430.681 1419.34ZM430.729 1413.78C432.841 1413.78 434.713 1413.06 435.913 1411.76C438.073 1409.5 439.273 1405.04 439.273 1399.42C439.273 1393.86 438.073 1389.49 435.913 1387.14C434.761 1385.84 432.841 1385.12 430.681 1385.12C428.377 1385.12 426.697 1385.89 425.305 1387.57C423.193 1390.06 422.137 1394 422.137 1399.23C422.137 1404.27 423.049 1408.45 424.585 1410.66C426.073 1412.77 428.089 1413.78 430.729 1413.78Z" fill="black"/>
<path d="M396.509 1419.34C392.429 1419.34 388.973 1418 386.429 1415.46C384.989 1414.02 383.885 1412.34 383.261 1410.61C382.013 1407.2 381.389 1403.46 381.389 1399.57C381.389 1394.48 382.541 1389.2 384.317 1386.27C386.909 1381.95 391.229 1379.6 396.557 1379.6C400.637 1379.6 404.141 1380.94 406.685 1383.49C408.125 1384.93 409.229 1386.61 409.853 1388.34C411.101 1391.7 411.725 1395.54 411.725 1399.47C411.725 1405.38 410.429 1410.56 408.173 1413.68C405.485 1417.42 401.501 1419.34 396.509 1419.34ZM396.557 1413.78C398.669 1413.78 400.541 1413.06 401.741 1411.76C403.901 1409.5 405.101 1405.04 405.101 1399.42C405.101 1393.86 403.901 1389.49 401.741 1387.14C400.589 1385.84 398.669 1385.12 396.509 1385.12C394.205 1385.12 392.525 1385.89 391.133 1387.57C389.021 1390.06 387.965 1394 387.965 1399.23C387.965 1404.27 388.877 1408.45 390.413 1410.66C391.901 1412.77 393.917 1413.78 396.557 1413.78Z" fill="black"/>
<path d="M362.337 1419.34C358.257 1419.34 354.801 1418 352.257 1415.46C350.817 1414.02 349.713 1412.34 349.089 1410.61C347.841 1407.2 347.217 1403.46 347.217 1399.57C347.217 1394.48 348.369 1389.2 350.145 1386.27C352.737 1381.95 357.057 1379.6 362.385 1379.6C366.465 1379.6 369.969 1380.94 372.513 1383.49C373.953 1384.93 375.057 1386.61 375.681 1388.34C376.929 1391.7 377.553 1395.54 377.553 1399.47C377.553 1405.38 376.257 1410.56 374.001 1413.68C371.313 1417.42 367.329 1419.34 362.337 1419.34ZM362.385 1413.78C364.497 1413.78 366.369 1413.06 367.569 1411.76C369.729 1409.5 370.929 1405.04 370.929 1399.42C370.929 1393.86 369.729 1389.49 367.569 1387.14C366.417 1385.84 364.497 1385.12 362.337 1385.12C360.033 1385.12 358.353 1385.89 356.961 1387.57C354.849 1390.06 353.793 1394 353.793 1399.23C353.793 1404.27 354.705 1408.45 356.241 1410.66C357.729 1412.77 359.745 1413.78 362.385 1413.78Z" fill="black"/>
<path d="M342.343 1411.57V1418.58C342.343 1422.7 341.287 1424.24 337.399 1425.78L335.671 1423.23C338.599 1422.42 339.271 1421.55 339.319 1418.58H335.287V1411.57H342.343Z" fill="black"/>
<path d="M301.02 1410.03L307.644 1408.64C308.076 1410.03 308.412 1410.66 309.084 1411.42C310.428 1413.06 312.444 1413.87 314.988 1413.87C319.74 1413.87 322.86 1410.7 322.86 1405.95C322.86 1401.25 319.884 1398.22 315.324 1398.22C312.972 1398.22 310.86 1398.99 309.372 1400.43C308.7 1401.1 308.364 1401.54 307.932 1402.59L301.932 1402.02C302.412 1398.61 302.46 1398.37 302.556 1397.02L303.66 1385.12C303.708 1384.26 303.804 1382.62 303.852 1380.22C305.292 1380.32 306.396 1380.37 308.94 1380.37H320.748C324.06 1380.37 325.26 1380.32 327.42 1379.98V1386.03C325.308 1385.74 323.436 1385.65 320.796 1385.65H309.516L308.748 1394.05C308.7 1394.43 308.604 1395.1 308.46 1396.06C310.812 1394.05 313.356 1393.14 316.668 1393.14C320.556 1393.14 323.676 1394.29 326.028 1396.74C328.38 1399.04 329.436 1401.92 329.436 1405.76C329.436 1414.21 323.916 1419.44 314.988 1419.44C310.236 1419.44 306.684 1418.1 304.044 1415.26C302.748 1413.87 302.076 1412.72 301.02 1410.03Z" fill="black"/>
<path d="M277.308 1384.26H272.46C270.828 1384.26 269.676 1384.3 268.476 1384.5V1379.31C269.532 1379.5 270.54 1379.55 272.46 1379.55H279.324C280.86 1379.55 281.916 1379.5 282.828 1379.36C282.732 1380.46 282.732 1381.14 282.732 1381.95C282.732 1386.66 283.836 1391.5 285.9 1395.87C288.348 1401.15 291.228 1404.46 296.46 1408.21C295.116 1409.84 294.3 1411.18 293.292 1413.25C289.788 1410.61 287.82 1408.69 285.612 1405.76C283.212 1402.54 281.868 1399.62 280.236 1394.38C279.036 1399.47 277.692 1402.5 275.004 1406.1C273.228 1408.54 271.74 1410.08 268.524 1412.67C267.228 1410.94 266.508 1410.18 264.732 1408.5C267.66 1406.38 269.1 1404.94 271.068 1402.35C273.612 1398.94 275.436 1395.01 276.396 1390.93C276.876 1388.96 277.068 1387.57 277.308 1384.26ZM253.164 1381.95L257.004 1378.35C260.46 1381.38 263.052 1384.06 265.404 1387.14L261.42 1391.02C258.444 1386.99 256.908 1385.31 253.164 1381.95ZM252.444 1400.96V1395.68C253.692 1395.87 254.46 1395.92 256.284 1395.92H260.22C261.66 1395.92 262.764 1395.87 263.868 1395.68C263.724 1397.26 263.676 1398.27 263.676 1400.96V1410.99C264.396 1412.53 264.828 1413.01 266.412 1414.06C268.716 1415.5 271.212 1415.84 279.468 1415.84C286.428 1415.84 292.524 1415.5 297.276 1414.83C296.46 1417.14 296.172 1418.34 295.836 1420.54C291.564 1420.69 284.604 1420.83 281.292 1420.83C273.42 1420.83 269.532 1420.54 267.036 1419.73C264.54 1418.96 262.812 1417.66 260.94 1415.22C259.404 1416.75 258.252 1417.76 255.996 1419.49C255.18 1420.11 254.892 1420.35 254.556 1420.64C254.076 1421.02 254.076 1421.02 253.836 1421.22L251.484 1415.74C253.548 1414.88 256.572 1412.86 258.636 1411.04V1400.72H255.708C254.364 1400.72 253.644 1400.77 252.444 1400.96Z" fill="black"/>
<path d="M211.355 1390.11V1384.98C209.723 1385.31 208.859 1385.46 206.363 1385.84C206.123 1384.54 205.595 1383.34 204.491 1381.42C209.819 1380.8 213.371 1379.94 217.067 1378.4C217.787 1378.11 218.507 1377.73 219.131 1377.3L222.107 1381.47C221.627 1381.66 221.579 1381.71 220.859 1382.05C219.227 1382.72 218.075 1383.15 216.347 1383.68V1390.11H217.835C219.419 1390.11 220.283 1390.06 221.195 1389.92V1394.91C220.235 1394.77 219.371 1394.72 217.835 1394.72H216.491C216.587 1394.96 216.587 1394.96 216.827 1395.39C218.267 1398.56 219.419 1400.24 221.915 1402.78L221.483 1403.65C220.619 1405.28 220.475 1405.62 219.755 1407.39C218.075 1405.23 217.691 1404.56 216.059 1401.06C216.203 1402.21 216.347 1404.99 216.347 1406.53V1416.13C216.347 1418.91 216.395 1420.45 216.635 1422.03H211.067C211.259 1420.35 211.355 1418.82 211.355 1416.13V1407.82C211.355 1406.91 211.547 1403.12 211.643 1401.92C210.347 1406.19 208.619 1409.5 205.835 1412.96C205.019 1410.66 204.491 1409.5 203.387 1407.97C205.403 1405.62 206.507 1403.94 207.899 1401.39C208.955 1399.42 210.155 1396.54 210.683 1394.72H208.283C206.411 1394.72 205.499 1394.77 204.443 1394.96V1389.87C205.547 1390.06 206.411 1390.11 208.283 1390.11H211.355ZM226.331 1387.28H235.547C237.467 1383.73 238.331 1381.52 239.435 1377.54L244.763 1379.26C242.555 1384.11 242.075 1385.12 240.779 1387.28H242.267C243.947 1387.28 244.907 1387.23 246.251 1387.09C246.107 1388.24 246.059 1389.01 246.059 1390.45V1399.28C246.059 1400.72 246.107 1401.68 246.251 1402.83C244.955 1402.69 243.803 1402.64 242.267 1402.64H240.107V1415.7C240.107 1416.61 240.347 1416.7 242.171 1416.7C244.139 1416.7 244.235 1416.46 244.331 1409.84C246.155 1411.04 247.403 1411.66 248.843 1412C248.507 1417.23 248.219 1418.72 247.355 1419.87C246.443 1421.17 244.907 1421.5 240.395 1421.5C236.267 1421.5 235.115 1420.59 235.115 1417.42V1402.64H232.091C231.707 1407.87 231.179 1410.51 229.835 1413.49C228.011 1417.57 225.707 1419.97 221.483 1422.27C220.427 1420.45 219.755 1419.63 217.931 1418.05C224.123 1415.22 227.003 1410.32 227.003 1402.64H226.283C224.747 1402.64 223.787 1402.69 222.491 1402.83C222.587 1401.73 222.635 1400.58 222.635 1399.23V1390.59C222.635 1389.44 222.587 1388.19 222.491 1387.09C223.883 1387.23 224.651 1387.28 226.331 1387.28ZM227.435 1391.89V1397.94H240.923V1391.89H227.435ZM232.427 1384.93L227.723 1387.04C226.235 1383.49 225.275 1381.66 223.787 1379.65L228.443 1377.49C230.267 1380.27 231.323 1382.29 232.427 1384.93Z" fill="black"/>
<path d="M883.844 1236.82H872.624C872.488 1235.18 871.332 1231.72 869.088 1225.94C865.416 1216.55 863.036 1214.04 857.8 1214.04H847.668V1227.91C847.668 1231.99 847.804 1234.16 848.212 1236.82H838.08C838.488 1233.96 838.624 1232.12 838.624 1227.98V1191.32C838.624 1187.72 838.488 1185.68 838.08 1182.48C840.936 1182.62 843.044 1182.69 846.784 1182.69H863.104C873.44 1182.69 879.356 1187.86 879.356 1196.83C879.356 1201.18 878.2 1204.58 875.888 1206.96C873.984 1208.94 872.216 1209.82 868.34 1210.91C872.624 1212.27 873.916 1214.17 880.648 1230.08C881.192 1231.31 882.892 1234.98 883.844 1236.82ZM847.668 1206.28H861.336C863.852 1206.28 866.232 1205.4 867.796 1203.84C869.224 1202.41 869.972 1200.44 869.972 1197.85C869.972 1192.96 867.184 1190.44 861.608 1190.44H847.668V1206.28Z" fill="black"/>
<path d="M832.53 1236.82H821.378C820.97 1234.57 820.222 1231.65 819.474 1229.68L816.754 1222.26H794.994L792.274 1229.68C791.05 1232.94 790.778 1233.96 790.234 1236.82H779.082C780.102 1234.98 781.462 1231.92 782.686 1228.79L797.646 1189.56C798.938 1186.16 799.482 1184.46 799.822 1182.69H811.654C811.994 1184.32 812.402 1185.41 813.966 1189.56L829.062 1228.79C830.762 1233.14 831.578 1235.05 832.53 1236.82ZM814.306 1214.44L807.03 1194.32C806.758 1193.57 806.554 1192.75 805.806 1190.51C804.718 1193.7 804.718 1193.7 804.514 1194.32L797.442 1214.44H814.306Z" fill="black"/>
<path d="M765.757 1218.59L775.481 1220.29C774.189 1225.19 772.965 1227.84 770.925 1230.49C767.049 1235.25 760.521 1237.9 752.361 1237.9C744.949 1237.9 739.033 1235.66 734.885 1231.38C730.125 1226.41 727.473 1218.73 727.473 1210.02C727.473 1201.05 730.329 1193.16 735.429 1188.06C739.509 1183.91 745.629 1181.6 752.429 1181.6C757.733 1181.6 761.745 1182.62 765.485 1184.86C768.545 1186.77 770.993 1189.28 772.693 1192.28C773.509 1193.7 773.985 1194.93 774.801 1197.51L765.349 1199.69C764.397 1196.7 763.785 1195.4 762.425 1193.84C760.113 1191.05 756.713 1189.62 752.497 1189.62C742.841 1189.62 736.993 1197.17 736.993 1209.68C736.993 1222.13 742.977 1229.88 752.497 1229.88C757.257 1229.88 761.337 1228.04 763.513 1224.85C764.669 1223.15 765.213 1221.72 765.757 1218.59Z" fill="black"/>
<path d="M709.318 1182.69H719.654C719.246 1185.27 719.11 1187.38 719.11 1191.46V1228.04C719.11 1232.06 719.246 1234.23 719.654 1236.82H709.318C709.726 1234.23 709.862 1232.06 709.862 1228.04V1191.46C709.862 1187.24 709.726 1185.41 709.318 1182.69Z" fill="black"/>
<path d="M671.039 1236.82H660.975C661.383 1234.1 661.519 1231.72 661.519 1228.04V1191.26C661.519 1187.99 661.383 1185.54 660.975 1182.48C663.899 1182.62 666.007 1182.69 669.611 1182.69H683.823C690.419 1182.69 695.043 1184.25 698.307 1187.52C701.095 1190.24 702.523 1194.32 702.523 1199.21C702.523 1204.38 700.959 1208.6 697.967 1211.72C694.635 1215.06 690.011 1216.62 683.483 1216.62H670.495V1227.98C670.495 1231.65 670.631 1234.23 671.039 1236.82ZM670.495 1208.8H683.483C689.739 1208.8 693.139 1205.47 693.139 1199.48C693.139 1196.76 692.391 1194.52 690.895 1192.96C689.331 1191.26 687.087 1190.51 683.483 1190.51H670.495V1208.8Z" fill="black"/>
<path d="M619.258 1182.69H629.118C628.778 1185.34 628.642 1187.52 628.642 1191.6V1227.98C628.642 1231.58 628.778 1233.82 629.118 1236.82H619.258C619.598 1233.89 619.734 1231.92 619.734 1227.98V1191.53C619.734 1187.45 619.598 1185.27 619.258 1182.69Z" fill="black"/>
<path d="M592.402 1238.11C579.958 1238.11 572.07 1230.08 572.07 1217.37C572.07 1204.72 579.958 1196.63 592.334 1196.63C604.642 1196.63 612.462 1204.65 612.462 1217.23C612.462 1229.81 604.506 1238.11 592.402 1238.11ZM592.334 1203.7C585.194 1203.7 580.842 1208.87 580.842 1217.37C580.842 1225.73 585.194 1230.9 592.266 1230.9C599.338 1230.9 603.69 1225.8 603.69 1217.5C603.69 1208.73 599.542 1203.7 592.334 1203.7Z" fill="black"/>
<path d="M537.741 1236.82H527.949C528.357 1233.89 528.493 1231.78 528.493 1227.98V1206.62C528.493 1202.88 528.357 1200.57 527.949 1197.78H537.197V1201.39C537.197 1202.41 537.197 1202.61 537.061 1204.31C541.209 1199.01 544.813 1197.1 550.933 1197.1C556.169 1197.1 560.045 1198.8 562.493 1202.14C564.125 1204.38 564.805 1207.1 564.805 1211.66V1227.98C564.805 1231.72 564.941 1234.3 565.349 1236.82H555.489C555.829 1233.76 555.965 1231.44 555.965 1227.98V1212.88C555.965 1210.02 555.625 1208.19 554.809 1206.9C553.721 1205.13 551.681 1204.11 549.097 1204.11C544.201 1204.11 540.189 1207.51 537.197 1214.24V1227.98C537.197 1231.31 537.333 1233.89 537.741 1236.82Z" fill="black"/>
<path d="M510.69 1236.82V1232.4C507.97 1234.98 506.27 1235.93 503.482 1236.68C501.51 1237.22 499.334 1237.5 497.158 1237.5C488.862 1237.5 483.83 1233.21 483.83 1226.07C483.83 1221.31 486.822 1217.03 491.514 1215.06C495.934 1213.22 500.966 1212.54 510.69 1212.34V1208.87C510.69 1204.92 508.038 1202.88 502.87 1202.88C500.15 1202.88 497.362 1203.63 495.798 1204.86C494.506 1205.81 493.894 1206.76 493.078 1209.21L484.374 1207.64C485.938 1203.7 487.162 1201.93 489.746 1200.1C493.078 1197.65 496.886 1196.63 502.734 1196.63C509.262 1196.63 513.206 1197.78 516.13 1200.64C518.442 1202.82 519.326 1205.4 519.326 1210.02V1228.32C519.326 1231.92 519.462 1233.76 519.87 1236.82H510.69ZM510.69 1221.65V1218.25C497.702 1218.52 492.602 1220.77 492.602 1226.07C492.602 1229.27 494.982 1231.24 498.79 1231.24C502.394 1231.24 505.93 1229.88 508.242 1227.64C509.874 1226 510.69 1224.03 510.69 1221.65Z" fill="black"/>
<path d="M445.751 1197.78V1201.12C445.751 1201.86 445.751 1202.61 445.683 1203.5C449.423 1198.74 453.435 1196.83 459.555 1196.83C464.995 1196.83 469.347 1198.46 472.475 1201.59C476.079 1205.26 477.847 1210.36 477.847 1217.23C477.847 1229.74 470.979 1237.29 459.419 1237.29C453.435 1237.29 448.947 1235.18 445.683 1230.76C445.683 1231.58 445.683 1231.58 445.751 1232.94C445.819 1233.42 445.819 1234.64 445.819 1235.86V1241.03C445.819 1245.04 445.955 1247.22 446.295 1250.08H436.707C437.047 1246.88 437.183 1244.57 437.183 1241.1V1206.9C437.183 1202.95 437.047 1200.71 436.707 1197.78H445.751ZM469.007 1217.1C469.007 1209.07 464.791 1204.11 457.923 1204.11C451.191 1204.11 446.091 1209.68 446.091 1216.96C446.091 1224.71 451.123 1230.15 458.195 1230.15C464.859 1230.15 469.007 1225.12 469.007 1217.1Z" fill="black"/>
<path d="M394.697 1225.73L404.013 1224.58C405.169 1229.2 407.685 1231.04 412.989 1231.04C418.021 1231.04 421.149 1229.06 421.149 1225.87C421.149 1224.51 420.469 1223.22 419.381 1222.47C418.089 1221.58 417.681 1221.52 412.241 1220.29C406.869 1219.14 404.761 1218.46 402.449 1217.37C398.573 1215.53 396.465 1212.27 396.465 1208.32C396.465 1205.94 397.213 1203.7 398.573 1202C401.361 1198.46 405.985 1196.7 412.173 1196.7C417.749 1196.7 422.169 1198.06 424.957 1200.64C426.725 1202.34 427.677 1204.04 428.629 1207.37L419.653 1208.53C418.905 1204.79 416.593 1203.16 412.173 1203.16C407.957 1203.16 405.101 1205.06 405.101 1207.92C405.101 1209.21 405.849 1210.36 407.209 1211.11C408.705 1211.86 410.133 1212.27 414.009 1213.15C420.945 1214.65 423.733 1215.6 425.977 1217.3C428.629 1219.2 429.921 1221.99 429.921 1225.73C429.921 1228.52 428.629 1231.51 426.589 1233.42C423.461 1236.34 418.701 1237.84 412.513 1237.84C405.509 1237.84 400.273 1235.73 397.349 1231.78C396.125 1230.15 395.513 1228.79 394.697 1225.73Z" fill="black"/>
<path d="M389.083 1228.25V1237.29C386.635 1236.95 384.459 1236.82 380.311 1236.82H359.095C355.015 1236.82 353.179 1236.88 350.459 1237.02C350.867 1234.3 351.003 1232.06 351.003 1228.04V1191.26C351.003 1187.72 350.867 1185.68 350.459 1182.48C353.179 1182.62 354.947 1182.69 359.095 1182.69H379.631C383.031 1182.69 385.275 1182.55 388.403 1182.21V1191.19C385.819 1190.85 383.643 1190.71 379.631 1190.71H360.047V1204.72H376.571C380.107 1204.72 382.419 1204.58 385.411 1204.24V1213.15C382.623 1212.74 380.787 1212.68 376.571 1212.68H359.979V1228.72H380.379C384.187 1228.72 386.159 1228.59 389.083 1228.25Z" fill="black"/>
<path d="M322.225 1197.78L319.845 1206.35C316.989 1205.54 315.561 1205.26 313.793 1205.26C310.393 1205.26 307.809 1206.35 305.905 1208.6C304.205 1210.57 303.525 1212.13 303.117 1215.4V1227.98C303.117 1231.65 303.253 1233.62 303.593 1236.82H293.869C294.209 1233.48 294.345 1231.51 294.345 1227.98V1206.62C294.345 1202.48 294.277 1200.57 293.869 1197.78H303.117V1204.18C305.565 1199.35 309.781 1197.04 315.901 1197.04C317.533 1197.04 319.165 1197.24 322.225 1197.78Z" fill="black"/>
<path d="M276.475 1236.82V1232.4C273.755 1234.98 272.055 1235.93 269.267 1236.68C267.295 1237.22 265.119 1237.5 262.943 1237.5C254.647 1237.5 249.615 1233.21 249.615 1226.07C249.615 1221.31 252.607 1217.03 257.299 1215.06C261.719 1213.22 266.751 1212.54 276.475 1212.34V1208.87C276.475 1204.92 273.823 1202.88 268.655 1202.88C265.935 1202.88 263.147 1203.63 261.583 1204.86C260.291 1205.81 259.679 1206.76 258.863 1209.21L250.159 1207.64C251.723 1203.7 252.947 1201.93 255.531 1200.1C258.863 1197.65 262.671 1196.63 268.519 1196.63C275.047 1196.63 278.991 1197.78 281.915 1200.64C284.227 1202.82 285.111 1205.4 285.111 1210.02V1228.32C285.111 1231.92 285.247 1233.76 285.655 1236.82H276.475ZM276.475 1221.65V1218.25C263.487 1218.52 258.387 1220.77 258.387 1226.07C258.387 1229.27 260.767 1231.24 264.575 1231.24C268.179 1231.24 271.715 1229.88 274.027 1227.64C275.659 1226 276.475 1224.03 276.475 1221.65Z" fill="black"/>
<path d="M225.414 1236.82H208.686C204.742 1236.82 202.77 1236.88 199.982 1237.02C200.458 1234.16 200.594 1232.19 200.594 1227.84V1190.92C200.594 1187.79 200.39 1185.34 200.05 1182.55C202.906 1182.69 203.994 1182.69 208.618 1182.69H224.666C235.206 1182.69 241.122 1187.45 241.122 1195.95C241.122 1200.1 239.898 1203.16 237.314 1205.54C235.818 1206.96 234.594 1207.58 231.942 1208.39C235.41 1209.14 236.974 1209.82 238.81 1211.52C241.598 1214.1 243.026 1217.5 243.026 1221.92C243.026 1231.44 236.702 1236.82 225.414 1236.82ZM209.57 1204.86H223.714C228.882 1204.86 231.942 1202.07 231.942 1197.44C231.942 1195.27 231.262 1193.43 230.174 1192.41C228.678 1191.05 226.366 1190.3 223.646 1190.3H209.57V1204.86ZM209.57 1212.4V1229.13H224.19C230.242 1229.13 233.642 1226.14 233.642 1220.63C233.642 1217.91 232.962 1216.08 231.466 1214.72C229.766 1213.22 227.182 1212.4 224.054 1212.4H209.57Z" fill="black"/>
</svg>
