<svg width="1080" height="1920" viewBox="0 0 1080 1920" fill="none" xmlns="http://www.w3.org/2000/svg">
<path d="M1080 1920L1080 0L0 0L0 1920H1080Z" fill="#A5D4AD"/>
<path d="M1020 983.72V95C1020 75.67 1004.33 60 985 60H95.58C75.93 60 60 75.93 60 95.58V983.71C60 984.03 60.25 984.28 60.57 984.28C80.03 984.59 95.71 1000.46 95.71 1019.99C95.71 1039.52 80.03 1055.39 60.57 1055.7C60.25 1055.7 60 1055.96 60 1056.27V1824.99C60 1844.32 75.67 1859.99 95 1859.99H985C1004.33 1859.99 1020 1844.32 1020 1824.99V1056.27C1020 1055.95 1019.75 1055.7 1019.43 1055.7C999.97 1055.39 984.29 1039.52 984.29 1019.99C984.29 1000.46 999.97 984.59 1019.43 984.28C1019.75 984.28 1020 984.02 1020 983.71V983.72Z" fill="white"/>
<path d="M60.57 1055.71C60.25 1055.71 60 1055.97 60 1056.28V1825C60 1844.33 75.67 1860 95 1860H985C1004.33 1860 1020 1844.33 1020 1825V1056.28C1020 1055.96 1019.75 1055.71 1019.43 1055.71C999.97 1055.4 984.29 1039.53 984.29 1020H95.71C95.71 1039.53 80.03 1055.4 60.57 1055.71Z" fill="#E5F2E6"/>
<path d="M121 1020H160.9" stroke="black" stroke-width="6" stroke-miterlimit="10"/>
<path d="M187.51 1020H227.41" stroke="black" stroke-width="6" stroke-miterlimit="10"/>
<path d="M254.02 1020H293.92" stroke="black" stroke-width="6" stroke-miterlimit="10"/>
<path d="M320.52 1020H360.43" stroke="black" stroke-width="6" stroke-miterlimit="10"/>
<path d="M387.03 1020H426.94" stroke="black" stroke-width="6" stroke-miterlimit="10"/>
<path d="M453.54 1020H493.44" stroke="black" stroke-width="6" stroke-miterlimit="10"/>
<path d="M520.05 1020H559.95" stroke="black" stroke-width="6" stroke-miterlimit="10"/>
<path d="M586.56 1020H626.46" stroke="black" stroke-width="6" stroke-miterlimit="10"/>
<path d="M653.06 1020H692.97" stroke="black" stroke-width="6" stroke-miterlimit="10"/>
<path d="M719.57 1020H759.48" stroke="black" stroke-width="6" stroke-miterlimit="10"/>
<path d="M786.08 1020H825.98" stroke="black" stroke-width="6" stroke-miterlimit="10"/>
<path d="M852.59 1020H892.49" stroke="black" stroke-width="6" stroke-miterlimit="10"/>
<path d="M919.1 1020H959" stroke="black" stroke-width="6" stroke-miterlimit="10"/>
<path d="M1020 984.29V95C1020 75.67 1004.33 60 985 60H95C75.67 60 60 75.67 60 95V984.29C79.72 984.29 95.71 1000.28 95.71 1020C95.71 1039.72 79.72 1055.71 60 1055.71V1825C60 1844.33 75.67 1860 95 1860H985C1004.33 1860 1020 1844.33 1020 1825V1055.71C1000.28 1055.71 984.29 1039.72 984.29 1020C984.29 1000.28 1000.28 984.29 1020 984.29Z" stroke="black" stroke-width="6" stroke-miterlimit="10"/>
<path d="M912.642 525.66C908.772 525.66 905.532 522.64 905.312 518.73C900.582 435.62 868.782 358.85 813.362 296.74C810.662 293.71 810.922 289.06 813.952 286.36C816.982 283.66 821.622 283.92 824.332 286.95C881.992 351.57 915.062 431.43 919.992 517.89C920.222 521.94 917.122 525.42 913.072 525.65C912.932 525.65 912.792 525.66 912.652 525.66H912.642Z" fill="black"/>
<path d="M818.842 795.509C817.102 795.509 815.352 794.889 813.952 793.639C810.922 790.939 810.662 786.289 813.362 783.259C868.782 721.149 900.582 644.379 905.312 561.269C905.542 557.219 909.022 554.109 913.072 554.349C917.122 554.579 920.222 558.049 919.992 562.109C915.062 648.579 881.992 728.439 824.332 793.049C822.882 794.679 820.862 795.509 818.842 795.509Z" fill="black"/>
<path d="M167.352 525.66C167.212 525.66 167.072 525.66 166.932 525.65C162.882 525.42 159.782 521.95 160.012 517.89C164.942 431.42 198.012 351.56 255.672 286.95C258.372 283.92 263.022 283.66 266.052 286.36C269.082 289.06 269.342 293.71 266.642 296.74C211.222 358.85 179.422 435.61 174.692 518.73C174.472 522.64 171.232 525.66 167.362 525.66H167.352Z" fill="black"/>
<path d="M261.162 795.509C259.142 795.509 257.122 794.679 255.672 793.049C198.012 728.429 164.942 648.569 160.012 562.109C159.782 558.059 162.882 554.579 166.932 554.349C170.982 554.109 174.462 557.219 174.692 561.269C179.422 644.389 211.222 721.149 266.642 783.259C269.342 786.289 269.082 790.939 266.052 793.639C264.652 794.889 262.902 795.509 261.162 795.509Z" fill="black"/>
<path d="M788.162 268.509C786.422 268.509 784.672 267.889 783.272 266.639C721.162 211.219 644.392 179.419 561.282 174.689C557.232 174.459 554.132 170.989 554.362 166.929C554.592 162.879 558.032 159.789 562.122 160.009C648.592 164.939 728.452 198.009 793.062 255.669C796.092 258.369 796.352 263.019 793.652 266.049C792.202 267.679 790.182 268.509 788.162 268.509Z" fill="black"/>
<path d="M291.842 268.51C289.822 268.51 287.802 267.68 286.352 266.05C283.652 263.02 283.912 258.37 286.942 255.67C351.562 198.01 431.422 164.94 517.882 160.01C521.932 159.78 525.412 162.88 525.642 166.93C525.872 170.98 522.772 174.46 518.722 174.69C435.612 179.42 358.842 211.22 296.732 266.64C295.332 267.89 293.582 268.51 291.842 268.51Z" fill="black"/>
<path d="M561.682 920C557.812 920 554.572 916.98 554.352 913.07C554.122 909.02 557.222 905.54 561.272 905.31C644.392 900.58 721.152 868.78 783.262 813.36C786.292 810.66 790.942 810.92 793.642 813.95C796.342 816.98 796.082 821.63 793.052 824.33C728.432 881.99 648.572 915.06 562.112 919.99C561.972 919.99 561.832 920 561.692 920H561.682Z" fill="black"/>
<path d="M518.312 920C518.172 920 518.032 920 517.892 919.99C431.422 915.06 351.562 881.99 286.952 824.33C283.922 821.63 283.662 816.98 286.362 813.95C289.062 810.92 293.712 810.66 296.742 813.36C358.852 868.78 435.622 900.58 518.732 905.31C522.782 905.54 525.882 909.01 525.652 913.07C525.432 916.98 522.192 920 518.322 920H518.312Z" fill="black"/>
<path d="M875.372 526.191C872.362 526.191 869.842 523.841 869.672 520.801C865.402 445.791 836.702 376.521 786.692 320.461C784.592 318.101 784.792 314.491 787.152 312.391C789.502 310.291 793.122 310.491 795.222 312.851C846.972 370.851 876.672 442.541 881.092 520.151C881.272 523.301 878.862 526.001 875.712 526.181C875.602 526.181 875.492 526.181 875.382 526.181L875.372 526.191Z" fill="black"/>
<path d="M790.952 769.062C789.592 769.062 788.242 768.582 787.152 767.612C784.792 765.512 784.592 761.892 786.692 759.542C836.702 703.492 865.402 634.212 869.672 559.202C869.852 556.052 872.542 553.642 875.702 553.822C878.852 554.002 881.262 556.702 881.082 559.852C876.662 637.472 846.972 709.152 795.212 767.152C794.082 768.422 792.512 769.062 790.942 769.062H790.952Z" fill="black"/>
<path d="M204.622 526.191C204.512 526.191 204.402 526.191 204.292 526.191C201.142 526.011 198.732 523.311 198.912 520.161C203.332 442.541 233.022 370.861 284.782 312.861C286.882 310.501 290.502 310.301 292.852 312.401C295.212 314.501 295.412 318.121 293.312 320.471C243.302 376.521 214.602 445.801 210.332 520.811C210.162 523.851 207.642 526.201 204.632 526.201L204.622 526.191Z" fill="black"/>
<path d="M289.042 769.061C287.472 769.061 285.902 768.411 284.772 767.151C233.022 709.151 203.322 637.461 198.902 559.851C198.722 556.701 201.132 554.001 204.282 553.821C207.442 553.631 210.132 556.051 210.312 559.201C214.582 634.211 243.282 703.491 293.292 759.541C295.392 761.901 295.192 765.511 292.832 767.611C291.742 768.581 290.382 769.061 289.032 769.061H289.042Z" fill="black"/>
<path d="M763.342 294.762C761.982 294.762 760.632 294.282 759.542 293.312C703.492 243.302 634.212 214.602 559.202 210.332C556.052 210.152 553.642 207.452 553.822 204.302C554.002 201.152 556.692 198.742 559.852 198.922C637.472 203.342 709.152 233.032 767.152 284.792C769.512 286.892 769.712 290.512 767.612 292.862C766.482 294.132 764.912 294.772 763.342 294.772V294.762Z" fill="black"/>
<path d="M316.652 294.761C315.082 294.761 313.512 294.111 312.382 292.851C310.282 290.491 310.482 286.881 312.842 284.781C370.842 233.031 442.532 203.331 520.142 198.911C523.292 198.721 525.992 201.141 526.172 204.291C526.352 207.441 523.942 210.141 520.792 210.321C445.782 214.591 376.512 243.291 320.452 293.301C319.362 294.271 318.002 294.751 316.652 294.751V294.761Z" fill="black"/>
<path d="M559.522 881.102C556.512 881.102 553.992 878.752 553.822 875.712C553.642 872.562 556.052 869.862 559.202 869.682C634.212 865.412 703.482 836.712 759.542 786.702C761.892 784.602 765.512 784.802 767.612 787.162C769.712 789.522 769.512 793.132 767.152 795.232C709.152 846.982 637.462 876.682 559.852 881.102C559.742 881.102 559.632 881.102 559.522 881.102Z" fill="black"/>
<path d="M520.482 881.102C520.372 881.102 520.262 881.102 520.152 881.102C442.532 876.682 370.852 846.992 312.852 795.232C310.492 793.132 310.292 789.512 312.392 787.162C314.492 784.802 318.112 784.602 320.462 786.702C376.512 836.722 445.792 865.412 520.802 869.682C523.952 869.862 526.362 872.562 526.182 875.712C526.012 878.752 523.492 881.102 520.482 881.102Z" fill="black"/>
<path d="M841.842 526.51C839.692 526.51 837.892 524.83 837.772 522.66C833.912 454.91 807.992 392.34 762.822 341.71C761.322 340.03 761.472 337.45 763.152 335.94C764.832 334.44 767.412 334.58 768.922 336.27C815.342 388.29 841.972 452.58 845.932 522.19C846.062 524.44 844.342 526.37 842.082 526.5C842.002 526.5 841.922 526.5 841.842 526.5V526.51Z" fill="black"/>
<path d="M765.863 745.101C764.893 745.101 763.923 744.761 763.143 744.061C761.463 742.561 761.313 739.981 762.813 738.291C807.983 687.661 833.903 625.091 837.763 557.341C837.893 555.091 839.853 553.391 842.073 553.491C844.323 553.621 846.043 555.551 845.923 557.801C841.953 627.411 815.323 691.701 768.913 743.721C768.103 744.621 766.983 745.081 765.863 745.081V745.101Z" fill="black"/>
<path d="M238.162 526.51C238.082 526.51 238.002 526.51 237.922 526.51C235.672 526.38 233.952 524.45 234.072 522.2C238.042 452.59 264.672 388.3 311.082 336.28C312.582 334.6 315.162 334.45 316.852 335.95C318.532 337.45 318.682 340.03 317.182 341.72C272.012 392.35 246.092 454.92 242.232 522.67C242.112 524.84 240.312 526.52 238.162 526.52V526.51Z" fill="black"/>
<path d="M314.132 745.101C313.012 745.101 311.892 744.641 311.082 743.741C264.662 691.721 238.032 627.431 234.072 557.821C233.942 555.571 235.662 553.641 237.922 553.511C240.162 553.401 242.102 555.101 242.232 557.361C246.092 625.111 272.012 687.681 317.182 738.311C318.682 739.991 318.532 742.571 316.852 744.081C316.072 744.771 315.102 745.121 314.132 745.121V745.101Z" fill="black"/>
<path d="M741.012 318.219C740.042 318.219 739.072 317.879 738.292 317.179C687.662 272.009 625.092 246.089 557.342 242.229C555.092 242.099 553.372 240.169 553.492 237.919C553.622 235.669 555.542 233.959 557.802 234.069C627.412 238.039 691.702 264.669 743.732 311.079C745.412 312.579 745.562 315.159 744.062 316.849C743.252 317.749 742.132 318.209 741.012 318.209V318.219Z" fill="black"/>
<path d="M338.992 318.22C337.872 318.22 336.752 317.76 335.942 316.86C334.442 315.18 334.592 312.6 336.272 311.09C388.292 264.67 452.582 238.04 522.192 234.08C524.442 233.96 526.372 235.67 526.502 237.93C526.632 240.18 524.912 242.11 522.652 242.24C454.902 246.1 392.332 272.02 341.702 317.19C340.922 317.88 339.952 318.23 338.982 318.23L338.992 318.22Z" fill="black"/>
<path d="M557.562 845.929C555.412 845.929 553.612 844.249 553.492 842.079C553.362 839.829 555.082 837.899 557.342 837.769C625.092 833.909 687.662 807.989 738.292 762.819C739.972 761.319 742.552 761.469 744.062 763.149C745.562 764.829 745.412 767.409 743.732 768.919C691.712 815.339 627.422 841.969 557.802 845.929C557.722 845.929 557.642 845.929 557.562 845.929Z" fill="black"/>
<path d="M522.432 845.929C522.352 845.929 522.272 845.929 522.192 845.929C452.582 841.959 388.292 815.329 336.272 768.919C334.592 767.419 334.442 764.839 335.942 763.149C337.442 761.469 340.022 761.319 341.712 762.819C392.342 807.989 454.912 833.909 522.662 837.769C524.912 837.899 526.632 839.829 526.512 842.079C526.392 844.249 524.592 845.929 522.442 845.929H522.432Z" fill="black"/>
<path d="M320.642 546.17C320.642 544.6 321.782 543.27 323.332 543.02C324.632 542.81 326.262 542.52 327.972 542.12C332.392 541.08 337.582 539.11 343.402 536.27C349.282 533.4 354.912 529.41 359.162 523.67C366.332 513.97 367.852 501.4 368.182 496.89C368.252 495.97 367.522 495.19 366.592 495.19H317.082C315.322 495.19 313.902 493.76 313.902 492.01V470.69C313.902 468.93 315.332 467.51 317.082 467.51H367.062C367.942 467.51 368.652 466.8 368.652 465.92V447.18C368.652 446.3 367.942 445.59 367.062 445.59H328.612C326.852 445.59 325.432 444.16 325.432 442.41V421.09C325.432 419.33 326.862 417.91 328.612 417.91H428.952C430.712 417.91 432.132 419.34 432.132 421.09V442.41C432.132 444.17 430.702 445.59 428.952 445.59H398.512C397.632 445.59 396.922 446.3 396.922 447.18V465.92C396.922 466.8 397.632 467.51 398.512 467.51H438.572C440.332 467.51 441.752 468.94 441.752 470.69V492.01C441.752 493.77 440.322 495.19 438.572 495.19H398.382C397.532 495.19 396.832 495.86 396.792 496.71C396.562 501.75 395.142 518.44 386.172 532.85C380.722 541.61 373.642 548.26 366.532 553.54C359.402 558.84 352.252 562.93 345.262 565.7C338.232 568.49 332.332 570.44 327.742 571.51C326.652 571.76 325.482 571.99 324.392 572.18C322.442 572.53 320.652 571.03 320.652 569.04V546.16L320.642 546.17Z" fill="black"/>
<path d="M474.542 546.52C474.542 545.06 475.542 543.79 476.952 543.43C485.202 541.36 488.922 540.11 496.832 536.32C496.832 536.32 500.882 534.21 504.922 531.3C517.102 522.54 525.212 510.63 525.212 510.63C534.672 497.28 537.762 474.91 538.482 468.49C538.592 467.55 537.852 466.72 536.902 466.72H500.572C500.342 466.72 500.132 466.84 500.022 467.04L499.872 467.29C494.292 478.11 486.872 487.99 480.442 494.24C473.992 500.5 468.582 505.05 464.372 507.75L461.772 509.42C460.712 510.1 459.322 509.34 459.322 508.08V479.89C459.322 478.95 459.742 478.06 460.462 477.45C461.112 476.9 461.982 476.13 463.172 475.06C465.932 472.57 469.042 468.51 472.412 462.98C475.752 457.51 479.342 450.21 483.062 441.29C486.442 433.2 488.972 423.09 490.852 412.06C491.112 410.53 492.442 409.42 493.992 409.42H513.902C515.902 409.42 517.412 411.25 517.032 413.21C516.392 416.52 515.702 420.88 514.842 424.31C513.572 429.39 512.752 432.3 511.232 436.72C510.972 437.47 511.532 438.24 512.322 438.24H591.172C592.932 438.24 594.352 439.67 594.352 441.42V463.51C594.352 465.27 592.922 466.69 591.172 466.69H568.132C567.322 466.69 566.632 467.3 566.552 468.11C565.922 474.01 562.872 497.16 552.382 517.26C538.282 546 508.132 566.39 478.332 572.13C476.372 572.51 474.552 571 474.552 569V546.48L474.542 546.52Z" fill="black"/>
<path d="M675.893 411.029V468.869C675.893 469.749 676.603 470.459 677.483 470.459H764.513C765.393 470.459 766.103 469.749 766.103 468.869V411.029C766.103 410.149 765.393 409.439 764.513 409.439H677.483C676.603 409.439 675.893 410.149 675.893 411.029ZM738.453 452.739H702.293C701.413 452.739 700.703 452.029 700.703 451.149V446.869C700.703 445.989 701.413 445.279 702.293 445.279H738.453C739.333 445.279 740.043 445.989 740.043 446.869V451.149C740.043 452.029 739.333 452.739 738.453 452.739ZM738.453 434.449H702.293C701.413 434.449 700.703 433.739 700.703 432.859V428.749C700.703 427.869 701.413 427.159 702.293 427.159H738.453C739.333 427.159 740.043 427.869 740.043 428.749V432.859C740.043 433.739 739.333 434.449 738.453 434.449Z" fill="black"/>
<path d="M674.222 497.34H728.262C729.142 497.34 729.852 498.05 729.852 498.93V502.84C729.852 503.72 729.142 504.43 728.262 504.43H667.752C665.992 504.43 664.572 505.86 664.572 507.61V522.86C664.572 524.62 666.002 526.04 667.752 526.04H728.262C729.142 526.04 729.852 526.75 729.852 527.63V545.39C729.852 546.11 729.932 547.98 729.212 548.85C728.382 549.87 727.142 549.67 725.842 549.72C722.532 549.72 719.572 549.7 716.942 549.66C716.542 549.66 716.252 549.29 716.332 548.9C716.592 547.63 716.722 546.31 716.692 544.96C716.492 535.68 708.932 528.08 699.652 527.84C689.572 527.58 681.362 535.85 681.702 545.94C682.012 555.29 689.782 562.81 699.142 562.84C704.032 562.85 708.452 560.86 711.632 557.64C711.972 557.3 712.542 557.43 712.692 557.88C714.152 562.21 715.532 566.34 716.782 570.05C717.222 571.35 718.452 572.22 719.822 572.21C725.722 572.17 730.502 571.96 734.172 571.6C738.302 571.18 742.082 570.15 745.512 568.5C749.172 566.84 751.682 564.42 753.042 561.23C754.402 558.04 755.082 553.55 755.082 547.76V527.62C755.082 526.74 755.792 526.03 756.672 526.03H762.902C764.662 526.03 766.082 524.6 766.082 522.85V507.6C766.082 505.84 764.652 504.42 762.902 504.42H756.672C755.792 504.42 755.082 503.71 755.082 502.83V498.92C755.082 498.04 755.792 497.33 756.672 497.33H762.902C764.662 497.33 766.082 495.9 766.082 494.15V479.6C766.082 477.84 764.652 476.42 762.902 476.42H674.202C672.442 476.42 671.022 477.85 671.022 479.6V494.15C671.022 495.91 672.452 497.33 674.202 497.33L674.222 497.34Z" fill="black"/>
<path d="M668.822 409.439H650.252C649.392 409.439 648.572 409.789 647.972 410.399C635.222 423.349 618.282 434.569 612.122 438.479C610.772 439.329 610.272 441.059 610.942 442.499L620.692 463.569C621.622 465.569 624.252 466.049 625.822 464.499C646.112 444.459 664.442 419.799 670.112 411.959C670.872 410.909 670.112 409.439 668.822 409.439Z" fill="black"/>
<path d="M671.912 453.889V435.409C671.912 433.999 670.212 433.289 669.202 434.279C653.632 449.599 620.042 477.059 611.672 483.859C610.542 484.779 610.182 486.349 610.792 487.669L620.692 509.049C621.622 511.049 624.252 511.529 625.822 509.979C627.532 508.289 629.232 506.559 630.912 504.819C631.312 504.409 632.012 504.689 632.012 505.259V569.059C632.012 570.819 633.442 572.239 635.192 572.239H653.812C655.572 572.239 656.992 570.809 656.992 569.059V476.369C656.992 475.299 657.352 474.249 658.022 473.409C664.862 464.729 669.712 458.019 671.332 455.739C671.712 455.199 671.922 454.559 671.922 453.889H671.912Z" fill="black"/>
<path d="M653.263 623.33C640.843 623.33 634.803 628.28 634.803 638.47V655.6C634.803 665.67 640.843 670.56 653.263 670.56C659.133 670.56 663.473 669.48 666.553 667.27C669.993 664.8 671.733 660.87 671.733 655.59V638.46C671.733 628.27 665.693 623.32 653.273 623.32L653.263 623.33ZM646.083 639.3C646.083 633.93 648.833 632.91 653.263 632.91C657.693 632.91 660.443 633.95 660.443 639.3V654.68C660.443 659.95 657.593 660.98 653.263 660.98C648.933 660.98 646.083 659.98 646.083 654.68V639.3Z" fill="black"/>
<path d="M708.263 669.331H721.353L703.623 646.781L720.553 624.8H707.393L694.053 642.281V610.23H682.763V669.331H694.053V659.211L696.943 655.451L708.263 669.331Z" fill="black"/>
<path d="M754.812 624.801V653.291C754.812 659.041 751.872 660.891 746.822 660.891C743.552 660.891 740.272 660.351 740.272 653.881V624.811H728.992V656.771C728.992 665.741 733.702 670.481 742.612 670.481C749.292 670.481 753.872 666.861 755.572 662.801L757.382 669.341H766.102V624.811H754.822L754.812 624.801Z" fill="black"/>
<path d="M630.563 610.23H589.143V620.141V620.151H604.213V669.331H615.683V620.151H630.563V610.23Z" fill="black"/>
<path d="M459.682 669.331H472.772L455.042 646.781L471.972 624.8H458.812L445.472 642.281V610.23H434.192V669.331H445.472V659.211L448.362 655.451L459.682 669.331Z" fill="black"/>
<path d="M355.322 610.23H313.902V620.141V620.151H328.982V669.331H340.442V620.151H355.322V610.23Z" fill="black"/>
<path d="M421.792 658.89L421.192 659.04C417.612 659.96 413.282 660.89 409.402 660.89C404.852 660.89 401.682 658.82 401.682 652.83V640.97C401.682 634.9 404.852 632.82 409.402 632.82C413.352 632.82 417.872 633.7 421.222 634.4L421.802 634.52V625.19L421.492 625.12C417.682 624.23 412.042 623.33 407.522 623.33C402.002 623.33 397.962 624.4 395.162 626.59C391.962 629.09 390.412 633.85 390.412 639.34V654.64C390.412 664.77 396.012 670.56 407.532 670.56C411.402 670.56 417.262 669.49 421.522 668.31L421.812 668.23V658.88L421.792 658.89Z" fill="black"/>
<path d="M553.922 634.699V624.799H543.682V615.189H532.402V624.799H525.172V634.699H532.402V655.419C532.402 667.939 540.292 670.559 546.922 670.559C548.702 670.559 550.502 670.449 552.112 670.219V660.259C551.462 660.329 550.252 660.359 549.532 660.359C546.452 660.359 543.682 659.729 543.682 652.089V634.689H553.922V634.699Z" fill="black"/>
<path d="M489.732 650.741V650.561H515.162V641.481C515.162 635.571 513.542 630.241 510.352 627.341C507.412 624.671 502.772 623.311 497.252 623.311C485.072 623.311 478.452 629.221 478.452 639.591V654.451C478.452 664.701 483.832 670.551 496.312 670.551C500.972 670.551 506.282 669.561 511.962 668.401L512.352 668.321V659.051L511.702 659.201C507.132 660.251 504.612 661.141 500.282 661.141C494.072 661.141 489.732 658.621 489.732 652.201V650.721V650.741ZM489.732 639.721C489.732 634.071 493.792 632.741 497.162 632.741C500.532 632.741 504.062 634.071 504.062 639.721V643.231H489.732V642.711V639.721Z" fill="black"/>
<path d="M378.173 626.881H366.893V669.331H378.173V626.881Z" fill="black"/>
<path d="M372.532 622.22C376.415 622.22 379.562 619.073 379.562 615.19C379.562 611.308 376.415 608.16 372.532 608.16C368.649 608.16 365.502 611.308 365.502 615.19C365.502 619.073 368.649 622.22 372.532 622.22Z" fill="black"/>
<path d="M585.733 643.92H566.143V651.26H585.733V643.92Z" fill="black"/>
<path d="M725.434 1702.04L716.026 1712.23C707.892 1702.24 696.622 1691.26 685.94 1683.13C674.866 1695.48 663.596 1704.1 648.602 1711.45C645.858 1706.35 644.682 1704.79 640.664 1700.57C648.21 1697.63 652.914 1694.99 660.264 1689.79C675.062 1679.4 686.822 1665.19 693.192 1649.91L694.27 1647.36C692.702 1647.46 692.702 1647.46 661.832 1647.95C657.128 1648.04 654.482 1648.24 651.15 1648.73L650.758 1636.19C653.502 1636.68 655.364 1636.77 659.382 1636.77C659.774 1636.77 660.558 1636.77 661.734 1636.77L696.23 1636.28C701.718 1636.19 702.502 1636.09 704.952 1635.21L711.42 1641.87C710.146 1643.34 709.362 1644.71 708.284 1647.16C703.776 1657.65 698.974 1666.17 692.996 1674.21C699.17 1678.33 704.462 1682.44 711.126 1688.42C713.576 1690.58 713.576 1690.58 725.434 1702.04Z" fill="black"/>
<path d="M565.302 1642.26V1662.06C580.1 1659.31 601.758 1650.59 608.128 1644.61L615.968 1655.69C615.282 1655.98 612.342 1657.35 607.148 1659.9C593.82 1666.27 580.1 1670.68 565.302 1673.43V1686.36C565.204 1686.85 565.204 1687.34 565.204 1687.64C565.204 1693.32 565.596 1695.57 566.968 1696.95C568.634 1698.71 574.22 1699.49 583.726 1699.49C590.292 1699.49 599.308 1698.91 606.462 1697.93C611.166 1697.34 613.322 1696.85 617.634 1695.57L618.222 1708.61C616.164 1708.61 615.674 1708.71 605.286 1709.69C599.504 1710.27 587.156 1710.86 581.178 1710.86C568.83 1710.86 562.068 1709.59 558.246 1706.65C555.502 1704.59 554.032 1701.45 553.444 1696.65C553.248 1694.99 553.15 1693.32 553.15 1687.64L553.052 1642.16C553.052 1637.17 553.052 1635.6 552.66 1633.15H565.792C565.4 1635.5 565.302 1637.26 565.302 1642.26ZM604.894 1631.68L611.852 1628.54C615.772 1632.95 618.418 1636.97 621.652 1643.44L614.596 1646.67C611.558 1640.4 609.01 1636.48 604.894 1631.68ZM633.51 1637.46L626.552 1640.99C623.906 1635.6 620.868 1630.89 617.144 1626.39L623.906 1623.25C628.218 1628.15 630.864 1631.97 633.51 1637.46Z" fill="black"/>
<path d="M444.958 1678.23V1664.61C449.27 1665.19 451.132 1665.29 460.834 1665.29H513.068C522.77 1665.29 524.632 1665.19 528.944 1664.61V1678.23C525.024 1677.74 523.946 1677.74 512.97 1677.74H460.932C449.956 1677.74 448.878 1677.74 444.958 1678.23Z" fill="black"/>
<path d="M376.162 1648.63H401.642L401.74 1644.22V1641.09C401.74 1634.62 401.642 1632.46 401.25 1630.21H413.892C413.598 1632.46 413.5 1632.95 413.5 1636.77C413.5 1642.75 413.5 1642.75 413.402 1648.63H419.674C426.632 1648.63 428.592 1648.53 432.414 1647.95V1659.9C428.984 1659.51 426.338 1659.41 419.87 1659.41H413.304C413.108 1671.17 413.108 1671.86 412.618 1675.58C411.246 1688.13 407.032 1696.46 398.506 1703.71C393.214 1708.22 388.412 1710.76 379.396 1714C377.534 1709.78 376.26 1707.92 372.046 1703.61C381.356 1700.77 386.06 1698.42 390.764 1694.3C397.428 1688.52 400.27 1682.05 401.152 1670.78C401.348 1668.53 401.348 1666.17 401.544 1659.41H376.162V1674.11C376.162 1678.23 376.26 1679.8 376.554 1682.34H363.814C364.108 1680.19 364.206 1677.54 364.206 1673.92V1659.41H358.228C351.76 1659.41 349.114 1659.51 345.684 1659.9V1647.95C349.506 1648.53 351.466 1648.63 358.424 1648.63H364.206V1638.83C364.206 1634.72 364.108 1632.66 363.716 1630.11H376.554C376.162 1633.34 376.162 1633.54 376.162 1638.54V1648.63Z" fill="black"/>
<path d="M748.362 1513.11L754.634 1519.28C753.654 1520.75 753.262 1521.63 752.184 1525.16C747.676 1540.06 740.718 1553.29 732.094 1562.99C723.078 1573.28 712.298 1580.92 697.206 1587.88C694.462 1582.98 693.188 1581.31 688.876 1577.59C698.676 1573.57 704.164 1570.63 710.338 1566.03C724.352 1555.64 733.564 1542.21 738.954 1524.67L709.456 1525.16C703.478 1534.67 695.834 1543.09 686.524 1550.25C683.584 1546.23 682.114 1544.96 677.018 1541.82C688.19 1534.18 695.246 1526.34 702.4 1513.4C705.438 1507.81 707.006 1503.99 707.398 1500.46L720.824 1503.11C720.236 1503.99 720.236 1503.99 719.158 1506.15C718.864 1506.64 718.864 1506.64 717.884 1508.89C717.59 1509.48 717.59 1509.48 716.61 1511.44C716.022 1512.81 716.022 1512.81 715.042 1514.58C716.316 1514.48 717.884 1514.38 719.746 1514.38L741.208 1514.09C745.03 1514.09 746.108 1513.89 748.362 1513.11Z" fill="black"/>
<path d="M582.84 1519.08L590.974 1509.38C602.636 1516.63 608.712 1521.14 616.258 1528.3L607.83 1538.98C599.99 1530.65 591.954 1524.18 582.84 1519.08ZM586.27 1583.76L582.644 1570.24C591.072 1569.75 602.734 1566.91 611.652 1562.99C623.902 1557.7 633.016 1550.15 640.758 1538.98C645.07 1532.71 647.814 1527.32 650.754 1519.38C654.576 1523.98 656.144 1525.45 661.142 1528.98C652.812 1546.92 643.502 1558.48 630.076 1567.4C620.08 1574.06 607.928 1578.86 592.738 1582.1C588.818 1582.88 588.524 1582.98 586.27 1583.76Z" fill="black"/>
<path d="M492.875 1504.68L506.203 1504.78C505.811 1507.52 505.811 1508.4 505.811 1513.6V1540.64C505.811 1545.54 505.811 1546.82 506.203 1549.27H492.777C493.071 1547.01 493.267 1543.98 493.267 1540.45V1513.5C493.267 1508.5 493.169 1507.23 492.875 1504.68ZM537.073 1504.87H550.695C550.303 1507.32 550.205 1508.4 550.205 1513.99V1527.22C550.107 1542.51 549.421 1550.74 547.657 1556.91C544.815 1566.71 538.543 1574.06 528.351 1579.75C523.157 1582.69 518.257 1584.65 509.241 1587.29C507.477 1582.49 506.497 1580.82 502.381 1575.63C511.985 1573.77 517.669 1571.71 523.549 1567.79C532.761 1561.71 535.995 1555.74 537.073 1542.8C537.465 1538.59 537.563 1534.27 537.563 1526.43V1514.18C537.563 1509.19 537.465 1507.13 537.073 1504.87Z" fill="black"/>
<path d="M412.614 1586.41H399.188C399.579 1583.67 399.775 1581.02 399.775 1575.43V1512.62C399.677 1506.93 399.579 1504.97 399.188 1502.62H412.614C412.32 1505.27 412.221 1507.13 412.221 1512.91V1531.14C423.589 1534.86 441.23 1543.09 456.714 1551.82L449.854 1563.38C442.994 1558.48 429.078 1550.93 415.161 1544.66C412.907 1543.58 412.613 1543.49 411.829 1543C412.124 1545.74 412.221 1547.41 412.221 1549.66V1575.53C412.221 1580.82 412.32 1583.57 412.614 1586.41ZM432.703 1511.15L439.564 1507.72C443.876 1512.32 446.521 1516.05 449.854 1522.12L442.993 1525.75C439.76 1519.77 437.015 1515.85 432.703 1511.15ZM461.516 1515.75L454.754 1519.57C451.814 1514.18 448.58 1509.58 444.758 1505.36L451.324 1501.93C455.734 1506.44 458.478 1510.17 461.516 1515.75Z" fill="black"/>
<path d="M349.02 1583.18H334.222C334.81 1579.35 335.006 1575.53 335.006 1570.44V1516.44H330.302C326.676 1516.44 323.834 1516.63 320.208 1517.03V1504.58C323.246 1505.07 325.402 1505.17 330.008 1505.17H339.024C344.022 1505.17 345.492 1505.07 349.02 1504.68C348.432 1510.46 348.236 1514.97 348.236 1520.85V1570.44C348.236 1575.63 348.432 1579.16 349.02 1583.18Z" fill="black"/>
<path d="M832.744 1373.23C831.832 1380.77 830.152 1387.39 827.752 1392.82C825.016 1399.01 821.944 1401.84 818.008 1401.84C812.536 1401.84 808.6 1396.27 808.6 1388.54C808.6 1383.26 810.472 1378.32 813.88 1374.58C817.912 1370.16 823.576 1367.86 830.392 1367.86C841.912 1367.86 849.4 1374.86 849.4 1385.66C849.4 1393.97 845.08 1400.59 837.736 1403.57C835.432 1404.53 833.56 1405.01 830.2 1405.58C829.384 1403.04 828.808 1401.98 827.272 1399.97C831.688 1399.39 834.568 1398.62 836.824 1397.33C841 1395.02 843.496 1390.46 843.496 1385.33C843.496 1380.72 841.432 1376.98 837.592 1374.67C836.104 1373.81 834.856 1373.42 832.744 1373.23ZM826.888 1373.28C824.392 1373.57 822.664 1374.24 820.696 1375.63C816.664 1378.51 814.168 1383.46 814.168 1388.59C814.168 1392.53 815.848 1395.65 817.96 1395.65C819.544 1395.65 821.176 1393.63 822.904 1389.5C824.728 1385.18 826.312 1378.7 826.888 1373.28Z" fill="black"/>
<path d="M795.016 1384.27H788.728C789.64 1386.91 789.928 1387.73 790.888 1389.5C793.288 1387.82 795.16 1386.14 796.168 1384.66L800.632 1387.82C800.104 1388.21 799.96 1388.35 799.432 1388.83C797.128 1390.85 795.016 1392.43 793.336 1393.44C796.168 1397.09 799.912 1399.82 803.944 1401.22C802.504 1402.99 801.496 1404.53 800.728 1406.35C795.496 1403.66 792.184 1400.74 788.92 1395.94C786.952 1393.06 784.984 1388.64 783.592 1384.27H782.296C781.528 1384.8 781.24 1385.04 780.328 1385.62C782.296 1387.63 783.64 1389.79 784.6 1392.62C785.608 1395.41 785.896 1397.04 785.896 1400.06C785.896 1406.06 783.88 1407.94 777.496 1407.94C776.92 1407.94 776.104 1407.89 775 1407.84C774.568 1405.44 774.28 1404.67 773.176 1402.75C774.904 1402.99 776.2 1403.14 777.256 1403.14C780.328 1403.14 780.856 1402.56 780.856 1399.3C780.856 1399.01 780.856 1398.82 780.76 1398.38C774.952 1402.03 768.664 1404.82 761.8 1406.78C761.032 1405.01 760.312 1403.86 759.016 1402.46C766.744 1400.74 774.136 1397.86 779.848 1394.3C779.56 1393.49 779.464 1393.25 779.176 1392.58C774.04 1395.41 768.232 1397.62 762.04 1399.15C761.08 1397.04 760.744 1396.46 759.688 1395.22C766.168 1393.97 771.928 1392.05 777.352 1389.31C776.92 1388.69 776.776 1388.5 776.248 1387.87C771.88 1389.94 767.08 1391.52 762.04 1392.48C761.224 1390.46 760.744 1389.65 759.736 1388.45C765.208 1387.68 770.584 1386.19 774.808 1384.27H768.616C766.696 1384.27 765.496 1384.32 763.912 1384.42C764.056 1383.41 764.104 1382.3 764.104 1380.19V1376.64C762.856 1377.46 762.376 1377.74 760.84 1378.56C760.216 1376.69 759.64 1375.63 758.488 1374.1C761.752 1372.7 764.776 1370.78 767.464 1368.48C769.864 1366.42 771.496 1364.59 772.696 1362.67L778.6 1363.63L776.776 1365.74H784.552C786.184 1365.74 788.632 1365.65 789.16 1365.55L791.848 1368C791.416 1368.48 791.224 1368.62 790.696 1369.25C789.4 1370.54 788.68 1371.26 787.24 1372.56H794.488C796.936 1372.56 798.232 1372.51 799.528 1372.37C799.384 1373.86 799.336 1374.82 799.336 1376.59V1380.19C799.336 1381.92 799.384 1383.17 799.528 1384.42C798.28 1384.32 797.032 1384.27 795.016 1384.27ZM769.864 1372.56H781.24C782.488 1371.46 783.256 1370.64 784.024 1369.68H773.128C771.928 1370.88 771.256 1371.46 769.864 1372.56ZM769.144 1379.86H778.888V1376.78H769.144V1379.86ZM783.832 1379.86H794.248V1376.78H783.832V1379.86Z" fill="black"/>
<path d="M720.184 1371.07V1368.38C720.184 1366.22 720.136 1365.17 719.896 1363.87H725.464C725.32 1365.17 725.224 1366.46 725.224 1368.38V1371.07H728.632C730.648 1371.07 731.8 1371.02 733.24 1370.78V1375.92C732.088 1375.82 731.464 1375.78 729.496 1375.78C729.16 1380.77 728.056 1385.62 726.232 1390.32C729.256 1394.16 729.64 1394.69 733.048 1399.49L729.256 1403.71C727.24 1400.26 726.52 1399.15 723.736 1395.41C721.048 1400.06 718.6 1403.09 714.184 1407.26C712.888 1405.15 712.12 1404.24 710.536 1402.8C714.952 1399.39 717.784 1395.98 720.376 1391.04C718.168 1388.26 715.528 1385.38 712.216 1382.21L715.72 1378.66C716.68 1379.62 716.68 1379.62 719.512 1382.54C719.896 1382.93 720.712 1383.84 722.536 1385.95C723.496 1382.83 724.168 1379.23 724.408 1375.78H715.528C713.752 1375.78 712.408 1375.82 711.064 1376.02V1370.78C712.504 1370.98 713.944 1371.07 715.816 1371.07H720.184ZM744.952 1378.37H738.856C736.792 1378.37 735.64 1378.42 734.296 1378.61V1373.33C735.592 1373.52 736.744 1373.57 738.856 1373.57H744.952V1369.78C744.952 1366.94 744.856 1365.41 744.616 1364.06H750.376C750.184 1365.55 750.088 1367.18 750.088 1369.78V1373.57H750.664C752.68 1373.57 753.976 1373.47 755.176 1373.28V1378.66C754.792 1378.61 754.792 1378.61 754.072 1378.51C753.592 1378.42 752.008 1378.37 750.712 1378.37H750.088V1401.55C750.088 1404.05 749.944 1404.86 749.224 1405.73C748.312 1406.88 746.584 1407.36 743.416 1407.36C741.448 1407.36 739.672 1407.31 737.752 1407.17C737.416 1404.77 737.08 1403.57 736.264 1401.84C737.992 1402.13 740.872 1402.42 742.072 1402.42C744.664 1402.42 744.952 1402.27 744.952 1401.26V1378.37ZM731.848 1383.7L736.168 1381.34C739.384 1385.71 740.728 1387.92 742.936 1392.43L738.568 1395.31C736.312 1390.03 734.728 1387.25 731.848 1383.7Z" fill="black"/>
<path d="M673.672 1405.15L667.864 1405.49C667.816 1404.62 667.768 1404.34 667.624 1403.23C666.712 1397.42 666.376 1393.73 666.376 1388.88C666.376 1382.69 666.952 1377.22 668.344 1370.11C668.872 1367.42 668.968 1366.94 669.064 1365.65L675.4 1366.32C674.248 1369.15 673.144 1374.53 672.376 1380.67C671.896 1384.27 671.704 1387.1 671.656 1391.28C671.656 1392.34 671.608 1392.72 671.56 1393.92C672.088 1392.24 672.184 1391.9 674.056 1387.58L677.896 1389.31C675.256 1394.88 673.624 1400.45 673.624 1403.86C673.624 1404.14 673.624 1404.53 673.672 1405.15ZM680.296 1376.4L680.392 1370.64C682.552 1371.22 685.096 1371.41 689.272 1371.41C694.6 1371.41 699.16 1370.98 702.328 1370.11L702.616 1375.92C702.232 1375.97 701.512 1376.06 699.208 1376.35C696.136 1376.74 692.488 1376.93 688.936 1376.93C685.432 1376.93 685.384 1376.93 680.296 1376.4ZM683.608 1384.32L688.312 1386.53C685.912 1389.31 684.904 1391.38 684.904 1393.44C684.904 1396.18 687.544 1397.62 692.536 1397.62C696.76 1397.62 700.936 1396.94 703.96 1395.79L704.44 1401.89C703.768 1401.94 703.576 1401.98 702.472 1402.18C698.632 1402.8 695.704 1403.09 692.536 1403.09C686.584 1403.09 682.744 1401.74 680.632 1398.91C679.72 1397.71 679.192 1395.94 679.192 1394.21C679.192 1391.09 680.632 1387.87 683.608 1384.32Z" fill="black"/>
<path d="M633.88 1370.69V1367.76C633.88 1366.18 633.784 1364.93 633.544 1363.78H639.736C639.544 1364.78 639.448 1366.03 639.448 1367.76V1370.69H652.648C655.336 1370.69 657.064 1370.59 658.696 1370.35V1376.16C657.208 1375.97 655.72 1375.87 652.84 1375.87H635.272C635.032 1379.47 635.032 1379.62 634.888 1381.06H648.184C650.68 1381.06 652.024 1381.01 653.128 1380.82C653.128 1381.06 653.128 1381.2 653.08 1381.3C652.984 1382.02 652.984 1382.59 652.888 1384.66C652.696 1391.86 652.072 1398.05 651.256 1401.5C650.152 1406.06 648.568 1407.26 643.768 1407.26C642.088 1407.26 640.984 1407.22 637.288 1406.93C637.096 1404.72 636.712 1403.14 635.896 1401.36C638.68 1401.79 640.888 1401.98 643.096 1401.98C645.208 1401.98 645.688 1401.46 646.312 1398.14C646.888 1395.26 647.176 1392.24 647.368 1386.1H634.12C632.104 1395.74 627.784 1401.89 618.712 1407.84C617.512 1405.73 616.6 1404.67 614.824 1403.28C619.048 1400.64 621.112 1398.96 623.416 1396.18C627.544 1391.23 629.176 1385.66 629.416 1375.87H621.544C619.144 1375.87 617.176 1375.97 615.544 1376.16V1370.35C617.272 1370.59 619.096 1370.69 621.544 1370.69H633.88Z" fill="black"/>
<path d="M592.744 1373.23C591.832 1380.77 590.152 1387.39 587.752 1392.82C585.016 1399.01 581.944 1401.84 578.008 1401.84C572.536 1401.84 568.6 1396.27 568.6 1388.54C568.6 1383.26 570.472 1378.32 573.88 1374.58C577.912 1370.16 583.576 1367.86 590.392 1367.86C601.912 1367.86 609.4 1374.86 609.4 1385.66C609.4 1393.97 605.08 1400.59 597.736 1403.57C595.432 1404.53 593.56 1405.01 590.2 1405.58C589.384 1403.04 588.808 1401.98 587.272 1399.97C591.688 1399.39 594.568 1398.62 596.824 1397.33C601 1395.02 603.496 1390.46 603.496 1385.33C603.496 1380.72 601.432 1376.98 597.592 1374.67C596.104 1373.81 594.856 1373.42 592.744 1373.23ZM586.888 1373.28C584.392 1373.57 582.664 1374.24 580.696 1375.63C576.664 1378.51 574.168 1383.46 574.168 1388.59C574.168 1392.53 575.848 1395.65 577.96 1395.65C579.544 1395.65 581.176 1393.63 582.904 1389.5C584.728 1385.18 586.312 1378.7 586.888 1373.28Z" fill="black"/>
<path d="M557.032 1375.87H554.488C553.24 1380.34 552.472 1382.3 550.744 1385.52C549.112 1388.54 547.336 1391.04 545.08 1393.63C550.36 1397.76 556.12 1400.35 563.848 1402.08C562.264 1403.95 561.592 1405.1 560.536 1407.7C552.376 1405.01 546.52 1401.89 541.192 1397.33C538.456 1399.63 535.192 1401.79 531.784 1403.57C528.856 1405.06 526.12 1406.16 521.56 1407.7C520.696 1405.63 519.88 1404.29 518.488 1402.56C527.08 1400.21 532.408 1397.71 537.352 1393.63C535.048 1391.09 533.32 1388.74 531.688 1385.95C529.864 1382.83 529 1380.77 527.368 1375.87H525.112C522.856 1375.87 520.984 1375.97 519.256 1376.16V1370.74C521.08 1370.98 522.712 1371.07 525.256 1371.07H538.024V1367.66C538.024 1366.22 537.928 1365.07 537.688 1363.97H543.784C543.544 1365.07 543.448 1366.22 543.448 1367.62V1371.07H556.84C559.432 1371.07 561.112 1370.98 562.888 1370.74V1376.16C561.16 1375.97 559.528 1375.87 557.032 1375.87ZM548.824 1375.87H532.888C534.088 1379.52 534.856 1381.25 536.536 1384.08C538.024 1386.48 539.32 1388.16 541.144 1390.08C542.824 1388.21 544.216 1386.29 545.512 1384.03C546.952 1381.44 547.672 1379.76 548.824 1375.87Z" fill="black"/>
<path d="M489.544 1373.42H500.824C497.608 1370.78 495.544 1369.49 490.84 1367.33L494.296 1363.39C499.576 1365.98 500.68 1366.61 504.616 1369.49L501.448 1373.42H508.648C511.288 1373.42 512.488 1373.38 514.024 1373.14V1378.51C512.536 1378.37 510.76 1378.27 508.648 1378.27H501.112V1386.62H507.304C509.32 1386.62 511.192 1386.53 512.536 1386.34V1391.62C511.048 1391.47 509.176 1391.38 507.304 1391.38H501.112V1401.31H509.32C511.528 1401.31 513.64 1401.22 515.032 1401.02V1406.4C513.496 1406.21 511.576 1406.11 509.32 1406.11H488.392C486.136 1406.11 484.12 1406.21 482.68 1406.4V1401.02C484.168 1401.22 486.328 1401.31 488.392 1401.31H495.736V1391.38H490.84C488.92 1391.38 487.048 1391.47 485.56 1391.62V1386.34C486.952 1386.53 488.728 1386.62 490.792 1386.62H495.736V1378.27H489.544C487.096 1378.27 485.896 1378.32 484.168 1378.51V1373.14C485.8 1373.33 487.192 1373.42 489.544 1373.42ZM472.792 1367.71L476.056 1363.97C479.656 1366.08 481.528 1367.47 484.552 1370.26L481.336 1374.53C478.312 1371.31 476.776 1370.06 472.792 1367.71ZM470.872 1379.66L473.944 1375.68C477.832 1377.94 479.464 1379.14 482.632 1381.92L479.752 1386.34C476.248 1382.98 474.424 1381.63 470.872 1379.66ZM478.696 1389.02L482.968 1392.05C480.76 1398 479.512 1400.93 477.64 1404.34C477.16 1405.2 476.872 1405.68 476.296 1406.64C475.912 1407.26 475.912 1407.26 475.624 1407.79L471.064 1403.81C473.32 1401.36 476.104 1396.03 478.696 1389.02Z" fill="black"/>
<path d="M430.552 1373.57L430.984 1367.86C434.68 1368.72 438.952 1369.06 445.384 1369.06C451.48 1369.06 454.888 1368.82 458.056 1368.14L458.248 1373.57C455.368 1374.82 449.464 1378.51 445.432 1381.49L441.256 1378.18C444.28 1376.26 444.808 1375.92 446.008 1375.25C446.488 1374.96 446.632 1374.86 447.256 1374.48C447.64 1374.29 447.688 1374.29 448.312 1373.9C446.2 1374.19 444.136 1374.29 441.112 1374.29C438.664 1374.29 434.68 1374.05 432.328 1373.71C431.752 1373.66 431.416 1373.62 431.224 1373.62C431.128 1373.62 430.888 1373.57 430.552 1373.57ZM434.104 1384.42L438.28 1387.58C435.256 1390.13 433.912 1392.14 433.912 1394.21C433.912 1397.33 437.416 1398.67 445.528 1398.67C451.24 1398.67 457.528 1397.81 460.6 1396.61L461.128 1403.18C460.264 1403.23 460.12 1403.23 459.016 1403.38C453.256 1404.24 450.184 1404.48 446.056 1404.48C440.824 1404.48 436.6 1403.95 434.056 1402.9C429.928 1401.26 427.912 1398.62 427.912 1394.88C427.912 1391.18 429.784 1388.02 434.104 1384.42ZM467.08 1382.45L463.768 1384.32C462.328 1381.68 460.744 1379.42 458.872 1377.36L462.088 1375.68C464.248 1377.89 465.592 1379.71 467.08 1382.45ZM452.968 1380.19L456.328 1378.51C458.44 1380.77 459.736 1382.59 461.368 1385.57L458.008 1387.34C456.424 1384.42 455.08 1382.5 452.968 1380.19Z" fill="black"/>
<path d="M378.28 1374.96L378.376 1369.49C380.344 1369.92 383.416 1370.11 389.512 1370.11C390.808 1367.23 391.24 1365.79 391.432 1364.16L397.72 1364.83C397.432 1365.31 397.432 1365.31 395.8 1369.15C395.56 1369.68 395.464 1369.82 395.368 1370.02C395.752 1369.97 395.752 1369.97 398.392 1369.82C403.96 1369.49 408.328 1368.96 410.968 1368.19L411.304 1373.66C409.96 1373.76 409.96 1373.76 407.512 1374.05C404.008 1374.48 397.912 1374.86 393.064 1375.01C391.672 1377.74 390.328 1379.66 388.648 1381.39L388.696 1381.49C389.032 1381.25 389.032 1381.25 389.656 1380.77C391.432 1379.42 393.976 1378.61 396.424 1378.61C400.168 1378.61 402.52 1380.38 403.288 1383.7C406.984 1382.35 409.432 1381.49 410.632 1381.1C413.224 1380.19 413.416 1380.14 414.184 1379.66L416.44 1385.18C415.096 1385.38 413.656 1385.76 411.112 1386.48C410.44 1386.67 408.04 1387.49 403.912 1388.93V1389.46C403.96 1390.7 403.96 1390.7 403.96 1391.38C403.96 1391.86 403.96 1392.67 403.96 1393.3C403.912 1394.11 403.912 1394.54 403.912 1394.88C403.912 1395.94 403.96 1396.61 404.056 1397.42L398.488 1397.57C398.68 1396.7 398.776 1394.26 398.776 1392C398.776 1391.33 398.776 1391.33 398.776 1390.85C396.424 1391.95 395.176 1392.62 394.168 1393.34C392.488 1394.59 391.672 1395.89 391.672 1397.28C391.672 1399.78 393.976 1400.78 399.784 1400.78C405.544 1400.78 410.488 1400.06 413.896 1398.77L414.376 1404.96C413.56 1404.96 413.32 1405.01 412.168 1405.15C408.712 1405.68 404.104 1406.02 399.88 1406.02C394.792 1406.02 391.624 1405.44 389.176 1404C386.968 1402.75 385.672 1400.45 385.672 1397.81C385.672 1395.84 386.248 1394.3 387.784 1392.48C389.944 1389.79 392.68 1387.97 398.104 1385.71C397.864 1383.94 396.904 1383.12 395.176 1383.12C392.392 1383.12 389.032 1384.8 385.336 1388.06C383.32 1389.74 382.216 1390.94 381.16 1392.43L376.792 1388.11C378.04 1387.15 379.432 1385.81 381.112 1383.84C382.984 1381.63 385.912 1377.46 386.872 1375.63C387.064 1375.25 387.064 1375.25 387.256 1375.01C387.064 1375.01 386.44 1375.06 386.44 1375.06C385.672 1375.06 381.448 1374.96 380.392 1374.96C379.48 1374.91 379.48 1374.91 379.048 1374.91C378.904 1374.91 378.616 1374.91 378.28 1374.96Z" fill="black"/>
<path d="M346.024 1389.89V1387.78H334.648C332.92 1387.78 331.528 1387.82 330.232 1387.97V1383.79C331.384 1383.94 332.632 1383.98 334.744 1383.98H346.024V1382.16H335.848C334.12 1382.16 332.92 1382.21 331.816 1382.3C331.912 1381.3 331.96 1380.29 331.96 1379.09V1375.92C331.96 1374.58 331.912 1373.71 331.816 1372.56C333.064 1372.66 334.072 1372.7 335.896 1372.7H346.024V1370.88H332.872C330.52 1370.88 328.936 1370.98 327.256 1371.17V1366.42C328.744 1366.61 330.376 1366.7 333.16 1366.7H346.024C345.976 1365.02 345.928 1364.5 345.736 1363.44H351.544C351.304 1364.5 351.256 1364.98 351.208 1366.7H364.696C367.48 1366.7 369.064 1366.61 370.6 1366.42V1371.17C368.968 1370.98 367.288 1370.88 364.984 1370.88H351.208V1372.7H362.056C363.88 1372.7 364.936 1372.66 366.088 1372.56C365.992 1373.62 365.944 1374.43 365.944 1375.92V1379.09C365.944 1380.53 365.992 1381.25 366.088 1382.3C365.032 1382.21 363.784 1382.16 362.248 1382.16H351.208V1383.98H361.96C364.792 1383.98 365.752 1383.94 367.096 1383.84C366.952 1385.04 366.952 1385.71 366.952 1388.21V1389.89C369.016 1389.89 370.168 1389.79 371.128 1389.65V1394.21C369.976 1394.06 369.064 1393.97 366.952 1393.97V1396.75C366.952 1399.25 367 1400.54 367.192 1401.94H361.816V1400.06H351.208V1402.75C351.208 1407.07 350.008 1407.98 344.152 1407.98C343 1407.98 341.08 1407.89 339.544 1407.79C339.256 1405.87 338.968 1404.91 338.056 1403.04C340.648 1403.33 342.424 1403.47 344.152 1403.47C345.64 1403.47 346.024 1403.23 346.024 1402.37V1400.06H334.744C332.584 1400.06 331.432 1400.11 329.992 1400.3V1395.84C331.288 1395.98 332.104 1396.03 334.552 1396.03H346.024V1393.97H332.248C329.512 1393.97 328.216 1394.02 326.968 1394.21V1389.65C328.216 1389.84 329.416 1389.89 332.152 1389.89H346.024ZM351.208 1389.89H361.816V1387.78H351.208V1389.89ZM351.208 1393.97V1396.03H361.816V1393.97H351.208ZM346.024 1376.45H337.048V1378.42H346.024V1376.45ZM351.208 1376.45V1378.42H360.856V1376.45H351.208Z" fill="black"/>
<path d="M296.824 1393.49H291.64V1401.65C296.248 1400.93 296.632 1400.88 301 1399.92V1404.53C295.912 1405.73 292.168 1406.45 283.576 1407.89C282.952 1408.03 282.328 1408.13 281.368 1408.37L280.456 1402.85H280.936C281.032 1402.85 281.128 1402.85 281.176 1402.85C281.8 1402.85 284.68 1402.61 286.6 1402.37V1380.72C286.6 1380.14 286.6 1379.81 286.552 1378.56C284.296 1379.71 283.24 1380.19 280.552 1381.3C279.688 1378.8 279.448 1378.27 278.2 1376.06C286.504 1373.42 293.56 1368.96 297.784 1363.73H303.448C305.896 1366.61 308.392 1368.72 311.992 1370.88C315.544 1373.04 319.528 1374.77 323.656 1375.92C322.648 1377.55 321.928 1379.14 321.256 1381.25C318.664 1380.29 317.032 1379.52 314.92 1378.42C314.92 1379.18 314.92 1379.47 314.92 1380.14V1390.13C314.92 1391.09 314.92 1391.52 314.968 1392.29C315.352 1391.86 315.448 1391.71 315.88 1391.23L320.728 1393.82C317.704 1396.51 315.064 1398.53 312.184 1400.45C315.592 1401.74 318.616 1402.42 323.08 1402.9C321.88 1405.01 321.256 1406.4 320.632 1408.22C313.096 1406.74 308.056 1404.67 303.832 1401.31C300.664 1398.82 298.792 1396.7 296.824 1393.49ZM310.744 1393.49H302.536C303.88 1395.36 305.416 1396.8 307.528 1398.14C310.072 1396.56 311.512 1395.5 313.672 1393.54C312.616 1393.49 311.8 1393.49 310.744 1393.49ZM291.208 1375.78H298.168V1374.38C298.168 1373.04 298.12 1372.27 297.928 1371.5H303.208C303.064 1372.37 303.016 1373.04 303.016 1374.38V1375.78H310.408C306.328 1373.23 303.4 1370.78 300.664 1367.76C297.976 1370.83 295.096 1373.28 291.208 1375.78ZM291.64 1380.1V1382.5H309.88V1380.1H291.64ZM291.64 1386.58V1389.26H309.88V1386.58H291.64Z" fill="black"/>
<path d="M248.824 1389.31L248.872 1398.77C248.872 1400.74 248.776 1401.89 248.488 1402.85C248.056 1404.53 246.328 1405.63 244.072 1405.63C241.048 1405.63 237.4 1404.29 235 1402.22C233.272 1400.74 232.36 1398.86 232.36 1396.8C232.36 1394.54 233.848 1392 236.488 1389.7C238.216 1388.21 240.328 1386.96 243.496 1385.62L243.448 1378.22C243.064 1378.22 243.064 1378.22 241.48 1378.32C240.76 1378.37 240.088 1378.37 238.888 1378.37C238.168 1378.37 236.824 1378.32 236.248 1378.32C235.624 1378.27 235.192 1378.27 235.048 1378.27C234.856 1378.27 234.472 1378.27 234.04 1378.32L233.992 1372.94C235.336 1373.23 237.256 1373.38 239.8 1373.38C240.28 1373.38 240.808 1373.38 241.48 1373.33C242.632 1373.28 242.872 1373.28 243.4 1373.28V1370.11C243.4 1367.38 243.352 1366.13 243.112 1364.59H249.112C248.872 1366.13 248.824 1367.14 248.824 1369.82V1372.9C252.424 1372.46 255.64 1371.84 258.088 1371.07L258.28 1376.45C257.416 1376.59 256.504 1376.74 253.192 1377.31C251.608 1377.6 250.648 1377.74 248.824 1377.94V1384.18C252.088 1383.22 255.112 1382.83 258.616 1382.83C266.632 1382.83 272.344 1387.73 272.344 1394.54C272.344 1400.78 267.688 1405.49 261.448 1405.49C257.56 1405.49 254.824 1403.62 253.576 1400.16C252.952 1398.53 252.76 1396.94 252.76 1394.02C255.208 1393.34 256.024 1393.01 258.088 1391.9C257.992 1392.82 257.992 1393.25 257.992 1394.02C257.992 1396.03 258.184 1397.33 258.664 1398.24C259.192 1399.25 260.344 1399.87 261.688 1399.87C264.52 1399.87 266.536 1397.62 266.536 1394.54C266.536 1390.42 263.176 1387.73 258.04 1387.73C255.16 1387.73 252.232 1388.26 248.824 1389.31ZM243.448 1398.05V1391.04C239.848 1392.96 237.736 1395.07 237.736 1396.8C237.736 1397.62 238.216 1398.34 239.32 1399.01C240.28 1399.68 241.48 1400.06 242.392 1400.06C243.208 1400.06 243.448 1399.63 243.448 1398.05ZM274.456 1377.79L270.04 1381.34C267.64 1377.55 264.136 1373.76 260.44 1370.98L264.952 1367.95C269.128 1371.17 271.912 1374.05 274.456 1377.79Z" fill="black"/>
<path d="M646.828 1200.65V1191.2C649.82 1191.6 651.112 1191.67 657.844 1191.67H694.088C700.82 1191.67 702.112 1191.6 705.104 1191.2V1200.65C702.384 1200.31 701.636 1200.31 694.02 1200.31H657.912C650.296 1200.31 649.548 1200.31 646.828 1200.65Z" fill="black"/>
<path d="M629.148 1173.18L633.704 1177.73C632.82 1178.89 632.684 1179.16 631.596 1182.29C629.42 1188.48 625.68 1196.43 622.892 1200.99C615.956 1212.28 606.368 1220.3 591.884 1226.96C589.708 1223.29 588.824 1222.14 586.24 1219.96C592.02 1217.58 595.42 1215.88 599.5 1213.16C604.328 1210.03 607.184 1207.58 610.652 1203.71C605.892 1199.63 601.812 1196.77 596.712 1193.98L601.88 1187.93C607.592 1191.13 610.448 1193.03 615.548 1197.04C618.744 1192.15 621.056 1187.39 623.164 1181L602.016 1181.2C597.8 1188.2 592.972 1193.71 586.104 1199.49C583.86 1196.98 582.84 1196.09 579.304 1194.05C586.784 1188.48 592.224 1182.29 596.372 1174.67C598.344 1171.07 599.704 1167.74 600.316 1165.22L609.156 1167.19C608.408 1168.42 608.408 1168.42 607.116 1171C606.3 1172.84 605.824 1173.65 605.484 1174.26C606.572 1174.13 606.572 1174.13 623.164 1173.99C625.952 1173.92 627.38 1173.79 629.148 1173.18Z" fill="black"/>
<path d="M514.296 1178.34L519.94 1171.61C528.032 1176.64 532.248 1179.77 537.484 1184.74L531.636 1192.15C526.196 1186.37 520.62 1181.88 514.296 1178.34ZM516.676 1223.22L514.16 1213.84C520.008 1213.5 528.1 1211.53 534.288 1208.81C542.788 1205.14 549.112 1199.9 554.484 1192.15C557.476 1187.8 559.38 1184.06 561.42 1178.55C564.072 1181.74 565.16 1182.76 568.628 1185.21C562.848 1197.66 556.388 1205.68 547.072 1211.87C540.136 1216.49 531.704 1219.82 521.164 1222.07C518.444 1222.61 518.24 1222.68 516.676 1223.22Z" fill="black"/>
<path d="M486.892 1218.67H455.884C451.192 1218.67 449.56 1218.74 447.52 1218.94V1210.17C450.036 1210.58 451.26 1210.64 456.02 1210.64H486.96V1181H457.176C452.348 1181 450.92 1181.06 448.472 1181.34V1172.5C450.988 1172.9 452.28 1172.97 457.244 1172.97H489.952C493.488 1172.97 493.488 1172.97 495.868 1172.84C495.664 1174.67 495.664 1175.35 495.664 1178.48V1215.81C495.664 1219.21 495.732 1221.12 496.004 1222.82H486.892V1218.67Z" fill="black"/>
<path d="M433.444 1217.17L426.916 1224.24C421.272 1217.31 413.452 1209.69 406.04 1204.05C398.356 1212.62 390.536 1218.6 380.132 1223.7C378.228 1220.16 377.412 1219.08 374.624 1216.15C379.86 1214.11 383.124 1212.28 388.224 1208.67C398.492 1201.46 406.652 1191.6 411.072 1181L411.82 1179.23C410.732 1179.3 410.732 1179.3 389.312 1179.64C386.048 1179.7 384.212 1179.84 381.9 1180.18L381.628 1171.48C383.532 1171.82 384.824 1171.88 387.612 1171.88C387.884 1171.88 388.428 1171.88 389.244 1171.88L413.18 1171.54C416.988 1171.48 417.532 1171.41 419.232 1170.8L423.72 1175.42C422.836 1176.44 422.292 1177.39 421.544 1179.09C418.416 1186.37 415.084 1192.28 410.936 1197.86C415.22 1200.72 418.892 1203.57 423.516 1207.72C425.216 1209.22 425.216 1209.22 433.444 1217.17Z" fill="black"/>
</svg>
