<svg width="1080" height="1920" viewBox="0 0 1080 1920" fill="none" xmlns="http://www.w3.org/2000/svg">
<path d="M1080 1920L1080 0L0 0L0 1920H1080Z" fill="#A5D4AD"/>
<path d="M1020 983.72V95C1020 75.67 1004.33 60 985 60H95.58C75.93 60 60 75.93 60 95.58V983.71C60 984.03 60.25 984.28 60.57 984.28C80.03 984.59 95.71 1000.46 95.71 1019.99C95.71 1039.52 80.03 1055.39 60.57 1055.7C60.25 1055.7 60 1055.96 60 1056.27V1824.99C60 1844.32 75.67 1859.99 95 1859.99H985C1004.33 1859.99 1020 1844.32 1020 1824.99V1056.27C1020 1055.95 1019.75 1055.7 1019.43 1055.7C999.97 1055.39 984.29 1039.52 984.29 1019.99C984.29 1000.46 999.97 984.59 1019.43 984.28C1019.75 984.28 1020 984.02 1020 983.71V983.72Z" fill="white"/>
<path d="M60.57 1055.71C60.25 1055.71 60 1055.97 60 1056.28V1825C60 1844.33 75.67 1860 95 1860H985C1004.33 1860 1020 1844.33 1020 1825V1056.28C1020 1055.96 1019.75 1055.71 1019.43 1055.71C999.97 1055.4 984.29 1039.53 984.29 1020H95.71C95.71 1039.53 80.03 1055.4 60.57 1055.71Z" fill="#E5F2E6"/>
<path d="M121 1020H160.9" stroke="black" stroke-width="6" stroke-miterlimit="10"/>
<path d="M187.51 1020H227.41" stroke="black" stroke-width="6" stroke-miterlimit="10"/>
<path d="M254.02 1020H293.92" stroke="black" stroke-width="6" stroke-miterlimit="10"/>
<path d="M320.52 1020H360.43" stroke="black" stroke-width="6" stroke-miterlimit="10"/>
<path d="M387.03 1020H426.94" stroke="black" stroke-width="6" stroke-miterlimit="10"/>
<path d="M453.54 1020H493.44" stroke="black" stroke-width="6" stroke-miterlimit="10"/>
<path d="M520.05 1020H559.95" stroke="black" stroke-width="6" stroke-miterlimit="10"/>
<path d="M586.56 1020H626.46" stroke="black" stroke-width="6" stroke-miterlimit="10"/>
<path d="M653.06 1020H692.97" stroke="black" stroke-width="6" stroke-miterlimit="10"/>
<path d="M719.57 1020H759.48" stroke="black" stroke-width="6" stroke-miterlimit="10"/>
<path d="M786.08 1020H825.98" stroke="black" stroke-width="6" stroke-miterlimit="10"/>
<path d="M852.59 1020H892.49" stroke="black" stroke-width="6" stroke-miterlimit="10"/>
<path d="M919.1 1020H959" stroke="black" stroke-width="6" stroke-miterlimit="10"/>
<path d="M1020 984.29V95C1020 75.67 1004.33 60 985 60H95C75.67 60 60 75.67 60 95V984.29C79.72 984.29 95.71 1000.28 95.71 1020C95.71 1039.72 79.72 1055.71 60 1055.71V1825C60 1844.33 75.67 1860 95 1860H985C1004.33 1860 1020 1844.33 1020 1825V1055.71C1000.28 1055.71 984.29 1039.72 984.29 1020C984.29 1000.28 1000.28 984.29 1020 984.29Z" stroke="black" stroke-width="6" stroke-miterlimit="10"/>
<path d="M912.642 525.66C908.772 525.66 905.532 522.64 905.312 518.73C900.582 435.62 868.782 358.85 813.362 296.74C810.662 293.71 810.922 289.06 813.952 286.36C816.982 283.66 821.622 283.92 824.332 286.95C881.992 351.57 915.062 431.43 919.992 517.89C920.222 521.94 917.122 525.42 913.072 525.65C912.932 525.65 912.792 525.66 912.652 525.66H912.642Z" fill="black"/>
<path d="M818.842 795.509C817.102 795.509 815.352 794.889 813.952 793.639C810.922 790.939 810.662 786.289 813.362 783.259C868.782 721.149 900.582 644.379 905.312 561.269C905.542 557.219 909.022 554.109 913.072 554.349C917.122 554.579 920.222 558.049 919.992 562.109C915.062 648.579 881.992 728.439 824.332 793.049C822.882 794.679 820.862 795.509 818.842 795.509Z" fill="black"/>
<path d="M167.352 525.66C167.212 525.66 167.072 525.66 166.932 525.65C162.882 525.42 159.782 521.95 160.012 517.89C164.942 431.42 198.012 351.56 255.672 286.95C258.372 283.92 263.022 283.66 266.052 286.36C269.082 289.06 269.342 293.71 266.642 296.74C211.222 358.85 179.422 435.61 174.692 518.73C174.472 522.64 171.232 525.66 167.362 525.66H167.352Z" fill="black"/>
<path d="M261.162 795.509C259.142 795.509 257.122 794.679 255.672 793.049C198.012 728.429 164.942 648.569 160.012 562.109C159.782 558.059 162.882 554.579 166.932 554.349C170.982 554.109 174.462 557.219 174.692 561.269C179.422 644.389 211.222 721.149 266.642 783.259C269.342 786.289 269.082 790.939 266.052 793.639C264.652 794.889 262.902 795.509 261.162 795.509Z" fill="black"/>
<path d="M788.162 268.509C786.422 268.509 784.672 267.889 783.272 266.639C721.162 211.219 644.392 179.419 561.282 174.689C557.232 174.459 554.132 170.989 554.362 166.929C554.592 162.879 558.032 159.789 562.122 160.009C648.592 164.939 728.452 198.009 793.062 255.669C796.092 258.369 796.352 263.019 793.652 266.049C792.202 267.679 790.182 268.509 788.162 268.509Z" fill="black"/>
<path d="M291.842 268.51C289.822 268.51 287.802 267.68 286.352 266.05C283.652 263.02 283.912 258.37 286.942 255.67C351.562 198.01 431.422 164.94 517.882 160.01C521.932 159.78 525.412 162.88 525.642 166.93C525.872 170.98 522.772 174.46 518.722 174.69C435.612 179.42 358.842 211.22 296.732 266.64C295.332 267.89 293.582 268.51 291.842 268.51Z" fill="black"/>
<path d="M561.682 920C557.812 920 554.572 916.98 554.352 913.07C554.122 909.02 557.222 905.54 561.272 905.31C644.392 900.58 721.152 868.78 783.262 813.36C786.292 810.66 790.942 810.92 793.642 813.95C796.342 816.98 796.082 821.63 793.052 824.33C728.432 881.99 648.572 915.06 562.112 919.99C561.972 919.99 561.832 920 561.692 920H561.682Z" fill="black"/>
<path d="M518.312 920C518.172 920 518.032 920 517.892 919.99C431.422 915.06 351.562 881.99 286.952 824.33C283.922 821.63 283.662 816.98 286.362 813.95C289.062 810.92 293.712 810.66 296.742 813.36C358.852 868.78 435.622 900.58 518.732 905.31C522.782 905.54 525.882 909.01 525.652 913.07C525.432 916.98 522.192 920 518.322 920H518.312Z" fill="black"/>
<path d="M875.372 526.191C872.362 526.191 869.842 523.841 869.672 520.801C865.402 445.791 836.702 376.521 786.692 320.461C784.592 318.101 784.792 314.491 787.152 312.391C789.502 310.291 793.122 310.491 795.222 312.851C846.972 370.851 876.672 442.541 881.092 520.151C881.272 523.301 878.862 526.001 875.712 526.181C875.602 526.181 875.492 526.181 875.382 526.181L875.372 526.191Z" fill="black"/>
<path d="M790.952 769.062C789.592 769.062 788.242 768.582 787.152 767.612C784.792 765.512 784.592 761.892 786.692 759.542C836.702 703.492 865.402 634.212 869.672 559.202C869.852 556.052 872.542 553.642 875.702 553.822C878.852 554.002 881.262 556.702 881.082 559.852C876.662 637.472 846.972 709.152 795.212 767.152C794.082 768.422 792.512 769.062 790.942 769.062H790.952Z" fill="black"/>
<path d="M204.622 526.191C204.512 526.191 204.402 526.191 204.292 526.191C201.142 526.011 198.732 523.311 198.912 520.161C203.332 442.541 233.022 370.861 284.782 312.861C286.882 310.501 290.502 310.301 292.852 312.401C295.212 314.501 295.412 318.121 293.312 320.471C243.302 376.521 214.602 445.801 210.332 520.811C210.162 523.851 207.642 526.201 204.632 526.201L204.622 526.191Z" fill="black"/>
<path d="M289.042 769.061C287.472 769.061 285.902 768.411 284.772 767.151C233.022 709.151 203.322 637.461 198.902 559.851C198.722 556.701 201.132 554.001 204.282 553.821C207.442 553.631 210.132 556.051 210.312 559.201C214.582 634.211 243.282 703.491 293.292 759.541C295.392 761.901 295.192 765.511 292.832 767.611C291.742 768.581 290.382 769.061 289.032 769.061H289.042Z" fill="black"/>
<path d="M763.342 294.762C761.982 294.762 760.632 294.282 759.542 293.312C703.492 243.302 634.212 214.602 559.202 210.332C556.052 210.152 553.642 207.452 553.822 204.302C554.002 201.152 556.692 198.742 559.852 198.922C637.472 203.342 709.152 233.032 767.152 284.792C769.512 286.892 769.712 290.512 767.612 292.862C766.482 294.132 764.912 294.772 763.342 294.772V294.762Z" fill="black"/>
<path d="M316.652 294.761C315.082 294.761 313.512 294.111 312.382 292.851C310.282 290.491 310.482 286.881 312.842 284.781C370.842 233.031 442.532 203.331 520.142 198.911C523.292 198.721 525.992 201.141 526.172 204.291C526.352 207.441 523.942 210.141 520.792 210.321C445.782 214.591 376.512 243.291 320.452 293.301C319.362 294.271 318.002 294.751 316.652 294.751V294.761Z" fill="black"/>
<path d="M559.522 881.102C556.512 881.102 553.992 878.752 553.822 875.712C553.642 872.562 556.052 869.862 559.202 869.682C634.212 865.412 703.482 836.712 759.542 786.702C761.892 784.602 765.512 784.802 767.612 787.162C769.712 789.522 769.512 793.132 767.152 795.232C709.152 846.982 637.462 876.682 559.852 881.102C559.742 881.102 559.632 881.102 559.522 881.102Z" fill="black"/>
<path d="M520.482 881.102C520.372 881.102 520.262 881.102 520.152 881.102C442.532 876.682 370.852 846.992 312.852 795.232C310.492 793.132 310.292 789.512 312.392 787.162C314.492 784.802 318.112 784.602 320.462 786.702C376.512 836.722 445.792 865.412 520.802 869.682C523.952 869.862 526.362 872.562 526.182 875.712C526.012 878.752 523.492 881.102 520.482 881.102Z" fill="black"/>
<path d="M841.842 526.51C839.692 526.51 837.892 524.83 837.772 522.66C833.912 454.91 807.992 392.34 762.822 341.71C761.322 340.03 761.472 337.45 763.152 335.94C764.832 334.44 767.412 334.58 768.922 336.27C815.342 388.29 841.972 452.58 845.932 522.19C846.062 524.44 844.342 526.37 842.082 526.5C842.002 526.5 841.922 526.5 841.842 526.5V526.51Z" fill="black"/>
<path d="M765.863 745.101C764.893 745.101 763.923 744.761 763.143 744.061C761.463 742.561 761.313 739.981 762.813 738.291C807.983 687.661 833.903 625.091 837.763 557.341C837.893 555.091 839.853 553.391 842.073 553.491C844.323 553.621 846.043 555.551 845.923 557.801C841.953 627.411 815.323 691.701 768.913 743.721C768.103 744.621 766.983 745.081 765.863 745.081V745.101Z" fill="black"/>
<path d="M238.162 526.51C238.082 526.51 238.002 526.51 237.922 526.51C235.672 526.38 233.952 524.45 234.072 522.2C238.042 452.59 264.672 388.3 311.082 336.28C312.582 334.6 315.162 334.45 316.852 335.95C318.532 337.45 318.682 340.03 317.182 341.72C272.012 392.35 246.092 454.92 242.232 522.67C242.112 524.84 240.312 526.52 238.162 526.52V526.51Z" fill="black"/>
<path d="M314.132 745.101C313.012 745.101 311.892 744.641 311.082 743.741C264.662 691.721 238.032 627.431 234.072 557.821C233.942 555.571 235.662 553.641 237.922 553.511C240.162 553.401 242.102 555.101 242.232 557.361C246.092 625.111 272.012 687.681 317.182 738.311C318.682 739.991 318.532 742.571 316.852 744.081C316.072 744.771 315.102 745.121 314.132 745.121V745.101Z" fill="black"/>
<path d="M741.012 318.219C740.042 318.219 739.072 317.879 738.292 317.179C687.662 272.009 625.092 246.089 557.342 242.229C555.092 242.099 553.372 240.169 553.492 237.919C553.622 235.669 555.542 233.959 557.802 234.069C627.412 238.039 691.702 264.669 743.732 311.079C745.412 312.579 745.562 315.159 744.062 316.849C743.252 317.749 742.132 318.209 741.012 318.209V318.219Z" fill="black"/>
<path d="M338.992 318.22C337.872 318.22 336.752 317.76 335.942 316.86C334.442 315.18 334.592 312.6 336.272 311.09C388.292 264.67 452.582 238.04 522.192 234.08C524.442 233.96 526.372 235.67 526.502 237.93C526.632 240.18 524.912 242.11 522.652 242.24C454.902 246.1 392.332 272.02 341.702 317.19C340.922 317.88 339.952 318.23 338.982 318.23L338.992 318.22Z" fill="black"/>
<path d="M557.562 845.929C555.412 845.929 553.612 844.249 553.492 842.079C553.362 839.829 555.082 837.899 557.342 837.769C625.092 833.909 687.662 807.989 738.292 762.819C739.972 761.319 742.552 761.469 744.062 763.149C745.562 764.829 745.412 767.409 743.732 768.919C691.712 815.339 627.422 841.969 557.802 845.929C557.722 845.929 557.642 845.929 557.562 845.929Z" fill="black"/>
<path d="M522.432 845.929C522.352 845.929 522.272 845.929 522.192 845.929C452.582 841.959 388.292 815.329 336.272 768.919C334.592 767.419 334.442 764.839 335.942 763.149C337.442 761.469 340.022 761.319 341.712 762.819C392.342 807.989 454.912 833.909 522.662 837.769C524.912 837.899 526.632 839.829 526.512 842.079C526.392 844.249 524.592 845.929 522.442 845.929H522.432Z" fill="black"/>
<path d="M320.642 546.17C320.642 544.6 321.782 543.27 323.332 543.02C324.632 542.81 326.262 542.52 327.972 542.12C332.392 541.08 337.582 539.11 343.402 536.27C349.282 533.4 354.912 529.41 359.162 523.67C366.332 513.97 367.852 501.4 368.182 496.89C368.252 495.97 367.522 495.19 366.592 495.19H317.082C315.322 495.19 313.902 493.76 313.902 492.01V470.69C313.902 468.93 315.332 467.51 317.082 467.51H367.062C367.942 467.51 368.652 466.8 368.652 465.92V447.18C368.652 446.3 367.942 445.59 367.062 445.59H328.612C326.852 445.59 325.432 444.16 325.432 442.41V421.09C325.432 419.33 326.862 417.91 328.612 417.91H428.952C430.712 417.91 432.132 419.34 432.132 421.09V442.41C432.132 444.17 430.702 445.59 428.952 445.59H398.512C397.632 445.59 396.922 446.3 396.922 447.18V465.92C396.922 466.8 397.632 467.51 398.512 467.51H438.572C440.332 467.51 441.752 468.94 441.752 470.69V492.01C441.752 493.77 440.322 495.19 438.572 495.19H398.382C397.532 495.19 396.832 495.86 396.792 496.71C396.562 501.75 395.142 518.44 386.172 532.85C380.722 541.61 373.642 548.26 366.532 553.54C359.402 558.84 352.252 562.93 345.262 565.7C338.232 568.49 332.332 570.44 327.742 571.51C326.652 571.76 325.482 571.99 324.392 572.18C322.442 572.53 320.652 571.03 320.652 569.04V546.16L320.642 546.17Z" fill="black"/>
<path d="M474.542 546.52C474.542 545.06 475.542 543.79 476.952 543.43C485.202 541.36 488.922 540.11 496.832 536.32C496.832 536.32 500.882 534.21 504.922 531.3C517.102 522.54 525.212 510.63 525.212 510.63C534.672 497.28 537.762 474.91 538.482 468.49C538.592 467.55 537.852 466.72 536.902 466.72H500.572C500.342 466.72 500.132 466.84 500.022 467.04L499.872 467.29C494.292 478.11 486.872 487.99 480.442 494.24C473.992 500.5 468.582 505.05 464.372 507.75L461.772 509.42C460.712 510.1 459.322 509.34 459.322 508.08V479.89C459.322 478.95 459.742 478.06 460.462 477.45C461.112 476.9 461.982 476.13 463.172 475.06C465.932 472.57 469.042 468.51 472.412 462.98C475.752 457.51 479.342 450.21 483.062 441.29C486.442 433.2 488.972 423.09 490.852 412.06C491.112 410.53 492.442 409.42 493.992 409.42H513.902C515.902 409.42 517.412 411.25 517.032 413.21C516.392 416.52 515.702 420.88 514.842 424.31C513.572 429.39 512.752 432.3 511.232 436.72C510.972 437.47 511.532 438.24 512.322 438.24H591.172C592.932 438.24 594.352 439.67 594.352 441.42V463.51C594.352 465.27 592.922 466.69 591.172 466.69H568.132C567.322 466.69 566.632 467.3 566.552 468.11C565.922 474.01 562.872 497.16 552.382 517.26C538.282 546 508.132 566.39 478.332 572.13C476.372 572.51 474.552 571 474.552 569V546.48L474.542 546.52Z" fill="black"/>
<path d="M675.893 411.029V468.869C675.893 469.749 676.603 470.459 677.483 470.459H764.513C765.393 470.459 766.103 469.749 766.103 468.869V411.029C766.103 410.149 765.393 409.439 764.513 409.439H677.483C676.603 409.439 675.893 410.149 675.893 411.029ZM738.453 452.739H702.293C701.413 452.739 700.703 452.029 700.703 451.149V446.869C700.703 445.989 701.413 445.279 702.293 445.279H738.453C739.333 445.279 740.043 445.989 740.043 446.869V451.149C740.043 452.029 739.333 452.739 738.453 452.739ZM738.453 434.449H702.293C701.413 434.449 700.703 433.739 700.703 432.859V428.749C700.703 427.869 701.413 427.159 702.293 427.159H738.453C739.333 427.159 740.043 427.869 740.043 428.749V432.859C740.043 433.739 739.333 434.449 738.453 434.449Z" fill="black"/>
<path d="M674.222 497.34H728.262C729.142 497.34 729.852 498.05 729.852 498.93V502.84C729.852 503.72 729.142 504.43 728.262 504.43H667.752C665.992 504.43 664.572 505.86 664.572 507.61V522.86C664.572 524.62 666.002 526.04 667.752 526.04H728.262C729.142 526.04 729.852 526.75 729.852 527.63V545.39C729.852 546.11 729.932 547.98 729.212 548.85C728.382 549.87 727.142 549.67 725.842 549.72C722.532 549.72 719.572 549.7 716.942 549.66C716.542 549.66 716.252 549.29 716.332 548.9C716.592 547.63 716.722 546.31 716.692 544.96C716.492 535.68 708.932 528.08 699.652 527.84C689.572 527.58 681.362 535.85 681.702 545.94C682.012 555.29 689.782 562.81 699.142 562.84C704.032 562.85 708.452 560.86 711.632 557.64C711.972 557.3 712.542 557.43 712.692 557.88C714.152 562.21 715.532 566.34 716.782 570.05C717.222 571.35 718.452 572.22 719.822 572.21C725.722 572.17 730.502 571.96 734.172 571.6C738.302 571.18 742.082 570.15 745.512 568.5C749.172 566.84 751.682 564.42 753.042 561.23C754.402 558.04 755.082 553.55 755.082 547.76V527.62C755.082 526.74 755.792 526.03 756.672 526.03H762.902C764.662 526.03 766.082 524.6 766.082 522.85V507.6C766.082 505.84 764.652 504.42 762.902 504.42H756.672C755.792 504.42 755.082 503.71 755.082 502.83V498.92C755.082 498.04 755.792 497.33 756.672 497.33H762.902C764.662 497.33 766.082 495.9 766.082 494.15V479.6C766.082 477.84 764.652 476.42 762.902 476.42H674.202C672.442 476.42 671.022 477.85 671.022 479.6V494.15C671.022 495.91 672.452 497.33 674.202 497.33L674.222 497.34Z" fill="black"/>
<path d="M668.822 409.439H650.252C649.392 409.439 648.572 409.789 647.972 410.399C635.222 423.349 618.282 434.569 612.122 438.479C610.772 439.329 610.272 441.059 610.942 442.499L620.692 463.569C621.622 465.569 624.252 466.049 625.822 464.499C646.112 444.459 664.442 419.799 670.112 411.959C670.872 410.909 670.112 409.439 668.822 409.439Z" fill="black"/>
<path d="M671.912 453.889V435.409C671.912 433.999 670.212 433.289 669.202 434.279C653.632 449.599 620.042 477.059 611.672 483.859C610.542 484.779 610.182 486.349 610.792 487.669L620.692 509.049C621.622 511.049 624.252 511.529 625.822 509.979C627.532 508.289 629.232 506.559 630.912 504.819C631.312 504.409 632.012 504.689 632.012 505.259V569.059C632.012 570.819 633.442 572.239 635.192 572.239H653.812C655.572 572.239 656.992 570.809 656.992 569.059V476.369C656.992 475.299 657.352 474.249 658.022 473.409C664.862 464.729 669.712 458.019 671.332 455.739C671.712 455.199 671.922 454.559 671.922 453.889H671.912Z" fill="black"/>
<path d="M653.263 623.33C640.843 623.33 634.803 628.28 634.803 638.47V655.6C634.803 665.67 640.843 670.56 653.263 670.56C659.133 670.56 663.473 669.48 666.553 667.27C669.993 664.8 671.733 660.87 671.733 655.59V638.46C671.733 628.27 665.693 623.32 653.273 623.32L653.263 623.33ZM646.083 639.3C646.083 633.93 648.833 632.91 653.263 632.91C657.693 632.91 660.443 633.95 660.443 639.3V654.68C660.443 659.95 657.593 660.98 653.263 660.98C648.933 660.98 646.083 659.98 646.083 654.68V639.3Z" fill="black"/>
<path d="M708.263 669.331H721.353L703.623 646.781L720.553 624.8H707.393L694.053 642.281V610.23H682.763V669.331H694.053V659.211L696.943 655.451L708.263 669.331Z" fill="black"/>
<path d="M754.812 624.801V653.291C754.812 659.041 751.872 660.891 746.822 660.891C743.552 660.891 740.272 660.351 740.272 653.881V624.811H728.992V656.771C728.992 665.741 733.702 670.481 742.612 670.481C749.292 670.481 753.872 666.861 755.572 662.801L757.382 669.341H766.102V624.811H754.822L754.812 624.801Z" fill="black"/>
<path d="M630.563 610.23H589.143V620.141V620.151H604.213V669.331H615.683V620.151H630.563V610.23Z" fill="black"/>
<path d="M459.682 669.331H472.772L455.042 646.781L471.972 624.8H458.812L445.472 642.281V610.23H434.192V669.331H445.472V659.211L448.362 655.451L459.682 669.331Z" fill="black"/>
<path d="M355.322 610.23H313.902V620.141V620.151H328.982V669.331H340.442V620.151H355.322V610.23Z" fill="black"/>
<path d="M421.792 658.89L421.192 659.04C417.612 659.96 413.282 660.89 409.402 660.89C404.852 660.89 401.682 658.82 401.682 652.83V640.97C401.682 634.9 404.852 632.82 409.402 632.82C413.352 632.82 417.872 633.7 421.222 634.4L421.802 634.52V625.19L421.492 625.12C417.682 624.23 412.042 623.33 407.522 623.33C402.002 623.33 397.962 624.4 395.162 626.59C391.962 629.09 390.412 633.85 390.412 639.34V654.64C390.412 664.77 396.012 670.56 407.532 670.56C411.402 670.56 417.262 669.49 421.522 668.31L421.812 668.23V658.88L421.792 658.89Z" fill="black"/>
<path d="M553.922 634.699V624.799H543.682V615.189H532.402V624.799H525.172V634.699H532.402V655.419C532.402 667.939 540.292 670.559 546.922 670.559C548.702 670.559 550.502 670.449 552.112 670.219V660.259C551.462 660.329 550.252 660.359 549.532 660.359C546.452 660.359 543.682 659.729 543.682 652.089V634.689H553.922V634.699Z" fill="black"/>
<path d="M489.732 650.741V650.561H515.162V641.481C515.162 635.571 513.542 630.241 510.352 627.341C507.412 624.671 502.772 623.311 497.252 623.311C485.072 623.311 478.452 629.221 478.452 639.591V654.451C478.452 664.701 483.832 670.551 496.312 670.551C500.972 670.551 506.282 669.561 511.962 668.401L512.352 668.321V659.051L511.702 659.201C507.132 660.251 504.612 661.141 500.282 661.141C494.072 661.141 489.732 658.621 489.732 652.201V650.721V650.741ZM489.732 639.721C489.732 634.071 493.792 632.741 497.162 632.741C500.532 632.741 504.062 634.071 504.062 639.721V643.231H489.732V642.711V639.721Z" fill="black"/>
<path d="M378.173 626.881H366.893V669.331H378.173V626.881Z" fill="black"/>
<path d="M372.532 622.22C376.415 622.22 379.562 619.073 379.562 615.19C379.562 611.308 376.415 608.16 372.532 608.16C368.649 608.16 365.502 611.308 365.502 615.19C365.502 619.073 368.649 622.22 372.532 622.22Z" fill="black"/>
<path d="M585.733 643.92H566.143V651.26H585.733V643.92Z" fill="black"/>
<path d="M771.528 1614.83V1639.03C771.528 1647.62 771.77 1651.85 772.496 1656.45H754.467C755.193 1652.34 755.435 1647.26 755.435 1639.27V1575.5C755.435 1568.85 755.193 1565.34 754.467 1559.77C759.428 1560.02 762.453 1560.14 769.834 1560.14H803.714C811.337 1560.14 815.209 1559.89 820.291 1559.29V1575.62C815.935 1575.02 811.458 1574.78 803.714 1574.78H771.528V1600.43H797.422C804.924 1600.43 809.159 1600.19 813.878 1599.58V1615.68C809.401 1615.07 804.803 1614.83 797.422 1614.83H771.528Z" fill="black"/>
<path d="M693.658 1614.83V1639.03C693.658 1647.62 693.9 1651.85 694.626 1656.45H676.597C677.323 1652.34 677.565 1647.26 677.565 1639.27V1575.5C677.565 1568.85 677.323 1565.34 676.597 1559.77C681.558 1560.02 684.583 1560.14 691.964 1560.14H725.844C733.467 1560.14 737.339 1559.89 742.421 1559.29V1575.62C738.065 1575.02 733.588 1574.78 725.844 1574.78H693.658V1600.43H719.552C727.054 1600.43 731.289 1600.19 736.008 1599.58V1615.68C731.531 1615.07 726.933 1614.83 719.552 1614.83H693.658Z" fill="black"/>
<path d="M617.077 1558.2C630.387 1558.2 640.672 1562.07 648.9 1570.3C657.733 1579.13 662.452 1592.32 662.452 1608.05C662.452 1638.66 644.665 1658.51 617.198 1658.51C589.731 1658.51 572.065 1638.79 572.065 1608.05C572.065 1592.44 576.905 1579.01 585.859 1570.3C594.208 1562.07 604.251 1558.2 617.077 1558.2ZM617.44 1644.11C634.743 1644.11 645.512 1630.32 645.512 1608.05C645.512 1595.83 642.124 1586.03 635.953 1579.86C630.992 1575.02 624.579 1572.48 617.319 1572.48C599.895 1572.48 588.884 1586.27 588.884 1608.17C588.884 1620.27 592.393 1630.44 598.685 1636.73C603.646 1641.57 610.059 1644.11 617.44 1644.11Z" fill="black"/>
<path d="M469.026 1654.64L545.135 1557.23L551.427 1562.07L475.197 1659.6L469.026 1654.64ZM538.722 1658.39C531.946 1658.39 526.38 1656.33 522.266 1652.22C517.668 1647.74 515.248 1640.48 515.248 1631.28C515.248 1622.21 517.668 1615.07 522.266 1610.47C526.38 1606.48 532.067 1604.3 538.722 1604.3C545.377 1604.3 551.064 1606.48 555.057 1610.47C559.655 1614.95 562.075 1622.21 562.075 1631.28C562.075 1640.48 559.655 1647.74 555.057 1652.22C550.943 1656.33 545.377 1658.39 538.722 1658.39ZM538.722 1614.59C535.213 1614.59 532.914 1615.68 530.978 1618.46C528.8 1621.48 527.711 1625.6 527.711 1631.04C527.711 1642.17 531.583 1648.22 538.722 1648.22C545.982 1648.22 549.733 1642.17 549.733 1630.44C549.733 1625.6 548.523 1621.24 546.466 1618.34C544.409 1615.68 542.231 1614.59 538.722 1614.59ZM481.731 1612.41C474.955 1612.41 469.389 1610.35 465.275 1606.24C460.677 1601.76 458.257 1594.38 458.257 1585.3C458.257 1568.36 466.969 1558.32 481.731 1558.32C488.386 1558.32 494.073 1560.5 498.066 1564.49C502.664 1568.97 505.084 1576.23 505.084 1585.3C505.084 1594.5 502.664 1601.76 498.066 1606.24C493.952 1610.35 488.386 1612.41 481.731 1612.41ZM481.731 1568.61C474.713 1568.61 470.72 1574.54 470.72 1585.06C470.72 1596.19 474.592 1602.24 481.731 1602.24C488.749 1602.24 492.742 1596.19 492.742 1585.3C492.742 1580.95 491.895 1576.59 490.564 1574.05C488.507 1570.3 485.724 1568.61 481.731 1568.61Z" fill="black"/>
<path d="M410.351 1658.39C400.066 1658.39 391.354 1655 384.941 1648.59C381.311 1644.96 378.528 1640.72 376.955 1636.37C373.809 1627.77 372.236 1618.34 372.236 1608.54C372.236 1595.71 375.14 1582.4 379.617 1575.02C386.151 1564.13 397.041 1558.2 410.472 1558.2C420.757 1558.2 429.59 1561.59 436.003 1568C439.633 1571.63 442.416 1575.87 443.989 1580.22C447.135 1588.69 448.708 1598.37 448.708 1608.29C448.708 1623.18 445.441 1636.24 439.754 1644.11C432.978 1653.55 422.935 1658.39 410.351 1658.39ZM410.472 1644.35C415.796 1644.35 420.515 1642.54 423.54 1639.27C428.985 1633.58 432.01 1622.33 432.01 1608.17C432.01 1594.14 428.985 1583.13 423.54 1577.2C420.636 1573.93 415.796 1572.11 410.351 1572.11C404.543 1572.11 400.308 1574.05 396.799 1578.29C391.475 1584.58 388.813 1594.5 388.813 1607.69C388.813 1620.39 391.112 1630.92 394.984 1636.49C398.735 1641.81 403.817 1644.35 410.472 1644.35Z" fill="black"/>
<path d="M335.463 1656.45H317.192C317.918 1651.73 318.16 1647.01 318.16 1640.72V1574.05H312.352C307.875 1574.05 304.366 1574.29 299.889 1574.78V1559.41C303.64 1560.02 306.302 1560.14 311.989 1560.14H323.121C329.292 1560.14 331.107 1560.02 335.463 1559.53C334.737 1566.67 334.495 1572.24 334.495 1579.5V1640.72C334.495 1647.14 334.737 1651.49 335.463 1656.45Z" fill="black"/>
<path d="M838.484 1455.15L832.677 1455.49C832.629 1454.62 832.581 1454.34 832.437 1453.23C831.525 1447.42 831.188 1443.73 831.188 1438.88C831.188 1432.69 831.764 1427.22 833.156 1420.11C833.684 1417.42 833.781 1416.94 833.877 1415.65L840.213 1416.32C839.061 1419.15 837.956 1424.53 837.188 1430.67C836.708 1434.27 836.517 1437.1 836.469 1441.28C836.469 1442.34 836.42 1442.72 836.372 1443.92C836.9 1442.24 836.997 1441.9 838.869 1437.58L842.708 1439.31C840.068 1444.88 838.437 1450.45 838.437 1453.86C838.437 1454.14 838.436 1454.53 838.484 1455.15ZM845.109 1426.4L845.205 1420.64C847.365 1421.22 849.908 1421.41 854.084 1421.41C859.412 1421.41 863.973 1420.98 867.141 1420.11L867.429 1425.92C867.045 1425.97 866.325 1426.06 864.021 1426.35C860.949 1426.74 857.3 1426.93 853.748 1426.93C850.244 1426.93 850.197 1426.93 845.109 1426.4ZM848.42 1434.32L853.125 1436.53C850.725 1439.31 849.716 1441.38 849.716 1443.44C849.716 1446.18 852.357 1447.62 857.349 1447.62C861.573 1447.62 865.749 1446.94 868.773 1445.79L869.253 1451.89C868.581 1451.94 868.388 1451.98 867.284 1452.18C863.444 1452.8 860.517 1453.09 857.349 1453.09C851.397 1453.09 847.557 1451.74 845.445 1448.91C844.533 1447.71 844.005 1445.94 844.005 1444.21C844.005 1441.09 845.444 1437.87 848.42 1434.32Z" fill="black"/>
<path d="M798.693 1420.69V1417.76C798.693 1416.18 798.597 1414.93 798.357 1413.78H804.549C804.357 1414.78 804.261 1416.03 804.261 1417.76V1420.69H817.461C820.149 1420.69 821.877 1420.59 823.509 1420.35V1426.16C822.021 1425.97 820.533 1425.87 817.653 1425.87H800.085C799.845 1429.47 799.845 1429.62 799.701 1431.06H812.997C815.493 1431.06 816.837 1431.01 817.941 1430.82C817.941 1431.06 817.941 1431.2 817.893 1431.3C817.797 1432.02 817.797 1432.59 817.701 1434.66C817.509 1441.86 816.885 1448.05 816.069 1451.5C814.965 1456.06 813.381 1457.26 808.581 1457.26C806.901 1457.26 805.797 1457.22 802.101 1456.93C801.909 1454.72 801.525 1453.14 800.709 1451.36C803.493 1451.79 805.701 1451.98 807.909 1451.98C810.021 1451.98 810.501 1451.46 811.125 1448.14C811.701 1445.26 811.989 1442.24 812.181 1436.1H798.933C796.917 1445.74 792.597 1451.89 783.525 1457.84C782.325 1455.73 781.413 1454.67 779.637 1453.28C783.861 1450.64 785.925 1448.96 788.229 1446.18C792.357 1441.23 793.989 1435.66 794.229 1425.87H786.357C783.957 1425.87 781.989 1425.97 780.357 1426.16V1420.35C782.085 1420.59 783.909 1420.69 786.357 1420.69H798.693Z" fill="black"/>
<path d="M757.556 1423.23C756.644 1430.77 754.964 1437.39 752.564 1442.82C749.828 1449.01 746.756 1451.84 742.82 1451.84C737.348 1451.84 733.412 1446.27 733.412 1438.54C733.412 1433.26 735.284 1428.32 738.692 1424.58C742.724 1420.16 748.388 1417.86 755.204 1417.86C766.724 1417.86 774.212 1424.86 774.212 1435.66C774.212 1443.97 769.892 1450.59 762.548 1453.57C760.244 1454.53 758.372 1455.01 755.012 1455.58C754.196 1453.04 753.62 1451.98 752.084 1449.97C756.5 1449.39 759.38 1448.62 761.636 1447.33C765.812 1445.02 768.308 1440.46 768.308 1435.33C768.308 1430.72 766.244 1426.98 762.404 1424.67C760.916 1423.81 759.668 1423.42 757.556 1423.23ZM751.7 1423.28C749.204 1423.57 747.476 1424.24 745.508 1425.63C741.476 1428.51 738.98 1433.46 738.98 1438.59C738.98 1442.53 740.66 1445.65 742.772 1445.65C744.356 1445.65 745.988 1443.63 747.716 1439.5C749.54 1435.18 751.124 1428.7 751.7 1423.28Z" fill="black"/>
<path d="M721.845 1425.87H719.301C718.053 1430.34 717.285 1432.3 715.557 1435.52C713.925 1438.54 712.149 1441.04 709.893 1443.63C715.173 1447.76 720.933 1450.35 728.661 1452.08C727.077 1453.95 726.405 1455.1 725.349 1457.7C717.189 1455.01 711.333 1451.89 706.005 1447.33C703.269 1449.63 700.005 1451.79 696.597 1453.57C693.669 1455.06 690.933 1456.16 686.373 1457.7C685.509 1455.63 684.693 1454.29 683.301 1452.56C691.893 1450.21 697.221 1447.71 702.165 1443.63C699.861 1441.09 698.133 1438.74 696.501 1435.95C694.677 1432.83 693.813 1430.77 692.181 1425.87H689.925C687.669 1425.87 685.797 1425.97 684.069 1426.16V1420.74C685.893 1420.98 687.525 1421.07 690.069 1421.07H702.837V1417.66C702.837 1416.22 702.741 1415.07 702.501 1413.97H708.597C708.357 1415.07 708.261 1416.22 708.261 1417.62V1421.07H721.653C724.245 1421.07 725.925 1420.98 727.701 1420.74V1426.16C725.973 1425.97 724.341 1425.87 721.845 1425.87ZM713.637 1425.87H697.701C698.901 1429.52 699.669 1431.25 701.349 1434.08C702.837 1436.48 704.133 1438.16 705.957 1440.08C707.637 1438.21 709.029 1436.29 710.325 1434.03C711.765 1431.44 712.485 1429.76 713.637 1425.87Z" fill="black"/>
<path d="M654.357 1423.42H665.637C662.421 1420.78 660.357 1419.49 655.653 1417.33L659.109 1413.39C664.389 1415.98 665.493 1416.61 669.429 1419.49L666.261 1423.42H673.461C676.101 1423.42 677.301 1423.38 678.837 1423.14V1428.51C677.349 1428.37 675.573 1428.27 673.461 1428.27H665.925V1436.62H672.117C674.133 1436.62 676.005 1436.53 677.349 1436.34V1441.62C675.861 1441.47 673.989 1441.38 672.117 1441.38H665.925V1451.31H674.133C676.341 1451.31 678.453 1451.22 679.845 1451.02V1456.4C678.309 1456.21 676.389 1456.11 674.133 1456.11H653.205C650.949 1456.11 648.933 1456.21 647.493 1456.4V1451.02C648.981 1451.22 651.141 1451.31 653.205 1451.31H660.549V1441.38H655.653C653.733 1441.38 651.861 1441.47 650.373 1441.62V1436.34C651.765 1436.53 653.541 1436.62 655.605 1436.62H660.549V1428.27H654.357C651.909 1428.27 650.709 1428.32 648.981 1428.51V1423.14C650.613 1423.33 652.005 1423.42 654.357 1423.42ZM637.605 1417.71L640.869 1413.97C644.469 1416.08 646.341 1417.47 649.365 1420.26L646.149 1424.53C643.125 1421.31 641.589 1420.06 637.605 1417.71ZM635.685 1429.66L638.757 1425.68C642.645 1427.94 644.277 1429.14 647.445 1431.92L644.565 1436.34C641.061 1432.98 639.237 1431.63 635.685 1429.66ZM643.509 1439.02L647.781 1442.05C645.573 1448 644.325 1450.93 642.453 1454.34C641.973 1455.2 641.685 1455.68 641.109 1456.64C640.725 1457.26 640.725 1457.26 640.437 1457.79L635.877 1453.81C638.133 1451.36 640.917 1446.03 643.509 1439.02Z" fill="black"/>
<path d="M595.365 1423.57L595.797 1417.86C599.493 1418.72 603.765 1419.06 610.197 1419.06C616.293 1419.06 619.701 1418.82 622.869 1418.14L623.061 1423.57C620.181 1424.82 614.277 1428.51 610.245 1431.49L606.069 1428.18C609.093 1426.26 609.621 1425.92 610.821 1425.25C611.301 1424.96 611.445 1424.86 612.069 1424.48C612.453 1424.29 612.501 1424.29 613.125 1423.9C611.013 1424.19 608.949 1424.29 605.925 1424.29C603.477 1424.29 599.493 1424.05 597.141 1423.71C596.565 1423.66 596.229 1423.62 596.037 1423.62C595.941 1423.62 595.701 1423.57 595.365 1423.57ZM598.917 1434.42L603.093 1437.58C600.069 1440.13 598.725 1442.14 598.725 1444.21C598.725 1447.33 602.229 1448.67 610.341 1448.67C616.053 1448.67 622.341 1447.81 625.413 1446.61L625.941 1453.18C625.077 1453.23 624.933 1453.23 623.829 1453.38C618.069 1454.24 614.997 1454.48 610.869 1454.48C605.637 1454.48 601.413 1453.95 598.869 1452.9C594.741 1451.26 592.725 1448.62 592.725 1444.88C592.725 1441.18 594.597 1438.02 598.917 1434.42ZM631.893 1432.45L628.581 1434.32C627.141 1431.68 625.557 1429.42 623.685 1427.36L626.901 1425.68C629.061 1427.89 630.405 1429.71 631.893 1432.45ZM617.781 1430.19L621.141 1428.51C623.253 1430.77 624.549 1432.59 626.181 1435.57L622.821 1437.34C621.237 1434.42 619.893 1432.5 617.781 1430.19Z" fill="black"/>
<path d="M563.397 1433.17V1450.83H577.221C579.765 1450.83 581.925 1450.74 583.701 1450.54V1456.3C581.685 1456.06 579.717 1455.97 577.317 1455.97H546.837C544.581 1455.97 542.373 1456.06 540.213 1456.3V1450.54C542.085 1450.74 544.101 1450.83 546.837 1450.83H557.781V1419.82C557.781 1417.71 557.685 1416.27 557.445 1414.3H563.733C563.493 1416.08 563.397 1417.66 563.397 1419.82V1428.03H574.677C576.789 1428.03 578.517 1427.94 580.245 1427.74V1433.46C578.517 1433.26 576.693 1433.17 574.677 1433.17H563.397Z" fill="black"/>
<path d="M525.861 1414.74L531.909 1414.83C531.861 1415.36 531.86 1415.36 531.428 1421.5C531.188 1425.82 530.229 1431.2 529.125 1434.9C528.357 1437.39 527.444 1439.5 526.1 1441.9C528.548 1446.18 531.909 1449.49 536.565 1452.22C535.173 1453.86 534.212 1455.44 533.204 1457.7C528.98 1454.67 525.716 1451.17 522.884 1446.61C518.996 1451.5 514.005 1455.06 506.805 1458.08C505.701 1455.92 504.885 1454.67 503.733 1453.33C512.181 1450.06 517.364 1446.18 520.868 1440.51C524.325 1434.94 526.052 1427.41 526.052 1417.9C526.052 1416.37 526.005 1415.84 525.861 1414.74ZM496.82 1445.74L496.581 1420.59C496.533 1418.05 496.437 1416.61 496.197 1414.88H502.293C502.149 1416.22 502.052 1417.66 502.052 1419.58V1420.64L502.293 1443.54C506.709 1441.57 511.413 1439.07 514.629 1437.01L515.78 1442.05C509.828 1445.7 505.797 1447.76 496.917 1451.6C495.093 1452.42 494.756 1452.56 493.556 1453.14L492.021 1447.28C493.701 1446.9 494.516 1446.61 496.82 1445.74ZM506.229 1420.59L510.836 1417.66C514.628 1421.5 516.789 1424.19 520.341 1429.42L515.397 1432.83C511.749 1426.78 510.597 1425.25 506.229 1420.59Z" fill="black"/>
<path d="M451.557 1439.12V1451.98C451.557 1455.01 451.605 1456.45 451.797 1457.55H445.893C446.085 1456.02 446.181 1454.29 446.181 1451.79V1420.4C446.181 1418.38 446.133 1417.18 445.989 1415.79C447.525 1415.94 448.773 1415.98 451.317 1415.98H480.501C483.141 1415.98 484.581 1415.94 485.733 1415.79C485.589 1417.18 485.541 1418.43 485.541 1421.02V1451.79C485.541 1454.24 484.965 1455.58 483.573 1456.3C482.661 1456.78 481.125 1456.98 478.533 1456.98C476.661 1456.98 474.021 1456.88 472.149 1456.78C471.861 1454.91 471.525 1453.57 470.661 1451.6C473.829 1451.94 476.229 1452.13 477.957 1452.13C479.829 1452.13 480.117 1451.98 480.117 1450.83V1439.12H451.557ZM462.933 1434.08V1421.07H451.557V1434.08H462.933ZM468.117 1434.08H480.117V1421.07H468.117V1434.08Z" fill="black"/>
<path d="M424.681 1455.34C420.601 1455.34 417.145 1454 414.601 1451.46C413.161 1450.02 412.057 1448.34 411.433 1446.61C410.185 1443.2 409.561 1439.46 409.561 1435.57C409.561 1430.48 410.713 1425.2 412.489 1422.27C415.081 1417.95 419.401 1415.6 424.729 1415.6C428.809 1415.6 432.313 1416.94 434.857 1419.49C436.297 1420.93 437.401 1422.61 438.025 1424.34C439.273 1427.7 439.897 1431.54 439.897 1435.47C439.897 1441.38 438.601 1446.56 436.345 1449.68C433.657 1453.42 429.673 1455.34 424.681 1455.34ZM424.729 1449.78C426.841 1449.78 428.713 1449.06 429.913 1447.76C432.073 1445.5 433.273 1441.04 433.273 1435.42C433.273 1429.86 432.073 1425.49 429.913 1423.14C428.761 1421.84 426.841 1421.12 424.681 1421.12C422.377 1421.12 420.697 1421.89 419.305 1423.57C417.193 1426.06 416.137 1430 416.137 1435.23C416.137 1440.27 417.049 1444.45 418.585 1446.66C420.073 1448.77 422.089 1449.78 424.729 1449.78Z" fill="black"/>
<path d="M390.509 1455.34C386.429 1455.34 382.973 1454 380.429 1451.46C378.989 1450.02 377.885 1448.34 377.261 1446.61C376.013 1443.2 375.389 1439.46 375.389 1435.57C375.389 1430.48 376.541 1425.2 378.317 1422.27C380.909 1417.95 385.229 1415.6 390.557 1415.6C394.637 1415.6 398.141 1416.94 400.685 1419.49C402.125 1420.93 403.229 1422.61 403.853 1424.34C405.101 1427.7 405.725 1431.54 405.725 1435.47C405.725 1441.38 404.429 1446.56 402.173 1449.68C399.485 1453.42 395.501 1455.34 390.509 1455.34ZM390.557 1449.78C392.669 1449.78 394.541 1449.06 395.741 1447.76C397.901 1445.5 399.101 1441.04 399.101 1435.42C399.101 1429.86 397.901 1425.49 395.741 1423.14C394.589 1421.84 392.669 1421.12 390.509 1421.12C388.205 1421.12 386.525 1421.89 385.133 1423.57C383.021 1426.06 381.965 1430 381.965 1435.23C381.965 1440.27 382.877 1444.45 384.413 1446.66C385.901 1448.77 387.917 1449.78 390.557 1449.78Z" fill="black"/>
<path d="M356.337 1455.34C352.257 1455.34 348.801 1454 346.257 1451.46C344.817 1450.02 343.713 1448.34 343.089 1446.61C341.841 1443.2 341.217 1439.46 341.217 1435.57C341.217 1430.48 342.369 1425.2 344.145 1422.27C346.737 1417.95 351.057 1415.6 356.385 1415.6C360.465 1415.6 363.969 1416.94 366.513 1419.49C367.953 1420.93 369.057 1422.61 369.681 1424.34C370.929 1427.7 371.553 1431.54 371.553 1435.47C371.553 1441.38 370.257 1446.56 368.001 1449.68C365.313 1453.42 361.329 1455.34 356.337 1455.34ZM356.385 1449.78C358.497 1449.78 360.369 1449.06 361.569 1447.76C363.729 1445.5 364.929 1441.04 364.929 1435.42C364.929 1429.86 363.729 1425.49 361.569 1423.14C360.417 1421.84 358.497 1421.12 356.337 1421.12C354.033 1421.12 352.353 1421.89 350.961 1423.57C348.849 1426.06 347.793 1430 347.793 1435.23C347.793 1440.27 348.705 1444.45 350.241 1446.66C351.729 1448.77 353.745 1449.78 356.385 1449.78Z" fill="black"/>
<path d="M336.343 1447.57V1454.58C336.343 1458.7 335.287 1460.24 331.399 1461.78L329.671 1459.23C332.599 1458.42 333.271 1457.55 333.319 1454.58H329.287V1447.57H336.343Z" fill="black"/>
<path d="M325.212 1439.89V1446.03C323.436 1445.79 322.428 1445.74 320.412 1445.7H318.684V1449.1C318.684 1451.55 318.78 1452.8 319.068 1454.58H312.252C312.54 1452.9 312.636 1451.41 312.636 1449.01V1445.7H299.34C296.508 1445.7 294.972 1445.74 293.34 1445.89V1439.98C294.972 1438.21 295.5 1437.58 297.18 1435.57L308.556 1421.65C310.668 1419.1 311.436 1418.1 312.54 1416.37H319.02C318.732 1419.15 318.684 1420.83 318.684 1424.48V1440.22H320.364C322.284 1440.22 323.436 1440.13 325.212 1439.89ZM312.684 1440.27V1430.34C312.684 1428.08 312.732 1426.54 312.924 1424.58C311.964 1425.97 311.388 1426.74 309.66 1428.85L300.444 1440.27H312.684Z" fill="black"/>
<path d="M271.307 1420.26H266.459C264.827 1420.26 263.675 1420.3 262.475 1420.5V1415.31C263.531 1415.5 264.539 1415.55 266.459 1415.55H273.323C274.859 1415.55 275.915 1415.5 276.827 1415.36C276.731 1416.46 276.731 1417.14 276.731 1417.95C276.731 1422.66 277.835 1427.5 279.899 1431.87C282.347 1437.15 285.227 1440.46 290.459 1444.21C289.115 1445.84 288.299 1447.18 287.291 1449.25C283.787 1446.61 281.819 1444.69 279.611 1441.76C277.211 1438.54 275.867 1435.62 274.235 1430.38C273.035 1435.47 271.691 1438.5 269.003 1442.1C267.227 1444.54 265.739 1446.08 262.523 1448.67C261.227 1446.94 260.507 1446.18 258.731 1444.5C261.659 1442.38 263.099 1440.94 265.067 1438.35C267.611 1434.94 269.435 1431.01 270.395 1426.93C270.875 1424.96 271.067 1423.57 271.307 1420.26ZM247.163 1417.95L251.003 1414.35C254.459 1417.38 257.051 1420.06 259.403 1423.14L255.419 1427.02C252.443 1422.99 250.907 1421.31 247.163 1417.95ZM246.443 1436.96V1431.68C247.691 1431.87 248.459 1431.92 250.283 1431.92H254.219C255.659 1431.92 256.763 1431.87 257.867 1431.68C257.723 1433.26 257.675 1434.27 257.675 1436.96V1446.99C258.395 1448.53 258.827 1449.01 260.411 1450.06C262.715 1451.5 265.211 1451.84 273.467 1451.84C280.427 1451.84 286.523 1451.5 291.275 1450.83C290.459 1453.14 290.171 1454.34 289.835 1456.54C285.563 1456.69 278.603 1456.83 275.291 1456.83C267.419 1456.83 263.531 1456.54 261.035 1455.73C258.539 1454.96 256.811 1453.66 254.939 1451.22C253.403 1452.75 252.251 1453.76 249.995 1455.49C249.179 1456.11 248.891 1456.35 248.555 1456.64C248.075 1457.02 248.075 1457.02 247.835 1457.22L245.483 1451.74C247.547 1450.88 250.571 1448.86 252.635 1447.04V1436.72H249.707C248.363 1436.72 247.643 1436.77 246.443 1436.96Z" fill="black"/>
<path d="M205.356 1426.11V1420.98C203.724 1421.31 202.86 1421.46 200.364 1421.84C200.124 1420.54 199.596 1419.34 198.492 1417.42C203.82 1416.8 207.372 1415.94 211.068 1414.4C211.788 1414.11 212.508 1413.73 213.132 1413.3L216.108 1417.47C215.628 1417.66 215.58 1417.71 214.86 1418.05C213.228 1418.72 212.076 1419.15 210.348 1419.68V1426.11H211.836C213.42 1426.11 214.284 1426.06 215.196 1425.92V1430.91C214.236 1430.77 213.372 1430.72 211.836 1430.72H210.492C210.588 1430.96 210.588 1430.96 210.828 1431.39C212.268 1434.56 213.42 1436.24 215.916 1438.78L215.484 1439.65C214.62 1441.28 214.476 1441.62 213.756 1443.39C212.076 1441.23 211.692 1440.56 210.06 1437.06C210.204 1438.21 210.348 1440.99 210.348 1442.53V1452.13C210.348 1454.91 210.396 1456.45 210.636 1458.03H205.068C205.26 1456.35 205.356 1454.82 205.356 1452.13V1443.82C205.356 1442.91 205.548 1439.12 205.644 1437.92C204.348 1442.19 202.62 1445.5 199.836 1448.96C199.02 1446.66 198.492 1445.5 197.388 1443.97C199.404 1441.62 200.508 1439.94 201.9 1437.39C202.956 1435.42 204.156 1432.54 204.684 1430.72H202.284C200.412 1430.72 199.5 1430.77 198.444 1430.96V1425.87C199.548 1426.06 200.412 1426.11 202.284 1426.11H205.356ZM220.332 1423.28H229.548C231.468 1419.73 232.332 1417.52 233.436 1413.54L238.764 1415.26C236.556 1420.11 236.076 1421.12 234.78 1423.28H236.268C237.948 1423.28 238.908 1423.23 240.252 1423.09C240.108 1424.24 240.06 1425.01 240.06 1426.45V1435.28C240.06 1436.72 240.108 1437.68 240.252 1438.83C238.956 1438.69 237.804 1438.64 236.268 1438.64H234.108V1451.7C234.108 1452.61 234.348 1452.7 236.172 1452.7C238.14 1452.7 238.236 1452.46 238.332 1445.84C240.156 1447.04 241.404 1447.66 242.844 1448C242.508 1453.23 242.22 1454.72 241.356 1455.87C240.444 1457.17 238.908 1457.5 234.396 1457.5C230.268 1457.5 229.116 1456.59 229.116 1453.42V1438.64H226.092C225.708 1443.87 225.18 1446.51 223.836 1449.49C222.012 1453.57 219.708 1455.97 215.484 1458.27C214.428 1456.45 213.756 1455.63 211.932 1454.05C218.124 1451.22 221.004 1446.32 221.004 1438.64H220.284C218.748 1438.64 217.788 1438.69 216.492 1438.83C216.588 1437.73 216.636 1436.58 216.636 1435.23V1426.59C216.636 1425.44 216.588 1424.19 216.492 1423.09C217.884 1423.23 218.652 1423.28 220.332 1423.28ZM221.436 1427.89V1433.94H234.924V1427.89H221.436ZM226.428 1420.93L221.724 1423.04C220.236 1419.49 219.276 1417.66 217.788 1415.65L222.444 1413.49C224.268 1416.27 225.324 1418.29 226.428 1420.93Z" fill="black"/>
<path d="M709.923 1251.06H700.947C697.683 1251.06 695.779 1251.12 693.875 1251.4V1243.64C695.779 1243.92 697.683 1243.98 700.947 1243.98H709.923V1238.2C709.923 1234.94 709.855 1233.1 709.583 1231.13H718.015C717.743 1233.04 717.675 1234.8 717.675 1238.14V1243.98H729.167C732.227 1243.98 734.335 1243.85 736.375 1243.58V1251.46C734.267 1251.12 732.363 1251.06 729.167 1251.06H717.675V1268.06H731.411C734.879 1268.06 737.327 1267.92 739.639 1267.65V1275.6C737.259 1275.26 734.607 1275.13 731.479 1275.13H697.887C695.167 1275.13 692.379 1275.26 689.931 1275.6V1267.72C691.903 1267.92 694.351 1268.06 697.887 1268.06H709.923V1251.06ZM706.999 1221.95V1219.37C706.999 1217.46 706.863 1216.1 706.659 1214.68H714.887C714.615 1215.9 714.547 1217.12 714.547 1219.23V1221.95H731.479C734.811 1221.95 737.123 1221.82 739.299 1221.54V1229.36C737.259 1229.02 735.423 1228.96 731.479 1228.96H690.475C690.407 1247.18 690.067 1254.39 688.639 1261.6C687.483 1267.85 685.919 1272 682.791 1277.3C680.683 1274.86 679.187 1273.43 676.671 1271.52C681.771 1263.16 683.063 1255.34 683.063 1231.95C683.063 1226.1 682.995 1224.06 682.723 1221.61C684.967 1221.88 686.803 1221.95 689.863 1221.95H706.999Z" fill="black"/>
<path d="M636.686 1226.3V1222.16C636.686 1218.62 636.618 1216.99 636.278 1214.74H644.846C644.574 1216.85 644.438 1218.62 644.438 1221.88V1226.3H663.07C666.062 1226.3 667.49 1226.24 669.258 1226.03C669.054 1227.94 668.986 1229.36 668.986 1232.02V1252.76C668.986 1255.82 669.054 1257.58 669.326 1259.56H661.302V1255.48H644.438V1269.28C644.438 1273.36 644.574 1275.33 644.914 1277.71H636.21C636.55 1275.2 636.686 1273.09 636.686 1269.28V1255.48H620.638V1259.56H612.614C612.886 1257.31 612.954 1255.61 612.954 1252.76V1231.95C612.954 1229.43 612.886 1228.21 612.682 1226.03C614.654 1226.24 616.082 1226.3 618.802 1226.3H636.686ZM636.686 1233.51H620.638V1248.27H636.686V1233.51ZM644.438 1248.27H661.302V1233.51H644.438V1248.27Z" fill="black"/>
<path d="M578.274 1228.41C576.982 1239.09 574.602 1248.47 571.202 1256.16C567.326 1264.93 562.974 1268.94 557.398 1268.94C549.646 1268.94 544.07 1261.05 544.07 1250.1C544.07 1242.62 546.722 1235.62 551.55 1230.32C557.262 1224.06 565.286 1220.8 574.942 1220.8C591.262 1220.8 601.87 1230.72 601.87 1246.02C601.87 1257.79 595.75 1267.17 585.346 1271.39C582.082 1272.75 579.43 1273.43 574.67 1274.24C573.514 1270.64 572.698 1269.14 570.522 1266.29C576.778 1265.47 580.858 1264.38 584.054 1262.55C589.97 1259.28 593.506 1252.82 593.506 1245.55C593.506 1239.02 590.582 1233.72 585.142 1230.45C583.034 1229.23 581.266 1228.68 578.274 1228.41ZM569.978 1228.48C566.442 1228.89 563.994 1229.84 561.206 1231.81C555.494 1235.89 551.958 1242.9 551.958 1250.17C551.958 1255.75 554.338 1260.17 557.33 1260.17C559.574 1260.17 561.886 1257.31 564.334 1251.46C566.918 1245.34 569.162 1236.16 569.978 1228.48Z" fill="black"/>
<path d="M522.806 1222.16L523.826 1229.23C523.146 1229.36 522.534 1229.5 522.33 1229.5C522.126 1229.57 521.514 1229.7 520.698 1229.91C517.91 1230.59 515.394 1231.06 512.334 1231.47C513.354 1233.85 513.898 1235.01 514.986 1237.05C525.322 1234.94 528.654 1234.12 530.83 1233.1L531.51 1240.52C530.49 1240.65 529.47 1240.86 527.702 1241.26L523.01 1242.35L518.726 1243.24L518.046 1243.44C521.378 1248.88 523.01 1251.19 527.158 1255.88L521.174 1260.17C516.278 1258.13 512.198 1257.38 505.534 1257.38C500.366 1257.38 496.422 1258.06 494.11 1259.28C492.206 1260.37 491.186 1261.8 491.186 1263.43C491.186 1265.06 492.342 1266.63 494.11 1267.38C496.286 1268.33 499.89 1268.87 503.834 1268.87C510.906 1268.87 520.494 1266.83 524.778 1264.38L526.002 1272.82C525.186 1272.95 524.846 1273.02 524.166 1273.16C523.894 1273.22 523.418 1273.36 522.738 1273.5L521.582 1273.84C515.802 1275.4 510.158 1276.15 504.174 1276.15C496.354 1276.15 491.39 1275.13 487.582 1272.82C484.318 1270.78 482.346 1267.31 482.346 1263.5C482.346 1259.83 484.386 1256.43 488.058 1254.05C491.594 1251.8 497.034 1250.65 503.902 1250.65C508.05 1250.65 511.994 1251.12 515.666 1252.08C514.782 1251.33 512.946 1248.68 510.43 1244.46C503.902 1245.48 497.714 1245.89 484.114 1246.3C482.89 1246.36 482.482 1246.36 481.326 1246.5L481.054 1239.09C483.026 1239.36 483.434 1239.36 488.058 1239.36C495.334 1239.36 500.638 1239.02 507.302 1238.07C506.894 1237.32 506.69 1236.91 506.078 1235.55C505.398 1234.12 505.262 1233.72 504.65 1232.42C499.414 1233.1 494.45 1233.38 486.426 1233.44C483.706 1233.44 483.162 1233.44 481.802 1233.58L481.462 1226.37C483.434 1226.58 484.998 1226.64 487.99 1226.64C493.158 1226.64 496.966 1226.44 501.998 1225.9L501.794 1225.35C500.91 1223.18 500.434 1222.16 499.618 1220.12C499.074 1218.82 499.006 1218.76 498.53 1217.94L507.03 1216.78C507.098 1217.94 507.982 1220.46 509.818 1225.01C514.306 1224.4 521.446 1222.84 522.806 1222.16ZM520.766 1217.6L525.73 1215.63C528.654 1219.23 530.354 1221.88 532.258 1226.03L527.294 1228.14C525.322 1223.86 523.554 1221 520.766 1217.6ZM540.826 1222.5L535.93 1224.74C533.958 1220.59 531.986 1217.4 529.606 1214.47L534.366 1212.5C537.29 1215.97 539.126 1218.69 540.826 1222.5Z" fill="black"/>
<path d="M425.769 1215.63L434.473 1216.51C434.065 1217.8 434.065 1217.8 433.385 1221.07C433.045 1222.7 432.705 1224.06 431.957 1227.05C436.649 1226.58 440.185 1225.96 442.837 1225.15L443.041 1232.97C442.293 1233.04 442.157 1233.04 440.865 1233.31C438.417 1233.72 434.269 1234.19 430.053 1234.53C428.081 1241.33 425.633 1247.79 422.573 1254.25C421.009 1257.58 420.397 1258.81 417.813 1263.57C416.929 1265.2 416.929 1265.2 416.521 1266.02L408.701 1261.66C411.081 1258.54 412.985 1255.48 415.297 1250.78C417.949 1245.34 419.105 1242.56 421.689 1234.74C418.629 1234.8 418.221 1234.8 417.405 1234.8C416.521 1234.8 416.113 1234.8 414.685 1234.74L411.081 1234.67V1226.92C413.529 1227.39 416.113 1227.53 420.261 1227.53C421.077 1227.53 422.233 1227.53 423.729 1227.46C424.885 1222.63 425.633 1218.55 425.769 1215.63ZM469.289 1233.31L465.617 1240.31C459.701 1236.37 453.649 1233.44 446.033 1230.79L450.113 1224.2C458.137 1227.26 463.237 1229.64 469.289 1233.31ZM469.017 1263.98L465.277 1271.59C462.829 1268.67 458.885 1265.47 454.873 1263.16C454.941 1263.77 455.009 1264.25 455.009 1264.52C455.009 1267.04 453.853 1269.96 452.085 1271.73C449.705 1274.18 445.625 1275.54 440.797 1275.54C431.821 1275.54 425.973 1271.05 425.973 1264.11C425.973 1257.24 432.025 1252.42 440.661 1252.42C442.701 1252.42 444.129 1252.55 446.985 1253.03C446.781 1249.9 446.645 1247.25 446.645 1245.21C446.645 1242.56 446.781 1240.58 447.189 1238.34L455.077 1238.75C454.397 1241.26 454.261 1242.83 454.261 1245.62C454.261 1248.34 454.397 1251.06 454.873 1254.93C459.769 1257.11 460.449 1257.45 465.617 1261.19C466.637 1261.87 466.909 1262.14 467.997 1263.02C468.541 1263.57 468.541 1263.57 469.017 1263.98ZM447.257 1260.24C444.877 1259.42 443.245 1259.15 441.137 1259.15C436.717 1259.15 433.861 1260.98 433.861 1263.84C433.861 1266.63 436.309 1268.26 440.525 1268.26C445.149 1268.26 447.393 1266.36 447.393 1262.55C447.393 1261.87 447.257 1260.24 447.257 1260.24Z" fill="black"/>
<path d="M354.098 1224.47L356.75 1216.44C364.298 1218.96 374.362 1220.39 385.106 1220.39C385.446 1220.39 386.194 1220.39 387.01 1220.39L385.854 1228.75C373.478 1228.21 364.094 1226.98 354.098 1224.47ZM348.114 1247.18L346.142 1238.14C347.91 1238.07 347.91 1238.07 354.03 1236.98C363.686 1235.28 369.602 1234.67 375.382 1234.67C380.89 1234.67 385.106 1235.55 388.234 1237.46C392.45 1239.97 394.83 1244.53 394.83 1249.9C394.83 1257.65 390.138 1264.72 381.91 1269.42C376.334 1272.61 371.574 1274.04 360.49 1275.81C359.81 1272.2 359.062 1270.5 356.954 1267.31C364.842 1266.97 372.186 1265.06 377.422 1262.14C382.794 1259.15 385.718 1254.86 385.718 1250.17C385.718 1245.07 382.114 1242.49 375.042 1242.49C367.358 1242.49 353.758 1244.87 348.114 1247.18Z" fill="black"/>
</svg>
