<svg width="1080" height="1920" viewBox="0 0 1080 1920" fill="none" xmlns="http://www.w3.org/2000/svg">
<path d="M1080 1920L1080 0L0 0L0 1920H1080Z" fill="#A5D4AD"/>
<path d="M1020 983.72V95C1020 75.67 1004.33 60 985 60H95.58C75.93 60 60 75.93 60 95.58V983.71C60 984.03 60.25 984.28 60.57 984.28C80.03 984.59 95.71 1000.46 95.71 1019.99C95.71 1039.52 80.03 1055.39 60.57 1055.7C60.25 1055.7 60 1055.96 60 1056.27V1824.99C60 1844.32 75.67 1859.99 95 1859.99H985C1004.33 1859.99 1020 1844.32 1020 1824.99V1056.27C1020 1055.95 1019.75 1055.7 1019.43 1055.7C999.97 1055.39 984.29 1039.52 984.29 1019.99C984.29 1000.46 999.97 984.59 1019.43 984.28C1019.75 984.28 1020 984.02 1020 983.71V983.72Z" fill="white"/>
<path d="M60.57 1055.71C60.25 1055.71 60 1055.97 60 1056.28V1825C60 1844.33 75.67 1860 95 1860H985C1004.33 1860 1020 1844.33 1020 1825V1056.28C1020 1055.96 1019.75 1055.71 1019.43 1055.71C999.97 1055.4 984.29 1039.53 984.29 1020H95.71C95.71 1039.53 80.03 1055.4 60.57 1055.71Z" fill="#E5F2E6"/>
<path d="M121 1020H160.9" stroke="black" stroke-width="6" stroke-miterlimit="10"/>
<path d="M187.51 1020H227.41" stroke="black" stroke-width="6" stroke-miterlimit="10"/>
<path d="M254.02 1020H293.92" stroke="black" stroke-width="6" stroke-miterlimit="10"/>
<path d="M320.52 1020H360.43" stroke="black" stroke-width="6" stroke-miterlimit="10"/>
<path d="M387.029 1020H426.939" stroke="black" stroke-width="6" stroke-miterlimit="10"/>
<path d="M453.539 1020H493.439" stroke="black" stroke-width="6" stroke-miterlimit="10"/>
<path d="M520.051 1020H559.951" stroke="black" stroke-width="6" stroke-miterlimit="10"/>
<path d="M586.561 1020H626.461" stroke="black" stroke-width="6" stroke-miterlimit="10"/>
<path d="M653.061 1020H692.971" stroke="black" stroke-width="6" stroke-miterlimit="10"/>
<path d="M719.57 1020H759.48" stroke="black" stroke-width="6" stroke-miterlimit="10"/>
<path d="M786.08 1020H825.98" stroke="black" stroke-width="6" stroke-miterlimit="10"/>
<path d="M852.59 1020H892.49" stroke="black" stroke-width="6" stroke-miterlimit="10"/>
<path d="M919.1 1020H959" stroke="black" stroke-width="6" stroke-miterlimit="10"/>
<path d="M1020 984.29V95C1020 75.67 1004.33 60 985 60H95C75.67 60 60 75.67 60 95V984.29C79.72 984.29 95.71 1000.28 95.71 1020C95.71 1039.72 79.72 1055.71 60 1055.71V1825C60 1844.33 75.67 1860 95 1860H985C1004.33 1860 1020 1844.33 1020 1825V1055.71C1000.28 1055.71 984.29 1039.72 984.29 1020C984.29 1000.28 1000.28 984.29 1020 984.29Z" stroke="black" stroke-width="6" stroke-miterlimit="10"/>
<path d="M912.642 525.66C908.772 525.66 905.532 522.64 905.312 518.73C900.582 435.62 868.782 358.85 813.362 296.74C810.662 293.71 810.922 289.06 813.952 286.36C816.982 283.66 821.622 283.92 824.332 286.95C881.992 351.57 915.062 431.43 919.992 517.89C920.222 521.94 917.122 525.42 913.072 525.65C912.932 525.65 912.792 525.66 912.652 525.66H912.642Z" fill="black"/>
<path d="M818.842 795.509C817.102 795.509 815.352 794.889 813.952 793.639C810.922 790.939 810.662 786.289 813.362 783.259C868.782 721.149 900.582 644.379 905.312 561.269C905.542 557.219 909.022 554.109 913.072 554.349C917.122 554.579 920.222 558.049 919.992 562.109C915.062 648.579 881.992 728.439 824.332 793.049C822.882 794.679 820.862 795.509 818.842 795.509Z" fill="black"/>
<path d="M167.352 525.66C167.212 525.66 167.072 525.66 166.932 525.65C162.882 525.42 159.782 521.95 160.012 517.89C164.942 431.42 198.012 351.56 255.672 286.95C258.372 283.92 263.022 283.66 266.052 286.36C269.082 289.06 269.342 293.71 266.642 296.74C211.222 358.85 179.422 435.61 174.692 518.73C174.472 522.64 171.232 525.66 167.362 525.66H167.352Z" fill="black"/>
<path d="M261.162 795.509C259.142 795.509 257.122 794.679 255.672 793.049C198.012 728.429 164.942 648.569 160.012 562.109C159.782 558.059 162.882 554.579 166.932 554.349C170.982 554.109 174.462 557.219 174.692 561.269C179.422 644.389 211.222 721.149 266.642 783.259C269.342 786.289 269.082 790.939 266.052 793.639C264.652 794.889 262.902 795.509 261.162 795.509Z" fill="black"/>
<path d="M788.162 268.509C786.422 268.509 784.672 267.889 783.272 266.639C721.162 211.219 644.392 179.419 561.282 174.689C557.232 174.459 554.132 170.989 554.362 166.929C554.592 162.879 558.032 159.789 562.122 160.009C648.592 164.939 728.452 198.009 793.062 255.669C796.092 258.369 796.352 263.019 793.652 266.049C792.202 267.679 790.182 268.509 788.162 268.509Z" fill="black"/>
<path d="M291.842 268.51C289.822 268.51 287.802 267.68 286.352 266.05C283.652 263.02 283.912 258.37 286.942 255.67C351.562 198.01 431.422 164.94 517.882 160.01C521.932 159.78 525.412 162.88 525.642 166.93C525.872 170.98 522.772 174.46 518.722 174.69C435.612 179.42 358.842 211.22 296.732 266.64C295.332 267.89 293.582 268.51 291.842 268.51Z" fill="black"/>
<path d="M561.682 920C557.812 920 554.572 916.98 554.352 913.07C554.122 909.02 557.222 905.54 561.272 905.31C644.392 900.58 721.152 868.78 783.262 813.36C786.292 810.66 790.942 810.92 793.642 813.95C796.342 816.98 796.082 821.63 793.052 824.33C728.432 881.99 648.572 915.06 562.112 919.99C561.972 919.99 561.832 920 561.692 920H561.682Z" fill="black"/>
<path d="M518.312 920C518.172 920 518.032 920 517.892 919.99C431.422 915.06 351.562 881.99 286.952 824.33C283.922 821.63 283.662 816.98 286.362 813.95C289.062 810.92 293.712 810.66 296.742 813.36C358.852 868.78 435.622 900.58 518.732 905.31C522.782 905.54 525.882 909.01 525.652 913.07C525.432 916.98 522.192 920 518.322 920H518.312Z" fill="black"/>
<path d="M875.372 526.191C872.362 526.191 869.842 523.841 869.672 520.801C865.402 445.791 836.702 376.521 786.692 320.461C784.592 318.101 784.792 314.491 787.152 312.391C789.502 310.291 793.122 310.491 795.222 312.851C846.972 370.851 876.672 442.541 881.092 520.151C881.272 523.301 878.862 526.001 875.712 526.181C875.602 526.181 875.492 526.181 875.382 526.181L875.372 526.191Z" fill="black"/>
<path d="M790.952 769.062C789.592 769.062 788.242 768.582 787.152 767.612C784.792 765.512 784.592 761.892 786.692 759.542C836.702 703.492 865.402 634.212 869.672 559.202C869.852 556.052 872.542 553.642 875.702 553.822C878.852 554.002 881.262 556.702 881.082 559.852C876.662 637.472 846.972 709.152 795.212 767.152C794.082 768.422 792.512 769.062 790.942 769.062H790.952Z" fill="black"/>
<path d="M204.622 526.191C204.512 526.191 204.402 526.191 204.292 526.191C201.142 526.011 198.732 523.311 198.912 520.161C203.332 442.541 233.022 370.861 284.782 312.861C286.882 310.501 290.502 310.301 292.852 312.401C295.212 314.501 295.412 318.121 293.312 320.471C243.302 376.521 214.602 445.801 210.332 520.811C210.162 523.851 207.642 526.201 204.632 526.201L204.622 526.191Z" fill="black"/>
<path d="M289.042 769.061C287.472 769.061 285.902 768.411 284.772 767.151C233.022 709.151 203.322 637.461 198.902 559.851C198.722 556.701 201.132 554.001 204.282 553.821C207.442 553.631 210.132 556.051 210.312 559.201C214.582 634.211 243.282 703.491 293.292 759.541C295.392 761.901 295.192 765.511 292.832 767.611C291.742 768.581 290.382 769.061 289.032 769.061H289.042Z" fill="black"/>
<path d="M763.342 294.762C761.982 294.762 760.632 294.282 759.542 293.312C703.492 243.302 634.212 214.602 559.202 210.332C556.052 210.152 553.642 207.452 553.822 204.302C554.002 201.152 556.692 198.742 559.852 198.922C637.472 203.342 709.152 233.032 767.152 284.792C769.512 286.892 769.712 290.512 767.612 292.862C766.482 294.132 764.912 294.772 763.342 294.772V294.762Z" fill="black"/>
<path d="M316.651 294.761C315.081 294.761 313.511 294.111 312.381 292.851C310.281 290.491 310.481 286.881 312.841 284.781C370.841 233.031 442.531 203.331 520.141 198.911C523.291 198.721 525.991 201.141 526.171 204.291C526.351 207.441 523.941 210.141 520.791 210.321C445.781 214.591 376.511 243.291 320.451 293.301C319.361 294.271 318.001 294.751 316.651 294.751V294.761Z" fill="black"/>
<path d="M559.522 881.102C556.512 881.102 553.992 878.752 553.822 875.712C553.642 872.562 556.052 869.862 559.202 869.682C634.212 865.412 703.482 836.712 759.542 786.702C761.892 784.602 765.512 784.802 767.612 787.162C769.712 789.522 769.512 793.132 767.152 795.232C709.152 846.982 637.462 876.682 559.852 881.102C559.742 881.102 559.632 881.102 559.522 881.102Z" fill="black"/>
<path d="M520.481 881.102C520.371 881.102 520.261 881.102 520.151 881.102C442.531 876.682 370.851 846.992 312.851 795.232C310.491 793.132 310.291 789.512 312.391 787.162C314.491 784.802 318.111 784.602 320.461 786.702C376.511 836.722 445.791 865.412 520.801 869.682C523.951 869.862 526.361 872.562 526.181 875.712C526.011 878.752 523.491 881.102 520.481 881.102Z" fill="black"/>
<path d="M841.841 526.51C839.691 526.51 837.891 524.83 837.771 522.66C833.911 454.91 807.991 392.34 762.821 341.71C761.321 340.03 761.471 337.45 763.151 335.94C764.831 334.44 767.411 334.58 768.921 336.27C815.341 388.29 841.971 452.58 845.931 522.19C846.061 524.44 844.341 526.37 842.081 526.5C842.001 526.5 841.921 526.5 841.841 526.5V526.51Z" fill="black"/>
<path d="M765.862 745.101C764.892 745.101 763.922 744.761 763.142 744.061C761.462 742.561 761.312 739.981 762.812 738.291C807.982 687.661 833.902 625.091 837.762 557.341C837.892 555.091 839.852 553.391 842.072 553.491C844.322 553.621 846.042 555.551 845.922 557.801C841.952 627.411 815.322 691.701 768.912 743.721C768.102 744.621 766.982 745.081 765.862 745.081V745.101Z" fill="black"/>
<path d="M238.162 526.51C238.082 526.51 238.002 526.51 237.922 526.51C235.672 526.38 233.952 524.45 234.072 522.2C238.042 452.59 264.672 388.3 311.082 336.28C312.582 334.6 315.162 334.45 316.852 335.95C318.532 337.45 318.682 340.03 317.182 341.72C272.012 392.35 246.092 454.92 242.232 522.67C242.112 524.84 240.312 526.52 238.162 526.52V526.51Z" fill="black"/>
<path d="M314.131 745.101C313.011 745.101 311.891 744.641 311.081 743.741C264.661 691.721 238.031 627.431 234.071 557.821C233.941 555.571 235.661 553.641 237.921 553.511C240.161 553.401 242.101 555.101 242.231 557.361C246.091 625.111 272.011 687.681 317.181 738.311C318.681 739.991 318.531 742.571 316.851 744.081C316.071 744.771 315.101 745.121 314.131 745.121V745.101Z" fill="black"/>
<path d="M741.01 318.219C740.04 318.219 739.07 317.879 738.29 317.179C687.66 272.009 625.09 246.089 557.34 242.229C555.09 242.099 553.37 240.169 553.49 237.919C553.62 235.669 555.54 233.959 557.8 234.069C627.41 238.039 691.7 264.669 743.73 311.079C745.41 312.579 745.56 315.159 744.06 316.849C743.25 317.749 742.13 318.209 741.01 318.209V318.219Z" fill="black"/>
<path d="M338.991 318.22C337.871 318.22 336.751 317.76 335.941 316.86C334.441 315.18 334.591 312.6 336.271 311.09C388.291 264.67 452.581 238.04 522.191 234.08C524.441 233.96 526.371 235.67 526.501 237.93C526.631 240.18 524.91 242.11 522.65 242.24C454.9 246.1 392.331 272.02 341.701 317.19C340.921 317.88 339.951 318.23 338.981 318.23L338.991 318.22Z" fill="black"/>
<path d="M557.561 845.929C555.411 845.929 553.611 844.249 553.491 842.079C553.361 839.829 555.081 837.899 557.341 837.769C625.091 833.909 687.661 807.989 738.291 762.819C739.971 761.319 742.551 761.469 744.061 763.149C745.561 764.829 745.411 767.409 743.731 768.919C691.711 815.339 627.421 841.969 557.801 845.929C557.721 845.929 557.641 845.929 557.561 845.929Z" fill="black"/>
<path d="M522.431 845.929C522.351 845.929 522.271 845.929 522.191 845.929C452.581 841.959 388.291 815.329 336.271 768.919C334.591 767.419 334.441 764.839 335.941 763.149C337.441 761.469 340.021 761.319 341.711 762.819C392.341 807.989 454.911 833.909 522.661 837.769C524.911 837.899 526.631 839.829 526.511 842.079C526.391 844.249 524.591 845.929 522.441 845.929H522.431Z" fill="black"/>
<path d="M320.642 546.17C320.642 544.6 321.782 543.27 323.332 543.02C324.632 542.81 326.262 542.52 327.972 542.12C332.392 541.08 337.582 539.11 343.402 536.27C349.282 533.4 354.912 529.41 359.162 523.67C366.332 513.97 367.852 501.4 368.182 496.89C368.252 495.97 367.522 495.19 366.592 495.19H317.082C315.322 495.19 313.902 493.76 313.902 492.01V470.69C313.902 468.93 315.332 467.51 317.082 467.51H367.062C367.942 467.51 368.652 466.8 368.652 465.92V447.18C368.652 446.3 367.942 445.59 367.062 445.59H328.612C326.852 445.59 325.432 444.16 325.432 442.41V421.09C325.432 419.33 326.862 417.91 328.612 417.91H428.952C430.712 417.91 432.132 419.34 432.132 421.09V442.41C432.132 444.17 430.702 445.59 428.952 445.59H398.512C397.632 445.59 396.922 446.3 396.922 447.18V465.92C396.922 466.8 397.632 467.51 398.512 467.51H438.572C440.332 467.51 441.752 468.94 441.752 470.69V492.01C441.752 493.77 440.322 495.19 438.572 495.19H398.382C397.532 495.19 396.832 495.86 396.792 496.71C396.562 501.75 395.142 518.44 386.172 532.85C380.722 541.61 373.642 548.26 366.532 553.54C359.402 558.84 352.252 562.93 345.262 565.7C338.232 568.49 332.332 570.44 327.742 571.51C326.652 571.76 325.482 571.99 324.392 572.18C322.442 572.53 320.652 571.03 320.652 569.04V546.16L320.642 546.17Z" fill="black"/>
<path d="M474.542 546.52C474.542 545.06 475.542 543.79 476.952 543.43C485.202 541.36 488.922 540.11 496.832 536.32C496.832 536.32 500.882 534.21 504.922 531.3C517.102 522.54 525.212 510.63 525.212 510.63C534.672 497.28 537.762 474.91 538.482 468.49C538.592 467.55 537.852 466.72 536.902 466.72H500.572C500.342 466.72 500.132 466.84 500.022 467.04L499.872 467.29C494.292 478.11 486.872 487.99 480.442 494.24C473.992 500.5 468.582 505.05 464.372 507.75L461.772 509.42C460.712 510.1 459.322 509.34 459.322 508.08V479.89C459.322 478.95 459.742 478.06 460.462 477.45C461.112 476.9 461.982 476.13 463.172 475.06C465.932 472.57 469.042 468.51 472.412 462.98C475.752 457.51 479.342 450.21 483.062 441.29C486.442 433.2 488.972 423.09 490.852 412.06C491.112 410.53 492.442 409.42 493.992 409.42H513.902C515.902 409.42 517.412 411.25 517.032 413.21C516.392 416.52 515.702 420.88 514.842 424.31C513.572 429.39 512.752 432.3 511.232 436.72C510.972 437.47 511.532 438.24 512.322 438.24H591.172C592.932 438.24 594.352 439.67 594.352 441.42V463.51C594.352 465.27 592.922 466.69 591.172 466.69H568.132C567.322 466.69 566.632 467.3 566.552 468.11C565.922 474.01 562.872 497.16 552.382 517.26C538.282 546 508.132 566.39 478.332 572.13C476.372 572.51 474.552 571 474.552 569V546.48L474.542 546.52Z" fill="black"/>
<path d="M675.893 411.029V468.869C675.893 469.749 676.603 470.459 677.483 470.459H764.513C765.393 470.459 766.103 469.749 766.103 468.869V411.029C766.103 410.149 765.393 409.439 764.513 409.439H677.483C676.603 409.439 675.893 410.149 675.893 411.029ZM738.453 452.739H702.293C701.413 452.739 700.703 452.029 700.703 451.149V446.869C700.703 445.989 701.413 445.279 702.293 445.279H738.453C739.333 445.279 740.043 445.989 740.043 446.869V451.149C740.043 452.029 739.333 452.739 738.453 452.739ZM738.453 434.449H702.293C701.413 434.449 700.703 433.739 700.703 432.859V428.749C700.703 427.869 701.413 427.159 702.293 427.159H738.453C739.333 427.159 740.043 427.869 740.043 428.749V432.859C740.043 433.739 739.333 434.449 738.453 434.449Z" fill="black"/>
<path d="M674.222 497.34H728.262C729.142 497.34 729.852 498.05 729.852 498.93V502.84C729.852 503.72 729.142 504.43 728.262 504.43H667.752C665.992 504.43 664.572 505.86 664.572 507.61V522.86C664.572 524.62 666.002 526.04 667.752 526.04H728.262C729.142 526.04 729.852 526.75 729.852 527.63V545.39C729.852 546.11 729.932 547.98 729.212 548.85C728.382 549.87 727.142 549.67 725.842 549.72C722.532 549.72 719.572 549.7 716.942 549.66C716.542 549.66 716.252 549.29 716.332 548.9C716.592 547.63 716.722 546.31 716.692 544.96C716.492 535.68 708.932 528.08 699.652 527.84C689.572 527.58 681.362 535.85 681.702 545.94C682.012 555.29 689.782 562.81 699.142 562.84C704.032 562.85 708.452 560.86 711.632 557.64C711.972 557.3 712.542 557.43 712.692 557.88C714.152 562.21 715.532 566.34 716.782 570.05C717.222 571.35 718.452 572.22 719.822 572.21C725.722 572.17 730.502 571.96 734.172 571.6C738.302 571.18 742.082 570.15 745.512 568.5C749.172 566.84 751.682 564.42 753.042 561.23C754.402 558.04 755.082 553.55 755.082 547.76V527.62C755.082 526.74 755.792 526.03 756.672 526.03H762.902C764.662 526.03 766.082 524.6 766.082 522.85V507.6C766.082 505.84 764.652 504.42 762.902 504.42H756.672C755.792 504.42 755.082 503.71 755.082 502.83V498.92C755.082 498.04 755.792 497.33 756.672 497.33H762.902C764.662 497.33 766.082 495.9 766.082 494.15V479.6C766.082 477.84 764.652 476.42 762.902 476.42H674.202C672.442 476.42 671.022 477.85 671.022 479.6V494.15C671.022 495.91 672.452 497.33 674.202 497.33L674.222 497.34Z" fill="black"/>
<path d="M668.822 409.439H650.252C649.392 409.439 648.572 409.789 647.972 410.399C635.222 423.349 618.282 434.569 612.122 438.479C610.772 439.329 610.272 441.059 610.942 442.499L620.692 463.569C621.622 465.569 624.252 466.049 625.822 464.499C646.112 444.459 664.442 419.799 670.112 411.959C670.872 410.909 670.112 409.439 668.822 409.439Z" fill="black"/>
<path d="M671.912 453.889V435.409C671.912 433.999 670.212 433.289 669.202 434.279C653.632 449.599 620.042 477.059 611.672 483.859C610.542 484.779 610.182 486.349 610.792 487.669L620.692 509.049C621.622 511.049 624.252 511.529 625.822 509.979C627.532 508.289 629.232 506.559 630.912 504.819C631.312 504.409 632.012 504.689 632.012 505.259V569.059C632.012 570.819 633.442 572.239 635.192 572.239H653.812C655.572 572.239 656.992 570.809 656.992 569.059V476.369C656.992 475.299 657.352 474.249 658.022 473.409C664.862 464.729 669.712 458.019 671.332 455.739C671.712 455.199 671.922 454.559 671.922 453.889H671.912Z" fill="black"/>
<path d="M653.263 623.33C640.843 623.33 634.803 628.28 634.803 638.47V655.6C634.803 665.67 640.843 670.56 653.263 670.56C659.133 670.56 663.473 669.48 666.553 667.27C669.993 664.8 671.733 660.87 671.733 655.59V638.46C671.733 628.27 665.693 623.32 653.273 623.32L653.263 623.33ZM646.083 639.3C646.083 633.93 648.833 632.91 653.263 632.91C657.693 632.91 660.443 633.95 660.443 639.3V654.68C660.443 659.95 657.593 660.98 653.263 660.98C648.933 660.98 646.083 659.98 646.083 654.68V639.3Z" fill="black"/>
<path d="M708.262 669.331H721.352L703.622 646.781L720.552 624.8H707.392L694.052 642.281V610.23H682.762V669.331H694.052V659.211L696.942 655.451L708.262 669.331Z" fill="black"/>
<path d="M754.812 624.801V653.291C754.812 659.041 751.872 660.891 746.822 660.891C743.552 660.891 740.272 660.351 740.272 653.881V624.811H728.992V656.771C728.992 665.741 733.702 670.481 742.612 670.481C749.292 670.481 753.872 666.861 755.572 662.801L757.382 669.341H766.102V624.811H754.822L754.812 624.801Z" fill="black"/>
<path d="M630.563 610.23H589.143V620.141V620.151H604.213V669.331H615.683V620.151H630.563V610.23Z" fill="black"/>
<path d="M459.681 669.331H472.771L455.041 646.781L471.971 624.8H458.811L445.471 642.281V610.23H434.191V669.331H445.471V659.211L448.361 655.451L459.681 669.331Z" fill="black"/>
<path d="M355.322 610.23H313.902V620.141V620.151H328.982V669.331H340.442V620.151H355.322V610.23Z" fill="black"/>
<path d="M421.792 658.89L421.192 659.04C417.612 659.96 413.282 660.89 409.402 660.89C404.852 660.89 401.682 658.82 401.682 652.83V640.97C401.682 634.9 404.852 632.82 409.402 632.82C413.352 632.82 417.872 633.7 421.222 634.4L421.802 634.52V625.19L421.492 625.12C417.682 624.23 412.042 623.33 407.522 623.33C402.002 623.33 397.962 624.4 395.162 626.59C391.962 629.09 390.412 633.85 390.412 639.34V654.64C390.412 664.77 396.012 670.56 407.532 670.56C411.402 670.56 417.262 669.49 421.522 668.31L421.812 668.23V658.88L421.792 658.89Z" fill="black"/>
<path d="M553.922 634.699V624.799H543.682V615.189H532.402V624.799H525.172V634.699H532.402V655.419C532.402 667.939 540.292 670.559 546.922 670.559C548.702 670.559 550.502 670.449 552.112 670.219V660.259C551.462 660.329 550.252 660.359 549.532 660.359C546.452 660.359 543.682 659.729 543.682 652.089V634.689H553.922V634.699Z" fill="black"/>
<path d="M489.733 650.741V650.561H515.163V641.481C515.163 635.571 513.543 630.241 510.353 627.341C507.413 624.671 502.773 623.311 497.253 623.311C485.073 623.311 478.453 629.221 478.453 639.591V654.451C478.453 664.701 483.833 670.551 496.313 670.551C500.973 670.551 506.283 669.561 511.963 668.401L512.353 668.321V659.051L511.703 659.201C507.133 660.251 504.613 661.141 500.283 661.141C494.073 661.141 489.733 658.621 489.733 652.201V650.721V650.741ZM489.733 639.721C489.733 634.071 493.793 632.741 497.163 632.741C500.533 632.741 504.063 634.071 504.063 639.721V643.231H489.733V642.711V639.721Z" fill="black"/>
<path d="M378.173 626.881H366.893V669.331H378.173V626.881Z" fill="black"/>
<path d="M372.532 622.22C376.415 622.22 379.562 619.073 379.562 615.19C379.562 611.308 376.415 608.16 372.532 608.16C368.649 608.16 365.502 611.308 365.502 615.19C365.502 619.073 368.649 622.22 372.532 622.22Z" fill="black"/>
<path d="M585.733 643.92H566.143V651.26H585.733V643.92Z" fill="black"/>
<path d="M759.528 1548.83V1573.03C759.528 1581.62 759.77 1585.85 760.496 1590.45H742.467C743.193 1586.34 743.435 1581.26 743.435 1573.27V1509.5C743.435 1502.85 743.193 1499.34 742.467 1493.77C747.428 1494.02 750.453 1494.14 757.834 1494.14H791.714C799.337 1494.14 803.209 1493.89 808.291 1493.29V1509.62C803.935 1509.02 799.458 1508.78 791.714 1508.78H759.528V1534.43H785.422C792.924 1534.43 797.159 1534.19 801.878 1533.58V1549.68C797.401 1549.07 792.803 1548.83 785.422 1548.83H759.528Z" fill="black"/>
<path d="M681.657 1548.83V1573.03C681.657 1581.62 681.899 1585.85 682.625 1590.45H664.596C665.322 1586.34 665.564 1581.26 665.564 1573.27V1509.5C665.564 1502.85 665.322 1499.34 664.596 1493.77C669.557 1494.02 672.582 1494.14 679.963 1494.14H713.843C721.466 1494.14 725.338 1493.89 730.42 1493.29V1509.62C726.064 1509.02 721.587 1508.78 713.843 1508.78H681.657V1534.43H707.551C715.053 1534.43 719.288 1534.19 724.007 1533.58V1549.68C719.53 1549.07 714.932 1548.83 707.551 1548.83H681.657Z" fill="black"/>
<path d="M605.078 1492.2C618.388 1492.2 628.673 1496.07 636.901 1504.3C645.734 1513.13 650.453 1526.32 650.453 1542.05C650.453 1572.66 632.666 1592.51 605.199 1592.51C577.732 1592.51 560.066 1572.79 560.066 1542.05C560.066 1526.44 564.906 1513.01 573.86 1504.3C582.209 1496.07 592.252 1492.2 605.078 1492.2ZM605.441 1578.11C622.744 1578.11 633.513 1564.32 633.513 1542.05C633.513 1529.83 630.125 1520.03 623.954 1513.86C618.993 1509.02 612.58 1506.48 605.32 1506.48C587.896 1506.48 576.885 1520.27 576.885 1542.17C576.885 1554.27 580.394 1564.44 586.686 1570.73C591.647 1575.57 598.06 1578.11 605.441 1578.11Z" fill="black"/>
<path d="M457.025 1588.64L533.134 1491.23L539.426 1496.07L463.196 1593.6L457.025 1588.64ZM526.721 1592.39C519.945 1592.39 514.379 1590.33 510.265 1586.22C505.667 1581.74 503.247 1574.48 503.247 1565.28C503.247 1556.21 505.667 1549.07 510.265 1544.47C514.379 1540.48 520.066 1538.3 526.721 1538.3C533.376 1538.3 539.063 1540.48 543.056 1544.47C547.654 1548.95 550.074 1556.21 550.074 1565.28C550.074 1574.48 547.654 1581.74 543.056 1586.22C538.942 1590.33 533.376 1592.39 526.721 1592.39ZM526.721 1548.59C523.212 1548.59 520.913 1549.68 518.977 1552.46C516.799 1555.48 515.71 1559.6 515.71 1565.04C515.71 1576.17 519.582 1582.22 526.721 1582.22C533.981 1582.22 537.732 1576.17 537.732 1564.44C537.732 1559.6 536.522 1555.24 534.465 1552.34C532.408 1549.68 530.23 1548.59 526.721 1548.59ZM469.73 1546.41C462.954 1546.41 457.388 1544.35 453.274 1540.24C448.676 1535.76 446.256 1528.38 446.256 1519.3C446.256 1502.36 454.968 1492.32 469.73 1492.32C476.385 1492.32 482.072 1494.5 486.065 1498.49C490.663 1502.97 493.083 1510.23 493.083 1519.3C493.083 1528.5 490.663 1535.76 486.065 1540.24C481.951 1544.35 476.385 1546.41 469.73 1546.41ZM469.73 1502.61C462.712 1502.61 458.719 1508.54 458.719 1519.06C458.719 1530.19 462.591 1536.24 469.73 1536.24C476.748 1536.24 480.741 1530.19 480.741 1519.3C480.741 1514.95 479.894 1510.59 478.563 1508.05C476.506 1504.3 473.723 1502.61 469.73 1502.61Z" fill="black"/>
<path d="M398.351 1592.39C388.066 1592.39 379.354 1589 372.941 1582.59C369.311 1578.96 366.528 1574.72 364.955 1570.37C361.809 1561.77 360.236 1552.34 360.236 1542.54C360.236 1529.71 363.14 1516.4 367.617 1509.02C374.151 1498.13 385.041 1492.2 398.472 1492.2C408.757 1492.2 417.59 1495.59 424.003 1502C427.633 1505.63 430.416 1509.87 431.989 1514.22C435.135 1522.69 436.708 1532.37 436.708 1542.29C436.708 1557.18 433.441 1570.24 427.754 1578.11C420.978 1587.55 410.935 1592.39 398.351 1592.39ZM398.472 1578.35C403.796 1578.35 408.515 1576.54 411.54 1573.27C416.985 1567.58 420.01 1556.33 420.01 1542.17C420.01 1528.14 416.985 1517.13 411.54 1511.2C408.636 1507.93 403.796 1506.11 398.351 1506.11C392.543 1506.11 388.308 1508.05 384.799 1512.29C379.475 1518.58 376.813 1528.5 376.813 1541.69C376.813 1554.39 379.112 1564.92 382.984 1570.49C386.735 1575.81 391.817 1578.35 398.472 1578.35Z" fill="black"/>
<path d="M323.463 1590.45H305.192C305.918 1585.73 306.16 1581.01 306.16 1574.72V1508.05H300.352C295.875 1508.05 292.366 1508.29 287.889 1508.78V1493.41C291.64 1494.02 294.302 1494.14 299.989 1494.14H311.121C317.292 1494.14 319.107 1494.02 323.463 1493.53C322.737 1500.67 322.495 1506.24 322.495 1513.5V1574.72C322.495 1581.14 322.737 1585.49 323.463 1590.45Z" fill="black"/>
<path d="M888.938 1320.59L898.662 1322.29C897.37 1327.19 896.146 1329.84 894.106 1332.49C890.23 1337.25 883.702 1339.9 875.542 1339.9C868.13 1339.9 862.214 1337.66 858.066 1333.38C853.306 1328.41 850.654 1320.73 850.654 1312.02C850.654 1303.05 853.51 1295.16 858.61 1290.06C862.69 1285.91 868.81 1283.6 875.61 1283.6C880.914 1283.6 884.926 1284.62 888.666 1286.86C891.726 1288.77 894.174 1291.28 895.874 1294.28C896.69 1295.7 897.166 1296.93 897.982 1299.51L888.53 1301.69C887.578 1298.7 886.966 1297.4 885.606 1295.84C883.294 1293.05 879.894 1291.62 875.678 1291.62C866.022 1291.62 860.174 1299.17 860.174 1311.68C860.174 1324.13 866.158 1331.88 875.678 1331.88C880.438 1331.88 884.518 1330.04 886.694 1326.85C887.85 1325.15 888.394 1323.72 888.938 1320.59Z" fill="black"/>
<path d="M832.5 1284.69H842.836C842.428 1287.27 842.292 1289.38 842.292 1293.46V1330.04C842.292 1334.06 842.428 1336.23 842.836 1338.82H832.5C832.908 1336.23 833.044 1334.06 833.044 1330.04V1293.46C833.044 1289.24 832.908 1287.41 832.5 1284.69Z" fill="black"/>
<path d="M827.225 1330.11V1339.29C824.777 1338.95 822.397 1338.82 817.569 1338.82H797.441C793.633 1338.82 791.253 1338.88 788.805 1339.02C789.213 1336.5 789.349 1333.99 789.349 1330.04V1294.75C789.349 1290.06 789.213 1287.61 788.805 1284.69H799.073C798.665 1287.48 798.529 1289.72 798.529 1294.68V1330.59H817.569C822.193 1330.59 824.369 1330.45 827.225 1330.11Z" fill="black"/>
<path d="M762.971 1338.82H746.243C742.299 1338.82 740.327 1338.88 737.539 1339.02C738.015 1336.16 738.151 1334.19 738.151 1329.84V1292.92C738.151 1289.79 737.947 1287.34 737.607 1284.55C740.463 1284.69 741.551 1284.69 746.175 1284.69H762.223C772.763 1284.69 778.679 1289.45 778.679 1297.95C778.679 1302.1 777.455 1305.16 774.871 1307.54C773.375 1308.96 772.151 1309.58 769.499 1310.39C772.967 1311.14 774.531 1311.82 776.367 1313.52C779.155 1316.1 780.583 1319.5 780.583 1323.92C780.583 1333.44 774.259 1338.82 762.971 1338.82ZM747.127 1306.86H761.271C766.439 1306.86 769.499 1304.07 769.499 1299.44C769.499 1297.27 768.819 1295.43 767.731 1294.41C766.235 1293.05 763.923 1292.3 761.203 1292.3H747.127V1306.86ZM747.127 1314.4V1331.13H761.747C767.799 1331.13 771.199 1328.14 771.199 1322.63C771.199 1319.91 770.519 1318.08 769.023 1316.72C767.323 1315.22 764.739 1314.4 761.611 1314.4H747.127Z" fill="black"/>
<path d="M717.811 1284.69H727.943C727.535 1287.2 727.399 1289.65 727.399 1293.94V1318.08C727.399 1332.15 719.035 1340.04 704.211 1340.04C696.663 1340.04 690.407 1337.73 686.667 1333.65C683.199 1329.91 681.567 1324.81 681.567 1318.01V1294C681.567 1289.79 681.431 1287.14 681.023 1284.69H691.155C690.747 1287 690.611 1289.58 690.611 1294V1318.01C690.611 1327.19 695.371 1332.02 704.551 1332.02C713.663 1332.02 718.355 1327.19 718.355 1317.94V1294C718.355 1289.65 718.219 1287.2 717.811 1284.69Z" fill="black"/>
<path d="M642.88 1338.82H632.816C633.224 1336.1 633.36 1333.72 633.36 1330.04V1293.26C633.36 1289.99 633.224 1287.54 632.816 1284.48C635.74 1284.62 637.848 1284.69 641.452 1284.69H655.664C662.26 1284.69 666.884 1286.25 670.148 1289.52C672.936 1292.24 674.364 1296.32 674.364 1301.21C674.364 1306.38 672.8 1310.6 669.808 1313.72C666.476 1317.06 661.852 1318.62 655.324 1318.62H642.336V1329.98C642.336 1333.65 642.472 1336.23 642.88 1338.82ZM642.336 1310.8H655.324C661.58 1310.8 664.98 1307.47 664.98 1301.48C664.98 1298.76 664.232 1296.52 662.736 1294.96C661.172 1293.26 658.928 1292.51 655.324 1292.51H642.336V1310.8Z" fill="black"/>
<path d="M624.89 1330.25V1339.29C622.442 1338.95 620.266 1338.82 616.118 1338.82H594.902C590.822 1338.82 588.986 1338.88 586.266 1339.02C586.674 1336.3 586.81 1334.06 586.81 1330.04V1293.26C586.81 1289.72 586.674 1287.68 586.266 1284.48C588.986 1284.62 590.754 1284.69 594.902 1284.69H615.438C618.838 1284.69 621.082 1284.55 624.21 1284.21V1293.19C621.626 1292.85 619.45 1292.71 615.438 1292.71H595.854V1306.72H612.378C615.914 1306.72 618.226 1306.58 621.218 1306.24V1315.15C618.43 1314.74 616.594 1314.68 612.378 1314.68H595.786V1330.72H616.186C619.994 1330.72 621.966 1330.59 624.89 1330.25Z" fill="black"/>
<path d="M579.436 1338.82H568.216C568.08 1337.18 566.924 1333.72 564.68 1327.94C561.008 1318.55 558.628 1316.04 553.392 1316.04H543.26V1329.91C543.26 1333.99 543.396 1336.16 543.804 1338.82H533.672C534.08 1335.96 534.216 1334.12 534.216 1329.98V1293.32C534.216 1289.72 534.08 1287.68 533.672 1284.48C536.528 1284.62 538.636 1284.69 542.376 1284.69H558.696C569.032 1284.69 574.948 1289.86 574.948 1298.83C574.948 1303.18 573.792 1306.58 571.48 1308.96C569.576 1310.94 567.808 1311.82 563.932 1312.91C568.216 1314.27 569.508 1316.17 576.24 1332.08C576.784 1333.31 578.484 1336.98 579.436 1338.82ZM543.26 1308.28H556.928C559.444 1308.28 561.824 1307.4 563.388 1305.84C564.816 1304.41 565.564 1302.44 565.564 1299.85C565.564 1294.96 562.776 1292.44 557.2 1292.44H543.26V1308.28Z" fill="black"/>
<path d="M505.477 1338.82H494.325C493.917 1336.57 493.169 1333.65 492.421 1331.68L489.701 1324.26H467.941L465.221 1331.68C463.997 1334.94 463.725 1335.96 463.181 1338.82H452.029C453.049 1336.98 454.409 1333.92 455.633 1330.79L470.593 1291.56C471.885 1288.16 472.429 1286.46 472.769 1284.69H484.601C484.941 1286.32 485.349 1287.41 486.913 1291.56L502.009 1330.79C503.709 1335.14 504.525 1337.05 505.477 1338.82ZM487.253 1316.44L479.977 1296.32C479.705 1295.57 479.501 1294.75 478.753 1292.51C477.665 1295.7 477.665 1295.7 477.461 1296.32L470.389 1316.44H487.253Z" fill="black"/>
<path d="M446.434 1338.82H435.69C434.534 1336.5 433.31 1334.53 431.338 1331.54L413.794 1305.09C412.502 1303.05 410.802 1300.12 409.17 1296.93C409.238 1297.88 409.238 1297.88 409.442 1300.4C409.51 1301.69 409.646 1304.75 409.646 1306.31V1328.62C409.646 1333.17 409.85 1336.37 410.19 1338.82H400.262C400.602 1336.57 400.806 1333.17 400.806 1328.55V1293.46C400.806 1289.92 400.67 1287.48 400.262 1284.69H410.87C411.482 1286.39 412.706 1288.43 415.018 1291.9L432.222 1317.8C433.854 1320.25 436.03 1323.79 437.526 1326.51C437.254 1323.86 437.05 1319.78 437.05 1316.92V1294.07C437.05 1290.06 436.914 1287.27 436.506 1284.69H446.434C446.026 1287.41 445.89 1289.92 445.89 1294.07V1330.04C445.89 1333.85 446.026 1336.44 446.434 1338.82Z" fill="black"/>
<path d="M394.712 1338.82H383.56C383.152 1336.57 382.404 1333.65 381.656 1331.68L378.936 1324.26H357.176L354.456 1331.68C353.232 1334.94 352.96 1335.96 352.416 1338.82H341.264C342.284 1336.98 343.644 1333.92 344.868 1330.79L359.828 1291.56C361.12 1288.16 361.664 1286.46 362.004 1284.69H373.836C374.176 1286.32 374.584 1287.41 376.148 1291.56L391.244 1330.79C392.944 1335.14 393.76 1337.05 394.712 1338.82ZM376.488 1316.44L369.212 1296.32C368.94 1295.57 368.736 1294.75 367.988 1292.51C366.9 1295.7 366.9 1295.7 366.696 1296.32L359.624 1316.44H376.488Z" fill="black"/>
<path d="M335.668 1338.82H324.924C323.768 1336.5 322.544 1334.53 320.572 1331.54L303.028 1305.09C301.736 1303.05 300.036 1300.12 298.404 1296.93C298.472 1297.88 298.472 1297.88 298.676 1300.4C298.744 1301.69 298.88 1304.75 298.88 1306.31V1328.62C298.88 1333.17 299.084 1336.37 299.424 1338.82H289.496C289.836 1336.57 290.04 1333.17 290.04 1328.55V1293.46C290.04 1289.92 289.904 1287.48 289.496 1284.69H300.104C300.716 1286.39 301.94 1288.43 304.252 1291.9L321.456 1317.8C323.088 1320.25 325.264 1323.79 326.76 1326.51C326.488 1323.86 326.284 1319.78 326.284 1316.92V1294.07C326.284 1290.06 326.148 1287.27 325.74 1284.69H335.668C335.26 1287.41 335.124 1289.92 335.124 1294.07V1330.04C335.124 1333.85 335.26 1336.44 335.668 1338.82Z" fill="black"/>
<path d="M283.946 1338.82H272.794C272.386 1336.57 271.638 1333.65 270.89 1331.68L268.17 1324.26H246.41L243.69 1331.68C242.466 1334.94 242.194 1335.96 241.65 1338.82H230.498C231.518 1336.98 232.878 1333.92 234.102 1330.79L249.062 1291.56C250.354 1288.16 250.898 1286.46 251.238 1284.69H263.07C263.41 1286.32 263.818 1287.41 265.382 1291.56L280.478 1330.79C282.178 1335.14 282.994 1337.05 283.946 1338.82ZM265.722 1316.44L258.446 1296.32C258.174 1295.57 257.97 1294.75 257.222 1292.51C256.134 1295.7 256.134 1295.7 255.93 1296.32L248.858 1316.44H265.722Z" fill="black"/>
<path d="M208.745 1338.82H192.017C188.073 1338.82 186.101 1338.88 183.312 1339.02C183.788 1336.16 183.925 1334.19 183.925 1329.84V1292.92C183.925 1289.79 183.721 1287.34 183.381 1284.55C186.237 1284.69 187.325 1284.69 191.949 1284.69H207.997C218.537 1284.69 224.453 1289.45 224.453 1297.95C224.453 1302.1 223.229 1305.16 220.645 1307.54C219.149 1308.96 217.925 1309.58 215.273 1310.39C218.741 1311.14 220.305 1311.82 222.141 1313.52C224.929 1316.1 226.357 1319.5 226.357 1323.92C226.357 1333.44 220.033 1338.82 208.745 1338.82ZM192.901 1306.86H207.045C212.213 1306.86 215.273 1304.07 215.273 1299.44C215.273 1297.27 214.593 1295.43 213.505 1294.41C212.009 1293.05 209.697 1292.3 206.977 1292.3H192.901V1306.86ZM192.901 1314.4V1331.13H207.521C213.573 1331.13 216.973 1328.14 216.973 1322.63C216.973 1319.91 216.293 1318.08 214.797 1316.72C213.097 1315.22 210.513 1314.4 207.385 1314.4H192.901Z" fill="black"/>
</svg>
