<svg width="1080" height="1920" viewBox="0 0 1080 1920" fill="none" xmlns="http://www.w3.org/2000/svg">
<path d="M1080 1920L1080 0L0 0L0 1920H1080Z" fill="#A5D4AD"/>
<path d="M1020 983.72V95C1020 75.67 1004.33 60 985 60H95.58C75.93 60 60 75.93 60 95.58V983.71C60 984.03 60.25 984.28 60.57 984.28C80.03 984.59 95.71 1000.46 95.71 1019.99C95.71 1039.52 80.03 1055.39 60.57 1055.7C60.25 1055.7 60 1055.96 60 1056.27V1824.99C60 1844.32 75.67 1859.99 95 1859.99H985C1004.33 1859.99 1020 1844.32 1020 1824.99V1056.27C1020 1055.95 1019.75 1055.7 1019.43 1055.7C999.97 1055.39 984.29 1039.52 984.29 1019.99C984.29 1000.46 999.97 984.59 1019.43 984.28C1019.75 984.28 1020 984.02 1020 983.71V983.72Z" fill="white"/>
<path d="M60.57 1055.71C60.25 1055.71 60 1055.97 60 1056.28V1825C60 1844.33 75.67 1860 95 1860H985C1004.33 1860 1020 1844.33 1020 1825V1056.28C1020 1055.96 1019.75 1055.71 1019.43 1055.71C999.97 1055.4 984.29 1039.53 984.29 1020H95.71C95.71 1039.53 80.03 1055.4 60.57 1055.71Z" fill="#E5F2E6"/>
<path d="M121 1020H160.9" stroke="black" stroke-width="6" stroke-miterlimit="10"/>
<path d="M187.51 1020H227.41" stroke="black" stroke-width="6" stroke-miterlimit="10"/>
<path d="M254.02 1020H293.92" stroke="black" stroke-width="6" stroke-miterlimit="10"/>
<path d="M320.52 1020H360.43" stroke="black" stroke-width="6" stroke-miterlimit="10"/>
<path d="M387.029 1020H426.939" stroke="black" stroke-width="6" stroke-miterlimit="10"/>
<path d="M453.539 1020H493.439" stroke="black" stroke-width="6" stroke-miterlimit="10"/>
<path d="M520.051 1020H559.951" stroke="black" stroke-width="6" stroke-miterlimit="10"/>
<path d="M586.561 1020H626.461" stroke="black" stroke-width="6" stroke-miterlimit="10"/>
<path d="M653.061 1020H692.971" stroke="black" stroke-width="6" stroke-miterlimit="10"/>
<path d="M719.57 1020H759.48" stroke="black" stroke-width="6" stroke-miterlimit="10"/>
<path d="M786.08 1020H825.98" stroke="black" stroke-width="6" stroke-miterlimit="10"/>
<path d="M852.59 1020H892.49" stroke="black" stroke-width="6" stroke-miterlimit="10"/>
<path d="M919.1 1020H959" stroke="black" stroke-width="6" stroke-miterlimit="10"/>
<path d="M1020 984.29V95C1020 75.67 1004.33 60 985 60H95C75.67 60 60 75.67 60 95V984.29C79.72 984.29 95.71 1000.28 95.71 1020C95.71 1039.72 79.72 1055.71 60 1055.71V1825C60 1844.33 75.67 1860 95 1860H985C1004.33 1860 1020 1844.33 1020 1825V1055.71C1000.28 1055.71 984.29 1039.72 984.29 1020C984.29 1000.28 1000.28 984.29 1020 984.29Z" stroke="black" stroke-width="6" stroke-miterlimit="10"/>
<path d="M912.642 525.66C908.772 525.66 905.532 522.64 905.312 518.73C900.582 435.62 868.782 358.85 813.362 296.74C810.662 293.71 810.922 289.06 813.952 286.36C816.982 283.66 821.622 283.92 824.332 286.95C881.992 351.57 915.062 431.43 919.992 517.89C920.222 521.94 917.122 525.42 913.072 525.65C912.932 525.65 912.792 525.66 912.652 525.66H912.642Z" fill="black"/>
<path d="M818.842 795.509C817.102 795.509 815.352 794.889 813.952 793.639C810.922 790.939 810.662 786.289 813.362 783.259C868.782 721.149 900.582 644.379 905.312 561.269C905.542 557.219 909.022 554.109 913.072 554.349C917.122 554.579 920.222 558.049 919.992 562.109C915.062 648.579 881.992 728.439 824.332 793.049C822.882 794.679 820.862 795.509 818.842 795.509Z" fill="black"/>
<path d="M167.352 525.66C167.212 525.66 167.072 525.66 166.932 525.65C162.882 525.42 159.782 521.95 160.012 517.89C164.942 431.42 198.012 351.56 255.672 286.95C258.372 283.92 263.022 283.66 266.052 286.36C269.082 289.06 269.342 293.71 266.642 296.74C211.222 358.85 179.422 435.61 174.692 518.73C174.472 522.64 171.232 525.66 167.362 525.66H167.352Z" fill="black"/>
<path d="M261.162 795.509C259.142 795.509 257.122 794.679 255.672 793.049C198.012 728.429 164.942 648.569 160.012 562.109C159.782 558.059 162.882 554.579 166.932 554.349C170.982 554.109 174.462 557.219 174.692 561.269C179.422 644.389 211.222 721.149 266.642 783.259C269.342 786.289 269.082 790.939 266.052 793.639C264.652 794.889 262.902 795.509 261.162 795.509Z" fill="black"/>
<path d="M788.162 268.509C786.422 268.509 784.672 267.889 783.272 266.639C721.162 211.219 644.392 179.419 561.282 174.689C557.232 174.459 554.132 170.989 554.362 166.929C554.592 162.879 558.032 159.789 562.122 160.009C648.592 164.939 728.452 198.009 793.062 255.669C796.092 258.369 796.352 263.019 793.652 266.049C792.202 267.679 790.182 268.509 788.162 268.509Z" fill="black"/>
<path d="M291.842 268.51C289.822 268.51 287.802 267.68 286.352 266.05C283.652 263.02 283.912 258.37 286.942 255.67C351.562 198.01 431.422 164.94 517.882 160.01C521.932 159.78 525.412 162.88 525.642 166.93C525.872 170.98 522.772 174.46 518.722 174.69C435.612 179.42 358.842 211.22 296.732 266.64C295.332 267.89 293.582 268.51 291.842 268.51Z" fill="black"/>
<path d="M561.682 920C557.812 920 554.572 916.98 554.352 913.07C554.122 909.02 557.222 905.54 561.272 905.31C644.392 900.58 721.152 868.78 783.262 813.36C786.292 810.66 790.942 810.92 793.642 813.95C796.342 816.98 796.082 821.63 793.052 824.33C728.432 881.99 648.572 915.06 562.112 919.99C561.972 919.99 561.832 920 561.692 920H561.682Z" fill="black"/>
<path d="M518.312 920C518.172 920 518.032 920 517.892 919.99C431.422 915.06 351.562 881.99 286.952 824.33C283.922 821.63 283.662 816.98 286.362 813.95C289.062 810.92 293.712 810.66 296.742 813.36C358.852 868.78 435.622 900.58 518.732 905.31C522.782 905.54 525.882 909.01 525.652 913.07C525.432 916.98 522.192 920 518.322 920H518.312Z" fill="black"/>
<path d="M875.372 526.191C872.362 526.191 869.842 523.841 869.672 520.801C865.402 445.791 836.702 376.521 786.692 320.461C784.592 318.101 784.792 314.491 787.152 312.391C789.502 310.291 793.122 310.491 795.222 312.851C846.972 370.851 876.672 442.541 881.092 520.151C881.272 523.301 878.862 526.001 875.712 526.181C875.602 526.181 875.492 526.181 875.382 526.181L875.372 526.191Z" fill="black"/>
<path d="M790.952 769.062C789.592 769.062 788.242 768.582 787.152 767.612C784.792 765.512 784.592 761.892 786.692 759.542C836.702 703.492 865.402 634.212 869.672 559.202C869.852 556.052 872.542 553.642 875.702 553.822C878.852 554.002 881.262 556.702 881.082 559.852C876.662 637.472 846.972 709.152 795.212 767.152C794.082 768.422 792.512 769.062 790.942 769.062H790.952Z" fill="black"/>
<path d="M204.622 526.191C204.512 526.191 204.402 526.191 204.292 526.191C201.142 526.011 198.732 523.311 198.912 520.161C203.332 442.541 233.022 370.861 284.782 312.861C286.882 310.501 290.502 310.301 292.852 312.401C295.212 314.501 295.412 318.121 293.312 320.471C243.302 376.521 214.602 445.801 210.332 520.811C210.162 523.851 207.642 526.201 204.632 526.201L204.622 526.191Z" fill="black"/>
<path d="M289.042 769.061C287.472 769.061 285.902 768.411 284.772 767.151C233.022 709.151 203.322 637.461 198.902 559.851C198.722 556.701 201.132 554.001 204.282 553.821C207.442 553.631 210.132 556.051 210.312 559.201C214.582 634.211 243.282 703.491 293.292 759.541C295.392 761.901 295.192 765.511 292.832 767.611C291.742 768.581 290.382 769.061 289.032 769.061H289.042Z" fill="black"/>
<path d="M763.342 294.762C761.982 294.762 760.632 294.282 759.542 293.312C703.492 243.302 634.212 214.602 559.202 210.332C556.052 210.152 553.642 207.452 553.822 204.302C554.002 201.152 556.692 198.742 559.852 198.922C637.472 203.342 709.152 233.032 767.152 284.792C769.512 286.892 769.712 290.512 767.612 292.862C766.482 294.132 764.912 294.772 763.342 294.772V294.762Z" fill="black"/>
<path d="M316.651 294.761C315.081 294.761 313.511 294.111 312.381 292.851C310.281 290.491 310.481 286.881 312.841 284.781C370.841 233.031 442.531 203.331 520.141 198.911C523.291 198.721 525.991 201.141 526.171 204.291C526.351 207.441 523.941 210.141 520.791 210.321C445.781 214.591 376.511 243.291 320.451 293.301C319.361 294.271 318.001 294.751 316.651 294.751V294.761Z" fill="black"/>
<path d="M559.522 881.102C556.512 881.102 553.992 878.752 553.822 875.712C553.642 872.562 556.052 869.862 559.202 869.682C634.212 865.412 703.482 836.712 759.542 786.702C761.892 784.602 765.512 784.802 767.612 787.162C769.712 789.522 769.512 793.132 767.152 795.232C709.152 846.982 637.462 876.682 559.852 881.102C559.742 881.102 559.632 881.102 559.522 881.102Z" fill="black"/>
<path d="M520.481 881.102C520.371 881.102 520.261 881.102 520.151 881.102C442.531 876.682 370.851 846.992 312.851 795.232C310.491 793.132 310.291 789.512 312.391 787.162C314.491 784.802 318.111 784.602 320.461 786.702C376.511 836.722 445.791 865.412 520.801 869.682C523.951 869.862 526.361 872.562 526.181 875.712C526.011 878.752 523.491 881.102 520.481 881.102Z" fill="black"/>
<path d="M841.841 526.51C839.691 526.51 837.891 524.83 837.771 522.66C833.911 454.91 807.991 392.34 762.821 341.71C761.321 340.03 761.471 337.45 763.151 335.94C764.831 334.44 767.411 334.58 768.921 336.27C815.341 388.29 841.971 452.58 845.931 522.19C846.061 524.44 844.341 526.37 842.081 526.5C842.001 526.5 841.921 526.5 841.841 526.5V526.51Z" fill="black"/>
<path d="M765.862 745.101C764.892 745.101 763.922 744.761 763.142 744.061C761.462 742.561 761.312 739.981 762.812 738.291C807.982 687.661 833.902 625.091 837.762 557.341C837.892 555.091 839.852 553.391 842.072 553.491C844.322 553.621 846.042 555.551 845.922 557.801C841.952 627.411 815.322 691.701 768.912 743.721C768.102 744.621 766.982 745.081 765.862 745.081V745.101Z" fill="black"/>
<path d="M238.162 526.51C238.082 526.51 238.002 526.51 237.922 526.51C235.672 526.38 233.952 524.45 234.072 522.2C238.042 452.59 264.672 388.3 311.082 336.28C312.582 334.6 315.162 334.45 316.852 335.95C318.532 337.45 318.682 340.03 317.182 341.72C272.012 392.35 246.092 454.92 242.232 522.67C242.112 524.84 240.312 526.52 238.162 526.52V526.51Z" fill="black"/>
<path d="M314.131 745.101C313.011 745.101 311.891 744.641 311.081 743.741C264.661 691.721 238.031 627.431 234.071 557.821C233.941 555.571 235.661 553.641 237.921 553.511C240.161 553.401 242.101 555.101 242.231 557.361C246.091 625.111 272.011 687.681 317.181 738.311C318.681 739.991 318.531 742.571 316.851 744.081C316.071 744.771 315.101 745.121 314.131 745.121V745.101Z" fill="black"/>
<path d="M741.01 318.219C740.04 318.219 739.07 317.879 738.29 317.179C687.66 272.009 625.09 246.089 557.34 242.229C555.09 242.099 553.37 240.169 553.49 237.919C553.62 235.669 555.54 233.959 557.8 234.069C627.41 238.039 691.7 264.669 743.73 311.079C745.41 312.579 745.56 315.159 744.06 316.849C743.25 317.749 742.13 318.209 741.01 318.209V318.219Z" fill="black"/>
<path d="M338.991 318.22C337.871 318.22 336.751 317.76 335.941 316.86C334.441 315.18 334.591 312.6 336.271 311.09C388.291 264.67 452.581 238.04 522.191 234.08C524.441 233.96 526.371 235.67 526.501 237.93C526.631 240.18 524.91 242.11 522.65 242.24C454.9 246.1 392.331 272.02 341.701 317.19C340.921 317.88 339.951 318.23 338.981 318.23L338.991 318.22Z" fill="black"/>
<path d="M557.561 845.929C555.411 845.929 553.611 844.249 553.491 842.079C553.361 839.829 555.081 837.899 557.341 837.769C625.091 833.909 687.661 807.989 738.291 762.819C739.971 761.319 742.551 761.469 744.061 763.149C745.561 764.829 745.411 767.409 743.731 768.919C691.711 815.339 627.421 841.969 557.801 845.929C557.721 845.929 557.641 845.929 557.561 845.929Z" fill="black"/>
<path d="M522.431 845.929C522.351 845.929 522.271 845.929 522.191 845.929C452.581 841.959 388.291 815.329 336.271 768.919C334.591 767.419 334.441 764.839 335.941 763.149C337.441 761.469 340.021 761.319 341.711 762.819C392.341 807.989 454.911 833.909 522.661 837.769C524.911 837.899 526.631 839.829 526.511 842.079C526.391 844.249 524.591 845.929 522.441 845.929H522.431Z" fill="black"/>
<path d="M320.642 546.17C320.642 544.6 321.782 543.27 323.332 543.02C324.632 542.81 326.262 542.52 327.972 542.12C332.392 541.08 337.582 539.11 343.402 536.27C349.282 533.4 354.912 529.41 359.162 523.67C366.332 513.97 367.852 501.4 368.182 496.89C368.252 495.97 367.522 495.19 366.592 495.19H317.082C315.322 495.19 313.902 493.76 313.902 492.01V470.69C313.902 468.93 315.332 467.51 317.082 467.51H367.062C367.942 467.51 368.652 466.8 368.652 465.92V447.18C368.652 446.3 367.942 445.59 367.062 445.59H328.612C326.852 445.59 325.432 444.16 325.432 442.41V421.09C325.432 419.33 326.862 417.91 328.612 417.91H428.952C430.712 417.91 432.132 419.34 432.132 421.09V442.41C432.132 444.17 430.702 445.59 428.952 445.59H398.512C397.632 445.59 396.922 446.3 396.922 447.18V465.92C396.922 466.8 397.632 467.51 398.512 467.51H438.572C440.332 467.51 441.752 468.94 441.752 470.69V492.01C441.752 493.77 440.322 495.19 438.572 495.19H398.382C397.532 495.19 396.832 495.86 396.792 496.71C396.562 501.75 395.142 518.44 386.172 532.85C380.722 541.61 373.642 548.26 366.532 553.54C359.402 558.84 352.252 562.93 345.262 565.7C338.232 568.49 332.332 570.44 327.742 571.51C326.652 571.76 325.482 571.99 324.392 572.18C322.442 572.53 320.652 571.03 320.652 569.04V546.16L320.642 546.17Z" fill="black"/>
<path d="M474.542 546.52C474.542 545.06 475.542 543.79 476.952 543.43C485.202 541.36 488.922 540.11 496.832 536.32C496.832 536.32 500.882 534.21 504.922 531.3C517.102 522.54 525.212 510.63 525.212 510.63C534.672 497.28 537.762 474.91 538.482 468.49C538.592 467.55 537.852 466.72 536.902 466.72H500.572C500.342 466.72 500.132 466.84 500.022 467.04L499.872 467.29C494.292 478.11 486.872 487.99 480.442 494.24C473.992 500.5 468.582 505.05 464.372 507.75L461.772 509.42C460.712 510.1 459.322 509.34 459.322 508.08V479.89C459.322 478.95 459.742 478.06 460.462 477.45C461.112 476.9 461.982 476.13 463.172 475.06C465.932 472.57 469.042 468.51 472.412 462.98C475.752 457.51 479.342 450.21 483.062 441.29C486.442 433.2 488.972 423.09 490.852 412.06C491.112 410.53 492.442 409.42 493.992 409.42H513.902C515.902 409.42 517.412 411.25 517.032 413.21C516.392 416.52 515.702 420.88 514.842 424.31C513.572 429.39 512.752 432.3 511.232 436.72C510.972 437.47 511.532 438.24 512.322 438.24H591.172C592.932 438.24 594.352 439.67 594.352 441.42V463.51C594.352 465.27 592.922 466.69 591.172 466.69H568.132C567.322 466.69 566.632 467.3 566.552 468.11C565.922 474.01 562.872 497.16 552.382 517.26C538.282 546 508.132 566.39 478.332 572.13C476.372 572.51 474.552 571 474.552 569V546.48L474.542 546.52Z" fill="black"/>
<path d="M675.893 411.029V468.869C675.893 469.749 676.603 470.459 677.483 470.459H764.513C765.393 470.459 766.103 469.749 766.103 468.869V411.029C766.103 410.149 765.393 409.439 764.513 409.439H677.483C676.603 409.439 675.893 410.149 675.893 411.029ZM738.453 452.739H702.293C701.413 452.739 700.703 452.029 700.703 451.149V446.869C700.703 445.989 701.413 445.279 702.293 445.279H738.453C739.333 445.279 740.043 445.989 740.043 446.869V451.149C740.043 452.029 739.333 452.739 738.453 452.739ZM738.453 434.449H702.293C701.413 434.449 700.703 433.739 700.703 432.859V428.749C700.703 427.869 701.413 427.159 702.293 427.159H738.453C739.333 427.159 740.043 427.869 740.043 428.749V432.859C740.043 433.739 739.333 434.449 738.453 434.449Z" fill="black"/>
<path d="M674.222 497.34H728.262C729.142 497.34 729.852 498.05 729.852 498.93V502.84C729.852 503.72 729.142 504.43 728.262 504.43H667.752C665.992 504.43 664.572 505.86 664.572 507.61V522.86C664.572 524.62 666.002 526.04 667.752 526.04H728.262C729.142 526.04 729.852 526.75 729.852 527.63V545.39C729.852 546.11 729.932 547.98 729.212 548.85C728.382 549.87 727.142 549.67 725.842 549.72C722.532 549.72 719.572 549.7 716.942 549.66C716.542 549.66 716.252 549.29 716.332 548.9C716.592 547.63 716.722 546.31 716.692 544.96C716.492 535.68 708.932 528.08 699.652 527.84C689.572 527.58 681.362 535.85 681.702 545.94C682.012 555.29 689.782 562.81 699.142 562.84C704.032 562.85 708.452 560.86 711.632 557.64C711.972 557.3 712.542 557.43 712.692 557.88C714.152 562.21 715.532 566.34 716.782 570.05C717.222 571.35 718.452 572.22 719.822 572.21C725.722 572.17 730.502 571.96 734.172 571.6C738.302 571.18 742.082 570.15 745.512 568.5C749.172 566.84 751.682 564.42 753.042 561.23C754.402 558.04 755.082 553.55 755.082 547.76V527.62C755.082 526.74 755.792 526.03 756.672 526.03H762.902C764.662 526.03 766.082 524.6 766.082 522.85V507.6C766.082 505.84 764.652 504.42 762.902 504.42H756.672C755.792 504.42 755.082 503.71 755.082 502.83V498.92C755.082 498.04 755.792 497.33 756.672 497.33H762.902C764.662 497.33 766.082 495.9 766.082 494.15V479.6C766.082 477.84 764.652 476.42 762.902 476.42H674.202C672.442 476.42 671.022 477.85 671.022 479.6V494.15C671.022 495.91 672.452 497.33 674.202 497.33L674.222 497.34Z" fill="black"/>
<path d="M668.822 409.439H650.252C649.392 409.439 648.572 409.789 647.972 410.399C635.222 423.349 618.282 434.569 612.122 438.479C610.772 439.329 610.272 441.059 610.942 442.499L620.692 463.569C621.622 465.569 624.252 466.049 625.822 464.499C646.112 444.459 664.442 419.799 670.112 411.959C670.872 410.909 670.112 409.439 668.822 409.439Z" fill="black"/>
<path d="M671.912 453.889V435.409C671.912 433.999 670.212 433.289 669.202 434.279C653.632 449.599 620.042 477.059 611.672 483.859C610.542 484.779 610.182 486.349 610.792 487.669L620.692 509.049C621.622 511.049 624.252 511.529 625.822 509.979C627.532 508.289 629.232 506.559 630.912 504.819C631.312 504.409 632.012 504.689 632.012 505.259V569.059C632.012 570.819 633.442 572.239 635.192 572.239H653.812C655.572 572.239 656.992 570.809 656.992 569.059V476.369C656.992 475.299 657.352 474.249 658.022 473.409C664.862 464.729 669.712 458.019 671.332 455.739C671.712 455.199 671.922 454.559 671.922 453.889H671.912Z" fill="black"/>
<path d="M653.263 623.33C640.843 623.33 634.803 628.28 634.803 638.47V655.6C634.803 665.67 640.843 670.56 653.263 670.56C659.133 670.56 663.473 669.48 666.553 667.27C669.993 664.8 671.733 660.87 671.733 655.59V638.46C671.733 628.27 665.693 623.32 653.273 623.32L653.263 623.33ZM646.083 639.3C646.083 633.93 648.833 632.91 653.263 632.91C657.693 632.91 660.443 633.95 660.443 639.3V654.68C660.443 659.95 657.593 660.98 653.263 660.98C648.933 660.98 646.083 659.98 646.083 654.68V639.3Z" fill="black"/>
<path d="M708.262 669.331H721.352L703.622 646.781L720.552 624.8H707.392L694.052 642.281V610.23H682.762V669.331H694.052V659.211L696.942 655.451L708.262 669.331Z" fill="black"/>
<path d="M754.812 624.801V653.291C754.812 659.041 751.872 660.891 746.822 660.891C743.552 660.891 740.272 660.351 740.272 653.881V624.811H728.992V656.771C728.992 665.741 733.702 670.481 742.612 670.481C749.292 670.481 753.872 666.861 755.572 662.801L757.382 669.341H766.102V624.811H754.822L754.812 624.801Z" fill="black"/>
<path d="M630.563 610.23H589.143V620.141V620.151H604.213V669.331H615.683V620.151H630.563V610.23Z" fill="black"/>
<path d="M459.681 669.331H472.771L455.041 646.781L471.971 624.8H458.811L445.471 642.281V610.23H434.191V669.331H445.471V659.211L448.361 655.451L459.681 669.331Z" fill="black"/>
<path d="M355.322 610.23H313.902V620.141V620.151H328.982V669.331H340.442V620.151H355.322V610.23Z" fill="black"/>
<path d="M421.792 658.89L421.192 659.04C417.612 659.96 413.282 660.89 409.402 660.89C404.852 660.89 401.682 658.82 401.682 652.83V640.97C401.682 634.9 404.852 632.82 409.402 632.82C413.352 632.82 417.872 633.7 421.222 634.4L421.802 634.52V625.19L421.492 625.12C417.682 624.23 412.042 623.33 407.522 623.33C402.002 623.33 397.962 624.4 395.162 626.59C391.962 629.09 390.412 633.85 390.412 639.34V654.64C390.412 664.77 396.012 670.56 407.532 670.56C411.402 670.56 417.262 669.49 421.522 668.31L421.812 668.23V658.88L421.792 658.89Z" fill="black"/>
<path d="M553.922 634.699V624.799H543.682V615.189H532.402V624.799H525.172V634.699H532.402V655.419C532.402 667.939 540.292 670.559 546.922 670.559C548.702 670.559 550.502 670.449 552.112 670.219V660.259C551.462 660.329 550.252 660.359 549.532 660.359C546.452 660.359 543.682 659.729 543.682 652.089V634.689H553.922V634.699Z" fill="black"/>
<path d="M489.733 650.741V650.561H515.163V641.481C515.163 635.571 513.543 630.241 510.353 627.341C507.413 624.671 502.773 623.311 497.253 623.311C485.073 623.311 478.453 629.221 478.453 639.591V654.451C478.453 664.701 483.833 670.551 496.313 670.551C500.973 670.551 506.283 669.561 511.963 668.401L512.353 668.321V659.051L511.703 659.201C507.133 660.251 504.613 661.141 500.283 661.141C494.073 661.141 489.733 658.621 489.733 652.201V650.721V650.741ZM489.733 639.721C489.733 634.071 493.793 632.741 497.163 632.741C500.533 632.741 504.063 634.071 504.063 639.721V643.231H489.733V642.711V639.721Z" fill="black"/>
<path d="M378.173 626.881H366.893V669.331H378.173V626.881Z" fill="black"/>
<path d="M372.532 622.22C376.415 622.22 379.562 619.073 379.562 615.19C379.562 611.308 376.415 608.16 372.532 608.16C368.649 608.16 365.502 611.308 365.502 615.19C365.502 619.073 368.649 622.22 372.532 622.22Z" fill="black"/>
<path d="M585.733 643.92H566.143V651.26H585.733V643.92Z" fill="black"/>
<path d="M725.434 1703.04L716.026 1713.23C707.892 1703.24 696.622 1692.26 685.94 1684.13C674.866 1696.48 663.596 1705.1 648.602 1712.45C645.858 1707.35 644.682 1705.79 640.664 1701.57C648.21 1698.63 652.914 1695.99 660.264 1690.79C675.062 1680.4 686.822 1666.19 693.192 1650.91L694.27 1648.36C692.702 1648.46 692.702 1648.46 661.832 1648.95C657.128 1649.04 654.482 1649.24 651.15 1649.73L650.758 1637.19C653.502 1637.68 655.364 1637.77 659.382 1637.77C659.774 1637.77 660.558 1637.77 661.734 1637.77L696.23 1637.28C701.718 1637.19 702.502 1637.09 704.952 1636.21L711.42 1642.87C710.146 1644.34 709.362 1645.71 708.284 1648.16C703.776 1658.65 698.974 1667.17 692.996 1675.21C699.17 1679.33 704.462 1683.44 711.126 1689.42C713.576 1691.58 713.576 1691.58 725.434 1703.04Z" fill="black"/>
<path d="M565.302 1643.26V1663.06C580.1 1660.31 601.758 1651.59 608.128 1645.61L615.968 1656.69C615.282 1656.98 612.342 1658.35 607.148 1660.9C593.82 1667.27 580.1 1671.68 565.302 1674.43V1687.36C565.204 1687.85 565.204 1688.34 565.204 1688.64C565.204 1694.32 565.596 1696.57 566.968 1697.95C568.634 1699.71 574.22 1700.49 583.726 1700.49C590.292 1700.49 599.308 1699.91 606.462 1698.93C611.166 1698.34 613.322 1697.85 617.634 1696.57L618.222 1709.61C616.164 1709.61 615.674 1709.71 605.286 1710.69C599.504 1711.27 587.156 1711.86 581.178 1711.86C568.83 1711.86 562.068 1710.59 558.246 1707.65C555.502 1705.59 554.032 1702.45 553.444 1697.65C553.248 1695.99 553.15 1694.32 553.15 1688.64L553.052 1643.16C553.052 1638.17 553.052 1636.6 552.66 1634.15H565.792C565.4 1636.5 565.302 1638.26 565.302 1643.26ZM604.894 1632.68L611.852 1629.54C615.772 1633.95 618.418 1637.97 621.652 1644.44L614.596 1647.67C611.558 1641.4 609.01 1637.48 604.894 1632.68ZM633.51 1638.46L626.552 1641.99C623.906 1636.6 620.868 1631.89 617.144 1627.39L623.906 1624.25C628.218 1629.15 630.864 1632.97 633.51 1638.46Z" fill="black"/>
<path d="M444.957 1679.23V1665.61C449.269 1666.19 451.131 1666.29 460.833 1666.29H513.067C522.769 1666.29 524.631 1666.19 528.943 1665.61V1679.23C525.023 1678.74 523.945 1678.74 512.969 1678.74H460.931C449.955 1678.74 448.877 1678.74 444.957 1679.23Z" fill="black"/>
<path d="M376.162 1649.63H401.642L401.74 1645.22V1642.09C401.74 1635.62 401.642 1633.46 401.25 1631.21H413.892C413.598 1633.46 413.5 1633.95 413.5 1637.77C413.5 1643.75 413.5 1643.75 413.402 1649.63H419.674C426.632 1649.63 428.592 1649.53 432.414 1648.95V1660.9C428.984 1660.51 426.338 1660.41 419.87 1660.41H413.304C413.108 1672.17 413.108 1672.86 412.618 1676.58C411.246 1689.13 407.032 1697.46 398.506 1704.71C393.214 1709.22 388.412 1711.76 379.396 1715C377.534 1710.78 376.26 1708.92 372.046 1704.61C381.356 1701.77 386.06 1699.42 390.764 1695.3C397.428 1689.52 400.27 1683.05 401.152 1671.78C401.348 1669.53 401.348 1667.17 401.544 1660.41H376.162V1675.11C376.162 1679.23 376.26 1680.8 376.554 1683.34H363.814C364.108 1681.19 364.206 1678.54 364.206 1674.92V1660.41H358.228C351.76 1660.41 349.114 1660.51 345.684 1660.9V1648.95C349.506 1649.53 351.466 1649.63 358.424 1649.63H364.206V1639.83C364.206 1635.72 364.108 1633.66 363.716 1631.11H376.554C376.162 1634.34 376.162 1634.54 376.162 1639.54V1649.63Z" fill="black"/>
<path d="M763.261 1518.32L766.593 1522.14C765.711 1523.42 765.221 1524.59 764.143 1528.02C758.361 1545.47 753.657 1554.19 744.445 1565.07C735.723 1575.06 723.669 1583.69 709.557 1589.86C707.009 1585.25 705.245 1583.1 701.227 1579.57C726.903 1569.77 743.465 1552.23 751.305 1526.75L721.807 1527.14C716.319 1536.16 707.009 1546.35 698.875 1552.33C695.935 1548.31 694.465 1547.03 689.369 1543.9C699.953 1536.84 707.793 1528.02 714.751 1515.48C717.691 1510.19 719.455 1505.58 719.749 1502.44L733.175 1505.19C732.489 1506.07 732.391 1506.27 731.509 1508.13C730.725 1509.89 729.843 1511.85 728.863 1513.81C728.373 1514.69 728.373 1514.79 728.177 1515.18L727.393 1516.65C728.569 1516.56 730.137 1516.46 732.097 1516.46L753.559 1516.16C756.205 1516.16 757.871 1516.07 758.655 1515.97C756.401 1511.07 754.637 1507.93 751.501 1503.72L758.753 1501.27C762.575 1506.36 764.829 1510.28 767.475 1516.75L763.261 1518.32ZM780.215 1512.34L772.963 1515.09C770.611 1509.3 767.769 1504.31 764.535 1499.9L771.591 1497.45C775.609 1502.64 777.863 1506.56 780.215 1512.34Z" fill="black"/>
<path d="M596.956 1520.08L605.09 1510.38C616.752 1517.63 622.828 1522.14 630.374 1529.3L621.946 1539.98C614.106 1531.65 606.07 1525.18 596.956 1520.08ZM600.386 1584.76L596.76 1571.24C605.188 1570.75 616.85 1567.91 625.768 1563.99C638.018 1558.7 647.132 1551.15 654.874 1539.98C659.186 1533.71 661.93 1528.32 664.87 1520.38C668.692 1524.98 670.26 1526.45 675.258 1529.98C666.928 1547.92 657.618 1559.48 644.192 1568.4C634.196 1575.06 622.044 1579.86 606.854 1583.1C602.934 1583.88 602.64 1583.98 600.386 1584.76Z" fill="black"/>
<path d="M515.812 1516.46V1536.25C530.61 1533.51 552.268 1524.79 558.638 1518.81L566.478 1529.88C565.4 1530.28 565.204 1530.37 564.42 1530.77L561.872 1532.04C547.368 1539.49 532.178 1544.58 515.812 1547.62V1560.56C515.714 1561.15 515.714 1561.73 515.714 1562.13C515.714 1567.61 516.106 1569.77 517.478 1571.14C519.144 1572.81 524.73 1573.69 534.236 1573.69C540.802 1573.69 549.818 1573.1 556.972 1572.12C561.676 1571.53 563.832 1571.04 568.144 1569.77L568.732 1582.8C566.674 1582.8 566.184 1582.9 555.796 1583.88C550.014 1584.47 537.666 1585.06 531.688 1585.06C519.34 1585.06 512.578 1583.78 508.756 1580.84C506.012 1578.79 504.542 1575.65 503.954 1570.85C503.758 1569.18 503.66 1567.52 503.66 1561.83L503.562 1516.36C503.562 1511.36 503.562 1509.79 503.17 1507.34H516.302C515.91 1509.7 515.812 1511.46 515.812 1516.46ZM572.26 1499.11C578.532 1499.11 583.628 1504.21 583.628 1510.38C583.628 1516.65 578.532 1521.75 572.26 1521.75C566.086 1521.75 560.99 1516.65 560.99 1510.38C560.99 1504.21 566.086 1499.11 572.26 1499.11ZM572.26 1504.01C568.732 1504.01 565.89 1506.85 565.89 1510.38C565.89 1513.91 568.732 1516.85 572.26 1516.85C575.886 1516.85 578.728 1513.91 578.728 1510.38C578.728 1506.85 575.886 1504.01 572.26 1504.01Z" fill="black"/>
<path d="M404.68 1529.69L415.068 1526.65C419.184 1534.2 421.144 1538.9 424.672 1549.88L413.598 1553.4C411.05 1543.51 409.09 1538.31 404.68 1529.69ZM425.652 1525.57L435.942 1522.63C441.136 1532.33 442.998 1536.65 445.448 1545.17L434.57 1548.6C432.708 1541.15 429.768 1533.61 425.652 1525.57ZM459.364 1524.59L471.32 1527.34C470.732 1528.81 470.536 1529.3 469.948 1532.33C467.106 1545.66 462.696 1556.44 456.424 1564.97C449.172 1574.87 441.038 1581.24 426.534 1588.59C423.986 1584.27 422.81 1582.8 418.694 1578.88C425.554 1576.24 429.572 1574.08 435.354 1569.87C446.82 1561.54 453.386 1551.54 457.6 1535.86C458.874 1531.06 459.364 1527.63 459.364 1524.59Z" fill="black"/>
<path d="M330.397 1587.41H316.971C317.461 1584.27 317.559 1581.63 317.559 1576.43V1513.62C317.559 1508.81 317.363 1506.27 316.971 1503.62H330.397C330.005 1506.56 330.005 1507.83 330.005 1513.91V1532.14C343.431 1536.84 358.817 1544 374.497 1552.82L367.637 1564.38C359.503 1558.79 349.311 1553.21 332.945 1545.66C330.691 1544.58 330.397 1544.49 329.613 1544C329.907 1546.74 330.005 1547.92 330.005 1550.66V1576.53C330.005 1581.63 330.103 1584.18 330.397 1587.41Z" fill="black"/>
<path d="M762.281 1375.96L762.377 1370.49C764.345 1370.92 767.417 1371.11 773.513 1371.11C774.809 1368.23 775.241 1366.79 775.433 1365.16L781.721 1365.83C781.433 1366.31 781.433 1366.31 779.801 1370.15C779.561 1370.68 779.465 1370.82 779.369 1371.02C779.753 1370.97 779.753 1370.97 782.393 1370.82C787.961 1370.49 792.329 1369.96 794.969 1369.19L795.305 1374.66C793.961 1374.76 793.961 1374.76 791.513 1375.05C788.009 1375.48 781.913 1375.86 777.065 1376.01C775.673 1378.74 774.329 1380.66 772.649 1382.39L772.697 1382.49C773.033 1382.25 773.033 1382.25 773.657 1381.77C775.433 1380.42 777.977 1379.61 780.425 1379.61C784.169 1379.61 786.521 1381.38 787.289 1384.7C790.985 1383.35 793.433 1382.49 794.633 1382.1C797.225 1381.19 797.417 1381.14 798.185 1380.66L800.441 1386.18C799.097 1386.38 797.657 1386.76 795.113 1387.48C794.441 1387.67 792.041 1388.49 787.913 1389.93V1390.46C787.961 1391.7 787.961 1391.7 787.961 1392.38C787.961 1392.86 787.961 1393.67 787.961 1394.3C787.913 1395.11 787.913 1395.54 787.913 1395.88C787.913 1396.94 787.961 1397.61 788.057 1398.42L782.489 1398.57C782.681 1397.7 782.777 1395.26 782.777 1393C782.777 1392.33 782.777 1392.33 782.777 1391.85C780.425 1392.95 779.177 1393.62 778.169 1394.34C776.489 1395.59 775.673 1396.89 775.673 1398.28C775.673 1400.78 777.977 1401.78 783.785 1401.78C789.545 1401.78 794.489 1401.06 797.897 1399.77L798.377 1405.96C797.561 1405.96 797.321 1406.01 796.169 1406.15C792.713 1406.68 788.105 1407.02 783.881 1407.02C778.793 1407.02 775.625 1406.44 773.177 1405C770.969 1403.75 769.673 1401.45 769.673 1398.81C769.673 1396.84 770.249 1395.3 771.785 1393.48C773.945 1390.79 776.681 1388.97 782.105 1386.71C781.865 1384.94 780.905 1384.12 779.177 1384.12C776.393 1384.12 773.033 1385.8 769.337 1389.06C767.321 1390.74 766.217 1391.94 765.161 1393.43L760.793 1389.11C762.041 1388.15 763.433 1386.81 765.113 1384.84C766.985 1382.63 769.913 1378.46 770.873 1376.63C771.065 1376.25 771.065 1376.25 771.257 1376.01C771.065 1376.01 770.441 1376.06 770.441 1376.06C769.673 1376.06 765.449 1375.96 764.393 1375.96C763.481 1375.91 763.481 1375.91 763.049 1375.91C762.905 1375.91 762.617 1375.91 762.281 1375.96Z" fill="black"/>
<path d="M729.736 1372.41H719.752C716.968 1372.41 715.144 1372.5 713.416 1372.7V1366.98C714.904 1367.22 716.68 1367.32 719.752 1367.32H746.248C749.272 1367.32 751.096 1367.22 752.728 1366.98V1372.7C750.76 1372.5 749.08 1372.41 746.392 1372.41H735.304V1382.39H744.376C746.68 1382.39 748.168 1382.3 749.944 1382.1V1387.67C748.216 1387.48 746.632 1387.43 744.424 1387.43H735.304V1401.26H748.792C751.432 1401.26 752.824 1401.21 754.504 1400.97V1406.73C752.584 1406.49 750.904 1406.39 748.456 1406.39H718.024C715.576 1406.39 713.608 1406.49 711.592 1406.73V1400.97C713.272 1401.21 714.76 1401.26 717.928 1401.26H729.736V1387.43H722.008C719.368 1387.43 717.832 1387.48 716.104 1387.67V1382.1C717.496 1382.3 719.176 1382.39 722.008 1382.39H729.736V1372.41ZM738.76 1391.61L743.032 1388.68C746.008 1391.85 748.072 1394.3 750.232 1397.27L745.768 1400.54C743.176 1396.74 741.88 1395.06 738.76 1391.61Z" fill="black"/>
<path d="M664.409 1368.52L667.577 1364.68C670.937 1366.84 672.761 1368.23 675.881 1371.02L672.617 1375.14C669.833 1372.41 667.673 1370.63 664.409 1368.52ZM662.633 1380.52L665.465 1376.49C668.345 1378.17 670.985 1380.04 674.153 1382.58L671.129 1386.95C667.817 1383.93 666.089 1382.63 662.633 1380.52ZM669.785 1389.93L674.153 1392.71C671.849 1399.72 670.985 1401.78 668.345 1406.68C667.865 1407.54 667.721 1407.88 667.385 1408.5L662.729 1404.52C663.401 1403.85 664.313 1402.55 665.273 1400.92C667.097 1397.8 668.345 1394.78 669.785 1389.93ZM698.249 1384.6H681.737C680.009 1384.6 678.809 1384.65 677.273 1384.74C677.369 1383.35 677.417 1382.15 677.417 1380.28V1370.15C677.417 1368.38 677.369 1367.32 677.273 1365.93C678.473 1366.07 679.817 1366.12 682.169 1366.12H697.721C700.121 1366.12 701.417 1366.07 702.617 1365.93C702.473 1367.42 702.425 1368.33 702.425 1370.3V1380.38C702.425 1382.1 702.473 1383.26 702.617 1384.74C701.321 1384.65 700.217 1384.6 698.249 1384.6ZM682.361 1370.58V1373.51H697.433V1370.58H682.361ZM682.361 1377.54V1380.47H697.433V1377.54H682.361ZM704.345 1402.22H705.065C706.169 1402.22 706.745 1402.17 707.657 1401.98V1407.3C706.985 1407.21 706.553 1407.16 706.169 1407.16C705.017 1407.11 703.769 1407.06 702.425 1407.02H677.321C675.353 1407.02 673.673 1407.11 672.041 1407.3V1402.02C672.953 1402.17 673.673 1402.22 674.681 1402.22H675.737V1390.89C675.737 1389.5 675.689 1388.73 675.593 1387.43C676.601 1387.53 677.465 1387.58 679.769 1387.58H700.169C702.665 1387.58 703.481 1387.53 704.537 1387.43C704.393 1388.82 704.345 1389.45 704.345 1390.79V1402.22ZM680.297 1391.94V1402.22H683.849V1391.94H680.297ZM688.121 1391.94V1402.22H691.721V1391.94H688.121ZM695.993 1391.94V1402.22H699.641V1391.94H695.993Z" fill="black"/>
<path d="M625.673 1406.15L619.865 1406.49C619.817 1405.62 619.769 1405.34 619.625 1404.23C618.713 1398.42 618.377 1394.73 618.377 1389.88C618.377 1383.69 618.953 1378.22 620.345 1371.11C620.873 1368.42 620.969 1367.94 621.065 1366.65L627.401 1367.32C626.249 1370.15 625.145 1375.53 624.377 1381.67C623.897 1385.27 623.705 1388.1 623.657 1392.28C623.657 1393.34 623.609 1393.72 623.561 1394.92C624.089 1393.24 624.185 1392.9 626.057 1388.58L629.897 1390.31C627.257 1395.88 625.625 1401.45 625.625 1404.86C625.625 1405.14 625.625 1405.53 625.673 1406.15ZM632.297 1377.4L632.393 1371.64C634.553 1372.22 637.097 1372.41 641.273 1372.41C646.601 1372.41 651.161 1371.98 654.329 1371.11L654.617 1376.92C654.233 1376.97 653.513 1377.06 651.209 1377.35C648.137 1377.74 644.489 1377.93 640.937 1377.93C637.433 1377.93 637.385 1377.93 632.297 1377.4ZM635.609 1385.32L640.313 1387.53C637.913 1390.31 636.905 1392.38 636.905 1394.44C636.905 1397.18 639.545 1398.62 644.537 1398.62C648.761 1398.62 652.937 1397.94 655.961 1396.79L656.441 1402.89C655.769 1402.94 655.577 1402.98 654.473 1403.18C650.633 1403.8 647.705 1404.09 644.537 1404.09C638.585 1404.09 634.745 1402.74 632.633 1399.91C631.721 1398.71 631.193 1396.94 631.193 1395.21C631.193 1392.09 632.633 1388.87 635.609 1385.32Z" fill="black"/>
<path d="M585.88 1371.69V1368.76C585.88 1367.18 585.784 1365.93 585.544 1364.78H591.736C591.544 1365.78 591.448 1367.03 591.448 1368.76V1371.69H604.648C607.336 1371.69 609.064 1371.59 610.696 1371.35V1377.16C609.208 1376.97 607.72 1376.87 604.84 1376.87H587.272C587.032 1380.47 587.032 1380.62 586.888 1382.06H600.184C602.68 1382.06 604.024 1382.01 605.128 1381.82C605.128 1382.06 605.128 1382.2 605.08 1382.3C604.984 1383.02 604.984 1383.59 604.888 1385.66C604.696 1392.86 604.072 1399.05 603.256 1402.5C602.152 1407.06 600.568 1408.26 595.768 1408.26C594.088 1408.26 592.984 1408.22 589.288 1407.93C589.096 1405.72 588.712 1404.14 587.896 1402.36C590.68 1402.79 592.888 1402.98 595.096 1402.98C597.208 1402.98 597.688 1402.46 598.312 1399.14C598.888 1396.26 599.176 1393.24 599.368 1387.1H586.12C584.104 1396.74 579.784 1402.89 570.712 1408.84C569.512 1406.73 568.6 1405.67 566.824 1404.28C571.048 1401.64 573.112 1399.96 575.416 1397.18C579.544 1392.23 581.176 1386.66 581.416 1376.87H573.544C571.144 1376.87 569.176 1376.97 567.544 1377.16V1371.35C569.272 1371.59 571.096 1371.69 573.544 1371.69H585.88Z" fill="black"/>
<path d="M544.744 1374.23C543.832 1381.77 542.152 1388.39 539.752 1393.82C537.016 1400.01 533.944 1402.84 530.008 1402.84C524.536 1402.84 520.6 1397.27 520.6 1389.54C520.6 1384.26 522.472 1379.32 525.88 1375.58C529.912 1371.16 535.576 1368.86 542.392 1368.86C553.912 1368.86 561.4 1375.86 561.4 1386.66C561.4 1394.97 557.08 1401.59 549.736 1404.57C547.432 1405.53 545.56 1406.01 542.2 1406.58C541.384 1404.04 540.808 1402.98 539.272 1400.97C543.688 1400.39 546.568 1399.62 548.824 1398.33C553 1396.02 555.496 1391.46 555.496 1386.33C555.496 1381.72 553.432 1377.98 549.592 1375.67C548.104 1374.81 546.856 1374.42 544.744 1374.23ZM538.888 1374.28C536.392 1374.57 534.664 1375.24 532.696 1376.63C528.664 1379.51 526.168 1384.46 526.168 1389.59C526.168 1393.53 527.848 1396.65 529.96 1396.65C531.544 1396.65 533.176 1394.63 534.904 1390.5C536.728 1386.18 538.312 1379.7 538.888 1374.28Z" fill="black"/>
<path d="M509.032 1376.87H506.488C505.24 1381.34 504.472 1383.3 502.744 1386.52C501.112 1389.54 499.336 1392.04 497.08 1394.63C502.36 1398.76 508.12 1401.35 515.848 1403.08C514.264 1404.95 513.592 1406.1 512.536 1408.7C504.376 1406.01 498.52 1402.89 493.192 1398.33C490.456 1400.63 487.192 1402.79 483.784 1404.57C480.856 1406.06 478.12 1407.16 473.56 1408.7C472.696 1406.63 471.88 1405.29 470.488 1403.56C479.08 1401.21 484.408 1398.71 489.352 1394.63C487.048 1392.09 485.32 1389.74 483.688 1386.95C481.864 1383.83 481 1381.77 479.368 1376.87H477.112C474.856 1376.87 472.984 1376.97 471.256 1377.16V1371.74C473.08 1371.98 474.712 1372.07 477.256 1372.07H490.024V1368.66C490.024 1367.22 489.928 1366.07 489.688 1364.97H495.784C495.544 1366.07 495.448 1367.22 495.448 1368.62V1372.07H508.84C511.432 1372.07 513.112 1371.98 514.888 1371.74V1377.16C513.16 1376.97 511.528 1376.87 509.032 1376.87ZM500.824 1376.87H484.888C486.088 1380.52 486.856 1382.25 488.536 1385.08C490.024 1387.48 491.32 1389.16 493.144 1391.08C494.824 1389.21 496.216 1387.29 497.512 1385.03C498.952 1382.44 499.672 1380.76 500.824 1376.87Z" fill="black"/>
<path d="M441.543 1374.42H452.823C449.607 1371.78 447.543 1370.49 442.839 1368.33L446.295 1364.39C451.575 1366.98 452.679 1367.61 456.615 1370.49L453.447 1374.42H460.647C463.287 1374.42 464.487 1374.38 466.023 1374.14V1379.51C464.535 1379.37 462.759 1379.27 460.647 1379.27H453.111V1387.62H459.303C461.319 1387.62 463.191 1387.53 464.535 1387.34V1392.62C463.047 1392.47 461.175 1392.38 459.303 1392.38H453.111V1402.31H461.319C463.527 1402.31 465.639 1402.22 467.031 1402.02V1407.4C465.495 1407.21 463.575 1407.11 461.319 1407.11H440.391C438.135 1407.11 436.119 1407.21 434.679 1407.4V1402.02C436.167 1402.22 438.327 1402.31 440.391 1402.31H447.735V1392.38H442.839C440.919 1392.38 439.047 1392.47 437.559 1392.62V1387.34C438.951 1387.53 440.727 1387.62 442.791 1387.62H447.735V1379.27H441.543C439.095 1379.27 437.895 1379.32 436.167 1379.51V1374.14C437.799 1374.33 439.191 1374.42 441.543 1374.42ZM424.791 1368.71L428.055 1364.97C431.655 1367.08 433.527 1368.47 436.551 1371.26L433.335 1375.53C430.311 1372.31 428.775 1371.06 424.791 1368.71ZM422.871 1380.66L425.943 1376.68C429.831 1378.94 431.463 1380.14 434.631 1382.92L431.751 1387.34C428.247 1383.98 426.423 1382.63 422.871 1380.66ZM430.695 1390.02L434.967 1393.05C432.759 1399 431.511 1401.93 429.639 1405.34C429.159 1406.2 428.871 1406.68 428.295 1407.64C427.911 1408.26 427.911 1408.26 427.623 1408.79L423.063 1404.81C425.319 1402.36 428.103 1397.03 430.695 1390.02Z" fill="black"/>
<path d="M382.552 1374.57L382.984 1368.86C386.68 1369.72 390.952 1370.06 397.384 1370.06C403.48 1370.06 406.888 1369.82 410.056 1369.14L410.248 1374.57C407.368 1375.82 401.464 1379.51 397.432 1382.49L393.256 1379.18C396.28 1377.26 396.808 1376.92 398.008 1376.25C398.488 1375.96 398.632 1375.86 399.256 1375.48C399.64 1375.29 399.688 1375.29 400.312 1374.9C398.2 1375.19 396.136 1375.29 393.112 1375.29C390.664 1375.29 386.68 1375.05 384.328 1374.71C383.752 1374.66 383.416 1374.62 383.224 1374.62C383.128 1374.62 382.888 1374.57 382.552 1374.57ZM386.104 1385.42L390.28 1388.58C387.256 1391.13 385.912 1393.14 385.912 1395.21C385.912 1398.33 389.416 1399.67 397.528 1399.67C403.24 1399.67 409.528 1398.81 412.6 1397.61L413.128 1404.18C412.264 1404.23 412.12 1404.23 411.016 1404.38C405.256 1405.24 402.184 1405.48 398.056 1405.48C392.824 1405.48 388.6 1404.95 386.056 1403.9C381.928 1402.26 379.912 1399.62 379.912 1395.88C379.912 1392.18 381.784 1389.02 386.104 1385.42ZM419.08 1383.45L415.768 1385.32C414.328 1382.68 412.744 1380.42 410.872 1378.36L414.088 1376.68C416.248 1378.89 417.592 1380.71 419.08 1383.45ZM404.968 1381.19L408.328 1379.51C410.44 1381.77 411.736 1383.59 413.368 1386.57L410.008 1388.34C408.424 1385.42 407.08 1383.5 404.968 1381.19Z" fill="black"/>
<path d="M342.233 1375.77H354.713C354.713 1374.52 354.713 1373.37 354.713 1372.94C354.713 1372.36 354.713 1371.88 354.713 1371.78C354.713 1369.24 354.665 1368.14 354.521 1367.03H360.665C360.521 1368.18 360.521 1368.52 360.521 1370.2C360.521 1371.98 360.473 1373.85 360.473 1375.77H363.497C367.145 1375.77 368.057 1375.72 369.785 1375.43V1381.29C368.153 1381.1 367.481 1381.05 363.593 1381.05H360.425C360.329 1389.69 359.849 1392.76 358.073 1396.55C355.433 1401.74 350.729 1405.43 343.817 1407.74C343.001 1405.82 342.185 1404.66 340.217 1402.65C347.033 1400.73 351.065 1397.7 353.129 1393.05C354.281 1390.17 354.569 1387.82 354.665 1381.05H342.233V1388.2C342.233 1390.36 342.281 1391.08 342.425 1392.23H336.185C336.329 1391.22 336.329 1390.7 336.377 1388.1V1381.05H333.449C329.609 1381.05 328.937 1381.1 327.305 1381.29V1375.43C329.033 1375.72 329.945 1375.77 333.545 1375.77H336.377V1370.97C336.377 1368.52 336.329 1367.9 336.137 1366.7H342.425C342.233 1368.28 342.233 1368.47 342.233 1370.78V1375.77ZM360.617 1365.16L363.881 1364.25C365.321 1366.6 366.377 1368.9 367.193 1371.74L363.881 1372.7C362.969 1369.62 361.961 1367.27 360.617 1365.16ZM372.857 1370.1L369.785 1371.11C369.065 1368.66 367.961 1366.22 366.521 1363.86L369.593 1362.9C370.889 1364.92 371.897 1367.18 372.857 1370.1Z" fill="black"/>
<path d="M291.112 1372.41V1382.1C298.36 1380.76 308.968 1376.49 312.088 1373.56L315.928 1378.98C315.4 1379.18 315.304 1379.22 314.92 1379.42L313.672 1380.04C306.568 1383.69 299.128 1386.18 291.112 1387.67V1394.01C291.064 1394.3 291.064 1394.58 291.064 1394.78C291.064 1397.46 291.256 1398.52 291.928 1399.19C292.744 1400.01 295.48 1400.44 300.136 1400.44C303.352 1400.44 307.768 1400.15 311.272 1399.67C313.576 1399.38 314.632 1399.14 316.744 1398.52L317.032 1404.9C316.024 1404.9 315.784 1404.95 310.696 1405.43C307.864 1405.72 301.816 1406.01 298.888 1406.01C292.84 1406.01 289.528 1405.38 287.656 1403.94C286.312 1402.94 285.592 1401.4 285.304 1399.05C285.208 1398.23 285.16 1397.42 285.16 1394.63L285.112 1372.36C285.112 1369.91 285.112 1369.14 284.92 1367.94H291.352C291.16 1369.1 291.112 1369.96 291.112 1372.41ZM318.76 1363.91C321.832 1363.91 324.328 1366.41 324.328 1369.43C324.328 1372.5 321.832 1375 318.76 1375C315.736 1375 313.24 1372.5 313.24 1369.43C313.24 1366.41 315.736 1363.91 318.76 1363.91ZM318.76 1366.31C317.032 1366.31 315.64 1367.7 315.64 1369.43C315.64 1371.16 317.032 1372.6 318.76 1372.6C320.536 1372.6 321.928 1371.16 321.928 1369.43C321.928 1367.7 320.536 1366.31 318.76 1366.31Z" fill="black"/>
<path d="M721.092 1223.82H710.348C709.192 1221.5 707.968 1219.53 705.996 1216.54L688.452 1190.09C687.16 1188.05 685.46 1185.12 683.828 1181.93C683.896 1182.88 683.896 1182.88 684.1 1185.4C684.168 1186.69 684.304 1189.75 684.304 1191.31V1213.62C684.304 1218.17 684.508 1221.37 684.848 1223.82H674.92C675.26 1221.57 675.464 1218.17 675.464 1213.55V1178.46C675.464 1174.92 675.328 1172.48 674.92 1169.69H685.528C686.14 1171.39 687.364 1173.43 689.676 1176.9L706.88 1202.8C708.512 1205.25 710.688 1208.79 712.184 1211.51C711.912 1208.86 711.708 1204.78 711.708 1201.92V1179.07C711.708 1175.06 711.572 1172.27 711.164 1169.69H721.092C720.684 1172.41 720.548 1174.92 720.548 1179.07V1215.04C720.548 1218.85 720.684 1221.44 721.092 1223.82Z" fill="black"/>
<path d="M669.37 1223.82H658.218C657.81 1221.57 657.062 1218.65 656.314 1216.68L653.594 1209.26H631.834L629.114 1216.68C627.89 1219.94 627.618 1220.96 627.074 1223.82H615.922C616.942 1221.98 618.302 1218.92 619.526 1215.79L634.486 1176.56C635.778 1173.16 636.322 1171.46 636.662 1169.69H648.494C648.834 1171.32 649.242 1172.41 650.806 1176.56L665.902 1215.79C667.602 1220.14 668.418 1222.05 669.37 1223.82ZM651.146 1201.44L643.87 1181.32C643.598 1180.57 643.394 1179.75 642.646 1177.51C641.558 1180.7 641.558 1180.7 641.354 1181.32L634.282 1201.44H651.146Z" fill="black"/>
<path d="M599.203 1223.82H587.507C587.235 1222.32 586.487 1220.21 585.331 1217.02L570.779 1177.78C569.283 1173.7 568.331 1171.52 567.379 1169.69H578.599C578.939 1171.93 579.619 1174.38 580.435 1176.83L591.723 1210.42C592.063 1211.24 592.879 1213.96 593.355 1215.59C593.967 1213.55 594.511 1211.64 594.919 1210.42L606.207 1176.83C607.295 1173.43 607.703 1172 608.043 1169.69H619.263C618.311 1171.39 617.495 1173.29 615.863 1177.78L601.311 1217.02C600.155 1220.08 599.475 1222.25 599.203 1223.82Z" fill="black"/>
<path d="M570.69 1223.82H559.538C559.13 1221.57 558.382 1218.65 557.634 1216.68L554.914 1209.26H533.154L530.434 1216.68C529.21 1219.94 528.938 1220.96 528.394 1223.82H517.242C518.262 1221.98 519.622 1218.92 520.846 1215.79L535.806 1176.56C537.098 1173.16 537.642 1171.46 537.982 1169.69H549.814C550.154 1171.32 550.562 1172.41 552.126 1176.56L567.222 1215.79C568.922 1220.14 569.738 1222.05 570.69 1223.82ZM552.466 1201.44L545.19 1181.32C544.918 1180.57 544.714 1179.75 543.966 1177.51C542.878 1180.7 542.878 1180.7 542.674 1181.32L535.602 1201.44H552.466Z" fill="black"/>
<path d="M514.493 1223.82H503.273C503.137 1222.18 501.981 1218.72 499.737 1212.94C496.065 1203.55 493.685 1201.04 488.449 1201.04H478.317V1214.91C478.317 1218.99 478.453 1221.16 478.861 1223.82H468.729C469.137 1220.96 469.273 1219.12 469.273 1214.98V1178.32C469.273 1174.72 469.137 1172.68 468.729 1169.48C471.585 1169.62 473.693 1169.69 477.433 1169.69H493.753C504.089 1169.69 510.005 1174.86 510.005 1183.83C510.005 1188.18 508.849 1191.58 506.537 1193.96C504.633 1195.94 502.865 1196.82 498.989 1197.91C503.273 1199.27 504.565 1201.17 511.297 1217.08C511.841 1218.31 513.541 1221.98 514.493 1223.82ZM478.317 1193.28H491.985C494.501 1193.28 496.881 1192.4 498.445 1190.84C499.873 1189.41 500.621 1187.44 500.621 1184.85C500.621 1179.96 497.833 1177.44 492.257 1177.44H478.317V1193.28Z" fill="black"/>
<path d="M463.178 1223.82H452.026C451.618 1221.57 450.87 1218.65 450.122 1216.68L447.402 1209.26H425.642L422.922 1216.68C421.698 1219.94 421.426 1220.96 420.882 1223.82H409.73C410.75 1221.98 412.11 1218.92 413.334 1215.79L428.294 1176.56C429.586 1173.16 430.13 1171.46 430.47 1169.69H442.302C442.642 1171.32 443.05 1172.41 444.614 1176.56L459.71 1215.79C461.41 1220.14 462.226 1222.05 463.178 1223.82ZM444.954 1201.44L437.678 1181.32C437.406 1180.57 437.202 1179.75 436.454 1177.51C435.366 1180.7 435.366 1180.7 435.162 1181.32L428.09 1201.44H444.954Z" fill="black"/>
<path d="M396.405 1205.59L406.129 1207.29C404.837 1212.19 403.613 1214.84 401.573 1217.49C397.697 1222.25 391.169 1224.9 383.009 1224.9C375.597 1224.9 369.681 1222.66 365.533 1218.38C360.773 1213.41 358.121 1205.73 358.121 1197.02C358.121 1188.05 360.977 1180.16 366.077 1175.06C370.157 1170.91 376.277 1168.6 383.077 1168.6C388.381 1168.6 392.393 1169.62 396.133 1171.86C399.193 1173.77 401.641 1176.28 403.341 1179.28C404.157 1180.7 404.633 1181.93 405.449 1184.51L395.997 1186.69C395.045 1183.7 394.433 1182.4 393.073 1180.84C390.761 1178.05 387.361 1176.62 383.145 1176.62C373.489 1176.62 367.641 1184.17 367.641 1196.68C367.641 1209.13 373.625 1216.88 383.145 1216.88C387.905 1216.88 391.985 1215.04 394.161 1211.85C395.317 1210.15 395.861 1208.72 396.405 1205.59Z" fill="black"/>
</svg>
