<svg width="1080" height="1920" viewBox="0 0 1080 1920" fill="none" xmlns="http://www.w3.org/2000/svg">
<path d="M1080 1920L1080 0L0 0L0 1920H1080Z" fill="#A5D4AD"/>
<path d="M1020 983.72V95C1020 75.67 1004.33 60 985 60H95.58C75.93 60 60 75.93 60 95.58V983.71C60 984.03 60.25 984.28 60.57 984.28C80.03 984.59 95.71 1000.46 95.71 1019.99C95.71 1039.52 80.03 1055.39 60.57 1055.7C60.25 1055.7 60 1055.96 60 1056.27V1824.99C60 1844.32 75.67 1859.99 95 1859.99H985C1004.33 1859.99 1020 1844.32 1020 1824.99V1056.27C1020 1055.95 1019.75 1055.7 1019.43 1055.7C999.97 1055.39 984.29 1039.52 984.29 1019.99C984.29 1000.46 999.97 984.59 1019.43 984.28C1019.75 984.28 1020 984.02 1020 983.71V983.72Z" fill="white"/>
<path d="M60.57 1055.71C60.25 1055.71 60 1055.97 60 1056.28V1825C60 1844.33 75.67 1860 95 1860H985C1004.33 1860 1020 1844.33 1020 1825V1056.28C1020 1055.96 1019.75 1055.71 1019.43 1055.71C999.97 1055.4 984.29 1039.53 984.29 1020H95.71C95.71 1039.53 80.03 1055.4 60.57 1055.71Z" fill="#E5F2E6"/>
<path d="M121 1020H160.9" stroke="black" stroke-width="6" stroke-miterlimit="10"/>
<path d="M187.512 1020H227.412" stroke="black" stroke-width="6" stroke-miterlimit="10"/>
<path d="M254.02 1020H293.92" stroke="black" stroke-width="6" stroke-miterlimit="10"/>
<path d="M320.52 1020H360.43" stroke="black" stroke-width="6" stroke-miterlimit="10"/>
<path d="M387.031 1020H426.941" stroke="black" stroke-width="6" stroke-miterlimit="10"/>
<path d="M453.539 1020H493.439" stroke="black" stroke-width="6" stroke-miterlimit="10"/>
<path d="M520.051 1020H559.951" stroke="black" stroke-width="6" stroke-miterlimit="10"/>
<path d="M586.559 1020H626.459" stroke="black" stroke-width="6" stroke-miterlimit="10"/>
<path d="M653.059 1020H692.969" stroke="black" stroke-width="6" stroke-miterlimit="10"/>
<path d="M719.57 1020H759.48" stroke="black" stroke-width="6" stroke-miterlimit="10"/>
<path d="M786.078 1020H825.978" stroke="black" stroke-width="6" stroke-miterlimit="10"/>
<path d="M852.59 1020H892.49" stroke="black" stroke-width="6" stroke-miterlimit="10"/>
<path d="M919.102 1020H959.002" stroke="black" stroke-width="6" stroke-miterlimit="10"/>
<path d="M1020 984.29V95C1020 75.67 1004.33 60 985 60H95C75.67 60 60 75.67 60 95V984.29C79.72 984.29 95.71 1000.28 95.71 1020C95.71 1039.72 79.72 1055.71 60 1055.71V1825C60 1844.33 75.67 1860 95 1860H985C1004.33 1860 1020 1844.33 1020 1825V1055.71C1000.28 1055.71 984.29 1039.72 984.29 1020C984.29 1000.28 1000.28 984.29 1020 984.29Z" stroke="black" stroke-width="6" stroke-miterlimit="10"/>
<path d="M912.642 525.66C908.772 525.66 905.532 522.64 905.312 518.73C900.582 435.62 868.782 358.85 813.362 296.74C810.662 293.71 810.922 289.06 813.952 286.36C816.982 283.66 821.622 283.92 824.332 286.95C881.992 351.57 915.062 431.43 919.992 517.89C920.222 521.94 917.122 525.42 913.072 525.65C912.932 525.65 912.792 525.66 912.652 525.66H912.642Z" fill="black"/>
<path d="M818.842 795.509C817.102 795.509 815.352 794.889 813.952 793.639C810.922 790.939 810.662 786.289 813.362 783.259C868.782 721.149 900.582 644.379 905.312 561.269C905.542 557.219 909.022 554.109 913.072 554.349C917.122 554.579 920.222 558.049 919.992 562.109C915.062 648.579 881.992 728.439 824.332 793.049C822.882 794.679 820.862 795.509 818.842 795.509Z" fill="black"/>
<path d="M167.352 525.66C167.212 525.66 167.072 525.66 166.932 525.65C162.882 525.42 159.782 521.95 160.012 517.89C164.942 431.42 198.012 351.56 255.672 286.95C258.372 283.92 263.022 283.66 266.052 286.36C269.082 289.06 269.342 293.71 266.642 296.74C211.222 358.85 179.422 435.61 174.692 518.73C174.472 522.64 171.232 525.66 167.362 525.66H167.352Z" fill="black"/>
<path d="M261.162 795.509C259.142 795.509 257.122 794.679 255.672 793.049C198.012 728.429 164.942 648.569 160.012 562.109C159.782 558.059 162.882 554.579 166.932 554.349C170.982 554.109 174.462 557.219 174.692 561.269C179.422 644.389 211.222 721.149 266.642 783.259C269.342 786.289 269.082 790.939 266.052 793.639C264.652 794.889 262.902 795.509 261.162 795.509Z" fill="black"/>
<path d="M788.164 268.509C786.424 268.509 784.674 267.889 783.274 266.639C721.164 211.219 644.394 179.419 561.284 174.689C557.234 174.459 554.134 170.989 554.364 166.929C554.594 162.879 558.034 159.789 562.124 160.009C648.594 164.939 728.454 198.009 793.064 255.669C796.094 258.369 796.354 263.019 793.654 266.049C792.204 267.679 790.184 268.509 788.164 268.509Z" fill="black"/>
<path d="M291.844 268.51C289.824 268.51 287.804 267.68 286.354 266.05C283.654 263.02 283.914 258.37 286.944 255.67C351.564 198.01 431.424 164.94 517.884 160.01C521.934 159.78 525.414 162.88 525.644 166.93C525.874 170.98 522.774 174.46 518.724 174.69C435.614 179.42 358.844 211.22 296.734 266.64C295.334 267.89 293.584 268.51 291.844 268.51Z" fill="black"/>
<path d="M561.682 920C557.812 920 554.572 916.98 554.352 913.07C554.122 909.02 557.222 905.54 561.272 905.31C644.392 900.58 721.152 868.78 783.262 813.36C786.292 810.66 790.942 810.92 793.642 813.95C796.342 816.98 796.082 821.63 793.052 824.33C728.432 881.99 648.572 915.06 562.112 919.99C561.972 919.99 561.832 920 561.692 920H561.682Z" fill="black"/>
<path d="M518.312 920C518.172 920 518.032 920 517.892 919.99C431.422 915.06 351.562 881.99 286.952 824.33C283.922 821.63 283.662 816.98 286.362 813.95C289.062 810.92 293.712 810.66 296.742 813.36C358.852 868.78 435.622 900.58 518.732 905.31C522.782 905.54 525.882 909.01 525.652 913.07C525.432 916.98 522.192 920 518.322 920H518.312Z" fill="black"/>
<path d="M875.37 526.191C872.36 526.191 869.84 523.841 869.67 520.801C865.4 445.791 836.7 376.521 786.69 320.461C784.59 318.101 784.79 314.491 787.15 312.391C789.5 310.291 793.12 310.491 795.22 312.851C846.97 370.851 876.67 442.541 881.09 520.151C881.27 523.301 878.86 526.001 875.71 526.181C875.6 526.181 875.49 526.181 875.38 526.181L875.37 526.191Z" fill="black"/>
<path d="M790.95 769.062C789.59 769.062 788.24 768.582 787.15 767.612C784.79 765.512 784.59 761.892 786.69 759.542C836.7 703.492 865.4 634.212 869.67 559.202C869.85 556.052 872.54 553.642 875.7 553.822C878.85 554.002 881.26 556.702 881.08 559.852C876.66 637.472 846.97 709.152 795.21 767.152C794.08 768.422 792.51 769.062 790.94 769.062H790.95Z" fill="black"/>
<path d="M204.622 526.191C204.512 526.191 204.402 526.191 204.292 526.191C201.142 526.011 198.732 523.311 198.912 520.161C203.332 442.541 233.022 370.861 284.782 312.861C286.882 310.501 290.502 310.301 292.852 312.401C295.212 314.501 295.412 318.121 293.312 320.471C243.302 376.521 214.602 445.801 210.332 520.811C210.162 523.851 207.642 526.201 204.632 526.201L204.622 526.191Z" fill="black"/>
<path d="M289.04 769.061C287.47 769.061 285.9 768.411 284.77 767.151C233.02 709.151 203.32 637.461 198.9 559.851C198.72 556.701 201.13 554.001 204.28 553.821C207.44 553.631 210.13 556.051 210.31 559.201C214.58 634.211 243.28 703.491 293.29 759.541C295.39 761.901 295.19 765.511 292.83 767.611C291.74 768.581 290.38 769.061 289.03 769.061H289.04Z" fill="black"/>
<path d="M763.342 294.762C761.982 294.762 760.632 294.282 759.542 293.312C703.492 243.302 634.212 214.602 559.202 210.332C556.052 210.152 553.642 207.452 553.822 204.302C554.002 201.152 556.692 198.742 559.852 198.922C637.472 203.342 709.152 233.032 767.152 284.792C769.512 286.892 769.712 290.512 767.612 292.862C766.482 294.132 764.912 294.772 763.342 294.772V294.762Z" fill="black"/>
<path d="M316.651 294.761C315.081 294.761 313.511 294.111 312.381 292.851C310.281 290.491 310.481 286.881 312.841 284.781C370.841 233.031 442.531 203.331 520.141 198.911C523.291 198.721 525.991 201.141 526.171 204.291C526.351 207.441 523.941 210.141 520.791 210.321C445.781 214.591 376.511 243.291 320.451 293.301C319.361 294.271 318.001 294.751 316.651 294.751V294.761Z" fill="black"/>
<path d="M559.518 881.102C556.508 881.102 553.988 878.752 553.818 875.712C553.638 872.562 556.048 869.862 559.198 869.682C634.208 865.412 703.478 836.712 759.538 786.702C761.888 784.602 765.508 784.802 767.608 787.162C769.708 789.522 769.508 793.132 767.148 795.232C709.148 846.982 637.458 876.682 559.848 881.102C559.738 881.102 559.628 881.102 559.518 881.102Z" fill="black"/>
<path d="M520.479 881.102C520.369 881.102 520.259 881.102 520.149 881.102C442.529 876.682 370.849 846.992 312.849 795.232C310.489 793.132 310.289 789.512 312.389 787.162C314.489 784.802 318.109 784.602 320.459 786.702C376.509 836.722 445.789 865.412 520.799 869.682C523.949 869.862 526.359 872.562 526.179 875.712C526.009 878.752 523.489 881.102 520.479 881.102Z" fill="black"/>
<path d="M841.843 526.51C839.693 526.51 837.893 524.83 837.773 522.66C833.913 454.91 807.993 392.34 762.823 341.71C761.323 340.03 761.473 337.45 763.153 335.94C764.833 334.44 767.413 334.58 768.923 336.27C815.343 388.29 841.973 452.58 845.933 522.19C846.063 524.44 844.343 526.37 842.083 526.5C842.003 526.5 841.923 526.5 841.843 526.5V526.51Z" fill="black"/>
<path d="M765.862 745.101C764.892 745.101 763.922 744.761 763.142 744.061C761.462 742.561 761.312 739.981 762.812 738.291C807.982 687.661 833.902 625.091 837.762 557.341C837.892 555.091 839.852 553.391 842.072 553.491C844.322 553.621 846.042 555.551 845.922 557.801C841.952 627.411 815.322 691.701 768.912 743.721C768.102 744.621 766.982 745.081 765.862 745.081V745.101Z" fill="black"/>
<path d="M238.162 526.51C238.082 526.51 238.002 526.51 237.922 526.51C235.672 526.38 233.952 524.45 234.072 522.2C238.042 452.59 264.672 388.3 311.082 336.28C312.582 334.6 315.162 334.45 316.852 335.95C318.532 337.45 318.682 340.03 317.182 341.72C272.012 392.35 246.092 454.92 242.232 522.67C242.112 524.84 240.312 526.52 238.162 526.52V526.51Z" fill="black"/>
<path d="M314.133 745.101C313.013 745.101 311.893 744.641 311.083 743.741C264.663 691.721 238.033 627.431 234.073 557.821C233.943 555.571 235.663 553.641 237.923 553.511C240.163 553.401 242.103 555.101 242.233 557.361C246.093 625.111 272.013 687.681 317.183 738.311C318.683 739.991 318.533 742.571 316.853 744.081C316.073 744.771 315.103 745.121 314.133 745.121V745.101Z" fill="black"/>
<path d="M741.014 318.219C740.044 318.219 739.074 317.879 738.294 317.179C687.664 272.009 625.094 246.089 557.344 242.229C555.094 242.099 553.374 240.169 553.494 237.919C553.624 235.669 555.544 233.959 557.804 234.069C627.414 238.039 691.704 264.669 743.734 311.079C745.414 312.579 745.564 315.159 744.064 316.849C743.254 317.749 742.134 318.209 741.014 318.209V318.219Z" fill="black"/>
<path d="M338.994 318.22C337.874 318.22 336.754 317.76 335.944 316.86C334.444 315.18 334.594 312.6 336.274 311.09C388.294 264.67 452.584 238.04 522.194 234.08C524.444 233.96 526.374 235.67 526.504 237.93C526.634 240.18 524.914 242.11 522.654 242.24C454.904 246.1 392.334 272.02 341.704 317.19C340.924 317.88 339.954 318.23 338.984 318.23L338.994 318.22Z" fill="black"/>
<path d="M557.565 845.929C555.415 845.929 553.615 844.249 553.495 842.079C553.365 839.829 555.085 837.899 557.345 837.769C625.095 833.909 687.665 807.989 738.295 762.819C739.975 761.319 742.555 761.469 744.065 763.149C745.565 764.829 745.415 767.409 743.735 768.919C691.715 815.339 627.425 841.969 557.805 845.929C557.725 845.929 557.645 845.929 557.565 845.929Z" fill="black"/>
<path d="M522.434 845.929C522.354 845.929 522.274 845.929 522.194 845.929C452.584 841.959 388.294 815.329 336.274 768.919C334.594 767.419 334.444 764.839 335.944 763.149C337.444 761.469 340.024 761.319 341.714 762.819C392.344 807.989 454.914 833.909 522.664 837.769C524.914 837.899 526.634 839.829 526.514 842.079C526.394 844.249 524.594 845.929 522.444 845.929H522.434Z" fill="black"/>
<path d="M320.642 546.17C320.642 544.6 321.782 543.27 323.332 543.02C324.632 542.81 326.262 542.52 327.972 542.12C332.392 541.08 337.582 539.11 343.402 536.27C349.282 533.4 354.912 529.41 359.162 523.67C366.332 513.97 367.852 501.4 368.182 496.89C368.252 495.97 367.522 495.19 366.592 495.19H317.082C315.322 495.19 313.902 493.76 313.902 492.01V470.69C313.902 468.93 315.332 467.51 317.082 467.51H367.062C367.942 467.51 368.652 466.8 368.652 465.92V447.18C368.652 446.3 367.942 445.59 367.062 445.59H328.612C326.852 445.59 325.432 444.16 325.432 442.41V421.09C325.432 419.33 326.862 417.91 328.612 417.91H428.952C430.712 417.91 432.132 419.34 432.132 421.09V442.41C432.132 444.17 430.702 445.59 428.952 445.59H398.512C397.632 445.59 396.922 446.3 396.922 447.18V465.92C396.922 466.8 397.632 467.51 398.512 467.51H438.572C440.332 467.51 441.752 468.94 441.752 470.69V492.01C441.752 493.77 440.322 495.19 438.572 495.19H398.382C397.532 495.19 396.832 495.86 396.792 496.71C396.562 501.75 395.142 518.44 386.172 532.85C380.722 541.61 373.642 548.26 366.532 553.54C359.402 558.84 352.252 562.93 345.262 565.7C338.232 568.49 332.332 570.44 327.742 571.51C326.652 571.76 325.482 571.99 324.392 572.18C322.442 572.53 320.652 571.03 320.652 569.04V546.16L320.642 546.17Z" fill="black"/>
<path d="M474.544 546.52C474.544 545.06 475.544 543.79 476.954 543.43C485.204 541.36 488.924 540.11 496.834 536.32C496.834 536.32 500.884 534.21 504.924 531.3C517.104 522.54 525.214 510.63 525.214 510.63C534.674 497.28 537.764 474.91 538.484 468.49C538.594 467.55 537.854 466.72 536.904 466.72H500.574C500.344 466.72 500.134 466.84 500.024 467.04L499.874 467.29C494.294 478.11 486.874 487.99 480.444 494.24C473.994 500.5 468.584 505.05 464.374 507.75L461.774 509.42C460.714 510.1 459.324 509.34 459.324 508.08V479.89C459.324 478.95 459.744 478.06 460.464 477.45C461.114 476.9 461.984 476.13 463.174 475.06C465.934 472.57 469.044 468.51 472.414 462.98C475.754 457.51 479.344 450.21 483.064 441.29C486.444 433.2 488.974 423.09 490.854 412.06C491.114 410.53 492.444 409.42 493.994 409.42H513.904C515.904 409.42 517.414 411.25 517.034 413.21C516.394 416.52 515.704 420.88 514.844 424.31C513.574 429.39 512.754 432.3 511.234 436.72C510.974 437.47 511.534 438.24 512.324 438.24H591.174C592.934 438.24 594.354 439.67 594.354 441.42V463.51C594.354 465.27 592.924 466.69 591.174 466.69H568.134C567.324 466.69 566.634 467.3 566.554 468.11C565.924 474.01 562.874 497.16 552.384 517.26C538.284 546 508.134 566.39 478.334 572.13C476.374 572.51 474.554 571 474.554 569V546.48L474.544 546.52Z" fill="black"/>
<path d="M675.895 411.029V468.869C675.895 469.749 676.604 470.459 677.484 470.459H764.515C765.395 470.459 766.104 469.749 766.104 468.869V411.029C766.104 410.149 765.395 409.439 764.515 409.439H677.484C676.604 409.439 675.895 410.149 675.895 411.029ZM738.455 452.739H702.294C701.414 452.739 700.705 452.029 700.705 451.149V446.869C700.705 445.989 701.414 445.279 702.294 445.279H738.455C739.335 445.279 740.044 445.989 740.044 446.869V451.149C740.044 452.029 739.335 452.739 738.455 452.739ZM738.455 434.449H702.294C701.414 434.449 700.705 433.739 700.705 432.859V428.749C700.705 427.869 701.414 427.159 702.294 427.159H738.455C739.335 427.159 740.044 427.869 740.044 428.749V432.859C740.044 433.739 739.335 434.449 738.455 434.449Z" fill="black"/>
<path d="M674.224 497.34H728.264C729.144 497.34 729.854 498.05 729.854 498.93V502.84C729.854 503.72 729.144 504.43 728.264 504.43H667.754C665.994 504.43 664.574 505.86 664.574 507.61V522.86C664.574 524.62 666.004 526.04 667.754 526.04H728.264C729.144 526.04 729.854 526.75 729.854 527.63V545.39C729.854 546.11 729.934 547.98 729.214 548.85C728.384 549.87 727.144 549.67 725.844 549.72C722.534 549.72 719.574 549.7 716.944 549.66C716.544 549.66 716.254 549.29 716.334 548.9C716.594 547.63 716.724 546.31 716.694 544.96C716.494 535.68 708.934 528.08 699.654 527.84C689.574 527.58 681.364 535.85 681.704 545.94C682.014 555.29 689.784 562.81 699.144 562.84C704.034 562.85 708.454 560.86 711.634 557.64C711.974 557.3 712.544 557.43 712.694 557.88C714.154 562.21 715.534 566.34 716.784 570.05C717.224 571.35 718.454 572.22 719.824 572.21C725.724 572.17 730.504 571.96 734.174 571.6C738.304 571.18 742.084 570.15 745.514 568.5C749.174 566.84 751.684 564.42 753.044 561.23C754.404 558.04 755.084 553.55 755.084 547.76V527.62C755.084 526.74 755.794 526.03 756.674 526.03H762.904C764.664 526.03 766.084 524.6 766.084 522.85V507.6C766.084 505.84 764.654 504.42 762.904 504.42H756.674C755.794 504.42 755.084 503.71 755.084 502.83V498.92C755.084 498.04 755.794 497.33 756.674 497.33H762.904C764.664 497.33 766.084 495.9 766.084 494.15V479.6C766.084 477.84 764.654 476.42 762.904 476.42H674.204C672.444 476.42 671.024 477.85 671.024 479.6V494.15C671.024 495.91 672.454 497.33 674.204 497.33L674.224 497.34Z" fill="black"/>
<path d="M668.824 409.439H650.254C649.394 409.439 648.574 409.789 647.974 410.399C635.224 423.349 618.284 434.569 612.124 438.479C610.774 439.329 610.274 441.059 610.944 442.499L620.694 463.569C621.624 465.569 624.254 466.049 625.824 464.499C646.114 444.459 664.444 419.799 670.114 411.959C670.874 410.909 670.114 409.439 668.824 409.439Z" fill="black"/>
<path d="M671.914 453.889V435.409C671.914 433.999 670.214 433.289 669.204 434.279C653.634 449.599 620.044 477.059 611.674 483.859C610.544 484.779 610.184 486.349 610.794 487.669L620.694 509.049C621.624 511.049 624.254 511.529 625.824 509.979C627.534 508.289 629.234 506.559 630.914 504.819C631.314 504.409 632.014 504.689 632.014 505.259V569.059C632.014 570.819 633.444 572.239 635.194 572.239H653.814C655.574 572.239 656.994 570.809 656.994 569.059V476.369C656.994 475.299 657.354 474.249 658.024 473.409C664.864 464.729 669.714 458.019 671.334 455.739C671.714 455.199 671.924 454.559 671.924 453.889H671.914Z" fill="black"/>
<path d="M653.261 623.33C640.841 623.33 634.801 628.28 634.801 638.47V655.6C634.801 665.67 640.841 670.56 653.261 670.56C659.131 670.56 663.471 669.48 666.551 667.27C669.991 664.8 671.731 660.87 671.731 655.59V638.46C671.731 628.27 665.691 623.32 653.271 623.32L653.261 623.33ZM646.081 639.3C646.081 633.93 648.831 632.91 653.261 632.91C657.691 632.91 660.441 633.95 660.441 639.3V654.68C660.441 659.95 657.591 660.98 653.261 660.98C648.931 660.98 646.081 659.98 646.081 654.68V639.3Z" fill="black"/>
<path d="M708.262 669.331H721.352L703.622 646.781L720.552 624.8H707.392L694.052 642.281V610.23H682.762V669.331H694.052V659.211L696.942 655.451L708.262 669.331Z" fill="black"/>
<path d="M754.812 624.801V653.291C754.812 659.041 751.872 660.891 746.822 660.891C743.552 660.891 740.272 660.351 740.272 653.881V624.811H728.992V656.771C728.992 665.741 733.702 670.481 742.612 670.481C749.292 670.481 753.872 666.861 755.572 662.801L757.382 669.341H766.102V624.811H754.822L754.812 624.801Z" fill="black"/>
<path d="M630.561 610.23H589.141V620.141V620.151H604.211V669.331H615.681V620.151H630.561V610.23Z" fill="black"/>
<path d="M459.681 669.331H472.771L455.041 646.781L471.971 624.8H458.811L445.471 642.281V610.23H434.191V669.331H445.471V659.211L448.361 655.451L459.681 669.331Z" fill="black"/>
<path d="M355.322 610.23H313.902V620.141V620.151H328.982V669.331H340.442V620.151H355.322V610.23Z" fill="black"/>
<path d="M421.794 658.89L421.194 659.04C417.614 659.96 413.284 660.89 409.404 660.89C404.854 660.89 401.684 658.82 401.684 652.83V640.97C401.684 634.9 404.854 632.82 409.404 632.82C413.354 632.82 417.874 633.7 421.224 634.4L421.804 634.52V625.19L421.494 625.12C417.684 624.23 412.044 623.33 407.524 623.33C402.004 623.33 397.964 624.4 395.164 626.59C391.964 629.09 390.414 633.85 390.414 639.34V654.64C390.414 664.77 396.014 670.56 407.534 670.56C411.404 670.56 417.264 669.49 421.524 668.31L421.814 668.23V658.88L421.794 658.89Z" fill="black"/>
<path d="M553.922 634.699V624.799H543.682V615.189H532.402V624.799H525.172V634.699H532.402V655.419C532.402 667.939 540.292 670.559 546.922 670.559C548.702 670.559 550.502 670.449 552.112 670.219V660.259C551.462 660.329 550.252 660.359 549.532 660.359C546.452 660.359 543.682 659.729 543.682 652.089V634.689H553.922V634.699Z" fill="black"/>
<path d="M489.733 650.741V650.561H515.163V641.481C515.163 635.571 513.543 630.241 510.353 627.341C507.413 624.671 502.773 623.311 497.253 623.311C485.073 623.311 478.453 629.221 478.453 639.591V654.451C478.453 664.701 483.833 670.551 496.313 670.551C500.973 670.551 506.283 669.561 511.963 668.401L512.353 668.321V659.051L511.703 659.201C507.133 660.251 504.613 661.141 500.283 661.141C494.073 661.141 489.733 658.621 489.733 652.201V650.721V650.741ZM489.733 639.721C489.733 634.071 493.793 632.741 497.163 632.741C500.533 632.741 504.063 634.071 504.063 639.721V643.231H489.733V642.711V639.721Z" fill="black"/>
<path d="M378.171 626.881H366.891V669.331H378.171V626.881Z" fill="black"/>
<path d="M372.534 622.22C376.416 622.22 379.564 619.073 379.564 615.19C379.564 611.308 376.416 608.16 372.534 608.16C368.651 608.16 365.504 611.308 365.504 615.19C365.504 619.073 368.651 622.22 372.534 622.22Z" fill="black"/>
<path d="M585.731 643.92H566.141V651.26H585.731V643.92Z" fill="black"/>
<path d="M777.526 1644.83V1669.03C777.526 1677.62 777.768 1681.85 778.494 1686.45H760.465C761.191 1682.34 761.433 1677.26 761.433 1669.27V1605.5C761.433 1598.85 761.191 1595.34 760.465 1589.77C765.426 1590.02 768.451 1590.14 775.832 1590.14H809.712C817.335 1590.14 821.207 1589.89 826.289 1589.29V1605.62C821.933 1605.02 817.456 1604.78 809.712 1604.78H777.526V1630.43H803.42C810.922 1630.43 815.157 1630.19 819.876 1629.58V1645.68C815.399 1645.07 810.801 1644.83 803.42 1644.83H777.526Z" fill="black"/>
<path d="M699.659 1644.83V1669.03C699.659 1677.62 699.901 1681.85 700.627 1686.45H682.598C683.324 1682.34 683.566 1677.26 683.566 1669.27V1605.5C683.566 1598.85 683.324 1595.34 682.598 1589.77C687.559 1590.02 690.584 1590.14 697.965 1590.14H731.845C739.468 1590.14 743.34 1589.89 748.422 1589.29V1605.62C744.066 1605.02 739.589 1604.78 731.845 1604.78H699.659V1630.43H725.553C733.055 1630.43 737.29 1630.19 742.009 1629.58V1645.68C737.532 1645.07 732.934 1644.83 725.553 1644.83H699.659Z" fill="black"/>
<path d="M623.078 1588.2C636.388 1588.2 646.673 1592.07 654.901 1600.3C663.734 1609.13 668.453 1622.32 668.453 1638.05C668.453 1668.66 650.666 1688.51 623.199 1688.51C595.732 1688.51 578.066 1668.79 578.066 1638.05C578.066 1622.44 582.906 1609.01 591.86 1600.3C600.209 1592.07 610.252 1588.2 623.078 1588.2ZM623.441 1674.11C640.744 1674.11 651.513 1660.32 651.513 1638.05C651.513 1625.83 648.125 1616.03 641.954 1609.86C636.993 1605.02 630.58 1602.48 623.32 1602.48C605.896 1602.48 594.885 1616.27 594.885 1638.17C594.885 1650.27 598.394 1660.44 604.686 1666.73C609.647 1671.57 616.06 1674.11 623.441 1674.11Z" fill="black"/>
<path d="M475.027 1684.64L551.136 1587.23L557.428 1592.07L481.198 1689.6L475.027 1684.64ZM544.723 1688.39C537.947 1688.39 532.381 1686.33 528.267 1682.22C523.669 1677.74 521.249 1670.48 521.249 1661.28C521.249 1652.21 523.669 1645.07 528.267 1640.47C532.381 1636.48 538.068 1634.3 544.723 1634.3C551.378 1634.3 557.065 1636.48 561.058 1640.47C565.656 1644.95 568.076 1652.21 568.076 1661.28C568.076 1670.48 565.656 1677.74 561.058 1682.22C556.944 1686.33 551.378 1688.39 544.723 1688.39ZM544.723 1644.59C541.214 1644.59 538.915 1645.68 536.979 1648.46C534.801 1651.48 533.712 1655.6 533.712 1661.04C533.712 1672.17 537.584 1678.22 544.723 1678.22C551.983 1678.22 555.734 1672.17 555.734 1660.44C555.734 1655.6 554.524 1651.24 552.467 1648.34C550.41 1645.68 548.232 1644.59 544.723 1644.59ZM487.732 1642.41C480.956 1642.41 475.39 1640.35 471.276 1636.24C466.678 1631.76 464.258 1624.38 464.258 1615.3C464.258 1598.36 472.97 1588.32 487.732 1588.32C494.387 1588.32 500.074 1590.5 504.067 1594.49C508.665 1598.97 511.085 1606.23 511.085 1615.3C511.085 1624.5 508.665 1631.76 504.067 1636.24C499.953 1640.35 494.387 1642.41 487.732 1642.41ZM487.732 1598.61C480.714 1598.61 476.721 1604.54 476.721 1615.06C476.721 1626.19 480.593 1632.24 487.732 1632.24C494.75 1632.24 498.743 1626.19 498.743 1615.3C498.743 1610.95 497.896 1606.59 496.565 1604.05C494.508 1600.3 491.725 1598.61 487.732 1598.61Z" fill="black"/>
<path d="M416.349 1688.39C406.064 1688.39 397.352 1685 390.939 1678.59C387.309 1674.96 384.526 1670.72 382.953 1666.37C379.807 1657.77 378.234 1648.34 378.234 1638.54C378.234 1625.71 381.138 1612.4 385.615 1605.02C392.149 1594.13 403.039 1588.2 416.47 1588.2C426.755 1588.2 435.588 1591.59 442.001 1598C445.631 1601.63 448.414 1605.87 449.987 1610.22C453.133 1618.69 454.706 1628.37 454.706 1638.29C454.706 1653.18 451.439 1666.24 445.752 1674.11C438.976 1683.55 428.933 1688.39 416.349 1688.39ZM416.47 1674.35C421.794 1674.35 426.513 1672.54 429.538 1669.27C434.983 1663.58 438.008 1652.33 438.008 1638.17C438.008 1624.14 434.983 1613.13 429.538 1607.2C426.634 1603.93 421.794 1602.11 416.349 1602.11C410.541 1602.11 406.306 1604.05 402.797 1608.29C397.473 1614.58 394.811 1624.5 394.811 1637.69C394.811 1650.39 397.11 1660.92 400.982 1666.49C404.733 1671.81 409.815 1674.35 416.47 1674.35Z" fill="black"/>
<path d="M341.461 1686.45H323.19C323.916 1681.73 324.158 1677.01 324.158 1670.72V1604.05H318.35C313.873 1604.05 310.364 1604.29 305.887 1604.78V1589.41C309.638 1590.02 312.3 1590.14 317.987 1590.14H329.119C335.29 1590.14 337.105 1590.02 341.461 1589.53C340.735 1596.67 340.493 1602.24 340.493 1609.5V1670.72C340.493 1677.14 340.735 1681.49 341.461 1686.45Z" fill="black"/>
<path d="M892.484 1485.15L886.676 1485.49C886.628 1484.62 886.58 1484.34 886.436 1483.23C885.524 1477.42 885.188 1473.73 885.188 1468.88C885.188 1462.69 885.764 1457.22 887.156 1450.11C887.684 1447.42 887.78 1446.94 887.876 1445.65L894.212 1446.32C893.06 1449.15 891.956 1454.53 891.188 1460.67C890.707 1464.27 890.516 1467.1 890.468 1471.28C890.468 1472.34 890.42 1472.72 890.372 1473.92C890.9 1472.24 890.996 1471.9 892.868 1467.58L896.708 1469.31C894.068 1474.88 892.436 1480.45 892.436 1483.86C892.436 1484.14 892.436 1484.53 892.484 1485.15ZM899.108 1456.4L899.204 1450.64C901.364 1451.22 903.907 1451.41 908.083 1451.41C913.411 1451.41 917.972 1450.98 921.14 1450.11L921.428 1455.92C921.044 1455.97 920.324 1456.06 918.02 1456.35C914.948 1456.74 911.299 1456.93 907.747 1456.93C904.243 1456.93 904.196 1456.93 899.108 1456.4ZM902.419 1464.32L907.124 1466.53C904.724 1469.31 903.716 1471.38 903.716 1473.44C903.716 1476.18 906.356 1477.62 911.348 1477.62C915.572 1477.62 919.748 1476.94 922.772 1475.79L923.252 1481.89C922.58 1481.94 922.388 1481.98 921.284 1482.18C917.444 1482.8 914.516 1483.09 911.348 1483.09C905.396 1483.09 901.556 1481.74 899.444 1478.91C898.532 1477.71 898.004 1475.94 898.004 1474.21C898.004 1471.09 899.443 1467.87 902.419 1464.32Z" fill="black"/>
<path d="M852.693 1450.69V1447.76C852.693 1446.18 852.597 1444.93 852.357 1443.78H858.549C858.357 1444.78 858.261 1446.03 858.261 1447.76V1450.69H871.461C874.149 1450.69 875.877 1450.59 877.509 1450.35V1456.16C876.021 1455.97 874.533 1455.87 871.653 1455.87H854.085C853.845 1459.47 853.845 1459.62 853.701 1461.06H866.997C869.493 1461.06 870.837 1461.01 871.941 1460.82C871.941 1461.06 871.941 1461.2 871.893 1461.3C871.797 1462.02 871.797 1462.59 871.701 1464.66C871.509 1471.86 870.885 1478.05 870.069 1481.5C868.965 1486.06 867.381 1487.26 862.581 1487.26C860.901 1487.26 859.797 1487.22 856.101 1486.93C855.909 1484.72 855.525 1483.14 854.709 1481.36C857.493 1481.79 859.701 1481.98 861.909 1481.98C864.021 1481.98 864.501 1481.46 865.125 1478.14C865.701 1475.26 865.989 1472.24 866.181 1466.1H852.933C850.917 1475.74 846.597 1481.89 837.525 1487.84C836.325 1485.73 835.413 1484.67 833.637 1483.28C837.861 1480.64 839.925 1478.96 842.229 1476.18C846.357 1471.23 847.989 1465.66 848.229 1455.87H840.357C837.957 1455.87 835.989 1455.97 834.357 1456.16V1450.35C836.085 1450.59 837.909 1450.69 840.357 1450.69H852.693Z" fill="black"/>
<path d="M811.558 1453.23C810.646 1460.77 808.966 1467.39 806.566 1472.82C803.83 1479.01 800.758 1481.84 796.822 1481.84C791.35 1481.84 787.414 1476.27 787.414 1468.54C787.414 1463.26 789.286 1458.32 792.694 1454.58C796.726 1450.16 802.39 1447.86 809.206 1447.86C820.726 1447.86 828.214 1454.86 828.214 1465.66C828.214 1473.97 823.894 1480.59 816.55 1483.57C814.246 1484.53 812.374 1485.01 809.014 1485.58C808.198 1483.04 807.622 1481.98 806.086 1479.97C810.502 1479.39 813.382 1478.62 815.638 1477.33C819.814 1475.02 822.31 1470.46 822.31 1465.33C822.31 1460.72 820.246 1456.98 816.406 1454.67C814.918 1453.81 813.67 1453.42 811.558 1453.23ZM805.702 1453.28C803.206 1453.57 801.478 1454.24 799.51 1455.63C795.478 1458.51 792.982 1463.46 792.982 1468.59C792.982 1472.53 794.662 1475.65 796.774 1475.65C798.358 1475.65 799.99 1473.63 801.718 1469.5C803.542 1465.18 805.126 1458.7 805.702 1453.28Z" fill="black"/>
<path d="M756.932 1451.12H750.932C749.636 1451.12 748.196 1451.22 746.324 1451.36V1445.6C747.716 1445.79 748.724 1445.84 750.836 1445.84H758.468C760.436 1445.84 761.732 1445.79 762.836 1445.6C762.692 1446.99 762.692 1447.42 762.692 1448.62C762.692 1455.44 764.42 1461.78 767.828 1467.63C769.844 1470.99 772.196 1473.87 775.508 1476.85C777.956 1479.1 779.348 1480.11 782.612 1482.03C780.788 1483.81 779.876 1485.06 778.532 1487.46C773.732 1484.1 770.132 1480.59 766.868 1476.18C765.092 1473.82 764.036 1472 762.644 1469.07C761.396 1466.43 760.964 1465.23 760.196 1462.26C758.468 1468.4 756.548 1472.48 753.332 1476.75C750.26 1480.74 746.66 1484.1 741.428 1487.6C740.42 1485.49 739.316 1484.05 737.492 1482.56C741.572 1480.21 743.924 1478.38 747.14 1475.02C750.884 1471.14 753.812 1466 755.348 1460.82C756.308 1457.5 756.74 1455.01 756.932 1451.12Z" fill="black"/>
<path d="M717.189 1462.54H709.797C708.069 1462.54 707.061 1462.59 705.861 1462.78V1458.51C707.013 1458.7 708.021 1458.75 709.797 1458.75H712.101V1456.5H710.757C709.365 1456.5 708.261 1456.54 707.397 1456.69V1452.85C708.453 1452.99 708.453 1452.99 710.757 1453.04H712.101V1450.93H709.941C708.405 1450.93 707.493 1450.98 706.389 1451.12V1447.04C707.493 1447.23 708.357 1447.28 710.085 1447.28H712.101C712.101 1445.41 712.053 1444.83 711.813 1443.92H717.045C716.805 1444.78 716.757 1445.46 716.757 1447.28H722.277C722.277 1445.17 722.229 1444.83 721.989 1443.92H727.221C727.029 1444.88 726.933 1445.74 726.933 1447.28H729.813C731.493 1447.28 732.357 1447.23 733.317 1447.04V1451.12C732.165 1450.98 731.349 1450.93 729.861 1450.93H726.933V1453.04H728.997C730.389 1453.04 731.397 1452.99 732.261 1452.85V1456.69C731.397 1456.54 730.245 1456.5 728.901 1456.5H726.933V1458.75H730.053C732.021 1458.75 732.933 1458.7 733.893 1458.51V1462.78C732.837 1462.59 731.877 1462.54 730.005 1462.54H721.653V1464.66H727.173C729.093 1464.66 730.293 1464.61 731.637 1464.46C731.541 1465.14 731.445 1466.96 731.445 1468.5V1476.18C732.693 1476.13 733.221 1476.08 733.989 1475.94V1480.21C733.125 1480.06 732.741 1480.06 731.445 1480.02V1483.28C731.445 1486.88 730.389 1487.74 726.069 1487.74C724.677 1487.74 723.573 1487.74 721.749 1487.65C721.509 1485.25 721.461 1484.77 720.933 1483.38C722.565 1483.62 723.909 1483.71 724.917 1483.71C726.501 1483.71 726.885 1483.52 726.885 1482.61V1480.02H712.581V1482.13C712.581 1485.49 712.629 1486.35 712.773 1488.03H707.733C707.925 1486.26 707.973 1485.15 707.973 1482.13V1480.02C706.869 1480.02 706.197 1480.06 705.237 1480.26V1475.94C706.149 1476.08 706.773 1476.13 707.973 1476.18V1468.93C707.973 1466.96 707.925 1465.9 707.829 1464.51C709.029 1464.61 710.181 1464.66 712.341 1464.66H717.189V1462.54ZM717.189 1476.18V1473.87H712.581V1476.18H717.189ZM721.701 1476.18H726.885V1473.87H721.701V1476.18ZM717.189 1470.56V1468.3H712.581V1470.56H717.189ZM721.701 1470.56H726.885V1468.3H721.701V1470.56ZM716.757 1450.93V1453.04H722.277V1450.93H716.757ZM716.757 1456.5V1458.75H722.277V1456.5H716.757ZM701.589 1475.89H694.917C693.237 1475.89 692.421 1475.94 691.509 1476.03C691.605 1474.64 691.653 1472.67 691.653 1470.94V1450.11C691.653 1448.05 691.605 1446.9 691.461 1445.31C692.565 1445.41 693.669 1445.46 695.445 1445.46H701.109C702.885 1445.46 703.941 1445.41 704.901 1445.31C704.805 1446.37 704.757 1447.23 704.757 1449.63V1471.52C704.757 1474.35 704.757 1474.98 704.901 1476.03C703.845 1475.94 703.173 1475.89 701.589 1475.89ZM695.973 1449.92V1454.24H700.485V1449.92H695.973ZM695.973 1458.37V1462.59H700.485V1458.37H695.973ZM695.973 1466.77V1471.47H700.485V1466.77H695.973ZM694.053 1476.08L698.133 1478.1C696.789 1482.61 695.781 1484.72 693.573 1487.89C691.893 1486.45 691.077 1485.82 689.637 1485.06C691.893 1482.13 692.901 1480.02 694.053 1476.08ZM698.709 1478.1L702.453 1476.18C703.557 1479.44 704.613 1481.55 706.485 1484.19C705.333 1484.72 704.517 1485.3 702.693 1486.83C700.917 1483.76 700.005 1481.79 698.709 1478.1Z" fill="black"/>
<path d="M649.363 1453.57L649.795 1447.86C653.491 1448.72 657.763 1449.06 664.195 1449.06C670.291 1449.06 673.699 1448.82 676.867 1448.14L677.059 1453.57C674.179 1454.82 668.275 1458.51 664.243 1461.49L660.067 1458.18C663.091 1456.26 663.619 1455.92 664.819 1455.25C665.299 1454.96 665.443 1454.86 666.067 1454.48C666.451 1454.29 666.499 1454.29 667.123 1453.9C665.011 1454.19 662.947 1454.29 659.923 1454.29C657.475 1454.29 653.491 1454.05 651.139 1453.71C650.563 1453.66 650.227 1453.62 650.035 1453.62C649.939 1453.62 649.699 1453.57 649.363 1453.57ZM652.915 1464.42L657.091 1467.58C654.067 1470.13 652.723 1472.14 652.723 1474.21C652.723 1477.33 656.227 1478.67 664.339 1478.67C670.051 1478.67 676.339 1477.81 679.411 1476.61L679.939 1483.18C679.075 1483.23 678.931 1483.23 677.827 1483.38C672.067 1484.24 668.995 1484.48 664.867 1484.48C659.635 1484.48 655.411 1483.95 652.867 1482.9C648.739 1481.26 646.723 1478.62 646.723 1474.88C646.723 1471.18 648.595 1468.02 652.915 1464.42ZM685.891 1462.45L682.579 1464.32C681.139 1461.68 679.555 1459.42 677.683 1457.36L680.899 1455.68C683.059 1457.89 684.403 1459.71 685.891 1462.45ZM671.779 1460.19L675.139 1458.51C677.251 1460.77 678.547 1462.59 680.179 1465.57L676.819 1467.34C675.235 1464.42 673.891 1462.5 671.779 1460.19Z" fill="black"/>
<path d="M617.395 1463.17V1480.83H631.219C633.763 1480.83 635.923 1480.74 637.699 1480.54V1486.3C635.683 1486.06 633.715 1485.97 631.315 1485.97H600.835C598.579 1485.97 596.371 1486.06 594.211 1486.3V1480.54C596.083 1480.74 598.099 1480.83 600.835 1480.83H611.779V1449.82C611.779 1447.71 611.683 1446.27 611.443 1444.3H617.731C617.491 1446.08 617.395 1447.66 617.395 1449.82V1458.03H628.675C630.787 1458.03 632.515 1457.94 634.243 1457.74V1463.46C632.515 1463.26 630.691 1463.17 628.675 1463.17H617.395Z" fill="black"/>
<path d="M579.86 1444.74L585.908 1444.83C585.86 1445.36 585.86 1445.36 585.428 1451.5C585.188 1455.82 584.228 1461.2 583.124 1464.9C582.356 1467.39 581.444 1469.5 580.1 1471.9C582.548 1476.18 585.908 1479.49 590.564 1482.22C589.172 1483.86 588.212 1485.44 587.204 1487.7C582.98 1484.67 579.716 1481.17 576.884 1476.61C572.996 1481.5 568.004 1485.06 560.804 1488.08C559.7 1485.92 558.884 1484.67 557.732 1483.33C566.18 1480.06 571.364 1476.18 574.868 1470.51C578.324 1464.94 580.052 1457.41 580.052 1447.9C580.052 1446.37 580.004 1445.84 579.86 1444.74ZM550.82 1475.74L550.58 1450.59C550.532 1448.05 550.436 1446.61 550.196 1444.88H556.292C556.148 1446.22 556.052 1447.66 556.052 1449.58V1450.64L556.292 1473.54C560.708 1471.57 565.412 1469.07 568.628 1467.01L569.78 1472.05C563.828 1475.7 559.796 1477.76 550.916 1481.6C549.092 1482.42 548.756 1482.56 547.556 1483.14L546.02 1477.28C547.7 1476.9 548.516 1476.61 550.82 1475.74ZM560.228 1450.59L564.836 1447.66C568.628 1451.5 570.788 1454.19 574.34 1459.42L569.396 1462.83C565.748 1456.78 564.596 1455.25 560.228 1450.59Z" fill="black"/>
<path d="M505.555 1469.12V1481.98C505.555 1485.01 505.603 1486.45 505.795 1487.55H499.891C500.083 1486.02 500.179 1484.29 500.179 1481.79V1450.4C500.179 1448.38 500.131 1447.18 499.987 1445.79C501.523 1445.94 502.771 1445.98 505.315 1445.98H534.499C537.139 1445.98 538.579 1445.94 539.731 1445.79C539.587 1447.18 539.539 1448.43 539.539 1451.02V1481.79C539.539 1484.24 538.963 1485.58 537.571 1486.3C536.659 1486.78 535.123 1486.98 532.531 1486.98C530.659 1486.98 528.019 1486.88 526.147 1486.78C525.859 1484.91 525.523 1483.57 524.659 1481.6C527.827 1481.94 530.227 1482.13 531.955 1482.13C533.827 1482.13 534.115 1481.98 534.115 1480.83V1469.12H505.555ZM516.931 1464.08V1451.07H505.555V1464.08H516.931ZM522.115 1464.08H534.115V1451.07H522.115V1464.08Z" fill="black"/>
<path d="M478.682 1485.34C474.602 1485.34 471.146 1484 468.602 1481.46C467.162 1480.02 466.058 1478.34 465.434 1476.61C464.186 1473.2 463.562 1469.46 463.562 1465.57C463.562 1460.48 464.714 1455.2 466.49 1452.27C469.082 1447.95 473.402 1445.6 478.73 1445.6C482.81 1445.6 486.314 1446.94 488.858 1449.49C490.298 1450.93 491.402 1452.61 492.026 1454.34C493.274 1457.7 493.898 1461.54 493.898 1465.47C493.898 1471.38 492.602 1476.56 490.346 1479.68C487.658 1483.42 483.674 1485.34 478.682 1485.34ZM478.73 1479.78C480.842 1479.78 482.714 1479.06 483.914 1477.76C486.074 1475.5 487.274 1471.04 487.274 1465.42C487.274 1459.86 486.074 1455.49 483.914 1453.14C482.762 1451.84 480.842 1451.12 478.682 1451.12C476.378 1451.12 474.698 1451.89 473.306 1453.57C471.194 1456.06 470.138 1460 470.138 1465.23C470.138 1470.27 471.05 1474.45 472.586 1476.66C474.074 1478.77 476.091 1479.78 478.73 1479.78Z" fill="black"/>
<path d="M444.511 1485.34C440.431 1485.34 436.975 1484 434.431 1481.46C432.991 1480.02 431.887 1478.34 431.263 1476.61C430.015 1473.2 429.391 1469.46 429.391 1465.57C429.391 1460.48 430.543 1455.2 432.319 1452.27C434.911 1447.95 439.231 1445.6 444.559 1445.6C448.639 1445.6 452.143 1446.94 454.687 1449.49C456.127 1450.93 457.231 1452.61 457.855 1454.34C459.103 1457.7 459.727 1461.54 459.727 1465.47C459.727 1471.38 458.431 1476.56 456.175 1479.68C453.487 1483.42 449.503 1485.34 444.511 1485.34ZM444.559 1479.78C446.671 1479.78 448.543 1479.06 449.743 1477.76C451.903 1475.5 453.103 1471.04 453.103 1465.42C453.103 1459.86 451.903 1455.49 449.743 1453.14C448.591 1451.84 446.671 1451.12 444.511 1451.12C442.207 1451.12 440.527 1451.89 439.135 1453.57C437.023 1456.06 435.967 1460 435.967 1465.23C435.967 1470.27 436.879 1474.45 438.415 1476.66C439.903 1478.77 441.919 1479.78 444.559 1479.78Z" fill="black"/>
<path d="M424.403 1454.19L417.923 1455.73C416.675 1452.22 414.899 1450.88 411.491 1450.88C408.083 1450.88 405.587 1452.56 403.955 1455.87C402.755 1458.37 402.227 1460.67 401.987 1464.37C404.579 1460.86 407.411 1459.57 412.259 1459.57C417.155 1459.57 421.283 1461.68 423.395 1465.28C424.547 1467.15 425.123 1469.65 425.123 1472.48C425.123 1480.06 419.363 1485.44 411.203 1485.44C407.363 1485.44 403.811 1484.29 401.459 1482.27C397.907 1479.2 395.891 1473.44 395.891 1466.19C395.891 1460.29 397.379 1454.62 399.827 1451.36C402.659 1447.52 406.499 1445.65 411.539 1445.65C415.667 1445.65 419.075 1446.9 421.379 1449.3C422.627 1450.59 423.347 1451.7 424.403 1454.19ZM411.155 1464.8C406.451 1464.8 402.947 1468.06 402.947 1472.48C402.947 1476.85 406.355 1480.06 411.059 1480.06C413.843 1480.06 416.291 1478.82 417.635 1476.7C418.355 1475.6 418.739 1474.02 418.739 1472.34C418.739 1467.58 415.907 1464.8 411.155 1464.8Z" fill="black"/>
<path d="M390.345 1477.57V1484.58C390.345 1488.7 389.289 1490.24 385.401 1491.78L383.673 1489.23C386.601 1488.42 387.273 1487.55 387.321 1484.58H383.289V1477.57H390.345Z" fill="black"/>
<path d="M377.293 1454.19L370.813 1455.73C369.565 1452.22 367.789 1450.88 364.381 1450.88C360.973 1450.88 358.477 1452.56 356.845 1455.87C355.645 1458.37 355.117 1460.67 354.877 1464.37C357.469 1460.86 360.301 1459.57 365.149 1459.57C370.045 1459.57 374.173 1461.68 376.285 1465.28C377.437 1467.15 378.013 1469.65 378.013 1472.48C378.013 1480.06 372.253 1485.44 364.093 1485.44C360.253 1485.44 356.701 1484.29 354.349 1482.27C350.797 1479.2 348.781 1473.44 348.781 1466.19C348.781 1460.29 350.269 1454.62 352.717 1451.36C355.549 1447.52 359.389 1445.65 364.429 1445.65C368.557 1445.65 371.965 1446.9 374.269 1449.3C375.517 1450.59 376.237 1451.7 377.293 1454.19ZM364.045 1464.8C359.341 1464.8 355.837 1468.06 355.837 1472.48C355.837 1476.85 359.245 1480.06 363.949 1480.06C366.733 1480.06 369.181 1478.82 370.525 1476.7C371.245 1475.6 371.629 1474.02 371.629 1472.34C371.629 1467.58 368.797 1464.8 364.045 1464.8Z" fill="black"/>
<path d="M325.308 1450.26H320.46C318.828 1450.26 317.676 1450.3 316.476 1450.5V1445.31C317.532 1445.5 318.54 1445.55 320.46 1445.55H327.324C328.86 1445.55 329.916 1445.5 330.828 1445.36C330.732 1446.46 330.732 1447.14 330.732 1447.95C330.732 1452.66 331.836 1457.5 333.9 1461.87C336.348 1467.15 339.228 1470.46 344.46 1474.21C343.116 1475.84 342.3 1477.18 341.292 1479.25C337.788 1476.61 335.82 1474.69 333.612 1471.76C331.212 1468.54 329.868 1465.62 328.236 1460.38C327.036 1465.47 325.692 1468.5 323.004 1472.1C321.228 1474.54 319.74 1476.08 316.524 1478.67C315.228 1476.94 314.508 1476.18 312.732 1474.5C315.66 1472.38 317.1 1470.94 319.068 1468.35C321.612 1464.94 323.436 1461.01 324.396 1456.93C324.876 1454.96 325.068 1453.57 325.308 1450.26ZM301.164 1447.95L305.004 1444.35C308.46 1447.38 311.052 1450.06 313.404 1453.14L309.42 1457.02C306.444 1452.99 304.908 1451.31 301.164 1447.95ZM300.444 1466.96V1461.68C301.692 1461.87 302.46 1461.92 304.284 1461.92H308.22C309.66 1461.92 310.764 1461.87 311.868 1461.68C311.724 1463.26 311.676 1464.27 311.676 1466.96V1476.99C312.396 1478.53 312.828 1479.01 314.412 1480.06C316.716 1481.5 319.212 1481.84 327.468 1481.84C334.428 1481.84 340.524 1481.5 345.276 1480.83C344.46 1483.14 344.172 1484.34 343.836 1486.54C339.564 1486.69 332.604 1486.83 329.292 1486.83C321.42 1486.83 317.532 1486.54 315.036 1485.73C312.54 1484.96 310.812 1483.66 308.94 1481.22C307.404 1482.75 306.252 1483.76 303.996 1485.49C303.18 1486.11 302.892 1486.35 302.556 1486.64C302.076 1487.02 302.076 1487.02 301.836 1487.22L299.484 1481.74C301.548 1480.88 304.572 1478.86 306.636 1477.04V1466.72H303.708C302.364 1466.72 301.644 1466.77 300.444 1466.96Z" fill="black"/>
<path d="M259.355 1456.11V1450.98C257.723 1451.31 256.859 1451.46 254.363 1451.84C254.123 1450.54 253.595 1449.34 252.491 1447.42C257.819 1446.8 261.371 1445.94 265.067 1444.4C265.787 1444.11 266.507 1443.73 267.131 1443.3L270.107 1447.47C269.627 1447.66 269.579 1447.71 268.859 1448.05C267.227 1448.72 266.075 1449.15 264.347 1449.68V1456.11H265.835C267.419 1456.11 268.283 1456.06 269.195 1455.92V1460.91C268.235 1460.77 267.371 1460.72 265.835 1460.72H264.491C264.587 1460.96 264.587 1460.96 264.827 1461.39C266.267 1464.56 267.419 1466.24 269.915 1468.78L269.483 1469.65C268.619 1471.28 268.475 1471.62 267.755 1473.39C266.075 1471.23 265.691 1470.56 264.059 1467.06C264.203 1468.21 264.347 1470.99 264.347 1472.53V1482.13C264.347 1484.91 264.395 1486.45 264.635 1488.03H259.067C259.259 1486.35 259.355 1484.82 259.355 1482.13V1473.82C259.355 1472.91 259.547 1469.12 259.643 1467.92C258.347 1472.19 256.619 1475.5 253.835 1478.96C253.019 1476.66 252.491 1475.5 251.387 1473.97C253.403 1471.62 254.507 1469.94 255.899 1467.39C256.955 1465.42 258.155 1462.54 258.683 1460.72H256.283C254.411 1460.72 253.499 1460.77 252.443 1460.96V1455.87C253.547 1456.06 254.411 1456.11 256.283 1456.11H259.355ZM274.331 1453.28H283.547C285.467 1449.73 286.331 1447.52 287.435 1443.54L292.763 1445.26C290.555 1450.11 290.075 1451.12 288.779 1453.28H290.267C291.947 1453.28 292.907 1453.23 294.251 1453.09C294.107 1454.24 294.059 1455.01 294.059 1456.45V1465.28C294.059 1466.72 294.107 1467.68 294.251 1468.83C292.955 1468.69 291.803 1468.64 290.267 1468.64H288.107V1481.7C288.107 1482.61 288.347 1482.7 290.171 1482.7C292.139 1482.7 292.235 1482.46 292.331 1475.84C294.155 1477.04 295.403 1477.66 296.843 1478C296.507 1483.23 296.219 1484.72 295.355 1485.87C294.443 1487.17 292.907 1487.5 288.395 1487.5C284.267 1487.5 283.115 1486.59 283.115 1483.42V1468.64H280.091C279.707 1473.87 279.179 1476.51 277.835 1479.49C276.011 1483.57 273.707 1485.97 269.483 1488.27C268.427 1486.45 267.755 1485.63 265.931 1484.05C272.123 1481.22 275.003 1476.32 275.003 1468.64H274.283C272.747 1468.64 271.787 1468.69 270.491 1468.83C270.587 1467.73 270.635 1466.58 270.635 1465.23V1456.59C270.635 1455.44 270.587 1454.19 270.491 1453.09C271.883 1453.23 272.651 1453.28 274.331 1453.28ZM275.435 1457.89V1463.94H288.923V1457.89H275.435ZM280.427 1450.93L275.723 1453.04C274.235 1449.49 273.275 1447.66 271.787 1445.65L276.443 1443.49C278.267 1446.27 279.323 1448.29 280.427 1450.93Z" fill="black"/>
<path d="M215.771 1448.05V1446.8C215.771 1445.79 215.675 1444.88 215.531 1443.97H221.051C220.859 1444.88 220.811 1445.79 220.811 1446.8V1448.05H230.891V1446.8C230.891 1445.84 230.843 1444.93 230.651 1443.97H236.171C236.027 1444.83 235.931 1445.79 235.931 1446.8V1448.05H242.219C244.715 1448.05 246.251 1447.95 247.787 1447.76V1453.14C246.299 1452.94 244.811 1452.9 242.219 1452.9H235.931V1454C235.931 1455.06 235.979 1455.68 236.123 1456.59H230.747C230.843 1455.78 230.891 1455.1 230.891 1454.1V1452.9H220.811V1453.9C220.811 1455.15 220.859 1455.82 220.955 1456.59H216.107L220.571 1458.51C220.283 1458.9 220.235 1458.99 219.947 1459.57C218.843 1461.73 218.315 1462.59 217.163 1464.37V1482.37C217.163 1484.29 217.259 1485.87 217.499 1487.74H211.691C211.931 1485.82 211.979 1484.62 211.979 1482.37V1475.41C211.979 1473.87 212.027 1472 212.123 1470.27C210.395 1472.38 208.859 1473.82 206.171 1475.74C205.547 1473.87 204.731 1472.38 203.387 1470.7C208.811 1467.39 213.803 1461.49 215.435 1456.3L215.627 1456.4C215.723 1455.63 215.771 1454.86 215.771 1454V1452.9H210.299C207.611 1452.9 206.171 1452.94 204.683 1453.14V1447.76C206.267 1447.95 207.851 1448.05 210.299 1448.05H215.771ZM230.987 1472.72V1480.78C230.987 1481.36 231.131 1481.65 231.515 1481.84C232.043 1482.13 233.627 1482.27 235.595 1482.27C239.723 1482.27 241.259 1482.03 241.787 1481.31C242.363 1480.5 242.651 1478.43 242.843 1473.78C244.811 1474.88 245.675 1475.22 247.979 1475.79C247.259 1482.27 247.019 1483.42 246.107 1484.77C244.811 1486.54 242.363 1487.02 234.731 1487.02C227.147 1487.02 225.803 1486.3 225.803 1482.08V1462.59C225.803 1460.19 225.755 1459.09 225.515 1457.55H231.227C231.035 1459.14 230.987 1460.38 230.987 1462.4V1467.39C235.547 1465.28 240.107 1462.11 242.411 1459.57L246.539 1463.41C245.771 1463.89 245.771 1463.89 244.283 1464.99C242.603 1466.24 239.051 1468.54 237.179 1469.6C235.019 1470.85 234.779 1470.99 230.987 1472.72Z" fill="black"/>
<path d="M176.029 1457.89H166.237C164.269 1462.02 162.349 1464.9 159.709 1467.97C158.461 1466.14 157.357 1464.99 155.773 1463.89C159.373 1460.24 162.253 1455.2 163.885 1449.87C164.509 1447.81 164.749 1446.8 164.941 1445.41L170.413 1446.75C170.317 1447.14 170.317 1447.14 169.981 1448C169.837 1448.34 169.837 1448.38 169.501 1449.58C169.261 1450.3 168.829 1451.5 168.205 1453.18H176.029V1449.54C176.029 1447.04 175.933 1445.55 175.693 1443.78H181.837C181.645 1445.36 181.549 1446.94 181.549 1449.49V1453.18H191.533C193.981 1453.18 196.045 1453.09 198.013 1452.9V1458.18C195.949 1457.98 193.981 1457.89 191.677 1457.89H181.549V1466.72H189.853C192.253 1466.72 194.173 1466.62 195.757 1466.43V1471.71C194.029 1471.52 192.109 1471.42 189.853 1471.42H181.549V1481.6H193.069C195.805 1481.6 197.821 1481.5 199.741 1481.26V1486.74C197.485 1486.5 195.757 1486.4 193.213 1486.4H163.837C161.341 1486.4 159.277 1486.5 157.021 1486.74V1481.26C159.085 1481.5 161.149 1481.6 163.693 1481.6H176.029V1471.42H168.637C166.381 1471.42 164.461 1471.52 162.829 1471.71V1466.43C164.365 1466.62 165.949 1466.72 168.589 1466.72H176.029V1457.89Z" fill="black"/>
<path d="M711.755 1327.54H682.175C682.515 1331.28 683.127 1333.19 684.691 1335.16C686.663 1337.61 689.723 1338.97 693.191 1338.97C696.523 1338.97 699.379 1337.74 701.351 1335.57C702.167 1334.62 702.643 1333.87 703.323 1332.03L711.347 1334.62C709.783 1337.88 708.899 1339.17 707.199 1340.87C703.663 1344.34 698.903 1346.11 693.191 1346.11C681.155 1346.11 673.539 1338.08 673.539 1325.37C673.539 1312.79 681.087 1304.56 692.715 1304.56C700.671 1304.56 706.927 1308.5 709.647 1315.3C710.939 1318.57 711.415 1321.02 711.619 1325.64C711.619 1325.78 711.619 1325.98 711.755 1327.54ZM682.379 1320.81H702.915C702.439 1317.82 701.623 1315.98 699.923 1314.28C698.087 1312.45 695.775 1311.56 692.579 1311.56C687.275 1311.56 683.399 1315.1 682.379 1320.81ZM704.887 1293L690.267 1302.38L687.343 1299.32L699.039 1286.81L704.887 1293Z" fill="black"/>
<path d="M650.242 1295.31H659.966C659.694 1297.69 659.49 1300.62 659.49 1303.68V1305.78H662.346C665.542 1305.78 667.038 1305.72 669.214 1305.38V1313.4C666.97 1313.06 665.678 1312.99 662.55 1312.99H659.49V1334.07C659.49 1337.4 660.714 1338.63 663.978 1338.63C665.746 1338.63 666.834 1338.29 668.942 1337.13L670.166 1344.34C667.242 1345.43 665.202 1345.77 661.666 1345.77C653.846 1345.77 650.718 1342.98 650.718 1335.84V1312.99H648.134C645.618 1312.99 644.326 1313.06 642.082 1313.4V1305.38C644.054 1305.72 645.346 1305.78 648.202 1305.78H650.718V1303.68C650.718 1300.75 650.514 1297.76 650.242 1295.31Z" fill="black"/>
<path d="M640.708 1305.78L638.328 1314.35C635.472 1313.54 634.044 1313.26 632.276 1313.26C628.876 1313.26 626.292 1314.35 624.388 1316.6C622.688 1318.57 622.008 1320.13 621.6 1323.4V1335.98C621.6 1339.65 621.736 1341.62 622.076 1344.82H612.352C612.692 1341.48 612.828 1339.51 612.828 1335.98V1314.62C612.828 1310.48 612.76 1308.57 612.352 1305.78H621.6V1312.18C624.048 1307.35 628.264 1305.04 634.384 1305.04C636.016 1305.04 637.648 1305.24 640.708 1305.78Z" fill="black"/>
<path d="M605.505 1327.54H575.925C576.265 1331.28 576.877 1333.19 578.441 1335.16C580.413 1337.61 583.473 1338.97 586.941 1338.97C590.273 1338.97 593.129 1337.74 595.101 1335.57C595.917 1334.62 596.393 1333.87 597.073 1332.03L605.097 1334.62C603.533 1337.88 602.649 1339.17 600.949 1340.87C597.413 1344.34 592.653 1346.11 586.941 1346.11C574.905 1346.11 567.289 1338.08 567.289 1325.37C567.289 1312.79 574.837 1304.56 586.465 1304.56C594.421 1304.56 600.677 1308.5 603.397 1315.3C604.689 1318.57 605.165 1321.02 605.369 1325.64C605.369 1325.78 605.369 1325.98 605.505 1327.54ZM576.129 1320.81H596.665C596.189 1317.82 595.373 1315.98 593.673 1314.28C591.837 1312.45 589.525 1311.56 586.329 1311.56C581.025 1311.56 577.149 1315.1 576.129 1320.81Z" fill="black"/>
<path d="M529.95 1344.82H520.906C521.246 1341.82 521.382 1339.65 521.382 1335.64V1299.8C521.382 1296.33 521.246 1293.95 520.906 1290.69H530.494C530.154 1293.54 530.018 1295.79 530.018 1299.87V1306.67C530.018 1307.76 529.95 1309.46 529.882 1311.77C533.418 1307.01 537.634 1304.9 543.89 1304.9C555.314 1304.9 562.046 1312.31 562.046 1324.96C562.046 1331.62 560.142 1337.06 556.47 1340.87C553.274 1344.14 548.922 1345.77 543.414 1345.77C537.158 1345.77 533.282 1343.8 529.882 1339.04C529.95 1339.92 529.95 1340.67 529.95 1341.48V1344.82ZM553.206 1324.96C553.206 1317.14 549.126 1312.04 542.87 1312.04C539.062 1312.04 535.866 1313.33 533.622 1315.78C531.582 1318.02 530.29 1321.7 530.29 1325.23C530.29 1329.52 532.058 1333.8 534.778 1335.98C536.75 1337.54 539.402 1338.49 541.918 1338.49C548.786 1338.49 553.206 1333.19 553.206 1324.96Z" fill="black"/>
<path d="M502.445 1290.69H512.441V1299.32H502.445V1290.69ZM502.445 1305.78H512.373C512.033 1308.3 511.897 1310.54 511.897 1314.69V1335.91C511.897 1339.65 512.033 1341.96 512.373 1344.82H502.445C502.853 1341.76 502.989 1339.38 502.989 1335.98V1314.62C502.989 1310.88 502.853 1308.57 502.445 1305.78Z" fill="black"/>
<path d="M483.984 1290.69H493.844C493.504 1293.34 493.368 1295.52 493.368 1299.6V1335.98C493.368 1339.58 493.504 1341.82 493.844 1344.82H483.984C484.324 1341.89 484.46 1339.92 484.46 1335.98V1299.53C484.46 1295.45 484.324 1293.27 483.984 1290.69Z" fill="black"/>
<path d="M454.63 1327.54H425.05C425.39 1331.28 426.002 1333.19 427.566 1335.16C429.538 1337.61 432.598 1338.97 436.066 1338.97C439.398 1338.97 442.254 1337.74 444.226 1335.57C445.042 1334.62 445.518 1333.87 446.198 1332.03L454.222 1334.62C452.658 1337.88 451.774 1339.17 450.074 1340.87C446.538 1344.34 441.778 1346.11 436.066 1346.11C424.03 1346.11 416.414 1338.08 416.414 1325.37C416.414 1312.79 423.962 1304.56 435.59 1304.56C443.546 1304.56 449.802 1308.5 452.522 1315.3C453.814 1318.57 454.29 1321.02 454.494 1325.64C454.494 1325.78 454.494 1325.98 454.63 1327.54ZM425.254 1320.81H445.79C445.314 1317.82 444.498 1315.98 442.798 1314.28C440.962 1312.45 438.65 1311.56 435.454 1311.56C430.15 1311.56 426.274 1315.1 425.254 1320.81Z" fill="black"/>
<path d="M400.498 1344.82V1341.48C400.498 1340.67 400.498 1339.92 400.566 1339.04C397.03 1344 393.426 1345.77 386.83 1345.77C382.07 1345.77 378.466 1344.68 375.474 1342.3C370.918 1338.76 368.402 1332.58 368.402 1325.23C368.402 1312.79 375.542 1304.9 386.762 1304.9C390.978 1304.9 394.446 1305.92 397.098 1308.03C398.322 1308.98 399.07 1309.8 400.566 1311.77C400.566 1310.95 400.566 1310.95 400.498 1309.59C400.43 1309.12 400.43 1307.82 400.43 1306.67V1299.87C400.43 1295.79 400.294 1293.54 399.954 1290.69H409.542C409.202 1293.95 409.066 1296.33 409.066 1299.8V1335.64C409.066 1339.65 409.202 1341.82 409.542 1344.82H400.498ZM377.242 1325.3C377.242 1333.39 381.594 1338.49 388.394 1338.49C391.998 1338.49 395.466 1336.79 397.506 1334C399.206 1331.76 400.158 1328.43 400.158 1324.89C400.158 1321.56 398.866 1318.02 396.894 1315.85C394.786 1313.54 391.318 1312.04 388.054 1312.04C381.458 1312.04 377.242 1317.21 377.242 1325.3Z" fill="black"/>
<path d="M789.781 1228.73L799.097 1227.58C800.253 1232.2 802.769 1234.04 808.073 1234.04C813.105 1234.04 816.233 1232.06 816.233 1228.87C816.233 1227.51 815.553 1226.22 814.465 1225.47C813.173 1224.58 812.765 1224.52 807.325 1223.29C801.953 1222.14 799.845 1221.46 797.533 1220.37C793.657 1218.53 791.549 1215.27 791.549 1211.32C791.549 1208.94 792.297 1206.7 793.657 1205C796.445 1201.46 801.069 1199.7 807.257 1199.7C812.833 1199.7 817.253 1201.06 820.041 1203.64C821.809 1205.34 822.761 1207.04 823.713 1210.37L814.737 1211.53C813.989 1207.79 811.677 1206.16 807.257 1206.16C803.041 1206.16 800.185 1208.06 800.185 1210.92C800.185 1212.21 800.933 1213.36 802.293 1214.11C803.789 1214.86 805.217 1215.27 809.093 1216.15C816.029 1217.65 818.817 1218.6 821.061 1220.3C823.713 1222.2 825.005 1224.99 825.005 1228.73C825.005 1231.52 823.713 1234.51 821.673 1236.42C818.545 1239.34 813.785 1240.84 807.597 1240.84C800.593 1240.84 795.357 1238.73 792.433 1234.78C791.209 1233.15 790.597 1231.79 789.781 1228.73Z" fill="black"/>
<path d="M784.767 1222.54H755.187C755.527 1226.28 756.139 1228.19 757.703 1230.16C759.675 1232.61 762.735 1233.97 766.203 1233.97C769.535 1233.97 772.391 1232.74 774.363 1230.57C775.179 1229.62 775.655 1228.87 776.335 1227.03L784.359 1229.62C782.795 1232.88 781.911 1234.17 780.211 1235.87C776.675 1239.34 771.915 1241.11 766.203 1241.11C754.167 1241.11 746.551 1233.08 746.551 1220.37C746.551 1207.79 754.099 1199.56 765.727 1199.56C773.683 1199.56 779.939 1203.5 782.659 1210.3C783.951 1213.57 784.427 1216.02 784.631 1220.64C784.631 1220.78 784.631 1220.98 784.767 1222.54ZM755.391 1215.81H775.927C775.451 1212.82 774.635 1210.98 772.935 1209.28C771.099 1207.45 768.787 1206.56 765.591 1206.56C760.287 1206.56 756.411 1210.1 755.391 1215.81Z" fill="black"/>
<path d="M729.723 1185.69H739.583C739.243 1188.34 739.107 1190.52 739.107 1194.6V1230.98C739.107 1234.58 739.243 1236.82 739.583 1239.82H729.723C730.063 1236.89 730.199 1234.92 730.199 1230.98V1194.53C730.199 1190.45 730.063 1188.27 729.723 1185.69Z" fill="black"/>
<path d="M711.262 1185.69H721.122C720.782 1188.34 720.646 1190.52 720.646 1194.6V1230.98C720.646 1234.58 720.782 1236.82 721.122 1239.82H711.262C711.602 1236.89 711.738 1234.92 711.738 1230.98V1194.53C711.738 1190.45 711.602 1188.27 711.262 1185.69Z" fill="black"/>
<path d="M692.801 1185.69H702.797V1194.32H692.801V1185.69ZM692.801 1200.78H702.729C702.389 1203.3 702.253 1205.54 702.253 1209.69V1230.91C702.253 1234.65 702.389 1236.96 702.729 1239.82H692.801C693.209 1236.76 693.345 1234.38 693.345 1230.98V1209.62C693.345 1205.88 693.209 1203.57 692.801 1200.78Z" fill="black"/>
<path d="M674.517 1200.78H684.309C683.833 1203.71 683.765 1205.82 683.765 1209.62V1230.98C683.765 1234.72 683.901 1237.03 684.309 1239.82H675.061V1236.21C675.061 1235.19 675.061 1234.99 675.129 1233.29C671.389 1238.59 667.649 1240.56 661.189 1240.56C657.721 1240.56 655.273 1239.95 653.029 1238.59C649.289 1236.21 647.521 1232.4 647.521 1226.83V1209.62C647.521 1205.88 647.317 1203.3 646.977 1200.78H656.837C656.429 1203.84 656.361 1206.16 656.361 1209.62V1224.72C656.361 1228.66 657.381 1231.18 659.489 1232.47C660.509 1233.02 661.937 1233.42 663.229 1233.42C668.125 1233.42 672.001 1230.09 675.061 1223.36V1209.62C675.061 1206.29 674.857 1203.71 674.517 1200.78Z" fill="black"/>
<path d="M640.333 1222.54H610.753C611.093 1226.28 611.705 1228.19 613.269 1230.16C615.241 1232.61 618.301 1233.97 621.769 1233.97C625.101 1233.97 627.957 1232.74 629.929 1230.57C630.745 1229.62 631.221 1228.87 631.901 1227.03L639.925 1229.62C638.361 1232.88 637.477 1234.17 635.777 1235.87C632.241 1239.34 627.481 1241.11 621.769 1241.11C609.733 1241.11 602.117 1233.08 602.117 1220.37C602.117 1207.79 609.665 1199.56 621.293 1199.56C629.249 1199.56 635.505 1203.5 638.225 1210.3C639.517 1213.57 639.993 1216.02 640.197 1220.64C640.197 1220.78 640.197 1220.98 640.333 1222.54ZM610.957 1215.81H631.493C631.017 1212.82 630.201 1210.98 628.501 1209.28C626.665 1207.45 624.353 1206.56 621.157 1206.56C615.853 1206.56 611.977 1210.1 610.957 1215.81Z" fill="black"/>
<path d="M576.989 1207.92H574.269C571.685 1207.92 569.917 1208.06 567.809 1208.33V1200.38C569.713 1200.65 571.753 1200.78 574.201 1200.78H576.989V1197.18C576.989 1188.75 581.273 1184.8 590.521 1184.8C593.581 1184.8 595.825 1185.14 598.953 1186.16L597.117 1193.3C595.077 1192.15 593.377 1191.67 591.065 1191.67C587.121 1191.67 585.761 1193.3 585.761 1198V1200.78H588.957C591.677 1200.78 593.785 1200.65 596.641 1200.38V1208.33C594.261 1208.06 592.425 1207.92 589.093 1207.92H585.761V1230.98C585.761 1234.85 585.897 1236.82 586.237 1239.82H576.513C576.853 1236.62 576.989 1234.51 576.989 1230.98V1207.92Z" fill="black"/>
<path d="M541.986 1222.54H512.406C512.746 1226.28 513.358 1228.19 514.922 1230.16C516.894 1232.61 519.954 1233.97 523.422 1233.97C526.754 1233.97 529.61 1232.74 531.582 1230.57C532.398 1229.62 532.874 1228.87 533.554 1227.03L541.578 1229.62C540.014 1232.88 539.13 1234.17 537.43 1235.87C533.894 1239.34 529.134 1241.11 523.422 1241.11C511.386 1241.11 503.77 1233.08 503.77 1220.37C503.77 1207.79 511.318 1199.56 522.946 1199.56C530.902 1199.56 537.158 1203.5 539.878 1210.3C541.17 1213.57 541.646 1216.02 541.85 1220.64C541.85 1220.78 541.85 1220.98 541.986 1222.54ZM512.61 1215.81H533.146C532.67 1212.82 531.854 1210.98 530.154 1209.28C528.318 1207.45 526.006 1206.56 522.81 1206.56C517.506 1206.56 513.63 1210.1 512.61 1215.81Z" fill="black"/>
<path d="M486.941 1185.69H496.801C496.461 1188.34 496.325 1190.52 496.325 1194.6V1230.98C496.325 1234.58 496.461 1236.82 496.801 1239.82H486.941C487.281 1236.89 487.417 1234.92 487.417 1230.98V1194.53C487.417 1190.45 487.281 1188.27 486.941 1185.69Z" fill="black"/>
<path d="M468.48 1185.69H478.34C478 1188.34 477.864 1190.52 477.864 1194.6V1230.98C477.864 1234.58 478 1236.82 478.34 1239.82H468.48C468.82 1236.89 468.956 1234.92 468.956 1230.98V1194.53C468.956 1190.45 468.82 1188.27 468.48 1185.69Z" fill="black"/>
<path d="M450.02 1185.69H460.016V1194.32H450.02V1185.69ZM450.02 1200.78H459.948C459.608 1203.3 459.472 1205.54 459.472 1209.69V1230.91C459.472 1234.65 459.608 1236.96 459.948 1239.82H450.02C450.428 1236.76 450.564 1234.38 450.564 1230.98V1209.62C450.564 1205.88 450.428 1203.57 450.02 1200.78Z" fill="black"/>
<path d="M390.943 1239.82H381.355C381.695 1236.89 381.831 1234.65 381.831 1230.98V1209.62C381.831 1205.34 381.695 1203.37 381.355 1200.78H390.467V1204.25C390.467 1204.66 390.467 1205.68 390.399 1206.77C392.371 1202.62 397.403 1199.97 403.047 1199.97C406.719 1199.97 409.711 1200.99 411.819 1203.03C413.043 1204.12 413.587 1205 414.403 1207.11C416.715 1204.05 418.007 1202.82 420.115 1201.74C422.359 1200.51 424.671 1199.97 427.731 1199.97C432.083 1199.97 435.619 1201.33 437.931 1203.84C440.175 1206.29 441.127 1209.35 441.127 1214.18V1230.98C441.127 1234.78 441.263 1237.03 441.671 1239.82H431.743C432.151 1237.03 432.287 1234.99 432.287 1230.98V1215.74C432.287 1209.76 430.179 1207.04 425.623 1207.04C423.379 1207.04 421.679 1207.65 420.047 1209.08C417.667 1211.12 416.579 1213.3 415.763 1217.51V1230.98C415.763 1234.72 415.899 1237.03 416.239 1239.82H406.447C406.855 1236.96 406.991 1234.85 406.991 1230.98V1215.74C406.991 1210.03 404.815 1207.18 400.395 1207.18C397.539 1207.18 395.227 1208.33 393.391 1210.71C391.895 1212.68 391.215 1214.25 390.467 1217.51V1230.98C390.467 1234.65 390.603 1236.69 390.943 1239.82Z" fill="black"/>
<path d="M316.703 1228.73L326.019 1227.58C327.175 1232.2 329.691 1234.04 334.995 1234.04C340.027 1234.04 343.155 1232.06 343.155 1228.87C343.155 1227.51 342.475 1226.22 341.387 1225.47C340.095 1224.58 339.687 1224.52 334.247 1223.29C328.875 1222.14 326.767 1221.46 324.455 1220.37C320.579 1218.53 318.471 1215.27 318.471 1211.32C318.471 1208.94 319.219 1206.7 320.579 1205C323.367 1201.46 327.991 1199.7 334.179 1199.7C339.755 1199.7 344.175 1201.06 346.963 1203.64C348.731 1205.34 349.683 1207.04 350.635 1210.37L341.659 1211.53C340.911 1207.79 338.599 1206.16 334.179 1206.16C329.963 1206.16 327.107 1208.06 327.107 1210.92C327.107 1212.21 327.855 1213.36 329.215 1214.11C330.711 1214.86 332.139 1215.27 336.015 1216.15C342.951 1217.65 345.739 1218.6 347.983 1220.3C350.635 1222.2 351.927 1224.99 351.927 1228.73C351.927 1231.52 350.635 1234.51 348.595 1236.42C345.467 1239.34 340.707 1240.84 334.519 1240.84C327.515 1240.84 322.279 1238.73 319.355 1234.78C318.131 1233.15 317.519 1231.79 316.703 1228.73Z" fill="black"/>
<path d="M311.689 1222.54H282.109C282.449 1226.28 283.061 1228.19 284.625 1230.16C286.597 1232.61 289.657 1233.97 293.125 1233.97C296.457 1233.97 299.313 1232.74 301.285 1230.57C302.101 1229.62 302.577 1228.87 303.257 1227.03L311.281 1229.62C309.717 1232.88 308.833 1234.17 307.133 1235.87C303.597 1239.34 298.837 1241.11 293.125 1241.11C281.089 1241.11 273.473 1233.08 273.473 1220.37C273.473 1207.79 281.021 1199.56 292.649 1199.56C300.605 1199.56 306.861 1203.5 309.581 1210.3C310.873 1213.57 311.349 1216.02 311.553 1220.64C311.553 1220.78 311.553 1220.98 311.689 1222.54ZM282.313 1215.81H302.849C302.373 1212.82 301.557 1210.98 299.857 1209.28C298.021 1207.45 295.709 1206.56 292.513 1206.56C287.209 1206.56 283.333 1210.1 282.313 1215.81Z" fill="black"/>
<path d="M256.645 1185.69H266.505C266.165 1188.34 266.029 1190.52 266.029 1194.6V1230.98C266.029 1234.58 266.165 1236.82 266.505 1239.82H256.645C256.985 1236.89 257.121 1234.92 257.121 1230.98V1194.53C257.121 1190.45 256.985 1188.27 256.645 1185.69Z" fill="black"/>
</svg>
