<svg width="1080" height="1920" viewBox="0 0 1080 1920" fill="none" xmlns="http://www.w3.org/2000/svg">
<path d="M1080 1920L1080 0L0 0L0 1920H1080Z" fill="#A5D4AD"/>
<path d="M1020 983.72V95C1020 75.67 1004.33 60 985 60H95.58C75.93 60 60 75.93 60 95.58V983.71C60 984.03 60.25 984.28 60.57 984.28C80.03 984.59 95.71 1000.46 95.71 1019.99C95.71 1039.52 80.03 1055.39 60.57 1055.7C60.25 1055.7 60 1055.96 60 1056.27V1824.99C60 1844.32 75.67 1859.99 95 1859.99H985C1004.33 1859.99 1020 1844.32 1020 1824.99V1056.27C1020 1055.95 1019.75 1055.7 1019.43 1055.7C999.97 1055.39 984.29 1039.52 984.29 1019.99C984.29 1000.46 999.97 984.59 1019.43 984.28C1019.75 984.28 1020 984.02 1020 983.71V983.72Z" fill="white"/>
<path d="M60.57 1055.71C60.25 1055.71 60 1055.97 60 1056.28V1825C60 1844.33 75.67 1860 95 1860H985C1004.33 1860 1020 1844.33 1020 1825V1056.28C1020 1055.96 1019.75 1055.71 1019.43 1055.71C999.97 1055.4 984.29 1039.53 984.29 1020H95.71C95.71 1039.53 80.03 1055.4 60.57 1055.71Z" fill="#E5F2E6"/>
<path d="M121 1020H160.9" stroke="black" stroke-width="6" stroke-miterlimit="10"/>
<path d="M187.51 1020H227.41" stroke="black" stroke-width="6" stroke-miterlimit="10"/>
<path d="M254.02 1020H293.92" stroke="black" stroke-width="6" stroke-miterlimit="10"/>
<path d="M320.52 1020H360.43" stroke="black" stroke-width="6" stroke-miterlimit="10"/>
<path d="M387.029 1020H426.939" stroke="black" stroke-width="6" stroke-miterlimit="10"/>
<path d="M453.539 1020H493.439" stroke="black" stroke-width="6" stroke-miterlimit="10"/>
<path d="M520.051 1020H559.951" stroke="black" stroke-width="6" stroke-miterlimit="10"/>
<path d="M586.561 1020H626.461" stroke="black" stroke-width="6" stroke-miterlimit="10"/>
<path d="M653.061 1020H692.971" stroke="black" stroke-width="6" stroke-miterlimit="10"/>
<path d="M719.57 1020H759.48" stroke="black" stroke-width="6" stroke-miterlimit="10"/>
<path d="M786.08 1020H825.98" stroke="black" stroke-width="6" stroke-miterlimit="10"/>
<path d="M852.59 1020H892.49" stroke="black" stroke-width="6" stroke-miterlimit="10"/>
<path d="M919.1 1020H959" stroke="black" stroke-width="6" stroke-miterlimit="10"/>
<path d="M1020 984.29V95C1020 75.67 1004.33 60 985 60H95C75.67 60 60 75.67 60 95V984.29C79.72 984.29 95.71 1000.28 95.71 1020C95.71 1039.72 79.72 1055.71 60 1055.71V1825C60 1844.33 75.67 1860 95 1860H985C1004.33 1860 1020 1844.33 1020 1825V1055.71C1000.28 1055.71 984.29 1039.72 984.29 1020C984.29 1000.28 1000.28 984.29 1020 984.29Z" stroke="black" stroke-width="6" stroke-miterlimit="10"/>
<path d="M912.642 525.66C908.772 525.66 905.532 522.64 905.312 518.73C900.582 435.62 868.782 358.85 813.362 296.74C810.662 293.71 810.922 289.06 813.952 286.36C816.982 283.66 821.622 283.92 824.332 286.95C881.992 351.57 915.062 431.43 919.992 517.89C920.222 521.94 917.122 525.42 913.072 525.65C912.932 525.65 912.792 525.66 912.652 525.66H912.642Z" fill="black"/>
<path d="M818.842 795.509C817.102 795.509 815.352 794.889 813.952 793.639C810.922 790.939 810.662 786.289 813.362 783.259C868.782 721.149 900.582 644.379 905.312 561.269C905.542 557.219 909.022 554.109 913.072 554.349C917.122 554.579 920.222 558.049 919.992 562.109C915.062 648.579 881.992 728.439 824.332 793.049C822.882 794.679 820.862 795.509 818.842 795.509Z" fill="black"/>
<path d="M167.352 525.66C167.212 525.66 167.072 525.66 166.932 525.65C162.882 525.42 159.782 521.95 160.012 517.89C164.942 431.42 198.012 351.56 255.672 286.95C258.372 283.92 263.022 283.66 266.052 286.36C269.082 289.06 269.342 293.71 266.642 296.74C211.222 358.85 179.422 435.61 174.692 518.73C174.472 522.64 171.232 525.66 167.362 525.66H167.352Z" fill="black"/>
<path d="M261.162 795.509C259.142 795.509 257.122 794.679 255.672 793.049C198.012 728.429 164.942 648.569 160.012 562.109C159.782 558.059 162.882 554.579 166.932 554.349C170.982 554.109 174.462 557.219 174.692 561.269C179.422 644.389 211.222 721.149 266.642 783.259C269.342 786.289 269.082 790.939 266.052 793.639C264.652 794.889 262.902 795.509 261.162 795.509Z" fill="black"/>
<path d="M788.162 268.509C786.422 268.509 784.672 267.889 783.272 266.639C721.162 211.219 644.392 179.419 561.282 174.689C557.232 174.459 554.132 170.989 554.362 166.929C554.592 162.879 558.032 159.789 562.122 160.009C648.592 164.939 728.452 198.009 793.062 255.669C796.092 258.369 796.352 263.019 793.652 266.049C792.202 267.679 790.182 268.509 788.162 268.509Z" fill="black"/>
<path d="M291.842 268.51C289.822 268.51 287.802 267.68 286.352 266.05C283.652 263.02 283.912 258.37 286.942 255.67C351.562 198.01 431.422 164.94 517.882 160.01C521.932 159.78 525.412 162.88 525.642 166.93C525.872 170.98 522.772 174.46 518.722 174.69C435.612 179.42 358.842 211.22 296.732 266.64C295.332 267.89 293.582 268.51 291.842 268.51Z" fill="black"/>
<path d="M561.682 920C557.812 920 554.572 916.98 554.352 913.07C554.122 909.02 557.222 905.54 561.272 905.31C644.392 900.58 721.152 868.78 783.262 813.36C786.292 810.66 790.942 810.92 793.642 813.95C796.342 816.98 796.082 821.63 793.052 824.33C728.432 881.99 648.572 915.06 562.112 919.99C561.972 919.99 561.832 920 561.692 920H561.682Z" fill="black"/>
<path d="M518.312 920C518.172 920 518.032 920 517.892 919.99C431.422 915.06 351.562 881.99 286.952 824.33C283.922 821.63 283.662 816.98 286.362 813.95C289.062 810.92 293.712 810.66 296.742 813.36C358.852 868.78 435.622 900.58 518.732 905.31C522.782 905.54 525.882 909.01 525.652 913.07C525.432 916.98 522.192 920 518.322 920H518.312Z" fill="black"/>
<path d="M875.372 526.191C872.362 526.191 869.842 523.841 869.672 520.801C865.402 445.791 836.702 376.521 786.692 320.461C784.592 318.101 784.792 314.491 787.152 312.391C789.502 310.291 793.122 310.491 795.222 312.851C846.972 370.851 876.672 442.541 881.092 520.151C881.272 523.301 878.862 526.001 875.712 526.181C875.602 526.181 875.492 526.181 875.382 526.181L875.372 526.191Z" fill="black"/>
<path d="M790.952 769.062C789.592 769.062 788.242 768.582 787.152 767.612C784.792 765.512 784.592 761.892 786.692 759.542C836.702 703.492 865.402 634.212 869.672 559.202C869.852 556.052 872.542 553.642 875.702 553.822C878.852 554.002 881.262 556.702 881.082 559.852C876.662 637.472 846.972 709.152 795.212 767.152C794.082 768.422 792.512 769.062 790.942 769.062H790.952Z" fill="black"/>
<path d="M204.622 526.191C204.512 526.191 204.402 526.191 204.292 526.191C201.142 526.011 198.732 523.311 198.912 520.161C203.332 442.541 233.022 370.861 284.782 312.861C286.882 310.501 290.502 310.301 292.852 312.401C295.212 314.501 295.412 318.121 293.312 320.471C243.302 376.521 214.602 445.801 210.332 520.811C210.162 523.851 207.642 526.201 204.632 526.201L204.622 526.191Z" fill="black"/>
<path d="M289.042 769.061C287.472 769.061 285.902 768.411 284.772 767.151C233.022 709.151 203.322 637.461 198.902 559.851C198.722 556.701 201.132 554.001 204.282 553.821C207.442 553.631 210.132 556.051 210.312 559.201C214.582 634.211 243.282 703.491 293.292 759.541C295.392 761.901 295.192 765.511 292.832 767.611C291.742 768.581 290.382 769.061 289.032 769.061H289.042Z" fill="black"/>
<path d="M763.342 294.762C761.982 294.762 760.632 294.282 759.542 293.312C703.492 243.302 634.212 214.602 559.202 210.332C556.052 210.152 553.642 207.452 553.822 204.302C554.002 201.152 556.692 198.742 559.852 198.922C637.472 203.342 709.152 233.032 767.152 284.792C769.512 286.892 769.712 290.512 767.612 292.862C766.482 294.132 764.912 294.772 763.342 294.772V294.762Z" fill="black"/>
<path d="M316.651 294.761C315.081 294.761 313.511 294.111 312.381 292.851C310.281 290.491 310.481 286.881 312.841 284.781C370.841 233.031 442.531 203.331 520.141 198.911C523.291 198.721 525.991 201.141 526.171 204.291C526.351 207.441 523.941 210.141 520.791 210.321C445.781 214.591 376.511 243.291 320.451 293.301C319.361 294.271 318.001 294.751 316.651 294.751V294.761Z" fill="black"/>
<path d="M559.522 881.102C556.512 881.102 553.992 878.752 553.822 875.712C553.642 872.562 556.052 869.862 559.202 869.682C634.212 865.412 703.482 836.712 759.542 786.702C761.892 784.602 765.512 784.802 767.612 787.162C769.712 789.522 769.512 793.132 767.152 795.232C709.152 846.982 637.462 876.682 559.852 881.102C559.742 881.102 559.632 881.102 559.522 881.102Z" fill="black"/>
<path d="M520.481 881.102C520.371 881.102 520.261 881.102 520.151 881.102C442.531 876.682 370.851 846.992 312.851 795.232C310.491 793.132 310.291 789.512 312.391 787.162C314.491 784.802 318.111 784.602 320.461 786.702C376.511 836.722 445.791 865.412 520.801 869.682C523.951 869.862 526.361 872.562 526.181 875.712C526.011 878.752 523.491 881.102 520.481 881.102Z" fill="black"/>
<path d="M841.841 526.51C839.691 526.51 837.891 524.83 837.771 522.66C833.911 454.91 807.991 392.34 762.821 341.71C761.321 340.03 761.471 337.45 763.151 335.94C764.831 334.44 767.411 334.58 768.921 336.27C815.341 388.29 841.971 452.58 845.931 522.19C846.061 524.44 844.341 526.37 842.081 526.5C842.001 526.5 841.921 526.5 841.841 526.5V526.51Z" fill="black"/>
<path d="M765.862 745.101C764.892 745.101 763.922 744.761 763.142 744.061C761.462 742.561 761.312 739.981 762.812 738.291C807.982 687.661 833.902 625.091 837.762 557.341C837.892 555.091 839.852 553.391 842.072 553.491C844.322 553.621 846.042 555.551 845.922 557.801C841.952 627.411 815.322 691.701 768.912 743.721C768.102 744.621 766.982 745.081 765.862 745.081V745.101Z" fill="black"/>
<path d="M238.162 526.51C238.082 526.51 238.002 526.51 237.922 526.51C235.672 526.38 233.952 524.45 234.072 522.2C238.042 452.59 264.672 388.3 311.082 336.28C312.582 334.6 315.162 334.45 316.852 335.95C318.532 337.45 318.682 340.03 317.182 341.72C272.012 392.35 246.092 454.92 242.232 522.67C242.112 524.84 240.312 526.52 238.162 526.52V526.51Z" fill="black"/>
<path d="M314.131 745.101C313.011 745.101 311.891 744.641 311.081 743.741C264.661 691.721 238.031 627.431 234.071 557.821C233.941 555.571 235.661 553.641 237.921 553.511C240.161 553.401 242.101 555.101 242.231 557.361C246.091 625.111 272.011 687.681 317.181 738.311C318.681 739.991 318.531 742.571 316.851 744.081C316.071 744.771 315.101 745.121 314.131 745.121V745.101Z" fill="black"/>
<path d="M741.01 318.219C740.04 318.219 739.07 317.879 738.29 317.179C687.66 272.009 625.09 246.089 557.34 242.229C555.09 242.099 553.37 240.169 553.49 237.919C553.62 235.669 555.54 233.959 557.8 234.069C627.41 238.039 691.7 264.669 743.73 311.079C745.41 312.579 745.56 315.159 744.06 316.849C743.25 317.749 742.13 318.209 741.01 318.209V318.219Z" fill="black"/>
<path d="M338.991 318.22C337.871 318.22 336.751 317.76 335.941 316.86C334.441 315.18 334.591 312.6 336.271 311.09C388.291 264.67 452.581 238.04 522.191 234.08C524.441 233.96 526.371 235.67 526.501 237.93C526.631 240.18 524.91 242.11 522.65 242.24C454.9 246.1 392.331 272.02 341.701 317.19C340.921 317.88 339.951 318.23 338.981 318.23L338.991 318.22Z" fill="black"/>
<path d="M557.561 845.929C555.411 845.929 553.611 844.249 553.491 842.079C553.361 839.829 555.081 837.899 557.341 837.769C625.091 833.909 687.661 807.989 738.291 762.819C739.971 761.319 742.551 761.469 744.061 763.149C745.561 764.829 745.411 767.409 743.731 768.919C691.711 815.339 627.421 841.969 557.801 845.929C557.721 845.929 557.641 845.929 557.561 845.929Z" fill="black"/>
<path d="M522.431 845.929C522.351 845.929 522.271 845.929 522.191 845.929C452.581 841.959 388.291 815.329 336.271 768.919C334.591 767.419 334.441 764.839 335.941 763.149C337.441 761.469 340.021 761.319 341.711 762.819C392.341 807.989 454.911 833.909 522.661 837.769C524.911 837.899 526.631 839.829 526.511 842.079C526.391 844.249 524.591 845.929 522.441 845.929H522.431Z" fill="black"/>
<path d="M320.642 546.17C320.642 544.6 321.782 543.27 323.332 543.02C324.632 542.81 326.262 542.52 327.972 542.12C332.392 541.08 337.582 539.11 343.402 536.27C349.282 533.4 354.912 529.41 359.162 523.67C366.332 513.97 367.852 501.4 368.182 496.89C368.252 495.97 367.522 495.19 366.592 495.19H317.082C315.322 495.19 313.902 493.76 313.902 492.01V470.69C313.902 468.93 315.332 467.51 317.082 467.51H367.062C367.942 467.51 368.652 466.8 368.652 465.92V447.18C368.652 446.3 367.942 445.59 367.062 445.59H328.612C326.852 445.59 325.432 444.16 325.432 442.41V421.09C325.432 419.33 326.862 417.91 328.612 417.91H428.952C430.712 417.91 432.132 419.34 432.132 421.09V442.41C432.132 444.17 430.702 445.59 428.952 445.59H398.512C397.632 445.59 396.922 446.3 396.922 447.18V465.92C396.922 466.8 397.632 467.51 398.512 467.51H438.572C440.332 467.51 441.752 468.94 441.752 470.69V492.01C441.752 493.77 440.322 495.19 438.572 495.19H398.382C397.532 495.19 396.832 495.86 396.792 496.71C396.562 501.75 395.142 518.44 386.172 532.85C380.722 541.61 373.642 548.26 366.532 553.54C359.402 558.84 352.252 562.93 345.262 565.7C338.232 568.49 332.332 570.44 327.742 571.51C326.652 571.76 325.482 571.99 324.392 572.18C322.442 572.53 320.652 571.03 320.652 569.04V546.16L320.642 546.17Z" fill="black"/>
<path d="M474.542 546.52C474.542 545.06 475.542 543.79 476.952 543.43C485.202 541.36 488.922 540.11 496.832 536.32C496.832 536.32 500.882 534.21 504.922 531.3C517.102 522.54 525.212 510.63 525.212 510.63C534.672 497.28 537.762 474.91 538.482 468.49C538.592 467.55 537.852 466.72 536.902 466.72H500.572C500.342 466.72 500.132 466.84 500.022 467.04L499.872 467.29C494.292 478.11 486.872 487.99 480.442 494.24C473.992 500.5 468.582 505.05 464.372 507.75L461.772 509.42C460.712 510.1 459.322 509.34 459.322 508.08V479.89C459.322 478.95 459.742 478.06 460.462 477.45C461.112 476.9 461.982 476.13 463.172 475.06C465.932 472.57 469.042 468.51 472.412 462.98C475.752 457.51 479.342 450.21 483.062 441.29C486.442 433.2 488.972 423.09 490.852 412.06C491.112 410.53 492.442 409.42 493.992 409.42H513.902C515.902 409.42 517.412 411.25 517.032 413.21C516.392 416.52 515.702 420.88 514.842 424.31C513.572 429.39 512.752 432.3 511.232 436.72C510.972 437.47 511.532 438.24 512.322 438.24H591.172C592.932 438.24 594.352 439.67 594.352 441.42V463.51C594.352 465.27 592.922 466.69 591.172 466.69H568.132C567.322 466.69 566.632 467.3 566.552 468.11C565.922 474.01 562.872 497.16 552.382 517.26C538.282 546 508.132 566.39 478.332 572.13C476.372 572.51 474.552 571 474.552 569V546.48L474.542 546.52Z" fill="black"/>
<path d="M675.893 411.029V468.869C675.893 469.749 676.603 470.459 677.483 470.459H764.513C765.393 470.459 766.103 469.749 766.103 468.869V411.029C766.103 410.149 765.393 409.439 764.513 409.439H677.483C676.603 409.439 675.893 410.149 675.893 411.029ZM738.453 452.739H702.293C701.413 452.739 700.703 452.029 700.703 451.149V446.869C700.703 445.989 701.413 445.279 702.293 445.279H738.453C739.333 445.279 740.043 445.989 740.043 446.869V451.149C740.043 452.029 739.333 452.739 738.453 452.739ZM738.453 434.449H702.293C701.413 434.449 700.703 433.739 700.703 432.859V428.749C700.703 427.869 701.413 427.159 702.293 427.159H738.453C739.333 427.159 740.043 427.869 740.043 428.749V432.859C740.043 433.739 739.333 434.449 738.453 434.449Z" fill="black"/>
<path d="M674.222 497.34H728.262C729.142 497.34 729.852 498.05 729.852 498.93V502.84C729.852 503.72 729.142 504.43 728.262 504.43H667.752C665.992 504.43 664.572 505.86 664.572 507.61V522.86C664.572 524.62 666.002 526.04 667.752 526.04H728.262C729.142 526.04 729.852 526.75 729.852 527.63V545.39C729.852 546.11 729.932 547.98 729.212 548.85C728.382 549.87 727.142 549.67 725.842 549.72C722.532 549.72 719.572 549.7 716.942 549.66C716.542 549.66 716.252 549.29 716.332 548.9C716.592 547.63 716.722 546.31 716.692 544.96C716.492 535.68 708.932 528.08 699.652 527.84C689.572 527.58 681.362 535.85 681.702 545.94C682.012 555.29 689.782 562.81 699.142 562.84C704.032 562.85 708.452 560.86 711.632 557.64C711.972 557.3 712.542 557.43 712.692 557.88C714.152 562.21 715.532 566.34 716.782 570.05C717.222 571.35 718.452 572.22 719.822 572.21C725.722 572.17 730.502 571.96 734.172 571.6C738.302 571.18 742.082 570.15 745.512 568.5C749.172 566.84 751.682 564.42 753.042 561.23C754.402 558.04 755.082 553.55 755.082 547.76V527.62C755.082 526.74 755.792 526.03 756.672 526.03H762.902C764.662 526.03 766.082 524.6 766.082 522.85V507.6C766.082 505.84 764.652 504.42 762.902 504.42H756.672C755.792 504.42 755.082 503.71 755.082 502.83V498.92C755.082 498.04 755.792 497.33 756.672 497.33H762.902C764.662 497.33 766.082 495.9 766.082 494.15V479.6C766.082 477.84 764.652 476.42 762.902 476.42H674.202C672.442 476.42 671.022 477.85 671.022 479.6V494.15C671.022 495.91 672.452 497.33 674.202 497.33L674.222 497.34Z" fill="black"/>
<path d="M668.822 409.439H650.252C649.392 409.439 648.572 409.789 647.972 410.399C635.222 423.349 618.282 434.569 612.122 438.479C610.772 439.329 610.272 441.059 610.942 442.499L620.692 463.569C621.622 465.569 624.252 466.049 625.822 464.499C646.112 444.459 664.442 419.799 670.112 411.959C670.872 410.909 670.112 409.439 668.822 409.439Z" fill="black"/>
<path d="M671.912 453.889V435.409C671.912 433.999 670.212 433.289 669.202 434.279C653.632 449.599 620.042 477.059 611.672 483.859C610.542 484.779 610.182 486.349 610.792 487.669L620.692 509.049C621.622 511.049 624.252 511.529 625.822 509.979C627.532 508.289 629.232 506.559 630.912 504.819C631.312 504.409 632.012 504.689 632.012 505.259V569.059C632.012 570.819 633.442 572.239 635.192 572.239H653.812C655.572 572.239 656.992 570.809 656.992 569.059V476.369C656.992 475.299 657.352 474.249 658.022 473.409C664.862 464.729 669.712 458.019 671.332 455.739C671.712 455.199 671.922 454.559 671.922 453.889H671.912Z" fill="black"/>
<path d="M653.263 623.33C640.843 623.33 634.803 628.28 634.803 638.47V655.6C634.803 665.67 640.843 670.56 653.263 670.56C659.133 670.56 663.473 669.48 666.553 667.27C669.993 664.8 671.733 660.87 671.733 655.59V638.46C671.733 628.27 665.693 623.32 653.273 623.32L653.263 623.33ZM646.083 639.3C646.083 633.93 648.833 632.91 653.263 632.91C657.693 632.91 660.443 633.95 660.443 639.3V654.68C660.443 659.95 657.593 660.98 653.263 660.98C648.933 660.98 646.083 659.98 646.083 654.68V639.3Z" fill="black"/>
<path d="M708.262 669.331H721.352L703.622 646.781L720.552 624.8H707.392L694.052 642.281V610.23H682.762V669.331H694.052V659.211L696.942 655.451L708.262 669.331Z" fill="black"/>
<path d="M754.812 624.801V653.291C754.812 659.041 751.872 660.891 746.822 660.891C743.552 660.891 740.272 660.351 740.272 653.881V624.811H728.992V656.771C728.992 665.741 733.702 670.481 742.612 670.481C749.292 670.481 753.872 666.861 755.572 662.801L757.382 669.341H766.102V624.811H754.822L754.812 624.801Z" fill="black"/>
<path d="M630.563 610.23H589.143V620.141V620.151H604.213V669.331H615.683V620.151H630.563V610.23Z" fill="black"/>
<path d="M459.681 669.331H472.771L455.041 646.781L471.971 624.8H458.811L445.471 642.281V610.23H434.191V669.331H445.471V659.211L448.361 655.451L459.681 669.331Z" fill="black"/>
<path d="M355.322 610.23H313.902V620.141V620.151H328.982V669.331H340.442V620.151H355.322V610.23Z" fill="black"/>
<path d="M421.792 658.89L421.192 659.04C417.612 659.96 413.282 660.89 409.402 660.89C404.852 660.89 401.682 658.82 401.682 652.83V640.97C401.682 634.9 404.852 632.82 409.402 632.82C413.352 632.82 417.872 633.7 421.222 634.4L421.802 634.52V625.19L421.492 625.12C417.682 624.23 412.042 623.33 407.522 623.33C402.002 623.33 397.962 624.4 395.162 626.59C391.962 629.09 390.412 633.85 390.412 639.34V654.64C390.412 664.77 396.012 670.56 407.532 670.56C411.402 670.56 417.262 669.49 421.522 668.31L421.812 668.23V658.88L421.792 658.89Z" fill="black"/>
<path d="M553.922 634.699V624.799H543.682V615.189H532.402V624.799H525.172V634.699H532.402V655.419C532.402 667.939 540.292 670.559 546.922 670.559C548.702 670.559 550.502 670.449 552.112 670.219V660.259C551.462 660.329 550.252 660.359 549.532 660.359C546.452 660.359 543.682 659.729 543.682 652.089V634.689H553.922V634.699Z" fill="black"/>
<path d="M489.733 650.741V650.561H515.163V641.481C515.163 635.571 513.543 630.241 510.353 627.341C507.413 624.671 502.773 623.311 497.253 623.311C485.073 623.311 478.453 629.221 478.453 639.591V654.451C478.453 664.701 483.833 670.551 496.313 670.551C500.973 670.551 506.283 669.561 511.963 668.401L512.353 668.321V659.051L511.703 659.201C507.133 660.251 504.613 661.141 500.283 661.141C494.073 661.141 489.733 658.621 489.733 652.201V650.721V650.741ZM489.733 639.721C489.733 634.071 493.793 632.741 497.163 632.741C500.533 632.741 504.063 634.071 504.063 639.721V643.231H489.733V642.711V639.721Z" fill="black"/>
<path d="M378.173 626.881H366.893V669.331H378.173V626.881Z" fill="black"/>
<path d="M372.532 622.22C376.415 622.22 379.562 619.073 379.562 615.19C379.562 611.308 376.415 608.16 372.532 608.16C368.649 608.16 365.502 611.308 365.502 615.19C365.502 619.073 368.649 622.22 372.532 622.22Z" fill="black"/>
<path d="M585.733 643.92H566.143V651.26H585.733V643.92Z" fill="black"/>
<path d="M712.457 1578.83V1603.03C712.457 1611.62 712.699 1615.85 713.425 1620.45H695.396C696.122 1616.34 696.364 1611.26 696.364 1603.27V1539.5C696.364 1532.85 696.122 1529.34 695.396 1523.77C700.357 1524.02 703.382 1524.14 710.763 1524.14H744.643C752.266 1524.14 756.138 1523.89 761.22 1523.29V1539.62C756.864 1539.02 752.387 1538.78 744.643 1538.78H712.457V1564.43H738.351C745.853 1564.43 750.088 1564.19 754.807 1563.58V1579.68C750.33 1579.07 745.732 1578.83 738.351 1578.83H712.457Z" fill="black"/>
<path d="M634.586 1578.83V1603.03C634.586 1611.62 634.828 1615.85 635.554 1620.45H617.525C618.251 1616.34 618.493 1611.26 618.493 1603.27V1539.5C618.493 1532.85 618.251 1529.34 617.525 1523.77C622.486 1524.02 625.511 1524.14 632.892 1524.14H666.772C674.395 1524.14 678.267 1523.89 683.349 1523.29V1539.62C678.993 1539.02 674.516 1538.78 666.772 1538.78H634.586V1564.43H660.48C667.982 1564.43 672.217 1564.19 676.936 1563.58V1579.68C672.459 1579.07 667.861 1578.83 660.48 1578.83H634.586Z" fill="black"/>
<path d="M558.006 1522.2C571.316 1522.2 581.601 1526.07 589.829 1534.3C598.662 1543.13 603.381 1556.32 603.381 1572.05C603.381 1602.66 585.594 1622.51 558.127 1622.51C530.66 1622.51 512.994 1602.79 512.994 1572.05C512.994 1556.44 517.834 1543.01 526.788 1534.3C535.137 1526.07 545.18 1522.2 558.006 1522.2ZM558.369 1608.11C575.672 1608.11 586.441 1594.32 586.441 1572.05C586.441 1559.83 583.053 1550.03 576.882 1543.86C571.921 1539.02 565.508 1536.48 558.248 1536.48C540.824 1536.48 529.813 1550.27 529.813 1572.17C529.813 1584.27 533.322 1594.44 539.614 1600.73C544.575 1605.57 550.988 1608.11 558.369 1608.11Z" fill="black"/>
<path d="M409.955 1618.64L486.064 1521.23L492.356 1526.07L416.126 1623.6L409.955 1618.64ZM479.651 1622.39C472.875 1622.39 467.309 1620.33 463.195 1616.22C458.597 1611.74 456.177 1604.48 456.177 1595.28C456.177 1586.21 458.597 1579.07 463.195 1574.47C467.309 1570.48 472.996 1568.3 479.651 1568.3C486.306 1568.3 491.993 1570.48 495.986 1574.47C500.584 1578.95 503.004 1586.21 503.004 1595.28C503.004 1604.48 500.584 1611.74 495.986 1616.22C491.872 1620.33 486.306 1622.39 479.651 1622.39ZM479.651 1578.59C476.142 1578.59 473.843 1579.68 471.907 1582.46C469.729 1585.48 468.64 1589.6 468.64 1595.04C468.64 1606.17 472.512 1612.22 479.651 1612.22C486.911 1612.22 490.662 1606.17 490.662 1594.44C490.662 1589.6 489.452 1585.24 487.395 1582.34C485.338 1579.68 483.16 1578.59 479.651 1578.59ZM422.66 1576.41C415.884 1576.41 410.318 1574.35 406.204 1570.24C401.606 1565.76 399.186 1558.38 399.186 1549.3C399.186 1532.36 407.898 1522.32 422.66 1522.32C429.315 1522.32 435.002 1524.5 438.995 1528.49C443.593 1532.97 446.013 1540.23 446.013 1549.3C446.013 1558.5 443.593 1565.76 438.995 1570.24C434.881 1574.35 429.315 1576.41 422.66 1576.41ZM422.66 1532.61C415.642 1532.61 411.649 1538.54 411.649 1549.06C411.649 1560.19 415.521 1566.24 422.66 1566.24C429.678 1566.24 433.671 1560.19 433.671 1549.3C433.671 1544.95 432.824 1540.59 431.493 1538.05C429.436 1534.3 426.653 1532.61 422.66 1532.61Z" fill="black"/>
<path d="M315.465 1598.91L332.163 1595.4C333.252 1598.91 334.099 1600.49 335.793 1602.42C339.181 1606.54 344.263 1608.59 350.676 1608.59C362.655 1608.59 370.52 1600.61 370.52 1588.63C370.52 1576.77 363.018 1569.15 351.523 1569.15C345.594 1569.15 340.27 1571.08 336.519 1574.71C334.825 1576.41 333.978 1577.5 332.889 1580.16L317.764 1578.71C318.974 1570.12 319.095 1569.51 319.337 1566.12L322.12 1536.11C322.241 1533.94 322.483 1529.82 322.604 1523.77C326.234 1524.01 329.017 1524.14 335.43 1524.14H365.196C373.545 1524.14 376.57 1524.01 382.015 1523.17V1538.41C376.691 1537.69 371.972 1537.45 365.317 1537.45H336.882L334.946 1558.62C334.825 1559.59 334.583 1561.28 334.22 1563.7C340.149 1558.62 346.562 1556.32 354.911 1556.32C364.712 1556.32 372.577 1559.23 378.506 1565.4C384.435 1571.2 387.097 1578.46 387.097 1588.14C387.097 1609.44 373.182 1622.63 350.676 1622.63C338.697 1622.63 329.743 1619.24 323.088 1612.1C319.821 1608.59 318.127 1605.69 315.465 1598.91Z" fill="black"/>
<path d="M742.944 1694.45L749.04 1694.78C748.464 1696.42 748.224 1697.66 747.312 1704.05C746.976 1706.06 746.784 1707.7 746.688 1708.85H746.832C746.928 1708.56 746.928 1708.56 747.12 1707.79C747.6 1706.11 748.848 1703.76 750.144 1702.08C752.784 1698.82 755.76 1697.18 759.264 1697.18C762.528 1697.18 765.408 1698.72 767.472 1701.5C769.872 1704.72 770.928 1708.61 770.928 1714.27C770.928 1723.54 766.608 1730.45 758.544 1734C756.096 1735.1 752.736 1736.06 749.136 1736.69C748.176 1733.95 747.648 1732.9 746.304 1731.02C751.104 1730.5 753.888 1729.78 756.816 1728.29C762.384 1725.46 764.928 1720.9 764.928 1713.6C764.928 1706.69 762.624 1702.85 758.496 1702.85C756.672 1702.85 754.992 1703.66 753.312 1705.39C749.568 1709.28 747.264 1715.18 747.264 1720.9C747.264 1721.14 747.264 1721.47 747.264 1721.9L741.504 1722C741.552 1721.71 741.552 1721.47 741.552 1721.38C741.552 1721.18 741.552 1720.9 741.552 1720.46C741.504 1719.07 741.408 1715.52 741.408 1714.56C741.408 1710.67 741.696 1705.34 742.08 1702.03L742.8 1696.08C742.896 1695.26 742.944 1695.07 742.944 1694.45Z" fill="black"/>
<path d="M714.001 1705.82L719.425 1707.36C719.233 1707.74 719.233 1707.74 718.849 1708.75C718.369 1710.1 718.321 1710.14 718.177 1710.58C720.145 1711.06 721.537 1711.73 723.169 1712.93C726.241 1715.23 727.729 1718.21 727.729 1722C727.729 1727.23 724.897 1731.31 719.473 1734C716.641 1735.39 713.905 1736.11 709.681 1736.54C709.153 1734.48 708.721 1733.62 707.137 1731.12C711.025 1731.07 713.473 1730.54 716.305 1729.2C720.145 1727.38 721.921 1725.02 721.921 1721.71C721.921 1718.69 719.953 1716.24 716.545 1715.09C713.905 1720.8 711.649 1724.26 708.193 1727.86C703.873 1732.42 699.601 1734.77 695.617 1734.77C691.153 1734.77 688.129 1731.36 688.129 1726.37C688.129 1722.43 689.809 1718.64 692.881 1715.62C694.801 1713.74 696.577 1712.54 699.457 1711.3C699.457 1709.76 699.553 1707.84 699.649 1705.54C699.121 1705.54 696.529 1705.49 691.873 1705.34C691.393 1705.34 691.057 1705.34 690.961 1705.34C690.817 1705.34 690.385 1705.34 689.857 1705.39V1700.02C692.017 1700.5 694.849 1700.74 698.833 1700.74C698.881 1700.74 698.929 1700.74 699.889 1700.74C699.937 1699.78 699.937 1699.78 700.081 1697.86C700.129 1697.23 700.177 1696.03 700.177 1695.12C700.177 1694.93 700.177 1694.74 700.081 1694.35L706.033 1694.64C705.649 1695.94 705.457 1697.18 705.169 1700.54C712.849 1700.11 719.665 1699.15 723.361 1698L723.601 1703.52C722.929 1703.57 722.737 1703.57 721.729 1703.71C716.449 1704.58 708.673 1705.3 704.833 1705.39C704.689 1707.46 704.641 1708.99 704.593 1710C707.185 1709.47 708.289 1709.38 711.217 1709.38C711.793 1709.38 712.177 1709.38 713.041 1709.47C713.569 1707.94 713.857 1706.93 714.001 1705.82ZM699.553 1716.77C697.441 1718.16 696.625 1718.88 695.665 1720.08C694.225 1721.95 693.505 1723.92 693.505 1725.94C693.505 1728.1 694.561 1729.44 696.241 1729.44C697.585 1729.44 698.881 1728.86 700.417 1727.62C699.793 1724.5 699.553 1721.42 699.553 1716.77ZM704.977 1724.02L705.073 1724.06C705.265 1723.78 705.265 1723.78 705.601 1723.39C707.857 1720.85 709.777 1717.78 711.553 1713.79C711.025 1713.74 710.785 1713.74 710.305 1713.74C708.193 1713.74 706.465 1713.98 704.545 1714.61C704.593 1719.02 704.593 1719.5 704.881 1722.86C704.929 1723.15 704.929 1723.15 704.929 1723.49C704.929 1723.73 704.929 1723.78 704.977 1724.02Z" fill="black"/>
<path d="M645.743 1708.13V1699.25C645.743 1697.52 645.695 1696.22 645.551 1694.98C646.991 1695.17 648.383 1695.22 650.975 1695.22H669.071C671.759 1695.22 673.295 1695.17 674.543 1694.98C674.399 1696.18 674.351 1697.38 674.351 1699.2V1708.08C674.351 1710.05 674.399 1711.25 674.543 1712.54C673.055 1712.4 672.095 1712.35 669.551 1712.35H650.543C648.047 1712.35 646.991 1712.4 645.551 1712.54C645.695 1711.2 645.743 1709.9 645.743 1708.13ZM650.879 1700.02V1707.7H669.167V1700.02H650.879ZM639.359 1732.75V1720.42C639.359 1718.69 639.311 1717.2 639.167 1715.81C640.607 1715.95 641.855 1716 643.823 1716H654.335C655.727 1716 656.783 1715.95 657.935 1715.86C657.791 1716.86 657.791 1717.58 657.791 1720.03V1732.85C657.791 1734.82 657.839 1736.11 657.983 1737.17H652.799V1735.44H644.447V1737.94H639.119C639.311 1736.54 639.359 1735.25 639.359 1732.75ZM644.399 1720.66V1730.78H652.799V1720.66H644.399ZM664.895 1716H676.607C678.575 1716 679.679 1715.95 680.879 1715.81C680.735 1717.15 680.687 1718.45 680.687 1720.42V1732.8C680.687 1735.39 680.735 1736.64 680.927 1737.94H675.551V1735.44H666.431V1737.94H661.295C661.391 1736.59 661.439 1735.63 661.439 1733.66V1719.79C661.439 1717.63 661.439 1716.86 661.343 1715.86C662.447 1715.95 663.455 1716 664.895 1716ZM666.431 1720.66V1730.78H675.599V1720.66H666.431Z" fill="black"/>
<path d="M602.159 1731.17V1722.96C602.159 1721.86 602.159 1721.57 602.063 1720.66C601.247 1721.09 600.815 1721.28 599.615 1721.81C598.895 1720.51 598.319 1719.7 597.263 1718.5V1732.08C597.263 1734.67 597.311 1736.21 597.551 1737.94H591.887C592.079 1736.16 592.175 1734.62 592.175 1732.13V1710.14C592.175 1708.66 592.127 1707.46 591.983 1706.02C592.751 1706.11 595.199 1706.21 596.735 1706.21H602.399C602.015 1704.77 601.391 1703.28 600.575 1701.94H595.535C593.183 1701.94 591.599 1701.98 590.207 1702.18V1697.04C591.935 1697.23 593.615 1697.33 595.871 1697.33H609.071V1696.08C609.071 1695.02 608.975 1694.06 608.831 1693.1H614.687L614.639 1693.58C614.495 1694.5 614.447 1695.22 614.447 1696.08V1697.33H628.319C630.719 1697.33 632.447 1697.23 633.983 1697.04V1702.18C632.591 1701.98 631.055 1701.94 628.655 1701.94H623.423C622.463 1704.24 622.079 1705.01 621.311 1706.21H627.503C629.999 1706.21 630.863 1706.16 632.015 1706.02C631.871 1707.26 631.823 1708.08 631.823 1710.14V1732.27C631.823 1736.35 630.335 1737.6 625.391 1737.6C624.815 1737.6 623.039 1737.55 620.063 1737.46C619.823 1735.34 619.679 1734.67 618.911 1732.66C618.191 1732.66 618.191 1732.66 617.855 1732.66H607.007V1734.77H601.967C602.111 1733.66 602.159 1732.85 602.159 1731.17ZM613.391 1710.77H609.599C608.975 1714.99 607.247 1717.49 603.215 1720.03C604.607 1720.08 604.895 1720.08 605.999 1720.08H617.903C619.727 1720.08 621.311 1720.03 621.887 1719.94C621.791 1721.18 621.743 1722.34 621.743 1723.44V1729.1C621.743 1730.59 621.791 1731.55 621.935 1732.7C623.231 1732.8 624.287 1732.85 625.103 1732.85C626.399 1732.85 626.735 1732.61 626.735 1731.55V1716.34C625.871 1718.11 624.623 1718.5 619.871 1718.5C616.751 1718.5 615.455 1718.3 614.591 1717.78C613.775 1717.3 613.391 1716.58 613.391 1715.42V1710.77ZM607.919 1706.21H615.791C616.607 1704.86 617.279 1703.42 617.759 1701.94H606.143C606.959 1703.47 607.295 1704.24 607.919 1706.21ZM604.607 1710.77H597.263V1717.63C602.111 1716.14 604.175 1714.22 604.607 1710.77ZM626.735 1712.98V1710.77H618.287V1713.55C618.287 1714.37 618.623 1714.51 620.879 1714.51C622.559 1714.51 623.231 1714.37 623.471 1713.94C623.711 1713.6 623.807 1712.83 623.807 1711.78C625.103 1712.35 625.775 1712.64 626.735 1712.98ZM607.055 1724.26V1728.48H617.135V1724.26H607.055Z" fill="black"/>
<path d="M550.415 1714.85L553.295 1710.96C555.551 1712.74 556.895 1713.98 558.527 1715.81C559.967 1712.21 560.687 1709.57 561.599 1704.43H554.591C552.383 1710.05 549.503 1714.66 545.375 1719.26C544.415 1717.15 543.935 1716.48 542.207 1714.66C546.095 1710.67 549.023 1705.63 550.991 1699.73C551.615 1697.81 552.239 1694.93 552.383 1693.44L557.903 1694.4C557.567 1695.36 557.375 1695.94 557.039 1697.18C556.703 1698.29 556.511 1698.96 556.223 1699.87H563.135C564.959 1699.87 565.871 1699.82 567.023 1699.73C566.831 1700.74 566.831 1700.93 566.591 1702.99C567.887 1705.82 568.751 1707.07 571.295 1709.95V1699.3C571.295 1696.85 571.199 1695.55 570.959 1693.78H576.863C576.575 1695.55 576.527 1696.8 576.527 1699.3V1714.9C577.823 1715.86 578.783 1716.48 581.087 1717.82C584.591 1719.89 585.167 1720.13 587.567 1721.04C586.511 1722.53 585.647 1724.21 584.783 1726.27C580.847 1724.21 579.407 1723.3 576.527 1721.18V1731.55C576.527 1734.43 576.623 1735.82 576.863 1737.94H570.959C571.199 1735.87 571.295 1734.24 571.295 1731.55V1716.77C568.415 1713.94 567.167 1712.45 565.535 1709.81C564.191 1716.05 562.031 1721.38 559.055 1725.84C556.127 1730.16 551.999 1734.34 547.055 1737.84C545.903 1735.97 544.751 1734.62 543.263 1733.47C545.759 1731.98 546.623 1731.31 548.927 1729.25C552.431 1726.08 554.255 1723.87 556.223 1720.46C554.447 1718.3 552.815 1716.77 550.415 1714.85Z" fill="black"/>
<path d="M530.016 1714.27H523.728C524.64 1716.91 524.928 1717.73 525.888 1719.5C528.288 1717.82 530.16 1716.14 531.168 1714.66L535.632 1717.82C535.104 1718.21 534.96 1718.35 534.432 1718.83C532.128 1720.85 530.016 1722.43 528.336 1723.44C531.168 1727.09 534.912 1729.82 538.944 1731.22C537.504 1732.99 536.496 1734.53 535.728 1736.35C530.496 1733.66 527.184 1730.74 523.92 1725.94C521.952 1723.06 519.984 1718.64 518.592 1714.27H517.296C516.528 1714.8 516.24 1715.04 515.328 1715.62C517.296 1717.63 518.64 1719.79 519.6 1722.62C520.608 1725.41 520.896 1727.04 520.896 1730.06C520.896 1736.06 518.88 1737.94 512.496 1737.94C511.92 1737.94 511.104 1737.89 510 1737.84C509.568 1735.44 509.28 1734.67 508.176 1732.75C509.904 1732.99 511.2 1733.14 512.256 1733.14C515.328 1733.14 515.856 1732.56 515.856 1729.3C515.856 1729.01 515.856 1728.82 515.76 1728.38C509.952 1732.03 503.664 1734.82 496.8 1736.78C496.032 1735.01 495.312 1733.86 494.016 1732.46C501.744 1730.74 509.136 1727.86 514.848 1724.3C514.56 1723.49 514.464 1723.25 514.176 1722.58C509.04 1725.41 503.232 1727.62 497.04 1729.15C496.08 1727.04 495.744 1726.46 494.688 1725.22C501.168 1723.97 506.928 1722.05 512.352 1719.31C511.92 1718.69 511.776 1718.5 511.248 1717.87C506.88 1719.94 502.08 1721.52 497.04 1722.48C496.224 1720.46 495.744 1719.65 494.736 1718.45C500.208 1717.68 505.584 1716.19 509.808 1714.27H503.616C501.696 1714.27 500.496 1714.32 498.912 1714.42C499.056 1713.41 499.104 1712.3 499.104 1710.19V1706.64C497.856 1707.46 497.376 1707.74 495.84 1708.56C495.216 1706.69 494.64 1705.63 493.488 1704.1C496.752 1702.7 499.776 1700.78 502.464 1698.48C504.864 1696.42 506.496 1694.59 507.696 1692.67L513.6 1693.63L511.776 1695.74H519.552C521.184 1695.74 523.632 1695.65 524.16 1695.55L526.848 1698C526.416 1698.48 526.224 1698.62 525.696 1699.25C524.4 1700.54 523.68 1701.26 522.24 1702.56H529.488C531.936 1702.56 533.232 1702.51 534.528 1702.37C534.384 1703.86 534.336 1704.82 534.336 1706.59V1710.19C534.336 1711.92 534.384 1713.17 534.528 1714.42C533.28 1714.32 532.032 1714.27 530.016 1714.27ZM504.864 1702.56H516.24C517.488 1701.46 518.256 1700.64 519.024 1699.68H508.128C506.928 1700.88 506.256 1701.46 504.864 1702.56ZM504.144 1709.86H513.888V1706.78H504.144V1709.86ZM518.832 1709.86H529.248V1706.78H518.832V1709.86Z" fill="black"/>
<path d="M455.183 1701.07V1698.38C455.183 1696.22 455.135 1695.17 454.895 1693.87H460.463C460.319 1695.17 460.223 1696.46 460.223 1698.38V1701.07H463.631C465.647 1701.07 466.799 1701.02 468.239 1700.78V1705.92C467.087 1705.82 466.463 1705.78 464.495 1705.78C464.159 1710.77 463.055 1715.62 461.231 1720.32C464.255 1724.16 464.639 1724.69 468.047 1729.49L464.255 1733.71C462.239 1730.26 461.519 1729.15 458.735 1725.41C456.047 1730.06 453.599 1733.09 449.183 1737.26C447.887 1735.15 447.119 1734.24 445.535 1732.8C449.951 1729.39 452.783 1725.98 455.375 1721.04C453.167 1718.26 450.527 1715.38 447.215 1712.21L450.719 1708.66C451.679 1709.62 451.679 1709.62 454.511 1712.54C454.895 1712.93 455.711 1713.84 457.535 1715.95C458.495 1712.83 459.167 1709.23 459.407 1705.78H450.527C448.751 1705.78 447.407 1705.82 446.063 1706.02V1700.78C447.503 1700.98 448.943 1701.07 450.815 1701.07H455.183ZM479.951 1708.37H473.855C471.791 1708.37 470.639 1708.42 469.295 1708.61V1703.33C470.591 1703.52 471.743 1703.57 473.855 1703.57H479.951V1699.78C479.951 1696.94 479.855 1695.41 479.615 1694.06H485.375C485.183 1695.55 485.087 1697.18 485.087 1699.78V1703.57H485.663C487.679 1703.57 488.975 1703.47 490.175 1703.28V1708.66C489.791 1708.61 489.791 1708.61 489.071 1708.51C488.591 1708.42 487.007 1708.37 485.711 1708.37H485.087V1731.55C485.087 1734.05 484.943 1734.86 484.223 1735.73C483.311 1736.88 481.583 1737.36 478.415 1737.36C476.447 1737.36 474.671 1737.31 472.751 1737.17C472.415 1734.77 472.079 1733.57 471.263 1731.84C472.991 1732.13 475.871 1732.42 477.071 1732.42C479.663 1732.42 479.951 1732.27 479.951 1731.26V1708.37ZM466.847 1713.7L471.167 1711.34C474.383 1715.71 475.727 1717.92 477.935 1722.43L473.567 1725.31C471.311 1720.03 469.727 1717.25 466.847 1713.7Z" fill="black"/>
<path d="M413.712 1698.34H418.032C420.192 1698.34 421.248 1698.29 422.4 1698.1V1703.28C421.392 1703.09 420.432 1703.04 418.368 1703.04H403.008C401.232 1703.04 400.128 1703.09 399.072 1703.28V1698.1C400.176 1698.29 401.28 1698.34 403.632 1698.34H408.528V1696.99C408.528 1695.65 408.432 1694.59 408.24 1693.63H413.952C413.808 1694.59 413.712 1695.6 413.712 1696.99V1698.34ZM417.264 1711.3H418.704C420.768 1711.3 421.92 1711.25 422.832 1711.06V1716.34C421.776 1716.14 420.528 1716.1 418.944 1716.1H402.864C400.512 1716.1 399.456 1716.14 398.064 1716.34V1711.06C399.36 1711.25 400.464 1711.3 402.912 1711.3H412.368C413.52 1708.61 414.24 1706.4 414.864 1703.47L419.808 1704.72C419.136 1707.02 418.32 1709.09 417.264 1711.3ZM402.192 1704.53L406.704 1703.09C407.808 1705.3 408.48 1707.12 409.2 1709.81L404.448 1711.25C403.776 1708.37 403.248 1706.74 402.192 1704.53ZM405.936 1735.01V1737.79H400.752C400.896 1736.45 400.944 1735.3 400.944 1733.28V1722.86C400.944 1720.9 400.896 1720.03 400.8 1718.93C401.904 1719.02 402.864 1719.07 404.64 1719.07H417.024C418.992 1719.07 419.808 1719.02 420.528 1718.93C420.432 1719.79 420.384 1720.42 420.384 1722.48V1734.14C420.384 1735.82 420.432 1736.69 420.576 1737.74H415.296V1735.01H405.936ZM405.936 1723.68V1730.4H415.344V1723.68H405.936ZM440.16 1694.78L442.512 1698.1C442.176 1698.72 441.984 1699.1 441.552 1700.21C439.92 1704.48 438.384 1707.79 436.368 1711.63C439.008 1714.66 440.064 1716.24 440.976 1718.59C441.84 1720.66 442.32 1723.1 442.32 1725.26C442.32 1728.29 441.072 1730.5 438.912 1731.26C437.712 1731.74 436.368 1731.89 434.016 1731.89C433.2 1731.89 432.768 1731.89 431.616 1731.79C431.52 1729.3 431.28 1728.14 430.512 1726.56C431.76 1726.75 432.72 1726.85 434.112 1726.85C436.512 1726.85 437.28 1726.32 437.28 1724.78C437.28 1722.77 436.752 1720.66 435.744 1718.59C434.64 1716.38 433.584 1714.99 430.752 1712.35C433.536 1707.22 434.976 1703.81 436.032 1699.78H429.36V1732.46C429.36 1735.06 429.456 1736.69 429.696 1738.08H424.032C424.224 1736.54 424.32 1734.67 424.32 1732.61V1698.86C424.32 1697.47 424.272 1696.13 424.128 1694.83C425.424 1694.98 426.48 1695.02 428.064 1695.02H436.368C438.24 1695.02 439.248 1694.98 440.16 1694.78Z" fill="black"/>
<path d="M393.552 1711.78V1718.11C391.344 1717.87 389.136 1717.78 386.256 1717.78H357.84C355.152 1717.78 352.656 1717.92 350.496 1718.11V1711.78C352.56 1712.02 354.72 1712.11 357.84 1712.11H386.256C389.472 1712.11 391.68 1712.02 393.552 1711.78Z" fill="black"/>
<path d="M324 1714.08L341.04 1697.04L342.576 1698.62L325.536 1715.76L342.576 1732.8L341.04 1734.38L324 1717.49L307.008 1734.38L305.424 1732.8L322.464 1715.76L305.424 1698.62L307.008 1697.04L324 1714.08ZM324.048 1698.19C326.064 1698.19 327.696 1699.82 327.696 1701.84C327.696 1703.9 326.064 1705.54 324.048 1705.54C322.032 1705.54 320.352 1703.86 320.352 1701.84C320.352 1699.82 322.032 1698.19 324.048 1698.19ZM310.272 1712.06C312.288 1712.06 313.92 1713.7 313.92 1715.71C313.92 1717.78 312.288 1719.41 310.272 1719.41C308.256 1719.41 306.576 1717.73 306.576 1715.71C306.576 1713.7 308.208 1712.06 310.272 1712.06ZM337.728 1712.11C339.744 1712.11 341.376 1713.74 341.376 1715.76C341.376 1717.78 339.744 1719.41 337.728 1719.41C335.712 1719.41 334.08 1717.78 334.08 1715.76C334.08 1713.74 335.712 1712.11 337.728 1712.11ZM324 1726.03C326.016 1726.03 327.648 1727.66 327.648 1729.73C327.648 1731.74 325.968 1733.42 324 1733.42C322.08 1733.42 320.304 1731.65 320.304 1729.73C320.304 1727.9 322.032 1726.03 323.664 1726.03C323.712 1726.03 323.76 1726.03 323.808 1726.08C323.856 1726.13 323.856 1726.13 323.904 1726.13C323.904 1726.13 323.904 1726.13 324 1726.03Z" fill="black"/>
<path d="M844.484 1451.15L838.676 1451.49C838.628 1450.62 838.58 1450.34 838.436 1449.23C837.524 1443.42 837.188 1439.73 837.188 1434.88C837.188 1428.69 837.764 1423.22 839.156 1416.11C839.684 1413.42 839.78 1412.94 839.876 1411.65L846.212 1412.32C845.06 1415.15 843.956 1420.53 843.188 1426.67C842.707 1430.27 842.516 1433.1 842.468 1437.28C842.468 1438.34 842.42 1438.72 842.372 1439.92C842.9 1438.24 842.996 1437.9 844.868 1433.58L848.708 1435.31C846.068 1440.88 844.436 1446.45 844.436 1449.86C844.436 1450.14 844.436 1450.53 844.484 1451.15ZM851.108 1422.4L851.204 1416.64C853.364 1417.22 855.907 1417.41 860.083 1417.41C865.411 1417.41 869.972 1416.98 873.14 1416.11L873.428 1421.92C873.044 1421.97 872.324 1422.06 870.02 1422.35C866.948 1422.74 863.299 1422.93 859.747 1422.93C856.243 1422.93 856.196 1422.93 851.108 1422.4ZM854.419 1430.32L859.124 1432.53C856.724 1435.31 855.716 1437.38 855.716 1439.44C855.716 1442.18 858.356 1443.62 863.348 1443.62C867.572 1443.62 871.748 1442.94 874.772 1441.79L875.252 1447.89C874.58 1447.94 874.388 1447.98 873.284 1448.18C869.444 1448.8 866.516 1449.09 863.348 1449.09C857.396 1449.09 853.556 1447.74 851.444 1444.91C850.532 1443.71 850.004 1441.94 850.004 1440.21C850.004 1437.09 851.443 1433.87 854.419 1430.32Z" fill="black"/>
<path d="M804.693 1416.69V1413.76C804.693 1412.18 804.597 1410.93 804.357 1409.78H810.549C810.357 1410.78 810.261 1412.03 810.261 1413.76V1416.69H823.461C826.149 1416.69 827.877 1416.59 829.509 1416.35V1422.16C828.021 1421.97 826.533 1421.87 823.653 1421.87H806.085C805.845 1425.47 805.845 1425.62 805.701 1427.06H818.997C821.493 1427.06 822.837 1427.01 823.941 1426.82C823.941 1427.06 823.941 1427.2 823.893 1427.3C823.797 1428.02 823.797 1428.59 823.701 1430.66C823.509 1437.86 822.885 1444.05 822.069 1447.5C820.965 1452.06 819.381 1453.26 814.581 1453.26C812.901 1453.26 811.797 1453.22 808.101 1452.93C807.909 1450.72 807.525 1449.14 806.709 1447.36C809.493 1447.79 811.701 1447.98 813.909 1447.98C816.021 1447.98 816.501 1447.46 817.125 1444.14C817.701 1441.26 817.989 1438.24 818.181 1432.1H804.933C802.917 1441.74 798.597 1447.89 789.525 1453.84C788.325 1451.73 787.413 1450.67 785.637 1449.28C789.861 1446.64 791.925 1444.96 794.229 1442.18C798.357 1437.23 799.989 1431.66 800.229 1421.87H792.357C789.957 1421.87 787.989 1421.97 786.357 1422.16V1416.35C788.085 1416.59 789.909 1416.69 792.357 1416.69H804.693Z" fill="black"/>
<path d="M763.556 1419.23C762.644 1426.77 760.964 1433.39 758.564 1438.82C755.828 1445.01 752.756 1447.84 748.82 1447.84C743.348 1447.84 739.412 1442.27 739.412 1434.54C739.412 1429.26 741.284 1424.32 744.692 1420.58C748.724 1416.16 754.388 1413.86 761.204 1413.86C772.724 1413.86 780.212 1420.86 780.212 1431.66C780.212 1439.97 775.892 1446.59 768.548 1449.57C766.244 1450.53 764.372 1451.01 761.012 1451.58C760.196 1449.04 759.62 1447.98 758.084 1445.97C762.5 1445.39 765.38 1444.62 767.636 1443.33C771.812 1441.02 774.308 1436.46 774.308 1431.33C774.308 1426.72 772.244 1422.98 768.404 1420.67C766.916 1419.81 765.668 1419.42 763.556 1419.23ZM757.7 1419.28C755.204 1419.57 753.476 1420.24 751.508 1421.63C747.476 1424.51 744.98 1429.46 744.98 1434.59C744.98 1438.53 746.66 1441.65 748.772 1441.65C750.356 1441.65 751.988 1439.63 753.716 1435.5C755.54 1431.18 757.124 1424.7 757.7 1419.28Z" fill="black"/>
<path d="M708.932 1417.12H702.932C701.636 1417.12 700.196 1417.22 698.324 1417.36V1411.6C699.716 1411.79 700.724 1411.84 702.836 1411.84H710.468C712.436 1411.84 713.732 1411.79 714.836 1411.6C714.692 1412.99 714.692 1413.42 714.692 1414.62C714.692 1421.44 716.42 1427.78 719.828 1433.63C721.844 1436.99 724.196 1439.87 727.508 1442.85C729.956 1445.1 731.348 1446.11 734.612 1448.03C732.788 1449.81 731.876 1451.06 730.532 1453.46C725.732 1450.1 722.132 1446.59 718.868 1442.18C717.092 1439.82 716.036 1438 714.644 1435.07C713.396 1432.43 712.964 1431.23 712.196 1428.26C710.468 1434.4 708.548 1438.48 705.332 1442.75C702.26 1446.74 698.66 1450.1 693.428 1453.6C692.42 1451.49 691.316 1450.05 689.492 1448.56C693.572 1446.21 695.924 1444.38 699.14 1441.02C702.884 1437.14 705.812 1432 707.348 1426.82C708.308 1423.5 708.74 1421.01 708.932 1417.12Z" fill="black"/>
<path d="M669.189 1428.54H661.797C660.069 1428.54 659.061 1428.59 657.861 1428.78V1424.51C659.013 1424.7 660.021 1424.75 661.797 1424.75H664.101V1422.5H662.757C661.365 1422.5 660.261 1422.54 659.397 1422.69V1418.85C660.453 1418.99 660.453 1418.99 662.757 1419.04H664.101V1416.93H661.941C660.405 1416.93 659.493 1416.98 658.389 1417.12V1413.04C659.493 1413.23 660.357 1413.28 662.085 1413.28H664.101C664.101 1411.41 664.053 1410.83 663.813 1409.92H669.045C668.805 1410.78 668.757 1411.46 668.757 1413.28H674.277C674.277 1411.17 674.229 1410.83 673.989 1409.92H679.221C679.029 1410.88 678.933 1411.74 678.933 1413.28H681.813C683.493 1413.28 684.357 1413.23 685.317 1413.04V1417.12C684.165 1416.98 683.349 1416.93 681.861 1416.93H678.933V1419.04H680.997C682.389 1419.04 683.397 1418.99 684.261 1418.85V1422.69C683.397 1422.54 682.245 1422.5 680.901 1422.5H678.933V1424.75H682.053C684.021 1424.75 684.933 1424.7 685.893 1424.51V1428.78C684.837 1428.59 683.877 1428.54 682.005 1428.54H673.653V1430.66H679.173C681.093 1430.66 682.293 1430.61 683.637 1430.46C683.541 1431.14 683.445 1432.96 683.445 1434.5V1442.18C684.693 1442.13 685.221 1442.08 685.989 1441.94V1446.21C685.125 1446.06 684.741 1446.06 683.445 1446.02V1449.28C683.445 1452.88 682.389 1453.74 678.069 1453.74C676.677 1453.74 675.573 1453.74 673.749 1453.65C673.509 1451.25 673.461 1450.77 672.933 1449.38C674.565 1449.62 675.909 1449.71 676.917 1449.71C678.501 1449.71 678.885 1449.52 678.885 1448.61V1446.02H664.581V1448.13C664.581 1451.49 664.629 1452.35 664.773 1454.03H659.733C659.925 1452.26 659.973 1451.15 659.973 1448.13V1446.02C658.869 1446.02 658.197 1446.06 657.237 1446.26V1441.94C658.149 1442.08 658.773 1442.13 659.973 1442.18V1434.93C659.973 1432.96 659.925 1431.9 659.829 1430.51C661.029 1430.61 662.181 1430.66 664.341 1430.66H669.189V1428.54ZM669.189 1442.18V1439.87H664.581V1442.18H669.189ZM673.701 1442.18H678.885V1439.87H673.701V1442.18ZM669.189 1436.56V1434.3H664.581V1436.56H669.189ZM673.701 1436.56H678.885V1434.3H673.701V1436.56ZM668.757 1416.93V1419.04H674.277V1416.93H668.757ZM668.757 1422.5V1424.75H674.277V1422.5H668.757ZM653.589 1441.89H646.917C645.237 1441.89 644.421 1441.94 643.509 1442.03C643.605 1440.64 643.653 1438.67 643.653 1436.94V1416.11C643.653 1414.05 643.605 1412.9 643.461 1411.31C644.565 1411.41 645.669 1411.46 647.445 1411.46H653.109C654.885 1411.46 655.941 1411.41 656.901 1411.31C656.805 1412.37 656.757 1413.23 656.757 1415.63V1437.52C656.757 1440.35 656.757 1440.98 656.901 1442.03C655.845 1441.94 655.173 1441.89 653.589 1441.89ZM647.973 1415.92V1420.24H652.485V1415.92H647.973ZM647.973 1424.37V1428.59H652.485V1424.37H647.973ZM647.973 1432.77V1437.47H652.485V1432.77H647.973ZM646.053 1442.08L650.133 1444.1C648.789 1448.61 647.781 1450.72 645.573 1453.89C643.893 1452.45 643.077 1451.82 641.637 1451.06C643.893 1448.13 644.901 1446.02 646.053 1442.08ZM650.709 1444.1L654.453 1442.18C655.557 1445.44 656.613 1447.55 658.485 1450.19C657.333 1450.72 656.517 1451.3 654.693 1452.83C652.917 1449.76 652.005 1447.79 650.709 1444.1Z" fill="black"/>
<path d="M601.365 1419.57L601.797 1413.86C605.493 1414.72 609.765 1415.06 616.197 1415.06C622.293 1415.06 625.701 1414.82 628.869 1414.14L629.061 1419.57C626.181 1420.82 620.277 1424.51 616.245 1427.49L612.069 1424.18C615.093 1422.26 615.621 1421.92 616.821 1421.25C617.301 1420.96 617.445 1420.86 618.069 1420.48C618.453 1420.29 618.501 1420.29 619.125 1419.9C617.013 1420.19 614.949 1420.29 611.925 1420.29C609.477 1420.29 605.493 1420.05 603.141 1419.71C602.565 1419.66 602.229 1419.62 602.037 1419.62C601.941 1419.62 601.701 1419.57 601.365 1419.57ZM604.917 1430.42L609.093 1433.58C606.069 1436.13 604.725 1438.14 604.725 1440.21C604.725 1443.33 608.229 1444.67 616.341 1444.67C622.053 1444.67 628.341 1443.81 631.413 1442.61L631.941 1449.18C631.077 1449.23 630.933 1449.23 629.829 1449.38C624.069 1450.24 620.997 1450.48 616.869 1450.48C611.637 1450.48 607.413 1449.95 604.869 1448.9C600.741 1447.26 598.725 1444.62 598.725 1440.88C598.725 1437.18 600.597 1434.02 604.917 1430.42ZM637.893 1428.45L634.581 1430.32C633.141 1427.68 631.557 1425.42 629.685 1423.36L632.901 1421.68C635.061 1423.89 636.405 1425.71 637.893 1428.45ZM623.781 1426.19L627.141 1424.51C629.253 1426.77 630.549 1428.59 632.181 1431.57L628.821 1433.34C627.237 1430.42 625.893 1428.5 623.781 1426.19Z" fill="black"/>
<path d="M569.397 1429.17V1446.83H583.221C585.765 1446.83 587.925 1446.74 589.701 1446.54V1452.3C587.685 1452.06 585.717 1451.97 583.317 1451.97H552.837C550.581 1451.97 548.373 1452.06 546.213 1452.3V1446.54C548.085 1446.74 550.101 1446.83 552.837 1446.83H563.781V1415.82C563.781 1413.71 563.685 1412.27 563.445 1410.3H569.733C569.493 1412.08 569.397 1413.66 569.397 1415.82V1424.03H580.677C582.789 1424.03 584.517 1423.94 586.245 1423.74V1429.46C584.517 1429.26 582.693 1429.17 580.677 1429.17H569.397Z" fill="black"/>
<path d="M531.86 1410.74L537.908 1410.83C537.86 1411.36 537.86 1411.36 537.428 1417.5C537.188 1421.82 536.228 1427.2 535.124 1430.9C534.356 1433.39 533.444 1435.5 532.1 1437.9C534.548 1442.18 537.908 1445.49 542.564 1448.22C541.172 1449.86 540.212 1451.44 539.204 1453.7C534.98 1450.67 531.716 1447.17 528.884 1442.61C524.996 1447.5 520.004 1451.06 512.804 1454.08C511.7 1451.92 510.884 1450.67 509.732 1449.33C518.18 1446.06 523.364 1442.18 526.868 1436.51C530.324 1430.94 532.052 1423.41 532.052 1413.9C532.052 1412.37 532.004 1411.84 531.86 1410.74ZM502.82 1441.74L502.58 1416.59C502.532 1414.05 502.436 1412.61 502.196 1410.88H508.292C508.148 1412.22 508.052 1413.66 508.052 1415.58V1416.64L508.292 1439.54C512.708 1437.57 517.412 1435.07 520.628 1433.01L521.78 1438.05C515.828 1441.7 511.796 1443.76 502.916 1447.6C501.092 1448.42 500.756 1448.56 499.556 1449.14L498.02 1443.28C499.7 1442.9 500.516 1442.61 502.82 1441.74ZM512.228 1416.59L516.836 1413.66C520.628 1417.5 522.788 1420.19 526.34 1425.42L521.396 1428.83C517.748 1422.78 516.596 1421.25 512.228 1416.59Z" fill="black"/>
<path d="M457.557 1435.12V1447.98C457.557 1451.01 457.605 1452.45 457.797 1453.55H451.893C452.085 1452.02 452.181 1450.29 452.181 1447.79V1416.4C452.181 1414.38 452.133 1413.18 451.989 1411.79C453.525 1411.94 454.773 1411.98 457.317 1411.98H486.501C489.141 1411.98 490.581 1411.94 491.733 1411.79C491.589 1413.18 491.541 1414.43 491.541 1417.02V1447.79C491.541 1450.24 490.965 1451.58 489.573 1452.3C488.661 1452.78 487.125 1452.98 484.533 1452.98C482.661 1452.98 480.021 1452.88 478.149 1452.78C477.861 1450.91 477.525 1449.57 476.661 1447.6C479.829 1447.94 482.229 1448.13 483.957 1448.13C485.829 1448.13 486.117 1447.98 486.117 1446.83V1435.12H457.557ZM468.933 1430.08V1417.07H457.557V1430.08H468.933ZM474.117 1430.08H486.117V1417.07H474.117V1430.08Z" fill="black"/>
<path d="M430.681 1451.34C426.601 1451.34 423.145 1450 420.601 1447.46C419.161 1446.02 418.057 1444.34 417.433 1442.61C416.185 1439.2 415.561 1435.46 415.561 1431.57C415.561 1426.48 416.713 1421.2 418.489 1418.27C421.081 1413.95 425.401 1411.6 430.729 1411.6C434.809 1411.6 438.313 1412.94 440.857 1415.49C442.297 1416.93 443.401 1418.61 444.025 1420.34C445.273 1423.7 445.897 1427.54 445.897 1431.47C445.897 1437.38 444.601 1442.56 442.345 1445.68C439.657 1449.42 435.673 1451.34 430.681 1451.34ZM430.729 1445.78C432.841 1445.78 434.713 1445.06 435.913 1443.76C438.073 1441.5 439.273 1437.04 439.273 1431.42C439.273 1425.86 438.073 1421.49 435.913 1419.14C434.761 1417.84 432.841 1417.12 430.681 1417.12C428.377 1417.12 426.697 1417.89 425.305 1419.57C423.193 1422.06 422.137 1426 422.137 1431.23C422.137 1436.27 423.049 1440.45 424.585 1442.66C426.073 1444.77 428.089 1445.78 430.729 1445.78Z" fill="black"/>
<path d="M396.509 1451.34C392.429 1451.34 388.973 1450 386.429 1447.46C384.989 1446.02 383.885 1444.34 383.261 1442.61C382.013 1439.2 381.389 1435.46 381.389 1431.57C381.389 1426.48 382.541 1421.2 384.317 1418.27C386.909 1413.95 391.229 1411.6 396.557 1411.6C400.637 1411.6 404.141 1412.94 406.685 1415.49C408.125 1416.93 409.229 1418.61 409.853 1420.34C411.101 1423.7 411.725 1427.54 411.725 1431.47C411.725 1437.38 410.429 1442.56 408.173 1445.68C405.485 1449.42 401.501 1451.34 396.509 1451.34ZM396.557 1445.78C398.669 1445.78 400.541 1445.06 401.741 1443.76C403.901 1441.5 405.101 1437.04 405.101 1431.42C405.101 1425.86 403.901 1421.49 401.741 1419.14C400.589 1417.84 398.669 1417.12 396.509 1417.12C394.205 1417.12 392.525 1417.89 391.133 1419.57C389.021 1422.06 387.965 1426 387.965 1431.23C387.965 1436.27 388.877 1440.45 390.413 1442.66C391.901 1444.77 393.917 1445.78 396.557 1445.78Z" fill="black"/>
<path d="M348.129 1442.03L354.753 1440.64C355.185 1442.03 355.521 1442.66 356.193 1443.42C357.537 1445.06 359.553 1445.87 362.097 1445.87C366.849 1445.87 369.969 1442.7 369.969 1437.95C369.969 1433.25 366.993 1430.22 362.433 1430.22C360.081 1430.22 357.969 1430.99 356.481 1432.43C355.809 1433.1 355.473 1433.54 355.041 1434.59L349.041 1434.02C349.521 1430.61 349.569 1430.37 349.665 1429.02L350.769 1417.12C350.817 1416.26 350.913 1414.62 350.961 1412.22C352.401 1412.32 353.505 1412.37 356.049 1412.37H367.857C371.169 1412.37 372.369 1412.32 374.529 1411.98V1418.03C372.417 1417.74 370.545 1417.65 367.905 1417.65H356.625L355.857 1426.05C355.809 1426.43 355.713 1427.1 355.569 1428.06C357.921 1426.05 360.465 1425.14 363.777 1425.14C367.665 1425.14 370.785 1426.29 373.137 1428.74C375.489 1431.04 376.545 1433.92 376.545 1437.76C376.545 1446.21 371.025 1451.44 362.097 1451.44C357.345 1451.44 353.793 1450.1 351.153 1447.26C349.857 1445.87 349.185 1444.72 348.129 1442.03Z" fill="black"/>
<path d="M342.343 1443.57V1450.58C342.343 1454.7 341.287 1456.24 337.399 1457.78L335.671 1455.23C338.599 1454.42 339.271 1453.55 339.319 1450.58H335.287V1443.57H342.343Z" fill="black"/>
<path d="M301.02 1442.03L307.644 1440.64C308.076 1442.03 308.412 1442.66 309.084 1443.42C310.428 1445.06 312.444 1445.87 314.988 1445.87C319.74 1445.87 322.86 1442.7 322.86 1437.95C322.86 1433.25 319.884 1430.22 315.324 1430.22C312.972 1430.22 310.86 1430.99 309.372 1432.43C308.7 1433.1 308.364 1433.54 307.932 1434.59L301.932 1434.02C302.412 1430.61 302.46 1430.37 302.556 1429.02L303.66 1417.12C303.708 1416.26 303.804 1414.62 303.852 1412.22C305.292 1412.32 306.396 1412.37 308.94 1412.37H320.748C324.06 1412.37 325.26 1412.32 327.42 1411.98V1418.03C325.308 1417.74 323.436 1417.65 320.796 1417.65H309.516L308.748 1426.05C308.7 1426.43 308.604 1427.1 308.46 1428.06C310.812 1426.05 313.356 1425.14 316.668 1425.14C320.556 1425.14 323.676 1426.29 326.028 1428.74C328.38 1431.04 329.436 1433.92 329.436 1437.76C329.436 1446.21 323.916 1451.44 314.988 1451.44C310.236 1451.44 306.684 1450.1 304.044 1447.26C302.748 1445.87 302.076 1444.72 301.02 1442.03Z" fill="black"/>
<path d="M277.308 1416.26H272.46C270.828 1416.26 269.676 1416.3 268.476 1416.5V1411.31C269.532 1411.5 270.54 1411.55 272.46 1411.55H279.324C280.86 1411.55 281.916 1411.5 282.828 1411.36C282.732 1412.46 282.732 1413.14 282.732 1413.95C282.732 1418.66 283.836 1423.5 285.9 1427.87C288.348 1433.15 291.228 1436.46 296.46 1440.21C295.116 1441.84 294.3 1443.18 293.292 1445.25C289.788 1442.61 287.82 1440.69 285.612 1437.76C283.212 1434.54 281.868 1431.62 280.236 1426.38C279.036 1431.47 277.692 1434.5 275.004 1438.1C273.228 1440.54 271.74 1442.08 268.524 1444.67C267.228 1442.94 266.508 1442.18 264.732 1440.5C267.66 1438.38 269.1 1436.94 271.068 1434.35C273.612 1430.94 275.436 1427.01 276.396 1422.93C276.876 1420.96 277.068 1419.57 277.308 1416.26ZM253.164 1413.95L257.004 1410.35C260.46 1413.38 263.052 1416.06 265.404 1419.14L261.42 1423.02C258.444 1418.99 256.908 1417.31 253.164 1413.95ZM252.444 1432.96V1427.68C253.692 1427.87 254.46 1427.92 256.284 1427.92H260.22C261.66 1427.92 262.764 1427.87 263.868 1427.68C263.724 1429.26 263.676 1430.27 263.676 1432.96V1442.99C264.396 1444.53 264.828 1445.01 266.412 1446.06C268.716 1447.5 271.212 1447.84 279.468 1447.84C286.428 1447.84 292.524 1447.5 297.276 1446.83C296.46 1449.14 296.172 1450.34 295.836 1452.54C291.564 1452.69 284.604 1452.83 281.292 1452.83C273.42 1452.83 269.532 1452.54 267.036 1451.73C264.54 1450.96 262.812 1449.66 260.94 1447.22C259.404 1448.75 258.252 1449.76 255.996 1451.49C255.18 1452.11 254.892 1452.35 254.556 1452.64C254.076 1453.02 254.076 1453.02 253.836 1453.22L251.484 1447.74C253.548 1446.88 256.572 1444.86 258.636 1443.04V1432.72H255.708C254.364 1432.72 253.644 1432.77 252.444 1432.96Z" fill="black"/>
<path d="M211.355 1422.11V1416.98C209.723 1417.31 208.859 1417.46 206.363 1417.84C206.123 1416.54 205.595 1415.34 204.491 1413.42C209.819 1412.8 213.371 1411.94 217.067 1410.4C217.787 1410.11 218.507 1409.73 219.131 1409.3L222.107 1413.47C221.627 1413.66 221.579 1413.71 220.859 1414.05C219.227 1414.72 218.075 1415.15 216.347 1415.68V1422.11H217.835C219.419 1422.11 220.283 1422.06 221.195 1421.92V1426.91C220.235 1426.77 219.371 1426.72 217.835 1426.72H216.491C216.587 1426.96 216.587 1426.96 216.827 1427.39C218.267 1430.56 219.419 1432.24 221.915 1434.78L221.483 1435.65C220.619 1437.28 220.475 1437.62 219.755 1439.39C218.075 1437.23 217.691 1436.56 216.059 1433.06C216.203 1434.21 216.347 1436.99 216.347 1438.53V1448.13C216.347 1450.91 216.395 1452.45 216.635 1454.03H211.067C211.259 1452.35 211.355 1450.82 211.355 1448.13V1439.82C211.355 1438.91 211.547 1435.12 211.643 1433.92C210.347 1438.19 208.619 1441.5 205.835 1444.96C205.019 1442.66 204.491 1441.5 203.387 1439.97C205.403 1437.62 206.507 1435.94 207.899 1433.39C208.955 1431.42 210.155 1428.54 210.683 1426.72H208.283C206.411 1426.72 205.499 1426.77 204.443 1426.96V1421.87C205.547 1422.06 206.411 1422.11 208.283 1422.11H211.355ZM226.331 1419.28H235.547C237.467 1415.73 238.331 1413.52 239.435 1409.54L244.763 1411.26C242.555 1416.11 242.075 1417.12 240.779 1419.28H242.267C243.947 1419.28 244.907 1419.23 246.251 1419.09C246.107 1420.24 246.059 1421.01 246.059 1422.45V1431.28C246.059 1432.72 246.107 1433.68 246.251 1434.83C244.955 1434.69 243.803 1434.64 242.267 1434.64H240.107V1447.7C240.107 1448.61 240.347 1448.7 242.171 1448.7C244.139 1448.7 244.235 1448.46 244.331 1441.84C246.155 1443.04 247.403 1443.66 248.843 1444C248.507 1449.23 248.219 1450.72 247.355 1451.87C246.443 1453.17 244.907 1453.5 240.395 1453.5C236.267 1453.5 235.115 1452.59 235.115 1449.42V1434.64H232.091C231.707 1439.87 231.179 1442.51 229.835 1445.49C228.011 1449.57 225.707 1451.97 221.483 1454.27C220.427 1452.45 219.755 1451.63 217.931 1450.05C224.123 1447.22 227.003 1442.32 227.003 1434.64H226.283C224.747 1434.64 223.787 1434.69 222.491 1434.83C222.587 1433.73 222.635 1432.58 222.635 1431.23V1422.59C222.635 1421.44 222.587 1420.19 222.491 1419.09C223.883 1419.23 224.651 1419.28 226.331 1419.28ZM227.435 1423.89V1429.94H240.923V1423.89H227.435ZM232.427 1416.93L227.723 1419.04C226.235 1415.49 225.275 1413.66 223.787 1411.65L228.443 1409.49C230.267 1412.27 231.323 1414.29 232.427 1416.93Z" fill="black"/>
<path d="M923.17 1316.05H913.582C918.41 1310 920.314 1307.01 922.218 1302.52C924.666 1296.88 925.822 1290.82 925.822 1283.89C925.822 1277.09 924.734 1271.44 922.354 1265.87C920.382 1261.38 918.41 1258.32 913.65 1252.34H923.238C927.046 1257.71 928.678 1260.7 930.65 1265.73C933.03 1271.92 934.118 1277.43 934.118 1283.89C934.118 1290.48 932.962 1296.4 930.582 1302.66C928.61 1307.62 926.978 1310.61 923.17 1316.05Z" fill="black"/>
<path d="M902.701 1257.98L907.257 1263.15C906.305 1264.3 906.305 1264.37 904.536 1267.91C902.157 1272.94 898.213 1278.04 894.065 1281.58C891.345 1283.96 889.101 1285.45 885.905 1287.22C883.865 1284.36 882.845 1283.34 879.785 1281.03C884.341 1278.99 886.925 1277.43 889.713 1274.78C892.501 1272.19 894.609 1269.4 896.173 1266.14H860.473C855.713 1266.14 854.013 1266.21 851.225 1266.55V1258.05C853.809 1258.46 855.917 1258.59 860.609 1258.59H896.104C900.184 1258.59 900.797 1258.52 902.701 1257.98ZM870.401 1271.72H879.648C879.444 1273.01 879.445 1273.08 879.377 1277.22C879.105 1288.85 877.269 1295.38 872.645 1301.3C868.565 1306.53 863.601 1310 855.101 1313.54C853.333 1309.86 852.449 1308.64 849.729 1305.78C855.237 1304.15 858.297 1302.66 861.629 1300C868.565 1294.5 870.741 1288.65 870.741 1275.8C870.741 1273.76 870.673 1273.14 870.401 1271.72Z" fill="black"/>
<path d="M789.482 1256.35L798.73 1256.42C798.458 1258.32 798.458 1258.93 798.458 1262.54V1281.3C798.458 1284.7 798.458 1285.59 798.73 1287.29H789.414C789.618 1285.72 789.754 1283.62 789.754 1281.17V1262.47C789.754 1259 789.686 1258.12 789.482 1256.35ZM820.15 1256.48H829.602C829.33 1258.18 829.262 1258.93 829.262 1262.81V1271.99C829.194 1282.6 828.718 1288.31 827.494 1292.59C825.522 1299.39 821.17 1304.49 814.098 1308.44C810.494 1310.48 807.094 1311.84 800.838 1313.67C799.614 1310.34 798.934 1309.18 796.078 1305.58C802.742 1304.29 806.686 1302.86 810.766 1300.14C817.158 1295.92 819.402 1291.78 820.15 1282.8C820.422 1279.88 820.49 1276.88 820.49 1271.44V1262.94C820.49 1259.48 820.422 1258.05 820.15 1256.48Z" fill="black"/>
<path d="M745.418 1270.15V1298.1H761.874C766.634 1298.1 768.062 1298.03 770.714 1297.62V1306.19C768.266 1305.92 766.498 1305.85 762.01 1305.85H721.21C716.722 1305.85 714.954 1305.92 712.506 1306.19V1297.62C715.158 1298.03 716.586 1298.1 721.346 1298.1H736.714V1270.15H726.31C721.822 1270.15 720.054 1270.22 717.606 1270.49V1261.99C720.19 1262.4 721.822 1262.47 726.446 1262.47H756.706C761.33 1262.47 762.962 1262.4 765.546 1261.99V1270.49C763.098 1270.22 761.398 1270.15 756.842 1270.15H745.418Z" fill="black"/>
<path d="M691.29 1254.78L696.73 1261.72C695.914 1261.92 695.914 1261.92 691.018 1263.56C687.142 1264.78 684.966 1265.32 679.662 1266.34C679.594 1275.52 679.594 1275.52 679.458 1277.84H693.874C698.498 1277.84 699.654 1277.77 702.17 1277.36V1285.52C699.654 1285.25 698.362 1285.18 694.01 1285.18H678.982C678.234 1291.5 676.806 1296.06 674.426 1300C672.046 1303.95 668.102 1307.76 663.342 1310.82C661.438 1312.04 660.146 1312.79 657.018 1314.22C655.046 1310.75 653.958 1309.46 651.102 1307.01C655.998 1305.24 658.582 1303.81 661.642 1301.3C665.722 1298.03 668.306 1294.16 669.462 1289.74C669.734 1288.58 669.938 1287.42 670.21 1285.18H653.414C649.062 1285.18 647.77 1285.25 645.254 1285.52V1277.36C647.77 1277.77 648.926 1277.84 653.55 1277.84H670.958C671.094 1274.98 671.094 1272.33 671.094 1267.57C665.586 1268.38 663.478 1268.59 652.258 1269.13C651.578 1266.07 651.238 1265.05 649.742 1261.79C651.85 1261.92 652.938 1261.92 653.958 1261.92C663.07 1261.92 674.698 1260.36 683.062 1257.98C687.006 1256.82 688.978 1256.08 691.29 1254.78Z" fill="black"/>
<path d="M576.438 1288.65V1279.2C579.43 1279.6 580.721 1279.67 587.453 1279.67H623.698C630.43 1279.67 631.722 1279.6 634.714 1279.2V1288.65C631.994 1288.31 631.246 1288.31 623.63 1288.31H587.521C579.905 1288.31 579.158 1288.31 576.438 1288.65Z" fill="black"/>
<path d="M528.701 1268.11H546.381L546.449 1265.05V1262.88C546.449 1258.39 546.381 1256.89 546.109 1255.33H554.881C554.677 1256.89 554.609 1257.23 554.609 1259.88C554.609 1264.03 554.609 1264.03 554.541 1268.11H558.893C563.721 1268.11 565.081 1268.04 567.733 1267.64V1275.93C565.353 1275.66 563.517 1275.59 559.029 1275.59H554.473C554.337 1283.75 554.337 1284.23 553.997 1286.81C553.045 1295.52 550.121 1301.3 544.205 1306.33C540.533 1309.46 537.201 1311.22 530.945 1313.47C529.653 1310.54 528.769 1309.25 525.845 1306.26C532.305 1304.29 535.569 1302.66 538.833 1299.8C543.457 1295.79 545.429 1291.3 546.041 1283.48C546.177 1281.92 546.177 1280.28 546.313 1275.59H528.701V1285.79C528.701 1288.65 528.769 1289.74 528.973 1291.5H520.133C520.337 1290.01 520.405 1288.17 520.405 1285.66V1275.59H516.257C511.769 1275.59 509.933 1275.66 507.553 1275.93V1267.64C510.205 1268.04 511.565 1268.11 516.393 1268.11H520.405V1261.31C520.405 1258.46 520.337 1257.03 520.065 1255.26H528.973C528.701 1257.5 528.701 1257.64 528.701 1261.11V1268.11Z" fill="black"/>
<path d="M449.482 1256.35L458.73 1256.42C458.458 1258.32 458.458 1258.93 458.458 1262.54V1281.3C458.458 1284.7 458.458 1285.59 458.73 1287.29H449.414C449.618 1285.72 449.754 1283.62 449.754 1281.17V1262.47C449.754 1259 449.686 1258.12 449.482 1256.35ZM480.15 1256.48H489.602C489.33 1258.18 489.262 1258.93 489.262 1262.81V1271.99C489.194 1282.6 488.718 1288.31 487.494 1292.59C485.522 1299.39 481.17 1304.49 474.098 1308.44C470.494 1310.48 467.094 1311.84 460.838 1313.67C459.614 1310.34 458.934 1309.18 456.078 1305.58C462.742 1304.29 466.686 1302.86 470.766 1300.14C477.158 1295.92 479.402 1291.78 480.15 1282.8C480.422 1279.88 480.49 1276.88 480.49 1271.44V1262.94C480.49 1259.48 480.422 1258.05 480.15 1256.48Z" fill="black"/>
<path d="M375.906 1266.34L381.55 1259.61C389.642 1264.64 393.858 1267.77 399.094 1272.74L393.246 1280.15C387.806 1274.37 382.23 1269.88 375.906 1266.34ZM378.286 1311.22L375.77 1301.84C381.618 1301.5 389.71 1299.53 395.898 1296.81C404.398 1293.14 410.722 1287.9 416.094 1280.15C419.086 1275.8 420.99 1272.06 423.03 1266.55C425.682 1269.74 426.77 1270.76 430.238 1273.21C424.458 1285.66 417.998 1293.68 408.682 1299.87C401.746 1304.49 393.314 1307.82 382.774 1310.07C380.054 1310.61 379.85 1310.68 378.286 1311.22Z" fill="black"/>
<path d="M318.445 1259.07L327.761 1260.77C327.557 1261.52 327.489 1261.58 327.421 1262.13L327.285 1263.28L326.945 1265.26L326.741 1266.89C323.885 1286.4 318.581 1299.8 309.469 1310.27C306.273 1307.21 304.981 1306.19 301.717 1304.42C305.797 1300.34 308.585 1296.2 311.441 1289.94C314.365 1283.62 316.745 1275.18 317.833 1266.62C318.241 1263.83 318.445 1261.52 318.445 1260.02C318.445 1259.82 318.445 1259.48 318.445 1259.07ZM338.641 1260.7L347.073 1259.07C347.141 1262.2 348.365 1268.86 349.929 1274.71C353.261 1287.29 358.021 1296.47 365.093 1304.08C361.625 1306.26 360.197 1307.42 357.613 1310.34C348.569 1299.53 342.245 1283.89 339.593 1265.6C339.185 1262.81 338.981 1261.72 338.641 1260.7ZM347.753 1256.48L352.853 1254.99C355.369 1258.52 356.865 1261.38 358.497 1265.94L353.329 1267.57C351.765 1263.22 350.337 1260.29 347.753 1256.48ZM367.405 1263.22L362.237 1264.85C360.673 1260.63 358.973 1257.23 356.797 1254.1L361.829 1252.68C364.413 1256.28 365.909 1259.14 367.405 1263.22Z" fill="black"/>
<path d="M238.496 1288.65V1279.2C241.488 1279.6 242.78 1279.67 249.512 1279.67H285.756C292.488 1279.67 293.78 1279.6 296.772 1279.2V1288.65C294.052 1288.31 293.304 1288.31 285.688 1288.31H249.58C241.964 1288.31 241.216 1288.31 238.496 1288.65Z" fill="black"/>
<path d="M227.482 1257.98L232.038 1263.15C231.086 1264.3 231.086 1264.37 229.318 1267.91C226.938 1272.94 222.994 1278.04 218.846 1281.58C216.126 1283.96 213.882 1285.45 210.686 1287.22C208.646 1284.36 207.626 1283.34 204.566 1281.03C209.122 1278.99 211.706 1277.43 214.494 1274.78C217.282 1272.19 219.39 1269.4 220.954 1266.14H185.254C180.494 1266.14 178.794 1266.21 176.006 1266.55V1258.05C178.59 1258.46 180.698 1258.59 185.39 1258.59H220.886C224.966 1258.59 225.578 1258.52 227.482 1257.98ZM195.182 1271.72H204.43C204.226 1273.01 204.226 1273.08 204.158 1277.22C203.886 1288.85 202.05 1295.38 197.426 1301.3C193.346 1306.53 188.382 1310 179.882 1313.54C178.114 1309.86 177.23 1308.64 174.51 1305.78C180.018 1304.15 183.078 1302.66 186.41 1300C193.346 1294.5 195.522 1288.65 195.522 1275.8C195.522 1273.76 195.454 1273.14 195.182 1271.72Z" fill="black"/>
<path d="M166.419 1316.05H156.899C153.091 1310.61 151.391 1307.62 149.487 1302.66C147.039 1296.4 145.883 1290.42 145.883 1283.89C145.883 1277.5 146.971 1271.85 149.351 1265.73C151.323 1260.77 152.955 1257.78 156.831 1252.34H166.351C161.591 1258.32 159.619 1261.38 157.715 1265.87C155.335 1271.44 154.179 1277.22 154.179 1283.89C154.179 1290.76 155.335 1296.88 157.783 1302.52C159.687 1307.01 161.591 1310 166.419 1316.05Z" fill="black"/>
<path d="M859.113 1190.92H851.157C851.225 1189.5 851.293 1188.82 851.293 1188C851.293 1187.25 851.293 1187.25 851.089 1183.1L850.137 1159.98C850.001 1156.99 849.797 1153.59 849.525 1151.69H860.677C860.473 1153.52 860.201 1157.06 860.065 1159.98L859.113 1183.1C858.977 1187.12 858.977 1187.12 858.977 1188.07C858.977 1188.88 858.977 1189.56 859.113 1190.92ZM860.065 1205.82H850.205V1196.5H860.065V1205.82Z" fill="black"/>
<path d="M836.07 1190.92H828.114C828.182 1189.5 828.25 1188.82 828.25 1188C828.25 1187.25 828.25 1187.25 828.046 1183.1L827.094 1159.98C826.958 1156.99 826.754 1153.59 826.482 1151.69H837.634C837.43 1153.52 837.158 1157.06 837.022 1159.98L836.07 1183.1C835.934 1187.12 835.934 1187.12 835.934 1188.07C835.934 1188.88 835.934 1189.56 836.07 1190.92ZM837.022 1205.82H827.162V1196.5H837.022V1205.82Z" fill="black"/>
<path d="M766.099 1177.19L772.763 1172.36C776.367 1175.35 778.407 1177.19 781.195 1179.91C784.935 1183.72 784.935 1183.72 785.411 1184.12C788.947 1181.13 791.803 1178.41 794.319 1175.56C797.243 1172.29 800.983 1167.19 802.615 1164.47C802.819 1164.13 802.819 1164.13 803.023 1163.86C803.091 1163.66 803.091 1163.66 803.159 1163.52C802.479 1163.59 801.459 1163.66 800.031 1163.66H775.279C772.831 1163.66 770.859 1163.66 767.595 1163.66C762.087 1163.72 761.407 1163.72 758.891 1164V1155.36C761.543 1155.77 763.107 1155.84 767.731 1155.84L805.539 1155.77C808.463 1155.77 809.483 1155.7 811.183 1155.22L815.943 1160.6C814.923 1161.68 814.515 1162.16 812.951 1164.61C806.491 1175.01 799.351 1183.38 790.987 1190.38C793.843 1193.64 796.427 1196.91 799.963 1201.74L792.823 1207.45C789.015 1201.33 785.411 1196.64 779.699 1190.31C774.463 1184.53 771.063 1181.2 766.099 1177.19Z" fill="black"/>
<path d="M699.662 1158.49L702.722 1150.6C715.846 1152.16 724.346 1153.86 739.51 1157.94L736.79 1166.31C725.57 1162.57 711.63 1159.64 699.662 1158.49ZM698.574 1177.19L701.702 1169.37C712.582 1170.73 723.462 1173.18 737.13 1177.26L734.478 1185.62C729.106 1183.51 724.278 1182.08 715.778 1180.18C709.998 1178.82 705.578 1178.07 698.574 1177.19ZM693.066 1196.3L696.262 1188.54C712.718 1190.72 725.57 1193.78 741.414 1199.29L738.49 1207.86C731.418 1204.73 725.162 1202.76 714.418 1200.24C706.054 1198.27 700.478 1197.25 693.066 1196.3Z" fill="black"/>
<path d="M644.311 1174.74H652.674C652.47 1175.9 652.403 1176.44 652.267 1179.43C652.199 1180.66 652.199 1181.2 652.131 1181.88C657.979 1179.3 661.651 1176.3 664.575 1171.48C664.575 1171.41 664.643 1171.27 664.779 1171.07C664.915 1170.86 664.983 1170.8 665.119 1170.52L665.051 1170.46C664.507 1170.59 663.759 1170.59 663.147 1170.59L636.219 1170.73C632.547 1170.73 631.255 1170.8 629.011 1171.07L628.943 1163.32C631.119 1163.66 633.023 1163.79 636.219 1163.79L665.119 1163.72C668.723 1163.72 669.335 1163.66 670.967 1163.18L674.775 1167.8C673.959 1168.89 673.959 1168.89 672.735 1171.48C670.695 1175.69 667.771 1179.57 664.507 1182.49C662.399 1184.46 660.699 1185.62 657.367 1187.52C655.327 1184.87 654.511 1184.06 652.131 1182.22C651.859 1187.73 650.907 1191.74 649.071 1195.34C646.079 1201.6 641.183 1205.48 632.207 1209.01C630.643 1205.75 629.895 1204.73 627.311 1202.08C634.723 1199.9 639.347 1196.7 641.863 1191.94C643.631 1188.61 644.447 1183.78 644.447 1177.26C644.447 1176.17 644.447 1175.83 644.311 1174.74Z" fill="black"/>
<path d="M604.19 1154.75L608.814 1159.17C608.202 1160.32 607.998 1160.8 607.658 1162.23C604.258 1175.22 600.246 1183.38 593.718 1190.72C587.054 1198.2 579.778 1203.16 568.422 1208.06C566.518 1204.39 565.634 1203.1 562.438 1199.97C568.422 1198.06 572.298 1196.3 577.33 1193.03C587.938 1186.16 594.602 1176.58 597.934 1163.38H565.566C561.01 1163.38 559.446 1163.45 556.998 1163.79V1154.95C559.65 1155.36 561.078 1155.43 565.702 1155.43H596.914C600.722 1155.43 602.082 1155.29 604.19 1154.75Z" fill="black"/>
<path d="M514.567 1171.07C519.055 1171.07 522.659 1174.67 522.659 1179.16C522.659 1183.65 519.055 1187.25 514.567 1187.25C510.079 1187.25 506.475 1183.65 506.475 1179.16C506.475 1174.67 510.079 1171.07 514.567 1171.07Z" fill="black"/>
<path d="M420.863 1161.34L426.507 1154.61C434.599 1159.64 438.815 1162.77 444.051 1167.74L438.203 1175.15C432.763 1169.37 427.187 1164.88 420.863 1161.34ZM423.243 1206.22L420.727 1196.84C426.575 1196.5 434.667 1194.53 440.855 1191.81C449.355 1188.14 455.679 1182.9 461.051 1175.15C464.043 1170.8 465.947 1167.06 467.987 1161.55C470.639 1164.74 471.727 1165.76 475.195 1168.21C469.415 1180.66 462.955 1188.68 453.639 1194.87C446.703 1199.49 438.271 1202.82 427.731 1205.07C425.011 1205.61 424.807 1205.68 423.243 1206.22Z" fill="black"/>
<path d="M363.402 1154.07L372.718 1155.77C372.514 1156.52 372.446 1156.58 372.378 1157.13L372.242 1158.28L371.902 1160.26L371.698 1161.89C368.842 1181.4 363.538 1194.8 354.426 1205.27C351.23 1202.21 349.938 1201.19 346.674 1199.42C350.754 1195.34 353.542 1191.2 356.398 1184.94C359.322 1178.62 361.702 1170.18 362.79 1161.62C363.198 1158.83 363.402 1156.52 363.402 1155.02C363.402 1154.82 363.402 1154.48 363.402 1154.07ZM383.598 1155.7L392.03 1154.07C392.098 1157.2 393.322 1163.86 394.886 1169.71C398.218 1182.29 402.978 1191.47 410.05 1199.08C406.582 1201.26 405.154 1202.42 402.57 1205.34C393.526 1194.53 387.202 1178.89 384.55 1160.6C384.142 1157.81 383.938 1156.72 383.598 1155.7ZM392.71 1151.48L397.81 1149.99C400.326 1153.52 401.822 1156.38 403.454 1160.94L398.286 1162.57C396.722 1158.22 395.294 1155.29 392.71 1151.48ZM412.362 1158.22L407.194 1159.85C405.63 1155.63 403.93 1152.23 401.754 1149.1L406.786 1147.68C409.37 1151.28 410.866 1154.14 412.362 1158.22Z" fill="black"/>
<path d="M283.453 1183.65V1174.2C286.445 1174.6 287.737 1174.67 294.469 1174.67H330.713C337.445 1174.67 338.737 1174.6 341.729 1174.2V1183.65C339.009 1183.31 338.261 1183.31 330.645 1183.31H294.537C286.921 1183.31 286.173 1183.31 283.453 1183.65Z" fill="black"/>
<path d="M272.439 1152.98L276.995 1158.15C276.043 1159.3 276.043 1159.37 274.275 1162.91C271.895 1167.94 267.951 1173.04 263.803 1176.58C261.083 1178.96 258.839 1180.45 255.643 1182.22C253.603 1179.36 252.583 1178.34 249.523 1176.03C254.079 1173.99 256.663 1172.43 259.451 1169.78C262.239 1167.19 264.347 1164.4 265.911 1161.14H230.211C225.451 1161.14 223.751 1161.21 220.963 1161.55V1153.05C223.547 1153.46 225.655 1153.59 230.347 1153.59H265.843C269.923 1153.59 270.535 1153.52 272.439 1152.98ZM240.139 1166.72H249.387C249.183 1168.01 249.183 1168.08 249.115 1172.22C248.843 1183.85 247.007 1190.38 242.383 1196.3C238.303 1201.53 233.339 1205 224.839 1208.54C223.071 1204.86 222.187 1203.64 219.467 1200.78C224.975 1199.15 228.035 1197.66 231.367 1195C238.303 1189.5 240.479 1183.65 240.479 1170.8C240.479 1168.76 240.411 1168.14 240.139 1166.72Z" fill="black"/>
</svg>
