<svg width="1080" height="1920" viewBox="0 0 1080 1920" fill="none" xmlns="http://www.w3.org/2000/svg">
<path d="M1080 1920L1080 0L0 0L0 1920H1080Z" fill="#A5D4AD"/>
<path d="M1020 983.72V95C1020 75.67 1004.33 60 985 60H95.58C75.93 60 60 75.93 60 95.58V983.71C60 984.03 60.25 984.28 60.57 984.28C80.03 984.59 95.71 1000.46 95.71 1019.99C95.71 1039.52 80.03 1055.39 60.57 1055.7C60.25 1055.7 60 1055.96 60 1056.27V1824.99C60 1844.32 75.67 1859.99 95 1859.99H985C1004.33 1859.99 1020 1844.32 1020 1824.99V1056.27C1020 1055.95 1019.75 1055.7 1019.43 1055.7C999.97 1055.39 984.29 1039.52 984.29 1019.99C984.29 1000.46 999.97 984.59 1019.43 984.28C1019.75 984.28 1020 984.02 1020 983.71V983.72Z" fill="white"/>
<path d="M60.57 1055.71C60.25 1055.71 60 1055.97 60 1056.28V1825C60 1844.33 75.67 1860 95 1860H985C1004.33 1860 1020 1844.33 1020 1825V1056.28C1020 1055.96 1019.75 1055.71 1019.43 1055.71C999.97 1055.4 984.29 1039.53 984.29 1020H95.71C95.71 1039.53 80.03 1055.4 60.57 1055.71Z" fill="#E5F2E6"/>
<path d="M121 1020H160.9" stroke="black" stroke-width="6" stroke-miterlimit="10"/>
<path d="M187.512 1020H227.412" stroke="black" stroke-width="6" stroke-miterlimit="10"/>
<path d="M254.02 1020H293.92" stroke="black" stroke-width="6" stroke-miterlimit="10"/>
<path d="M320.52 1020H360.43" stroke="black" stroke-width="6" stroke-miterlimit="10"/>
<path d="M387.031 1020H426.941" stroke="black" stroke-width="6" stroke-miterlimit="10"/>
<path d="M453.539 1020H493.439" stroke="black" stroke-width="6" stroke-miterlimit="10"/>
<path d="M520.051 1020H559.951" stroke="black" stroke-width="6" stroke-miterlimit="10"/>
<path d="M586.559 1020H626.459" stroke="black" stroke-width="6" stroke-miterlimit="10"/>
<path d="M653.059 1020H692.969" stroke="black" stroke-width="6" stroke-miterlimit="10"/>
<path d="M719.57 1020H759.48" stroke="black" stroke-width="6" stroke-miterlimit="10"/>
<path d="M786.078 1020H825.978" stroke="black" stroke-width="6" stroke-miterlimit="10"/>
<path d="M852.59 1020H892.49" stroke="black" stroke-width="6" stroke-miterlimit="10"/>
<path d="M919.102 1020H959.002" stroke="black" stroke-width="6" stroke-miterlimit="10"/>
<path d="M1020 984.29V95C1020 75.67 1004.33 60 985 60H95C75.67 60 60 75.67 60 95V984.29C79.72 984.29 95.71 1000.28 95.71 1020C95.71 1039.72 79.72 1055.71 60 1055.71V1825C60 1844.33 75.67 1860 95 1860H985C1004.33 1860 1020 1844.33 1020 1825V1055.71C1000.28 1055.71 984.29 1039.72 984.29 1020C984.29 1000.28 1000.28 984.29 1020 984.29Z" stroke="black" stroke-width="6" stroke-miterlimit="10"/>
<path d="M912.642 525.66C908.772 525.66 905.532 522.64 905.312 518.73C900.582 435.62 868.782 358.85 813.362 296.74C810.662 293.71 810.922 289.06 813.952 286.36C816.982 283.66 821.622 283.92 824.332 286.95C881.992 351.57 915.062 431.43 919.992 517.89C920.222 521.94 917.122 525.42 913.072 525.65C912.932 525.65 912.792 525.66 912.652 525.66H912.642Z" fill="black"/>
<path d="M818.842 795.509C817.102 795.509 815.352 794.889 813.952 793.639C810.922 790.939 810.662 786.289 813.362 783.259C868.782 721.149 900.582 644.379 905.312 561.269C905.542 557.219 909.022 554.109 913.072 554.349C917.122 554.579 920.222 558.049 919.992 562.109C915.062 648.579 881.992 728.439 824.332 793.049C822.882 794.679 820.862 795.509 818.842 795.509Z" fill="black"/>
<path d="M167.352 525.66C167.212 525.66 167.072 525.66 166.932 525.65C162.882 525.42 159.782 521.95 160.012 517.89C164.942 431.42 198.012 351.56 255.672 286.95C258.372 283.92 263.022 283.66 266.052 286.36C269.082 289.06 269.342 293.71 266.642 296.74C211.222 358.85 179.422 435.61 174.692 518.73C174.472 522.64 171.232 525.66 167.362 525.66H167.352Z" fill="black"/>
<path d="M261.162 795.509C259.142 795.509 257.122 794.679 255.672 793.049C198.012 728.429 164.942 648.569 160.012 562.109C159.782 558.059 162.882 554.579 166.932 554.349C170.982 554.109 174.462 557.219 174.692 561.269C179.422 644.389 211.222 721.149 266.642 783.259C269.342 786.289 269.082 790.939 266.052 793.639C264.652 794.889 262.902 795.509 261.162 795.509Z" fill="black"/>
<path d="M788.164 268.509C786.424 268.509 784.674 267.889 783.274 266.639C721.164 211.219 644.394 179.419 561.284 174.689C557.234 174.459 554.134 170.989 554.364 166.929C554.594 162.879 558.034 159.789 562.124 160.009C648.594 164.939 728.454 198.009 793.064 255.669C796.094 258.369 796.354 263.019 793.654 266.049C792.204 267.679 790.184 268.509 788.164 268.509Z" fill="black"/>
<path d="M291.844 268.51C289.824 268.51 287.804 267.68 286.354 266.05C283.654 263.02 283.914 258.37 286.944 255.67C351.564 198.01 431.424 164.94 517.884 160.01C521.934 159.78 525.414 162.88 525.644 166.93C525.874 170.98 522.774 174.46 518.724 174.69C435.614 179.42 358.844 211.22 296.734 266.64C295.334 267.89 293.584 268.51 291.844 268.51Z" fill="black"/>
<path d="M561.682 920C557.812 920 554.572 916.98 554.352 913.07C554.122 909.02 557.222 905.54 561.272 905.31C644.392 900.58 721.152 868.78 783.262 813.36C786.292 810.66 790.942 810.92 793.642 813.95C796.342 816.98 796.082 821.63 793.052 824.33C728.432 881.99 648.572 915.06 562.112 919.99C561.972 919.99 561.832 920 561.692 920H561.682Z" fill="black"/>
<path d="M518.312 920C518.172 920 518.032 920 517.892 919.99C431.422 915.06 351.562 881.99 286.952 824.33C283.922 821.63 283.662 816.98 286.362 813.95C289.062 810.92 293.712 810.66 296.742 813.36C358.852 868.78 435.622 900.58 518.732 905.31C522.782 905.54 525.882 909.01 525.652 913.07C525.432 916.98 522.192 920 518.322 920H518.312Z" fill="black"/>
<path d="M875.37 526.191C872.36 526.191 869.84 523.841 869.67 520.801C865.4 445.791 836.7 376.521 786.69 320.461C784.59 318.101 784.79 314.491 787.15 312.391C789.5 310.291 793.12 310.491 795.22 312.851C846.97 370.851 876.67 442.541 881.09 520.151C881.27 523.301 878.86 526.001 875.71 526.181C875.6 526.181 875.49 526.181 875.38 526.181L875.37 526.191Z" fill="black"/>
<path d="M790.95 769.062C789.59 769.062 788.24 768.582 787.15 767.612C784.79 765.512 784.59 761.892 786.69 759.542C836.7 703.492 865.4 634.212 869.67 559.202C869.85 556.052 872.54 553.642 875.7 553.822C878.85 554.002 881.26 556.702 881.08 559.852C876.66 637.472 846.97 709.152 795.21 767.152C794.08 768.422 792.51 769.062 790.94 769.062H790.95Z" fill="black"/>
<path d="M204.622 526.191C204.512 526.191 204.402 526.191 204.292 526.191C201.142 526.011 198.732 523.311 198.912 520.161C203.332 442.541 233.022 370.861 284.782 312.861C286.882 310.501 290.502 310.301 292.852 312.401C295.212 314.501 295.412 318.121 293.312 320.471C243.302 376.521 214.602 445.801 210.332 520.811C210.162 523.851 207.642 526.201 204.632 526.201L204.622 526.191Z" fill="black"/>
<path d="M289.04 769.061C287.47 769.061 285.9 768.411 284.77 767.151C233.02 709.151 203.32 637.461 198.9 559.851C198.72 556.701 201.13 554.001 204.28 553.821C207.44 553.631 210.13 556.051 210.31 559.201C214.58 634.211 243.28 703.491 293.29 759.541C295.39 761.901 295.19 765.511 292.83 767.611C291.74 768.581 290.38 769.061 289.03 769.061H289.04Z" fill="black"/>
<path d="M763.342 294.762C761.982 294.762 760.632 294.282 759.542 293.312C703.492 243.302 634.212 214.602 559.202 210.332C556.052 210.152 553.642 207.452 553.822 204.302C554.002 201.152 556.692 198.742 559.852 198.922C637.472 203.342 709.152 233.032 767.152 284.792C769.512 286.892 769.712 290.512 767.612 292.862C766.482 294.132 764.912 294.772 763.342 294.772V294.762Z" fill="black"/>
<path d="M316.651 294.761C315.081 294.761 313.511 294.111 312.381 292.851C310.281 290.491 310.481 286.881 312.841 284.781C370.841 233.031 442.531 203.331 520.141 198.911C523.291 198.721 525.991 201.141 526.171 204.291C526.351 207.441 523.941 210.141 520.791 210.321C445.781 214.591 376.511 243.291 320.451 293.301C319.361 294.271 318.001 294.751 316.651 294.751V294.761Z" fill="black"/>
<path d="M559.518 881.102C556.508 881.102 553.988 878.752 553.818 875.712C553.638 872.562 556.048 869.862 559.198 869.682C634.208 865.412 703.478 836.712 759.538 786.702C761.888 784.602 765.508 784.802 767.608 787.162C769.708 789.522 769.508 793.132 767.148 795.232C709.148 846.982 637.458 876.682 559.848 881.102C559.738 881.102 559.628 881.102 559.518 881.102Z" fill="black"/>
<path d="M520.479 881.102C520.369 881.102 520.259 881.102 520.149 881.102C442.529 876.682 370.849 846.992 312.849 795.232C310.489 793.132 310.289 789.512 312.389 787.162C314.489 784.802 318.109 784.602 320.459 786.702C376.509 836.722 445.789 865.412 520.799 869.682C523.949 869.862 526.359 872.562 526.179 875.712C526.009 878.752 523.489 881.102 520.479 881.102Z" fill="black"/>
<path d="M841.843 526.51C839.693 526.51 837.893 524.83 837.773 522.66C833.913 454.91 807.993 392.34 762.823 341.71C761.323 340.03 761.473 337.45 763.153 335.94C764.833 334.44 767.413 334.58 768.923 336.27C815.343 388.29 841.973 452.58 845.933 522.19C846.063 524.44 844.343 526.37 842.083 526.5C842.003 526.5 841.923 526.5 841.843 526.5V526.51Z" fill="black"/>
<path d="M765.862 745.101C764.892 745.101 763.922 744.761 763.142 744.061C761.462 742.561 761.312 739.981 762.812 738.291C807.982 687.661 833.902 625.091 837.762 557.341C837.892 555.091 839.852 553.391 842.072 553.491C844.322 553.621 846.042 555.551 845.922 557.801C841.952 627.411 815.322 691.701 768.912 743.721C768.102 744.621 766.982 745.081 765.862 745.081V745.101Z" fill="black"/>
<path d="M238.162 526.51C238.082 526.51 238.002 526.51 237.922 526.51C235.672 526.38 233.952 524.45 234.072 522.2C238.042 452.59 264.672 388.3 311.082 336.28C312.582 334.6 315.162 334.45 316.852 335.95C318.532 337.45 318.682 340.03 317.182 341.72C272.012 392.35 246.092 454.92 242.232 522.67C242.112 524.84 240.312 526.52 238.162 526.52V526.51Z" fill="black"/>
<path d="M314.133 745.101C313.013 745.101 311.893 744.641 311.083 743.741C264.663 691.721 238.033 627.431 234.073 557.821C233.943 555.571 235.663 553.641 237.923 553.511C240.163 553.401 242.103 555.101 242.233 557.361C246.093 625.111 272.013 687.681 317.183 738.311C318.683 739.991 318.533 742.571 316.853 744.081C316.073 744.771 315.103 745.121 314.133 745.121V745.101Z" fill="black"/>
<path d="M741.014 318.219C740.044 318.219 739.074 317.879 738.294 317.179C687.664 272.009 625.094 246.089 557.344 242.229C555.094 242.099 553.374 240.169 553.494 237.919C553.624 235.669 555.544 233.959 557.804 234.069C627.414 238.039 691.704 264.669 743.734 311.079C745.414 312.579 745.564 315.159 744.064 316.849C743.254 317.749 742.134 318.209 741.014 318.209V318.219Z" fill="black"/>
<path d="M338.994 318.22C337.874 318.22 336.754 317.76 335.944 316.86C334.444 315.18 334.594 312.6 336.274 311.09C388.294 264.67 452.584 238.04 522.194 234.08C524.444 233.96 526.374 235.67 526.504 237.93C526.634 240.18 524.914 242.11 522.654 242.24C454.904 246.1 392.334 272.02 341.704 317.19C340.924 317.88 339.954 318.23 338.984 318.23L338.994 318.22Z" fill="black"/>
<path d="M557.565 845.929C555.415 845.929 553.615 844.249 553.495 842.079C553.365 839.829 555.085 837.899 557.345 837.769C625.095 833.909 687.665 807.989 738.295 762.819C739.975 761.319 742.555 761.469 744.065 763.149C745.565 764.829 745.415 767.409 743.735 768.919C691.715 815.339 627.425 841.969 557.805 845.929C557.725 845.929 557.645 845.929 557.565 845.929Z" fill="black"/>
<path d="M522.434 845.929C522.354 845.929 522.274 845.929 522.194 845.929C452.584 841.959 388.294 815.329 336.274 768.919C334.594 767.419 334.444 764.839 335.944 763.149C337.444 761.469 340.024 761.319 341.714 762.819C392.344 807.989 454.914 833.909 522.664 837.769C524.914 837.899 526.634 839.829 526.514 842.079C526.394 844.249 524.594 845.929 522.444 845.929H522.434Z" fill="black"/>
<path d="M320.642 546.17C320.642 544.6 321.782 543.27 323.332 543.02C324.632 542.81 326.262 542.52 327.972 542.12C332.392 541.08 337.582 539.11 343.402 536.27C349.282 533.4 354.912 529.41 359.162 523.67C366.332 513.97 367.852 501.4 368.182 496.89C368.252 495.97 367.522 495.19 366.592 495.19H317.082C315.322 495.19 313.902 493.76 313.902 492.01V470.69C313.902 468.93 315.332 467.51 317.082 467.51H367.062C367.942 467.51 368.652 466.8 368.652 465.92V447.18C368.652 446.3 367.942 445.59 367.062 445.59H328.612C326.852 445.59 325.432 444.16 325.432 442.41V421.09C325.432 419.33 326.862 417.91 328.612 417.91H428.952C430.712 417.91 432.132 419.34 432.132 421.09V442.41C432.132 444.17 430.702 445.59 428.952 445.59H398.512C397.632 445.59 396.922 446.3 396.922 447.18V465.92C396.922 466.8 397.632 467.51 398.512 467.51H438.572C440.332 467.51 441.752 468.94 441.752 470.69V492.01C441.752 493.77 440.322 495.19 438.572 495.19H398.382C397.532 495.19 396.832 495.86 396.792 496.71C396.562 501.75 395.142 518.44 386.172 532.85C380.722 541.61 373.642 548.26 366.532 553.54C359.402 558.84 352.252 562.93 345.262 565.7C338.232 568.49 332.332 570.44 327.742 571.51C326.652 571.76 325.482 571.99 324.392 572.18C322.442 572.53 320.652 571.03 320.652 569.04V546.16L320.642 546.17Z" fill="black"/>
<path d="M474.544 546.52C474.544 545.06 475.544 543.79 476.954 543.43C485.204 541.36 488.924 540.11 496.834 536.32C496.834 536.32 500.884 534.21 504.924 531.3C517.104 522.54 525.214 510.63 525.214 510.63C534.674 497.28 537.764 474.91 538.484 468.49C538.594 467.55 537.854 466.72 536.904 466.72H500.574C500.344 466.72 500.134 466.84 500.024 467.04L499.874 467.29C494.294 478.11 486.874 487.99 480.444 494.24C473.994 500.5 468.584 505.05 464.374 507.75L461.774 509.42C460.714 510.1 459.324 509.34 459.324 508.08V479.89C459.324 478.95 459.744 478.06 460.464 477.45C461.114 476.9 461.984 476.13 463.174 475.06C465.934 472.57 469.044 468.51 472.414 462.98C475.754 457.51 479.344 450.21 483.064 441.29C486.444 433.2 488.974 423.09 490.854 412.06C491.114 410.53 492.444 409.42 493.994 409.42H513.904C515.904 409.42 517.414 411.25 517.034 413.21C516.394 416.52 515.704 420.88 514.844 424.31C513.574 429.39 512.754 432.3 511.234 436.72C510.974 437.47 511.534 438.24 512.324 438.24H591.174C592.934 438.24 594.354 439.67 594.354 441.42V463.51C594.354 465.27 592.924 466.69 591.174 466.69H568.134C567.324 466.69 566.634 467.3 566.554 468.11C565.924 474.01 562.874 497.16 552.384 517.26C538.284 546 508.134 566.39 478.334 572.13C476.374 572.51 474.554 571 474.554 569V546.48L474.544 546.52Z" fill="black"/>
<path d="M675.895 411.029V468.869C675.895 469.749 676.604 470.459 677.484 470.459H764.515C765.395 470.459 766.104 469.749 766.104 468.869V411.029C766.104 410.149 765.395 409.439 764.515 409.439H677.484C676.604 409.439 675.895 410.149 675.895 411.029ZM738.455 452.739H702.294C701.414 452.739 700.705 452.029 700.705 451.149V446.869C700.705 445.989 701.414 445.279 702.294 445.279H738.455C739.335 445.279 740.044 445.989 740.044 446.869V451.149C740.044 452.029 739.335 452.739 738.455 452.739ZM738.455 434.449H702.294C701.414 434.449 700.705 433.739 700.705 432.859V428.749C700.705 427.869 701.414 427.159 702.294 427.159H738.455C739.335 427.159 740.044 427.869 740.044 428.749V432.859C740.044 433.739 739.335 434.449 738.455 434.449Z" fill="black"/>
<path d="M674.224 497.34H728.264C729.144 497.34 729.854 498.05 729.854 498.93V502.84C729.854 503.72 729.144 504.43 728.264 504.43H667.754C665.994 504.43 664.574 505.86 664.574 507.61V522.86C664.574 524.62 666.004 526.04 667.754 526.04H728.264C729.144 526.04 729.854 526.75 729.854 527.63V545.39C729.854 546.11 729.934 547.98 729.214 548.85C728.384 549.87 727.144 549.67 725.844 549.72C722.534 549.72 719.574 549.7 716.944 549.66C716.544 549.66 716.254 549.29 716.334 548.9C716.594 547.63 716.724 546.31 716.694 544.96C716.494 535.68 708.934 528.08 699.654 527.84C689.574 527.58 681.364 535.85 681.704 545.94C682.014 555.29 689.784 562.81 699.144 562.84C704.034 562.85 708.454 560.86 711.634 557.64C711.974 557.3 712.544 557.43 712.694 557.88C714.154 562.21 715.534 566.34 716.784 570.05C717.224 571.35 718.454 572.22 719.824 572.21C725.724 572.17 730.504 571.96 734.174 571.6C738.304 571.18 742.084 570.15 745.514 568.5C749.174 566.84 751.684 564.42 753.044 561.23C754.404 558.04 755.084 553.55 755.084 547.76V527.62C755.084 526.74 755.794 526.03 756.674 526.03H762.904C764.664 526.03 766.084 524.6 766.084 522.85V507.6C766.084 505.84 764.654 504.42 762.904 504.42H756.674C755.794 504.42 755.084 503.71 755.084 502.83V498.92C755.084 498.04 755.794 497.33 756.674 497.33H762.904C764.664 497.33 766.084 495.9 766.084 494.15V479.6C766.084 477.84 764.654 476.42 762.904 476.42H674.204C672.444 476.42 671.024 477.85 671.024 479.6V494.15C671.024 495.91 672.454 497.33 674.204 497.33L674.224 497.34Z" fill="black"/>
<path d="M668.824 409.439H650.254C649.394 409.439 648.574 409.789 647.974 410.399C635.224 423.349 618.284 434.569 612.124 438.479C610.774 439.329 610.274 441.059 610.944 442.499L620.694 463.569C621.624 465.569 624.254 466.049 625.824 464.499C646.114 444.459 664.444 419.799 670.114 411.959C670.874 410.909 670.114 409.439 668.824 409.439Z" fill="black"/>
<path d="M671.914 453.889V435.409C671.914 433.999 670.214 433.289 669.204 434.279C653.634 449.599 620.044 477.059 611.674 483.859C610.544 484.779 610.184 486.349 610.794 487.669L620.694 509.049C621.624 511.049 624.254 511.529 625.824 509.979C627.534 508.289 629.234 506.559 630.914 504.819C631.314 504.409 632.014 504.689 632.014 505.259V569.059C632.014 570.819 633.444 572.239 635.194 572.239H653.814C655.574 572.239 656.994 570.809 656.994 569.059V476.369C656.994 475.299 657.354 474.249 658.024 473.409C664.864 464.729 669.714 458.019 671.334 455.739C671.714 455.199 671.924 454.559 671.924 453.889H671.914Z" fill="black"/>
<path d="M653.261 623.33C640.841 623.33 634.801 628.28 634.801 638.47V655.6C634.801 665.67 640.841 670.56 653.261 670.56C659.131 670.56 663.471 669.48 666.551 667.27C669.991 664.8 671.731 660.87 671.731 655.59V638.46C671.731 628.27 665.691 623.32 653.271 623.32L653.261 623.33ZM646.081 639.3C646.081 633.93 648.831 632.91 653.261 632.91C657.691 632.91 660.441 633.95 660.441 639.3V654.68C660.441 659.95 657.591 660.98 653.261 660.98C648.931 660.98 646.081 659.98 646.081 654.68V639.3Z" fill="black"/>
<path d="M708.262 669.331H721.352L703.622 646.781L720.552 624.8H707.392L694.052 642.281V610.23H682.762V669.331H694.052V659.211L696.942 655.451L708.262 669.331Z" fill="black"/>
<path d="M754.812 624.801V653.291C754.812 659.041 751.872 660.891 746.822 660.891C743.552 660.891 740.272 660.351 740.272 653.881V624.811H728.992V656.771C728.992 665.741 733.702 670.481 742.612 670.481C749.292 670.481 753.872 666.861 755.572 662.801L757.382 669.341H766.102V624.811H754.822L754.812 624.801Z" fill="black"/>
<path d="M630.561 610.23H589.141V620.141V620.151H604.211V669.331H615.681V620.151H630.561V610.23Z" fill="black"/>
<path d="M459.681 669.331H472.771L455.041 646.781L471.971 624.8H458.811L445.471 642.281V610.23H434.191V669.331H445.471V659.211L448.361 655.451L459.681 669.331Z" fill="black"/>
<path d="M355.322 610.23H313.902V620.141V620.151H328.982V669.331H340.442V620.151H355.322V610.23Z" fill="black"/>
<path d="M421.794 658.89L421.194 659.04C417.614 659.96 413.284 660.89 409.404 660.89C404.854 660.89 401.684 658.82 401.684 652.83V640.97C401.684 634.9 404.854 632.82 409.404 632.82C413.354 632.82 417.874 633.7 421.224 634.4L421.804 634.52V625.19L421.494 625.12C417.684 624.23 412.044 623.33 407.524 623.33C402.004 623.33 397.964 624.4 395.164 626.59C391.964 629.09 390.414 633.85 390.414 639.34V654.64C390.414 664.77 396.014 670.56 407.534 670.56C411.404 670.56 417.264 669.49 421.524 668.31L421.814 668.23V658.88L421.794 658.89Z" fill="black"/>
<path d="M553.922 634.699V624.799H543.682V615.189H532.402V624.799H525.172V634.699H532.402V655.419C532.402 667.939 540.292 670.559 546.922 670.559C548.702 670.559 550.502 670.449 552.112 670.219V660.259C551.462 660.329 550.252 660.359 549.532 660.359C546.452 660.359 543.682 659.729 543.682 652.089V634.689H553.922V634.699Z" fill="black"/>
<path d="M489.733 650.741V650.561H515.163V641.481C515.163 635.571 513.543 630.241 510.353 627.341C507.413 624.671 502.773 623.311 497.253 623.311C485.073 623.311 478.453 629.221 478.453 639.591V654.451C478.453 664.701 483.833 670.551 496.313 670.551C500.973 670.551 506.283 669.561 511.963 668.401L512.353 668.321V659.051L511.703 659.201C507.133 660.251 504.613 661.141 500.283 661.141C494.073 661.141 489.733 658.621 489.733 652.201V650.721V650.741ZM489.733 639.721C489.733 634.071 493.793 632.741 497.163 632.741C500.533 632.741 504.063 634.071 504.063 639.721V643.231H489.733V642.711V639.721Z" fill="black"/>
<path d="M378.171 626.881H366.891V669.331H378.171V626.881Z" fill="black"/>
<path d="M372.534 622.22C376.416 622.22 379.564 619.073 379.564 615.19C379.564 611.308 376.416 608.16 372.534 608.16C368.651 608.16 365.504 611.308 365.504 615.19C365.504 619.073 368.651 622.22 372.534 622.22Z" fill="black"/>
<path d="M585.731 643.92H566.141V651.26H585.731V643.92Z" fill="black"/>
<path d="M777.526 1645.83V1670.03C777.526 1678.62 777.768 1682.85 778.494 1687.45H760.465C761.191 1683.34 761.433 1678.26 761.433 1670.27V1606.5C761.433 1599.85 761.191 1596.34 760.465 1590.77C765.426 1591.02 768.451 1591.14 775.832 1591.14H809.712C817.335 1591.14 821.207 1590.89 826.289 1590.29V1606.62C821.933 1606.02 817.456 1605.78 809.712 1605.78H777.526V1631.43H803.42C810.922 1631.43 815.157 1631.19 819.876 1630.58V1646.68C815.399 1646.07 810.801 1645.83 803.42 1645.83H777.526Z" fill="black"/>
<path d="M699.659 1645.83V1670.03C699.659 1678.62 699.901 1682.85 700.627 1687.45H682.598C683.324 1683.34 683.566 1678.26 683.566 1670.27V1606.5C683.566 1599.85 683.324 1596.34 682.598 1590.77C687.559 1591.02 690.584 1591.14 697.965 1591.14H731.845C739.468 1591.14 743.34 1590.89 748.422 1590.29V1606.62C744.066 1606.02 739.589 1605.78 731.845 1605.78H699.659V1631.43H725.553C733.055 1631.43 737.29 1631.19 742.009 1630.58V1646.68C737.532 1646.07 732.934 1645.83 725.553 1645.83H699.659Z" fill="black"/>
<path d="M623.078 1589.2C636.388 1589.2 646.673 1593.07 654.901 1601.3C663.734 1610.13 668.453 1623.32 668.453 1639.05C668.453 1669.66 650.666 1689.51 623.199 1689.51C595.732 1689.51 578.066 1669.79 578.066 1639.05C578.066 1623.44 582.906 1610.01 591.86 1601.3C600.209 1593.07 610.252 1589.2 623.078 1589.2ZM623.441 1675.11C640.744 1675.11 651.513 1661.32 651.513 1639.05C651.513 1626.83 648.125 1617.03 641.954 1610.86C636.993 1606.02 630.58 1603.48 623.32 1603.48C605.896 1603.48 594.885 1617.27 594.885 1639.17C594.885 1651.27 598.394 1661.44 604.686 1667.73C609.647 1672.57 616.06 1675.11 623.441 1675.11Z" fill="black"/>
<path d="M475.027 1685.64L551.136 1588.23L557.428 1593.07L481.198 1690.6L475.027 1685.64ZM544.723 1689.39C537.947 1689.39 532.381 1687.33 528.267 1683.22C523.669 1678.74 521.249 1671.48 521.249 1662.28C521.249 1653.21 523.669 1646.07 528.267 1641.47C532.381 1637.48 538.068 1635.3 544.723 1635.3C551.378 1635.3 557.065 1637.48 561.058 1641.47C565.656 1645.95 568.076 1653.21 568.076 1662.28C568.076 1671.48 565.656 1678.74 561.058 1683.22C556.944 1687.33 551.378 1689.39 544.723 1689.39ZM544.723 1645.59C541.214 1645.59 538.915 1646.68 536.979 1649.46C534.801 1652.48 533.712 1656.6 533.712 1662.04C533.712 1673.17 537.584 1679.22 544.723 1679.22C551.983 1679.22 555.734 1673.17 555.734 1661.44C555.734 1656.6 554.524 1652.24 552.467 1649.34C550.41 1646.68 548.232 1645.59 544.723 1645.59ZM487.732 1643.41C480.956 1643.41 475.39 1641.35 471.276 1637.24C466.678 1632.76 464.258 1625.38 464.258 1616.3C464.258 1599.36 472.97 1589.32 487.732 1589.32C494.387 1589.32 500.074 1591.5 504.067 1595.49C508.665 1599.97 511.085 1607.23 511.085 1616.3C511.085 1625.5 508.665 1632.76 504.067 1637.24C499.953 1641.35 494.387 1643.41 487.732 1643.41ZM487.732 1599.61C480.714 1599.61 476.721 1605.54 476.721 1616.06C476.721 1627.19 480.593 1633.24 487.732 1633.24C494.75 1633.24 498.743 1627.19 498.743 1616.3C498.743 1611.95 497.896 1607.59 496.565 1605.05C494.508 1601.3 491.725 1599.61 487.732 1599.61Z" fill="black"/>
<path d="M416.349 1689.39C406.064 1689.39 397.352 1686 390.939 1679.59C387.309 1675.96 384.526 1671.72 382.953 1667.37C379.807 1658.77 378.234 1649.34 378.234 1639.54C378.234 1626.71 381.138 1613.4 385.615 1606.02C392.149 1595.13 403.039 1589.2 416.47 1589.2C426.755 1589.2 435.588 1592.59 442.001 1599C445.631 1602.63 448.414 1606.87 449.987 1611.22C453.133 1619.69 454.706 1629.37 454.706 1639.29C454.706 1654.18 451.439 1667.24 445.752 1675.11C438.976 1684.55 428.933 1689.39 416.349 1689.39ZM416.47 1675.35C421.794 1675.35 426.513 1673.54 429.538 1670.27C434.983 1664.58 438.008 1653.33 438.008 1639.17C438.008 1625.14 434.983 1614.13 429.538 1608.2C426.634 1604.93 421.794 1603.11 416.349 1603.11C410.541 1603.11 406.306 1605.05 402.797 1609.29C397.473 1615.58 394.811 1625.5 394.811 1638.69C394.811 1651.39 397.11 1661.92 400.982 1667.49C404.733 1672.81 409.815 1675.35 416.47 1675.35Z" fill="black"/>
<path d="M341.461 1687.45H323.19C323.916 1682.73 324.158 1678.01 324.158 1671.72V1605.05H318.35C313.873 1605.05 310.364 1605.29 305.887 1605.78V1590.41C309.638 1591.02 312.3 1591.14 317.987 1591.14H329.119C335.29 1591.14 337.105 1591.02 341.461 1590.53C340.735 1597.67 340.493 1603.24 340.493 1610.5V1671.72C340.493 1678.14 340.735 1682.49 341.461 1687.45Z" fill="black"/>
<path d="M675.928 1451.26L679 1454.28C678.52 1455 678.328 1455.43 677.8 1457.16C675.592 1464.46 672.184 1470.94 667.96 1475.69C663.544 1480.73 658.264 1484.47 650.872 1487.88C649.528 1485.48 648.904 1484.66 646.792 1482.84C651.592 1480.87 654.28 1479.43 657.304 1477.18C664.168 1472.09 668.68 1465.51 671.32 1456.92L656.872 1457.16C653.944 1461.82 650.2 1465.94 645.64 1469.45C644.2 1467.48 643.48 1466.86 640.984 1465.32C646.456 1461.58 649.912 1457.74 653.416 1451.4C654.904 1448.66 655.672 1446.79 655.864 1445.06L662.44 1446.36C662.152 1446.79 662.152 1446.79 661.624 1447.85C661.48 1448.09 661.48 1448.09 661 1449.19C660.856 1449.48 660.856 1449.48 660.376 1450.44C660.088 1451.11 660.088 1451.11 659.608 1451.98C660.232 1451.93 661 1451.88 661.912 1451.88L672.424 1451.74C674.296 1451.74 674.824 1451.64 675.928 1451.26Z" fill="black"/>
<path d="M594.858 1454.18L598.842 1449.43C604.554 1452.98 607.53 1455.19 611.226 1458.7L607.098 1463.93C603.258 1459.85 599.322 1456.68 594.858 1454.18ZM596.538 1485.86L594.762 1479.24C598.89 1479 604.602 1477.61 608.97 1475.69C614.97 1473.1 619.434 1469.4 623.226 1463.93C625.338 1460.86 626.682 1458.22 628.122 1454.33C629.994 1456.58 630.762 1457.3 633.21 1459.03C629.13 1467.82 624.57 1473.48 617.994 1477.85C613.098 1481.11 607.146 1483.46 599.706 1485.05C597.786 1485.43 597.642 1485.48 596.538 1485.86Z" fill="black"/>
<path d="M550.79 1447.13L557.318 1447.18C557.126 1448.52 557.126 1448.95 557.126 1451.5V1464.74C557.126 1467.14 557.126 1467.77 557.318 1468.97H550.742C550.886 1467.86 550.982 1466.38 550.982 1464.65V1451.45C550.982 1449 550.934 1448.38 550.79 1447.13ZM572.438 1447.22H579.11C578.918 1448.42 578.87 1448.95 578.87 1451.69V1458.17C578.822 1465.66 578.486 1469.69 577.622 1472.71C576.23 1477.51 573.158 1481.11 568.166 1483.9C565.622 1485.34 563.222 1486.3 558.806 1487.59C557.942 1485.24 557.462 1484.42 555.446 1481.88C560.15 1480.97 562.934 1479.96 565.814 1478.04C570.326 1475.06 571.91 1472.14 572.438 1465.8C572.63 1463.74 572.678 1461.62 572.678 1457.78V1451.78C572.678 1449.34 572.63 1448.33 572.438 1447.22Z" fill="black"/>
<path d="M511.478 1487.16H504.902C505.094 1485.82 505.19 1484.52 505.19 1481.78V1451.02C505.142 1448.23 505.094 1447.27 504.902 1446.12H511.478C511.334 1447.42 511.286 1448.33 511.286 1451.16V1460.09C516.854 1461.91 525.494 1465.94 533.078 1470.22L529.718 1475.88C526.358 1473.48 519.542 1469.78 512.726 1466.71C511.622 1466.18 511.478 1466.14 511.094 1465.9C511.238 1467.24 511.286 1468.06 511.286 1469.16V1481.83C511.286 1484.42 511.334 1485.77 511.478 1487.16ZM521.318 1450.3L524.678 1448.62C526.79 1450.87 528.086 1452.7 529.718 1455.67L526.358 1457.45C524.774 1454.52 523.43 1452.6 521.318 1450.3ZM535.43 1452.55L532.118 1454.42C530.678 1451.78 529.094 1449.53 527.222 1447.46L530.438 1445.78C532.598 1447.99 533.942 1449.82 535.43 1452.55Z" fill="black"/>
<path d="M454.745 1459.13V1450.25C454.745 1448.52 454.697 1447.22 454.553 1445.98C455.993 1446.17 457.385 1446.22 459.977 1446.22H478.073C480.761 1446.22 482.297 1446.17 483.545 1445.98C483.401 1447.18 483.353 1448.38 483.353 1450.2V1459.08C483.353 1461.05 483.401 1462.25 483.545 1463.54C482.057 1463.4 481.097 1463.35 478.553 1463.35H459.545C457.049 1463.35 455.993 1463.4 454.553 1463.54C454.697 1462.2 454.745 1460.9 454.745 1459.13ZM459.881 1451.02V1458.7H478.169V1451.02H459.881ZM448.361 1483.75V1471.42C448.361 1469.69 448.313 1468.2 448.169 1466.81C449.609 1466.95 450.857 1467 452.825 1467H463.337C464.729 1467 465.785 1466.95 466.937 1466.86C466.793 1467.86 466.793 1468.58 466.793 1471.03V1483.85C466.793 1485.82 466.841 1487.11 466.985 1488.17H461.801V1486.44H453.449V1488.94H448.121C448.313 1487.54 448.361 1486.25 448.361 1483.75ZM453.401 1471.66V1481.78H461.801V1471.66H453.401ZM473.897 1467H485.609C487.577 1467 488.681 1466.95 489.881 1466.81C489.737 1468.15 489.689 1469.45 489.689 1471.42V1483.8C489.689 1486.39 489.737 1487.64 489.929 1488.94H484.553V1486.44H475.433V1488.94H470.297C470.393 1487.59 470.441 1486.63 470.441 1484.66V1470.79C470.441 1468.63 470.441 1467.86 470.345 1466.86C471.449 1466.95 472.457 1467 473.897 1467ZM475.433 1471.66V1481.78H484.601V1471.66H475.433Z" fill="black"/>
<path d="M418.025 1473.19H408.521C406.361 1473.19 405.065 1473.24 403.433 1473.34C403.577 1471.8 403.625 1470.6 403.625 1468.54V1458.41C403.625 1456.01 403.577 1454.71 403.433 1453.32C404.633 1453.46 405.641 1453.51 407.849 1453.51C406.601 1451.06 405.641 1449.58 403.577 1447.22L408.329 1445.21C410.537 1447.8 411.497 1449.19 413.081 1451.98L409.433 1453.51H427.625C429.881 1450.3 431.273 1447.85 432.329 1444.97L437.945 1446.74C435.881 1450.06 434.729 1451.78 433.385 1453.51C435.977 1453.51 437.177 1453.46 438.473 1453.32C438.329 1454.62 438.281 1455.91 438.281 1458.41V1468.39C438.281 1470.7 438.329 1472.04 438.473 1473.34C436.793 1473.24 435.353 1473.19 433.385 1473.19H423.305V1476.31H437.321C439.769 1476.31 441.113 1476.26 442.553 1476.07V1481.4C441.161 1481.21 439.193 1481.11 436.793 1481.11H423.305V1484.23C423.305 1486.63 423.353 1487.59 423.641 1489.08H417.737C417.977 1487.69 418.025 1486.63 418.025 1484.23V1481.11H405.017C402.569 1481.11 400.793 1481.21 399.305 1481.4V1476.07C400.793 1476.26 402.233 1476.31 404.585 1476.31H418.025V1473.19ZM423.305 1461.1H433.145V1457.83H423.305V1461.1ZM418.025 1461.1V1457.83H408.761V1461.1H418.025ZM423.305 1468.82H433.145V1465.13H423.305V1468.82ZM418.025 1468.82V1465.13H408.761V1468.82H418.025ZM424.649 1451.5L419.561 1453.22C418.553 1450.34 417.833 1448.95 415.817 1445.78L420.761 1444.39C422.633 1447.18 423.209 1448.23 424.649 1451.5Z" fill="black"/>
<path d="M787.895 1345.82H777.151C775.995 1343.5 774.771 1341.53 772.799 1338.54L755.255 1312.09C753.963 1310.05 752.263 1307.12 750.631 1303.93C750.699 1304.88 750.699 1304.88 750.903 1307.4C750.971 1308.69 751.107 1311.75 751.107 1313.31V1335.62C751.107 1340.17 751.311 1343.37 751.651 1345.82H741.723C742.063 1343.57 742.267 1340.17 742.267 1335.55V1300.46C742.267 1296.92 742.131 1294.48 741.723 1291.69H752.331C752.943 1293.39 754.167 1295.43 756.479 1298.9L773.683 1324.8C775.315 1327.25 777.491 1330.79 778.987 1333.51C778.715 1330.86 778.511 1326.78 778.511 1323.92V1301.07C778.511 1297.06 778.375 1294.27 777.967 1291.69H787.895C787.487 1294.41 787.351 1296.92 787.351 1301.07V1337.04C787.351 1340.85 787.487 1343.44 787.895 1345.82Z" fill="black"/>
<path d="M708.273 1290.6C715.753 1290.6 721.533 1292.78 726.157 1297.4C731.121 1302.36 733.773 1309.78 733.773 1318.62C733.773 1335.82 723.777 1346.97 708.341 1346.97C692.905 1346.97 682.977 1335.89 682.977 1318.62C682.977 1309.84 685.697 1302.3 690.729 1297.4C695.421 1292.78 701.065 1290.6 708.273 1290.6ZM708.477 1338.88C718.201 1338.88 724.253 1331.13 724.253 1318.62C724.253 1311.75 722.349 1306.24 718.881 1302.77C716.093 1300.05 712.489 1298.62 708.409 1298.62C698.617 1298.62 692.429 1306.38 692.429 1318.68C692.429 1325.48 694.401 1331.2 697.937 1334.73C700.725 1337.45 704.329 1338.88 708.477 1338.88Z" fill="black"/>
<path d="M650.317 1345.82H642.293C641.953 1343.64 640.865 1340.44 639.301 1336.64L629.509 1313.31C628.217 1310.25 627.605 1308.42 626.041 1302.91C626.313 1306.51 626.585 1312.09 626.585 1313.58V1335.89C626.585 1340.58 626.721 1343.16 627.129 1345.82H617.609C618.017 1343.1 618.153 1340.44 618.153 1335.89V1301.75C618.153 1297.33 618.017 1294.48 617.609 1291.69H630.053C630.529 1294.07 631.413 1296.92 632.569 1299.78L646.373 1333.51L660.109 1299.78C661.469 1296.45 662.081 1294.27 662.557 1291.69H675.069C674.661 1294.95 674.525 1297.2 674.525 1301.75V1335.89C674.525 1340.85 674.661 1343.3 675.069 1345.82H665.549C665.957 1343.03 666.093 1340.58 666.093 1335.89V1313.31C666.365 1307.4 666.569 1303.93 666.637 1302.91C665.753 1306.58 664.461 1310.39 663.509 1312.84L653.309 1336.77C651.949 1339.97 650.725 1343.78 650.317 1345.82Z" fill="black"/>
<path d="M584.159 1290.6C591.639 1290.6 597.419 1292.78 602.043 1297.4C607.007 1302.36 609.659 1309.78 609.659 1318.62C609.659 1335.82 599.663 1346.97 584.227 1346.97C568.791 1346.97 558.863 1335.89 558.863 1318.62C558.863 1309.84 561.583 1302.3 566.615 1297.4C571.307 1292.78 576.951 1290.6 584.159 1290.6ZM584.363 1338.88C594.087 1338.88 600.139 1331.13 600.139 1318.62C600.139 1311.75 598.235 1306.24 594.767 1302.77C591.979 1300.05 588.375 1298.62 584.295 1298.62C574.503 1298.62 568.315 1306.38 568.315 1318.68C568.315 1325.48 570.287 1331.2 573.823 1334.73C576.611 1337.45 580.215 1338.88 584.363 1338.88Z" fill="black"/>
<path d="M550.957 1345.82H540.213C539.057 1343.5 537.833 1341.53 535.861 1338.54L518.317 1312.09C517.025 1310.05 515.325 1307.12 513.693 1303.93C513.761 1304.88 513.761 1304.88 513.965 1307.4C514.033 1308.69 514.169 1311.75 514.169 1313.31V1335.62C514.169 1340.17 514.373 1343.37 514.713 1345.82H504.785C505.125 1343.57 505.329 1340.17 505.329 1335.55V1300.46C505.329 1296.92 505.193 1294.48 504.785 1291.69H515.393C516.005 1293.39 517.229 1295.43 519.541 1298.9L536.745 1324.8C538.377 1327.25 540.553 1330.79 542.049 1333.51C541.777 1330.86 541.573 1326.78 541.573 1323.92V1301.07C541.573 1297.06 541.437 1294.27 541.029 1291.69H550.957C550.549 1294.41 550.413 1296.92 550.413 1301.07V1337.04C550.413 1340.85 550.549 1343.44 550.957 1345.82Z" fill="black"/>
<path d="M499.233 1345.82H488.081C487.673 1343.57 486.925 1340.65 486.177 1338.68L483.457 1331.26H461.697L458.977 1338.68C457.753 1341.94 457.481 1342.96 456.937 1345.82H445.785C446.805 1343.98 448.165 1340.92 449.389 1337.79L464.349 1298.56C465.641 1295.16 466.185 1293.46 466.525 1291.69H478.357C478.697 1293.32 479.105 1294.41 480.669 1298.56L495.765 1337.79C497.465 1342.14 498.281 1344.05 499.233 1345.82ZM481.009 1323.44L473.733 1303.32C473.461 1302.57 473.257 1301.75 472.509 1299.51C471.421 1302.7 471.421 1302.7 471.217 1303.32L464.145 1323.44H481.009Z" fill="black"/>
<path d="M443.037 1345.82H431.817C431.681 1344.18 430.525 1340.72 428.281 1334.94C424.609 1325.55 422.229 1323.04 416.993 1323.04H406.861V1336.91C406.861 1340.99 406.997 1343.16 407.405 1345.82H397.273C397.681 1342.96 397.817 1341.12 397.817 1336.98V1300.32C397.817 1296.72 397.681 1294.68 397.273 1291.48C400.129 1291.62 402.237 1291.69 405.977 1291.69H422.297C432.633 1291.69 438.549 1296.86 438.549 1305.83C438.549 1310.18 437.393 1313.58 435.081 1315.96C433.177 1317.94 431.409 1318.82 427.533 1319.91C431.817 1321.27 433.109 1323.17 439.841 1339.08C440.385 1340.31 442.085 1343.98 443.037 1345.82ZM406.861 1315.28H420.529C423.045 1315.28 425.425 1314.4 426.989 1312.84C428.417 1311.41 429.165 1309.44 429.165 1306.85C429.165 1301.96 426.377 1299.44 420.801 1299.44H406.861V1315.28Z" fill="black"/>
<path d="M363.823 1290.6C371.303 1290.6 377.083 1292.78 381.707 1297.4C386.671 1302.36 389.323 1309.78 389.323 1318.62C389.323 1335.82 379.327 1346.97 363.891 1346.97C348.455 1346.97 338.527 1335.89 338.527 1318.62C338.527 1309.84 341.247 1302.3 346.279 1297.4C350.971 1292.78 356.615 1290.6 363.823 1290.6ZM364.027 1338.88C373.751 1338.88 379.803 1331.13 379.803 1318.62C379.803 1311.75 377.899 1306.24 374.431 1302.77C371.643 1300.05 368.039 1298.62 363.959 1298.62C354.167 1298.62 347.979 1306.38 347.979 1318.68C347.979 1325.48 349.951 1331.2 353.487 1334.73C356.275 1337.45 359.879 1338.88 364.027 1338.88Z" fill="black"/>
<path d="M315.953 1299.85V1336.98C315.953 1340.65 316.089 1343.03 316.497 1345.82H306.229C306.637 1342.96 306.773 1340.65 306.773 1336.98V1299.85H297.593C293.581 1299.85 290.657 1299.98 288.277 1300.32V1291.21C290.725 1291.55 293.649 1291.69 297.525 1291.69H324.453C329.349 1291.69 331.865 1291.55 334.449 1291.21V1300.32C331.933 1299.98 329.349 1299.85 324.453 1299.85H315.953Z" fill="black"/>
<path d="M692.23 1228.71L701.614 1226.74C702.226 1228.71 702.702 1229.6 703.654 1230.68C705.558 1233 708.414 1234.15 712.018 1234.15C718.75 1234.15 723.17 1229.66 723.17 1222.93C723.17 1216.27 718.954 1211.98 712.494 1211.98C709.162 1211.98 706.17 1213.07 704.062 1215.11C703.11 1216.06 702.634 1216.68 702.022 1218.17L693.522 1217.36C694.202 1212.53 694.27 1212.19 694.406 1210.28L695.97 1193.42C696.038 1192.2 696.174 1189.88 696.242 1186.48C698.282 1186.62 699.846 1186.69 703.45 1186.69H720.178C724.87 1186.69 726.57 1186.62 729.63 1186.14V1194.71C726.638 1194.3 723.986 1194.17 720.246 1194.17H704.266L703.178 1206.07C703.11 1206.61 702.974 1207.56 702.77 1208.92C706.102 1206.07 709.706 1204.78 714.398 1204.78C719.906 1204.78 724.326 1206.41 727.658 1209.88C730.99 1213.14 732.486 1217.22 732.486 1222.66C732.486 1234.63 724.666 1242.04 712.018 1242.04C705.286 1242.04 700.254 1240.14 696.514 1236.12C694.678 1234.15 693.726 1232.52 692.23 1228.71Z" fill="black"/>
<path d="M663.947 1241.9C658.167 1241.9 653.271 1240 649.667 1236.4C647.627 1234.36 646.063 1231.98 645.179 1229.53C643.411 1224.7 642.527 1219.4 642.527 1213.89C642.527 1206.68 644.159 1199.2 646.675 1195.05C650.347 1188.93 656.467 1185.6 664.015 1185.6C669.795 1185.6 674.759 1187.5 678.363 1191.11C680.403 1193.15 681.967 1195.53 682.851 1197.98C684.619 1202.74 685.503 1208.18 685.503 1213.75C685.503 1222.12 683.667 1229.46 680.471 1233.88C676.663 1239.18 671.019 1241.9 663.947 1241.9ZM664.015 1234.02C667.007 1234.02 669.659 1233 671.359 1231.16C674.419 1227.96 676.119 1221.64 676.119 1213.68C676.119 1205.8 674.419 1199.61 671.359 1196.28C669.727 1194.44 667.007 1193.42 663.947 1193.42C660.683 1193.42 658.303 1194.51 656.331 1196.89C653.339 1200.42 651.843 1206 651.843 1213.41C651.843 1220.55 653.135 1226.47 655.311 1229.6C657.419 1232.59 660.275 1234.02 664.015 1234.02Z" fill="black"/>
<path d="M621.863 1240.82H611.595C612.003 1238.16 612.139 1235.51 612.139 1231.98V1194.51H608.875C606.359 1194.51 604.387 1194.64 601.871 1194.92V1186.28C603.979 1186.62 605.475 1186.69 608.671 1186.69H614.927C618.395 1186.69 619.415 1186.62 621.863 1186.35C621.455 1190.36 621.319 1193.49 621.319 1197.57V1231.98C621.319 1235.58 621.455 1238.03 621.863 1240.82Z" fill="black"/>
<path d="M588.3 1232.25V1241.29C585.852 1240.95 583.676 1240.82 579.528 1240.82H558.312C554.232 1240.82 552.396 1240.88 549.676 1241.02C550.084 1238.3 550.22 1236.06 550.22 1232.04V1195.26C550.22 1191.72 550.084 1189.68 549.676 1186.48C552.396 1186.62 554.164 1186.69 558.312 1186.69H578.848C582.248 1186.69 584.492 1186.55 587.62 1186.21V1195.19C585.036 1194.85 582.86 1194.71 578.848 1194.71H559.264V1208.72H575.788C579.324 1208.72 581.636 1208.58 584.628 1208.24V1217.15C581.84 1216.74 580.004 1216.68 575.788 1216.68H559.196V1232.72H579.596C583.404 1232.72 585.376 1232.59 588.3 1232.25Z" fill="black"/>
<path d="M515.502 1217.42V1231.02C515.502 1235.85 515.638 1238.23 516.046 1240.82H505.914C506.322 1238.5 506.458 1235.65 506.458 1231.16V1195.32C506.458 1191.58 506.322 1189.61 505.914 1186.48C508.702 1186.62 510.402 1186.69 514.55 1186.69H533.59C537.874 1186.69 540.05 1186.55 542.906 1186.21V1195.39C540.458 1195.05 537.942 1194.92 533.59 1194.92H515.502V1209.33H530.054C534.27 1209.33 536.65 1209.2 539.302 1208.86V1217.9C536.786 1217.56 534.202 1217.42 530.054 1217.42H515.502Z" fill="black"/>
<path d="M500.362 1240.82H489.21C488.802 1238.57 488.054 1235.65 487.306 1233.68L484.586 1226.26H462.826L460.106 1233.68C458.882 1236.94 458.61 1237.96 458.066 1240.82H446.914C447.934 1238.98 449.294 1235.92 450.518 1232.79L465.478 1193.56C466.77 1190.16 467.314 1188.46 467.654 1186.69H479.486C479.826 1188.32 480.234 1189.41 481.798 1193.56L496.894 1232.79C498.594 1237.14 499.41 1239.05 500.362 1240.82ZM482.138 1218.44L474.862 1198.32C474.59 1197.57 474.386 1196.75 473.638 1194.51C472.55 1197.7 472.55 1197.7 472.346 1198.32L465.274 1218.44H482.138Z" fill="black"/>
<path d="M433.589 1222.59L443.313 1224.29C442.021 1229.19 440.797 1231.84 438.757 1234.49C434.881 1239.25 428.353 1241.9 420.193 1241.9C412.781 1241.9 406.865 1239.66 402.717 1235.38C397.957 1230.41 395.305 1222.73 395.305 1214.02C395.305 1205.05 398.161 1197.16 403.261 1192.06C407.341 1187.91 413.461 1185.6 420.261 1185.6C425.565 1185.6 429.577 1186.62 433.317 1188.86C436.377 1190.77 438.825 1193.28 440.525 1196.28C441.341 1197.7 441.817 1198.93 442.633 1201.51L433.181 1203.69C432.229 1200.7 431.617 1199.4 430.257 1197.84C427.945 1195.05 424.545 1193.62 420.329 1193.62C410.673 1193.62 404.825 1201.17 404.825 1213.68C404.825 1226.13 410.809 1233.88 420.329 1233.88C425.089 1233.88 429.169 1232.04 431.345 1228.85C432.501 1227.15 433.045 1225.72 433.589 1222.59Z" fill="black"/>
<path d="M360.982 1186.69H367.986L365.674 1201.1H373.97L376.282 1186.69H383.286L380.974 1201.1H388.862V1207.5H379.954L378.186 1218.99H386.006V1225.38H377.166L374.65 1240.82H367.714L370.162 1225.38H361.866L359.35 1240.82H352.414L354.862 1225.38H346.77V1218.99H355.882L357.65 1207.5H349.626V1201.1H358.67L360.982 1186.69ZM364.654 1207.5L362.886 1218.99H371.182L372.95 1207.5H364.654Z" fill="black"/>
</svg>
