<svg width="1080" height="1920" viewBox="0 0 1080 1920" fill="none" xmlns="http://www.w3.org/2000/svg">
<path d="M1080 1920L1080 0L0 0L0 1920H1080Z" fill="#A5D4AD"/>
<path d="M1020 983.72V95C1020 75.67 1004.33 60 985 60H95.58C75.93 60 60 75.93 60 95.58V983.71C60 984.03 60.25 984.28 60.57 984.28C80.03 984.59 95.71 1000.46 95.71 1019.99C95.71 1039.52 80.03 1055.39 60.57 1055.7C60.25 1055.7 60 1055.96 60 1056.27V1824.99C60 1844.32 75.67 1859.99 95 1859.99H985C1004.33 1859.99 1020 1844.32 1020 1824.99V1056.27C1020 1055.95 1019.75 1055.7 1019.43 1055.7C999.97 1055.39 984.29 1039.52 984.29 1019.99C984.29 1000.46 999.97 984.59 1019.43 984.28C1019.75 984.28 1020 984.02 1020 983.71V983.72Z" fill="white"/>
<path d="M60.57 1055.71C60.25 1055.71 60 1055.97 60 1056.28V1825C60 1844.33 75.67 1860 95 1860H985C1004.33 1860 1020 1844.33 1020 1825V1056.28C1020 1055.96 1019.75 1055.71 1019.43 1055.71C999.97 1055.4 984.29 1039.53 984.29 1020H95.71C95.71 1039.53 80.03 1055.4 60.57 1055.71Z" fill="#E5F2E6"/>
<path d="M121 1020H160.9" stroke="black" stroke-width="6" stroke-miterlimit="10"/>
<path d="M187.512 1020H227.412" stroke="black" stroke-width="6" stroke-miterlimit="10"/>
<path d="M254.02 1020H293.92" stroke="black" stroke-width="6" stroke-miterlimit="10"/>
<path d="M320.52 1020H360.43" stroke="black" stroke-width="6" stroke-miterlimit="10"/>
<path d="M387.031 1020H426.941" stroke="black" stroke-width="6" stroke-miterlimit="10"/>
<path d="M453.539 1020H493.439" stroke="black" stroke-width="6" stroke-miterlimit="10"/>
<path d="M520.051 1020H559.951" stroke="black" stroke-width="6" stroke-miterlimit="10"/>
<path d="M586.559 1020H626.459" stroke="black" stroke-width="6" stroke-miterlimit="10"/>
<path d="M653.059 1020H692.969" stroke="black" stroke-width="6" stroke-miterlimit="10"/>
<path d="M719.57 1020H759.48" stroke="black" stroke-width="6" stroke-miterlimit="10"/>
<path d="M786.078 1020H825.978" stroke="black" stroke-width="6" stroke-miterlimit="10"/>
<path d="M852.59 1020H892.49" stroke="black" stroke-width="6" stroke-miterlimit="10"/>
<path d="M919.102 1020H959.002" stroke="black" stroke-width="6" stroke-miterlimit="10"/>
<path d="M1020 984.29V95C1020 75.67 1004.33 60 985 60H95C75.67 60 60 75.67 60 95V984.29C79.72 984.29 95.71 1000.28 95.71 1020C95.71 1039.72 79.72 1055.71 60 1055.71V1825C60 1844.33 75.67 1860 95 1860H985C1004.33 1860 1020 1844.33 1020 1825V1055.71C1000.28 1055.71 984.29 1039.72 984.29 1020C984.29 1000.28 1000.28 984.29 1020 984.29Z" stroke="black" stroke-width="6" stroke-miterlimit="10"/>
<path d="M912.642 525.66C908.772 525.66 905.532 522.64 905.312 518.73C900.582 435.62 868.782 358.85 813.362 296.74C810.662 293.71 810.922 289.06 813.952 286.36C816.982 283.66 821.622 283.92 824.332 286.95C881.992 351.57 915.062 431.43 919.992 517.89C920.222 521.94 917.122 525.42 913.072 525.65C912.932 525.65 912.792 525.66 912.652 525.66H912.642Z" fill="black"/>
<path d="M818.842 795.509C817.102 795.509 815.352 794.889 813.952 793.639C810.922 790.939 810.662 786.289 813.362 783.259C868.782 721.149 900.582 644.379 905.312 561.269C905.542 557.219 909.022 554.109 913.072 554.349C917.122 554.579 920.222 558.049 919.992 562.109C915.062 648.579 881.992 728.439 824.332 793.049C822.882 794.679 820.862 795.509 818.842 795.509Z" fill="black"/>
<path d="M167.352 525.66C167.212 525.66 167.072 525.66 166.932 525.65C162.882 525.42 159.782 521.95 160.012 517.89C164.942 431.42 198.012 351.56 255.672 286.95C258.372 283.92 263.022 283.66 266.052 286.36C269.082 289.06 269.342 293.71 266.642 296.74C211.222 358.85 179.422 435.61 174.692 518.73C174.472 522.64 171.232 525.66 167.362 525.66H167.352Z" fill="black"/>
<path d="M261.162 795.509C259.142 795.509 257.122 794.679 255.672 793.049C198.012 728.429 164.942 648.569 160.012 562.109C159.782 558.059 162.882 554.579 166.932 554.349C170.982 554.109 174.462 557.219 174.692 561.269C179.422 644.389 211.222 721.149 266.642 783.259C269.342 786.289 269.082 790.939 266.052 793.639C264.652 794.889 262.902 795.509 261.162 795.509Z" fill="black"/>
<path d="M788.164 268.509C786.424 268.509 784.674 267.889 783.274 266.639C721.164 211.219 644.394 179.419 561.284 174.689C557.234 174.459 554.134 170.989 554.364 166.929C554.594 162.879 558.034 159.789 562.124 160.009C648.594 164.939 728.454 198.009 793.064 255.669C796.094 258.369 796.354 263.019 793.654 266.049C792.204 267.679 790.184 268.509 788.164 268.509Z" fill="black"/>
<path d="M291.844 268.51C289.824 268.51 287.804 267.68 286.354 266.05C283.654 263.02 283.914 258.37 286.944 255.67C351.564 198.01 431.424 164.94 517.884 160.01C521.934 159.78 525.414 162.88 525.644 166.93C525.874 170.98 522.774 174.46 518.724 174.69C435.614 179.42 358.844 211.22 296.734 266.64C295.334 267.89 293.584 268.51 291.844 268.51Z" fill="black"/>
<path d="M561.682 920C557.812 920 554.572 916.98 554.352 913.07C554.122 909.02 557.222 905.54 561.272 905.31C644.392 900.58 721.152 868.78 783.262 813.36C786.292 810.66 790.942 810.92 793.642 813.95C796.342 816.98 796.082 821.63 793.052 824.33C728.432 881.99 648.572 915.06 562.112 919.99C561.972 919.99 561.832 920 561.692 920H561.682Z" fill="black"/>
<path d="M518.312 920C518.172 920 518.032 920 517.892 919.99C431.422 915.06 351.562 881.99 286.952 824.33C283.922 821.63 283.662 816.98 286.362 813.95C289.062 810.92 293.712 810.66 296.742 813.36C358.852 868.78 435.622 900.58 518.732 905.31C522.782 905.54 525.882 909.01 525.652 913.07C525.432 916.98 522.192 920 518.322 920H518.312Z" fill="black"/>
<path d="M875.37 526.191C872.36 526.191 869.84 523.841 869.67 520.801C865.4 445.791 836.7 376.521 786.69 320.461C784.59 318.101 784.79 314.491 787.15 312.391C789.5 310.291 793.12 310.491 795.22 312.851C846.97 370.851 876.67 442.541 881.09 520.151C881.27 523.301 878.86 526.001 875.71 526.181C875.6 526.181 875.49 526.181 875.38 526.181L875.37 526.191Z" fill="black"/>
<path d="M790.95 769.062C789.59 769.062 788.24 768.582 787.15 767.612C784.79 765.512 784.59 761.892 786.69 759.542C836.7 703.492 865.4 634.212 869.67 559.202C869.85 556.052 872.54 553.642 875.7 553.822C878.85 554.002 881.26 556.702 881.08 559.852C876.66 637.472 846.97 709.152 795.21 767.152C794.08 768.422 792.51 769.062 790.94 769.062H790.95Z" fill="black"/>
<path d="M204.622 526.191C204.512 526.191 204.402 526.191 204.292 526.191C201.142 526.011 198.732 523.311 198.912 520.161C203.332 442.541 233.022 370.861 284.782 312.861C286.882 310.501 290.502 310.301 292.852 312.401C295.212 314.501 295.412 318.121 293.312 320.471C243.302 376.521 214.602 445.801 210.332 520.811C210.162 523.851 207.642 526.201 204.632 526.201L204.622 526.191Z" fill="black"/>
<path d="M289.04 769.061C287.47 769.061 285.9 768.411 284.77 767.151C233.02 709.151 203.32 637.461 198.9 559.851C198.72 556.701 201.13 554.001 204.28 553.821C207.44 553.631 210.13 556.051 210.31 559.201C214.58 634.211 243.28 703.491 293.29 759.541C295.39 761.901 295.19 765.511 292.83 767.611C291.74 768.581 290.38 769.061 289.03 769.061H289.04Z" fill="black"/>
<path d="M763.342 294.762C761.982 294.762 760.632 294.282 759.542 293.312C703.492 243.302 634.212 214.602 559.202 210.332C556.052 210.152 553.642 207.452 553.822 204.302C554.002 201.152 556.692 198.742 559.852 198.922C637.472 203.342 709.152 233.032 767.152 284.792C769.512 286.892 769.712 290.512 767.612 292.862C766.482 294.132 764.912 294.772 763.342 294.772V294.762Z" fill="black"/>
<path d="M316.651 294.761C315.081 294.761 313.511 294.111 312.381 292.851C310.281 290.491 310.481 286.881 312.841 284.781C370.841 233.031 442.531 203.331 520.141 198.911C523.291 198.721 525.991 201.141 526.171 204.291C526.351 207.441 523.941 210.141 520.791 210.321C445.781 214.591 376.511 243.291 320.451 293.301C319.361 294.271 318.001 294.751 316.651 294.751V294.761Z" fill="black"/>
<path d="M559.518 881.102C556.508 881.102 553.988 878.752 553.818 875.712C553.638 872.562 556.048 869.862 559.198 869.682C634.208 865.412 703.478 836.712 759.538 786.702C761.888 784.602 765.508 784.802 767.608 787.162C769.708 789.522 769.508 793.132 767.148 795.232C709.148 846.982 637.458 876.682 559.848 881.102C559.738 881.102 559.628 881.102 559.518 881.102Z" fill="black"/>
<path d="M520.479 881.102C520.369 881.102 520.259 881.102 520.149 881.102C442.529 876.682 370.849 846.992 312.849 795.232C310.489 793.132 310.289 789.512 312.389 787.162C314.489 784.802 318.109 784.602 320.459 786.702C376.509 836.722 445.789 865.412 520.799 869.682C523.949 869.862 526.359 872.562 526.179 875.712C526.009 878.752 523.489 881.102 520.479 881.102Z" fill="black"/>
<path d="M841.843 526.51C839.693 526.51 837.893 524.83 837.773 522.66C833.913 454.91 807.993 392.34 762.823 341.71C761.323 340.03 761.473 337.45 763.153 335.94C764.833 334.44 767.413 334.58 768.923 336.27C815.343 388.29 841.973 452.58 845.933 522.19C846.063 524.44 844.343 526.37 842.083 526.5C842.003 526.5 841.923 526.5 841.843 526.5V526.51Z" fill="black"/>
<path d="M765.862 745.101C764.892 745.101 763.922 744.761 763.142 744.061C761.462 742.561 761.312 739.981 762.812 738.291C807.982 687.661 833.902 625.091 837.762 557.341C837.892 555.091 839.852 553.391 842.072 553.491C844.322 553.621 846.042 555.551 845.922 557.801C841.952 627.411 815.322 691.701 768.912 743.721C768.102 744.621 766.982 745.081 765.862 745.081V745.101Z" fill="black"/>
<path d="M238.162 526.51C238.082 526.51 238.002 526.51 237.922 526.51C235.672 526.38 233.952 524.45 234.072 522.2C238.042 452.59 264.672 388.3 311.082 336.28C312.582 334.6 315.162 334.45 316.852 335.95C318.532 337.45 318.682 340.03 317.182 341.72C272.012 392.35 246.092 454.92 242.232 522.67C242.112 524.84 240.312 526.52 238.162 526.52V526.51Z" fill="black"/>
<path d="M314.133 745.101C313.013 745.101 311.893 744.641 311.083 743.741C264.663 691.721 238.033 627.431 234.073 557.821C233.943 555.571 235.663 553.641 237.923 553.511C240.163 553.401 242.103 555.101 242.233 557.361C246.093 625.111 272.013 687.681 317.183 738.311C318.683 739.991 318.533 742.571 316.853 744.081C316.073 744.771 315.103 745.121 314.133 745.121V745.101Z" fill="black"/>
<path d="M741.014 318.219C740.044 318.219 739.074 317.879 738.294 317.179C687.664 272.009 625.094 246.089 557.344 242.229C555.094 242.099 553.374 240.169 553.494 237.919C553.624 235.669 555.544 233.959 557.804 234.069C627.414 238.039 691.704 264.669 743.734 311.079C745.414 312.579 745.564 315.159 744.064 316.849C743.254 317.749 742.134 318.209 741.014 318.209V318.219Z" fill="black"/>
<path d="M338.994 318.22C337.874 318.22 336.754 317.76 335.944 316.86C334.444 315.18 334.594 312.6 336.274 311.09C388.294 264.67 452.584 238.04 522.194 234.08C524.444 233.96 526.374 235.67 526.504 237.93C526.634 240.18 524.914 242.11 522.654 242.24C454.904 246.1 392.334 272.02 341.704 317.19C340.924 317.88 339.954 318.23 338.984 318.23L338.994 318.22Z" fill="black"/>
<path d="M557.565 845.929C555.415 845.929 553.615 844.249 553.495 842.079C553.365 839.829 555.085 837.899 557.345 837.769C625.095 833.909 687.665 807.989 738.295 762.819C739.975 761.319 742.555 761.469 744.065 763.149C745.565 764.829 745.415 767.409 743.735 768.919C691.715 815.339 627.425 841.969 557.805 845.929C557.725 845.929 557.645 845.929 557.565 845.929Z" fill="black"/>
<path d="M522.434 845.929C522.354 845.929 522.274 845.929 522.194 845.929C452.584 841.959 388.294 815.329 336.274 768.919C334.594 767.419 334.444 764.839 335.944 763.149C337.444 761.469 340.024 761.319 341.714 762.819C392.344 807.989 454.914 833.909 522.664 837.769C524.914 837.899 526.634 839.829 526.514 842.079C526.394 844.249 524.594 845.929 522.444 845.929H522.434Z" fill="black"/>
<path d="M320.642 546.17C320.642 544.6 321.782 543.27 323.332 543.02C324.632 542.81 326.262 542.52 327.972 542.12C332.392 541.08 337.582 539.11 343.402 536.27C349.282 533.4 354.912 529.41 359.162 523.67C366.332 513.97 367.852 501.4 368.182 496.89C368.252 495.97 367.522 495.19 366.592 495.19H317.082C315.322 495.19 313.902 493.76 313.902 492.01V470.69C313.902 468.93 315.332 467.51 317.082 467.51H367.062C367.942 467.51 368.652 466.8 368.652 465.92V447.18C368.652 446.3 367.942 445.59 367.062 445.59H328.612C326.852 445.59 325.432 444.16 325.432 442.41V421.09C325.432 419.33 326.862 417.91 328.612 417.91H428.952C430.712 417.91 432.132 419.34 432.132 421.09V442.41C432.132 444.17 430.702 445.59 428.952 445.59H398.512C397.632 445.59 396.922 446.3 396.922 447.18V465.92C396.922 466.8 397.632 467.51 398.512 467.51H438.572C440.332 467.51 441.752 468.94 441.752 470.69V492.01C441.752 493.77 440.322 495.19 438.572 495.19H398.382C397.532 495.19 396.832 495.86 396.792 496.71C396.562 501.75 395.142 518.44 386.172 532.85C380.722 541.61 373.642 548.26 366.532 553.54C359.402 558.84 352.252 562.93 345.262 565.7C338.232 568.49 332.332 570.44 327.742 571.51C326.652 571.76 325.482 571.99 324.392 572.18C322.442 572.53 320.652 571.03 320.652 569.04V546.16L320.642 546.17Z" fill="black"/>
<path d="M474.544 546.52C474.544 545.06 475.544 543.79 476.954 543.43C485.204 541.36 488.924 540.11 496.834 536.32C496.834 536.32 500.884 534.21 504.924 531.3C517.104 522.54 525.214 510.63 525.214 510.63C534.674 497.28 537.764 474.91 538.484 468.49C538.594 467.55 537.854 466.72 536.904 466.72H500.574C500.344 466.72 500.134 466.84 500.024 467.04L499.874 467.29C494.294 478.11 486.874 487.99 480.444 494.24C473.994 500.5 468.584 505.05 464.374 507.75L461.774 509.42C460.714 510.1 459.324 509.34 459.324 508.08V479.89C459.324 478.95 459.744 478.06 460.464 477.45C461.114 476.9 461.984 476.13 463.174 475.06C465.934 472.57 469.044 468.51 472.414 462.98C475.754 457.51 479.344 450.21 483.064 441.29C486.444 433.2 488.974 423.09 490.854 412.06C491.114 410.53 492.444 409.42 493.994 409.42H513.904C515.904 409.42 517.414 411.25 517.034 413.21C516.394 416.52 515.704 420.88 514.844 424.31C513.574 429.39 512.754 432.3 511.234 436.72C510.974 437.47 511.534 438.24 512.324 438.24H591.174C592.934 438.24 594.354 439.67 594.354 441.42V463.51C594.354 465.27 592.924 466.69 591.174 466.69H568.134C567.324 466.69 566.634 467.3 566.554 468.11C565.924 474.01 562.874 497.16 552.384 517.26C538.284 546 508.134 566.39 478.334 572.13C476.374 572.51 474.554 571 474.554 569V546.48L474.544 546.52Z" fill="black"/>
<path d="M675.895 411.029V468.869C675.895 469.749 676.604 470.459 677.484 470.459H764.515C765.395 470.459 766.104 469.749 766.104 468.869V411.029C766.104 410.149 765.395 409.439 764.515 409.439H677.484C676.604 409.439 675.895 410.149 675.895 411.029ZM738.455 452.739H702.294C701.414 452.739 700.705 452.029 700.705 451.149V446.869C700.705 445.989 701.414 445.279 702.294 445.279H738.455C739.335 445.279 740.044 445.989 740.044 446.869V451.149C740.044 452.029 739.335 452.739 738.455 452.739ZM738.455 434.449H702.294C701.414 434.449 700.705 433.739 700.705 432.859V428.749C700.705 427.869 701.414 427.159 702.294 427.159H738.455C739.335 427.159 740.044 427.869 740.044 428.749V432.859C740.044 433.739 739.335 434.449 738.455 434.449Z" fill="black"/>
<path d="M674.224 497.34H728.264C729.144 497.34 729.854 498.05 729.854 498.93V502.84C729.854 503.72 729.144 504.43 728.264 504.43H667.754C665.994 504.43 664.574 505.86 664.574 507.61V522.86C664.574 524.62 666.004 526.04 667.754 526.04H728.264C729.144 526.04 729.854 526.75 729.854 527.63V545.39C729.854 546.11 729.934 547.98 729.214 548.85C728.384 549.87 727.144 549.67 725.844 549.72C722.534 549.72 719.574 549.7 716.944 549.66C716.544 549.66 716.254 549.29 716.334 548.9C716.594 547.63 716.724 546.31 716.694 544.96C716.494 535.68 708.934 528.08 699.654 527.84C689.574 527.58 681.364 535.85 681.704 545.94C682.014 555.29 689.784 562.81 699.144 562.84C704.034 562.85 708.454 560.86 711.634 557.64C711.974 557.3 712.544 557.43 712.694 557.88C714.154 562.21 715.534 566.34 716.784 570.05C717.224 571.35 718.454 572.22 719.824 572.21C725.724 572.17 730.504 571.96 734.174 571.6C738.304 571.18 742.084 570.15 745.514 568.5C749.174 566.84 751.684 564.42 753.044 561.23C754.404 558.04 755.084 553.55 755.084 547.76V527.62C755.084 526.74 755.794 526.03 756.674 526.03H762.904C764.664 526.03 766.084 524.6 766.084 522.85V507.6C766.084 505.84 764.654 504.42 762.904 504.42H756.674C755.794 504.42 755.084 503.71 755.084 502.83V498.92C755.084 498.04 755.794 497.33 756.674 497.33H762.904C764.664 497.33 766.084 495.9 766.084 494.15V479.6C766.084 477.84 764.654 476.42 762.904 476.42H674.204C672.444 476.42 671.024 477.85 671.024 479.6V494.15C671.024 495.91 672.454 497.33 674.204 497.33L674.224 497.34Z" fill="black"/>
<path d="M668.824 409.439H650.254C649.394 409.439 648.574 409.789 647.974 410.399C635.224 423.349 618.284 434.569 612.124 438.479C610.774 439.329 610.274 441.059 610.944 442.499L620.694 463.569C621.624 465.569 624.254 466.049 625.824 464.499C646.114 444.459 664.444 419.799 670.114 411.959C670.874 410.909 670.114 409.439 668.824 409.439Z" fill="black"/>
<path d="M671.914 453.889V435.409C671.914 433.999 670.214 433.289 669.204 434.279C653.634 449.599 620.044 477.059 611.674 483.859C610.544 484.779 610.184 486.349 610.794 487.669L620.694 509.049C621.624 511.049 624.254 511.529 625.824 509.979C627.534 508.289 629.234 506.559 630.914 504.819C631.314 504.409 632.014 504.689 632.014 505.259V569.059C632.014 570.819 633.444 572.239 635.194 572.239H653.814C655.574 572.239 656.994 570.809 656.994 569.059V476.369C656.994 475.299 657.354 474.249 658.024 473.409C664.864 464.729 669.714 458.019 671.334 455.739C671.714 455.199 671.924 454.559 671.924 453.889H671.914Z" fill="black"/>
<path d="M653.261 623.33C640.841 623.33 634.801 628.28 634.801 638.47V655.6C634.801 665.67 640.841 670.56 653.261 670.56C659.131 670.56 663.471 669.48 666.551 667.27C669.991 664.8 671.731 660.87 671.731 655.59V638.46C671.731 628.27 665.691 623.32 653.271 623.32L653.261 623.33ZM646.081 639.3C646.081 633.93 648.831 632.91 653.261 632.91C657.691 632.91 660.441 633.95 660.441 639.3V654.68C660.441 659.95 657.591 660.98 653.261 660.98C648.931 660.98 646.081 659.98 646.081 654.68V639.3Z" fill="black"/>
<path d="M708.262 669.331H721.352L703.622 646.781L720.552 624.8H707.392L694.052 642.281V610.23H682.762V669.331H694.052V659.211L696.942 655.451L708.262 669.331Z" fill="black"/>
<path d="M754.812 624.801V653.291C754.812 659.041 751.872 660.891 746.822 660.891C743.552 660.891 740.272 660.351 740.272 653.881V624.811H728.992V656.771C728.992 665.741 733.702 670.481 742.612 670.481C749.292 670.481 753.872 666.861 755.572 662.801L757.382 669.341H766.102V624.811H754.822L754.812 624.801Z" fill="black"/>
<path d="M630.561 610.23H589.141V620.141V620.151H604.211V669.331H615.681V620.151H630.561V610.23Z" fill="black"/>
<path d="M459.681 669.331H472.771L455.041 646.781L471.971 624.8H458.811L445.471 642.281V610.23H434.191V669.331H445.471V659.211L448.361 655.451L459.681 669.331Z" fill="black"/>
<path d="M355.322 610.23H313.902V620.141V620.151H328.982V669.331H340.442V620.151H355.322V610.23Z" fill="black"/>
<path d="M421.794 658.89L421.194 659.04C417.614 659.96 413.284 660.89 409.404 660.89C404.854 660.89 401.684 658.82 401.684 652.83V640.97C401.684 634.9 404.854 632.82 409.404 632.82C413.354 632.82 417.874 633.7 421.224 634.4L421.804 634.52V625.19L421.494 625.12C417.684 624.23 412.044 623.33 407.524 623.33C402.004 623.33 397.964 624.4 395.164 626.59C391.964 629.09 390.414 633.85 390.414 639.34V654.64C390.414 664.77 396.014 670.56 407.534 670.56C411.404 670.56 417.264 669.49 421.524 668.31L421.814 668.23V658.88L421.794 658.89Z" fill="black"/>
<path d="M553.922 634.699V624.799H543.682V615.189H532.402V624.799H525.172V634.699H532.402V655.419C532.402 667.939 540.292 670.559 546.922 670.559C548.702 670.559 550.502 670.449 552.112 670.219V660.259C551.462 660.329 550.252 660.359 549.532 660.359C546.452 660.359 543.682 659.729 543.682 652.089V634.689H553.922V634.699Z" fill="black"/>
<path d="M489.733 650.741V650.561H515.163V641.481C515.163 635.571 513.543 630.241 510.353 627.341C507.413 624.671 502.773 623.311 497.253 623.311C485.073 623.311 478.453 629.221 478.453 639.591V654.451C478.453 664.701 483.833 670.551 496.313 670.551C500.973 670.551 506.283 669.561 511.963 668.401L512.353 668.321V659.051L511.703 659.201C507.133 660.251 504.613 661.141 500.283 661.141C494.073 661.141 489.733 658.621 489.733 652.201V650.721V650.741ZM489.733 639.721C489.733 634.071 493.793 632.741 497.163 632.741C500.533 632.741 504.063 634.071 504.063 639.721V643.231H489.733V642.711V639.721Z" fill="black"/>
<path d="M378.171 626.881H366.891V669.331H378.171V626.881Z" fill="black"/>
<path d="M372.534 622.22C376.416 622.22 379.564 619.073 379.564 615.19C379.564 611.308 376.416 608.16 372.534 608.16C368.651 608.16 365.504 611.308 365.504 615.19C365.504 619.073 368.651 622.22 372.534 622.22Z" fill="black"/>
<path d="M585.731 643.92H566.141V651.26H585.731V643.92Z" fill="black"/>
<path d="M725.434 1702.04L716.026 1712.23C707.892 1702.24 696.622 1691.26 685.94 1683.13C674.866 1695.48 663.596 1704.1 648.602 1711.45C645.858 1706.35 644.682 1704.79 640.664 1700.57C648.21 1697.63 652.914 1694.99 660.264 1689.79C675.062 1679.4 686.822 1665.19 693.192 1649.91L694.27 1647.36C692.702 1647.46 692.702 1647.46 661.832 1647.95C657.128 1648.04 654.482 1648.24 651.15 1648.73L650.758 1636.19C653.502 1636.68 655.364 1636.77 659.382 1636.77C659.774 1636.77 660.558 1636.77 661.734 1636.77L696.23 1636.28C701.718 1636.19 702.502 1636.09 704.952 1635.21L711.42 1641.87C710.146 1643.34 709.362 1644.71 708.284 1647.16C703.776 1657.65 698.974 1666.17 692.996 1674.21C699.17 1678.33 704.462 1682.44 711.126 1688.42C713.576 1690.58 713.576 1690.58 725.434 1702.04Z" fill="black"/>
<path d="M565.302 1642.26V1662.06C580.1 1659.31 601.758 1650.59 608.128 1644.61L615.968 1655.69C615.282 1655.98 612.342 1657.35 607.148 1659.9C593.82 1666.27 580.1 1670.68 565.302 1673.43V1686.36C565.204 1686.85 565.204 1687.34 565.204 1687.64C565.204 1693.32 565.596 1695.57 566.968 1696.95C568.634 1698.71 574.22 1699.49 583.726 1699.49C590.292 1699.49 599.308 1698.91 606.462 1697.93C611.166 1697.34 613.322 1696.85 617.634 1695.57L618.222 1708.61C616.164 1708.61 615.674 1708.71 605.286 1709.69C599.504 1710.27 587.156 1710.86 581.178 1710.86C568.83 1710.86 562.068 1709.59 558.246 1706.65C555.502 1704.59 554.032 1701.45 553.444 1696.65C553.248 1694.99 553.15 1693.32 553.15 1687.64L553.052 1642.16C553.052 1637.17 553.052 1635.6 552.66 1633.15H565.792C565.4 1635.5 565.302 1637.26 565.302 1642.26ZM604.894 1631.68L611.852 1628.54C615.772 1632.95 618.418 1636.97 621.652 1643.44L614.596 1646.67C611.558 1640.4 609.01 1636.48 604.894 1631.68ZM633.51 1637.46L626.552 1640.99C623.906 1635.6 620.868 1630.89 617.144 1626.39L623.906 1623.25C628.218 1628.15 630.864 1631.97 633.51 1637.46Z" fill="black"/>
<path d="M444.957 1678.23V1664.61C449.269 1665.19 451.131 1665.29 460.833 1665.29H513.067C522.769 1665.29 524.631 1665.19 528.943 1664.61V1678.23C525.023 1677.74 523.945 1677.74 512.969 1677.74H460.931C449.955 1677.74 448.877 1677.74 444.957 1678.23Z" fill="black"/>
<path d="M376.162 1648.63H401.642L401.74 1644.22V1641.09C401.74 1634.62 401.642 1632.46 401.25 1630.21H413.892C413.598 1632.46 413.5 1632.95 413.5 1636.77C413.5 1642.75 413.5 1642.75 413.402 1648.63H419.674C426.632 1648.63 428.592 1648.53 432.414 1647.95V1659.9C428.984 1659.51 426.338 1659.41 419.87 1659.41H413.304C413.108 1671.17 413.108 1671.86 412.618 1675.58C411.246 1688.13 407.032 1696.46 398.506 1703.71C393.214 1708.22 388.412 1710.76 379.396 1714C377.534 1709.78 376.26 1707.92 372.046 1703.61C381.356 1700.77 386.06 1698.42 390.764 1694.3C397.428 1688.52 400.27 1682.05 401.152 1670.78C401.348 1668.53 401.348 1666.17 401.544 1659.41H376.162V1674.11C376.162 1678.23 376.26 1679.8 376.554 1682.34H363.814C364.108 1680.19 364.206 1677.54 364.206 1673.92V1659.41H358.228C351.76 1659.41 349.114 1659.51 345.684 1659.9V1647.95C349.506 1648.53 351.466 1648.63 358.424 1648.63H364.206V1638.83C364.206 1634.72 364.108 1632.66 363.716 1630.11H376.554C376.162 1633.34 376.162 1633.54 376.162 1638.54V1648.63Z" fill="black"/>
<path d="M748.364 1513.11L754.636 1519.28C753.656 1520.75 753.264 1521.63 752.186 1525.16C747.678 1540.06 740.72 1553.29 732.096 1562.99C723.08 1573.28 712.3 1580.92 697.208 1587.88C694.464 1582.98 693.19 1581.31 688.878 1577.59C698.678 1573.57 704.166 1570.63 710.34 1566.03C724.354 1555.64 733.566 1542.21 738.956 1524.67L709.458 1525.16C703.48 1534.67 695.836 1543.09 686.526 1550.25C683.586 1546.23 682.116 1544.96 677.02 1541.82C688.192 1534.18 695.248 1526.34 702.402 1513.4C705.44 1507.81 707.008 1503.99 707.4 1500.46L720.826 1503.11C720.238 1503.99 720.238 1503.99 719.16 1506.15C718.866 1506.64 718.866 1506.64 717.886 1508.89C717.592 1509.48 717.592 1509.48 716.612 1511.44C716.024 1512.81 716.024 1512.81 715.044 1514.58C716.318 1514.48 717.886 1514.38 719.748 1514.38L741.21 1514.09C745.032 1514.09 746.11 1513.89 748.364 1513.11Z" fill="black"/>
<path d="M582.841 1519.08L590.975 1509.38C602.637 1516.63 608.713 1521.14 616.259 1528.3L607.831 1538.98C599.991 1530.65 591.955 1524.18 582.841 1519.08ZM586.271 1583.76L582.645 1570.24C591.073 1569.75 602.735 1566.91 611.653 1562.99C623.903 1557.7 633.017 1550.15 640.759 1538.98C645.071 1532.71 647.815 1527.32 650.755 1519.38C654.577 1523.98 656.145 1525.45 661.143 1528.98C652.813 1546.92 643.503 1558.48 630.077 1567.4C620.081 1574.06 607.929 1578.86 592.739 1582.1C588.819 1582.88 588.525 1582.98 586.271 1583.76Z" fill="black"/>
<path d="M492.875 1504.68L506.203 1504.78C505.811 1507.52 505.811 1508.4 505.811 1513.6V1540.64C505.811 1545.54 505.811 1546.82 506.203 1549.27H492.777C493.071 1547.01 493.267 1543.98 493.267 1540.45V1513.5C493.267 1508.5 493.169 1507.23 492.875 1504.68ZM537.073 1504.87H550.695C550.303 1507.32 550.205 1508.4 550.205 1513.99V1527.22C550.107 1542.51 549.421 1550.74 547.657 1556.91C544.815 1566.71 538.543 1574.06 528.351 1579.75C523.157 1582.69 518.257 1584.65 509.241 1587.29C507.477 1582.49 506.497 1580.82 502.381 1575.63C511.985 1573.77 517.669 1571.71 523.549 1567.79C532.761 1561.71 535.995 1555.74 537.073 1542.8C537.465 1538.59 537.563 1534.27 537.563 1526.43V1514.18C537.563 1509.19 537.465 1507.13 537.073 1504.87Z" fill="black"/>
<path d="M412.614 1586.41H399.188C399.579 1583.67 399.775 1581.02 399.775 1575.43V1512.62C399.677 1506.93 399.579 1504.97 399.188 1502.62H412.614C412.32 1505.27 412.221 1507.13 412.221 1512.91V1531.14C423.589 1534.86 441.23 1543.09 456.714 1551.82L449.854 1563.38C442.994 1558.48 429.078 1550.93 415.161 1544.66C412.907 1543.58 412.613 1543.49 411.829 1543C412.124 1545.74 412.221 1547.41 412.221 1549.66V1575.53C412.221 1580.82 412.32 1583.57 412.614 1586.41ZM432.703 1511.15L439.564 1507.72C443.876 1512.32 446.521 1516.05 449.854 1522.12L442.993 1525.75C439.76 1519.77 437.015 1515.85 432.703 1511.15ZM461.516 1515.75L454.754 1519.57C451.814 1514.18 448.58 1509.58 444.758 1505.36L451.324 1501.93C455.734 1506.44 458.478 1510.17 461.516 1515.75Z" fill="black"/>
<path d="M349.019 1583.18H334.221C334.809 1579.35 335.005 1575.53 335.005 1570.44V1516.44H330.301C326.675 1516.44 323.833 1516.63 320.207 1517.03V1504.58C323.245 1505.07 325.401 1505.17 330.007 1505.17H339.023C344.021 1505.17 345.491 1505.07 349.019 1504.68C348.431 1510.46 348.235 1514.97 348.235 1520.85V1570.44C348.235 1575.63 348.431 1579.16 349.019 1583.18Z" fill="black"/>
<path d="M930.281 1374.96L930.377 1369.49C932.345 1369.92 935.417 1370.11 941.513 1370.11C942.809 1367.23 943.241 1365.79 943.433 1364.16L949.721 1364.83C949.433 1365.31 949.433 1365.31 947.801 1369.15C947.561 1369.68 947.465 1369.82 947.369 1370.02C947.753 1369.97 947.753 1369.97 950.393 1369.82C955.961 1369.49 960.329 1368.96 962.969 1368.19L963.305 1373.66C961.961 1373.76 961.961 1373.76 959.513 1374.05C956.009 1374.48 949.913 1374.86 945.065 1375.01C943.673 1377.74 942.329 1379.66 940.649 1381.39L940.697 1381.49C941.033 1381.25 941.033 1381.25 941.657 1380.77C943.433 1379.42 945.977 1378.61 948.425 1378.61C952.169 1378.61 954.521 1380.38 955.289 1383.7C958.985 1382.35 961.433 1381.49 962.633 1381.1C965.225 1380.19 965.417 1380.14 966.185 1379.66L968.441 1385.18C967.097 1385.38 965.657 1385.76 963.113 1386.48C962.441 1386.67 960.041 1387.49 955.913 1388.93V1389.46C955.961 1390.7 955.961 1390.7 955.961 1391.38C955.961 1391.86 955.961 1392.67 955.961 1393.3C955.913 1394.11 955.913 1394.54 955.913 1394.88C955.913 1395.94 955.961 1396.61 956.057 1397.42L950.489 1397.57C950.681 1396.7 950.777 1394.26 950.777 1392C950.777 1391.33 950.777 1391.33 950.777 1390.85C948.425 1391.95 947.177 1392.62 946.169 1393.34C944.489 1394.59 943.673 1395.89 943.673 1397.28C943.673 1399.78 945.977 1400.78 951.785 1400.78C957.545 1400.78 962.489 1400.06 965.897 1398.77L966.377 1404.96C965.561 1404.96 965.321 1405.01 964.169 1405.15C960.713 1405.68 956.105 1406.02 951.881 1406.02C946.793 1406.02 943.625 1405.44 941.177 1404C938.969 1402.75 937.673 1400.45 937.673 1397.81C937.673 1395.84 938.249 1394.3 939.785 1392.48C941.945 1389.79 944.681 1387.97 950.105 1385.71C949.865 1383.94 948.905 1383.12 947.177 1383.12C944.393 1383.12 941.033 1384.8 937.337 1388.06C935.321 1389.74 934.217 1390.94 933.161 1392.43L928.793 1388.11C930.041 1387.15 931.433 1385.81 933.113 1383.84C934.985 1381.63 937.913 1377.46 938.873 1375.63C939.065 1375.25 939.065 1375.25 939.257 1375.01C939.065 1375.01 938.441 1375.06 938.441 1375.06C937.673 1375.06 933.449 1374.96 932.393 1374.96C931.481 1374.91 931.481 1374.91 931.049 1374.91C930.905 1374.91 930.617 1374.91 930.281 1374.96Z" fill="black"/>
<path d="M915.928 1370.26L919 1373.28C918.52 1374 918.328 1374.43 917.8 1376.16C915.592 1383.46 912.184 1389.94 907.96 1394.69C903.544 1399.73 898.264 1403.47 890.872 1406.88C889.528 1404.48 888.904 1403.66 886.792 1401.84C891.592 1399.87 894.28 1398.43 897.304 1396.18C904.168 1391.09 908.68 1384.51 911.32 1375.92L896.872 1376.16C893.944 1380.82 890.2 1384.94 885.64 1388.45C884.2 1386.48 883.48 1385.86 880.984 1384.32C886.456 1380.58 889.912 1376.74 893.416 1370.4C894.904 1367.66 895.672 1365.79 895.864 1364.06L902.44 1365.36C902.152 1365.79 902.152 1365.79 901.624 1366.85C901.48 1367.09 901.48 1367.09 901 1368.19C900.856 1368.48 900.856 1368.48 900.376 1369.44C900.088 1370.11 900.088 1370.11 899.608 1370.98C900.232 1370.93 901 1370.88 901.912 1370.88L912.424 1370.74C914.296 1370.74 914.824 1370.64 915.928 1370.26Z" fill="black"/>
<path d="M834.858 1373.18L838.842 1368.43C844.554 1371.98 847.53 1374.19 851.226 1377.7L847.098 1382.93C843.258 1378.85 839.322 1375.68 834.858 1373.18ZM836.538 1404.86L834.762 1398.24C838.89 1398 844.602 1396.61 848.97 1394.69C854.97 1392.1 859.434 1388.4 863.226 1382.93C865.338 1379.86 866.682 1377.22 868.122 1373.33C869.994 1375.58 870.762 1376.3 873.21 1378.03C869.13 1386.82 864.57 1392.48 857.994 1396.85C853.098 1400.11 847.146 1402.46 839.706 1404.05C837.786 1404.43 837.642 1404.48 836.538 1404.86Z" fill="black"/>
<path d="M790.79 1366.13L797.318 1366.18C797.126 1367.52 797.126 1367.95 797.126 1370.5V1383.74C797.126 1386.14 797.126 1386.77 797.318 1387.97H790.742C790.886 1386.86 790.982 1385.38 790.982 1383.65V1370.45C790.982 1368 790.934 1367.38 790.79 1366.13ZM812.438 1366.22H819.11C818.918 1367.42 818.87 1367.95 818.87 1370.69V1377.17C818.822 1384.66 818.486 1388.69 817.622 1391.71C816.23 1396.51 813.158 1400.11 808.166 1402.9C805.622 1404.34 803.222 1405.3 798.806 1406.59C797.942 1404.24 797.462 1403.42 795.446 1400.88C800.15 1399.97 802.934 1398.96 805.814 1397.04C810.326 1394.06 811.91 1391.14 812.438 1384.8C812.63 1382.74 812.678 1380.62 812.678 1376.78V1370.78C812.678 1368.34 812.63 1367.33 812.438 1366.22Z" fill="black"/>
<path d="M751.478 1406.16H744.902C745.094 1404.82 745.19 1403.52 745.19 1400.78V1370.02C745.142 1367.23 745.094 1366.27 744.902 1365.12H751.478C751.334 1366.42 751.286 1367.33 751.286 1370.16V1379.09C756.854 1380.91 765.494 1384.94 773.078 1389.22L769.718 1394.88C766.358 1392.48 759.542 1388.78 752.726 1385.71C751.622 1385.18 751.478 1385.14 751.094 1384.9C751.238 1386.24 751.286 1387.06 751.286 1388.16V1400.83C751.286 1403.42 751.334 1404.77 751.478 1406.16ZM761.318 1369.3L764.678 1367.62C766.79 1369.87 768.086 1371.7 769.718 1374.67L766.358 1376.45C764.774 1373.52 763.43 1371.6 761.318 1369.3ZM775.43 1371.55L772.118 1373.42C770.678 1370.78 769.094 1368.53 767.222 1366.46L770.438 1364.78C772.598 1366.99 773.942 1368.82 775.43 1371.55Z" fill="black"/>
<path d="M704.295 1406.16H697.719C697.959 1404.62 698.007 1403.33 698.007 1400.78V1370.02C698.007 1367.66 697.911 1366.42 697.719 1365.12H704.295C704.103 1366.56 704.103 1367.18 704.103 1370.16V1379.09C710.679 1381.39 718.215 1384.9 725.895 1389.22L722.535 1394.88C718.551 1392.14 713.559 1389.41 705.543 1385.71C704.439 1385.18 704.295 1385.14 703.911 1384.9C704.055 1386.24 704.103 1386.82 704.103 1388.16V1400.83C704.103 1403.33 704.151 1404.58 704.295 1406.16Z" fill="black"/>
<path d="M676.265 1368.53L679.529 1371.65C679.097 1372.46 678.953 1372.8 678.713 1373.81C676.313 1382.98 673.481 1388.74 668.873 1393.92C664.169 1399.2 659.033 1402.7 651.017 1406.16C649.673 1403.57 649.049 1402.66 646.793 1400.45C651.017 1399.1 653.753 1397.86 657.305 1395.55C664.793 1390.7 669.497 1383.94 671.849 1374.62H649.001C645.785 1374.62 644.681 1374.67 642.953 1374.91V1368.67C644.825 1368.96 645.833 1369.01 649.097 1369.01H671.129C673.817 1369.01 674.777 1368.91 676.265 1368.53Z" fill="black"/>
<path d="M594.762 1370.16L600.618 1368.14C603.546 1373.33 604.986 1376.74 607.098 1383.46L600.858 1385.66C599.514 1380.19 597.21 1374.34 594.762 1370.16ZM624.234 1368.05L630.858 1369.58C630.426 1370.59 630.282 1371.02 629.562 1374.29C627.69 1382.93 623.898 1390.8 618.906 1396.42C615.114 1400.74 610.986 1403.86 605.082 1406.88C603.498 1404.34 602.778 1403.52 600.666 1401.7C606.282 1399.3 610.314 1396.51 614.01 1392.53C617.466 1388.78 619.866 1384.66 621.834 1378.9C623.226 1374.72 624.09 1370.98 624.234 1368.05Z" fill="black"/>
<path d="M553.671 1405.15L547.863 1405.49C547.815 1404.62 547.767 1404.34 547.623 1403.23C546.711 1397.42 546.375 1393.73 546.375 1388.88C546.375 1382.69 546.951 1377.22 548.343 1370.11C548.871 1367.42 548.967 1366.94 549.063 1365.65L555.399 1366.32C554.247 1369.15 553.143 1374.53 552.375 1380.67C551.895 1384.27 551.703 1387.1 551.655 1391.28C551.655 1392.34 551.607 1392.72 551.559 1393.92C552.087 1392.24 552.183 1391.9 554.055 1387.58L557.895 1389.31C555.255 1394.88 553.623 1400.45 553.623 1403.86C553.623 1404.14 553.623 1404.53 553.671 1405.15ZM560.295 1376.4L560.391 1370.64C562.551 1371.22 565.095 1371.41 569.271 1371.41C574.599 1371.41 579.159 1370.98 582.327 1370.11L582.615 1375.92C582.231 1375.97 581.511 1376.06 579.207 1376.35C576.135 1376.74 572.487 1376.93 568.935 1376.93C565.431 1376.93 565.383 1376.93 560.295 1376.4ZM563.607 1384.32L568.311 1386.53C565.911 1389.31 564.903 1391.38 564.903 1393.44C564.903 1396.18 567.543 1397.62 572.535 1397.62C576.759 1397.62 580.935 1396.94 583.959 1395.79L584.439 1401.89C583.767 1401.94 583.575 1401.98 582.471 1402.18C578.631 1402.8 575.703 1403.09 572.535 1403.09C566.583 1403.09 562.743 1401.74 560.631 1398.91C559.719 1397.71 559.191 1395.94 559.191 1394.21C559.191 1391.09 560.631 1387.87 563.607 1384.32Z" fill="black"/>
<path d="M513.88 1370.69V1367.76C513.88 1366.18 513.784 1364.93 513.544 1363.78H519.736C519.544 1364.78 519.448 1366.03 519.448 1367.76V1370.69H532.648C535.336 1370.69 537.064 1370.59 538.696 1370.35V1376.16C537.208 1375.97 535.72 1375.87 532.84 1375.87H515.272C515.032 1379.47 515.032 1379.62 514.888 1381.06H528.184C530.68 1381.06 532.024 1381.01 533.128 1380.82C533.128 1381.06 533.128 1381.2 533.08 1381.3C532.984 1382.02 532.984 1382.59 532.888 1384.66C532.696 1391.86 532.072 1398.05 531.256 1401.5C530.152 1406.06 528.568 1407.26 523.768 1407.26C522.088 1407.26 520.984 1407.22 517.288 1406.93C517.096 1404.72 516.712 1403.14 515.896 1401.36C518.68 1401.79 520.888 1401.98 523.096 1401.98C525.208 1401.98 525.688 1401.46 526.312 1398.14C526.888 1395.26 527.176 1392.24 527.368 1386.1H514.12C512.104 1395.74 507.784 1401.89 498.712 1407.84C497.512 1405.73 496.6 1404.67 494.824 1403.28C499.048 1400.64 501.112 1398.96 503.416 1396.18C507.544 1391.23 509.176 1385.66 509.416 1375.87H501.544C499.144 1375.87 497.176 1375.97 495.544 1376.16V1370.35C497.272 1370.59 499.096 1370.69 501.544 1370.69H513.88Z" fill="black"/>
<path d="M472.746 1373.23C471.834 1380.77 470.154 1387.39 467.754 1392.82C465.018 1399.01 461.946 1401.84 458.01 1401.84C452.538 1401.84 448.602 1396.27 448.602 1388.54C448.602 1383.26 450.474 1378.32 453.882 1374.58C457.914 1370.16 463.578 1367.86 470.394 1367.86C481.914 1367.86 489.402 1374.86 489.402 1385.66C489.402 1393.97 485.082 1400.59 477.738 1403.57C475.434 1404.53 473.562 1405.01 470.202 1405.58C469.386 1403.04 468.81 1401.98 467.274 1399.97C471.69 1399.39 474.57 1398.62 476.826 1397.33C481.002 1395.02 483.498 1390.46 483.498 1385.33C483.498 1380.72 481.434 1376.98 477.594 1374.67C476.106 1373.81 474.858 1373.42 472.746 1373.23ZM466.89 1373.28C464.394 1373.57 462.666 1374.24 460.698 1375.63C456.666 1378.51 454.17 1383.46 454.17 1388.59C454.17 1392.53 455.85 1395.65 457.962 1395.65C459.546 1395.65 461.178 1393.63 462.906 1389.5C464.73 1385.18 466.314 1378.7 466.89 1373.28Z" fill="black"/>
<path d="M437.032 1375.87H434.488C433.24 1380.34 432.472 1382.3 430.744 1385.52C429.112 1388.54 427.336 1391.04 425.08 1393.63C430.36 1397.76 436.12 1400.35 443.848 1402.08C442.264 1403.95 441.592 1405.1 440.536 1407.7C432.376 1405.01 426.52 1401.89 421.192 1397.33C418.456 1399.63 415.192 1401.79 411.784 1403.57C408.856 1405.06 406.12 1406.16 401.56 1407.7C400.696 1405.63 399.88 1404.29 398.488 1402.56C407.08 1400.21 412.408 1397.71 417.352 1393.63C415.048 1391.09 413.32 1388.74 411.688 1385.95C409.864 1382.83 409 1380.77 407.368 1375.87H405.112C402.856 1375.87 400.984 1375.97 399.256 1376.16V1370.74C401.08 1370.98 402.712 1371.07 405.256 1371.07H418.024V1367.66C418.024 1366.22 417.928 1365.07 417.688 1363.97H423.784C423.544 1365.07 423.448 1366.22 423.448 1367.62V1371.07H436.84C439.432 1371.07 441.112 1370.98 442.888 1370.74V1376.16C441.16 1375.97 439.528 1375.87 437.032 1375.87ZM428.824 1375.87H412.888C414.088 1379.52 414.856 1381.25 416.536 1384.08C418.024 1386.48 419.32 1388.16 421.144 1390.08C422.824 1388.21 424.216 1386.29 425.512 1384.03C426.952 1381.44 427.672 1379.76 428.824 1375.87Z" fill="black"/>
<path d="M369.543 1373.42H380.823C377.607 1370.78 375.543 1369.49 370.839 1367.33L374.295 1363.39C379.575 1365.98 380.679 1366.61 384.615 1369.49L381.447 1373.42H388.647C391.287 1373.42 392.487 1373.38 394.023 1373.14V1378.51C392.535 1378.37 390.759 1378.27 388.647 1378.27H381.111V1386.62H387.303C389.319 1386.62 391.191 1386.53 392.535 1386.34V1391.62C391.047 1391.47 389.175 1391.38 387.303 1391.38H381.111V1401.31H389.319C391.527 1401.31 393.639 1401.22 395.031 1401.02V1406.4C393.495 1406.21 391.575 1406.11 389.319 1406.11H368.391C366.135 1406.11 364.119 1406.21 362.679 1406.4V1401.02C364.167 1401.22 366.327 1401.31 368.391 1401.31H375.735V1391.38H370.839C368.919 1391.38 367.047 1391.47 365.559 1391.62V1386.34C366.951 1386.53 368.727 1386.62 370.791 1386.62H375.735V1378.27H369.543C367.095 1378.27 365.895 1378.32 364.167 1378.51V1373.14C365.799 1373.33 367.191 1373.42 369.543 1373.42ZM352.791 1367.71L356.055 1363.97C359.655 1366.08 361.527 1367.47 364.551 1370.26L361.335 1374.53C358.311 1371.31 356.775 1370.06 352.791 1367.71ZM350.871 1379.66L353.943 1375.68C357.831 1377.94 359.463 1379.14 362.631 1381.92L359.751 1386.34C356.247 1382.98 354.423 1381.63 350.871 1379.66ZM358.695 1389.02L362.967 1392.05C360.759 1398 359.511 1400.93 357.639 1404.34C357.159 1405.2 356.871 1405.68 356.295 1406.64C355.911 1407.26 355.911 1407.26 355.623 1407.79L351.063 1403.81C353.319 1401.36 356.103 1396.03 358.695 1389.02Z" fill="black"/>
<path d="M310.55 1373.57L310.982 1367.86C314.678 1368.72 318.95 1369.06 325.382 1369.06C331.478 1369.06 334.886 1368.82 338.054 1368.14L338.246 1373.57C335.366 1374.82 329.462 1378.51 325.43 1381.49L321.254 1378.18C324.278 1376.26 324.806 1375.92 326.006 1375.25C326.486 1374.96 326.63 1374.86 327.254 1374.48C327.638 1374.29 327.686 1374.29 328.31 1373.9C326.198 1374.19 324.134 1374.29 321.11 1374.29C318.662 1374.29 314.678 1374.05 312.326 1373.71C311.75 1373.66 311.414 1373.62 311.222 1373.62C311.126 1373.62 310.886 1373.57 310.55 1373.57ZM314.102 1384.42L318.278 1387.58C315.254 1390.13 313.91 1392.14 313.91 1394.21C313.91 1397.33 317.414 1398.67 325.526 1398.67C331.238 1398.67 337.526 1397.81 340.598 1396.61L341.126 1403.18C340.262 1403.23 340.118 1403.23 339.014 1403.38C333.254 1404.24 330.182 1404.48 326.054 1404.48C320.822 1404.48 316.598 1403.95 314.054 1402.9C309.926 1401.26 307.91 1398.62 307.91 1394.88C307.91 1391.18 309.782 1388.02 314.102 1384.42ZM347.078 1382.45L343.766 1384.32C342.326 1381.68 340.742 1379.42 338.87 1377.36L342.086 1375.68C344.246 1377.89 345.59 1379.71 347.078 1382.45ZM332.966 1380.19L336.326 1378.51C338.438 1380.77 339.734 1382.59 341.366 1385.57L338.006 1387.34C336.422 1384.42 335.078 1382.5 332.966 1380.19Z" fill="black"/>
<path d="M258.281 1374.96L258.377 1369.49C260.345 1369.92 263.417 1370.11 269.513 1370.11C270.809 1367.23 271.241 1365.79 271.433 1364.16L277.721 1364.83C277.433 1365.31 277.433 1365.31 275.801 1369.15C275.561 1369.68 275.465 1369.82 275.369 1370.02C275.753 1369.97 275.753 1369.97 278.393 1369.82C283.961 1369.49 288.329 1368.96 290.969 1368.19L291.305 1373.66C289.961 1373.76 289.961 1373.76 287.513 1374.05C284.009 1374.48 277.913 1374.86 273.065 1375.01C271.673 1377.74 270.329 1379.66 268.649 1381.39L268.697 1381.49C269.033 1381.25 269.033 1381.25 269.657 1380.77C271.433 1379.42 273.977 1378.61 276.425 1378.61C280.169 1378.61 282.521 1380.38 283.289 1383.7C286.985 1382.35 289.433 1381.49 290.633 1381.1C293.225 1380.19 293.417 1380.14 294.185 1379.66L296.441 1385.18C295.097 1385.38 293.657 1385.76 291.113 1386.48C290.441 1386.67 288.041 1387.49 283.913 1388.93V1389.46C283.961 1390.7 283.961 1390.7 283.961 1391.38C283.961 1391.86 283.961 1392.67 283.961 1393.3C283.913 1394.11 283.913 1394.54 283.913 1394.88C283.913 1395.94 283.961 1396.61 284.057 1397.42L278.489 1397.57C278.681 1396.7 278.777 1394.26 278.777 1392C278.777 1391.33 278.777 1391.33 278.777 1390.85C276.425 1391.95 275.177 1392.62 274.169 1393.34C272.489 1394.59 271.673 1395.89 271.673 1397.28C271.673 1399.78 273.977 1400.78 279.785 1400.78C285.545 1400.78 290.489 1400.06 293.897 1398.77L294.377 1404.96C293.561 1404.96 293.321 1405.01 292.169 1405.15C288.713 1405.68 284.105 1406.02 279.881 1406.02C274.793 1406.02 271.625 1405.44 269.177 1404C266.969 1402.75 265.673 1400.45 265.673 1397.81C265.673 1395.84 266.249 1394.3 267.785 1392.48C269.945 1389.79 272.681 1387.97 278.105 1385.71C277.865 1383.94 276.905 1383.12 275.177 1383.12C272.393 1383.12 269.033 1384.8 265.337 1388.06C263.321 1389.74 262.217 1390.94 261.161 1392.43L256.793 1388.11C258.041 1387.15 259.433 1385.81 261.113 1383.84C262.985 1381.63 265.913 1377.46 266.873 1375.63C267.065 1375.25 267.065 1375.25 267.257 1375.01C267.065 1375.01 266.441 1375.06 266.441 1375.06C265.673 1375.06 261.449 1374.96 260.393 1374.96C259.481 1374.91 259.481 1374.91 259.049 1374.91C258.905 1374.91 258.617 1374.91 258.281 1374.96Z" fill="black"/>
<path d="M226.025 1389.89V1387.78H214.649C212.921 1387.78 211.529 1387.82 210.233 1387.97V1383.79C211.385 1383.94 212.633 1383.98 214.745 1383.98H226.025V1382.16H215.849C214.121 1382.16 212.921 1382.21 211.817 1382.3C211.913 1381.3 211.961 1380.29 211.961 1379.09V1375.92C211.961 1374.58 211.913 1373.71 211.817 1372.56C213.065 1372.66 214.073 1372.7 215.897 1372.7H226.025V1370.88H212.873C210.521 1370.88 208.937 1370.98 207.257 1371.17V1366.42C208.745 1366.61 210.377 1366.7 213.161 1366.7H226.025C225.977 1365.02 225.929 1364.5 225.737 1363.44H231.545C231.305 1364.5 231.257 1364.98 231.209 1366.7H244.697C247.481 1366.7 249.065 1366.61 250.601 1366.42V1371.17C248.969 1370.98 247.289 1370.88 244.985 1370.88H231.209V1372.7H242.057C243.881 1372.7 244.937 1372.66 246.089 1372.56C245.993 1373.62 245.945 1374.43 245.945 1375.92V1379.09C245.945 1380.53 245.993 1381.25 246.089 1382.3C245.033 1382.21 243.785 1382.16 242.249 1382.16H231.209V1383.98H241.961C244.793 1383.98 245.753 1383.94 247.097 1383.84C246.953 1385.04 246.953 1385.71 246.953 1388.21V1389.89C249.017 1389.89 250.169 1389.79 251.129 1389.65V1394.21C249.977 1394.06 249.065 1393.97 246.953 1393.97V1396.75C246.953 1399.25 247.001 1400.54 247.193 1401.94H241.817V1400.06H231.209V1402.75C231.209 1407.07 230.009 1407.98 224.153 1407.98C223.001 1407.98 221.081 1407.89 219.545 1407.79C219.257 1405.87 218.969 1404.91 218.057 1403.04C220.649 1403.33 222.425 1403.47 224.153 1403.47C225.641 1403.47 226.025 1403.23 226.025 1402.37V1400.06H214.745C212.585 1400.06 211.433 1400.11 209.993 1400.3V1395.84C211.289 1395.98 212.105 1396.03 214.553 1396.03H226.025V1393.97H212.249C209.513 1393.97 208.217 1394.02 206.969 1394.21V1389.65C208.217 1389.84 209.417 1389.89 212.153 1389.89H226.025ZM231.209 1389.89H241.817V1387.78H231.209V1389.89ZM231.209 1393.97V1396.03H241.817V1393.97H231.209ZM226.025 1376.45H217.049V1378.42H226.025V1376.45ZM231.209 1376.45V1378.42H240.857V1376.45H231.209Z" fill="black"/>
<path d="M176.823 1393.49H171.639V1401.65C176.247 1400.93 176.631 1400.88 180.999 1399.92V1404.53C175.911 1405.73 172.167 1406.45 163.575 1407.89C162.951 1408.03 162.327 1408.13 161.367 1408.37L160.455 1402.85H160.935C161.031 1402.85 161.127 1402.85 161.175 1402.85C161.799 1402.85 164.679 1402.61 166.599 1402.37V1380.72C166.599 1380.14 166.599 1379.81 166.551 1378.56C164.295 1379.71 163.239 1380.19 160.551 1381.3C159.687 1378.8 159.447 1378.27 158.199 1376.06C166.503 1373.42 173.559 1368.96 177.783 1363.73H183.447C185.895 1366.61 188.391 1368.72 191.991 1370.88C195.543 1373.04 199.527 1374.77 203.655 1375.92C202.647 1377.55 201.927 1379.14 201.255 1381.25C198.663 1380.29 197.031 1379.52 194.919 1378.42C194.919 1379.18 194.919 1379.47 194.919 1380.14V1390.13C194.919 1391.09 194.919 1391.52 194.967 1392.29C195.351 1391.86 195.447 1391.71 195.879 1391.23L200.727 1393.82C197.703 1396.51 195.063 1398.53 192.183 1400.45C195.591 1401.74 198.615 1402.42 203.079 1402.9C201.879 1405.01 201.255 1406.4 200.631 1408.22C193.095 1406.74 188.055 1404.67 183.831 1401.31C180.663 1398.82 178.791 1396.7 176.823 1393.49ZM190.743 1393.49H182.535C183.879 1395.36 185.415 1396.8 187.527 1398.14C190.071 1396.56 191.511 1395.5 193.671 1393.54C192.615 1393.49 191.799 1393.49 190.743 1393.49ZM171.207 1375.78H178.167V1374.38C178.167 1373.04 178.119 1372.27 177.927 1371.5H183.207C183.063 1372.37 183.015 1373.04 183.015 1374.38V1375.78H190.407C186.327 1373.23 183.399 1370.78 180.663 1367.76C177.975 1370.83 175.095 1373.28 171.207 1375.78ZM171.639 1380.1V1382.5H189.879V1380.1H171.639ZM171.639 1386.58V1389.26H189.879V1386.58H171.639Z" fill="black"/>
<path d="M128.823 1389.31L128.871 1398.77C128.871 1400.74 128.775 1401.89 128.487 1402.85C128.055 1404.53 126.327 1405.63 124.071 1405.63C121.047 1405.63 117.399 1404.29 114.999 1402.22C113.271 1400.74 112.359 1398.86 112.359 1396.8C112.359 1394.54 113.847 1392 116.487 1389.7C118.215 1388.21 120.327 1386.96 123.495 1385.62L123.447 1378.22C123.063 1378.22 123.063 1378.22 121.479 1378.32C120.759 1378.37 120.087 1378.37 118.887 1378.37C118.167 1378.37 116.823 1378.32 116.247 1378.32C115.623 1378.27 115.191 1378.27 115.047 1378.27C114.855 1378.27 114.471 1378.27 114.039 1378.32L113.991 1372.94C115.335 1373.23 117.255 1373.38 119.799 1373.38C120.279 1373.38 120.807 1373.38 121.479 1373.33C122.631 1373.28 122.871 1373.28 123.399 1373.28V1370.11C123.399 1367.38 123.351 1366.13 123.111 1364.59H129.111C128.871 1366.13 128.823 1367.14 128.823 1369.82V1372.9C132.423 1372.46 135.639 1371.84 138.087 1371.07L138.279 1376.45C137.415 1376.59 136.503 1376.74 133.191 1377.31C131.607 1377.6 130.647 1377.74 128.823 1377.94V1384.18C132.087 1383.22 135.111 1382.83 138.615 1382.83C146.631 1382.83 152.343 1387.73 152.343 1394.54C152.343 1400.78 147.687 1405.49 141.447 1405.49C137.559 1405.49 134.823 1403.62 133.575 1400.16C132.951 1398.53 132.759 1396.94 132.759 1394.02C135.207 1393.34 136.023 1393.01 138.087 1391.9C137.991 1392.82 137.991 1393.25 137.991 1394.02C137.991 1396.03 138.183 1397.33 138.663 1398.24C139.191 1399.25 140.343 1399.87 141.687 1399.87C144.519 1399.87 146.535 1397.62 146.535 1394.54C146.535 1390.42 143.175 1387.73 138.039 1387.73C135.159 1387.73 132.231 1388.26 128.823 1389.31ZM123.447 1398.05V1391.04C119.847 1392.96 117.735 1395.07 117.735 1396.8C117.735 1397.62 118.215 1398.34 119.319 1399.01C120.279 1399.68 121.479 1400.06 122.391 1400.06C123.207 1400.06 123.447 1399.63 123.447 1398.05ZM154.455 1377.79L150.039 1381.34C147.639 1377.55 144.135 1373.76 140.439 1370.98L144.951 1367.95C149.127 1371.17 151.911 1374.05 154.455 1377.79Z" fill="black"/>
<path d="M717.403 1170.25V1168.76C717.403 1167.26 717.267 1165.97 716.995 1164.47H725.427C725.155 1165.9 725.019 1167.12 725.019 1168.76V1170.25H740.455C744.195 1170.25 746.779 1170.12 748.887 1169.84V1177.12C746.711 1176.92 744.875 1176.85 741.611 1176.85H738.483C736.783 1180.72 735.695 1183.1 734.539 1185.08H744.739C748.751 1185.08 750.655 1185.01 752.559 1184.74V1192.01C750.587 1191.74 748.683 1191.67 744.739 1191.67H699.043C695.099 1191.67 693.263 1191.74 691.223 1192.01V1184.74C693.331 1185.01 695.303 1185.08 699.315 1185.08H707.951C707.271 1182.63 705.775 1179.16 704.415 1176.85H701.559C698.363 1176.85 696.663 1176.92 694.555 1177.12V1169.84C696.595 1170.12 699.043 1170.25 702.511 1170.25H717.403ZM715.771 1185.08H726.923C728.487 1182.42 729.779 1179.57 730.663 1176.85H712.371C713.731 1179.57 714.819 1182.22 715.771 1185.08ZM705.775 1195.62H737.735C740.523 1195.62 742.087 1195.55 744.263 1195.34C744.059 1197.52 743.991 1199.15 743.991 1201.46V1220.91C743.991 1223.7 744.127 1225.6 744.399 1227.58H736.579V1224.65H706.999V1227.58H699.179C699.451 1225.47 699.587 1223.5 699.587 1220.91V1201.46C699.587 1199.36 699.519 1197.52 699.247 1195.34C701.491 1195.55 702.987 1195.62 705.775 1195.62ZM706.999 1201.94V1206.77H736.579V1201.94H706.999ZM706.999 1212.75V1218.19H736.579V1212.75H706.999Z" fill="black"/>
<path d="M649.403 1170.25V1168.76C649.403 1167.26 649.267 1165.97 648.995 1164.47H657.427C657.155 1165.9 657.019 1167.12 657.019 1168.76V1170.25H672.455C676.195 1170.25 678.779 1170.12 680.887 1169.84V1177.12C678.711 1176.92 676.875 1176.85 673.611 1176.85H670.483C668.783 1180.72 667.695 1183.1 666.539 1185.08H676.739C680.751 1185.08 682.655 1185.01 684.559 1184.74V1192.01C682.587 1191.74 680.683 1191.67 676.739 1191.67H631.043C627.099 1191.67 625.263 1191.74 623.223 1192.01V1184.74C625.331 1185.01 627.303 1185.08 631.315 1185.08H639.951C639.271 1182.63 637.775 1179.16 636.415 1176.85H633.559C630.363 1176.85 628.663 1176.92 626.555 1177.12V1169.84C628.595 1170.12 631.043 1170.25 634.511 1170.25H649.403ZM647.771 1185.08H658.923C660.487 1182.42 661.779 1179.57 662.663 1176.85H644.371C645.731 1179.57 646.819 1182.22 647.771 1185.08ZM637.775 1195.62H669.735C672.523 1195.62 674.087 1195.55 676.263 1195.34C676.059 1197.52 675.991 1199.15 675.991 1201.46V1220.91C675.991 1223.7 676.127 1225.6 676.399 1227.58H668.579V1224.65H638.999V1227.58H631.179C631.451 1225.47 631.587 1223.5 631.587 1220.91V1201.46C631.587 1199.36 631.519 1197.52 631.247 1195.34C633.491 1195.55 634.987 1195.62 637.775 1195.62ZM638.999 1201.94V1206.77H668.579V1201.94H638.999ZM638.999 1212.75V1218.19H668.579V1212.75H638.999Z" fill="black"/>
<path d="M545.02 1168.82L554.268 1169.3C553.996 1171.2 553.996 1171.2 553.588 1184.53C553.112 1197.79 551.616 1205.48 548.08 1212.48C545.768 1217.17 543.184 1220.64 538.696 1225.06C536.044 1221.66 535.024 1220.64 531.828 1218.46C535.16 1215.74 536.792 1213.91 538.832 1210.64C543.728 1202.82 545.292 1194.05 545.292 1175.01C545.292 1171.27 545.292 1170.66 545.02 1168.82ZM563.04 1168.35L572.288 1168.48C571.948 1170.46 571.88 1171.61 571.812 1174.94L571.472 1213.64C576.232 1211.39 578.952 1209.35 581.876 1205.88C585.004 1202.21 586.976 1198.47 588.54 1193.44C590.92 1196.5 591.804 1197.38 594.932 1199.83C592.144 1206.56 588.608 1211.66 584.12 1215.68C580.244 1219.01 576.708 1221.05 569.636 1223.84C568.14 1224.38 567.596 1224.65 566.712 1225.06L562.36 1220.44C562.836 1218.46 562.904 1216.97 562.972 1213.23L563.312 1174.88V1172.84C563.312 1171.14 563.244 1169.64 563.04 1168.35Z" fill="black"/>
<path d="M480.013 1171.07L489.329 1172.77C489.125 1173.52 489.057 1173.58 488.989 1174.13L488.853 1175.28L488.513 1177.26L488.309 1178.89C485.453 1198.4 480.149 1211.8 471.037 1222.27C467.841 1219.21 466.549 1218.19 463.285 1216.42C467.365 1212.34 470.153 1208.2 473.009 1201.94C475.933 1195.62 478.313 1187.18 479.401 1178.62C479.809 1175.83 480.013 1173.52 480.013 1172.02C480.013 1171.82 480.013 1171.48 480.013 1171.07ZM500.209 1172.7L508.641 1171.07C508.709 1174.2 509.933 1180.86 511.497 1186.71C514.829 1199.29 519.589 1208.47 526.661 1216.08C523.193 1218.26 521.765 1219.42 519.181 1222.34C510.137 1211.53 503.813 1195.89 501.161 1177.6C500.753 1174.81 500.549 1173.72 500.209 1172.7ZM509.321 1168.48L514.421 1166.99C516.937 1170.52 518.433 1173.38 520.065 1177.94L514.897 1179.57C513.333 1175.22 511.905 1172.29 509.321 1168.48ZM528.973 1175.22L523.805 1176.85C522.241 1172.63 520.541 1169.23 518.365 1166.1L523.397 1164.68C525.981 1168.28 527.477 1171.14 528.973 1175.22Z" fill="black"/>
<path d="M421.263 1207.11H413.919V1218.67C420.447 1217.65 420.991 1217.58 427.179 1216.22V1222.75C419.971 1224.45 414.667 1225.47 402.495 1227.51C401.611 1227.71 400.727 1227.85 399.367 1228.19L398.075 1220.37H398.755C398.891 1220.37 399.027 1220.37 399.095 1220.37C399.979 1220.37 404.059 1220.03 406.779 1219.69V1189.02C406.779 1188.2 406.779 1187.73 406.711 1185.96C403.515 1187.59 402.019 1188.27 398.211 1189.84C396.987 1186.3 396.647 1185.55 394.879 1182.42C406.643 1178.68 416.639 1172.36 422.623 1164.95H430.647C434.115 1169.03 437.651 1172.02 442.751 1175.08C447.783 1178.14 453.427 1180.59 459.275 1182.22C457.847 1184.53 456.827 1186.78 455.875 1189.77C452.203 1188.41 449.891 1187.32 446.899 1185.76C446.899 1186.84 446.899 1187.25 446.899 1188.2V1202.35C446.899 1203.71 446.899 1204.32 446.967 1205.41C447.511 1204.8 447.647 1204.59 448.259 1203.91L455.127 1207.58C450.843 1211.39 447.103 1214.25 443.023 1216.97C447.851 1218.8 452.135 1219.76 458.459 1220.44C456.759 1223.43 455.875 1225.4 454.991 1227.98C444.315 1225.88 437.175 1222.95 431.191 1218.19C426.703 1214.66 424.051 1211.66 421.263 1207.11ZM440.983 1207.11H429.355C431.259 1209.76 433.435 1211.8 436.427 1213.7C440.031 1211.46 442.071 1209.96 445.131 1207.18C443.635 1207.11 442.479 1207.11 440.983 1207.11ZM413.307 1182.02H423.167V1180.04C423.167 1178.14 423.099 1177.05 422.827 1175.96H430.307C430.103 1177.19 430.035 1178.14 430.035 1180.04V1182.02H440.507C434.727 1178.41 430.579 1174.94 426.703 1170.66C422.895 1175.01 418.815 1178.48 413.307 1182.02ZM413.919 1188.14V1191.54H439.759V1188.14H413.919ZM413.919 1197.32V1201.12H439.759V1197.32H413.919Z" fill="black"/>
<path d="M340.137 1183.1V1176.44C337.417 1176.98 335.785 1177.26 331.093 1178C330.481 1175.08 330.005 1173.65 328.645 1171.2C338.913 1170.18 349.453 1167.46 353.601 1164.68L358.021 1171.2L357.613 1171.34C357.137 1171.48 357.137 1171.48 356.185 1171.82C356.117 1171.82 355.845 1171.88 355.437 1172.09C353.465 1172.84 349.181 1174.2 347.277 1174.74V1183.1H351.289C354.009 1183.1 355.505 1183.04 357.001 1182.76V1190.18C355.301 1189.9 353.669 1189.84 351.221 1189.84H347.753C348.569 1191.81 349.045 1192.62 350.541 1194.6C353.125 1198.13 355.165 1200.17 358.769 1202.96C356.729 1204.93 356.321 1205.48 354.417 1208.88C351.153 1205.34 349.113 1202.42 346.869 1198.13C347.141 1200.58 347.277 1203.03 347.277 1206.84V1218.74C347.277 1222.95 347.345 1225.06 347.685 1227.37H339.661C340.001 1224.92 340.069 1222.95 340.069 1218.74V1207.45C340.069 1205.61 340.137 1204.18 340.409 1199.42C339.117 1203.1 338.233 1204.93 335.649 1209.35C334.493 1211.32 333.541 1212.62 331.025 1215.61C329.801 1212.96 328.917 1211.53 326.809 1209.15C330.005 1206.29 332.657 1202.76 335.309 1197.79C337.213 1194.39 337.213 1194.39 338.981 1189.84H334.765C332.249 1189.84 330.413 1189.97 328.509 1190.24V1182.7C330.481 1183.04 332.113 1183.1 334.901 1183.1H340.137ZM366.453 1221.25V1225.74H358.973C359.177 1223.63 359.313 1220.84 359.313 1217.78V1177.12C359.313 1174.13 359.245 1171.88 358.973 1169.91C361.081 1170.18 362.645 1170.25 365.637 1170.25H381.209C384.065 1170.25 385.901 1170.18 387.941 1169.91C387.669 1171.95 387.601 1173.92 387.601 1177.12V1217.1C387.601 1220.64 387.737 1223.56 388.009 1225.81H380.189V1221.25H366.453ZM366.589 1177.32V1214.11H380.189V1177.32H366.589Z" fill="black"/>
</svg>
